<?xml version="1.0" encoding="iso-8859-1"?>
<!-- Generator: Adobe Illustrator 16.0.0, SVG Export Plug-In . SVG Version: 6.00 Build 0)  -->
<!DOCTYPE svg PUBLIC "-//W3C//DTD SVG 1.1//EN" "http://www.w3.org/Graphics/SVG/1.1/DTD/svg11.dtd">
<svg version="1.1" xmlns="http://www.w3.org/2000/svg" xmlns:xlink="http://www.w3.org/1999/xlink" x="0px" y="0px"
	 width="36.402px" height="36.399px" viewBox="0 0 36.402 36.399" style="enable-background:new 0 0 36.402 36.399;"
	 xml:space="preserve">
<g id="LargePointingUp">
	<rect x="1.948" y="2.646" style="fill:#EDE5D4;" width="32.281" height="32.281"/>
	<g>
		<path style="fill:#1D3160;" d="M33.702,3.4v31H2.7v-31H33.702 M34.702,1.4H1.7c-0.553,0-1,0.447-1,1v33c0,0.553,0.447,1,1,1
			h33.002c0.553,0,1-0.447,1-1v-33C35.702,1.847,35.255,1.4,34.702,1.4L34.702,1.4z"/>
	</g>
	<line style="fill:none;stroke:#1D3160;stroke-width:2;stroke-miterlimit:10;" x1="1.948" y1="2.646" x2="34.229" y2="34.927"/>
	<line style="fill:#231F20;stroke:#1D3160;stroke-width:2;stroke-miterlimit:10;" x1="1.45" y1="35.608" x2="34.077" y2="2.98"/>
	<g>
		<path style="fill:#1D3160;" d="M13.354,31.855c0-0.004,0-0.012,0.002-0.018c0.083-0.871,0.869-2.473,1.172-3.064
			c0.051-0.097,0.19-0.097,0.238,0c0.303,0.594,1.088,2.198,1.176,3.061c0.002,0.008,0.002,0.018,0.003,0.025
			c0.003,0.042,0.005,0.082,0.005,0.119c0,0.721-0.58,1.303-1.302,1.303c-0.718,0-1.3-0.582-1.3-1.303
			C13.348,31.94,13.348,31.898,13.354,31.855"/>
		<path style="fill:#1D3160;" d="M16.908,31.855c0-0.004,0-0.012,0.002-0.018c0.082-0.871,0.869-2.473,1.172-3.064
			c0.053-0.097,0.189-0.097,0.237,0c0.304,0.594,1.087,2.198,1.173,3.061c0.002,0.008,0.002,0.018,0.004,0.025
			c0.002,0.042,0.006,0.082,0.006,0.119c0,0.721-0.582,1.303-1.3,1.303S16.9,32.699,16.9,31.979
			C16.9,31.94,16.904,31.898,16.908,31.855"/>
		<path style="fill:#1D3160;" d="M20.459,31.855c0.001-0.004,0.001-0.012,0.001-0.018c0.085-0.871,0.872-2.473,1.175-3.064
			c0.05-0.097,0.189-0.097,0.236,0c0.304,0.594,1.089,2.198,1.175,3.061c0.001,0.008,0.001,0.018,0.003,0.025
			c0.004,0.042,0.007,0.082,0.007,0.119c0,0.721-0.583,1.303-1.302,1.303s-1.301-0.582-1.301-1.303
			C20.453,31.94,20.455,31.898,20.459,31.855"/>
	</g>
</g>
<g id="Layer_1">
</g>
</svg>
