<?xml version="1.0" encoding="iso-8859-1"?>
<!-- Generator: Adobe Illustrator 16.0.0, SVG Export Plug-In . SVG Version: 6.00 Build 0)  -->
<!DOCTYPE svg PUBLIC "-//W3C//DTD SVG 1.1//EN" "http://www.w3.org/Graphics/SVG/1.1/DTD/svg11.dtd">
<svg version="1.1" xmlns="http://www.w3.org/2000/svg" xmlns:xlink="http://www.w3.org/1999/xlink" x="0px" y="0px"
	 width="37.452px" height="43.757px" viewBox="0 0 37.452 43.757" style="enable-background:new 0 0 37.452 43.757;"
	 xml:space="preserve">
<g id="Nest">
	<g>
		<g>
			<g style="opacity:0.5;">
				<g>
					<polygon style="fill:none;stroke:#1D3160;stroke-width:2;stroke-linejoin:round;stroke-miterlimit:10;" points="5.958,42.757 
						18.726,12.745 31.495,42.757 					"/>
				</g>
			</g>
			<g style="opacity:0.25;">
				<g>
					<polygon style="fill:none;stroke:#1D3160;stroke-width:2;stroke-linejoin:round;stroke-miterlimit:10;" points="10.373,42.756 
						18.787,23.016 27.201,42.756 					"/>
				</g>
			</g>
		</g>
		<polygon style="fill:none;stroke:#1D3160;stroke-width:2;stroke-linejoin:round;stroke-miterlimit:10;" points="1.841,42.757 
			18.726,2.683 35.611,42.757 		"/>
		<g>
			<path style="fill:#1D3160;" d="M7.421,38.203c0.002-0.008,0.002-0.015,0.003-0.021c0.108-1.126,1.124-3.194,1.516-3.959
				c0.065-0.125,0.243-0.125,0.308,0.001c0.391,0.766,1.402,2.839,1.516,3.951c0.001,0.012,0.002,0.022,0.003,0.033
				c0.005,0.055,0.008,0.107,0.008,0.156c0,0.928-0.752,1.68-1.68,1.68c-0.929,0-1.681-0.752-1.681-1.68
				C7.414,38.313,7.417,38.26,7.421,38.203"/>
			<path style="fill:#1D3160;" d="M12.011,38.203c0-0.008,0.001-0.015,0.002-0.021c0.107-1.126,1.124-3.194,1.516-3.959
				c0.065-0.125,0.243-0.125,0.307,0.001c0.392,0.766,1.403,2.839,1.517,3.951c0.001,0.012,0.002,0.022,0.003,0.033
				c0.005,0.055,0.008,0.107,0.008,0.156c0,0.928-0.752,1.68-1.68,1.68s-1.68-0.752-1.68-1.68
				C12.003,38.313,12.005,38.26,12.011,38.203"/>
			<path style="fill:#1D3160;" d="M16.599,38.203c0.002-0.008,0.002-0.015,0.002-0.021c0.108-1.126,1.125-3.194,1.517-3.959
				c0.065-0.125,0.243-0.125,0.308,0.001c0.391,0.766,1.402,2.839,1.516,3.951c0,0.012,0.002,0.022,0.002,0.033
				c0.006,0.055,0.009,0.107,0.009,0.156c0,0.928-0.752,1.68-1.681,1.68c-0.928,0-1.68-0.752-1.68-1.68
				C16.591,38.313,16.595,38.26,16.599,38.203"/>
		</g>
	</g>
</g>
<g id="Layer_1">
</g>
</svg>
