<?xml version="1.0" encoding="iso-8859-1"?>
<!-- Generator: Adobe Illustrator 16.0.0, SVG Export Plug-In . SVG Version: 6.00 Build 0)  -->
<!DOCTYPE svg PUBLIC "-//W3C//DTD SVG 1.1//EN" "http://www.w3.org/Graphics/SVG/1.1/DTD/svg11.dtd">
<svg version="1.1" xmlns="http://www.w3.org/2000/svg" xmlns:xlink="http://www.w3.org/1999/xlink" x="0px" y="0px"
	 width="21.805px" height="21.803px" viewBox="0 0 21.805 21.803" style="enable-background:new 0 0 21.805 21.803;"
	 xml:space="preserve">
<g id="SmallPointingUp">
	<rect x="1.167" y="1.585" style="fill:#EDE5D4;" width="19.335" height="19.336"/>
	<g>
		<path style="fill:#1D3160;" d="M19.384,2.838v16.964H2.419V2.838H19.384 M20.785,0.838H1.018c-0.331,0-0.599,0.268-0.599,0.599
			v19.767c0,0.331,0.268,0.599,0.599,0.599h19.767c0.331,0,0.599-0.268,0.599-0.599V1.438C21.384,1.106,21.116,0.838,20.785,0.838
			L20.785,0.838z"/>
	</g>
	<line style="fill:none;stroke:#1D3160;stroke-width:2;stroke-miterlimit:10;" x1="1.167" y1="1.585" x2="20.502" y2="20.921"/>
	<line style="fill:#231F20;stroke:#1D3160;stroke-width:2;stroke-miterlimit:10;" x1="2.041" y1="20.156" x2="20.411" y2="1.785"/>
	<g>
		<path style="fill:#1D3160;" d="M9.542,17.504c0-0.005,0-0.013,0.002-0.018c0.083-0.871,0.868-2.474,1.173-3.065
			c0.051-0.097,0.189-0.097,0.236,0c0.304,0.595,1.086,2.198,1.173,3.062c0.002,0.007,0.002,0.017,0.003,0.025
			c0.003,0.041,0.006,0.082,0.006,0.119c0,0.72-0.582,1.302-1.299,1.302s-1.302-0.582-1.302-1.302
			C9.534,17.588,9.538,17.547,9.542,17.504"/>
	</g>
</g>
<g id="Layer_1">
</g>
</svg>
