<?xml version="1.0" encoding="iso-8859-1"?>
<!-- Generator: Adobe Illustrator 16.0.0, SVG Export Plug-In . SVG Version: 6.00 Build 0)  -->
<!DOCTYPE svg PUBLIC "-//W3C//DTD SVG 1.1//EN" "http://www.w3.org/Graphics/SVG/1.1/DTD/svg11.dtd">
<svg version="1.1" xmlns="http://www.w3.org/2000/svg" xmlns:xlink="http://www.w3.org/1999/xlink" x="0px" y="0px"
	 width="38.579px" height="73.006px" viewBox="0 0 38.579 73.006" style="enable-background:new 0 0 38.579 73.006;"
	 xml:space="preserve">
<g id="Tree">
	<polygon style="opacity:0.75;fill:#ED1C24;" points="2.404,72.006 19.289,31.932 36.176,72.006 	"/>
	<polygon style="fill:none;stroke:#1D3160;stroke-width:2;stroke-linejoin:round;stroke-miterlimit:10;" points="2.404,72.006 
		19.289,31.932 36.176,72.006 	"/>
	<g>
		<path style="fill:#1D3160;" d="M7.986,67.453c0-0.008,0-0.016,0.002-0.021c0.107-1.127,1.123-3.195,1.516-3.959
			c0.064-0.125,0.242-0.125,0.307,0c0.391,0.766,1.402,2.84,1.516,3.951c0.002,0.012,0.002,0.023,0.004,0.033
			c0.004,0.055,0.008,0.107,0.008,0.156c0,0.928-0.752,1.68-1.68,1.68s-1.68-0.752-1.68-1.68C7.978,67.563,7.98,67.508,7.986,67.453
			"/>
		<path style="fill:#1D3160;" d="M12.574,67.453c0-0.008,0.002-0.016,0.002-0.021c0.107-1.127,1.125-3.195,1.516-3.959
			c0.066-0.125,0.244-0.125,0.309,0c0.391,0.766,1.402,2.84,1.516,3.951c0,0.012,0.002,0.023,0.002,0.033
			c0.006,0.055,0.008,0.107,0.008,0.156c0,0.928-0.752,1.68-1.68,1.68s-1.68-0.752-1.68-1.68
			C12.566,67.563,12.57,67.508,12.574,67.453"/>
		<path style="fill:#1D3160;" d="M17.162,67.453c0.002-0.008,0.002-0.016,0.004-0.021c0.107-1.127,1.123-3.195,1.516-3.959
			c0.064-0.125,0.242-0.125,0.307,0c0.391,0.766,1.403,2.84,1.516,3.951c0.002,0.012,0.002,0.023,0.004,0.033
			c0.004,0.055,0.008,0.107,0.008,0.156c0,0.928-0.752,1.68-1.68,1.68c-0.93,0-1.682-0.752-1.682-1.68
			C17.154,67.563,17.158,67.508,17.162,67.453"/>
	</g>
	<polygon style="opacity:0.75;fill:#00AEEF;" points="6.066,49.561 18.834,15.808 31.604,49.561 	"/>
	<polygon style="fill:none;stroke:#1D3160;stroke-width:2;stroke-linejoin:round;stroke-miterlimit:10;" points="6.066,49.561 
		18.834,15.808 31.604,49.561 	"/>
	<g>
		<path style="fill:#1D3160;" d="M11.306,45.061c0-0.008,0-0.016,0.002-0.021c0.107-1.127,1.123-3.195,1.516-3.959
			c0.064-0.125,0.242-0.125,0.307,0c0.391,0.766,1.403,2.84,1.516,3.951c0.002,0.012,0.002,0.023,0.004,0.033
			c0.005,0.055,0.008,0.107,0.008,0.156c0,0.928-0.752,1.68-1.68,1.68s-1.68-0.752-1.68-1.68
			C11.298,45.17,11.3,45.117,11.306,45.061"/>
		<path style="fill:#1D3160;" d="M15.894,45.061c0.002-0.008,0.002-0.016,0.002-0.021c0.108-1.127,1.125-3.195,1.517-3.959
			c0.065-0.125,0.243-0.125,0.308,0c0.391,0.766,1.402,2.84,1.516,3.951c0,0.012,0.002,0.023,0.003,0.033
			c0.005,0.055,0.008,0.107,0.008,0.156c0,0.928-0.752,1.68-1.681,1.68c-0.928,0-1.68-0.752-1.68-1.68
			C15.886,45.17,15.89,45.117,15.894,45.061"/>
	</g>
	<polygon style="opacity:0.75;fill:#FFF200;" points="9.247,27.808 18.835,3.808 28.422,27.808 	"/>
	<polygon style="fill:none;stroke:#1D3160;stroke-width:2;stroke-linejoin:round;stroke-miterlimit:10;" points="9.247,27.808 
		18.835,3.808 28.422,27.808 	"/>
	<g>
		<path style="fill:#1D3160;" d="M17.064,23.255c0.001-0.008,0.001-0.016,0.002-0.021c0.108-1.127,1.124-3.195,1.517-3.959
			c0.064-0.125,0.242-0.125,0.307,0c0.391,0.766,1.402,2.84,1.516,3.951c0.001,0.012,0.002,0.023,0.004,0.035
			c0.004,0.053,0.008,0.105,0.008,0.154c0,0.93-0.752,1.682-1.681,1.682c-0.928,0-1.68-0.752-1.68-1.682
			C17.057,23.364,17.06,23.312,17.064,23.255"/>
	</g>
</g>
<g id="Layer_1">
</g>
</svg>
