<?xml version="1.0" encoding="iso-8859-1"?>
<!-- Generator: Adobe Illustrator 16.0.0, SVG Export Plug-In . SVG Version: 6.00 Build 0)  -->
<!DOCTYPE svg PUBLIC "-//W3C//DTD SVG 1.1//EN" "http://www.w3.org/Graphics/SVG/1.1/DTD/svg11.dtd">
<svg version="1.1" xmlns="http://www.w3.org/2000/svg" xmlns:xlink="http://www.w3.org/1999/xlink" x="0px" y="0px"
	 width="41.954px" height="40.726px" viewBox="0 0 41.954 40.726" style="enable-background:new 0 0 41.954 40.726;"
	 xml:space="preserve">
<g id="PurpleSpade">
	<g>
		<path style="fill:#231F20;" d="M30.324,40.726H1.783c-0.552,0-1-0.447-1-1V12.099c0-0.283,0.118-0.539,0.307-0.721l9.846-9.53
			c0.187-0.18,0.436-0.281,0.695-0.281h28.541c0.553,0,1,0.448,1,1v27.627c0,0.271-0.11,0.53-0.305,0.719l-9.848,9.532
			C30.84,40.618,30.595,40.726,30.324,40.726z M2.783,38.726h26.541V13.099H2.783V38.726z M31.324,12.522v24.844l7.848-7.597V4.926
			L31.324,12.522z M4.254,11.099H29.92l7.781-7.532H12.036L4.254,11.099z"/>
		<path id="path1939" style="fill:#231F20;" d="M15.495,16.187c-0.237,0.986-0.603,1.873-1.096,2.647
			c-0.494,0.776-1.372,1.734-2.637,2.88c-1.265,1.146-2.067,2.025-2.405,2.637c-0.338,0.612-0.505,1.233-0.505,1.863
			c0,0.877,0.292,1.606,0.877,2.192c0.584,0.584,1.296,0.877,2.137,0.877c1.503,0,2.667-1.1,3.434-2.296
			c-0.059,1.31-0.274,2.356-0.652,3.142c-0.406,0.846-1.028,1.544-1.869,2.101c-0.566,0.375-1.586,0.703-3.056,0.986l-0.109,0.469
			h5.875h5.881l-0.108-0.469c-1.472-0.283-2.491-0.611-3.057-0.986c-0.841-0.557-1.463-1.255-1.869-2.101
			c-0.377-0.783-0.593-1.829-0.651-3.136c0.767,1.196,1.937,2.29,3.439,2.29c0.841,0,1.553-0.293,2.138-0.877
			c0.585-0.586,0.877-1.315,0.877-2.192c0-0.63-0.168-1.251-0.506-1.863c-0.339-0.611-1.14-1.49-2.406-2.637
			c-1.265-1.146-2.142-2.104-2.634-2.88C16.098,18.06,15.732,17.173,15.495,16.187z"/>
	</g>
</g>
<g id="Layer_1">
</g>
</svg>
