<?xml version="1.0" encoding="iso-8859-1"?>
<!-- Generator: Adobe Illustrator 16.0.0, SVG Export Plug-In . SVG Version: 6.00 Build 0)  -->
<!DOCTYPE svg PUBLIC "-//W3C//DTD SVG 1.1//EN" "http://www.w3.org/Graphics/SVG/1.1/DTD/svg11.dtd">
<svg version="1.1" xmlns="http://www.w3.org/2000/svg" xmlns:xlink="http://www.w3.org/1999/xlink" x="0px" y="0px"
	 width="41.954px" height="40.726px" viewBox="0 0 41.954 40.726" style="enable-background:new 0 0 41.954 40.726;"
	 xml:space="preserve">
<g id="GreenClub">
	<g>
		<path style="fill:#231F20;" d="M30.324,40.726H1.783c-0.552,0-1-0.447-1-1V12.099c0-0.282,0.117-0.537,0.305-0.718l9.847-9.532
			c0.187-0.181,0.436-0.282,0.695-0.282h28.541c0.553,0,1,0.448,1,1v27.627c0,0.271-0.109,0.53-0.305,0.719l-9.847,9.532
			C30.84,40.618,30.595,40.726,30.324,40.726z M2.783,38.726h26.541V13.099H2.783V38.726z M31.324,12.522v24.843l7.847-7.596V4.926
			L31.324,12.522z M4.254,11.099H29.92l7.78-7.532H12.035L4.254,11.099z"/>
		<g>
			<path style="fill:#231F20;" d="M20.012,24.729c-0.75,0-1.447,0.229-2.025,0.62v-0.003c1.003-0.643,1.669-1.767,1.669-3.047
				c0-1.997-1.62-3.616-3.617-3.616s-3.617,1.619-3.617,3.616c0,1.28,0.666,2.404,1.669,3.047v0.003
				c-0.578-0.391-1.274-0.62-2.025-0.62c-1.997,0-3.616,1.619-3.616,3.616c0,1.998,1.619,3.617,3.616,3.617
				c1.463,0,2.722-0.869,3.292-2.118l-1.294,3.618h3.953l-1.295-3.618c0.57,1.249,1.828,2.118,3.291,2.118
				c1.997,0,3.616-1.619,3.616-3.617C23.628,26.348,22.009,24.729,20.012,24.729"/>
		</g>
	</g>
</g>
<g id="Layer_1">
</g>
</svg>
