<?xml version="1.0" encoding="iso-8859-1"?>
<!-- Generator: Adobe Illustrator 16.0.0, SVG Export Plug-In . SVG Version: 6.00 Build 0)  -->
<!DOCTYPE svg PUBLIC "-//W3C//DTD SVG 1.1//EN" "http://www.w3.org/Graphics/SVG/1.1/DTD/svg11.dtd">
<svg version="1.1" xmlns="http://www.w3.org/2000/svg" xmlns:xlink="http://www.w3.org/1999/xlink" x="0px" y="0px"
	 width="41.954px" height="40.726px" viewBox="0 0 41.954 40.726" style="enable-background:new 0 0 41.954 40.726;"
	 xml:space="preserve">
<g id="RedHeart">
	<g>
		<path style="fill:#231F20;" d="M30.324,40.726H1.783c-0.552,0-1-0.447-1-1V12.099c0-0.282,0.117-0.537,0.305-0.718l9.847-9.532
			c0.187-0.181,0.436-0.282,0.695-0.282h28.541c0.553,0,1,0.448,1,1v27.627c0,0.271-0.109,0.53-0.305,0.719l-9.847,9.532
			C30.84,40.618,30.595,40.726,30.324,40.726z M2.783,38.726h26.541V13.099H2.783V38.726z M31.324,12.522v24.843l7.847-7.596V4.926
			L31.324,12.522z M4.254,11.099H29.92l7.78-7.532H12.035L4.254,11.099z"/>
		<path style="fill:#231F20;" d="M19.913,19.79c-2.141,0-3.876,1.689-3.876,3.772c0-2.083-1.734-3.772-3.875-3.772
			c-2.141,0-3.873,1.689-3.873,3.772c0,3.965,7.748,9.76,7.748,9.76s7.75-5.795,7.75-9.76C23.787,21.479,22.053,19.79,19.913,19.79"
			/>
	</g>
</g>
<g id="Layer_1">
</g>
</svg>
