<?xml version="1.0" encoding="iso-8859-1"?>
<!-- Generator: Adobe Illustrator 16.0.0, SVG Export Plug-In . SVG Version: 6.00 Build 0)  -->
<!DOCTYPE svg PUBLIC "-//W3C//DTD SVG 1.1//EN" "http://www.w3.org/Graphics/SVG/1.1/DTD/svg11.dtd">
<svg version="1.1" xmlns="http://www.w3.org/2000/svg" xmlns:xlink="http://www.w3.org/1999/xlink" x="0px" y="0px"
	 width="41.954px" height="40.726px" viewBox="0 0 41.954 40.726" style="enable-background:new 0 0 41.954 40.726;"
	 xml:space="preserve">
<g id="YellowStar">
	<g>
		<path style="fill:#231F20;" d="M30.324,40.726H1.783c-0.552,0-1-0.447-1-1V12.099c0-0.283,0.118-0.539,0.307-0.721l9.846-9.53
			c0.187-0.18,0.436-0.281,0.695-0.281h28.541c0.553,0,1,0.448,1,1v27.627c0,0.271-0.11,0.53-0.305,0.719l-9.848,9.532
			C30.84,40.618,30.595,40.726,30.324,40.726z M2.783,38.726h26.541V13.099H2.783V38.726z M31.324,12.522v24.844l7.848-7.597V4.926
			L31.324,12.522z M4.254,11.099H29.92l7.781-7.532H12.036L4.254,11.099z"/>
		<polygon style="fill:#231F20;" points="16.037,18.686 13.625,23.575 8.228,24.359 12.133,28.166 11.211,33.54 16.037,31.003 
			20.864,33.54 19.942,28.166 23.848,24.359 18.451,23.575 		"/>
	</g>
</g>
<g id="Layer_1">
</g>
</svg>
