<?xml version="1.0" encoding="iso-8859-1"?>
<!-- Generator: Adobe Illustrator 16.0.0, SVG Export Plug-In . SVG Version: 6.00 Build 0)  -->
<!DOCTYPE svg PUBLIC "-//W3C//DTD SVG 1.1//EN" "http://www.w3.org/Graphics/SVG/1.1/DTD/svg11.dtd">
<svg version="1.1" xmlns="http://www.w3.org/2000/svg" xmlns:xlink="http://www.w3.org/1999/xlink" x="0px" y="0px"
	 width="23.265px" height="23.265px" viewBox="0 0 23.265 23.265" style="enable-background:new 0 0 23.265 23.265;"
	 xml:space="preserve">
<g id="DIG">
	<g>
		<path style="fill:#231F20;" d="M19.868,0.894H7.534c-0.789,0-1.53,0.308-2.086,0.864L0.959,6.247L0.96,6.248
			C0.643,6.564,0.447,7.002,0.447,7.485v14.029c0,0.967,0.784,1.751,1.75,1.751h14.029c0.484,0,0.924-0.197,1.24-0.516l4.487-4.487
			c0.558-0.557,0.864-1.297,0.864-2.085V3.844C22.818,2.217,21.495,0.894,19.868,0.894z M10.847,13.992
			c0.312,0.312,0.664,0.469,1.045,0.469s0.709-0.144,0.992-0.427c0.266-0.265,0.418-0.547,0.469-0.858l-0.395-0.394l-0.403,0.404
			c-0.204,0.204-0.474,0.194-0.645,0.023c-0.181-0.182-0.186-0.446,0.019-0.65l0.641-0.641c0.277-0.278,0.603-0.278,0.881,0
			l0.641,0.64c0.158,0.158,0.227,0.32,0.209,0.496c-0.061,0.627-0.321,1.175-0.78,1.634c-0.478,0.478-1.04,0.723-1.68,0.742
			c-0.636,0.014-1.201-0.227-1.688-0.715C9.646,14.21,9.4,13.64,9.419,13.009c0.014-0.636,0.264-1.192,0.75-1.68
			c0.423-0.422,0.92-0.659,1.486-0.705c0.314-0.019,0.533,0.171,0.537,0.436c0.023,0.273-0.144,0.478-0.473,0.51
			c-0.357,0.023-0.668,0.167-0.938,0.436c-0.256,0.255-0.385,0.571-0.395,0.951C10.378,13.328,10.533,13.677,10.847,13.992z
			 M10.806,16.614c0.227,0.227,0.223,0.511,0.023,0.71c-0.2,0.2-0.483,0.204-0.711-0.023l-2.565-2.565
			c-0.228-0.229-0.223-0.51-0.022-0.71c0.199-0.199,0.481-0.204,0.709,0.022L10.806,16.614z M4.146,17.465l0.631-0.631
			c0.465-0.464,0.993-0.761,1.587-0.872c0.595-0.121,1.267,0.098,1.828,0.658c0.57,0.57,0.788,1.243,0.691,1.852
			C8.8,18.938,8.6,19.375,8.3,19.764c-0.084,0.109-0.174,0.217-0.275,0.317l-0.631,0.631c-0.278,0.279-0.604,0.279-0.882,0
			l-0.949-0.948l-1.417-1.417c-0.125-0.125-0.185-0.26-0.198-0.396c-0.003-0.03-0.003-0.061,0-0.092
			C3.961,17.725,4.021,17.59,4.146,17.465z M15.668,20.706V8.055H3.605c-0.373,0-0.675-0.302-0.675-0.675s0.302-0.675,0.675-0.675
			h12.457l0.834-0.836l1.47-1.474l1.287-1.291c0.264-0.265,0.69-0.264,0.954-0.001c0.264,0.263,0.265,0.69,0.001,0.955l-1.292,1.296
			l-1.47,1.474l-0.829,0.832v13.047c0,0.373-0.302,0.675-0.675,0.675S15.668,21.079,15.668,20.706z"/>
		<path style="fill:#231F20;" d="M7.009,19.827l0.063-0.063l0.216-0.216c0.811-0.812,0.875-1.555,0.203-2.227
			c-0.645-0.646-1.373-0.558-2.186,0.254L5.033,17.85l1.913,1.914L7.009,19.827z"/>
	</g>
</g>
<g id="Layer_1">
</g>
</svg>
