<?xml version="1.0" encoding="iso-8859-1"?>
<!-- Generator: Adobe Illustrator 16.0.0, SVG Export Plug-In . SVG Version: 6.00 Build 0)  -->
<!DOCTYPE svg PUBLIC "-//W3C//DTD SVG 1.1//EN" "http://www.w3.org/Graphics/SVG/1.1/DTD/svg11.dtd">
<svg version="1.1" xmlns="http://www.w3.org/2000/svg" xmlns:xlink="http://www.w3.org/1999/xlink" x="0px" y="0px"
	 width="23.265px" height="23.265px" viewBox="0 0 23.265 23.265" style="enable-background:new 0 0 23.265 23.265;"
	 xml:space="preserve">
<g id="SWAP">
	<g>
		<path style="fill:#231F20;" d="M12.335,9.741l-0.506,0.505l0.948,0.947l0.504-0.505c0.469-0.469,0.543-0.868,0.223-1.188
			C13.184,9.18,12.812,9.263,12.335,9.741z"/>
		<path style="fill:#231F20;" d="M19.868,0.894H7.534c-0.789,0-1.53,0.308-2.086,0.864L0.959,6.247L0.96,6.248
			C0.643,6.564,0.447,7.002,0.447,7.485v14.029c0,0.967,0.784,1.751,1.75,1.751h14.029c0.484,0,0.924-0.197,1.24-0.516l4.487-4.487
			c0.558-0.557,0.864-1.297,0.864-2.085V3.844C22.818,2.217,21.495,0.894,19.868,0.894z M6.903,19.7l-2.955-1.709l-0.172-0.1
			c-0.278-0.168-0.338-0.45-0.189-0.701c0.084-0.143,0.214-0.219,0.361-0.232c0.111-0.011,0.23,0.01,0.353,0.084l2.246,1.373
			l-1.295-2.176c-0.186-0.307-0.153-0.58,0.088-0.82c0.237-0.237,0.516-0.266,0.821-0.08l2.172,1.291L6.96,14.384
			c-0.172-0.283-0.103-0.566,0.148-0.715c0.25-0.148,0.533-0.088,0.7,0.191l1.813,3.131c0.176,0.315,0.148,0.585-0.078,0.813
			c-0.236,0.236-0.512,0.259-0.816,0.073l-2.266-1.336l1.332,2.278c0.186,0.306,0.158,0.575-0.078,0.813
			c-0.057,0.057-0.117,0.101-0.18,0.132c-0.147,0.073-0.311,0.067-0.486,0C7.001,19.745,6.954,19.729,6.903,19.7z M11.146,15.709
			c0.13,0.288,0.033,0.533-0.203,0.659c-0.247,0.125-0.516,0.051-0.641-0.232l-1.541-3.517c-0.13-0.287-0.084-0.538,0.13-0.751
			c0.218-0.218,0.469-0.265,0.752-0.139l3.527,1.54c0.281,0.125,0.355,0.395,0.232,0.641c-0.141,0.26-0.357,0.329-0.661,0.204
			l-0.588-0.246l-1.258,1.257L11.146,15.709z M14.037,11.203l-0.625,0.626l0.688,0.687c0.227,0.227,0.217,0.516,0.018,0.715
			s-0.482,0.204-0.709-0.023l-2.466-2.464c-0.277-0.278-0.277-0.603,0.001-0.881l0.625-0.626l0.25-0.25
			c0.386-0.385,0.79-0.595,1.216-0.631c0.428-0.037,0.809,0.111,1.143,0.445c0.338,0.339,0.496,0.729,0.469,1.173
			c-0.014,0.221-0.071,0.432-0.171,0.634C14.374,10.814,14.228,11.013,14.037,11.203z M15.668,20.706V8.055H3.605
			c-0.373,0-0.675-0.302-0.675-0.675s0.302-0.675,0.675-0.675h12.457l0.834-0.836l1.47-1.474l1.287-1.291
			c0.264-0.265,0.69-0.264,0.954-0.001c0.264,0.263,0.265,0.69,0.001,0.955l-1.292,1.296l-1.47,1.474l-0.829,0.832v13.047
			c0,0.373-0.302,0.675-0.675,0.675S15.668,21.079,15.668,20.706z M3.743,22.898c-0.186,0.027-0.337-0.034-0.44-0.138
			c-0.072-0.073-0.123-0.165-0.13-0.275c-0.043-0.265,0.105-0.487,0.426-0.538c0.445-0.047,0.808-0.214,1.082-0.487
			c0.353-0.354,0.418-0.715,0.214-0.918c-0.173-0.173-0.441-0.135-0.8,0.11L3.678,20.94c-0.751,0.52-1.466,0.584-2.004,0.047
			c-0.302-0.303-0.423-0.655-0.362-1.067c0.057-0.418,0.25-0.789,0.58-1.118c0.395-0.395,0.84-0.637,1.327-0.715
			c0.315-0.056,0.553,0.145,0.571,0.413c0.041,0.265-0.107,0.478-0.428,0.538c-0.348,0.051-0.64,0.195-0.877,0.432
			c-0.292,0.293-0.348,0.607-0.156,0.798c0.176,0.177,0.444,0.14,0.811-0.115l0.32-0.228c0.17-0.123,0.33-0.205,0.488-0.281
			c0.578-0.277,1.079-0.234,1.505,0.12c0.038,0.032,0.081,0.045,0.118,0.082c0.297,0.297,0.416,0.658,0.361,1.076
			s-0.273,0.821-0.664,1.211c-0.299,0.299-0.642,0.509-1.027,0.641C4.082,22.828,3.917,22.872,3.743,22.898z"/>
		<polygon style="fill:#231F20;" points="10.511,14.284 11.317,13.478 9.851,12.818 		"/>
	</g>
</g>
<g id="Layer_1">
</g>
</svg>
