<?xml version="1.0" encoding="iso-8859-1"?>
<!-- Generator: Adobe Illustrator 16.0.0, SVG Export Plug-In . SVG Version: 6.00 Build 0)  -->
<!DOCTYPE svg PUBLIC "-//W3C//DTD SVG 1.1//EN" "http://www.w3.org/Graphics/SVG/1.1/DTD/svg11.dtd">
<svg version="1.1" xmlns="http://www.w3.org/2000/svg" xmlns:xlink="http://www.w3.org/1999/xlink" x="0px" y="0px"
	 width="23.265px" height="23.265px" viewBox="0 0 23.265 23.265" style="enable-background:new 0 0 23.265 23.265;"
	 xml:space="preserve">
<g id="WILD">
	<g>
		<path style="fill:#231F20;" d="M11.371,10.755l-0.273,0.273l1.978,1.978l0.278-0.279c0.813-0.812,0.876-1.555,0.203-2.227
			C12.912,9.855,12.183,9.943,11.371,10.755z"/>
		<path style="fill:#231F20;" d="M19.868,0.894H7.534c-0.789,0-1.53,0.308-2.086,0.864L0.959,6.247L0.96,6.248
			C0.643,6.564,0.447,7.002,0.447,7.485v14.029c0,0.967,0.784,1.751,1.75,1.751h14.029c0.484,0,0.924-0.197,1.24-0.516l4.487-4.487
			c0.558-0.557,0.864-1.297,0.864-2.085V3.844C22.818,2.217,21.495,0.894,19.868,0.894z M14.258,9.799
			c0.086,0.085,0.147,0.177,0.218,0.267c0.396,0.507,0.557,1.067,0.474,1.583c-0.072,0.406-0.237,0.787-0.474,1.136
			c-0.112,0.166-0.236,0.327-0.385,0.474l-0.631,0.632c-0.278,0.278-0.604,0.277-0.882,0l-2.366-2.367
			c-0.278-0.278-0.278-0.603,0.001-0.881l0.631-0.631c0.369-0.37,0.782-0.628,1.235-0.777c0.115-0.038,0.231-0.073,0.351-0.096
			c0.312-0.063,0.644-0.028,0.971,0.096C13.697,9.348,13.99,9.532,14.258,9.799z M12.164,15.187l-1.415,1.416
			c-0.278,0.277-0.603,0.277-0.882-0.001l-2.468-2.468c-0.228-0.229-0.223-0.51-0.022-0.71c0.199-0.199,0.481-0.205,0.709,0.022
			l2.273,2.274l1.17-1.169c0.209-0.209,0.473-0.205,0.658-0.02C12.368,14.714,12.373,14.978,12.164,15.187z M5.933,14.867
			c0.199-0.199,0.481-0.204,0.709,0.022l2.566,2.566c0.227,0.227,0.223,0.511,0.023,0.71c-0.2,0.2-0.483,0.204-0.711-0.023
			l-2.565-2.565C5.728,15.349,5.733,15.067,5.933,14.867z M15.668,20.706V8.055H3.605c-0.373,0-0.675-0.302-0.675-0.675
			s0.302-0.675,0.675-0.675h12.457l0.834-0.836l1.47-1.474l1.287-1.291c0.264-0.265,0.69-0.264,0.954-0.001
			c0.264,0.263,0.265,0.69,0.001,0.955l-1.292,1.296l-1.47,1.474l-0.829,0.832v13.047c0,0.373-0.302,0.675-0.675,0.675
			S15.668,21.079,15.668,20.706z M1.228,19.613c0.004-0.007,0.004-0.015,0.008-0.021c0.148-0.251,0.431-0.319,0.714-0.147
			l2.246,1.373l-1.295-2.176c-0.186-0.307-0.153-0.58,0.088-0.822c0.237-0.236,0.516-0.264,0.821-0.078l0.138,0.082l2.034,1.207
			l-1.373-2.245c-0.172-0.283-0.103-0.565,0.148-0.715c0.25-0.147,0.533-0.088,0.7,0.19l1.813,3.132
			c0.074,0.132,0.104,0.255,0.106,0.371c0.003,0.161-0.053,0.309-0.184,0.44c-0.236,0.237-0.512,0.26-0.816,0.074l-0.873-0.515
			l-1.393-0.821l0.48,0.821l0.852,1.457c0.186,0.306,0.158,0.575-0.078,0.812c-0.228,0.229-0.502,0.25-0.813,0.07l-3.127-1.81
			c-0.09-0.054-0.148-0.122-0.193-0.195C1.143,19.95,1.139,19.777,1.228,19.613z"/>
	</g>
</g>
<g id="Layer_1">
</g>
</svg>
