<?xml version="1.0" encoding="iso-8859-1"?>
<!-- Generator: Adobe Illustrator 16.0.0, SVG Export Plug-In . SVG Version: 6.00 Build 0)  -->
<!DOCTYPE svg PUBLIC "-//W3C//DTD SVG 1.1//EN" "http://www.w3.org/Graphics/SVG/1.1/DTD/svg11.dtd">
<svg version="1.1" xmlns="http://www.w3.org/2000/svg" xmlns:xlink="http://www.w3.org/1999/xlink" x="0px" y="0px"
	 width="23.265px" height="23.265px" viewBox="0 0 23.265 23.265" style="enable-background:new 0 0 23.265 23.265;"
	 xml:space="preserve">
<g id="HOP">
	<g>
		<path style="fill:#231F20;" d="M11.74,10.866l-0.506,0.506l0.946,0.947l0.506-0.506c0.469-0.469,0.543-0.868,0.223-1.188
			C12.589,10.305,12.217,10.388,11.74,10.866z"/>
		<path style="fill:#231F20;" d="M8.24,14.282c-0.297,0.297-0.437,0.631-0.418,1.012c0.023,0.377,0.176,0.705,0.465,0.993
			c0.291,0.292,0.621,0.445,0.997,0.468c0.375,0.023,0.71-0.115,1.011-0.417c0.293-0.292,0.432-0.626,0.404-0.997
			c-0.023-0.377-0.177-0.705-0.469-0.998c-0.283-0.283-0.617-0.432-0.998-0.449C8.852,13.874,8.523,13.999,8.24,14.282z"/>
		<path style="fill:#231F20;" d="M19.868,0.894H7.534c-0.789,0-1.53,0.308-2.086,0.864L0.959,6.247L0.96,6.248
			C0.643,6.564,0.447,7.002,0.447,7.485v14.029c0,0.967,0.784,1.751,1.75,1.751h14.029c0.484,0,0.924-0.197,1.24-0.516l4.487-4.487
			c0.558-0.557,0.864-1.297,0.864-2.085V3.844C22.818,2.217,21.495,0.894,19.868,0.894z M13.503,13.642
			c0.228,0.227,0.218,0.515,0.019,0.714s-0.482,0.204-0.709-0.023l-2.465-2.464c-0.277-0.278-0.277-0.603,0.001-0.881l0.876-0.876
			c0.386-0.385,0.789-0.594,1.216-0.631s0.808,0.111,1.142,0.445c0.339,0.339,0.496,0.729,0.469,1.173
			c-0.027,0.446-0.232,0.854-0.608,1.23l-0.626,0.626L13.503,13.642z M10.931,13.643c0.486,0.487,0.723,1.048,0.719,1.694
			c-0.01,0.639-0.251,1.195-0.725,1.669c-0.469,0.469-1.025,0.71-1.66,0.716c-0.641-0.002-1.202-0.238-1.689-0.725
			c-0.482-0.482-0.719-1.045-0.715-1.68c0.001-0.641,0.242-1.197,0.711-1.666c0.473-0.474,1.03-0.714,1.674-0.719
			C9.886,12.923,10.449,13.16,10.931,13.643z M4.582,19.295l1.365-1.364l-0.934-0.933c-0.227-0.228-0.222-0.511-0.022-0.71
			s0.481-0.204,0.71,0.023l2.565,2.566c0.228,0.227,0.223,0.51,0.023,0.709s-0.483,0.204-0.71-0.023l-1.002-1.002l-1.201,1.202
			l-0.163,0.163l1.002,1.002c0.228,0.227,0.224,0.51,0.023,0.709c-0.199,0.199-0.483,0.204-0.71-0.023l-2.566-2.565
			c-0.227-0.228-0.222-0.511-0.022-0.71c0.2-0.199,0.481-0.204,0.71,0.023l0.298,0.299L4.582,19.295z M15.668,20.706V8.055H3.605
			c-0.373,0-0.675-0.302-0.675-0.675s0.302-0.675,0.675-0.675h12.457l0.834-0.836l1.47-1.474l1.287-1.291
			c0.264-0.265,0.69-0.264,0.954-0.001c0.264,0.263,0.265,0.69,0.001,0.955l-1.292,1.296l-1.47,1.474l-0.829,0.832v13.047
			c0,0.373-0.302,0.675-0.675,0.675S15.668,21.079,15.668,20.706z"/>
	</g>
</g>
<g id="Layer_1">
</g>
</svg>
