<?xml version="1.0" encoding="iso-8859-1"?>
<!-- Generator: Adobe Illustrator 16.0.0, SVG Export Plug-In . SVG Version: 6.00 Build 0)  -->
<!DOCTYPE svg PUBLIC "-//W3C//DTD SVG 1.1//EN" "http://www.w3.org/Graphics/SVG/1.1/DTD/svg11.dtd">
<svg version="1.1" xmlns="http://www.w3.org/2000/svg" xmlns:xlink="http://www.w3.org/1999/xlink" x="0px" y="0px"
	 width="23.265px" height="23.265px" viewBox="0 0 23.265 23.265" style="enable-background:new 0 0 23.265 23.265;"
	 xml:space="preserve">
<g id="AIM">
	<g>
		<polygon style="fill:#231F20;" points="5.681,17.048 6.339,18.515 7.147,17.708 		"/>
		<path style="fill:#231F20;" d="M19.868,0.894H7.534c-0.789,0-1.53,0.308-2.086,0.864L0.959,6.247L0.96,6.248
			C0.643,6.564,0.447,7.002,0.447,7.485v14.029c0,0.967,0.784,1.751,1.75,1.751h14.029c0.484,0,0.924-0.197,1.24-0.516l4.487-4.487
			c0.558-0.557,0.864-1.297,0.864-2.085V3.844C22.818,2.217,21.495,0.894,19.868,0.894z M14.476,12.886
			c-0.024,0.053-0.058,0.103-0.103,0.148c-0.199,0.2-0.482,0.204-0.709-0.023l-1.504-1.503l0.502,1.605
			c0.074,0.242,0.027,0.445-0.14,0.613c-0.167,0.166-0.371,0.213-0.604,0.139l-1.61-0.506l1.504,1.504
			c0.227,0.227,0.223,0.51,0.023,0.709c-0.199,0.2-0.482,0.204-0.71-0.023l-2.538-2.537c-0.256-0.256-0.27-0.557-0.023-0.803
			c0.182-0.181,0.395-0.237,0.631-0.158l2.455,0.803l-0.799-2.459c-0.078-0.236-0.027-0.445,0.158-0.63
			c0.246-0.246,0.547-0.233,0.803,0.023l2.539,2.538c0.056,0.056,0.097,0.115,0.125,0.175V12.886z M6.976,19.938
			c0.129,0.288,0.031,0.534-0.204,0.66c-0.247,0.125-0.516,0.051-0.641-0.232l-0.264-0.603l-1.276-2.915
			c-0.131-0.287-0.084-0.537,0.129-0.751c0.219-0.218,0.469-0.265,0.752-0.139l3.526,1.54c0.282,0.125,0.356,0.395,0.232,0.641
			c-0.14,0.26-0.358,0.329-0.659,0.203l-0.59-0.245l-1.257,1.257l0.176,0.409L6.976,19.938z M7.093,13.716
			c0.199-0.199,0.482-0.204,0.709,0.023l2.566,2.566c0.227,0.227,0.223,0.51,0.023,0.709c-0.199,0.2-0.482,0.204-0.71-0.023
			l-2.565-2.565C6.888,14.198,6.894,13.916,7.093,13.716z M15.668,20.706V8.055H3.605c-0.373,0-0.675-0.302-0.675-0.675
			s0.302-0.675,0.675-0.675h12.457l0.834-0.836l1.47-1.474l1.287-1.291c0.264-0.265,0.69-0.264,0.954-0.001
			c0.264,0.263,0.265,0.69,0.001,0.955l-1.292,1.296l-1.47,1.474l-0.829,0.832v13.047c0,0.373-0.302,0.675-0.675,0.675
			S15.668,21.079,15.668,20.706z"/>
	</g>
</g>
<g id="Layer_1">
</g>
</svg>
