<?xml version="1.0" encoding="iso-8859-1"?>
<!-- Generator: Adobe Illustrator 16.0.0, SVG Export Plug-In . SVG Version: 6.00 Build 0)  -->
<!DOCTYPE svg PUBLIC "-//W3C//DTD SVG 1.1//EN" "http://www.w3.org/Graphics/SVG/1.1/DTD/svg11.dtd">
<svg version="1.1" xmlns="http://www.w3.org/2000/svg" xmlns:xlink="http://www.w3.org/1999/xlink" x="0px" y="0px"
	 width="23.265px" height="23.265px" viewBox="0 0 23.265 23.265" style="enable-background:new 0 0 23.265 23.265;"
	 xml:space="preserve">
<g id="TIP">
	<g>
		<path style="fill:#231F20;" d="M10.624,12.396l-0.506,0.506l0.947,0.946l0.506-0.506c0.469-0.468,0.543-0.867,0.223-1.188
			C11.473,11.835,11.102,11.918,10.624,12.396z"/>
		<path style="fill:#231F20;" d="M19.873,0.895H7.529C6.742,0.896,6.002,1.203,5.448,1.758L0.959,6.247L0.96,6.248
			C0.643,6.564,0.447,7.002,0.447,7.485v14.029c0,0.964,0.778,1.744,1.741,1.75h14.048c0.48-0.003,0.916-0.198,1.23-0.515
			l4.487-4.487c0.556-0.555,0.86-1.291,0.863-2.075V3.834C22.813,2.214,21.494,0.897,19.873,0.895z M8.757,18.802
			c0.228,0.227,0.218,0.515,0.019,0.714s-0.482,0.204-0.709-0.023l-2.27-2.269l-0.636,0.635c-0.209,0.209-0.474,0.205-0.654,0.023
			c-0.186-0.186-0.19-0.449,0.019-0.658l1.968-1.967c0.208-0.209,0.474-0.205,0.659-0.02c0.18,0.181,0.185,0.445-0.023,0.654
			l-0.641,0.641L8.757,18.802z M12.387,15.171c0.227,0.228,0.219,0.516,0.02,0.715c-0.2,0.199-0.483,0.203-0.711-0.023l-2.463-2.464
			c-0.279-0.278-0.279-0.603,0-0.881l0.877-0.876c0.385-0.385,0.788-0.594,1.215-0.631s0.807,0.111,1.141,0.446
			c0.34,0.339,0.497,0.728,0.469,1.173c-0.027,0.446-0.231,0.853-0.607,1.23L11.7,14.484L12.387,15.171z M10.944,16.614
			c0.227,0.228,0.223,0.511,0.023,0.711c-0.199,0.199-0.482,0.203-0.71-0.023l-2.565-2.566c-0.229-0.228-0.223-0.51-0.023-0.709
			c0.199-0.2,0.482-0.205,0.709,0.022L10.944,16.614z M15.668,20.706V8.055H3.605c-0.373,0-0.675-0.302-0.675-0.675
			s0.302-0.675,0.675-0.675h12.457l0.834-0.836l1.47-1.474l1.287-1.291c0.264-0.265,0.69-0.264,0.954-0.001
			c0.264,0.263,0.265,0.69,0.001,0.955l-1.292,1.296l-1.47,1.474l-0.829,0.832v13.047c0,0.373-0.302,0.675-0.675,0.675
			S15.668,21.079,15.668,20.706z"/>
	</g>
</g>
<g id="Layer_1">
</g>
</svg>
