<?xml version="1.0" encoding="iso-8859-1"?>
<!-- Generator: Adobe Illustrator 16.0.0, SVG Export Plug-In . SVG Version: 6.00 Build 0)  -->
<!DOCTYPE svg PUBLIC "-//W3C//DTD SVG 1.1//EN" "http://www.w3.org/Graphics/SVG/1.1/DTD/svg11.dtd">
<svg version="1.1" xmlns="http://www.w3.org/2000/svg" xmlns:xlink="http://www.w3.org/1999/xlink" x="0px" y="0px"
	 width="353.762px" height="353.812px" viewBox="0 0 353.762 353.812" style="enable-background:new 0 0 353.762 353.812;"
	 xml:space="preserve">
<g id="_x31_0by10">
	<path style="fill:#231F20;" d="M6.804,13.608v340.204h340.154V13.608H6.804z M312.01,115.386h-32.866V82.432h32.866V115.386z
		 M312.01,183.21h-32.866v-32.954h32.866V183.21z M312.01,251.034h-32.866v-32.871h32.866V251.034z M211.329,318.858v-32.871h32.866
		v32.871H211.329z M143.433,318.858v-32.871h32.948v32.871H143.433z M75.618,318.858v-32.871h32.949v32.871H75.618z M142.433,48.562
		v32.871h-32.866V48.562H142.433z M210.329,48.562v32.871h-32.948V48.562H210.329z M278.144,48.562v32.871h-32.948V48.562H278.144z
		 M278.144,217.163h-32.948V184.21h32.948V217.163z M75.618,218.163h32.949v32.871H75.618V218.163z M75.618,150.256h32.949v32.954
		H75.618V150.256z M176.381,82.432v32.954h-32.948V82.432H176.381z M244.195,82.432v32.954h-32.866V82.432H244.195z M244.195,183.21
		h-32.866v-32.954h32.866V183.21z M244.195,251.034h-32.866v-32.871h32.866V251.034z M210.329,217.163h-32.948V184.21h32.948
		V217.163z M176.381,150.256v32.954h-32.948v-32.954H176.381z M176.381,218.163v32.871h-32.948v-32.871H176.381z M210.329,149.256
		h-32.948v-32.871h32.948V149.256z M142.433,184.21v32.953h-32.866V184.21H142.433z M142.433,116.386v32.871h-32.866v-32.871
		H142.433z M210.329,252.034v32.953h-32.948v-32.953H210.329z M109.567,252.034h32.866v32.953h-32.866V252.034z M245.195,252.034
		h32.948v32.953h-32.948V252.034z M245.195,149.256v-32.871h32.948v32.871H245.195z M108.567,82.432v32.954H75.618V82.432H108.567z
		 M41.753,116.386h32.865v32.871H41.753V116.386z M41.753,184.21h32.865v32.953H41.753V184.21z M74.618,252.034v32.953H41.753
		v-32.953H74.618z M74.618,48.562v32.871H41.753V48.562H74.618z M279.144,318.858v-32.871h32.866v32.871H279.144z M312.01,47.562
		h-32.866V14.608h32.866V47.562z M244.195,47.562h-32.866V14.608h32.866V47.562z M176.381,47.562h-32.948V14.608h32.948V47.562z
		 M108.567,47.562H75.618V14.608h32.949V47.562z M40.753,82.432v32.954H7.804V82.432H40.753z M40.753,150.256v32.954H7.804v-32.954
		H40.753z M40.753,218.163v32.871H7.804v-32.871H40.753z M40.753,285.987v32.871H7.804v-32.871H40.753z M41.753,319.858h32.865
		v32.953H41.753V319.858z M109.567,319.858h32.866v32.953h-32.866V319.858z M177.381,319.858h32.948v32.953h-32.948V319.858z
		 M245.195,319.858h32.948v32.953h-32.948V319.858z M313.01,284.987v-32.953h32.948v32.953H313.01z M313.01,217.163V184.21h32.948
		v32.953H313.01z M313.01,149.256v-32.871h32.948v32.871H313.01z M313.01,81.432V48.562h32.948v32.871H313.01z M40.753,14.608
		v32.954H7.804V14.608H40.753z M313.01,352.812v-32.953h32.948v32.953H313.01z"/>
</g>
<g id="Layer_1">
</g>
</svg>
