<?xml version="1.0" encoding="iso-8859-1"?>
<!-- Generator: Adobe Illustrator 16.0.0, SVG Export Plug-In . SVG Version: 6.00 Build 0)  -->
<!DOCTYPE svg PUBLIC "-//W3C//DTD SVG 1.1//EN" "http://www.w3.org/Graphics/SVG/1.1/DTD/svg11.dtd">
<svg version="1.1" xmlns="http://www.w3.org/2000/svg" xmlns:xlink="http://www.w3.org/1999/xlink" x="0px" y="0px"
	 width="230.088px" height="201.128px" viewBox="0 0 230.088 201.128" style="enable-background:new 0 0 230.088 201.128;"
	 xml:space="preserve">
<g id="ThreePlayer">
	<g>
		<polygon style="fill:#231F20;" points="129.065,160.365 177.287,164.26 184.311,128.189 143.042,120.301 		"/>
		<polygon style="fill:#231F20;" points="157.017,80.238 122.701,68.354 101.771,112.412 143.042,120.301 		"/>
		<path style="fill:#231F20;" d="M116.087,7.735L4.304,200.375l-0.437,0.753l222.072-0.399l0.28-128.798l0.001-0.289L116.087,7.735z
			 M33.172,152.619l47.67,3.852l20.93-44.059l-40.749-7.789l27.844-47.985l33.834,11.717l20.715-43.604l27.41,15.905l-13.81,39.583
			l34.318,11.883l6.921-35.549l26.963,15.646l-0.068,31.615l-33.815-11.711l-7.024,36.069l40.77,7.794l-0.07,32.132l-47.723-3.855
			l-6.926,35.568l-55.098,0.099l13.802-39.562l-48.224-3.895L60.15,200.026l-54.544,0.098L33.172,152.619z"/>
	</g>
</g>
<g id="Layer_1">
</g>
</svg>
