<?xml version="1.0" encoding="iso-8859-1"?>
<!-- Generator: Adobe Illustrator 16.0.0, SVG Export Plug-In . SVG Version: 6.00 Build 0)  -->
<!DOCTYPE svg PUBLIC "-//W3C//DTD SVG 1.1//EN" "http://www.w3.org/Graphics/SVG/1.1/DTD/svg11.dtd">
<svg version="1.1" xmlns="http://www.w3.org/2000/svg" xmlns:xlink="http://www.w3.org/1999/xlink" x="0px" y="0px"
	 width="277.801px" height="142.159px" viewBox="0 0 277.801 142.159" style="enable-background:new 0 0 277.801 142.159;"
	 xml:space="preserve">
<g id="_x34_by8">
	<path style="fill:#231F20;" d="M2.734,5.467v136.692h272.333V5.467H2.734z M274.066,73.313H241.15V40.39h32.916V73.313z
		 M71.567,107.236V74.313h32.917v32.923H71.567z M138.4,40.39v32.923h-32.917V40.39H138.4z M206.234,40.39v32.923h-32.918V40.39
		H206.234z M139.4,74.313h32.916v32.923H139.4V74.313z M70.567,40.39v32.923H37.65V40.39H70.567z M207.234,107.236V74.313h32.916
		v32.923H207.234z M240.15,39.39h-32.916V6.467h32.916V39.39z M172.316,39.39H139.4V6.467h32.916V39.39z M104.484,39.39H71.567
		V6.467h32.917V39.39z M36.65,74.313v32.923H3.734V74.313H36.65z M37.65,108.236h32.917v32.923H37.65V108.236z M105.484,108.236
		H138.4v32.923h-32.917V108.236z M173.316,108.236h32.918v32.923h-32.918V108.236z M36.65,6.467V39.39H3.734V6.467H36.65z
		 M241.15,141.159v-32.923h32.916v32.923H241.15z"/>
</g>
<g id="Layer_1">
</g>
</svg>
