<?xml version="1.0" encoding="iso-8859-1"?>
<!-- Generator: Adobe Illustrator 16.0.0, SVG Export Plug-In . SVG Version: 6.00 Build 0)  -->
<!DOCTYPE svg PUBLIC "-//W3C//DTD SVG 1.1//EN" "http://www.w3.org/Graphics/SVG/1.1/DTD/svg11.dtd">
<svg version="1.1" xmlns="http://www.w3.org/2000/svg" xmlns:xlink="http://www.w3.org/1999/xlink" x="0px" y="0px"
	 width="283.229px" height="283.278px" viewBox="0 0 283.229 283.278" style="enable-background:new 0 0 283.229 283.278;"
	 xml:space="preserve">
<g id="_x38_by8">
	<path style="fill:#231F20;" d="M5.448,10.895v272.383h272.333V10.895H5.448z M276.781,78.741h-32.917V45.818h32.917V78.741z
		 M242.864,180.51h-32.916v-32.923h32.916V180.51z M74.281,248.355v-32.923h32.917v32.923H74.281z M141.114,45.818v32.923h-32.917
		V45.818H141.114z M208.948,45.818v32.923h-32.917V45.818H208.948z M208.948,146.587h-32.917v-32.923h32.917V146.587z
		 M74.281,147.587h32.917v32.923H74.281V147.587z M175.031,79.741v32.923h-32.917V79.741H175.031z M141.114,113.664v32.923h-32.917
		v-32.923H141.114z M142.114,180.51v-32.923h32.917v32.923H142.114z M108.198,214.433V181.51h32.917v32.923H108.198z
		 M107.198,79.741v32.923H74.281V79.741H107.198z M176.031,214.433V181.51h32.917v32.923H176.031z M40.364,113.664h32.917v32.923
		H40.364V113.664z M40.364,181.51h32.917v32.923H40.364V181.51z M142.114,248.355v-32.923h32.917v32.923H142.114z M209.948,112.664
		V79.741h32.916v32.923H209.948z M73.281,45.818v32.923H40.364V45.818H73.281z M209.948,248.355v-32.923h32.916v32.923H209.948z
		 M242.864,44.818h-32.916V11.895h32.916V44.818z M175.031,44.818h-32.917V11.895h32.917V44.818z M107.198,44.818H74.281V11.895
		h32.917V44.818z M39.364,79.741v32.923H6.448V79.741H39.364z M39.364,147.587v32.923H6.448v-32.923H39.364z M39.364,215.433v32.923
		H6.448v-32.923H39.364z M40.364,249.355h32.917v32.923H40.364V249.355z M108.198,249.355h32.917v32.923h-32.917V249.355z
		 M176.031,249.355h32.917v32.923h-32.917V249.355z M243.864,214.433V181.51h32.917v32.923H243.864z M243.864,146.587v-32.923
		h32.917v32.923H243.864z M39.364,11.895v32.923H6.448V11.895H39.364z M243.864,282.278v-32.923h32.917v32.923H243.864z"/>
</g>
<g id="Layer_1">
</g>
</svg>
