<?xml version="1.0" encoding="iso-8859-1"?>
<!-- Generator: Adobe Illustrator 16.0.0, SVG Export Plug-In . SVG Version: 6.00 Build 0)  -->
<!DOCTYPE svg PUBLIC "-//W3C//DTD SVG 1.1//EN" "http://www.w3.org/Graphics/SVG/1.1/DTD/svg11.dtd">
<svg version="1.1" xmlns="http://www.w3.org/2000/svg" xmlns:xlink="http://www.w3.org/1999/xlink" x="0px" y="0px"
	 width="177.452px" height="177.452px" viewBox="0 0 177.452 177.452" style="enable-background:new 0 0 177.452 177.452;"
	 xml:space="preserve">
<g id="_x35_by5">
	<rect x="37.848" y="7.275" style="fill:#231F20;" width="33.886" height="33.886"/>
	<rect x="105.719" y="7.275" style="fill:#231F20;" width="33.886" height="33.886"/>
	<rect x="71.734" y="41.161" style="fill:#231F20;" width="33.985" height="33.985"/>
	<rect x="139.604" y="41.161" style="fill:#231F20;" width="33.886" height="33.985"/>
	<rect x="3.913" y="41.161" style="fill:#231F20;" width="33.936" height="34.035"/>
	<rect x="37.848" y="75.195" style="fill:#231F20;" width="33.935" height="33.886"/>
	<rect x="105.719" y="75.146" style="fill:#231F20;" width="33.836" height="33.936"/>
	<rect x="139.555" y="109.081" style="fill:#231F20;" width="33.985" height="33.886"/>
	<rect x="71.783" y="109.081" style="fill:#231F20;" width="33.936" height="33.886"/>
	<rect x="3.913" y="109.081" style="fill:#231F20;" width="33.886" height="33.886"/>
	<rect x="37.798" y="142.967" style="fill:#231F20;" width="33.985" height="33.985"/>
	<rect x="105.719" y="142.967" style="fill:#231F20;" width="33.886" height="33.985"/>
	<g>
		<path style="fill:#231F20;" d="M174.04,177.452H3.413V6.825H174.04V177.452z M4.413,176.452H173.04V7.825H4.413V176.452z"/>
		<rect x="3.913" y="142.534" style="fill:#231F20;" width="169.627" height="1"/>
		<rect x="3.913" y="108.617" style="fill:#231F20;" width="169.627" height="1"/>
		<rect x="3.913" y="74.659" style="fill:#231F20;" width="169.627" height="1"/>
		<rect x="3.913" y="40.742" style="fill:#231F20;" width="169.627" height="1"/>
		<rect x="139.122" y="7.325" style="fill:#231F20;" width="1" height="169.627"/>
		<rect x="105.206" y="7.325" style="fill:#231F20;" width="1" height="169.627"/>
		<rect x="71.247" y="7.325" style="fill:#231F20;" width="1" height="169.627"/>
		<rect x="37.33" y="7.325" style="fill:#231F20;" width="1" height="169.627"/>
	</g>
</g>
<g id="Layer_1">
</g>
</svg>
