<?xml version="1.0" encoding="iso-8859-1"?>
<!-- Generator: Adobe Illustrator 16.0.0, SVG Export Plug-In . SVG Version: 6.00 Build 0)  -->
<!DOCTYPE svg PUBLIC "-//W3C//DTD SVG 1.1//EN" "http://www.w3.org/Graphics/SVG/1.1/DTD/svg11.dtd">
<svg version="1.1" xmlns="http://www.w3.org/2000/svg" xmlns:xlink="http://www.w3.org/1999/xlink" x="0px" y="0px"
	 width="211.389px" height="177.504px" viewBox="0 0 211.389 177.504" style="enable-background:new 0 0 211.389 177.504;"
	 xml:space="preserve">
<g id="_x35_by6">
	<rect x="37.849" y="7.327" style="fill:#231F20;" width="33.886" height="33.886"/>
	<rect x="105.72" y="7.327" style="fill:#231F20;" width="33.886" height="33.886"/>
	<rect x="173.491" y="7.327" style="fill:#231F20;" width="33.984" height="33.886"/>
	<rect x="71.735" y="41.213" style="fill:#231F20;" width="33.985" height="33.985"/>
	<rect x="139.605" y="41.213" style="fill:#231F20;" width="33.886" height="33.985"/>
	<rect x="3.914" y="41.213" style="fill:#231F20;" width="33.936" height="34.035"/>
	<rect x="37.849" y="75.248" style="fill:#231F20;" width="33.935" height="33.885"/>
	<rect x="105.72" y="75.198" style="fill:#231F20;" width="33.836" height="33.935"/>
	<rect x="173.491" y="75.198" style="fill:#231F20;" width="33.984" height="33.935"/>
	<rect x="139.556" y="109.133" style="fill:#231F20;" width="33.984" height="33.887"/>
	<rect x="71.784" y="109.133" style="fill:#231F20;" width="33.936" height="33.887"/>
	<rect x="3.914" y="109.133" style="fill:#231F20;" width="33.886" height="33.887"/>
	<rect x="37.799" y="143.02" style="fill:#231F20;" width="33.985" height="33.984"/>
	<rect x="105.72" y="143.02" style="fill:#231F20;" width="33.886" height="33.984"/>
	<rect x="173.54" y="143.02" style="fill:#231F20;" width="33.936" height="33.984"/>
	<line style="fill:#231F20;" x1="3.914" y1="177.004" x2="37.849" y2="177.004"/>
	<line style="fill:#231F20;" x1="71.784" y1="177.004" x2="105.72" y2="177.004"/>
	<line style="fill:#231F20;" x1="173.54" y1="177.004" x2="139.605" y2="177.004"/>
	<g>
		<rect x="3.914" y="7.327" style="fill:none;stroke:#000000;stroke-miterlimit:10;" width="203.562" height="169.677"/>
		<line style="fill:none;stroke:#000000;stroke-miterlimit:10;" x1="3.914" y1="143.076" x2="207.476" y2="143.076"/>
		<line style="fill:none;stroke:#000000;stroke-miterlimit:10;" x1="3.914" y1="109.15" x2="207.476" y2="109.15"/>
		<line style="fill:none;stroke:#000000;stroke-miterlimit:10;" x1="3.914" y1="75.181" x2="207.476" y2="75.181"/>
		<line style="fill:none;stroke:#000000;stroke-miterlimit:10;" x1="3.914" y1="41.254" x2="207.476" y2="41.254"/>
		<line style="fill:none;stroke:#000000;stroke-miterlimit:10;" x1="173.532" y1="7.327" x2="173.532" y2="177.004"/>
		<line style="fill:none;stroke:#000000;stroke-miterlimit:10;" x1="139.638" y1="7.327" x2="139.638" y2="177.004"/>
		<line style="fill:none;stroke:#000000;stroke-miterlimit:10;" x1="105.694" y1="7.327" x2="105.694" y2="177.004"/>
		<line style="fill:none;stroke:#000000;stroke-miterlimit:10;" x1="71.751" y1="7.327" x2="71.751" y2="177.004"/>
		<line style="fill:none;stroke:#000000;stroke-miterlimit:10;" x1="37.857" y1="7.327" x2="37.857" y2="177.004"/>
	</g>
</g>
<g id="Layer_1">
</g>
</svg>
