<?xml version="1.0" encoding="iso-8859-1"?>
<!-- Generator: Adobe Illustrator 16.0.0, SVG Export Plug-In . SVG Version: 6.00 Build 0)  -->
<!DOCTYPE svg PUBLIC "-//W3C//DTD SVG 1.1//EN" "http://www.w3.org/Graphics/SVG/1.1/DTD/svg11.dtd">
<svg version="1.1" xmlns="http://www.w3.org/2000/svg" xmlns:xlink="http://www.w3.org/1999/xlink" x="0px" y="0px"
	 width="468.598px" height="468.598px" viewBox="0 0 468.598 468.598" style="enable-background:new 0 0 468.598 468.598;"
	 xml:space="preserve">
<g id="Go">
	<path style="fill:#231F20;" d="M9.012,18.023v450.575h450.574V18.023H9.012z M458.586,43.048h-24.025V19.023h24.025V43.048z
		 M389.069,392.632c-0.237-2.356-2.093-4.212-4.449-4.449v-19.466h24.025v23.915H389.069z M59.952,392.632v-23.915h24.025v19.466
		c-2.356,0.237-4.212,2.093-4.45,4.449H59.952z M79.528,93.989c0.237,2.356,2.093,4.212,4.45,4.45v19.466H59.952V93.989H79.528z
		 M383.62,388.183c-2.356,0.237-4.212,2.093-4.449,4.449h-19.466v-23.915h23.915V388.183z M239.249,392.632
		c-0.238-2.356-2.094-4.212-4.45-4.449v-19.466h24.025v23.915H239.249z M209.774,392.632v-23.915h24.025v19.466
		c-2.356,0.237-4.212,2.093-4.45,4.449H209.774z M89.427,392.632c-0.237-2.356-2.093-4.212-4.45-4.449v-19.466h23.915v23.915H89.427
		z M84.978,98.438c2.356-0.237,4.212-2.093,4.45-4.45h19.465v23.916H84.978V98.438z M229.35,93.989
		c0.238,2.356,2.093,4.212,4.45,4.45v19.466h-24.025V93.989H229.35z M258.824,93.989v23.916h-24.025V98.438
		c2.356-0.237,4.211-2.093,4.45-4.45H258.824z M233.799,238.361c-2.356,0.237-4.212,2.093-4.45,4.449h-19.576v-24.025h24.025
		V238.361z M229.35,243.811c0.238,2.356,2.093,4.212,4.45,4.449v19.576h-24.025v-24.025H229.35z M234.799,248.26
		c2.356-0.237,4.211-2.093,4.45-4.449h19.575v24.025h-24.025V248.26z M239.249,242.811c-0.238-2.356-2.094-4.212-4.45-4.449v-19.576
		h24.025v24.025H239.249z M234.799,217.785V193.87h24.025v23.916H234.799z M233.799,217.785h-24.025V193.87h24.025V217.785z
		 M208.774,217.785h-23.916V193.87h23.916V217.785z M208.774,218.785v24.025h-23.916v-24.025H208.774z M208.774,243.811v24.025
		h-23.916v-24.025H208.774z M208.774,268.836v23.915h-23.916v-23.915H208.774z M209.774,268.836h24.025v23.915h-24.025V268.836z
		 M234.799,268.836h24.025v23.915h-24.025V268.836z M259.824,268.836h23.915v23.915h-23.915V268.836z M259.824,267.836v-24.025
		h23.915v24.025H259.824z M259.824,242.811v-24.025h23.915v24.025H259.824z M259.824,217.785V193.87h23.915v23.916H259.824z
		 M259.824,192.87v-24.025h23.915v24.025H259.824z M258.824,192.87h-24.025v-24.025h24.025V192.87z M233.799,192.87h-24.025v-24.025
		h24.025V192.87z M208.774,192.87h-23.916v-24.025h23.916V192.87z M183.858,192.87h-24.025v-24.025h24.025V192.87z M183.858,193.87
		v23.916h-24.025V193.87H183.858z M183.858,218.785v24.025h-24.025v-24.025H183.858z M183.858,243.811v24.025h-24.025v-24.025
		H183.858z M183.858,268.836v23.915h-24.025v-23.915H183.858z M183.858,293.751v24.025h-24.025v-24.025H183.858z M184.858,293.751
		h23.916v24.025h-23.916V293.751z M209.774,293.751h24.025v24.025h-24.025V293.751z M234.799,293.751h24.025v24.025h-24.025V293.751
		z M259.824,293.751h23.915v24.025h-23.915V293.751z M284.739,293.751h24.025v24.025h-24.025V293.751z M284.739,292.751v-23.915
		h24.025v23.915H284.739z M284.739,267.836v-24.025h24.025v24.025H284.739z M284.739,242.811v-24.025h24.025v24.025H284.739z
		 M284.739,217.785V193.87h24.025v23.916H284.739z M284.739,192.87v-24.025h24.025v24.025H284.739z M284.739,167.845v-23.916h24.025
		v23.916H284.739z M283.739,167.845h-23.915v-23.916h23.915V167.845z M258.824,167.845h-24.025v-23.916h24.025V167.845z
		 M233.799,167.845h-24.025v-23.916h24.025V167.845z M208.774,167.845h-23.916v-23.916h23.916V167.845z M183.858,167.845h-24.025
		v-23.916h24.025V167.845z M158.833,167.845h-23.916v-23.916h23.916V167.845z M158.833,168.845v24.025h-23.916v-24.025H158.833z
		 M158.833,193.87v23.916h-23.916V193.87H158.833z M158.833,218.785v24.025h-23.916v-24.025H158.833z M158.833,243.811v24.025
		h-23.916v-24.025H158.833z M158.833,268.836v23.915h-23.916v-23.915H158.833z M158.833,293.751v24.025h-23.916v-24.025H158.833z
		 M158.833,318.776v23.915h-23.916v-23.915H158.833z M159.833,318.776h24.025v23.915h-24.025V318.776z M184.858,318.776h23.916
		v23.915h-23.916V318.776z M209.774,318.776h24.025v23.915h-24.025V318.776z M234.799,318.776h24.025v23.915h-24.025V318.776z
		 M259.824,318.776h23.915v23.915h-23.915V318.776z M284.739,318.776h24.025v23.915h-24.025V318.776z M309.765,318.776h23.915
		v23.915h-23.915V318.776z M309.765,317.776v-24.025h23.915v24.025H309.765z M309.765,292.751v-23.915h23.915v23.915H309.765z
		 M309.765,267.836v-24.025h23.915v24.025H309.765z M309.765,242.811v-24.025h23.915v24.025H309.765z M309.765,217.785V193.87
		h23.915v23.916H309.765z M309.765,192.87v-24.025h23.915v24.025H309.765z M309.765,167.845v-23.916h23.915v23.916H309.765z
		 M309.765,142.929v-24.025h23.915v24.025H309.765z M308.765,142.929h-24.025v-24.025h24.025V142.929z M283.739,142.929h-23.915
		v-24.025h23.915V142.929z M258.824,142.929h-24.025v-24.025h24.025V142.929z M233.799,142.929h-24.025v-24.025h24.025V142.929z
		 M208.774,142.929h-23.916v-24.025h23.916V142.929z M183.858,142.929h-24.025v-24.025h24.025V142.929z M158.833,142.929h-23.916
		v-24.025h23.916V142.929z M133.918,142.929h-24.025v-24.025h24.025V142.929z M133.918,143.929v23.916h-24.025v-23.916H133.918z
		 M133.918,168.845v24.025h-24.025v-24.025H133.918z M133.918,193.87v23.916h-24.025V193.87H133.918z M133.918,218.785v24.025
		h-24.025v-24.025H133.918z M133.918,243.811v24.025h-24.025v-24.025H133.918z M133.918,268.836v23.915h-24.025v-23.915H133.918z
		 M133.918,293.751v24.025h-24.025v-24.025H133.918z M133.918,318.776v23.915h-24.025v-23.915H133.918z M133.918,343.691v24.025
		h-24.025v-24.025H133.918z M134.918,343.691h23.916v24.025h-23.916V343.691z M159.833,343.691h24.025v24.025h-24.025V343.691z
		 M184.858,343.691h23.916v24.025h-23.916V343.691z M209.774,343.691h24.025v24.025h-24.025V343.691z M234.799,343.691h24.025
		v24.025h-24.025V343.691z M259.824,343.691h23.915v24.025h-23.915V343.691z M284.739,343.691h24.025v24.025h-24.025V343.691z
		 M309.765,343.691h23.915v24.025h-23.915V343.691z M334.68,343.691h24.025v24.025H334.68V343.691z M334.68,342.691v-23.915h24.025
		v23.915H334.68z M334.68,317.776v-24.025h24.025v24.025H334.68z M334.68,292.751v-23.915h24.025v23.915H334.68z M334.68,267.836
		v-24.025h24.025v24.025H334.68z M334.68,242.811v-24.025h24.025v24.025H334.68z M334.68,217.785V193.87h24.025v23.916H334.68z
		 M334.68,192.87v-24.025h24.025v24.025H334.68z M334.68,167.845v-23.916h24.025v23.916H334.68z M334.68,142.929v-24.025h24.025
		v24.025H334.68z M334.68,117.904V93.989h24.025v23.916H334.68z M333.68,117.904h-23.915V93.989h23.915V117.904z M308.765,117.904
		h-24.025V93.989h24.025V117.904z M283.739,117.904h-23.915V93.989h23.915V117.904z M208.774,117.904h-23.916V93.989h23.916V117.904
		z M183.858,117.904h-24.025V93.989h24.025V117.904z M158.833,117.904h-23.916V93.989h23.916V117.904z M133.918,117.904h-24.025
		V93.989h24.025V117.904z M108.893,118.904v24.025H84.978v-24.025H108.893z M108.893,143.929v23.916H84.978v-23.916H108.893z
		 M108.893,168.845v24.025H84.978v-24.025H108.893z M108.893,193.87v23.916H84.978V193.87H108.893z M108.893,218.785v24.025H89.427
		c-0.237-2.356-2.093-4.213-4.45-4.45v-19.575H108.893z M84.978,248.26c2.356-0.237,4.212-2.093,4.45-4.449h19.465v24.025H84.978
		V248.26z M108.893,268.836v23.915H84.978v-23.915H108.893z M108.893,293.751v24.025H84.978v-24.025H108.893z M108.893,318.776
		v23.915H84.978v-23.915H108.893z M108.893,343.691v24.025H84.978v-24.025H108.893z M109.893,368.717h24.025v23.915h-24.025V368.717
		z M134.918,368.717h23.916v23.915h-23.916V368.717z M159.833,368.717h24.025v23.915h-24.025V368.717z M184.858,368.717h23.916
		v23.915h-23.916V368.717z M259.824,368.717h23.915v23.915h-23.915V368.717z M284.739,368.717h24.025v23.915h-24.025V368.717z
		 M309.765,368.717h23.915v23.915h-23.915V368.717z M334.68,368.717h24.025v23.915H334.68V368.717z M359.705,367.717v-24.025h23.915
		v24.025H359.705z M359.705,342.691v-23.915h23.915v23.915H359.705z M359.705,317.776v-24.025h23.915v24.025H359.705z
		 M359.705,292.751v-23.915h23.915v23.915H359.705z M359.705,267.836v-24.025h19.466c0.237,2.356,2.093,4.212,4.449,4.449v19.576
		H359.705z M383.62,238.361c-2.356,0.237-4.212,2.093-4.449,4.449h-19.466v-24.025h23.915V238.361z M359.705,217.785V193.87h23.915
		v23.916H359.705z M359.705,192.87v-24.025h23.915v24.025H359.705z M359.705,167.845v-23.916h23.915v23.916H359.705z
		 M359.705,142.929v-24.025h23.915v24.025H359.705z M359.705,117.904V93.989h19.466c0.237,2.356,2.093,4.212,4.449,4.45v19.466
		H359.705z M383.62,88.539c-2.356,0.237-4.212,2.093-4.449,4.45h-19.466V68.963h23.915V88.539z M358.705,92.989H334.68V68.963
		h24.025V92.989z M333.68,92.989h-23.915V68.963h23.915V92.989z M308.765,92.989h-24.025V68.963h24.025V92.989z M283.739,92.989
		h-23.915V68.963h23.915V92.989z M258.824,92.989h-19.575c-0.238-2.356-2.094-4.212-4.45-4.45V68.963h24.025V92.989z
		 M233.799,88.539c-2.356,0.237-4.212,2.093-4.45,4.45h-19.576V68.963h24.025V88.539z M208.774,92.989h-23.916V68.963h23.916V92.989
		z M183.858,92.989h-24.025V68.963h24.025V92.989z M158.833,92.989h-23.916V68.963h23.916V92.989z M133.918,92.989h-24.025V68.963
		h24.025V92.989z M108.893,92.989H89.427c-0.237-2.356-2.093-4.212-4.45-4.45V68.963h23.915V92.989z M83.978,118.904v24.025H59.952
		v-24.025H83.978z M83.978,143.929v23.916H59.952v-23.916H83.978z M83.978,168.845v24.025H59.952v-24.025H83.978z M83.978,193.87
		v23.916H59.952V193.87H83.978z M83.978,218.785v19.575c-2.356,0.237-4.212,2.094-4.45,4.45H59.952v-24.025H83.978z M79.528,243.811
		c0.238,2.356,2.093,4.212,4.45,4.449v19.576H59.952v-24.025H79.528z M83.978,268.836v23.915H59.952v-23.915H83.978z
		 M83.978,293.751v24.025H59.952v-24.025H83.978z M83.978,318.776v23.915H59.952v-23.915H83.978z M83.978,343.691v24.025H59.952
		v-24.025H83.978z M84.978,398.081c2.356-0.237,4.212-2.093,4.45-4.449h19.465v24.025H84.978V398.081z M109.893,393.632h24.025
		v24.025h-24.025V393.632z M134.918,393.632h23.916v24.025h-23.916V393.632z M159.833,393.632h24.025v24.025h-24.025V393.632z
		 M184.858,393.632h23.916v24.025h-23.916V393.632z M209.774,393.632h19.576c0.238,2.356,2.093,4.212,4.45,4.449v19.576h-24.025
		V393.632z M234.799,398.081c2.356-0.237,4.211-2.093,4.45-4.449h19.575v24.025h-24.025V398.081z M259.824,393.632h23.915v24.025
		h-23.915V393.632z M284.739,393.632h24.025v24.025h-24.025V393.632z M309.765,393.632h23.915v24.025h-23.915V393.632z
		 M334.68,393.632h24.025v24.025H334.68V393.632z M359.705,393.632h19.466c0.237,2.356,2.093,4.212,4.449,4.449v19.576h-23.915
		V393.632z M384.62,367.717v-24.025h24.025v24.025H384.62z M384.62,342.691v-23.915h24.025v23.915H384.62z M384.62,317.776v-24.025
		h24.025v24.025H384.62z M384.62,292.751v-23.915h24.025v23.915H384.62z M384.62,267.836V248.26
		c2.356-0.237,4.212-2.093,4.449-4.449h19.576v24.025H384.62z M389.069,242.811c-0.237-2.356-2.093-4.212-4.449-4.449v-19.576
		h24.025v24.025H389.069z M384.62,217.785V193.87h24.025v23.916H384.62z M384.62,192.87v-24.025h24.025v24.025H384.62z
		 M384.62,167.845v-23.916h24.025v23.916H384.62z M384.62,142.929v-24.025h24.025v24.025H384.62z M384.62,117.904V98.438
		c2.356-0.237,4.212-2.093,4.449-4.45h19.576v23.916H384.62z M389.069,92.989c-0.237-2.356-2.093-4.212-4.449-4.45V68.963h24.025
		v24.025H389.069z M384.62,67.963V44.048h24.025v23.915H384.62z M383.62,67.963h-23.915V44.048h23.915V67.963z M358.705,67.963
		H334.68V44.048h24.025V67.963z M333.68,67.963h-23.915V44.048h23.915V67.963z M308.765,67.963h-24.025V44.048h24.025V67.963z
		 M283.739,67.963h-23.915V44.048h23.915V67.963z M258.824,67.963h-24.025V44.048h24.025V67.963z M233.799,67.963h-24.025V44.048
		h24.025V67.963z M208.774,67.963h-23.916V44.048h23.916V67.963z M183.858,67.963h-24.025V44.048h24.025V67.963z M158.833,67.963
		h-23.916V44.048h23.916V67.963z M133.918,67.963h-24.025V44.048h24.025V67.963z M108.893,67.963H84.978V44.048h23.915V67.963z
		 M83.978,67.963H59.952V44.048h24.025V67.963z M83.978,68.963v19.576c-2.356,0.237-4.212,2.093-4.45,4.45H59.952V68.963H83.978z
		 M58.952,92.989H35.037V68.963h23.915V92.989z M58.952,93.989v23.916H35.037V93.989H58.952z M58.952,118.904v24.025H35.037v-24.025
		H58.952z M58.952,143.929v23.916H35.037v-23.916H58.952z M58.952,168.845v24.025H35.037v-24.025H58.952z M58.952,193.87v23.916
		H35.037V193.87H58.952z M58.952,218.785v24.025H35.037v-24.025H58.952z M58.952,243.811v24.025H35.037v-24.025H58.952z
		 M58.952,268.836v23.915H35.037v-23.915H58.952z M58.952,293.751v24.025H35.037v-24.025H58.952z M58.952,318.776v23.915H35.037
		v-23.915H58.952z M58.952,343.691v24.025H35.037v-24.025H58.952z M58.952,368.717v23.915H35.037v-23.915H58.952z M58.952,393.632
		v24.025H35.037v-24.025H58.952z M59.952,393.632h19.576c0.237,2.356,2.093,4.212,4.45,4.449v19.576H59.952V393.632z
		 M83.978,418.657v23.915H59.952v-23.915H83.978z M84.978,418.657h23.915v23.915H84.978V418.657z M109.893,418.657h24.025v23.915
		h-24.025V418.657z M134.918,418.657h23.916v23.915h-23.916V418.657z M159.833,418.657h24.025v23.915h-24.025V418.657z
		 M184.858,418.657h23.916v23.915h-23.916V418.657z M209.774,418.657h24.025v23.915h-24.025V418.657z M234.799,418.657h24.025
		v23.915h-24.025V418.657z M259.824,418.657h23.915v23.915h-23.915V418.657z M284.739,418.657h24.025v23.915h-24.025V418.657z
		 M309.765,418.657h23.915v23.915h-23.915V418.657z M334.68,418.657h24.025v23.915H334.68V418.657z M359.705,418.657h23.915v23.915
		h-23.915V418.657z M384.62,418.657h24.025v23.915H384.62V418.657z M384.62,417.657v-19.576c2.356-0.237,4.212-2.093,4.449-4.449
		h19.576v24.025H384.62z M409.646,393.632h23.915v24.025h-23.915V393.632z M409.646,392.632v-23.915h23.915v23.915H409.646z
		 M409.646,367.717v-24.025h23.915v24.025H409.646z M409.646,342.691v-23.915h23.915v23.915H409.646z M409.646,317.776v-24.025
		h23.915v24.025H409.646z M409.646,292.751v-23.915h23.915v23.915H409.646z M409.646,267.836v-24.025h23.915v24.025H409.646z
		 M409.646,242.811v-24.025h23.915v24.025H409.646z M409.646,217.785V193.87h23.915v23.916H409.646z M409.646,192.87v-24.025h23.915
		v24.025H409.646z M409.646,167.845v-23.916h23.915v23.916H409.646z M409.646,142.929v-24.025h23.915v24.025H409.646z
		 M409.646,117.904V93.989h23.915v23.916H409.646z M409.646,92.989V68.963h23.915v24.025H409.646z M409.646,67.963V44.048h23.915
		v23.915H409.646z M409.646,43.048V19.023h23.915v24.025H409.646z M408.646,43.048H384.62V19.023h24.025V43.048z M383.62,43.048
		h-23.915V19.023h23.915V43.048z M358.705,43.048H334.68V19.023h24.025V43.048z M333.68,43.048h-23.915V19.023h23.915V43.048z
		 M308.765,43.048h-24.025V19.023h24.025V43.048z M283.739,43.048h-23.915V19.023h23.915V43.048z M258.824,43.048h-24.025V19.023
		h24.025V43.048z M233.799,43.048h-24.025V19.023h24.025V43.048z M208.774,43.048h-23.916V19.023h23.916V43.048z M183.858,43.048
		h-24.025V19.023h24.025V43.048z M158.833,43.048h-23.916V19.023h23.916V43.048z M133.918,43.048h-24.025V19.023h24.025V43.048z
		 M108.893,43.048H84.978V19.023h23.915V43.048z M83.978,43.048H59.952V19.023h24.025V43.048z M58.952,43.048H35.037V19.023h23.915
		V43.048z M58.952,44.048v23.915H35.037V44.048H58.952z M34.037,67.963H10.012V44.048h24.025V67.963z M34.037,68.963v24.025H10.012
		V68.963H34.037z M34.037,93.989v23.916H10.012V93.989H34.037z M34.037,118.904v24.025H10.012v-24.025H34.037z M34.037,143.929
		v23.916H10.012v-23.916H34.037z M34.037,168.845v24.025H10.012v-24.025H34.037z M34.037,193.87v23.916H10.012V193.87H34.037z
		 M34.037,218.785v24.025H10.012v-24.025H34.037z M34.037,243.811v24.025H10.012v-24.025H34.037z M34.037,268.836v23.915H10.012
		v-23.915H34.037z M34.037,293.751v24.025H10.012v-24.025H34.037z M34.037,318.776v23.915H10.012v-23.915H34.037z M34.037,343.691
		v24.025H10.012v-24.025H34.037z M34.037,368.717v23.915H10.012v-23.915H34.037z M34.037,393.632v24.025H10.012v-24.025H34.037z
		 M34.037,418.657v23.915H10.012v-23.915H34.037z M35.037,418.657h23.915v23.915H35.037V418.657z M58.952,443.572v24.025H35.037
		v-24.025H58.952z M59.952,443.572h24.025v24.025H59.952V443.572z M84.978,443.572h23.915v24.025H84.978V443.572z M109.893,443.572
		h24.025v24.025h-24.025V443.572z M134.918,443.572h23.916v24.025h-23.916V443.572z M159.833,443.572h24.025v24.025h-24.025V443.572
		z M184.858,443.572h23.916v24.025h-23.916V443.572z M209.774,443.572h24.025v24.025h-24.025V443.572z M234.799,443.572h24.025
		v24.025h-24.025V443.572z M259.824,443.572h23.915v24.025h-23.915V443.572z M284.739,443.572h24.025v24.025h-24.025V443.572z
		 M309.765,443.572h23.915v24.025h-23.915V443.572z M334.68,443.572h24.025v24.025H334.68V443.572z M359.705,443.572h23.915v24.025
		h-23.915V443.572z M384.62,443.572h24.025v24.025H384.62V443.572z M409.646,443.572h23.915v24.025h-23.915V443.572z
		 M409.646,442.572v-23.915h23.915v23.915H409.646z M434.561,418.657h24.025v23.915h-24.025V418.657z M434.561,417.657v-24.025
		h24.025v24.025H434.561z M434.561,392.632v-23.915h24.025v23.915H434.561z M434.561,367.717v-24.025h24.025v24.025H434.561z
		 M434.561,342.691v-23.915h24.025v23.915H434.561z M434.561,317.776v-24.025h24.025v24.025H434.561z M434.561,292.751v-23.915
		h24.025v23.915H434.561z M434.561,267.836v-24.025h24.025v24.025H434.561z M434.561,242.811v-24.025h24.025v24.025H434.561z
		 M434.561,217.785V193.87h24.025v23.916H434.561z M434.561,192.87v-24.025h24.025v24.025H434.561z M434.561,167.845v-23.916h24.025
		v23.916H434.561z M434.561,142.929v-24.025h24.025v24.025H434.561z M434.561,117.904V93.989h24.025v23.916H434.561z
		 M434.561,92.989V68.963h24.025v24.025H434.561z M434.561,67.963V44.048h24.025v23.915H434.561z M34.037,19.023v24.025H10.012
		V19.023H34.037z M10.012,443.572h24.025v24.025H10.012V443.572z M434.561,467.598v-24.025h24.025v24.025H434.561z"/>
</g>
<g id="Layer_1">
</g>
</svg>
