<?xml version="1.0" encoding="iso-8859-1"?>
<!-- Generator: Adobe Illustrator 16.0.0, SVG Export Plug-In . SVG Version: 6.00 Build 0)  -->
<!DOCTYPE svg PUBLIC "-//W3C//DTD SVG 1.1//EN" "http://www.w3.org/Graphics/SVG/1.1/DTD/svg11.dtd">
<svg version="1.1" xmlns="http://www.w3.org/2000/svg" xmlns:xlink="http://www.w3.org/1999/xlink" x="0px" y="0px"
	 width="413.551px" height="212.073px" viewBox="0 0 413.551 212.073" style="enable-background:new 0 0 413.551 212.073;"
	 xml:space="preserve">
<g id="Bandana">
	<g>
		<polygon style="fill:#231F20;" points="409.12,33.316 409.473,32.963 408.767,32.963 		"/>
		<path style="fill:#231F20;" d="M380.059,8.156h-0.708h-0.706h-28.882h-18.377h-29.598h-18.367h-29.606h-18.359h-29.616h-18.35
			h-29.625h-18.341h-29.633H91.559H61.917H43.593H16.134H14.72l-0.389,0.389L4.078,18.798l193.275,193.275L390.665,18.763
			L380.059,8.156z M350.763,9.156l13.087,13.087l-23.28,23.28l-23.275-23.275l13.092-13.092H350.763z M302.788,9.156l13.092,13.092
			L292.6,45.527l-23.275-23.274l13.097-13.097H302.788z M315.875,70.218l-23.28,23.28l-23.275-23.275l23.28-23.28L315.875,70.218z
			 M254.814,9.156l13.096,13.097l-23.28,23.28l-23.275-23.276l13.101-13.101H254.814z M244.625,93.502L221.35,70.228l23.28-23.28
			l23.275,23.275L244.625,93.502z M267.901,118.192l-23.28,23.28l-23.276-23.276l23.28-23.28L267.901,118.192z M206.839,9.156
			l13.101,13.101l-23.279,23.28l-23.276-23.276l13.105-13.104H206.839z M196.651,141.477l-23.275-23.275l23.28-23.28l23.274,23.275
			L196.651,141.477z M219.927,166.166l-23.28,23.28l-23.275-23.275l23.28-23.28L219.927,166.166z M196.656,93.507L173.38,70.231
			l23.28-23.28l23.275,23.276L196.656,93.507z M158.865,9.156l13.105,13.104l-23.28,23.28l-23.275-23.275l13.109-13.109H158.865z
			 M148.686,93.511L125.41,70.235l23.28-23.28l23.276,23.276L148.686,93.511z M171.961,118.201l-23.28,23.28l-23.276-23.276
			l23.28-23.279L171.961,118.201z M110.891,9.156L124,22.266l-23.28,23.28L77.445,22.271L90.559,9.156H110.891z M123.996,70.235
			l-23.28,23.28L77.44,70.24l23.28-23.28L123.996,70.235z M62.917,9.156l13.114,13.114L52.75,45.55L29.475,22.274L42.593,9.156
			H62.917z M5.492,18.798l9.546-9.546L196.646,190.86L378.352,9.156h1.293l9.606,9.606L197.354,210.659L5.492,18.798z"/>
	</g>
</g>
<g id="Layer_1">
</g>
</svg>
