<?xml version="1.0" encoding="iso-8859-1"?>
<!-- Generator: Adobe Illustrator 16.0.0, SVG Export Plug-In . SVG Version: 6.00 Build 0)  -->
<!DOCTYPE svg PUBLIC "-//W3C//DTD SVG 1.1//EN" "http://www.w3.org/Graphics/SVG/1.1/DTD/svg11.dtd">
<svg version="1.1" xmlns="http://www.w3.org/2000/svg" xmlns:xlink="http://www.w3.org/1999/xlink" x="0px" y="0px"
	 width="424.348px" height="424.397px" viewBox="0 0 424.348 424.397" style="enable-background:new 0 0 424.348 424.397;"
	 xml:space="preserve">
<g id="_x31_2by12">
	<path style="fill:#231F20;" d="M8.162,16.323v408.075h408.025V16.323H8.162z M381.301,118.091h-32.985v-32.89h32.985V118.091z
		 M381.301,185.97h-32.985v-32.989h32.985V185.97z M381.301,253.75h-32.985v-32.89h32.985V253.75z M280.545,389.508v-32.989h32.886
		v32.989H280.545z M77.032,389.508v-32.989h32.886v32.989H77.032z M143.804,51.212v32.989h-32.886V51.212H143.804z M211.674,51.212
		v32.989h-32.885V51.212H211.674z M279.545,51.212v32.989H246.56V51.212H279.545z M347.315,51.212v32.989h-32.885V51.212H347.315z
		 M347.315,151.981h-32.885v-32.89h32.885V151.981z M347.315,219.86h-32.885v-32.89h32.885V219.86z M246.56,355.519v-32.89h32.985
		v32.89H246.56z M178.789,355.519v-32.89h32.885v32.89H178.789z M77.032,220.86h32.886v32.89H77.032V220.86z M77.032,152.981h32.886
		v32.989H77.032V152.981z M177.789,85.202v32.89h-32.985v-32.89H177.789z M245.56,85.202v32.89h-32.886v-32.89H245.56z
		 M313.431,185.97h-32.886v-32.989h32.886V185.97z M313.431,253.75h-32.886v-32.89h32.886V253.75z M212.674,321.629v-32.89h32.886
		v32.89H212.674z M144.804,321.629v-32.89h32.985v32.89H144.804z M110.918,254.75h32.886v32.989h-32.886V254.75z M279.545,219.86
		H246.56v-32.89h32.985V219.86z M177.789,152.981v32.989h-32.985v-32.989H177.789z M245.56,152.981v32.989h-32.886v-32.989H245.56z
		 M245.56,253.75h-32.886v-32.89h32.886V253.75z M178.789,186.97h32.885v32.89h-32.885V186.97z M211.674,254.75v32.989h-32.885
		V254.75H211.674z M177.789,220.86v32.89h-32.985v-32.89H177.789z M246.56,254.75h32.985v32.989H246.56V254.75z M279.545,119.091
		v32.89H246.56v-32.89H279.545z M211.674,151.981h-32.885v-32.89h32.885V151.981z M143.804,186.97v32.89h-32.886v-32.89H143.804z
		 M143.804,119.091v32.89h-32.886v-32.89H143.804z M280.545,321.629v-32.89h32.886v32.89H280.545z M313.431,118.091h-32.886v-32.89
		h32.886V118.091z M77.032,288.739h32.886v32.89H77.032V288.739z M110.918,355.519v-32.89h32.886v32.89H110.918z M347.315,287.739
		h-32.885V254.75h32.885V287.739z M109.918,85.202v32.89H77.032v-32.89H109.918z M314.431,355.519v-32.89h32.885v32.89H314.431z
		 M43.047,119.091h32.985v32.89H43.047V119.091z M43.047,186.97h32.985v32.89H43.047V186.97z M76.032,254.75v32.989H43.047V254.75
		H76.032z M43.047,322.629h32.985v32.89H43.047V322.629z M144.804,389.508v-32.989h32.985v32.989H144.804z M212.674,389.508v-32.989
		h32.886v32.989H212.674z M348.315,321.629v-32.89h32.985v32.89H348.315z M76.032,51.212v32.989H43.047V51.212H76.032z
		 M348.315,389.508v-32.989h32.985v32.989H348.315z M381.301,50.212h-32.985v-32.89h32.985V50.212z M313.431,50.212h-32.886v-32.89
		h32.886V50.212z M245.56,50.212h-32.886v-32.89h32.886V50.212z M177.789,50.212h-32.985v-32.89h32.985V50.212z M109.918,50.212
		H77.032v-32.89h32.886V50.212z M42.047,85.202v32.89H9.162v-32.89H42.047z M42.047,152.981v32.989H9.162v-32.989H42.047z
		 M42.047,220.86v32.89H9.162v-32.89H42.047z M42.047,288.739v32.89H9.162v-32.89H42.047z M42.047,356.519v32.989H9.162v-32.989
		H42.047z M43.047,390.508h32.985v32.89H43.047V390.508z M110.918,390.508h32.886v32.89h-32.886V390.508z M178.789,390.508h32.885
		v32.89h-32.885V390.508z M246.56,390.508h32.985v32.89H246.56V390.508z M314.431,390.508h32.885v32.89h-32.885V390.508z
		 M382.301,355.519v-32.89h32.886v32.89H382.301z M382.301,287.739V254.75h32.886v32.989H382.301z M382.301,219.86v-32.89h32.886
		v32.89H382.301z M382.301,151.981v-32.89h32.886v32.89H382.301z M382.301,84.202V51.212h32.886v32.989H382.301z M42.047,17.323
		v32.89H9.162v-32.89H42.047z M382.301,423.397v-32.89h32.886v32.89H382.301z"/>
</g>
<g id="Layer_1">
</g>
</svg>
