<?xml version="1.0" encoding="iso-8859-1"?>
<!-- Generator: Adobe Illustrator 16.0.0, SVG Export Plug-In . SVG Version: 6.00 Build 0)  -->
<!DOCTYPE svg PUBLIC "-//W3C//DTD SVG 1.1//EN" "http://www.w3.org/Graphics/SVG/1.1/DTD/svg11.dtd">
<svg version="1.1" xmlns="http://www.w3.org/2000/svg" xmlns:xlink="http://www.w3.org/1999/xlink" x="0px" y="0px"
	 width="212.745px" height="212.744px" viewBox="0 0 212.745 212.744" style="enable-background:new 0 0 212.745 212.744;"
	 xml:space="preserve">
<g id="_x36_by6">
	<rect x="38.527" y="8.682" style="fill:#231F20;" width="33.886" height="33.886"/>
	<rect x="106.397" y="8.682" style="fill:#231F20;" width="33.885" height="33.886"/>
	<rect x="174.169" y="8.682" style="fill:#231F20;" width="33.984" height="33.886"/>
	<rect x="72.413" y="42.568" style="fill:#231F20;" width="33.985" height="33.985"/>
	<rect x="140.282" y="42.568" style="fill:#231F20;" width="33.887" height="33.985"/>
	<rect x="4.591" y="42.568" style="fill:#231F20;" width="33.936" height="34.035"/>
	<rect x="38.527" y="76.603" style="fill:#231F20;" width="33.935" height="33.886"/>
	<rect x="106.397" y="76.553" style="fill:#231F20;" width="33.836" height="33.936"/>
	<rect x="174.169" y="76.553" style="fill:#231F20;" width="33.984" height="33.936"/>
	<rect x="140.233" y="110.488" style="fill:#231F20;" width="33.984" height="33.886"/>
	<rect x="72.462" y="110.488" style="fill:#231F20;" width="33.936" height="33.886"/>
	<rect x="4.591" y="110.488" style="fill:#231F20;" width="33.886" height="33.886"/>
	<rect x="38.477" y="144.374" style="fill:#231F20;" width="33.985" height="33.985"/>
	<rect x="106.397" y="144.374" style="fill:#231F20;" width="33.885" height="33.985"/>
	<rect x="174.218" y="144.374" style="fill:#231F20;" width="33.936" height="33.985"/>
	<rect x="4.591" y="178.359" style="fill:#231F20;" width="33.936" height="33.885"/>
	<rect x="72.462" y="178.359" style="fill:#231F20;" width="33.936" height="33.885"/>
	<rect x="140.282" y="178.359" style="fill:#231F20;" width="33.936" height="33.885"/>
	<g>
		<rect x="4.591" y="8.682" style="fill:none;stroke:#231F20;stroke-miterlimit:10;" width="203.562" height="203.562"/>
		<line style="fill:none;stroke:#231F20;stroke-miterlimit:10;" x1="4.591" y1="178.301" x2="208.153" y2="178.301"/>
		<line style="fill:none;stroke:#231F20;stroke-miterlimit:10;" x1="4.591" y1="144.406" x2="208.153" y2="144.406"/>
		<line style="fill:none;stroke:#231F20;stroke-miterlimit:10;" x1="4.591" y1="110.463" x2="208.153" y2="110.463"/>
		<line style="fill:none;stroke:#231F20;stroke-miterlimit:10;" x1="4.591" y1="76.52" x2="208.153" y2="76.52"/>
		<line style="fill:none;stroke:#231F20;stroke-miterlimit:10;" x1="4.591" y1="42.625" x2="208.153" y2="42.625"/>
		<line style="fill:none;stroke:#231F20;stroke-miterlimit:10;" x1="174.21" y1="8.682" x2="174.21" y2="212.244"/>
		<line style="fill:none;stroke:#231F20;stroke-miterlimit:10;" x1="140.315" y1="8.682" x2="140.315" y2="212.244"/>
		<line style="fill:none;stroke:#231F20;stroke-miterlimit:10;" x1="106.372" y1="8.682" x2="106.372" y2="212.244"/>
		<line style="fill:none;stroke:#231F20;stroke-miterlimit:10;" x1="72.429" y1="8.682" x2="72.429" y2="212.244"/>
		<line style="fill:none;stroke:#231F20;stroke-miterlimit:10;" x1="38.535" y1="8.682" x2="38.535" y2="212.244"/>
	</g>
</g>
<g id="Layer_1">
</g>
</svg>
