<!-- Generated by IcoMoon.io -->
<svg version="1.1" xmlns="http://www.w3.org/2000/svg" width="512" height="512" viewBox="0 0 512 512">
<title>ArrowNorthwest</title>
<path d="M452.318 344.625l-11.908-11.861-172.856-172.951 61.572-61.62c5.718-5.765 7.466-14.507 4.348-22.067-0.993-2.552-2.505-4.725-4.348-6.569-3.686-3.638-8.884-5.954-14.318-5.954l-240.808 0.094c-5.34 0-10.538 2.127-14.318 5.907-3.781 3.828-5.907 8.931-5.907 14.318l-0.047 240.714c0 8.222 5.056 15.594 12.475 18.712 7.561 3.119 16.445 1.37 22.163-4.394l61.525-61.572 184.859 184.811c7.844 7.892 20.697 7.892 28.589 0l88.885-88.933c8.033-7.986 8.033-20.745 0.094-28.636z"></path>
</svg>
