<!-- Generated by IcoMoon.io -->
<svg version="1.1" xmlns="http://www.w3.org/2000/svg" width="512" height="512" viewBox="0 0 512 512">
<title>ArrowEast</title>
<path d="M30.053 349.020h261.363v87.137c0 8.127 4.962 15.5 12.57 18.666 2.457 1.039 5.056 1.512 7.655 1.512 5.245 0 10.538-2.032 14.413-5.907l170.21-170.304c3.781-3.781 5.907-8.931 5.907-14.318s-2.127-10.537-5.907-14.318l-170.257-170.21c-5.813-5.813-14.555-7.466-22.021-4.442-7.56 3.119-12.57 10.632-12.57 18.713v87.137h-261.363c-11.152 0-20.225 9.025-20.225 20.225v125.791c0 11.247 9.026 20.32 20.225 20.32z"></path>
</svg>
