<!-- Generated by IcoMoon.io -->
<svg version="1.1" xmlns="http://www.w3.org/2000/svg" width="512" height="512" viewBox="0 0 512 512">
<title>ArrowWest</title>
<path d="M481.899 182.685h-261.363v-87.137c0-8.127-4.962-15.499-12.57-18.666-2.457-1.087-5.056-1.512-7.655-1.512-5.245 0-10.537 2.032-14.412 5.907l-170.162 170.257c-3.78 3.78-5.907 8.931-5.907 14.318s2.127 10.538 5.907 14.318l170.21 170.304c5.813 5.765 14.554 7.419 22.020 4.394 7.56-3.119 12.57-10.632 12.57-18.712v-87.137h261.363c11.152 0 20.225-9.026 20.225-20.225v-125.791c0-11.246-9.026-20.32-20.225-20.32z"></path>
</svg>
