<!-- Generated by IcoMoon.io -->
<svg version="1.1" xmlns="http://www.w3.org/2000/svg" width="512" height="512" viewBox="0 0 512 512">
<title>ArrowSoutheast</title>
<path d="M59.587 187.079l11.813 11.908 172.998 172.903-61.572 61.62c-5.718 5.765-7.466 14.46-4.347 22.067 0.993 2.599 2.505 4.726 4.347 6.568 3.686 3.686 8.884 6.002 14.412 6.002l240.666-0.094c5.339 0 10.443-2.127 14.224-5.907 3.875-3.781 6.002-8.931 6.002-14.318l0.094-240.761c0-8.222-5.056-15.594-12.57-18.713-7.56-3.119-16.35-1.37-22.067 4.394l-61.667 61.572-184.717-184.811c-7.892-7.892-20.697-7.892-28.542 0l-89.075 88.933c-7.938 7.939-7.938 20.744 0 28.636z"></path>
</svg>
