<!-- Generated by IcoMoon.io -->
<svg version="1.1" xmlns="http://www.w3.org/2000/svg" width="512" height="512" viewBox="0 0 512 512">
<title>ArrowSouth</title>
<path d="M172.809 39.93v261.363h-87.137c-8.127 0-15.499 4.962-18.666 12.57-1.040 2.457-1.512 5.056-1.512 7.655 0 5.245 2.032 10.538 5.907 14.413l170.304 170.21c3.78 3.781 8.931 5.907 14.318 5.907s10.49-2.173 14.271-5.954l170.304-170.21c5.765-5.813 7.419-14.555 4.394-22.020-3.119-7.56-10.632-12.57-18.712-12.57h-87.137v-261.363c0-11.152-9.026-20.225-20.225-20.225h-125.791c-11.246 0-20.32 9.026-20.32 20.225z"></path>
</svg>
