<!-- Generated by IcoMoon.io -->
<svg version="1.1" xmlns="http://www.w3.org/2000/svg" width="512" height="512" viewBox="0 0 512 512">
<title>ArrowNortheast</title>
<path d="M177.251 462.194l11.814-11.908 172.95-172.95 61.667 61.62c5.718 5.765 14.46 7.419 22.067 4.394 2.457-1.039 4.584-2.505 6.426-4.348 3.781-3.686 6.002-8.884 6.002-14.413v-240.714c0-5.34-2.221-10.537-6.002-14.318s-8.931-5.907-14.271-5.907l-240.714-0.094c-8.222 0-15.594 5.009-18.713 12.475-3.166 7.561-1.37 16.397 4.347 22.163l61.667 61.619-184.906 184.812c-7.844 7.844-7.844 20.697 0 28.541l88.98 88.98c7.939 7.892 20.744 7.892 28.684 0.048z"></path>
</svg>
