<!-- Generated by IcoMoon.io -->
<svg version="1.1" xmlns="http://www.w3.org/2000/svg" width="512" height="512" viewBox="0 0 512 512">
<title>ArrowNorth</title>
<path d="M339.144 491.775v-261.363h87.137c8.127 0 15.5-4.962 18.666-12.57 1.087-2.505 1.56-5.056 1.56-7.655 0-5.245-2.032-10.537-5.907-14.412l-170.304-170.162c-3.781-3.78-8.931-5.907-14.318-5.907s-10.49 2.127-14.271 5.907l-170.304 170.21c-5.813 5.813-7.466 14.554-4.442 22.020 3.119 7.56 10.632 12.57 18.76 12.57h87.137v261.363c0 11.152 9.025 20.225 20.225 20.225h125.791c11.2 0 20.272-9.026 20.272-20.225z"></path>
</svg>
