<!-- Generated by IcoMoon.io -->
<svg version="1.1" xmlns="http://www.w3.org/2000/svg" width="512" height="512" viewBox="0 0 512 512">
<title>ArrowSouthwest</title>
<path d="M334.56 69.511l-11.813 11.861-172.856 172.95-61.62-61.62c-5.718-5.765-14.507-7.419-22.067-4.3-2.505 0.993-4.725 2.457-6.474 4.3-3.781 3.733-6.002 8.884-6.002 14.365v240.76c0 5.339 2.221 10.538 6.002 14.318s8.884 5.954 14.224 5.954l240.666 0.048c8.222 0 15.594-5.009 18.712-12.475 3.119-7.56 1.37-16.397-4.348-22.163l-61.572-61.62 184.906-184.811c7.844-7.892 7.844-20.697 0-28.542l-88.98-88.98c-7.986-7.938-20.839-7.938-28.778-0.047z"></path>
</svg>
