<!-- Generated by IcoMoon.io -->
<svg version="1.1" xmlns="http://www.w3.org/2000/svg" width="586" height="512" viewBox="0 0 586 512">
<title>ChessboardThreePlayer</title>
<path d="M328.553 408.232l122.756 9.916 17.88-91.824-105.056-20.080z"></path>
<path d="M399.709 204.257l-87.356-30.252-53.281 112.156 105.061 20.082z"></path>
<path d="M295.516 19.691l-285.672 492.31 565.316-1.015 0.713-327.873 0.003-0.736-280.359-162.685zM84.444 388.514l121.351 9.806 53.281-112.159-103.733-19.828 70.881-122.153 86.129 29.828 52.733-111 69.776 40.489-35.156 100.764 87.361 30.25 17.618-90.495 68.638 39.829-0.173 80.481-86.081-29.812-17.88 91.819 103.786 19.841-0.178 81.796-121.486-9.813-17.631 90.543-140.26 0.252 35.135-100.71-122.761-9.916-52.674 110.87-138.85 0.25 70.173-120.93z"></path>
</svg>
