<!-- Generated by IcoMoon.io -->
<svg version="1.1" xmlns="http://www.w3.org/2000/svg" width="512" height="512" viewBox="0 0 512 512">
<title>Chessboard5by6</title>
<path d="M91.842 57.817h82.225v82.225h-82.225v-82.225z"></path>
<path d="M256.534 57.817h82.226v82.225h-82.226v-82.225z"></path>
<path d="M420.983 57.817h82.464v82.225h-82.464v-82.225z"></path>
<path d="M174.068 140.043h82.466v82.466h-82.466v-82.466z"></path>
<path d="M338.757 140.043h82.226v82.466h-82.226v-82.466z"></path>
<path d="M9.498 140.043h82.347v82.588h-82.347v-82.588z"></path>
<path d="M91.842 222.63h82.344v82.224h-82.344v-82.224z"></path>
<path d="M256.534 222.509h82.105v82.345h-82.105v-82.344z"></path>
<path d="M420.983 222.509h82.464v82.345h-82.464v-82.344z"></path>
<path d="M338.639 304.853h82.464v82.228h-82.464v-82.228z"></path>
<path d="M174.187 304.853h82.347v82.228h-82.347v-82.228z"></path>
<path d="M9.498 304.853h82.225v82.228h-82.225v-82.228z"></path>
<path d="M91.721 387.082h82.466v82.464h-82.466v-82.464z"></path>
<path d="M256.534 387.082h82.226v82.464h-82.226v-82.464z"></path>
<path d="M421.102 387.082h82.347v82.464h-82.347v-82.464z"></path>
</svg>
