<!-- Generated by IcoMoon.io -->
<svg version="1.1" xmlns="http://www.w3.org/2000/svg" width="512" height="512" viewBox="0 0 512 512">
<title>Chessboard10by10</title>
<path d="M9.846 19.692v492.308h492.236v-492.308h-492.236zM451.509 166.975h-47.56v-47.688h47.56v47.688zM451.509 265.123h-47.56v-47.688h47.56v47.688zM451.509 363.271h-47.56v-47.567h47.56v47.567zM305.813 461.418v-47.567h47.56v47.567h-47.56zM207.561 461.418v-47.567h47.679v47.567h-47.679zM109.427 461.418v-47.567h47.68v47.567h-47.68zM206.114 70.274v47.567h-47.56v-47.567h47.56zM304.366 70.274v47.567h-47.679v-47.567h47.679zM402.501 70.274v47.567h-47.679v-47.567h47.679zM402.501 314.256h-47.679v-47.686h47.679v47.686zM109.427 315.703h47.68v47.567h-47.68v-47.567zM109.427 217.435h47.68v47.688h-47.68v-47.688zM255.24 119.287v47.688h-47.679v-47.688h47.679zM353.373 119.287v47.688h-47.56v-47.688h47.56zM353.373 265.123h-47.56v-47.688h47.56v47.688zM353.373 363.271h-47.56v-47.567h47.56v47.567zM304.366 314.256h-47.679v-47.686h47.679v47.686zM255.24 217.435v47.688h-47.679v-47.688h47.679zM255.24 315.703v47.567h-47.679v-47.567h47.679zM304.366 215.988h-47.679v-47.567h47.679v47.567zM206.114 266.57v47.686h-47.56v-47.686h47.56zM206.114 168.422v47.567h-47.56v-47.567h47.56zM304.366 364.717v47.686h-47.679v-47.686h47.679zM158.554 364.717h47.56v47.686h-47.56v-47.686zM354.82 364.717h47.679v47.686h-47.679v-47.686zM354.82 215.988v-47.567h47.679v47.567h-47.679zM157.107 119.287v47.688h-47.68v-47.688h47.68zM60.42 168.422h47.559v47.567h-47.559v-47.567zM60.42 266.57h47.559v47.686h-47.559v-47.686zM107.98 364.717v47.686h-47.559v-47.686h47.559zM107.98 70.274v47.567h-47.559v-47.567h47.559zM403.948 461.418v-47.567h47.56v47.567h-47.56zM451.509 68.827h-47.56v-47.688h47.56v47.688zM353.373 68.827h-47.56v-47.688h47.56v47.688zM255.24 68.827h-47.679v-47.688h47.679v47.688zM157.107 68.827h-47.68v-47.688h47.68v47.688zM58.974 119.287v47.688h-47.681v-47.688h47.681zM58.974 217.435v47.688h-47.681v-47.688h47.681zM58.974 315.703v47.567h-47.681v-47.567h47.681zM58.974 413.851v47.567h-47.681v-47.567h47.681zM60.42 462.865h47.559v47.686h-47.559v-47.686zM158.554 462.865h47.56v47.686h-47.56v-47.686zM256.688 462.865h47.679v47.686h-47.679v-47.686zM354.82 462.865h47.679v47.686h-47.679v-47.686zM452.955 412.404v-47.686h47.679v47.686h-47.679zM452.955 314.256v-47.686h47.679v47.686h-47.679zM452.955 215.988v-47.567h47.679v47.567h-47.679zM452.955 117.84v-47.566h47.679v47.567h-47.679zM58.974 21.139v47.688h-47.681v-47.688h47.681zM452.955 510.553v-47.686h47.679v47.686h-47.679z"></path>
</svg>
