<!-- Generated by IcoMoon.io -->
<svg version="1.1" xmlns="http://www.w3.org/2000/svg" width="512" height="512" viewBox="0 0 512 512">
<title>Chessboard5by5</title>
<path d="M109.203 20.991h97.771v97.771h-97.771v-97.771z"></path>
<path d="M305.029 20.991h97.771v97.771h-97.771v-97.771z"></path>
<path d="M206.973 118.761h98.056v98.056h-98.056v-98.056z"></path>
<path d="M402.798 118.761h97.771v98.056h-97.771v-98.056z"></path>
<path d="M11.29 118.761h97.915v98.201h-97.915v-98.201z"></path>
<path d="M109.203 216.959h97.912v97.771h-97.912v-97.771z"></path>
<path d="M305.029 216.818h97.626v97.915h-97.626v-97.915z"></path>
<path d="M402.656 314.73h98.056v97.771h-98.057v-97.771z"></path>
<path d="M207.114 314.73h97.915v97.771h-97.915v-97.771z"></path>
<path d="M11.29 314.73h97.771v97.771h-97.771v-97.771z"></path>
<path d="M109.058 412.501h98.057v98.057h-98.056v-98.057z"></path>
<path d="M305.029 412.501h97.771v98.057h-97.771v-98.057z"></path>
<path d="M502.156 512h-492.308v-492.308h492.308v492.308zM12.733 509.115h486.538v-486.538h-486.538v486.538z"></path>
<path d="M11.29 411.252h489.423v2.885h-489.423v-2.885z"></path>
<path d="M11.29 313.391h489.423v2.885h-489.423v-2.885z"></path>
<path d="M11.29 215.412h489.423v2.886h-489.423v-2.886z"></path>
<path d="M11.29 117.552h489.423v2.885h-489.423v-2.885z"></path>
<path d="M401.407 21.134h2.885v489.423h-2.885v-489.423z"></path>
<path d="M303.55 21.134h2.885v489.423h-2.885v-489.423z"></path>
<path d="M205.568 21.134h2.886v489.423h-2.886v-489.423z"></path>
<path d="M107.708 21.134h2.885v489.423h-2.885v-489.423z"></path>
</svg>
