<!-- Generated by IcoMoon.io -->
<svg version="1.1" xmlns="http://www.w3.org/2000/svg" width="512" height="512" viewBox="0 0 512 512">
<title>ChessboardBandana</title>
<path d="M505.965 166.111l0.437-0.436h-0.873z"></path>
<path d="M470.024 134.995h-451.82l-13.161 13.161 239.026 239.026 239.072-239.070-13.116-13.118zM433.794 136.232l16.185 16.185-28.791 28.791-28.784-28.785 16.191-16.191h25.2zM374.462 136.232l16.191 16.191-28.791 28.79-28.784-28.784 16.197-16.197h25.187zM390.647 211.748l-28.791 28.791-28.784-28.785 28.791-28.791 28.784 28.785zM315.132 136.232l16.196 16.197-28.791 28.791-28.784-28.786 16.202-16.202h25.177zM302.531 240.543l-28.784-28.784 28.791-28.791 28.784 28.785-28.791 28.79zM331.317 271.078l-28.791 28.791-28.786-28.786 28.791-28.791 28.786 28.786zM255.801 136.232l16.202 16.202-28.79 28.791-28.786-28.786 16.207-16.206h25.166zM243.201 299.875l-28.785-28.784 28.791-28.791 28.784 28.784-28.79 28.791zM271.987 330.408l-28.791 28.791-28.785-28.784 28.791-28.791 28.785 28.784zM243.208 240.549l-28.786-28.786 28.791-28.791 28.785 28.786-28.79 28.791zM196.47 136.232l16.207 16.206-28.791 28.791-28.785-28.785 16.212-16.212h25.156zM183.882 240.554l-28.786-28.786 28.791-28.791 28.786 28.786-28.791 28.791zM212.667 271.089l-28.791 28.791-28.786-28.786 28.791-28.79 28.786 28.785zM137.141 136.232l16.212 16.214-28.791 28.791-28.785-28.785 16.219-16.22h25.145zM153.347 211.769l-28.791 28.791-28.786-28.785 28.791-28.791 28.786 28.785zM77.811 136.232l16.218 16.219-28.792 28.791-28.785-28.786 16.223-16.223h25.135zM6.792 148.156l11.806-11.805 224.597 224.597 224.719-224.716h1.599l11.88 11.88-237.322 237.322-237.279-237.278z"></path>
</svg>
