<!-- Generated by IcoMoon.io -->
<svg version="1.1" xmlns="http://www.w3.org/2000/svg" width="512" height="512" viewBox="0 0 512 512">
<title>Chessboard6by6</title>
<path d="M92.721 20.895h81.552v81.552h-81.552v-81.552z"></path>
<path d="M256.060 20.895h81.55v81.552h-81.549v-81.552z"></path>
<path d="M419.163 20.895h81.788v81.552h-81.788v-81.552z"></path>
<path d="M174.273 102.446h81.79v81.79h-81.79v-81.79z"></path>
<path d="M337.61 102.446h81.554v81.79h-81.554v-81.79z"></path>
<path d="M11.049 102.446h81.672v81.91h-81.672v-81.91z"></path>
<path d="M92.721 184.357h81.669v81.552h-81.669v-81.552z"></path>
<path d="M256.060 184.236h81.431v81.672h-81.432v-81.672z"></path>
<path d="M419.163 184.236h81.788v81.672h-81.788v-81.672z"></path>
<path d="M337.491 265.906h81.788v81.551h-81.788v-81.552z"></path>
<path d="M174.391 265.906h81.672v81.551h-81.672v-81.552z"></path>
<path d="M11.049 265.906h81.552v81.551h-81.552v-81.552z"></path>
<path d="M92.6 347.457h81.79v81.79h-81.79v-81.79z"></path>
<path d="M256.060 347.457h81.55v81.79h-81.549v-81.79z"></path>
<path d="M419.281 347.457h81.672v81.79h-81.672v-81.79z"></path>
<path d="M11.049 429.248h81.672v81.55h-81.672v-81.549z"></path>
<path d="M174.391 429.248h81.672v81.55h-81.672v-81.549z"></path>
<path d="M337.61 429.248h81.672v81.55h-81.672v-81.549z"></path>
</svg>
