<!-- Generated by IcoMoon.io -->
<svg version="1.1" xmlns="http://www.w3.org/2000/svg" width="512" height="512" viewBox="0 0 512 512">
<title>Chessboard4by8</title>
<path d="M5.035 135.306v251.75h501.563v-251.75h-501.563zM504.755 260.26h-60.623v-60.635h60.623v60.635zM131.807 322.737v-60.635h60.624v60.635h-60.624zM254.895 199.625v60.635h-60.624v-60.635h60.624zM379.827 199.625v60.635h-60.626v-60.635h60.626zM256.736 262.101h60.623v60.635h-60.623v-60.635zM129.965 199.625v60.635h-60.624v-60.635h60.624zM381.668 322.737v-60.635h60.623v60.635h-60.623zM442.291 197.783h-60.623v-60.635h60.623v60.635zM317.359 197.783h-60.623v-60.635h60.623v60.635zM192.431 197.783h-60.624v-60.635h60.624v60.635zM67.499 262.101v60.635h-60.623v-60.635h60.623zM69.341 324.579h60.624v60.635h-60.624v-60.635zM194.273 324.579h60.623v60.635h-60.624v-60.635zM319.2 324.579h60.626v60.635h-60.626v-60.635zM67.499 137.148v60.635h-60.623v-60.635h60.623zM444.132 385.214v-60.635h60.623v60.635h-60.623z"></path>
</svg>
