<!-- Generated by IcoMoon.io -->
<svg version="1.1" xmlns="http://www.w3.org/2000/svg" width="512" height="512" viewBox="0 0 512 512">
<title>Chessboard8by8</title>
<path d="M9.847 19.692v492.308h492.218v-492.308h-492.218zM500.257 142.317h-59.495v-59.505h59.495v59.505zM438.955 326.256h-59.493v-59.505h59.493v59.505zM134.256 448.88v-59.505h59.494v59.505h-59.495zM255.051 82.812v59.505h-59.495v-59.505h59.495zM377.655 82.812v59.505h-59.495v-59.505h59.495zM377.655 264.943h-59.495v-59.505h59.495v59.505zM134.256 266.75h59.494v59.505h-59.495v-59.505zM316.353 144.125v59.505h-59.495v-59.505h59.495zM255.051 205.438v59.505h-59.495v-59.505h59.495zM256.858 326.256v-59.505h59.495v59.505h-59.495zM195.559 387.568v-59.505h59.494v59.505h-59.495zM193.751 144.125v59.505h-59.494v-59.505h59.495zM318.161 387.568v-59.505h59.495v59.505h-59.495zM72.954 205.438h59.495v59.505h-59.495v-59.505zM72.954 328.063h59.495v59.505h-59.495v-59.505zM256.858 448.88v-59.505h59.495v59.505h-59.495zM379.462 203.63v-59.505h59.493v59.505h-59.493zM132.449 82.812v59.505h-59.495v-59.505h59.495zM379.462 448.88v-59.505h59.493v59.505h-59.493zM438.955 81.004h-59.493v-59.505h59.493v59.505zM316.353 81.004h-59.495v-59.505h59.495v59.505zM193.751 81.004h-59.494v-59.505h59.495v59.505zM71.147 144.125v59.505h-59.493v-59.505h59.493zM71.147 266.75v59.505h-59.493v-59.505h59.493zM71.147 389.376v59.505h-59.493v-59.505h59.493zM72.954 450.687h59.495v59.505h-59.495v-59.505zM195.559 450.687h59.494v59.505h-59.495v-59.505zM318.161 450.687h59.495v59.505h-59.495v-59.505zM440.762 387.568v-59.505h59.495v59.505h-59.495zM440.762 264.943v-59.505h59.495v59.505h-59.495zM71.147 21.499v59.505h-59.493v-59.505h59.493zM440.762 510.192v-59.505h59.495v59.505h-59.495z"></path>
</svg>
