<!-- Generated by IcoMoon.io -->
<svg version="1.1" xmlns="http://www.w3.org/2000/svg" width="512" height="512" viewBox="0 0 512 512">
<title>ChessboardGo</title>
<path d="M9.847 19.692v492.308h492.307v-492.308h-492.307zM501.060 47.035h-26.25v-26.25h26.25v26.25zM425.105 428.998c-0.259-2.574-2.287-4.602-4.861-4.861v-21.269h26.25v26.13h-21.389zM65.505 428.998v-26.13h26.25v21.269c-2.574 0.259-4.602 2.287-4.862 4.861h-21.388zM86.894 102.695c0.259 2.574 2.287 4.602 4.862 4.862v21.269h-26.251v-26.131h21.389zM419.151 424.137c-2.574 0.259-4.602 2.287-4.861 4.861h-21.269v-26.13h26.13v21.269zM261.409 428.998c-0.26-2.574-2.288-4.602-4.862-4.861v-21.269h26.25v26.13h-21.388zM229.203 428.998v-26.13h26.25v21.269c-2.574 0.259-4.602 2.287-4.862 4.861h-21.388zM97.71 428.998c-0.259-2.574-2.287-4.602-4.862-4.861v-21.269h26.13v26.13h-21.268zM92.849 107.555c2.574-0.259 4.602-2.287 4.862-4.862h21.268v26.131h-26.13v-21.269zM250.593 102.695c0.26 2.574 2.287 4.602 4.862 4.862v21.269h-26.25v-26.131h21.388zM282.796 102.695v26.131h-26.25v-21.27c2.574-0.259 4.601-2.287 4.862-4.862h21.388zM255.453 260.438c-2.574 0.259-4.602 2.287-4.862 4.861h-21.389v-26.25h26.25v21.389zM250.593 266.393c0.26 2.574 2.287 4.602 4.862 4.861v21.389h-26.25v-26.25h21.388zM256.546 271.254c2.574-0.259 4.601-2.287 4.862-4.861h21.388v26.25h-26.25v-21.389zM261.409 265.3c-0.26-2.574-2.288-4.602-4.862-4.861v-21.389h26.25v26.25h-21.388zM256.546 237.957v-26.13h26.25v26.131h-26.25zM255.453 237.957h-26.25v-26.13h26.25v26.13zM228.111 237.957h-26.131v-26.13h26.131v26.13zM228.111 239.049v26.25h-26.131v-26.25h26.131zM228.111 266.393v26.25h-26.131v-26.25h26.131zM228.111 293.736v26.13h-26.131v-26.13h26.131zM229.203 293.736h26.25v26.13h-26.25v-26.13zM256.546 293.736h26.25v26.13h-26.25v-26.13zM283.889 293.736h26.13v26.13h-26.13v-26.13zM283.889 292.643v-26.25h26.13v26.25h-26.13zM283.889 265.3v-26.25h26.13v26.25h-26.13zM283.889 237.957v-26.13h26.13v26.131h-26.13zM283.889 210.734v-26.25h26.13v26.25h-26.13zM282.796 210.734h-26.25v-26.25h26.25v26.25zM255.453 210.734h-26.25v-26.25h26.25v26.25zM228.111 210.734h-26.131v-26.25h26.131v26.25zM200.887 210.734h-26.25v-26.25h26.25v26.25zM200.887 211.827v26.131h-26.25v-26.131h26.25zM200.887 239.049v26.25h-26.25v-26.25h26.25zM200.887 266.393v26.25h-26.25v-26.25h26.25zM200.887 293.736v26.13h-26.25v-26.13h26.25zM200.887 320.959v26.25h-26.25v-26.25h26.25zM201.98 320.959h26.131v26.25h-26.131v-26.25zM229.203 320.959h26.25v26.25h-26.25v-26.25zM256.546 320.959h26.25v26.25h-26.25v-26.25zM283.889 320.959h26.13v26.25h-26.13v-26.25zM311.112 320.959h26.25v26.25h-26.25v-26.25zM311.112 319.866v-26.13h26.25v26.13h-26.25zM311.112 292.643v-26.25h26.25v26.25h-26.25zM311.112 265.3v-26.25h26.25v26.25h-26.25zM311.112 237.957v-26.13h26.25v26.131h-26.25zM311.112 210.734v-26.25h26.25v26.25h-26.25zM311.112 183.391v-26.131h26.25v26.131h-26.25zM310.019 183.391h-26.13v-26.131h26.13v26.131zM282.796 183.391h-26.25v-26.131h26.25v26.131zM255.453 183.391h-26.25v-26.131h26.25v26.131zM228.111 183.391h-26.131v-26.131h26.131v26.131zM200.887 183.391h-26.25v-26.131h26.25v26.131zM173.544 183.391h-26.131v-26.131h26.131v26.131zM173.544 184.483v26.25h-26.131v-26.25h26.131zM173.544 211.827v26.131h-26.131v-26.131h26.131zM173.544 239.049v26.25h-26.131v-26.25h26.131zM173.544 266.393v26.25h-26.131v-26.25h26.131zM173.544 293.736v26.13h-26.131v-26.13h26.131zM173.544 320.959v26.25h-26.131v-26.25h26.131zM173.544 348.301v26.13h-26.131v-26.13h26.131zM174.637 348.301h26.25v26.13h-26.25v-26.13zM201.98 348.301h26.131v26.13h-26.131v-26.13zM229.203 348.301h26.25v26.13h-26.25v-26.13zM256.546 348.301h26.25v26.13h-26.25v-26.13zM283.889 348.301h26.13v26.13h-26.13v-26.13zM311.112 348.301h26.25v26.13h-26.25v-26.13zM338.455 348.301h26.13v26.13h-26.13v-26.13zM338.455 347.209v-26.25h26.13v26.25h-26.13zM338.455 319.866v-26.13h26.13v26.13h-26.13zM338.455 292.643v-26.25h26.13v26.25h-26.13zM338.455 265.3v-26.25h26.13v26.25h-26.13zM338.455 237.957v-26.13h26.13v26.131h-26.13zM338.455 210.734v-26.25h26.13v26.25h-26.13zM338.455 183.391v-26.131h26.13v26.131h-26.13zM338.455 156.167v-26.25h26.13v26.25h-26.13zM337.363 156.167h-26.25v-26.25h26.25v26.25zM310.019 156.167h-26.13v-26.25h26.13v26.25zM282.796 156.167h-26.25v-26.25h26.25v26.25zM255.453 156.167h-26.25v-26.25h26.25v26.25zM228.111 156.167h-26.131v-26.25h26.131v26.25zM200.887 156.167h-26.25v-26.25h26.25v26.25zM173.544 156.167h-26.131v-26.25h26.131v26.25zM146.321 156.167h-26.25v-26.25h26.25v26.25zM146.321 157.26v26.131h-26.25v-26.131h26.25zM146.321 184.483v26.25h-26.25v-26.25h26.25zM146.321 211.827v26.131h-26.25v-26.131h26.25zM146.321 239.049v26.25h-26.25v-26.25h26.25zM146.321 266.393v26.25h-26.25v-26.25h26.25zM146.321 293.736v26.13h-26.25v-26.13h26.25zM146.321 320.959v26.25h-26.25v-26.25h26.25zM146.321 348.301v26.13h-26.25v-26.13h26.25zM146.321 375.524v26.25h-26.25v-26.25h26.25zM147.414 375.524h26.131v26.25h-26.131v-26.25zM174.637 375.524h26.25v26.25h-26.25v-26.25zM201.98 375.524h26.131v26.25h-26.131v-26.25zM229.203 375.524h26.25v26.25h-26.25v-26.25zM256.546 375.524h26.25v26.25h-26.25v-26.25zM283.889 375.524h26.13v26.25h-26.13v-26.25zM311.112 375.524h26.25v26.25h-26.25v-26.25zM338.455 375.524h26.13v26.25h-26.13v-26.25zM365.678 375.524h26.25v26.25h-26.25v-26.25zM365.678 374.432v-26.13h26.25v26.13h-26.25zM365.678 347.209v-26.25h26.25v26.25h-26.25zM365.678 319.866v-26.13h26.25v26.13h-26.25zM365.678 292.643v-26.25h26.25v26.25h-26.25zM365.678 265.3v-26.25h26.25v26.25h-26.25zM365.678 237.957v-26.13h26.25v26.131h-26.25zM365.678 210.734v-26.25h26.25v26.25h-26.25zM365.678 183.391v-26.131h26.25v26.131h-26.25zM365.678 156.167v-26.25h26.25v26.25h-26.25zM365.678 128.825v-26.13h26.25v26.131h-26.25zM364.586 128.825h-26.13v-26.13h26.13v26.13zM337.363 128.825h-26.25v-26.13h26.25v26.13zM310.019 128.825h-26.13v-26.13h26.13v26.13zM228.111 128.825h-26.131v-26.13h26.131v26.13zM200.887 128.825h-26.25v-26.13h26.25v26.13zM173.544 128.825h-26.131v-26.13h26.131v26.13zM146.321 128.825h-26.25v-26.13h26.25v26.13zM118.979 129.917v26.25h-26.13v-26.25h26.13zM118.979 157.26v26.131h-26.13v-26.131h26.13zM118.979 184.483v26.25h-26.13v-26.25h26.13zM118.979 211.827v26.131h-26.13v-26.131h26.13zM118.979 239.049v26.25h-21.269c-0.259-2.574-2.287-4.603-4.862-4.862v-21.388h26.131zM92.849 271.254c2.574-0.259 4.602-2.287 4.862-4.861h21.268v26.25h-26.13v-21.389zM118.979 293.736v26.13h-26.13v-26.13h26.13zM118.979 320.959v26.25h-26.13v-26.25h26.13zM118.979 348.301v26.13h-26.13v-26.13h26.13zM118.979 375.524v26.25h-26.13v-26.25h26.13zM120.072 402.868h26.25v26.13h-26.25v-26.13zM147.414 402.868h26.131v26.13h-26.131v-26.13zM174.637 402.868h26.25v26.13h-26.25v-26.13zM201.98 402.868h26.131v26.13h-26.131v-26.13zM283.889 402.868h26.13v26.13h-26.13v-26.13zM311.112 402.868h26.25v26.13h-26.25v-26.13zM338.455 402.868h26.13v26.13h-26.13v-26.13zM365.678 402.868h26.25v26.13h-26.25v-26.13zM393.021 401.776v-26.25h26.13v26.25h-26.13zM393.021 374.432v-26.13h26.13v26.13h-26.13zM393.021 347.209v-26.25h26.13v26.25h-26.13zM393.021 319.866v-26.13h26.13v26.13h-26.13zM393.021 292.643v-26.25h21.269c0.259 2.574 2.287 4.602 4.861 4.861v21.389h-26.13zM419.151 260.438c-2.574 0.259-4.602 2.287-4.861 4.861h-21.269v-26.25h26.13v21.389zM393.021 237.957v-26.13h26.13v26.131h-26.13zM393.021 210.734v-26.25h26.13v26.25h-26.13zM393.021 183.391v-26.131h26.13v26.131h-26.13zM393.021 156.167v-26.25h26.13v26.25h-26.13zM393.021 128.825v-26.13h21.269c0.259 2.574 2.287 4.602 4.861 4.862v21.269h-26.13zM419.151 96.74c-2.574 0.259-4.602 2.287-4.861 4.862h-21.269v-26.252h26.13v21.389zM391.928 101.602h-26.25v-26.252h26.25v26.251zM364.586 101.602h-26.13v-26.252h26.13v26.251zM337.363 101.602h-26.25v-26.252h26.25v26.251zM310.019 101.602h-26.13v-26.252h26.13v26.251zM282.796 101.602h-21.388c-0.26-2.574-2.288-4.602-4.862-4.862v-21.389h26.25v26.251zM255.453 96.74c-2.574 0.259-4.602 2.287-4.862 4.862h-21.389v-26.252h26.25v21.389zM228.111 101.602h-26.131v-26.252h26.131v26.251zM200.887 101.602h-26.25v-26.252h26.25v26.251zM173.544 101.602h-26.131v-26.252h26.131v26.251zM146.321 101.602h-26.25v-26.252h26.25v26.251zM118.979 101.602h-21.269c-0.259-2.574-2.287-4.602-4.862-4.862v-21.389h26.13v26.251zM91.756 129.917v26.25h-26.251v-26.25h26.251zM91.756 157.26v26.131h-26.251v-26.131h26.251zM91.756 184.483v26.25h-26.251v-26.25h26.251zM91.756 211.827v26.131h-26.251v-26.131h26.251zM91.756 239.049v21.388c-2.574 0.259-4.602 2.288-4.862 4.862h-21.389v-26.25h26.252zM86.894 266.393c0.26 2.574 2.287 4.602 4.862 4.861v21.389h-26.251v-26.25h21.389zM91.756 293.736v26.13h-26.251v-26.13h26.251zM91.756 320.959v26.25h-26.251v-26.25h26.251zM91.756 348.301v26.13h-26.251v-26.13h26.251zM91.756 375.524v26.25h-26.251v-26.25h26.251zM92.849 434.952c2.574-0.259 4.602-2.287 4.862-4.861h21.268v26.25h-26.13v-21.389zM120.072 430.091h26.25v26.25h-26.25v-26.25zM147.414 430.091h26.131v26.25h-26.131v-26.25zM174.637 430.091h26.25v26.25h-26.25v-26.25zM201.98 430.091h26.131v26.25h-26.131v-26.25zM229.203 430.091h21.389c0.26 2.574 2.287 4.602 4.862 4.861v21.389h-26.25v-26.25zM256.546 434.952c2.574-0.259 4.601-2.287 4.862-4.861h21.388v26.25h-26.25v-21.389zM283.889 430.091h26.13v26.25h-26.13v-26.25zM311.112 430.091h26.25v26.25h-26.25v-26.25zM338.455 430.091h26.13v26.25h-26.13v-26.25zM365.678 430.091h26.25v26.25h-26.25v-26.25zM393.021 430.091h21.269c0.259 2.574 2.287 4.602 4.861 4.861v21.389h-26.13v-26.25zM420.244 401.776v-26.25h26.25v26.25h-26.25zM420.244 374.432v-26.13h26.25v26.13h-26.25zM420.244 347.209v-26.25h26.25v26.25h-26.25zM420.244 319.866v-26.13h26.25v26.13h-26.25zM420.244 292.643v-21.389c2.574-0.259 4.602-2.287 4.861-4.861h21.389v26.25h-26.25zM425.105 265.3c-0.259-2.574-2.287-4.602-4.861-4.861v-21.389h26.25v26.25h-21.389zM420.244 237.957v-26.13h26.25v26.131h-26.25zM420.244 210.734v-26.25h26.25v26.25h-26.25zM420.244 183.391v-26.131h26.25v26.131h-26.25zM420.244 156.167v-26.25h26.25v26.25h-26.25zM420.244 128.825v-21.269c2.574-0.259 4.602-2.287 4.861-4.862h21.389v26.131h-26.25zM425.105 101.602c-0.259-2.574-2.287-4.602-4.861-4.862v-21.389h26.25v26.25h-21.389zM420.244 74.258v-26.13h26.25v26.13h-26.25zM419.151 74.258h-26.13v-26.13h26.13v26.13zM391.928 74.258h-26.25v-26.13h26.25v26.13zM364.586 74.258h-26.13v-26.13h26.13v26.13zM337.363 74.258h-26.25v-26.13h26.25v26.13zM310.019 74.258h-26.13v-26.13h26.13v26.13zM282.796 74.258h-26.25v-26.13h26.25v26.13zM255.453 74.258h-26.25v-26.13h26.25v26.13zM228.111 74.258h-26.131v-26.13h26.131v26.13zM200.887 74.258h-26.25v-26.13h26.25v26.13zM173.544 74.258h-26.131v-26.13h26.131v26.13zM146.321 74.258h-26.25v-26.13h26.25v26.13zM118.979 74.258h-26.13v-26.13h26.13v26.13zM91.756 74.258h-26.251v-26.13h26.25v26.13zM91.756 75.35v21.389c-2.574 0.259-4.602 2.287-4.862 4.862h-21.389v-26.251h26.252zM64.412 101.602h-26.13v-26.252h26.13v26.251zM64.412 102.695v26.131h-26.13v-26.131h26.13zM64.412 129.917v26.25h-26.13v-26.25h26.13zM64.412 157.26v26.131h-26.13v-26.131h26.13zM64.412 184.483v26.25h-26.13v-26.25h26.13zM64.412 211.827v26.131h-26.13v-26.131h26.13zM64.412 239.049v26.25h-26.13v-26.25h26.13zM64.412 266.393v26.25h-26.13v-26.25h26.13zM64.412 293.736v26.13h-26.13v-26.13h26.13zM64.412 320.959v26.25h-26.13v-26.25h26.13zM64.412 348.301v26.13h-26.13v-26.13h26.13zM64.412 375.524v26.25h-26.13v-26.25h26.13zM64.412 402.868v26.13h-26.13v-26.13h26.13zM64.412 430.091v26.25h-26.13v-26.25h26.13zM65.505 430.091h21.389c0.259 2.574 2.287 4.602 4.862 4.861v21.389h-26.252v-26.25zM91.756 457.433v26.13h-26.251v-26.13h26.251zM92.849 457.433h26.13v26.13h-26.13v-26.13zM120.072 457.433h26.25v26.13h-26.25v-26.13zM147.414 457.433h26.131v26.13h-26.131v-26.13zM174.637 457.433h26.25v26.13h-26.25v-26.13zM201.98 457.433h26.131v26.13h-26.131v-26.13zM229.203 457.433h26.25v26.13h-26.25v-26.13zM256.546 457.433h26.25v26.13h-26.25v-26.13zM283.889 457.433h26.13v26.13h-26.13v-26.13zM311.112 457.433h26.25v26.13h-26.25v-26.13zM338.455 457.433h26.13v26.13h-26.13v-26.13zM365.678 457.433h26.25v26.13h-26.25v-26.13zM393.021 457.433h26.13v26.13h-26.13v-26.13zM420.244 457.433h26.25v26.13h-26.25v-26.13zM420.244 456.341v-21.389c2.574-0.259 4.602-2.287 4.861-4.861h21.389v26.25h-26.25zM447.588 430.091h26.13v26.25h-26.13v-26.25zM447.588 428.998v-26.13h26.13v26.13h-26.13zM447.588 401.776v-26.25h26.13v26.25h-26.13zM447.588 374.432v-26.13h26.13v26.13h-26.13zM447.588 347.209v-26.25h26.13v26.25h-26.13zM447.588 319.866v-26.13h26.13v26.13h-26.13zM447.588 292.643v-26.25h26.13v26.25h-26.13zM447.588 265.3v-26.25h26.13v26.25h-26.13zM447.588 237.957v-26.13h26.13v26.131h-26.13zM447.588 210.734v-26.25h26.13v26.25h-26.13zM447.588 183.391v-26.131h26.13v26.131h-26.13zM447.588 156.167v-26.25h26.13v26.25h-26.13zM447.588 128.825v-26.13h26.13v26.131h-26.13zM447.588 101.602v-26.252h26.13v26.25h-26.13zM447.588 74.258v-26.13h26.13v26.13h-26.13zM447.588 47.035v-26.25h26.13v26.25h-26.13zM446.495 47.035h-26.252v-26.25h26.25v26.25zM419.151 47.035h-26.13v-26.25h26.13v26.25zM391.928 47.035h-26.25v-26.25h26.25v26.25zM364.586 47.035h-26.13v-26.25h26.13v26.25zM337.363 47.035h-26.25v-26.25h26.25v26.25zM310.019 47.035h-26.13v-26.25h26.13v26.25zM282.796 47.035h-26.25v-26.25h26.25v26.25zM255.453 47.035h-26.25v-26.25h26.25v26.25zM228.111 47.035h-26.131v-26.25h26.131v26.25zM200.887 47.035h-26.25v-26.25h26.25v26.25zM173.544 47.035h-26.131v-26.25h26.131v26.25zM146.321 47.035h-26.25v-26.25h26.25v26.25zM118.979 47.035h-26.13v-26.25h26.13v26.25zM91.756 47.035h-26.251v-26.25h26.25v26.25zM64.412 47.035h-26.13v-26.25h26.13v26.25zM64.412 48.128v26.13h-26.13v-26.13h26.13zM37.19 74.258h-26.25v-26.13h26.25v26.13zM37.19 75.35v26.25h-26.25v-26.25h26.25zM37.19 102.695v26.131h-26.25v-26.131h26.25zM37.19 129.917v26.25h-26.25v-26.25h26.25zM37.19 157.26v26.131h-26.25v-26.131h26.25zM37.19 184.483v26.25h-26.25v-26.25h26.25zM37.19 211.827v26.131h-26.25v-26.131h26.25zM37.19 239.049v26.25h-26.25v-26.25h26.25zM37.19 266.393v26.25h-26.25v-26.25h26.25zM37.19 293.736v26.13h-26.25v-26.13h26.25zM37.19 320.959v26.25h-26.25v-26.25h26.25zM37.19 348.301v26.13h-26.25v-26.13h26.25zM37.19 375.524v26.25h-26.25v-26.25h26.25zM37.19 402.868v26.13h-26.25v-26.13h26.25zM37.19 430.091v26.25h-26.25v-26.25h26.25zM37.19 457.433v26.13h-26.25v-26.13h26.25zM38.282 457.433h26.13v26.13h-26.13v-26.13zM64.412 484.656v26.25h-26.13v-26.25h26.13zM65.505 484.656h26.25v26.25h-26.25v-26.25zM92.849 484.656h26.13v26.25h-26.13v-26.25zM120.072 484.656h26.25v26.25h-26.25v-26.25zM147.414 484.656h26.131v26.25h-26.131v-26.25zM174.637 484.656h26.25v26.25h-26.25v-26.25zM201.98 484.656h26.131v26.25h-26.131v-26.25zM229.203 484.656h26.25v26.25h-26.25v-26.25zM256.546 484.656h26.25v26.25h-26.25v-26.25zM283.889 484.656h26.13v26.25h-26.13v-26.25zM311.112 484.656h26.25v26.25h-26.25v-26.25zM338.455 484.656h26.13v26.25h-26.13v-26.25zM365.678 484.656h26.25v26.25h-26.25v-26.25zM393.021 484.656h26.13v26.25h-26.13v-26.25zM420.244 484.656h26.25v26.25h-26.25v-26.25zM447.588 484.656h26.13v26.25h-26.13v-26.25zM447.588 483.563v-26.13h26.13v26.13h-26.13zM474.81 457.433h26.25v26.13h-26.25v-26.13zM474.81 456.341v-26.25h26.25v26.25h-26.25zM474.81 428.998v-26.13h26.25v26.13h-26.25zM474.81 401.776v-26.25h26.25v26.25h-26.25zM474.81 374.432v-26.13h26.25v26.13h-26.25zM474.81 347.209v-26.25h26.25v26.25h-26.25zM474.81 319.866v-26.13h26.25v26.13h-26.25zM474.81 292.643v-26.25h26.25v26.25h-26.25zM474.81 265.3v-26.25h26.25v26.25h-26.25zM474.81 237.957v-26.13h26.25v26.131h-26.25zM474.81 210.734v-26.25h26.25v26.25h-26.25zM474.81 183.391v-26.131h26.25v26.131h-26.25zM474.81 156.167v-26.25h26.25v26.25h-26.25zM474.81 128.825v-26.13h26.25v26.131h-26.25zM474.81 101.602v-26.252h26.25v26.25h-26.25zM474.81 74.258v-26.13h26.25v26.13h-26.25zM37.19 20.785v26.25h-26.25v-26.25h26.25zM10.94 484.656h26.25v26.25h-26.25v-26.25zM474.81 510.908v-26.25h26.25v26.25h-26.25z"></path>
</svg>
