<!-- Generated by IcoMoon.io -->
<svg version="1.1" xmlns="http://www.w3.org/2000/svg" width="512" height="512" viewBox="0 0 512 512">
<title>Chessboard12by12</title>
<path d="M9.847 19.692v492.309h492.248v-492.309h-492.248zM460.008 142.467h-39.793v-39.679h39.793v39.679zM460.008 224.357h-39.793v-39.798h39.793v39.798zM460.008 306.128h-39.793v-39.679h39.793v39.679zM338.454 469.909v-39.798h39.674v39.798h-39.674zM92.933 469.909v-39.798h39.674v39.798h-39.674zM173.488 61.783v39.799h-39.674v-39.798h39.674zM255.367 61.783v39.799h-39.673v-39.798h39.673zM337.248 61.783v39.799h-39.793v-39.798h39.793zM419.007 61.783v39.799h-39.673v-39.798h39.673zM419.007 183.352h-39.673v-39.679h39.673v39.679zM419.007 265.243h-39.673v-39.679h39.673v39.679zM297.454 428.904v-39.679h39.793v39.679h-39.793zM215.694 428.904v-39.679h39.673v39.679h-39.673zM92.933 266.45h39.674v39.679h-39.674v-39.679zM92.933 184.559h39.674v39.798h-39.674v-39.798zM214.488 102.789v39.679h-39.793v-39.679h39.793zM296.248 102.789v39.679h-39.674v-39.679h39.674zM378.128 224.357h-39.674v-39.798h39.674v39.798zM378.128 306.128h-39.674v-39.679h39.674v39.679zM256.574 388.019v-39.679h39.674v39.679h-39.674zM174.694 388.019v-39.679h39.793v39.679h-39.793zM133.814 307.335h39.674v39.798h-39.674v-39.798zM337.248 265.243h-39.793v-39.679h39.793v39.679zM214.488 184.559v39.798h-39.793v-39.798h39.793zM296.248 184.559v39.798h-39.674v-39.798h39.674zM296.248 306.128h-39.674v-39.679h39.674v39.679zM215.694 225.564h39.673v39.679h-39.673v-39.679zM255.367 307.335v39.798h-39.673v-39.798h39.673zM214.488 266.45v39.679h-39.793v-39.679h39.793zM297.454 307.335h39.793v39.798h-39.793v-39.798zM337.248 143.673v39.679h-39.793v-39.679h39.793zM255.367 183.352h-39.673v-39.679h39.673v39.679zM173.488 225.564v39.679h-39.674v-39.679h39.674zM173.488 143.673v39.679h-39.674v-39.679h39.674zM338.454 388.019v-39.679h39.674v39.679h-39.674zM378.128 142.467h-39.674v-39.679h39.674v39.679zM92.933 348.34h39.674v39.679h-39.674v-39.679zM133.814 428.904v-39.679h39.674v39.679h-39.674zM419.007 347.134h-39.673v-39.798h39.673v39.798zM132.607 102.789v39.679h-39.674v-39.679h39.674zM379.335 428.904v-39.679h39.673v39.679h-39.673zM51.932 143.673h39.794v39.679h-39.794v-39.679zM51.932 225.564h39.794v39.679h-39.794v-39.679zM91.727 307.335v39.798h-39.794v-39.798h39.794zM51.932 389.226h39.794v39.679h-39.794v-39.679zM174.694 469.909v-39.798h39.793v39.798h-39.793zM256.574 469.909v-39.798h39.674v39.798h-39.674zM420.214 388.019v-39.679h39.793v39.679h-39.793zM91.727 61.783v39.799h-39.794v-39.798h39.794zM420.214 469.909v-39.798h39.793v39.798h-39.793zM460.008 60.577h-39.793v-39.679h39.793v39.679zM378.128 60.577h-39.674v-39.679h39.674v39.679zM296.248 60.577h-39.674v-39.679h39.674v39.679zM214.488 60.577h-39.793v-39.679h39.793v39.679zM132.607 60.577h-39.674v-39.679h39.674v39.679zM50.726 102.789v39.679h-39.673v-39.679h39.673zM50.726 184.559v39.798h-39.673v-39.798h39.673zM50.726 266.45v39.679h-39.673v-39.679h39.673zM50.726 348.34v39.679h-39.673v-39.679h39.673zM50.726 430.111v39.798h-39.673v-39.798h39.673zM51.932 471.115h39.794v39.679h-39.794v-39.679zM133.814 471.115h39.674v39.679h-39.674v-39.679zM215.694 471.115h39.673v39.679h-39.673v-39.679zM297.454 471.115h39.793v39.679h-39.793v-39.679zM379.335 471.115h39.673v39.679h-39.673v-39.679zM461.214 428.904v-39.679h39.674v39.679h-39.674zM461.214 347.134v-39.798h39.674v39.798h-39.674zM461.214 265.243v-39.679h39.674v39.679h-39.674zM461.214 183.352v-39.679h39.674v39.679h-39.674zM461.214 101.583v-39.8h39.674v39.798h-39.674zM50.726 20.899v39.679h-39.673v-39.679h39.673zM461.214 510.793v-39.679h39.674v39.679h-39.674z"></path>
</svg>
