<!-- Generated by IcoMoon.io -->
<svg version="1.1" xmlns="http://www.w3.org/2000/svg" width="528" height="512" viewBox="0 0 528 512">
<title>ColorDieRedHeart</title>
<path d="M381.228 512h-358.813c-6.939 0-12.572-5.62-12.572-12.572v-347.322c0-3.546 1.471-6.751 3.835-9.026l123.794-119.835c2.351-2.276 5.482-3.546 8.738-3.546h358.813c6.952 0 12.572 5.632 12.572 12.572v347.322c0 3.407-1.37 6.663-3.835 9.039l-123.794 119.834c-2.25 2.175-5.33 3.533-8.738 3.533zM34.987 486.856h333.668v-322.178h-333.668v322.178zM393.8 157.424v312.322l98.651-95.495v-312.322l-98.651 95.495zM53.48 139.535h322.668l97.809-94.691h-322.656l-97.822 94.691z"></path>
<path d="M250.343 248.797c-26.917 0-48.728 21.234-48.728 47.421 0-26.187-21.799-47.421-48.716-47.421s-48.691 21.234-48.691 47.421c0 49.848 97.406 122.701 97.406 122.701s97.431-72.853 97.431-122.701c0-26.187-21.8-47.421-48.703-47.421z"></path>
</svg>
