<!-- Generated by IcoMoon.io -->
<svg version="1.1" xmlns="http://www.w3.org/2000/svg" width="528" height="512" viewBox="0 0 528 512">
<title>ColorDieGreenClub</title>
<path d="M381.228 512h-358.813c-6.939 0-12.572-5.62-12.572-12.572v-347.322c0-3.546 1.471-6.751 3.835-9.026l123.794-119.835c2.351-2.276 5.482-3.546 8.738-3.546h358.813c6.952 0 12.572 5.632 12.572 12.572v347.322c0 3.407-1.37 6.663-3.835 9.039l-123.794 119.834c-2.25 2.175-5.33 3.533-8.738 3.533zM34.987 486.856h333.668v-322.178h-333.668v322.178zM393.8 157.424v312.322l98.651-95.495v-312.322l-98.651 95.495zM53.48 139.535h322.668l97.809-94.691h-322.656l-97.822 94.691z"></path>
<path d="M251.588 310.889c-9.429 0-18.191 2.879-25.458 7.795v-0.038c12.609-8.084 20.983-22.214 20.983-38.306 0-25.106-20.367-45.459-45.472-45.459s-45.472 20.354-45.472 45.459c0 16.092 8.373 30.223 20.983 38.307v0.038c-7.267-4.916-16.017-7.795-25.458-7.795-25.106 0-45.459 20.354-45.459 45.459 0 25.118 20.354 45.472 45.459 45.472 18.393 0 34.22-10.925 41.386-26.627l-16.268 45.485h49.696l-16.28-45.485c7.166 15.702 22.982 26.627 41.374 26.627 25.106 0 45.459-20.354 45.459-45.472-0.012-25.106-20.366-45.459-45.472-45.459z"></path>
</svg>
