<!-- Generated by IcoMoon.io -->
<svg version="1.1" xmlns="http://www.w3.org/2000/svg" width="528" height="512" viewBox="0 0 528 512">
<title>ColorDieYellowStar</title>
<path d="M381.228 512h-358.813c-6.939 0-12.572-5.62-12.572-12.572v-347.322c0-3.558 1.483-6.776 3.86-9.065l123.782-119.809c2.351-2.263 5.482-3.532 8.738-3.532h358.813c6.952 0 12.572 5.632 12.572 12.572v347.322c0 3.407-1.383 6.663-3.835 9.039l-123.808 119.834c-2.25 2.175-5.33 3.533-8.738 3.533zM34.987 486.856h333.668v-322.178h-333.668v322.178zM393.8 157.424v312.335l98.663-95.508v-312.322l-98.663 95.495zM53.48 139.535h322.668l97.822-94.691h-322.656l-97.834 94.691z"></path>
<path d="M201.614 234.917l-30.323 61.463-67.85 9.856 49.093 47.861-11.591 67.561 60.672-31.894 60.684 31.894-11.591-67.561 49.106-47.861-67.85-9.856z"></path>
</svg>
