<!-- Generated by IcoMoon.io -->
<svg version="1.1" xmlns="http://www.w3.org/2000/svg" width="528" height="512" viewBox="0 0 528 512">
<title>ColorDiePurpleSpade</title>
<path d="M381.228 512h-358.813c-6.939 0-12.572-5.62-12.572-12.572v-347.322c0-3.558 1.483-6.776 3.86-9.065l123.782-119.809c2.351-2.263 5.482-3.532 8.738-3.532h358.813c6.952 0 12.572 5.632 12.572 12.572v347.322c0 3.407-1.383 6.663-3.835 9.039l-123.808 119.834c-2.25 2.175-5.33 3.533-8.738 3.533zM34.987 486.856h333.668v-322.178h-333.668v322.178zM393.8 157.424v312.335l98.663-95.508v-312.322l-98.663 95.495zM53.48 139.535h322.668l97.822-94.691h-322.656l-97.834 94.691z"></path>
<path d="M194.8 203.5c-2.98 12.396-7.581 23.547-13.779 33.278-6.21 9.756-17.249 21.799-33.152 36.207s-25.986 25.458-30.235 33.152c-4.249 7.694-6.349 15.501-6.349 23.421 0 11.026 3.671 20.19 11.025 27.558 7.342 7.342 16.293 11.026 26.866 11.026 18.895 0 33.529-13.829 43.172-28.865-0.742 16.469-3.445 29.619-8.197 39.5-5.104 10.636-12.924 19.411-23.496 26.413-7.115 4.714-19.939 8.838-38.419 12.396l-1.371 5.896h147.795l-1.358-5.896c-18.506-3.558-31.316-7.682-38.432-12.396-10.573-7.002-18.392-15.777-23.496-26.413-4.739-9.844-7.455-22.994-8.184-39.425 9.643 15.036 24.351 28.789 43.234 28.789 10.573 0 19.524-3.683 26.879-11.026 7.354-7.367 11.026-16.532 11.026-27.558 0-7.92-2.112-15.728-6.361-23.421-4.262-7.682-14.332-18.732-30.248-33.152-15.904-14.408-26.929-26.451-33.114-36.207-6.223-9.731-10.825-20.882-13.804-33.278z"></path>
</svg>
