<!-- Generated by IcoMoon.io -->
<svg version="1.1" xmlns="http://www.w3.org/2000/svg" width="528" height="512" viewBox="0 0 528 512">
<title>ColorDieWildAtom</title>
<path d="M381.228 512h-358.813c-6.939 0-12.572-5.62-12.572-12.572v-347.322c0-3.558 1.483-6.776 3.86-9.065l123.782-119.809c2.351-2.263 5.482-3.532 8.738-3.532h358.813c6.952 0 12.572 5.632 12.572 12.572v347.322c0 3.407-1.383 6.663-3.835 9.039l-123.808 119.834c-2.25 2.175-5.33 3.533-8.738 3.533zM34.987 486.856h333.668v-322.178h-333.668v322.178zM393.8 157.424v312.335l98.663-95.508v-312.322l-98.663 95.495zM53.48 139.535h322.668l97.822-94.691h-322.656l-97.834 94.691z"></path>
<path d="M235.797 303.157l33.843-35.327c2.766 1.785 6.010 2.892 9.529 3.092 10.938 0.628 20.316-7.719 20.945-18.644 0.641-10.95-7.719-20.328-18.656-20.957-10.925-0.641-20.303 7.719-20.957 18.656-0.264 4.626 1.094 8.976 3.57 12.509l-32.511 33.919c-6.525-8.348-16.293-14.030-27.431-15.111v-42.681c9.114-1.798 15.979-9.806 15.979-19.461 0-10.95-8.888-19.839-19.839-19.839-10.963 0-19.826 8.888-19.826 19.839 0 9.655 6.877 17.663 15.979 19.461v42.694c-8.361 0.817-15.953 4.224-21.988 9.404l-34.572-34.12c2.552-4.94 1.823-11.126-2.313-15.275-5.13-5.117-13.427-5.117-18.556 0-5.117 5.104-5.117 13.401 0 18.544 4.186 4.174 10.473 4.878 15.438 2.225l34.661 34.221c-5.318 6.751-8.524 15.275-8.524 24.527 0 1.081 0.076 2.163 0.163 3.231l-32.172 1.496c-2.225-9.014-10.561-15.488-20.165-15.036-10.95 0.515-19.398 9.793-18.895 20.731 0.516 10.95 9.806 19.411 20.743 18.895 9.63-0.44 17.324-7.682 18.681-16.872l33.177-1.559c1.773 6.16 4.966 11.692 9.215 16.23l-29.016 27.445c-4.752-2.69-10.837-2.25-15.136 1.584-5.418 4.815-5.883 13.1-1.069 18.505s13.1 5.884 18.505 1.068c4.5-4.010 5.531-10.397 2.992-15.551l29.544-27.922c5.531 3.973 12.119 6.587 19.273 7.279v41.663c-5.356 1.659-9.253 6.638-9.253 12.534 0 7.229 5.883 13.1 13.113 13.1 7.242 0 13.113-5.871 13.113-13.1 0-5.896-3.898-10.875-9.24-12.534v-41.663c6.035-0.579 11.679-2.552 16.608-5.544l40.896 33.655c-1.496 2.791-2.363 5.984-2.363 9.366 0 10.95 8.875 19.839 19.839 19.839 10.95 0 19.839-8.889 19.839-19.839 0-10.962-8.889-19.826-19.839-19.826-4.777 0-9.165 1.685-12.572 4.476l-39.438-32.435c6.185-5.695 10.585-13.313 12.182-21.938l28.551-1.32c1.899 5.267 7.065 8.913 12.949 8.637 7.229-0.315 12.836-6.474 12.484-13.704s-6.474-12.81-13.716-12.471c-5.884 0.276-10.699 4.4-12.082 9.818l-27.532 1.295c-0.063-6.198-1.559-12.019-4.149-17.211z"></path>
</svg>
