<!-- Generated by IcoMoon.io -->
<svg version="1.1" xmlns="http://www.w3.org/2000/svg" width="522" height="512" viewBox="0 0 522 512">
<title>ComponentZendoMarkers</title>
<path d="M389.959 121.493c-35.286-60.803-100.936-101.785-176.299-101.785-112.573 0-203.815 91.243-203.815 203.815 0 83.548 50.298 155.252 122.229 186.728 35.286 60.784 100.918 101.767 176.262 101.767 112.573 0 203.834-91.243 203.834-203.815 0-83.529-50.298-155.233-122.21-186.71zM308.354 486.766c-54.787 0-103.841-24.819-136.619-63.802 13.541 2.829 27.554 4.356 41.925 4.356 112.591 0 203.853-91.243 203.853-203.815 0-22.368-3.734-43.811-10.392-63.953 48.073 32.042 79.795 86.679 79.795 148.632 0 98.485-80.096 178.582-178.563 178.582z"></path>
</svg>
