<!-- Generated by IcoMoon.io -->
<svg version="1.1" xmlns="http://www.w3.org/2000/svg" width="1106" height="512" viewBox="0 0 1106 512">
<title>ComponentCheckers</title>
<path d="M269.028 19.697c-145.337 0-259.18 50.215-259.18 114.356v199.117c0 64.090 113.844 114.305 259.18 114.305s259.18-50.215 259.18-114.305v-199.117c0-64.141-113.844-114.356-259.18-114.356zM502.562 333.144c0 41.932-95.916 88.659-233.534 88.659-137.643 0-233.534-46.728-233.534-88.659v-49.471c5.847 5.411 12.489 10.592 20.106 15.49 46.368 29.622 123.871 48.728 213.428 48.728s167.059-19.106 213.428-48.753c7.617-4.847 14.26-10.079 20.106-15.49v49.497zM502.562 233.662v0c-0.051 9.232-5.053 18.671-13.849 27.775-1.975 2.051-3.898 4.103-6.257 6.104-6.411 5.488-14.336 10.772-23.543 15.798-40.932 22.261-107.894 38.905-189.858 38.905-81.991 0-148.953-16.618-189.884-38.905-9.233-5.026-17.132-10.31-23.569-15.798-12.925-11.002-20.106-22.62-20.106-33.956v-49.446c5.847 5.411 12.464 10.592 20.081 15.464 21.902 14.003 50.728 25.595 84.453 33.981 24.672 6.13 51.934 10.515 81.093 12.823 15.49 1.231 31.468 1.949 47.907 1.949s32.391-0.718 47.907-1.949c29.159-2.308 56.421-6.72 81.093-12.823 33.75-8.387 62.551-19.978 84.427-33.981 7.617-4.873 14.26-10.053 20.106-15.464v49.523zM482.481 168.008c-6.411 5.488-14.336 10.772-23.543 15.798-32.622 17.747-81.76 31.929-141.977 36.93-15.311 1.256-31.288 1.975-47.907 1.975s-32.622-0.692-47.933-1.975c-60.217-5.001-109.355-19.157-141.977-36.93-9.233-5.026-17.132-10.31-23.543-15.798-12.925-11.002-20.107-22.645-20.107-33.956 0-41.957 95.916-88.71 233.534-88.71s233.534 46.753 233.534 88.71c0 11.31-7.181 22.953-20.081 33.956z"></path>
<path d="M340.863 123.615l37.11-35.751-81.221 13.772-27.724-38.854-27.749 38.854-81.196-13.772 41.368 39.854-72.758 27.569 88.326 7.463-5.617 42.778 57.627-29.468 57.627 29.468-5.616-42.778 88.326-7.463-72.758-27.57 4.257-4.103zM351.968 147.261l-45.42 3.847 4.206 31.904-41.726-21.363-41.726 21.338 4.206-31.904-45.445-3.821 38.88-14.721-26.056-25.082 48.163 8.156 21.953-30.776 21.953 30.775 48.163-8.156-14.875 14.336-11.181 10.745 38.905 14.721z"></path>
<path d="M1096.091 298.137c0-64.115-113.817-114.331-259.154-114.331s-259.18 50.215-259.18 114.331v99.558c0 64.090 113.843 114.305 259.18 114.305s259.18-50.215 259.18-114.305l-0.025-99.558zM953.268 321.397l-64.321 5.462 5.616 42.726-57.627-29.442-57.627 29.442 5.616-42.726-88.326-7.488 72.758-27.544-41.367-39.854 81.221 13.772 27.723-38.854 27.724 38.854 81.221-13.772-41.367 39.854 72.758 27.544-24.005 2.026z"></path>
</svg>
