<!-- Generated by IcoMoon.io -->
<svg version="1.1" xmlns="http://www.w3.org/2000/svg" width="290" height="512" viewBox="0 0 290 512">
<title>ComponentShortStack</title>
<path d="M259.474 512h-229.678c-6.415 0-12.444-3.074-16.198-8.276s-4.788-11.824-2.749-17.942l54.803-165.445h-7.538c-5.38 0-10.464-2.128-14.159-5.853-0.739-0.739-1.478-1.596-2.099-2.483-3.754-5.202-4.759-11.853-2.749-17.942l86.55-261.010c1.448-4.345 4.286-7.951 7.922-10.346 10.020-6.71 26.101-1.715 30.091 10.287l86.668 261.070c2.010 6.060 0.976 12.769-2.779 17.942-0.62 0.887-1.33 1.744-2.129 2.483-3.695 3.724-8.779 5.853-14.1 5.853h-7.744l54.804 165.445c2.010 6.089 1.005 12.769-2.749 17.942s-9.755 8.276-16.169 8.276zM215.903 472.124h15.874l-50.34-151.788h-73.603l-50.281 151.788h158.35zM94.827 280.431h99.291c0.473-0.029 0.976-0.059 1.507-0.059h8.040l-59.001-177.623-58.912 177.623h7.567c0.502 0 0.975 0.029 1.507 0.059z"></path>
</svg>
