<!-- Generated by IcoMoon.io -->
<svg version="1.1" xmlns="http://www.w3.org/2000/svg" width="477" height="512" viewBox="0 0 477 512">
<title>ComponentGraph-Paper</title>
<path d="M464.618 124.481l-9.543-4.594c-3.392-1.617-8.853 2.701-12.245 9.721l-48.053 99.892v-209.8h-384.917v492.302h384.917v-226.62l69.881-145.303c3.352-6.98 3.313-13.98-0.039-15.597zM375.058 270.473l-59.154 123.002-11.791 41.743c-2.090 4.319-1.933 8.735 0.414 9.82 2.288 1.163 5.856-1.459 7.966-5.856l25.219-35.197 37.346-77.63v165.908h-345.481v-412.522h345.481v190.733zM375.058 69.881h-345.481v-30.465h345.481v30.465z"></path>
<path d="M44.090 460.339h212.956v-103.56h51.721v-103.5h51.779v-161.235h-316.455v368.295zM308.765 97.96h45.844v45.865h-45.844v-45.864zM308.765 149.739h45.844v45.805h-45.844v-45.805zM308.765 201.46h45.844v45.864h-45.844v-45.864zM257.045 97.96h45.786v45.865h-45.786v-45.864zM257.045 149.739h45.786v45.805h-45.786v-45.805zM257.045 201.46h45.786v45.864h-45.786v-45.864zM257.045 253.239h45.786v45.845h-45.786v-45.844zM257.045 305.019h45.786v45.805h-45.786v-45.805zM95.87 454.404h-45.864v-45.884h45.864v45.884zM251.149 408.519v45.884h-45.864v-45.884h45.864zM205.266 97.96h45.864v45.865h-45.864v-45.864zM205.266 149.739h45.864v45.805h-45.864v-45.805zM205.266 201.46h45.864v45.864h-45.864v-45.864zM205.266 253.239h45.864v45.845h-45.864v-45.844zM205.266 305.019h45.864v45.805h-45.864v-45.805zM205.266 356.76h45.864v45.825h-45.864v-45.825zM199.369 408.519v45.884h-45.864v-45.884h45.864zM153.486 97.96h45.864v45.865h-45.864v-45.864zM153.486 149.739h45.864v45.805h-45.864v-45.805zM153.486 201.46h45.864v45.864h-45.864v-45.864zM153.486 253.239h45.864v45.845h-45.864v-45.844zM153.486 305.019h45.864v45.805h-45.864v-45.805zM153.486 356.76h45.864v45.825h-45.845v-45.825zM147.59 408.519v45.884h-45.805v-45.884h45.805zM101.785 97.96h45.805v45.865h-45.805v-45.864zM101.785 149.739h45.805v45.805h-45.805v-45.805zM101.785 201.46h45.805v45.864h-45.805v-45.864zM101.785 253.239h45.805v45.845h-45.805v-45.844zM101.785 305.019h45.805v45.805h-45.805v-45.805zM101.785 356.76h45.805v45.825h-45.805v-45.825zM50.005 97.96h45.864v45.865h-45.864v-45.864zM50.005 149.739h45.864v45.805h-45.864v-45.805zM50.005 201.46h45.864v45.864h-45.864v-45.864zM50.005 253.239h45.864v45.845h-45.864v-45.844zM50.005 305.019h45.864v45.805h-45.864v-45.805zM50.005 356.76h45.864v45.825h-45.864v-45.825z"></path>
</svg>
