<!-- Generated by IcoMoon.io -->
<svg version="1.1" xmlns="http://www.w3.org/2000/svg" width="414" height="512" viewBox="0 0 414 512">
<title>ComponentTwinWinCards</title>
<path d="M391.374 19.69h-309.077c-3.403 0-6.671 1.338-9.1 3.747l-57.904 57.446c-3.288 2.352-5.448 6.194-5.448 10.552v407.68c0 7.13 5.773 12.904 12.904 12.904h309.058c3.536 0 6.748-1.414 9.081-3.709l59.548-58.841c2.447-2.428 3.824-5.735 3.824-9.176v-407.7c0-7.13-5.754-12.904-12.885-12.904zM87.612 45.478h272.87l-33.187 33.053h-272.966l33.282-33.053zM318.923 486.212h-283.27v-381.873h283.27v381.873zM344.711 468.204v-370.594l33.76-33.588v370.843l-33.76 33.339z"></path>
<path d="M63.907 268.149h21.506v75.166c0 7.532 4.874 12.158 11.604 12.158 6.748 0 11.776-4.626 11.776-12.158v-75.166h21.659c7.054 0 11.451-4.454 11.451-10.457 0-6.155-4.397-10.609-11.451-10.609h-66.545c-7.073 0-11.451 4.454-11.451 10.609 0 6.002 4.397 10.457 11.451 10.457z"></path>
<path d="M178.129 343.162c2.198 8.163 7.207 12.311 14.911 12.311 8.010 0 13.037-3.995 15.064-12.158l16-59.796 15.675 59.644c2.046 8.163 7.073 12.311 15.064 12.311 7.685 0 12.713-3.995 15.064-12.158l22.29-81.934c1.892-7.379-1.892-13.056-8.64-14.758-6.748-1.683-12.693 1.855-14.605 9.386l-14.701 59.95-14.911-57.35c-2.026-8.143-7.226-12.292-15.217-12.292-8.163 0-13.344 3.995-15.389 12.139l-14.911 57.502-14.739-59.969c-1.893-7.532-7.857-11.069-14.605-9.387-6.748 1.702-10.514 7.379-8.621 14.758l22.271 81.8z"></path>
</svg>
