<!-- Generated by IcoMoon.io -->
<svg version="1.1" xmlns="http://www.w3.org/2000/svg" width="512" height="512" viewBox="0 0 512 512">
<title>ComponentLaunchPad</title>
<path d="M451.526 512h-391.070c-27.913 0-50.614-22.7-50.614-50.614v-391.070c0-27.913 22.7-50.614 50.614-50.614h391.070c27.913 0 50.614 22.7 50.614 50.614v391.070c0 27.913-22.7 50.614-50.614 50.614zM60.456 42.17c-15.505 0-28.13 12.624-28.13 28.13v391.070c0 15.522 12.624 28.13 28.13 28.13h391.070c15.522 0 28.13-12.625 28.13-28.13v-391.053c0-15.522-12.625-28.13-28.13-28.13h-391.070z"></path>
<path d="M438.386 449.495h-88.053c-6.195 0-11.226-5.029-11.226-11.242v-87.804c0-6.212 5.029-11.242 11.226-11.242h88.053c6.212 0 11.259 5.029 11.259 11.242v87.804c0 6.229-5.046 11.242-11.259 11.242zM361.591 427.027h65.587v-65.337h-65.587v65.337zM302.101 449.495h-88.004c-6.212 0-11.242-5.029-11.242-11.242v-87.804c0-6.212 5.030-11.242 11.242-11.242h88.004c6.212 0 11.259 5.029 11.259 11.242v87.804c-0.017 6.229-5.046 11.242-11.259 11.242zM225.322 427.027h65.553v-65.337h-65.553v65.337zM170.445 449.495h-88.037c-6.212 0-11.242-5.029-11.242-11.242v-87.804c0-6.212 5.029-11.242 11.242-11.242h88.037c6.212 0 11.242 5.029 11.242 11.242v87.804c0 6.229-5.047 11.242-11.242 11.242zM93.65 427.027h65.569v-65.337h-65.57v65.337zM438.386 321.003h-88.053c-6.195 0-11.226-5.029-11.226-11.242v-87.804c0-6.212 5.029-11.242 11.226-11.242h88.053c6.212 0 11.259 5.030 11.259 11.242v87.821c0 6.212-5.046 11.226-11.259 11.226zM361.591 298.536h65.587v-65.337h-65.587v65.337zM170.445 321.003h-88.037c-6.212 0-11.242-5.029-11.242-11.242v-87.804c0-6.212 5.029-11.242 11.242-11.242h88.037c6.212 0 11.242 5.030 11.242 11.242v87.821c0 6.212-5.047 11.226-11.242 11.226zM93.65 298.536h65.569v-65.337h-65.57v65.337zM435.954 192.796h-88.053c-6.195 0-11.226-5.030-11.226-11.242v-87.804c0-6.212 5.029-11.242 11.226-11.242h88.053c6.195 0 11.226 5.029 11.226 11.242v87.804c0 6.212-5.029 11.242-11.226 11.242zM359.143 170.328h65.553v-65.337h-65.553v65.337zM302.101 192.796h-88.004c-6.212 0-11.242-5.030-11.242-11.242v-87.804c0-6.212 5.030-11.242 11.242-11.242h88.004c6.212 0 11.259 5.029 11.259 11.242v87.804c-0.017 6.212-5.046 11.242-11.259 11.242zM225.322 170.328h65.553v-65.337h-65.553v65.337zM170.445 192.796h-88.037c-6.212 0-11.242-5.030-11.242-11.242v-87.804c0-6.212 5.029-11.242 11.242-11.242h88.037c6.212 0 11.242 5.029 11.242 11.242v87.804c0 6.212-5.047 11.242-11.242 11.242zM93.65 170.328h65.569v-65.337h-65.57v65.337z"></path>
<path d="M283.597 203.088h-51.98l-36.757 36.757v51.98l36.757 36.757h51.98l36.74-36.757v-51.98l-36.74-36.757zM273.904 226.505l23.050 23.050v32.594l-23.050 23.050h-32.594l-23.067-23.050v-32.594l23.067-23.050h32.594z"></path>
</svg>
