<!-- Generated by IcoMoon.io -->
<svg version="1.1" xmlns="http://www.w3.org/2000/svg" width="295" height="512" viewBox="0 0 295 512">
<title>ComponentHourglass</title>
<path d="M194.378 306.933c-16.577-16.147-30.619-30.098-34.808-41.058 4.19-10.961 18.231-24.934 34.808-41.059 38.16-37.163 90.406-88.051 90.429-168.833 0-0.023 0.022-0.045 0.022-0.090 0-33.586-105.24-36.19-137.489-36.19s-137.466 2.605-137.489 36.19v0c0 80.826 52.291 131.737 90.451 168.9 16.578 16.147 30.618 30.12 34.808 41.082-4.19 10.961-18.208 24.934-34.785 41.058-38.16 37.163-90.383 88.051-90.429 168.787 0 0.046-0.023 0.068-0.023 0.113 0 33.563 105.218 36.19 137.466 36.19s137.511-2.604 137.511-36.19c0-0.046-0.022-0.068-0.022-0.091-0.068-80.804-52.291-131.691-90.452-168.81zM147.34 42.327c58.61 0 96.43 7.7 110.358 13.543-13.928 5.843-51.748 13.543-110.358 13.543s-96.43-7.7-110.335-13.543c13.905-5.843 51.725-13.543 110.335-13.543zM116.088 208.555c-33.065-32.204-73.15-71.496-81.755-129.767 33.109 12.003 90.61 13.271 113.008 13.271s79.875-1.291 112.985-13.271c-8.606 58.27-48.668 97.585-81.778 129.789-12.727 12.411-23.44 23.213-31.208 33.721-7.791-10.531-18.502-21.334-31.252-33.744zM116.111 323.148c12.75-12.411 23.44-23.19 31.23-33.699 7.791 10.508 18.48 21.288 31.208 33.699 33.087 32.204 73.149 71.496 81.755 129.767-33.087-12.003-90.588-13.293-112.985-13.293s-79.853 1.291-112.963 13.293c8.629-58.271 48.691-97.563 81.755-129.767zM147.318 489.353c-58.61 0-96.43-7.7-110.335-13.543 13.905-5.865 51.703-13.565 110.335-13.565 58.655 0 96.475 7.7 110.381 13.565-13.928 5.865-51.748 13.543-110.381 13.543z"></path>
</svg>
