<!-- Generated by IcoMoon.io -->
<svg version="1.1" xmlns="http://www.w3.org/2000/svg" width="515" height="512" viewBox="0 0 515 512">
<title>ComponentWhiteMeeple</title>
<path d="M410.375 308.409c-1.235-2.087-3.109-3.876-4.515-5.877 60.268-16.569 99.452-42.933 99.452-72.748 0-38.418-64.995-71.171-156.781-84.503v-27.43h-0.426c0.213-1.363 0.426-2.683 0.426-4.089 0-51.962-40.718-94.043-90.977-94.043s-90.977 42.123-90.977 94.043c0 1.406 0.213 2.726 0.383 4.089h-0.34v27.43c-91.786 13.332-156.781 46.084-156.781 84.503 0 29.815 39.227 56.179 99.623 72.748-1.406 2.045-3.279 3.834-4.472 5.921l-87.101 152.607c-15.632 27.387-7.369 49.748 18.442 49.918l130.246 0.979c0.085 0 0.171 0 0.298 0 25.768 0 59.161-21.892 74.749-49.151l16.057-28.111 16.014 28.111c15.589 27.301 49.024 49.151 74.749 49.151 0.085 0 0.213 0 0.298 0l130.289-0.979c25.768-0.171 34.073-22.531 18.442-49.918l-87.101-152.65zM348.446 469.408c-7.539 0-28.111-10.776-37.736-27.642l-16.014-28.111-37.012-64.911-53.070 92.936c-9.668 16.909-30.24 27.685-37.737 27.685l-104.266-0.81 78.072-136.891c1.363-1.661 2.684-3.365 3.876-5.111l33.775-49.279-57.627-15.801c-42.507-11.67-61.163-25.299-66.912-31.774 8.859-10.435 44.892-31.049 116.362-41.826 0.894-0.128 1.661-0.298 2.555-0.426l36.459-5.324v-68.361c0-1.235 0.596-2.3 0.681-3.493 1.789-26.662 22.191-47.959 47.703-47.959 25.853 0 46.681 21.85 47.916 47.959 0.043 0.809 0.469 1.49 0.469 2.3v69.553l36.502 5.281c0.894 0.128 1.661 0.298 2.555 0.426 71.512 10.776 107.502 31.391 116.361 41.826-5.707 6.474-24.363 20.061-66.784 31.731l-57.116 15.759 33.094 49.151c1.15 1.747 2.471 3.408 4.046 5.366l78.072 136.933-104.223 0.81z"></path>
</svg>
