<!-- Generated by IcoMoon.io -->
<svg version="1.1" xmlns="http://www.w3.org/2000/svg" width="512" height="512" viewBox="0 0 512 512">
<title>ComponentHijincks</title>
<path d="M451.526 512h-391.070c-27.913 0-50.614-22.7-50.614-50.614v-391.087c0-27.913 22.7-50.597 50.614-50.597h391.070c27.913 0 50.614 22.684 50.614 50.597v391.087c0 27.913-22.7 50.614-50.614 50.614zM60.456 42.17c-15.505 0-28.13 12.624-28.13 28.113v391.087c0 15.522 12.624 28.13 28.13 28.13h391.070c15.522 0 28.13-12.625 28.13-28.13v-391.070c0-15.505-12.625-28.113-28.13-28.113h-391.070zM432.54 453.625h-353.080c-6.212 0-11.242-5.029-11.242-11.242v-353.080c0-6.212 5.029-11.242 11.242-11.242h353.080c6.195 0 11.242 5.029 11.242 11.242v353.080c0 6.229-5.046 11.242-11.242 11.242zM327.099 431.158h94.199v-93.95h-94.199v93.95zM207.351 431.158h97.264v-93.95h-97.263v93.95zM90.701 431.158h94.166v-93.95h-94.166v93.95zM327.099 314.724h94.199v-97.297h-94.199v97.297zM207.351 314.724h97.264v-97.297h-97.263v97.297zM90.701 314.724h94.166v-97.297h-94.166v97.297zM327.099 194.96h94.199v-94.415h-94.199v94.415zM207.351 194.96h97.264v-94.415h-97.263v94.415zM90.701 194.96h94.166v-94.415h-94.166v94.415z"></path>
</svg>
