<!-- Generated by IcoMoon.io -->
<svg version="1.1" xmlns="http://www.w3.org/2000/svg" width="440" height="512" viewBox="0 0 440 512">
<title>ComponentShotGlass</title>
<path d="M383.789 457.586l0.086 0.017 46.392-367.401h-0.103c0.017-0.362 0.172-0.706 0.172-1.067 0-45.101-108.329-69.442-210.236-69.442-101.925 0-210.254 24.341-210.254 69.442 0 0.362 0.137 0.706 0.155 1.067h-0.086l46.409 367.401 0.086-0.017c1.636 35.702 83.093 54.414 163.689 54.414s162.054-18.712 163.689-54.414zM220.1 36.907c119.225 0 192.523 30.228 192.987 52.004l-0.155 1.085c-1.894 21.758-74.83 51.384-192.85 51.384s-190.939-29.608-192.85-51.367l-0.137-1.102c0.465-21.793 73.763-52.004 193.005-52.004zM366.73 456.536c-0.051 15.596-57.151 38.25-146.63 38.25s-146.595-22.637-146.63-38.25h-0.069l-1.274-11.051-1.653-13.031-39.352-311.662c36.459 24.702 114.337 37.82 188.977 37.82s152.517-13.117 188.959-37.82l-39.351 311.662z"></path>
</svg>
