<!-- Generated by IcoMoon.io -->
<svg version="1.1" xmlns="http://www.w3.org/2000/svg" width="539" height="512" viewBox="0 0 539 512">
<title>ComponentWheel</title>
<path d="M527.971 262.070l-47.212-144.624c-0.791-2.428-2.338-4.569-4.425-6.061l-123.616-89.389c-2.068-1.511-4.55-2.32-7.123-2.32h-152.789c-2.554 0-5.036 0.809-7.123 2.32l-123.616 89.389c-2.069 1.493-3.615 3.651-4.407 6.061l-47.212 144.624c-0.791 2.464-0.791 5.090 0 7.554l47.212 144.623c0.791 2.428 2.338 4.568 4.425 6.061l123.616 89.389c2.069 1.511 4.55 2.302 7.123 2.302h152.807c2.572 0 5.036-0.791 7.123-2.302l123.616-89.389c2.087-1.493 3.633-3.633 4.425-6.061l47.213-144.624c0.755-2.464 0.755-5.090-0.036-7.554zM476.604 182.969l-65.558-4.713 51.799-37.446 13.759 42.159zM413.204 95.702l35.306 25.522-51.475 37.231 16.169-62.752zM456.909 205.9l-48.651 39.209-14.281-43.742 62.932 4.532zM351.981 51.421l35.18 25.432-54.839 34.73 19.659-60.163zM269.211 226.728l-24.37-74.677h48.76l-24.389 74.677zM316.693 159.498l39.425 28.525-63.813 46.115 24.389-74.641zM246.099 234.156l-63.796-46.115 39.424-28.525 24.37 74.641zM231.692 253.707h-78.778l15.036-46.097 63.742 46.097zM231.692 277.988l-63.724 46.098-15.036-46.097h78.76zM246.081 297.556l-24.352 74.605-39.407-28.49 63.76-46.115zM269.211 304.966l24.37 74.659h-48.742l24.371-74.659zM292.34 297.556l63.777 46.115-39.407 28.49-24.37-74.605zM306.729 277.988h78.796l-15.036 46.098-63.76-46.097zM306.729 253.707l63.76-46.097 15.036 46.097h-78.796zM385.272 106.799l-15.702 60.953-37.608-27.195 53.31-33.759zM328.887 43.957l-19.695 60.252-23.921-60.252h43.615zM292.448 127.77h-46.457l23.238-58.489 23.219 58.489zM253.131 43.957l-23.921 60.252-19.677-60.252h43.597zM168.886 167.771l-15.702-60.971 53.274 33.777-37.572 27.195zM186.44 51.421l19.641 60.163-54.803-34.748 35.162-25.414zM125.234 95.666l16.169 62.806-51.493-37.249 35.324-25.558zM144.462 201.369l-14.28 43.76-48.669-39.227 62.95-4.532zM75.576 140.81l51.781 37.447-65.558 4.73 13.777-42.177zM51.925 213.239l50.216 40.468h-63.435l13.22-40.468zM52.267 319.481l-13.544-41.493h63.724l-50.18 41.493zM62.176 349.858l64.82 3.831-51.421 37.195-13.4-41.026zM125.216 435.993l-35.306-25.522 51.457-37.212-16.151 62.735zM81.656 326.693l48.526-40.126 14.316 43.849-62.842-3.723zM186.44 480.255l-35.252-25.468 54.947-34.856-19.695 60.324zM153.185 424.751l15.666-60.846 37.519 27.123-53.184 33.724zM209.534 487.719l19.695-60.324 23.957 60.324h-43.651zM246.027 403.906h46.367l-23.183 58.363-23.184-58.363zM285.236 487.719l23.957-60.324 19.712 60.324h-43.669zM369.589 363.906l15.683 60.846-53.22-33.724 37.536-27.123zM351.981 480.255l-19.695-60.324 54.947 34.839-35.252 25.486zM408.259 286.567l48.526 40.126-62.842 3.705 14.317-43.831zM413.24 435.974l-16.151-62.68 51.421 37.176-35.27 25.504zM462.845 390.884l-51.403-37.195 64.82-3.831-13.418 41.026zM486.154 319.481l-50.162-41.493h63.724l-13.561 41.493zM436.298 253.707l50.216-40.468 13.202 40.468h-63.418z"></path>
</svg>
