<!-- Generated by IcoMoon.io -->
<svg version="1.1" xmlns="http://www.w3.org/2000/svg" width="477" height="512" viewBox="0 0 477 512">
<title>ComponentPaper</title>
<path d="M464.618 124.481l-9.543-4.594c-3.392-1.617-8.853 2.701-12.245 9.721l-48.053 99.892v-209.8h-384.917v492.302h384.917v-226.62l69.881-145.303c3.352-6.98 3.313-13.98-0.039-15.597zM29.577 39.416h345.481v30.484h-345.481v-30.484zM375.058 492.282h-345.481v-412.542h345.481v190.733l-59.154 123.002-11.791 41.743c-2.090 4.319-1.933 8.735 0.414 9.82 2.288 1.163 5.856-1.459 7.966-5.856l25.219-35.197 37.346-77.63v165.928z"></path>
</svg>
