<!-- Generated by IcoMoon.io -->
<svg version="1.1" xmlns="http://www.w3.org/2000/svg" width="515" height="512" viewBox="0 0 515 512">
<title>ComponentBlackMeeple</title>
<path d="M410.375 308.409c-1.235-2.087-3.109-3.876-4.515-5.877 60.268-16.611 99.452-42.976 99.452-72.748 0-38.418-64.995-71.171-156.781-84.503v-24.406h-0.682c0.213-2.385 0.724-4.685 0.724-7.113 0-51.962-40.718-94.043-90.977-94.043s-90.977 42.123-90.977 94.043c0 2.428 0.511 4.728 0.681 7.113h-0.681v24.406c-91.786 13.332-156.781 46.084-156.781 84.503 0 29.815 39.227 56.221 99.623 72.748-1.406 2.045-3.279 3.834-4.472 5.921l-87.101 152.607c-15.632 27.387-7.369 49.748 18.442 49.918l130.246 0.979c25.811 0.171 59.416-21.807 75.048-49.151l16.057-28.111 16.014 28.111c15.632 27.387 49.279 49.322 75.048 49.151l130.289-0.979c25.768-0.171 34.073-22.531 18.442-49.918l-87.101-152.65z"></path>
</svg>
