<!-- Generated by IcoMoon.io -->
<svg version="1.1" xmlns="http://www.w3.org/2000/svg" width="510" height="512" viewBox="0 0 510 512">
<title>ComponentTwinWin</title>
<path d="M254.9 19.692c-135.121 0-245.063 110.413-245.063 246.154 0 135.725 109.941 246.138 245.063 246.138 135.138 0 245.063-110.413 245.063-246.138 0-135.74-109.925-246.154-245.063-246.154zM254.9 490.012c-123.004 0-223.075-100.56-223.075-224.166s100.071-224.166 223.075-224.166c123.020 0 223.075 100.576 223.075 224.182s-100.055 224.149-223.075 224.149z"></path>
<path d="M81.617 231.349c0.863 0.212 1.743 0.31 2.606 0.31 4.951 0 9.463-3.371 10.668-8.405 12.704-52.251 51.517-94.859 101.178-113.15l1.661 10.994c0.488 3.257 2.899 5.896 6.108 6.694 0.651 0.163 1.303 0.245 1.954 0.245 2.541 0 5-1.189 6.548-3.306l20.148-27.314c1.286-1.727 1.824-3.909 1.499-6.043-0.326-2.15-1.482-4.055-3.225-5.343l-27.315-20.132c-2.655-1.938-6.222-2.15-9.040-0.407-2.802 1.662-4.333 4.903-3.844 8.144l2.199 14.512c-58.472 19.936-104.452 69.092-119.225 129.926-1.45 5.896 2.183 11.841 8.079 13.274z"></path>
<path d="M228.531 168.869c1.27 3.030 4.235 5 7.508 5h7.883v37.282h-7.883c-3.274 0-6.238 1.971-7.508 5s-0.602 6.499 1.694 8.861l18.877 19.252c1.531 1.564 3.632 2.427 5.815 2.427s4.283-0.88 5.814-2.443l18.861-19.252c2.296-2.345 2.964-5.815 1.694-8.844s-4.235-5-7.509-5h-7.867v-37.282h7.867c3.274 0 6.238-1.971 7.509-5s0.603-6.499-1.694-8.844l-18.861-19.252c-1.531-1.58-3.632-2.443-5.815-2.443s-4.284 0.88-5.815 2.427l-18.877 19.252c-2.297 2.362-2.964 5.847-1.694 8.861z"></path>
<path d="M281.286 362.822c-1.271-3.029-4.235-5-7.509-5h-7.867v-37.298h7.883c0.114-0.017 0.212-0.017 0.326 0 4.495 0 8.144-3.649 8.144-8.144 0-2.932-1.548-5.489-3.844-6.922l-17.672-18.014c-3.062-3.111-8.551-3.111-11.63 0l-18.861 19.236c-2.297 2.361-2.964 5.831-1.694 8.861s4.235 5 7.508 5h7.867v37.298h-7.883c-3.274 0-6.238 1.971-7.508 5s-0.602 6.515 1.694 8.861l18.877 19.236c1.531 1.563 3.632 2.427 5.815 2.427s4.284-0.88 5.815-2.443l18.861-19.236c2.281-2.346 2.948-5.831 1.678-8.861z"></path>
<path d="M304.349 239.346c-3.029-1.221-6.531-0.554-8.877 1.743l-19.073 18.975c-1.531 1.531-2.394 3.616-2.394 5.766s0.863 4.251 2.394 5.766l19.073 18.991c1.563 1.548 3.632 2.378 5.75 2.378 1.043 0 2.118-0.212 3.127-0.619 3.029-1.271 5.017-4.235 5.017-7.525v-7.997h37.12v7.997c0 3.29 1.987 6.255 5.017 7.525 1.026 0.407 2.068 0.619 3.127 0.619 2.118 0 4.186-0.83 5.75-2.378l19.089-18.991c1.531-1.531 2.378-3.616 2.378-5.766s-0.863-4.251-2.378-5.766l-19.089-18.975c-2.329-2.313-5.831-2.981-8.877-1.743-3.029 1.27-5.017 4.235-5.017 7.525v7.981h-37.12v-7.981c-0.017-3.29-2.003-6.255-5.017-7.525z"></path>
<path d="M205.484 292.362c1.010 0.407 2.069 0.619 3.127 0.619 2.118 0 4.186-0.83 5.75-2.378l19.073-18.991c1.531-1.531 2.394-3.616 2.394-5.766s-0.863-4.251-2.394-5.766l-19.073-18.975c-2.329-2.313-5.831-2.981-8.861-1.743-3.046 1.27-5.017 4.235-5.017 7.525v7.981h-37.119v-7.981c0-3.29-1.987-6.255-5.017-7.525-3.013-1.221-6.531-0.554-8.861 1.743l-19.073 18.975c-1.531 1.531-2.394 3.616-2.394 5.766s0.863 4.251 2.394 5.766l19.073 18.991c1.564 1.548 3.632 2.378 5.75 2.378 1.042 0 2.118-0.212 3.127-0.619 3.046-1.271 5.017-4.235 5.017-7.525v-7.997h37.12v7.997c-0.032 3.29 1.938 6.255 4.984 7.525z"></path>
<path d="M450.14 200.565c-1.71-2.818-4.967-4.349-8.176-3.811l-14.414 2.215c-19.822-58.716-68.733-104.909-129.226-119.779-5.913-1.499-11.841 2.166-13.291 8.046-1.466 5.896 2.15 11.858 8.046 13.29 51.974 12.77 94.37 51.811 112.547 101.781l-10.848 1.661c-3.241 0.488-5.863 2.899-6.661 6.076s0.391 6.531 3.029 8.486l27.151 20.294c1.417 1.059 3.111 1.629 4.87 1.629 0.407 0 0.83-0.032 1.221-0.097 2.15-0.326 4.088-1.499 5.358-3.257l20.017-27.51c1.922-2.655 2.085-6.222 0.375-9.024z"></path>
<path d="M427.353 291.483c-5.863-1.385-11.841 2.199-13.258 8.095-12.688 52.267-51.502 94.875-101.178 113.166l-1.678-10.994c-0.473-3.257-2.899-5.896-6.091-6.694-3.192-0.782-6.548 0.407-8.502 3.062l-20.147 27.298c-1.286 1.726-1.824 3.909-1.498 6.043 0.326 2.15 1.482 4.055 3.225 5.342l27.298 20.147c1.433 1.043 3.144 1.596 4.837 1.596 0.065 0 0.13 0 0.163 0 4.87 0.049 8.339-3.584 8.323-8.144 0-1.221-0.277-2.378-0.749-3.421l-1.857-12.313c58.456-19.904 104.452-69.075 119.225-129.926 1.433-5.863-2.183-11.825-8.111-13.258z"></path>
<path d="M215.908 422.305c-51.99-12.753-94.354-51.795-112.564-101.765l10.864-1.661c3.241-0.488 5.864-2.899 6.662-6.075s-0.391-6.531-3.029-8.486l-27.151-20.295c-1.743-1.32-3.958-1.857-6.091-1.531-2.15 0.326-4.088 1.498-5.375 3.257l-20.017 27.493c-1.938 2.655-2.085 6.222-0.374 9.024 1.498 2.443 4.137 3.909 6.955 3.909 0.407 0 0.814-0.033 1.238-0.098l14.415-2.183c19.822 58.716 68.734 104.909 129.242 119.762 0.88 0.228 1.759 0.326 2.623 0.326 4.952 0 9.447-3.355 10.668-8.372 1.45-5.913-2.15-11.858-8.063-13.307z"></path>
</svg>
