<!-- Generated by IcoMoon.io -->
<svg version="1.1" xmlns="http://www.w3.org/2000/svg" width="524" height="512" viewBox="0 0 524 512">
<title>ComponentPiecepack</title>
<path d="M76.802 134.215c0-1.862 0.337-3.612 0.546-5.409l-37.559 13.065 39.26 6.148c-1.316-4.382-2.247-8.957-2.247-13.803z"></path>
<path d="M168.788 115.019l25.841-29.934-36.964 14.253c4.687 4.414 8.523 9.695 11.123 15.681z"></path>
<path d="M130.235 86.738l-13.065-37.559-6.147 39.276c4.382-1.332 8.972-2.263 13.803-2.263 1.862 0 3.612 0.353 5.409 0.546z"></path>
<path d="M105.614 90.253l-29.934-25.841 14.269 36.98c4.398-4.703 9.695-8.523 15.665-11.139z"></path>
<path d="M86.32 105.758l-38.971-7.431 30.833 24.895c1.509-6.436 4.334-12.311 8.138-17.463z"></path>
<path d="M88.936 211.692l24.879-30.834c-6.421-1.509-12.311-4.333-17.447-8.137l-7.431 38.971z"></path>
<path d="M163.332 162.673l38.971 7.431-30.834-24.894c-1.525 6.436-4.333 12.311-8.137 17.463z"></path>
<path d="M172.85 134.215c0 1.862-0.337 3.612-0.546 5.409l37.559-13.065-39.26-6.147c1.316 4.398 2.247 8.973 2.247 13.803z"></path>
<path d="M160.715 56.755l-24.879 30.834c6.421 1.509 12.311 4.334 17.447 8.138l7.431-38.971z"></path>
<path d="M55.005 183.363l36.98-14.269c-4.687-4.398-8.523-9.678-11.123-15.666l-25.858 29.935z"></path>
<path d="M144.038 178.195l29.935 25.841-14.269-36.981c-4.414 4.687-9.695 8.523-15.666 11.139z"></path>
<path d="M119.401 181.694l13.065 37.559 6.148-39.26c-4.398 1.332-8.972 2.263-13.803 2.263-1.846-0.016-3.596-0.353-5.409-0.562z"></path>
<path d="M161.020 134.215c0 19.989-16.204 36.194-36.194 36.194s-36.194-16.204-36.194-36.194c0-19.989 16.204-36.194 36.194-36.194s36.194 16.204 36.194 36.194z"></path>
<path d="M409.805 192.576c11.942 0 22.985-3.387 32.534-8.94-3.707 0.722-7.544 1.124-11.476 1.124-32.101 0-58.087-25.248-58.087-56.402s25.986-56.418 58.087-56.418c1.204 0 2.344 0.273 3.547 0.337-7.576-3.082-15.874-4.815-24.606-4.815-35.408 0-64.058 27.992-64.058 62.55 0 34.541 28.651 62.565 64.058 62.565z"></path>
<path d="M239.797 19.244h-229.958v229.958h229.958v-229.958zM223.746 233.136h-197.857v-197.84h197.857v197.84z"></path>
<path d="M398.57 249.186c63.4 0 114.971-51.571 114.971-114.987 0-63.4-51.571-114.971-114.971-114.971s-114.987 51.571-114.987 114.971c0 63.416 51.587 114.987 114.987 114.987zM398.57 35.295c54.54 0 98.92 44.38 98.92 98.92s-44.38 98.936-98.92 98.936-98.936-44.38-98.936-98.936 44.396-98.92 98.937-98.92z"></path>
<path d="M124.826 282.443c-63.4 0-114.987 51.571-114.987 114.971s51.571 114.987 114.987 114.987c63.4 0 114.971-51.587 114.971-114.987s-51.571-114.971-114.971-114.971zM124.826 496.351c-54.54 0-98.936-44.396-98.936-98.937s44.38-98.92 98.936-98.92 98.92 44.38 98.92 98.92-44.364 98.937-98.92 98.937z"></path>
<path d="M157.794 412.791h-12.712v-78.151c0-6.356-2.889-9.63-8.458-9.63-3.082 0-5.585 1.349-7.319 3.852l-59.483 82.774c-1.734 2.504-2.68 4.815-2.68 6.741 0 5.586 3.066 8.282 9.421 8.282h53.898v26.757c0 5.586 2.504 8.282 7.319 8.282s7.319-2.697 7.319-8.282v-26.757h12.712c5.201 0 7.897-2.312 7.897-6.934s-2.713-6.934-7.913-6.934zM130.46 412.791h-45.44l45.44-62.565v62.565z"></path>
<path d="M274.226 512.385h229.958v-229.925h-229.958v229.925zM393.225 298.51h94.908v94.908h-94.908v-94.908zM393.225 401.443h94.908v94.892h-94.908v-94.892zM290.276 298.51h94.923v94.908h-94.923v-94.908zM290.276 401.443h94.923v94.892h-94.923v-94.892z"></path>
</svg>
