<!-- Generated by IcoMoon.io -->
<svg version="1.1" xmlns="http://www.w3.org/2000/svg" width="279" height="512" viewBox="0 0 279 512">
<title>ComponentTree</title>
<path d="M268.051 490.531l-52.18-138.905h9.829c2.493 0 4.938-0.588 7.125-1.693 2.351-1.152 4.421-2.94 5.973-5.15 2.963-4.303 3.621-9.759 1.787-14.65l-39.671-105.56h3.621c3.174 0 6.255-0.94 8.819-2.681 1.669-1.105 3.127-2.516 4.304-4.185 2.963-4.327 3.645-9.782 1.81-14.65l-65.137-173.049c-2.304-6.184-8.231-10.3-14.838-10.3-1.34 0-2.657 0.165-3.904 0.494-5.009 1.223-9.195 4.844-11.076 9.806l-65.020 173.073c-1.834 4.868-1.153 10.323 1.81 14.626 0.565 0.776 1.176 1.529 1.858 2.21 2.963 2.963 6.984 4.656 11.264 4.656h3.481l-39.694 105.608c-1.834 4.868-1.153 10.323 1.834 14.603 2.94 4.303 7.807 6.843 13.051 6.843h9.971l-52.204 138.929c-1.834 4.868-1.152 10.323 1.81 14.603 2.963 4.303 7.83 6.843 13.051 6.843h227.511c5.197 0 10.065-2.539 13.051-6.843 1.834-2.657 2.798-5.808 2.798-9.007 0-1.858-0.329-3.786-1.034-5.62zM139.446 80.775l42.139 112.004h-3.809c-0.423 0-0.823 0.024-1.2 0.047h-74.52c-0.4-0.024-0.799-0.047-1.176-0.047h-3.528l42.093-112.004zM111.933 224.571h54.956l35.838 95.308h-126.606l35.814-95.308zM48.7 480.255l48.324-128.653h84.938l48.347 128.653h-181.609z"></path>
</svg>
