<!-- Generated by IcoMoon.io -->
<svg version="1.1" xmlns="http://www.w3.org/2000/svg" width="410" height="512" viewBox="0 0 410 512">
<title>ComponentNest</title>
<path d="M398.66 486.526l-176.656-455.126c-2.719-7.069-9.515-11.718-17.1-11.718-2.284 0-4.486 0.408-6.524 1.196-4.867 1.794-8.835 5.601-10.793 10.602l-176.494 455.045c-2.202 5.627-1.441 11.989 1.957 16.991 0.652 0.978 1.413 1.849 2.229 2.692 3.399 3.425 8.074 5.41 13.022 5.41h60.68c0.626 0.082 1.224 0.38 1.849 0.38h226.462c0.571 0 1.006-0.326 1.577-0.38h62.583c4.948 0 9.624-1.985 13.022-5.41 0.843-0.815 1.604-1.712 2.229-2.692 3.452-4.975 4.159-11.337 1.957-16.991zM183.861 474.945l19.819-55.841 19.819 55.841h-39.637zM262.511 474.945l-41.513-116.793c-4.296-12.043-21.776-15.442-30.367-6.742-1.849 1.876-3.344 4.187-4.241 6.796l-41.487 116.738h-27.24l86.398-225.212 86.452 225.212h-28.002zM329.879 474.837l-108.609-283.091c-2.746-7.123-9.57-11.799-17.155-11.799-2.039 0-4.024 0.326-5.899 0.952-5.138 1.713-9.406 5.627-11.418 10.875l-108.474 283.091-23.19-0.055 149.661-385.774 149.824 385.774h-24.74z"></path>
</svg>
