<!-- Generated by IcoMoon.io -->
<svg version="1.1" xmlns="http://www.w3.org/2000/svg" width="417" height="512" viewBox="0 0 417 512">
<title>ComponentAquariusCards</title>
<path d="M393.876 19.684h-311.099c-3.54 0-6.907 1.424-9.352 3.983l-58.264 60.477c-3.232 2.367-5.311 6.177-5.311 10.486v404.401c0 7.177 5.811 12.988 12.988 12.988h311.099c3.656 0 6.966-1.52 9.332-3.945l59.938-61.938c2.328-2.425 3.637-5.676 3.637-9.043v-404.42c0.019-7.158-5.791-12.988-12.969-12.988zM88.3 45.66h275.348l-33.827 35.982h-276.175l34.654-35.982zM320.95 486.043h-285.142v-378.425h285.142v378.425zM346.907 466.936v-365.533l33.981-36.136v366.572l-33.981 35.096z"></path>
<path d="M71.618 346.887c6.157 1.962 12.007-0.635 14.701-7.889l5.695-14.546h42.813l5.85 14.546c3.001 7.428 7.889 10.005 14.701 7.889 6.311-2.078 9.621-8.062 6.946-15.163l-33.808-88.185c-2.694-7.1-7.735-10.66-15.162-10.66-7.273 0-12.334 3.559-15.008 10.814l-33.692 88.031c-2.656 7.1 0.654 13.084 6.966 15.163zM113.468 266.169l13.739 36.963h-27.458l13.719-36.963z"></path>
<path d="M233.978 348.504c11.834 0 22.416-3.040 32.056-9.351l4.906 5.003c5.060 5.195 11.68 5.022 15.644 0.654 4.406-4.522 4.579-10.66-0.462-15.99l-4.906-4.849c6.812-10.025 10.102-21.3 10.102-33.923 0-16.779-5.522-30.671-16.587-41.658-11.044-11.141-24.63-16.625-40.734-16.625-15.952 0-29.536 5.484-40.446 16.625-10.891 10.987-16.433 24.86-16.433 41.658 0 16.971 5.542 30.863 16.433 42.005 10.891 10.967 24.476 16.452 40.427 16.452zM210.292 264.707c6.138-6.946 14.201-10.333 24.321-10.333 9.64 0 17.375 3.559 23.551 10.487 6.158 6.946 9.313 15.336 9.313 25.188 0 5.984-1.116 11.468-3.329 16.471l-6.793-7.1c-5.060-5.176-11.679-5.022-15.643-0.654-4.252 4.541-4.56 10.332 0.481 16.009l7.581 7.735c-4.272 2.271-9.313 3.406-15.162 3.406-10.256 0-18.318-3.406-24.321-10.352-6.023-6.927-9.024-15.336-9.024-25.514 0-9.986 3.001-18.395 9.024-25.341z"></path>
</svg>
