<!-- Generated by IcoMoon.io -->
<svg version="1.1" xmlns="http://www.w3.org/2000/svg" width="414" height="512" viewBox="0 0 414 512">
<title>ComponentPyramidArcadeCards</title>
<path d="M391.389 19.691h-309.089c-3.403 0-6.672 1.338-9.1 3.747l-57.868 57.409c-3.326 2.332-5.486 6.194-5.486 10.572v407.696c0 7.131 5.774 12.904 12.904 12.904h309.070c3.536 0 6.748-1.414 9.080-3.709l59.55-58.805c2.447-2.428 3.824-5.735 3.824-9.176v-407.734c0-7.111-5.755-12.904-12.885-12.904zM87.615 45.499h273.034l-33.015 33.015h-273.282l33.264-33.016zM318.934 486.211h-283.281v-381.887h283.281v381.887zM344.724 468.221v-370.284l33.761-33.781v370.742l-33.761 33.322z"></path>
<path d="M93.273 355.486c6.748 0 11.776-4.588 11.776-12.139v-22.731h21.182c12.713 0 23.075-3.403 31.066-10.304 7.991-6.921 11.929-16.001 11.929-27.204 0-11.088-3.938-19.844-11.776-26.305-7.857-6.442-18.2-9.673-31.237-9.673h-29.632c-9.425 0-14.912 5.372-14.912 14.606v81.631c-0.019 7.513 4.856 12.12 11.604 12.12zM105.049 268.159h17.11c16.174 0 23.859 4.779 23.859 15.389s-8.010 15.982-23.858 15.982h-17.11v-31.372z"></path>
<path d="M193.066 354.875c6.118 1.836 11.929-0.612 14.587-7.551l5.639-13.841h42.536l5.811 13.841c2.963 7.074 7.838 9.539 14.587 7.551 6.271-2.007 9.578-7.685 6.901-14.452l-33.589-83.944c-2.677-6.768-7.685-10.132-15.065-10.132-7.207 0-12.235 3.384-14.893 10.304l-33.436 83.791c-2.657 6.748 0.65 12.426 6.921 14.433zM234.646 278.023l13.65 35.195h-27.299l13.65-35.195z"></path>
</svg>
