<!-- Generated by IcoMoon.io -->
<svg version="1.1" xmlns="http://www.w3.org/2000/svg" width="417" height="512" viewBox="0 0 417 512">
<title>ComponentTarotCards</title>
<path d="M393.876 19.684h-311.099c-3.54 0-6.907 1.424-9.352 3.983l-58.264 60.477c-3.232 2.367-5.311 6.177-5.311 10.486v404.401c0 7.177 5.811 12.988 12.988 12.988h311.099c3.656 0 6.966-1.52 9.332-3.945l59.938-61.938c2.328-2.425 3.637-5.676 3.637-9.043v-404.42c0.019-7.158-5.791-12.988-12.969-12.988zM88.3 45.66h275.348l-33.827 35.982h-276.175l34.654-35.982zM320.95 486.043h-285.142v-378.425h285.142v378.425zM346.907 466.936v-365.533l33.981-36.136v366.572l-33.981 35.096z"></path>
<path d="M128.322 248.64h31.633v115.43c0 11.584 7.158 18.645 17.087 18.645s17.298-7.062 17.298-18.645v-115.43h31.845c10.371 0 16.837-6.85 16.837-16.048 0-9.447-6.465-16.279-16.837-16.279h-97.863c-10.371 0-16.837 6.831-16.837 16.279 0 9.197 6.465 16.048 16.837 16.048z"></path>
</svg>
