<!-- Generated by IcoMoon.io -->
<svg version="1.1" xmlns="http://www.w3.org/2000/svg" width="901" height="512" viewBox="0 0 901 512">
<title>ComponentMarkerStones</title>
<path d="M804.333 247.365l-0.689-1.143-0.925-0.962c-3.755-4.045-37.403-39.653-52.876-49.593-16.815-10.811-53.184-21.803-71.868-24.923-3.936-0.671-9.922-0.98-18.303-0.98-13.241 0-27.844 0.798-28.461 0.816l-1.052 0.109c-1.47 0.218-35.989 5.151-64.92 23.49-1.705 1.070-3.556 2.358-5.514 3.791 2.775-11.428 3.9-28.769 2.231-38.727-3.337-20.262-19.699-54.127-29.495-68.549-1.27-1.868-2.612-3.864-4.009-5.986-12.824-19.209-30.401-45.511-51.099-54.092-10.502-4.335-33.776-4.807-43.298-4.807-5.043 0-9.505 0.127-12.589 0.381-13.060 1.088-39.707 5.297-53.202 8.889-13.894 3.7-40.995 15.11-53.783 23.726-11.21 7.546-27.825 25.377-34.12 32.85-0.817 0.962-1.723 2.049-2.721 3.21-12.734 14.892-24.379 29.295-26.973 41.883-2.54 12.244 1.524 30.691 5.623 44.587-11.573-1.669-26.030-2.522-36.605-2.522-4.063 0-7.655 0.127-10.63 0.363-14.203 1.161-41.085 7.782-54.763 12.697-9.415 3.392-28.043 12.008-37.185 18.702-14.112 10.357-39.398 35.553-49.629 51.334-7.401 11.392-18.339 37.258-20.86 52.26-2.83 16.87-1.941 51.28 3.392 68.784 4.517 14.801 20.189 40.668 31.599 52.187 10.176 10.267 33.54 22.711 43.262 27.137 8.924 4.045 28.334 10.594 39.616 12.008 5.895 0.743 14.656 1.197 24.035 1.197 5.423 0 15.672-0.182 23.291-1.197 17.25-2.376 48.141-13.495 61.8-20.153 13.931-6.766 42.555-24.651 55.706-37.24 9.795-9.36 25.214-30.474 31.109-42.591 6.041-12.371 13.786-37.875 14.748-52.223 0.798-11.7-2.666-32.651-6.131-42.882-0.182-0.526-0.399-1.106-0.599-1.632 8.834 2.123 17.74 3.719 24.306 3.882 0.707 0.018 1.451 0.018 2.213 0.018 23.98 0 69.673-8.87 92.238-17.921 6.893-2.739 16.561-7.945 26.212-13.968-9.704 18.973-20.697 47.343-20.425 65.845 0.308 22.964 22.801 58.1 34.21 70.997 14.639 16.543 52.495 34.301 68.512 40.251 24.76 9.251 72.34 14.983 102.251 14.983 5.333 0 10.176-0.182 14.33-0.49 17.468-1.451 47.289-13.786 61.020-21.966 11.936-7.165 28.406-25.577 34.483-33.377 9.741-12.48 27.191-45.040 27.282-65.519 0.072-21.024-25.595-64.449-30.746-72.938zM349.871 320.431c-0.69 10.557-7.474 33.014-12.226 42.791-4.644 9.487-18.193 28.025-25.849 35.353-10.086 9.668-35.517 26.084-49.267 32.777-13.459 6.512-41.103 16.053-54.182 17.849-4.408 0.599-11.827 0.962-19.845 0.962-8.235 0-16.017-0.381-20.824-0.998-7.637-0.998-24.452-6.421-32.343-9.995-10.684-4.825-29.44-15.491-35.734-21.858-8.525-8.616-22.058-30.855-25.377-41.775-4.063-13.314-4.916-43.48-2.63-57.175 1.723-10.231 10.865-32.978 17.123-42.682 8.435-13.006 31.272-35.825 43.353-44.677 6.041-4.444 22.003-12.135 30.8-15.309 11.863-4.262 36.442-10.322 48.214-11.282 2.268-0.181 5.224-0.29 8.562-0.29 13.732 0 31.345 1.542 40.051 3.501 2.014 0.453 4.481 1.161 7.147 2.031 4.317 9.052 10.521 20.171 16.96 26.284 11.918 11.319 36.296 23.89 51.189 30.528 4.389 7.8 8.289 15.709 10.049 20.842 2.739 8.163 5.315 25.776 4.825 33.123zM477.771 240.037c-19.899 7.982-61.692 16.107-82.824 16.107-0.563 0-1.106 0-1.651 0-9.015-0.218-29.512-5.442-40.759-9.741-3.827-6.24-7.618-11.827-10.648-15.582-7.836-9.668-25.776-25.413-36.224-31.816-5.043-3.083-12.48-6.494-19.99-9.433-0.072-0.218-0.182-0.435-0.254-0.653-7.202-19.5-11.5-39.707-9.959-47.035 1.488-7.238 15.454-23.563 21.423-30.529 1.034-1.216 1.995-2.34 2.848-3.356 7.111-8.398 21.513-23.2 28.878-28.134 10.358-6.984 34.464-17.142 46.183-20.279 11.918-3.175 36.786-7.129 48.758-8.108 2.358-0.2 6.185-0.309 10.502-0.309 16.452 0 30.257 1.487 33.594 2.884 13.604 5.642 29.313 29.168 39.725 44.731 1.451 2.195 2.829 4.263 4.136 6.149 9.215 13.55 23.055 43.77 25.468 58.445 1.161 7.093-0.199 24.089-2.485 30.837-1.27 3.719-6.893 12.498-10.031 15.654-8.942 9.052-33.413 24.833-46.69 30.166zM787.862 370.205c-6.439 8.253-20.352 22.964-27.553 27.245-12.262 7.329-38.274 17.505-50.082 18.466-3.519 0.29-7.655 0.417-12.28 0.417-27.808 0-71.958-5.387-93.363-13.387-17.668-6.584-48.649-22.257-58.427-33.304-10.884-12.298-27.663-41.611-27.862-54.563-0.199-14.765 13.223-48.668 23.889-65.012 6.512-9.94 26.12-27.844 36.624-34.483 22.529-14.294 50.463-19.101 54.364-19.718 2.83-0.127 15.418-0.762 26.501-0.762 9.015 0 12.734 0.399 14.13 0.635 15.944 2.667 49.139 12.77 62.345 21.241 10.557 6.784 36.804 33.649 47.216 44.659 12.842 21.404 26.393 49.502 26.375 58.59-0.018 11.174-12.571 38.075-21.876 49.974z"></path>
<path d="M287.599 265.959l-15.164-9.034-1.216 17.595-2.776 39.906-35.571 49.248 5.297 6.476 19.572 23.817 8.453-9.523 40.959-46.201 0.563-2.921 8.489-43.988 1.451-7.491-30.057-17.885zM297.031 333.255l-38.981 44.006-11.5-13.986 32.505-44.986 3.011-42.99 23.49 14.003-8.526 43.952z"></path>
<path d="M454.97 125.306l-10.993-3.138-2.594 11.137-18.938 82.189 63.887-35.227 1.397-3.9 13.314-37.875-11.101-3.21-34.973-9.977zM477.445 172.722l-38.981 21.495 13.495-58.481 34.99 9.995-9.505 26.992z"></path>
<path d="M753.035 277.26l-1.977-5.079-5.279-1.451-47.562-12.969 13.786 38.764-6.984 23.599-1.396 4.698 2.612 4.154 29.422 46.945 7.31-21.786 17.25-51.479 1.216-3.719-1.396-3.646-7.002-18.031zM732.664 350.687l-17.25-27.499 8-26.973-8-22.493 27.499 7.474 7.002 18.012-17.25 51.48z"></path>
</svg>
