<!-- Generated by IcoMoon.io -->
<svg version="1.1" xmlns="http://www.w3.org/2000/svg" width="417" height="512" viewBox="0 0 417 512">
<title>ComponentZarkCityCards</title>
<path d="M393.876 19.684h-311.099c-3.54 0-6.907 1.424-9.352 3.983l-58.264 60.477c-3.232 2.367-5.311 6.177-5.311 10.486v404.401c0 7.177 5.811 12.988 12.988 12.988h311.099c3.656 0 6.966-1.52 9.332-3.945l59.938-61.938c2.328-2.425 3.637-5.676 3.637-9.043v-404.42c0.019-7.158-5.791-12.988-12.969-12.988zM88.3 45.66h275.348l-33.827 35.982h-276.175l34.654-35.982zM320.95 486.043h-285.142v-378.425h285.142v378.425zM346.907 466.936v-365.533l33.981-36.136v366.572l-33.981 35.096z"></path>
<path d="M75.273 333.322c0 7.928 5.368 13.411 14.681 13.411h64.305c7.1 0 11.545-4.675 11.545-10.967 0-6.465-4.425-11.16-11.545-11.16h-47.719l54.339-67.808c2.040-2.578 3.155-5.811 3.155-9.698 0-7.909-5.369-13.392-14.701-13.392h-62.054c-7.12 0-11.545 4.675-11.545 10.968 0 6.465 4.406 11.141 11.545 11.141h45.487l-54.339 67.826c-2.040 2.579-3.156 5.811-3.156 9.678z"></path>
<path d="M240.463 348.504c15.335 0 28.131-4.502 38.233-13.719 5.676-5.176 6.158-12.276 1.731-16.952-4.272-5.022-10.583-5.657-16.74-0.635-6.946 5.984-14.835 8.87-23.84 8.87-9.64 0-17.703-3.233-24.167-9.698-6.484-6.446-9.813-15.336-9.813-26.476 0-10.967 3.329-19.684 9.813-25.995 6.638-6.465 14.201-9.678 22.898-9.678 9.159 0 16.894 2.906 23.379 8.716 6.158 5.176 12.469 4.522 16.74-0.654 4.406-4.675 3.945-11.795-1.751-16.952-10.429-9.043-22.898-13.565-37.29-13.565-16.567 0-30.325 5.33-41.369 16.143-11.044 10.66-16.587 24.86-16.587 42.486 0 17.433 5.542 31.48 16.587 42.139 11.237 10.66 25.284 15.971 42.178 15.971z"></path>
</svg>
