<!-- Generated by IcoMoon.io -->
<svg version="1.1" xmlns="http://www.w3.org/2000/svg" width="524" height="512" viewBox="0 0 524 512">
<title>ComponentPetal</title>
<path d="M261.76 19.689c-138.899 0-251.915 110.437-251.915 246.155s112.999 246.155 251.915 246.155c138.917 0 251.914-110.437 251.914-246.155s-112.999-246.155-251.914-246.155zM261.76 489.397c-126.443 0-229.311-100.291-229.311-223.569s102.869-223.552 229.311-223.552c126.459 0 229.312 100.29 229.312 223.569s-102.852 223.552-229.312 223.552z"></path>
<path d="M469.004 265.845c0-30.84-25.584-55.939-57.026-55.939-5.877 0-13.779 1.993-26.973 6.095 12.122-6.111 19.087-10.13 23.223-14.165 10.832-10.582 16.793-24.662 16.793-39.664s-5.944-29.066-16.81-39.648c-21.514-20.995-58.918-20.995-80.466 0-4.437 4.337-8.824 11.804-15.856 25.215 4.654-14.148 6.932-22.386 6.932-28.463 0-30.858-25.584-55.938-57.043-55.938-31.444 0-57.026 25.081-57.026 55.938 0 6.094 2.277 14.349 6.965 28.547-7.049-13.462-11.469-20.962-15.906-25.299-21.514-20.996-58.952-20.996-80.45 0-10.866 10.581-16.843 24.663-16.843 39.664s5.977 29.083 16.793 39.648c4.136 4.035 11.1 8.054 23.222 14.181-13.21-4.102-21.113-6.095-26.973-6.095-31.46 0-57.044 25.097-57.044 55.939s25.584 55.938 57.044 55.938c5.86 0 13.763-1.993 26.973-6.094-12.122 6.094-19.087 10.113-23.206 14.131-10.85 10.582-16.81 24.679-16.81 39.664 0 15.002 5.977 29.066 16.81 39.63 21.515 20.995 58.952 20.995 80.45 0 4.453-4.32 8.857-11.82 15.922-25.282-4.688 14.181-6.965 22.452-6.965 28.547 0 30.841 25.583 55.938 57.026 55.938 31.46 0 57.043-25.098 57.043-55.938 0-6.077-2.277-14.332-6.932-28.463 7.049 13.411 11.435 20.878 15.873 25.198 21.514 20.995 58.935 20.995 80.45 0 10.832-10.565 16.81-24.645 16.81-39.63s-5.944-29.082-16.793-39.664c-4.135-4.019-11.101-8.036-23.223-14.164 13.193 4.102 21.113 6.094 26.973 6.094 31.444 0.017 57.043-25.081 57.043-55.921zM314.986 190.82c3.733-7.083 7.166-13.729 10.297-19.84 7.334-14.298 14.935-29.049 18.216-32.28 6.546-6.363 15.202-9.862 24.462-9.862s17.915 3.5 24.445 9.862c6.446 6.279 9.995 14.617 9.995 23.457 0 8.857-3.55 17.195-9.995 23.474-3.332 3.265-18.601 10.749-33.368 17.965-6.178 3.030-12.909 6.329-20.075 9.912-16.994 8.539-34.859 17.68-49.626 25.282 7.752-14.282 17.027-31.544 25.65-47.969zM261.76 85.942c18.986 0 34.457 14.968 34.457 33.336 0 4.487-5.308 20.108-10.464 35.227-2.21 6.496-4.621 13.595-7.116 21.197-5.877 17.864-11.921 36.785-16.86 52.406-4.939-15.621-10.983-34.541-16.86-52.406-2.494-7.601-4.905-14.701-7.116-21.197-5.14-15.102-10.464-30.74-10.464-35.227-0.017-18.384 15.437-33.335 34.423-33.335zM131.114 185.663c-6.446-6.279-9.995-14.617-9.995-23.474 0-8.84 3.549-17.178 9.995-23.457 6.513-6.363 15.186-9.862 24.428-9.862s17.931 3.5 24.428 9.862c3.298 3.214 10.899 17.982 18.233 32.281 3.131 6.095 6.563 12.758 10.28 19.84 8.656 16.408 17.931 33.687 25.667 47.986-14.75-7.601-32.632-16.743-49.626-25.282-7.2-3.6-13.964-6.915-20.175-9.962-14.684-7.216-29.903-14.667-33.235-17.931zM111.558 299.18c-18.986 0-34.457-14.968-34.457-33.336s15.454-33.335 34.457-33.335c4.755 0 20.895 5.24 36.5 10.28 6.613 2.143 13.829 4.487 21.565 6.915 17.915 5.592 36.885 11.385 52.673 16.14-15.788 4.755-34.758 10.548-52.673 16.14-7.736 2.445-14.952 4.772-21.565 6.915-15.605 5.057-31.745 10.28-36.499 10.28zM208.517 340.853c-3.717 7.065-7.132 13.695-10.263 19.807-7.35 14.298-14.952 29.066-18.25 32.297-13.010 12.724-35.846 12.724-48.873 0-6.446-6.279-9.995-14.6-9.995-23.44 0-8.857 3.549-17.195 10.012-23.49 3.315-3.248 18.535-10.699 33.251-17.898 6.212-3.047 12.976-6.363 20.175-9.962 16.994-8.539 34.875-17.68 49.626-25.282-7.768 14.298-17.044 31.56-25.684 47.969zM261.76 445.748c-18.987 0-34.44-14.968-34.44-33.336 0-4.487 5.325-20.108 10.464-35.227 2.21-6.497 4.621-13.596 7.116-21.197 5.877-17.865 11.921-36.784 16.86-52.406 4.939 15.621 10.983 34.541 16.86 52.406 2.495 7.601 4.906 14.7 7.116 21.197 5.157 15.102 10.464 30.74 10.464 35.227 0 18.367-15.454 33.336-34.44 33.336zM392.421 346.027c6.446 6.279 9.995 14.616 9.995 23.474 0 8.841-3.55 17.161-9.979 23.44-13.043 12.724-35.863 12.724-48.923 0-3.298-3.214-10.883-17.998-18.25-32.297-3.131-6.077-6.546-12.741-10.264-19.807-8.639-16.408-17.898-33.687-25.65-47.986 14.767 7.601 32.632 16.743 49.626 25.282 7.166 3.583 13.897 6.882 20.075 9.912 14.75 7.233 30.020 14.717 33.368 17.982zM375.528 288.916c-6.63-2.143-13.863-4.504-21.649-6.931-17.898-5.592-36.851-11.385-52.656-16.14 15.788-4.755 34.742-10.548 52.656-16.14 7.786-2.445 15.002-4.788 21.649-6.931 15.587-5.056 31.695-10.263 36.45-10.263 18.986 0 34.44 14.968 34.44 33.336s-15.454 33.336-34.44 33.336c-4.772 0-20.878-5.207-36.45-10.264z"></path>
</svg>
