<!-- Generated by IcoMoon.io -->
<svg version="1.1" xmlns="http://www.w3.org/2000/svg" width="519" height="512" viewBox="0 0 519 512">
<title>ComponentVolcano</title>
<path d="M458.051 19.697h-396.903c-28.281 0-51.3 22.725-51.3 50.66v391.019c0 27.918 23.020 50.643 51.3 50.643h396.903c28.281 0 51.3-22.725 51.3-50.642v-391.036c0-27.918-23.019-50.642-51.3-50.642zM132.162 392.611v52.633h-53.81v-52.633h53.81zM388.56 138.93v-52.633h53.793v52.633h-53.793zM442.37 164.113v52.633h-53.81v-52.633h53.81zM442.37 241.098v52.633h-53.81v-52.633h53.81zM442.37 317.495v52.651h-53.81v-52.651h53.81zM365.334 317.495v52.651h-53.793v-52.651h53.793zM311.541 293.731v-52.633h53.793v52.633h-53.793zM311.541 216.746v-52.633h53.793v52.633h-53.793zM78.353 292.918v-52.633h53.81v52.633h-53.81zM78.353 215.95v-52.667h53.81v52.667h-53.81zM232.686 215.95v-52.667h53.828v52.667h-53.827zM286.514 240.285v52.633h-53.827v-52.633h53.827zM209.685 240.285v52.633h-53.81v-52.633h53.81zM155.874 215.95v-52.667h53.792v52.667h-53.792zM209.685 316.681v52.651h-53.81v-52.651h53.81zM286.514 316.681v52.651h-53.827v-52.651h53.827zM78.353 369.332v-52.651h53.81v52.651h-53.81zM311.541 138.93v-52.633h53.793v52.633h-53.793zM234.002 138.93v-52.633h53.827v52.633h-53.827zM155.892 138.93v-52.633h53.792v52.633h-53.792zM78.353 138.93v-52.633h53.81v52.633h-53.81zM209.685 392.611v52.633h-53.81v-52.633h53.81zM286.514 392.611v52.633h-53.827v-52.633h53.827zM365.334 393.424v52.651h-53.793v-52.651h53.793zM442.37 393.424v52.651h-53.81v-52.651h53.81z"></path>
</svg>
