<!-- Generated by IcoMoon.io -->
<svg version="1.1" xmlns="http://www.w3.org/2000/svg" width="512" height="512" viewBox="0 0 512 512">
<title>ComponentCoin</title>
<path d="M255.991 67.86c-109.155 0-197.969 88.813-197.969 197.969 0 70.756 37.41 132.752 93.382 167.771l-0.162 0.306c1.007 0.539 1.996 0.935 3.004 1.421 29.785 17.95 64.515 28.471 101.746 28.471 37.5 0 72.464-10.666 102.393-28.849 0.719-0.377 1.457-0.63 2.176-1.043l-0.108-0.234c56.026-34.983 93.508-97.051 93.508-167.843 0-109.156-88.796-197.969-197.969-197.969zM211.548 433.546c19.91-11.997 35.576-35.935 44.335-65.468 8.795 29.55 24.46 53.526 44.389 65.504-14.155 3.741-28.939 5.935-44.281 5.935-15.396 0.018-30.234-2.212-44.443-5.971zM219.408 298.474l36.583-86.026 36.619 86.026h-73.202zM347.43 413.24c-12.248 6.169-23.579 6.169-34.497-0.341-22.231-13.219-38.040-49.55-40.144-90.163h38.166c4.083 0 7.878-2.033 10.126-5.45 2.248-3.382 2.626-7.698 1.061-11.457l-54.964-129.191c-3.813-8.957-18.525-8.957-22.339 0l-54.947 129.191c-1.601 3.759-1.205 8.058 1.043 11.457s6.043 5.45 10.126 5.45h37.95c-2.123 40.63-17.932 76.925-40.144 90.163-10.756 6.385-21.888 6.439-33.939 0.558-43.579-26.997-74.353-72.591-81.079-125.702h41.942c6.708 0 12.141-5.432 12.141-12.14s-5.431-12.14-12.141-12.14h-43.346c0.126-10.216 1.169-20.216 3.004-29.947h92.573c6.708 0 12.141-5.431 12.141-12.141s-5.431-12.141-12.141-12.141h-86.079c23.543-68.040 88.094-117.123 164.048-117.123 43.13 0 82.537 15.9 112.968 42.015h-75.828c-6.709 0-12.14 5.431-12.14 12.141s5.432 12.141 12.14 12.141h91.565c2.284 0 4.281-0.792 6.115-1.87 6.529 8.022 12.374 16.637 17.392 25.774h-41.026c-6.69 0-12.123 5.431-12.123 12.141s5.432 12.141 12.123 12.141h47.842c1.331 0 2.572-0.377 3.759-0.756 6.942 18.723 10.918 38.885 10.918 60.001 0 23.094-4.64 45.126-12.86 65.306h-68.364c-6.69 0-12.123 5.431-12.123 12.14s5.431 12.14 12.123 12.14h56.043c-14.209 23.454-33.777 43.291-57.087 57.806z"></path>
<path d="M255.991 19.695c-135.72 0-246.153 110.433-246.153 246.153 0 135.738 110.415 246.171 246.153 246.171s246.171-110.451 246.171-246.189c0-135.72-110.451-246.135-246.171-246.135zM255.991 487.719c-122.339 0-221.872-99.533-221.872-221.89 0-122.339 99.533-221.872 221.872-221.872s221.89 99.533 221.89 221.872c0 122.357-99.551 221.89-221.89 221.89z"></path>
</svg>
