<!-- Generated by IcoMoon.io -->
<svg version="1.1" xmlns="http://www.w3.org/2000/svg" width="594" height="512" viewBox="0 0 594 512">
<title>ComponentTrio</title>
<path d="M30.181 512c-6.667 0-12.914-3.274-16.698-8.769-0.060-0.090-0.12-0.21-0.18-0.3-3.694-5.495-4.444-12.403-2.072-18.559l129.374-335.688 0.090 0.060 0.030-0.12c6.036-15.646 31.803-15.646 37.839 0l32.854 85.319 78.231-201.448c1.892-4.835 5.495-8.649 9.911-10.841 9.971-5.015 23.875-0.060 28.079 10.751l100.424 258.597 21.472-56.248c6.036-15.646 31.923-15.676 37.899 0l95.439 249.559c2.403 6.247 1.562 13.214-2.222 18.74s-10.061 8.739-16.758 8.739h-190.697c-0.871 0-1.772-0.060-2.642-0.18l-340.313 0.39c-0.030 0-0.060 0-0.060 0zM159.615 212.26l-99.853 259.078 59.552-0.18 70.303-181.058-30.001-77.841zM411.997 471.248h122.467l-65.948-172.469-65.828 172.469h9.31zM255.805 471.098h103.547l47.179-123.608-97.871-251.511-145.651 374.998 92.796 0.12z"></path>
</svg>
