<!-- Generated by IcoMoon.io -->
<svg version="1.1" xmlns="http://www.w3.org/2000/svg" width="881" height="512" viewBox="0 0 881 512">
<title>ComponentWorldWar</title>
<path d="M859.298 512h-838.013c-6.326 0-11.448-5.122-11.448-11.449v-469.413c0-6.326 5.122-11.448 11.448-11.448h838.013c6.309 0 11.448 5.122 11.448 11.448v469.413c0 6.326-5.139 11.449-11.448 11.449zM32.733 489.103h815.116v-446.516h-815.116v446.516z"></path>
<path d="M281.034 465.274c-1.323 0-2.646-0.221-3.918-0.695l-34.158-12.466c-4.529-1.645-7.513-5.953-7.513-10.753v-7.445l-6.954-4.274c-3.392-2.086-5.445-5.8-5.445-9.769v-48.964l-31.886-28.493c-2.425-2.154-3.816-5.274-3.816-8.531v-52.442l-12.381-9.074c-2.951-2.137-4.681-5.58-4.681-9.226v-2.289l-4.071-1.815c-2.256-1-4.121-2.714-5.309-4.851l-2.934-5.241h-11.194c-6.326 0-11.448-5.122-11.448-11.448v-3.443l-5.919-1.391c-5.173-1.221-8.82-5.834-8.82-11.143v-59.649c0-3.324 1.442-6.479 3.952-8.65l21.828-18.894 0.899-2.392-3.884 1.272c-1.154 0.373-2.375 0.577-3.578 0.577h-30.275c-4.24 0-8.124-2.323-10.109-6.055s-1.764-8.26 0.594-11.77l16.299-24.27c2.069-3.087 5.512-4.969 9.21-5.071l23.406-0.594 8.701-6.716c2.001-1.543 4.46-2.391 7.005-2.391h15.518c1.781 0 3.528 0.407 5.122 1.204l16.977 8.48h36.889c3.036 0 5.953 1.204 8.107 3.358 2.137 2.137 3.358 5.054 3.341 8.107v11.448h5.241l23.151-20.098c2.086-1.798 4.749-2.799 7.497-2.799h26.39c3.103 0 6.072 1.255 8.226 3.494s3.308 5.258 3.205 8.344l-1.543 45.081c-0.221 6.173-5.274 11.058-11.449 11.058h-11.805l-69.639 64.891c-4.529 4.24-11.635 4.088-15.976-0.356l-6.631-6.767-4.359 0.78-1.595 2.731 8.26 9.040 23.049 21.489c2.679 1.595 4.579 4.223 5.274 7.259l1.069 4.63h11.839c2.459 0 4.868 0.78 6.835 2.255l16.299 12.11 12.652 11.822 34.955 7.683c2.917 0.627 5.478 2.409 7.123 4.901l10.889 16.655c1.899 2.9 2.375 6.513 1.306 9.786-1.068 3.291-3.562 5.936-6.801 7.158l-3.528 1.357v20.573c0 3.137-1.289 6.123-3.562 8.276l-12.398 11.788c-0.747 0.712-1.577 1.306-2.476 1.781l-9.481 5.071v13.263c0 4.613-2.798 8.82-7.072 10.584l-3.019 1.238v49.202c0 3.731-1.815 7.225-4.885 9.379-1.985 1.408-4.274 2.103-6.598 2.103zM258.324 433.338l11.262 4.122v-40.485c0-4.613 2.798-8.82 7.072-10.584l3.019-1.238v-12.466c0-4.206 2.324-8.090 6.038-10.091l14.145-7.565 7.734-7.361v-23.524c0-3.884 1.967-7.445 5.122-9.548l-0.712-1.086-33.446-7.361c-2.019-0.441-3.884-1.425-5.377-2.832l-13.959-13.144-12.228-9.006h-17.198c-5.343 0-9.972-3.68-11.16-8.887l-2.086-9.125c-0.017-0.017-0.034-0.034-0.068-0.051l-23.286-22.184-14.501-15.824c-3.392-3.697-3.969-9.192-1.424-13.518l8.531-14.569c1.696-2.883 4.579-4.901 7.869-5.478l15.518-2.764c3.714-0.644 7.548 0.56 10.193 3.256l3.053 3.12 64.772-60.345c2.12-1.984 4.901-3.070 7.802-3.070h5.257l0.763-22.201h-10.261l-23.151 20.098c-2.086 1.798-4.749 2.798-7.497 2.798h-20.963c-3.036 0-5.953-1.204-8.107-3.358-2.137-2.137-3.358-5.054-3.341-8.107v-11.448h-28.137c-1.781 0-3.528-0.407-5.122-1.204l-16.977-8.48h-8.938l-8.565 6.614c-0.169 0.135-0.339 0.254-0.509 0.373h1.272c6.326 0 11.448 5.122 11.448 11.448v10.329c0 1.374-0.238 2.731-0.713 4.002l-4.664 12.466c-0.679 1.798-1.781 3.409-3.222 4.647l-20.115 17.401v45.335l5.919 1.391c5.173 1.221 8.82 5.834 8.82 11.143v1.052h6.411c4.138 0 7.971 2.239 9.989 5.851l4.359 7.785 7.394 3.308c4.121 1.849 6.767 5.936 6.767 10.447v3.901l12.381 9.057c2.951 2.154 4.681 5.597 4.681 9.226v53.154l31.886 28.459c2.425 2.188 3.816 5.291 3.816 8.548v47.709l6.954 4.274c3.392 2.086 5.445 5.784 5.445 9.752v5.834zM131.002 110.904h6.97l5.512-1.832-11.465 0.288-1.018 1.543zM656.282 441.004c-1.543 0-3.087-0.322-4.545-0.95-4.206-1.798-6.903-5.936-6.903-10.498v-20.336l-2.205-1.849h-17.622c-6.326 0-11.448-5.139-11.448-11.465v-31.512c0-4.087 2.171-7.87 5.716-9.922l60.752-35.040c-0.339-0.238-0.662-0.492-0.966-0.78l-23.168-20.539-11.143-3.154c-4.936-1.391-8.345-5.902-8.345-11.007v-33.954l-8.531-13.365h-3.782v33.106c0 3.392-1.492 6.598-4.087 8.769-2.578 2.188-6.004 3.087-9.345 2.51l-21.506-3.799c-5.461-0.966-9.464-5.716-9.464-11.279v-11.482l-2.103-0.153c-5.987-0.441-10.6-5.428-10.6-11.415v-15.841l-8.989-9.107h-6.852c1.662 2.035 2.561 4.579 2.561 7.225v19.589c0 4.698-2.866 8.938-7.259 10.651l-9.362 3.681v21.115c0 3.274-1.391 6.394-3.85 8.548l-12.788 11.363v27.68c0 3.867-1.933 7.445-5.173 9.565l-10.464 6.852v22.761c0 2.476-0.797 4.868-2.255 6.835l-21.539 28.918c-2.154 2.9-5.563 4.613-9.175 4.613h-19.318c-3.969 0-7.666-2.069-9.752-5.461l-8.599-13.976c-1.103-1.798-1.696-3.884-1.696-6.004v-73.456l-8.717-2.476c-3.663-1.051-6.58-3.833-7.768-7.445l-5.241-15.993h-1.086l-11.431 10.024c-4.173 3.63-10.329 3.782-14.671 0.339l-16.13-12.839c-1.051-0.848-1.933-1.832-2.629-2.985l-16.13-26.339c-2.222-3.63-2.239-8.209-0.051-11.856l6.19-10.346v-17.368c0-3.206 1.34-6.275 3.714-8.447l24.44-22.387c2.595-2.357 6.123-3.392 9.565-2.85l39.178 6.377h22.71l-18.284-8.328-28.849-5.173h-53.255c-6.326 0-11.449-5.122-11.449-11.448v-14.434c0-3.137 1.272-6.123 3.528-8.276l19.063-18.198c1.899-1.815 4.376-2.917 7.005-3.138l31.156-2.476 26.373-25.169c3.494-3.324 8.752-4.105 13.026-1.951l12.466 6.258h35.685l26.933-17.707c1.865-1.221 4.053-1.882 6.293-1.882h199.199c6.309 0 11.448 5.122 11.448 11.448v21.455c0 6.326-5.139 11.448-11.448 11.448h-26.068l0.763 1.017 28.562 8.26c4.885 1.407 8.26 5.902 8.26 10.99v13.993c0 6.326-5.139 11.448-11.448 11.448h-10.074v11.194l15.943 9.531c3.443 2.069 5.563 5.8 5.563 9.837v22.387c0 3.918-1.985 7.565-5.308 9.667l-3.511 2.222v83.292c0 6.326-5.139 11.449-11.448 11.449h-17.808c0.034 0.017 0.034 0.034 0.034 0.051l11.635 15.959c1.442 1.95 2.205 4.308 2.205 6.716v45.080c0 3.188-1.306 6.19-3.612 8.344l-42.859 40.213c-2.188 1.985-5.004 3.070-7.852 3.070zM636.456 384.475h10.363c2.697 0 5.308 0.95 7.394 2.68l9.464 8.005c2.391 2.002 3.85 4.901 4.037 8.005l19.996-18.758v-36.397l-3.358-4.63-47.879 27.628v13.466zM458.965 384.475h7.174l15.824-21.269v-25.135c0-3.884 1.933-7.445 5.173-9.565l10.464-6.869v-26.628c0-3.274 1.391-6.394 3.85-8.548l12.788-11.363v-23.779c0-4.698 2.884-8.921 7.259-10.651l9.362-3.68v-6.716l-16.791-15.264c-3.494-3.189-4.681-8.192-2.968-12.601 1.696-4.41 5.936-7.31 10.668-7.31h41.061c3.070 0 6.004 1.221 8.124 3.392l15.672 15.858c2.12 2.137 3.308 5.037 3.308 8.056v9.905l2.103 0.153c3.986 0.305 7.412 2.629 9.21 5.936v-13.178c0-6.326 5.122-11.448 11.448-11.448h21.506c3.901 0 7.548 1.984 9.634 5.292l13.721 21.455c1.154 1.832 1.781 3.969 1.781 6.156v28.646l5.326 1.493c1.679 0.458 3.206 1.306 4.511 2.459l21.862 19.419h12.126v-78.204c0-3.918 1.985-7.565 5.308-9.667l3.511-2.222v-9.6l-15.926-9.531c-3.477-2.069-5.58-5.8-5.58-9.837v-29.104c0-4.257 2.323-7.971 5.766-9.939l-8.242-2.392c-2.409-0.696-4.529-2.154-6.004-4.173l-16.621-22.388c-2.578-3.477-2.985-8.107-1.034-11.974 1.052-2.086 2.679-3.765 4.63-4.868h-141.314l-26.984 17.707c-1.865 1.221-4.053 1.882-6.293 1.882h-41.808c-1.781 0-3.528-0.407-5.122-1.204l-7.683-3.85-23.49 22.421c-1.899 1.815-4.376 2.917-6.988 3.137l-31.156 2.476-10.6 10.125h40.858c0.678 0 1.357 0.051 2.019 0.169l31.275 5.597c0.933 0.169 1.849 0.458 2.731 0.848l33.243 15.129c4.308 1.968 6.954 6.394 6.683 11.126l-0.983 15.655c-0.373 6.038-5.377 10.736-11.431 10.736h-41.044c-0.611 0-1.238-0.051-1.832-0.153l-34.616-5.631-16.638 15.231v15.502c0 2.069-0.56 4.105-1.628 5.886l-4.257 7.107 11.465 18.708 7.072 5.631 7.479-6.546c2.086-1.815 4.766-2.832 7.531-2.832h13.687c4.952 0 9.345 3.188 10.889 7.887l5.919 18.096 11.177 3.154c4.935 1.391 8.327 5.902 8.327 11.024v78.849l3.511 5.817z"></path>
</svg>
