<!-- Generated by IcoMoon.io -->
<svg version="1.1" xmlns="http://www.w3.org/2000/svg" width="702" height="512" viewBox="0 0 702 512">
<title>ComponentStashPad</title>
<path d="M9.857 19.696v492.304h681.902v-492.304h-681.902zM673.538 493.78h-645.462v-455.864h645.462v455.864z"></path>
<path d="M252.256 233.981c0.692 0.601 1.603 0.929 2.551 0.893l98.789-3.626c1.202-0.036 2.332-0.692 3.007-1.731 0.11-0.182 0.237-0.419 0.31-0.619 0.382-0.929 0.382-1.968-0.018-2.879l-28.277-65.665c-0.401-0.911-1.148-1.621-2.077-1.986-0.2-0.091-0.455-0.146-0.656-0.219-1.221-0.219-2.459 0.146-3.334 1.002l-70.475 69.309c-1.548 1.53-1.367 4.245 0.182 5.52z"></path>
<path d="M237.989 216.581c0.893 0.018 1.804-0.274 2.532-0.893l75.175-64.189c0.911-0.765 1.385-1.968 1.276-3.207-0.036-0.237-0.055-0.474-0.146-0.692-0.274-0.947-0.929-1.749-1.822-2.223l-62.913-33.925c-0.911-0.474-1.913-0.565-2.861-0.273-0.219 0.055-0.456 0.164-0.656 0.255-1.112 0.565-1.858 1.621-1.986 2.843l-12.244 98.115c-0.237 2.113 1.585 4.136 3.644 4.19z"></path>
<path d="M206.415 213.283c1.093 1.858 3.772 2.332 5.411 1.13 0.747-0.51 1.275-1.312 1.458-2.223l20.625-96.712c0.31-1.184-0.073-2.442-0.911-3.316-0.164-0.182-0.346-0.328-0.529-0.474-0.765-0.583-1.84-0.802-2.769-0.638l-70.603 11.351c-1.002 0.164-1.876 0.692-2.423 1.513-0.146 0.164-0.292 0.382-0.364 0.602-0.565 1.112-0.529 2.387 0.127 3.444l49.977 85.324z"></path>
<path d="M94.379 196.12l93.213 33.014c2.004 0.692 4.373-0.656 4.846-2.642 0.255-0.857 0.127-1.84-0.292-2.642l-46.589-87.219c-0.565-1.093-1.658-1.804-2.843-1.913-0.255-0.054-0.474-0.073-0.729-0.036-0.965 0.036-1.895 0.529-2.532 1.275l-46.643 54.204c-0.674 0.747-0.966 1.713-0.856 2.696-0.018 0.237 0.018 0.492 0.091 0.71 0.291 1.185 1.148 2.15 2.332 2.551z"></path>
<path d="M84.267 287.949c0.127 0.164 0.346 0.328 0.546 0.455 1.057 0.62 2.314 0.729 3.444 0.219l90.043-40.868c1.913-0.911 2.696-3.517 1.658-5.284-0.419-0.784-1.166-1.403-2.041-1.676l-94.070-30.555c-1.129-0.382-2.424-0.164-3.389 0.583-0.201 0.146-0.365 0.31-0.51 0.492-0.674 0.729-1.002 1.695-0.929 2.679l3.972 71.386c0.091 1.038 0.528 1.95 1.275 2.569z"></path>
<path d="M648.851 367.844l-115.77 57.12c-2.496 1.239-3.407 4.683-1.968 6.923 0.601 1.002 1.621 1.767 2.788 2.113l123.933 35.948c1.53 0.455 3.225 0.11 4.428-0.893 0.201-0.2 0.456-0.438 0.656-0.656 0.838-1.021 1.257-2.296 1.13-3.571l-8.144-93.013c-0.146-1.276-0.747-2.459-1.749-3.279-0.237-0.219-0.547-0.382-0.747-0.51-1.457-0.801-3.115-0.856-4.555-0.182z"></path>
<path d="M646.409 352.101c0.054-0.328 0.11-0.601 0.128-0.947 0.037-1.257-0.419-2.514-1.348-3.443l-64.116-67.796c-0.966-1.002-2.15-1.531-3.443-1.531-0.309-0.055-0.62 0-0.911 0.036-1.604 0.255-2.97 1.239-3.644 2.697l-55.334 116.608c-1.166 2.569 0.292 5.794 2.806 6.668 1.111 0.438 2.314 0.382 3.462-0.055l119.505-48.829c1.421-0.529 2.533-1.84 2.897-3.407z"></path>
<path d="M557.077 272.954c-0.146-0.328-0.292-0.565-0.456-0.838-0.711-1.021-1.932-1.731-3.188-1.913l-92.139-14.794c-1.366-0.219-2.642 0.054-3.626 0.874-0.291 0.127-0.529 0.346-0.729 0.601-1.148 1.13-1.603 2.751-1.239 4.337l27.038 126.192c0.583 2.751 3.735 4.428 6.25 3.644 1.13-0.365 2.15-1.13 2.715-2.204l65.118-111.416c0.893-1.403 0.929-3.061 0.255-4.482z"></path>
<path d="M349.186 315.26c-0.11 0.31-0.182 0.637-0.164 0.929-0.127 1.622 0.529 3.171 1.858 4.118l102.050 79.056c2.168 1.712 5.685 1.021 7.106-1.257 0.656-0.984 0.893-2.204 0.674-3.407l-22.028-127.212c-0.255-1.548-1.293-2.897-2.715-3.534-0.346-0.146-0.583-0.255-0.893-0.328-1.202-0.365-2.606-0.127-3.644 0.565l-80.041 48.082c-1.148 0.674-1.95 1.712-2.204 2.988z"></path>
<path d="M332.041 333.517c-1.239-0.966-2.952-1.166-4.428-0.674-0.31 0.146-0.565 0.237-0.856 0.382-1.13 0.637-1.932 1.731-2.241 2.933l-24.287 90.135c-0.365 1.312-0.164 2.623 0.51 3.699 0.073 0.274 0.274 0.546 0.492 0.82 1.021 1.202 2.587 1.858 4.19 1.695l128.378-13.865c2.715-0.328 4.792-3.262 4.209-5.83-0.237-1.166-0.893-2.241-1.895-2.915l-104.072-76.378z"></path>
<path d="M578.175 189.361c-1.53 0.456-2.314 2.314-1.731 3.68 0.274 0.619 0.711 1.148 1.348 1.458l66.284 31.248c0.802 0.382 1.785 0.328 2.569-0.109 0.128-0.073 0.274-0.201 0.383-0.328 0.583-0.456 0.929-1.148 0.966-1.895l3.771-52.838c0.018-0.765-0.201-1.476-0.711-2.004-0.091-0.146-0.255-0.255-0.346-0.364-0.729-0.583-1.658-0.765-2.569-0.492l-69.965 21.645z"></path>
<path d="M572.946 176.715c0.601 0.346 1.293 0.438 1.986 0.274l71.368-16.653c0.82-0.201 1.567-0.82 1.895-1.695 0.073-0.127 0.146-0.31 0.164-0.492 0.146-0.71-0.037-1.458-0.438-2.077l-29.845-43.728c-0.438-0.62-1.111-1.020-1.822-1.184-0.128-0.018-0.346-0.018-0.492-0.018-0.929 0-1.768 0.419-2.278 1.184l-41.468 60.399c-0.893 1.312-0.365 3.28 0.929 3.99z"></path>
<path d="M556.511 166.403c0.656-0.073 1.257-0.438 1.712-0.965l46.497-56.646c0.601-0.674 0.784-1.64 0.51-2.478-0.037-0.201-0.091-0.328-0.164-0.492-0.328-0.656-0.929-1.166-1.604-1.385l-50.342-16.562c-0.729-0.237-1.494-0.201-2.114 0.164-0.182 0.055-0.309 0.146-0.456 0.273-0.729 0.546-1.148 1.403-1.075 2.296l3.826 73.19c0.091 1.585 1.712 2.824 3.207 2.606z"></path>
<path d="M535.54 167.825c1.093 1.148 3.079 1.057 4.1-0.073 0.438-0.474 0.711-1.166 0.692-1.822l-0.947-73.263c-0.018-0.911-0.473-1.767-1.221-2.26-0.164-0.127-0.309-0.219-0.492-0.273-0.638-0.309-1.403-0.273-2.077-0.037l-49.194 19.805c-0.656 0.291-1.185 0.802-1.457 1.494-0.091 0.127-0.164 0.328-0.182 0.492-0.219 0.893 0.036 1.822 0.656 2.478l50.123 53.458z"></path>
<path d="M449.906 173.181l73.19 3.754c1.567 0.054 2.952-1.403 2.915-2.915-0.054-0.674-0.346-1.33-0.838-1.804l-51.508-52.145c-0.565-0.638-1.531-0.911-2.405-0.784-0.182 0.037-0.365 0.073-0.51 0.146-0.692 0.255-1.221 0.765-1.512 1.457l-21.682 48.374c-0.328 0.674-0.346 1.421-0.055 2.113 0.055 0.146 0.091 0.328 0.219 0.492 0.455 0.747 1.276 1.239 2.187 1.312z"></path>
</svg>
