<!-- Generated by IcoMoon.io -->
<svg version="1.1" xmlns="http://www.w3.org/2000/svg" width="417" height="512" viewBox="0 0 417 512">
<title>ComponentPokerCards</title>
<path d="M393.876 19.684h-311.099c-3.54 0-6.907 1.424-9.352 3.983l-58.264 60.477c-3.232 2.367-5.311 6.177-5.311 10.486v404.401c0 7.177 5.811 12.988 12.988 12.988h311.099c3.656 0 6.966-1.52 9.332-3.945l59.938-61.938c2.328-2.425 3.637-5.676 3.637-9.043v-404.42c0.019-7.158-5.791-12.988-12.969-12.988zM88.3 45.66h275.348l-33.827 35.982h-276.175l34.654-35.982zM320.95 486.043h-285.142v-378.425h285.142v378.425zM346.907 466.936v-365.533l33.981-36.136v366.572l-33.981 35.096z"></path>
<path d="M140.098 382.716c9.928 0 17.298-7.062 17.298-18.645v-34.943h31.172c18.703 0 33.923-5.195 45.699-15.798 11.756-10.64 17.529-24.533 17.529-41.793 0-16.99-5.773-30.44-17.298-40.369-11.545-9.91-26.785-14.855-45.929-14.855h-43.62c-13.854 0-21.936 8.255-21.936 22.416v125.359c0.019 11.545 7.177 18.626 17.086 18.626zM157.416 248.64h25.149c23.763 0 35.077 7.312 35.077 23.61s-11.756 24.533-35.077 24.533h-25.149v-48.142z"></path>
</svg>
