<!-- Generated by IcoMoon.io -->
<svg version="1.1" xmlns="http://www.w3.org/2000/svg" width="913" height="512" viewBox="0 0 913 512">
<title>ComponentMartianChess</title>
<path d="M890.069 19.69h-867.321c-7.13 0-12.903 5.793-12.903 12.903v466.502c0 7.13 5.773 12.904 12.903 12.904h867.321c7.13 0 12.923-5.773 12.923-12.904v-466.502c-0.019-7.111-5.793-12.904-12.923-12.904zM877.184 486.212h-841.532v-440.714h841.532v440.714z"></path>
<path d="M491.851 431.691h317.317c7.111 0 12.885-5.773 12.885-12.904v-305.865c0-7.13-5.773-12.903-12.885-12.903h-317.317c-7.111 0-12.904 5.773-12.904 12.903v305.865c0 7.13 5.773 12.904 12.904 12.904zM504.736 343.64h71.133v62.263h-71.133v-62.263zM796.226 269.372v67.539h-62.091v-67.539h62.091zM582.693 269.372h68.896v67.539h-68.896v-67.539zM658.414 195.104h68.915v67.558h-68.915v-67.558zM658.414 343.64h68.915v62.263h-68.915v-62.263zM651.59 188.413h-68.896v-62.588h68.896v62.588zM575.869 195.104v67.558h-71.133v-67.558h71.133zM796.226 188.413h-62.091v-62.588h62.091v62.588z"></path>
<path d="M105.428 428.403h305.254c7.13 0 12.904-5.773 12.904-12.904v-299.289c0-7.13-5.773-12.903-12.904-12.903h-305.254c-7.13 0-12.903 5.773-12.903 12.903v299.289c0 7.13 5.793 12.904 12.903 12.904zM397.779 269.372v67.539h-60.332v-67.539h60.332zM185.986 269.372h68.896v67.539h-68.896v-67.539zM261.726 195.104h68.896v67.558h-68.896v-67.558zM261.726 343.64h68.896v58.974h-68.896v-58.974zM254.881 188.413h-68.896v-59.299h68.896v59.299zM179.18 195.104v67.558h-60.848v-67.558h60.848zM118.332 343.64h60.848v58.974h-60.848v-58.974zM397.779 188.413h-60.332v-59.299h60.332v59.299z"></path>
</svg>
