<!-- Generated by IcoMoon.io -->
<svg version="1.1" xmlns="http://www.w3.org/2000/svg" width="512" height="512" viewBox="0 0 512 512">
<title>ComponentWhiteChecker</title>
<path d="M256 19.707c-135.963 0-246.171 110.209-246.171 246.171s110.209 246.146 246.171 246.146 246.171-110.209 246.171-246.146-110.209-246.171-246.171-246.171zM256 487.116c-122.003 0-221.287-99.26-221.287-221.263s99.26-221.287 221.287-221.287 221.288 99.26 221.288 221.287c0 122.003-99.284 221.263-221.288 221.263z"></path>
<path d="M337.891 247.167l49.443-86.047-94.88 29.064-36.454-92.317-36.454 92.317-94.88-29.064 49.443 86.046-81.891 56.062 98.115 15.005-7.216 98.986 72.884-67.359 72.884 67.36-7.216-98.986 98.115-15.005-81.891-56.062zM317.91 293.623l-22.743 3.483 1.667 22.942 2.613 36.106-43.471-40.187-43.471 40.187 2.637-36.106 1.667-22.942-58.525-8.958 48.871-33.443-11.446-19.931-18.065-31.403 56.609 17.344 8.435-21.399 13.312-33.692 13.313 33.692 8.435 21.375 56.635-17.344-18.065 31.403-11.447 19.931 48.846 33.443-35.807 5.499z"></path>
</svg>
