<!-- Generated by IcoMoon.io -->
<svg version="1.1" xmlns="http://www.w3.org/2000/svg" width="1419" height="512" viewBox="0 0 1419 512">
<title>ComponentBattlemat</title>
<path d="M1303.633 19.7h-1210.899c-47.236 0-82.883 65.532-82.883 152.471 0 67.362 28.359 118.166 65.96 118.166h91.849v221.663h1241.394v-294.087c0-111.152-46.321-198.213-105.419-198.213zM167.658 259.842h-51.932c8.294-16.192 13.356-37.538 13.356-61.934 0-42.387-18.418-73.126-43.79-73.126-21.224 0-36.654 24.67-36.654 58.671 0 8.417 6.831 15.247 15.247 15.247s15.247-6.831 15.247-15.247c0-17.686 5.886-27.262 5.977-28.177 4.055 1.037 13.478 16.894 13.478 42.631 0 38.423-14.76 61.934-22.81 61.934-14.454 0-35.465-34.154-35.465-87.671 0-69.832 27.659-121.978 52.389-121.978 35.435 0 74.924 68.886 74.924 167.719v41.93zM1378.557 481.505h-1180.406v-263.593c0-71.54-19.242-132.925-48.669-167.719h1154.15c35.435 0 74.925 68.886 74.925 167.719v263.593z"></path>
<path d="M1212.242 121.612h-956.79v328.089h1072.211v-328.089h-115.421zM1008.753 334.279v-97.246h97.216v97.216h-97.216zM1105.968 343.458v97.094h-97.216v-97.094h97.216zM902.51 237.032h97.094v97.216h-97.094v-97.216zM1008.753 227.915v-97.155h97.216v97.155h-97.216zM1115.117 237.032h97.124v97.216h-97.124v-97.216zM1212.242 227.915h-97.124v-97.155h97.124v97.155zM999.574 130.76v97.155h-97.094v-97.155h97.094zM689.813 334.279v-97.246h97.216v97.216h-97.216zM787.029 343.458v97.094h-97.216v-97.094h97.216zM370.872 334.279v-97.246h97.216v97.216h-97.216zM468.088 343.458v97.094h-97.216v-97.094h97.216zM361.724 334.279h-97.125v-97.246h97.155v97.246zM370.872 227.915v-97.155h97.216v97.155h-97.216zM477.236 237.032h97.155v97.216h-97.155v-97.216zM583.509 237.032h97.155v97.216h-97.155v-97.216zM689.813 227.915v-97.155h97.216v97.155h-97.216zM796.177 237.032h97.125v97.216h-97.125v-97.216zM893.301 227.915h-97.125v-97.155h97.125v97.155zM680.664 130.76v97.155h-97.155v-97.155h97.155zM574.361 227.915h-97.125v-97.155h97.155v97.155zM361.724 130.76v97.155h-97.125v-97.155h97.125zM264.599 343.458h97.155v97.094h-97.155v-97.094zM477.236 440.521v-97.094h97.155v97.094h-97.155zM583.509 343.458h97.155v97.094h-97.155v-97.094zM796.177 440.521v-97.094h97.125v97.094h-97.125zM902.51 343.458h97.094v97.094h-97.094v-97.094zM1212.242 440.521h-97.124v-97.094h97.124v97.094zM1318.484 440.521h-97.094v-97.094h97.094v97.094zM1318.484 334.279h-97.094v-97.246h97.094v97.246zM1318.484 130.76v97.155h-97.094v-97.155h97.094z"></path>
</svg>
