<!-- Generated by IcoMoon.io -->
<svg version="1.1" xmlns="http://www.w3.org/2000/svg" width="417" height="512" viewBox="0 0 417 512">
<title>ComponentDectetCards</title>
<path d="M393.876 19.684h-311.099c-3.54 0-6.907 1.424-9.352 3.983l-58.264 60.477c-3.232 2.367-5.311 6.177-5.311 10.486v404.401c0 7.177 5.811 12.988 12.988 12.988h311.099c3.656 0 6.966-1.52 9.332-3.945l59.938-61.938c2.328-2.425 3.637-5.676 3.637-9.043v-404.42c0.019-7.158-5.791-12.988-12.969-12.988zM320.95 486.043h-285.142v-378.425h285.142v378.425zM329.82 81.642h-276.175l34.654-35.982h275.348l-33.827 35.982zM380.887 431.82l-33.981 35.096v-365.514l33.981-36.136v366.553z"></path>
<path d="M143.696 378.829h31.383c22.84 0 43.851-6.465 61.38-18.683 17.548-12.7 28.863-34.846 28.863-63.228 0-27.939-11.314-50.086-29.094-61.843-17.548-12.007-38.079-17.779-61.15-17.779h-31.383c-13.834 0-21.916 8.082-21.916 21.935v117.701c0 13.834 8.082 21.897 21.916 21.897zM156.165 248.929h13.623c40.388 0 60.688 15.932 60.688 48.008 0 33.461-20.069 50.298-60.476 50.298h-13.834v-98.305z"></path>
</svg>
