<!-- Generated by IcoMoon.io -->
<svg version="1.1" xmlns="http://www.w3.org/2000/svg" width="794" height="512" viewBox="0 0 794 512">
<title>ComponentDominos</title>
<path d="M462.731 255.94h-413.442c-21.75 0-39.435 17.705-39.435 39.455v177.19c0 21.75 17.705 39.435 39.435 39.435h413.442c21.75 0 39.435-17.705 39.435-39.435v-177.19c0-21.769-17.685-39.455-39.435-39.455zM482.339 472.565c0 10.825-8.783 19.608-19.608 19.608h-413.442c-10.806 0-19.608-8.783-19.608-19.608v-177.19c0-10.825 8.803-19.628 19.608-19.628h413.442c10.825 0 19.608 8.803 19.608 19.628v177.19z"></path>
<path d="M256 299.459c-5.472 0-9.913 4.461-9.913 9.913v149.195c0 5.472 4.441 9.913 9.913 9.913s9.913-4.441 9.913-9.913v-149.195c0-5.472-4.441-9.913-9.913-9.913z"></path>
<path d="M155.004 383.961c0 10.611-8.601 19.212-19.212 19.212s-19.212-8.601-19.212-19.212c0-10.611 8.602-19.212 19.212-19.212s19.212 8.601 19.212 19.212z"></path>
<path d="M743.951 19.688h-177.17c-21.769 0-39.455 17.705-39.455 39.435v413.442c0 21.75 17.705 39.435 39.455 39.435h177.17c21.769 0 39.475-17.705 39.475-39.435v-413.442c0.020-21.73-17.705-39.435-39.475-39.435zM763.619 472.565c0 10.825-8.803 19.608-19.648 19.608h-177.17c-10.826 0-19.629-8.783-19.629-19.608v-413.442c0-10.806 8.803-19.608 19.629-19.608h177.17c10.845 0 19.648 8.803 19.648 19.608v413.442z"></path>
<path d="M729.953 255.94h-149.174c-5.472 0-9.913 4.441-9.913 9.913s4.441 9.913 9.913 9.913h149.174c5.472 0 9.913-4.441 9.913-9.913s-4.422-9.913-9.913-9.913z"></path>
<path d="M618.072 150.126c0 10.6-8.592 19.192-19.192 19.192s-19.192-8.593-19.192-19.192c0-10.6 8.592-19.192 19.192-19.192s19.192 8.593 19.192 19.192z"></path>
<path d="M616.962 204.868c0 10.6-8.592 19.192-19.192 19.192s-19.192-8.593-19.192-19.192c0-10.6 8.592-19.192 19.192-19.192s19.192 8.593 19.192 19.192z"></path>
<path d="M729.953 204.868c0 10.6-8.592 19.192-19.192 19.192s-19.192-8.593-19.192-19.192c0-10.6 8.592-19.192 19.192-19.192s19.192 8.593 19.192 19.192z"></path>
<path d="M616.962 96.754c0 10.6-8.592 19.192-19.192 19.192s-19.192-8.593-19.192-19.192c0-10.6 8.592-19.192 19.192-19.192s19.192 8.593 19.192 19.192z"></path>
<path d="M729.953 96.754c0 10.6-8.592 19.192-19.192 19.192s-19.192-8.593-19.192-19.192c0-10.6 8.592-19.192 19.192-19.192s19.192 8.593 19.192 19.192z"></path>
<path d="M404.818 393.457c0 10.611-8.601 19.212-19.212 19.212s-19.212-8.601-19.212-19.212c0-10.611 8.601-19.212 19.212-19.212s19.212 8.601 19.212 19.212z"></path>
<path d="M347.202 448.199c0 10.599-8.592 19.192-19.192 19.192s-19.192-8.592-19.192-19.192c0-10.599 8.592-19.192 19.192-19.192s19.192 8.592 19.192 19.192z"></path>
<path d="M460.193 448.199c0 10.599-8.592 19.192-19.192 19.192s-19.192-8.592-19.192-19.192c0-10.599 8.592-19.192 19.192-19.192s19.192 8.592 19.192 19.192z"></path>
<path d="M347.202 340.104c0 10.599-8.592 19.192-19.192 19.192s-19.192-8.592-19.192-19.192c0-10.599 8.592-19.192 19.192-19.192s19.192 8.592 19.192 19.192z"></path>
<path d="M460.193 340.104c0 10.599-8.592 19.192-19.192 19.192s-19.192-8.592-19.192-19.192c0-10.599 8.592-19.192 19.192-19.192s19.192 8.592 19.192 19.192z"></path>
<path d="M675.648 392.764c0 10.599-8.592 19.192-19.192 19.192s-19.192-8.592-19.192-19.192c0-10.599 8.592-19.192 19.192-19.192s19.192 8.592 19.192 19.192z"></path>
<path d="M618.072 447.505c0 10.599-8.592 19.192-19.192 19.192s-19.192-8.592-19.192-19.192c0-10.599 8.592-19.192 19.192-19.192s19.192 8.592 19.192 19.192z"></path>
<path d="M731.043 447.505c0 10.599-8.592 19.192-19.192 19.192s-19.192-8.592-19.192-19.192c0-10.599 8.592-19.192 19.192-19.192s19.192 8.592 19.192 19.192z"></path>
<path d="M618.072 339.41c0 10.599-8.592 19.192-19.192 19.192s-19.192-8.592-19.192-19.192c0-10.599 8.592-19.192 19.192-19.192s19.192 8.592 19.192 19.192z"></path>
<path d="M731.043 339.41c0 10.599-8.592 19.192-19.192 19.192s-19.192-8.592-19.192-19.192c0-10.599 8.592-19.192 19.192-19.192s19.192 8.592 19.192 19.192z"></path>
<path d="M674.558 204.868c0 10.6-8.592 19.192-19.192 19.192s-19.192-8.593-19.192-19.192c0-10.6 8.592-19.192 19.192-19.192s19.192 8.593 19.192 19.192z"></path>
<path d="M729.953 150.126c0 10.6-8.592 19.192-19.192 19.192s-19.192-8.593-19.192-19.192c0-10.6 8.592-19.192 19.192-19.192s19.192 8.593 19.192 19.192z"></path>
<path d="M675.648 96.754c0 10.6-8.592 19.192-19.192 19.192s-19.192-8.593-19.192-19.192c0-10.6 8.592-19.192 19.192-19.192s19.192 8.593 19.192 19.192z"></path>
</svg>
