<!-- Generated by IcoMoon.io -->
<svg version="1.1" xmlns="http://www.w3.org/2000/svg" width="563" height="512" viewBox="0 0 563 512">
<title>ComponentPokerChips</title>
<path d="M381.142 101.698v-34.289c0-63.636-234.952-63.617-234.952 0v122.123c-64.305-3.792-136.34 11.913-136.34 47.132v181.111c0 8.716 4.535 16.225 12.154 22.618 20.239 17.024 62.929 25.852 105.322 25.852 6.393 0 12.768-0.279 19.087-0.669 2.509 30.461 60.142 46.425 117.253 46.425 58.375 0 117.476-16.652 117.476-48.452v-9.237c16.95 3.438 35.757 5.278 54.622 5.278 38.341 0 76.886-7.229 98.872-21.168 11.504-7.304 18.585-16.373 18.585-27.301v-266.64c0.019-42.040-102.496-56.294-172.079-42.783zM263.666 37.542c60.365 0 98.891 17.693 98.891 29.866 0 0.706-0.576 1.468-0.837 2.212-0.111 0.371-0.223 0.743-0.39 1.115-1.171 2.305-3.308 4.647-6.672 7.043-2.825 1.989-6.579 3.94-10.853 5.817-4.144 1.84-8.921 3.531-14.31 5.111-8.475 2.509-18.288 4.627-29.513 6.115-10.984 1.468-23.009 2.434-36.315 2.434s-25.313-0.966-36.315-2.434c-11.226-1.505-21.038-3.606-29.494-6.114-5.371-1.579-10.184-3.29-14.31-5.111-4.274-1.895-8.010-3.829-10.853-5.817-3.419-2.379-5.52-4.739-6.691-7.043-0.186-0.391-0.298-0.743-0.409-1.115-0.26-0.743-0.817-1.505-0.817-2.212 0-12.173 38.508-29.866 98.891-29.866zM164.775 114.893v-20.183c22.023 13.939 60.55 21.169 98.891 21.169s76.849-7.23 98.891-21.168v29.085c-0.502 0.558-0.948 1.115-1.561 1.654-0.502 0.483-1.338 0.948-1.933 1.412-1.635 1.32-3.271 2.62-5.371 3.885-3.159 1.915-6.858 3.717-11.077 5.446-0.186 0.075-0.428 0.149-0.613 0.242-5.074 2.044-10.63 3.977-17.061 5.631-2.045 0.539-4.349 0.948-6.542 1.412-6.319 1.357-12.991 2.565-20.239 3.476-10.687 1.338-22.079 2.249-34.512 2.249s-23.808-0.892-34.494-2.23c-9.738-1.226-18.808-2.825-26.781-4.888-6.654-1.728-12.434-3.736-17.674-5.873-4.219-1.728-7.899-3.549-11.077-5.464-2.881-1.728-5.352-3.475-7.304-5.296-0.595-0.558-1.041-1.115-1.542-1.654v-8.902zM362.558 403.463v21.503c-0.502 0.558-0.948 1.134-1.561 1.691-0.725 0.651-1.487 1.283-2.286 1.933-0.223 0.186-0.39 0.372-0.613 0.539-1.19 0.873-2.825 1.691-4.256 2.546-4.312 2.658-9.441 5.148-15.649 7.434-0.576 0.204-0.985 0.428-1.561 0.632-2.397 0.837-5.223 1.524-7.861 2.267-17.34 5-39.363 8.363-65.103 8.363-15.147 0-28.844-1.264-41.221-3.252-8.661-1.375-16.782-3.067-23.919-5.111-2.583-0.743-5.371-1.413-7.75-2.23-0.018-0.019-0.075-0.019-0.093-0.037-7.006-2.435-12.508-5.185-17.21-8.084-1.394-0.855-3.048-1.673-4.238-2.546-1.115-0.837-2.026-1.654-2.936-2.49-0.595-0.558-1.041-1.134-1.542-1.691v-30.405c2.602 1.858 5.594 3.587 8.846 5.241 0.371 0.186 0.817 0.334 1.19 0.502 3.438 1.728 7.1 3.364 11.188 4.813 1.338 0.483 2.974 0.837 4.368 1.301 3.865 1.245 7.713 2.546 12.043 3.568 6.375 1.543 13.214 2.825 20.444 3.865 1.060 0.149 2.286 0.168 3.364 0.298 5.947 0.743 12.192 1.226 18.585 1.617 1.599 0.093 3.030 0.334 4.647 0.39 4.684 0.223 9.329 0.483 14.236 0.483s9.553-0.279 14.236-0.483c9.255-0.428 18.25-1.134 26.595-2.305 4.888-0.706 9.311-1.691 13.808-2.62 2.156-0.446 4.553-0.743 6.598-1.245 4.312-1.041 8.14-2.305 11.988-3.55 1.413-0.464 3.085-0.837 4.423-1.32 4.535-1.617 8.642-3.401 12.377-5.315 2.361-1.19 4.386-2.527 6.467-3.81 0.762 0.26 1.599 0.483 2.397 0.743v6.765zM241.718 243.78c0.985 0.075 2.063 0.037 3.066 0.112 6.151 0.371 12.377 0.669 18.882 0.669 7.546 0 14.868-0.279 21.93-0.78 11.839-0.837 22.637-2.49 32.691-4.59 2.193-0.446 4.591-0.78 6.69-1.301 4.274-1.041 8.066-2.304 11.913-3.549 1.413-0.464 3.085-0.837 4.461-1.338 4.498-1.617 8.605-3.401 12.341-5.297 2.063-1.060 3.81-2.212 5.632-3.327 0.985 0.353 2.175 0.632 3.234 0.966v27.506c-0.502 0.558-0.948 1.115-1.561 1.654-0.799 0.762-2.026 1.468-3.011 2.193-1.375 1.041-2.62 2.1-4.274 3.103-1.673 1.003-3.847 1.914-5.78 2.844-1.784 0.855-3.308 1.784-5.296 2.602-1.822 0.743-3.773 1.45-5.743 2.137-3.699 1.32-7.582 2.602-11.95 3.736-2.082 0.539-4.423 0.966-6.654 1.45-6.282 1.356-12.898 2.546-20.109 3.438-10.687 1.338-22.079 2.249-34.512 2.249-6.579 0-12.823-0.279-18.882-0.725-5.389-0.39-10.612-0.892-15.649-1.543-1.022-0.13-1.933-0.316-2.936-0.446-6.282-0.855-12.173-1.914-17.73-3.103-2.026-0.446-4.2-0.817-6.114-1.32-6.654-1.728-12.434-3.717-17.656-5.873-2.732-1.115-4.888-2.341-7.192-3.531-1.245-0.651-2.769-1.245-3.885-1.914-2.881-1.728-5.352-3.494-7.322-5.315-0.595-0.558-1.041-1.115-1.542-1.654v-30.405c2.602 1.858 5.594 3.606 8.846 5.26 3.717 1.915 7.843 3.68 12.34 5.297 5.036 1.821 10.5 3.457 16.392 4.888 6.597 1.599 13.809 2.862 21.317 3.903 5.835 0.855 11.783 1.561 18.065 2.007zM164.775 277.698v-12.248c2.62 1.858 5.594 3.606 8.865 5.26 3.717 1.914 7.843 3.68 12.34 5.296 1.71 0.613 3.773 1.096 5.576 1.654 3.512 1.115 6.951 2.286 10.835 3.215 7.322 1.784 15.425 3.085 23.845 4.181 5.055 0.669 10.129 1.32 15.537 1.71 0.985 0.075 2.063 0.037 3.048 0.111 6.151 0.39 12.377 0.669 18.882 0.669 7.546 0 14.849-0.279 21.912-0.781 11.858-0.837 22.637-2.509 32.709-4.591 2.193-0.446 4.572-0.781 6.654-1.283 4.274-1.041 8.103-2.305 11.95-3.55 1.413-0.464 3.085-0.817 4.461-1.32 4.498-1.617 8.605-3.401 12.341-5.296 2.063-1.060 3.773-2.212 5.594-3.327 1.022 0.353 2.212 0.632 3.271 0.966v27.524c-0.502 0.558-0.948 1.115-1.561 1.654-0.725 0.688-1.822 1.301-2.695 1.952-1.45 1.134-2.788 2.267-4.609 3.364-1.673 1.003-3.847 1.914-5.817 2.844-1.747 0.873-3.271 1.784-5.26 2.62-1.822 0.725-3.773 1.431-5.743 2.118-3.699 1.338-7.582 2.62-11.95 3.736-2.082 0.539-4.423 0.966-6.654 1.45-6.282 1.338-12.898 2.546-20.091 3.438-10.705 1.338-22.098 2.249-34.531 2.249-6.579 0-12.823-0.279-18.882-0.706-5.389-0.39-10.612-0.911-15.649-1.543-1.022-0.13-1.933-0.316-2.936-0.428-6.746-0.93-13.047-2.045-18.938-3.382-1.617-0.39-3.364-0.669-4.906-1.078-4.163-1.078-7.88-2.286-11.448-3.55-2.137-0.743-4.256-1.505-6.226-2.305-4.219-1.747-7.899-3.55-11.077-5.464-2.881-1.728-5.352-3.494-7.322-5.315-0.595-0.539-1.041-1.096-1.542-1.654v-18.195zM362.558 360.439v21.503c-0.502 0.558-0.948 1.115-1.561 1.673-0.688 0.651-1.784 1.264-2.62 1.914-1.487 1.152-2.825 2.286-4.683 3.401-1.561 0.93-3.587 1.784-5.409 2.676-1.896 0.93-3.494 1.914-5.632 2.769-1.822 0.743-3.81 1.45-5.78 2.156-3.699 1.32-7.582 2.602-11.988 3.736-2.063 0.521-4.386 0.966-6.616 1.431-6.3 1.338-12.973 2.527-20.183 3.438-10.668 1.338-22.042 2.249-34.438 2.249-6.579 0-12.823-0.279-18.882-0.725-5.352-0.39-10.556-0.892-15.575-1.524-1.041-0.13-1.988-0.316-3.011-0.446-6.746-0.911-13.066-2.045-18.957-3.364-1.599-0.372-3.327-0.651-4.851-1.060-4.219-1.096-7.973-2.323-11.56-3.587-2.119-0.762-4.238-1.505-6.17-2.305-4.2-1.728-7.88-3.531-11.058-5.445-2.862-1.728-5.334-3.494-7.304-5.296-0.595-0.558-1.041-1.115-1.542-1.673v-30.405c2.602 1.858 5.594 3.587 8.846 5.241 0.353 0.186 0.817 0.334 1.171 0.502 3.438 1.71 7.081 3.346 11.151 4.813 1.45 0.521 3.215 0.93 4.739 1.413 3.773 1.208 7.471 2.453 11.653 3.476 7.322 1.784 15.425 3.085 23.863 4.2 4.962 0.632 9.924 1.283 15.221 1.673 1.078 0.075 2.268 0.056 3.364 0.13 6.151 0.372 12.378 0.669 18.883 0.669 7.657 0 15.091-0.298 22.228-0.799 11.709-0.855 22.432-2.509 32.394-4.553 2.193-0.446 4.591-0.799 6.69-1.301 4.274-1.041 8.066-2.305 11.913-3.531 1.45-0.464 3.123-0.855 4.498-1.338 4.461-1.635 8.605-3.42 12.303-5.315 2.249-1.134 4.144-2.379 6.058-3.587 0.873 0.316 1.896 0.521 2.788 0.817v6.375zM362.558 317.396v21.54c-0.502 0.558-0.948 1.115-1.561 1.654-0.688 0.669-1.822 1.283-2.658 1.933-1.487 1.134-2.825 2.286-4.647 3.382-1.524 0.93-3.55 1.765-5.334 2.639-1.896 0.948-3.55 1.933-5.705 2.807-1.822 0.743-3.81 1.45-5.78 2.156-3.699 1.32-7.546 2.602-11.913 3.699-2.1 0.539-4.461 0.985-6.69 1.45-6.263 1.338-12.861 2.546-20.016 3.457-10.724 1.338-22.154 2.249-34.606 2.249-6.579 0-12.823-0.279-18.882-0.706-5.409-0.39-10.668-0.911-15.723-1.543-1.004-0.13-1.895-0.316-2.862-0.428-6.746-0.93-13.066-2.063-18.957-3.401-1.617-0.372-3.382-0.669-4.925-1.078-4.144-1.060-7.862-2.267-11.393-3.512-2.156-0.762-4.293-1.524-6.263-2.341-4.2-1.728-7.88-3.531-11.058-5.445-2.862-1.728-5.352-3.494-7.304-5.315-0.595-0.539-1.022-1.096-1.542-1.654v-30.424c2.602 1.858 5.594 3.587 8.846 5.26 0.353 0.186 0.78 0.316 1.133 0.483 3.457 1.71 7.137 3.327 11.226 4.813 1.45 0.521 3.178 0.911 4.702 1.394 3.773 1.208 7.49 2.472 11.69 3.494 7.322 1.784 15.407 3.103 23.845 4.2 5.018 0.651 10.036 1.301 15.388 1.691 1.041 0.075 2.156 0.056 3.196 0.111 6.133 0.372 12.378 0.669 18.883 0.669 7.601 0 14.961-0.298 22.079-0.781 11.783-0.855 22.543-2.509 32.543-4.591 2.193-0.446 4.572-0.781 6.654-1.283 4.274-1.060 8.103-2.305 11.95-3.55 1.413-0.446 3.085-0.837 4.461-1.32 4.498-1.635 8.605-3.401 12.341-5.296 2.063-1.060 3.773-2.212 5.594-3.346 1.022 0.372 2.212 0.632 3.271 0.966v5.966zM164.775 157.917v-21.522c2.602 1.858 5.594 3.606 8.846 5.26 3.736 1.915 7.843 3.68 12.359 5.316 5.036 1.821 10.5 3.457 16.392 4.888 11.69 2.825 24.904 4.851 39.308 5.873 7.081 0.502 14.422 0.78 22.005 0.78s14.905-0.279 22.005-0.78c11.801-0.837 22.581-2.49 32.617-4.572 2.193-0.446 4.572-0.78 6.654-1.301 4.758-1.153 9.033-2.528 13.251-3.94 1.022-0.334 2.175-0.576 3.159-0.929 4.498-1.617 8.605-3.401 12.341-5.315 3.271-1.654 6.245-3.401 8.865-5.26v30.405c-0.502 0.558-0.948 1.115-1.561 1.673-1.952 1.821-4.423 3.569-7.304 5.297-1.952 1.171-4.461 2.249-6.784 3.345-1.487 0.688-2.658 1.45-4.274 2.119-1.822 0.744-3.773 1.45-5.743 2.137-3.699 1.32-7.582 2.602-11.95 3.736-2.082 0.539-4.423 0.966-6.654 1.45-6.282 1.357-12.898 2.546-20.109 3.438-10.687 1.338-22.079 2.249-34.512 2.249s-23.826-0.911-34.512-2.249c-9.738-1.208-18.808-2.825-26.781-4.888-6.654-1.728-12.434-3.717-17.674-5.873-4.219-1.728-7.899-3.531-11.077-5.446-2.881-1.747-5.371-3.512-7.322-5.334-0.595-0.558-1.041-1.115-1.542-1.673v-8.883zM164.775 188.322v-8.902c2.62 1.858 5.594 3.587 8.865 5.26 3.717 1.915 7.843 3.68 12.34 5.297 5.036 1.821 10.5 3.457 16.392 4.888 11.709 2.825 24.959 4.869 39.382 5.873 7.063 0.502 14.366 0.78 21.93 0.78s14.868-0.279 21.93-0.78c11.839-0.837 22.637-2.509 32.691-4.59 2.193-0.446 4.572-0.78 6.654-1.282 4.274-1.041 8.103-2.304 11.95-3.549 1.413-0.464 3.085-0.817 4.461-1.32 4.498-1.617 8.605-3.401 12.341-5.297 1.822-0.929 3.346-1.952 4.981-2.955 1.226 0.428 2.584 0.817 3.885 1.226v26.893c-0.502 0.558-0.948 1.115-1.561 1.654-0.799 0.762-2.026 1.468-3.011 2.212-1.375 1.041-2.62 2.082-4.274 3.103-1.673 1.004-3.847 1.895-5.78 2.844-1.784 0.874-3.308 1.784-5.296 2.602-1.822 0.744-3.773 1.431-5.743 2.137-3.699 1.32-7.582 2.602-11.913 3.717-2.1 0.539-4.461 0.966-6.69 1.45-6.263 1.338-12.88 2.528-20.053 3.438-10.705 1.338-22.116 2.268-34.568 2.268-6.654 0-12.991-0.298-19.124-0.744-5.316-0.391-10.464-0.892-15.444-1.524-1.561-0.204-2.992-0.464-4.516-0.688-7.973-1.133-15.537-2.472-22.246-4.2-6.654-1.71-12.415-3.717-17.656-5.855-4.219-1.728-7.899-3.531-11.077-5.446-2.862-1.728-5.352-3.494-7.304-5.315-0.595-0.558-1.041-1.115-1.542-1.654v-21.54zM127.326 206.796c6.598 0 12.805 0.298 18.864 0.688v58.394c-6.003 0.409-12.266 0.669-18.864 0.669-13.288 0-25.313-0.966-36.315-2.435-11.225-1.505-21.038-3.606-29.495-6.115-5.371-1.579-10.203-3.29-14.329-5.111-4.274-1.895-8.010-3.828-10.854-5.817-3.401-2.398-5.52-4.758-6.672-7.043-0.204-0.391-0.297-0.744-0.409-1.115-0.26-0.744-0.817-1.506-0.817-2.212 0-12.21 38.527-29.904 98.891-29.904zM28.435 284.259v-20.295c22.024 13.939 60.569 21.168 98.891 21.168 6.319 0 12.6-0.298 18.864-0.669v33.305c-6.040 0.428-12.303 0.706-18.864 0.706-12.415 0-23.826-0.911-34.513-2.249-9.739-1.226-18.808-2.825-26.781-4.906-6.635-1.71-12.434-3.68-17.674-5.817-4.2-1.747-7.88-3.55-11.076-5.483-2.862-1.71-5.334-3.494-7.304-5.296-0.595-0.539-1.041-1.096-1.543-1.673v-8.791zM28.435 327.246v-21.596c2.602 1.858 5.594 3.568 8.847 5.241 3.736 1.896 7.861 3.661 12.359 5.296 5.037 1.822 10.501 3.457 16.392 4.87 11.709 2.825 24.922 4.87 39.308 5.873 7.081 0.502 14.403 0.799 22.005 0.799 6.505 0 12.731-0.316 18.864-0.688v33.695c-6.040 0.428-12.303 0.706-18.864 0.706-12.415 0-23.826-0.911-34.513-2.249-9.739-1.19-18.808-2.825-26.781-4.87-6.635-1.747-12.415-3.736-17.656-5.873-4.219-1.747-7.898-3.55-11.077-5.445-2.88-1.747-5.352-3.494-7.322-5.296-0.595-0.576-1.041-1.134-1.543-1.673v-8.791zM28.435 370.308v-21.67c2.62 1.858 5.613 3.587 8.865 5.26 3.717 1.933 7.843 3.661 12.34 5.296 5.036 1.822 10.501 3.457 16.392 4.906 11.727 2.825 24.978 4.87 39.382 5.873 7.063 0.464 14.367 0.762 21.93 0.762 6.505 0 12.731-0.298 18.864-0.651v33.844c-6.040 0.409-12.322 0.632-18.864 0.632-25.721 0-47.727-3.346-65.029-8.344-5.055-1.45-9.739-3.048-13.939-4.758-3.642-1.487-6.728-3.085-9.645-4.721-0.483-0.334-1.096-0.576-1.58-0.873-0.148-0.111-0.279-0.186-0.409-0.26-2.602-1.599-4.944-3.234-6.747-4.906-0.595-0.539-1.041-1.134-1.543-1.673v-8.716zM28.435 417.774v-4.461c0.037 0.037 0.075 0.075 0.111 0.075-0.018-0.075-0.111-0.186-0.111-0.26v-21.373c3.829 2.714 8.438 5.26 13.641 7.546 1.356 0.613 3.011 1.096 4.553 1.635 1.041 0.39 1.895 0.911 2.974 1.264 0.148-0.037 0.334-0.075 0.465-0.149 19.886 7.267 46.462 11.801 77.24 11.801 6.524 0 12.75-0.316 18.864-0.688v33.75c-6.059 0.39-12.266 0.688-18.864 0.688-60.346 0.056-98.873-17.656-98.873-29.829zM362.558 458.884c0 0.093-0.111 0.204-0.111 0.279 0.037-0.019 0.075-0.037 0.111-0.075v4.442c0 12.173-38.527 29.866-98.891 29.866-59.956 0-98.278-17.433-98.798-29.606 0-0.093-0.093-0.186-0.093-0.279v-4.442c0.037 0.037 0.075 0.056 0.112 0.075 0-0.075-0.112-0.186-0.112-0.279v-21.317c2.918 2.063 6.412 3.996 10.166 5.817 1.171 0.576 2.249 1.171 3.494 1.728 1.691 0.743 3.828 1.301 5.631 2.007 6.97 2.676 15.128 4.851 23.77 6.728 16.262 3.587 34.995 5.817 55.848 5.817 31.911 0 59.472-4.832 79.618-12.545 1.822-0.706 3.921-1.264 5.632-2.007 0.149-0.075 0.298-0.168 0.464-0.241 5.018-2.249 9.478-4.683 13.177-7.322v21.354zM534.655 385.175v21.298c0 0.075-0.111 0.186-0.111 0.26 0.037 0 0.074-0.037 0.111-0.075v4.479c0 12.154-38.509 29.866-98.873 29.866-21.243 0-39.531-2.267-54.622-5.632v-33.676c16.002 3.42 34.308 5.538 54.621 5.538 31.911 0 59.491-4.832 79.6-12.526 1.822-0.725 3.958-1.264 5.631-2.026 5.222-2.286 9.832-4.832 13.641-7.546v0.037zM534.655 342.151v30.387c-0.502 0.539-0.948 1.134-1.561 1.673-0.91 0.837-1.822 1.673-2.899 2.509-1.171 0.873-2.825 1.673-4.219 2.546-4.721 2.862-10.24 5.632-17.247 8.066-2.397 0.837-5.223 1.524-7.843 2.286-17.358 4.981-39.344 8.344-65.122 8.344-20.871 0-39.159-2.286-54.622-5.78v-33.341c4.498 0.93 8.921 1.914 13.827 2.602 8.308 1.19 17.322 1.896 26.577 2.323 4.683 0.223 9.329 0.464 14.236 0.464s9.553-0.26 14.236-0.464c9.255-0.428 18.25-1.134 26.614-2.323 7.229-1.022 14.050-2.323 20.444-3.847 5.873-1.413 11.356-3.048 16.41-4.906 4.497-1.599 8.642-3.382 12.378-5.296 3.234-1.673 6.245-3.42 8.828-5.26v0.019zM534.655 307.991v21.503c-0.502 0.539-0.948 1.096-1.524 1.673-1.952 1.822-4.423 3.55-7.304 5.296-3.197 1.896-6.858 3.699-11.077 5.445-5.223 2.137-11.039 4.144-17.712 5.873-7.991 2.063-17.061 3.661-26.818 4.87-10.668 1.338-22.042 2.249-34.457 2.249-12.377 0-23.77-0.911-34.457-2.249-7.229-0.892-13.901-2.063-20.183-3.438v-33.007c10.017 2.082 20.834 3.736 32.709 4.572 7.043 0.502 14.366 0.799 21.93 0.799s14.887-0.298 21.93-0.799c14.44-1.022 27.692-3.048 39.382-5.873 5.91-1.413 11.356-3.048 16.41-4.87 4.497-1.635 8.605-3.42 12.341-5.296 3.234-1.673 6.207-3.42 8.828-5.26v8.512zM534.655 265.395v21.131c-0.502 0.539-0.948 1.096-1.524 1.635-1.952 1.858-4.423 3.587-7.304 5.334-3.197 1.896-6.858 3.699-11.077 5.445-5.223 2.137-11.002 4.144-17.637 5.836-7.991 2.063-17.024 3.661-26.744 4.906-10.705 1.338-22.135 2.249-34.587 2.249s-23.882-0.911-34.587-2.249c-7.192-0.911-13.79-2.1-20.034-3.457v-32.988c10.055 2.082 20.871 3.754 32.709 4.591 7.081 0.502 14.366 0.781 21.93 0.781s14.887-0.279 21.93-0.781c14.404-1.022 27.654-3.048 39.344-5.873 5.91-1.413 11.392-3.048 16.41-4.888 4.497-1.617 8.642-3.401 12.341-5.296 3.271-1.673 6.245-3.42 8.865-5.26v8.884zM534.655 222.333v21.54c-0.502 0.539-0.948 1.133-1.524 1.673-1.952 1.821-4.423 3.569-7.341 5.297-3.159 1.933-6.858 3.736-11.077 5.446-5.223 2.156-11.002 4.163-17.675 5.873-7.954 2.063-17.024 3.661-26.744 4.888-10.668 1.338-22.098 2.249-34.512 2.249s-23.808-0.911-34.512-2.249c-7.192-0.892-13.827-2.082-20.109-3.438v-33.398c10.055 2.082 20.834 3.736 32.635 4.572 7.081 0.502 14.404 0.78 22.005 0.78s14.924-0.279 22.005-0.78c14.366-1.022 27.618-3.030 39.27-5.855 5.91-1.431 11.392-3.066 16.411-4.906 4.497-1.617 8.642-3.382 12.378-5.297 3.234-1.673 6.207-3.419 8.828-5.26v8.865zM534.655 176.019v24.848c-0.502 0.539-0.948 1.096-1.524 1.654-1.952 1.821-4.423 3.569-7.304 5.315-3.197 1.915-6.895 3.698-11.077 5.446-5.26 2.137-11.039 4.144-17.712 5.873-7.954 2.063-17.024 3.643-26.744 4.869-10.668 1.338-22.098 2.249-34.512 2.249s-23.808-0.911-34.512-2.249c-7.192-0.892-13.827-2.082-20.109-3.419v-32.84c16.95 3.438 35.795 5.185 54.622 5.185 38.341 0 76.886-7.23 98.872-21.168v4.238zM533.856 146.673c-0.149 0.391-0.223 0.744-0.428 1.115-1.171 2.304-3.271 4.665-6.672 7.063-2.825 1.988-6.579 3.94-10.854 5.817-4.144 1.84-8.921 3.512-14.31 5.111-8.456 2.509-18.25 4.609-29.476 6.114-11.002 1.468-23.046 2.453-36.334 2.453s-25.294-0.985-36.296-2.453c-6.672-0.892-12.675-2.044-18.325-3.308v-48.377c15.11-3.364 33.397-5.612 54.621-5.612 60.365 0 98.873 17.693 98.873 29.885 0 0.688-0.558 1.45-0.799 2.193z"></path>
</svg>
