<!-- Generated by IcoMoon.io -->
<svg version="1.1" xmlns="http://www.w3.org/2000/svg" width="477" height="512" viewBox="0 0 477 512">
<title>ComponentHexPaper</title>
<path d="M464.618 124.481l-9.543-4.594c-3.392-1.617-8.853 2.701-12.245 9.721l-48.053 99.892v-209.8h-384.917v492.302h384.917v-226.62l69.881-145.303c3.352-6.98 3.313-13.98-0.039-15.597zM375.058 270.473l-59.154 123.002-11.791 41.743c-2.090 4.319-1.933 8.735 0.414 9.82 2.288 1.163 5.856-1.459 7.966-5.856l25.219-35.197 37.346-77.63v165.908h-345.481v-412.522h345.481v190.733zM375.058 69.881h-345.481v-30.465h345.481v30.465z"></path>
<path d="M67.041 481.043h47.817l22.202-38.45h41.27l23.011 39.851h47.816l23.898-41.428-22.183-38.45 22.183-38.45-22.202-38.45 20.507-35.532h44.76l23.899-41.408-22.183-38.451 22.183-38.451-23.899-41.408h-44.78l-22.183-38.451h-47.816l-21.394 37.030h-42.887l-22.203-38.451h-47.817l-23.918 41.408 22.203 38.47-22.203 38.451 22.203 38.451-22.203 38.47 22.203 38.43-22.203 38.47 22.203 38.45-22.203 38.45 23.918 41.447zM137.395 436.657l-20.487-35.512 20.487-35.473h40.935l20.526 35.532-20.447 35.453h-41.013zM198.857 247.363l-20.468 35.433h-40.994l-20.487-35.493 20.487-35.493h40.915l20.547 35.552zM184.305 210.234l20.468-35.453h40.994l20.507 35.493-20.507 35.493h-40.915l-20.547-35.532zM178.331 288.752l20.526 35.551-20.468 35.453h-40.994l-20.487-35.512 20.487-35.493h40.935zM266.253 441.015l-20.507 35.493h-40.994l-20.487-35.493 20.487-35.493h40.994l20.507 35.493zM266.253 364.115l-20.507 35.493h-40.915l-20.547-35.551 20.468-35.433h40.994l20.507 35.493zM245.746 322.667h-40.935l-20.526-35.532 20.468-35.453h40.994l20.507 35.492-20.507 35.493zM333.197 248.724l-20.507 35.493h-40.974l-20.507-35.493 20.507-35.493h40.974l20.507 35.493zM271.716 136.331h40.974l20.507 35.493-20.507 35.493h-40.974l-20.507-35.493 20.507-35.493zM204.752 97.861h40.994l20.507 35.492-20.507 35.512h-40.915l-20.526-35.552 20.447-35.453zM137.395 134.911h40.935l20.526 35.552-20.468 35.453h-40.994l-20.487-35.493 20.487-35.512zM49.965 131.953l20.487-35.493h40.994l20.487 35.493-20.487 35.513h-40.994l-20.487-35.512zM49.965 208.874l20.487-35.493h40.994l20.487 35.493-20.487 35.493h-40.994l-20.487-35.493zM49.965 285.794l20.487-35.512h40.994l20.487 35.512-20.487 35.473h-40.994l-20.487-35.473zM49.965 362.714l20.487-35.493h40.994l20.487 35.493-20.487 35.493h-40.994l-20.487-35.493zM70.453 404.123h40.994l20.487 35.493-20.487 35.493h-40.994l-20.487-35.493 20.487-35.493z"></path>
</svg>
