<!-- Generated by IcoMoon.io -->
<svg version="1.1" xmlns="http://www.w3.org/2000/svg" width="512" height="512" viewBox="0 0 512 512">
<title>ComponentLudo</title>
<path d="M447.449 19.702h-382.913c-30.144 0-54.675 24.532-54.675 54.675v382.947c0 30.161 24.532 54.675 54.675 54.675h382.93c30.178 0 54.692-24.531 54.692-54.675v-382.947c-0.017-30.161-24.531-54.675-54.709-54.675zM478.758 457.325c0 17.253-14.056 31.293-31.31 31.293h-382.913c-17.254 0-31.293-14.039-31.293-31.293v-382.947c0-17.254 14.039-31.293 31.293-31.293h382.93c17.253 0 31.31 14.039 31.31 31.293v382.947z"></path>
<path d="M299.442 210.742h-5.512l-14.589-14.589c-2.764-2.798-7.278-2.798-10.043 0l-14.589 14.589h-42.202c-5.879 0-10.642 4.763-10.642 10.642v86.935c0 5.879 4.763 10.642 10.642 10.642h10.625l14.572 14.589c1.333 1.332 3.131 2.082 5.013 2.082s3.68-0.75 5.013-2.082l14.589-14.589h37.106c5.879 0 10.659-4.763 10.659-10.642v-6.962l14.572-14.589c2.781-2.764 2.781-7.261 0-10.026l-14.572-14.589v-40.769c0.017-5.879-4.763-10.642-10.642-10.642zM288.817 297.677h-65.651v-65.651h65.634v65.651z"></path>
<path d="M82.772 188.942h10.626l14.573 14.606c1.332 1.333 3.131 2.082 5.013 2.082s3.697-0.75 5.013-2.082l14.589-14.606h37.106c5.879 0 10.642-4.763 10.642-10.642v-6.945l14.589-14.572c2.781-2.781 2.781-7.278 0-10.042l-14.589-14.606v-40.769c0-5.879-4.763-10.642-10.642-10.642h-11.275l-14.589-14.573c-2.764-2.798-7.261-2.782-10.042-0.016l-14.606 14.606h-36.406c-5.879 0-10.642 4.763-10.642 10.642v86.935c0 5.863 4.763 10.625 10.642 10.625zM93.413 102.007h65.634v65.651h-65.634v-65.651z"></path>
<path d="M248.78 291.382h14.422c10.659 0 19.336-8.677 19.336-19.319v-14.439c0-10.659-8.677-19.302-19.336-19.302h-14.423c-10.642 0-19.319 8.66-19.319 19.302v14.439c0 10.659 8.677 19.319 19.319 19.319zM250.762 259.589h10.492v10.526h-10.492v-10.526z"></path>
<path d="M201.882 136.315v41.985c0 5.879 4.763 10.642 10.642 10.642h10.642l14.572 14.606c1.333 1.333 3.131 2.082 5.013 2.082s3.697-0.75 5.013-2.082l14.589-14.606h37.072c5.879 0 10.659-4.763 10.659-10.642v-6.928l14.606-14.589c2.764-2.781 2.764-7.278 0-10.042l-14.589-14.606v-40.769c0-5.879-4.78-10.642-10.659-10.642h-86.918c-5.879 0-10.642 4.763-10.642 10.642v5.745l-14.589 14.589c-2.781 2.764-2.781 7.261 0 10.026l14.589 14.589zM223.166 102.007h65.634v65.651h-65.634v-65.651z"></path>
<path d="M439.854 262.137v-40.753c0-5.879-4.78-10.642-10.659-10.642h-5.512l-14.572-14.589c-1.332-1.333-3.131-2.082-5.029-2.082-1.865 0-3.697 0.75-5.029 2.082l-14.572 14.589h-42.219c-5.896 0-10.642 4.763-10.642 10.642v86.935c0 5.879 4.747 10.642 10.642 10.642h10.625l14.589 14.589c1.315 1.332 3.131 2.082 5.013 2.082s3.68-0.75 5.013-2.082l14.606-14.589h37.106c5.879 0 10.659-4.763 10.659-10.642v-6.945l14.606-14.606c2.764-2.764 2.764-7.261 0-10.026l-14.623-14.606zM418.553 297.677h-65.651v-65.651h65.634v65.651z"></path>
<path d="M439.854 132.135v-40.769c0-5.879-4.78-10.642-10.659-10.642h-5.512l-14.572-14.589c-1.332-1.332-3.131-2.082-5.029-2.082-1.865 0-3.697 0.749-5.029 2.082l-14.572 14.589h-42.219c-5.896 0-10.642 4.763-10.642 10.642v5.745l-14.606 14.589c-2.764 2.764-2.764 7.261 0 10.026l14.606 14.589v41.985c0 5.879 4.747 10.642 10.642 10.642h86.935c5.879 0 10.659-4.763 10.659-10.642v-6.928l14.606-14.589c2.764-2.781 2.764-7.278 0-10.042l-14.606-14.606zM418.553 167.658h-65.651v-65.651h65.634v65.651z"></path>
<path d="M72.129 266.334v41.985c0 5.879 4.763 10.642 10.642 10.642h86.935c5.879 0 10.642-4.763 10.642-10.642v-6.945l14.606-14.606c2.781-2.764 2.781-7.261 0-10.026l-14.606-14.606v-40.753c0-5.879-4.763-10.642-10.642-10.642h-5.529l-14.572-14.589c-1.333-1.333-3.131-2.082-5.013-2.082s-3.68 0.75-5.013 2.082l-14.589 14.589h-42.219c-5.879 0-10.642 4.763-10.642 10.642v5.729l-14.605 14.606c-2.782 2.764-2.782 7.261 0 10.026l14.605 14.589zM93.413 232.026h65.634v65.651h-65.634v-65.651z"></path>
<path d="M439.854 392.156v-40.736c0-5.879-4.78-10.642-10.659-10.642h-5.496l-14.589-14.606c-1.332-1.332-3.131-2.082-5.029-2.082-1.865 0-3.697 0.75-5.029 2.082l-14.606 14.606h-42.185c-5.896 0-10.642 4.763-10.642 10.642v5.729l-14.606 14.572c-1.315 1.332-2.065 3.131-2.065 5.029s0.733 3.697 2.065 5.013l14.606 14.589v42.002c0 5.879 4.747 10.642 10.642 10.642h86.935c5.879 0 10.659-4.763 10.659-10.642v-6.962l14.606-14.606c2.764-2.764 2.764-7.261 0-10.026l-14.606-14.606zM418.553 427.713h-65.651v-65.651h65.634v65.651z"></path>
<path d="M310.101 392.156v-40.736c0-5.879-4.78-10.642-10.659-10.642h-5.496l-14.606-14.606c-2.764-2.798-7.278-2.798-10.043 0l-14.606 14.606h-42.185c-5.879 0-10.642 4.763-10.642 10.642v5.729l-14.589 14.572c-1.333 1.332-2.082 3.131-2.082 5.029s0.733 3.697 2.082 5.013l14.589 14.589v42.002c0 5.879 4.763 10.642 10.642 10.642h10.659l14.572 14.572c1.333 1.332 3.131 2.082 5.013 2.082s3.68-0.75 5.013-2.082l14.572-14.572h37.106c5.879 0 10.659-4.763 10.659-10.642v-6.962l14.606-14.606c2.764-2.764 2.764-7.261 0-10.026l-14.606-14.606zM288.817 427.713h-65.651v-65.651h65.634v65.651z"></path>
<path d="M180.349 392.156v-40.736c0-5.879-4.763-10.642-10.642-10.642h-86.935c-5.879 0-10.642 4.763-10.642 10.642v5.712l-14.605 14.589c-1.333 1.332-2.082 3.131-2.082 5.029s0.733 3.697 2.082 5.013l14.605 14.606v41.985c0 5.879 4.763 10.642 10.642 10.642h10.642l14.573 14.572c1.332 1.332 3.131 2.082 5.013 2.082s3.68-0.75 5.013-2.082l14.573-14.572h37.122c5.879 0 10.642-4.763 10.642-10.642v-6.962l14.606-14.606c2.781-2.764 2.781-7.261 0-10.026l-14.606-14.606zM159.064 427.713h-65.651v-65.651h65.634v65.651z"></path>
</svg>
