<!-- Generated by IcoMoon.io -->
<svg version="1.1" xmlns="http://www.w3.org/2000/svg" width="299" height="512" viewBox="0 0 299 512">
<title>ComponentBag</title>
<path d="M257.901 295.062l-89.311-144.654h75.679c4.516 6.010 11.527 9.931 19.471 9.931 13.615 0 24.666-11.306 24.666-25.209 0-13.886-11.051-25.192-24.666-25.192-10.983 0-20.202 7.436-23.393 17.57h-69.602l56.751-90.194c2.241-3.531 2.411-8.012 0.374-11.68-2.020-3.684-5.874-5.959-10.050-5.959h-137.388c-4.193 0-8.029 2.275-10.050 5.959-2.003 3.684-1.85 8.149 0.391 11.662l33.596 52.728 23.138 37.467h-69.568c-3.191-10.135-12.41-17.553-23.41-17.553-13.615 0-24.683 11.306-24.683 25.193 0 13.904 11.069 25.209 24.683 25.209 7.962 0 14.973-3.922 19.489-9.931h75.68l-89.294 144.653-0.119-0.068c-15.329 23.173-23.427 50.368-23.427 78.634 0 76.308 59.349 138.373 132.295 138.373 72.964 0 132.312-62.065 132.312-138.373 0-28.265-8.098-55.461-23.444-78.633l-0.119 0.068zM123.79 77.853l-12.308-19.913-0.288 0.17-9.863-15.499h95.644l-9.897 15.516-0.288-0.187-37.653 59.705-25.346-39.792zM149.136 489.099c-60.316 0-109.377-51.811-109.377-115.471 0-20.32 4.974-39.962 14.447-57.363l0.017 0.017 94.913-153.736 94.948 153.719c9.489 17.401 14.464 37.042 14.464 57.363-0.017 63.661-49.078 115.471-109.411 115.471z"></path>
</svg>
