<!-- Generated by IcoMoon.io -->
<svg version="1.1" xmlns="http://www.w3.org/2000/svg" width="410" height="512" viewBox="0 0 410 512">
<title>ComponentPyramid</title>
<path d="M381.897 512h-353.563c-4.953 0-9.635-1.987-13.037-5.416-0.816-0.817-1.579-1.714-2.232-2.695-3.402-5.008-4.165-11.377-1.96-17.012l176.673-455.604c1.714-4.355 4.981-7.811 9.009-9.799 8.928-4.546 21.584-0.081 25.422 9.744l176.918 455.659c2.178 5.634 1.47 12.003-1.959 17.012-0.653 0.98-1.416 1.851-2.232 2.695-3.402 3.402-8.084 5.416-13.038 5.416zM100.217 475.255h206.885c0.653-0.082 1.307-0.109 1.987-0.109h45.944l-150.054-386.279-149.781 386.279 45.019 0.109z"></path>
</svg>
