<!-- Generated by IcoMoon.io -->
<svg version="1.1" xmlns="http://www.w3.org/2000/svg" width="1012" height="512" viewBox="0 0 1012 512">
<title>ComponentBall</title>
<path d="M870.355 19.683c-72.346 0-131.195 58.849-131.195 131.195s58.849 131.194 131.195 131.194 131.195-58.849 131.195-131.195-58.849-131.195-131.195-131.195zM870.355 259.577c-59.928 0-108.699-48.748-108.699-108.699s48.77-108.699 108.699-108.699 108.699 48.748 108.699 108.699-48.77 108.699-108.699 108.699z"></path>
<path d="M498.84 496.096l-27.714-27.737-15.904 15.904 27.714 27.737h31.809l19.099-19.122-15.904-15.904z"></path>
<path d="M581.6 445.148l-15.907-15.906 63.626-63.627 15.907 15.906-63.626 63.627z"></path>
<path d="M692.935 333.81l-15.907-15.906 63.626-63.626 15.907 15.907-63.626 63.627z"></path>
<path d="M296.192 325.231l-63.633-63.651 15.909-15.905 63.633 63.652-15.909 15.904z"></path>
<path d="M407.512 436.562l-63.627-63.627 15.906-15.906 63.627 63.627-15.906 15.906z"></path>
<path d="M184.817 213.863l-63.626-63.626 15.906-15.906 63.626 63.626-15.906 15.906z"></path>
<path d="M73.471 102.523l-63.627-63.627 15.907-15.907 63.627 63.626-15.906 15.906z"></path>
</svg>
