<!-- Generated by IcoMoon.io -->
<svg version="1.1" xmlns="http://www.w3.org/2000/svg" width="1419" height="512" viewBox="0 0 1419 512">
<title>ComponentHex-Battlemat</title>
<path d="M1303.633 19.7h-1210.899c-47.236 0-82.883 65.532-82.883 152.471 0 67.362 28.359 118.166 65.96 118.166h91.849v221.663h1241.394v-294.087c0-111.152-46.321-198.213-105.419-198.213zM167.658 259.842h-51.932c8.294-16.192 13.356-37.538 13.356-61.934 0-42.387-18.418-73.126-43.79-73.126-21.224 0-36.654 24.67-36.654 58.671 0 8.417 6.831 15.247 15.247 15.247s15.247-6.831 15.247-15.247c0-17.686 5.886-27.262 5.977-28.177 4.055 1.037 13.478 16.894 13.478 42.631 0 38.423-14.76 61.934-22.81 61.934-14.454 0-35.465-34.154-35.465-87.671 0-69.832 27.659-121.978 52.389-121.978 35.435 0 74.924 68.886 74.924 167.719v41.93zM1378.557 481.505h-1180.406v-263.593c0-71.54-19.242-132.925-48.669-167.719h1154.15c35.435 0 74.925 68.886 74.925 167.719v263.593z"></path>
<path d="M1301.194 177.386h-77.913l-38.789-67.301h-83.036l-38.82 67.301h-72.577l-38.85-67.301h-83.036l-38.819 67.301h-73.095l-38.88-67.301h-82.975l-38.85 67.301h-72.577l-38.88-67.301h-82.945l-38.88 67.301h-78.035l-41.503 71.875 38.85 67.301-38.85 67.301 41.503 71.844h82.975l38.85-67.27h72.637l38.85 67.27h82.975l38.85-67.27h73.095l38.85 67.27h83.005l38.819-67.27h72.638l38.819 67.27h82.975l38.789-67.27h73.004l38.82 67.27h83.005l41.473-71.844-38.82-67.301 38.82-67.301-41.473-71.875zM1332.145 249.261l-36.227 62.727h-72.393l-36.227-62.727 36.227-62.727h72.393l36.227 62.727zM989.908 311.957l-36.136-62.544 36.288-62.91h72.18l35.861 62.117-36.532 63.337h-71.662zM756.625 311.957l-36.227-62.727 36.227-62.727h72.394l35.861 62.087-36.563 63.367h-71.692zM522.826 311.957l-36.136-62.605 36.289-62.849h72.272l35.861 62.117-36.563 63.337h-71.722zM369.836 316.562l36.228-62.727h71.753l36.197 62.727-36.197 62.727h-71.753l-36.228-62.727zM603.148 316.562l36.227-62.727h71.722l36.167 62.727-36.197 62.727h-71.722l-36.197-62.727zM836.947 316.562l36.197-62.727h71.753l36.227 62.727-36.227 62.727h-71.753l-36.197-62.727zM1070.229 316.562l36.167-62.727h71.814l36.136 62.727-36.167 62.727h-71.784l-36.167-62.727zM1106.762 119.233h72.424l36.197 62.727-36.167 62.696h-72.485l-36.227-62.727 36.258-62.697zM873.48 119.233h72.455l36.167 62.544-36.319 62.91h-72.272l-36.227-62.727 36.197-62.727zM639.711 119.233h72.424l36.227 62.727-36.197 62.727h-72.455l-36.167-62.727 36.167-62.727zM406.428 119.233h72.424l36.136 62.605-36.288 62.849h-72.272l-36.228-62.727 36.228-62.727zM289.514 186.534h72.424l35.861 62.148-36.563 63.306h-71.722l-36.197-62.727 36.197-62.727zM361.938 446.559h-72.424l-36.227-62.697 36.227-62.727h71.722l36.563 63.306-35.861 62.117zM595.25 446.559h-72.424l-36.197-62.697 36.197-62.727h71.722l36.563 63.337-35.861 62.087zM829.019 446.559h-72.394l-36.227-62.697 36.227-62.727h71.692l36.563 63.367-35.861 62.056zM1062.271 446.559h-72.363l-36.227-62.697 36.227-62.727h71.692l36.532 63.337-35.861 62.087zM1295.888 446.559h-72.393l-36.227-62.697 36.227-62.727h72.393l36.227 62.727-36.227 62.697z"></path>
</svg>
