<!-- Generated by IcoMoon.io -->
<svg version="1.1" xmlns="http://www.w3.org/2000/svg" width="512" height="512" viewBox="0 0 512 512">
<title>ComponentLunar</title>
<path d="M357.775 223.084c2.307 0.606 4.663 0.916 7.067 0.916 15.346 0 29.3-12.319 33.93-29.955 2.961-11.157 1.668-22.691-3.55-31.64-4.090-7.035-10.405-11.976-17.734-13.906-17.113-4.531-35.599 8.638-41.014 29.039-5.448 20.565 4.123 40.998 21.3 45.546zM357.824 183.198c2.209-8.344 7.951-13.35 13.709-13.35 0.115 0 0.212 0 0.327 0 2.094 0.54 3.501 2.306 4.303 3.681 2.241 3.861 2.716 9.407 1.276 14.855-2.241 8.475-8.147 13.513-12.597 13.513l-1.407-0.163c-4.646-1.244-8.082-9.161-5.611-18.536z"></path>
<path d="M424.491 295.296c-19.469-12.336-51.419 2.716-70.675 33.293-19.747 31.231-19.615 65.554 0.295 78.118 4.793 3.043 10.307 4.581 16.36 4.581 18.471 0 39.788-14.871 54.315-37.873 19.714-31.214 19.599-65.538-0.295-78.118zM406.086 361.62c-13.743 21.791-32.834 31.084-40.197 26.421-6.855-4.351-7.705-25.063 6.577-47.673 11.435-18.111 26.585-27.583 35.649-27.583 1.832 0 3.337 0.377 4.581 1.145 6.855 4.368 7.673 25.080-6.61 47.689z"></path>
<path d="M222.953 401.979c-14.659 10.552-19.223 29.399-10.16 42.045 4.908 6.822 12.974 10.732 22.151 10.732 7.231 0 14.675-2.486 20.957-7.002 14.642-10.552 19.19-29.399 10.127-42.029-8.801-12.204-28.875-13.971-43.076-3.747zM243.010 429.841c-2.503 1.8-5.448 2.846-8.049 2.846-0.933 0-3.207-0.163-4.221-1.554-1.456-2.029-0.18-7.411 5.12-11.24 2.503-1.783 5.448-2.83 8.049-2.83 0.933 0 3.207 0.147 4.204 1.554 1.44 2.029 0.18 7.428-5.105 11.223z"></path>
<path d="M231.493 201.898c-23.853 0-51.060 7.918-76.613 22.298-25.064 14.119-45.709 32.883-58.16 52.876-13.71 22.020-16.131 43.24-6.822 59.763 9.145 16.245 28.123 25.195 53.415 25.195 23.837 0 51.043-7.918 76.613-22.298 25.064-14.118 45.709-32.884 58.159-52.875 13.709-22.020 16.115-43.239 6.822-59.763-9.145-16.245-28.106-25.195-53.415-25.195zM259.337 275.19c-10.519 16.884-28.351 32.981-50.242 45.3-21.988 12.385-45.955 19.469-65.783 19.469-9.833 0-27.338-1.816-34.16-13.955-5.105-9.063-2.797-22.642 6.315-37.268 10.519-16.884 28.352-32.981 50.242-45.285 21.971-12.385 45.955-19.469 65.783-19.469 9.833 0 27.354 1.799 34.159 13.939 5.104 9.064 2.798 22.642-6.315 37.268z"></path>
<path d="M185.21 160.933c12.908 0 26.291-5.53 36.728-15.166 9.522-8.786 15.771-20.090 17.636-31.837 1.996-12.548-1.374-24.606-9.21-33.064-15.198-16.491-45.743-14.953-65.374 3.207-20.351 18.781-24.147 47.902-8.441 64.9 7.117 7.706 17.292 11.959 28.662 11.959zM179.976 100.287c6.413-5.906 14.332-9.293 21.743-9.293 3.632 0 8.72 0.835 12.434 4.859 4.401 4.76 4.155 11.223 3.615 14.642-1.064 6.757-5.006 13.71-10.814 19.059-6.413 5.923-14.332 9.309-21.743 9.309-3.632 0-8.736-0.851-12.434-4.859-7.313-7.918-4.008-23.346 7.198-33.718z"></path>
<path d="M255.983 19.698c-135.722 0-246.135 110.43-246.135 246.151 0 135.738 110.413 246.151 246.135 246.151s246.135-110.413 246.135-246.151c0-135.722-110.413-246.151-246.135-246.151zM255.983 489.914c-123.534 0-224.049-100.531-224.049-224.065s100.516-224.065 224.049-224.065c123.55 0 224.065 100.531 224.065 224.065s-100.515 224.065-224.065 224.065z"></path>
</svg>
