<!-- Generated by IcoMoon.io -->
<svg version="1.1" xmlns="http://www.w3.org/2000/svg" width="497" height="512" viewBox="0 0 497 512">
<title>D10</title>
<path d="M481.875 172.297l-227.825-151.111c0 0-0.021 0-0.042 0-1.37-0.927-3.078-1.286-4.786-1.454-1.138-0.105-2.15 0.127-3.246 0.401-1.222 0.274-2.488 0.38-3.52 1.054-0.021 0.021-0.042 0-0.063 0.021l-227.846 151.089c-2.931 1.96-4.701 5.249-4.701 8.791v169.262c0 3.541 1.771 6.83 4.722 8.791l227.846 151.111c0.19 0.127 0.442 0.084 0.632 0.19 1.56 0.906 3.268 1.56 5.186 1.56 0.021 0 0.021 0 0.042 0 1.918 0 3.626-0.654 5.165-1.56 0.19-0.106 0.442-0.063 0.612-0.19l227.846-151.111c2.952-1.961 4.722-5.249 4.722-8.791v-169.262c-0.021-3.542-1.792-6.831-4.743-8.791zM465.516 334.201l-89.637-39.443-103.593-236.194 193.231 128.174v147.464zM353.764 296.824l-105.996 40.413-105.153-42.12 105.575-238.977 105.575 240.685zM128.806 312.318l108.337 43.385 0.442 126.066-195.571-129.713 86.791-39.738zM258.224 355.809l109.37-41.699 86.56 38.115-195.444 129.649-0.485-126.066zM224.030 58.648l-103.488 234.297-89.617 40.982v-147.189l193.104-128.089z"></path>
<path d="M205.606 241.212l13.492-7.526v59.217h-16.38c-5.966 0-5.966 7.969 0 7.969h40.054c5.966 0 5.966-7.969 0-7.969h-15.284v-65.056c0-3.436-1.876-4.975-4.427-4.975-1.118 0-2.762 0.654-5.081 1.982l-15.6 8.981c-2.108 1.222-3.099 2.656-3.099 4.3 0 3.184 3.668 4.744 6.325 3.078z"></path>
<path d="M272.749 298.764c3.647 2.192 7.863 3.31 12.627 3.31s8.854-1.118 12.501-3.31c7.421-4.553 11.51-12.627 13.724-21.904 2.192-9.297 2.192-20.365 0-29.661-2.214-9.275-6.325-17.244-13.724-21.672-3.647-2.319-7.737-3.436-12.501-3.436s-8.981 1.118-12.627 3.436c-7.188 4.427-11.405 12.396-13.618 21.672-2.214 9.297-2.214 20.365 0 29.661 2.214 9.276 6.451 17.35 13.618 21.904zM270.978 238.787c3.436-5.861 8.2-8.854 14.399-8.854s10.962 2.867 14.272 8.727c3.436 5.861 5.080 13.619 5.080 23.337s-1.644 17.603-5.080 23.464c-3.31 5.861-8.074 8.728-14.272 8.728s-10.962-2.993-14.399-8.854c-3.436-5.839-5.080-13.703-5.080-23.337 0-9.592 1.644-17.371 5.080-23.21z"></path>
</svg>
