<!-- Generated by IcoMoon.io -->
<svg version="1.1" xmlns="http://www.w3.org/2000/svg" width="489" height="512" viewBox="0 0 489 512">
<title>D12</title>
<path d="M478.918 192.554c0-1.89-0.594-3.762-1.728-5.292l-86.144-118.559c-1.116-1.53-2.682-2.682-4.5-3.276l-139.403-45.303c-1.8-0.594-3.762-0.594-5.561 0l-139.367 45.322c-1.818 0.576-3.402 1.728-4.5 3.258l-86.144 118.578c-1.134 1.548-1.728 3.384-1.728 5.292v146.584c0 1.89 0.594 3.762 1.728 5.291l86.162 118.56c1.116 1.53 2.682 2.682 4.5 3.276l139.385 45.303c0.9 0.306 1.854 0.432 2.772 0.432s1.872-0.144 2.772-0.432l139.385-45.303c1.818-0.576 3.384-1.746 4.5-3.276l86.161-118.577c1.134-1.548 1.728-3.384 1.728-5.291l-0.018-146.584zM378.231 81.662l77.144 106.158-71.618 23.273-130.349-94.711-0.018-75.326 124.841 40.606zM244.391 132.113l127.181 92.425-48.579 149.536h-157.221l-48.579-149.536 127.199-92.425zM110.55 81.662l124.841-40.588 0.018 75.326-130.367 94.711-71.618-23.255 77.126-106.194zM27.845 336.24v-131.267l71.618 23.255 49.785 153.262-44.242 60.926-77.162-106.176zM244.391 493.551l-124.841-40.57 44.26-60.926h161.127l44.26 60.926-124.805 40.57zM383.775 442.398l-44.278-60.926 49.803-153.262 71.618-23.273 0.018 131.267-77.162 106.194z"></path>
<path d="M173.798 238.505l18.863-10.512v82.742h-22.876c-8.351 0-8.351 11.123 0 11.123h55.959c8.351 0 8.351-11.123 0-11.123h-21.347v-90.931c0-4.805-2.628-6.965-6.191-6.965-1.53 0-3.852 0.936-7.109 2.79l-21.815 12.51c-2.934 1.71-4.32 3.708-4.32 6.030 0.018 4.5 5.112 6.66 8.838 4.338z"></path>
<path d="M292.106 259.996l-7.577 5.111-3.708 2.466c-23.651 15.929-34.486 30.454-34.486 47.014 0 3.852 3.096 7.253 6.965 7.253h57.525c8.514 0 8.514-11.123 0-11.123h-51.963c0.612-10.529 10.673-22.427 24.281-31.103l6.966-4.482c17.477-11.286 25.973-20.573 25.973-34.324 0-9.125-3.258-16.217-9.899-21.347-6.498-5.094-14.381-7.721-23.507-7.721-14.849 0-26.909 8.495-33.262 19.799-1.854 3.24-1.224 6.803 1.242 8.495 2.322 1.872 6.335 1.098 8.189-2.16 5.579-10.043 13.445-15.155 23.813-15.155 12.995 0 21.473 6.965 21.473 17.945 0 5.561-1.548 10.043-6.336 14.381-2.286 2.178-4.158 3.888-5.688 4.949z"></path>
</svg>
