<!-- Generated by IcoMoon.io -->
<svg version="1.1" xmlns="http://www.w3.org/2000/svg" width="450" height="512" viewBox="0 0 450 512">
<title>D20</title>
<path d="M440.123 148.236c-0.034-1.091-0.358-2.113-0.818-3.136-0.137-0.307-0.137-0.613-0.29-0.887-0.017-0.034-0.017-0.068-0.034-0.102-0.716-1.193-1.738-2.165-2.897-2.863-0.034-0.034-0.051-0.085-0.103-0.119l-204.943-120.266c-2.608-1.517-5.846-1.568-8.523-0.051l-206.648 117.317c-0.034 0.017-0.051 0.068-0.102 0.102-1.159 0.682-2.181 1.602-2.915 2.779-0.017 0.034-0.017 0.085-0.051 0.137-0.171 0.273-0.171 0.613-0.324 0.921-0.443 0.988-0.784 1.977-0.835 3.068 0 0.102-0.085 0.204-0.085 0.341l-1.704 237.652c-0.017 3.051 1.585 5.88 4.21 7.432l204.943 120.3c1.329 0.784 2.813 1.159 4.313 1.159 1.381 0 2.693-0.392 3.903-1.039 0.085-0.051 0.204-0.034 0.307-0.085l206.665-117.334c2.642-1.5 4.295-4.295 4.313-7.346l1.721-237.635c-0.017-0.119-0.103-0.221-0.103-0.341zM98.278 329.096l-66.286-176.070 177.416-16.056-111.13 192.126zM225.038 144.009l113.601 196.387h-227.203l113.602-196.387zM335.078 357.457l-111.675 132.692-108.744-132.692h220.419zM350.197 326.368l-109.409-189.194 178.728 18.63-69.32 170.565zM233.68 119.311l1.313-76.359 158.463 93.012-159.775-16.653zM216.636 119.175l-158.088 14.335 159.417-90.523-1.329 76.189zM85.836 344.368l-58.837 25.755 1.279-178.626 57.559 152.872zM94.154 359.332l92.313 112.63-149.378-87.677 57.065-24.953zM354.815 360.474l56.588 26.419-150.929 85.683 94.341-112.101zM361.173 344.64l61.667-151.748-1.296 179.922-60.372-28.175z"></path>
<path d="M212.238 315.307h-34.959c0.409-7.074 7.175-15.084 16.328-20.913l4.67-3.034c11.744-7.585 17.471-13.84 17.471-23.079 0-6.136-2.181-10.925-6.665-14.369-4.363-3.426-9.664-5.198-15.817-5.198-9.988 0-18.102 5.727-22.38 13.312-1.227 2.182-0.835 4.585 0.835 5.727 1.568 1.244 4.278 0.733 5.523-1.466 3.75-6.75 9.050-10.192 16.005-10.192 8.744 0 14.471 4.67 14.471 12.067 0 3.75-1.057 6.75-4.261 9.664-1.568 1.466-2.813 2.591-3.852 3.324l-7.602 5.096c-15.919 10.721-23.18 20.505-23.18 31.618 0 2.591 2.063 4.892 4.67 4.892h38.708c5.761 0.034 5.761-7.449 0.034-7.449z"></path>
<path d="M280.74 272.354c-2.079-8.744-5.949-16.226-12.902-20.385-3.426-2.198-7.295-3.221-11.743-3.221-4.482 0-8.437 1.040-11.863 3.221-6.767 4.159-10.721 11.659-12.8 20.385s-2.079 19.141 0 27.885 6.034 16.329 12.8 20.59c3.426 2.079 7.398 3.136 11.863 3.136s8.317-1.057 11.743-3.136c6.954-4.261 10.824-11.846 12.902-20.59s2.079-19.158 0-27.885zM269.508 308.335c-3.136 5.505-7.585 8.216-13.414 8.216s-10.295-2.813-13.534-8.317-4.79-12.902-4.79-21.954 1.551-16.329 4.79-21.834c3.221-5.522 7.704-8.317 13.534-8.317s10.295 2.693 13.414 8.216c3.221 5.505 4.772 12.784 4.772 21.937s-1.551 16.55-4.772 22.055z"></path>
</svg>
