<!-- Generated by IcoMoon.io -->
<svg version="1.1" xmlns="http://www.w3.org/2000/svg" width="487" height="512" viewBox="0 0 487 512">
<title>D30</title>
<path d="M215.012 271.716c2.672-1.050 5.218-3.259 7.676-6.608 2.547-3.366 3.829-7.195 3.829-11.594 0-6.982-2.565-12.306-7.551-16.135s-10.899-5.788-17.631-5.788c-8.121 0-15.209 2.654-21.228 7.996-2.44 2.208-2.779 4.417-0.819 6.5 1.977 2.083 4.078 2.083 6.5-0.125 4.755-4.078 10.080-6.162 16.011-6.162 4.060 0 7.658 1.157 10.899 3.366 3.348 2.208 4.987 5.681 4.987 10.204 0 9.635-7.676 15.209-19.269 15.209h-1.157c-3.242 0-4.862 1.389-4.862 4.292 0 2.779 1.638 4.168 4.862 4.168h2.44c11.612 0 19.964 4.773 19.964 14.622 0 10.204-7.551 15.548-17.417 15.548-7.177 0-13.339-2.209-18.451-6.732-2.44-2.209-4.524-2.209-6.482-0.125-1.977 2.084-1.638 4.292 0.819 6.5 6.019 5.45 15.209 8.567 23.544 8.567 7.551 0 13.927-2.084 19.020-6.144 5.218-4.168 7.782-10.098 7.782-17.756 0-9.706-5.912-16.669-13.464-19.804z"></path>
<path d="M298.163 257.897c-2.315-9.742-6.608-18.112-14.39-22.743-3.829-2.44-8.121-3.579-13.108-3.579s-9.385 1.14-13.233 3.579c-7.534 4.648-11.95 13.001-14.266 22.743-2.333 9.76-2.333 21.353 0 31.095 2.315 9.76 6.732 18.219 14.266 22.974 3.847 2.333 8.245 3.473 13.233 3.473s9.279-1.14 13.108-3.473c7.783-4.755 12.075-13.214 14.39-22.974 2.333-9.724 2.333-21.336 0-31.095zM285.644 298.057c-3.49 6.144-8.477 9.172-14.978 9.172s-11.505-3.135-15.084-9.279c-3.597-6.162-5.343-14.39-5.343-24.488 0-10.080 1.745-18.201 5.343-24.363 3.579-6.162 8.567-9.279 15.084-9.279s11.487 3.028 14.978 9.172c3.579 6.162 5.343 14.283 5.343 24.488s-1.763 18.433-5.343 24.577z"></path>
<path d="M477.183 272.803c0-0.196-0.089-0.339-0.107-0.517-0.018-0.267 0.036-0.534 0-0.819l-20.196-132.234c0-0.018 0-0.018 0-0.036v-0.018c-0.178-1.122-0.552-2.19-1.122-3.17-0.089-0.143-0.25-0.25-0.339-0.374-0.498-0.748-1.050-1.478-1.763-2.048l-93.553-75.245c-0.873-0.694-1.852-1.229-2.921-1.567l-117.435-36.705c-0.143-0.035-0.267 0.053-0.392 0.018-0.321-0.089-0.588-0.232-0.909-0.267-0.303-0.053-0.588-0.053-0.891-0.071-0.161 0-0.303-0.089-0.463-0.089-0.018 0-0.018 0-0.036 0-0.321 0-0.588 0.16-0.909 0.196-0.356 0.035-0.713 0-1.069 0.089-0.321 0.071-0.588 0.196-0.909 0.303-0.089 0.035-0.214-0.018-0.303 0.018l-104.559 40.373c-0.926 0.374-1.781 0.873-2.529 1.496l-91.736 77.061c-0.249 0.214-0.374 0.481-0.587 0.713-0.339 0.339-0.623 0.677-0.908 1.069-0.374 0.517-0.641 1.087-0.891 1.674-0.178 0.41-0.356 0.837-0.445 1.264-0.053 0.214-0.178 0.374-0.214 0.57l-22.012 126.784c-0.053 0.285 0.036 0.534 0 0.819-0.018 0.25-0.143 0.445-0.143 0.712s0.124 0.481 0.161 0.748c0.018 0.32-0.053 0.623 0 0.944l22.012 113.588c0.018 0.071 0.089 0.125 0.107 0.196 0.339 1.567 1.122 2.921 2.209 4.079 0.107 0.125 0.107 0.32 0.231 0.428l73.392 71.558c0.891 0.873 1.959 1.55 3.135 1.977l122.92 45.147c0.036 0.018 0.089 0 0.125 0.018 0.962 0.356 1.941 0.517 2.957 0.517 0.909 0 1.816-0.142 2.689-0.409l119.251-37.809c0.89-0.285 1.745-0.712 2.511-1.247l91.736-66.055c0.071-0.053 0.107-0.142 0.178-0.196 0.855-0.659 1.62-1.425 2.173-2.351 0.25-0.374 0.303-0.819 0.463-1.211 0.303-0.641 0.623-1.264 0.748-1.977 0-0.036 0.036-0.053 0.036-0.089l20.196-126.428c0.053-0.303-0.018-0.587 0-0.89 0.018-0.196 0.107-0.339 0.107-0.534zM375.474 408.582l-129.421 78.628 0.517-108.37 141.228-88.762-12.324 118.503zM48.316 378.537l-18.771-96.829 38.842 0.018 21.585 103.116-41.656-6.305zM48.388 154.175l35.209-3.633-15.725 113.374-38.522-0.018 19.038-109.723zM375.421 129.118l12.485 126.517-141.334-88.833-0.517-121.745 129.367 84.060zM237.683 363.417l-145.253-90.596 145.235-90.614 144.149 90.614-144.131 90.596zM228.779 166.784l-141.726 88.423 15.245-109.901 125.947-98.521 0.535 119.999zM109.367 390.594l-20.766-99.162 140.177 87.426-0.499 105.912-118.913-94.175zM406.623 263.916l-12.627-128.102 46.18 11.879 17.738 116.206-51.291 0.018zM410.38 121.62l-22.867-5.877-91.308-59.358 54.051 16.901 60.124 48.334zM137.096 76.74l47.373-18.273-93.962 73.464-21.817 2.262 68.406-57.453zM66.802 399.339l30.828 4.684 90.365 71.576-68.993-25.342-52.199-50.917zM352.286 457.236l-47.159 14.96 82.172-49.938 19.875-4.541-54.889 39.519zM440.247 391.894l-46.233 10.561 12.555-120.712 51.273-0.018-17.596 110.168z"></path>
</svg>
