<!-- Generated by IcoMoon.io -->
<svg version="1.1" xmlns="http://www.w3.org/2000/svg" width="513" height="512" viewBox="0 0 513 512">
<title>D4</title>
<path d="M501.493 291.96l-201.59-268.637-0.289 0.216c-1.553-2.040-3.647-3.61-6.282-3.809-3.412-0.343-6.769 1.48-8.485 4.495l-273.781 474.235c-1.624 2.78-1.624 6.246 0 9.026 1.607 2.78 4.585 4.513 7.816 4.513h460.226c2.978 0 5.776-1.481 7.455-3.954 0.902-1.336 1.336-2.853 1.462-4.405h0.091l15.164-205.616c0.163-2.166-0.469-4.315-1.787-6.065zM34.516 493.947l256.614-444.485 174.746 444.485h-431.361zM473.007 462.789l-147.524-375.29 159.529 212.584-12.005 162.706z"></path>
<path d="M283.837 187.726l-118.658 171.642c-3.448 5.181-5.38 9.983-5.38 13.954 0 11.589 6.156 17.168 18.828 17.168h107.501v55.475c0 11.572 4.983 17.149 14.604 17.149 9.586 0 14.604-5.596 14.604-17.149v-55.475h25.327c10.362 0 15.741-4.802 15.741-14.37 0-9.586-5.38-14.387-15.741-14.387h-25.327v-162.055c0-13.16-5.759-19.948-16.915-19.948-6.156 0.018-11.139 2.816-14.587 7.997zM286.13 361.75h-90.605l90.605-129.724v129.724z"></path>
</svg>
