<!-- Generated by IcoMoon.io -->
<svg version="1.1" xmlns="http://www.w3.org/2000/svg" width="528" height="512" viewBox="0 0 528 512">
<title>D6</title>
<path d="M205.191 455.422c19.641 0 37.028-7.146 52.458-21.462 15.408-14.656 22.94-33.728 22.94-57.921 0-23.487-7.533-42.582-22.622-57.238-14.748-14.656-32.454-21.803-52.755-21.803-23.601 0-47.884 12.608-60.014 36.118-0.978-29.291 4.279-53.142 16.067-71.872s27.197-27.947 46.222-27.947c15.407 0 28.175 5.44 39.008 16.682 6.213 6.463 13.45 6.145 18.366 1.024 5.576-5.804 5.235-12.267-1.32-19.095-15.089-15.316-33.751-22.827-56.054-22.827-26.559 0-47.542 10.901-62.951 33.046-15.407 22.167-22.963 51.457-22.963 87.894 0 37.802 7.556 68.481 22.622 91.308s35.412 34.093 60.993 34.093zM170.097 336.509c9.855-9.877 21.643-14.975 35.094-14.975 13.746 0 25.558 5.12 35.389 14.975 9.855 9.9 14.748 22.827 14.748 39.509 0 17.706-4.916 31.339-14.748 40.897-9.49 9.536-20.983 14.293-33.751 14.293-14.429 0-26.56-5.44-36.391-16s-14.77-23.851-14.77-39.509c0-16.022 4.939-29.291 14.429-39.19z"></path>
<path d="M505.036 19.686h-358.834c-3.255 0-6.373 1.252-8.716 3.527l-123.806 119.87c-2.367 2.298-3.823 5.462-3.823 9.012v347.319c0 6.964 5.622 12.586 12.585 12.586h358.834c3.391 0 6.464-1.389 8.74-3.527l123.807-119.846c2.413-2.367 3.801-5.644 3.801-9.012v-347.365c-0.023-6.919-5.644-12.563-12.586-12.563zM368.666 486.875h-333.687v-322.216h333.687v322.216zM376.154 139.533h-322.671l97.817-94.698h322.671l-97.817 94.698zM492.473 374.243l-98.659 95.495v-312.316l98.659-95.472v312.293z"></path>
</svg>
