<!-- Generated by IcoMoon.io -->
<svg version="1.1" xmlns="http://www.w3.org/2000/svg" width="448" height="512" viewBox="0 0 448 512">
<title>D8</title>
<path d="M438.307 146.488c0-2.726-1.462-5.238-3.807-6.593l-206.615-119.279c-0.29-0.168-0.594-0.183-0.883-0.305-0.502-0.213-0.975-0.396-1.523-0.503-0.35-0.061-0.685-0.107-1.036-0.122-0.274-0.015-0.502-0.015-0.776 0-0.35 0.030-0.685 0.061-1.036 0.122-0.533 0.107-0.989 0.305-1.507 0.503-0.304 0.137-0.625 0.152-0.913 0.32-0.015 0.015-0.015 0.015-0.030 0.030l-206.539 119.234c-2.345 1.355-3.806 3.868-3.806 6.593v238.589c0 0.32 0.152 0.609 0.182 0.929 0.076 0.517 0.152 1.020 0.319 1.538 0.122 0.35 0.274 0.67 0.427 0.99 0.122 0.228 0.229 0.411 0.35 0.609 0.198 0.32 0.396 0.594 0.639 0.868 0.35 0.411 0.777 0.746 1.218 1.066 0.243 0.183 0.396 0.442 0.67 0.594l206.615 119.31c1.173 0.685 2.497 1.020 3.806 1.020s2.634-0.335 3.806-1.020l206.615-119.31c0.183-0.106 0.259-0.32 0.426-0.426 0.762-0.517 1.385-1.142 1.918-1.918 0.183-0.274 0.38-0.487 0.533-0.791 0.533-1.036 0.929-2.192 0.929-3.457v-238.589zM423.081 352.204l-177.899-304.030 177.899 102.714v201.317zM420.219 377.464h-389.584l193.49-335.106 196.094 335.106zM203.296 47.992l-178.234 308.689v-205.792l178.234-102.897zM224.079 495.601l-178.203-102.911h356.407l-178.203 102.911z"></path>
<path d="M201.27 255.733c-6.669 1.721-13.612 6.669-20.296 14.343-6.669 7.674-9.881 16.81-9.881 26.965 0 14.601 5.435 26.234 16.094 35.142 10.887 8.923 24.239 13.368 39.831 13.368 15.576 0 28.945-4.446 39.587-13.368 10.887-8.907 16.322-20.539 16.322-35.142 0-10.14-3.471-19.291-10.14-26.965s-13.353-12.622-20.037-14.343c6.181-2.74 11.876-7.186 17.571-13.627 5.679-6.425 8.42-14.343 8.42-23.996 0-14.343-5.207-25.716-15.591-34.395-10.141-8.649-22.26-12.866-36.115-12.866s-25.99 4.202-36.39 12.866c-10.141 8.663-15.333 20.037-15.333 34.395 0 9.653 2.726 17.571 8.42 23.996 5.649 6.44 11.358 10.887 17.54 13.627zM263.864 296.798c0 19.048-16.094 31.183-36.862 31.183-20.784 0-36.877-12.135-36.877-31.183 0-19.55 15.347-31.426 36.877-31.426 21.027 0 36.862 11.876 36.862 31.426zM204.483 196.094c6.684-5.192 14.358-7.674 22.519-7.674s15.835 2.482 22.519 7.674c6.669 5.207 10.14 12.622 10.14 22.275 0 18.073-13.856 29.188-32.66 29.188-19.063 0-32.674-11.115-32.674-29.188 0.015-9.653 3.471-17.068 10.155-22.275z"></path>
</svg>
