<!-- Generated by IcoMoon.io -->
<svg version="1.1" xmlns="http://www.w3.org/2000/svg" width="528" height="512" viewBox="0 0 528 512">
<title>DoublingCube8</title>
<path d="M381.228 512h-358.813c-6.939 0-12.572-5.62-12.572-12.572v-347.322c0-3.546 1.471-6.751 3.835-9.026l123.794-119.835c2.351-2.276 5.482-3.546 8.738-3.546h358.813c6.952 0 12.572 5.632 12.572 12.572v347.322c0 3.407-1.37 6.663-3.835 9.039l-123.794 119.834c-2.25 2.175-5.33 3.533-8.738 3.533zM34.987 486.856h333.668v-322.178h-333.668v322.178zM393.8 157.424v312.322l98.651-95.495v-312.322l-98.651 95.495zM53.48 139.535h322.668l97.809-94.691h-322.656l-97.822 94.691z"></path>
<path d="M152.156 333.668c7.128-8.185 14.52-13.464 21.649-15.313-6.6-2.892-12.673-7.656-18.744-14.508-6.072-6.877-8.976-15.325-8.976-25.609 0-15.313 5.544-27.457 16.369-36.685 11.089-9.24 24.024-13.728 38.797-13.728s27.721 4.488 38.532 13.728c11.089 9.24 16.632 21.385 16.632 36.685 0 10.284-2.904 18.732-8.976 25.609-6.072 6.851-12.144 11.616-18.744 14.508 7.128 1.836 14.256 7.115 21.385 15.313s10.824 17.952 10.824 28.764c0 15.577-5.808 27.998-17.424 37.489-11.352 9.505-25.609 14.244-42.228 14.244s-30.889-4.74-42.493-14.244c-11.352-9.505-17.16-21.913-17.16-37.489 0-10.812 3.432-20.58 10.56-28.764zM161.912 362.182c0 20.316 17.16 33.265 39.325 33.265s39.325-12.937 39.325-33.265c0-20.856-16.897-33.529-39.325-33.529-22.956 0-39.325 12.66-39.325 33.529zM201.25 309.644c20.065 0 34.837-11.868 34.837-31.14 0-10.296-3.696-18.216-10.825-23.761s-15.313-8.184-24.024-8.184-16.897 2.64-24.024 8.185-10.825 13.464-10.825 23.76c0.012 19.272 14.533 31.14 34.862 31.14z"></path>
</svg>
