<!-- Generated by IcoMoon.io -->
<svg version="1.1" xmlns="http://www.w3.org/2000/svg" width="528" height="512" viewBox="0 0 528 512">
<title>DoublingCube16</title>
<path d="M381.228 512h-358.813c-6.939 0-12.572-5.62-12.572-12.572v-347.322c0-3.546 1.471-6.751 3.835-9.026l123.794-119.835c2.351-2.276 5.482-3.546 8.738-3.546h358.813c6.952 0 12.572 5.632 12.572 12.572v347.322c0 3.407-1.37 6.663-3.835 9.039l-123.794 119.834c-2.25 2.175-5.33 3.533-8.738 3.533zM34.987 486.856h333.668v-322.178h-333.668v322.178zM393.8 157.424v312.322l98.651-95.495v-312.322l-98.651 95.495zM53.48 139.535h322.668l97.809-94.691h-322.656l-97.822 94.691z"></path>
<path d="M125.127 392.266h36.421c14.256 0 14.256 19.009 0 19.009h-95.546c-14.257 0-14.257-19.009 0-19.009h39.061v-141.22l-32.209 17.94c-6.336 3.96-15.049 0.264-15.049-7.38 0-3.96 2.376-7.392 7.392-10.297l37.212-21.385c5.544-3.168 9.505-4.752 12.144-4.752 6.072 0 10.561 3.696 10.561 11.881v155.212z"></path>
<path d="M270.332 242.071c-15.313 0-27.721 7.128-37.213 21.648s-13.728 33.001-12.936 55.693c9.768-18.216 29.305-27.985 48.301-27.985 16.368 0 30.613 5.531 42.493 16.897 12.144 11.353 18.216 26.137 18.216 44.341 0 18.745-6.072 33.529-18.493 44.869-12.396 11.089-26.401 16.62-42.228 16.62-20.593 0-36.948-8.7-49.093-26.401-12.144-17.676-18.216-41.437-18.216-70.742 0-28.236 6.072-50.941 18.481-68.101s29.305-25.609 50.677-25.609c17.952 0 32.988 5.808 45.146 17.689 5.28 5.28 5.531 10.297 1.056 14.785-3.96 3.96-9.769 4.224-14.784-0.792-8.7-8.687-18.996-12.911-31.404-12.911zM240.235 322.053c-7.656 7.644-11.617 17.952-11.617 30.361 0 12.132 3.96 22.428 11.881 30.625 7.92 8.171 17.688 12.396 29.305 12.396 10.284 0 19.536-3.696 27.18-11.089 7.933-7.392 11.88-17.952 11.88-31.681 0-12.924-3.947-22.969-11.88-30.625-7.908-7.644-17.412-11.616-28.5-11.616-10.825 0.012-20.328 3.986-28.249 11.629z"></path>
</svg>
