<!-- Generated by IcoMoon.io -->
<svg version="1.1" xmlns="http://www.w3.org/2000/svg" width="528" height="512" viewBox="0 0 528 512">
<title>DoublingCube32</title>
<path d="M381.228 512h-358.813c-6.939 0-12.572-5.62-12.572-12.572v-347.322c0-3.546 1.471-6.751 3.835-9.026l123.794-119.835c2.351-2.276 5.482-3.546 8.738-3.546h358.813c6.952 0 12.572 5.632 12.572 12.572v347.322c0 3.407-1.37 6.663-3.835 9.039l-123.794 119.834c-2.25 2.175-5.33 3.533-8.738 3.533zM34.987 486.856h333.668v-322.178h-333.668v322.178zM393.8 157.424v312.322l98.651-95.495v-312.322l-98.651 95.495zM53.48 139.535h322.668l97.809-94.691h-322.656l-97.822 94.691z"></path>
<path d="M62.042 379.87c4.488-4.764 9.24-4.764 14.784 0.264 11.617 10.296 25.609 15.313 41.965 15.313 22.44 0 39.589-12.144 39.589-35.365 0-22.428-19.008-33.265-45.397-33.265h-5.544c-7.392 0-11.088-3.168-11.088-9.505 0-6.6 3.696-9.769 11.088-9.769h2.64c26.401 0 43.813-12.673 43.813-34.572 0-10.296-3.696-18.216-11.352-23.233-7.392-5.016-15.576-7.656-24.817-7.656-13.465 0-25.609 4.752-36.421 13.993-5.544 5.016-10.296 5.016-14.784 0.264s-3.696-9.768 1.848-14.785c13.728-12.144 29.833-18.216 48.301-18.216 15.312 0 28.777 4.488 40.117 13.201s17.161 20.856 17.161 36.685c0 10.033-2.904 18.745-8.713 26.413-5.544 7.644-11.352 12.673-17.424 15.036 17.161 7.128 30.625 22.969 30.625 45.145 0 17.412-5.808 30.877-17.689 40.38-11.617 9.24-26.137 13.98-43.285 13.98-19.008 0-39.852-7.115-53.581-19.524-5.532-5.029-6.324-10.045-1.836-14.784z"></path>
<path d="M266.635 318.633l6.336-4.224 12.937-8.712c2.627-1.836 5.796-4.752 9.755-8.449 8.185-7.392 10.812-15.048 10.812-24.54 0-18.744-14.508-30.625-36.685-30.625-17.689 0-31.153 8.713-40.644 25.86-3.168 5.544-10.032 6.877-13.993 3.709-4.224-2.904-5.28-8.976-2.112-14.521 10.825-19.273 31.417-33.793 56.749-33.793 15.564 0 29.041 4.488 40.117 13.201 11.34 8.713 16.897 20.857 16.897 36.42 0 23.497-14.508 39.337-44.341 58.597l-11.88 7.644c-23.233 14.784-40.38 35.113-41.436 53.065h88.694c14.521 0 14.521 19.009 0 19.009h-98.198c-6.6 0-11.881-5.808-11.881-12.396 0.012-28.262 18.493-53.065 58.874-80.246z"></path>
</svg>
