<!-- Generated by IcoMoon.io -->
<svg version="1.1" xmlns="http://www.w3.org/2000/svg" width="528" height="512" viewBox="0 0 528 512">
<title>DoublingCube2</title>
<path d="M381.228 512h-358.813c-6.939 0-12.572-5.62-12.572-12.572v-347.322c0-3.546 1.471-6.751 3.835-9.026l123.794-119.835c2.351-2.276 5.482-3.546 8.738-3.546h358.813c6.952 0 12.572 5.632 12.572 12.572v347.322c0 3.407-1.37 6.663-3.835 9.039l-123.794 119.834c-2.25 2.175-5.33 3.533-8.738 3.533zM34.987 486.856h333.668v-322.178h-333.668v322.178zM393.8 157.424v312.322l98.651-95.495v-312.322l-98.651 95.495zM53.48 139.535h322.668l97.809-94.691h-322.656l-97.822 94.691z"></path>
<path d="M194.273 318.633l6.336-4.224 12.936-8.712c2.64-1.836 5.808-4.752 9.768-8.449 8.184-7.392 10.825-15.048 10.825-24.54 0-18.744-14.52-30.625-36.684-30.625-17.689 0-31.153 8.713-40.644 25.86-3.168 5.544-10.032 6.877-13.993 3.709-4.224-2.904-5.28-8.976-2.112-14.521 10.825-19.273 31.417-33.793 56.749-33.793 15.577 0 29.041 4.488 40.117 13.201 11.352 8.713 16.897 20.857 16.897 36.42 0 23.497-14.52 39.337-44.341 58.597l-11.881 7.644c-23.233 14.784-40.38 35.113-41.436 53.065h88.694c14.521 0 14.521 19.009 0 19.009h-98.198c-6.6 0-11.881-5.808-11.881-12.396-0.012-28.262 18.468-53.065 58.849-80.246z"></path>
</svg>
