<!-- Generated by IcoMoon.io -->
<svg version="1.1" xmlns="http://www.w3.org/2000/svg" width="528" height="512" viewBox="0 0 528 512">
<title>DoublingCube64</title>
<path d="M381.228 512h-358.813c-6.939 0-12.572-5.62-12.572-12.572v-347.322c0-3.546 1.471-6.751 3.835-9.026l123.794-119.835c2.351-2.276 5.482-3.546 8.738-3.546h358.813c6.952 0 12.572 5.632 12.572 12.572v347.322c0 3.407-1.37 6.663-3.835 9.039l-123.794 119.834c-2.25 2.175-5.33 3.533-8.738 3.533zM34.987 486.856h333.668v-322.178h-333.668v322.178zM393.8 157.424v312.322l98.651-95.495v-312.322l-98.651 95.495zM53.48 139.535h322.668l97.809-94.691h-322.656l-97.822 94.691z"></path>
<path d="M128.56 242.071c-15.313 0-27.721 7.128-37.213 21.648s-13.728 33.001-12.936 55.693c9.769-18.216 29.305-27.985 48.301-27.985 16.368 0 30.625 5.531 42.493 16.897 12.144 11.353 18.216 26.137 18.216 44.341 0 18.745-6.072 33.529-18.481 44.869-12.409 11.089-26.401 16.62-42.228 16.62-20.593 0-36.948-8.7-49.093-26.401-12.145-17.676-18.216-41.437-18.216-70.742 0-28.236 6.072-50.941 18.48-68.101s29.305-25.609 50.677-25.609c17.952 0 33.001 5.808 45.133 17.689 5.28 5.28 5.544 10.297 1.056 14.785-3.96 3.96-9.768 4.224-14.785-0.792-8.7-8.687-18.996-12.911-31.405-12.911zM98.475 322.053c-7.656 7.644-11.617 17.952-11.617 30.361 0 12.132 3.96 22.428 11.88 30.625 7.92 8.171 17.689 12.396 29.305 12.396 10.297 0 19.536-3.696 27.193-11.089 7.92-7.392 11.881-17.952 11.881-31.681 0-12.924-3.96-22.969-11.881-30.625s-17.424-11.616-28.513-11.616c-10.837 0.012-20.341 3.986-28.249 11.629z"></path>
<path d="M299.637 230.466c2.376-3.432 5.808-5.28 10.033-5.28 7.644 0 11.616 4.488 11.616 13.201v107.162h17.425c7.128 0 10.812 3.168 10.812 9.505s-3.683 9.505-10.812 9.505h-17.425v36.697c0 7.644-3.42 11.353-10.033 11.353s-10.033-3.709-10.033-11.353v-36.697h-73.909c-8.713 0-12.936-3.683-12.936-11.34 0-2.64 1.32-5.808 3.696-9.228l81.566-113.524zM238.928 345.536h62.293v-85.777l-62.293 85.778z"></path>
</svg>
