<!-- Generated by IcoMoon.io -->
<svg version="1.1" xmlns="http://www.w3.org/2000/svg" width="528" height="512" viewBox="0 0 528 512">
<title>DoublingCube4</title>
<path d="M381.228 512h-358.813c-6.939 0-12.572-5.62-12.572-12.572v-347.322c0-3.546 1.471-6.751 3.835-9.026l123.794-119.835c2.351-2.276 5.482-3.546 8.738-3.546h358.813c6.952 0 12.572 5.632 12.572 12.572v347.322c0 3.407-1.37 6.663-3.835 9.039l-123.794 119.834c-2.25 2.175-5.33 3.533-8.738 3.533zM34.987 486.856h333.668v-322.178h-333.668v322.178zM393.8 157.424v312.322l98.651-95.495v-312.322l-98.651 95.495zM53.48 139.535h322.668l97.809-94.691h-322.656l-97.822 94.691z"></path>
<path d="M209.044 230.466c2.376-3.432 5.808-5.28 10.032-5.28 7.656 0 11.617 4.488 11.617 13.201v107.162h17.424c7.128 0 10.825 3.168 10.825 9.505s-3.696 9.505-10.825 9.505h-17.424v36.697c0 7.644-3.432 11.353-10.032 11.353s-10.032-3.709-10.032-11.353v-36.697h-73.91c-8.713 0-12.936-3.683-12.936-11.34 0-2.64 1.32-5.808 3.696-9.228l81.566-113.524zM148.335 345.536h62.293v-85.777l-62.293 85.778z"></path>
</svg>
