<!-- Generated by IcoMoon.io -->
<svg version="1.1" xmlns="http://www.w3.org/2000/svg" width="199" height="512" viewBox="0 0 199 512">
<title>DroneOnDroneOnPawnExpanded</title>
<path d="M63.243 307.659c6.018 0 10.901-4.863 10.901-10.881 0-0.325-0.020-0.663-0.053-1.009-0.013-0.079-0.013-0.139-0.026-0.219-0.285-2.827-1.473-6.595-2.946-10.444-2.309-5.985-5.341-12.155-6.88-15.174-0.298-0.597-0.922-0.611-1.44-0.339-0.193 0.106-0.425 0.113-0.544 0.339-2.548 4.95-9.13 18.365-9.826 25.657-0.014 0.053-0.014 0.106-0.020 0.139-0.040 0.365-0.059 0.716-0.059 1.048 0 0.113 0.026 0.219 0.033 0.332 0.172 5.639 4.624 10.151 10.224 10.483 0.212 0.014 0.418 0.067 0.637 0.067z"></path>
<path d="M92.995 307.659c6.018 0 10.901-4.863 10.901-10.881 0-0.325-0.026-0.663-0.053-1.009-0.013-0.079-0.013-0.139-0.026-0.219-0.723-7.219-7.299-20.654-9.826-25.618-0.412-0.816-1.573-0.816-1.984 0-2.548 4.95-9.129 18.365-9.826 25.657-0.013 0.053-0.013 0.106-0.013 0.139-0.040 0.365-0.059 0.71-0.059 1.048 0 6.018 4.877 10.881 10.888 10.881z"></path>
<path d="M95.596 487.776c6.011 0 10.901-4.87 10.901-10.888 0-0.325-0.026-0.663-0.067-1.009 0-0.079-0.013-0.139-0.013-0.219-0.73-7.219-7.299-20.654-9.84-25.618-0.418-0.816-1.566-0.816-1.984 0-2.555 4.95-9.123 18.365-9.833 25.657 0 0.053-0.013 0.106-0.013 0.139-0.026 0.365-0.053 0.71-0.053 1.048 0 6.011 4.877 10.888 10.901 10.888z"></path>
<path d="M159.376 331.883h22.711c2.176 0 4.22-1.062 5.454-2.866 1.248-1.791 1.519-4.080 0.75-6.118l-82.776-218.825c-0.975-2.588-3.45-4.286-6.21-4.286s-5.228 1.705-6.21 4.286l-82.784 218.825c-0.77 2.037-0.491 4.326 0.749 6.118 1.24 1.798 3.277 2.866 5.454 2.866h22.711l-28.915 76.434c-0.77 2.037-0.491 4.326 0.749 6.118 1.24 1.798 3.277 2.866 5.454 2.866h45.581l-34.183 85.596c-0.816 2.050-0.57 4.365 0.663 6.183 1.247 1.825 3.291 2.913 5.493 2.913h124.331c2.203 0 4.253-1.088 5.494-2.913 1.234-1.812 1.48-4.134 0.663-6.183l-34.196-85.596h51.739c2.176 0 4.22-1.062 5.454-2.866 1.248-1.791 1.519-4.080 0.75-6.118l-28.928-76.434zM26.122 318.613l73.183-193.44 73.183 193.44h-146.365zM148.595 498.724h-104.731l32.531-81.423h39.67l32.531 81.423zM125.054 404.031h-98.933l27.296-72.147h91.78l27.289 72.147h-47.433z"></path>
<path d="M74.065 380.968c-0.723-7.219-7.299-20.654-9.826-25.618-0.411-0.816-1.559-0.816-1.984 0-2.548 4.95-9.13 18.365-9.826 25.657-0.014 0.053-0.014 0.106-0.020 0.139-0.033 0.365-0.053 0.71-0.053 1.048 0 6.011 4.877 10.881 10.895 10.881s10.901-4.863 10.901-10.881c0-0.325-0.020-0.663-0.053-1.009-0.020-0.079-0.020-0.139-0.033-0.219z"></path>
<path d="M103.816 380.968c-0.723-7.219-7.299-20.654-9.826-25.618-0.412-0.816-1.573-0.816-1.984 0-2.548 4.95-9.129 18.365-9.826 25.657-0.013 0.053-0.013 0.106-0.013 0.139-0.040 0.365-0.059 0.71-0.059 1.048 0 3.729 1.877 7.007 4.731 8.964 1.758 1.207 3.875 1.918 6.164 1.918 4.876 0 8.957-3.212 10.35-7.623 0.325-1.029 0.55-2.11 0.55-3.251 0-0.325-0.026-0.663-0.053-1.009-0.020-0.087-0.020-0.146-0.033-0.226z"></path>
</svg>
