<!-- Generated by IcoMoon.io -->
<svg version="1.1" xmlns="http://www.w3.org/2000/svg" width="252" height="512" viewBox="0 0 252 512">
<title>DroneOnPawnOnQueenExpanded</title>
<path d="M241.493 502.784l-73.294-173.964h19.818c2.202 0 4.26-1.088 5.494-2.913 1.234-1.818 1.486-4.134 0.67-6.183l-27.137-67.921h41.6c2.176 0 4.22-1.068 5.454-2.866 1.248-1.798 1.519-4.081 0.75-6.118l-82.782-218.835c-0.976-2.587-3.45-4.286-6.21-4.286s-5.228 1.705-6.21 4.286l-82.775 218.835c-0.776 2.037-0.498 4.326 0.749 6.118 1.24 1.798 3.278 2.866 5.454 2.866h41.593l-27.13 67.913c-0.816 2.050-0.564 4.359 0.67 6.183 1.24 1.825 3.291 2.913 5.493 2.913h19.917l-73.301 173.971c-0.863 2.063-0.643 4.392 0.591 6.243s3.304 2.966 5.527 2.966h218.948c2.222 0 4.292-1.115 5.527-2.966s1.446-4.18 0.584-6.243zM52.673 238.534l73.189-193.457 73.175 193.451h-146.363zM73.493 315.55l25.465-63.747h53.795l25.464 63.747h-104.724zM26.427 498.731l71.59-169.911h55.772l71.589 169.911h-198.951z"></path>
<path d="M74.276 475.661c-0.73-7.219-7.305-20.654-9.833-25.63-0.412-0.803-1.572-0.803-1.984 0-2.548 4.963-9.13 18.378-9.826 25.67-0.014 0.040-0.014 0.106-0.014 0.139-0.040 0.365-0.053 0.71-0.053 1.035 0 6.024 4.87 10.901 10.887 10.901 6.025 0 10.901-4.87 10.901-10.901 0-0.312-0.020-0.65-0.053-0.995-0.013-0.073-0.020-0.152-0.026-0.219z"></path>
<path d="M104.027 475.661c-0.723-7.219-7.299-20.654-9.826-25.63-0.412-0.803-1.559-0.803-1.984 0-2.548 4.963-9.129 18.378-9.826 25.67-0.013 0.040-0.013 0.106-0.013 0.139-0.040 0.365-0.059 0.71-0.059 1.035 0 6.024 4.877 10.901 10.895 10.901s10.901-4.87 10.901-10.901c0-0.312-0.020-0.65-0.053-0.995-0.020-0.073-0.020-0.152-0.033-0.219z"></path>
<path d="M133.777 475.661c-0.723-7.219-7.299-20.654-9.826-25.63-0.412-0.803-1.566-0.803-1.99 0-2.541 4.963-9.123 18.378-9.826 25.67-0.007 0.040-0.007 0.106-0.013 0.139-0.033 0.365-0.053 0.71-0.053 1.035 0 6.024 4.876 10.901 10.894 10.901s10.901-4.87 10.901-10.901c0-0.312-0.026-0.65-0.053-0.995-0.020-0.073-0.020-0.152-0.033-0.219z"></path>
<path d="M119.552 227.58c6.018 0 10.901-4.87 10.901-10.894 0-0.319-0.026-0.657-0.053-1.008-0.013-0.073-0.013-0.139-0.026-0.219-0.597-5.899-5.069-15.891-8.075-22.081-0.67-1.38-1.294-2.634-1.751-3.536-0.412-0.81-1.573-0.81-1.984 0-2.548 4.956-9.129 18.365-9.826 25.663-0.013 0.047-0.013 0.1-0.013 0.139-0.040 0.358-0.059 0.71-0.059 1.042 0 2.269 0.697 4.373 1.885 6.118 1.951 2.886 5.255 4.777 9.004 4.777z"></path>
<path d="M100.617 215.458c-0.073-0.756-0.252-1.613-0.438-2.482-1.652-7.477-7.119-18.69-9.388-23.136-0.412-0.81-1.559-0.81-1.984 0-2.548 4.956-9.13 18.365-9.826 25.663-0.013 0.047-0.013 0.1-0.020 0.139-0.033 0.358-0.053 0.71-0.053 1.042 0 6.018 4.877 10.894 10.895 10.894 1.838 0 3.543-0.498 5.069-1.3 3.457-1.825 5.832-5.407 5.832-9.588 0-0.319-0.020-0.657-0.053-1.008-0.020-0.073-0.020-0.146-0.033-0.226z"></path>
<path d="M125.225 304.596c6.011 0 10.894-4.87 10.894-10.894 0-0.318-0.026-0.657-0.060-1.009 0-0.073-0.013-0.139-0.013-0.219-0.73-7.212-7.305-20.647-9.833-25.617-0.418-0.81-1.566-0.81-1.984 0-0.166 0.332-0.398 0.783-0.597 1.188-2.196 4.332-6.058 12.427-8.041 19.082-0.591 1.971-1.049 3.835-1.195 5.394-0.007 0.046-0.013 0.099-0.013 0.139-0.033 0.358-0.053 0.71-0.053 1.041-0.007 6.024 4.87 10.894 10.895 10.894z"></path>
</svg>
