<!-- Generated by IcoMoon.io -->
<svg version="1.1" xmlns="http://www.w3.org/2000/svg" width="199" height="512" viewBox="0 0 199 512">
<title>DroneOnPawnOnPawn</title>
<path d="M188.384 406.625l-83.002-219.429c-0.962-2.528-3.377-4.2-6.084-4.2-2.701 0-5.122 1.672-6.084 4.2l-83.009 219.429c-0.756 1.997-0.477 4.226 0.736 5.985 1.214 1.752 3.212 2.813 5.348 2.813h49.622l-34.939 87.481c-0.816 2.050-0.564 4.359 0.67 6.183 1.24 1.825 3.291 2.913 5.493 2.913h124.317c2.203 0 4.266-1.088 5.494-2.913 1.234-1.818 1.493-4.134 0.677-6.183l-34.952-87.481h49.629c2.137 0 4.14-1.062 5.355-2.813 1.214-1.758 1.493-3.988 0.73-5.985zM151.654 498.731h-104.725l33.274-83.308h38.171l33.28 83.308zM151.905 402.412l-46.497-128.205c-0.929-2.581-3.371-4.293-6.111-4.293-2.734 0-5.182 1.719-6.104 4.293l-23.341 64.345h13.827l15.618-43.067 38.807 106.928h-112.408l73.594-194.548 73.6 194.548h-20.986z"></path>
<path d="M62.215 353.791c-0.418-0.816-1.572-0.816-1.997 0-2.548 4.963-9.15 18.399-9.853 25.736-0.007 0.040-0.007 0.093-0.014 0.139-0.033 0.365-0.053 0.697-0.053 1.035 0 2.336 0.749 4.485 1.997 6.257 1.977 2.813 5.228 4.664 8.924 4.664 1.208 0 2.349-0.245 3.437-0.611 4.339-1.453 7.491-5.493 7.491-10.317 0-0.325-0.020-0.663-0.053-1.009-0.007-0.067-0.013-0.139-0.020-0.219-0.159-1.579-0.63-3.47-1.24-5.481-1.818-5.998-5.156-13.23-7.392-17.768-0.465-0.935-0.889-1.765-1.227-2.428z"></path>
<path d="M89.757 391.504c0.424 0.053 0.85 0.132 1.287 0.132 6.044 0 10.927-4.897 10.927-10.921 0-0.325-0.020-0.663-0.053-1.009-0.013-0.067-0.013-0.139-0.026-0.219-0.292-2.893-1.526-6.774-3.058-10.716-2.296-5.931-5.268-11.983-6.794-14.969-0.278-0.558-0.85-0.591-1.353-0.398-0.239 0.099-0.504 0.139-0.644 0.398-2.548 4.963-9.156 18.399-9.859 25.736-0.007 0.040-0.007 0.093-0.013 0.139 0 0.020 0 0.033 0 0.053-0.026 0.345-0.046 0.67-0.046 0.982 0.007 5.58 4.22 10.138 9.634 10.788z"></path>
<path d="M98.667 487.783c6.011 0 10.888-4.87 10.888-10.894 0-0.318-0.026-0.657-0.053-1.009 0-0.073-0.013-0.139-0.013-0.219-0.737-7.212-7.311-20.647-9.84-25.618-0.418-0.81-1.566-0.81-1.984 0-2.555 4.957-9.13 18.365-9.84 25.663-0.007 0.046-0.013 0.099-0.013 0.139-0.033 0.358-0.053 0.71-0.053 1.041 0.007 6.018 4.877 10.894 10.907 10.894z"></path>
</svg>
