<!-- Generated by IcoMoon.io -->
<svg version="1.1" xmlns="http://www.w3.org/2000/svg" width="252" height="512" viewBox="0 0 252 512">
<title>DroneOnQueenOnPawn</title>
<path d="M241.393 502.997l-43.405-103.019h10.702c2.176 0 4.22-1.075 5.454-2.866 1.248-1.798 1.519-4.080 0.75-6.118l-82.775-218.842c-0.976-2.588-3.45-4.286-6.21-4.286s-5.228 1.705-6.21 4.286l-82.782 218.842c-0.77 2.037-0.491 4.313 0.749 6.118 1.24 1.791 3.278 2.866 5.454 2.866h10.636l-43.405 103.019c-0.842 2.010-0.63 4.286 0.57 6.104s3.231 2.906 5.407 2.906h219.074c2.176 0 4.207-1.088 5.407-2.906s1.433-4.101 0.584-6.104zM52.727 386.702l73.181-193.457 73.175 193.457h-146.357zM81.495 499.015l0.026-0.067h-14.106l-0.033 0.073h-14.53l0.026-0.073h-14.099l-0.033 0.073h-12.646l41.739-99.051h41.766l-15.273 35.834h14.105l15.273-35.834h5.109l42.21 99.044h-89.537zM212.996 499.022h-27.846l-42.224-99.051h40.989l41.733 99.051h-12.653z"></path>
<path d="M74.21 475.788c-0.412-4.027-2.634-9.959-4.963-15.313-1.844-4.247-3.748-8.121-4.877-10.324-0.418-0.822-1.572-0.822-1.99-0.014-2.541 4.963-9.13 18.385-9.833 25.683-0.007 0.053-0.007 0.087-0.014 0.139-0.033 0.372-0.053 0.723-0.053 1.055 0 4.113 2.316 7.663 5.679 9.514 1.553 0.849 3.318 1.38 5.221 1.38 6.018 0 10.895-4.877 10.895-10.894 0-0.318-0.013-0.663-0.046-1.015-0.007-0.079-0.013-0.132-0.020-0.212z"></path>
<path d="M103.981 475.788c-0.438-4.346-2.999-10.934-5.52-16.587-1.659-3.736-3.311-7.066-4.319-9.043-0.418-0.822-1.566-0.822-1.99-0.014-2.541 4.963-9.13 18.385-9.833 25.683-0.007 0.053-0.013 0.087-0.013 0.139-0.033 0.372-0.053 0.723-0.053 1.055 0 3.742 1.891 7.053 4.77 9.003 1.751 1.195 3.855 1.885 6.124 1.885 6.018 0 10.901-4.877 10.901-10.894 0-0.318-0.020-0.663-0.053-1.015 0-0.079-0.007-0.132-0.013-0.212z"></path>
<path d="M121.921 450.144c-2.541 4.963-9.136 18.385-9.833 25.683-0.007 0.053-0.007 0.087-0.013 0.139-0.033 0.372-0.053 0.723-0.053 1.055 0 6.011 4.877 10.894 10.901 10.894s10.901-4.877 10.901-10.894c0-0.318-0.020-0.663-0.060-1.015-0.006-0.079-0.013-0.139-0.020-0.212-0.73-7.226-7.299-20.668-9.826-25.63-0.418-0.829-1.573-0.829-1.997-0.020z"></path>
<path d="M89.849 375.748c6.018 0 10.901-4.87 10.901-10.887 0-0.325-0.020-0.663-0.053-1.009-0.013-0.079-0.013-0.139-0.026-0.219-0.597-5.945-5.142-16.056-8.147-22.233-0.644-1.313-1.234-2.521-1.678-3.39-0.412-0.816-1.559-0.816-1.984 0-2.548 4.95-9.13 18.365-9.826 25.656-0.013 0.053-0.013 0.106-0.020 0.139-0.033 0.365-0.053 0.71-0.053 1.048 0 1.938 0.55 3.736 1.439 5.315 1.865 3.317 5.374 5.58 9.448 5.58z"></path>
<path d="M119.599 375.748c0.12 0 0.225-0.026 0.338-0.033 3.45-0.113 6.475-1.805 8.393-4.399 1.34-1.812 2.163-4.027 2.163-6.455 0-0.325-0.026-0.663-0.053-1.009-0.013-0.079-0.013-0.139-0.026-0.219-0.723-7.219-7.299-20.654-9.826-25.617-0.412-0.816-1.573-0.816-1.984 0-2.548 4.95-9.129 18.365-9.826 25.656-0.013 0.053-0.013 0.106-0.013 0.139-0.040 0.365-0.059 0.71-0.059 1.048 0.007 6.011 4.883 10.887 10.895 10.887z"></path>
</svg>
