<!-- Generated by IcoMoon.io -->
<svg version="1.1" xmlns="http://www.w3.org/2000/svg" width="199" height="512" viewBox="0 0 199 512">
<title>Drone</title>
<path d="M182.054 512h-165.566c-2.176 0-4.22-1.062-5.454-2.866-1.248-1.791-1.52-4.080-0.749-6.118l82.79-218.832c0.975-2.594 3.45-4.286 6.21-4.286v0c2.76 0 5.228 1.699 6.21 4.286l82.784 218.832c0.769 2.037 0.491 4.326-0.75 6.118-1.254 1.805-3.291 2.866-5.474 2.866zM26.088 498.731h146.365l-73.183-193.447-73.183 193.447z"></path>
<path d="M52.369 475.846c0.007-0.040 0.007-0.093 0.020-0.139 0.697-7.298 7.285-20.707 9.826-25.657 0.418-0.816 1.572-0.816 1.984 0 2.534 4.963 9.103 18.399 9.826 25.618 0.013 0.079 0.013 0.139 0.026 0.219 0.033 0.351 0.053 0.69 0.053 1.009 0 6.011-4.876 10.888-10.901 10.888-6.011 0-10.895-4.87-10.895-10.888 0.007-0.339 0.026-0.69 0.059-1.048z"></path>
<path d="M82.126 475.846c0-0.040 0-0.093 0.013-0.139 0.697-7.298 7.285-20.707 9.826-25.657 0.412-0.816 1.573-0.816 1.984 0 2.534 4.963 9.103 18.399 9.826 25.618 0.013 0.079 0.013 0.139 0.026 0.219 0.026 0.351 0.053 0.69 0.053 1.009 0 6.011-4.876 10.888-10.901 10.888-6.011 0-10.895-4.87-10.895-10.888 0.013-0.339 0.033-0.69 0.067-1.048z"></path>
</svg>
