<!-- Generated by IcoMoon.io -->
<svg version="1.1" xmlns="http://www.w3.org/2000/svg" width="199" height="512" viewBox="0 0 199 512">
<title>DroneOnPawnOnPawnExpanded</title>
<path d="M188.298 322.899l-82.784-218.825c-0.975-2.588-3.45-4.286-6.21-4.286s-5.228 1.705-6.21 4.286l-82.784 218.825c-0.77 2.037-0.491 4.326 0.749 6.118 1.24 1.798 3.277 2.866 5.454 2.866h45.708l-31.237 78.212c-0.816 2.050-0.57 4.365 0.663 6.183 1.247 1.825 3.291 2.913 5.494 2.913h27.282l-33.44 83.712c-0.816 2.050-0.57 4.365 0.663 6.183 1.248 1.825 3.291 2.913 5.493 2.913h124.331c2.203 0 4.253-1.088 5.494-2.913 1.234-1.812 1.48-4.134 0.663-6.183l-33.446-83.712h27.289c2.203 0 4.253-1.088 5.494-2.913 1.234-1.812 1.48-4.134 0.663-6.183l-31.25-78.212h45.715c2.176 0 4.22-1.062 5.454-2.866 1.24-1.791 1.519-4.080 0.75-6.118zM151.673 498.731h-104.731l31.781-79.539h41.183l31.768 79.539zM151.673 405.921h-104.731l29.579-74.038h45.582l29.571 74.038zM131.078 318.613h-104.957l73.183-193.44 73.183 193.44h-41.409z"></path>
<path d="M74.065 295.55c-0.723-7.219-7.299-20.654-9.826-25.618-0.411-0.816-1.559-0.816-1.984 0-2.548 4.95-9.13 18.365-9.826 25.657-0.014 0.053-0.014 0.106-0.020 0.139-0.040 0.365-0.059 0.716-0.059 1.048 0 6.011 4.877 10.881 10.895 10.881s10.901-4.863 10.901-10.881c0-0.325-0.020-0.663-0.053-1.009-0.013-0.079-0.013-0.139-0.026-0.219z"></path>
<path d="M93.99 269.933c-0.412-0.816-1.573-0.816-1.984 0-2.548 4.95-9.13 18.365-9.826 25.657-0.013 0.053-0.013 0.106-0.013 0.139-0.040 0.365-0.059 0.71-0.059 1.048 0 3.762 1.918 7.079 4.83 9.030 1.739 1.168 3.822 1.844 6.064 1.844 6.018 0 10.901-4.863 10.901-10.881 0-0.325-0.026-0.663-0.053-1.009-0.013-0.079-0.013-0.139-0.026-0.219-0.458-4.551-3.225-11.545-5.852-17.35-1.546-3.417-3.046-6.423-3.981-8.26z"></path>
<path d="M98.674 394.967c4.014 0 7.491-2.196 9.382-5.428 0.949-1.606 1.519-3.457 1.519-5.454 0-0.325-0.026-0.663-0.067-1.009 0-0.079-0.013-0.139-0.013-0.219-0.723-7.219-7.299-20.654-9.84-25.618-0.418-0.816-1.566-0.816-1.984 0-2.555 4.95-9.123 18.365-9.833 25.657 0 0.053-0.013 0.106-0.013 0.139-0.026 0.365-0.053 0.71-0.053 1.048 0 2.514 0.882 4.797 2.316 6.642 1.99 2.561 5.076 4.24 8.585 4.24z"></path>
<path d="M98.674 487.783c6.011 0 10.901-4.87 10.901-10.888 0-0.325-0.026-0.663-0.067-1.009 0-0.079-0.013-0.139-0.013-0.219-0.723-7.219-7.299-20.654-9.84-25.618-0.418-0.816-1.566-0.816-1.984 0-2.555 4.95-9.123 18.365-9.833 25.657 0 0.053-0.013 0.106-0.013 0.139-0.026 0.365-0.053 0.71-0.053 1.048 0 6.011 4.87 10.888 10.901 10.888z"></path>
</svg>
