<!-- Generated by IcoMoon.io -->
<svg version="1.1" xmlns="http://www.w3.org/2000/svg" width="252" height="512" viewBox="0 0 252 512">
<title>DroneOnQueen</title>
<path d="M64.397 450.031c-0.418-0.803-1.566-0.803-1.984 0-2.554 4.963-9.13 18.365-9.833 25.656 0 0.053 0 0.106-0.014 0.152-0.033 0.351-0.053 0.71-0.053 1.035 0 6.024 4.87 10.901 10.901 10.901 6.011 0 10.894-4.87 10.894-10.901 0-0.312-0.020-0.663-0.059-1.009 0-0.067-0.013-0.139-0.013-0.219-0.737-7.205-7.311-20.641-9.84-25.617z"></path>
<path d="M93.159 487.783c6.018 0 10.895-4.87 10.895-10.901 0-0.312-0.013-0.663-0.053-1.009 0-0.067-0.013-0.139-0.013-0.219-0.737-7.205-7.305-20.641-9.833-25.617-0.418-0.803-1.566-0.803-1.984 0-2.555 4.963-9.136 18.365-9.833 25.656-0.007 0.053-0.007 0.106-0.013 0.152-0.033 0.351-0.053 0.71-0.053 1.035-0.007 6.024 4.864 10.901 10.888 10.901z"></path>
<path d="M122.903 487.783c6.025 0 10.901-4.87 10.901-10.901 0-0.312-0.013-0.663-0.053-1.009-0.013-0.067-0.013-0.139-0.026-0.219-0.723-7.205-7.299-20.641-9.82-25.617-0.418-0.803-1.566-0.803-1.984 0-2.555 4.963-9.136 18.365-9.84 25.656-0.013 0.053-0.013 0.106-0.013 0.152-0.040 0.351-0.053 0.71-0.053 1.035 0 6.024 4.876 10.901 10.888 10.901z"></path>
<path d="M241.453 502.784l-43.319-102.813h10.51c2.176 0 4.226-1.075 5.454-2.866 1.248-1.798 1.526-4.080 0.75-6.118l-82.782-218.835c-0.982-2.588-3.45-4.286-6.21-4.286s-5.235 1.705-6.21 4.286l-82.775 218.842c-0.77 2.037-0.491 4.313 0.749 6.118 1.24 1.791 3.278 2.866 5.454 2.866h10.509l-43.319 102.806c-0.863 2.050-0.643 4.392 0.591 6.243s3.304 2.966 5.527 2.966h218.948c2.216 0 4.286-1.115 5.52-2.966s1.459-4.193 0.604-6.243zM52.68 386.702l73.181-193.457 73.175 193.457h-146.357zM26.38 498.731l41.607-98.759h115.731l41.607 98.759h-198.944z"></path>
<path d="M78.96 363.818c0.007-0.053 0.007-0.106 0.013-0.139 0.697-7.312 7.285-20.714 9.833-25.663 0.418-0.816 1.566-0.816 1.984 0 2.534 4.963 9.097 18.405 9.833 25.611 0 0.079 0.013 0.152 0.013 0.219 0.040 0.351 0.053 0.697 0.053 1.009 0 6.024-4.87 10.901-10.895 10.901s-10.894-4.87-10.894-10.901c0.007-0.325 0.026-0.683 0.059-1.035z"></path>
<path d="M108.711 363.818c0-0.053 0.007-0.106 0.013-0.139 0.697-7.312 7.285-20.714 9.833-25.663 0.412-0.816 1.566-0.816 1.984 0 2.528 4.963 9.103 18.405 9.826 25.611 0.013 0.079 0.026 0.152 0.026 0.219 0.026 0.351 0.053 0.697 0.053 1.009 0 6.024-4.87 10.901-10.894 10.901-6.018 0-10.894-4.87-10.894-10.901 0-0.325 0.020-0.683 0.053-1.035z"></path>
</svg>
