<!-- Generated by IcoMoon.io -->
<svg version="1.1" xmlns="http://www.w3.org/2000/svg" width="315" height="512" viewBox="0 0 315 512">
<title>DronePointingLeft</title>
<path d="M303.721 508.601c-1.482 2.139-3.914 3.423-6.522 3.408l-279.419-0.317c-3.304 0-6.244-2.045-7.409-5.119v0c-1.165-3.098-0.301-6.577 2.171-8.756l209.689-184.697c1.95-1.728 4.612-2.377 7.139-1.736 2.528 0.618 4.588 2.449 5.507 4.889l69.738 185.022c0.943 2.425 0.602 5.166-0.896 7.306zM38.732 495.859l247.026 0.277-61.656-163.557-185.37 163.279z"></path>
<path d="M209.586 371.597c-0.048 0.016-0.111 0.031-0.159 0.079-7.845 3.851-20.071 16.87-24.548 21.791-0.713 0.808-0.23 2.108 0.848 2.211 6.608 0.745 24.405 2.433 32.765 0.182 0.111-0.016 0.182-0.048 0.254-0.063 0.428-0.111 0.808-0.23 1.165-0.356 6.727-2.536 10.103-10.048 7.567-16.759-2.528-6.736-10.031-10.119-16.775-7.599-0.34 0.151-0.745 0.333-1.118 0.515z"></path>
<path d="M222.13 404.846c-0.055 0.031-0.103 0.048-0.167 0.079-7.861 3.851-20.055 16.87-24.548 21.791-0.721 0.808-0.23 2.108 0.848 2.226 6.617 0.713 24.389 2.417 32.757 0.182 0.103-0.031 0.19-0.048 0.269-0.048 0.404-0.127 0.792-0.245 1.157-0.373 6.727-2.551 10.095-10.063 7.567-16.775-2.52-6.719-10.031-10.119-16.767-7.583-0.333 0.142-0.745 0.309-1.118 0.499z"></path>
</svg>
