<!-- Generated by IcoMoon.io -->
<svg version="1.1" xmlns="http://www.w3.org/2000/svg" width="315" height="512" viewBox="0 0 315 512">
<title>DronePointingRight</title>
<path d="M10.373 501.295l69.738-185.022c0.919-2.449 2.98-4.271 5.507-4.889 2.528-0.642 5.19 0.008 7.139 1.736l209.689 184.697c2.48 2.179 3.344 5.666 2.163 8.756v0c-1.157 3.082-4.104 5.119-7.401 5.119l-279.419 0.309c-2.607 0.016-5.047-1.268-6.521-3.408-1.498-2.132-1.838-4.873-0.896-7.298zM90.894 332.588l-61.663 163.548 247.026-0.277-185.363-163.271z"></path>
<path d="M105.403 371.597c0.047 0.016 0.111 0.031 0.159 0.079 7.844 3.851 20.071 16.87 24.548 21.791 0.713 0.808 0.23 2.108-0.848 2.211-6.609 0.745-24.406 2.433-32.765 0.182-0.111-0.016-0.182-0.048-0.254-0.063-0.428-0.111-0.808-0.23-1.165-0.356-6.728-2.536-10.103-10.048-7.567-16.759 2.528-6.736 10.031-10.119 16.775-7.599 0.341 0.151 0.745 0.333 1.118 0.515z"></path>
<path d="M92.859 404.846c0.055 0.031 0.103 0.048 0.166 0.079 7.861 3.851 20.055 16.87 24.548 21.791 0.721 0.808 0.23 2.108-0.848 2.226-6.617 0.713-24.389 2.417-32.757 0.182-0.103-0.031-0.19-0.048-0.269-0.048-0.404-0.127-0.793-0.245-1.157-0.373-6.728-2.551-10.095-10.063-7.567-16.775 2.52-6.719 10.031-10.119 16.767-7.583 0.333 0.142 0.745 0.309 1.118 0.499z"></path>
</svg>
