<!-- Generated by IcoMoon.io -->
<svg version="1.1" xmlns="http://www.w3.org/2000/svg" width="199" height="512" viewBox="0 0 199 512">
<title>DroneOnDroneOnDrone</title>
<path d="M63.264 487.783c6.018 0 10.901-4.87 10.901-10.888 0-0.325-0.020-0.663-0.053-1.009-0.013-0.079-0.013-0.139-0.026-0.219-0.723-7.219-7.299-20.654-9.826-25.618-0.411-0.816-1.559-0.816-1.984 0-2.548 4.95-9.13 18.365-9.826 25.657-0.014 0.053-0.014 0.106-0.020 0.139-0.033 0.365-0.053 0.71-0.053 1.048-0.007 6.011 4.87 10.888 10.888 10.888z"></path>
<path d="M93.014 487.783c6.018 0 10.901-4.87 10.901-10.888 0-0.325-0.026-0.663-0.053-1.009-0.013-0.079-0.013-0.139-0.026-0.219-0.723-7.219-7.299-20.654-9.826-25.618-0.412-0.816-1.573-0.816-1.984 0-2.548 4.95-9.129 18.365-9.826 25.657-0.013 0.053-0.013 0.106-0.013 0.139-0.040 0.365-0.059 0.71-0.059 1.048-0.007 6.011 4.877 10.888 10.888 10.888z"></path>
<path d="M93.021 343.447c6.018 0 10.901-4.87 10.901-10.888 0-0.325-0.026-0.663-0.053-1.009-0.013-0.079-0.013-0.139-0.026-0.219-0.723-7.219-7.299-20.654-9.826-25.618-0.412-0.816-1.573-0.816-1.984 0-2.548 4.95-9.129 18.365-9.826 25.657-0.013 0.053-0.013 0.106-0.013 0.139-0.040 0.365-0.059 0.71-0.059 1.048-0.007 6.011 4.877 10.888 10.888 10.888z"></path>
<path d="M182.114 439.832c2.176 0 4.22-1.062 5.454-2.866 1.248-1.791 1.519-4.080 0.75-6.118l-23.905-63.184h17.695c2.176 0 4.22-1.062 5.454-2.866 1.248-1.791 1.519-4.080 0.75-6.118l-82.77-218.832c-0.975-2.588-3.45-4.286-6.21-4.286s-5.228 1.705-6.21 4.286l-82.784 218.838c-0.77 2.037-0.491 4.326 0.749 6.118 1.24 1.798 3.277 2.866 5.454 2.866h17.695l-23.905 63.184c-0.77 2.037-0.491 4.326 0.749 6.118 1.24 1.798 3.277 2.866 5.454 2.866h17.702l-23.905 63.184c-0.77 2.037-0.491 4.326 0.749 6.118 1.24 1.798 3.277 2.867 5.454 2.867h165.573c2.176 0 4.22-1.062 5.454-2.866 1.248-1.791 1.519-4.080 0.75-6.118l-23.905-63.184 17.709-0.007zM26.148 354.395l73.183-193.446 73.183 193.446h-146.365zM172.506 498.731h-146.365l22.28-58.898h101.805l22.28 58.898zM159.389 426.563h-133.242l22.28-58.898h101.799l22.28 58.898h-13.117z"></path>
<path d="M58.095 342.094v0c1.553 0.836 3.291 1.353 5.169 1.353 6.018 0 10.901-4.87 10.901-10.888 0-0.325-0.020-0.663-0.053-1.009-0.013-0.079-0.013-0.139-0.026-0.219-0.438-4.379-3.046-11.053-5.587-16.74-1.632-3.669-3.251-6.933-4.246-8.877-0.411-0.816-1.559-0.816-1.984 0-2.548 4.95-9.13 18.365-9.826 25.657-0.014 0.053-0.014 0.106-0.020 0.139-0.033 0.365-0.053 0.71-0.053 1.048 0.007 4.134 2.336 7.676 5.726 9.534z"></path>
<path d="M74.091 403.493c-0.106-1.041-0.359-2.229-0.677-3.483-0.067-0.265-0.159-0.55-0.232-0.822-0.285-1.041-0.617-2.116-0.995-3.231-0.1-0.286-0.206-0.577-0.305-0.869-0.438-1.228-0.903-2.462-1.406-3.702-0.053-0.139-0.106-0.272-0.159-0.404-0.564-1.38-1.154-2.747-1.739-4.060-0.020-0.060-0.046-0.12-0.073-0.166-0.465-1.035-0.922-2.031-1.367-2.979-0.206-0.438-0.391-0.822-0.584-1.24-0.246-0.511-0.478-0.988-0.697-1.459-0.259-0.517-0.484-0.988-0.71-1.447-0.040-0.079-0.073-0.139-0.113-0.219-0.272-0.538-0.55-1.115-0.769-1.533-0.206-0.411-0.597-0.611-0.989-0.611s-0.789 0.199-0.995 0.611c-2.548 4.95-9.13 18.365-9.826 25.657-0.014 0.053-0.014 0.106-0.020 0.139-0.047 0.365-0.066 0.716-0.066 1.055 0 0.060 0.020 0.113 0.020 0.159 0.014 0.869 0.146 1.699 0.352 2.502 0.059 0.245 0.139 0.471 0.219 0.71 0.232 0.69 0.517 1.367 0.883 1.997 0.066 0.12 0.12 0.232 0.186 0.345 0.989 1.586 2.368 2.873 4.001 3.775 0.026 0.014 0.047 0.040 0.073 0.053s0.066 0.020 0.093 0.040c0.677 0.358 1.4 0.644 2.15 0.863 0.113 0.033 0.212 0.073 0.325 0.099 0.83 0.212 1.685 0.345 2.581 0.351 0.007 0 0.014 0 0.020 0v0 0c6.018 0 10.901-4.87 10.901-10.888 0-0.325-0.020-0.663-0.053-1.009-0.020-0.087-0.020-0.152-0.026-0.232z"></path>
<path d="M103.843 403.493c-0.723-7.219-7.299-20.654-9.826-25.618-0.206-0.411-0.597-0.611-0.995-0.611s-0.79 0.199-0.995 0.611c-2.548 4.95-9.13 18.365-9.826 25.657-0.013 0.053-0.013 0.106-0.013 0.139-0.040 0.365-0.059 0.71-0.059 1.048 0 6.011 4.877 10.888 10.895 10.888v0 0c6.018 0 10.901-4.87 10.901-10.888 0-0.325-0.026-0.663-0.053-1.009-0.013-0.073-0.013-0.139-0.026-0.219z"></path>
</svg>
