<!-- Generated by IcoMoon.io -->
<svg version="1.1" xmlns="http://www.w3.org/2000/svg" width="199" height="512" viewBox="0 0 199 512">
<title>DroneOnPawn</title>
<path d="M188.437 503.202l-83.002-219.428c-0.962-2.528-3.377-4.2-6.084-4.2-2.701 0-5.122 1.672-6.084 4.2l-83.002 219.428c-0.756 1.997-0.477 4.233 0.736 5.991 1.214 1.752 3.212 2.807 5.348 2.807h166.011c2.137 0 4.14-1.055 5.355-2.807 1.214-1.765 1.493-3.994 0.723-5.991zM151.958 498.995l-46.497-128.212c-0.929-2.581-3.371-4.293-6.111-4.293-2.734 0-5.182 1.719-6.104 4.293l-23.341 64.345h13.827l15.618-43.067 38.807 106.935h-112.401l73.594-194.555 73.6 194.554h-20.993z"></path>
<path d="M62.275 450.368c-0.418-0.816-1.572-0.816-1.997 0-2.548 4.963-9.149 18.405-9.853 25.736-0.007 0.040-0.007 0.093-0.014 0.139-0.033 0.365-0.053 0.704-0.053 1.035 0 2.342 0.749 4.485 1.997 6.257 1.977 2.813 5.229 4.664 8.924 4.664 1.208 0 2.349-0.245 3.437-0.611 4.339-1.453 7.491-5.487 7.491-10.317 0-0.318-0.020-0.663-0.053-1.009-0.007-0.067-0.013-0.139-0.020-0.219-0.159-1.572-0.63-3.464-1.24-5.481-1.818-5.991-5.156-13.23-7.392-17.768-0.471-0.935-0.889-1.765-1.227-2.428z"></path>
<path d="M91.103 488.207c6.044 0 10.927-4.89 10.927-10.921 0-0.318-0.020-0.663-0.053-1.009-0.013-0.067-0.013-0.139-0.026-0.219-0.723-7.226-7.311-20.707-9.853-25.683-0.418-0.816-1.573-0.816-1.997 0-2.548 4.963-9.156 18.405-9.859 25.736-0.007 0.040-0.007 0.093-0.013 0.139-0.026 0.365-0.046 0.704-0.046 1.035 0.007 6.031 4.897 10.921 10.921 10.921z"></path>
</svg>
