<!-- Generated by IcoMoon.io -->
<svg version="1.1" xmlns="http://www.w3.org/2000/svg" width="199" height="512" viewBox="0 0 199 512">
<title>DroneOnPawnOnDrone</title>
<path d="M72.061 325.932c-0.159-1.566-0.63-3.457-1.24-5.481-1.818-5.985-5.156-13.23-7.392-17.768-0.458-0.935-0.883-1.778-1.221-2.435-0.418-0.816-1.572-0.816-1.997 0-2.548 4.963-9.15 18.412-9.853 25.736-0.007 0.040-0.007 0.093-0.014 0.139-0.033 0.365-0.053 0.716-0.053 1.041 0 2.349 0.749 4.485 1.997 6.257 1.977 2.813 5.228 4.664 8.924 4.664 1.208 0 2.349-0.245 3.437-0.611 4.339-1.453 7.491-5.481 7.491-10.317 0-0.312-0.020-0.663-0.053-1.009-0.013-0.067-0.020-0.139-0.026-0.219z"></path>
<path d="M134.966 361.88h47.34c2.137 0 4.133-1.048 5.355-2.8 1.208-1.765 1.493-4.007 0.723-5.998l-83.002-219.429c-0.962-2.528-3.384-4.2-6.091-4.2-2.694 0-5.115 1.672-6.078 4.2l-83.009 219.429c-0.756 1.997-0.477 4.24 0.736 5.998 1.214 1.752 3.212 2.8 5.348 2.8h47.34l-53.331 140.978c-0.77 2.037-0.491 4.326 0.749 6.118 1.24 1.798 3.277 2.866 5.454 2.866h165.58c2.176 0 4.213-1.062 5.454-2.866 1.248-1.791 1.519-4.080 0.75-6.118l-53.318-140.978zM46.683 348.882h-20.986l73.594-194.561 73.608 194.561h-20.993l-46.497-128.219c-0.936-2.581-3.371-4.293-6.117-4.293-2.734 0-5.175 1.719-6.104 4.293l-23.341 64.351h13.827l15.612-43.073 38.814 106.941h-91.415zM26.108 498.571l51.712-136.692h42.954l51.706 136.692h-146.372z"></path>
<path d="M87.109 337.33c1.228 0.471 2.541 0.757 3.934 0.757 6.037 0 10.921-4.884 10.921-10.921 0-0.312-0.013-0.663-0.053-1.009-0.013-0.067-0.013-0.139-0.026-0.219-0.398-3.935-2.534-9.707-4.803-14.969-1.897-4.399-3.888-8.453-5.049-10.716-0.418-0.816-1.573-0.816-1.997 0-2.548 4.963-9.156 18.412-9.859 25.736-0.007 0.040-0.007 0.093-0.013 0.139-0.026 0.365-0.046 0.71-0.046 1.035 0.013 4.644 2.919 8.586 6.993 10.164z"></path>
<path d="M74.052 475.502c-0.723-7.219-7.299-20.654-9.826-25.618-0.411-0.816-1.559-0.816-1.984 0-2.548 4.95-9.13 18.365-9.826 25.657-0.014 0.053-0.014 0.106-0.020 0.139-0.033 0.365-0.053 0.71-0.053 1.048 0 6.011 4.877 10.888 10.895 10.888s10.901-4.87 10.901-10.888c0-0.325-0.020-0.663-0.053-1.009-0.020-0.079-0.020-0.139-0.033-0.219z"></path>
<path d="M103.809 475.502c-0.723-7.219-7.299-20.654-9.833-25.618-0.412-0.816-1.573-0.816-1.984 0-2.548 4.95-9.129 18.365-9.826 25.657-0.013 0.053-0.013 0.106-0.013 0.139-0.040 0.365-0.059 0.71-0.059 1.048 0 6.011 4.877 10.888 10.895 10.888s10.907-4.87 10.907-10.888c0-0.325-0.026-0.663-0.053-1.009-0.020-0.079-0.020-0.139-0.033-0.219z"></path>
</svg>
