<!-- Generated by IcoMoon.io -->
<svg version="1.1" xmlns="http://www.w3.org/2000/svg" width="252" height="512" viewBox="0 0 252 512">
<title>DroneOnQueenOnPawnExpanded</title>
<path d="M241.493 430.81l-41.673-98.911h8.817c2.176 0 4.22-1.068 5.454-2.866 1.248-1.798 1.519-4.080 0.75-6.118l-82.775-218.835c-0.976-2.588-3.45-4.286-6.21-4.286s-5.228 1.705-6.21 4.286l-82.775 218.835c-0.77 2.037-0.491 4.319 0.749 6.118s3.278 2.866 5.454 2.866h8.917l-41.673 98.911c-0.863 2.063-0.643 4.392 0.591 6.243s3.304 2.966 5.527 2.966h66.202l-25.093 62.818c-0.816 2.050-0.564 4.359 0.67 6.183 1.24 1.825 3.291 2.913 5.493 2.913h124.316c2.202 0 4.26-1.088 5.494-2.913 1.234-1.818 1.486-4.134 0.67-6.183l-25.093-62.818h66.295c2.222 0 4.292-1.115 5.527-2.966s1.44-4.187 0.577-6.243zM52.673 318.623l73.181-193.451 73.175 193.451h-146.357zM178.217 498.664h-104.724l23.427-58.645h57.868l23.428 58.645zM163.786 426.75h-137.36l39.968-94.858h119.022l39.968 94.858h-61.597z"></path>
<path d="M74.276 403.687c-0.73-7.219-7.305-20.654-9.833-25.63-0.412-0.803-1.572-0.803-1.984 0-2.548 4.963-9.13 18.378-9.826 25.67-0.014 0.040-0.014 0.106-0.014 0.139-0.040 0.365-0.053 0.71-0.053 1.035 0 6.024 4.87 10.901 10.887 10.901 6.025 0 10.901-4.87 10.901-10.901 0-0.312-0.020-0.65-0.053-0.995-0.013-0.079-0.020-0.152-0.026-0.219z"></path>
<path d="M133.777 403.687c-0.723-7.219-7.299-20.654-9.826-25.63-0.412-0.803-1.566-0.803-1.99 0-0.391 0.763-0.895 1.772-1.439 2.88-2.514 5.115-6.27 13.31-7.776 19.48-0.292 1.195-0.517 2.322-0.611 3.317-0.007 0.040-0.007 0.106-0.013 0.139-0.033 0.365-0.053 0.71-0.053 1.035 0 6.024 4.876 10.901 10.894 10.901s10.901-4.87 10.901-10.901c0-0.312-0.026-0.65-0.053-0.995-0.020-0.087-0.020-0.159-0.033-0.226z"></path>
<path d="M89.795 307.675c6.018 0 10.901-4.87 10.901-10.894 0-0.318-0.020-0.657-0.053-1.009-0.013-0.073-0.013-0.139-0.026-0.219-0.65-6.462-5.972-17.874-8.898-23.759-0.338-0.69-0.67-1.34-0.936-1.858-0.412-0.81-1.559-0.81-1.984 0-2.548 4.956-9.13 18.365-9.826 25.663-0.013 0.046-0.013 0.099-0.020 0.139-0.033 0.358-0.053 0.71-0.053 1.041 0 1.327 0.272 2.581 0.704 3.748 1.54 4.166 5.5 7.146 10.191 7.146z"></path>
<path d="M119.552 307.675c6.018 0 10.901-4.87 10.901-10.894 0-0.318-0.026-0.657-0.053-1.009-0.013-0.073-0.013-0.139-0.026-0.219-0.723-7.212-7.299-20.647-9.826-25.617-0.412-0.81-1.573-0.81-1.984 0-2.548 4.956-9.129 18.365-9.826 25.663-0.013 0.046-0.013 0.099-0.013 0.139-0.040 0.358-0.059 0.71-0.059 1.041-0.007 6.024 4.87 10.894 10.888 10.894z"></path>
<path d="M104.027 403.687c-0.278-2.747-1.406-6.402-2.833-10.138-2.316-6.084-5.427-12.407-6.999-15.492-0.412-0.803-1.559-0.803-1.984 0-2.548 4.963-9.129 18.378-9.826 25.67-0.013 0.040-0.013 0.106-0.013 0.139-0.040 0.365-0.059 0.71-0.059 1.035 0 5.726 4.425 10.363 10.025 10.815 0.285 0.020 0.564 0.087 0.862 0.087 6.018 0 10.901-4.87 10.901-10.901 0-0.312-0.020-0.65-0.053-0.995-0.007-0.079-0.007-0.152-0.020-0.219z"></path>
<path d="M125.225 487.716c6.011 0 10.894-4.87 10.894-10.894 0-0.318-0.026-0.657-0.060-1.009 0-0.073-0.013-0.139-0.013-0.219-0.73-7.212-7.305-20.647-9.833-25.617-0.418-0.81-1.566-0.81-1.984 0-2.555 4.956-9.129 18.365-9.833 25.663-0.007 0.046-0.013 0.099-0.013 0.139-0.033 0.358-0.053 0.71-0.053 1.041-0.007 6.018 4.87 10.894 10.895 10.894z"></path>
</svg>
