<!-- Generated by IcoMoon.io -->
<svg version="1.1" xmlns="http://www.w3.org/2000/svg" width="252" height="512" viewBox="0 0 252 512">
<title>DroneOnDroneOnQueen</title>
<path d="M89.841 373.419c6.018 0 10.901-4.87 10.901-10.894 0-0.318-0.020-0.657-0.053-1.009-0.013-0.073-0.013-0.139-0.026-0.219-0.558-5.534-4.538-14.696-7.51-20.92-0.903-1.891-1.725-3.536-2.316-4.697-0.412-0.81-1.559-0.81-1.984 0-2.548 4.956-9.13 18.365-9.826 25.663-0.013 0.046-0.013 0.099-0.020 0.139-0.033 0.358-0.053 0.71-0.053 1.041 0 2.421 0.816 4.637 2.15 6.442 1.977 2.693 5.142 4.452 8.738 4.452z"></path>
<path d="M119.592 373.419c6.018 0 10.908-4.87 10.908-10.894 0-0.318-0.026-0.657-0.053-1.009-0.013-0.073-0.013-0.139-0.026-0.219-0.723-7.212-7.305-20.647-9.833-25.617-0.412-0.81-1.573-0.81-1.984 0-2.548 4.956-9.129 18.365-9.826 25.663-0.013 0.046-0.013 0.099-0.013 0.139-0.040 0.358-0.059 0.71-0.059 1.041 0 6.024 4.877 10.894 10.888 10.894z"></path>
<path d="M241.493 502.784l-44.3-105.142h11.492c2.176 0 4.213-1.075 5.454-2.866 1.248-1.798 1.519-4.080 0.75-6.118l-21.47-56.774h15.26c2.176 0 4.22-1.068 5.454-2.866 1.248-1.798 1.519-4.080 0.75-6.118l-82.769-218.822c-0.976-2.588-3.45-4.286-6.204-4.286-2.76 0-5.228 1.705-6.21 4.286l-82.782 218.835c-0.77 2.037-0.491 4.319 0.749 6.118s3.278 2.866 5.454 2.866h15.267l-21.477 56.767c-0.77 2.037-0.491 4.313 0.749 6.118 1.24 1.791 3.278 2.866 5.454 2.866h11.492l-44.287 105.135c-0.863 2.057-0.643 4.392 0.591 6.243s3.304 2.966 5.527 2.966h218.948c2.222 0 4.292-1.115 5.527-2.966s1.446-4.187 0.584-6.243zM52.727 318.623l73.181-193.451 73.175 193.451h-146.357zM52.72 384.373l19.852-52.474h106.668l19.852 52.474h-146.37zM26.427 498.731l42.588-101.081h113.773l42.589 101.081h-198.951z"></path>
<path d="M74.276 475.654c-0.73-7.212-7.305-20.654-9.833-25.623-0.412-0.81-1.572-0.81-1.984 0-2.548 4.956-9.13 18.372-9.826 25.663-0.014 0.046-0.014 0.106-0.014 0.146-0.040 0.358-0.053 0.704-0.053 1.035 0 6.018 4.87 10.901 10.887 10.901 6.025 0 10.901-4.877 10.901-10.901 0-0.318-0.020-0.657-0.053-1.002-0.013-0.067-0.020-0.146-0.026-0.219z"></path>
<path d="M104.027 475.654c-0.723-7.212-7.299-20.654-9.826-25.623-0.412-0.81-1.559-0.81-1.984 0-2.548 4.956-9.129 18.372-9.826 25.663-0.013 0.046-0.013 0.106-0.013 0.146-0.040 0.358-0.059 0.704-0.059 1.035 0 6.018 4.877 10.901 10.895 10.901s10.901-4.877 10.901-10.901c0-0.318-0.020-0.657-0.053-1.002-0.020-0.067-0.020-0.146-0.033-0.219z"></path>
<path d="M133.777 475.654c-0.723-7.212-7.299-20.654-9.826-25.623-0.412-0.81-1.566-0.81-1.99 0-2.541 4.956-9.123 18.372-9.826 25.663-0.007 0.046-0.007 0.106-0.013 0.146-0.033 0.358-0.053 0.704-0.053 1.035 0 6.018 4.876 10.901 10.894 10.901s10.901-4.877 10.901-10.901c0-0.318-0.026-0.657-0.053-1.002-0.020-0.067-0.020-0.146-0.033-0.219z"></path>
<path d="M89.849 307.675c0.995 0 1.944-0.173 2.859-0.425 4.624-1.254 8.034-5.44 8.034-10.463 0-0.318-0.020-0.657-0.053-1.009-0.013-0.073-0.013-0.139-0.026-0.219-0.139-1.38-0.537-3.019-1.035-4.75-1.36-4.757-3.762-10.377-5.879-14.889-1.141-2.435-2.196-4.565-2.912-5.978-0.412-0.81-1.559-0.81-1.984 0-2.548 4.956-9.13 18.365-9.826 25.663-0.013 0.046-0.013 0.099-0.020 0.139-0.033 0.358-0.053 0.71-0.053 1.041 0 3.298 1.493 6.217 3.802 8.207 1.911 1.646 4.365 2.68 7.093 2.68z"></path>
<path d="M119.599 307.675c6.018 0 10.894-4.87 10.894-10.894 0-0.318-0.026-0.657-0.053-1.009-0.013-0.073-0.013-0.139-0.026-0.219-0.631-6.243-5.633-17.151-8.612-23.188-0.458-0.935-0.876-1.765-1.214-2.428-0.412-0.81-1.573-0.81-1.984 0-2.548 4.956-9.129 18.365-9.826 25.663-0.013 0.046-0.013 0.099-0.013 0.139-0.040 0.358-0.059 0.71-0.059 1.041 0 1.572 0.352 3.065 0.949 4.412 1.698 3.815 5.507 6.482 9.945 6.482z"></path>
</svg>
