<!-- Generated by IcoMoon.io -->
<svg version="1.1" xmlns="http://www.w3.org/2000/svg" width="199" height="512" viewBox="0 0 199 512">
<title>DroneOnDrone</title>
<path d="M53.444 426.563l-5.023 13.269h101.812l-5.023-13.269z"></path>
<path d="M26.142 426.563l73.183-193.453 73.183 193.453h-13.117l5.023 13.269h17.695c2.176 0 4.22-1.062 5.454-2.866 1.248-1.791 1.519-4.080 0.75-6.118l-82.776-218.832c-0.975-2.588-3.45-4.286-6.21-4.286s-5.228 1.705-6.21 4.286l-82.784 218.838c-0.77 2.037-0.491 4.326 0.749 6.118 1.24 1.798 3.277 2.866 5.454 2.866h17.702l5.023-13.269h-13.117z"></path>
<path d="M63.264 415.615c6.018 0 10.901-4.87 10.901-10.888 0-0.325-0.020-0.663-0.053-1.009-0.013-0.079-0.013-0.139-0.026-0.219-0.438-4.379-3.039-11.053-5.58-16.74l-10.404 27.508c1.539 0.829 3.277 1.347 5.162 1.347z"></path>
<path d="M103.862 403.719c-0.013-0.079-0.013-0.139-0.026-0.219-0.723-7.219-7.299-20.654-9.826-25.618-0.412-0.816-1.573-0.816-1.984 0-2.548 4.95-9.129 18.365-9.826 25.657-0.013 0.053-0.013 0.106-0.013 0.139-0.040 0.365-0.059 0.71-0.059 1.048 0 6.011 4.877 10.888 10.895 10.888s10.901-4.87 10.901-10.888c-0.007-0.325-0.033-0.663-0.059-1.009z"></path>
<path d="M164.412 439.832h-14.185l22.28 58.898h-146.365l22.28-58.898h-14.185l-23.905 63.184c-0.77 2.037-0.491 4.326 0.749 6.118 1.24 1.798 3.277 2.867 5.454 2.867h165.573c2.176 0 4.22-1.062 5.454-2.866 1.248-1.791 1.519-4.080 0.75-6.118l-23.899-63.184z"></path>
<path d="M145.211 426.563l5.023 13.269h14.179l-5.023-13.269z"></path>
<path d="M53.444 426.563h-14.185l-5.023 13.269h14.185z"></path>
<path d="M62.269 377.876c-2.548 4.95-9.13 18.365-9.826 25.657-0.014 0.053-0.014 0.106-0.020 0.139-0.033 0.365-0.053 0.716-0.053 1.055 0 4.134 2.336 7.683 5.726 9.541l10.403-27.508c-1.639-3.669-3.251-6.933-4.246-8.877-0.404-0.822-1.559-0.822-1.984-0.007z"></path>
<path d="M63.264 487.783c6.018 0 10.901-4.87 10.901-10.888 0-0.325-0.020-0.663-0.053-1.009-0.013-0.079-0.013-0.139-0.026-0.219-0.723-7.219-7.299-20.654-9.826-25.618-0.411-0.816-1.559-0.816-1.984 0-2.548 4.95-9.13 18.365-9.826 25.657-0.014 0.053-0.014 0.106-0.020 0.139-0.033 0.365-0.053 0.71-0.053 1.048-0.007 6.011 4.87 10.888 10.888 10.888z"></path>
<path d="M93.014 487.783c6.018 0 10.901-4.87 10.901-10.888 0-0.325-0.026-0.663-0.053-1.009-0.013-0.079-0.013-0.139-0.026-0.219-0.723-7.219-7.299-20.654-9.826-25.618-0.412-0.816-1.573-0.816-1.984 0-2.548 4.95-9.129 18.365-9.826 25.657-0.013 0.053-0.013 0.106-0.013 0.139-0.040 0.365-0.059 0.71-0.059 1.048-0.007 6.011 4.877 10.888 10.888 10.888z"></path>
</svg>
