<!-- Generated by IcoMoon.io -->
<svg version="1.1" xmlns="http://www.w3.org/2000/svg" width="199" height="512" viewBox="0 0 199 512">
<title>DroneOnPawnOnDroneExpanded</title>
<path d="M74.091 295.769c-0.013-0.079-0.013-0.139-0.026-0.219-0.259-2.561-1.26-5.905-2.548-9.368-2.342-6.31-5.647-13.051-7.285-16.249-0.411-0.816-1.559-0.816-1.984 0-2.548 4.95-9.13 18.365-9.826 25.657-0.014 0.053-0.014 0.106-0.020 0.139-0.033 0.365-0.053 0.716-0.053 1.048 0 5.911 4.724 10.689 10.602 10.848 0.099 0.007 0.193 0.033 0.292 0.033 6.018 0 10.901-4.863 10.901-10.881-0.007-0.318-0.026-0.657-0.053-1.009z"></path>
<path d="M97.386 375.74c6.011 0 10.901-4.87 10.901-10.888 0-0.325-0.026-0.663-0.067-1.009 0-0.079-0.013-0.139-0.013-0.219-0.723-7.219-7.299-20.654-9.84-25.618-0.418-0.816-1.566-0.816-1.984 0-2.555 4.95-9.123 18.365-9.833 25.657 0 0.053-0.013 0.106-0.013 0.139-0.026 0.365-0.053 0.71-0.053 1.048 0.007 6.011 4.877 10.888 10.901 10.888z"></path>
<path d="M149.311 399.957h10.881c2.203 0 4.253-1.088 5.494-2.913 1.234-1.812 1.48-4.134 0.663-6.183l-23.567-58.984h39.311c2.176 0 4.22-1.062 5.454-2.866 1.248-1.791 1.519-4.080 0.75-6.118l-82.784-218.818c-0.975-2.588-3.45-4.286-6.21-4.286s-5.228 1.705-6.21 4.286l-82.784 218.825c-0.77 2.037-0.491 4.326 0.749 6.118 1.24 1.798 3.277 2.866 5.454 2.866h36.744l-23.561 58.984c-0.816 2.050-0.57 4.365 0.663 6.183 1.247 1.825 3.291 2.913 5.494 2.913h13.443l-38.986 103.053c-0.77 2.037-0.491 4.326 0.749 6.118 1.24 1.798 3.277 2.867 5.454 2.867h165.573c2.176 0 4.22-1.062 5.454-2.866 1.248-1.791 1.519-4.080 0.75-6.118l-38.98-103.060zM26.122 318.613l73.183-193.44 73.183 193.44h-146.365zM45.654 386.687l21.895-54.81h60.948l21.895 54.81h-104.738zM26.122 498.731l37.368-98.774h71.63l37.368 98.774h-146.365z"></path>
<path d="M92.995 307.659c2.276 0 4.385-0.697 6.13-1.885 0.1-0.073 0.179-0.159 0.278-0.226 2.707-1.984 4.492-5.156 4.492-8.764 0-0.325-0.026-0.663-0.053-1.009-0.013-0.079-0.013-0.139-0.026-0.219-0.412-4.094-2.701-10.151-5.069-15.565-1.805-4.14-3.662-7.902-4.764-10.058-0.325-0.663-1.068-0.644-1.585-0.245-0.132 0.099-0.312 0.079-0.398 0.245-2.488 4.837-8.798 17.721-9.733 25.113-0.020 0.166-0.079 0.378-0.093 0.544-0.013 0.053-0.013 0.106-0.013 0.139-0.040 0.365-0.059 0.71-0.059 1.048 0 3.046 1.267 5.799 3.291 7.776 1.971 1.918 4.644 3.105 7.603 3.105z"></path>
<path d="M74.065 475.668c-0.723-7.219-7.299-20.654-9.826-25.618-0.411-0.816-1.559-0.816-1.984 0-2.548 4.95-9.13 18.365-9.826 25.657-0.014 0.053-0.014 0.106-0.020 0.139-0.033 0.365-0.053 0.71-0.053 1.048 0 6.011 4.877 10.881 10.895 10.881s10.901-4.863 10.901-10.881c0-0.325-0.020-0.663-0.053-1.009-0.020-0.073-0.020-0.139-0.033-0.219z"></path>
<path d="M103.816 475.668c-0.723-7.219-7.299-20.654-9.826-25.618-0.412-0.816-1.573-0.816-1.984 0-2.548 4.95-9.129 18.365-9.826 25.657-0.013 0.053-0.013 0.106-0.013 0.139-0.040 0.365-0.059 0.71-0.059 1.048 0 6.011 4.877 10.881 10.895 10.881s10.901-4.863 10.901-10.881c0-0.325-0.026-0.663-0.053-1.009-0.020-0.073-0.020-0.139-0.033-0.219z"></path>
</svg>
