<!-- Generated by IcoMoon.io -->
<svg version="1.1" xmlns="http://www.w3.org/2000/svg" width="252" height="512" viewBox="0 0 252 512">
<title>DroneOnQueenOnDrone</title>
<path d="M240.637 503.017l-43.418-103.045h11.471c2.176 0 4.22-1.075 5.454-2.866 1.248-1.798 1.519-4.080 0.75-6.118l-82.775-218.835c-0.976-2.588-3.45-4.286-6.21-4.286s-5.228 1.705-6.21 4.286l-82.782 218.842c-0.77 2.037-0.491 4.313 0.749 6.118 1.24 1.791 3.278 2.866 5.454 2.866h10.642l-43.411 103.038c-0.842 2.010-0.63 4.286 0.57 6.091 1.201 1.798 3.218 2.893 5.387 2.893h218.377c2.156 0 4.186-1.088 5.381-2.893 1.188-1.805 1.413-4.080 0.571-6.091zM52.727 386.702l73.181-193.457 73.175 193.457h-146.357zM184.566 499.069h-158.518l41.752-99.097h13.004l-15.347 36.080h14.059l15.353-36.080h61.246l42.157 99.097h-13.708zM212.34 499.069l-42.157-99.097h13.004l41.752 99.097h-12.6z"></path>
<path d="M73.998 475.907c-0.412-4.014-2.627-9.925-4.943-15.26-1.838-4.226-3.736-8.094-4.856-10.291-0.418-0.822-1.566-0.822-1.984-0.014-2.535 4.95-9.103 18.325-9.8 25.597-0.007 0.053-0.007 0.093-0.014 0.139-0.033 0.372-0.053 0.723-0.053 1.048 0 4.107 2.309 7.637 5.666 9.488 1.546 0.849 3.304 1.38 5.202 1.38 5.998 0 10.861-4.863 10.861-10.868 0-0.318-0.020-0.657-0.053-1.009-0.013-0.073-0.020-0.139-0.026-0.212z"></path>
<path d="M103.668 475.907c-0.438-4.326-2.993-10.901-5.5-16.527-1.659-3.729-3.297-7.053-4.306-9.017-0.412-0.822-1.559-0.822-1.984-0.014-2.528 4.95-9.103 18.325-9.799 25.597-0.007 0.053-0.013 0.093-0.013 0.139-0.033 0.372-0.053 0.723-0.053 1.048 0 3.736 1.885 7.039 4.757 8.983 1.745 1.188 3.841 1.885 6.104 1.885 5.998 0 10.861-4.863 10.861-10.868 0-0.318-0.020-0.657-0.053-1.009 0-0.079-0.007-0.146-0.013-0.219z"></path>
<path d="M133.346 475.907c-0.73-7.199-7.272-20.594-9.799-25.55-0.418-0.822-1.566-0.822-1.984-0.014-2.534 4.95-9.109 18.325-9.806 25.597 0 0.053 0 0.093-0.007 0.139-0.033 0.372-0.053 0.723-0.053 1.048 0 5.998 4.864 10.868 10.861 10.868 6.005 0 10.861-4.863 10.861-10.868 0-0.318-0.020-0.657-0.053-1.009-0.006-0.073-0.013-0.139-0.020-0.212z"></path>
<path d="M89.849 375.748c0.451 0 0.889-0.079 1.327-0.132 5.388-0.663 9.567-5.195 9.567-10.755 0-0.325-0.020-0.663-0.053-1.009-0.013-0.079-0.013-0.139-0.026-0.219-0.186-1.871-0.776-4.166-1.579-6.615-1.752-5.361-4.525-11.425-6.588-15.651-0.63-1.3-1.221-2.488-1.659-3.351-0.412-0.816-1.559-0.816-1.984 0-2.548 4.95-9.129 18.365-9.826 25.656-0.013 0.053-0.013 0.106-0.020 0.139-0.033 0.365-0.053 0.71-0.053 1.048 0 1.924 0.544 3.709 1.42 5.274 1.865 3.337 5.388 5.613 9.475 5.613z"></path>
<path d="M119.599 375.748c6.018 0 10.901-4.87 10.901-10.887 0-0.325-0.026-0.663-0.053-1.009-0.013-0.079-0.013-0.139-0.026-0.219-0.696-6.933-6.761-19.539-9.481-24.933-0.113-0.212-0.252-0.491-0.345-0.69-0.412-0.816-1.573-0.816-1.984 0-2.548 4.95-9.129 18.365-9.826 25.656-0.013 0.053-0.013 0.106-0.013 0.139-0.040 0.365-0.059 0.71-0.059 1.048 0 0.71 0.079 1.413 0.213 2.090 0.975 5.022 5.381 8.805 10.675 8.805z"></path>
</svg>
