<!-- Generated by IcoMoon.io -->
<svg version="1.1" xmlns="http://www.w3.org/2000/svg" width="252" height="512" viewBox="0 0 252 512">
<title>DroneOnPawnOnQueen</title>
<path d="M117.662 308.425c6.044 0 10.927-4.897 10.927-10.921 0-0.325-0.026-0.663-0.053-1.009-0.013-0.067-0.013-0.139-0.026-0.219-0.57-5.673-4.737-15.161-7.743-21.404-0.823-1.705-1.573-3.218-2.117-4.286-0.418-0.816-1.573-0.816-1.997 0-2.548 4.963-9.156 18.399-9.859 25.736-0.007 0.040-0.007 0.093-0.013 0.139-0.026 0.365-0.046 0.697-0.046 1.035 0 2.283 0.704 4.392 1.904 6.157 1.977 2.88 5.281 4.771 9.023 4.771z"></path>
<path d="M241.493 502.851l-71.894-170.634h39.318c2.137 0 4.147-1.062 5.355-2.813 1.221-1.765 1.493-3.994 0.723-5.985l-83.001-219.433c-0.962-2.528-3.37-4.2-6.084-4.2-2.701 0-5.122 1.672-6.084 4.2l-83.001 219.433c-0.757 1.997-0.477 4.226 0.736 5.985 1.214 1.752 3.211 2.813 5.348 2.813h39.304l-71.894 170.634c-0.863 2.063-0.643 4.392 0.591 6.243s3.304 2.966 5.527 2.966h218.948c2.222 0 4.292-1.115 5.527-2.966s1.446-4.18 0.584-6.243zM73.301 319.207h-20.986l73.593-194.552 73.593 194.552h-20.993l-46.496-128.21c-0.922-2.581-3.37-4.292-6.104-4.292s-5.182 1.719-6.104 4.292l-23.341 64.344h13.827l15.618-43.066 38.8 106.933h-91.407zM26.427 498.797l70.189-166.573h58.585l70.183 166.573h-198.958z"></path>
<path d="M98.686 296.27c-0.067-0.683-0.219-1.44-0.391-2.216-0.225-1.035-0.504-2.123-0.85-3.264-1.818-5.998-5.155-13.23-7.391-17.768-0.458-0.949-0.882-1.778-1.221-2.435-0.418-0.816-1.573-0.816-1.997 0-2.548 4.963-9.15 18.399-9.853 25.736-0.007 0.040-0.007 0.093-0.013 0.139-0.033 0.365-0.053 0.697-0.053 1.035 0 2.336 0.749 4.485 1.997 6.257 1.977 2.813 5.228 4.664 8.924 4.664 1.207 0 2.349-0.245 3.437-0.611 0.564-0.192 1.049-0.538 1.566-0.81 3.47-1.818 5.925-5.315 5.925-9.507 0-0.325-0.020-0.663-0.053-1.009-0.020-0.053-0.020-0.132-0.026-0.212z"></path>
<path d="M74.276 475.728c-0.73-7.219-7.305-20.654-9.833-25.63-0.412-0.803-1.572-0.803-1.984 0-2.548 4.963-9.13 18.378-9.826 25.67-0.014 0.040-0.014 0.106-0.014 0.139-0.040 0.365-0.053 0.71-0.053 1.035 0 6.024 4.87 10.901 10.887 10.901 6.025 0 10.901-4.87 10.901-10.901 0-0.312-0.020-0.65-0.053-0.995-0.013-0.073-0.020-0.152-0.026-0.219z"></path>
<path d="M94.194 450.098c-0.412-0.803-1.559-0.803-1.984 0-2.548 4.963-9.13 18.378-9.826 25.67-0.013 0.040-0.013 0.106-0.013 0.139-0.040 0.365-0.059 0.71-0.059 1.035 0 6.024 4.877 10.901 10.895 10.901s10.901-4.87 10.901-10.901c0-0.312-0.020-0.65-0.053-0.995-0.013-0.079-0.013-0.152-0.026-0.219-0.73-7.219-7.299-20.654-9.833-25.63z"></path>
<path d="M122.956 487.842c6.018 0 10.901-4.87 10.901-10.901 0-0.312-0.026-0.65-0.053-0.995-0.013-0.079-0.013-0.152-0.026-0.219-0.723-7.219-7.299-20.654-9.826-25.63-0.412-0.803-1.566-0.803-1.99 0-2.541 4.963-9.123 18.378-9.826 25.67-0.007 0.040-0.007 0.106-0.013 0.139-0.033 0.365-0.053 0.71-0.053 1.035 0 6.031 4.876 10.901 10.888 10.901z"></path>
</svg>
