<!-- Generated by IcoMoon.io -->
<svg version="1.1" xmlns="http://www.w3.org/2000/svg" width="252" height="512" viewBox="0 0 252 512">
<title>DroneOnQueenOnQueen</title>
<path d="M216.029 442.441h19.307c2.222 0 4.292-1.115 5.527-2.966s1.453-4.2 0.59-6.243l-42.695-101.327h9.933c2.176 0 4.22-1.068 5.454-2.866 1.248-1.798 1.519-4.080 0.75-6.118l-82.775-218.842c-0.976-2.588-3.45-4.286-6.21-4.286s-5.228 1.705-6.21 4.286l-82.782 218.835c-0.77 2.037-0.491 4.319 0.749 6.118s3.278 2.866 5.454 2.866h9.84l-42.688 101.327c-0.863 2.050-0.643 4.392 0.591 6.243s3.304 2.966 5.527 2.966h19.307l-25.424 60.35c-0.863 2.057-0.643 4.392 0.591 6.243s3.304 2.966 5.527 2.966h218.948c2.222 0 4.292-1.115 5.527-2.966s1.453-4.193 0.59-6.243l-25.424-60.344zM52.727 318.623l73.181-193.451 73.175 193.451h-146.357zM26.387 429.171l40.983-97.272h116.984l40.983 97.272h-198.951zM26.387 498.731l23.72-56.289h151.512l23.72 56.289h-198.951z"></path>
<path d="M74.23 475.654c-0.73-7.212-7.305-20.654-9.833-25.623-0.411-0.81-1.572-0.81-1.984 0-2.548 4.956-9.13 18.372-9.826 25.663-0.014 0.046-0.014 0.106-0.014 0.146-0.040 0.358-0.053 0.704-0.053 1.035 0 6.018 4.87 10.901 10.887 10.901 6.025 0 10.901-4.877 10.901-10.901 0-0.318-0.020-0.657-0.053-1.002-0.013-0.067-0.020-0.146-0.026-0.219z"></path>
<path d="M103.981 475.654c-0.723-7.212-7.299-20.654-9.826-25.623-0.412-0.81-1.559-0.81-1.984 0-2.548 4.956-9.129 18.372-9.826 25.663-0.013 0.046-0.013 0.106-0.013 0.146-0.040 0.358-0.059 0.704-0.059 1.035 0 6.018 4.877 10.901 10.895 10.901s10.901-4.877 10.901-10.901c0-0.318-0.020-0.657-0.053-1.002-0.020-0.067-0.020-0.146-0.033-0.219z"></path>
<path d="M133.731 475.654c-0.723-7.212-7.299-20.654-9.826-25.623-0.412-0.81-1.566-0.81-1.99 0-2.541 4.956-9.123 18.372-9.826 25.663-0.007 0.046-0.007 0.106-0.013 0.146-0.033 0.358-0.053 0.704-0.053 1.035 0 6.018 4.876 10.901 10.894 10.901s10.901-4.877 10.901-10.901c0-0.318-0.026-0.657-0.053-1.002-0.020-0.067-0.020-0.146-0.033-0.219z"></path>
<path d="M63.408 418.217c6.024 0 10.901-4.883 10.901-10.901 0-0.325-0.020-0.663-0.053-1.009-0.007-0.067-0.013-0.139-0.020-0.219-0.332-3.251-1.865-7.776-3.669-12.221-2.189-5.394-4.777-10.675-6.171-13.409-0.411-0.803-1.572-0.803-1.984 0-2.548 4.956-9.13 18.372-9.826 25.663-0.014 0.053-0.014 0.106-0.014 0.152-0.040 0.351-0.053 0.697-0.053 1.035 0 4.996 3.383 9.169 7.975 10.45 0.929 0.279 1.891 0.458 2.913 0.458z"></path>
<path d="M93.159 418.217c6.018 0 10.901-4.883 10.901-10.901 0-0.325-0.020-0.663-0.053-1.009-0.013-0.067-0.013-0.139-0.026-0.219-0.723-7.205-7.299-20.654-9.826-25.623-0.412-0.803-1.559-0.803-1.984 0-2.548 4.956-9.129 18.372-9.826 25.663-0.013 0.053-0.013 0.106-0.013 0.152-0.040 0.351-0.059 0.697-0.059 1.035-0.007 6.018 4.877 10.901 10.888 10.901z"></path>
<path d="M122.909 418.217c6.018 0 10.901-4.883 10.901-10.901 0-0.325-0.026-0.663-0.053-1.009-0.013-0.067-0.013-0.139-0.026-0.219-0.723-7.205-7.299-20.654-9.826-25.623-0.412-0.803-1.566-0.803-1.99 0-2.541 4.956-9.123 18.372-9.826 25.663-0.007 0.053-0.007 0.106-0.013 0.152-0.033 0.351-0.053 0.697-0.053 1.035 0 6.018 4.876 10.901 10.888 10.901z"></path>
<path d="M89.849 307.675c0.975 0 1.904-0.166 2.806-0.411 4.651-1.248 8.094-5.434 8.094-10.483 0-0.318-0.020-0.657-0.053-1.009-0.013-0.073-0.013-0.139-0.026-0.219-0.139-1.394-0.544-3.065-1.055-4.817-1.712-5.938-5.036-13.223-7.352-17.94-0.537-1.101-1.035-2.103-1.427-2.866-0.412-0.81-1.559-0.81-1.984 0-2.548 4.956-9.129 18.365-9.826 25.663-0.013 0.046-0.013 0.099-0.020 0.139-0.033 0.358-0.053 0.71-0.053 1.041 0 1.745 0.445 3.364 1.174 4.83 1.785 3.583 5.447 6.071 9.72 6.071z"></path>
<path d="M119.599 307.675c6.018 0 10.901-4.87 10.901-10.894 0-0.318-0.026-0.657-0.053-1.009-0.013-0.073-0.013-0.139-0.026-0.219-0.631-6.263-5.666-17.217-8.638-23.241-0.445-0.916-0.856-1.725-1.188-2.375-0.412-0.81-1.573-0.81-1.984 0-2.548 4.956-9.129 18.365-9.826 25.663-0.013 0.046-0.013 0.099-0.013 0.139-0.040 0.358-0.059 0.71-0.059 1.041 0 1.553 0.338 3.026 0.922 4.359 1.685 3.848 5.507 6.536 9.966 6.536z"></path>
</svg>
