<!-- Generated by IcoMoon.io -->
<svg version="1.1" xmlns="http://www.w3.org/2000/svg" width="252" height="512" viewBox="0 0 252 512">
<title>DroneOnQueenOnDroneExpanded</title>
<path d="M241.493 433.225l-42.702-101.327h9.893c2.176 0 4.22-1.068 5.454-2.866 1.248-1.798 1.519-4.080 0.75-6.118l-82.769-218.835c-0.976-2.588-3.45-4.286-6.21-4.286s-5.228 1.705-6.21 4.286l-82.782 218.835c-0.77 2.037-0.491 4.319 0.749 6.118s3.278 2.866 5.454 2.866h9.886l-42.688 101.327c-0.863 2.063-0.643 4.392 0.591 6.243s3.304 2.966 5.527 2.966h43.332l-22.897 60.516c-0.77 2.037-0.491 4.319 0.749 6.118s3.278 2.866 5.454 2.866h165.565c2.176 0 4.22-1.068 5.454-2.866 1.248-1.798 1.519-4.080 0.75-6.118l-22.89-60.516h43.424c2.222 0 4.292-1.115 5.527-2.966s1.453-4.187 0.59-6.243zM52.727 318.623l73.181-193.451 73.175 193.451h-146.357zM199.037 498.664h-146.363l21.271-56.23h103.814l21.278 56.23zM186.935 429.171h-160.502l40.983-97.272h116.978l40.989 97.272h-38.448z"></path>
<path d="M104.027 406.102c-0.591-5.865-5.010-15.771-8.015-21.974-0.69-1.433-1.34-2.727-1.811-3.663-0.412-0.803-1.559-0.803-1.984 0-2.548 4.963-9.129 18.378-9.826 25.67-0.013 0.040-0.013 0.106-0.013 0.139-0.040 0.365-0.059 0.71-0.059 1.035 0 2.555 0.909 4.863 2.376 6.721 1.997 2.528 5.049 4.18 8.513 4.18 6.018 0 10.901-4.87 10.901-10.901 0-0.312-0.020-0.65-0.053-0.995-0.013-0.073-0.013-0.146-0.026-0.212z"></path>
<path d="M133.777 406.102c-0.723-7.219-7.299-20.654-9.826-25.63-0.412-0.803-1.566-0.803-1.99 0-2.541 4.963-9.123 18.378-9.826 25.67-0.007 0.040-0.007 0.106-0.013 0.139-0.033 0.365-0.053 0.71-0.053 1.035 0 6.024 4.876 10.901 10.894 10.901s10.901-4.87 10.901-10.901c0-0.312-0.026-0.65-0.053-0.995-0.020-0.079-0.020-0.152-0.033-0.219z"></path>
<path d="M74.276 406.102c-0.040-0.418-0.166-0.929-0.246-1.387-1.3-7.438-7.206-19.56-9.588-24.243-0.412-0.803-1.572-0.803-1.984 0-2.548 4.963-9.13 18.378-9.826 25.67-0.014 0.040-0.014 0.106-0.014 0.139-0.040 0.365-0.053 0.71-0.053 1.035 0 6.024 4.87 10.901 10.887 10.901 2.316 0 4.445-0.723 6.21-1.957 2.826-1.964 4.691-5.228 4.691-8.944 0-0.312-0.020-0.65-0.053-0.995-0.013-0.079-0.020-0.152-0.026-0.219z"></path>
<path d="M89.795 487.716c6.018 0 10.901-4.87 10.901-10.894 0-0.318-0.020-0.657-0.053-1.009-0.013-0.073-0.013-0.139-0.026-0.219-0.723-7.212-7.299-20.647-9.826-25.617-0.412-0.81-1.559-0.81-1.984 0-2.548 4.956-9.129 18.365-9.826 25.663-0.013 0.046-0.013 0.099-0.020 0.139-0.033 0.358-0.053 0.71-0.053 1.041 0 6.018 4.877 10.894 10.888 10.894z"></path>
<path d="M119.552 487.716c6.018 0 10.901-4.87 10.901-10.894 0-0.318-0.026-0.657-0.053-1.009-0.013-0.073-0.013-0.139-0.026-0.219-0.723-7.212-7.299-20.647-9.826-25.617-0.412-0.81-1.573-0.81-1.984 0-2.548 4.956-9.129 18.365-9.826 25.663-0.013 0.046-0.013 0.099-0.013 0.139-0.040 0.358-0.059 0.71-0.059 1.041-0.007 6.018 4.87 10.894 10.888 10.894z"></path>
<path d="M89.849 307.675c6.018 0 10.901-4.87 10.901-10.894 0-0.318-0.020-0.657-0.053-1.009-0.013-0.073-0.013-0.139-0.026-0.219-0.611-6.098-5.381-16.581-8.379-22.704-0.55-1.122-1.061-2.143-1.453-2.913-0.412-0.81-1.559-0.81-1.984 0-2.548 4.956-9.129 18.365-9.826 25.663-0.013 0.046-0.013 0.099-0.020 0.139-0.033 0.358-0.053 0.71-0.053 1.041 0 1.765 0.458 3.404 1.201 4.87 1.798 3.563 5.441 6.024 9.694 6.024z"></path>
<path d="M119.599 307.675c2.222 0 4.286-0.676 6.018-1.812 0.132-0.093 0.252-0.192 0.378-0.292 2.713-1.977 4.505-5.162 4.505-8.784 0-0.318-0.026-0.657-0.053-1.009-0.013-0.073-0.013-0.139-0.026-0.219-0.418-4.107-2.727-10.211-5.109-15.638-1.798-4.107-3.629-7.842-4.724-9.978-0.412-0.81-1.573-0.81-1.984 0-2.548 4.956-9.129 18.365-9.826 25.663-0.013 0.046-0.013 0.099-0.013 0.139-0.040 0.358-0.059 0.71-0.059 1.041 0 3.026 1.24 5.759 3.225 7.729 1.977 1.95 4.684 3.158 7.67 3.158z"></path>
</svg>
