<!-- Generated by IcoMoon.io -->
<svg version="1.1" xmlns="http://www.w3.org/2000/svg" width="199" height="512" viewBox="0 0 199 512">
<title>DroneOnDroneOnPawn</title>
<path d="M188.437 503.202l-38.655-102.197h32.298c2.176 0 4.22-1.062 5.454-2.866 1.248-1.791 1.519-4.080 0.75-6.118l-82.776-218.838c-0.975-2.588-3.45-4.286-6.21-4.286s-5.228 1.705-6.21 4.286l-82.784 218.838c-0.77 2.037-0.491 4.326 0.749 6.118 1.24 1.798 3.277 2.866 5.454 2.866h32.411l-38.655 102.197c-0.756 1.997-0.477 4.233 0.736 5.991 1.214 1.752 3.212 2.807 5.348 2.807h166.011c2.137 0 4.14-1.055 5.355-2.807 1.214-1.765 1.493-3.994 0.723-5.991zM26.115 387.729l73.183-193.446 73.183 193.446h-146.365zM46.742 498.995h-20.986l37.069-97.997h19.46l-12.38 34.13h13.827l12.374-34.13h6.489l35.563 97.997h-91.415zM151.958 498.995l-35.536-97.997h19.466l37.069 97.997h-21z"></path>
<path d="M72.127 476.052c-0.159-1.572-0.63-3.464-1.24-5.481-1.818-5.991-5.156-13.23-7.392-17.768-0.458-0.942-0.883-1.778-1.221-2.435-0.418-0.816-1.572-0.816-1.997 0-2.548 4.963-9.15 18.405-9.853 25.736-0.007 0.040-0.007 0.093-0.014 0.139-0.033 0.365-0.053 0.704-0.053 1.035 0 2.342 0.749 4.485 1.997 6.257 1.977 2.813 5.228 4.664 8.924 4.664 1.208 0 2.349-0.245 3.437-0.611 4.339-1.453 7.491-5.487 7.491-10.317 0-0.318-0.020-0.663-0.053-1.009-0.013-0.060-0.020-0.132-0.026-0.212z"></path>
<path d="M101.958 476.052c-0.723-7.226-7.311-20.707-9.853-25.683-0.418-0.816-1.573-0.816-1.997 0-2.548 4.963-9.156 18.405-9.859 25.736-0.007 0.040-0.007 0.093-0.013 0.139-0.026 0.365-0.046 0.704-0.046 1.035 0 6.031 4.89 10.921 10.921 10.921 6.044 0 10.927-4.89 10.927-10.921 0-0.318-0.020-0.663-0.053-1.009-0.013-0.067-0.013-0.139-0.026-0.219z"></path>
<path d="M74.132 365.894c0-0.325-0.020-0.663-0.053-1.009-0.013-0.079-0.013-0.139-0.026-0.219-0.424-4.226-2.853-10.556-5.302-16.096-1.731-3.928-3.477-7.464-4.531-9.527-0.411-0.816-1.559-0.816-1.984 0-2.548 4.95-9.13 18.365-9.826 25.657-0.014 0.053-0.014 0.106-0.020 0.139-0.033 0.365-0.053 0.71-0.053 1.048 0 4.306 2.528 8.002 6.164 9.767 1.433 0.697 3.026 1.122 4.724 1.122 6.031 0.007 10.907-4.863 10.907-10.881z"></path>
<path d="M91.136 376.596c0.604 0.106 1.221 0.186 1.851 0.186 5.228 0 9.588-3.683 10.642-8.592 0.159-0.736 0.252-1.506 0.252-2.296 0-0.325-0.026-0.663-0.053-1.009-0.013-0.079-0.013-0.139-0.026-0.219-0.723-7.219-7.299-20.654-9.826-25.618-0.412-0.816-1.573-0.816-1.984 0-2.548 4.95-9.129 18.365-9.826 25.657-0.013 0.053-0.013 0.106-0.013 0.139-0.040 0.365-0.059 0.71-0.059 1.048 0.007 5.381 3.915 9.82 9.043 10.702z"></path>
</svg>
