<!-- Generated by IcoMoon.io -->
<svg version="1.1" xmlns="http://www.w3.org/2000/svg" width="512" height="512" viewBox="0 0 512 512">
<title>EastQueen</title>
<path d="M12.203 461.306v-390.957c0-3.957 1.991-7.654 5.296-9.857s7.476-2.594 11.148-1.066l463.936 195.478c4.384 1.848 7.25 6.161 7.25 10.923s-2.867 9.075-7.25 10.923l-463.936 195.478c-3.684 1.552-7.843 1.161-11.148-1.043s-5.296-5.9-5.296-9.88zM35.897 88.214v355.262l421.57-177.649-421.57-177.613z"></path>
<path d="M76.758 134.975c0.071 0 0.189 0 0.249 0.024 13.032 1.244 36.975 13.008 45.837 17.534 1.433 0.746 1.433 2.82 0 3.542-8.886 4.537-32.876 16.266-45.766 17.558-0.118 0.024-0.249 0.024-0.391 0.048-0.628 0.048-1.232 0.095-1.777 0.095-10.757 0-19.465-8.696-19.465-19.465 0-10.733 8.696-19.441 19.465-19.441 0.581 0.012 1.197 0.036 1.848 0.107z"></path>
<path d="M76.758 188.098c0.071 0 0.189 0 0.249 0.024 13.032 1.244 36.975 13.008 45.837 17.534 1.433 0.758 1.433 2.82 0 3.542-8.886 4.537-32.876 16.266-45.766 17.558-0.118 0.024-0.249 0.024-0.391 0.048-0.628 0.048-1.232 0.095-1.777 0.095-10.757 0-19.465-8.72-19.465-19.453s8.696-19.465 19.465-19.465c0.581 0.012 1.197 0.059 1.848 0.119z"></path>
<path d="M76.758 241.197c0.071 0.024 0.189 0.024 0.249 0.024 13.032 1.268 36.975 13.032 45.837 17.558 1.433 0.747 1.433 2.82 0 3.543-8.886 4.538-32.876 16.266-45.766 17.558-0.118 0.024-0.249 0.024-0.391 0.048-0.628 0.048-1.232 0.095-1.777 0.095-10.757 0-19.465-8.719-19.465-19.465s8.696-19.465 19.465-19.465c0.581 0.024 1.197 0.059 1.848 0.107z"></path>
</svg>
