<!-- Generated by IcoMoon.io -->
<svg version="1.1" xmlns="http://www.w3.org/2000/svg" width="512" height="512" viewBox="0 0 512 512">
<title>EastPawn</title>
<path d="M105.239 376.824v-221.957c0-3.934 1.943-7.618 5.201-9.81 3.234-2.203 7.381-2.666 11.041-1.208l277.841 110.996c4.514 1.777 7.452 6.161 7.452 10.994 0 4.858-2.938 9.206-7.452 11.018l-277.841 110.972c-3.661 1.457-7.796 0.995-11.041-1.209-3.258-2.192-5.201-5.865-5.201-9.798zM128.933 172.365v186.961l234.053-93.486-234.053-93.475z"></path>
<path d="M169.806 245.367c0.071 0 0.166 0 0.249 0.024 13.032 1.244 36.975 13.008 45.813 17.557 1.457 0.747 1.457 2.796 0 3.543-8.862 4.514-32.852 16.243-45.742 17.558-0.142 0-0.249 0.024-0.391 0.024-0.628 0.048-1.232 0.095-1.801 0.095-10.733 0-19.441-8.696-19.441-19.441 0-10.757 8.696-19.465 19.441-19.465 0.593 0.012 1.22 0.036 1.872 0.107z"></path>
</svg>
