<!-- Generated by IcoMoon.io -->
<svg version="1.1" xmlns="http://www.w3.org/2000/svg" width="512" height="512" viewBox="0 0 512 512">
<title>EastDrone</title>
<path d="M48.786 413.656v-295.635c0-3.886 1.895-7.523 5.118-9.739 3.199-2.228 7.286-2.713 10.923-1.338l390.767 147.841c4.608 1.729 7.654 6.161 7.654 11.089v0c0 4.928-3.057 9.324-7.654 11.089l-390.767 147.782c-3.637 1.363-7.724 0.877-10.923-1.339-3.222-2.228-5.118-5.865-5.118-9.75zM72.481 135.165v261.349l345.44-130.639-345.44-130.71z"></path>
<path d="M113.342 182.091c0.071 0.024 0.166 0.024 0.249 0.048 13.032 1.244 36.975 13.008 45.813 17.534 1.457 0.758 1.457 2.82 0 3.542-8.862 4.537-32.852 16.278-45.742 17.57-0.142 0.024-0.249 0.024-0.391 0.048-0.628 0.048-1.232 0.095-1.801 0.095-10.733 0-19.441-8.732-19.441-19.477s8.696-19.465 19.441-19.465c0.604 0.012 1.232 0.059 1.872 0.107z"></path>
<path d="M113.342 235.25c0.071 0 0.166 0 0.249 0.024 13.032 1.244 36.975 13.008 45.813 17.534 1.457 0.746 1.457 2.82 0 3.543-8.862 4.538-32.852 16.266-45.742 17.558-0.142 0.024-0.249 0.024-0.391 0.048-0.628 0.048-1.232 0.095-1.801 0.095-10.733 0-19.441-8.719-19.441-19.465s8.696-19.465 19.441-19.465c0.604 0.024 1.232 0.071 1.872 0.131z"></path>
</svg>
