<!-- Generated by IcoMoon.io -->
<svg version="1.1" xmlns="http://www.w3.org/2000/svg" width="528" height="512" viewBox="0 0 528 512">
<title>FudgeDieBlank</title>
<path d="M505.022 19.688h-358.813c-3.268 0-6.399 1.27-8.738 3.546l-123.794 119.834c-2.364 2.288-3.835 5.494-3.835 9.026v347.322c0 6.952 5.632 12.572 12.572 12.572h358.813c3.407 0 6.487-1.345 8.738-3.533l123.795-119.834c2.452-2.363 3.835-5.632 3.835-9.039v-347.322c0-6.939-5.62-12.572-12.572-12.572zM368.656 486.856h-333.668v-322.178h333.668v322.178zM376.149 139.535h-322.668l97.822-94.691h322.656l-97.809 94.691zM492.451 374.263l-98.651 95.495v-312.334l98.651-95.496v312.334z"></path>
</svg>
