<!-- Generated by IcoMoon.io -->
<svg version="1.1" xmlns="http://www.w3.org/2000/svg" width="509" height="512" viewBox="0 0 509 512">
<title>LightningPyramid</title>
<path d="M434.487 21.275h-269.688c-16.946 0-33.564 6.866-45.633 18.913l-98.11 98.153c-6.931 6.931-11.217 16.508-11.217 27.048v306.75c0 21.144 17.142 38.264 38.286 38.264h306.728c10.561 0 20.138-4.264 27.048-11.217l98.219-98.175c12.157-12.201 18.848-28.382 18.848-45.589v-269.644c0.022-35.575-28.906-64.503-64.481-64.503zM300.343 433.875c0.131 2.143-0.175 4.264-1.399 6.079-1.815 2.69-4.854 4.286-8.090 4.286h-157.299c-3.236 0-6.275-1.596-8.069-4.286-1.246-1.815-1.552-3.957-1.421-6.079 0.066-1.006 0.022-2.034 0.415-3.017l78.65-198.734c1.465-3.739 5.095-6.188 9.118-6.188s7.609 2.449 9.096 6.188l78.628 198.734c0.35 0.984 0.306 2.012 0.372 3.017zM104.276 232.145c1.487-3.739 5.073-6.188 9.096-6.188s7.631 2.449 9.096 6.188l26.217 66.208c1.202 3.039 0.809 6.45-1.028 9.096-1.793 2.69-4.854 4.286-8.069 4.286h-52.433c-0.263 0-0.481-0.153-0.743-0.197-2.974-0.219-5.685-1.618-7.347-4.111-1.837-2.646-2.231-6.057-1.006-9.096l8.352-21.1 17.864-45.087zM342.652 454.472v-276.619h-263.762c-8.156 0-14.759-6.603-14.759-14.759s6.603-14.759 14.759-14.759h272.377l78.519-78.716c5.772-5.794 15.087-5.773 20.86-0.022s5.795 15.087 0.022 20.882l-78.519 78.737v285.278c0 8.156-6.603 14.759-14.759 14.759s-14.738-6.625-14.738-14.781z"></path>
</svg>
