<!-- Generated by IcoMoon.io -->
<svg version="1.1" xmlns="http://www.w3.org/2000/svg" width="509" height="512" viewBox="0 0 509 512">
<title>LightningRecycle</title>
<path d="M434.487 21.275h-269.688c-17.186 0-33.367 6.691-45.633 18.87l-98.11 98.175c-6.931 6.931-11.217 16.508-11.217 27.048v306.75c0 21.144 17.142 38.286 38.286 38.286h306.728c10.561 0 20.138-4.286 27.048-11.239l98.241-98.197c12.157-12.201 18.826-28.382 18.826-45.567v-269.644c0.022-35.553-28.906-64.481-64.481-64.481zM60.239 310.007c1.422-3.411 4.789-5.663 8.506-5.663l22.39-0.022c13.119-40.166 50.99-68.329 94.087-68.373h0.043c16.093 0 32.077 3.936 46.202 11.392 4.351 2.296 7.565 6.144 9.008 10.867 1.443 4.701 0.984 9.708-1.312 14.082s-6.166 7.565-10.867 9.031c-4.701 1.443-9.708 0.984-14.103-1.334-8.965-4.745-18.695-7.128-28.906-7.128h-0.088c-22.674 0-43.096 12.507-53.898 31.442l25.298-0.022c3.739 0 7.063 2.231 8.484 5.663s0.634 7.368-1.968 10.014l-43.928 43.971c-1.683 1.705-4.045 2.69-6.494 2.69s-4.766-0.962-6.494-2.69l-43.95-43.906c-2.645-2.624-3.433-6.582-2.011-10.014zM130.886 417.848c-8.528-5.598-10.889-17.055-5.269-25.582 3.52-5.357 9.446-8.309 15.437-8.309 3.476 0 6.997 0.984 10.102 3.061 10.167 6.647 21.953 10.168 34.132 10.168h0.022c25.124-0.022 46.748-15.043 56.522-36.537l-26.326 0.022c-3.696 0-7.041-2.252-8.506-5.663-1.399-3.433-0.612-7.39 2.012-10.014l43.906-43.993c3.608-3.586 9.402-3.586 12.988 0l43.993 43.906c2.602 2.624 3.411 6.603 1.968 9.993-1.377 3.433-4.745 5.707-8.462 5.707l-22.5 0.022c-4.438 16.596-13.075 31.858-25.583 44.343-18.148 18.236-42.156 28.272-67.739 28.863-0.766 0.043-1.508 0.24-2.274 0.24h-0.022c-1.049 0-2.077-0.197-3.127-0.24-18.302-0.546-35.99-5.925-51.274-15.983zM342.652 454.45v-276.619h-263.762c-8.156 0-14.759-6.603-14.759-14.759s6.603-14.759 14.759-14.759h272.377l78.519-78.737c5.772-5.794 15.087-5.773 20.86-0.022s5.795 15.087 0.022 20.882l-78.519 78.759v285.278c0 8.134-6.603 14.759-14.759 14.759s-14.738-6.647-14.738-14.781z"></path>
</svg>
