<!-- Generated by IcoMoon.io -->
<svg version="1.1" xmlns="http://www.w3.org/2000/svg" width="509" height="512" viewBox="0 0 509 512">
<title>LightningArrow</title>
<path d="M434.487 21.275h-269.688c-17.23 0-33.432 6.712-45.633 18.892l-98.088 98.153c-6.953 6.931-11.239 16.508-11.239 27.070v306.772c0 21.144 17.142 38.264 38.287 38.264h306.728c10.561 0 20.138-4.264 27.048-11.217l98.175-98.154c12.201-12.179 18.892-28.382 18.892-45.611v-269.688c0.022-35.553-28.906-64.481-64.481-64.481zM199.588 299.884v-40.298c0-3.782 2.274-7.215 5.794-8.659 3.476-1.422 7.522-0.634 10.211 2.055l78.781 78.781c1.749 1.749 2.733 4.132 2.733 6.625s-0.984 4.876-2.733 6.625l-78.781 78.803c-1.793 1.793-4.198 2.733-6.647 2.733-1.202 0-2.405-0.219-3.564-0.721-3.499-1.443-5.794-4.876-5.794-8.637v-40.32h-120.938c-5.16 0-9.358-4.176-9.358-9.402v-58.206c0-5.16 4.177-9.358 9.358-9.358h120.938zM342.652 454.472v-276.641h-263.762c-8.156 0-14.759-6.603-14.759-14.759s6.603-14.759 14.759-14.759h272.377l78.519-78.737c5.772-5.794 15.087-5.773 20.86-0.022s5.795 15.087 0.022 20.882l-78.519 78.759v285.299c0 8.134-6.603 14.738-14.759 14.738s-14.738-6.625-14.738-14.759z"></path>
</svg>
