<!-- Generated by IcoMoon.io -->
<svg version="1.1" xmlns="http://www.w3.org/2000/svg" width="509" height="512" viewBox="0 0 509 512">
<title>LightningBolt</title>
<path d="M432.017 22.587h-268.113c-16.902 0-33.454 6.887-45.458 18.936l-97.541 98.35c-6.822 6.865-11.064 16.334-11.064 26.807v307.274c0 21.012 17.055 38.046 38.068 38.046h304.935c10.583 0 20.204-4.351 27.091-11.348l97.476-98.241c11.895-11.916 18.717-28.49 18.717-45.392v-270.103c0-35.465-28.753-64.328-64.109-64.328zM144.224 371.099c-3.651 0-6.91-2.274-8.331-5.795-1.399-3.498-0.634-7.565 1.903-10.255l37.805-39.926h-31.377c-3.651 0-6.91-2.274-8.331-5.772-1.399-3.498-0.634-7.565 1.903-10.255l61.179-64.438c1.706-1.793 4.023-2.777 6.406-2.777h52.258c3.63 0 6.909 2.274 8.309 5.794 1.399 3.476 0.634 7.543-1.902 10.233l-49.132 51.756h19.701c3.608 0 6.887 2.274 8.331 5.772 1.377 3.498 0.634 7.565-1.924 10.255l-34.613 36.537h16.399c3.914 0 7.391 2.668 8.593 6.56s-0.175 8.134-3.345 10.495l-100.362 74.779c-1.618 1.202-3.433 1.749-5.269 1.749-2.514 0-4.942-1.072-6.713-3.149-1.662-1.946-2.252-4.351-2.099-6.779 0.088-2.077 0.678-4.132 2.099-5.795l50.968-58.993h-22.456zM344.73 463.568v-288.623h-273.623c-8.112 0-14.672-6.56-14.672-14.672s6.559-14.672 14.672-14.672h282.151l81.448-82.126c5.707-5.751 15.022-5.794 20.75-0.087 5.772 5.707 5.816 15 0.087 20.75l-81.493 82.192v297.26c0 8.069-6.582 14.65-14.671 14.65-8.112-0.022-14.65-6.603-14.65-14.671z"></path>
</svg>
