<!-- Generated by IcoMoon.io -->
<svg version="1.1" xmlns="http://www.w3.org/2000/svg" width="509" height="512" viewBox="0 0 509 512">
<title>LightningAtom</title>
<path d="M434.596 21.275h-269.906c-17.208 0.044-33.367 6.756-45.502 18.892l-98.132 98.153c-6.931 6.931-11.195 16.508-11.195 27.070v306.772c0 21.056 17.012 38.133 38.068 38.264h307.165c10.495-0.087 20.029-4.351 26.894-11.283l98.11-98.088c12.157-12.135 18.804-28.228 18.87-45.392v-270.103c-0.11-35.444-28.928-64.219-64.372-64.284zM74.999 337.077c4.177-0.175 7.981 1.072 11.413 2.908 5.466 2.952 9.73 7.806 11.261 14.015l36.121-1.662c-0.109-1.247-0.175-2.427-0.175-3.63 0-10.43 3.586-19.985 9.577-27.594l-38.942-38.418c-5.576 2.974-12.638 2.209-17.34-2.493-0.219-0.219-0.306-0.525-0.503-0.765-4.898-5.554-4.898-13.753 0-19.307 0.197-0.24 0.284-0.525 0.503-0.765 5.751-5.773 15.066-5.773 20.816 0 4.657 4.658 5.488 11.589 2.624 17.164l38.833 38.33c6.779-5.86 15.306-9.687 24.686-10.583v-47.951c-10.211-2.034-17.929-11.042-17.929-21.865 0-12.31 9.97-22.281 22.281-22.281s22.281 9.97 22.281 22.281c0 10.823-7.719 19.832-17.952 21.865v47.951c12.507 1.202 23.483 7.609 30.809 16.99l36.537-38.133c-2.777-3.957-4.286-8.834-4.045-14.082 0.721-12.288 11.282-21.647 23.571-20.947s21.668 11.26 20.947 23.527c-0.721 12.31-11.26 21.69-23.549 20.947-3.936-0.219-7.565-1.443-10.671-3.454l-38.024 39.664c2.908 5.816 4.591 12.376 4.679 19.307l30.962-1.443c1.53-6.101 6.931-10.714 13.535-11.064 8.134-0.394 15.022 5.904 15.393 14.060 0.394 8.112-5.904 15-14.038 15.372-6.582 0.306-12.376-3.805-14.518-9.687l-32.099 1.487c-1.793 9.642-6.713 18.236-13.666 24.642l44.299 36.428c3.87-3.171 8.768-5.029 14.125-5.029 11.851 0 21.319 9.315 22.041 20.969 0.022 0.459 0.262 0.853 0.262 1.334 0 12.31-9.971 22.303-22.303 22.303-12.31 0-22.281-9.993-22.281-22.303 0-0.459 0.153-0.853 0.153-1.334 0.219-3.28 0.984-6.45 2.493-9.227l-45.939-37.762c-5.554 3.324-11.873 5.554-18.673 6.188v46.792c6.013 1.88 10.386 7.478 10.386 14.103 0 8.112-6.582 14.694-14.715 14.694s-14.738-6.582-14.738-14.693c0-6.625 4.373-12.223 10.386-14.103v-46.792c-8.024-0.765-15.415-3.717-21.647-8.156l-33.17 31.355c2.843 5.816 1.683 12.988-3.368 17.471-0.066 0.043-0.175 0.087-0.263 0.131-5.51 4.701-13.316 4.483-18.761 0-0.569-0.459-1.268-0.721-1.771-1.334-5.401-6.057-4.876-15.372 1.203-20.794 4.832-4.308 11.654-4.788 16.989-1.749l32.601-30.83c-4.767-5.073-8.375-11.327-10.343-18.236l-37.258 1.749c-1.049 7.041-5.554 12.857-11.676 16.137-2.82 1.487-5.903 2.646-9.337 2.82-12.288 0.591-22.718-8.921-23.308-21.231-0.569-12.267 8.943-22.697 21.231-23.286zM342.652 454.472v-276.641h-263.74c-8.156 0-14.759-6.603-14.759-14.759s6.603-14.759 14.759-14.759h272.377l78.519-78.737c5.772-5.794 15.087-5.773 20.86-0.022s5.795 15.087 0.022 20.882l-78.519 78.759v285.299c0 8.156-6.603 14.738-14.759 14.738s-14.759-6.603-14.759-14.759z"></path>
</svg>
