<!-- Generated by IcoMoon.io -->
<svg version="1.1" xmlns="http://www.w3.org/2000/svg" width="561" height="512" viewBox="0 0 561 512">
<title>MiniLeaningLeft</title>
<path d="M516.872 512l-488.728-1.878c-7.566-0.027-14.371-4.709-17.093-11.813-0.816-2.15-1.225-4.409-1.197-6.641-0.027-5.144 2.096-10.152 6.015-13.745l361.974-328.224c4.464-4.055 10.697-5.661 16.576-4.273 1.442 0.354 2.776 0.844 4.029 1.47 4.082 2.042 7.349 5.553 9.036 9.907l126.673 330.074c1.552 4.029 1.606 8.465 0.217 12.438-0.544 1.688-1.307 3.239-2.341 4.736-3.403 4.954-9.063 7.921-15.106 7.921 0 0.027-0.027 0.027-0.054 0.027zM398.936 237.097l-0.082 0.027-16.168-42.025-306.857 278.305 414.314 1.606-16.44-42.896c-0.19-0.517-0.381-1.034-0.517-1.551l-74.251-193.466z"></path>
</svg>
