<!-- Generated by IcoMoon.io -->
<svg version="1.1" xmlns="http://www.w3.org/2000/svg" width="561" height="512" viewBox="0 0 561 512">
<title>MiniLeaningRight</title>
<path d="M43.903 512c-6.042 0-11.676-2.967-15.106-7.921-1.035-1.497-1.797-3.048-2.341-4.736-1.361-3.974-1.306-8.411 0.245-12.438l126.673-330.101c1.688-4.355 4.927-7.866 9.036-9.907 1.28-0.626 2.613-1.143 4.029-1.47 5.906-1.388 12.112 0.218 16.603 4.273l361.947 328.25c3.947 3.593 6.069 8.574 6.043 13.745 0.027 2.232-0.409 4.491-1.197 6.641-2.749 7.104-9.527 11.786-17.12 11.813l-488.728 1.851c-0.027 0-0.054 0-0.081 0zM87.669 430.536c-0.136 0.517-0.326 1.034-0.517 1.551l-16.439 42.896 414.287-1.606-306.857-278.278-16.141 42.025-0.082-0.027-74.251 193.439z"></path>
</svg>
