<!-- Generated by IcoMoon.io -->
<svg version="1.1" xmlns="http://www.w3.org/2000/svg" width="252" height="512" viewBox="0 0 252 512">
<title>NestExpanded</title>
<path d="M241.493 363.692l-109.474-259.818c-1.035-2.462-3.444-4.061-6.111-4.061s-5.082 1.599-6.118 4.061l-109.474 259.818c-0.863 2.063-0.643 4.392 0.591 6.243s3.304 2.966 5.527 2.966h45.919l-22.492 59.441c-0.77 2.037-0.491 4.326 0.749 6.118 1.24 1.798 3.278 2.866 5.454 2.866h38.992l-24.582 61.538c-0.816 2.050-0.564 4.359 0.67 6.183 1.24 1.825 3.291 2.913 5.494 2.913h124.316c2.202 0 4.26-1.088 5.494-2.913 1.234-1.818 1.486-4.134 0.67-6.183l-24.582-61.538h39.099c2.176 0 4.213-1.062 5.454-2.866 1.248-1.791 1.519-4.080 0.75-6.118l-22.486-59.441h40.014c2.23 0 4.299-1.115 5.534-2.966s1.459-4.18 0.59-6.243zM181.169 498.697h-104.73l22.916-57.365h58.891l22.923 57.365zM202.036 428.063h-146.357l20.867-55.155h104.63l20.86 55.155zM190.339 359.639h-163.906l99.475-236.099 99.482 236.099h-35.052z"></path>
<path d="M74.283 336.576c-0.73-7.219-7.305-20.654-9.833-25.63-0.412-0.803-1.572-0.803-1.984 0-2.548 4.963-9.13 18.378-9.826 25.67-0.014 0.040-0.014 0.106-0.014 0.139-0.040 0.365-0.053 0.71-0.053 1.035 0 6.024 4.87 10.901 10.887 10.901 6.025 0 10.901-4.87 10.901-10.901 0-0.312-0.020-0.65-0.053-0.995-0.013-0.079-0.020-0.159-0.026-0.219z"></path>
<path d="M104.027 336.576c-0.498-4.976-3.762-12.858-6.582-18.935-1.267-2.74-2.462-5.155-3.251-6.701-0.412-0.803-1.559-0.803-1.984 0-2.548 4.963-9.13 18.378-9.826 25.67-0.013 0.040-0.013 0.106-0.013 0.139-0.040 0.365-0.059 0.71-0.059 1.035 0 3.51 1.685 6.595 4.26 8.592 1.844 1.426 4.127 2.309 6.635 2.309 6.018 0 10.901-4.87 10.901-10.901 0-0.312-0.020-0.65-0.053-0.995-0.013-0.073-0.013-0.152-0.026-0.212z"></path>
<path d="M121.96 310.94c-2.541 4.963-9.123 18.378-9.826 25.67-0.007 0.040-0.007 0.106-0.013 0.146-0.033 0.365-0.053 0.71-0.053 1.035 0 5.726 4.432 10.37 10.038 10.808 0.285 0.026 0.558 0.093 0.85 0.093 3.729 0 7.013-1.877 8.977-4.731 1.214-1.758 1.924-3.875 1.924-6.171 0-0.312-0.026-0.65-0.053-0.995-0.013-0.079-0.013-0.152-0.026-0.219-0.723-7.219-7.299-20.654-9.833-25.63-0.398-0.81-1.559-0.81-1.984-0.007z"></path>
<path d="M133.373 404.994c-0.696-6.966-6.808-19.645-9.514-25-0.1-0.192-0.225-0.451-0.312-0.623-0.412-0.816-1.573-0.816-1.984 0-2.548 4.95-9.13 18.365-9.826 25.656-0.013 0.053-0.013 0.106-0.013 0.139-0.040 0.365-0.059 0.71-0.059 1.048 0 1.075 0.206 2.090 0.498 3.072 1.334 4.512 5.46 7.816 10.397 7.816 6.018 0 10.901-4.87 10.901-10.887 0-0.325-0.026-0.663-0.053-1.009-0.020-0.067-0.020-0.132-0.033-0.212z"></path>
<path d="M103.615 404.994c-0.179-1.805-0.73-4.007-1.493-6.37-2.275-7.053-6.442-15.532-8.34-19.248-0.412-0.816-1.559-0.816-1.984 0-2.548 4.95-9.129 18.365-9.826 25.656-0.013 0.053-0.013 0.106-0.020 0.139-0.033 0.365-0.053 0.71-0.053 1.048 0 6.011 4.877 10.887 10.895 10.887 0.69 0 1.367-0.079 2.030-0.205 5.049-0.949 8.87-5.361 8.87-10.675 0-0.325-0.020-0.663-0.053-1.009-0.013-0.079-0.013-0.146-0.026-0.226z"></path>
<path d="M128.171 487.75c6.011 0 10.894-4.87 10.894-10.894 0-0.318-0.026-0.657-0.060-1.009 0-0.073-0.013-0.139-0.013-0.219-0.73-7.212-7.305-20.647-9.833-25.617-0.418-0.81-1.566-0.81-1.984 0-2.555 4.956-9.129 18.365-9.833 25.663-0.007 0.046-0.013 0.099-0.013 0.139-0.033 0.358-0.053 0.71-0.053 1.041 0 6.018 4.87 10.894 10.895 10.894z"></path>
</svg>
