<!-- Generated by IcoMoon.io -->
<svg version="1.1" xmlns="http://www.w3.org/2000/svg" width="252" height="512" viewBox="0 0 252 512">
<title>Nest</title>
<path d="M241.016 503.003l-109.368-259.566c-1.008-2.395-3.364-3.961-5.972-3.961-2.601 0-4.956 1.559-5.965 3.961l-109.361 259.566c-0.842 1.997-0.63 4.286 0.57 6.098 1.201 1.805 3.224 2.899 5.394 2.899h218.729c2.176 0 4.207-1.088 5.4-2.899 1.208-1.805 1.42-4.101 0.571-6.098zM212.672 499.049l-81.024-190.458c-1.015-2.389-3.364-3.941-5.965-3.941-2.594 0-4.943 1.546-5.958 3.941l-54.173 127.328h14.079l46.046-108.233 72.903 171.363h-13.72l-52.826-123.938c-1.022-2.395-3.37-3.941-5.958-3.941-2.594 0-4.943 1.539-5.958 3.941l-25.922 60.808h14.085l17.801-41.746 44.692 104.863-144.698 0.014 99.608-236.404 99.608 236.404h-12.619z"></path>
<path d="M62.3 450.237c-2.535 4.963-9.123 18.358-9.819 25.644-0.007 0.053-0.007 0.087-0.014 0.139-0.033 0.372-0.053 0.723-0.053 1.048 0 4.113 2.309 7.644 5.672 9.495 1.553 0.856 3.311 1.387 5.209 1.387 6.011 0 10.881-4.863 10.881-10.881 0-0.318-0.020-0.657-0.046-1.009-0.007-0.079-0.013-0.139-0.020-0.212-0.412-4.021-2.627-9.959-4.956-15.3-1.838-4.226-3.742-8.108-4.864-10.297-0.418-0.822-1.572-0.822-1.99-0.014z"></path>
<path d="M86.903 486.065c1.745 1.195 3.848 1.885 6.118 1.885 6.005 0 10.881-4.863 10.881-10.881 0-0.318-0.020-0.657-0.053-1.009-0.007-0.079-0.013-0.139-0.020-0.212-0.438-4.339-2.993-10.921-5.507-16.56-1.659-3.736-3.304-7.053-4.313-9.030-0.418-0.822-1.566-0.822-1.99-0.014-2.534 4.963-9.116 18.358-9.813 25.644-0.007 0.053-0.013 0.087-0.013 0.139-0.033 0.372-0.053 0.723-0.053 1.048-0.007 3.742 1.891 7.033 4.764 8.99z"></path>
<path d="M122.737 487.949c6.011 0 10.887-4.863 10.887-10.881 0-0.318-0.020-0.657-0.060-1.009-0.006-0.079-0.013-0.139-0.020-0.212-0.723-7.212-7.285-20.634-9.813-25.591-0.418-0.822-1.573-0.822-1.99-0.014-2.541 4.963-9.123 18.358-9.82 25.644 0 0.053 0 0.087-0.007 0.139-0.033 0.372-0.053 0.723-0.053 1.048-0.007 6.011 4.864 10.875 10.874 10.875z"></path>
</svg>
