<!-- Generated by IcoMoon.io -->
<svg version="1.1" xmlns="http://www.w3.org/2000/svg" width="512" height="512" viewBox="0 0 512 512">
<title>NorthEastQueen</title>
<path d="M289.759 508.517l-276.442-276.442c-2.796-2.796-4.016-6.824-3.21-10.71 0.77-3.886 3.447-7.132 7.132-8.637l466.258-189.827c4.407-1.801 9.478-0.782 12.854 2.595 3.365 3.377 4.384 8.447 2.594 12.842l-189.815 466.27c-1.505 3.708-4.727 6.374-8.637 7.156-3.886 0.782-7.914-0.426-10.733-3.246zM42.697 227.952l251.208 251.196 172.471-423.715-423.679 172.519z"></path>
<path d="M104.646 232.122c0.059-0.048 0.13-0.142 0.201-0.166 10.106-8.328 35.34-16.941 44.818-20.010 1.54-0.486 3.009 0.995 2.5 2.5-3.081 9.513-11.752 34.76-19.951 44.794-0.071 0.095-0.166 0.19-0.249 0.296-0.403 0.486-0.794 0.936-1.196 1.327-7.618 7.606-19.927 7.606-27.521 0s-7.594-19.892 0.012-27.498c0.427-0.415 0.9-0.829 1.386-1.244z"></path>
<path d="M142.214 269.69c0.048-0.059 0.142-0.13 0.202-0.166 10.106-8.329 35.34-16.953 44.818-19.998 1.564-0.486 3.009 0.971 2.512 2.5-3.092 9.49-11.752 34.76-19.963 44.771-0.059 0.095-0.166 0.202-0.249 0.308-0.415 0.474-0.805 0.936-1.208 1.327-7.606 7.606-19.927 7.594-27.509 0s-7.618-19.927 0-27.521c0.427-0.403 0.888-0.817 1.398-1.221z"></path>
<path d="M179.769 307.233c0.071-0.024 0.142-0.118 0.19-0.166 10.118-8.305 35.352-16.942 44.841-19.998 1.529-0.486 3.009 0.983 2.5 2.5-3.081 9.502-11.752 34.76-19.951 44.782-0.071 0.106-0.166 0.202-0.249 0.308-0.415 0.474-0.794 0.924-1.196 1.315-7.618 7.618-19.939 7.606-27.533 0-7.594-7.594-7.594-19.904 0.012-27.509 0.415-0.403 0.888-0.805 1.386-1.232z"></path>
</svg>
