<!-- Generated by IcoMoon.io -->
<svg version="1.1" xmlns="http://www.w3.org/2000/svg" width="512" height="512" viewBox="0 0 512 512">
<title>NorthWestPawn</title>
<path d="M400.565 253.447l-156.964 156.952c-2.772 2.772-6.753 4.005-10.615 3.246-3.839-0.735-7.108-3.341-8.649-6.954l-117.986-274.95c-1.919-4.442-0.912-9.632 2.511-13.044 3.424-3.436 8.589-4.419 13.055-2.511l274.949 117.986c3.613 1.552 6.22 4.81 6.942 8.649 0.747 3.862-0.474 7.843-3.246 10.627zM239.231 381.267l132.203-132.191-231.601-99.41 99.398 231.601z"></path>
<path d="M261.953 300.753c-0.048-0.059-0.118-0.118-0.178-0.202-8.316-10.094-16.953-35.329-19.986-44.818-0.498-1.552 0.948-3.009 2.512-2.5 9.454 3.080 34.724 11.752 44.771 19.927 0.106 0.106 0.213 0.166 0.296 0.26 0.462 0.403 0.924 0.794 1.339 1.221 7.594 7.594 7.594 19.904 0 27.486-7.618 7.618-19.927 7.618-27.521 0.024-0.403-0.438-0.829-0.889-1.232-1.398z"></path>
</svg>
