<!-- Generated by IcoMoon.io -->
<svg version="1.1" xmlns="http://www.w3.org/2000/svg" width="512" height="512" viewBox="0 0 512 512">
<title>NorthEastPawn</title>
<path d="M268.587 410.375l-156.94-156.94c-2.784-2.772-4.016-6.753-3.246-10.615 0.746-3.839 3.329-7.108 6.942-8.661l274.95-117.975c4.454-1.931 9.62-0.912 13.044 2.511 3.435 3.436 4.442 8.589 2.524 13.056l-117.986 274.926c-1.552 3.637-4.81 6.22-8.649 6.966-3.874 0.758-7.854-0.474-10.639-3.27zM140.768 249.052l132.214 132.214 99.398-231.613-231.613 99.398z"></path>
<path d="M221.293 271.786c0.048-0.059 0.119-0.118 0.202-0.178 10.094-8.329 35.329-16.953 44.806-19.986 1.552-0.51 3.009 0.948 2.5 2.5-3.068 9.466-11.728 34.736-19.927 44.782-0.095 0.095-0.166 0.19-0.249 0.296-0.415 0.462-0.805 0.924-1.232 1.339-7.594 7.594-19.904 7.594-27.486 0-7.606-7.618-7.606-19.927-0.012-27.509 0.427-0.426 0.888-0.853 1.398-1.244z"></path>
</svg>
