<!-- Generated by IcoMoon.io -->
<svg version="1.1" xmlns="http://www.w3.org/2000/svg" width="512" height="512" viewBox="0 0 512 512">
<title>NorthEastDrone</title>
<path d="M270.803 459.493l-209.067-209.055c-2.736-2.737-3.98-6.647-3.258-10.496 0.687-3.827 3.234-7.073 6.777-8.661l380.851-171.785c4.49-2.026 9.762-1.066 13.257 2.417v0c3.483 3.483 4.431 8.755 2.405 13.257l-171.785 380.816c-1.611 3.531-4.846 6.089-8.661 6.764-3.874 0.723-7.772-0.51-10.521-3.258zM90.619 245.805l184.816 184.816 151.881-336.65-336.697 151.833z"></path>
<path d="M152.698 250.094c0.071-0.036 0.142-0.107 0.213-0.154 10.106-8.316 35.352-16.941 44.794-19.998 1.576-0.486 3.033 0.971 2.512 2.512-3.069 9.478-11.717 34.748-19.927 44.771-0.083 0.118-0.166 0.202-0.249 0.308-0.415 0.462-0.805 0.924-1.208 1.339-7.606 7.594-19.927 7.57-27.509-0.024-7.606-7.606-7.618-19.927-0.024-27.509 0.427-0.391 0.912-0.817 1.398-1.244z"></path>
<path d="M190.302 287.685c0.048-0.048 0.119-0.118 0.19-0.166 10.094-8.329 35.34-16.954 44.794-19.998 1.552-0.51 3.033 0.971 2.5 2.5-3.056 9.49-11.717 34.748-19.927 44.771-0.083 0.118-0.166 0.202-0.249 0.308-0.403 0.474-0.794 0.936-1.22 1.327-7.594 7.606-19.904 7.594-27.498-0.012-7.594-7.594-7.606-19.915-0.012-27.498 0.427-0.391 0.912-0.817 1.422-1.232z"></path>
</svg>
