<!-- Generated by IcoMoon.io -->
<svg version="1.1" xmlns="http://www.w3.org/2000/svg" width="512" height="512" viewBox="0 0 512 512">
<title>NorthPawn</title>
<path d="M366.99 416.618h-221.957c-3.934 0-7.618-1.943-9.81-5.201-2.203-3.235-2.666-7.381-1.208-11.041l110.996-277.841c1.777-4.502 6.161-7.452 10.994-7.452 4.858 0 9.206 2.95 11.018 7.452l110.985 277.841c1.457 3.661 0.995 7.796-1.209 11.041-2.204 3.258-5.876 5.201-9.81 5.201zM162.52 392.924h186.972l-93.486-234.065-93.486 234.065z"></path>
<path d="M235.522 352.063c0-0.071 0-0.166 0.024-0.249 1.244-13.032 13.008-36.975 17.558-45.813 0.746-1.457 2.796-1.457 3.543 0 4.514 8.861 16.255 32.853 17.57 45.742 0 0.142 0.024 0.249 0.024 0.391 0.048 0.628 0.095 1.232 0.095 1.801 0 10.733-8.707 19.441-19.441 19.441-10.757 0-19.465-8.696-19.465-19.441 0.012-0.604 0.036-1.232 0.095-1.872z"></path>
</svg>
