<!-- Generated by IcoMoon.io -->
<svg version="1.1" xmlns="http://www.w3.org/2000/svg" width="512" height="512" viewBox="0 0 512 512">
<title>NorthQueen</title>
<path d="M451.485 509.666h-390.969c-3.957 0-7.654-1.99-9.857-5.296s-2.594-7.476-1.066-11.148l195.478-463.924c1.848-4.395 6.161-7.25 10.923-7.25s9.075 2.855 10.923 7.25l195.49 463.924c1.552 3.685 1.161 7.843-1.043 11.148s-5.9 5.296-9.88 5.296zM78.381 485.971h355.262l-177.649-421.582-177.613 421.582z"></path>
<path d="M125.142 445.099c0-0.071 0-0.19 0.023-0.249 1.244-13.032 13.008-36.975 17.534-45.837 0.746-1.433 2.82-1.433 3.542 0 4.537 8.885 16.266 32.876 17.558 45.766 0.024 0.118 0.024 0.249 0.048 0.391 0.048 0.628 0.095 1.232 0.095 1.777 0 10.757-8.696 19.465-19.465 19.465-10.733 0-19.441-8.696-19.441-19.465 0.023-0.568 0.047-1.197 0.106-1.848z"></path>
<path d="M178.276 445.099c0-0.071 0-0.19 0.024-0.249 1.244-13.032 13.008-36.975 17.534-45.837 0.758-1.433 2.82-1.433 3.542 0 4.537 8.885 16.266 32.876 17.558 45.766 0.024 0.118 0.024 0.249 0.048 0.391 0.048 0.628 0.095 1.232 0.095 1.777 0 10.757-8.72 19.465-19.453 19.465s-19.465-8.696-19.465-19.465c0-0.568 0.048-1.197 0.119-1.848z"></path>
<path d="M231.375 445.099c0.024-0.071 0.024-0.19 0.024-0.249 1.268-13.032 13.032-36.975 17.558-45.837 0.746-1.433 2.82-1.433 3.542 0 4.537 8.885 16.266 32.876 17.557 45.766 0.024 0.118 0.024 0.249 0.048 0.391 0.048 0.628 0.095 1.232 0.095 1.777 0 10.757-8.719 19.465-19.465 19.465s-19.465-8.696-19.465-19.465c0.012-0.568 0.059-1.197 0.107-1.848z"></path>
</svg>
