<!-- Generated by IcoMoon.io -->
<svg version="1.1" xmlns="http://www.w3.org/2000/svg" width="512" height="512" viewBox="0 0 512 512">
<title>NorthDrone</title>
<path d="M403.835 473.082h-295.647c-3.886 0-7.523-1.896-9.739-5.118-2.228-3.199-2.713-7.286-1.338-10.923l147.841-390.756c1.73-4.62 6.161-7.654 11.089-7.654v0c4.928 0 9.324 3.044 11.089 7.654l147.793 390.756c1.363 3.637 0.877 7.724-1.339 10.923-2.228 3.211-5.865 5.118-9.75 5.118zM125.344 449.387h261.349l-130.651-345.44-130.698 345.44z"></path>
<path d="M172.27 408.515c0.024-0.071 0.024-0.166 0.048-0.249 1.244-13.032 13.008-36.975 17.534-45.813 0.758-1.457 2.82-1.457 3.542 0 4.537 8.861 16.278 32.853 17.57 45.742 0.024 0.142 0.024 0.249 0.048 0.391 0.048 0.628 0.095 1.232 0.095 1.801 0 10.733-8.732 19.441-19.477 19.441s-19.465-8.696-19.465-19.441c0.012-0.592 0.059-1.221 0.107-1.872z"></path>
<path d="M225.429 408.515c0-0.071 0-0.166 0.024-0.249 1.244-13.032 13.008-36.975 17.534-45.813 0.746-1.457 2.82-1.457 3.542 0 4.537 8.861 16.266 32.853 17.558 45.742 0.024 0.142 0.024 0.249 0.048 0.391 0.048 0.628 0.095 1.232 0.095 1.801 0 10.733-8.72 19.441-19.465 19.441s-19.465-8.696-19.465-19.441c0.012-0.592 0.059-1.221 0.131-1.872z"></path>
</svg>
