<!-- Generated by IcoMoon.io -->
<svg version="1.1" xmlns="http://www.w3.org/2000/svg" width="512" height="512" viewBox="0 0 512 512">
<title>NorthWestDrone</title>
<path d="M449.838 250.651l-209.043 209.032c-2.749 2.748-6.67 3.981-10.508 3.281s-7.084-3.235-8.672-6.776l-171.773-380.851c-2.038-4.49-1.066-9.762 2.417-13.245v0c3.483-3.483 8.743-4.443 13.245-2.428l380.84 171.796c3.519 1.611 6.089 4.857 6.753 8.672 0.723 3.851-0.51 7.76-3.258 10.52zM236.162 430.8l184.792-184.78-336.638-151.881 151.845 336.661z"></path>
<path d="M240.439 368.744c-0.048-0.071-0.095-0.142-0.166-0.213-8.328-10.118-16.941-35.352-19.998-44.794-0.486-1.599 0.971-3.033 2.524-2.524 9.466 3.080 34.736 11.728 44.747 19.927 0.118 0.095 0.213 0.166 0.32 0.249 0.486 0.391 0.924 0.782 1.339 1.209 7.594 7.594 7.57 19.927-0.024 27.509-7.594 7.594-19.927 7.618-27.509 0.024-0.391-0.438-0.805-0.901-1.232-1.386z"></path>
<path d="M278.030 331.141c-0.048-0.048-0.118-0.118-0.166-0.19-8.341-10.118-16.942-35.352-19.998-44.794-0.51-1.575 0.971-3.033 2.524-2.524 9.466 3.080 34.736 11.728 44.759 19.95 0.118 0.071 0.19 0.166 0.296 0.237 0.486 0.414 0.948 0.805 1.339 1.232 7.594 7.594 7.594 19.904 0 27.486s-19.927 7.618-27.509 0.024c-0.414-0.45-0.829-0.912-1.244-1.421z"></path>
</svg>
