<!-- Generated by IcoMoon.io -->
<svg version="1.1" xmlns="http://www.w3.org/2000/svg" width="512" height="512" viewBox="0 0 512 512">
<title>NorthWestQueen</title>
<path d="M498.707 232.087l-276.454 276.442c-2.796 2.796-6.824 4.016-10.71 3.211-3.886-0.77-7.132-3.447-8.637-7.132l-189.839-466.258c-1.789-4.419-0.77-9.478 2.607-12.843 3.364-3.377 8.435-4.395 12.842-2.595l466.281 189.804c3.708 1.505 6.362 4.727 7.156 8.637 0.782 3.886-0.426 7.914-3.246 10.733zM218.143 479.136l251.196-251.196-423.726-172.483 172.53 423.679z"></path>
<path d="M222.3 417.187c-0.048-0.059-0.142-0.13-0.166-0.202-8.328-10.106-16.953-35.34-20.010-44.818-0.486-1.54 0.983-3.009 2.5-2.5 9.489 3.080 34.76 11.752 44.794 19.95 0.095 0.071 0.19 0.166 0.296 0.249 0.486 0.403 0.924 0.794 1.315 1.197 7.618 7.618 7.618 19.927 0 27.521-7.594 7.606-19.904 7.594-27.486-0.012-0.415-0.426-0.829-0.889-1.244-1.386z"></path>
<path d="M259.856 379.62c-0.048-0.048-0.118-0.142-0.166-0.202-8.328-10.106-16.941-35.34-20.010-44.818-0.462-1.564 0.995-3.009 2.524-2.512 9.489 3.092 34.76 11.752 44.782 19.962 0.095 0.059 0.19 0.166 0.296 0.249 0.486 0.414 0.948 0.805 1.339 1.209 7.594 7.606 7.594 19.927 0 27.509s-19.927 7.618-27.544 0c-0.391-0.426-0.805-0.889-1.221-1.398z"></path>
<path d="M297.412 342.064c-0.024-0.071-0.118-0.142-0.166-0.19-8.305-10.118-16.942-35.352-19.998-44.841-0.486-1.529 0.971-3.009 2.5-2.5 9.49 3.080 34.76 11.752 44.771 19.95 0.118 0.071 0.213 0.166 0.32 0.249 0.462 0.414 0.924 0.794 1.315 1.197 7.618 7.618 7.594 19.939 0 27.533s-19.904 7.594-27.509-0.012c-0.391-0.414-0.805-0.889-1.232-1.386z"></path>
</svg>
