<!-- Generated by IcoMoon.io -->
<svg version="1.1" xmlns="http://www.w3.org/2000/svg" width="199" height="512" viewBox="0 0 199 512">
<title>PawnOnDroneOnPawn</title>
<path d="M188.437 503.202l-36.094-95.423h9.176c2.203 0 4.26-1.088 5.494-2.913 1.234-1.812 1.486-4.134 0.67-6.183l-62.169-155.601c-1.002-2.522-3.45-4.173-6.164-4.173s-5.156 1.652-6.164 4.173l-62.156 155.601c-0.816 2.050-0.564 4.365 0.67 6.183 1.24 1.825 3.291 2.913 5.493 2.913h9.163l-36.093 95.423c-0.756 1.997-0.477 4.233 0.736 5.991 1.214 1.752 3.212 2.807 5.348 2.807h166.011c2.137 0 4.14-1.055 5.355-2.807 1.214-1.765 1.493-3.994 0.723-5.991zM46.995 394.51l52.362-131.078 52.369 131.078h-104.731zM46.742 498.995h-20.986l34.508-91.216h19.566l-9.919 27.349h13.827l9.919-27.349h11.398l33.108 91.216h-91.422zM151.958 498.995l-33.075-91.216h19.559l34.508 91.216h-20.993z"></path>
<path d="M72.127 476.052c-0.159-1.572-0.63-3.464-1.24-5.481-1.818-5.991-5.156-13.23-7.392-17.768-0.458-0.942-0.883-1.778-1.221-2.435-0.418-0.816-1.572-0.816-1.997 0-2.548 4.963-9.15 18.405-9.853 25.736-0.007 0.040-0.007 0.093-0.014 0.139-0.033 0.365-0.053 0.704-0.053 1.035 0 2.342 0.749 4.485 1.997 6.257 1.977 2.813 5.228 4.664 8.924 4.664 1.208 0 2.349-0.245 3.437-0.611 4.339-1.453 7.491-5.487 7.491-10.317 0-0.318-0.020-0.663-0.053-1.009-0.013-0.060-0.020-0.132-0.026-0.212z"></path>
<path d="M101.958 476.052c-0.723-7.226-7.311-20.707-9.853-25.683-0.418-0.816-1.573-0.816-1.997 0-2.548 4.963-9.156 18.405-9.859 25.736-0.007 0.040-0.007 0.093-0.013 0.139-0.026 0.365-0.046 0.704-0.046 1.035 0 6.031 4.89 10.921 10.921 10.921 6.044 0 10.927-4.89 10.927-10.921 0-0.318-0.020-0.663-0.053-1.009-0.013-0.067-0.013-0.139-0.026-0.219z"></path>
<path d="M98.721 383.562c4.028 0 7.51-2.209 9.395-5.461 0.936-1.599 1.506-3.443 1.506-5.421 0-0.325-0.026-0.663-0.059-1.009 0-0.079-0.013-0.139-0.013-0.219-0.73-7.219-7.305-20.654-9.84-25.618-0.418-0.816-1.566-0.816-1.984 0-2.555 4.95-9.129 18.365-9.833 25.657-0.007 0.053-0.013 0.106-0.013 0.139-0.033 0.365-0.053 0.71-0.053 1.048 0 2.514 0.889 4.803 2.322 6.648 1.99 2.555 5.069 4.233 8.573 4.233z"></path>
</svg>
