<!-- Generated by IcoMoon.io -->
<svg version="1.1" xmlns="http://www.w3.org/2000/svg" width="252" height="512" viewBox="0 0 252 512">
<title>PawnOnPawnOnQueen</title>
<path d="M241.493 502.784l-69.254-164.363h15.831c2.202 0 4.26-1.088 5.494-2.913 1.234-1.818 1.486-4.134 0.67-6.183l-24.23-60.668h18.073c2.202 0 4.26-1.088 5.494-2.913 1.234-1.818 1.486-4.134 0.67-6.183l-62.161-155.599c-1.002-2.521-3.45-4.174-6.163-4.174s-5.155 1.652-6.163 4.174l-62.161 155.599c-0.816 2.050-0.564 4.359 0.67 6.183 1.24 1.825 3.291 2.913 5.493 2.913h18.073l-24.237 60.668c-0.816 2.050-0.564 4.359 0.67 6.183 1.24 1.825 3.291 2.913 5.493 2.913h15.824l-69.26 164.363c-0.863 2.057-0.643 4.392 0.591 6.243s3.304 2.966 5.527 2.966h218.948c2.222 0 4.292-1.115 5.527-2.966s1.446-4.187 0.584-6.243zM73.546 255.387l52.362-131.083 52.368 131.083h-104.73zM73.546 325.151l22.565-56.495h59.593l22.565 56.495h-104.724zM26.427 498.731l67.542-160.31h63.86l67.555 160.31h-198.958z"></path>
<path d="M74.276 475.654c-0.73-7.212-7.305-20.654-9.833-25.623-0.412-0.81-1.572-0.81-1.984 0-2.548 4.956-9.13 18.372-9.826 25.663-0.014 0.046-0.014 0.106-0.014 0.146-0.040 0.358-0.053 0.704-0.053 1.035 0 6.018 4.87 10.901 10.887 10.901 6.025 0 10.901-4.877 10.901-10.901 0-0.318-0.020-0.657-0.053-1.002-0.013-0.067-0.020-0.146-0.026-0.219z"></path>
<path d="M104.027 475.654c-0.723-7.212-7.299-20.654-9.826-25.623-0.412-0.81-1.559-0.81-1.984 0-2.548 4.956-9.129 18.372-9.826 25.663-0.013 0.046-0.013 0.106-0.013 0.146-0.040 0.358-0.059 0.704-0.059 1.035 0 6.018 4.877 10.901 10.895 10.901s10.901-4.877 10.901-10.901c0-0.318-0.020-0.657-0.053-1.002-0.020-0.067-0.020-0.146-0.033-0.219z"></path>
<path d="M133.777 475.654c-0.723-7.212-7.299-20.654-9.826-25.623-0.412-0.81-1.566-0.81-1.99 0-2.541 4.956-9.123 18.372-9.826 25.663-0.007 0.046-0.007 0.106-0.013 0.146-0.033 0.358-0.053 0.704-0.053 1.035 0 6.018 4.876 10.901 10.894 10.901s10.901-4.877 10.901-10.901c0-0.318-0.026-0.657-0.053-1.002-0.020-0.067-0.020-0.146-0.033-0.219z"></path>
<path d="M125.278 314.197c6.011 0 10.895-4.87 10.895-10.894 0-0.318-0.026-0.657-0.060-1.009 0-0.073-0.013-0.139-0.013-0.219-0.73-7.212-7.305-20.647-9.833-25.617-0.418-0.81-1.566-0.81-1.984 0-2.555 4.956-9.129 18.365-9.833 25.663-0.007 0.046-0.013 0.099-0.013 0.139-0.033 0.358-0.053 0.71-0.053 1.041-0.007 6.024 4.87 10.894 10.895 10.894z"></path>
<path d="M119.817 242.926c1.612 0.935 3.457 1.512 5.46 1.512 2.382 0 4.571-0.79 6.369-2.090 2.727-1.977 4.525-5.168 4.525-8.804 0-0.319-0.026-0.657-0.060-1.008 0-0.073-0.013-0.139-0.013-0.219-0.73-7.212-7.305-20.648-9.833-25.617-0.418-0.81-1.566-0.81-1.984 0-2.555 4.956-9.129 18.365-9.833 25.663-0.007 0.047-0.013 0.1-0.013 0.139-0.033 0.358-0.053 0.71-0.053 1.042-0.007 4.020 2.196 7.49 5.434 9.381z"></path>
</svg>
