<!-- Generated by IcoMoon.io -->
<svg version="1.1" xmlns="http://www.w3.org/2000/svg" width="199" height="512" viewBox="0 0 199 512">
<title>PawnOnDrone</title>
<path d="M74.032 475.661c-0.73-7.219-7.305-20.654-9.833-25.63-0.418-0.803-1.566-0.803-1.984 0-2.554 4.963-9.13 18.378-9.833 25.671-0.007 0.040-0.007 0.106-0.014 0.139-0.033 0.365-0.053 0.71-0.053 1.035 0 6.024 4.87 10.901 10.901 10.901 6.011 0 10.894-4.87 10.894-10.901 0-0.312-0.020-0.65-0.059-0.995-0.007-0.073-0.020-0.152-0.020-0.219z"></path>
<path d="M103.776 475.661c-0.723-7.219-7.291-20.654-9.82-25.63-0.418-0.803-1.566-0.803-1.984 0-2.555 4.963-9.13 18.378-9.84 25.671 0 0.040-0.013 0.106-0.013 0.139-0.033 0.365-0.053 0.71-0.053 1.035 0 6.024 4.87 10.901 10.901 10.901 6.011 0 10.888-4.87 10.888-10.901 0-0.312-0.026-0.65-0.053-0.995 0-0.073-0.013-0.152-0.026-0.219z"></path>
<path d="M188.258 503.017l-36.028-95.237h9.202c2.196 0 4.26-1.101 5.494-2.913 1.234-1.825 1.48-4.147 0.663-6.183l-62.169-155.607c-1.002-2.522-3.45-4.173-6.157-4.173-2.713 0-5.156 1.652-6.171 4.173l-62.149 155.614c-0.816 2.037-0.564 4.353 0.67 6.183 1.234 1.812 3.297 2.913 5.493 2.913h9.196l-36.028 95.237c-0.77 2.037-0.491 4.326 0.749 6.118 1.24 1.798 3.277 2.867 5.461 2.867h165.566c2.183 0 4.226-1.062 5.46-2.866 1.234-1.791 1.519-4.087 0.743-6.124zM99.264 263.431l52.369 131.085h-104.738l52.369-131.085zM26.088 498.731l34.402-90.944h77.555l34.409 90.944h-146.365z"></path>
<path d="M98.634 383.568c6.011 0 10.901-4.877 10.901-10.901 0-0.318-0.026-0.663-0.053-1.009-0.013-0.073-0.013-0.139-0.026-0.219-0.723-7.205-7.299-20.647-9.84-25.618-0.404-0.81-1.566-0.81-1.984 0-2.541 4.957-9.123 18.365-9.826 25.663-0.013 0.046-0.020 0.099-0.020 0.146-0.033 0.365-0.053 0.704-0.053 1.035 0.007 6.018 4.883 10.901 10.901 10.901z"></path>
</svg>
