<!-- Generated by IcoMoon.io -->
<svg version="1.1" xmlns="http://www.w3.org/2000/svg" width="252" height="512" viewBox="0 0 252 512">
<title>PawnOnQueen</title>
<path d="M52.242 475.847c0-0.040 0-0.106 0.014-0.139 0.697-7.298 7.285-20.707 9.826-25.67 0.411-0.803 1.572-0.803 1.991 0 2.528 4.976 9.097 18.411 9.826 25.63 0.007 0.067 0.013 0.139 0.020 0.219 0.033 0.351 0.053 0.69 0.053 1.009 0 6.011-4.87 10.887-10.901 10.887-6.011 0-10.888-4.87-10.888-10.887 0.007-0.339 0.020-0.69 0.059-1.048z"></path>
<path d="M81.986 475.847c0.007-0.040 0.007-0.106 0.020-0.139 0.697-7.298 7.285-20.707 9.826-25.67 0.418-0.803 1.573-0.803 1.984 0 2.534 4.976 9.103 18.411 9.826 25.63 0.013 0.067 0.013 0.139 0.026 0.219 0.033 0.351 0.053 0.69 0.053 1.009 0 6.011-4.876 10.887-10.901 10.887-6.011 0-10.895-4.87-10.895-10.887 0.013-0.339 0.033-0.69 0.059-1.048z"></path>
<path d="M111.743 475.847c0.007-0.040 0.007-0.106 0.013-0.139 0.704-7.298 7.291-20.707 9.826-25.67 0.418-0.803 1.579-0.803 1.99 0 2.534 4.976 9.103 18.411 9.826 25.63 0.013 0.067 0.013 0.139 0.026 0.219 0.026 0.351 0.053 0.69 0.053 1.009 0 6.011-4.876 10.887-10.901 10.887-6.011 0-10.895-4.87-10.895-10.887 0.007-0.339 0.026-0.69 0.059-1.048z"></path>
<path d="M241.128 502.784l-63.448-150.583h10.018c2.202 0 4.26-1.088 5.494-2.913 1.234-1.812 1.486-4.134 0.67-6.183l-62.161-155.599c-1.002-2.521-3.45-4.173-6.163-4.173s-5.155 1.652-6.163 4.173l-62.161 155.599c-0.816 2.050-0.564 4.365 0.67 6.183 1.24 1.825 3.291 2.913 5.493 2.913h10.025l-63.455 150.583c-0.863 2.063-0.643 4.392 0.591 6.243s3.304 2.966 5.527 2.966h218.948c2.222 0 4.292-1.115 5.527-2.966s1.453-4.18 0.59-6.243zM73.168 338.932l52.362-131.077 52.369 131.077h-104.73zM26.061 498.731l61.737-146.529h75.484l61.737 146.529h-198.958z"></path>
<path d="M114.052 316.048c0-0.053 0.007-0.106 0.013-0.139 0.704-7.298 7.285-20.707 9.833-25.67 0.418-0.803 1.566-0.803 1.984 0 2.535 4.976 9.103 18.411 9.833 25.63 0 0.067 0.013 0.139 0.013 0.219 0.026 0.351 0.060 0.69 0.060 0.995 0 6.024-4.876 10.901-10.894 10.901-6.025 0-10.901-4.87-10.901-10.901 0.013-0.325 0.033-0.676 0.059-1.035z"></path>
</svg>
