<!-- Generated by IcoMoon.io -->
<svg version="1.1" xmlns="http://www.w3.org/2000/svg" width="252" height="512" viewBox="0 0 252 512">
<title>PawnOnQueenOnQueen</title>
<path d="M119.817 242.926c1.612 0.935 3.457 1.512 5.46 1.512 2.382 0 4.571-0.79 6.369-2.090 2.727-1.977 4.525-5.168 4.525-8.804 0-0.319-0.026-0.657-0.060-1.008 0-0.073-0.013-0.139-0.013-0.219-0.73-7.212-7.305-20.648-9.833-25.617-0.418-0.81-1.566-0.81-1.984 0-2.555 4.956-9.129 18.365-9.833 25.663-0.007 0.047-0.013 0.1-0.013 0.139-0.033 0.358-0.053 0.71-0.053 1.042-0.007 4.020 2.196 7.49 5.434 9.381z"></path>
<path d="M63.449 418.217c6.024 0 10.901-4.877 10.901-10.901 0-0.318-0.020-0.657-0.053-1.002-0.007-0.073-0.013-0.146-0.020-0.219-0.332-3.257-1.865-7.783-3.669-12.228-2.189-5.394-4.777-10.668-6.163-13.402-0.412-0.81-1.572-0.81-1.984 0-2.548 4.956-9.13 18.372-9.826 25.663-0.014 0.046-0.014 0.106-0.014 0.146-0.040 0.358-0.053 0.704-0.053 1.035 0 5.002 3.383 9.176 7.975 10.45 0.929 0.279 1.891 0.458 2.906 0.458z"></path>
<path d="M93.206 418.217c6.018 0 10.901-4.877 10.901-10.901 0-0.318-0.020-0.657-0.053-1.002-0.013-0.073-0.013-0.146-0.026-0.219-0.723-7.212-7.299-20.654-9.826-25.623-0.412-0.81-1.559-0.81-1.984 0-2.548 4.956-9.129 18.372-9.826 25.663-0.013 0.046-0.013 0.106-0.013 0.146-0.040 0.358-0.059 0.704-0.059 1.035-0.007 6.024 4.877 10.901 10.888 10.901z"></path>
<path d="M122.956 418.217c6.018 0 10.901-4.877 10.901-10.901 0-0.318-0.026-0.657-0.053-1.002-0.013-0.073-0.013-0.146-0.026-0.219-0.723-7.212-7.299-20.654-9.826-25.623-0.412-0.81-1.566-0.81-1.99 0-2.541 4.956-9.123 18.372-9.826 25.663-0.007 0.046-0.007 0.106-0.013 0.146-0.033 0.358-0.053 0.704-0.053 1.035 0 6.024 4.876 10.901 10.888 10.901z"></path>
<path d="M216.062 442.441h19.314c2.222 0 4.292-1.115 5.527-2.966s1.453-4.193 0.59-6.243l-69.34-164.576h15.91c2.202 0 4.26-1.088 5.494-2.913 1.234-1.818 1.486-4.134 0.67-6.183l-62.161-155.599c-1.002-2.521-3.45-4.174-6.163-4.174s-5.155 1.652-6.163 4.174l-62.148 155.599c-0.816 2.050-0.564 4.359 0.67 6.183 1.24 1.825 3.291 2.913 5.493 2.913h15.904l-69.34 164.57c-0.863 2.057-0.643 4.392 0.591 6.243s3.304 2.966 5.527 2.966h19.314l-25.431 60.35c-0.863 2.057-0.643 4.392 0.591 6.243s3.304 2.966 5.527 2.966h218.948c2.222 0 4.292-1.115 5.527-2.966s1.453-4.193 0.59-6.243l-25.438-60.344zM73.546 255.387l52.362-131.083 52.368 131.083h-104.73zM26.427 429.171l67.629-160.509h63.694l67.635 160.509h-198.958zM26.427 498.731l23.72-56.289h151.512l23.72 56.289h-198.951z"></path>
<path d="M74.276 475.654c-0.73-7.212-7.305-20.654-9.833-25.623-0.412-0.81-1.572-0.81-1.984 0-2.548 4.956-9.13 18.372-9.826 25.663-0.014 0.046-0.014 0.106-0.014 0.146-0.040 0.358-0.053 0.704-0.053 1.035 0 6.018 4.87 10.901 10.887 10.901 6.025 0 10.901-4.877 10.901-10.901 0-0.318-0.020-0.657-0.053-1.002-0.013-0.067-0.020-0.146-0.026-0.219z"></path>
<path d="M104.027 475.654c-0.723-7.212-7.299-20.654-9.826-25.623-0.412-0.81-1.559-0.81-1.984 0-2.548 4.956-9.129 18.372-9.826 25.663-0.013 0.046-0.013 0.106-0.013 0.146-0.040 0.358-0.059 0.704-0.059 1.035 0 6.018 4.877 10.901 10.895 10.901s10.901-4.877 10.901-10.901c0-0.318-0.020-0.657-0.053-1.002-0.020-0.067-0.020-0.146-0.033-0.219z"></path>
<path d="M133.777 475.654c-0.723-7.212-7.299-20.654-9.826-25.623-0.412-0.81-1.566-0.81-1.99 0-2.541 4.956-9.123 18.372-9.826 25.663-0.007 0.046-0.007 0.106-0.013 0.146-0.033 0.358-0.053 0.704-0.053 1.035 0 6.018 4.876 10.901 10.894 10.901s10.901-4.877 10.901-10.901c0-0.318-0.026-0.657-0.053-1.002-0.020-0.067-0.020-0.146-0.033-0.219z"></path>
</svg>
