<!-- Generated by IcoMoon.io -->
<svg version="1.1" xmlns="http://www.w3.org/2000/svg" width="199" height="512" viewBox="0 0 199 512">
<title>PawnOnDroneOnDrone</title>
<path d="M82.1 407.315c0 6.024 4.87 10.901 10.901 10.901 6.011 0 10.888-4.87 10.888-10.901 0-0.159-0.020-0.345-0.026-0.517 0-0.093 0.026-0.173 0.026-0.265 0-0.325-0.026-0.663-0.053-1.009-0.013-0.079-0.013-0.139-0.026-0.219-0.723-7.219-7.299-20.654-9.826-25.618-0.412-0.816-1.573-0.816-1.984 0-2.548 4.95-9.129 18.365-9.826 25.657-0.013 0.053-0.013 0.106-0.013 0.139-0.040 0.365-0.059 0.71-0.059 1.048 0 0.099 0.026 0.186 0.026 0.279-0.013 0.166-0.026 0.345-0.026 0.505z"></path>
<path d="M98.667 313.995c6.011 0 10.901-4.877 10.901-10.901 0-0.318-0.026-0.663-0.053-1.009-0.013-0.073-0.013-0.139-0.026-0.219-0.723-7.205-7.299-20.647-9.84-25.618-0.404-0.81-1.566-0.81-1.984 0-2.541 4.957-9.123 18.365-9.826 25.663-0.013 0.046-0.020 0.099-0.020 0.146-0.033 0.365-0.053 0.704-0.053 1.035 0.007 6.024 4.883 10.901 10.901 10.901z"></path>
<path d="M188.291 504.821l-23.6-62.387h17.39c2.183 0 4.226-1.062 5.46-2.866 0.935-1.347 1.321-2.979 1.128-4.565 0-0.796-0.1-1.586-0.385-2.349l-35.722-94.434h8.898c2.196 0 4.26-1.101 5.494-2.913 1.234-1.825 1.48-4.147 0.663-6.183l-62.169-155.607c-1.002-2.522-3.45-4.173-6.157-4.173-2.713 0-5.156 1.652-6.171 4.173l-62.149 155.601c-0.816 2.037-0.564 4.353 0.67 6.183 1.234 1.812 3.297 2.913 5.493 2.913h8.898l-35.729 94.441c-0.385 1.022-0.511 2.103-0.378 3.165 0 1.32 0.358 2.634 1.128 3.748 1.241 1.798 3.277 2.866 5.46 2.866h17.39l-23.6 62.387c-0.77 2.037-0.491 4.326 0.749 6.118 1.24 1.798 3.277 2.866 5.454 2.866h165.573c2.176 0 4.22-1.062 5.454-2.866 1.248-1.791 1.526-4.080 0.756-6.118zM172.175 428.368h-145.755l34.103-90.148h77.555l34.096 90.148zM46.928 324.95l52.369-131.085 52.369 131.085h-104.738zM26.115 500.529l21.982-58.101h102.41l21.982 58.101h-146.372z"></path>
<path d="M52.395 405.477c-0.033 0.365-0.053 0.71-0.053 1.048 0 0.079 0.026 0.139 0.033 0.219-0.014 0.192-0.026 0.392-0.026 0.57 0 6.024 4.87 10.901 10.901 10.901 6.011 0 10.894-4.87 10.894-10.901 0-0.159-0.020-0.345-0.026-0.517 0-0.093 0.026-0.173 0.026-0.265 0-0.325-0.020-0.663-0.053-1.009-0.013-0.079-0.013-0.139-0.026-0.219-0.438-4.379-3.046-11.053-5.587-16.74-1.632-3.669-3.251-6.933-4.246-8.877-0.411-0.816-1.559-0.816-1.984 0-2.548 4.95-9.13 18.365-9.826 25.657-0.020 0.046-0.020 0.093-0.026 0.132z"></path>
<path d="M74.058 477.466c-0.723-7.219-7.299-20.654-9.826-25.618-0.411-0.816-1.559-0.816-1.984 0-2.548 4.95-9.13 18.365-9.826 25.657-0.014 0.053-0.014 0.106-0.020 0.139-0.033 0.365-0.053 0.71-0.053 1.048 0 6.011 4.877 10.888 10.895 10.888s10.901-4.87 10.901-10.888c0-0.325-0.020-0.663-0.053-1.009-0.020-0.079-0.020-0.139-0.033-0.219z"></path>
<path d="M103.809 477.466c-0.723-7.219-7.299-20.654-9.826-25.618-0.412-0.816-1.573-0.816-1.984 0-2.548 4.95-9.129 18.365-9.826 25.657-0.013 0.053-0.013 0.106-0.013 0.139-0.040 0.365-0.059 0.71-0.059 1.048 0 6.011 4.877 10.888 10.895 10.888s10.901-4.87 10.901-10.888c0-0.325-0.026-0.663-0.053-1.009-0.020-0.079-0.020-0.139-0.033-0.219z"></path>
</svg>
