<!-- Generated by IcoMoon.io -->
<svg version="1.1" xmlns="http://www.w3.org/2000/svg" width="252" height="512" viewBox="0 0 252 512">
<title>PawnOnQueenOnPawn</title>
<path d="M241.393 502.997l-63.535-150.796h9.833c2.202 0 4.26-1.088 5.494-2.913 1.234-1.812 1.486-4.134 0.67-6.183l-62.161-155.599c-1.002-2.521-3.45-4.173-6.163-4.173s-5.155 1.652-6.163 4.173l-62.154 155.599c-0.816 2.050-0.564 4.365 0.67 6.183 1.24 1.825 3.291 2.913 5.493 2.913h10.516l-63.541 150.796c-0.842 2.010-0.63 4.286 0.57 6.104s3.231 2.906 5.407 2.906h219.074c2.176 0 4.207-1.088 5.407-2.906s1.433-4.101 0.584-6.104zM73.168 338.932l52.362-131.077 52.369 131.077h-104.73zM212.996 499.022h-27.846l-52.919-124.13c-1.015-2.382-3.37-3.947-5.965-3.947s-4.95 1.559-5.965 3.947l-25.969 60.921h14.106l17.828-41.832 44.765 105.036-144.93 0.007 61.87-146.821h75.809l61.863 146.821h-12.646z"></path>
<path d="M74.21 475.788c-0.412-4.027-2.634-9.959-4.963-15.313-1.844-4.247-3.748-8.121-4.877-10.324-0.418-0.822-1.572-0.822-1.99-0.014-2.541 4.963-9.13 18.385-9.833 25.683-0.007 0.053-0.007 0.087-0.014 0.139-0.033 0.372-0.053 0.723-0.053 1.055 0 4.113 2.316 7.663 5.679 9.514 1.553 0.849 3.318 1.38 5.221 1.38 6.018 0 10.895-4.877 10.895-10.894 0-0.318-0.013-0.663-0.046-1.015-0.007-0.079-0.013-0.132-0.020-0.212z"></path>
<path d="M92.15 450.144c-2.541 4.963-9.13 18.385-9.833 25.683-0.007 0.053-0.013 0.087-0.013 0.139-0.033 0.372-0.053 0.723-0.053 1.055 0 3.742 1.891 7.053 4.77 9.003 1.751 1.195 3.855 1.885 6.124 1.885 6.018 0 10.901-4.877 10.901-10.894 0-0.318-0.020-0.663-0.053-1.015-0.007-0.079-0.013-0.139-0.020-0.212-0.438-4.346-2.999-10.934-5.52-16.587-1.659-3.736-3.311-7.066-4.319-9.043-0.404-0.822-1.559-0.822-1.984-0.014z"></path>
<path d="M122.922 487.909c6.025 0 10.901-4.877 10.901-10.894 0-0.318-0.020-0.663-0.060-1.015-0.006-0.079-0.013-0.139-0.020-0.212-0.73-7.226-7.299-20.668-9.826-25.63-0.418-0.822-1.573-0.822-1.99-0.014-2.541 4.963-9.136 18.385-9.833 25.683-0.007 0.053-0.007 0.087-0.013 0.139-0.033 0.372-0.053 0.723-0.053 1.055-0.007 6.011 4.876 10.887 10.894 10.887z"></path>
<path d="M124.9 327.984c6.011 0 10.894-4.87 10.894-10.887 0-0.325-0.026-0.663-0.060-1.009 0-0.079-0.013-0.139-0.013-0.219-0.73-7.219-7.305-20.654-9.833-25.617-0.418-0.816-1.566-0.816-1.984 0-2.555 4.95-9.129 18.365-9.833 25.656-0.007 0.053-0.013 0.106-0.013 0.139-0.033 0.365-0.053 0.71-0.053 1.048 0 6.011 4.87 10.887 10.895 10.887z"></path>
</svg>
