<!-- Generated by IcoMoon.io -->
<svg version="1.1" xmlns="http://www.w3.org/2000/svg" width="252" height="512" viewBox="0 0 252 512">
<title>PawnOnQueenOnDrone</title>
<path d="M240.637 503.017l-63.541-150.815h10.563c2.202 0 4.26-1.088 5.494-2.913 1.234-1.812 1.486-4.134 0.67-6.183l-62.161-155.599c-1.002-2.521-3.45-4.173-6.163-4.173s-5.155 1.652-6.163 4.173l-62.161 155.599c-0.816 2.050-0.564 4.365 0.67 6.183 1.24 1.825 3.291 2.913 5.493 2.913h10.563l-63.548 150.815c-0.842 2.010-0.63 4.286 0.57 6.091 1.201 1.798 3.218 2.893 5.387 2.893h218.377c2.156 0 4.186-1.088 5.381-2.893 1.188-1.805 1.413-4.080 0.571-6.091zM73.129 338.932l52.362-131.077 52.368 131.077h-104.73zM184.566 499.069h-158.518l61.882-146.868h13.203l-35.668 83.857h14.059l35.675-83.857h20.601l62.48 146.868h-13.714zM212.34 499.069l-62.48-146.868h13.19l61.882 146.868h-12.593z"></path>
<path d="M73.998 475.907c-0.412-4.014-2.627-9.925-4.943-15.26-1.838-4.226-3.736-8.094-4.856-10.291-0.418-0.822-1.566-0.822-1.984-0.014-2.535 4.95-9.103 18.325-9.8 25.597-0.007 0.053-0.007 0.093-0.014 0.139-0.033 0.372-0.053 0.723-0.053 1.048 0 4.107 2.309 7.637 5.666 9.488 1.546 0.849 3.304 1.38 5.202 1.38 5.998 0 10.861-4.863 10.861-10.868 0-0.318-0.020-0.657-0.053-1.009-0.013-0.073-0.020-0.139-0.026-0.212z"></path>
<path d="M103.668 475.907c-0.438-4.326-2.993-10.901-5.5-16.527-1.659-3.729-3.297-7.053-4.306-9.017-0.412-0.822-1.559-0.822-1.984-0.014-2.528 4.95-9.103 18.325-9.799 25.597-0.007 0.053-0.013 0.093-0.013 0.139-0.033 0.372-0.053 0.723-0.053 1.048 0 3.736 1.885 7.039 4.757 8.983 1.745 1.188 3.841 1.885 6.104 1.885 5.998 0 10.861-4.863 10.861-10.868 0-0.318-0.020-0.657-0.053-1.009 0-0.079-0.007-0.146-0.013-0.219z"></path>
<path d="M133.346 475.907c-0.73-7.199-7.272-20.594-9.799-25.55-0.418-0.822-1.566-0.822-1.984-0.014-2.534 4.95-9.109 18.325-9.806 25.597 0 0.053 0 0.093-0.007 0.139-0.033 0.372-0.053 0.723-0.053 1.048 0 5.998 4.864 10.868 10.861 10.868 6.005 0 10.861-4.863 10.861-10.868 0-0.318-0.020-0.657-0.053-1.009-0.006-0.073-0.013-0.139-0.020-0.212z"></path>
<path d="M124.86 327.984c5.467 0 9.959-4.041 10.729-9.302 0.079-0.517 0.159-1.035 0.159-1.579 0-0.325-0.026-0.663-0.060-1.009 0-0.079-0.013-0.139-0.013-0.219-0.73-7.219-7.305-20.654-9.833-25.617-0.418-0.816-1.566-0.816-1.984 0-2.555 4.95-9.129 18.365-9.833 25.656-0.007 0.053-0.013 0.106-0.013 0.139-0.033 0.365-0.053 0.71-0.053 1.048 0 1.228 0.252 2.382 0.624 3.483 1.466 4.293 5.487 7.398 10.278 7.398z"></path>
</svg>
