<!-- Generated by IcoMoon.io -->
<svg version="1.1" xmlns="http://www.w3.org/2000/svg" width="201" height="512" viewBox="0 0 201 512">
<title>PawnPointingRight</title>
<path d="M61.253 383.363c2.136-0.464 4.379 0.152 5.972 1.678l121.391 115.513c1.964 1.865 2.594 4.744 1.579 7.272-1.008 2.514-3.457 4.173-6.171 4.173l-167.55-0.093c-2.203 0-4.253-1.088-5.48-2.913-1.248-1.825-1.493-4.134-0.677-6.183l46.178-115.427c0.816-2.050 2.587-3.536 4.757-4.021zM167.431 498.717l-102.257-97.307-38.901 97.228 141.157 0.079z"></path>
<path d="M62.706 469.185c0.053 0.014 0.106 0.026 0.139 0.040 7.053 2.063 21.935 0.935 27.489 0.404 0.909-0.079 1.327-1.154 0.737-1.838-3.683-4.2-13.707-15.293-20.13-18.651-0.079-0.026-0.139-0.067-0.206-0.093-0.325-0.166-0.617-0.325-0.915-0.438-5.587-2.229-11.93 0.491-14.152 6.077-2.242 5.587 0.471 11.936 6.057 14.166 0.312 0.126 0.65 0.226 0.982 0.332z"></path>
</svg>
