<!-- Generated by IcoMoon.io -->
<svg version="1.1" xmlns="http://www.w3.org/2000/svg" width="199" height="512" viewBox="0 0 199 512">
<title>PawnOnDroneOnPawnExpanded</title>
<path d="M188.304 395.551l-48.004-126.905h21.172c2.203 0 4.253-1.088 5.494-2.913 1.234-1.812 1.48-4.134 0.663-6.183l-62.169-155.595c-0.995-2.528-3.45-4.174-6.157-4.174-2.721 0-5.156 1.645-6.171 4.174l-62.149 155.595c-0.816 2.050-0.57 4.365 0.663 6.183 1.248 1.825 3.291 2.913 5.493 2.913h21.185l-48.010 126.905c-0.77 2.037-0.491 4.326 0.749 6.118 1.24 1.798 3.277 2.866 5.454 2.866h53.736l-39.285 98.356c-0.816 2.050-0.57 4.365 0.663 6.183 1.248 1.825 3.291 2.913 5.493 2.913h124.331c2.203 0 4.253-1.088 5.494-2.913 1.234-1.812 1.48-4.134 0.663-6.183l-39.298-98.356h53.775c2.176 0 4.22-1.062 5.454-2.866 1.248-1.785 1.526-4.080 0.756-6.118zM46.941 255.376l52.369-131.078 52.363 131.078h-104.731zM151.66 498.717h-104.731l37.627-94.182h29.486l37.62 94.182zM123.017 391.265h-96.889l46.391-122.613h53.59l46.385 122.613h-49.477z"></path>
<path d="M74.072 368.195c-0.723-7.219-7.299-20.654-9.826-25.618-0.411-0.816-1.559-0.816-1.984 0-2.548 4.95-9.136 18.358-9.833 25.657-0.014 0.053-0.014 0.106-0.020 0.139-0.033 0.365-0.053 0.71-0.053 1.048 0 6.011 4.877 10.888 10.895 10.888s10.901-4.87 10.901-10.888c0-0.325-0.020-0.663-0.053-1.009-0.013-0.073-0.013-0.139-0.026-0.219z"></path>
<path d="M103.823 368.195c-0.644-6.349-5.799-17.51-8.752-23.481-0.404-0.81-0.769-1.539-1.075-2.137-0.412-0.816-1.573-0.816-1.984 0-2.548 4.95-9.13 18.365-9.826 25.657-0.013 0.053-0.013 0.106-0.013 0.139-0.040 0.365-0.059 0.71-0.059 1.048 0 1.307 0.272 2.548 0.69 3.709 1.519 4.18 5.493 7.179 10.198 7.179 0.438 0 0.856-0.079 1.281-0.132 3.384-0.404 6.29-2.322 7.989-5.096 1.015-1.652 1.632-3.583 1.632-5.666 0-0.325-0.026-0.663-0.053-1.009-0.013-0.067-0.013-0.132-0.026-0.212z"></path>
<path d="M98.66 487.769c6.011 0 10.901-4.87 10.901-10.888 0-0.325-0.026-0.663-0.067-1.009 0-0.079-0.013-0.139-0.013-0.219-0.723-7.219-7.299-20.654-9.84-25.618-0.418-0.816-1.566-0.816-1.984 0-2.555 4.95-9.123 18.365-9.833 25.657 0 0.053-0.013 0.106-0.013 0.139-0.026 0.365-0.053 0.71-0.053 1.048 0 6.011 4.87 10.888 10.901 10.888z"></path>
<path d="M98.674 244.429c6.011 0 10.901-4.87 10.901-10.888 0-0.325-0.026-0.663-0.067-1.008 0-0.079-0.013-0.139-0.013-0.219-0.723-7.219-7.299-20.655-9.84-25.618-0.418-0.816-1.566-0.816-1.984 0-2.555 4.95-9.123 18.365-9.833 25.657 0 0.053-0.013 0.106-0.013 0.139-0.026 0.365-0.053 0.71-0.053 1.048 0 6.011 4.87 10.888 10.901 10.888z"></path>
</svg>
