<!-- Generated by IcoMoon.io -->
<svg version="1.1" xmlns="http://www.w3.org/2000/svg" width="201" height="512" viewBox="0 0 201 512">
<title>PawnPointingLeft</title>
<path d="M144.023 387.384l46.179 115.427c0.816 2.050 0.571 4.353-0.677 6.183-1.234 1.825-3.278 2.913-5.481 2.913l-167.564 0.093c-2.713 0-5.155-1.659-6.164-4.173-1.008-2.528-0.385-5.401 1.585-7.272l121.391-115.513c1.593-1.519 3.835-2.143 5.971-1.678 2.169 0.485 3.941 1.971 4.757 4.021zM174.245 498.637l-38.9-97.228-102.263 97.307 141.163-0.079z"></path>
<path d="M137.813 469.185c-0.053 0.014-0.106 0.026-0.139 0.040-7.053 2.063-21.935 0.935-27.489 0.404-0.909-0.079-1.327-1.154-0.737-1.838 3.683-4.2 13.707-15.293 20.13-18.651 0.079-0.026 0.139-0.067 0.206-0.093 0.325-0.166 0.617-0.325 0.916-0.438 5.587-2.229 11.929 0.491 14.152 6.077 2.243 5.587-0.471 11.936-6.058 14.166-0.312 0.126-0.65 0.226-0.982 0.332z"></path>
</svg>
