<!-- Generated by IcoMoon.io -->
<svg version="1.1" xmlns="http://www.w3.org/2000/svg" width="158" height="512" viewBox="0 0 158 512">
<title>PawnOnPawnOnPawn</title>
<path d="M123.024 373.404h17.834c2.203 0 4.26-1.088 5.494-2.913 1.234-1.812 1.486-4.134 0.67-6.183l-62.169-155.601c-1.002-2.522-3.45-4.173-6.164-4.173s-5.156 1.652-6.164 4.173l-62.156 155.601c-0.816 2.050-0.564 4.365 0.67 6.183 1.24 1.825 3.291 2.913 5.493 2.913h17.828l-23.991 60.052c-0.219 0.544-0.345 1.108-0.418 1.678v0.007c-0.093 0.577-0.020 1.154 0.033 1.731 0.1 1.082 0.365 2.137 0.995 3.065 1.241 1.825 3.291 2.913 5.494 2.913h17.828l-23.985 60.052c-0.816 2.050-0.564 4.365 0.67 6.183 1.24 1.825 3.291 2.913 5.493 2.913h124.324c2.203 0 4.26-1.088 5.494-2.913 1.234-1.812 1.486-4.134 0.67-6.183l-23.992-60.052h17.834c2.203 0 4.26-1.088 5.494-2.913 0.631-0.929 0.995-1.99 1.101-3.072v-0.007c0.079-0.55 0.087-1.101 0.033-1.646 0-0.026 0-0.053 0-0.079-0.060-0.564-0.192-1.128-0.418-1.678l-23.999-60.052zM130.893 429.283h-104.493l22.32-55.879h59.846l22.327 55.879zM26.327 360.135l52.362-131.078 52.369 131.078h-104.731zM131.006 498.731h-104.731l22.32-55.879h60.086l22.327 55.879z"></path>
<path d="M88.835 475.661c-0.73-7.219-7.305-20.654-9.84-25.618-0.418-0.816-1.566-0.816-1.984 0-2.555 4.95-9.129 18.365-9.833 25.657-0.007 0.053-0.013 0.106-0.013 0.139-0.033 0.365-0.053 0.71-0.053 1.048 0 6.011 4.87 10.888 10.901 10.888 6.011 0 10.894-4.87 10.894-10.888 0-0.325-0.026-0.663-0.059-1.009 0-0.073-0.013-0.139-0.013-0.219z"></path>
<path d="M78.006 418.634c3.762 0 6.92-2.024 8.851-4.937 0.12-0.159 0.278-0.279 0.391-0.445 0.059-0.099 0.106-0.199 0.159-0.305 0.106-0.166 0.192-0.345 0.285-0.524 0.391-0.796 0.749-1.613 0.942-2.508 0.013-0.053 0.046-0.093 0.059-0.139 0-0.007 0.007-0.014 0.007-0.020 0.007-0.026 0-0.046 0.007-0.073 0.146-0.723 0.246-1.466 0.246-2.229 0-0.325-0.026-0.663-0.059-1.009 0-0.079-0.013-0.139-0.013-0.219-0.73-7.219-7.305-20.654-9.84-25.618-0.418-0.816-1.566-0.816-1.984 0-2.555 4.95-9.129 18.365-9.833 25.657-0.007 0.093-0.040 0.205-0.053 0.298-0.007 0.053-0.013 0.106-0.013 0.139-0.033 0.365-0.053 0.71-0.053 1.048 0.007 6.005 4.877 10.881 10.901 10.881z"></path>
<path d="M78.059 349.187c6.011 0 10.895-4.87 10.895-10.888 0-0.325-0.026-0.663-0.059-1.009 0-0.079-0.013-0.139-0.013-0.219-0.73-7.219-7.305-20.654-9.84-25.618-0.418-0.816-1.566-0.816-1.984 0-2.555 4.95-9.129 18.365-9.833 25.657-0.007 0.053-0.013 0.106-0.013 0.139-0.033 0.365-0.053 0.71-0.053 1.048 0.007 6.018 4.877 10.888 10.901 10.888z"></path>
</svg>
