<!-- Generated by IcoMoon.io -->
<svg version="1.1" xmlns="http://www.w3.org/2000/svg" width="252" height="512" viewBox="0 0 252 512">
<title>PawnOnQueenOnPawnExpanded</title>
<path d="M125.225 487.716c6.011 0 10.894-4.87 10.894-10.894 0-0.318-0.026-0.657-0.060-1.009 0-0.073-0.013-0.139-0.013-0.219-0.73-7.212-7.305-20.647-9.833-25.617-0.418-0.81-1.566-0.81-1.984 0-2.555 4.956-9.129 18.365-9.833 25.663-0.007 0.046-0.013 0.099-0.013 0.139-0.033 0.358-0.053 0.71-0.053 1.041-0.007 6.018 4.87 10.894 10.895 10.894z"></path>
<path d="M241.493 428.986l-67.549-160.329h14.125c2.202 0 4.26-1.088 5.494-2.913 1.234-1.818 1.486-4.134 0.67-6.183l-62.161-155.599c-1.002-2.521-3.45-4.174-6.163-4.174s-5.155 1.652-6.163 4.174l-62.154 155.599c-0.816 2.050-0.564 4.359 0.67 6.183 1.24 1.825 3.291 2.913 5.493 2.913h14.119l-67.555 160.329c-0.863 2.063-0.643 4.392 0.591 6.243s3.304 2.966 5.527 2.966h66.925l-25.823 64.636c-0.816 2.050-0.564 4.359 0.67 6.183 1.24 1.825 3.291 2.913 5.493 2.913h124.316c2.202 0 4.26-1.088 5.494-2.913 1.234-1.818 1.486-4.134 0.67-6.183l-25.822-64.636h67.024c2.222 0 4.292-1.115 5.527-2.966s1.446-4.18 0.584-6.243zM73.546 255.387l52.362-131.083 52.368 131.083h-104.73zM178.217 498.664h-104.724l24.15-60.463h56.416l24.157 60.463zM163.050 424.932h-136.624l65.844-156.276h67.27l65.844 156.276h-62.334z"></path>
<path d="M74.276 401.863c-0.73-7.219-7.305-20.661-9.833-25.637-0.412-0.803-1.572-0.803-1.984 0-2.548 4.963-9.13 18.385-9.826 25.676-0.014 0.040-0.014 0.106-0.014 0.139-0.040 0.365-0.053 0.71-0.053 1.035 0 6.024 4.87 10.901 10.887 10.901 6.025 0 10.901-4.87 10.901-10.901 0-0.312-0.020-0.65-0.053-0.995-0.013-0.073-0.020-0.152-0.026-0.219z"></path>
<path d="M133.777 401.863c-0.723-7.219-7.299-20.661-9.826-25.637-0.292-0.57-0.895-0.584-1.406-0.351-0.213 0.106-0.458 0.12-0.577 0.351-2.541 4.963-9.123 18.385-9.826 25.676 0 0.014 0 0.033 0 0.046 0 0.033-0.007 0.073-0.007 0.099-0.033 0.365-0.053 0.71-0.053 1.035 0 6.024 4.877 10.901 10.895 10.901s10.901-4.87 10.901-10.901c0-0.312-0.026-0.65-0.053-0.995-0.033-0.079-0.033-0.159-0.047-0.226z"></path>
<path d="M104.027 401.863c-0.252-2.514-1.234-5.786-2.488-9.189-2.349-6.37-5.692-13.197-7.344-16.447-0.412-0.803-1.559-0.803-1.984 0-2.548 4.963-9.129 18.385-9.826 25.676-0.013 0.040-0.013 0.106-0.013 0.139-0.040 0.365-0.059 0.71-0.059 1.035 0 5.964 4.79 10.788 10.722 10.881 0.059 0.007 0.113 0.020 0.166 0.020 6.018 0 10.901-4.87 10.901-10.901 0-0.312-0.020-0.65-0.053-0.995-0.007-0.073-0.007-0.152-0.020-0.219z"></path>
<path d="M125.278 244.439c6.011 0 10.895-4.87 10.895-10.894 0-0.319-0.026-0.657-0.060-1.008 0-0.073-0.013-0.139-0.013-0.219-0.73-7.212-7.305-20.648-9.833-25.617-0.418-0.81-1.566-0.81-1.984 0-2.555 4.956-9.129 18.365-9.833 25.663-0.007 0.047-0.013 0.1-0.013 0.139-0.033 0.358-0.053 0.71-0.053 1.042-0.007 6.018 4.87 10.894 10.895 10.894z"></path>
</svg>
