<!-- Generated by IcoMoon.io -->
<svg version="1.1" xmlns="http://www.w3.org/2000/svg" width="158" height="512" viewBox="0 0 158 512">
<title>PawnOnPawn</title>
<path d="M122.858 442.553h18c2.203 0 4.26-1.088 5.494-2.913 1.234-1.812 1.486-4.134 0.67-6.183l-62.169-155.595c-1.002-2.528-3.45-4.173-6.164-4.173s-5.156 1.646-6.164 4.173l-62.156 155.595c-0.816 2.050-0.564 4.365 0.67 6.183 1.24 1.825 3.291 2.913 5.493 2.913h17.895l-24.111 60.351c-0.816 2.050-0.564 4.365 0.67 6.183 1.24 1.825 3.291 2.913 5.493 2.913h124.325c2.203 0 4.26-1.088 5.494-2.913 1.234-1.812 1.486-4.134 0.67-6.183l-24.111-60.351zM26.327 429.283l52.362-131.078 52.369 131.078h-104.731zM26.274 498.731l22.439-56.178h59.846l22.446 56.178h-104.731z"></path>
<path d="M88.835 475.661c-0.73-7.219-7.305-20.654-9.84-25.618-0.418-0.816-1.566-0.816-1.984 0-2.555 4.95-9.129 18.365-9.833 25.657-0.007 0.053-0.013 0.106-0.013 0.139-0.033 0.365-0.053 0.71-0.053 1.048 0 6.011 4.87 10.888 10.901 10.888 6.011 0 10.894-4.87 10.894-10.888 0-0.325-0.026-0.663-0.059-1.009 0-0.073-0.013-0.139-0.013-0.219z"></path>
<path d="M78.059 418.336c6.011 0 10.895-4.87 10.895-10.888 0-0.325-0.026-0.663-0.059-1.009 0-0.079-0.013-0.139-0.013-0.219-0.73-7.219-7.305-20.654-9.84-25.618-0.418-0.816-1.566-0.816-1.984 0-2.555 4.95-9.129 18.365-9.833 25.657-0.007 0.053-0.013 0.106-0.013 0.139-0.033 0.365-0.053 0.71-0.053 1.048 0.007 6.011 4.877 10.888 10.901 10.888z"></path>
</svg>
