<!-- Generated by IcoMoon.io -->
<svg version="1.1" xmlns="http://www.w3.org/2000/svg" width="528" height="512" viewBox="0 0 528 512">
<title>PyramidDieSmallLarge</title>
<path d="M209.761 404.851c0 8.235-6.675 14.935-14.935 14.935s-14.948-6.688-14.948-14.935c0-8.247 6.688-14.935 14.948-14.935 8.247 0 14.935 6.688 14.935 14.935z"></path>
<path d="M247.69 404.851c0 8.235-6.688 14.935-14.935 14.935s-14.935-6.688-14.935-14.935c0-8.247 6.688-14.935 14.935-14.935s14.935 6.688 14.935 14.935z"></path>
<path d="M285.619 404.851c0 8.235-6.675 14.935-14.935 14.935s-14.948-6.688-14.948-14.935c0-8.247 6.688-14.935 14.948-14.935s14.935 6.688 14.935 14.935z"></path>
<path d="M334.486 462.87h-205.286c-4.299 0-8.323-2.15-10.698-5.745-2.376-3.583-2.791-8.122-1.106-12.094l103.541-243.327c2.012-4.727 6.663-7.807 11.792-7.807 0.012 0 0.025 0 0.037 0 5.155 0.012 9.793 3.118 11.792 7.87l101.743 243.328c1.647 3.947 1.219 8.486-1.169 12.057-2.339 3.583-6.361 5.72-10.649 5.72zM148.599 437.236h166.627l-82.584-197.516-84.043 197.516z"></path>
<path d="M381.228 512h-358.813c-6.939 0-12.572-5.62-12.572-12.572v-347.322c0-3.546 1.471-6.751 3.835-9.026l123.794-119.835c2.351-2.276 5.482-3.546 8.738-3.546h358.813c6.952 0 12.572 5.632 12.572 12.572v347.322c0 3.407-1.37 6.663-3.835 9.039l-123.794 119.834c-2.25 2.175-5.33 3.533-8.738 3.533zM34.987 486.856h333.668v-322.178h-333.668v322.178zM393.8 157.424v312.322l98.651-95.495v-312.322l-98.651 95.495zM53.48 139.535h322.668l97.809-94.691h-322.656l-97.822 94.691z"></path>
<path d="M109.777 233.697c0-8.247 6.675-14.935 14.936-14.935s14.948 6.675 14.948 14.935-6.688 14.935-14.948 14.935c-8.247 0-14.936-6.688-14.936-14.935z"></path>
<path d="M120.853 354.337c-0.1 0-0.201 0-0.302 0-5.38-0.125-10.108-3.596-11.843-8.687l-49.244-144.953c-1.333-3.923-0.691-8.234 1.722-11.591 2.401-3.357 6.286-5.356 10.422-5.356h106.206c4.237 0 8.209 2.1 10.598 5.607s2.892 7.958 1.333 11.905l-56.963 144.941c-1.923 4.916-6.663 8.134-11.93 8.134zM89.511 209.397l32.222 94.829 37.263-94.829h-69.484z"></path>
</svg>
