<!-- Generated by IcoMoon.io -->
<svg version="1.1" xmlns="http://www.w3.org/2000/svg" width="528" height="512" viewBox="0 0 528 512">
<title>PyramidDieMedium</title>
<path d="M195.391 392.58c0 8.248-6.687 14.935-14.935 14.935s-14.935-6.687-14.935-14.935c0-8.248 6.687-14.935 14.935-14.935s14.935 6.687 14.935 14.935z"></path>
<path d="M126.636 443.622h152.295c4.224 0 8.171-2.075 10.573-5.544 2.376-3.47 2.904-7.92 1.396-11.855l-78.435-204.757c-1.899-4.966-6.663-8.234-11.981-8.234-0.037 0-0.088 0-0.125 0-5.356 0.050-10.12 3.432-11.93 8.474l-73.847 204.757c-1.421 3.935-0.829 8.298 1.572 11.717s6.311 5.443 10.485 5.443zM200.86 262.839l59.44 155.149h-115.397l55.957-155.149z"></path>
<path d="M232.654 392.58c0 8.248-6.687 14.935-14.935 14.935s-14.935-6.687-14.935-14.935c0-8.248 6.687-14.935 14.935-14.935s14.935 6.687 14.935 14.935z"></path>
<path d="M505.022 19.688h-358.813c-3.268 0-6.399 1.27-8.738 3.546l-123.794 119.834c-2.364 2.288-3.835 5.494-3.835 9.026v347.322c0 6.952 5.632 12.572 12.572 12.572h358.813c3.407 0 6.487-1.345 8.738-3.533l123.795-119.834c2.452-2.363 3.835-5.632 3.835-9.039v-347.322c0-6.939-5.62-12.572-12.572-12.572zM368.656 486.856h-333.668v-322.178h333.668v322.178zM376.149 139.535h-322.668l97.822-94.691h322.656l-97.809 94.691zM492.451 374.263l-98.651 95.495v-312.334l98.651-95.496v312.334z"></path>
</svg>
