<!-- Generated by IcoMoon.io -->
<svg version="1.1" xmlns="http://www.w3.org/2000/svg" width="528" height="512" viewBox="0 0 528 512">
<title>PyramidDieSmall</title>
<path d="M381.228 512h-358.813c-6.939 0-12.572-5.62-12.572-12.572v-347.322c0-3.546 1.471-6.751 3.835-9.026l123.794-119.835c2.351-2.276 5.482-3.546 8.738-3.546h358.813c6.952 0 12.572 5.632 12.572 12.572v347.322c0 3.407-1.37 6.663-3.835 9.039l-123.794 119.834c-2.25 2.175-5.33 3.533-8.738 3.533zM34.987 486.856h333.668v-322.178h-333.668v322.178zM393.8 157.424v312.322l98.651-95.495v-312.322l-98.651 95.495zM53.48 139.535h322.668l97.809-94.691h-322.656l-97.822 94.691z"></path>
<path d="M191.708 391.839c0 8.247 6.675 14.935 14.935 14.935s14.948-6.675 14.948-14.935-6.688-14.935-14.948-14.935c-8.26-0.012-14.935 6.688-14.935 14.935z"></path>
<path d="M259.747 441.786h-106.207c-4.136 0-8.021-1.986-10.422-5.356s-3.055-7.669-1.722-11.591l49.244-144.94c1.735-5.091 6.462-8.574 11.843-8.687 5.418-0.315 10.271 3.13 12.232 8.122l56.963 144.94c1.559 3.935 1.043 8.411-1.332 11.906-2.389 3.52-6.349 5.607-10.598 5.607zM171.442 416.152h69.484l-37.263-94.842-32.221 94.842z"></path>
</svg>
