<!-- Generated by IcoMoon.io -->
<svg version="1.1" xmlns="http://www.w3.org/2000/svg" width="528" height="512" viewBox="0 0 528 512">
<title>PyramidDieMediumLarge</title>
<path d="M224.583 418.767c0 8.235-6.675 14.935-14.935 14.935s-14.948-6.688-14.948-14.935c0-8.247 6.688-14.935 14.948-14.935 8.26-0.012 14.935 6.675 14.935 14.935z"></path>
<path d="M262.525 418.767c0 8.235-6.688 14.935-14.935 14.935s-14.935-6.688-14.935-14.935c0-8.247 6.688-14.935 14.935-14.935s14.935 6.675 14.935 14.935z"></path>
<path d="M300.442 418.767c0 8.235-6.675 14.935-14.935 14.935s-14.948-6.688-14.948-14.935c0-8.247 6.688-14.935 14.948-14.935 8.26-0.012 14.935 6.675 14.935 14.935z"></path>
<path d="M349.32 476.786h-205.286c-4.299 0-8.322-2.15-10.698-5.745-2.376-3.583-2.791-8.122-1.107-12.094l103.541-243.327c2.012-4.727 6.663-7.807 11.792-7.807 0.012 0 0.025 0 0.037 0 5.155 0.012 9.793 3.118 11.793 7.87l101.743 243.327c1.647 3.947 1.219 8.486-1.169 12.057-2.351 3.583-6.361 5.72-10.649 5.72zM163.434 451.152h166.627l-82.584-197.516-84.043 197.516z"></path>
<path d="M381.228 512h-358.813c-6.939 0-12.572-5.62-12.572-12.572v-347.322c0-3.546 1.471-6.751 3.835-9.026l123.794-119.835c2.351-2.276 5.482-3.546 8.738-3.546h358.813c6.952 0 12.572 5.632 12.572 12.572v347.322c0 3.407-1.37 6.663-3.835 9.039l-123.794 119.834c-2.25 2.175-5.33 3.533-8.738 3.533zM34.987 486.856h333.668v-322.178h-333.668v322.178zM393.8 157.424v312.322l98.651-95.495v-312.322l-98.651 95.495zM53.48 139.535h322.668l97.809-94.691h-322.656l-97.822 94.691z"></path>
<path d="M129.93 234.314c0-8.247-6.688-14.935-14.936-14.935s-14.936 6.688-14.936 14.935 6.688 14.935 14.936 14.935 14.936-6.688 14.936-14.935z"></path>
<path d="M135.022 413.651c-0.037 0-0.088 0-0.125 0-5.356-0.050-10.12-3.42-11.93-8.474l-73.859-204.744c-1.42-3.935-0.83-8.31 1.572-11.73s6.311-5.456 10.485-5.456h152.308c4.224 0 8.172 2.087 10.56 5.556 2.388 3.482 2.917 7.907 1.408 11.855l-78.448 204.77c-1.886 4.966-6.65 8.222-11.969 8.222zM79.416 208.906l55.969 155.149 59.452-155.149h-115.422z"></path>
<path d="M167.205 234.314c0-8.247-6.688-14.935-14.935-14.935-8.26 0-14.935 6.688-14.935 14.935s6.675 14.935 14.935 14.935c8.247-0.012 14.935-6.688 14.935-14.935z"></path>
</svg>
