<!-- Generated by IcoMoon.io -->
<svg version="1.1" xmlns="http://www.w3.org/2000/svg" width="252" height="512" viewBox="0 0 252 512">
<title>QueenOnQueenOnDroneExpanded</title>
<path d="M89.795 487.716c6.018 0 10.901-4.87 10.901-10.894 0-0.318-0.020-0.657-0.053-1.009-0.013-0.073-0.013-0.139-0.026-0.219-0.723-7.212-7.299-20.647-9.826-25.617-0.412-0.81-1.559-0.81-1.984 0-2.548 4.956-9.129 18.365-9.826 25.663-0.013 0.046-0.013 0.099-0.020 0.139-0.033 0.358-0.053 0.71-0.053 1.041 0 6.018 4.877 10.894 10.888 10.894z"></path>
<path d="M119.552 487.716c6.018 0 10.901-4.87 10.901-10.894 0-0.318-0.026-0.657-0.053-1.009-0.013-0.073-0.013-0.139-0.026-0.219-0.723-7.212-7.299-20.647-9.826-25.617-0.412-0.81-1.573-0.81-1.984 0-2.548 4.956-9.129 18.365-9.826 25.663-0.013 0.046-0.013 0.099-0.013 0.139-0.040 0.358-0.059 0.71-0.059 1.041-0.007 6.018 4.87 10.894 10.888 10.894z"></path>
<path d="M216.062 372.875h19.314c2.222 0 4.292-1.115 5.527-2.966s1.453-4.187 0.59-6.243l-109.474-259.818c-1.035-2.462-3.45-4.061-6.118-4.061s-5.082 1.599-6.118 4.061l-109.474 259.818c-0.863 2.063-0.643 4.392 0.591 6.243s3.311 2.966 5.534 2.966h19.314l-25.431 60.35c-0.863 2.063-0.643 4.392 0.591 6.243s3.304 2.966 5.527 2.966h43.332l-22.897 60.516c-0.77 2.037-0.491 4.319 0.749 6.118s3.278 2.866 5.454 2.866h165.565c2.176 0 4.22-1.068 5.454-2.866 1.248-1.798 1.519-4.080 0.75-6.118l-22.89-60.516h43.424c2.222 0 4.292-1.115 5.527-2.966s1.453-4.187 0.59-6.243l-25.431-60.35zM26.427 359.606l99.475-236.099 99.482 236.099h-198.958zM199.037 498.664h-146.363l21.271-56.23h103.814l21.278 56.23zM186.935 429.171h-160.502l23.712-56.296h151.518l23.72 56.289h-38.448z"></path>
<path d="M104.027 406.102c-0.591-5.865-5.010-15.771-8.015-21.974-0.69-1.433-1.34-2.727-1.811-3.663-0.412-0.803-1.559-0.803-1.984 0-2.548 4.963-9.129 18.378-9.826 25.67-0.013 0.040-0.013 0.106-0.013 0.139-0.040 0.365-0.059 0.71-0.059 1.035 0 2.555 0.909 4.863 2.376 6.721 1.997 2.528 5.049 4.18 8.513 4.18 6.018 0 10.901-4.87 10.901-10.901 0-0.312-0.020-0.65-0.053-0.995-0.013-0.073-0.013-0.146-0.026-0.212z"></path>
<path d="M133.777 406.102c-0.723-7.219-7.299-20.654-9.826-25.63-0.412-0.803-1.566-0.803-1.99 0-2.541 4.963-9.123 18.378-9.826 25.67-0.007 0.040-0.007 0.106-0.013 0.139-0.033 0.365-0.053 0.71-0.053 1.035 0 6.024 4.876 10.901 10.894 10.901s10.901-4.87 10.901-10.901c0-0.312-0.026-0.65-0.053-0.995-0.020-0.079-0.020-0.152-0.033-0.219z"></path>
<path d="M74.276 406.102c-0.040-0.418-0.166-0.929-0.246-1.387-1.3-7.438-7.206-19.56-9.588-24.243-0.412-0.803-1.572-0.803-1.984 0-2.548 4.963-9.13 18.378-9.826 25.67-0.014 0.040-0.014 0.106-0.014 0.139-0.040 0.365-0.053 0.71-0.053 1.035 0 6.024 4.87 10.901 10.887 10.901 2.316 0 4.445-0.723 6.21-1.957 2.826-1.964 4.691-5.228 4.691-8.944 0-0.312-0.020-0.65-0.053-0.995-0.013-0.079-0.020-0.152-0.026-0.219z"></path>
<path d="M60.542 348.207c0.935 0.259 1.898 0.445 2.913 0.445 6.025 0 10.901-4.87 10.901-10.901 0-0.312-0.020-0.65-0.053-0.995-0.007-0.079-0.013-0.152-0.020-0.219-0.332-3.257-1.865-7.783-3.669-12.228-2.189-5.394-4.777-10.675-6.163-13.409-0.412-0.803-1.572-0.803-1.984 0-2.548 4.963-9.13 18.378-9.826 25.67-0.014 0.040-0.014 0.106-0.014 0.139-0.040 0.365-0.053 0.71-0.053 1.035-0.007 5.022 3.377 9.189 7.968 10.463z"></path>
<path d="M93.206 348.658c0.723 0 1.427-0.079 2.11-0.212 5.010-0.982 8.784-5.387 8.784-10.682 0-0.312-0.020-0.65-0.053-0.995-0.013-0.079-0.013-0.152-0.026-0.219-0.192-1.911-0.809-4.273-1.639-6.781-2.296-6.973-6.329-15.187-8.188-18.849-0.412-0.803-1.559-0.803-1.984 0-2.548 4.963-9.13 18.378-9.826 25.67-0.013 0.040-0.013 0.106-0.013 0.139-0.040 0.365-0.059 0.71-0.059 1.035 0 6.018 4.883 10.894 10.895 10.894z"></path>
<path d="M122.956 348.658c6.018 0 10.901-4.87 10.901-10.901 0-0.312-0.026-0.65-0.053-0.995-0.013-0.079-0.013-0.152-0.026-0.219-0.723-7.219-7.299-20.654-9.826-25.63-0.040-0.087-0.139-0.060-0.199-0.126-0.491-0.577-1.413-0.597-1.791 0.126-2.541 4.963-9.123 18.378-9.826 25.67-0.007 0.040-0.007 0.106-0.013 0.139-0.033 0.365-0.053 0.71-0.053 1.035 0 0.976 0.172 1.918 0.418 2.82 1.248 4.651 5.441 8.081 10.469 8.081z"></path>
</svg>
