<!-- Generated by IcoMoon.io -->
<svg version="1.1" xmlns="http://www.w3.org/2000/svg" width="252" height="512" viewBox="0 0 252 512">
<title>QueenOnQueenOnQueen</title>
<path d="M63.355 347.902c6.024 0 10.901-4.883 10.901-10.901 0-0.318-0.020-0.657-0.053-1.002-0.007-0.073-0.013-0.146-0.020-0.219-0.319-3.132-1.758-7.438-3.463-11.724-2.23-5.573-4.936-11.094-6.37-13.906-0.411-0.81-1.572-0.81-1.984 0-0.325 0.637-0.723 1.42-1.161 2.303-2.163 4.359-5.42 11.346-7.285 17.284-0.697 2.236-1.214 4.332-1.38 6.077-0.014 0.046-0.014 0.106-0.014 0.146-0.040 0.358-0.053 0.704-0.053 1.035 0 5.128 3.563 9.421 8.34 10.576 0.816 0.199 1.659 0.332 2.541 0.332z"></path>
<path d="M122.863 347.902c6.018 0 10.901-4.883 10.901-10.901 0-0.318-0.026-0.657-0.053-1.002-0.013-0.073-0.013-0.146-0.026-0.219-0.723-7.212-7.299-20.654-9.826-25.623-0.412-0.81-1.566-0.81-1.99 0-2.541 4.956-9.123 18.372-9.826 25.663-0.007 0.046-0.007 0.106-0.013 0.146-0.033 0.358-0.053 0.704-0.053 1.035-0.007 6.011 4.87 10.901 10.888 10.901z"></path>
<path d="M63.449 418.217c6.024 0 10.901-4.883 10.901-10.901 0-0.325-0.020-0.663-0.053-1.009-0.007-0.067-0.013-0.139-0.020-0.219-0.332-3.277-1.891-7.862-3.716-12.334-2.183-5.361-4.737-10.582-6.118-13.283-0.412-0.816-1.572-0.816-1.984 0-2.548 4.95-9.13 18.365-9.826 25.656-0.014 0.053-0.014 0.106-0.014 0.152-0.040 0.351-0.053 0.697-0.053 1.035 0 4.963 3.344 9.116 7.882 10.423 0.962 0.286 1.958 0.478 2.999 0.478z"></path>
<path d="M93.206 418.217c6.018 0 10.901-4.883 10.901-10.901 0-0.325-0.020-0.663-0.053-1.009-0.013-0.067-0.013-0.139-0.026-0.219-0.723-7.205-7.299-20.654-9.826-25.617-0.412-0.816-1.559-0.816-1.984 0-2.548 4.95-9.129 18.365-9.826 25.656-0.013 0.053-0.013 0.106-0.013 0.152-0.040 0.351-0.059 0.697-0.059 1.035-0.007 6.018 4.877 10.901 10.888 10.901z"></path>
<path d="M122.956 418.217c6.018 0 10.901-4.883 10.901-10.901 0-0.325-0.026-0.663-0.053-1.009-0.013-0.067-0.013-0.139-0.026-0.219-0.723-7.205-7.299-20.654-9.826-25.617-0.412-0.816-1.566-0.816-1.99 0-2.541 4.95-9.123 18.365-9.826 25.656-0.007 0.053-0.007 0.106-0.013 0.152-0.033 0.351-0.053 0.697-0.053 1.035 0 6.018 4.876 10.901 10.888 10.901z"></path>
<path d="M215.976 442.441h19.407c2.222 0 4.292-1.115 5.527-2.966s1.453-4.2 0.59-6.243l-25.743-61.106h19.526c2.222 0 4.292-1.115 5.527-2.966s1.453-4.2 0.59-6.243l-109.474-259.818c-1.035-2.462-3.45-4.061-6.118-4.061s-5.082 1.599-6.118 4.061l-109.474 259.818c-0.863 2.050-0.643 4.392 0.591 6.243s3.304 2.966 5.527 2.966h19.725l-25.743 61.106c-0.863 2.050-0.643 4.392 0.591 6.243s3.304 2.966 5.527 2.966h19.214l-25.431 60.344c-0.863 2.050-0.643 4.392 0.591 6.243s3.304 2.966 5.527 2.966h218.948c2.222 0 4.292-1.115 5.527-2.966s1.453-4.2 0.59-6.243l-25.424-60.344zM26.334 358.849l99.475-236.099 99.475 236.099h-198.951zM26.427 429.171l24.038-57.053h150.882l24.038 57.053h-198.958zM26.334 498.731l23.719-56.289h151.512l23.72 56.289h-198.951z"></path>
<path d="M90.081 347.418c0.969 0.286 1.971 0.478 3.025 0.478 6.018 0 10.901-4.883 10.901-10.901 0-0.318-0.020-0.657-0.053-1.002-0.013-0.073-0.013-0.146-0.026-0.219-0.332-3.291-1.897-7.882-3.729-12.374-2.176-5.348-4.724-10.55-6.104-13.25-0.412-0.81-1.559-0.81-1.984 0-2.548 4.956-9.13 18.372-9.826 25.663-0.013 0.046-0.013 0.106-0.013 0.152-0.040 0.358-0.059 0.704-0.059 1.035 0.007 4.956 3.338 9.096 7.869 10.416z"></path>
<path d="M74.183 475.648c-0.73-7.205-7.305-20.654-9.833-25.617-0.411-0.816-1.572-0.816-1.984 0-2.548 4.95-9.13 18.365-9.826 25.656-0.014 0.053-0.014 0.106-0.014 0.152-0.040 0.351-0.053 0.697-0.053 1.035 0 6.011 4.87 10.901 10.887 10.901 6.025 0 10.901-4.883 10.901-10.901 0-0.325-0.020-0.663-0.053-1.009-0.013-0.060-0.020-0.139-0.026-0.219z"></path>
<path d="M103.927 475.648c-0.723-7.205-7.299-20.654-9.826-25.617-0.412-0.816-1.559-0.816-1.984 0-2.548 4.95-9.129 18.365-9.826 25.656-0.020 0.053-0.020 0.106-0.020 0.159-0.040 0.351-0.059 0.697-0.059 1.035 0 6.011 4.876 10.901 10.894 10.901s10.901-4.883 10.901-10.901c0-0.325-0.020-0.663-0.053-1.009-0.013-0.067-0.013-0.146-0.026-0.226z"></path>
<path d="M133.678 475.648c-0.723-7.205-7.299-20.654-9.826-25.617-0.412-0.816-1.566-0.816-1.99 0-2.541 4.95-9.123 18.365-9.826 25.656-0.007 0.053-0.007 0.106-0.013 0.152-0.033 0.351-0.053 0.697-0.053 1.035 0 6.011 4.876 10.901 10.894 10.901s10.901-4.883 10.901-10.901c0-0.325-0.026-0.663-0.053-1.009-0.020-0.060-0.020-0.139-0.033-0.219z"></path>
</svg>
