<!-- Generated by IcoMoon.io -->
<svg version="1.1" xmlns="http://www.w3.org/2000/svg" width="252" height="512" viewBox="0 0 252 512">
<title>QueenOnQueenOnPawnExpanded</title>
<path d="M216.062 372.868h19.314c2.222 0 4.292-1.115 5.527-2.966s1.453-4.187 0.59-6.243l-109.474-259.812c-1.035-2.462-3.45-4.061-6.118-4.061s-5.082 1.599-6.118 4.061l-109.474 259.812c-0.863 2.063-0.643 4.392 0.591 6.243s3.304 2.966 5.527 2.966h19.314l-25.431 60.356c-0.863 2.063-0.643 4.392 0.591 6.243s3.304 2.966 5.527 2.966h65.233l-24.13 60.403c-0.816 2.050-0.564 4.359 0.67 6.183 1.24 1.825 3.291 2.913 5.493 2.913h124.316c2.202 0 4.26-1.088 5.494-2.913 1.234-1.818 1.486-4.134 0.67-6.183l-24.131-60.403h65.333c2.222 0 4.292-1.115 5.527-2.966s1.453-4.187 0.59-6.243l-25.431-60.356zM26.427 359.599l99.475-236.093 99.482 236.093h-198.958zM178.217 498.664h-104.724l22.459-56.23h59.799l22.465 56.23zM164.749 429.171h-138.322l23.719-56.296h151.505l23.72 56.296h-60.622z"></path>
<path d="M74.276 406.102c-0.73-7.219-7.305-20.654-9.833-25.63-0.412-0.803-1.572-0.803-1.984 0-2.548 4.963-9.13 18.378-9.826 25.67-0.014 0.040-0.014 0.106-0.014 0.139-0.040 0.365-0.053 0.71-0.053 1.035 0 6.024 4.87 10.901 10.887 10.901 6.025 0 10.901-4.87 10.901-10.901 0-0.312-0.020-0.65-0.053-0.995-0.013-0.079-0.020-0.152-0.026-0.219z"></path>
<path d="M133.777 406.102c-0.723-7.219-7.299-20.654-9.826-25.63-0.412-0.803-1.566-0.803-1.99 0-2.541 4.963-9.123 18.378-9.826 25.67-0.007 0.040-0.007 0.106-0.013 0.139-0.033 0.365-0.053 0.71-0.053 1.035 0 6.024 4.876 10.901 10.894 10.901s10.901-4.87 10.901-10.901c0-0.312-0.026-0.65-0.053-0.995-0.020-0.079-0.020-0.152-0.033-0.219z"></path>
<path d="M104.027 406.102c-0.305-3.046-1.665-7.192-3.317-11.352-2.249-5.692-5.049-11.405-6.516-14.278-0.412-0.803-1.559-0.803-1.984 0-2.548 4.963-9.13 18.378-9.826 25.67-0.013 0.040-0.013 0.106-0.013 0.139-0.040 0.365-0.059 0.71-0.059 1.035 0 5.408 3.941 9.86 9.097 10.715 0.584 0.099 1.181 0.179 1.798 0.179 6.018 0 10.901-4.87 10.901-10.901 0-0.312-0.020-0.65-0.053-0.995-0.013-0.073-0.013-0.146-0.026-0.212z"></path>
<path d="M125.225 487.716c6.011 0 10.894-4.87 10.894-10.894 0-0.318-0.026-0.657-0.060-1.009 0-0.073-0.013-0.139-0.013-0.219-0.73-7.212-7.305-20.647-9.833-25.617-0.418-0.81-1.566-0.81-1.984 0-2.555 4.956-9.129 18.365-9.833 25.663-0.007 0.046-0.013 0.099-0.013 0.139-0.033 0.358-0.053 0.71-0.053 1.041-0.007 6.018 4.87 10.894 10.895 10.894z"></path>
<path d="M63.449 348.651c6.024 0 10.901-4.87 10.901-10.901 0-0.312-0.020-0.65-0.053-0.995-0.007-0.079-0.013-0.152-0.020-0.219-0.332-3.257-1.865-7.783-3.669-12.221-2.189-5.401-4.777-10.675-6.171-13.409-0.412-0.803-1.572-0.803-1.984 0-2.548 4.963-9.13 18.378-9.826 25.67-0.014 0.040-0.014 0.106-0.014 0.139-0.040 0.365-0.053 0.71-0.053 1.035 0 5.010 3.383 9.176 7.975 10.457 0.935 0.259 1.904 0.445 2.913 0.445z"></path>
<path d="M93.206 348.651c6.018 0 10.901-4.87 10.901-10.901 0-0.312-0.020-0.65-0.053-0.995-0.013-0.079-0.013-0.152-0.026-0.219-0.723-7.219-7.299-20.654-9.826-25.63-0.412-0.803-1.559-0.803-1.984 0-2.548 4.963-9.129 18.378-9.826 25.67-0.013 0.040-0.013 0.106-0.013 0.139-0.040 0.365-0.059 0.71-0.059 1.035-0.007 6.024 4.877 10.901 10.888 10.901z"></path>
<path d="M119.386 348.002c1.121 0.392 2.316 0.65 3.57 0.65 3.079 0 5.845-1.281 7.829-3.337 1.891-1.957 3.072-4.618 3.072-7.563 0-0.312-0.026-0.65-0.053-0.995-0.013-0.079-0.013-0.152-0.026-0.219-0.723-7.219-7.299-20.654-9.826-25.63-0.412-0.803-1.566-0.803-1.99 0-2.541 4.963-9.123 18.378-9.826 25.67-0.007 0.040-0.007 0.106-0.013 0.139-0.033 0.365-0.053 0.71-0.053 1.035 0 4.771 3.072 8.771 7.318 10.25z"></path>
</svg>
