<!-- Generated by IcoMoon.io -->
<svg version="1.1" xmlns="http://www.w3.org/2000/svg" width="252" height="512" viewBox="0 0 252 512">
<title>QueenOnQueen</title>
<path d="M63.455 415.616c6.025 0 10.901-4.883 10.901-10.901 0-0.325-0.020-0.663-0.053-1.009-0.007-0.067-0.013-0.139-0.020-0.219-0.292-2.899-1.54-6.794-3.079-10.748-2.289-5.892-5.242-11.896-6.754-14.868-0.239-0.485-0.71-0.591-1.175-0.498-0.319 0.060-0.644 0.166-0.809 0.498-2.382 4.631-8.234 16.613-9.56 24.118-0.093 0.517-0.219 1.075-0.266 1.539-0.014 0.053-0.014 0.106-0.014 0.152-0.040 0.351-0.053 0.697-0.053 1.035 0 5.394 3.928 9.839 9.070 10.715 0.59 0.099 1.194 0.186 1.812 0.186z"></path>
<path d="M93.212 415.616c6.018 0 10.901-4.883 10.901-10.901 0-0.325-0.020-0.663-0.053-1.009-0.013-0.067-0.013-0.139-0.026-0.219-0.723-7.205-7.299-20.654-9.826-25.617-0.412-0.816-1.559-0.816-1.984 0-2.548 4.95-9.129 18.365-9.826 25.656-0.013 0.053-0.013 0.106-0.013 0.152-0.040 0.351-0.059 0.697-0.059 1.035-0.007 6.011 4.877 10.901 10.888 10.901z"></path>
<path d="M122.963 415.616c6.018 0 10.901-4.883 10.901-10.901 0-0.325-0.026-0.663-0.053-1.009-0.013-0.067-0.013-0.139-0.026-0.219-0.723-7.205-7.299-20.654-9.826-25.617-0.412-0.816-1.566-0.816-1.99 0-2.541 4.95-9.123 18.365-9.826 25.656-0.007 0.053-0.007 0.106-0.013 0.152-0.033 0.351-0.053 0.697-0.053 1.035 0 6.011 4.876 10.901 10.888 10.901z"></path>
<path d="M214.868 439.834h20.522c2.222 0 4.292-1.115 5.527-2.966s1.453-4.2 0.59-6.243l-109.474-259.818c-1.035-2.462-3.45-4.060-6.118-4.060s-5.082 1.599-6.118 4.060l-109.474 259.818c-0.863 2.050-0.643 4.392 0.591 6.243s3.304 2.966 5.527 2.966h20.515l-26.632 63.209c-0.863 2.057-0.643 4.392 0.591 6.243s3.304 2.966 5.527 2.966h218.948c2.222 0 4.292-1.115 5.527-2.966s1.453-4.193 0.59-6.243l-26.638-63.209zM26.433 426.564l99.476-236.099 99.476 236.099h-198.951zM26.433 498.989l24.927-59.156h149.103l24.927 59.156h-198.958z"></path>
<path d="M74.283 475.913c-0.73-7.212-7.305-20.654-9.833-25.623-0.412-0.81-1.572-0.81-1.984 0-2.548 4.956-9.13 18.372-9.826 25.663-0.014 0.046-0.014 0.106-0.014 0.146-0.040 0.358-0.053 0.704-0.053 1.035 0 6.018 4.87 10.901 10.887 10.901 6.025 0 10.901-4.877 10.901-10.901 0-0.318-0.020-0.657-0.053-1.002-0.013-0.067-0.020-0.146-0.026-0.219z"></path>
<path d="M104.034 475.913c-0.723-7.212-7.299-20.654-9.826-25.623-0.412-0.81-1.559-0.81-1.984 0-2.548 4.956-9.129 18.372-9.826 25.663-0.013 0.046-0.013 0.106-0.013 0.146-0.040 0.358-0.059 0.704-0.059 1.035 0 6.018 4.877 10.901 10.895 10.901s10.901-4.877 10.901-10.901c0-0.318-0.020-0.657-0.053-1.002-0.020-0.067-0.020-0.146-0.033-0.219z"></path>
<path d="M133.784 475.913c-0.723-7.212-7.299-20.654-9.826-25.623-0.412-0.81-1.566-0.81-1.99 0-2.541 4.956-9.123 18.372-9.826 25.663-0.007 0.046-0.007 0.106-0.013 0.146-0.033 0.358-0.053 0.704-0.053 1.035 0 6.018 4.876 10.901 10.894 10.901s10.901-4.877 10.901-10.901c0-0.318-0.026-0.657-0.053-1.002-0.020-0.067-0.020-0.146-0.033-0.219z"></path>
</svg>
