<!-- Generated by IcoMoon.io -->
<svg version="1.1" xmlns="http://www.w3.org/2000/svg" width="252" height="512" viewBox="0 0 252 512">
<title>QueenOnPawnOnDroneExpanded</title>
<path d="M241.493 283.564l-109.474-259.812c-1.035-2.462-3.45-4.061-6.118-4.061s-5.082 1.599-6.118 4.061l-109.474 259.812c-0.863 2.063-0.643 4.392 0.591 6.243s3.304 2.966 5.527 2.966h67.529l-26.419 66.142c-0.816 2.050-0.564 4.365 0.67 6.183 1.24 1.825 3.291 2.913 5.493 2.913h24.217l-51.048 134.945c-0.77 2.037-0.491 4.319 0.749 6.118s3.278 2.866 5.454 2.866h165.565c2.176 0 4.22-1.068 5.454-2.866 1.248-1.798 1.519-4.080 0.75-6.118l-51.041-134.938h24.21c2.202 0 4.26-1.088 5.494-2.913 1.234-1.812 1.486-4.134 0.67-6.183l-26.419-66.142h67.622c2.222 0 4.292-1.115 5.527-2.966s1.453-4.187 0.59-6.25zM199.037 498.664h-146.363l49.422-130.645h47.519l49.423 130.645zM178.217 354.755h-104.73l24.754-61.976h55.208l24.767 61.976zM162.453 279.51h-136.026l99.482-236.099 99.476 236.099h-62.931z"></path>
<path d="M74.276 256.441c-0.73-7.219-7.305-20.654-9.833-25.63-0.412-0.803-1.572-0.803-1.984 0-2.548 4.963-9.13 18.379-9.826 25.67-0.014 0.040-0.014 0.106-0.014 0.139-0.040 0.365-0.053 0.71-0.053 1.035 0 6.024 4.87 10.901 10.887 10.901 6.025 0 10.901-4.87 10.901-10.901 0-0.312-0.020-0.65-0.053-0.995-0.013-0.073-0.020-0.152-0.026-0.219z"></path>
<path d="M123.181 230.346c-0.471-0.113-0.969-0.026-1.228 0.464-2.541 4.963-9.123 18.379-9.826 25.67-0.007 0.040-0.007 0.106-0.013 0.139-0.033 0.365-0.053 0.71-0.053 1.035 0 0.139 0.033 0.279 0.040 0.418 0.225 5.825 4.976 10.483 10.848 10.483 6.018 0 10.901-4.87 10.901-10.901 0-0.312-0.026-0.65-0.053-0.995-0.013-0.079-0.013-0.152-0.026-0.219-0.723-7.219-7.299-20.654-9.826-25.63-0.153-0.312-0.465-0.392-0.763-0.464z"></path>
<path d="M100.617 475.595c-0.723-7.212-7.299-20.647-9.826-25.617-0.412-0.81-1.559-0.81-1.984 0-2.548 4.956-9.129 18.365-9.826 25.663-0.013 0.046-0.013 0.099-0.020 0.139-0.033 0.358-0.053 0.71-0.053 1.041 0 6.018 4.877 10.894 10.895 10.894s10.901-4.87 10.901-10.894c0-0.318-0.020-0.657-0.053-1.009-0.020-0.073-0.020-0.146-0.033-0.219z"></path>
<path d="M130.367 475.595c-0.723-7.212-7.299-20.647-9.826-25.617-0.412-0.81-1.573-0.81-1.984 0-2.548 4.956-9.129 18.365-9.826 25.663-0.013 0.046-0.013 0.099-0.013 0.139-0.040 0.358-0.059 0.71-0.059 1.041 0 6.018 4.877 10.894 10.895 10.894s10.901-4.87 10.901-10.894c0-0.318-0.026-0.657-0.053-1.009-0.020-0.073-0.020-0.146-0.033-0.219z"></path>
<path d="M104.027 256.441c-0.232-2.315-1.094-5.281-2.203-8.387-2.349-6.589-5.905-13.86-7.624-17.244-0.412-0.803-1.559-0.803-1.984 0-2.548 4.963-9.129 18.379-9.826 25.67-0.013 0.040-0.013 0.106-0.013 0.139-0.040 0.365-0.059 0.71-0.059 1.035 0 6.024 4.877 10.901 10.895 10.901 0.153 0 0.292-0.040 0.445-0.046 5.805-0.239 10.45-4.976 10.45-10.854 0-0.312-0.020-0.65-0.053-0.995-0.013-0.073-0.013-0.152-0.026-0.219z"></path>
<path d="M136.060 331.892c0-0.067-0.013-0.139-0.013-0.219-0.73-7.205-7.305-20.641-9.833-25.617-0.007-0.014-0.026-0.007-0.040-0.020-0.113-0.199-0.325-0.212-0.504-0.312-0.517-0.265-1.135-0.252-1.439 0.332-2.555 4.963-9.129 18.365-9.833 25.67-0.007 0.040-0.013 0.093-0.013 0.139-0.033 0.351-0.053 0.71-0.053 1.035 0 0.757 0.079 1.493 0.225 2.202 1.015 4.963 5.4 8.698 10.675 8.698 6.011 0 10.894-4.87 10.894-10.901 0-0.212-0.020-0.451-0.040-0.69-0.013-0.093-0.013-0.199-0.026-0.318z"></path>
</svg>
