<!-- Generated by IcoMoon.io -->
<svg version="1.1" xmlns="http://www.w3.org/2000/svg" width="252" height="512" viewBox="0 0 252 512">
<title>QueenOnPawnOnPawn</title>
<path d="M241.427 418.569l-109.54-259.971c-1.008-2.402-3.37-3.968-5.984-3.968-2.608 0-4.963 1.566-5.972 3.968l-109.547 259.971c-0.842 2.010-0.63 4.286 0.57 6.104s3.231 2.906 5.407 2.906h71.311l-30.082 75.325c-0.816 2.050-0.564 4.365 0.67 6.183 1.24 1.825 3.291 2.913 5.493 2.913h124.316c2.202 0 4.26-1.088 5.494-2.913 1.234-1.812 1.486-4.134 0.67-6.183l-30.096-75.332h71.317c2.176 0 4.2-1.088 5.4-2.906s1.427-4.087 0.571-6.098zM178.27 498.731h-104.724l28.424-71.158h47.877l28.423 71.158zM213.030 414.601h-27.846l-52.925-124.137c-1.008-2.382-3.37-3.941-5.965-3.941s-4.95 1.553-5.965 3.941l-25.969 60.928h14.106l17.828-41.832 44.765 105.029-144.923 0.014 99.767-236.782 99.781 236.782h-12.653z"></path>
<path d="M74.243 391.366c-0.412-4.021-2.634-9.959-4.963-15.313-1.844-4.24-3.748-8.115-4.877-10.324-0.411-0.816-1.566-0.816-1.99-0.007-2.541 4.969-9.13 18.385-9.833 25.683-0.007 0.053-0.007 0.079-0.014 0.132-0.033 0.378-0.053 0.723-0.053 1.062 0 4.107 2.316 7.656 5.679 9.514 1.553 0.842 3.318 1.373 5.221 1.373 6.018 0 10.895-4.87 10.895-10.887 0-0.325-0.013-0.663-0.046-1.022-0.007-0.079-0.013-0.132-0.020-0.212z"></path>
<path d="M92.183 365.723c-2.541 4.969-9.129 18.385-9.833 25.683-0.007 0.053-0.013 0.079-0.013 0.132-0.033 0.378-0.053 0.723-0.053 1.062 0 3.742 1.891 7.053 4.77 9.003 1.752 1.195 3.855 1.877 6.124 1.877 1.619 0 3.138-0.378 4.519-1.002 3.755-1.719 6.376-5.481 6.376-9.879 0-0.325-0.020-0.663-0.053-1.022-0.007-0.079-0.013-0.132-0.020-0.205-0.1-0.949-0.332-2.043-0.604-3.171-0.982-4.041-2.939-8.99-4.909-13.409-1.659-3.742-3.311-7.072-4.319-9.050-0.404-0.829-1.559-0.829-1.984-0.020z"></path>
<path d="M122.956 403.481c6.031 0 10.901-4.87 10.901-10.887 0-0.325-0.013-0.663-0.053-1.022-0.013-0.079-0.013-0.132-0.026-0.205-0.611-6.071-5.321-16.461-8.32-22.591-0.57-1.175-1.108-2.243-1.513-3.038-0.412-0.822-1.566-0.822-1.99-0.014-2.541 4.969-9.136 18.385-9.833 25.683-0.007 0.053-0.007 0.079-0.013 0.132-0.033 0.378-0.053 0.723-0.053 1.062 0 2.077 0.617 4.007 1.626 5.653 1.918 3.125 5.335 5.228 9.275 5.228z"></path>
<path d="M125.278 487.783c6.011 0 10.895-4.87 10.895-10.887 0-0.325-0.026-0.663-0.060-1.009 0-0.079-0.013-0.139-0.013-0.219-0.73-7.219-7.305-20.654-9.833-25.617-0.418-0.816-1.566-0.816-1.984 0-2.555 4.95-9.129 18.365-9.833 25.656-0.007 0.053-0.013 0.106-0.013 0.139-0.033 0.365-0.053 0.71-0.053 1.048-0.007 6.011 4.87 10.887 10.895 10.887z"></path>
</svg>
