<!-- Generated by IcoMoon.io -->
<svg version="1.1" xmlns="http://www.w3.org/2000/svg" width="252" height="512" viewBox="0 0 252 512">
<title>QueenOnDrone</title>
<path d="M241.48 502.99l-109.587-260.077c-1.008-2.402-3.364-3.968-5.972-3.968-2.614 0-4.969 1.566-5.984 3.968l-109.58 260.077c-0.842 2.017-0.63 4.293 0.57 6.111 1.207 1.805 3.231 2.906 5.407 2.906h219.161c2.169 0 4.207-1.094 5.394-2.906 1.208-1.818 1.427-4.101 0.59-6.111zM213.076 499.022l-81.19-190.823c-1.015-2.395-3.37-3.947-5.965-3.947-2.608 0-4.956 1.546-5.978 3.947l-54.279 127.581h14.106l46.145-108.459 73.049 171.702h-172.856l99.807-236.868 99.8 236.869h-12.639z"></path>
<path d="M62.4 450.118c-2.541 4.969-9.136 18.392-9.833 25.697-0.007 0.053-0.007 0.093-0.014 0.139-0.033 0.372-0.053 0.723-0.053 1.048 0 4.127 2.316 7.67 5.686 9.527 1.553 0.849 3.318 1.38 5.221 1.38 6.025 0 10.901-4.877 10.901-10.908 0-0.318-0.020-0.657-0.053-1.009-0.007-0.073-0.013-0.139-0.020-0.212-0.412-4.034-2.634-9.966-4.963-15.32-1.844-4.24-3.755-8.127-4.877-10.33-0.418-0.822-1.579-0.822-1.997-0.014z"></path>
<path d="M87.055 486.012c1.751 1.195 3.862 1.891 6.13 1.891 6.025 0 10.907-4.877 10.907-10.908 0-0.318-0.020-0.657-0.053-1.009-0.007-0.073-0.013-0.139-0.020-0.212-0.438-4.346-2.999-10.934-5.52-16.594-1.665-3.736-3.311-7.072-4.319-9.050-0.412-0.822-1.566-0.822-1.99-0.014-2.541 4.969-9.136 18.392-9.833 25.697-0.007 0.053-0.013 0.093-0.013 0.139-0.033 0.372-0.053 0.723-0.053 1.048-0.013 3.748 1.885 7.060 4.764 9.010z"></path>
<path d="M122.963 487.902c6.024 0 10.901-4.877 10.901-10.908 0-0.318-0.020-0.657-0.053-1.009-0.006-0.073-0.013-0.139-0.020-0.212-0.73-7.226-7.299-20.674-9.833-25.644-0.418-0.822-1.573-0.822-1.99-0.014-2.548 4.969-9.142 18.392-9.84 25.697 0 0.053 0 0.093-0.007 0.139-0.033 0.372-0.053 0.723-0.053 1.048-0.007 6.024 4.87 10.901 10.894 10.901z"></path>
</svg>
