<!-- Generated by IcoMoon.io -->
<svg version="1.1" xmlns="http://www.w3.org/2000/svg" width="252" height="512" viewBox="0 0 252 512">
<title>QueenOnDroneExpanded</title>
<path d="M241.493 363.659l-109.474-259.812c-1.035-2.462-3.45-4.061-6.118-4.061s-5.082 1.599-6.118 4.061l-109.474 259.812c-0.863 2.063-0.643 4.392 0.591 6.243s3.304 2.966 5.527 2.966h69.645l-49.203 130.089c-0.77 2.037-0.491 4.319 0.749 6.118s3.277 2.866 5.454 2.866h165.565c2.176 0 4.22-1.068 5.454-2.866 1.248-1.798 1.519-4.080 0.75-6.118l-49.203-130.082h69.739c2.222 0 4.292-1.115 5.527-2.966s1.453-4.193 0.59-6.25zM199.037 498.664h-146.363l47.584-125.796h51.188l47.591 125.796zM160.621 359.599h-134.195l99.475-236.093 99.482 236.093h-64.762z"></path>
<path d="M74.276 336.536c-0.73-7.219-7.305-20.654-9.833-25.63-0.412-0.803-1.572-0.803-1.984 0-2.548 4.963-9.13 18.378-9.826 25.67-0.014 0.040-0.014 0.106-0.014 0.139-0.040 0.365-0.053 0.71-0.053 1.035 0 6.024 4.87 10.901 10.887 10.901 6.025 0 10.901-4.87 10.901-10.901 0-0.312-0.020-0.65-0.053-0.995-0.013-0.079-0.020-0.159-0.026-0.219z"></path>
<path d="M123.752 310.787c-0.491-0.584-1.413-0.604-1.791 0.12-2.541 4.963-9.123 18.378-9.826 25.67-0.007 0.040-0.007 0.106-0.013 0.139-0.033 0.365-0.053 0.71-0.053 1.035 0 0.982 0.172 1.918 0.418 2.827 1.248 4.644 5.447 8.075 10.477 8.075 6.018 0 10.901-4.87 10.901-10.901 0-0.312-0.026-0.65-0.053-0.995-0.013-0.079-0.013-0.152-0.026-0.219-0.723-7.219-7.299-20.654-9.826-25.63-0.046-0.079-0.153-0.053-0.206-0.12z"></path>
<path d="M104.027 336.536c-0.192-1.904-0.809-4.266-1.639-6.774-2.302-6.973-6.329-15.194-8.194-18.856-0.412-0.803-1.559-0.803-1.984 0-2.548 4.963-9.13 18.378-9.826 25.67-0.013 0.040-0.013 0.106-0.013 0.139-0.040 0.365-0.059 0.71-0.059 1.035 0 6.024 4.877 10.901 10.895 10.901 0.723 0 1.427-0.079 2.117-0.205 5.002-0.982 8.784-5.394 8.784-10.688 0-0.312-0.020-0.65-0.053-0.995-0.013-0.087-0.013-0.166-0.026-0.226z"></path>
<path d="M88.806 449.971c-2.548 4.956-9.13 18.365-9.826 25.663-0.013 0.046-0.013 0.099-0.020 0.139-0.033 0.358-0.053 0.71-0.053 1.041 0 6.018 4.877 10.894 10.895 10.894s10.901-4.87 10.901-10.894c0-0.318-0.020-0.657-0.053-1.009-0.013-0.073-0.013-0.139-0.026-0.219-0.723-7.212-7.299-20.647-9.826-25.617-0.418-0.81-1.573-0.81-1.99 0z"></path>
<path d="M119.552 487.716c6.018 0 10.901-4.87 10.901-10.894 0-0.318-0.026-0.657-0.053-1.009-0.013-0.073-0.013-0.139-0.026-0.219-0.723-7.212-7.299-20.647-9.826-25.617-0.412-0.81-1.573-0.81-1.984 0-2.548 4.956-9.129 18.365-9.826 25.663-0.013 0.046-0.013 0.099-0.013 0.139-0.040 0.358-0.059 0.71-0.059 1.041-0.007 6.018 4.87 10.894 10.888 10.894z"></path>
</svg>
