<!-- Generated by IcoMoon.io -->
<svg version="1.1" xmlns="http://www.w3.org/2000/svg" width="252" height="512" viewBox="0 0 252 512">
<title>Queen</title>
<path d="M235.382 512.067h-218.948c-2.223 0-4.293-1.115-5.527-2.966s-1.453-4.187-0.591-6.243l109.474-259.812c1.035-2.462 3.45-4.060 6.117-4.060s5.082 1.599 6.118 4.060l109.474 259.812c0.863 2.063 0.643 4.392-0.59 6.243s-3.304 2.966-5.527 2.966zM26.427 498.797h198.958l-99.475-236.099-99.482 236.099z"></path>
<path d="M52.62 475.907c0-0.040 0-0.106 0.014-0.139 0.697-7.298 7.285-20.707 9.826-25.67 0.411-0.803 1.572-0.803 1.984 0 2.534 4.976 9.103 18.411 9.833 25.63 0.007 0.067 0.013 0.139 0.020 0.219 0.033 0.351 0.053 0.69 0.053 0.995 0 6.024-4.87 10.901-10.901 10.901-6.011 0-10.888-4.87-10.888-10.901 0.007-0.318 0.020-0.67 0.059-1.035z"></path>
<path d="M82.371 475.907c0-0.040 0-0.106 0.013-0.139 0.697-7.298 7.285-20.707 9.826-25.67 0.418-0.803 1.573-0.803 1.984 0 2.534 4.976 9.103 18.411 9.826 25.63 0.013 0.067 0.013 0.139 0.026 0.219 0.033 0.351 0.053 0.69 0.053 0.995 0 6.024-4.876 10.901-10.901 10.901-6.011 0-10.895-4.87-10.895-10.901 0.007-0.318 0.026-0.67 0.067-1.035z"></path>
<path d="M112.115 475.907c0.007-0.040 0.007-0.106 0.013-0.139 0.704-7.298 7.291-20.707 9.826-25.67 0.418-0.803 1.579-0.803 1.99 0 2.534 4.976 9.103 18.411 9.826 25.63 0.013 0.067 0.013 0.139 0.026 0.219 0.026 0.351 0.053 0.69 0.053 0.995 0 6.024-4.876 10.901-10.901 10.901-6.011 0-10.895-4.87-10.895-10.901 0.013-0.318 0.033-0.67 0.059-1.035z"></path>
</svg>
