<!-- Generated by IcoMoon.io -->
<svg version="1.1" xmlns="http://www.w3.org/2000/svg" width="252" height="512" viewBox="0 0 252 512">
<title>QueenOnQueenOnDrone</title>
<path d="M198.851 403.833h36.63c2.222 0 4.292-1.115 5.527-2.966s1.453-4.187 0.59-6.243l-109.474-259.812c-1.035-2.462-3.45-4.060-6.118-4.060s-5.082 1.599-6.118 4.060l-109.474 259.812c-0.863 2.063-0.643 4.392 0.591 6.243s3.304 2.966 5.527 2.966h35.615l-41.799 99.183c-0.842 2.010-0.63 4.286 0.57 6.091 1.201 1.798 3.218 2.893 5.387 2.893h218.377c2.156 0 4.186-1.088 5.381-2.893 1.201-1.805 1.42-4.080 0.577-6.091l-41.792-99.183zM26.526 390.563l99.475-236.093 99.475 236.093h-198.951zM184.566 499.069h-158.518l40.127-95.236h12.991l-13.707 32.219h14.059l13.707-32.219h64.537l40.512 95.236h-13.708zM212.34 499.069l-40.512-95.236h12.984l40.127 95.236h-12.6z"></path>
<path d="M73.998 475.907c-0.412-4.014-2.627-9.925-4.943-15.26-1.838-4.226-3.736-8.094-4.856-10.291-0.418-0.822-1.566-0.822-1.984-0.014-2.535 4.95-9.103 18.325-9.8 25.597-0.007 0.053-0.007 0.093-0.014 0.139-0.033 0.372-0.053 0.723-0.053 1.048 0 4.107 2.309 7.637 5.666 9.488 1.546 0.849 3.304 1.38 5.202 1.38 5.998 0 10.861-4.863 10.861-10.868 0-0.318-0.020-0.657-0.053-1.009-0.013-0.073-0.020-0.139-0.026-0.212z"></path>
<path d="M103.668 475.907c-0.438-4.326-2.993-10.901-5.5-16.527-1.659-3.729-3.297-7.053-4.306-9.017-0.412-0.822-1.559-0.822-1.984-0.014-2.528 4.95-9.103 18.325-9.799 25.597-0.007 0.053-0.013 0.093-0.013 0.139-0.033 0.372-0.053 0.723-0.053 1.048 0 3.736 1.885 7.039 4.757 8.983 1.745 1.188 3.841 1.885 6.104 1.885 5.998 0 10.861-4.863 10.861-10.868 0-0.318-0.020-0.657-0.053-1.009 0-0.079-0.007-0.146-0.013-0.219z"></path>
<path d="M133.346 475.907c-0.73-7.199-7.272-20.594-9.799-25.55-0.418-0.822-1.566-0.822-1.984-0.014-2.534 4.95-9.109 18.325-9.806 25.597 0 0.053 0 0.093-0.007 0.139-0.033 0.372-0.053 0.723-0.053 1.048 0 5.998 4.864 10.868 10.861 10.868 6.005 0 10.861-4.863 10.861-10.868 0-0.318-0.020-0.657-0.053-1.009-0.006-0.073-0.013-0.139-0.020-0.212z"></path>
<path d="M74.396 367.714c-0.007-0.067-0.013-0.139-0.020-0.219-0.272-2.68-1.36-6.243-2.747-9.899-2.329-6.157-5.507-12.606-7.093-15.718-0.412-0.816-1.572-0.816-1.984 0-2.548 4.95-9.13 18.365-9.826 25.656-0.014 0.053-0.014 0.106-0.014 0.152-0.040 0.351-0.053 0.697-0.053 1.035 0 5.627 4.273 10.197 9.733 10.781 0.385 0.040 0.757 0.12 1.154 0.12 6.025 0 10.901-4.883 10.901-10.901 0-0.325-0.020-0.657-0.053-1.009z"></path>
<path d="M89.749 378.973c1.115 0.392 2.302 0.65 3.556 0.65 6.018 0 10.901-4.883 10.901-10.901 0-0.325-0.020-0.663-0.053-1.009-0.013-0.067-0.013-0.139-0.026-0.219-0.345-3.437-2.037-8.293-3.968-12.978-2.117-5.128-4.538-10.051-5.859-12.639-0.412-0.816-1.559-0.816-1.984 0-0.040 0.073-0.093 0.179-0.139 0.265-2.103 4.113-6.582 13.303-8.645 20.522-0.504 1.778-0.909 3.457-1.049 4.87-0.013 0.053-0.013 0.106-0.013 0.152-0.040 0.351-0.059 0.697-0.059 1.035 0 4.764 3.079 8.771 7.338 10.25z"></path>
<path d="M123.055 379.623c6.018 0 10.901-4.883 10.901-10.901 0-0.325-0.026-0.663-0.053-1.009-0.013-0.067-0.013-0.139-0.026-0.219-0.723-7.205-7.299-20.654-9.826-25.617-0.412-0.816-1.566-0.816-1.99 0-2.541 4.95-9.123 18.365-9.826 25.656-0.007 0.053-0.007 0.106-0.013 0.152-0.033 0.351-0.053 0.697-0.053 1.035-0.007 6.011 4.876 10.901 10.888 10.901z"></path>
</svg>
