<!-- Generated by IcoMoon.io -->
<svg version="1.1" xmlns="http://www.w3.org/2000/svg" width="252" height="512" viewBox="0 0 252 512">
<title>QueenOnDroneOnQueen</title>
<path d="M74.416 335.753c-0.412-4.014-2.627-9.925-4.943-15.267-1.838-4.226-3.736-8.088-4.856-10.291-0.418-0.816-1.566-0.816-1.984-0.014-2.535 4.95-9.103 18.325-9.8 25.603-0.007 0.053-0.007 0.093-0.014 0.132-0.033 0.378-0.053 0.723-0.053 1.048 0 4.107 2.309 7.644 5.666 9.488 1.546 0.856 3.304 1.387 5.202 1.387 5.998 0 10.861-4.87 10.861-10.875 0-0.312-0.020-0.65-0.053-1.009-0.013-0.060-0.020-0.126-0.026-0.205z"></path>
<path d="M122.969 347.849c5.998 0 10.861-4.87 10.861-10.875 0-0.312-0.013-0.65-0.053-1.009 0-0.067-0.013-0.132-0.013-0.205-0.737-7.205-7.278-20.601-9.806-25.557-0.418-0.816-1.566-0.816-1.99-0.014-2.534 4.95-9.103 18.325-9.806 25.603 0 0.053 0 0.093-0.007 0.132-0.033 0.378-0.053 0.723-0.053 1.048 0.007 5.998 4.87 10.875 10.868 10.875z"></path>
<path d="M241.493 502.784l-55.168-130.938h48.779c2.149 0 4.186-1.088 5.381-2.893s1.413-4.080 0.571-6.091l-109.175-259.128c-1.008-2.395-3.357-3.954-5.958-3.954s-4.95 1.559-5.958 3.954l-6.674 15.85-102.521 243.278c-0.842 2.010-0.63 4.286 0.57 6.091s3.218 2.893 5.387 2.893h48.759l-55.169 130.938c-0.863 2.057-0.643 4.392 0.591 6.243s3.304 2.966 5.527 2.966h218.948c2.222 0 4.292-1.115 5.527-2.966s1.446-4.187 0.584-6.243zM70.886 358.916h-17.761l0.033-0.079h-14.053l-0.033 0.079h-12.606l99.442-236.006 99.442 236.006h-12.593l-80.898-190.126c-1.008-2.388-3.357-3.934-5.945-3.934s-4.936 1.546-5.951 3.935l-54.080 127.123h14.059l45.972-108.067 72.791 171.072h-127.819zM225.331 498.731h-198.905l53.463-126.884h92.031l53.463 126.884h-0.053z"></path>
<path d="M90.153 347.358c0.013 0.007 0.033 0.007 0.046 0.007 0.982 0.298 2.017 0.478 3.099 0.478 5.998 0 10.861-4.87 10.861-10.875 0-0.312-0.020-0.65-0.053-1.009-0.007-0.067-0.013-0.132-0.020-0.205-0.338-3.317-1.911-7.928-3.749-12.44-0.007-0.020-0.020-0.040-0.026-0.067-0.558-1.36-1.141-2.721-1.719-4.027-1.659-3.722-3.297-7.053-4.306-9.017-0.412-0.816-1.559-0.816-1.984-0.014-2.528 4.95-9.103 18.325-9.799 25.603-0.007 0.053-0.013 0.093-0.013 0.132-0.033 0.378-0.053 0.723-0.053 1.048 0 3.742 1.885 7.039 4.757 8.983 0.895 0.611 1.897 1.082 2.959 1.4z"></path>
<path d="M74.276 475.654c-0.73-7.212-7.305-20.654-9.833-25.623-0.213-0.418-0.611-0.604-1.015-0.591-0.385 0.007-0.77 0.192-0.968 0.591-2.548 4.956-9.13 18.372-9.826 25.663-0.014 0.046-0.014 0.106-0.014 0.146-0.040 0.358-0.053 0.704-0.053 1.035 0 6.011 4.856 10.881 10.861 10.901 0.007 0 0.014 0 0.026 0 6.025 0 10.901-4.877 10.901-10.901 0-0.318-0.020-0.657-0.053-1.002-0.013-0.067-0.020-0.146-0.026-0.219z"></path>
<path d="M104.027 475.654c-0.723-7.212-7.299-20.654-9.826-25.623-0.213-0.418-0.611-0.604-1.008-0.591-0.385 0.007-0.769 0.192-0.969 0.591-2.548 4.956-9.13 18.372-9.826 25.663-0.013 0.046-0.013 0.106-0.013 0.146-0.040 0.358-0.059 0.704-0.059 1.035 0 6.011 4.864 10.881 10.868 10.901 0.007 0 0.013 0 0.026 0 6.018 0 10.901-4.877 10.901-10.901 0-0.318-0.020-0.657-0.053-1.002-0.026-0.067-0.026-0.146-0.040-0.219z"></path>
<path d="M133.777 475.654c-0.723-7.212-7.299-20.654-9.826-25.623-0.213-0.418-0.611-0.604-1.015-0.591-0.385 0.007-0.769 0.192-0.969 0.591-2.541 4.956-9.123 18.372-9.826 25.663-0.007 0.046-0.007 0.106-0.013 0.146-0.033 0.358-0.053 0.704-0.053 1.035 0 6.011 4.864 10.881 10.868 10.901 0.007 0 0.013 0 0.026 0 6.018 0 10.901-4.877 10.901-10.901 0-0.318-0.026-0.657-0.053-1.002-0.026-0.067-0.026-0.146-0.040-0.219z"></path>
</svg>
