<!-- Generated by IcoMoon.io -->
<svg version="1.1" xmlns="http://www.w3.org/2000/svg" width="252" height="512" viewBox="0 0 252 512">
<title>QueenOnDroneOnQueenExpanded</title>
<path d="M184.692 367.986h21.052c2.176 0 4.22-1.075 5.454-2.866 1.248-1.798 1.519-4.080 0.75-6.118l-25.047-66.222h48.481c2.222 0 4.292-1.115 5.527-2.966s1.453-4.187 0.59-6.243l-109.481-259.818c-1.035-2.462-3.45-4.061-6.118-4.061s-5.082 1.599-6.118 4.061l-109.474 259.812c-0.863 2.063-0.643 4.392 0.591 6.243s3.304 2.966 5.527 2.966h42.589l-25.047 66.228c-0.77 2.037-0.491 4.313 0.749 6.118 1.24 1.791 3.277 2.866 5.454 2.866h26.937l-56.794 134.799c-0.863 2.063-0.643 4.392 0.591 6.243s3.304 2.966 5.527 2.966h218.948c2.222 0 4.292-1.115 5.527-2.966s1.453-4.187 0.59-6.243l-56.807-134.799zM26.427 279.51l99.482-236.099 99.476 236.099h-198.958zM49.781 354.716l23.428-61.936h99.502l23.428 61.936h-146.357zM26.427 498.731l55.088-130.745h88.773l55.089 130.745h-198.951z"></path>
<path d="M74.276 475.661c-0.73-7.219-7.305-20.654-9.833-25.63-0.412-0.803-1.572-0.803-1.984 0-2.548 4.963-9.13 18.378-9.826 25.67-0.014 0.040-0.014 0.106-0.014 0.139-0.040 0.365-0.053 0.71-0.053 1.035 0 6.024 4.87 10.901 10.887 10.901 6.025 0 10.901-4.87 10.901-10.901 0-0.312-0.020-0.65-0.053-0.995-0.013-0.073-0.020-0.152-0.026-0.219z"></path>
<path d="M104.027 475.661c-0.723-7.219-7.299-20.654-9.826-25.63-0.412-0.803-1.559-0.803-1.984 0-2.548 4.963-9.129 18.378-9.826 25.67-0.013 0.040-0.013 0.106-0.013 0.139-0.040 0.365-0.059 0.71-0.059 1.035 0 6.024 4.877 10.901 10.895 10.901s10.901-4.87 10.901-10.901c0-0.312-0.020-0.65-0.053-0.995-0.020-0.073-0.020-0.152-0.033-0.219z"></path>
<path d="M133.777 475.661c-0.723-7.219-7.299-20.654-9.826-25.63-0.412-0.803-1.566-0.803-1.99 0-2.541 4.963-9.123 18.378-9.826 25.67-0.007 0.040-0.007 0.106-0.013 0.139-0.033 0.365-0.053 0.71-0.053 1.035 0 6.024 4.876 10.901 10.894 10.901s10.901-4.87 10.901-10.901c0-0.312-0.026-0.65-0.053-0.995-0.020-0.073-0.020-0.152-0.033-0.219z"></path>
<path d="M97.797 332.868c0-0.312-0.020-0.65-0.053-1.009-0.013-0.067-0.013-0.139-0.026-0.219-0.046-0.445-0.172-0.982-0.266-1.479-0.936-5.221-4.061-12.646-6.701-18.279-1.121-2.389-2.156-4.472-2.866-5.865-0.412-0.803-1.559-0.803-1.984 0-2.548 4.963-9.13 18.365-9.826 25.67-0.013 0.040-0.013 0.093-0.020 0.139-0.033 0.351-0.053 0.71-0.053 1.035 0 2.813 1.094 5.348 2.84 7.279 1.99 2.209 4.844 3.623 8.055 3.623 2.004 0 3.855-0.584 5.46-1.519 3.245-1.885 5.441-5.361 5.441-9.375z"></path>
<path d="M116.653 343.769c6.018 0 10.901-4.87 10.901-10.901 0-0.312-0.026-0.65-0.053-1.009-0.013-0.067-0.013-0.139-0.026-0.219-0.723-7.205-7.299-20.641-9.826-25.617-0.412-0.803-1.573-0.803-1.984 0-2.548 4.963-9.129 18.365-9.826 25.67-0.013 0.040-0.013 0.093-0.013 0.139-0.040 0.351-0.059 0.71-0.059 1.035-0.007 6.024 4.877 10.901 10.888 10.901z"></path>
<path d="M74.276 256.441c-0.087-0.829-0.266-1.751-0.484-2.714-1.719-7.484-7.106-18.511-9.355-22.916-0.412-0.803-1.572-0.803-1.984 0-2.548 4.963-9.13 18.379-9.826 25.67-0.014 0.040-0.014 0.106-0.014 0.139-0.040 0.365-0.053 0.71-0.053 1.035 0 6.024 4.87 10.901 10.887 10.901 1.924 0 3.702-0.538 5.268-1.406 3.344-1.865 5.633-5.387 5.633-9.495 0-0.312-0.020-0.65-0.053-0.995-0.007-0.073-0.013-0.152-0.020-0.219z"></path>
<path d="M93.206 268.563c6.018 0 10.901-4.87 10.901-10.901 0-0.312-0.020-0.65-0.053-0.995-0.013-0.079-0.013-0.152-0.026-0.219-0.617-6.137-5.441-16.726-8.433-22.831-0.531-1.075-1.015-2.057-1.394-2.8-0.412-0.803-1.559-0.803-1.984 0-2.548 4.963-9.13 18.379-9.826 25.67-0.013 0.040-0.013 0.106-0.013 0.139-0.040 0.365-0.059 0.71-0.059 1.035 0 2.262 0.69 4.365 1.871 6.111 1.951 2.886 5.261 4.791 9.017 4.791z"></path>
<path d="M122.956 268.563c0.159 0 0.312-0.040 0.471-0.046 1.606-0.073 3.105-0.491 4.452-1.181 3.529-1.798 5.972-5.434 5.972-9.673 0-0.312-0.026-0.65-0.053-0.995-0.013-0.079-0.013-0.152-0.026-0.219-0.451-4.492-3.172-11.386-5.759-17.157-1.579-3.503-3.112-6.595-4.067-8.472-0.412-0.803-1.566-0.803-1.99 0-2.541 4.963-9.123 18.379-9.826 25.67-0.007 0.040-0.007 0.106-0.013 0.139-0.033 0.365-0.053 0.71-0.053 1.035 0 0.949 0.159 1.851 0.385 2.727 1.221 4.697 5.447 8.174 10.51 8.174z"></path>
</svg>
