<!-- Generated by IcoMoon.io -->
<svg version="1.1" xmlns="http://www.w3.org/2000/svg" width="252" height="512" viewBox="0 0 252 512">
<title>QueenOnPawnExpanded</title>
<path d="M241.493 363.659l-109.474-259.812c-1.035-2.462-3.45-4.061-6.118-4.061s-5.082 1.599-6.118 4.061l-109.474 259.812c-0.863 2.063-0.643 4.392 0.591 6.243s3.304 2.966 5.527 2.966h93.019l-51.91 129.969c-0.816 2.050-0.564 4.359 0.67 6.183 1.24 1.825 3.291 2.913 5.493 2.913h124.316c2.202 0 4.26-1.088 5.494-2.913 1.234-1.818 1.486-4.134 0.67-6.183l-51.917-129.969h93.119c2.222 0 4.292-1.115 5.527-2.966s1.446-4.187 0.584-6.243zM178.217 498.664h-104.724l50.245-125.796h4.227l50.252 125.796zM136.956 359.599h-110.529l99.475-236.093 99.482 236.093h-88.428z"></path>
<path d="M74.276 336.536c-0.73-7.219-7.305-20.654-9.833-25.63-0.412-0.803-1.572-0.803-1.984 0-2.548 4.963-9.13 18.378-9.826 25.67-0.014 0.040-0.014 0.106-0.014 0.139-0.040 0.365-0.053 0.71-0.053 1.035 0 6.024 4.87 10.901 10.887 10.901 6.025 0 10.901-4.87 10.901-10.901 0-0.312-0.020-0.65-0.053-0.995-0.013-0.079-0.020-0.159-0.026-0.219z"></path>
<path d="M104.027 336.536c-0.723-7.219-7.299-20.654-9.826-25.63-0.412-0.803-1.559-0.803-1.984 0-2.548 4.963-9.129 18.378-9.826 25.67-0.013 0.040-0.013 0.106-0.013 0.139-0.040 0.365-0.059 0.71-0.059 1.035 0 6.024 4.877 10.901 10.895 10.901s10.901-4.87 10.901-10.901c0-0.312-0.020-0.65-0.053-0.995-0.020-0.079-0.020-0.159-0.033-0.219z"></path>
<path d="M121.96 310.899c-2.541 4.963-9.123 18.378-9.826 25.67-0.007 0.040-0.007 0.106-0.013 0.139-0.033 0.365-0.053 0.71-0.053 1.035 0 4.771 3.072 8.771 7.318 10.25 1.121 0.398 2.316 0.65 3.576 0.65 3.079 0 5.845-1.281 7.829-3.33 1.891-1.964 3.072-4.618 3.072-7.57 0-0.312-0.026-0.65-0.053-0.995-0.013-0.079-0.013-0.152-0.026-0.219-0.723-7.219-7.299-20.654-9.826-25.63-0.418-0.803-1.579-0.803-1.997 0z"></path>
<path d="M114.377 475.781c-0.033 0.358-0.053 0.71-0.053 1.041 0 6.018 4.87 10.894 10.901 10.894 6.011 0 10.894-4.87 10.894-10.894 0-0.318-0.026-0.657-0.060-1.009 0-0.073-0.013-0.139-0.013-0.219-0.73-7.212-7.305-20.647-9.833-25.617-0.418-0.81-1.566-0.81-1.984 0-2.555 4.956-9.129 18.365-9.833 25.663-0.013 0.040-0.020 0.093-0.020 0.139z"></path>
</svg>
