<!-- Generated by IcoMoon.io -->
<svg version="1.1" xmlns="http://www.w3.org/2000/svg" width="252" height="512" viewBox="0 0 252 512">
<title>QueenOnDroneOnDroneExpanded</title>
<path d="M241.446 363.659l-109.474-259.812c-1.035-2.462-3.45-4.061-6.118-4.061s-5.082 1.599-6.118 4.061l-109.474 259.812c-0.863 2.063-0.643 4.392 0.591 6.243s3.304 2.966 5.527 2.966h41.978l-21.497 56.827c-0.77 2.037-0.491 4.313 0.749 6.118 1.24 1.791 3.278 2.866 5.454 2.866h18.107l-24.317 64.278c-0.77 2.037-0.491 4.319 0.749 6.118s3.278 2.866 5.454 2.866h165.565c2.176 0 4.22-1.068 5.454-2.866 1.248-1.798 1.519-4.080 0.75-6.118l-24.31-64.278h18.107c2.176 0 4.213-1.075 5.454-2.866 1.248-1.798 1.519-4.080 0.75-6.118l-21.49-56.827h41.971c2.222 0 4.292-1.115 5.527-2.966s1.473-4.187 0.611-6.243zM199.037 498.664h-146.363l22.691-59.985h100.975l22.697 59.985zM199.037 425.409h-146.363l19.878-52.541h106.615l19.871 52.541zM188.335 359.599h-161.955l99.475-236.093 99.475 236.093h-36.995z"></path>
<path d="M123.739 310.813c-0.478-0.623-1.447-0.65-1.831 0.093-2.541 4.963-9.123 18.378-9.826 25.67-0.007 0.040-0.007 0.106-0.013 0.139-0.033 0.365-0.053 0.71-0.053 1.035 0 1.009 0.179 1.971 0.438 2.906 1.274 4.598 5.447 7.995 10.45 7.995 6.018 0 10.901-4.87 10.901-10.901 0-0.312-0.026-0.65-0.053-0.995-0.013-0.079-0.013-0.152-0.026-0.219-0.723-7.219-7.299-20.654-9.826-25.63-0.033-0.060-0.113-0.040-0.159-0.093z"></path>
<path d="M103.974 336.536c-0.192-1.891-0.796-4.226-1.612-6.708-1.93-5.878-5.089-12.632-7.165-16.826-0.391-0.789-0.757-1.519-1.055-2.096-0.412-0.803-1.559-0.803-1.984 0-2.548 4.963-9.13 18.378-9.826 25.67-0.013 0.040-0.013 0.106-0.013 0.139-0.040 0.365-0.059 0.71-0.059 1.035 0 1.997 0.577 3.841 1.513 5.454 1.885 3.238 5.361 5.44 9.382 5.44 0.743 0 1.466-0.079 2.169-0.212 4.976-1.002 8.731-5.394 8.731-10.682 0-0.312-0.020-0.65-0.053-0.995-0.013-0.079-0.013-0.159-0.026-0.219z"></path>
<path d="M89.795 487.716c6.018 0 10.901-4.87 10.901-10.894 0-0.318-0.020-0.657-0.053-1.009-0.013-0.073-0.013-0.139-0.026-0.219-0.723-7.212-7.299-20.647-9.826-25.617-0.412-0.81-1.559-0.81-1.984 0-2.548 4.956-9.129 18.365-9.826 25.663-0.013 0.046-0.013 0.099-0.020 0.139-0.033 0.358-0.053 0.71-0.053 1.041 0 6.018 4.877 10.894 10.888 10.894z"></path>
<path d="M119.552 487.716c6.018 0 10.901-4.87 10.901-10.894 0-0.318-0.026-0.657-0.053-1.009-0.013-0.073-0.013-0.139-0.026-0.219-0.723-7.212-7.299-20.647-9.826-25.617-0.412-0.81-1.573-0.81-1.984 0-2.548 4.956-9.129 18.365-9.826 25.663-0.013 0.046-0.013 0.099-0.013 0.139-0.040 0.358-0.059 0.71-0.059 1.041-0.007 6.018 4.87 10.894 10.888 10.894z"></path>
<path d="M74.23 336.536c-0.113-1.088-0.385-2.349-0.73-3.675-1.93-7.438-6.954-17.735-9.109-21.961-0.411-0.803-1.572-0.803-1.984 0-2.548 4.963-9.13 18.378-9.826 25.67-0.014 0.040-0.014 0.106-0.014 0.139-0.040 0.365-0.053 0.71-0.053 1.035 0 6.024 4.87 10.901 10.887 10.901 1.612 0 3.125-0.365 4.499-0.982 3.769-1.719 6.403-5.493 6.403-9.913 0-0.312-0.020-0.65-0.053-0.995-0.013-0.079-0.020-0.159-0.020-0.219z"></path>
<path d="M100.617 402.334c-0.424-4.253-2.893-10.642-5.361-16.216-1.712-3.875-3.43-7.358-4.472-9.408-0.412-0.803-1.559-0.803-1.984 0-2.548 4.963-9.129 18.372-9.826 25.676-0.013 0.040-0.013 0.093-0.020 0.139-0.033 0.351-0.053 0.71-0.053 1.035 0 4.286 2.488 7.942 6.078 9.726 1.46 0.723 3.079 1.175 4.817 1.175 6.018 0 10.901-4.87 10.901-10.901 0-0.312-0.020-0.65-0.053-1.009-0.013-0.067-0.013-0.146-0.026-0.219z"></path>
<path d="M130.367 402.334c-0.723-7.205-7.299-20.647-9.833-25.623-0.412-0.803-1.573-0.803-1.984 0-2.548 4.963-9.129 18.372-9.826 25.676-0.013 0.040-0.013 0.093-0.013 0.139-0.040 0.351-0.059 0.71-0.059 1.035 0 6.024 4.877 10.901 10.895 10.901s10.901-4.87 10.901-10.901c0-0.312-0.026-0.65-0.053-1.009-0.013-0.067-0.013-0.146-0.026-0.219z"></path>
</svg>
