<!-- Generated by IcoMoon.io -->
<svg version="1.1" xmlns="http://www.w3.org/2000/svg" width="315" height="512" viewBox="0 0 315 512">
<title>QueenPointingLeft</title>
<path d="M303.957 509.007c-1.234 1.851-3.291 2.952-5.52 2.966l-281.949 0.026c-2.667 0-5.082-1.592-6.117-4.054s-0.498-5.315 1.36-7.219l196.91-201.786c1.553-1.592 3.795-2.303 5.984-1.885 2.176 0.418 4.014 1.891 4.87 3.941l85.046 201.767c0.863 2.043 0.644 4.392-0.584 6.243zM32.232 498.731l256.192-0.040-77.257-183.328-178.936 183.368z"></path>
<path d="M200.247 348.384c-0.040 0.020-0.093 0.040-0.132 0.073-6.456 3.476-16.249 14.756-19.839 19.029-0.584 0.69-0.132 1.765 0.776 1.825 5.56 0.404 20.502 1.234 27.435-0.896 0.066-0.020 0.139-0.046 0.206-0.067 0.339-0.106 0.663-0.219 0.949-0.345 5.547-2.342 8.155-8.725 5.805-14.272-2.335-5.547-8.718-8.141-14.265-5.799-0.305 0.126-0.624 0.279-0.935 0.451z"></path>
<path d="M211.805 375.806c-0.040 0.014-0.106 0.040-0.132 0.067-6.456 3.483-16.262 14.762-19.839 19.022-0.584 0.71-0.132 1.778 0.776 1.825 5.56 0.418 20.502 1.248 27.422-0.896 0.079-0.014 0.139-0.040 0.219-0.067 0.339-0.106 0.65-0.205 0.949-0.339 5.547-2.336 8.155-8.731 5.805-14.272-2.335-5.54-8.718-8.147-14.265-5.799-0.312 0.126-0.624 0.279-0.935 0.458z"></path>
<path d="M223.35 403.208c-0.040 0.026-0.093 0.053-0.132 0.067-6.442 3.483-16.249 14.762-19.825 19.036-0.584 0.697-0.139 1.765 0.763 1.825 5.573 0.404 20.515 1.248 27.435-0.896 0.079-0.014 0.139-0.053 0.219-0.067 0.325-0.106 0.65-0.219 0.949-0.339 5.547-2.349 8.141-8.731 5.805-14.279-2.335-5.534-8.718-8.141-14.265-5.805-0.312 0.139-0.624 0.292-0.949 0.458z"></path>
</svg>
