<!-- Generated by IcoMoon.io -->
<svg version="1.1" xmlns="http://www.w3.org/2000/svg" width="252" height="512" viewBox="0 0 252 512">
<title>QueenOnPawnOnDrone</title>
<path d="M74.243 336.529c-0.412-4.027-2.634-9.959-4.963-15.313-1.844-4.247-3.748-8.121-4.877-10.324-0.418-0.822-1.572-0.822-1.99-0.014-2.541 4.963-9.13 18.385-9.833 25.683-0.007 0.053-0.007 0.087-0.014 0.139-0.033 0.372-0.053 0.723-0.053 1.055 0 4.113 2.316 7.663 5.679 9.514 1.553 0.849 3.318 1.38 5.221 1.38 6.018 0 10.895-4.877 10.895-10.894 0-0.318-0.013-0.663-0.046-1.015-0.007-0.079-0.013-0.139-0.020-0.212z"></path>
<path d="M241.427 363.733l-109.54-259.978c-1.015-2.402-3.377-3.968-5.984-3.968s-4.963 1.566-5.972 3.968l-109.547 259.978c-0.842 2.010-0.63 4.286 0.57 6.104s3.231 2.906 5.407 2.906h69.838l-49.283 130.274c-0.77 2.037-0.491 4.319 0.749 6.118s3.278 2.866 5.454 2.866h165.565c2.176 0 4.22-1.068 5.454-2.866 1.248-1.798 1.519-4.080 0.75-6.118l-49.27-130.274h69.825c2.176 0 4.207-1.088 5.407-2.906s1.427-4.094 0.577-6.104zM199.090 498.731h-146.363l47.665-125.988h51.041l47.657 125.988zM213.023 359.765h-27.846l-52.919-124.13c-1.015-2.382-3.37-3.941-5.965-3.941s-4.95 1.559-5.965 3.941l-25.969 60.921h14.106l17.828-41.833 44.765 105.035-144.923 0.007 99.767-236.782 99.774 236.782h-12.653z"></path>
<path d="M92.183 310.88c-2.541 4.963-9.129 18.385-9.833 25.683-0.007 0.053-0.013 0.087-0.013 0.139-0.033 0.372-0.053 0.723-0.053 1.055 0 3.742 1.891 7.053 4.77 9.003 1.752 1.195 3.855 1.885 6.124 1.885 0.763 0 1.499-0.079 2.216-0.226 4.956-1.029 8.685-5.408 8.685-10.662 0-0.318-0.020-0.663-0.053-1.015-0.007-0.079-0.013-0.139-0.020-0.212-0.186-1.858-0.816-4.173-1.612-6.601-1.061-3.251-2.468-6.754-3.908-9.986-1.659-3.736-3.311-7.066-4.319-9.043-0.404-0.829-1.559-0.829-1.984-0.020z"></path>
<path d="M122.956 348.651c6.025 0 10.901-4.877 10.901-10.894 0-0.318-0.020-0.663-0.060-1.015-0.006-0.079-0.013-0.139-0.020-0.212-0.73-7.226-7.299-20.668-9.826-25.63-0.026-0.060-0.1-0.033-0.132-0.087-0.471-0.663-1.473-0.69-1.865 0.073-2.541 4.963-9.136 18.385-9.833 25.683-0.007 0.053-0.007 0.087-0.013 0.139-0.033 0.372-0.053 0.723-0.053 1.055 0 1.029 0.186 2.003 0.451 2.946 1.294 4.572 5.454 7.942 10.45 7.942z"></path>
<path d="M90.837 450.038c-0.412-0.81-1.559-0.81-1.984 0-2.548 4.956-9.13 18.365-9.826 25.663-0.013 0.046-0.013 0.099-0.020 0.139-0.033 0.358-0.053 0.71-0.053 1.041 0 6.018 4.877 10.894 10.895 10.894s10.901-4.87 10.901-10.894c0-0.318-0.020-0.657-0.053-1.009-0.013-0.073-0.013-0.139-0.026-0.219-0.73-7.212-7.299-20.647-9.833-25.617z"></path>
<path d="M119.599 487.783c6.018 0 10.901-4.87 10.901-10.894 0-0.318-0.026-0.657-0.053-1.009-0.013-0.073-0.013-0.139-0.026-0.219-0.723-7.212-7.299-20.647-9.826-25.617-0.412-0.81-1.573-0.81-1.984 0-2.548 4.956-9.129 18.365-9.826 25.663-0.013 0.046-0.013 0.099-0.013 0.139-0.040 0.358-0.059 0.71-0.059 1.041 0 6.018 4.877 10.894 10.888 10.894z"></path>
</svg>
