<!-- Generated by IcoMoon.io -->
<svg version="1.1" xmlns="http://www.w3.org/2000/svg" width="252" height="512" viewBox="0 0 252 512">
<title>QueenOnPawnOnQueen</title>
<path d="M241.493 502.784l-54.79-130.042h48.739c2.176 0 4.207-1.088 5.407-2.906s1.42-4.094 0.571-6.104l-109.541-259.978c-1.015-2.402-3.377-3.968-5.984-3.968s-4.963 1.566-5.972 3.968l-109.54 259.978c-0.842 2.010-0.63 4.286 0.57 6.104s3.231 2.906 5.407 2.906h48.746l-54.79 130.042c-0.431 1.029-0.591 2.13-0.491 3.204 0.093 1.094 0.451 2.163 1.082 3.111 1.234 1.851 3.304 2.966 5.527 2.966h218.948c2.222 0 4.292-1.115 5.527-2.966 0.631-0.949 0.982-2.017 1.075-3.111 0.1-1.068-0.053-2.17-0.491-3.204zM225.351 498.731h-198.891l53.085-125.988h92.721l53.085 125.988zM67.45 359.692l-0.033 0.073h-14.53l0.026-0.073h-14.099l-0.033 0.073h-12.646l99.767-236.782 99.774 236.782h-40.499l-0.033-0.073h-3.947l-49.177-116.726c-1.035-2.462-3.45-4.060-6.118-4.060s-5.082 1.599-6.118 4.060l-22.578 53.582h11.252l17.828-41.833 44.765 105.042h-4.233l-0.026-0.067h-0.033l0.026 0.067-99.336-0.067z"></path>
<path d="M74.296 475.88c-0.007-0.073-0.013-0.146-0.020-0.219-0.73-7.212-7.305-20.654-9.833-25.623-0.412-0.81-1.572-0.81-1.984 0-2.548 4.956-9.13 18.372-9.826 25.663-0.014 0.046-0.014 0.106-0.014 0.146-0.040 0.358-0.053 0.704-0.053 1.035 0 0.007 0 0.014 0 0.026s0 0.033 0 0.046c0 6.018 4.87 10.901 10.887 10.901 6.025 0 10.901-4.877 10.901-10.901 0-0.014 0-0.033 0-0.046s0-0.020 0-0.026c-0.007-0.318-0.026-0.657-0.059-1.002z"></path>
<path d="M74.309 337.757c0-0.318-0.013-0.663-0.046-1.015-0.007-0.079-0.013-0.139-0.020-0.212-0.412-4.027-2.634-9.959-4.963-15.313-1.844-4.247-3.748-8.121-4.877-10.324-0.418-0.822-1.572-0.822-1.99-0.014-2.541 4.963-9.13 18.385-9.833 25.683-0.007 0.053-0.007 0.087-0.014 0.139-0.033 0.372-0.053 0.723-0.053 1.055 0 4.113 2.316 7.663 5.679 9.514 1.553 0.849 3.318 1.38 5.221 1.38 6.018 0 10.895-4.883 10.895-10.894z"></path>
<path d="M122.956 348.651c6.025 0 10.901-4.877 10.901-10.894 0-0.318-0.020-0.663-0.060-1.015-0.006-0.079-0.013-0.139-0.020-0.212-0.73-7.226-7.299-20.668-9.826-25.63-0.418-0.822-1.573-0.822-1.99-0.014-2.541 4.963-9.136 18.385-9.833 25.683-0.007 0.053-0.007 0.087-0.013 0.139-0.033 0.372-0.053 0.723-0.053 1.055-0.007 6.005 4.876 10.887 10.894 10.887z"></path>
<path d="M87.061 346.767c0.862 0.591 1.811 1.041 2.82 1.367 0.007 0 0.013 0.014 0.026 0.014 1.035 0.325 2.136 0.504 3.278 0.504 6.018 0 10.901-4.877 10.901-10.894 0-0.318-0.020-0.663-0.053-1.015-0.007-0.079-0.013-0.139-0.020-0.212-0.345-3.377-1.971-8.108-3.862-12.706-0.007-0.007-0.007-0.020-0.013-0.033-0.537-1.3-1.088-2.601-1.645-3.848-1.659-3.736-3.311-7.066-4.319-9.043-0.418-0.822-1.566-0.822-1.99-0.014-2.541 4.963-9.129 18.385-9.833 25.683-0.007 0.053-0.013 0.087-0.013 0.139-0.033 0.372-0.053 0.723-0.053 1.055 0 3.742 1.897 7.053 4.777 9.003z"></path>
<path d="M93.206 487.849c6.018 0 10.901-4.877 10.901-10.901 0-0.014 0-0.033 0-0.046s0-0.020 0-0.026c0-0.318-0.020-0.657-0.053-1.002-0.013-0.073-0.013-0.146-0.026-0.219-0.723-7.212-7.299-20.654-9.826-25.623-0.412-0.81-1.559-0.81-1.984 0-2.548 4.956-9.129 18.372-9.826 25.663-0.013 0.046-0.013 0.106-0.013 0.146-0.040 0.358-0.059 0.704-0.059 1.035 0 0.007 0 0.020 0 0.026 0 0.014 0 0.033 0 0.046-0.007 6.024 4.877 10.901 10.888 10.901z"></path>
<path d="M122.956 487.849c6.018 0 10.901-4.877 10.901-10.901 0-0.014 0-0.033 0-0.046s0-0.020 0-0.026c0-0.318-0.026-0.657-0.053-1.002-0.013-0.073-0.013-0.146-0.026-0.219-0.723-7.212-7.299-20.654-9.826-25.623-0.412-0.81-1.566-0.81-1.99 0-2.541 4.956-9.123 18.372-9.826 25.663-0.007 0.046-0.007 0.106-0.013 0.146-0.033 0.358-0.053 0.704-0.053 1.035 0 0.007 0 0.014 0 0.026s0 0.033 0 0.046c0 6.024 4.876 10.901 10.888 10.901z"></path>
</svg>
