<!-- Generated by IcoMoon.io -->
<svg version="1.1" xmlns="http://www.w3.org/2000/svg" width="252" height="512" viewBox="0 0 252 512">
<title>QueenOnQueenOnPawn</title>
<path d="M199.68 403.839h35.794c2.23 0 4.299-1.115 5.534-2.966s1.453-4.2 0.584-6.243l-109.474-259.818c-1.035-2.462-3.444-4.060-6.111-4.060s-5.082 1.599-6.118 4.060l-109.474 259.818c-0.863 2.050-0.643 4.392 0.591 6.243s3.304 2.966 5.527 2.966h35.788l-41.792 99.157c-0.842 2.017-0.63 4.293 0.57 6.104s3.231 2.906 5.401 2.906h218.968c2.176 0 4.207-1.088 5.4-2.906 1.208-1.805 1.42-4.087 0.571-6.104l-41.76-99.157zM26.526 390.57l99.475-236.099 99.482 236.099h-198.958zM81.641 499.015l0.026-0.060h-14.099l-0.033 0.073h-14.523l0.033-0.073h-14.099l-0.026 0.073h-12.646l40.108-95.19h41.719l-13.641 32h14.099l13.641-32h8.36l40.565 95.176h-89.484zM213.076 499.029h-27.833l-40.578-95.19h40.95l40.108 95.19h-12.646z"></path>
<path d="M74.362 475.8c-0.412-4.021-2.634-9.952-4.956-15.293-1.844-4.247-3.749-8.127-4.876-10.33-0.418-0.822-1.566-0.822-1.99-0.014-2.541 4.969-9.13 18.378-9.826 25.67-0.007 0.053-0.007 0.093-0.014 0.139-0.033 0.365-0.053 0.716-0.053 1.048 0 4.113 2.316 7.663 5.679 9.514 1.553 0.842 3.318 1.38 5.215 1.38 6.018 0 10.895-4.87 10.895-10.894 0-0.318-0.020-0.663-0.053-1.009-0.013-0.073-0.020-0.132-0.020-0.212z"></path>
<path d="M104.113 475.8c-0.445-4.339-2.999-10.921-5.52-16.58-1.659-3.729-3.304-7.060-4.313-9.036-0.418-0.822-1.566-0.822-1.99-0.014-2.541 4.969-9.123 18.378-9.826 25.67-0.007 0.053-0.013 0.093-0.013 0.139-0.033 0.365-0.053 0.716-0.053 1.048 0 3.748 1.897 7.053 4.77 9.003 1.751 1.188 3.855 1.885 6.124 1.885 6.011 0 10.894-4.87 10.894-10.894 0-0.318-0.020-0.663-0.053-1.009-0.007-0.073-0.013-0.132-0.020-0.212z"></path>
<path d="M122.047 450.171c-2.541 4.969-9.13 18.378-9.826 25.67-0.007 0.053-0.007 0.093-0.013 0.139-0.033 0.365-0.053 0.716-0.053 1.048 0 6.018 4.876 10.894 10.894 10.894 6.024 0 10.894-4.87 10.894-10.894 0-0.318-0.020-0.663-0.053-1.009-0.006-0.079-0.013-0.139-0.020-0.219-0.73-7.219-7.299-20.647-9.826-25.617-0.418-0.822-1.573-0.822-1.997-0.014z"></path>
<path d="M74.389 367.714c-0.007-0.067-0.013-0.139-0.020-0.219-0.272-2.627-1.32-6.104-2.667-9.68-2.335-6.224-5.56-12.792-7.172-15.937-0.412-0.816-1.572-0.816-1.984 0-2.548 4.95-9.13 18.365-9.826 25.656-0.014 0.053-0.014 0.106-0.014 0.152-0.040 0.351-0.053 0.697-0.053 1.035 0 5.673 4.352 10.291 9.899 10.795 0.331 0.033 0.65 0.106 0.989 0.106 6.024 0 10.901-4.883 10.901-10.901 0-0.325-0.020-0.657-0.053-1.009z"></path>
<path d="M93.299 379.623c6.018 0 10.901-4.883 10.901-10.901 0-0.325-0.020-0.663-0.053-1.009-0.013-0.067-0.013-0.139-0.026-0.219-0.723-7.205-7.299-20.654-9.826-25.617-0.359-0.71-1.221-0.69-1.725-0.152-0.073 0.079-0.199 0.053-0.259 0.152-2.196 4.266-7.365 14.796-9.209 22.3-0.292 1.207-0.524 2.349-0.617 3.357-0.013 0.053-0.013 0.106-0.013 0.152-0.040 0.351-0.059 0.697-0.059 1.035-0.007 6.011 4.877 10.901 10.888 10.901z"></path>
<path d="M118.802 378.753c1.307 0.558 2.74 0.869 4.253 0.869 3.822 0 7.179-1.977 9.123-4.95 1.121-1.712 1.785-3.748 1.785-5.945 0-0.325-0.026-0.663-0.053-1.009-0.013-0.067-0.013-0.139-0.026-0.219-0.723-7.205-7.299-20.654-9.833-25.617-0.412-0.816-1.566-0.816-1.99 0-2.541 4.95-9.123 18.365-9.826 25.656-0.007 0.053-0.007 0.106-0.013 0.152-0.033 0.351-0.053 0.697-0.053 1.035-0.007 4.498 2.727 8.366 6.635 10.025z"></path>
</svg>
