<!-- Generated by IcoMoon.io -->
<svg version="1.1" xmlns="http://www.w3.org/2000/svg" width="252" height="512" viewBox="0 0 252 512">
<title>QueenOnDroneOnDrone</title>
<path d="M241.712 414.091l-109.7-260.342c-1.008-2.409-3.364-3.974-5.978-3.974s-4.976 1.566-5.984 3.974l-109.693 260.342c-0.842 2.017-0.63 4.293 0.57 6.118 1.201 1.812 3.231 2.906 5.407 2.906h50.504l-30.215 79.863c-0.776 2.050-0.491 4.346 0.757 6.151 1.248 1.798 3.297 2.88 5.48 2.88h166.334c2.183 0 4.246-1.075 5.474-2.88 1.248-1.798 1.54-4.101 0.756-6.151l-30.215-79.863h50.504c2.169 0 4.213-1.088 5.4-2.906 1.214-1.818 1.44-4.101 0.597-6.118zM199.548 498.664h-147.040l28.582-75.557h89.875l28.583 75.557zM213.282 410.116l-81.269-191.016c-1.015-2.395-3.37-3.954-5.972-3.954-2.608 0-4.963 1.553-5.978 3.954l-54.333 127.707h14.119l46.191-108.565 73.122 171.874h-173.036l99.906-237.114 99.9 237.114h-12.653z"></path>
<path d="M62.453 361.171c-2.541 4.969-9.142 18.405-9.846 25.723-0.007 0.053-0.007 0.093-0.014 0.132-0.033 0.378-0.053 0.723-0.053 1.048 0 4.127 2.316 7.683 5.693 9.534 1.553 0.863 3.318 1.394 5.228 1.394 6.024 0 10.914-4.89 10.914-10.921 0-0.312-0.020-0.65-0.053-1.009-0.007-0.067-0.013-0.132-0.020-0.205-0.412-4.041-2.641-9.978-4.969-15.339-1.844-4.247-3.755-8.135-4.883-10.337-0.418-0.836-1.572-0.836-1.997-0.020z"></path>
<path d="M123.076 398.997c6.031 0 10.914-4.89 10.914-10.921 0-0.312-0.020-0.65-0.053-1.009-0.006-0.067-0.013-0.132-0.020-0.205-0.737-7.238-7.311-20.7-9.846-25.67-0.418-0.829-1.573-0.829-1.997-0.014-2.548 4.969-9.15 18.405-9.853 25.723 0 0.053 0 0.093-0.007 0.132-0.033 0.378-0.053 0.723-0.053 1.048 0 6.018 4.89 10.914 10.914 10.914z"></path>
<path d="M87.135 397.099c0.975 0.67 2.076 1.135 3.245 1.459 0.922 0.252 1.885 0.438 2.886 0.438 6.031 0 10.914-4.89 10.914-10.921 0-0.312-0.020-0.65-0.053-1.009-0.007-0.067-0.013-0.132-0.020-0.205-0.365-3.583-2.169-8.659-4.193-13.495-0.438-1.055-0.876-2.103-1.327-3.118-1.665-3.742-3.317-7.079-4.326-9.056-0.418-0.829-1.573-0.829-1.997-0.014-2.541 4.969-9.142 18.405-9.846 25.723-0.007 0.053-0.013 0.093-0.013 0.132-0.033 0.378-0.053 0.723-0.053 1.048 0.007 3.755 1.897 7.060 4.784 9.017z"></path>
<path d="M78.914 475.675c-0.033 0.358-0.053 0.716-0.053 1.048 0 6.045 4.903 10.941 10.941 10.941 6.051 0 10.948-4.897 10.948-10.941 0-0.318-0.020-0.663-0.053-1.015-0.013-0.073-0.013-0.139-0.026-0.219-0.73-7.245-7.332-20.747-9.873-25.743-0.412-0.81-1.573-0.81-1.99 0-2.561 4.983-9.169 18.452-9.873 25.789-0.013 0.046-0.013 0.099-0.020 0.139z"></path>
<path d="M119.692 487.67c6.051 0 10.941-4.897 10.941-10.941 0-0.318-0.026-0.663-0.053-1.015-0.013-0.073-0.013-0.139-0.026-0.219-0.723-7.245-7.325-20.747-9.866-25.743-0.412-0.81-1.585-0.81-1.99 0-2.561 4.983-9.169 18.452-9.873 25.789-0.013 0.046-0.013 0.099-0.013 0.139-0.040 0.358-0.059 0.716-0.059 1.048 0 6.045 4.897 10.941 10.941 10.941z"></path>
</svg>
