<!-- Generated by IcoMoon.io -->
<svg version="1.1" xmlns="http://www.w3.org/2000/svg" width="528" height="512" viewBox="0 0 528 512">
<title>RegularDie5</title>
<path d="M381.228 512h-358.813c-6.939 0-12.572-5.62-12.572-12.572v-347.322c0-3.546 1.471-6.751 3.835-9.026l123.794-119.835c2.351-2.276 5.482-3.546 8.738-3.546h358.813c6.952 0 12.572 5.632 12.572 12.572v347.322c0 3.407-1.37 6.663-3.835 9.039l-123.794 119.834c-2.25 2.175-5.33 3.533-8.738 3.533zM34.987 486.856h333.668v-322.178h-333.668v322.178zM393.8 157.424v312.322l98.651-95.495v-312.322l-98.651 95.495zM53.48 139.535h322.668l97.809-94.691h-322.656l-97.822 94.691z"></path>
<path d="M135.562 233.748c0 17.358-14.072 31.43-31.43 31.43s-31.43-14.072-31.43-31.429c0-17.358 14.072-31.429 31.43-31.429s31.43 14.072 31.43 31.429z"></path>
<path d="M135.562 409.753c0 17.358-14.072 31.43-31.43 31.43s-31.43-14.072-31.43-31.43c0-17.358 14.072-31.43 31.43-31.43s31.43 14.072 31.43 31.43z"></path>
<path d="M223.565 321.75c0 17.358-14.072 31.43-31.429 31.43s-31.429-14.072-31.429-31.43c0-17.358 14.072-31.43 31.429-31.43s31.429 14.072 31.429 31.43z"></path>
<path d="M311.567 233.748c0 17.358-14.072 31.43-31.43 31.43s-31.429-14.072-31.429-31.429c0-17.358 14.071-31.429 31.429-31.429s31.43 14.072 31.43 31.429z"></path>
<path d="M311.567 409.753c0 17.358-14.072 31.43-31.43 31.43s-31.429-14.072-31.429-31.43c0-17.358 14.071-31.43 31.429-31.43s31.43 14.072 31.43 31.43z"></path>
</svg>
