<!-- Generated by IcoMoon.io -->
<svg version="1.1" xmlns="http://www.w3.org/2000/svg" width="512" height="512" viewBox="0 0 512 512">
<title>SolidNorthQueen</title>
<path d="M462.408 493.211l-195.49-463.924c-1.848-4.395-6.161-7.25-10.923-7.25s-9.075 2.855-10.923 7.25l-195.478 463.924c-1.529 3.685-1.138 7.843 1.066 11.148s5.9 5.296 9.857 5.296h390.969c3.981 0 7.677-1.99 9.88-5.296s2.594-7.476 1.043-11.148zM217.076 446.959c0 10.757-8.72 19.465-19.453 19.465s-19.465-8.696-19.465-19.465c0-0.58 0.048-1.209 0.119-1.848 0-0.071 0-0.19 0.024-0.249 1.244-13.032 13.008-36.975 17.534-45.837 0.758-1.433 2.82-1.433 3.542 0 4.537 8.885 16.266 32.876 17.558 45.765 0.024 0.118 0.024 0.249 0.048 0.391 0.048 0.616 0.095 1.221 0.095 1.777zM125.142 445.099c0-0.071 0-0.19 0.023-0.249 1.244-13.032 13.008-36.975 17.534-45.837 0.746-1.433 2.82-1.433 3.542 0 4.537 8.885 16.266 32.876 17.558 45.766 0.024 0.118 0.024 0.249 0.048 0.391 0.048 0.628 0.095 1.232 0.095 1.777 0 10.757-8.696 19.465-19.465 19.465-10.733 0-19.441-8.696-19.441-19.465 0.023-0.568 0.047-1.197 0.106-1.848zM250.746 466.412c-10.733 0-19.465-8.696-19.465-19.465 0-0.58 0.048-1.209 0.095-1.848 0.024-0.071 0.024-0.19 0.024-0.249 1.268-13.032 13.032-36.975 17.558-45.837 0.746-1.433 2.82-1.433 3.542 0 4.538 8.885 16.266 32.876 17.558 45.766 0.024 0.118 0.024 0.249 0.048 0.391 0.048 0.628 0.095 1.232 0.095 1.777 0 10.769-8.719 19.465-19.453 19.465z"></path>
</svg>
