<!-- Generated by IcoMoon.io -->
<svg version="1.1" xmlns="http://www.w3.org/2000/svg" width="512" height="512" viewBox="0 0 512 512">
<title>SolidSouthPawn</title>
<path d="M376.8 118.803c-2.204-3.258-5.876-5.201-9.81-5.201h-221.957c-3.934 0-7.618 1.943-9.81 5.201-2.203 3.234-2.666 7.381-1.208 11.041l110.972 277.841c1.801 4.502 6.161 7.452 11.018 7.452 4.834 0 9.206-2.95 10.994-7.452l111.008-277.841c1.445-3.661 0.983-7.796-1.209-11.041zM276.49 178.158c0 0.071 0 0.166-0.024 0.249-1.244 13.032-13.008 36.975-17.57 45.813-0.747 1.457-2.796 1.457-3.542 0-4.514-8.862-16.243-32.852-17.558-45.742 0-0.142-0.024-0.249-0.024-0.391-0.048-0.628-0.095-1.232-0.095-1.801 0-10.733 8.696-19.441 19.441-19.441 10.757 0 19.465 8.696 19.465 19.441 0 0.604-0.024 1.22-0.095 1.872z"></path>
</svg>
