<!-- Generated by IcoMoon.io -->
<svg version="1.1" xmlns="http://www.w3.org/2000/svg" width="512" height="512" viewBox="0 0 512 512">
<title>SolidEastDrone</title>
<path d="M455.596 254.786l-390.767-147.853c-3.637-1.362-7.736-0.876-10.923 1.35-3.222 2.216-5.118 5.853-5.118 9.739v295.635c0 3.886 1.895 7.523 5.118 9.738 3.199 2.228 7.286 2.713 10.923 1.339l390.767-147.793c4.608-1.753 7.654-6.161 7.654-11.089s-3.045-9.336-7.654-11.065zM92.041 254.596c0-10.733 8.696-19.465 19.441-19.465 0.604 0 1.232 0.048 1.872 0.119 0.071 0 0.166 0 0.249 0.024 13.032 1.244 36.975 13.008 45.813 17.534 1.457 0.746 1.457 2.82 0 3.543-8.862 4.538-32.852 16.266-45.742 17.558-0.142 0.024-0.249 0.024-0.391 0.048-0.628 0.048-1.232 0.095-1.801 0.095-10.745 0.012-19.441-8.719-19.441-19.453zM159.416 203.215c-8.862 4.537-32.852 16.278-45.742 17.57-0.142 0.024-0.249 0.024-0.391 0.048-0.628 0.048-1.232 0.095-1.801 0.095-10.733 0-19.441-8.732-19.441-19.477s8.696-19.465 19.441-19.465c0.604 0 1.232 0.048 1.872 0.095 0.071 0.024 0.166 0.024 0.249 0.048 13.032 1.244 36.975 13.008 45.813 17.534 1.457 0.782 1.457 2.844 0 3.554z"></path>
</svg>
