<!-- Generated by IcoMoon.io -->
<svg version="1.1" xmlns="http://www.w3.org/2000/svg" width="252" height="512" viewBox="0 0 252 512">
<title>SolidQueenOnDrone</title>
<path d="M240.641 503.017l-109.19-259.132c-1.008-2.395-3.351-3.954-5.951-3.954s-4.95 1.559-5.958 3.954l-6.674 15.851-102.516 243.281c-0.842 2.010-0.63 4.286 0.57 6.091 1.201 1.798 3.218 2.893 5.387 2.893h218.38c2.156 0 4.186-1.088 5.381-2.893 1.188-1.805 1.413-4.080 0.571-6.091zM82.020 477.127c0-0.325 0.013-0.683 0.053-1.048 0-0.046 0.007-0.087 0.013-0.139 0.697-7.279 7.272-20.647 9.799-25.598 0.424-0.81 1.573-0.81 1.984 0.014 1.008 1.971 2.647 5.295 4.306 9.017 2.508 5.633 5.056 12.202 5.501 16.527 0.007 0.079 0.013 0.139 0.020 0.212 0.033 0.358 0.053 0.69 0.053 1.009 0 5.998-4.864 10.868-10.862 10.868-2.263 0-4.365-0.697-6.104-1.885-2.879-1.938-4.764-5.235-4.764-8.977zM111.692 477.127c0-0.325 0.020-0.683 0.053-1.048 0.007-0.046 0.007-0.087 0.007-0.139 0.697-7.279 7.272-20.647 9.806-25.598 0.418-0.81 1.573-0.81 1.984 0.014 2.528 4.95 9.070 18.352 9.8 25.551 0.006 0.079 0.013 0.139 0.020 0.212 0.033 0.358 0.053 0.69 0.053 1.009 0 5.998-4.857 10.868-10.862 10.868-5.998 0-10.862-4.87-10.862-10.868zM63.211 487.995c-1.898 0-3.649-0.531-5.202-1.38-3.357-1.844-5.666-5.381-5.666-9.488 0-0.325 0.020-0.683 0.053-1.048 0.007-0.046 0.007-0.087 0.014-0.139 0.697-7.279 7.265-20.647 9.8-25.598 0.418-0.81 1.572-0.81 1.984 0.014 1.121 2.196 3.025 6.065 4.856 10.291 2.316 5.334 4.538 11.24 4.943 15.26 0.007 0.079 0.013 0.139 0.020 0.212 0.033 0.358 0.053 0.69 0.053 1.009 0.007 5.998-4.856 10.868-10.855 10.868zM198.283 499.068l-72.784-171.080-45.98 108.069h-14.052l54.081-127.118c1.015-2.382 3.357-3.935 5.951-3.935s4.929 1.546 5.945 3.935l80.893 190.135h-14.053z"></path>
</svg>
