<!-- Generated by IcoMoon.io -->
<svg version="1.1" xmlns="http://www.w3.org/2000/svg" width="512" height="512" viewBox="0 0 512 512">
<title>SolidTopDownQueen</title>
<path d="M451.52 58.549h-390.981c-6.54 0-11.847 5.295-11.847 11.847v390.957c0 6.551 5.307 11.847 11.847 11.847h390.981c6.551 0 11.847-5.296 11.847-11.847v-390.957c0-6.54-5.296-11.847-11.847-11.847zM254.252 374.17c0.758-1.433 2.82-1.433 3.543 0 4.538 8.885 16.255 32.876 17.546 45.766 0.024 0.118 0.024 0.249 0.048 0.391 0.048 0.628 0.095 1.232 0.095 1.777 0 10.757-8.707 19.465-19.441 19.465s-19.465-8.696-19.465-19.465c0-0.58 0.048-1.209 0.119-1.848 0-0.071 0-0.19 0.024-0.249 1.244-13.020 13.008-36.975 17.534-45.837zM183.56 420.267c0-0.071 0-0.19 0.024-0.249 1.244-13.032 13.008-36.975 17.534-45.837 0.746-1.433 2.832-1.433 3.542 0 4.537 8.885 16.278 32.876 17.57 45.766 0.024 0.118 0.024 0.249 0.048 0.391 0.048 0.628 0.095 1.232 0.095 1.777 0 10.757-8.696 19.465-19.465 19.465-10.745 0-19.441-8.696-19.441-19.465 0-0.58 0.024-1.209 0.095-1.848zM309.152 441.568c-10.733 0-19.465-8.696-19.465-19.465 0-0.58 0.048-1.209 0.095-1.848 0.024-0.071 0.024-0.19 0.024-0.249 1.267-13.032 13.032-36.975 17.558-45.837 0.747-1.433 2.82-1.433 3.543 0 4.538 8.885 16.266 32.876 17.558 45.765 0.024 0.118 0.024 0.249 0.048 0.391 0.048 0.628 0.095 1.232 0.095 1.777 0 10.769-8.719 19.465-19.453 19.465z"></path>
</svg>
