<!-- Generated by IcoMoon.io -->
<svg version="1.1" xmlns="http://www.w3.org/2000/svg" width="252" height="512" viewBox="0 0 252 512">
<title>SolidQueenOnQueenOnDroneExpanded</title>
<path d="M216.337 372.94h19.314c2.222 0 4.293-1.115 5.527-2.966s1.453-4.187 0.59-6.243l-109.476-259.822c-1.035-2.462-3.45-4.061-6.118-4.061s-5.082 1.599-6.118 4.061l-109.475 259.822c-0.863 2.063-0.643 4.392 0.591 6.243s3.304 2.966 5.527 2.966h19.314l-25.431 60.351c-0.863 2.063-0.643 4.392 0.591 6.243s3.304 2.966 5.527 2.966h43.333l-22.897 60.517c-0.77 2.037-0.491 4.313 0.749 6.118 1.24 1.791 3.277 2.866 5.454 2.866h165.566c2.176 0 4.22-1.075 5.454-2.866 1.248-1.798 1.519-4.080 0.75-6.118l-22.891-60.517h43.425c2.222 0 4.293-1.115 5.527-2.966s1.453-4.187 0.59-6.243l-25.425-60.351zM130.72 476.882c0 6.024-4.876 10.901-10.901 10.901-6.011 0-10.895-4.87-10.895-10.901 0-0.325 0.020-0.69 0.059-1.035 0-0.053 0-0.106 0.013-0.139 0.697-7.312 7.285-20.707 9.826-25.671 0.412-0.803 1.573-0.803 1.984 0 2.534 4.976 9.103 18.412 9.826 25.618 0.013 0.079 0.013 0.152 0.026 0.219 0.033 0.358 0.060 0.697 0.060 1.009zM100.969 476.882c0 6.024-4.877 10.901-10.901 10.901-6.011 0-10.894-4.87-10.894-10.901 0-0.325 0.020-0.69 0.053-1.035 0.007-0.053 0.007-0.106 0.020-0.139 0.697-7.312 7.285-20.707 9.826-25.671 0.418-0.803 1.573-0.803 1.984 0 2.534 4.976 9.103 18.412 9.826 25.618 0.013 0.079 0.013 0.152 0.026 0.219 0.040 0.358 0.059 0.697 0.059 1.009zM134.131 407.382c0 6.024-4.876 10.901-10.901 10.901-6.011 0-10.895-4.87-10.895-10.901 0-0.325 0.020-0.677 0.053-1.035 0.007-0.040 0.007-0.106 0.013-0.139 0.704-7.298 7.291-20.707 9.826-25.671 0.418-0.803 1.579-0.803 1.99 0 2.534 4.976 9.103 18.412 9.826 25.63 0.013 0.067 0.013 0.139 0.026 0.219 0.033 0.351 0.060 0.69 0.060 0.995zM94.468 380.536c0.471 0.935 1.115 2.229 1.811 3.656 3.005 6.21 7.431 16.11 8.015 21.981 0.013 0.067 0.013 0.139 0.026 0.219 0.033 0.351 0.053 0.69 0.053 0.995 0 6.024-4.877 10.901-10.901 10.901-3.463 0-6.516-1.659-8.513-4.187-1.466-1.851-2.376-4.16-2.376-6.714 0-0.325 0.020-0.677 0.059-1.035 0-0.040 0-0.106 0.013-0.139 0.697-7.298 7.285-20.707 9.826-25.671 0.424-0.816 1.579-0.816 1.984-0.007zM95.588 348.497c-0.683 0.139-1.386 0.219-2.11 0.219-6.011 0-10.894-4.87-10.894-10.901 0-0.325 0.020-0.677 0.059-1.035 0-0.040 0-0.106 0.013-0.139 0.697-7.298 7.285-20.707 9.826-25.671 0.418-0.803 1.573-0.803 1.984 0 1.865 3.656 5.892 11.877 8.188 18.843 0.829 2.514 1.447 4.87 1.639 6.788 0.013 0.067 0.013 0.139 0.026 0.219 0.033 0.351 0.053 0.69 0.053 0.995 0 5.308-3.775 9.707-8.784 10.682zM63.721 348.723c-1.015 0-1.977-0.186-2.913-0.445-4.584-1.274-7.975-5.447-7.975-10.45 0-0.325 0.014-0.677 0.053-1.035 0-0.040 0-0.106 0.014-0.139 0.697-7.298 7.285-20.707 9.826-25.671 0.411-0.803 1.572-0.803 1.984 0 1.386 2.721 3.981 8.009 6.164 13.402 1.805 4.445 3.338 8.971 3.669 12.235 0.007 0.067 0.013 0.139 0.020 0.219 0.033 0.351 0.053 0.69 0.053 0.995 0.007 6.011-4.864 10.888-10.895 10.888zM52.893 406.346c0-0.040 0-0.106 0.014-0.139 0.697-7.298 7.285-20.707 9.826-25.671 0.411-0.803 1.573-0.803 1.984 0 2.382 4.678 8.287 16.806 9.588 24.244 0.079 0.451 0.206 0.962 0.246 1.387 0.007 0.067 0.013 0.139 0.020 0.219 0.033 0.351 0.053 0.69 0.053 0.995 0 3.709-1.858 6.974-4.691 8.944-1.765 1.234-3.894 1.957-6.21 1.957-6.011 0-10.888-4.87-10.888-10.901 0.007-0.318 0.020-0.67 0.059-1.035zM134.077 336.826c0.026 0.351 0.053 0.69 0.053 0.995 0 6.024-4.876 10.901-10.901 10.901-5.029 0-9.229-3.437-10.477-8.082-0.246-0.902-0.418-1.838-0.418-2.82 0-0.325 0.020-0.677 0.053-1.035 0.007-0.040 0.007-0.106 0.013-0.139 0.704-7.298 7.291-20.707 9.826-25.671 0.378-0.723 1.3-0.697 1.791-0.126 0.053 0.067 0.153 0.040 0.199 0.126 2.534 4.976 9.103 18.412 9.826 25.63 0.020 0.060 0.020 0.139 0.033 0.219z"></path>
</svg>
