<!-- Generated by IcoMoon.io -->
<svg version="1.1" xmlns="http://www.w3.org/2000/svg" width="252" height="512" viewBox="0 0 252 512">
<title>SolidQueenOnPawn</title>
<path d="M241.397 502.997l-109.542-259.981c-1.015-2.402-3.377-3.968-5.984-3.968s-4.963 1.566-5.972 3.968l-109.549 259.981c-0.842 2.010-0.63 4.286 0.57 6.104s3.231 2.906 5.407 2.906h219.077c2.176 0 4.207-1.088 5.407-2.906s1.433-4.101 0.584-6.104zM58.168 486.529c-3.37-1.844-5.679-5.394-5.679-9.514 0-0.332 0.020-0.69 0.053-1.055 0.007-0.053 0.007-0.087 0.014-0.139 0.697-7.305 7.291-20.721 9.833-25.683 0.418-0.81 1.579-0.81 1.991 0.014 1.121 2.203 3.032 6.077 4.876 10.324 2.322 5.354 4.552 11.279 4.963 15.313 0.007 0.079 0.013 0.139 0.020 0.212 0.033 0.358 0.046 0.697 0.046 1.015 0 6.011-4.876 10.894-10.895 10.894-1.904 0-3.669-0.531-5.221-1.38zM82.252 477.021c0-0.332 0.020-0.69 0.053-1.055 0-0.053 0.007-0.087 0.013-0.139 0.697-7.305 7.291-20.721 9.833-25.683 0.213-0.411 0.604-0.611 1.002-0.604 0.391 0 0.783 0.205 0.989 0.617 1.008 1.977 2.654 5.308 4.32 9.043 2.514 5.653 5.076 12.241 5.52 16.587 0.007 0.079 0.013 0.139 0.020 0.212 0.033 0.358 0.053 0.697 0.053 1.015 0 6.011-4.876 10.894-10.901 10.894-2.269 0-4.379-0.69-6.124-1.885-2.879-1.95-4.777-5.262-4.777-9.003zM171.027 499.015l-44.766-105.036-17.828 41.833h-14.106l25.969-60.928c1.022-2.382 3.37-3.941 5.965-3.941s4.95 1.553 5.965 3.941l52.92 124.139-14.119-0.007zM112.023 477.021c0-0.332 0.020-0.69 0.053-1.055 0.007-0.053 0.007-0.087 0.013-0.139 0.697-7.305 7.291-20.721 9.833-25.683 0.418-0.81 1.579-0.81 1.99 0.014 2.528 4.963 9.096 18.405 9.826 25.63 0.006 0.079 0.013 0.139 0.020 0.212 0.040 0.358 0.060 0.697 0.060 1.015 0 6.011-4.876 10.894-10.901 10.894-6.011 0-10.895-4.877-10.895-10.888z"></path>
</svg>
