<!-- Generated by IcoMoon.io -->
<svg version="1.1" xmlns="http://www.w3.org/2000/svg" width="252" height="512" viewBox="0 0 252 512">
<title>SolidPawnOnQueen</title>
<path d="M241.131 502.784l-63.45-150.578h10.018c2.203 0 4.26-1.088 5.494-2.913s1.486-4.134 0.67-6.183l-62.169-155.607c-1.002-2.522-3.45-4.173-6.164-4.173s-5.156 1.652-6.164 4.173l-62.156 155.607c-0.816 2.050-0.564 4.353 0.67 6.183 1.24 1.825 3.291 2.913 5.493 2.913h10.025l-63.456 150.578c-0.863 2.063-0.643 4.392 0.591 6.243s3.304 2.966 5.527 2.966h218.951c2.222 0 4.293-1.115 5.527-2.966s1.453-4.18 0.59-6.243zM133.481 476.895c0 6.011-4.876 10.888-10.901 10.888-6.011 0-10.895-4.87-10.895-10.888 0-0.339 0.020-0.69 0.053-1.048 0.007-0.040 0.007-0.106 0.013-0.139 0.704-7.298 7.291-20.707 9.826-25.671 0.418-0.803 1.579-0.803 1.99 0 2.534 4.976 9.103 18.412 9.826 25.63 0.013 0.067 0.013 0.139 0.026 0.219 0.033 0.345 0.060 0.683 0.060 1.009zM103.73 476.895c0 6.011-4.876 10.888-10.901 10.888-6.011 0-10.895-4.87-10.895-10.888 0-0.339 0.020-0.69 0.053-1.048 0.007-0.040 0.007-0.106 0.020-0.139 0.697-7.298 7.285-20.707 9.826-25.671 0.418-0.803 1.573-0.803 1.984 0 2.534 4.976 9.103 18.412 9.826 25.63 0.013 0.067 0.013 0.139 0.026 0.219 0.040 0.345 0.059 0.683 0.059 1.009zM135.723 315.853c0 0.079 0.013 0.152 0.013 0.219 0.026 0.351 0.060 0.69 0.060 1.009 0 6.011-4.876 10.901-10.894 10.901-6.025 0-10.901-4.884-10.901-10.901 0-0.339 0.020-0.69 0.053-1.035 0-0.053 0.007-0.106 0.013-0.152 0.704-7.298 7.285-20.707 9.833-25.657 0.418-0.816 1.566-0.816 1.984 0 2.535 4.963 9.109 18.418 9.839 25.618zM52.243 475.846c0-0.040 0-0.106 0.014-0.139 0.697-7.298 7.285-20.707 9.826-25.671 0.411-0.803 1.572-0.803 1.991 0 2.528 4.976 9.097 18.412 9.826 25.63 0.007 0.067 0.013 0.139 0.020 0.219 0.033 0.351 0.053 0.69 0.053 1.009 0 6.011-4.87 10.888-10.901 10.888-6.011 0-10.888-4.87-10.888-10.888 0.007-0.339 0.020-0.69 0.059-1.048z"></path>
</svg>
