<!-- Generated by IcoMoon.io -->
<svg version="1.1" xmlns="http://www.w3.org/2000/svg" width="199" height="512" viewBox="0 0 199 512">
<title>SolidDroneOnPawnOnPawn</title>
<path d="M188.384 406.625l-83.002-219.429c-0.962-2.528-3.377-4.2-6.084-4.2-2.701 0-5.122 1.672-6.084 4.2l-83.009 219.429c-0.756 1.997-0.477 4.226 0.736 5.985 1.214 1.752 3.212 2.813 5.348 2.813h49.622l-34.939 87.481c-0.816 2.050-0.564 4.359 0.67 6.183 1.24 1.825 3.291 2.913 5.493 2.913h124.317c2.203 0 4.266-1.088 5.494-2.913 1.234-1.818 1.493-4.134 0.677-6.183l-34.952-87.481h49.629c2.137 0 4.14-1.062 5.355-2.813 1.214-1.758 1.493-3.988 0.73-5.985zM109.555 476.888c0 6.018-4.876 10.894-10.888 10.894-6.031 0-10.901-4.87-10.901-10.894 0-0.332 0.020-0.69 0.053-1.041 0-0.046 0.007-0.099 0.013-0.139 0.704-7.305 7.285-20.707 9.84-25.663 0.418-0.81 1.566-0.81 1.984 0 2.528 4.969 9.103 18.405 9.84 25.618 0 0.079 0.013 0.146 0.013 0.219 0.020 0.351 0.046 0.69 0.046 1.009zM91.050 391.63c-0.438 0-0.862-0.079-1.287-0.132-5.414-0.65-9.627-5.209-9.627-10.795 0-0.318 0.020-0.644 0.046-0.982 0-0.020 0-0.033 0-0.053 0.007-0.053 0.007-0.106 0.013-0.139 0.704-7.332 7.311-20.774 9.859-25.736 0.139-0.259 0.404-0.298 0.644-0.398 0.504-0.192 1.075-0.159 1.353 0.398 1.526 2.986 4.498 9.036 6.794 14.969 1.526 3.941 2.766 7.829 3.058 10.716 0.013 0.079 0.013 0.152 0.026 0.219 0.033 0.351 0.053 0.69 0.053 1.009-0.007 6.031-4.897 10.928-10.934 10.928zM64.65 391.026c-1.088 0.365-2.23 0.611-3.437 0.611-3.696 0-6.947-1.851-8.924-4.664-1.248-1.778-1.997-3.928-1.997-6.257 0-0.339 0.020-0.677 0.053-1.035 0.007-0.053 0.007-0.106 0.014-0.139 0.703-7.332 7.312-20.774 9.853-25.736 0.425-0.816 1.579-0.816 1.997 0 0.339 0.663 0.763 1.493 1.221 2.435 2.236 4.538 5.567 11.764 7.391 17.768 0.611 2.010 1.082 3.901 1.24 5.481 0.007 0.079 0.013 0.152 0.020 0.219 0.033 0.351 0.053 0.69 0.053 1.009 0.007 4.81-3.145 8.858-7.484 10.31zM138.099 402.412l-38.808-106.928-15.618 43.067h-13.827l23.341-64.345c0.929-2.581 3.371-4.293 6.104-4.293 2.74 0 5.182 1.719 6.111 4.293l46.497 128.206h-13.8z"></path>
</svg>
