<!-- Generated by IcoMoon.io -->
<svg version="1.1" xmlns="http://www.w3.org/2000/svg" width="201" height="512" viewBox="0 0 201 512">
<title>SolidPawnPointingLeft</title>
<path d="M190.202 502.81l-46.178-115.427c-0.816-2.050-2.588-3.536-4.757-4.014-2.137-0.464-4.379 0.152-5.971 1.678l-121.391 115.507c-1.964 1.865-2.594 4.744-1.585 7.272 1.008 2.514 3.457 4.173 6.164 4.173l167.564-0.093c2.203 0 4.253-1.088 5.481-2.913 1.248-1.831 1.493-4.134 0.677-6.183zM138.795 468.847c-0.312 0.132-0.65 0.232-0.976 0.339-0.053 0.014-0.106 0.026-0.139 0.040-7.053 2.063-21.935 0.935-27.489 0.404-0.909-0.079-1.327-1.154-0.737-1.838 3.683-4.2 13.707-15.293 20.13-18.651 0.079-0.026 0.139-0.067 0.206-0.093 0.325-0.166 0.617-0.325 0.916-0.438 5.587-2.229 11.929 0.491 14.152 6.077 2.236 5.58-0.477 11.93-6.065 14.159z"></path>
</svg>
