<!-- Generated by IcoMoon.io -->
<svg version="1.1" xmlns="http://www.w3.org/2000/svg" width="252" height="512" viewBox="0 0 252 512">
<title>SolidQueenOnQueenOnQueen</title>
<path d="M215.978 442.44h19.407c2.222 0 4.293-1.115 5.527-2.966s1.453-4.2 0.59-6.243l-25.744-61.101h19.526c2.222 0 4.293-1.115 5.527-2.966s1.453-4.2 0.59-6.243l-109.476-259.829c-1.035-2.462-3.45-4.061-6.118-4.061s-5.082 1.599-6.118 4.061l-109.475 259.815c-0.863 2.050-0.643 4.392 0.591 6.243s3.304 2.966 5.527 2.966h19.726l-25.744 61.101c-0.863 2.050-0.643 4.392 0.591 6.243s3.304 2.966 5.527 2.966h19.214l-25.431 60.358c-0.863 2.050-0.643 4.392 0.591 6.243s3.304 2.966 5.527 2.966h218.951c2.222 0 4.293-1.115 5.527-2.966s1.453-4.2 0.59-6.243l-25.425-60.344zM133.759 476.882c0 6.011-4.876 10.901-10.901 10.901-6.011 0-10.895-4.884-10.895-10.901 0-0.339 0.020-0.69 0.053-1.035 0.007-0.053 0.007-0.106 0.013-0.152 0.704-7.298 7.291-20.707 9.826-25.657 0.418-0.816 1.579-0.816 1.99 0 2.534 4.963 9.103 18.412 9.826 25.618 0.013 0.079 0.013 0.152 0.026 0.219 0.033 0.345 0.060 0.683 0.060 1.009zM104.008 476.882c0 6.011-4.876 10.901-10.901 10.901-6.011 0-10.895-4.884-10.895-10.901 0-0.339 0.020-0.69 0.059-1.035 0-0.053 0-0.106 0.013-0.152 0.697-7.298 7.285-20.707 9.826-25.657 0.418-0.816 1.573-0.816 1.984 0 2.534 4.963 9.103 18.412 9.826 25.618 0.013 0.079 0.013 0.152 0.026 0.219 0.040 0.345 0.059 0.683 0.059 1.009zM74.251 476.882c0 6.011-4.87 10.901-10.901 10.901-6.011 0-10.888-4.884-10.888-10.901 0-0.339 0.014-0.69 0.053-1.035 0-0.053 0-0.106 0.014-0.152 0.697-7.298 7.285-20.707 9.826-25.657 0.411-0.816 1.572-0.816 1.984 0 2.534 4.963 9.103 18.412 9.833 25.618 0.007 0.079 0.013 0.152 0.020 0.219 0.040 0.345 0.059 0.683 0.059 1.009zM133.858 407.322c0 6.011-4.876 10.901-10.901 10.901-6.011 0-10.895-4.884-10.895-10.901 0-0.339 0.020-0.69 0.053-1.035 0.007-0.053 0.007-0.106 0.013-0.152 0.704-7.298 7.291-20.707 9.826-25.657 0.418-0.816 1.579-0.816 1.99 0 2.534 4.963 9.103 18.412 9.826 25.618 0.013 0.079 0.013 0.152 0.026 0.219 0.033 0.345 0.060 0.683 0.060 1.009zM104.101 407.322c0 6.011-4.876 10.901-10.901 10.901-6.011 0-10.895-4.884-10.895-10.901 0-0.339 0.020-0.69 0.059-1.035 0-0.053 0-0.106 0.013-0.152 0.697-7.298 7.285-20.707 9.826-25.657 0.418-0.816 1.573-0.816 1.984 0 2.534 4.963 9.103 18.412 9.826 25.618 0.013 0.079 0.013 0.152 0.026 0.219 0.046 0.345 0.059 0.683 0.059 1.009zM93.107 347.906c-1.055 0-2.057-0.199-3.025-0.478-4.531-1.32-7.869-5.467-7.869-10.423 0-0.332 0.020-0.683 0.059-1.035 0-0.046 0-0.106 0.013-0.146 0.697-7.298 7.285-20.707 9.826-25.663 0.418-0.81 1.573-0.81 1.984 0 1.38 2.7 3.928 7.902 6.104 13.25 1.825 4.498 3.397 9.083 3.729 12.374 0.013 0.073 0.013 0.146 0.026 0.219 0.033 0.351 0.053 0.69 0.053 1.002 0 6.011-4.883 10.901-10.901 10.901zM63.356 347.906c-0.883 0-1.725-0.139-2.548-0.339-4.777-1.154-8.34-5.428-8.34-10.57 0-0.332 0.014-0.683 0.053-1.035 0-0.046 0-0.106 0.014-0.146 0.166-1.738 0.684-3.835 1.38-6.077 1.864-5.945 5.122-12.925 7.285-17.284 0.438-0.882 0.83-1.666 1.161-2.303 0.411-0.81 1.572-0.81 1.984 0 1.433 2.813 4.14 8.34 6.37 13.913 1.712 4.279 3.151 8.579 3.463 11.717 0.007 0.073 0.013 0.146 0.020 0.219 0.033 0.351 0.053 0.69 0.053 1.002 0 6.011-4.87 10.901-10.895 10.901zM52.621 406.28c0-0.053 0-0.106 0.014-0.152 0.697-7.298 7.285-20.707 9.826-25.657 0.411-0.816 1.572-0.816 1.984 0 1.38 2.7 3.941 7.922 6.118 13.283 1.825 4.478 3.384 9.057 3.716 12.334 0.007 0.079 0.013 0.152 0.020 0.219 0.033 0.351 0.053 0.69 0.053 1.009 0 6.011-4.87 10.901-10.901 10.901-1.048 0-2.044-0.192-2.999-0.471-4.545-1.307-7.882-5.461-7.882-10.423 0-0.339 0.014-0.69 0.053-1.041zM133.706 335.997c0.026 0.351 0.053 0.69 0.053 1.002 0 6.018-4.876 10.908-10.901 10.908-6.011 0-10.895-4.884-10.895-10.908 0-0.332 0.020-0.683 0.053-1.035 0.007-0.046 0.007-0.106 0.013-0.146 0.704-7.298 7.291-20.707 9.826-25.663 0.418-0.81 1.579-0.81 1.99 0 2.534 4.969 9.103 18.412 9.826 25.624 0.020 0.067 0.020 0.146 0.033 0.219z"></path>
</svg>
