<!-- Generated by IcoMoon.io -->
<svg version="1.1" xmlns="http://www.w3.org/2000/svg" width="512" height="512" viewBox="0 0 512 512">
<title>SolidEastPawn</title>
<path d="M399.322 254.857l-277.841-110.996c-3.661-1.457-7.796-0.995-11.041 1.208-3.258 2.203-5.201 5.876-5.201 9.809v221.945c0 3.933 1.943 7.618 5.201 9.81 3.234 2.204 7.381 2.666 11.041 1.209l277.841-110.972c4.514-1.801 7.452-6.161 7.452-11.018 0-4.846-2.938-9.217-7.452-10.994zM215.868 266.49c-8.862 4.514-32.852 16.243-45.742 17.558-0.142 0-0.249 0.024-0.391 0.024-0.628 0.048-1.232 0.095-1.801 0.095-10.733 0-19.441-8.696-19.441-19.441 0-10.757 8.696-19.465 19.441-19.465 0.604 0 1.232 0.024 1.872 0.095 0.071 0 0.166 0 0.249 0.024 13.032 1.244 36.975 13.008 45.813 17.558 1.457 0.758 1.457 2.82 0 3.554z"></path>
</svg>
