<!-- Generated by IcoMoon.io -->
<svg version="1.1" xmlns="http://www.w3.org/2000/svg" width="199" height="512" viewBox="0 0 199 512">
<title>SolidDroneOnDroneOnDrone</title>
<path d="M182.114 439.832c2.176 0 4.22-1.062 5.454-2.866 1.248-1.791 1.519-4.080 0.75-6.118l-23.905-63.184h17.695c2.176 0 4.22-1.062 5.454-2.866 1.248-1.791 1.519-4.080 0.75-6.118l-82.77-218.832c-0.975-2.588-3.45-4.286-6.21-4.286s-5.228 1.705-6.21 4.286l-82.784 218.838c-0.77 2.037-0.491 4.326 0.749 6.118 1.24 1.798 3.277 2.866 5.454 2.866h17.695l-23.905 63.184c-0.77 2.037-0.491 4.326 0.749 6.118 1.24 1.798 3.277 2.866 5.454 2.866h17.702l-23.905 63.184c-0.77 2.037-0.491 4.326 0.749 6.118 1.24 1.798 3.277 2.867 5.454 2.867h165.573c2.176 0 4.22-1.062 5.454-2.866 1.248-1.791 1.519-4.080 0.75-6.118l-23.905-63.184 17.709-0.007zM103.915 476.895c0 6.011-4.877 10.888-10.901 10.888-6.011 0-10.894-4.87-10.894-10.888 0-0.339 0.020-0.69 0.059-1.048 0-0.040 0-0.093 0.013-0.139 0.697-7.298 7.285-20.707 9.826-25.657 0.412-0.816 1.573-0.816 1.984 0 2.534 4.963 9.103 18.399 9.826 25.618 0.013 0.079 0.013 0.139 0.026 0.219 0.033 0.345 0.059 0.683 0.059 1.009zM74.158 476.895c0 6.011-4.877 10.888-10.901 10.888-6.011 0-10.895-4.87-10.895-10.888 0-0.339 0.020-0.69 0.053-1.048 0.007-0.040 0.007-0.093 0.020-0.139 0.697-7.298 7.285-20.707 9.826-25.657 0.418-0.816 1.572-0.816 1.984 0 2.534 4.963 9.103 18.399 9.826 25.618 0.013 0.079 0.013 0.139 0.026 0.219 0.040 0.345 0.059 0.683 0.059 1.009zM82.12 404.728c0-0.339 0.020-0.69 0.059-1.048 0-0.040 0-0.093 0.013-0.139 0.697-7.298 7.285-20.707 9.826-25.657 0.206-0.411 0.597-0.611 0.995-0.611s0.79 0.199 0.995 0.611c2.534 4.963 9.103 18.399 9.826 25.618 0.013 0.079 0.013 0.139 0.026 0.219 0.026 0.351 0.053 0.69 0.053 1.009 0 6.011-4.876 10.888-10.901 10.888v0 0c-6.011 0-10.895-4.877-10.895-10.888zM63.27 415.615v0 0c-0.014 0-0.020 0-0.026 0-0.895-0.007-1.752-0.139-2.581-0.351-0.113-0.026-0.212-0.067-0.325-0.099-0.749-0.219-1.473-0.505-2.15-0.863-0.026-0.020-0.066-0.026-0.093-0.040s-0.047-0.040-0.073-0.053c-1.626-0.896-3.005-2.183-3.987-3.769-0.066-0.113-0.12-0.226-0.186-0.345-0.365-0.63-0.65-1.3-0.883-1.997-0.080-0.239-0.159-0.464-0.219-0.71-0.206-0.803-0.339-1.632-0.352-2.502 0-0.053-0.020-0.106-0.020-0.159 0-0.339 0.020-0.69 0.053-1.048 0.007-0.040 0.007-0.093 0.020-0.139 0.697-7.298 7.285-20.707 9.826-25.657 0.212-0.411 0.604-0.611 0.995-0.611 0.398 0 0.789 0.199 0.988 0.611 0.213 0.418 0.498 0.995 0.769 1.533 0.040 0.079 0.073 0.139 0.113 0.219 0.225 0.451 0.451 0.929 0.71 1.447 0.225 0.464 0.458 0.949 0.697 1.459 0.192 0.418 0.378 0.796 0.584 1.24 0.445 0.955 0.903 1.944 1.367 2.979 0.020 0.053 0.046 0.113 0.073 0.166 0.584 1.313 1.174 2.68 1.739 4.060 0.053 0.132 0.106 0.265 0.159 0.404 0.504 1.24 0.969 2.475 1.406 3.702 0.106 0.292 0.206 0.584 0.305 0.869 0.385 1.115 0.71 2.19 0.995 3.231 0.073 0.272 0.166 0.558 0.232 0.822 0.319 1.254 0.57 2.442 0.677 3.483 0.013 0.079 0.013 0.139 0.026 0.219 0.033 0.351 0.053 0.69 0.053 1.009 0 6.011-4.877 10.888-10.895 10.888zM63.27 343.447c-1.877 0-3.616-0.517-5.162-1.347l-0.014-0.007c-3.391-1.851-5.72-5.394-5.72-9.534 0-0.339 0.020-0.69 0.053-1.048 0.007-0.040 0.007-0.093 0.020-0.139 0.697-7.298 7.285-20.707 9.826-25.657 0.418-0.816 1.572-0.816 1.984 0 0.989 1.944 2.614 5.209 4.246 8.877 2.541 5.686 5.142 12.361 5.587 16.74 0.013 0.079 0.013 0.139 0.026 0.219 0.033 0.351 0.053 0.69 0.053 1.009-0.007 6.011-4.883 10.888-10.901 10.888zM103.869 331.551c0.026 0.351 0.053 0.69 0.053 1.009 0 6.011-4.876 10.888-10.901 10.888-6.011 0-10.895-4.87-10.895-10.888 0-0.339 0.020-0.69 0.059-1.048 0-0.040 0-0.093 0.013-0.139 0.697-7.298 7.285-20.707 9.826-25.657 0.412-0.816 1.573-0.816 1.984 0 2.534 4.963 9.103 18.399 9.826 25.618 0.020 0.073 0.020 0.139 0.033 0.219z"></path>
</svg>
