<!-- Generated by IcoMoon.io -->
<svg version="1.1" xmlns="http://www.w3.org/2000/svg" width="512" height="512" viewBox="0 0 512 512">
<title>SolidSouthWestQueen</title>
<path d="M498.719 299.615l-276.454-276.442c-2.82-2.82-6.847-4.028-10.733-3.235-3.898 0.77-7.12 3.448-8.625 7.155l-189.815 466.27c-1.789 4.396-0.77 9.466 2.595 12.842 3.377 3.377 8.447 4.396 12.854 2.594l466.258-189.827c3.685-1.505 6.362-4.739 7.132-8.637 0.817-3.897-0.414-7.926-3.211-10.721zM333.64 223.213c-0.414 0.415-0.877 0.817-1.386 1.244-0.071 0.024-0.142 0.119-0.19 0.166-10.118 8.305-35.352 16.941-44.841 19.998-1.529 0.486-3.009-0.983-2.5-2.5 3.080-9.501 11.752-34.76 19.95-44.782 0.071-0.107 0.166-0.202 0.249-0.308 0.414-0.474 0.782-0.924 1.185-1.315 7.618-7.618 19.95-7.606 27.533 0 7.594 7.571 7.594 19.88 0 27.498zM342.253 234.894c0.048-0.095 0.166-0.202 0.237-0.308 0.414-0.474 0.805-0.936 1.209-1.327 7.618-7.606 19.927-7.594 27.509 0s7.618 19.927 0 27.521c-0.414 0.403-0.877 0.817-1.386 1.232-0.048 0.059-0.142 0.13-0.19 0.166-10.118 8.329-35.352 16.954-44.818 19.998-1.575 0.486-3.009-0.971-2.524-2.5 3.092-9.49 11.74-34.76 19.962-44.782zM408.752 298.324c-0.414 0.414-0.877 0.829-1.363 1.244-0.071 0.048-0.142 0.142-0.213 0.166-10.094 8.329-35.329 16.942-44.818 20.010-1.529 0.486-3.009-0.995-2.5-2.5 3.080-9.514 11.752-34.76 19.95-44.794 0.071-0.095 0.166-0.19 0.249-0.296 0.391-0.486 0.782-0.936 1.185-1.327 7.618-7.606 19.927-7.606 27.533 0 7.594 7.594 7.594 19.88-0.024 27.498z"></path>
</svg>
