<!-- Generated by IcoMoon.io -->
<svg version="1.1" xmlns="http://www.w3.org/2000/svg" width="252" height="512" viewBox="0 0 252 512">
<title>SolidDroneOnQueenOnDrone</title>
<path d="M240.641 503.017l-43.418-103.046h11.471c2.176 0 4.22-1.075 5.454-2.866 1.248-1.798 1.519-4.080 0.75-6.118l-82.776-218.838c-0.976-2.588-3.45-4.286-6.21-4.286s-5.228 1.705-6.21 4.286l-82.784 218.845c-0.77 2.037-0.491 4.313 0.749 6.118 1.24 1.791 3.278 2.866 5.454 2.866h10.649l-43.419 103.040c-0.842 2.010-0.63 4.286 0.57 6.091 1.201 1.798 3.218 2.893 5.387 2.893h218.381c2.156 0 4.186-1.088 5.381-2.893 1.188-1.805 1.413-4.080 0.571-6.091zM58.008 486.615c-3.357-1.844-5.666-5.381-5.666-9.488 0-0.325 0.020-0.683 0.053-1.048 0.007-0.046 0.007-0.087 0.014-0.139 0.697-7.279 7.265-20.647 9.8-25.598 0.418-0.81 1.572-0.81 1.984 0.014 1.121 2.196 3.025 6.065 4.856 10.291 2.316 5.334 4.538 11.24 4.943 15.26 0.007 0.079 0.013 0.139 0.020 0.212 0.033 0.358 0.053 0.69 0.053 1.009 0 5.998-4.864 10.868-10.861 10.868-1.891 0-3.642-0.531-5.195-1.38zM82.020 477.127c0-0.325 0.013-0.683 0.053-1.048 0-0.046 0.007-0.087 0.013-0.139 0.697-7.279 7.272-20.647 9.799-25.598 0.424-0.81 1.573-0.81 1.984 0.014 1.008 1.971 2.647 5.295 4.306 9.017 2.508 5.633 5.056 12.202 5.501 16.527 0.007 0.079 0.013 0.139 0.020 0.212 0.033 0.358 0.053 0.69 0.053 1.009 0 5.998-4.864 10.868-10.862 10.868-2.263 0-4.365-0.697-6.104-1.885-2.879-1.938-4.764-5.235-4.764-8.977zM122.553 487.995c-5.998 0-10.862-4.863-10.862-10.868 0-0.325 0.020-0.683 0.053-1.048 0.007-0.046 0.007-0.087 0.007-0.139 0.697-7.279 7.272-20.647 9.806-25.598 0.418-0.81 1.573-0.81 1.984 0.014 2.528 4.95 9.070 18.352 9.799 25.551 0.006 0.079 0.013 0.139 0.020 0.212 0.033 0.358 0.053 0.69 0.053 1.009 0 5.998-4.857 10.868-10.862 10.868zM79.519 436.057h-14.052l15.347-36.081h14.059l-15.353 36.081zM130.448 363.844c0.026 0.365 0.053 0.697 0.053 1.009 0 6.024-4.876 10.901-10.901 10.901-5.294 0-9.7-3.782-10.682-8.798-0.132-0.683-0.213-1.38-0.213-2.096 0-0.325 0.020-0.69 0.059-1.035 0-0.053 0-0.106 0.013-0.139 0.697-7.312 7.285-20.707 9.826-25.671 0.412-0.803 1.573-0.803 1.984 0 0.1 0.192 0.239 0.478 0.345 0.697 2.727 5.387 8.784 17.994 9.481 24.921 0.020 0.067 0.020 0.146 0.033 0.212zM78.955 364.852c0-0.325 0.020-0.69 0.053-1.035 0.007-0.053 0.007-0.106 0.020-0.139 0.697-7.312 7.285-20.707 9.826-25.671 0.418-0.803 1.573-0.803 1.984 0 0.438 0.869 1.028 2.057 1.659 3.357 2.064 4.24 4.837 10.298 6.588 15.651 0.803 2.449 1.394 4.744 1.579 6.608 0.013 0.079 0.013 0.152 0.026 0.219 0.033 0.365 0.053 0.697 0.053 1.009 0 5.574-4.186 10.099-9.567 10.762-0.438 0.053-0.876 0.139-1.327 0.139-4.087 0-7.61-2.283-9.475-5.613-0.876-1.572-1.42-3.357-1.42-5.288zM198.283 499.068l-42.165-99.099h14.060l42.158 99.099h-14.053z"></path>
</svg>
