<!-- Generated by IcoMoon.io -->
<svg version="1.1" xmlns="http://www.w3.org/2000/svg" width="252" height="512" viewBox="0 0 252 512">
<title>SolidQueenOnQueenOnDrone</title>
<path d="M211.839 434.658l-12.984-30.825h36.624c2.222 0 4.293-1.115 5.527-2.966s1.453-4.187 0.59-6.243l-109.475-259.815c-1.035-2.462-3.45-4.060-6.118-4.060s-5.082 1.599-6.118 4.060l-109.475 259.815c-0.863 2.063-0.643 4.392 0.591 6.243s3.304 2.966 5.527 2.966h35.616l-41.793 99.185c-0.842 2.010-0.63 4.286 0.57 6.091 1.201 1.798 3.218 2.893 5.387 2.893h218.381c2.156 0 4.186-1.088 5.381-2.893 1.201-1.805 1.42-4.080 0.577-6.091l-28.809-68.359zM58.008 486.615c-3.357-1.844-5.666-5.381-5.666-9.488 0-0.325 0.020-0.683 0.053-1.048 0.007-0.046 0.007-0.087 0.014-0.139 0.697-7.279 7.265-20.647 9.8-25.598 0.279-0.55 0.843-0.584 1.347-0.392 0.239 0.099 0.511 0.139 0.643 0.404 1.121 2.196 3.025 6.065 4.856 10.291 2.316 5.334 4.538 11.24 4.943 15.26 0.007 0.079 0.013 0.139 0.020 0.212 0.033 0.358 0.053 0.69 0.053 1.009 0 5.885-4.684 10.642-10.517 10.835-0.12 0-0.225 0.033-0.345 0.033-1.898 0-3.649-0.531-5.202-1.38zM133.905 367.718c0.026 0.351 0.053 0.69 0.053 0.995 0 6.024-4.876 10.901-10.901 10.901-6.011 0-10.895-4.87-10.895-10.901 0-0.325 0.020-0.677 0.053-1.035 0.007-0.040 0.007-0.106 0.013-0.139 0.704-7.298 7.291-20.707 9.826-25.671 0.418-0.803 1.579-0.803 1.99 0 2.534 4.976 9.103 18.412 9.826 25.63 0.020 0.060 0.020 0.139 0.033 0.219zM82.412 368.713c0-0.325 0.020-0.677 0.059-1.035 0-0.040 0-0.106 0.013-0.139 0.139-1.42 0.544-3.112 1.049-4.877 2.070-7.212 6.542-16.408 8.645-20.522 0.040-0.079 0.1-0.192 0.139-0.272 0.418-0.803 1.573-0.803 1.984 0 1.327 2.608 3.742 7.517 5.859 12.646 1.938 4.678 3.623 9.541 3.968 12.985 0.013 0.067 0.013 0.139 0.026 0.219 0.033 0.351 0.053 0.69 0.053 0.995 0 6.024-4.877 10.901-10.901 10.901-1.248 0-2.435-0.252-3.556-0.644-4.26-1.479-7.338-5.487-7.338-10.257zM52.714 367.678c0-0.040 0-0.106 0.014-0.139 0.697-7.298 7.285-20.707 9.826-25.671 0.411-0.803 1.573-0.803 1.984 0 1.585 3.125 4.764 9.561 7.093 15.718 1.38 3.669 2.475 7.219 2.747 9.913 0.007 0.067 0.013 0.139 0.020 0.219 0.033 0.351 0.053 0.69 0.053 0.995 0 6.024-4.87 10.901-10.901 10.901-0.398 0-0.77-0.073-1.154-0.12-5.46-0.584-9.733-5.156-9.733-10.781 0.007-0.325 0.014-0.67 0.053-1.035zM82.020 477.127c0-0.325 0.013-0.683 0.053-1.048 0-0.046 0.007-0.087 0.013-0.139 0.697-7.279 7.272-20.647 9.799-25.598 0.424-0.81 1.573-0.81 1.984 0.014 1.008 1.971 2.647 5.295 4.306 9.017 2.508 5.633 5.056 12.202 5.501 16.527 0.007 0.079 0.013 0.139 0.020 0.212 0.033 0.358 0.053 0.69 0.053 1.009 0 5.998-4.864 10.868-10.862 10.868-2.263 0-4.365-0.697-6.104-1.885-2.879-1.938-4.764-5.235-4.764-8.977zM122.553 487.995c-5.998 0-10.862-4.863-10.862-10.868 0-0.325 0.020-0.683 0.053-1.048 0.007-0.046 0.007-0.087 0.007-0.139 0.697-7.279 7.272-20.647 9.806-25.598 0.418-0.81 1.573-0.81 1.984 0.014 2.528 4.95 9.070 18.352 9.799 25.551 0.006 0.079 0.013 0.139 0.020 0.212 0.033 0.358 0.053 0.69 0.053 1.009 0 5.998-4.857 10.868-10.862 10.868zM79.519 436.057h-14.052l13.707-32.219h14.059l-13.715 32.219zM211.839 499.068h-13.555l-40.512-95.237h14.060l40.008 94.049v1.188z"></path>
</svg>
