<!-- Generated by IcoMoon.io -->
<svg version="1.1" xmlns="http://www.w3.org/2000/svg" width="252" height="512" viewBox="0 0 252 512">
<title>SolidQueen</title>
<path d="M241.496 502.851l-109.475-259.815c-1.035-2.462-3.45-4.060-6.118-4.060s-5.082 1.599-6.118 4.060l-109.475 259.815c-0.863 2.063-0.643 4.392 0.591 6.243s3.304 2.966 5.527 2.966h218.951c2.222 0 4.293-1.115 5.527-2.966s1.453-4.18 0.59-6.243zM104.101 476.948c0 6.024-4.876 10.901-10.901 10.901-6.011 0-10.895-4.87-10.895-10.901 0-0.325 0.020-0.677 0.059-1.035 0-0.040 0-0.106 0.013-0.139 0.697-7.298 7.285-20.707 9.826-25.671 0.418-0.803 1.573-0.803 1.984 0 2.534 4.976 9.103 18.412 9.826 25.63 0.013 0.067 0.013 0.139 0.026 0.219 0.046 0.345 0.059 0.683 0.059 0.995zM52.621 475.913c0-0.040 0-0.106 0.014-0.139 0.697-7.298 7.285-20.707 9.826-25.671 0.411-0.803 1.572-0.803 1.984 0 2.534 4.976 9.103 18.412 9.833 25.63 0.007 0.067 0.013 0.139 0.020 0.219 0.033 0.351 0.053 0.69 0.053 0.995 0 6.024-4.87 10.901-10.901 10.901-6.011 0-10.888-4.87-10.888-10.901 0.007-0.325 0.020-0.677 0.059-1.035zM122.957 487.842c-6.011 0-10.895-4.87-10.895-10.901 0-0.325 0.020-0.677 0.053-1.035 0.007-0.040 0.007-0.106 0.013-0.139 0.704-7.298 7.291-20.707 9.826-25.671 0.418-0.803 1.579-0.803 1.99 0 2.534 4.976 9.103 18.412 9.826 25.63 0.013 0.067 0.013 0.139 0.026 0.219 0.026 0.351 0.053 0.69 0.053 0.995 0.006 6.031-4.876 10.901-10.894 10.901z"></path>
</svg>
