<!-- Generated by IcoMoon.io -->
<svg version="1.1" xmlns="http://www.w3.org/2000/svg" width="512" height="512" viewBox="0 0 512 512">
<title>SolidNorthDrone</title>
<path d="M414.913 457.041l-147.793-390.756c-1.753-4.62-6.161-7.654-11.089-7.654s-9.347 3.044-11.089 7.654l-147.829 390.756c-1.362 3.637-0.876 7.724 1.338 10.923 2.228 3.211 5.853 5.118 9.739 5.118h295.647c3.886 0 7.523-1.896 9.738-5.118 2.228-3.199 2.713-7.286 1.339-10.923zM172.27 408.515c0.024-0.071 0.024-0.166 0.048-0.249 1.244-13.032 13.008-36.975 17.534-45.813 0.758-1.457 2.82-1.457 3.542 0 4.537 8.861 16.278 32.853 17.57 45.742 0.024 0.142 0.024 0.249 0.048 0.391 0.048 0.628 0.095 1.232 0.095 1.801 0 10.733-8.732 19.441-19.477 19.441s-19.465-8.696-19.465-19.441c0.012-0.592 0.059-1.221 0.107-1.872zM244.775 429.828c-10.733 0-19.465-8.696-19.465-19.441 0-0.604 0.048-1.232 0.119-1.872 0-0.071 0-0.166 0.024-0.249 1.244-13.032 13.008-36.975 17.534-45.813 0.746-1.457 2.82-1.457 3.542 0 4.537 8.861 16.266 32.853 17.558 45.742 0.024 0.142 0.024 0.249 0.048 0.391 0.048 0.628 0.095 1.232 0.095 1.801 0 10.745-8.72 19.441-19.453 19.441z"></path>
</svg>
