<!-- Generated by IcoMoon.io -->
<svg version="1.1" xmlns="http://www.w3.org/2000/svg" width="512" height="512" viewBox="0 0 512 512">
<title>SolidSoutheastPawn</title>
<path d="M405.849 400.139l-117.974-274.95c-1.552-3.614-4.81-6.22-8.649-6.954-3.862-0.746-7.854 0.474-10.627 3.246l-156.952 156.952c-2.784 2.772-4.016 6.753-3.246 10.615 0.746 3.839 3.329 7.108 6.942 8.649l274.95 117.998c4.466 1.908 9.632 0.912 13.067-2.524 3.4-3.4 4.407-8.589 2.488-13.032zM221.495 229.764c7.606-7.606 19.915-7.606 27.498-0.012 0.415 0.427 0.841 0.888 1.256 1.398 0.048 0.048 0.107 0.107 0.166 0.202 8.316 10.094 16.953 35.328 19.986 44.806 0.51 1.552-0.948 3.009-2.5 2.5-9.466-3.068-34.736-11.74-44.77-19.927-0.095-0.095-0.202-0.166-0.296-0.26-0.462-0.403-0.924-0.805-1.339-1.221-7.606-7.594-7.606-19.892 0-27.486z"></path>
</svg>
