<!-- Generated by IcoMoon.io -->
<svg version="1.1" xmlns="http://www.w3.org/2000/svg" width="252" height="512" viewBox="0 0 252 512">
<title>SolidQueenOnPawnOnPawn</title>
<path d="M241.43 418.567l-109.542-259.974c-1.008-2.402-3.37-3.968-5.984-3.968-2.608 0-4.963 1.566-5.972 3.968l-109.549 259.974c-0.842 2.010-0.63 4.286 0.57 6.104s3.231 2.906 5.407 2.906h71.311l-30.082 75.326c-0.816 2.050-0.564 4.365 0.67 6.183 1.24 1.825 3.291 2.913 5.493 2.913h124.317c2.203 0 4.26-1.088 5.494-2.913 1.234-1.812 1.486-4.134 0.67-6.183l-30.096-75.332h71.319c2.176 0 4.2-1.088 5.401-2.906s1.427-4.087 0.571-6.098zM58.194 402.106c-3.37-1.851-5.679-5.401-5.679-9.514 0-0.339 0.020-0.69 0.053-1.062 0.007-0.053 0.007-0.079 0.014-0.132 0.697-7.312 7.291-20.721 9.833-25.683 0.418-0.81 1.579-0.81 1.991 0.014 1.121 2.203 3.032 6.077 4.876 10.317 2.322 5.354 4.552 11.293 4.963 15.32 0.007 0.079 0.013 0.132 0.020 0.205 0.033 0.365 0.046 0.697 0.046 1.022 0 6.011-4.876 10.888-10.895 10.888-1.904 0.007-3.663-0.531-5.221-1.373zM82.285 392.599c0-0.339 0.020-0.69 0.053-1.062 0-0.053 0.007-0.079 0.013-0.132 0.597-6.237 5.481-16.906 8.48-22.99 0.511-1.035 0.982-1.971 1.353-2.694 0.424-0.81 1.579-0.81 1.99 0.014 1.008 1.971 2.654 5.301 4.32 9.043 1.971 4.419 3.928 9.375 4.91 13.416 0.278 1.128 0.511 2.223 0.604 3.171 0.007 0.079 0.013 0.132 0.020 0.205 0.033 0.365 0.053 0.697 0.053 1.022 0 4.399-2.627 8.161-6.376 9.88-1.38 0.63-2.906 1.002-4.519 1.002-0.823 0-1.585-0.186-2.349-0.358-1.36-0.298-2.654-0.757-3.775-1.519-2.88-1.95-4.777-5.255-4.777-8.997zM114.379 476.895c0-0.339 0.020-0.69 0.053-1.048 0-0.040 0.007-0.093 0.013-0.139 0.704-7.298 7.285-20.707 9.833-25.657 0.418-0.816 1.566-0.816 1.984 0 2.534 4.963 9.103 18.399 9.833 25.618 0 0.079 0.013 0.139 0.013 0.219 0.033 0.351 0.060 0.69 0.060 1.009 0 6.011-4.876 10.888-10.894 10.888s-10.894-4.877-10.894-10.888zM171.060 414.587l-44.766-105.030-17.828 41.833h-14.106l25.969-60.921c1.022-2.382 3.37-3.948 5.965-3.948s4.957 1.559 5.965 3.948l52.927 124.132-14.125-0.014zM112.056 392.599c0-0.339 0.020-0.69 0.053-1.062 0.007-0.053 0.007-0.079 0.013-0.132 0.697-7.312 7.291-20.721 9.833-25.683 0.418-0.81 1.579-0.81 1.99 0.014 0.404 0.796 0.936 1.865 1.513 3.032 2.999 6.137 7.709 16.527 8.32 22.599 0.013 0.079 0.013 0.132 0.026 0.205 0.040 0.365 0.053 0.697 0.053 1.022 0 6.011-4.87 10.888-10.901 10.888-3.941 0-7.358-2.103-9.269-5.235-1.015-1.646-1.632-3.57-1.632-5.647z"></path>
</svg>
