<!-- Generated by IcoMoon.io -->
<svg version="1.1" xmlns="http://www.w3.org/2000/svg" width="512" height="512" viewBox="0 0 512 512">
<title>SolidSouthDrone</title>
<path d="M413.586 63.738c-2.228-3.211-5.853-5.118-9.738-5.118h-295.647c-3.886 0-7.523 1.895-9.739 5.118-2.228 3.198-2.713 7.286-1.338 10.923l147.793 390.756c1.754 4.62 6.161 7.654 11.089 7.654s9.348-3.045 11.089-7.654l147.853-390.756c1.351-3.637 0.865-7.736-1.363-10.923zM247.891 123.116c-0.048-0.628-0.095-1.232-0.095-1.801 0-10.733 8.719-19.441 19.465-19.441s19.465 8.696 19.465 19.441c0 0.604-0.048 1.232-0.118 1.872 0 0.071 0 0.166-0.024 0.249-1.244 13.032-13.008 36.975-17.546 45.813-0.747 1.457-2.82 1.457-3.543 0-4.538-8.862-16.266-32.852-17.558-45.742-0.024-0.142-0.024-0.26-0.048-0.391zM339.777 123.175c-0.024 0.071-0.024 0.166-0.048 0.249-1.244 13.032-13.008 36.975-17.534 45.813-0.758 1.457-2.82 1.457-3.543 0-4.538-8.862-16.278-32.852-17.57-45.742-0.024-0.142-0.024-0.249-0.048-0.391-0.048-0.628-0.095-1.232-0.095-1.801 0-10.733 8.731-19.441 19.477-19.441s19.465 8.696 19.465 19.441c-0.012 0.604-0.059 1.232-0.106 1.872z"></path>
</svg>
