<!-- Generated by IcoMoon.io -->
<svg version="1.1" xmlns="http://www.w3.org/2000/svg" width="252" height="512" viewBox="0 0 252 512">
<title>SolidPawnOnQueenOnPawnExpanded</title>
<path d="M241.602 429.469l-67.556-160.339h14.125c2.203 0 4.26-1.088 5.494-2.913 1.234-1.818 1.486-4.134 0.67-6.177l-62.162-155.607c-1.002-2.522-3.45-4.174-6.164-4.174s-5.156 1.652-6.164 4.174l-62.156 155.601c-0.816 2.043-0.564 4.359 0.67 6.177 1.24 1.825 3.291 2.913 5.493 2.913h14.119l-67.556 160.345c-0.863 2.063-0.643 4.392 0.591 6.243s3.304 2.966 5.527 2.966h66.926l-25.823 64.637c-0.816 2.050-0.564 4.353 0.67 6.183 1.24 1.825 3.291 2.913 5.493 2.913h124.317c2.203 0 4.26-1.088 5.494-2.913s1.486-4.134 0.67-6.183l-25.823-64.637h67.025c2.222 0 4.293-1.115 5.527-2.966s1.453-4.187 0.59-6.243zM136.22 477.3c0 6.024-4.876 10.901-10.894 10.901-6.025 0-10.901-4.87-10.901-10.901 0-0.325 0.020-0.69 0.053-1.035 0-0.053 0.007-0.106 0.013-0.139 0.704-7.312 7.285-20.707 9.833-25.671 0.418-0.803 1.566-0.803 1.984 0 2.535 4.976 9.103 18.412 9.833 25.618 0 0.079 0.013 0.152 0.013 0.219 0.040 0.358 0.066 0.697 0.066 1.009zM112.169 403.56c0-0.325 0.020-0.677 0.053-1.035 0-0.026 0.007-0.067 0.007-0.106 0-0.014 0-0.026 0-0.040 0.704-7.298 7.291-20.714 9.826-25.677 0.126-0.232 0.371-0.252 0.577-0.351 0.517-0.239 1.115-0.219 1.406 0.351 2.534 4.976 9.103 18.418 9.826 25.637 0.013 0.067 0.013 0.139 0.026 0.219 0.026 0.351 0.053 0.69 0.053 0.995 0 6.024-4.876 10.901-10.901 10.901-5.992 0.007-10.874-4.87-10.874-10.894zM93.141 414.434c-5.931-0.093-10.722-4.91-10.722-10.875 0-0.325 0.020-0.677 0.059-1.035 0-0.040 0-0.106 0.013-0.139 0.697-7.298 7.285-20.714 9.826-25.677 0.418-0.803 1.573-0.803 1.984 0 1.652 3.245 4.996 10.079 7.345 16.448 1.248 3.397 2.23 6.675 2.488 9.19 0.013 0.067 0.013 0.139 0.026 0.219 0.033 0.351 0.053 0.69 0.053 0.995 0 6.024-4.877 10.901-10.901 10.901-0.059 0-0.113-0.014-0.172-0.026zM136.201 232.785c0 0.079 0.013 0.146 0.013 0.219 0.033 0.358 0.060 0.69 0.060 1.008 0 6.018-4.876 10.894-10.894 10.894-6.025 0-10.901-4.87-10.901-10.894 0-0.332 0.020-0.69 0.053-1.042 0-0.047 0.007-0.1 0.013-0.139 0.704-7.305 7.285-20.708 9.833-25.663 0.418-0.81 1.566-0.81 1.984 0 2.541 4.97 9.109 18.412 9.839 25.618zM52.721 402.524c0-0.040 0-0.106 0.014-0.139 0.697-7.298 7.285-20.714 9.826-25.677 0.411-0.803 1.573-0.803 1.984 0 2.534 4.976 9.103 18.418 9.833 25.637 0.007 0.067 0.013 0.139 0.020 0.219 0.033 0.351 0.053 0.69 0.053 0.995 0 6.024-4.87 10.901-10.901 10.901-6.011 0-10.888-4.87-10.888-10.901 0.007-0.325 0.020-0.67 0.059-1.035z"></path>
</svg>
