<!-- Generated by IcoMoon.io -->
<svg version="1.1" xmlns="http://www.w3.org/2000/svg" width="512" height="512" viewBox="0 0 512 512">
<title>SolidSouthWestPawn</title>
<path d="M400.364 278.255l-156.952-156.94c-2.772-2.784-6.753-4.005-10.615-3.258-3.839 0.734-7.096 3.341-8.649 6.954l-117.998 274.938c-1.895 4.454-0.924 9.62 2.523 13.067 3.412 3.412 8.601 4.419 13.044 2.5l274.95-117.974c3.613-1.564 6.208-4.81 6.954-8.649 0.758-3.874-0.474-7.843-3.258-10.639zM292.116 258.659c-0.426 0.426-0.889 0.853-1.398 1.256-0.048 0.048-0.118 0.118-0.19 0.166-10.094 8.329-35.352 16.954-44.83 19.974-1.552 0.51-3.009-0.936-2.5-2.5 3.081-9.454 11.752-34.713 19.927-44.758 0.095-0.095 0.166-0.202 0.26-0.296 0.403-0.474 0.794-0.924 1.221-1.339 7.594-7.594 19.904-7.594 27.498 0 7.606 7.594 7.618 19.904 0.012 27.497z"></path>
</svg>
