<!-- Generated by IcoMoon.io -->
<svg version="1.1" xmlns="http://www.w3.org/2000/svg" width="252" height="512" viewBox="0 0 252 512">
<title>SolidNest</title>
<path d="M241.018 503.010l-109.369-259.576c-1.008-2.395-3.364-3.961-5.972-3.961-2.601 0-4.957 1.559-5.965 3.961l-109.362 259.576c-0.842 1.997-0.63 4.286 0.57 6.098 1.201 1.805 3.224 2.9 5.394 2.9h218.732c2.176 0 4.207-1.088 5.401-2.899 1.208-1.812 1.42-4.107 0.571-6.098zM58.089 486.562c-3.364-1.844-5.673-5.381-5.673-9.495 0-0.325 0.020-0.683 0.053-1.048 0.007-0.053 0.007-0.087 0.014-0.139 0.697-7.291 7.285-20.681 9.819-25.644 0.418-0.81 1.572-0.81 1.991 0.014 1.121 2.19 3.025 6.071 4.864 10.298 2.322 5.341 4.545 11.272 4.957 15.3 0.007 0.079 0.013 0.139 0.020 0.212 0.026 0.358 0.046 0.69 0.046 1.009 0 6.011-4.87 10.881-10.881 10.881-1.898 0-3.656-0.531-5.209-1.387zM170.768 499.036l-44.692-104.864-17.802 41.746h-14.086l25.922-60.815c1.015-2.382 3.364-3.928 5.958-3.928s4.936 1.539 5.958 3.928l52.827 123.946-14.086-0.014zM82.133 477.067c0-0.325 0.020-0.683 0.053-1.048 0-0.053 0.007-0.087 0.013-0.139 0.697-7.291 7.278-20.681 9.813-25.644 0.424-0.81 1.573-0.81 1.99 0.014 1.008 1.977 2.647 5.301 4.313 9.030 2.514 5.647 5.069 12.221 5.507 16.56 0.007 0.079 0.013 0.139 0.020 0.212 0.033 0.358 0.053 0.69 0.053 1.009 0 6.011-4.87 10.881-10.881 10.881-2.269 0-4.373-0.69-6.117-1.885-2.867-1.95-4.764-5.241-4.764-8.99zM111.858 477.067c0-0.325 0.020-0.683 0.053-1.048 0.007-0.053 0.007-0.087 0.007-0.139 0.697-7.291 7.285-20.681 9.82-25.644 0.418-0.81 1.573-0.81 1.99 0.014 2.528 4.957 9.090 18.385 9.813 25.591 0.006 0.079 0.013 0.139 0.020 0.212 0.040 0.358 0.060 0.69 0.060 1.009 0 6.011-4.87 10.881-10.888 10.881-6.005 0.007-10.874-4.856-10.874-10.875zM198.589 499.048l-72.904-171.372-46.046 108.242h-14.086l54.167-127.33c1.015-2.389 3.364-3.941 5.958-3.941 2.601 0 4.949 1.546 5.965 3.941l7.325 17.244 73.694 173.21h-14.072z"></path>
</svg>
