<!-- Generated by IcoMoon.io -->
<svg version="1.1" xmlns="http://www.w3.org/2000/svg" width="199" height="512" viewBox="0 0 199 512">
<title>SolidDroneOnPawnOnDrone</title>
<path d="M134.966 361.88h47.34c2.137 0 4.133-1.048 5.355-2.8 1.208-1.765 1.493-4.007 0.723-5.998l-83.002-219.429c-0.962-2.528-3.384-4.2-6.091-4.2-2.694 0-5.115 1.672-6.078 4.2l-83.009 219.429c-0.756 1.997-0.477 4.24 0.736 5.998 1.214 1.752 3.212 2.8 5.348 2.8h47.34l-53.331 140.978c-0.77 2.037-0.491 4.326 0.749 6.118 1.24 1.798 3.277 2.866 5.454 2.866h165.58c2.176 0 4.213-1.062 5.454-2.866 1.248-1.791 1.519-4.080 0.75-6.118l-53.318-140.978zM50.346 326.124c0.007-0.053 0.007-0.106 0.014-0.139 0.703-7.325 7.312-20.774 9.853-25.736 0.425-0.816 1.579-0.816 1.997 0 0.339 0.663 0.763 1.506 1.221 2.435 2.236 4.538 5.567 11.777 7.391 17.768 0.611 2.024 1.082 3.914 1.24 5.481 0.007 0.079 0.013 0.152 0.020 0.219 0.033 0.351 0.053 0.697 0.053 1.009 0 4.837-3.151 8.864-7.491 10.317-1.088 0.365-2.23 0.611-3.437 0.611-3.696 0-6.947-1.851-8.924-4.664-1.248-1.778-1.997-3.914-1.997-6.257 0.007-0.325 0.026-0.677 0.059-1.041zM103.889 476.736c0 6.011-4.883 10.888-10.907 10.888-6.011 0-10.895-4.87-10.895-10.888 0-0.339 0.020-0.69 0.059-1.048 0-0.040 0-0.093 0.013-0.139 0.697-7.298 7.285-20.707 9.826-25.657 0.412-0.816 1.573-0.816 1.984 0 2.541 4.963 9.109 18.399 9.833 25.618 0.013 0.079 0.013 0.139 0.026 0.219 0.033 0.345 0.059 0.683 0.059 1.009zM91.043 338.087c-1.386 0-2.707-0.286-3.934-0.757-4.081-1.579-6.987-5.52-6.987-10.164 0-0.325 0.020-0.677 0.046-1.035 0.007-0.053 0.007-0.106 0.013-0.139 0.704-7.325 7.311-20.774 9.859-25.736 0.418-0.816 1.579-0.816 1.997 0 1.154 2.262 3.151 6.317 5.049 10.716 2.269 5.262 4.406 11.034 4.803 14.969 0.013 0.079 0.013 0.152 0.026 0.219 0.040 0.351 0.053 0.697 0.053 1.009 0 6.038-4.89 10.921-10.927 10.921zM52.389 475.68c0.007-0.040 0.007-0.093 0.020-0.139 0.697-7.298 7.285-20.707 9.826-25.657 0.418-0.816 1.572-0.816 1.984 0 2.534 4.963 9.103 18.399 9.826 25.618 0.013 0.079 0.013 0.139 0.026 0.219 0.033 0.351 0.053 0.69 0.053 1.009 0 6.011-4.876 10.888-10.901 10.888-6.011 0-10.895-4.87-10.895-10.888 0.007-0.332 0.026-0.683 0.059-1.048zM138.099 348.882l-38.814-106.941-15.612 43.073h-13.827l23.341-64.351c0.929-2.581 3.37-4.293 6.104-4.293 2.747 0 5.182 1.719 6.117 4.293l46.497 128.219h-13.807z"></path>
</svg>
