<!-- Generated by IcoMoon.io -->
<svg version="1.1" xmlns="http://www.w3.org/2000/svg" width="199" height="512" viewBox="0 0 199 512">
<title>SolidDroneOnPawnOnDroneExpanded</title>
<path d="M149.311 399.957h10.881c2.203 0 4.253-1.088 5.494-2.913 1.234-1.812 1.48-4.134 0.663-6.183l-23.567-58.984h39.311c2.176 0 4.22-1.062 5.454-2.866 1.248-1.791 1.519-4.080 0.75-6.118l-82.784-218.818c-0.975-2.588-3.45-4.286-6.21-4.286s-5.228 1.705-6.21 4.286l-82.784 218.825c-0.77 2.037-0.491 4.326 0.749 6.118 1.24 1.798 3.277 2.866 5.454 2.866h36.744l-23.561 58.984c-0.816 2.050-0.57 4.365 0.663 6.183 1.247 1.825 3.291 2.913 5.494 2.913h13.443l-38.986 103.053c-0.77 2.037-0.491 4.326 0.749 6.118 1.24 1.798 3.277 2.867 5.454 2.867h165.573c2.176 0 4.22-1.062 5.454-2.866 1.248-1.791 1.519-4.080 0.75-6.118l-38.98-103.060zM103.895 476.901c0 6.011-4.876 10.881-10.901 10.881-6.011 0-10.895-4.863-10.895-10.881 0-0.339 0.020-0.69 0.059-1.048 0-0.040 0-0.093 0.013-0.139 0.697-7.298 7.285-20.707 9.826-25.657 0.412-0.816 1.573-0.816 1.984 0 2.534 4.963 9.103 18.399 9.826 25.618 0.013 0.079 0.013 0.139 0.026 0.219 0.033 0.345 0.059 0.683 0.059 1.009zM86.538 363.803c0-0.040 0.013-0.093 0.013-0.139 0.71-7.298 7.285-20.707 9.833-25.657 0.418-0.816 1.566-0.816 1.984 0 2.541 4.963 9.117 18.399 9.84 25.618 0 0.079 0.013 0.139 0.013 0.219 0.040 0.351 0.067 0.69 0.067 1.009 0 6.011-4.89 10.888-10.901 10.888-6.025 0-10.901-4.87-10.901-10.888 0.007-0.339 0.033-0.683 0.053-1.048zM103.843 295.769c0.026 0.351 0.053 0.69 0.053 1.009 0 3.61-1.785 6.781-4.492 8.764-0.1 0.067-0.179 0.152-0.278 0.226-1.745 1.188-3.855 1.885-6.13 1.885-2.959 0-5.639-1.188-7.603-3.105-2.023-1.977-3.291-4.731-3.291-7.776 0-0.339 0.020-0.69 0.059-1.048 0-0.040 0-0.093 0.013-0.139 0.013-0.166 0.073-0.378 0.093-0.544 0.942-7.392 7.246-20.283 9.734-25.113 0.079-0.166 0.266-0.146 0.398-0.245 0.524-0.398 1.26-0.418 1.585 0.245 1.102 2.149 2.953 5.918 4.764 10.058 2.362 5.408 4.657 11.471 5.069 15.565 0.013 0.079 0.013 0.139 0.026 0.219zM52.402 295.729c0.007-0.040 0.007-0.093 0.020-0.139 0.697-7.298 7.285-20.707 9.826-25.657 0.418-0.816 1.572-0.816 1.984 0 1.639 3.198 4.943 9.939 7.285 16.249 1.281 3.464 2.289 6.808 2.548 9.368 0.013 0.079 0.013 0.139 0.026 0.219 0.033 0.351 0.053 0.69 0.053 1.009 0 6.011-4.876 10.881-10.901 10.881-0.099 0-0.193-0.026-0.292-0.033-5.879-0.152-10.602-4.937-10.602-10.848 0-0.332 0.020-0.683 0.053-1.048zM52.402 475.853c0.007-0.040 0.007-0.093 0.020-0.139 0.697-7.298 7.285-20.707 9.826-25.657 0.418-0.816 1.572-0.816 1.984 0 2.534 4.963 9.103 18.399 9.826 25.618 0.013 0.079 0.013 0.139 0.026 0.219 0.033 0.351 0.053 0.69 0.053 1.009 0 6.011-4.876 10.881-10.901 10.881-6.011 0-10.895-4.863-10.895-10.881 0.007-0.339 0.026-0.69 0.059-1.048z"></path>
</svg>
