<!-- Generated by IcoMoon.io -->
<svg version="1.1" xmlns="http://www.w3.org/2000/svg" width="252" height="512" viewBox="0 0 252 512">
<title>SolidPawnOnQueenOnDrone</title>
<path d="M240.641 503.017l-63.542-150.81h10.563c2.203 0 4.26-1.088 5.494-2.913s1.486-4.134 0.67-6.183l-62.169-155.607c-1.002-2.522-3.45-4.173-6.164-4.173s-5.156 1.652-6.164 4.173l-62.156 155.607c-0.816 2.050-0.564 4.353 0.67 6.183 1.24 1.825 3.291 2.913 5.493 2.913h10.563l-63.549 150.81c-0.842 2.010-0.63 4.286 0.57 6.091 1.201 1.798 3.218 2.893 5.387 2.893h218.381c2.156 0 4.186-1.088 5.381-2.893 1.188-1.805 1.413-4.080 0.571-6.091zM58.008 486.615c-3.357-1.844-5.666-5.381-5.666-9.488 0-0.325 0.020-0.683 0.053-1.048 0.007-0.046 0.007-0.087 0.014-0.139 0.697-7.279 7.265-20.647 9.8-25.598 0.239-0.458 0.684-0.591 1.121-0.524 0.339 0.046 0.683 0.179 0.862 0.538 1.121 2.196 3.025 6.065 4.856 10.291 2.316 5.334 4.538 11.24 4.943 15.26 0.007 0.079 0.013 0.139 0.020 0.212 0.033 0.358 0.053 0.69 0.053 1.009 0 5.952-4.797 10.781-10.735 10.854-0.040 0-0.087 0.014-0.126 0.014-1.891 0-3.642-0.531-5.195-1.38zM82.020 477.127c0-0.325 0.013-0.683 0.053-1.048 0-0.046 0.007-0.087 0.013-0.139 0.697-7.279 7.272-20.647 9.799-25.598 0.424-0.81 1.573-0.81 1.984 0.014 1.008 1.971 2.647 5.295 4.306 9.017 2.508 5.633 5.056 12.202 5.501 16.527 0.007 0.079 0.013 0.139 0.020 0.212 0.033 0.358 0.053 0.69 0.053 1.009 0 5.998-4.864 10.868-10.862 10.868-2.263 0-4.365-0.697-6.104-1.885-2.879-1.938-4.764-5.235-4.764-8.977zM122.553 487.995c-5.998 0-10.862-4.863-10.862-10.868 0-0.325 0.020-0.683 0.053-1.048 0.007-0.046 0.007-0.087 0.007-0.139 0.697-7.279 7.272-20.647 9.806-25.598 0.418-0.81 1.573-0.81 1.984 0.014 2.528 4.95 9.070 18.352 9.799 25.551 0.006 0.079 0.013 0.139 0.020 0.212 0.033 0.358 0.053 0.69 0.053 1.009 0 5.998-4.857 10.868-10.862 10.868zM79.519 436.057h-14.052l35.669-83.851h14.059l-35.675 83.851zM135.683 315.853c0 0.079 0.013 0.152 0.013 0.219 0.033 0.365 0.060 0.697 0.060 1.009 0 0.544-0.087 1.068-0.159 1.592-0.769 5.255-5.262 9.302-10.728 9.302-4.797 0-8.817-3.112-10.278-7.398-0.371-1.101-0.624-2.269-0.624-3.497 0-0.325 0.020-0.69 0.053-1.035 0-0.053 0.007-0.106 0.013-0.139 0.704-7.312 7.285-20.707 9.833-25.671 0.418-0.803 1.566-0.803 1.984 0 2.534 4.976 9.103 18.418 9.833 25.618zM198.283 499.068l-62.481-146.863h14.059l62.481 146.863h-14.060z"></path>
</svg>
