<!-- Generated by IcoMoon.io -->
<svg version="1.1" xmlns="http://www.w3.org/2000/svg" width="199" height="512" viewBox="0 0 199 512">
<title>SolidDrone</title>
<path d="M188.264 503.017l-82.784-218.832c-0.975-2.594-3.45-4.286-6.21-4.286s-5.228 1.699-6.21 4.286l-82.784 218.832c-0.77 2.037-0.491 4.326 0.749 6.118 1.24 1.798 3.277 2.866 5.454 2.866h165.573c2.176 0 4.22-1.062 5.454-2.866 1.248-1.785 1.526-4.080 0.756-6.118zM52.369 475.846c0.007-0.040 0.007-0.093 0.020-0.139 0.697-7.298 7.285-20.707 9.826-25.657 0.418-0.816 1.572-0.816 1.984 0 2.534 4.963 9.103 18.399 9.826 25.618 0.013 0.079 0.013 0.139 0.026 0.219 0.033 0.351 0.053 0.69 0.053 1.009 0 6.011-4.876 10.888-10.901 10.888-6.011 0-10.895-4.87-10.895-10.888 0.007-0.339 0.026-0.69 0.059-1.048zM92.961 487.783c-6.011 0-10.895-4.87-10.895-10.888 0-0.339 0.020-0.69 0.059-1.048 0-0.040 0-0.093 0.013-0.139 0.697-7.298 7.285-20.707 9.826-25.657 0.412-0.816 1.573-0.816 1.984 0 2.534 4.963 9.103 18.399 9.826 25.618 0.013 0.079 0.013 0.139 0.026 0.219 0.026 0.351 0.053 0.69 0.053 1.009 0.007 6.011-4.876 10.888-10.894 10.888z"></path>
</svg>
