<!-- Generated by IcoMoon.io -->
<svg version="1.1" xmlns="http://www.w3.org/2000/svg" width="201" height="512" viewBox="0 0 201 512">
<title>SolidPawnPointingRight</title>
<path d="M188.623 500.555l-121.391-115.513c-1.593-1.519-3.835-2.143-5.971-1.678-2.169 0.478-3.941 1.971-4.757 4.014l-46.178 115.427c-0.816 2.050-0.57 4.353 0.677 6.183 1.234 1.825 3.277 2.913 5.48 2.913l167.557 0.093c2.714 0 5.155-1.659 6.171-4.173 1.002-2.522 0.378-5.394-1.585-7.265zM90.334 469.623c-5.553 0.531-20.436 1.659-27.489-0.404-0.040-0.014-0.093-0.026-0.139-0.040-0.331-0.106-0.67-0.205-0.975-0.339-5.587-2.229-8.3-8.579-6.057-14.166 2.223-5.587 8.566-8.307 14.152-6.077 0.299 0.12 0.591 0.272 0.915 0.438 0.067 0.026 0.132 0.067 0.206 0.093 6.422 3.357 16.448 14.451 20.13 18.651 0.584 0.69 0.159 1.772-0.743 1.844z"></path>
</svg>
