<!-- Generated by IcoMoon.io -->
<svg version="1.1" xmlns="http://www.w3.org/2000/svg" width="512" height="512" viewBox="0 0 512 512">
<title>SolidEastQueen</title>
<path d="M492.582 254.904l-463.936-195.478c-3.672-1.529-7.843-1.138-11.148 1.066s-5.296 5.9-5.296 9.857v390.957c0 3.981 1.991 7.677 5.296 9.88s7.476 2.594 11.148 1.043l463.936-195.49c4.384-1.848 7.25-6.161 7.25-10.923s-2.867-9.063-7.25-10.911zM122.856 262.332c-8.886 4.538-32.876 16.266-45.766 17.558-0.118 0.024-0.249 0.024-0.391 0.048-0.628 0.048-1.232 0.095-1.777 0.095-10.757 0-19.465-8.719-19.465-19.465s8.696-19.465 19.465-19.465c0.581 0 1.209 0.048 1.848 0.095 0.071 0.024 0.189 0.024 0.249 0.024 13.032 1.268 36.975 13.032 45.837 17.558 1.433 0.747 1.433 2.832 0 3.554zM122.856 209.209c-8.886 4.537-32.876 16.266-45.766 17.558-0.118 0.024-0.249 0.024-0.391 0.048-0.628 0.048-1.232 0.095-1.777 0.095-10.757 0-19.465-8.72-19.465-19.453s8.696-19.465 19.465-19.465c0.581 0 1.209 0.048 1.848 0.119 0.071 0 0.189 0 0.249 0.024 13.032 1.244 36.975 13.008 45.837 17.534 1.433 0.758 1.433 2.82 0 3.542zM122.856 156.075c-8.886 4.537-32.876 16.266-45.766 17.558-0.118 0.024-0.249 0.024-0.391 0.048-0.628 0.048-1.232 0.095-1.777 0.095-10.757 0-19.465-8.696-19.465-19.465 0-10.733 8.696-19.441 19.465-19.441 0.581 0 1.209 0.024 1.848 0.095 0.071 0 0.189 0 0.249 0.024 13.032 1.244 36.975 13.008 45.837 17.534 1.433 0.758 1.433 2.844 0 3.554z"></path>
</svg>
