<!-- Generated by IcoMoon.io -->
<svg version="1.1" xmlns="http://www.w3.org/2000/svg" width="252" height="512" viewBox="0 0 252 512">
<title>SolidQueenOnPawnOnDrone</title>
<path d="M241.43 363.731l-109.542-259.981c-1.015-2.402-3.377-3.968-5.984-3.968s-4.963 1.566-5.972 3.968l-109.549 259.981c-0.842 2.010-0.63 4.286 0.57 6.104s3.231 2.906 5.407 2.906h69.838l-49.284 130.276c-0.77 2.037-0.491 4.32 0.749 6.118s3.277 2.866 5.454 2.866h165.566c2.176 0 4.22-1.068 5.454-2.866 1.248-1.798 1.519-4.080 0.75-6.118l-49.284-130.282h69.826c2.176 0 4.207-1.088 5.407-2.906s1.44-4.087 0.59-6.098zM78.955 476.888c0-0.332 0.020-0.69 0.053-1.041 0.007-0.046 0.007-0.099 0.020-0.139 0.697-7.305 7.285-20.707 9.826-25.663 0.418-0.81 1.573-0.81 1.984 0 2.534 4.969 9.103 18.405 9.826 25.618 0.013 0.079 0.013 0.146 0.026 0.219 0.033 0.358 0.053 0.69 0.053 1.009 0 6.018-4.876 10.894-10.901 10.894-6.004 0-10.888-4.877-10.888-10.894zM108.713 476.888c0-0.332 0.020-0.69 0.059-1.041 0-0.046 0-0.099 0.013-0.139 0.697-7.305 7.285-20.707 9.826-25.663 0.412-0.81 1.573-0.81 1.984 0 2.534 4.969 9.103 18.405 9.826 25.618 0.013 0.079 0.013 0.146 0.026 0.219 0.026 0.358 0.053 0.69 0.053 1.009 0 6.018-4.876 10.894-10.901 10.894-6.011 0-10.888-4.877-10.888-10.894zM58.194 347.269c-3.37-1.844-5.679-5.394-5.679-9.514 0-0.332 0.020-0.69 0.053-1.055 0.007-0.053 0.007-0.087 0.014-0.139 0.697-7.305 7.291-20.721 9.833-25.683 0.418-0.81 1.579-0.81 1.991 0.014 1.121 2.203 3.032 6.077 4.876 10.324 2.322 5.354 4.552 11.279 4.963 15.313 0.007 0.079 0.013 0.139 0.020 0.212 0.033 0.358 0.046 0.697 0.046 1.015 0 6.011-4.876 10.894-10.895 10.894-1.904 0-3.663-0.531-5.221-1.38zM87.063 346.765c-2.879-1.95-4.77-5.262-4.77-9.003 0-0.332 0.020-0.69 0.053-1.055 0-0.053 0.007-0.087 0.013-0.139 0.697-7.305 7.291-20.721 9.833-25.683 0.213-0.404 0.604-0.611 1.002-0.611 0.391 0.007 0.783 0.205 0.989 0.623 1.008 1.977 2.654 5.308 4.32 9.043 1.44 3.224 2.847 6.735 3.908 9.979 0.796 2.435 1.42 4.744 1.612 6.608 0.007 0.079 0.013 0.139 0.020 0.212 0.033 0.358 0.053 0.697 0.053 1.015 0 5.255-3.729 9.64-8.685 10.662-0.716 0.139-1.453 0.226-2.216 0.226-2.276 0.007-4.385-0.69-6.13-1.877zM171.060 359.756l-44.766-105.036-17.828 41.833h-14.106l25.969-60.922c1.022-2.382 3.37-3.941 5.965-3.941s4.95 1.559 5.965 3.941l52.92 124.132-14.119-0.007zM112.056 337.755c0-0.332 0.020-0.69 0.053-1.055 0.007-0.053 0.007-0.087 0.013-0.139 0.697-7.305 7.291-20.721 9.833-25.683 0.391-0.757 1.386-0.736 1.865-0.067 0.033 0.040 0.106 0.026 0.132 0.079 2.528 4.963 9.097 18.405 9.826 25.63 0.006 0.079 0.013 0.139 0.020 0.212 0.040 0.358 0.060 0.697 0.060 1.015 0 6.011-4.876 10.894-10.901 10.894-4.99 0-9.15-3.377-10.444-7.949-0.272-0.935-0.458-1.911-0.458-2.939z"></path>
</svg>
