<!-- Generated by IcoMoon.io -->
<svg version="1.1" xmlns="http://www.w3.org/2000/svg" width="512" height="512" viewBox="0 0 512 512">
<title>SolidTopDownPawnOnDrone</title>
<path d="M410.103 95.879h-308.146c-6.729 0-12.179 5.45-12.179 12.179v315.668c0 6.717 5.45 12.167 12.179 12.167h308.134c6.717 0 12.179-5.45 12.179-12.167v-315.668c0.024-6.729-5.438-12.179-12.167-12.179zM372.404 399.002c-2.654 0.889-5.426 1.493-8.376 1.493h-216.211c-2.962 0-5.757-0.604-8.423-1.505-7.89-2.69-14.051-8.945-16.598-16.906-0.805-2.536-1.362-5.189-1.362-7.985v-216.211c0-2.95 0.593-5.734 1.493-8.388 2.677-7.902 8.921-14.075 16.882-16.621 2.547-0.817 5.201-1.386 8.020-1.386h216.211c2.796 0 5.45 0.557 7.985 1.363 7.95 2.547 14.216 8.708 16.906 16.598 0.901 2.666 1.505 5.462 1.505 8.423v216.211c0 2.808-0.557 5.485-1.375 8.033-2.594 7.962-8.755 14.205-16.657 16.882z"></path>
<path d="M364.029 155.198h-216.211c-1.481 0-2.701 1.208-2.701 2.701v216.211c0 1.481 1.208 2.701 2.701 2.701h216.211c1.481 0 2.701-1.221 2.701-2.701v-216.211c-0.012-1.493-1.221-2.701-2.701-2.701zM266.111 355.664c-2.998 1.896-6.528 3.033-10.331 3.033-5.118 0-9.738-2.014-13.209-5.248-3.815-3.554-6.244-8.577-6.244-14.205 0-0.154 0.024-0.32 0.036-0.474 0.012-0.45 0.036-0.901 0.083-1.375 0-0.071 0-0.19 0.024-0.249 1.244-13.032 13.008-36.975 17.534-45.837 0.758-1.433 2.819-1.433 3.542 0 4.336 8.495 15.14 30.708 17.226 43.918 0.095 0.604 0.26 1.279 0.32 1.848 0.024 0.118 0.024 0.249 0.048 0.391 0.048 0.628 0.095 1.232 0.095 1.777-0.012 6.942-3.673 12.985-9.123 16.42z"></path>
</svg>
