<!-- Generated by IcoMoon.io -->
<svg version="1.1" xmlns="http://www.w3.org/2000/svg" width="512" height="512" viewBox="0 0 512 512">
<title>SolidNorthWestDrone</title>
<path d="M453.096 240.143c-0.675-3.815-3.235-7.073-6.753-8.672l-380.84-171.808c-4.502-2.014-9.762-1.054-13.245 2.428s-4.455 8.755-2.417 13.245l171.773 380.84c1.6 3.543 4.833 6.089 8.672 6.776s7.748-0.533 10.508-3.281l209.043-209.020c2.748-2.761 3.981-6.67 3.258-10.508zM222.81 321.213c9.466 3.080 34.736 11.728 44.747 19.927 0.118 0.095 0.213 0.166 0.32 0.249 0.486 0.391 0.924 0.782 1.339 1.209 7.594 7.594 7.57 19.927-0.024 27.509-7.594 7.594-19.927 7.618-27.509 0.024-0.415-0.438-0.829-0.901-1.244-1.386-0.048-0.071-0.095-0.142-0.166-0.213-8.328-10.118-16.941-35.352-19.998-44.794-0.474-1.599 0.983-3.033 2.536-2.524zM306.795 332.527c-7.594 7.594-19.927 7.618-27.509 0.024-0.414-0.438-0.829-0.901-1.244-1.41-0.048-0.048-0.118-0.118-0.166-0.19-8.341-10.118-16.942-35.352-19.998-44.794-0.51-1.575 0.971-3.033 2.524-2.524 9.466 3.080 34.736 11.728 44.758 19.95 0.118 0.071 0.19 0.166 0.296 0.237 0.486 0.414 0.948 0.805 1.339 1.232 7.582 7.582 7.582 19.892 0 27.474z"></path>
</svg>
