<!-- Generated by IcoMoon.io -->
<svg version="1.1" xmlns="http://www.w3.org/2000/svg" width="252" height="512" viewBox="0 0 252 512">
<title>SolidDroneOnPawnOnQueen</title>
<path d="M241.496 502.851l-71.895-170.643h39.319c2.137 0 4.147-1.048 5.355-2.8 1.221-1.765 1.493-4.007 0.723-5.998l-83.009-219.429c-0.962-2.528-3.37-4.2-6.084-4.2-2.701 0-5.122 1.672-6.084 4.2l-7.524 19.885-75.472 199.544c-0.757 1.997-0.477 4.24 0.736 5.998 1.214 1.752 3.212 2.8 5.348 2.8h39.305l-71.895 170.643c-0.863 2.063-0.643 4.392 0.591 6.243s3.304 2.966 5.527 2.966h218.951c2.222 0 4.293-1.115 5.527-2.966s1.446-4.18 0.584-6.243zM76.965 296.459c0.007-0.053 0.007-0.106 0.013-0.139 0.704-7.325 7.311-20.774 9.853-25.736 0.424-0.816 1.579-0.816 1.997 0 0.338 0.663 0.763 1.506 1.221 2.435 2.236 4.538 5.567 11.777 7.391 17.768 0.345 1.154 0.624 2.236 0.85 3.264 0.172 0.776 0.319 1.539 0.391 2.216 0.007 0.079 0.013 0.152 0.020 0.219 0.033 0.351 0.053 0.697 0.053 1.009 0 4.2-2.448 7.69-5.925 9.514-0.524 0.272-1.002 0.617-1.566 0.803-1.088 0.365-2.23 0.611-3.437 0.611-3.695 0-6.947-1.851-8.924-4.664-1.248-1.778-1.997-3.914-1.997-6.257 0.007-0.332 0.026-0.683 0.059-1.041zM106.749 297.495c0-0.325 0.020-0.677 0.046-1.035 0.007-0.053 0.007-0.106 0.013-0.139 0.704-7.325 7.311-20.774 9.859-25.736 0.418-0.816 1.579-0.816 1.997 0 0.544 1.075 1.294 2.587 2.117 4.286 2.999 6.237 7.172 15.724 7.743 21.397 0.013 0.079 0.013 0.152 0.026 0.219 0.026 0.351 0.053 0.697 0.053 1.009 0 6.038-4.89 10.921-10.927 10.921-3.742 0-7.053-1.891-9.010-4.771-1.214-1.745-1.918-3.861-1.918-6.151zM133.858 476.948c0 6.024-4.876 10.901-10.901 10.901-6.011 0-10.895-4.87-10.895-10.901 0-0.325 0.020-0.677 0.053-1.035 0.007-0.040 0.007-0.106 0.013-0.139 0.704-7.298 7.291-20.707 9.826-25.671 0.418-0.803 1.579-0.803 1.99 0 2.534 4.976 9.103 18.412 9.826 25.63 0.013 0.067 0.013 0.139 0.026 0.219 0.033 0.345 0.060 0.683 0.060 0.995zM104.101 476.948c0 6.024-4.876 10.901-10.901 10.901-6.011 0-10.895-4.87-10.895-10.901 0-0.325 0.020-0.677 0.059-1.035 0-0.040 0-0.106 0.013-0.139 0.697-7.298 7.285-20.707 9.826-25.671 0.418-0.803 1.573-0.803 1.984 0 2.534 4.976 9.103 18.412 9.826 25.63 0.013 0.067 0.013 0.139 0.026 0.219 0.046 0.345 0.059 0.683 0.059 0.995zM52.621 475.913c0-0.040 0-0.106 0.014-0.139 0.697-7.298 7.285-20.707 9.826-25.671 0.411-0.803 1.572-0.803 1.984 0 2.534 4.976 9.103 18.412 9.833 25.63 0.007 0.067 0.013 0.139 0.020 0.219 0.033 0.351 0.053 0.69 0.053 0.995 0 6.024-4.87 10.901-10.901 10.901-6.011 0-10.888-4.87-10.888-10.901 0.007-0.325 0.020-0.677 0.059-1.035zM164.711 319.211l-38.8-106.941-15.618 43.067h-13.827l23.341-64.345c0.929-2.581 3.371-4.293 6.104-4.293 2.74 0 5.189 1.719 6.104 4.293l46.497 128.219h-13.8z"></path>
</svg>
