<!-- Generated by IcoMoon.io -->
<svg version="1.1" xmlns="http://www.w3.org/2000/svg" width="512" height="512" viewBox="0 0 512 512">
<title>SolidNorthEastDrone</title>
<path d="M459.363 61.925c-3.495-3.483-8.767-4.443-13.257-2.417l-380.851 171.761c-3.542 1.6-6.102 4.833-6.776 8.661-0.722 3.851 0.522 7.748 3.258 10.496l209.055 209.055c2.748 2.736 6.647 3.981 10.509 3.258 3.815-0.687 7.061-3.235 8.661-6.764l171.82-380.804c2.014-4.49 1.066-9.762-2.417-13.245zM151.313 251.362c0.415-0.415 0.9-0.829 1.386-1.256 0.071-0.036 0.142-0.107 0.213-0.154 10.106-8.316 35.352-16.941 44.794-19.998 1.576-0.486 3.033 0.971 2.512 2.512-3.069 9.478-11.717 34.748-19.927 44.77-0.083 0.118-0.166 0.202-0.249 0.308-0.415 0.462-0.805 0.924-1.208 1.339-7.606 7.594-19.927 7.57-27.509-0.024-7.594-7.594-7.606-19.915-0.012-27.498zM237.785 270.033c-3.056 9.49-11.717 34.748-19.927 44.77-0.083 0.118-0.166 0.202-0.249 0.308-0.403 0.474-0.794 0.936-1.22 1.327-7.594 7.606-19.904 7.594-27.498-0.012-7.594-7.594-7.606-19.915-0.012-27.498 0.415-0.414 0.9-0.829 1.41-1.244 0.048-0.048 0.119-0.118 0.19-0.166 10.094-8.329 35.34-16.954 44.794-19.998 1.564-0.498 3.044 0.983 2.512 2.512z"></path>
</svg>
