<!-- Generated by IcoMoon.io -->
<svg version="1.1" xmlns="http://www.w3.org/2000/svg" width="315" height="512" viewBox="0 0 315 512">
<title>SolidDronePointingLeft</title>
<path d="M304.617 501.295l-69.738-185.022c-0.919-2.449-2.98-4.271-5.507-4.889-2.528-0.642-5.19 0.008-7.139 1.736l-209.689 184.69c-2.472 2.187-3.336 5.666-2.171 8.764 1.165 3.082 4.104 5.119 7.409 5.119l279.419 0.309c2.607 0.016 5.048-1.268 6.522-3.408 1.498-2.132 1.839-4.873 0.896-7.298zM184.887 393.467c4.469-4.921 16.696-17.94 24.548-21.791 0.048-0.048 0.111-0.063 0.159-0.079 0.373-0.182 0.776-0.373 1.133-0.507 6.751-2.52 14.247 0.863 16.775 7.599 2.536 6.719-0.84 14.224-7.567 16.759-0.364 0.127-0.745 0.245-1.165 0.356-0.071 0.016-0.15 0.048-0.254 0.063-8.359 2.243-26.156 0.555-32.765-0.182-1.094-0.111-1.577-1.411-0.863-2.219zM232.454 428.712c-0.364 0.127-0.753 0.245-1.157 0.373-0.079 0-0.167 0.016-0.269 0.048-8.368 2.226-26.141 0.523-32.757-0.182-1.085-0.127-1.569-1.426-0.848-2.226 4.485-4.921 16.679-17.94 24.548-21.791 0.064-0.031 0.111-0.048 0.167-0.079 0.373-0.182 0.785-0.356 1.125-0.499 6.743-2.536 14.247 0.863 16.767 7.583 2.52 6.712-0.848 14.216-7.575 16.775z"></path>
</svg>
