<!-- Generated by IcoMoon.io -->
<svg version="1.1" xmlns="http://www.w3.org/2000/svg" width="252" height="512" viewBox="0 0 252 512">
<title>SolidQueenOnPawnOnQueen</title>
<path d="M241.496 502.784l-54.791-130.043h48.74c2.176 0 4.207-1.088 5.407-2.906s1.42-4.094 0.571-6.104l-109.542-259.981c-1.015-2.402-3.377-3.968-5.984-3.968s-4.963 1.566-5.972 3.968l-109.542 259.981c-0.842 2.010-0.63 4.286 0.57 6.104s3.231 2.906 5.407 2.906h48.746l-54.791 130.043c-0.431 1.029-0.591 2.13-0.491 3.204 0.093 1.095 0.451 2.163 1.082 3.112 1.234 1.851 3.304 2.966 5.527 2.966h218.951c2.222 0 4.293-1.115 5.527-2.966 0.631-0.949 0.982-2.017 1.075-3.112 0.1-1.068-0.053-2.17-0.491-3.204zM63.416 348.649c-1.904 0-3.663-0.531-5.221-1.38-3.37-1.844-5.679-5.394-5.679-9.514 0-0.332 0.020-0.69 0.053-1.055 0.007-0.053 0.007-0.087 0.014-0.139 0.697-7.305 7.291-20.721 9.833-25.683 0.418-0.81 1.579-0.81 1.991 0.014 1.121 2.203 3.032 6.077 4.876 10.324 2.322 5.354 4.552 11.279 4.963 15.313 0.007 0.079 0.013 0.139 0.020 0.212 0.033 0.358 0.046 0.697 0.046 1.015 0 6.018-4.876 10.894-10.895 10.894zM74.35 476.954c0 6.018-4.87 10.901-10.901 10.901-6.011 0-10.888-4.877-10.888-10.901 0-0.014 0-0.033 0-0.046s0-0.020 0-0.026c0-0.332 0.014-0.683 0.053-1.035 0-0.046 0-0.106 0.014-0.146 0.697-7.298 7.285-20.707 9.826-25.663 0.411-0.81 1.572-0.81 1.984 0 2.534 4.969 9.103 18.412 9.833 25.624 0.007 0.073 0.013 0.146 0.020 0.219 0.033 0.351 0.053 0.69 0.053 1.002 0 0.007 0 0.014 0 0.026s0.007 0.033 0.007 0.046zM82.339 336.7c0-0.053 0.007-0.087 0.013-0.139 0.491-5.109 3.841-13.137 6.695-19.241 1.228-2.634 2.376-4.943 3.138-6.442 0.424-0.81 1.579-0.81 1.99 0.014 1.008 1.977 2.654 5.308 4.32 9.043 0.55 1.248 1.108 2.548 1.645 3.848 0.007 0.014 0.007 0.026 0.013 0.040 1.891 4.591 3.516 9.315 3.862 12.699 0.007 0.079 0.013 0.139 0.020 0.212 0.033 0.358 0.053 0.697 0.053 1.015 0 6.011-4.877 10.894-10.901 10.894-1.141 0-2.243-0.173-3.278-0.505-0.007-0.007-0.013-0.007-0.026-0.014-0.299-0.099-0.55-0.286-0.836-0.411-0.683-0.279-1.38-0.544-1.984-0.962-2.88-1.95-4.77-5.262-4.77-9.003-0.007-0.325 0.013-0.677 0.046-1.048zM104.101 476.954c0 6.018-4.876 10.901-10.901 10.901-6.011 0-10.895-4.877-10.895-10.901 0-0.014 0-0.033 0-0.046 0-0.007 0-0.020 0-0.026 0-0.332 0.020-0.683 0.059-1.035 0-0.046 0-0.106 0.013-0.146 0.697-7.298 7.285-20.707 9.826-25.663 0.418-0.81 1.573-0.81 1.984 0 2.534 4.969 9.103 18.412 9.826 25.624 0.013 0.073 0.013 0.146 0.026 0.219 0.033 0.351 0.053 0.69 0.053 1.002 0 0.007 0 0.014 0 0.026s0.007 0.033 0.007 0.046zM133.858 476.908c0 0.014 0 0.033 0 0.046 0 6.018-4.876 10.901-10.901 10.901-6.011 0-10.895-4.877-10.895-10.901 0-0.014 0-0.033 0-0.046s0-0.020 0-0.026c0-0.332 0.020-0.683 0.053-1.035 0.007-0.046 0.007-0.106 0.013-0.146 0.704-7.298 7.291-20.707 9.826-25.663 0.418-0.81 1.579-0.81 1.99 0 2.534 4.969 9.103 18.412 9.826 25.624 0.013 0.073 0.013 0.146 0.026 0.219 0.026 0.351 0.053 0.69 0.053 1.002 0.006 0.007 0.006 0.014 0.006 0.026zM122.957 348.649c-6.018 0-10.901-4.877-10.901-10.894 0-0.332 0.020-0.69 0.053-1.055 0.007-0.053 0.007-0.087 0.013-0.139 0.697-7.305 7.291-20.721 9.833-25.683 0.418-0.81 1.579-0.81 1.99 0.014 2.528 4.963 9.096 18.405 9.826 25.63 0.006 0.079 0.013 0.139 0.020 0.212 0.040 0.358 0.060 0.697 0.060 1.015 0.006 6.024-4.876 10.901-10.894 10.901zM171.034 359.69l-6.171-14.471-38.569-90.507-17.828 41.833h-11.252l22.578-53.583c1.035-2.462 3.45-4.060 6.118-4.060s5.083 1.599 6.118 4.060l49.178 116.727h-10.172z"></path>
</svg>
