<!-- Generated by IcoMoon.io -->
<svg version="1.1" xmlns="http://www.w3.org/2000/svg" width="252" height="512" viewBox="0 0 252 512">
<title>SolidDroneOnQueenOnPawnExpanded</title>
<path d="M241.496 430.736l-41.673-98.913h8.817c2.176 0 4.22-1.062 5.454-2.866 1.248-1.791 1.519-4.080 0.75-6.118l-82.776-218.838c-0.976-2.588-3.45-4.286-6.21-4.286s-5.228 1.705-6.21 4.286l-82.776 218.838c-0.776 2.037-0.498 4.332 0.749 6.118 1.24 1.798 3.278 2.866 5.454 2.866h8.917l-41.673 98.913c-0.863 2.063-0.643 4.392 0.591 6.243s3.304 2.966 5.527 2.966h66.203l-25.093 62.825c-0.816 2.050-0.564 4.353 0.67 6.183 1.24 1.825 3.291 2.913 5.493 2.913h124.318c2.203 0 4.26-1.088 5.494-2.913s1.486-4.134 0.67-6.183l-25.093-62.825h66.296c2.222 0 4.293-1.115 5.527-2.966s1.44-4.187 0.577-6.243zM136.121 476.749c0 6.024-4.876 10.901-10.894 10.901-6.025 0-10.901-4.87-10.901-10.901 0-0.325 0.020-0.69 0.053-1.035 0-0.053 0.007-0.106 0.013-0.139 0.704-7.312 7.285-20.707 9.833-25.671 0.418-0.803 1.566-0.803 1.984 0 2.535 4.976 9.103 18.412 9.833 25.618 0 0.079 0.013 0.152 0.013 0.219 0.040 0.365 0.066 0.704 0.066 1.009zM112.070 404.834c0-0.325 0.020-0.677 0.053-1.035 0.007-0.040 0.007-0.106 0.013-0.139 0.1-0.995 0.319-2.123 0.611-3.317 1.513-6.171 5.261-14.358 7.776-19.48 0.544-1.101 1.049-2.11 1.44-2.88 0.418-0.803 1.579-0.803 1.99 0 2.534 4.976 9.103 18.412 9.826 25.63 0.013 0.067 0.013 0.139 0.026 0.219 0.026 0.351 0.053 0.69 0.053 0.995 0 6.024-4.876 10.901-10.901 10.901-6.011 0-10.888-4.87-10.888-10.894zM92.338 415.649c-5.6-0.451-10.025-5.096-10.025-10.822 0-0.325 0.020-0.677 0.059-1.035 0-0.040 0-0.106 0.013-0.139 0.697-7.298 7.285-20.707 9.826-25.671 0.418-0.803 1.573-0.803 1.984 0 1.566 3.085 4.684 9.409 7 15.499 1.427 3.736 2.555 7.385 2.833 10.132 0.013 0.067 0.013 0.139 0.026 0.219 0.033 0.351 0.053 0.69 0.053 0.995 0 6.024-4.877 10.901-10.901 10.901-0.299 0-0.577-0.067-0.869-0.079zM78.909 296.718c0-0.339 0.020-0.69 0.053-1.048 0.007-0.040 0.007-0.093 0.020-0.139 0.697-7.298 7.285-20.707 9.826-25.657 0.418-0.816 1.573-0.816 1.984 0 0.266 0.517 0.591 1.168 0.936 1.851 2.926 5.892 8.247 17.297 8.898 23.766 0.013 0.079 0.013 0.139 0.026 0.219 0.033 0.351 0.053 0.69 0.053 1.009 0 6.011-4.876 10.888-10.901 10.888-4.691 0-8.652-2.979-10.191-7.139-0.431-1.175-0.704-2.428-0.704-3.748zM130.395 295.703c0.026 0.351 0.053 0.69 0.053 1.009 0 6.011-4.876 10.888-10.901 10.888-6.011 0-10.895-4.87-10.895-10.888 0-0.339 0.020-0.69 0.059-1.048 0-0.040 0-0.093 0.013-0.139 0.697-7.298 7.285-20.707 9.826-25.657 0.412-0.816 1.573-0.816 1.984 0 2.534 4.963 9.103 18.399 9.826 25.618 0.020 0.079 0.020 0.146 0.033 0.219zM52.621 403.792c0-0.040 0-0.106 0.014-0.139 0.697-7.298 7.285-20.707 9.826-25.671 0.411-0.803 1.572-0.803 1.984 0 2.534 4.976 9.103 18.412 9.833 25.63 0.007 0.067 0.013 0.139 0.020 0.219 0.033 0.351 0.053 0.69 0.053 0.995 0 6.024-4.87 10.901-10.901 10.901-6.011 0-10.888-4.87-10.888-10.901 0.007-0.318 0.020-0.67 0.059-1.035z"></path>
</svg>
