<!-- Generated by IcoMoon.io -->
<svg version="1.1" xmlns="http://www.w3.org/2000/svg" width="252" height="512" viewBox="0 0 252 512">
<title>SolidQueenOnPawnOnDroneExpanded</title>
<path d="M241.357 283.562l-109.475-259.822c-1.035-2.462-3.45-4.061-6.118-4.061s-5.082 1.599-6.118 4.061l-109.475 259.822c-0.863 2.063-0.643 4.392 0.591 6.243s3.304 2.966 5.527 2.966h67.53l-26.427 66.149c-0.816 2.050-0.564 4.365 0.67 6.183 1.24 1.825 3.291 2.913 5.493 2.913h24.218l-51.048 134.94c-0.77 2.037-0.491 4.313 0.749 6.118 1.24 1.791 3.277 2.866 5.454 2.866h165.566c2.176 0 4.22-1.075 5.454-2.866 1.248-1.798 1.519-4.080 0.75-6.118l-51.042-134.94h24.21c2.203 0 4.26-1.088 5.494-2.913 1.234-1.812 1.486-4.134 0.67-6.183l-26.42-66.143h67.623c2.222 0 4.293-1.115 5.527-2.966s1.459-4.187 0.597-6.25zM130.309 476.815c0 6.024-4.876 10.901-10.901 10.901-6.011 0-10.895-4.87-10.895-10.901 0-0.325 0.020-0.69 0.059-1.035 0-0.053 0-0.106 0.013-0.139 0.697-7.312 7.285-20.707 9.826-25.671 0.412-0.803 1.573-0.803 1.984 0 2.534 4.976 9.103 18.412 9.826 25.618 0.013 0.079 0.013 0.152 0.026 0.219 0.033 0.365 0.060 0.697 0.060 1.009zM125.088 343.793c-5.268 0-9.66-3.736-10.675-8.692-0.146-0.71-0.225-1.447-0.225-2.203 0-0.332 0.020-0.69 0.053-1.041 0-0.046 0.007-0.099 0.013-0.139 0.704-7.305 7.285-20.707 9.833-25.663 0.299-0.591 0.922-0.604 1.44-0.332 0.179 0.093 0.391 0.106 0.504 0.312 0.007 0.014 0.033 0 0.040 0.020 2.534 4.969 9.103 18.405 9.833 25.618 0 0.079 0.013 0.146 0.013 0.219 0.013 0.113 0.013 0.212 0.020 0.325 0.020 0.232 0.040 0.471 0.040 0.69 0 6.018-4.876 10.888-10.888 10.888zM93.061 268.56c-6.011 0-10.895-4.877-10.895-10.901 0-0.325 0.020-0.677 0.059-1.035 0-0.040 0-0.106 0.013-0.139 0.697-7.298 7.285-20.708 9.826-25.671 0.418-0.803 1.573-0.803 1.984 0 1.725 3.384 5.275 10.655 7.623 17.244 1.108 3.105 1.971 6.077 2.203 8.386 0.013 0.067 0.013 0.139 0.026 0.219 0.033 0.351 0.053 0.69 0.053 0.995 0 5.872-4.644 10.616-10.45 10.848-0.146 0.014-0.292 0.053-0.445 0.053zM122.818 268.56c-5.872 0-10.629-4.658-10.848-10.483-0.007-0.139-0.040-0.279-0.040-0.418 0-0.325 0.020-0.677 0.053-1.035 0.007-0.040 0.007-0.106 0.013-0.139 0.704-7.298 7.291-20.708 9.826-25.671 0.259-0.491 0.757-0.577 1.228-0.464 0.299 0.066 0.611 0.153 0.763 0.464 2.534 4.976 9.103 18.412 9.826 25.63 0.013 0.067 0.013 0.139 0.026 0.219 0.026 0.351 0.053 0.69 0.053 0.995-0.006 6.024-4.883 10.901-10.901 10.901zM52.475 256.617c0-0.040 0-0.106 0.014-0.139 0.697-7.298 7.285-20.708 9.826-25.671 0.411-0.803 1.572-0.803 1.984 0 2.534 4.976 9.103 18.412 9.833 25.63 0.007 0.067 0.013 0.139 0.020 0.219 0.033 0.351 0.053 0.69 0.053 0.995 0 6.024-4.87 10.901-10.901 10.901-6.011 0-10.888-4.877-10.888-10.901 0.007-0.318 0.020-0.67 0.059-1.035zM78.816 475.78c0.007-0.053 0.007-0.106 0.020-0.139 0.697-7.312 7.285-20.707 9.826-25.671 0.418-0.803 1.573-0.803 1.984 0 2.534 4.976 9.103 18.412 9.826 25.618 0.013 0.079 0.013 0.152 0.026 0.219 0.033 0.365 0.053 0.697 0.053 1.009 0 6.024-4.876 10.901-10.901 10.901-6.011 0-10.895-4.87-10.895-10.901 0.007-0.325 0.026-0.683 0.059-1.035z"></path>
</svg>
