<!-- Generated by IcoMoon.io -->
<svg version="1.1" xmlns="http://www.w3.org/2000/svg" width="512" height="512" viewBox="0 0 512 512">
<title>SolidWestQueen</title>
<path d="M494.538 60.492c-3.305-2.203-7.476-2.594-11.148-1.042l-463.936 195.502c-4.396 1.848-7.25 6.161-7.25 10.923s2.855 9.075 7.25 10.923l463.936 195.478c3.685 1.529 7.843 1.137 11.148-1.066s5.296-5.9 5.296-9.857v-390.981c0-3.981-1.99-7.677-5.296-9.88zM389.192 375.615c8.885-4.538 32.876-16.266 45.765-17.558 0.118-0.024 0.249-0.024 0.391-0.048 0.628-0.048 1.232-0.095 1.777-0.095 10.757 0 19.465 8.696 19.465 19.465 0 10.733-8.696 19.441-19.465 19.441-0.58 0-1.209-0.024-1.848-0.095-0.071 0-0.19 0-0.249-0.024-13.032-1.244-36.975-13.008-45.837-17.534-1.445-0.758-1.445-2.832 0-3.554zM389.192 322.493c8.885-4.538 32.876-16.266 45.765-17.558 0.118-0.024 0.249-0.024 0.391-0.048 0.628-0.048 1.232-0.095 1.777-0.095 10.757 0 19.465 8.719 19.465 19.465s-8.696 19.465-19.465 19.465c-0.58 0-1.209-0.048-1.848-0.118-0.071 0-0.19 0-0.249-0.024-13.032-1.244-36.975-13.008-45.837-17.534-1.445-0.782-1.445-2.844 0-3.554zM437.126 290.576c-0.58 0-1.209-0.048-1.848-0.095-0.071-0.024-0.19-0.024-0.249-0.024-13.032-1.267-36.975-13.032-45.837-17.558-1.433-0.747-1.433-2.82 0-3.543 8.885-4.538 32.876-16.266 45.766-17.558 0.118-0.024 0.249-0.024 0.391-0.048 0.628-0.048 1.232-0.095 1.777-0.095 10.757 0 19.465 8.72 19.465 19.465s-8.696 19.453-19.465 19.453z"></path>
</svg>
