<!-- Generated by IcoMoon.io -->
<svg version="1.1" xmlns="http://www.w3.org/2000/svg" width="252" height="512" viewBox="0 0 252 512">
<title>SolidQueenOnDroneOnDrone</title>
<path d="M240.641 414.541l-109.184-259.139c-1.008-2.395-3.351-3.954-5.951-3.954s-4.95 1.559-5.958 3.954l-6.674 15.851-102.522 243.287c-0.842 2.010-0.63 4.279 0.57 6.091 1.201 1.798 3.218 2.893 5.387 2.893h50.266l-30.076 79.493c-0.77 2.037-0.491 4.32 0.749 6.118s3.277 2.867 5.454 2.867h165.566c2.176 0 4.226-1.068 5.454-2.866 1.248-1.798 1.526-4.080 0.75-6.118l-30.070-79.493h50.273c2.156 0 4.186-1.088 5.381-2.893 1.201-1.812 1.427-4.080 0.584-6.091zM111.692 388.644c0-0.325 0.020-0.677 0.053-1.048 0.007-0.040 0.007-0.079 0.007-0.132 0.697-7.285 7.272-20.654 9.806-25.604 0.418-0.803 1.573-0.803 1.984 0.014 2.528 4.95 9.070 18.352 9.8 25.558 0.006 0.079 0.013 0.139 0.020 0.205 0.033 0.365 0.053 0.697 0.053 1.009 0 5.998-4.857 10.875-10.862 10.875-5.998 0-10.862-4.877-10.862-10.875zM130.077 476.888c0 6.018-4.87 10.894-10.894 10.894-6.011 0-10.894-4.87-10.894-10.894 0-0.332 0.020-0.69 0.059-1.041 0-0.046 0-0.099 0.013-0.139 0.697-7.305 7.285-20.707 9.826-25.663 0.412-0.81 1.573-0.81 1.984 0 2.528 4.969 9.097 18.405 9.819 25.618 0.013 0.079 0.013 0.146 0.026 0.219 0.040 0.351 0.060 0.69 0.060 1.009zM78.59 475.846c0.007-0.046 0.007-0.099 0.020-0.139 0.697-7.305 7.285-20.707 9.826-25.663 0.418-0.81 1.573-0.81 1.984 0 2.534 4.963 9.103 18.405 9.833 25.611 0.013 0.079 0.013 0.146 0.026 0.219 0.033 0.358 0.053 0.69 0.053 1.009 0 6.018-4.877 10.894-10.901 10.894-6.011 0-10.894-4.87-10.894-10.894 0-0.325 0.020-0.683 0.053-1.035zM92.882 399.519c-1.002 0-1.951-0.186-2.873-0.438-1.161-0.325-2.263-0.783-3.231-1.453-2.873-1.944-4.757-5.235-4.757-8.983 0-0.325 0.013-0.677 0.053-1.048 0-0.040 0.007-0.079 0.013-0.132 0.697-7.285 7.272-20.654 9.799-25.604 0.424-0.803 1.573-0.803 1.984 0.014 1.008 1.971 2.647 5.301 4.306 9.017 0.445 1.009 0.882 2.063 1.32 3.105 2.017 4.817 3.815 9.866 4.174 13.429 0.007 0.079 0.013 0.139 0.020 0.205 0.033 0.365 0.053 0.697 0.053 1.009 0 6.005-4.864 10.881-10.861 10.881zM63.211 399.519c-1.898 0-3.649-0.531-5.202-1.387-0.524-0.286-0.968-0.683-1.433-1.041-2.535-1.977-4.233-4.976-4.233-8.44 0-0.325 0.020-0.677 0.053-1.048 0.007-0.040 0.007-0.079 0.014-0.132 0.345-3.616 2.136-8.718 4.166-13.562 2.057-4.916 4.359-9.541 5.633-12.043 0.418-0.803 1.572-0.803 1.984 0.014 1.121 2.203 3.025 6.065 4.856 10.291 2.316 5.341 4.538 11.246 4.943 15.267 0.007 0.079 0.013 0.139 0.020 0.205 0.033 0.365 0.053 0.697 0.053 1.009 0.007 5.991-4.856 10.868-10.855 10.868zM198.283 410.592l-72.784-171.080-45.98 108.069h-14.052l54.081-127.124c1.015-2.388 3.357-3.934 5.951-3.934s4.929 1.546 5.945 3.935l80.893 190.135h-14.053z"></path>
</svg>
