<!-- Generated by IcoMoon.io -->
<svg version="1.1" xmlns="http://www.w3.org/2000/svg" width="252" height="512" viewBox="0 0 252 512">
<title>SolidDroneOnDroneOnQueen</title>
<path d="M241.496 502.784l-44.301-105.143h11.492c2.176 0 4.213-1.075 5.454-2.866 1.248-1.798 1.519-4.080 0.75-6.118l-21.47-56.774h15.26c2.176 0 4.22-1.068 5.454-2.866 1.248-1.798 1.519-4.080 0.75-6.118l-82.77-218.825c-0.976-2.588-3.45-4.286-6.204-4.286-2.76 0-5.228 1.705-6.21 4.286l-82.784 218.838c-0.77 2.037-0.491 4.32 0.749 6.118s3.278 2.866 5.454 2.866h15.267l-21.477 56.774c-0.77 2.037-0.491 4.313 0.749 6.118 1.24 1.791 3.278 2.866 5.454 2.866h11.492l-44.288 105.13c-0.863 2.057-0.643 4.392 0.591 6.243s3.304 2.966 5.527 2.966h218.951c2.222 0 4.293-1.115 5.527-2.966s1.446-4.187 0.584-6.243zM133.858 476.882c0 6.018-4.876 10.901-10.901 10.901-6.011 0-10.895-4.877-10.895-10.901 0-0.332 0.020-0.683 0.053-1.035 0.007-0.046 0.007-0.106 0.013-0.146 0.704-7.298 7.291-20.707 9.826-25.663 0.418-0.81 1.579-0.81 1.99 0 2.534 4.969 9.103 18.412 9.826 25.624 0.013 0.073 0.013 0.146 0.026 0.219 0.033 0.345 0.060 0.683 0.060 1.002zM104.101 476.882c0 6.018-4.876 10.901-10.901 10.901-6.011 0-10.895-4.877-10.895-10.901 0-0.332 0.020-0.683 0.059-1.035 0-0.046 0-0.106 0.013-0.146 0.697-7.298 7.285-20.707 9.826-25.663 0.418-0.81 1.573-0.81 1.984 0 2.534 4.969 9.103 18.412 9.826 25.624 0.013 0.073 0.013 0.146 0.026 0.219 0.046 0.345 0.059 0.683 0.059 1.002zM130.501 362.529c0 6.018-4.89 10.894-10.907 10.894-6.011 0-10.894-4.87-10.894-10.894 0-0.332 0.020-0.69 0.059-1.041 0-0.046 0-0.099 0.013-0.139 0.697-7.305 7.285-20.707 9.826-25.663 0.412-0.81 1.573-0.81 1.984 0 2.534 4.969 9.11 18.405 9.833 25.618 0.013 0.079 0.013 0.146 0.026 0.219 0.033 0.351 0.060 0.69 0.060 1.009zM90.832 335.678c0.591 1.161 1.413 2.807 2.316 4.697 2.972 6.224 6.954 15.393 7.51 20.92 0.013 0.079 0.013 0.146 0.026 0.219 0.033 0.358 0.053 0.69 0.053 1.009 0 6.018-4.876 10.894-10.901 10.894-3.596 0-6.761-1.765-8.738-4.445-1.334-1.812-2.15-4.027-2.15-6.449 0-0.332 0.020-0.69 0.053-1.041 0.007-0.046 0.007-0.099 0.020-0.139 0.697-7.305 7.285-20.707 9.826-25.663 0.424-0.81 1.579-0.81 1.984 0zM92.709 307.248c-0.915 0.252-1.865 0.425-2.859 0.425-2.721 0-5.182-1.029-7.093-2.687-2.309-1.997-3.802-4.91-3.802-8.2 0-0.332 0.020-0.69 0.053-1.041 0.007-0.046 0.007-0.099 0.020-0.139 0.697-7.305 7.285-20.707 9.826-25.663 0.418-0.81 1.573-0.81 1.984 0 0.716 1.413 1.772 3.536 2.912 5.978 2.117 4.519 4.519 10.138 5.879 14.896 0.498 1.725 0.895 3.37 1.035 4.744 0.013 0.079 0.013 0.146 0.026 0.219 0.033 0.358 0.053 0.69 0.053 1.009 0 5.016-3.417 9.196-8.035 10.463zM130.441 295.769c0.026 0.358 0.053 0.69 0.053 1.009 0 6.018-4.876 10.894-10.894 10.894-4.439 0-8.247-2.661-9.945-6.483-0.597-1.353-0.949-2.839-0.949-4.412 0-0.332 0.020-0.69 0.059-1.041 0-0.046 0-0.099 0.013-0.139 0.697-7.305 7.285-20.707 9.826-25.663 0.412-0.81 1.573-0.81 1.984 0 0.338 0.663 0.757 1.5 1.214 2.428 2.979 6.038 7.982 16.945 8.612 23.189 0.013 0.079 0.013 0.146 0.026 0.219zM52.621 475.846c0-0.046 0-0.106 0.014-0.146 0.697-7.298 7.285-20.707 9.826-25.663 0.411-0.81 1.572-0.81 1.984 0 2.534 4.969 9.103 18.412 9.833 25.624 0.007 0.073 0.013 0.146 0.020 0.219 0.033 0.351 0.053 0.69 0.053 1.002 0 6.018-4.87 10.901-10.901 10.901-6.011 0-10.888-4.877-10.888-10.901 0.007-0.332 0.020-0.683 0.059-1.035z"></path>
</svg>
