<!-- Generated by IcoMoon.io -->
<svg version="1.1" xmlns="http://www.w3.org/2000/svg" width="199" height="512" viewBox="0 0 199 512">
<title>SolidDroneOnPawnExpanded</title>
<path d="M188.298 322.899l-82.784-218.825c-0.975-2.588-3.45-4.286-6.21-4.286s-5.228 1.705-6.21 4.286l-82.784 218.825c-0.77 2.037-0.491 4.326 0.749 6.118 1.24 1.798 3.277 2.866 5.454 2.866h165.573c2.176 0 4.22-1.062 5.454-2.866 1.248-1.791 1.526-4.080 0.756-6.118zM52.402 295.729c0.007-0.040 0.007-0.093 0.020-0.139 0.697-7.298 7.285-20.707 9.826-25.657 0.418-0.816 1.572-0.816 1.984 0 2.534 4.963 9.103 18.399 9.826 25.618 0.013 0.079 0.013 0.139 0.026 0.219 0.033 0.351 0.053 0.69 0.053 1.009 0 6.011-4.876 10.881-10.901 10.881-6.011 0-10.895-4.863-10.895-10.881 0.007-0.332 0.026-0.683 0.059-1.048zM92.995 307.659c-6.011 0-10.895-4.863-10.895-10.881 0-0.339 0.020-0.69 0.059-1.048 0-0.040 0-0.093 0.013-0.139 0.697-7.298 7.285-20.707 9.826-25.657 0.412-0.816 1.573-0.816 1.984 0 2.534 4.963 9.103 18.399 9.826 25.618 0.013 0.079 0.013 0.139 0.026 0.219 0.026 0.351 0.053 0.69 0.053 1.009 0.007 6.018-4.876 10.881-10.894 10.881z"></path>
<path d="M105.448 347.296c-0.995-2.528-3.45-4.173-6.157-4.173-2.721 0-5.156 1.646-6.171 4.173l-62.149 155.594c-0.816 2.050-0.57 4.365 0.663 6.183 1.248 1.825 3.291 2.913 5.493 2.913h124.331c2.203 0 4.253-1.088 5.494-2.913 1.234-1.812 1.48-4.134 0.663-6.183l-62.169-155.595zM98.66 487.769c-6.025 0-10.901-4.87-10.901-10.888 0-0.339 0.026-0.69 0.053-1.048 0-0.040 0.013-0.093 0.013-0.139 0.71-7.298 7.285-20.707 9.833-25.657 0.418-0.816 1.566-0.816 1.984 0 2.541 4.963 9.117 18.399 9.84 25.618 0 0.079 0.013 0.139 0.013 0.219 0.040 0.351 0.067 0.69 0.067 1.009 0 6.011-4.89 10.888-10.901 10.888z"></path>
</svg>
