<!-- Generated by IcoMoon.io -->
<svg version="1.1" xmlns="http://www.w3.org/2000/svg" width="252" height="512" viewBox="0 0 252 512">
<title>SolidDroneOnQueen</title>
<path d="M241.457 502.784l-43.319-102.814h10.51c2.176 0 4.226-1.075 5.454-2.866 1.248-1.798 1.526-4.080 0.75-6.118l-82.784-218.838c-0.982-2.588-3.45-4.286-6.21-4.286s-5.235 1.705-6.21 4.286l-82.776 218.845c-0.77 2.037-0.491 4.313 0.749 6.118 1.24 1.791 3.278 2.866 5.454 2.866h10.509l-43.319 102.808c-0.863 2.050-0.643 4.392 0.591 6.243s3.304 2.966 5.527 2.966h218.951c2.216 0 4.286-1.115 5.52-2.966s1.459-4.193 0.604-6.243zM133.805 476.882c0 6.024-4.87 10.901-10.901 10.901-6.018 0-10.888-4.87-10.888-10.901 0-0.325 0.013-0.69 0.053-1.035 0-0.053 0-0.106 0.013-0.152 0.697-7.298 7.285-20.694 9.84-25.657 0.418-0.803 1.566-0.803 1.984 0 2.528 4.976 9.097 18.412 9.819 25.618 0.013 0.079 0.013 0.152 0.026 0.219 0.040 0.345 0.053 0.697 0.053 1.009zM104.048 476.882c0 6.024-4.87 10.901-10.894 10.901s-10.894-4.87-10.894-10.901c0-0.325 0.020-0.69 0.053-1.035 0.007-0.053 0.007-0.106 0.013-0.152 0.697-7.298 7.285-20.694 9.833-25.657 0.418-0.803 1.566-0.803 1.984 0 2.534 4.976 9.097 18.412 9.833 25.618 0 0.079 0.013 0.152 0.013 0.219 0.046 0.345 0.059 0.697 0.059 1.009zM78.909 364.852c0-0.325 0.020-0.69 0.053-1.035 0.007-0.053 0.007-0.106 0.013-0.139 0.697-7.312 7.285-20.707 9.833-25.671 0.418-0.803 1.566-0.803 1.984 0 2.534 4.976 9.097 18.412 9.833 25.618 0 0.079 0.013 0.152 0.013 0.219 0.040 0.351 0.053 0.697 0.053 1.009 0 6.024-4.87 10.901-10.895 10.901s-10.888-4.877-10.888-10.901zM130.395 363.844c0.026 0.351 0.053 0.697 0.053 1.009 0 6.024-4.87 10.901-10.894 10.901-6.018 0-10.894-4.87-10.894-10.901 0-0.325 0.020-0.69 0.053-1.035 0-0.053 0.007-0.106 0.013-0.139 0.697-7.312 7.285-20.707 9.833-25.671 0.412-0.803 1.566-0.803 1.984 0 2.528 4.976 9.103 18.412 9.826 25.618 0.013 0.073 0.026 0.152 0.026 0.219zM52.562 475.846c0.014-0.053 0.014-0.106 0.014-0.152 0.703-7.298 7.285-20.694 9.833-25.657 0.418-0.803 1.566-0.803 1.984 0 2.534 4.976 9.103 18.412 9.833 25.618 0 0.079 0.013 0.152 0.013 0.219 0.040 0.351 0.059 0.697 0.059 1.009 0 6.024-4.877 10.901-10.895 10.901-6.024 0-10.901-4.87-10.901-10.901 0.014-0.325 0.026-0.69 0.059-1.035z"></path>
</svg>
