<!-- Generated by IcoMoon.io -->
<svg version="1.1" xmlns="http://www.w3.org/2000/svg" width="199" height="512" viewBox="0 0 199 512">
<title>SolidDroneOnPawn</title>
<path d="M188.437 503.202l-83.002-219.428c-0.962-2.528-3.377-4.2-6.084-4.2-2.701 0-5.122 1.672-6.084 4.2l-83.002 219.428c-0.756 1.997-0.477 4.233 0.736 5.991 1.214 1.752 3.212 2.807 5.348 2.807h166.011c2.137 0 4.14-1.055 5.355-2.807 1.214-1.765 1.493-3.994 0.723-5.991zM80.189 477.286c0-0.332 0.020-0.677 0.046-1.035 0.007-0.053 0.007-0.106 0.013-0.139 0.704-7.325 7.311-20.774 9.859-25.736 0.418-0.816 1.579-0.816 1.997 0 2.541 4.976 9.123 18.458 9.853 25.683 0.013 0.079 0.013 0.152 0.026 0.219 0.033 0.351 0.053 0.69 0.053 1.009 0 6.031-4.883 10.921-10.927 10.921-6.031 0-10.921-4.89-10.921-10.921zM64.71 487.597c-1.088 0.365-2.23 0.611-3.437 0.611-3.696 0-6.947-1.851-8.924-4.664-1.248-1.778-1.997-3.921-1.997-6.257 0-0.332 0.020-0.677 0.053-1.035 0.007-0.053 0.007-0.106 0.014-0.139 0.703-7.325 7.312-20.774 9.853-25.736 0.425-0.816 1.579-0.816 1.997 0 0.339 0.663 0.763 1.5 1.221 2.435 2.236 4.538 5.567 11.771 7.391 17.768 0.611 2.017 1.082 3.908 1.24 5.481 0.007 0.079 0.013 0.152 0.020 0.219 0.033 0.351 0.053 0.69 0.053 1.009 0.007 4.824-3.145 8.858-7.484 10.31zM138.158 498.995l-38.808-106.935-15.618 43.067h-13.827l23.341-64.345c0.929-2.581 3.371-4.293 6.104-4.293 2.74 0 5.182 1.719 6.111 4.293l46.497 128.212h-13.8z"></path>
</svg>
