<!-- Generated by IcoMoon.io -->
<svg version="1.1" xmlns="http://www.w3.org/2000/svg" width="512" height="512" viewBox="0 0 512 512">
<title>SolidSouthWestDrone</title>
<path d="M449.861 280.897l-209.043-209.043c-2.749-2.749-6.67-3.969-10.508-3.27-3.839 0.687-7.061 3.234-8.672 6.776l-171.796 380.816c-2.014 4.514-1.066 9.762 2.417 13.257 3.483 3.483 8.755 4.442 13.245 2.417l380.863-171.772c3.543-1.599 6.089-4.834 6.776-8.672s-0.533-7.76-3.281-10.509zM273.813 261.313c3.057-9.466 11.728-34.736 19.927-44.77 0.095-0.119 0.166-0.202 0.249-0.308 0.414-0.474 0.805-0.936 1.209-1.339 7.594-7.594 19.927-7.571 27.509 0.012s7.618 19.915 0.024 27.509c-0.438 0.427-0.901 0.829-1.41 1.244-0.048 0.048-0.118 0.119-0.213 0.166-10.094 8.328-35.329 16.953-44.794 19.998-1.552 0.498-3.009-0.971-2.5-2.512zM360.285 279.997c-0.414 0.414-0.877 0.829-1.386 1.244-0.048 0.036-0.118 0.106-0.213 0.154-10.094 8.329-35.329 16.954-44.794 19.998-1.575 0.498-3.033-0.959-2.5-2.5 3.057-9.478 11.728-34.748 19.927-44.782 0.095-0.107 0.166-0.19 0.249-0.308 0.391-0.474 0.782-0.936 1.209-1.339 7.594-7.594 19.927-7.571 27.509 0.024 7.594 7.594 7.618 19.903 0 27.509z"></path>
</svg>
