<!-- Generated by IcoMoon.io -->
<svg version="1.1" xmlns="http://www.w3.org/2000/svg" width="252" height="512" viewBox="0 0 252 512">
<title>SolidDroneOnQueenOnQueen</title>
<path d="M216.031 442.44h19.308c2.222 0 4.293-1.115 5.527-2.966s1.453-4.2 0.59-6.243l-42.696-101.328h9.933c2.176 0 4.22-1.068 5.454-2.866 1.248-1.798 1.519-4.080 0.75-6.118l-82.776-218.845c-0.976-2.588-3.45-4.286-6.21-4.286s-5.228 1.705-6.21 4.286l-82.784 218.838c-0.77 2.037-0.491 4.32 0.749 6.118s3.278 2.866 5.454 2.866h9.84l-42.689 101.328c-0.863 2.050-0.643 4.392 0.591 6.243s3.304 2.966 5.527 2.966h19.307l-25.431 60.351c-0.863 2.057-0.643 4.392 0.591 6.243s3.304 2.966 5.527 2.966h218.951c2.222 0 4.293-1.115 5.527-2.966s1.453-4.193 0.59-6.243l-25.418-60.344zM133.812 476.882c0 6.018-4.876 10.901-10.901 10.901-6.011 0-10.895-4.877-10.895-10.901 0-0.332 0.020-0.683 0.053-1.035 0.007-0.046 0.007-0.106 0.013-0.146 0.704-7.298 7.291-20.707 9.826-25.663 0.418-0.81 1.579-0.81 1.99 0 2.534 4.969 9.103 18.412 9.826 25.624 0.013 0.073 0.013 0.146 0.026 0.219 0.033 0.345 0.060 0.683 0.060 1.002zM104.061 476.882c0 6.018-4.876 10.901-10.901 10.901-6.011 0-10.895-4.877-10.895-10.901 0-0.332 0.020-0.683 0.059-1.035 0-0.046 0-0.106 0.013-0.146 0.697-7.298 7.285-20.707 9.826-25.663 0.418-0.81 1.573-0.81 1.984 0 2.534 4.969 9.103 18.412 9.826 25.624 0.013 0.073 0.013 0.146 0.026 0.219 0.040 0.345 0.059 0.683 0.059 1.002zM74.304 476.882c0 6.018-4.87 10.901-10.901 10.901-6.011 0-10.888-4.877-10.888-10.901 0-0.332 0.014-0.683 0.053-1.035 0-0.046 0-0.106 0.014-0.146 0.697-7.298 7.285-20.707 9.826-25.663 0.411-0.81 1.572-0.81 1.984 0 2.534 4.969 9.103 18.412 9.833 25.624 0.007 0.073 0.013 0.146 0.020 0.219 0.040 0.345 0.059 0.683 0.059 1.002zM133.812 407.322c0 6.011-4.876 10.901-10.901 10.901-6.011 0-10.895-4.884-10.895-10.901 0-0.339 0.020-0.69 0.053-1.035 0.007-0.053 0.007-0.106 0.013-0.152 0.704-7.298 7.291-20.707 9.826-25.657 0.418-0.816 1.579-0.816 1.99 0 2.534 4.963 9.103 18.412 9.826 25.618 0.013 0.079 0.013 0.152 0.026 0.219 0.033 0.345 0.060 0.683 0.060 1.009zM82.339 406.127c0.697-7.298 7.285-20.707 9.826-25.657 0.418-0.816 1.573-0.816 1.984 0 2.534 4.963 9.103 18.412 9.826 25.618 0.013 0.079 0.013 0.152 0.026 0.219 0.033 0.351 0.053 0.69 0.053 1.009 0 6.011-4.876 10.901-10.901 10.901-6.011 0-10.895-4.884-10.895-10.901 0-0.339 0.020-0.69 0.059-1.035 0.007-0.046 0.007-0.099 0.020-0.152zM92.656 307.267c-0.903 0.239-1.831 0.411-2.806 0.411-4.273 0-7.936-2.481-9.72-6.071-0.723-1.459-1.174-3.079-1.174-4.824 0-0.332 0.020-0.69 0.053-1.041 0.007-0.046 0.007-0.099 0.020-0.139 0.697-7.305 7.285-20.707 9.826-25.663 0.418-0.81 1.573-0.81 1.984 0 0.391 0.757 0.889 1.765 1.427 2.866 2.316 4.717 5.639 12.016 7.352 17.934 0.511 1.765 0.915 3.43 1.055 4.824 0.013 0.079 0.013 0.146 0.026 0.219 0.033 0.358 0.053 0.69 0.053 1.009 0 5.029-3.444 9.229-8.094 10.476zM74.231 406.087c0.007 0.079 0.013 0.152 0.020 0.219 0.033 0.351 0.053 0.69 0.053 1.009 0 6.011-4.87 10.901-10.901 10.901-1.015 0-1.977-0.179-2.913-0.445-4.584-1.281-7.975-5.454-7.975-10.45 0-0.339 0.014-0.69 0.053-1.035 0-0.053 0-0.106 0.014-0.152 0.697-7.298 7.285-20.707 9.826-25.657 0.411-0.816 1.572-0.816 1.984 0 1.386 2.721 3.981 8.002 6.171 13.402 1.805 4.432 3.344 8.957 3.669 12.208zM130.448 295.769c0.026 0.358 0.053 0.69 0.053 1.009 0 6.018-4.876 10.894-10.901 10.894-4.459 0-8.287-2.687-9.966-6.522-0.584-1.34-0.922-2.813-0.922-4.365 0-0.332 0.020-0.69 0.059-1.041 0-0.046 0-0.099 0.013-0.139 0.697-7.305 7.285-20.707 9.826-25.663 0.412-0.81 1.573-0.81 1.984 0 0.332 0.657 0.743 1.466 1.188 2.368 2.972 6.031 8.015 16.986 8.639 23.248 0.013 0.073 0.013 0.139 0.026 0.212z"></path>
</svg>
