<!-- Generated by IcoMoon.io -->
<svg version="1.1" xmlns="http://www.w3.org/2000/svg" width="512" height="512" viewBox="0 0 512 512">
<title>SolidNorthEastQueen</title>
<path d="M496.35 25.483c-3.377-3.377-8.447-4.395-12.854-2.595l-466.27 189.839c-3.684 1.505-6.35 4.739-7.132 8.637-0.794 3.886 0.415 7.914 3.21 10.71l276.442 276.442c2.82 2.82 6.848 4.028 10.733 3.235 3.897-0.77 7.132-3.447 8.637-7.156l189.815-466.27c1.801-4.395 0.782-9.454-2.582-12.843zM152.166 214.446c-3.081 9.513-11.752 34.76-19.951 44.794-0.071 0.095-0.166 0.19-0.249 0.296-0.403 0.486-0.794 0.936-1.196 1.327-7.618 7.606-19.927 7.606-27.521 0s-7.594-19.892 0.012-27.498c0.415-0.415 0.876-0.829 1.374-1.244 0.059-0.048 0.13-0.142 0.201-0.166 10.105-8.328 35.34-16.941 44.818-20.010 1.552-0.486 3.021 0.995 2.512 2.5zM187.233 249.525c1.564-0.486 3.009 0.971 2.512 2.5-3.092 9.489-11.752 34.759-19.963 44.77-0.059 0.095-0.166 0.202-0.249 0.308-0.415 0.474-0.805 0.936-1.208 1.327-7.606 7.606-19.927 7.594-27.509 0s-7.618-19.927 0-27.521c0.415-0.403 0.876-0.817 1.386-1.232 0.048-0.059 0.142-0.13 0.202-0.166 10.118-8.317 35.352-16.941 44.83-19.986zM227.3 289.569c-3.081 9.502-11.752 34.76-19.951 44.782-0.071 0.106-0.166 0.202-0.249 0.308-0.415 0.474-0.794 0.924-1.196 1.315-7.618 7.618-19.939 7.606-27.533 0-7.594-7.594-7.594-19.904 0.012-27.509 0.403-0.414 0.876-0.817 1.375-1.244 0.071-0.024 0.142-0.118 0.19-0.166 10.118-8.305 35.352-16.942 44.841-19.998 1.54-0.474 3.021 0.995 2.512 2.512z"></path>
</svg>
