<!-- Generated by IcoMoon.io -->
<svg version="1.1" xmlns="http://www.w3.org/2000/svg" width="315" height="512" viewBox="0 0 315 512">
<title>SolidQueenPointingLeft</title>
<path fill="#231f20" d="M304.548 502.757l-85.046-201.767c-0.856-2.050-2.694-3.523-4.87-3.941-2.19-0.418-4.432 0.292-5.984 1.885l-196.91 201.793c-1.858 1.904-2.395 4.757-1.36 7.219s3.45 4.054 6.117 4.054l281.942-0.026c2.229-0.014 4.286-1.115 5.52-2.966s1.447-4.2 0.591-6.25zM180.276 367.486c3.589-4.279 13.389-15.552 19.839-19.029 0.040-0.033 0.093-0.053 0.132-0.073 0.312-0.166 0.637-0.325 0.935-0.445 5.547-2.342 11.936 0.252 14.265 5.799 2.349 5.547-0.259 11.936-5.805 14.272-0.286 0.126-0.611 0.239-0.949 0.345-0.066 0.020-0.139 0.046-0.206 0.067-6.934 2.123-21.875 1.294-27.435 0.896-0.909-0.073-1.36-1.148-0.776-1.831zM227.006 381.147c2.349 5.54-0.259 11.943-5.805 14.272-0.298 0.132-0.611 0.232-0.949 0.339-0.079 0.026-0.139 0.053-0.219 0.067-6.92 2.137-21.862 1.307-27.422 0.896-0.909-0.053-1.36-1.115-0.776-1.825 3.576-4.266 13.389-15.539 19.839-19.022 0.026-0.026 0.093-0.053 0.132-0.067 0.312-0.173 0.624-0.332 0.935-0.451 5.54-2.349 11.929 0.252 14.265 5.792zM232.758 422.841c-0.298 0.12-0.624 0.232-0.949 0.339-0.079 0.014-0.139 0.053-0.219 0.067-6.92 2.137-21.862 1.294-27.435 0.896-0.909-0.067-1.347-1.128-0.763-1.825 3.576-4.279 13.389-15.552 19.825-19.036 0.040-0.014 0.093-0.040 0.132-0.067 0.325-0.166 0.637-0.325 0.949-0.451 5.547-2.336 11.936 0.272 14.265 5.805 2.335 5.54-0.259 11.93-5.805 14.272z"></path>
</svg>
