<!-- Generated by IcoMoon.io -->
<svg version="1.1" xmlns="http://www.w3.org/2000/svg" width="252" height="512" viewBox="0 0 252 512">
<title>SolidPawnOnQueenOnQueen</title>
<path d="M216.065 442.44h19.314c2.222 0 4.293-1.115 5.527-2.966s1.453-4.193 0.59-6.243l-69.341-164.578h15.911c2.203 0 4.26-1.088 5.494-2.913 1.234-1.818 1.486-4.134 0.67-6.183l-62.162-155.601c-1.002-2.522-3.45-4.174-6.164-4.174s-5.156 1.652-6.164 4.174l-62.149 155.601c-0.816 2.050-0.564 4.359 0.67 6.183 1.24 1.825 3.291 2.913 5.493 2.913h15.904l-69.341 164.572c-0.863 2.057-0.643 4.392 0.591 6.243s3.304 2.966 5.527 2.966h19.314l-25.431 60.351c-0.863 2.057-0.643 4.392 0.591 6.243s3.304 2.966 5.527 2.966h218.951c2.222 0 4.293-1.115 5.527-2.966s1.453-4.193 0.59-6.243l-25.438-60.344zM133.858 476.882c0 6.018-4.876 10.901-10.901 10.901-6.011 0-10.895-4.877-10.895-10.901 0-0.332 0.020-0.683 0.053-1.035 0.007-0.046 0.007-0.106 0.013-0.146 0.704-7.298 7.291-20.707 9.826-25.663 0.418-0.81 1.579-0.81 1.99 0 2.534 4.969 9.103 18.412 9.826 25.624 0.013 0.073 0.013 0.146 0.026 0.219 0.033 0.345 0.060 0.683 0.060 1.002zM104.101 476.882c0 6.018-4.876 10.901-10.901 10.901-6.011 0-10.895-4.877-10.895-10.901 0-0.332 0.020-0.683 0.059-1.035 0-0.046 0-0.106 0.013-0.146 0.697-7.298 7.285-20.707 9.826-25.663 0.418-0.81 1.573-0.81 1.984 0 2.534 4.969 9.103 18.412 9.826 25.624 0.013 0.073 0.013 0.146 0.026 0.219 0.046 0.345 0.059 0.683 0.059 1.002zM74.35 476.882c0 6.018-4.87 10.901-10.901 10.901-6.011 0-10.888-4.877-10.888-10.901 0-0.332 0.014-0.683 0.053-1.035 0-0.046 0-0.106 0.014-0.146 0.697-7.298 7.285-20.707 9.826-25.663 0.411-0.81 1.572-0.81 1.984 0 2.534 4.969 9.103 18.412 9.833 25.624 0.007 0.073 0.013 0.146 0.020 0.219 0.040 0.345 0.059 0.683 0.059 1.002zM112.116 406.28c0.007-0.046 0.007-0.106 0.013-0.146 0.704-7.298 7.291-20.707 9.826-25.663 0.418-0.81 1.579-0.81 1.99 0 2.534 4.969 9.103 18.412 9.826 25.624 0.013 0.073 0.013 0.146 0.026 0.219 0.026 0.351 0.053 0.69 0.053 1.002 0 6.018-4.876 10.901-10.901 10.901-6.011 0-10.895-4.877-10.895-10.901 0.013-0.325 0.033-0.677 0.059-1.035zM104.028 406.094c0.013 0.073 0.013 0.146 0.026 0.219 0.033 0.351 0.053 0.69 0.053 1.002 0 6.018-4.877 10.901-10.901 10.901-6.011 0-10.894-4.877-10.894-10.901 0-0.332 0.020-0.683 0.059-1.035 0-0.046 0-0.106 0.013-0.146 0.697-7.298 7.285-20.707 9.826-25.663 0.418-0.81 1.573-0.81 1.984 0 2.534 4.969 9.103 18.412 9.833 25.624zM63.45 418.216c-1.015 0-1.977-0.179-2.913-0.445-4.584-1.274-7.975-5.447-7.975-10.45 0-0.332 0.014-0.683 0.053-1.035 0-0.046 0-0.106 0.014-0.146 0.697-7.298 7.285-20.707 9.826-25.663 0.411-0.81 1.573-0.81 1.984 0 1.386 2.721 3.981 8.002 6.164 13.402 1.805 4.445 3.338 8.971 3.669 12.228 0.007 0.073 0.013 0.146 0.020 0.219 0.033 0.351 0.053 0.69 0.053 1.002 0.007 6.011-4.864 10.888-10.895 10.888zM136.101 232.314c0 0.079 0.013 0.146 0.013 0.219 0.033 0.358 0.060 0.69 0.060 1.008 0 3.63-1.798 6.821-4.525 8.804-1.798 1.3-3.987 2.090-6.37 2.090-2.004 0-3.848-0.577-5.46-1.513-3.238-1.891-5.441-5.361-5.441-9.381 0-0.332 0.020-0.69 0.053-1.042 0-0.047 0.007-0.1 0.013-0.139 0.704-7.305 7.285-20.708 9.833-25.663 0.418-0.81 1.566-0.81 1.984 0 2.534 4.963 9.103 18.405 9.84 25.618z"></path>
</svg>
