<!-- Generated by IcoMoon.io -->
<svg version="1.1" xmlns="http://www.w3.org/2000/svg" width="252" height="512" viewBox="0 0 252 512">
<title>SolidQueenOnPawnExpanded</title>
<path d="M241.768 363.717l-109.475-259.815c-1.035-2.462-3.45-4.061-6.118-4.061s-5.082 1.599-6.118 4.061l-109.475 259.815c-0.863 2.063-0.643 4.392 0.591 6.243s3.304 2.966 5.527 2.966h93.021l-51.911 129.977c-0.816 2.050-0.564 4.353 0.67 6.183 1.234 1.825 3.291 2.913 5.493 2.913h124.317c2.203 0 4.26-1.088 5.494-2.913s1.486-4.134 0.67-6.183l-51.918-129.971h93.12c2.222 0 4.293-1.115 5.527-2.966s1.446-4.187 0.584-6.25zM125.499 487.783c-6.025 0-10.901-4.87-10.901-10.901 0-0.325 0.020-0.69 0.053-1.035 0-0.053 0.007-0.106 0.013-0.139 0.704-7.312 7.285-20.707 9.833-25.671 0.418-0.803 1.566-0.803 1.984 0 2.535 4.976 9.103 18.412 9.833 25.618 0 0.079 0.013 0.152 0.013 0.219 0.033 0.365 0.060 0.697 0.060 1.009 0.006 6.024-4.876 10.901-10.888 10.901zM131.059 345.378c-1.984 2.050-4.751 3.337-7.829 3.337-1.254 0-2.448-0.252-3.576-0.65-4.246-1.486-7.319-5.487-7.319-10.251 0-0.325 0.020-0.677 0.053-1.035 0.007-0.040 0.007-0.106 0.013-0.139 0.704-7.298 7.291-20.707 9.826-25.671 0.418-0.803 1.579-0.803 1.99 0 2.534 4.976 9.103 18.412 9.826 25.63 0.013 0.067 0.013 0.139 0.026 0.219 0.026 0.351 0.053 0.69 0.053 0.995 0.006 2.946-1.174 5.606-3.066 7.564zM104.373 337.815c0 6.024-4.877 10.901-10.901 10.901-6.011 0-10.894-4.87-10.894-10.901 0-0.325 0.020-0.677 0.059-1.035 0-0.040 0-0.106 0.013-0.139 0.697-7.298 7.285-20.707 9.826-25.671 0.418-0.803 1.573-0.803 1.984 0 2.534 4.976 9.103 18.412 9.826 25.63 0.013 0.067 0.013 0.139 0.026 0.219 0.046 0.345 0.059 0.683 0.059 0.995zM52.893 336.779c0-0.040 0-0.106 0.014-0.139 0.697-7.298 7.285-20.707 9.826-25.671 0.411-0.803 1.573-0.803 1.984 0 2.534 4.976 9.103 18.412 9.833 25.63 0.007 0.067 0.013 0.139 0.020 0.219 0.033 0.351 0.053 0.69 0.053 0.995 0 6.024-4.87 10.901-10.901 10.901-6.011 0-10.888-4.87-10.888-10.901 0.007-0.325 0.020-0.677 0.059-1.035z"></path>
</svg>
