<!-- Generated by IcoMoon.io -->
<svg version="1.1" xmlns="http://www.w3.org/2000/svg" width="252" height="512" viewBox="0 0 252 512">
<title>SolidQueenOnQueenOnPawnExpanded</title>
<path d="M216.065 372.8h19.314c2.222 0 4.293-1.115 5.527-2.966s1.453-4.187 0.59-6.243l-109.476-259.808c-1.035-2.462-3.45-4.061-6.118-4.061s-5.082 1.599-6.118 4.061l-109.475 259.808c-0.863 2.063-0.643 4.392 0.591 6.243s3.304 2.966 5.527 2.966h19.314l-25.431 60.364c-0.863 2.063-0.643 4.392 0.591 6.243s3.304 2.966 5.527 2.966h65.234l-24.131 60.404c-0.816 2.050-0.564 4.353 0.67 6.183 1.24 1.825 3.291 2.913 5.493 2.913h124.317c2.203 0 4.26-1.088 5.494-2.913s1.486-4.134 0.67-6.183l-24.131-60.404h65.333c2.222 0 4.293-1.115 5.527-2.966s1.453-4.187 0.59-6.243l-25.431-60.364zM136.121 476.749c0 6.024-4.876 10.901-10.894 10.901-6.025 0-10.901-4.87-10.901-10.901 0-0.325 0.020-0.69 0.053-1.035 0-0.053 0.007-0.106 0.013-0.139 0.704-7.312 7.285-20.707 9.833-25.671 0.418-0.803 1.566-0.803 1.984 0 2.535 4.976 9.103 18.412 9.833 25.618 0 0.079 0.013 0.152 0.013 0.219 0.040 0.365 0.066 0.704 0.066 1.009zM74.35 407.255c0 6.024-4.87 10.901-10.901 10.901-6.011 0-10.888-4.87-10.888-10.901 0-0.325 0.014-0.677 0.053-1.035 0-0.040 0-0.106 0.014-0.139 0.697-7.298 7.285-20.707 9.826-25.671 0.411-0.803 1.572-0.803 1.984 0 2.534 4.976 9.103 18.412 9.833 25.63 0.007 0.067 0.013 0.139 0.020 0.219 0.040 0.345 0.059 0.683 0.059 0.995zM82.313 337.682c0-0.325 0.020-0.677 0.059-1.035 0-0.040 0-0.106 0.013-0.139 0.697-7.298 7.285-20.707 9.826-25.671 0.418-0.803 1.573-0.803 1.984 0 2.534 4.976 9.103 18.412 9.826 25.63 0.013 0.067 0.013 0.139 0.026 0.219 0.033 0.351 0.053 0.69 0.053 0.995 0 6.024-4.876 10.901-10.901 10.901-6.004-0.007-10.888-4.877-10.888-10.901zM122.957 418.149c-6.011 0-10.895-4.87-10.895-10.901 0-0.325 0.020-0.677 0.053-1.035 0.007-0.040 0.007-0.106 0.013-0.139 0.704-7.298 7.291-20.707 9.826-25.671 0.418-0.803 1.579-0.803 1.99 0 2.534 4.976 9.103 18.412 9.826 25.63 0.013 0.067 0.013 0.139 0.026 0.219 0.026 0.351 0.053 0.69 0.053 0.995 0.006 6.031-4.876 10.901-10.894 10.901zM63.45 348.577c-1.015 0-1.977-0.179-2.906-0.438-4.592-1.281-7.975-5.44-7.975-10.457 0-0.325 0.014-0.677 0.053-1.035 0-0.040 0-0.106 0.014-0.139 0.697-7.298 7.285-20.707 9.826-25.671 0.411-0.803 1.573-0.803 1.984 0 1.386 2.733 3.981 8.009 6.171 13.409 1.798 4.445 3.338 8.971 3.669 12.221 0.007 0.067 0.013 0.139 0.020 0.219 0.033 0.351 0.053 0.69 0.053 0.995-0.007 6.024-4.876 10.894-10.907 10.894zM82.372 406.22c0-0.040 0-0.106 0.013-0.139 0.697-7.298 7.285-20.707 9.826-25.671 0.418-0.803 1.573-0.803 1.984 0 1.466 2.88 4.266 8.579 6.516 14.279 1.645 4.16 3.012 8.307 3.317 11.353 0.013 0.067 0.013 0.139 0.026 0.219 0.033 0.351 0.053 0.69 0.053 0.995 0 6.024-4.877 10.901-10.901 10.901-0.617 0-1.207-0.093-1.798-0.179-5.156-0.856-9.097-5.315-9.097-10.716 0-0.332 0.020-0.683 0.059-1.041zM133.805 336.68c0.026 0.351 0.053 0.69 0.053 0.995 0 2.946-1.181 5.613-3.072 7.57-1.984 2.050-4.751 3.33-7.829 3.33-1.254 0-2.448-0.252-3.57-0.65-4.253-1.479-7.325-5.481-7.325-10.251 0-0.325 0.020-0.677 0.053-1.035 0.007-0.040 0.007-0.106 0.013-0.139 0.704-7.298 7.291-20.707 9.826-25.671 0.418-0.803 1.579-0.803 1.99 0 2.534 4.976 9.103 18.412 9.826 25.63 0.020 0.067 0.020 0.139 0.033 0.219z"></path>
</svg>
