<!-- Generated by IcoMoon.io -->
<svg version="1.1" xmlns="http://www.w3.org/2000/svg" width="252" height="512" viewBox="0 0 252 512">
<title>SolidQueenOnQueenOnPawn</title>
<path d="M199.683 403.839h35.795c2.23 0 4.299-1.115 5.534-2.966s1.453-4.2 0.584-6.243l-109.476-259.822c-1.035-2.462-3.444-4.060-6.111-4.060s-5.082 1.599-6.118 4.060l-109.475 259.822c-0.863 2.050-0.643 4.392 0.591 6.243s3.304 2.966 5.527 2.966h35.788l-41.793 99.158c-0.842 2.017-0.63 4.293 0.57 6.104s3.231 2.906 5.401 2.906h218.971c2.176 0 4.207-1.088 5.401-2.906 1.208-1.805 1.42-4.087 0.571-6.104l-41.76-99.158zM112.216 367.685c0.007-0.053 0.007-0.106 0.013-0.152 0.704-7.298 7.291-20.707 9.826-25.663 0.418-0.803 1.579-0.803 1.99 0 2.534 4.969 9.109 18.418 9.833 25.624 0.013 0.079 0.013 0.152 0.026 0.219 0.026 0.351 0.053 0.69 0.053 1.009 0 2.196-0.663 4.233-1.785 5.945-1.944 2.973-5.294 4.95-9.123 4.95-1.513 0-2.946-0.305-4.253-0.863-3.901-1.659-6.641-5.534-6.641-10.038 0.007-0.332 0.026-0.677 0.059-1.029zM82.465 367.685c0-0.053 0-0.106 0.013-0.152 0.1-1.002 0.325-2.149 0.617-3.351 1.844-7.51 7.019-18.040 9.209-22.313 0.053-0.106 0.179-0.079 0.259-0.152 0.511-0.517 1.374-0.544 1.725 0.152 2.534 4.969 9.103 18.418 9.826 25.624 0.013 0.079 0.013 0.152 0.026 0.219 0.033 0.351 0.053 0.69 0.053 1.009 0 6.011-4.876 10.901-10.901 10.901-6.011 0-10.895-4.884-10.895-10.901 0.007-0.339 0.026-0.683 0.067-1.035zM63.542 487.922c-1.904 0-3.663-0.538-5.215-1.38-3.37-1.844-5.679-5.394-5.679-9.514 0-0.332 0.020-0.69 0.053-1.048 0.007-0.053 0.007-0.093 0.014-0.139 0.697-7.298 7.291-20.701 9.826-25.671 0.418-0.81 1.572-0.81 1.991 0.014 1.121 2.203 3.032 6.084 4.877 10.33 2.322 5.341 4.552 11.266 4.957 15.293 0.007 0.079 0.013 0.139 0.020 0.219 0.033 0.351 0.053 0.69 0.053 1.009-0.007 6.018-4.883 10.888-10.895 10.888zM63.549 379.621c-0.339 0-0.657-0.073-0.989-0.099-5.54-0.511-9.899-5.122-9.899-10.801 0-0.339 0.014-0.69 0.053-1.035 0-0.053 0-0.106 0.014-0.152 0.697-7.298 7.285-20.707 9.826-25.663 0.411-0.803 1.572-0.803 1.984 0 1.606 3.158 4.837 9.72 7.172 15.937 1.347 3.583 2.395 7.053 2.667 9.687 0.007 0.079 0.013 0.152 0.020 0.219 0.033 0.351 0.053 0.69 0.053 1.009-0.007 6.011-4.877 10.901-10.901 10.901zM96.617 487.351c-1.055 0.339-2.15 0.57-3.317 0.57-2.269 0-4.379-0.697-6.124-1.885-2.879-1.95-4.77-5.255-4.77-9.003 0-0.332 0.020-0.69 0.053-1.048 0-0.053 0.007-0.093 0.013-0.139 0.697-7.298 7.285-20.701 9.826-25.671 0.424-0.81 1.579-0.81 1.99 0.014 0.597 1.168 1.42 2.833 2.329 4.744 0.637 1.327 1.3 2.767 1.984 4.293 2.514 5.659 5.076 12.241 5.52 16.581 0.007 0.079 0.013 0.139 0.020 0.219 0.033 0.351 0.053 0.69 0.053 1.009-0.007 4.85-3.198 8.911-7.577 10.317zM96.617 435.839h-2.143l2.143-5.036 11.492-26.964h14.099l-13.642 32h-11.95zM123.043 487.922c-6.018 0-10.894-4.87-10.894-10.894 0-0.332 0.020-0.69 0.053-1.048 0.007-0.053 0.007-0.093 0.013-0.139 0.697-7.298 7.285-20.701 9.826-25.671 0.424-0.81 1.579-0.81 1.99 0.014 2.528 4.969 9.096 18.399 9.826 25.618 0.006 0.079 0.013 0.139 0.020 0.219 0.033 0.351 0.053 0.69 0.053 1.009 0.013 6.024-4.863 10.894-10.888 10.894zM171.133 499.015l-40.566-95.178h14.099l40.579 95.19-14.113-0.014z"></path>
</svg>
