<!-- Generated by IcoMoon.io -->
<svg version="1.1" xmlns="http://www.w3.org/2000/svg" width="199" height="512" viewBox="0 0 199 512">
<title>SolidDroneOnDrone</title>
<path d="M164.412 439.832h17.695c2.176 0 4.22-1.062 5.454-2.866 1.248-1.791 1.519-4.080 0.75-6.118l-82.776-218.832c-0.975-2.588-3.45-4.286-6.21-4.286s-5.228 1.705-6.21 4.286l-82.784 218.838c-0.77 2.037-0.491 4.326 0.749 6.118 1.24 1.798 3.277 2.866 5.454 2.866h17.702l-23.905 63.184c-0.77 2.037-0.491 4.326 0.749 6.118 1.24 1.798 3.277 2.867 5.454 2.867h165.573c2.176 0 4.22-1.062 5.454-2.866 1.248-1.791 1.519-4.080 0.75-6.118l-23.899-63.19zM103.862 403.719c0.026 0.351 0.053 0.69 0.053 1.009 0 6.011-4.877 10.888-10.901 10.888-6.011 0-10.894-4.87-10.894-10.888 0-0.339 0.020-0.69 0.059-1.048 0-0.040 0-0.093 0.013-0.139 0.697-7.298 7.285-20.707 9.826-25.657 0.412-0.816 1.573-0.816 1.984 0 2.534 4.963 9.103 18.399 9.826 25.618 0.020 0.073 0.020 0.139 0.033 0.219zM52.422 403.679c0.007-0.040 0.007-0.093 0.020-0.139 0.697-7.298 7.285-20.707 9.826-25.657 0.418-0.816 1.572-0.816 1.984 0 0.995 1.944 2.608 5.209 4.246 8.877 2.541 5.686 5.142 12.361 5.58 16.74 0.013 0.079 0.013 0.139 0.026 0.219 0.033 0.351 0.053 0.69 0.053 1.009 0 6.011-4.876 10.888-10.901 10.888-1.877 0-3.616-0.517-5.162-1.347-3.391-1.858-5.726-5.408-5.726-9.541 0-0.339 0.020-0.69 0.053-1.048zM103.915 476.895c0 6.011-4.877 10.888-10.901 10.888-6.011 0-10.894-4.87-10.894-10.888 0-0.339 0.020-0.69 0.059-1.048 0-0.040 0-0.093 0.013-0.139 0.697-7.298 7.285-20.707 9.826-25.657 0.412-0.816 1.573-0.816 1.984 0 2.534 4.963 9.103 18.399 9.826 25.618 0.013 0.079 0.013 0.139 0.026 0.219 0.033 0.345 0.059 0.683 0.059 1.009zM52.422 475.846c0.007-0.040 0.007-0.093 0.020-0.139 0.697-7.298 7.285-20.707 9.826-25.657 0.418-0.816 1.572-0.816 1.984 0 2.534 4.963 9.103 18.399 9.826 25.618 0.013 0.079 0.013 0.139 0.026 0.219 0.033 0.351 0.053 0.69 0.053 1.009 0 6.011-4.876 10.888-10.901 10.888-6.011 0-10.895-4.87-10.895-10.888 0.007-0.339 0.026-0.69 0.059-1.048z"></path>
</svg>
