<!-- Generated by IcoMoon.io -->
<svg version="1.1" xmlns="http://www.w3.org/2000/svg" width="512" height="512" viewBox="0 0 512 512">
<title>SolidTopDownDroneOnQueen</title>
<path d="M408.965 104.196h-305.847c-4.81 0-8.719 3.921-8.719 8.719v305.835c0 4.81 3.921 8.731 8.719 8.731h305.847c4.81 0 8.719-3.921 8.719-8.731v-305.824c0-4.81-3.909-8.731-8.719-8.731zM236.328 389.595c0 6.942-3.661 12.997-9.099 16.432-3.009 1.896-6.528 3.033-10.343 3.033-5.118 0-9.738-2.014-13.209-5.248-3.815-3.554-6.244-8.577-6.244-14.205 0-0.036 0-0.083 0-0.118 0.012-0.118 0.024-0.249 0.024-0.356 0.012-0.45 0.036-0.901 0.083-1.375 0-0.071 0-0.19 0.024-0.249 0.557-5.829 3.246-13.837 6.421-21.704 3.922-9.714 8.601-19.24 11.113-24.132 0.758-1.433 2.82-1.433 3.542 0 2.524 4.916 7.155 14.43 11.066 24.132 2.832 7.061 5.272 14.216 6.161 19.785 0.095 0.604 0.273 1.279 0.32 1.848 0.024 0.118 0.024 0.249 0.048 0.391 0.048 0.58 0.083 1.149 0.095 1.671 0 0.012 0 0.059 0 0.095zM314.128 389.595c0 6.942-3.661 12.997-9.111 16.432-2.998 1.896-6.528 3.033-10.331 3.033-5.118 0-9.738-2.014-13.209-5.248-3.815-3.554-6.243-8.577-6.243-14.205 0-0.036 0.012-0.083 0.012-0.118 0-0.118 0.012-0.249 0.024-0.356 0.012-0.45 0.036-0.901 0.083-1.375 0-0.071 0-0.19 0.024-0.249 0.557-5.829 3.246-13.837 6.433-21.704 3.921-9.714 8.601-19.24 11.113-24.132 0.758-1.433 2.82-1.433 3.543 0 2.512 4.916 7.156 14.43 11.065 24.132 2.832 7.061 5.272 14.216 6.161 19.785 0.095 0.604 0.26 1.279 0.32 1.848 0.024 0.118 0.024 0.249 0.048 0.391 0.048 0.58 0.083 1.149 0.095 1.671-0.024 0.012-0.024 0.059-0.024 0.095z"></path>
<path d="M451.52 58.549h-390.981c-6.54 0-11.847 5.307-11.847 11.847v390.957c0 6.551 5.307 11.847 11.847 11.847h390.981c6.551 0 11.847-5.296 11.847-11.847v-390.957c0-6.54-5.296-11.847-11.847-11.847zM441.379 418.762c0 17.889-14.548 32.426-32.414 32.426h-305.847c-17.877 0-32.414-14.548-32.414-32.426v-305.835c0-17.877 14.549-32.414 32.414-32.414h305.847c17.877 0 32.414 14.549 32.414 32.414v305.835z"></path>
</svg>
