<!-- Generated by IcoMoon.io -->
<svg version="1.1" xmlns="http://www.w3.org/2000/svg" width="199" height="512" viewBox="0 0 199 512">
<title>SolidPawnOnDroneOnDrone</title>
<path d="M188.291 504.821l-23.6-62.387h17.39c2.183 0 4.226-1.062 5.46-2.866 0.935-1.347 1.321-2.979 1.128-4.565 0-0.796-0.1-1.586-0.385-2.349l-35.722-94.434h8.898c2.196 0 4.26-1.101 5.494-2.913 1.234-1.825 1.48-4.147 0.663-6.183l-62.169-155.607c-1.002-2.522-3.45-4.173-6.157-4.173-2.713 0-5.156 1.652-6.171 4.173l-62.149 155.601c-0.816 2.037-0.564 4.353 0.67 6.183 1.234 1.812 3.297 2.913 5.493 2.913h8.898l-35.729 94.441c-0.385 1.022-0.511 2.103-0.378 3.165 0 1.32 0.358 2.634 1.128 3.748 1.241 1.798 3.277 2.866 5.46 2.866h17.39l-23.6 62.387c-0.77 2.037-0.491 4.326 0.749 6.118 1.24 1.798 3.277 2.866 5.454 2.866h165.573c2.176 0 4.22-1.062 5.454-2.866 1.248-1.791 1.526-4.080 0.756-6.118zM103.889 478.693c0 6.011-4.877 10.888-10.901 10.888-6.011 0-10.894-4.87-10.894-10.888 0-0.339 0.020-0.69 0.059-1.048 0-0.040 0-0.093 0.013-0.139 0.697-7.298 7.285-20.707 9.826-25.657 0.412-0.816 1.573-0.816 1.984 0 2.534 4.963 9.103 18.399 9.826 25.618 0.013 0.079 0.013 0.139 0.026 0.219 0.033 0.351 0.059 0.69 0.059 1.009zM74.132 478.693c0 6.011-4.877 10.888-10.901 10.888-6.011 0-10.895-4.87-10.895-10.888 0-0.339 0.020-0.69 0.053-1.048 0.007-0.040 0.007-0.093 0.020-0.139 0.697-7.298 7.285-20.707 9.826-25.657 0.418-0.816 1.572-0.816 1.984 0 2.534 4.963 9.103 18.399 9.826 25.618 0.013 0.079 0.013 0.139 0.026 0.219 0.040 0.351 0.059 0.69 0.059 1.009zM103.889 407.315c0 6.024-4.87 10.901-10.888 10.901-6.031 0-10.901-4.87-10.901-10.901 0-0.152 0.013-0.339 0.026-0.505 0-0.093-0.026-0.179-0.026-0.279 0-0.339 0.020-0.69 0.059-1.048 0-0.040 0-0.093 0.013-0.139 0.697-7.298 7.285-20.707 9.826-25.657 0.412-0.816 1.573-0.816 1.984 0 2.534 4.963 9.103 18.399 9.826 25.618 0.013 0.079 0.013 0.139 0.026 0.219 0.026 0.351 0.053 0.69 0.053 1.009 0 0.093-0.026 0.173-0.026 0.265 0.007 0.173 0.026 0.351 0.026 0.517zM64.225 379.68c0.989 1.944 2.614 5.209 4.246 8.877 2.541 5.686 5.142 12.361 5.587 16.74 0.013 0.079 0.013 0.139 0.026 0.219 0.033 0.351 0.053 0.69 0.053 1.009 0 0.093-0.026 0.173-0.026 0.265 0.007 0.173 0.026 0.358 0.026 0.517 0 6.024-4.877 10.901-10.895 10.901-6.024 0-10.901-4.87-10.901-10.901 0-0.173 0.014-0.378 0.026-0.564 0-0.079-0.033-0.139-0.033-0.219 0-0.339 0.020-0.69 0.053-1.048 0.014-0.040 0.014-0.087 0.026-0.139 0.697-7.298 7.285-20.707 9.826-25.657 0.425-0.816 1.579-0.816 1.984 0zM109.489 301.867c0.013 0.079 0.013 0.146 0.026 0.219 0.026 0.351 0.053 0.69 0.053 1.009 0 6.018-4.89 10.901-10.901 10.901s-10.894-4.877-10.894-10.901c0-0.332 0.020-0.677 0.053-1.035 0-0.053 0.007-0.106 0.020-0.146 0.697-7.305 7.285-20.707 9.826-25.663 0.418-0.81 1.579-0.81 1.984 0 2.534 4.969 9.109 18.412 9.833 25.618z"></path>
</svg>
