<!-- Generated by IcoMoon.io -->
<svg version="1.1" xmlns="http://www.w3.org/2000/svg" width="252" height="512" viewBox="0 0 252 512">
<title>SolidDroneOnQueenOnPawn</title>
<path d="M241.397 502.997l-43.406-103.019h10.702c2.176 0 4.22-1.075 5.454-2.866 1.248-1.798 1.519-4.080 0.75-6.118l-82.776-218.845c-0.976-2.588-3.45-4.286-6.21-4.286s-5.228 1.705-6.21 4.286l-82.784 218.845c-0.77 2.037-0.491 4.313 0.749 6.118 1.24 1.791 3.278 2.866 5.454 2.866h10.636l-43.406 103.019c-0.842 2.010-0.63 4.286 0.57 6.104s3.231 2.906 5.407 2.906h219.077c2.176 0 4.207-1.088 5.407-2.906s1.433-4.101 0.584-6.104zM108.772 363.817c0-0.053 0-0.106 0.013-0.139 0.697-7.312 7.285-20.707 9.826-25.671 0.412-0.803 1.573-0.803 1.984 0 2.534 4.976 9.103 18.412 9.826 25.618 0.013 0.079 0.013 0.152 0.026 0.219 0.026 0.365 0.053 0.697 0.053 1.009 0 2.428-0.822 4.651-2.163 6.462-1.924 2.594-4.943 4.293-8.393 4.399-0.12 0.007-0.225 0.040-0.338 0.040-6.011 0-10.895-4.87-10.895-10.901 0-0.325 0.020-0.683 0.059-1.035zM63.383 487.909c-1.904 0-3.663-0.531-5.221-1.38-3.37-1.844-5.679-5.394-5.679-9.514 0-0.332 0.020-0.69 0.053-1.055 0.007-0.053 0.007-0.087 0.014-0.139 0.697-7.305 7.291-20.721 9.833-25.683 0.418-0.81 1.579-0.81 1.99 0.014 1.121 2.203 3.032 6.077 4.877 10.324 2.322 5.354 4.552 11.279 4.963 15.313 0.007 0.079 0.013 0.139 0.020 0.212 0.033 0.358 0.046 0.697 0.046 1.015 0 6.018-4.876 10.894-10.895 10.894zM80.395 370.173c-0.889-1.572-1.44-3.377-1.44-5.321 0-0.325 0.020-0.69 0.053-1.035 0.007-0.053 0.007-0.106 0.020-0.139 0.697-7.312 7.285-20.707 9.826-25.671 0.418-0.803 1.573-0.803 1.984 0 0.445 0.882 1.041 2.077 1.678 3.397 3.005 6.177 7.55 16.282 8.148 22.227 0.013 0.079 0.013 0.152 0.026 0.219 0.033 0.365 0.053 0.697 0.053 1.009 0 6.024-4.876 10.901-10.901 10.901-4.067-0.007-7.577-2.276-9.448-5.587zM93.153 487.909c-2.269 0-4.379-0.69-6.124-1.885-2.879-1.95-4.77-5.262-4.77-9.003 0-0.332 0.020-0.69 0.053-1.055 0-0.053 0.007-0.087 0.013-0.139 0.697-7.305 7.291-20.721 9.833-25.683 0.424-0.81 1.579-0.81 1.99 0.014 1.008 1.977 2.654 5.308 4.32 9.043 2.514 5.653 5.076 12.241 5.52 16.587 0.007 0.079 0.013 0.139 0.020 0.212 0.033 0.358 0.053 0.697 0.053 1.015-0.007 6.018-4.89 10.894-10.907 10.894zM94.328 435.812l15.273-35.835h14.105l-15.273 35.835h-14.105zM122.924 487.909c-6.018 0-10.901-4.877-10.901-10.894 0-0.332 0.020-0.69 0.053-1.055 0.007-0.053 0.007-0.087 0.013-0.139 0.697-7.305 7.291-20.721 9.833-25.683 0.418-0.81 1.579-0.81 1.99 0.014 2.528 4.963 9.097 18.405 9.826 25.63 0.006 0.079 0.013 0.139 0.020 0.212 0.040 0.358 0.060 0.697 0.060 1.015 0.006 6.024-4.87 10.901-10.894 10.901zM171.027 499.015l-42.211-99.046h14.106l42.225 99.052-14.119-0.007z"></path>
</svg>
