<!-- Generated by IcoMoon.io -->
<svg version="1.1" xmlns="http://www.w3.org/2000/svg" width="252" height="512" viewBox="0 0 252 512">
<title>SolidQueenOnQueen</title>
<path d="M214.87 439.832h20.522c2.222 0 4.293-1.115 5.527-2.966s1.453-4.2 0.59-6.243l-109.475-259.822c-1.035-2.462-3.45-4.060-6.118-4.060s-5.082 1.599-6.118 4.060l-109.475 259.822c-0.863 2.050-0.643 4.392 0.591 6.243s3.304 2.966 5.527 2.966h20.515l-26.633 63.211c-0.863 2.057-0.643 4.392 0.591 6.243s3.304 2.966 5.527 2.966h218.951c2.222 0 4.293-1.115 5.527-2.966s1.453-4.193 0.59-6.243l-26.639-63.211zM133.865 477.14c0 6.018-4.876 10.901-10.901 10.901-6.011 0-10.895-4.877-10.895-10.901 0-0.332 0.020-0.683 0.053-1.035 0.007-0.046 0.007-0.106 0.013-0.146 0.704-7.298 7.291-20.707 9.826-25.663 0.418-0.81 1.579-0.81 1.99 0 2.534 4.969 9.103 18.412 9.826 25.624 0.013 0.073 0.013 0.146 0.026 0.219 0.033 0.345 0.060 0.683 0.060 1.002zM104.108 477.14c0 6.018-4.876 10.901-10.901 10.901-6.011 0-10.895-4.877-10.895-10.901 0-0.332 0.020-0.683 0.059-1.035 0-0.046 0-0.106 0.013-0.146 0.697-7.298 7.285-20.707 9.826-25.663 0.418-0.81 1.573-0.81 1.984 0 2.534 4.969 9.103 18.412 9.826 25.624 0.013 0.073 0.013 0.146 0.026 0.219 0.040 0.345 0.059 0.683 0.059 1.002zM74.357 477.14c0 6.018-4.87 10.901-10.901 10.901-6.011 0-10.888-4.877-10.888-10.901 0-0.332 0.014-0.683 0.053-1.035 0-0.046 0-0.106 0.014-0.146 0.697-7.298 7.285-20.707 9.826-25.663 0.411-0.81 1.572-0.81 1.984 0 2.534 4.969 9.103 18.412 9.833 25.624 0.007 0.073 0.013 0.146 0.020 0.219 0.040 0.345 0.059 0.683 0.059 1.002zM82.319 404.714c0-0.339 0.020-0.69 0.059-1.035 0-0.053 0-0.106 0.013-0.152 0.697-7.298 7.285-20.707 9.826-25.657 0.418-0.816 1.573-0.816 1.984 0 2.534 4.963 9.103 18.412 9.826 25.618 0.013 0.079 0.013 0.152 0.026 0.219 0.033 0.351 0.053 0.69 0.053 1.009 0 6.011-4.876 10.901-10.901 10.901-6.004 0-10.888-4.89-10.888-10.901zM63.456 415.615c-0.623 0-1.227-0.087-1.818-0.179-5.142-0.876-9.070-5.328-9.070-10.716 0-0.339 0.014-0.69 0.053-1.035 0-0.053 0-0.106 0.014-0.152 0.047-0.464 0.172-1.022 0.266-1.539 1.327-7.504 7.185-19.486 9.561-24.118 0.166-0.339 0.491-0.438 0.809-0.498 0.458-0.093 0.935 0.020 1.175 0.498 1.519 2.966 4.466 8.983 6.754 14.869 1.54 3.954 2.787 7.856 3.079 10.748 0.007 0.079 0.013 0.152 0.020 0.219 0.033 0.351 0.053 0.69 0.053 1.009 0.007 6.005-4.864 10.894-10.895 10.894zM133.812 403.705c0.026 0.351 0.053 0.69 0.053 1.009 0 6.011-4.876 10.901-10.901 10.901-6.011 0-10.895-4.884-10.895-10.901 0-0.339 0.020-0.69 0.053-1.035 0.007-0.053 0.007-0.106 0.013-0.152 0.704-7.298 7.291-20.707 9.826-25.657 0.418-0.816 1.579-0.816 1.99 0 2.534 4.963 9.103 18.412 9.826 25.618 0.020 0.073 0.020 0.152 0.033 0.219z"></path>
</svg>
