<!-- Generated by IcoMoon.io -->
<svg version="1.1" xmlns="http://www.w3.org/2000/svg" width="512" height="512" viewBox="0 0 512 512">
<title>SolidTopDownTree</title>
<path d="M364.135 155.079h-216.211c-1.481 0-2.701 1.208-2.701 2.701v216.211c0 1.481 1.208 2.701 2.701 2.701h216.211c1.481 0 2.701-1.221 2.701-2.701v-216.211c0-1.493-1.221-2.701-2.701-2.701zM266.111 355.664c-2.998 1.896-6.528 3.033-10.331 3.033-5.118 0-9.738-2.014-13.209-5.248-3.815-3.554-6.244-8.577-6.244-14.205 0-0.154 0.024-0.32 0.036-0.474 0.012-0.45 0.036-0.901 0.083-1.375 0-0.071 0-0.19 0.024-0.249 1.244-13.032 13.008-36.975 17.534-45.837 0.758-1.433 2.819-1.433 3.542 0 4.336 8.495 15.14 30.708 17.226 43.918 0.095 0.604 0.26 1.279 0.32 1.848 0.024 0.118 0.024 0.249 0.048 0.391 0.048 0.628 0.095 1.232 0.095 1.777-0.012 6.942-3.673 12.985-9.123 16.42z"></path>
<path d="M451.52 58.549h-390.981c-6.54 0-11.847 5.307-11.847 11.847v390.957c0 6.551 5.307 11.847 11.847 11.847h390.981c6.551 0 11.847-5.296 11.847-11.847v-390.957c0-6.54-5.296-11.847-11.847-11.847zM441.225 418.644c0 17.889-14.548 32.426-32.414 32.426h-305.847c-17.877 0-32.414-14.548-32.414-32.426v-305.835c0-17.877 14.549-32.414 32.414-32.414h305.835c17.877 0 32.414 14.549 32.414 32.414v305.835z"></path>
<path d="M408.811 104.090h-305.847c-4.81 0-8.719 3.921-8.719 8.719v305.835c0 4.81 3.921 8.731 8.719 8.731h305.835c4.81 0 8.719-3.921 8.719-8.731v-305.835c0.012-4.81-3.897-8.719-8.707-8.719zM390.531 373.98c0 14.56-11.836 26.395-26.396 26.395h-216.211c-14.548 0-26.395-11.836-26.395-26.395v-216.211c0-14.548 11.847-26.395 26.395-26.395h216.211c14.56 0 26.395 11.847 26.395 26.395v216.211z"></path>
</svg>
