<!-- Generated by IcoMoon.io -->
<svg version="1.1" xmlns="http://www.w3.org/2000/svg" width="512" height="512" viewBox="0 0 512 512">
<title>SolidTopDownDrone</title>
<path d="M406.572 106.21h-301.084c-5.035 0-9.123 4.088-9.123 9.123v301.084c0 5.047 4.088 9.123 9.123 9.123h301.084c5.047 0 9.134-4.075 9.134-9.123v-301.084c0-5.035-4.087-9.123-9.134-9.123zM209.091 373.684c0-0.071 0-0.19 0.024-0.249 1.244-13.032 13.008-36.975 17.534-45.837 0.746-1.433 2.82-1.433 3.542 0 4.537 8.885 16.266 32.876 17.558 45.766 0.024 0.118 0.024 0.249 0.048 0.391 0.048 0.628 0.095 1.232 0.095 1.777 0 10.757-8.696 19.465-19.465 19.465-10.733 0-19.441-8.696-19.441-19.465 0.012-0.58 0.036-1.197 0.107-1.848zM281.584 394.997c-10.745 0-19.465-8.696-19.465-19.465 0-0.58 0.048-1.209 0.118-1.848 0-0.071 0-0.19 0.024-0.249 1.244-13.032 13.008-36.975 17.546-45.837 0.758-1.433 2.82-1.433 3.543 0 4.538 8.885 16.243 32.876 17.534 45.766 0.024 0.118 0.024 0.249 0.048 0.391 0.048 0.628 0.095 1.232 0.095 1.777-0.012 10.757-8.707 19.465-19.441 19.465z"></path>
</svg>
