<!-- Generated by IcoMoon.io -->
<svg version="1.1" xmlns="http://www.w3.org/2000/svg" width="252" height="512" viewBox="0 0 252 512">
<title>SolidQueenOnDroneExpanded</title>
<path d="M241.496 363.717l-109.475-259.815c-1.035-2.462-3.45-4.061-6.118-4.061s-5.082 1.599-6.118 4.061l-109.475 259.815c-0.863 2.063-0.643 4.392 0.591 6.243s3.304 2.966 5.527 2.966h69.647l-49.204 130.090c-0.77 2.037-0.491 4.313 0.749 6.118 1.24 1.791 3.277 2.867 5.454 2.867h165.566c2.176 0 4.22-1.075 5.454-2.866 1.248-1.798 1.519-4.080 0.75-6.118l-49.204-130.084h69.739c2.222 0 4.293-1.115 5.527-2.966s1.453-4.187 0.59-6.25zM130.448 476.882c0 6.024-4.876 10.901-10.901 10.901-6.011 0-10.895-4.87-10.895-10.901 0-0.325 0.020-0.69 0.059-1.035 0-0.053 0-0.106 0.013-0.139 0.697-7.312 7.285-20.707 9.826-25.671 0.412-0.803 1.573-0.803 1.984 0 2.534 4.976 9.103 18.412 9.826 25.618 0.013 0.079 0.013 0.152 0.026 0.219 0.033 0.358 0.060 0.697 0.060 1.009zM93.207 348.716c-6.011 0-10.894-4.87-10.894-10.901 0-0.325 0.020-0.677 0.059-1.035 0-0.040 0-0.106 0.013-0.139 0.697-7.298 7.285-20.707 9.826-25.671 0.418-0.803 1.573-0.803 1.984 0 1.865 3.663 5.892 11.877 8.194 18.849 0.829 2.514 1.447 4.87 1.639 6.781 0.013 0.067 0.013 0.139 0.026 0.219 0.033 0.351 0.053 0.69 0.053 0.995 0 5.301-3.775 9.7-8.784 10.682-0.69 0.139-1.394 0.219-2.117 0.219zM122.957 348.716c-5.029 0-9.229-3.43-10.477-8.082-0.246-0.902-0.418-1.838-0.418-2.82 0-0.325 0.020-0.677 0.053-1.035 0.007-0.040 0.007-0.106 0.013-0.139 0.704-7.298 7.291-20.707 9.826-25.671 0.378-0.716 1.3-0.697 1.791-0.126 0.053 0.067 0.159 0.040 0.199 0.126 2.534 4.976 9.103 18.412 9.826 25.63 0.013 0.067 0.013 0.139 0.026 0.219 0.026 0.351 0.053 0.69 0.053 0.995 0.006 6.024-4.876 10.901-10.894 10.901zM52.621 336.779c0-0.040 0-0.106 0.014-0.139 0.697-7.298 7.285-20.707 9.826-25.671 0.411-0.803 1.572-0.803 1.984 0 2.534 4.976 9.103 18.412 9.833 25.63 0.007 0.067 0.013 0.139 0.020 0.219 0.033 0.351 0.053 0.69 0.053 0.995 0 6.024-4.87 10.901-10.901 10.901-6.011 0-10.888-4.87-10.888-10.901 0.007-0.325 0.020-0.677 0.059-1.035zM78.955 475.846c0.007-0.053 0.007-0.106 0.020-0.139 0.697-7.312 7.285-20.707 9.826-25.671 0.418-0.803 1.573-0.803 1.984 0 2.534 4.976 9.103 18.412 9.826 25.618 0.013 0.079 0.013 0.152 0.026 0.219 0.033 0.365 0.053 0.697 0.053 1.009 0 6.024-4.876 10.901-10.901 10.901-6.011 0-10.895-4.87-10.895-10.901 0.013-0.325 0.033-0.69 0.059-1.035z"></path>
</svg>
