<!-- Generated by IcoMoon.io -->
<svg version="1.1" xmlns="http://www.w3.org/2000/svg" width="252" height="512" viewBox="0 0 252 512">
<title>SolidDroneOnQueenOnDroneExpanded</title>
<path d="M241.768 433.291l-42.702-101.334h9.893c2.176 0 4.22-1.062 5.454-2.866 1.248-1.791 1.519-4.080 0.75-6.118l-82.77-218.838c-0.976-2.588-3.45-4.286-6.21-4.286s-5.228 1.705-6.21 4.286l-82.784 218.838c-0.77 2.031-0.491 4.326 0.757 6.118 1.24 1.798 3.278 2.866 5.454 2.866h9.886l-42.696 101.334c-0.863 2.063-0.643 4.392 0.591 6.243s3.304 2.966 5.527 2.966h43.333l-22.897 60.517c-0.77 2.037-0.491 4.313 0.749 6.118 1.24 1.791 3.278 2.866 5.454 2.866h165.566c2.176 0 4.22-1.075 5.454-2.866 1.248-1.798 1.519-4.080 0.75-6.118l-22.891-60.517h43.425c2.222 0 4.293-1.115 5.527-2.966s1.453-4.187 0.59-6.243zM130.72 476.882c0 6.024-4.876 10.901-10.901 10.901-6.011 0-10.895-4.87-10.895-10.901 0-0.325 0.020-0.69 0.059-1.035 0-0.053 0-0.106 0.013-0.139 0.697-7.312 7.285-20.707 9.826-25.671 0.412-0.803 1.573-0.803 1.984 0 2.534 4.976 9.103 18.412 9.826 25.618 0.013 0.079 0.013 0.152 0.026 0.219 0.033 0.358 0.060 0.697 0.060 1.009zM100.969 476.882c0 6.024-4.877 10.901-10.901 10.901-6.011 0-10.894-4.87-10.894-10.901 0-0.325 0.020-0.69 0.053-1.035 0.007-0.053 0.007-0.106 0.020-0.139 0.697-7.312 7.285-20.707 9.826-25.671 0.418-0.803 1.573-0.803 1.984 0 2.534 4.976 9.103 18.412 9.826 25.618 0.013 0.079 0.013 0.152 0.026 0.219 0.040 0.358 0.059 0.697 0.059 1.009zM79.227 296.844c0-0.339 0.020-0.69 0.053-1.048 0.007-0.040 0.007-0.093 0.020-0.139 0.697-7.298 7.285-20.707 9.826-25.657 0.418-0.816 1.573-0.816 1.984 0 0.391 0.763 0.903 1.791 1.453 2.913 2.999 6.118 7.763 16.607 8.38 22.704 0.013 0.079 0.013 0.139 0.026 0.219 0.033 0.351 0.053 0.69 0.053 1.009 0 6.011-4.877 10.888-10.901 10.888-4.253 0-7.895-2.462-9.694-6.011-0.743-1.479-1.201-3.112-1.201-4.877zM134.131 407.382c0 6.024-4.876 10.901-10.901 10.901-6.011 0-10.895-4.87-10.895-10.901 0-0.325 0.020-0.677 0.053-1.035 0.007-0.040 0.007-0.106 0.013-0.139 0.704-7.298 7.291-20.707 9.826-25.671 0.418-0.803 1.579-0.803 1.99 0 2.534 4.976 9.103 18.412 9.826 25.63 0.013 0.067 0.013 0.139 0.026 0.219 0.033 0.351 0.060 0.69 0.060 0.995zM104.327 406.386c0.033 0.351 0.053 0.69 0.053 0.995 0 6.024-4.876 10.901-10.901 10.901-3.463 0-6.516-1.659-8.513-4.187-1.466-1.851-2.376-4.16-2.376-6.714 0-0.325 0.020-0.677 0.059-1.035 0-0.040 0-0.106 0.013-0.139 0.697-7.298 7.285-20.707 9.826-25.671 0.418-0.803 1.573-0.803 1.984 0 0.471 0.935 1.115 2.229 1.811 3.656 3.005 6.21 7.431 16.11 8.015 21.981 0.013 0.060 0.013 0.132 0.026 0.212zM130.72 295.836c0.026 0.351 0.053 0.69 0.053 1.009 0 3.616-1.792 6.8-4.505 8.784-0.132 0.093-0.246 0.192-0.378 0.286-1.725 1.141-3.788 1.812-6.018 1.812-2.993 0-5.692-1.207-7.663-3.158-1.99-1.977-3.225-4.711-3.225-7.729 0-0.339 0.020-0.69 0.059-1.048 0-0.040 0-0.093 0.013-0.139 0.697-7.298 7.285-20.707 9.826-25.657 0.412-0.816 1.573-0.816 1.984 0 1.095 2.137 2.926 5.872 4.724 9.979 2.382 5.428 4.691 11.531 5.109 15.639 0.006 0.079 0.006 0.146 0.020 0.226zM52.893 406.346c0-0.040 0-0.106 0.014-0.139 0.697-7.298 7.285-20.707 9.826-25.671 0.411-0.803 1.573-0.803 1.984 0 2.382 4.678 8.287 16.806 9.588 24.244 0.079 0.451 0.206 0.962 0.246 1.387 0.007 0.067 0.013 0.139 0.020 0.219 0.033 0.351 0.053 0.69 0.053 0.995 0 3.709-1.858 6.974-4.691 8.944-1.765 1.234-3.894 1.957-6.21 1.957-6.011 0-10.888-4.87-10.888-10.901 0.007-0.318 0.020-0.67 0.059-1.035z"></path>
</svg>
