<!-- Generated by IcoMoon.io -->
<svg version="1.1" xmlns="http://www.w3.org/2000/svg" width="512" height="512" viewBox="0 0 512 512">
<title>SolidSouthEastQueen</title>
<path d="M498.945 493.329l-189.827-466.27c-1.505-3.684-4.739-6.35-8.637-7.132-3.886-0.794-7.914 0.415-10.71 3.21l-276.442 276.454c-2.819 2.82-4.028 6.848-3.235 10.733 0.77 3.897 3.447 7.132 7.155 8.637l466.281 189.804c4.396 1.789 9.466 0.77 12.842-2.594 3.365-3.377 4.384-8.435 2.571-12.842zM252.31 152.26c8.329 10.106 16.954 35.34 19.998 44.818 0.498 1.564-0.971 3.009-2.5 2.512-9.49-3.092-34.76-11.752-44.77-19.963-0.095-0.059-0.202-0.166-0.308-0.249-0.474-0.415-0.936-0.805-1.327-1.208-7.606-7.606-7.594-19.927 0-27.509s19.927-7.618 27.521 0c0.403 0.415 0.817 0.876 1.232 1.386 0.059 0.059 0.119 0.154 0.154 0.213zM185.847 188.228c7.594-7.594 19.904-7.594 27.509 0.012 0.415 0.403 0.817 0.876 1.244 1.375 0.024 0.071 0.119 0.142 0.166 0.19 8.305 10.118 16.941 35.352 19.998 44.841 0.486 1.529-0.983 3.009-2.5 2.5-9.501-3.081-34.76-11.752-44.782-19.951-0.107-0.071-0.202-0.166-0.308-0.249-0.474-0.415-0.924-0.794-1.315-1.196-7.63-7.606-7.618-19.927-0.012-27.521zM307.399 162.011c-9.514-3.081-34.76-11.752-44.806-19.951-0.095-0.071-0.19-0.166-0.296-0.249-0.486-0.403-0.936-0.794-1.327-1.196-7.606-7.618-7.606-19.927 0-27.521s19.892-7.594 27.509 0.012c0.414 0.415 0.829 0.876 1.244 1.374 0.048 0.059 0.142 0.13 0.166 0.201 8.329 10.105 16.942 35.34 20.010 44.818 0.486 1.552-0.995 3.021-2.5 2.512z"></path>
</svg>
