<!-- Generated by IcoMoon.io -->
<svg version="1.1" xmlns="http://www.w3.org/2000/svg" width="199" height="512" viewBox="0 0 199 512">
<title>SolidPawnOnDroneOnPawn</title>
<path d="M188.437 503.202l-36.094-95.423h9.176c2.203 0 4.26-1.088 5.494-2.913 1.234-1.812 1.486-4.134 0.67-6.183l-62.169-155.601c-1.002-2.522-3.45-4.173-6.164-4.173s-5.156 1.652-6.164 4.173l-62.156 155.601c-0.816 2.050-0.564 4.365 0.67 6.183 1.24 1.825 3.291 2.913 5.493 2.913h9.169l-4.093 10.815-32.007 84.608c-0.756 1.997-0.477 4.233 0.736 5.991 1.214 1.752 3.212 2.807 5.348 2.807h166.011c2.137 0 4.14-1.055 5.355-2.807 1.214-1.765 1.493-3.994 0.723-5.991zM50.405 476.245c0.007-0.053 0.007-0.106 0.014-0.139 0.703-7.325 7.312-20.774 9.853-25.736 0.425-0.816 1.579-0.816 1.997 0 0.339 0.663 0.763 1.5 1.221 2.435 2.236 4.538 5.567 11.771 7.391 17.768 0.611 2.017 1.082 3.908 1.24 5.481 0.007 0.079 0.013 0.152 0.020 0.219 0.033 0.351 0.053 0.69 0.053 1.009 0 4.83-3.151 8.864-7.491 10.317-1.088 0.365-2.23 0.611-3.437 0.611-3.696 0-6.947-1.851-8.924-4.664-1.248-1.778-1.997-3.921-1.997-6.257 0.007-0.332 0.026-0.677 0.059-1.041zM109.549 371.44c0 0.079 0.013 0.139 0.013 0.219 0.033 0.351 0.059 0.69 0.059 1.009 0 1.984-0.57 3.822-1.506 5.421-1.877 3.251-5.361 5.461-9.395 5.461-3.503 0-6.582-1.678-8.573-4.24-1.433-1.844-2.322-4.134-2.322-6.648 0-0.339 0.020-0.69 0.053-1.048 0-0.040 0.007-0.093 0.013-0.139 0.704-7.298 7.285-20.707 9.833-25.657 0.418-0.816 1.566-0.816 1.984 0 2.534 4.969 9.103 18.412 9.84 25.624zM91.103 488.207c-6.031 0-10.921-4.89-10.921-10.921 0-0.332 0.020-0.677 0.046-1.035 0.007-0.053 0.007-0.106 0.013-0.139 0.704-7.325 7.311-20.774 9.859-25.736 0.418-0.816 1.579-0.816 1.997 0 2.541 4.976 9.123 18.458 9.853 25.683 0.013 0.079 0.013 0.152 0.026 0.219 0.033 0.351 0.053 0.69 0.053 1.009 0 6.031-4.883 10.921-10.927 10.921zM83.739 435.128h-13.827l9.919-27.349h13.827l-9.919 27.349zM138.158 498.995l-33.108-91.216h13.827l33.075 91.216h-13.794z"></path>
</svg>
