<!-- Generated by IcoMoon.io -->
<svg version="1.1" xmlns="http://www.w3.org/2000/svg" width="252" height="512" viewBox="0 0 252 512">
<title>SolidTree</title>
<path d="M241.436 502.459l-47.996-113.914h15.048c2.256 0 4.373-1.101 5.653-2.959 1.294-1.858 1.572-4.226 0.769-6.337l-41.793-110.517h14.803c2.289 0 4.399-1.135 5.686-3.026 1.268-1.885 1.532-4.286 0.69-6.396l-61.996-155.203c-1.042-2.614-3.57-4.326-6.382-4.326s-5.341 1.712-6.382 4.326l-62.010 155.203c-0.849 2.116-0.584 4.519 0.69 6.396 1.281 1.891 3.404 3.026 5.686 3.026h14.815l-41.806 110.517c-0.796 2.11-0.511 4.478 0.77 6.337 1.294 1.858 3.404 2.959 5.666 2.959h15.035l-47.996 113.914c-0.889 2.116-0.663 4.538 0.611 6.462 1.274 1.93 3.424 3.079 5.732 3.079h218.374c2.315 0 4.452-1.148 5.732-3.079 1.268-1.924 1.493-4.339 0.604-6.462zM133.845 476.729c0 6.005-4.863 10.861-10.862 10.861-6.005 0-10.874-4.85-10.874-10.861 0-0.339 0.020-0.683 0.046-1.041 0-0.053 0.013-0.106 0.013-0.146 0.71-7.265 7.265-20.647 9.806-25.591 0.431-0.81 1.579-0.81 1.99 0 2.508 4.957 9.063 18.372 9.793 25.564 0.006 0.067 0.020 0.139 0.020 0.212 0.047 0.345 0.066 0.677 0.066 1.002zM104.168 476.729c0 6.005-4.87 10.861-10.868 10.861s-10.861-4.85-10.861-10.861c0-0.339 0.013-0.683 0.059-1.041 0-0.053 0-0.106 0.013-0.146 0.69-7.265 7.258-20.647 9.799-25.591 0.418-0.81 1.566-0.81 1.99 0 2.522 4.957 9.076 18.372 9.799 25.564 0.007 0.067 0.013 0.139 0.020 0.212 0.020 0.345 0.046 0.677 0.046 1.002zM120.615 326.495c2.534 4.957 9.077 18.358 9.806 25.558 0.006 0.079 0.026 0.139 0.026 0.212 0.033 0.358 0.060 0.69 0.060 1.015 0 5.991-4.883 10.868-10.881 10.868-6.005 0-10.862-4.87-10.862-10.868 0-0.339 0.033-0.69 0.059-1.048 0.007-0.040 0.007-0.093 0.013-0.139 0.697-7.279 7.258-20.647 9.799-25.591 0.404-0.81 1.559-0.81 1.977-0.007zM100.737 352.053c0.013 0.079 0.020 0.139 0.020 0.212 0.040 0.358 0.059 0.69 0.059 1.015 0 5.991-4.856 10.868-10.855 10.868-2.090 0-4.014-0.63-5.68-1.639-3.112-1.918-5.195-5.328-5.195-9.229 0-0.339 0.026-0.69 0.053-1.048 0.013-0.040 0.013-0.093 0.020-0.139 0.697-7.279 7.265-20.647 9.799-25.591 0.424-0.803 1.579-0.803 1.984 0 1.049 2.050 2.773 5.574 4.511 9.488 2.428 5.527 4.856 11.85 5.281 16.063zM136.068 232.227c0.013 0.079 0.013 0.146 0.026 0.213 0.033 0.358 0.053 0.69 0.053 1.008 0 3.63-1.798 6.827-4.538 8.804-1.785 1.287-3.954 2.070-6.329 2.070-1.971 0-3.815-0.571-5.407-1.5-3.251-1.885-5.454-5.355-5.454-9.375 0-0.325 0.020-0.684 0.053-1.035 0-0.047 0-0.093 0.007-0.139 0.697-7.292 7.265-20.661 9.806-25.611 0.418-0.81 1.579-0.81 1.984 0 2.521 4.97 9.063 18.372 9.8 25.564zM52.807 475.68c0-0.053 0.014-0.106 0.014-0.146 0.703-7.265 7.265-20.647 9.806-25.591 0.418-0.81 1.579-0.81 1.984 0 2.522 4.957 9.076 18.372 9.806 25.564 0.007 0.067 0.013 0.139 0.020 0.212 0.033 0.358 0.053 0.69 0.053 1.009 0 6.005-4.864 10.861-10.855 10.861-6.005 0-10.874-4.85-10.874-10.861 0-0.339 0.026-0.683 0.047-1.048z"></path>
</svg>
