<!-- Generated by IcoMoon.io -->
<svg version="1.1" xmlns="http://www.w3.org/2000/svg" width="158" height="512" viewBox="0 0 158 512">
<title>SolidPawnOnPawn</title>
<path d="M122.858 442.553h18c2.203 0 4.26-1.088 5.494-2.913 1.234-1.812 1.486-4.134 0.67-6.183l-62.169-155.595c-1.002-2.528-3.45-4.173-6.164-4.173s-5.156 1.646-6.164 4.173l-62.156 155.595c-0.816 2.050-0.564 4.365 0.67 6.183 1.24 1.825 3.291 2.913 5.493 2.913h17.895l-24.111 60.351c-0.816 2.050-0.564 4.365 0.67 6.183 1.24 1.825 3.291 2.913 5.493 2.913h124.325c2.203 0 4.26-1.088 5.494-2.913 1.234-1.812 1.486-4.134 0.67-6.183l-24.111-60.351zM88.9 476.895c0 6.011-4.883 10.888-10.894 10.888-6.025 0-10.901-4.87-10.901-10.888 0-0.339 0.020-0.69 0.053-1.048 0-0.040 0.007-0.093 0.013-0.139 0.704-7.298 7.285-20.707 9.833-25.657 0.418-0.816 1.566-0.816 1.984 0 2.534 4.963 9.109 18.399 9.84 25.618 0 0.079 0.013 0.139 0.013 0.219 0.040 0.345 0.059 0.683 0.059 1.009zM88.881 406.22c0 0.079 0.013 0.139 0.013 0.219 0.033 0.351 0.059 0.69 0.059 1.009 0 6.011-4.883 10.888-10.895 10.888-6.025 0-10.901-4.87-10.901-10.888 0-0.339 0.020-0.69 0.053-1.048 0-0.040 0.007-0.093 0.013-0.139 0.704-7.298 7.285-20.707 9.833-25.657 0.418-0.816 1.566-0.816 1.984 0 2.534 4.957 9.109 18.399 9.84 25.618z"></path>
</svg>
