<!-- Generated by IcoMoon.io -->
<svg version="1.1" xmlns="http://www.w3.org/2000/svg" width="199" height="512" viewBox="0 0 199 512">
<title>SolidPawnOnDrone</title>
<path d="M188.258 503.017l-36.028-95.237h9.202c2.196 0 4.26-1.101 5.494-2.913 1.234-1.825 1.48-4.147 0.663-6.183l-62.169-155.607c-1.002-2.522-3.45-4.173-6.157-4.173-2.713 0-5.156 1.652-6.171 4.173l-62.149 155.614c-0.816 2.037-0.564 4.353 0.67 6.183 1.234 1.812 3.297 2.913 5.493 2.913h9.196l-36.028 95.237c-0.77 2.037-0.491 4.326 0.749 6.118 1.24 1.798 3.277 2.867 5.461 2.867h165.566c2.183 0 4.226-1.062 5.46-2.866 1.234-1.791 1.519-4.087 0.743-6.124zM103.856 476.882c0 6.024-4.87 10.901-10.888 10.901-6.031 0-10.901-4.87-10.901-10.901 0-0.325 0.020-0.677 0.053-1.035 0-0.040 0.013-0.106 0.013-0.139 0.704-7.298 7.285-20.707 9.84-25.671 0.418-0.803 1.566-0.803 1.984 0 2.534 4.976 9.097 18.412 9.82 25.63 0.013 0.067 0.026 0.139 0.026 0.219 0.026 0.345 0.053 0.683 0.053 0.995zM109.456 371.433c0.013 0.079 0.013 0.146 0.026 0.219 0.026 0.351 0.053 0.69 0.053 1.009 0 6.018-4.89 10.901-10.901 10.901s-10.895-4.877-10.895-10.901c0-0.332 0.020-0.677 0.053-1.035 0-0.053 0.007-0.106 0.020-0.146 0.697-7.305 7.285-20.707 9.826-25.663 0.418-0.81 1.579-0.81 1.984 0 2.534 4.969 9.109 18.412 9.833 25.618zM52.369 475.846c0.007-0.040 0.007-0.106 0.014-0.139 0.703-7.298 7.285-20.707 9.833-25.671 0.418-0.803 1.566-0.803 1.984 0 2.534 4.976 9.103 18.412 9.833 25.63 0 0.067 0.013 0.139 0.013 0.219 0.040 0.351 0.059 0.69 0.059 0.995 0 6.024-4.877 10.901-10.895 10.901-6.024 0-10.901-4.87-10.901-10.901 0.007-0.325 0.026-0.677 0.059-1.035z"></path>
</svg>
