<!-- Generated by IcoMoon.io -->
<svg version="1.1" xmlns="http://www.w3.org/2000/svg" width="512" height="512" viewBox="0 0 512 512">
<title>SolidSouthEastDrone</title>
<path d="M462.123 456.2l-171.761-380.851c-1.611-3.531-4.846-6.090-8.672-6.776-3.839-0.711-7.748 0.522-10.509 3.27l-209.043 209.055c-2.748 2.736-3.98 6.658-3.282 10.509 0.699 3.815 3.246 7.061 6.777 8.661l380.828 171.796c4.502 2.026 9.762 1.066 13.233-2.405 3.495-3.495 4.466-8.767 2.428-13.257zM205.181 198.997c7.594-7.594 19.927-7.606 27.509-0.012 0.415 0.427 0.829 0.9 1.232 1.41 0.059 0.048 0.119 0.119 0.178 0.19 8.328 10.106 16.953 35.34 19.998 44.806 0.498 1.552-0.971 3.021-2.512 2.5-9.478-3.056-34.748-11.728-44.758-19.927-0.119-0.083-0.213-0.166-0.32-0.249-0.462-0.415-0.924-0.805-1.339-1.22-7.606-7.582-7.582-19.904 0.012-27.498zM289.154 210.311c-9.466-3.069-34.736-11.728-44.782-19.927-0.119-0.083-0.19-0.166-0.296-0.249-0.486-0.415-0.936-0.805-1.339-1.22-7.594-7.594-7.571-19.927 0.024-27.509 7.594-7.594 19.915-7.606 27.497-0.012 0.426 0.427 0.829 0.9 1.256 1.386 0.036 0.071 0.095 0.131 0.142 0.213 8.341 10.106 16.965 35.34 20.010 44.806 0.498 1.576-0.959 3.033-2.512 2.512z"></path>
</svg>
