<!-- Generated by IcoMoon.io -->
<svg version="1.1" xmlns="http://www.w3.org/2000/svg" width="252" height="512" viewBox="0 0 252 512">
<title>SolidQueenOnDroneOnQueenExpanded</title>
<path d="M184.974 367.977h21.053c2.176 0 4.22-1.068 5.454-2.866 1.248-1.798 1.519-4.080 0.75-6.118l-25.047-66.216h48.481c2.222 0 4.293-1.115 5.527-2.966s1.453-4.187 0.59-6.243l-109.476-259.822c-1.035-2.462-3.45-4.061-6.118-4.061s-5.082 1.599-6.118 4.061l-109.475 259.822c-0.863 2.057-0.643 4.385 0.591 6.243s3.304 2.966 5.527 2.966h42.59l-25.053 66.216c-0.77 2.037-0.491 4.32 0.749 6.118s3.277 2.866 5.454 2.866h26.938l-56.794 134.808c-0.863 2.063-0.643 4.392 0.591 6.243s3.304 2.966 5.527 2.966h218.951c2.222 0 4.293-1.115 5.527-2.966s1.453-4.187 0.59-6.243l-56.808-134.808zM134.137 476.882c0 6.024-4.876 10.901-10.901 10.901-6.011 0-10.895-4.87-10.895-10.901 0-0.325 0.020-0.677 0.053-1.035 0.007-0.040 0.007-0.106 0.013-0.139 0.704-7.298 7.291-20.707 9.826-25.671 0.418-0.803 1.579-0.803 1.99 0 2.534 4.976 9.103 18.412 9.826 25.63 0.013 0.067 0.013 0.139 0.026 0.219 0.033 0.345 0.060 0.683 0.060 0.995zM104.38 476.882c0 6.024-4.876 10.901-10.901 10.901-6.011 0-10.895-4.87-10.895-10.901 0-0.325 0.020-0.677 0.059-1.035 0-0.040 0-0.106 0.013-0.139 0.697-7.298 7.285-20.707 9.826-25.671 0.418-0.803 1.573-0.803 1.984 0 2.534 4.976 9.103 18.412 9.826 25.63 0.013 0.067 0.013 0.139 0.026 0.219 0.040 0.345 0.059 0.683 0.059 0.995zM82.591 257.652c0-0.325 0.020-0.677 0.059-1.035 0-0.040 0-0.106 0.013-0.139 0.697-7.298 7.285-20.708 9.826-25.671 0.418-0.803 1.573-0.803 1.984 0 0.378 0.743 0.869 1.725 1.394 2.8 2.993 6.104 7.816 16.694 8.433 22.831 0.013 0.067 0.013 0.139 0.026 0.219 0.033 0.351 0.053 0.69 0.053 0.995 0 6.024-4.876 10.901-10.901 10.901-3.748 0-7.059-1.904-9.017-4.791-1.181-1.738-1.871-3.841-1.871-6.111zM106.099 331.824c0-0.046 0-0.099 0.013-0.139 0.697-7.305 7.285-20.707 9.826-25.663 0.412-0.81 1.573-0.81 1.984 0 2.534 4.969 9.103 18.405 9.826 25.618 0.013 0.079 0.013 0.146 0.026 0.219 0.026 0.358 0.053 0.69 0.053 1.009 0 6.018-4.876 10.894-10.901 10.894-6.011 0-10.895-4.87-10.895-10.894 0.007-0.332 0.026-0.69 0.067-1.041zM76.341 331.824c0.007-0.046 0.007-0.099 0.020-0.139 0.697-7.305 7.285-20.707 9.826-25.663 0.418-0.81 1.573-0.81 1.984 0 0.704 1.394 1.739 3.47 2.867 5.865 2.641 5.627 5.766 13.051 6.701 18.272 0.087 0.491 0.219 1.035 0.266 1.486 0.013 0.079 0.013 0.146 0.026 0.219 0.033 0.358 0.053 0.69 0.053 1.009 0 4.014-2.203 7.484-5.434 9.375-1.612 0.942-3.457 1.519-5.46 1.519-3.204 0-6.064-1.413-8.055-3.616-1.745-1.93-2.84-4.472-2.84-7.279-0.007-0.339 0.013-0.697 0.046-1.048zM134.058 256.438c0.013 0.067 0.013 0.139 0.026 0.219 0.026 0.351 0.053 0.69 0.053 0.995 0 4.24-2.441 7.869-5.971 9.673-1.347 0.69-2.847 1.115-4.452 1.181-0.159 0.014-0.312 0.053-0.471 0.053-5.069 0-9.289-3.476-10.503-8.174-0.225-0.876-0.385-1.785-0.385-2.727 0-0.325 0.020-0.677 0.053-1.035 0.007-0.040 0.007-0.106 0.013-0.139 0.704-7.298 7.291-20.708 9.826-25.671 0.418-0.803 1.579-0.803 1.99 0 0.956 1.877 2.488 4.97 4.067 8.472 2.588 5.766 5.302 12.66 5.752 17.151zM52.9 256.617c0-0.040 0-0.106 0.014-0.139 0.697-7.298 7.285-20.708 9.826-25.671 0.411-0.803 1.572-0.803 1.984 0 2.243 4.405 7.636 15.433 9.355 22.917 0.219 0.969 0.398 1.891 0.484 2.713 0.007 0.067 0.013 0.139 0.020 0.219 0.033 0.351 0.053 0.69 0.053 0.995 0 4.107-2.289 7.63-5.633 9.488-1.566 0.869-3.344 1.413-5.268 1.413-6.011 0-10.888-4.877-10.888-10.901 0-0.318 0.014-0.67 0.053-1.035zM52.9 475.846c0-0.040 0-0.106 0.014-0.139 0.697-7.298 7.285-20.707 9.826-25.671 0.411-0.803 1.572-0.803 1.984 0 2.534 4.976 9.103 18.412 9.833 25.63 0.007 0.067 0.013 0.139 0.020 0.219 0.033 0.351 0.053 0.69 0.053 0.995 0 6.024-4.87 10.901-10.901 10.901-6.011 0-10.888-4.87-10.888-10.901 0.007-0.325 0.020-0.677 0.059-1.035z"></path>
</svg>
