<!-- Generated by IcoMoon.io -->
<svg version="1.1" xmlns="http://www.w3.org/2000/svg" width="199" height="512" viewBox="0 0 199 512">
<title>SolidPawnOnDroneOnPawnExpanded</title>
<path d="M188.304 395.551l-48.004-126.905h21.172c2.203 0 4.253-1.088 5.494-2.913 1.234-1.812 1.48-4.134 0.663-6.183l-62.169-155.595c-0.995-2.528-3.45-4.174-6.157-4.174-2.721 0-5.156 1.645-6.171 4.174l-62.149 155.595c-0.816 2.050-0.57 4.365 0.663 6.183 1.248 1.825 3.291 2.913 5.493 2.913h21.185l-48.010 126.905c-0.77 2.037-0.491 4.326 0.749 6.118 1.24 1.798 3.277 2.866 5.454 2.866h53.736l-39.285 98.356c-0.816 2.050-0.57 4.365 0.663 6.183 1.248 1.825 3.291 2.913 5.493 2.913h124.331c2.203 0 4.253-1.088 5.494-2.913 1.234-1.812 1.48-4.134 0.663-6.183l-39.298-98.356h53.775c2.176 0 4.22-1.062 5.454-2.866 1.248-1.785 1.526-4.080 0.756-6.118zM109.561 476.882c0 6.011-4.89 10.888-10.901 10.888-6.025 0-10.901-4.87-10.901-10.888 0-0.339 0.026-0.69 0.053-1.048 0-0.040 0.013-0.093 0.013-0.139 0.71-7.298 7.285-20.707 9.833-25.657 0.418-0.816 1.566-0.816 1.984 0 2.541 4.963 9.117 18.399 9.84 25.618 0 0.079 0.013 0.139 0.013 0.219 0.040 0.345 0.067 0.683 0.067 1.009zM102.27 375.089c-1.698 2.774-4.598 4.691-7.989 5.096-0.424 0.053-0.843 0.132-1.281 0.132-4.704 0-8.678-2.999-10.198-7.179-0.424-1.161-0.69-2.395-0.69-3.709 0-0.339 0.020-0.69 0.059-1.048 0-0.040 0-0.093 0.013-0.139 0.697-7.298 7.285-20.707 9.826-25.657 0.412-0.816 1.573-0.816 1.984 0 0.305 0.597 0.67 1.327 1.075 2.137 2.953 5.971 8.114 17.131 8.751 23.481 0.013 0.079 0.013 0.139 0.026 0.219 0.026 0.351 0.053 0.69 0.053 1.009 0 2.077-0.617 4.007-1.632 5.659zM109.496 232.314c0 0.079 0.013 0.139 0.013 0.219 0.040 0.351 0.067 0.69 0.067 1.008 0 6.011-4.89 10.888-10.901 10.888-6.025 0-10.901-4.87-10.901-10.888 0-0.339 0.026-0.69 0.053-1.048 0-0.040 0.013-0.093 0.013-0.139 0.71-7.298 7.285-20.708 9.833-25.657 0.418-0.816 1.566-0.816 1.984 0 2.541 4.957 9.117 18.398 9.84 25.618zM52.409 368.375c0.007-0.033 0.007-0.087 0.020-0.139 0.697-7.298 7.285-20.707 9.826-25.657 0.418-0.816 1.572-0.816 1.984 0 2.534 4.963 9.103 18.399 9.826 25.618 0.013 0.079 0.013 0.139 0.026 0.219 0.033 0.351 0.053 0.69 0.053 1.009 0 6.011-4.876 10.888-10.901 10.888-6.011 0-10.895-4.87-10.895-10.888 0.007-0.332 0.026-0.683 0.059-1.048z"></path>
</svg>
