<!-- Generated by IcoMoon.io -->
<svg version="1.1" xmlns="http://www.w3.org/2000/svg" width="512" height="512" viewBox="0 0 512 512">
<title>SolidSouthQueen</title>
<path d="M461.377 27.331c-2.204-3.305-5.9-5.296-9.857-5.296h-390.969c-3.98 0-7.677 1.991-9.88 5.296s-2.594 7.476-1.042 11.148l195.49 463.924c1.848 4.384 6.161 7.25 10.923 7.25s9.075-2.867 10.923-7.25l195.478-463.924c1.529-3.672 1.137-7.843-1.066-11.148zM241.919 86.52c-0.048-0.628-0.095-1.232-0.095-1.777 0-10.757 8.72-19.465 19.465-19.465s19.465 8.696 19.465 19.465c0 0.581-0.048 1.209-0.095 1.848-0.024 0.071-0.024 0.189-0.024 0.249-1.267 13.032-13.032 36.975-17.57 45.837-0.747 1.434-2.82 1.434-3.543 0-4.537-8.886-16.266-32.876-17.558-45.766-0.024-0.118-0.024-0.26-0.048-0.391zM294.959 84.731c0-10.757 8.719-19.465 19.465-19.465s19.465 8.696 19.465 19.465c0 0.581-0.048 1.209-0.118 1.848 0 0.071 0 0.189-0.024 0.249-1.244 13.032-13.008 36.975-17.534 45.837-0.758 1.434-2.82 1.434-3.543 0-4.538-8.886-16.266-32.876-17.558-45.766-0.024-0.118-0.024-0.249-0.048-0.391-0.059-0.616-0.106-1.221-0.106-1.777zM386.894 86.591c0 0.071 0 0.189-0.024 0.249-1.244 13.032-13.008 36.975-17.534 45.837-0.747 1.434-2.82 1.434-3.543 0-4.538-8.886-16.266-32.876-17.558-45.766-0.024-0.118-0.024-0.249-0.048-0.391-0.048-0.628-0.095-1.232-0.095-1.777 0-10.757 8.696-19.465 19.465-19.465 10.733 0 19.441 8.696 19.441 19.465-0.012 0.569-0.036 1.197-0.106 1.848z"></path>
</svg>
