<!-- Generated by IcoMoon.io -->
<svg version="1.1" xmlns="http://www.w3.org/2000/svg" width="252" height="512" viewBox="0 0 252 512">
<title>SolidQueenOnPawnOnQueenExpanded</title>
<path d="M242.239 502.784l-60.623-143.884h7.192c2.203 0 4.253-1.088 5.494-2.913 1.234-1.825 1.48-4.134 0.663-6.183l-22.784-57.034h63.303c2.222 0 4.293-1.115 5.527-2.966s1.453-4.187 0.59-6.243l-109.475-259.822c-1.035-2.462-3.45-4.061-6.118-4.061s-5.082 1.599-6.118 4.061l-109.475 259.822c-0.863 2.063-0.637 4.392 0.591 6.25s3.304 2.966 5.527 2.966h64.571l-22.784 57.034c-0.816 2.050-0.564 4.353 0.67 6.183 1.24 1.825 3.291 2.913 5.494 2.913h7.192l-60.623 143.877c-0.863 2.063-0.643 4.392 0.591 6.243s3.304 2.966 5.527 2.966h218.951c2.222 0 4.293-1.115 5.527-2.966s1.453-4.18 0.59-6.243zM134.595 476.882c0 6.024-4.876 10.901-10.901 10.901-6.011 0-10.895-4.87-10.895-10.901 0-0.325 0.020-0.677 0.053-1.035 0.007-0.040 0.007-0.106 0.013-0.139 0.704-7.298 7.291-20.721 9.826-25.683 0.418-0.803 1.579-0.803 1.99 0 2.534 4.976 9.103 18.425 9.826 25.644 0.013 0.067 0.013 0.139 0.026 0.219 0.033 0.345 0.060 0.683 0.060 0.995zM104.844 476.882c0 6.024-4.877 10.901-10.901 10.901-6.011 0-10.894-4.87-10.894-10.901 0-0.325 0.020-0.677 0.059-1.035 0-0.040 0-0.106 0.013-0.139 0.697-7.298 7.285-20.721 9.826-25.683 0.418-0.803 1.573-0.803 1.984 0 2.534 4.976 9.103 18.425 9.826 25.644 0.013 0.067 0.013 0.139 0.026 0.219 0.040 0.345 0.059 0.683 0.059 0.995zM136.911 323.788c0 6.024-4.883 10.901-10.894 10.901-6.025 0-10.901-4.87-10.901-10.901 0-0.325 0.020-0.69 0.053-1.035 0-0.053 0.007-0.106 0.013-0.139 0.704-7.312 7.285-20.707 9.833-25.671 0.418-0.803 1.566-0.803 1.984 0 2.535 4.976 9.103 18.412 9.826 25.618 0 0.079 0.013 0.152 0.013 0.219 0.047 0.358 0.073 0.697 0.073 1.009zM93.306 268.56c-0.829 0-1.632-0.12-2.415-0.292-4.844-1.101-8.48-5.414-8.48-10.609 0-0.325 0.020-0.677 0.059-1.035 0-0.040 0-0.106 0.013-0.139 0.697-7.298 7.285-20.708 9.826-25.671 0.418-0.803 1.573-0.803 1.984 0 1.394 2.74 3.994 8.041 6.183 13.456 1.791 4.425 3.317 8.93 3.642 12.175 0.013 0.067 0.013 0.139 0.026 0.219 0.033 0.351 0.053 0.69 0.053 0.995 0.007 6.024-4.87 10.901-10.895 10.901zM133.885 256.438c0.013 0.067 0.013 0.139 0.026 0.219 0.026 0.351 0.053 0.69 0.053 0.995 0 4.027-2.209 7.504-5.447 9.389-1.3 0.757-2.754 1.234-4.313 1.4-0.378 0.040-0.743 0.12-1.135 0.12-4.751 0-8.745-3.058-10.237-7.312-0.398-1.128-0.657-2.329-0.657-3.596 0-0.325 0.020-0.677 0.053-1.035 0.007-0.040 0.007-0.106 0.013-0.139 0.704-7.298 7.291-20.708 9.826-25.671 0.418-0.803 1.579-0.803 1.99 0 0.942 1.851 2.442 4.87 3.994 8.307 2.607 5.805 5.374 12.786 5.832 17.323zM52.721 256.617c0-0.040 0-0.106 0.014-0.139 0.697-7.298 7.285-20.708 9.826-25.671 0.411-0.803 1.573-0.803 1.984 0 2.534 4.976 9.103 18.412 9.833 25.63 0.007 0.067 0.013 0.139 0.020 0.219 0.033 0.351 0.053 0.69 0.053 0.995 0 6.024-4.87 10.901-10.901 10.901-6.011 0-10.888-4.877-10.888-10.901 0.007-0.318 0.020-0.67 0.059-1.035zM53.358 475.846c0-0.040 0-0.106 0.014-0.139 0.697-7.298 7.285-20.721 9.826-25.683 0.411-0.803 1.573-0.803 1.984 0 2.534 4.976 9.103 18.425 9.833 25.644 0.007 0.067 0.013 0.139 0.020 0.219 0.033 0.351 0.053 0.69 0.053 0.995 0 6.024-4.87 10.901-10.901 10.901-6.011 0-10.888-4.87-10.888-10.901 0.007-0.325 0.020-0.677 0.059-1.035z"></path>
</svg>
