<!-- Generated by IcoMoon.io -->
<svg version="1.1" xmlns="http://www.w3.org/2000/svg" width="252" height="512" viewBox="0 0 252 512">
<title>SolidQueenOnDroneOnQueen</title>
<path d="M241.496 502.784l-55.169-130.933h48.779c2.149 0 4.186-1.088 5.381-2.893 1.195-1.812 1.413-4.080 0.571-6.091l-109.177-259.139c-1.008-2.395-3.357-3.954-5.958-3.954s-4.95 1.559-5.958 3.954l-6.674 15.85-102.522 243.287c-0.842 2.010-0.63 4.279 0.57 6.091 1.201 1.798 3.218 2.893 5.387 2.893h48.76l-55.169 130.933c-0.863 2.057-0.643 4.392 0.591 6.243s3.304 2.966 5.527 2.966h218.951c2.222 0 4.293-1.115 5.527-2.966s1.446-4.187 0.584-6.243zM52.761 336.978c0-0.325 0.020-0.69 0.053-1.048 0.007-0.053 0.007-0.093 0.014-0.139 0.358-3.755 2.289-9.136 4.419-14.146 1.99-4.691 4.154-9.057 5.381-11.452 0.418-0.816 1.573-0.816 1.984 0.014 1.121 2.19 3.025 6.065 4.856 10.291 2.316 5.328 4.538 11.233 4.943 15.253 0.007 0.079 0.013 0.139 0.020 0.219 0.033 0.351 0.053 0.69 0.053 1.009 0 5.998-4.864 10.861-10.861 10.861-1.898 0-3.649-0.531-5.202-1.373-0.431-0.239-0.789-0.577-1.181-0.869-2.667-1.971-4.478-5.043-4.478-8.618zM112.109 336.978c0-0.325 0.020-0.69 0.053-1.048 0.007-0.053 0.007-0.093 0.007-0.139 0.697-7.272 7.272-20.641 9.806-25.591 0.418-0.816 1.573-0.816 1.99 0.014 2.528 4.95 9.063 18.352 9.806 25.545 0 0.079 0.013 0.139 0.013 0.219 0.040 0.351 0.053 0.69 0.053 1.009 0 5.998-4.857 10.861-10.862 10.861s-10.868-4.87-10.868-10.868zM133.858 476.882c0 6.018-4.876 10.901-10.901 10.901-0.007 0-0.013 0-0.026 0-5.998-0.020-10.868-4.884-10.868-10.901 0-0.332 0.020-0.683 0.053-1.035 0.007-0.046 0.007-0.106 0.013-0.146 0.704-7.298 7.291-20.707 9.826-25.663 0.206-0.398 0.591-0.584 0.969-0.591 0.404-0.014 0.809 0.173 1.015 0.591 2.534 4.969 9.103 18.412 9.826 25.624 0.013 0.073 0.013 0.146 0.026 0.219 0.040 0.345 0.066 0.683 0.066 1.002zM104.101 476.882c0 6.018-4.876 10.901-10.901 10.901-0.007 0-0.013 0-0.026 0-5.998-0.020-10.868-4.884-10.868-10.901 0-0.332 0.020-0.683 0.059-1.035 0-0.046 0-0.106 0.013-0.146 0.697-7.298 7.285-20.707 9.826-25.663 0.206-0.398 0.591-0.584 0.969-0.591 0.404-0.014 0.803 0.173 1.008 0.591 2.534 4.969 9.103 18.412 9.826 25.624 0.013 0.073 0.013 0.146 0.026 0.219 0.053 0.345 0.067 0.683 0.067 1.002zM93.299 347.84c-1.082 0-2.11-0.173-3.099-0.471-0.013-0.007-0.033 0-0.046-0.007-1.061-0.325-2.064-0.789-2.959-1.4-2.873-1.944-4.757-5.248-4.757-8.983 0-0.325 0.013-0.69 0.053-1.048 0-0.053 0.007-0.093 0.013-0.139 0.697-7.272 7.272-20.641 9.799-25.591 0.424-0.816 1.573-0.816 1.984 0.014 1.008 1.971 2.647 5.288 4.306 9.017 0.577 1.3 1.161 2.661 1.719 4.027 0.007 0.014 0.013 0.040 0.026 0.060 1.838 4.512 3.417 9.13 3.748 12.434 0.007 0.079 0.013 0.139 0.020 0.219 0.033 0.351 0.053 0.69 0.053 1.009 0 5.998-4.864 10.861-10.861 10.861zM52.621 475.846c0-0.046 0-0.106 0.014-0.146 0.697-7.298 7.285-20.707 9.826-25.663 0.199-0.398 0.584-0.584 0.968-0.591 0.404-0.014 0.809 0.173 1.015 0.591 2.534 4.969 9.103 18.412 9.833 25.624 0.007 0.073 0.013 0.146 0.020 0.219 0.033 0.351 0.053 0.69 0.053 1.002 0 6.018-4.87 10.901-10.901 10.901-0.007 0-0.014 0-0.026 0-5.998-0.020-10.861-4.884-10.861-10.901 0.007-0.332 0.020-0.683 0.059-1.035zM198.701 358.92l-72.784-171.080-45.973 108.062h-14.059l54.081-127.118c1.015-2.388 3.357-3.935 5.951-3.935s4.937 1.546 5.945 3.935l7.332 17.211 73.567 172.924h-14.059z"></path>
</svg>
