<!-- Generated by IcoMoon.io -->
<svg version="1.1" xmlns="http://www.w3.org/2000/svg" width="199" height="512" viewBox="0 0 199 512">
<title>SolidDroneOnDroneOnPawnExpanded</title>
<path d="M159.376 331.883h22.711c2.176 0 4.22-1.062 5.454-2.866 1.248-1.791 1.519-4.080 0.75-6.118l-82.776-218.825c-0.975-2.588-3.45-4.286-6.21-4.286s-5.228 1.705-6.21 4.286l-82.784 218.825c-0.77 2.037-0.491 4.326 0.749 6.118 1.24 1.798 3.277 2.866 5.454 2.866h22.711l-28.915 76.434c-0.77 2.037-0.491 4.326 0.749 6.118 1.24 1.798 3.277 2.866 5.454 2.866h45.581l-34.183 85.596c-0.816 2.050-0.57 4.365 0.663 6.183 1.247 1.825 3.291 2.913 5.493 2.913h124.331c2.203 0 4.253-1.088 5.494-2.913 1.234-1.812 1.48-4.134 0.663-6.183l-34.196-85.596h51.739c2.176 0 4.22-1.062 5.454-2.866 1.248-1.791 1.519-4.080 0.75-6.118l-28.928-76.434zM106.496 476.888c0 6.011-4.89 10.888-10.901 10.888-6.025 0-10.901-4.87-10.901-10.888 0-0.339 0.026-0.69 0.053-1.048 0-0.040 0.013-0.093 0.013-0.139 0.71-7.298 7.285-20.707 9.833-25.657 0.418-0.816 1.566-0.816 1.984 0 2.541 4.963 9.109 18.399 9.84 25.618 0 0.079 0.013 0.139 0.013 0.219 0.040 0.345 0.067 0.683 0.067 1.009zM82.106 382.195c0-0.339 0.020-0.69 0.059-1.048 0-0.040 0-0.093 0.013-0.139 0.697-7.298 7.285-20.707 9.826-25.657 0.412-0.816 1.573-0.816 1.984 0 2.534 4.963 9.103 18.399 9.826 25.618 0.013 0.079 0.013 0.139 0.026 0.219 0.026 0.351 0.053 0.69 0.053 1.009 0 1.141-0.225 2.223-0.55 3.251-1.394 4.412-5.467 7.623-10.35 7.623-2.289 0-4.406-0.71-6.164-1.918-2.847-1.95-4.724-5.228-4.724-8.957zM63.243 307.659c-0.219 0-0.418-0.053-0.637-0.067-5.6-0.332-10.052-4.844-10.224-10.483 0-0.113-0.033-0.219-0.033-0.332 0-0.339 0.020-0.69 0.053-1.048 0.007-0.040 0.007-0.093 0.020-0.139 0.697-7.298 7.285-20.707 9.826-25.657 0.12-0.226 0.352-0.232 0.544-0.339 0.517-0.272 1.141-0.259 1.44 0.339 1.54 3.019 4.572 9.19 6.88 15.174 1.48 3.848 2.66 7.617 2.946 10.443 0.013 0.079 0.013 0.139 0.026 0.219 0.033 0.351 0.053 0.69 0.053 1.009 0 6.018-4.877 10.881-10.895 10.881zM103.843 295.769c0.026 0.351 0.053 0.69 0.053 1.009 0 6.011-4.876 10.881-10.901 10.881-6.011 0-10.895-4.863-10.895-10.881 0-0.339 0.020-0.69 0.059-1.048 0-0.040 0-0.093 0.013-0.139 0.697-7.298 7.285-20.707 9.826-25.657 0.412-0.816 1.573-0.816 1.984 0 2.534 4.963 9.103 18.399 9.826 25.618 0.020 0.079 0.020 0.139 0.033 0.219zM52.402 381.147c0.007-0.040 0.007-0.093 0.020-0.139 0.697-7.298 7.285-20.707 9.826-25.657 0.418-0.816 1.572-0.816 1.984 0 2.534 4.963 9.103 18.399 9.826 25.618 0.013 0.079 0.013 0.139 0.026 0.219 0.033 0.351 0.053 0.69 0.053 1.009 0 6.011-4.876 10.881-10.901 10.881-6.011 0-10.895-4.863-10.895-10.881 0.007-0.332 0.026-0.683 0.059-1.048z"></path>
</svg>
