<!-- Generated by IcoMoon.io -->
<svg version="1.1" xmlns="http://www.w3.org/2000/svg" width="512" height="512" viewBox="0 0 512 512">
<title>SolidWestDrone</title>
<path d="M458.142 108.284c-3.199-2.228-7.286-2.713-10.923-1.338l-390.779 147.782c-4.608 1.753-7.654 6.161-7.654 11.089s3.056 9.348 7.654 11.089l390.779 147.841c3.637 1.363 7.724 0.877 10.923-1.339 3.211-2.228 5.118-5.853 5.118-9.738v-295.647c0-3.886-1.908-7.523-5.118-9.739zM352.632 328.464c8.861-4.538 32.853-16.278 45.742-17.57 0.142-0.024 0.249-0.024 0.391-0.048 0.628-0.048 1.232-0.095 1.801-0.095 10.733 0 19.441 8.731 19.441 19.477s-8.696 19.465-19.441 19.465c-0.604 0-1.232-0.048-1.872-0.095-0.071-0.024-0.166-0.024-0.249-0.048-13.032-1.244-36.975-13.008-45.813-17.534-1.457-0.782-1.457-2.844 0-3.554zM400.577 296.535c-0.604 0-1.232-0.048-1.872-0.118-0.071 0-0.166 0-0.249-0.024-13.032-1.244-36.975-13.008-45.813-17.534-1.457-0.747-1.457-2.82 0-3.543 8.861-4.538 32.853-16.266 45.742-17.558 0.142-0.024 0.249-0.024 0.391-0.048 0.628-0.048 1.232-0.095 1.801-0.095 10.733 0 19.441 8.719 19.441 19.465s-8.707 19.453-19.441 19.453z"></path>
</svg>
