<!-- Generated by IcoMoon.io -->
<svg version="1.1" xmlns="http://www.w3.org/2000/svg" width="512" height="512" viewBox="0 0 512 512">
<title>SolidNorthEastPawn</title>
<path d="M403.337 118.697c-3.424-3.424-8.589-4.442-13.044-2.511l-274.95 117.975c-3.614 1.552-6.196 4.822-6.942 8.661-0.758 3.862 0.462 7.843 3.246 10.615l156.94 156.94c2.772 2.796 6.764 4.028 10.627 3.258 3.839-0.747 7.108-3.329 8.649-6.966l117.986-274.926c1.931-4.454 0.924-9.608-2.512-13.044zM268.801 254.134c-3.068 9.466-11.728 34.736-19.927 44.782-0.095 0.095-0.166 0.19-0.249 0.296-0.415 0.462-0.805 0.924-1.232 1.339-7.594 7.594-19.904 7.594-27.486 0-7.606-7.618-7.606-19.927-0.012-27.509 0.427-0.438 0.888-0.865 1.398-1.256 0.048-0.059 0.119-0.118 0.202-0.178 10.094-8.329 35.329-16.953 44.806-19.986 1.552-0.498 3.009 0.959 2.5 2.512z"></path>
</svg>
