<!-- Generated by IcoMoon.io -->
<svg version="1.1" xmlns="http://www.w3.org/2000/svg" width="512" height="512" viewBox="0 0 512 512">
<title>SolidNorthWestQueen</title>
<path d="M501.942 221.353c-0.782-3.898-3.447-7.132-7.156-8.637l-466.27-189.804c-4.407-1.789-9.478-0.77-12.842 2.595-3.377 3.364-4.396 8.435-2.607 12.842l189.827 466.258c1.517 3.685 4.75 6.35 8.637 7.132 3.886 0.794 7.914-0.414 10.71-3.211l276.466-276.442c2.82-2.82 4.028-6.847 3.235-10.733zM204.625 369.668c9.489 3.080 34.76 11.752 44.794 19.95 0.095 0.071 0.19 0.166 0.296 0.249 0.486 0.403 0.924 0.794 1.315 1.197 7.618 7.618 7.618 19.927 0 27.521-7.594 7.606-19.904 7.594-27.486-0.012-0.415-0.414-0.829-0.877-1.244-1.375-0.048-0.059-0.142-0.13-0.166-0.202-8.328-10.106-16.953-35.34-20.010-44.818-0.486-1.552 0.983-3.021 2.5-2.512zM242.204 332.089c9.489 3.092 34.76 11.752 44.782 19.962 0.095 0.059 0.19 0.166 0.296 0.249 0.486 0.414 0.948 0.805 1.339 1.209 7.594 7.606 7.594 19.927 0 27.509s-19.927 7.618-27.544 0c-0.391-0.414-0.805-0.877-1.232-1.386-0.048-0.048-0.118-0.142-0.166-0.202-8.328-10.106-16.941-35.34-20.010-44.818-0.45-1.575 1.007-3.021 2.536-2.524zM326.177 343.45c-7.594 7.594-19.904 7.594-27.509-0.012-0.414-0.403-0.829-0.877-1.244-1.375-0.024-0.071-0.118-0.142-0.166-0.19-8.305-10.118-16.942-35.352-19.998-44.841-0.486-1.529 0.971-3.009 2.5-2.5 9.49 3.080 34.76 11.752 44.77 19.95 0.118 0.071 0.213 0.166 0.32 0.249 0.462 0.414 0.924 0.794 1.315 1.197 7.63 7.606 7.606 19.927 0.012 27.521z"></path>
</svg>
