<!-- Generated by IcoMoon.io -->
<svg version="1.1" xmlns="http://www.w3.org/2000/svg" width="158" height="512" viewBox="0 0 158 512">
<title>SolidPawnOnPawnOnPawn</title>
<path d="M123.024 373.404h17.834c2.203 0 4.26-1.088 5.494-2.913 1.234-1.812 1.486-4.134 0.67-6.183l-62.169-155.601c-1.002-2.522-3.45-4.173-6.164-4.173s-5.156 1.652-6.164 4.173l-62.156 155.601c-0.816 2.050-0.564 4.365 0.67 6.183 1.24 1.825 3.291 2.913 5.493 2.913h17.828l-23.991 60.052c-0.219 0.544-0.345 1.108-0.418 1.678v0.007c-0.093 0.577-0.020 1.154 0.033 1.731 0.1 1.082 0.365 2.137 0.995 3.065 1.241 1.825 3.291 2.913 5.494 2.913h17.828l-23.985 60.052c-0.816 2.050-0.564 4.365 0.67 6.183 1.24 1.825 3.291 2.913 5.493 2.913h124.324c2.203 0 4.26-1.088 5.494-2.913 1.234-1.812 1.486-4.134 0.67-6.183l-23.992-60.052h17.834c2.203 0 4.26-1.088 5.494-2.913 0.631-0.929 0.995-1.99 1.101-3.072v-0.007c0.079-0.55 0.087-1.101 0.033-1.646 0-0.026 0-0.053 0-0.079-0.060-0.564-0.192-1.128-0.418-1.678l-23.999-60.052zM88.9 476.895c0 6.011-4.883 10.888-10.894 10.888-6.025 0-10.901-4.87-10.901-10.888 0-0.339 0.020-0.69 0.053-1.048 0-0.040 0.007-0.093 0.013-0.139 0.704-7.298 7.285-20.707 9.833-25.657 0.418-0.816 1.566-0.816 1.984 0 2.534 4.963 9.109 18.399 9.84 25.618 0 0.079 0.013 0.139 0.013 0.219 0.040 0.345 0.059 0.683 0.059 1.009zM67.112 407.746c0-0.339 0.020-0.69 0.053-1.048 0-0.040 0.007-0.093 0.013-0.139 0.007-0.093 0.040-0.205 0.053-0.298 0.704-7.298 7.285-20.707 9.833-25.657 0.418-0.816 1.566-0.816 1.984 0 2.534 4.963 9.109 18.399 9.84 25.618 0 0.079 0.013 0.139 0.013 0.219 0.033 0.351 0.059 0.69 0.059 1.009 0 0.763-0.1 1.506-0.246 2.229-0.007 0.026 0 0.046-0.007 0.073 0 0.007-0.007 0.014-0.007 0.020-0.013 0.053-0.046 0.093-0.059 0.139-0.186 0.896-0.55 1.712-0.942 2.508-0.093 0.179-0.179 0.358-0.285 0.524-0.059 0.106-0.106 0.205-0.159 0.305-0.113 0.166-0.272 0.286-0.391 0.445-1.938 2.913-5.089 4.937-8.851 4.937-6.031 0.007-10.901-4.87-10.901-10.881zM88.881 337.072c0 0.079 0.013 0.139 0.013 0.219 0.033 0.351 0.059 0.69 0.059 1.009 0 6.011-4.883 10.888-10.895 10.888-6.025 0-10.901-4.87-10.901-10.888 0-0.339 0.020-0.69 0.053-1.048 0-0.040 0.007-0.093 0.013-0.139 0.704-7.298 7.285-20.707 9.833-25.657 0.418-0.816 1.566-0.816 1.984 0 2.534 4.957 9.109 18.399 9.84 25.618z"></path>
</svg>
