<!-- Generated by IcoMoon.io -->
<svg version="1.1" xmlns="http://www.w3.org/2000/svg" width="199" height="512" viewBox="0 0 199 512">
<title>SolidPawnOnPawnOnDrone</title>
<path d="M188.258 503.017l-36.028-95.237h9.202c2.203 0 4.253-1.088 5.494-2.913 0.617-0.909 0.982-1.944 1.095-3.012 0.119-1.062-0.026-2.149-0.431-3.171l-24.105-60.351h18c2.203 0 4.253-1.088 5.494-2.913 1.234-1.812 1.48-4.134 0.663-6.183l-62.169-155.601c-0.995-2.522-3.45-4.173-6.157-4.173-2.721 0-5.156 1.652-6.171 4.173l-62.149 155.607c-0.816 2.050-0.57 4.365 0.663 6.183 1.248 1.825 3.291 2.913 5.493 2.913h17.895l-24.105 60.351c-0.611 1.526-0.623 3.212-0.073 4.738 0.186 0.498 0.431 0.988 0.736 1.447 1.248 1.825 3.291 2.913 5.493 2.913h9.196l-36.028 95.237c-0.77 2.037-0.491 4.326 0.749 6.118 1.24 1.798 3.277 2.867 5.461 2.867h165.566c2.183 0 4.226-1.062 5.46-2.866 1.24-1.791 1.526-4.087 0.75-6.124zM103.856 476.882c0 6.024-4.87 10.901-10.888 10.901-6.031 0-10.901-4.87-10.901-10.901 0-0.325 0.020-0.677 0.053-1.035 0-0.040 0.013-0.106 0.013-0.139 0.704-7.298 7.285-20.707 9.84-25.671 0.418-0.803 1.566-0.803 1.984 0 2.534 4.976 9.097 18.412 9.82 25.63 0.013 0.067 0.026 0.139 0.026 0.219 0.026 0.345 0.053 0.683 0.053 0.995zM87.786 371.632c0-0.040 0.013-0.093 0.013-0.139 0.278-2.813 1.42-6.522 2.867-10.317 0.213-0.544 0.451-1.075 0.67-1.619 1.307-3.245 2.747-6.476 4.020-9.13 0.889-1.851 1.698-3.464 2.282-4.604 0.418-0.81 1.579-0.81 1.984 0 2.541 4.969 9.117 18.412 9.84 25.618 0.013 0.079 0.013 0.146 0.026 0.219 0.026 0.351 0.053 0.69 0.053 1.009 0 0 0 0 0 0.007v0.007c0 6.011-4.89 10.888-10.901 10.888-6.025 0-10.901-4.87-10.901-10.888-0.007-0.339 0.020-0.69 0.046-1.048zM109.508 302.006c0 0.079 0.013 0.139 0.013 0.219 0.040 0.351 0.067 0.69 0.067 1.009 0 6.011-4.89 10.888-10.901 10.888-6.025 0-10.901-4.87-10.901-10.888 0-0.339 0.026-0.69 0.053-1.048 0-0.040 0.013-0.093 0.013-0.139 0.71-7.298 7.285-20.707 9.833-25.657 0.418-0.816 1.566-0.816 1.984 0 2.541 4.957 9.117 18.399 9.84 25.618zM52.369 475.846c0.007-0.040 0.007-0.106 0.014-0.139 0.703-7.298 7.285-20.707 9.833-25.671 0.418-0.803 1.566-0.803 1.984 0 2.534 4.976 9.103 18.412 9.833 25.63 0 0.067 0.013 0.139 0.013 0.219 0.040 0.351 0.059 0.69 0.059 0.995 0 6.024-4.877 10.901-10.895 10.901-6.024 0-10.901-4.87-10.901-10.901 0.007-0.325 0.026-0.677 0.059-1.035z"></path>
</svg>
