<!-- Generated by IcoMoon.io -->
<svg version="1.1" xmlns="http://www.w3.org/2000/svg" width="315" height="512" viewBox="0 0 315 512">
<title>SolidDronePointingRight</title>
<path d="M302.445 497.808l-209.689-184.69c-1.95-1.728-4.612-2.377-7.139-1.736-2.528 0.618-4.588 2.449-5.507 4.889l-69.738 185.022c-0.935 2.433-0.595 5.166 0.896 7.306 1.482 2.139 3.915 3.423 6.522 3.407l279.427-0.309c3.296 0 6.236-2.045 7.401-5.119 1.173-3.106 0.301-6.584-2.171-8.772zM74.968 411.93c2.52-6.719 10.031-10.119 16.767-7.583 0.341 0.142 0.753 0.309 1.125 0.499 0.055 0.031 0.103 0.048 0.166 0.079 7.861 3.851 20.055 16.87 24.548 21.791 0.721 0.808 0.23 2.108-0.848 2.226-6.617 0.713-24.389 2.417-32.757 0.182-0.103-0.031-0.19-0.048-0.269-0.048-0.404-0.127-0.793-0.245-1.157-0.373-6.736-2.551-10.103-10.055-7.575-16.775zM129.254 395.685c-6.609 0.745-24.406 2.433-32.765 0.182-0.111-0.016-0.182-0.048-0.254-0.063-0.428-0.111-0.808-0.23-1.165-0.356-6.728-2.536-10.103-10.048-7.567-16.759 2.528-6.736 10.031-10.119 16.775-7.599 0.356 0.142 0.76 0.325 1.133 0.507 0.047 0.016 0.111 0.031 0.159 0.079 7.844 3.851 20.071 16.87 24.548 21.791 0.697 0.808 0.214 2.108-0.863 2.219z"></path>
</svg>
