<!-- Generated by IcoMoon.io -->
<svg version="1.1" xmlns="http://www.w3.org/2000/svg" width="252" height="512" viewBox="0 0 252 512">
<title>SolidNestExpanded</title>
<path d="M241.768 363.724l-109.475-259.815c-1.035-2.462-3.444-4.061-6.111-4.061s-5.082 1.599-6.118 4.061l-109.475 259.815c-0.863 2.063-0.643 4.392 0.591 6.243s3.304 2.966 5.527 2.966h45.92l-22.492 59.442c-0.77 2.037-0.491 4.326 0.749 6.118 1.24 1.798 3.278 2.866 5.454 2.866h38.993l-24.582 61.538c-0.816 2.050-0.564 4.365 0.67 6.183 1.24 1.825 3.291 2.913 5.494 2.913h124.317c2.203 0 4.26-1.088 5.494-2.913 1.234-1.812 1.486-4.134 0.67-6.183l-24.582-61.538h39.1c2.176 0 4.213-1.062 5.454-2.866 1.248-1.791 1.519-4.080 0.75-6.118l-22.486-59.442h40.015c2.23 0 4.299-1.115 5.534-2.966s1.459-4.18 0.59-6.243zM139.339 476.895c0 6.011-4.876 10.888-10.894 10.888-6.025 0-10.901-4.87-10.901-10.888 0-0.339 0.020-0.69 0.053-1.048 0-0.040 0.007-0.093 0.013-0.139 0.704-7.298 7.285-20.707 9.833-25.657 0.418-0.816 1.566-0.816 1.984 0 2.535 4.963 9.103 18.399 9.833 25.618 0 0.079 0.013 0.139 0.013 0.219 0.040 0.345 0.066 0.683 0.066 1.009zM82.591 337.822c0-0.325 0.020-0.677 0.059-1.035 0-0.040 0-0.106 0.013-0.139 0.697-7.298 7.285-20.707 9.826-25.671 0.418-0.803 1.573-0.803 1.984 0 0.79 1.546 1.977 3.967 3.251 6.701 2.82 6.077 6.084 13.96 6.582 18.936 0.013 0.067 0.013 0.139 0.026 0.219 0.033 0.351 0.053 0.69 0.053 0.995 0 6.024-4.877 10.901-10.901 10.901-2.508 0-4.79-0.882-6.635-2.309-2.575-2.003-4.26-5.089-4.26-8.599zM122.825 417.141c-4.936 0-9.063-3.304-10.397-7.816-0.292-0.969-0.498-1.997-0.498-3.072 0-0.339 0.020-0.69 0.059-1.048 0-0.040 0-0.093 0.013-0.139 0.697-7.298 7.285-20.701 9.826-25.657 0.412-0.81 1.573-0.81 1.984 0 0.093 0.173 0.219 0.425 0.312 0.623 2.707 5.354 8.817 18.040 9.514 25 0.013 0.079 0.013 0.139 0.026 0.219 0.026 0.351 0.053 0.69 0.053 1.009 0 6.011-4.876 10.881-10.894 10.881zM82.233 405.205c0.007-0.040 0.007-0.093 0.020-0.139 0.697-7.298 7.285-20.701 9.826-25.657 0.418-0.81 1.573-0.81 1.984 0 1.897 3.729 6.064 12.208 8.34 19.255 0.757 2.356 1.307 4.565 1.493 6.363 0.013 0.079 0.013 0.139 0.026 0.219 0.033 0.351 0.053 0.69 0.053 1.009 0 5.328-3.822 9.733-8.871 10.675-0.663 0.132-1.334 0.205-2.031 0.205-6.011 0-10.895-4.87-10.895-10.888 0-0.325 0.020-0.677 0.053-1.041zM132.213 343.991c-1.964 2.853-5.248 4.731-8.977 4.731-0.292 0-0.564-0.067-0.85-0.093-5.606-0.438-10.038-5.075-10.038-10.808 0-0.325 0.020-0.677 0.053-1.035 0.007-0.040 0.007-0.106 0.013-0.139 0.704-7.298 7.291-20.707 9.826-25.671 0.418-0.803 1.579-0.803 1.99 0 2.534 4.976 9.109 18.412 9.833 25.63 0.013 0.067 0.013 0.139 0.026 0.219 0.026 0.351 0.053 0.69 0.053 0.995-0.006 2.296-0.723 4.419-1.93 6.171zM52.893 336.786c0-0.040 0-0.106 0.014-0.139 0.697-7.298 7.285-20.707 9.826-25.671 0.411-0.803 1.573-0.803 1.984 0 2.534 4.976 9.103 18.412 9.833 25.63 0.007 0.067 0.013 0.139 0.020 0.219 0.033 0.351 0.053 0.69 0.053 0.995 0 6.024-4.87 10.901-10.901 10.901-6.011 0-10.888-4.87-10.888-10.901 0.007-0.325 0.020-0.677 0.059-1.035z"></path>
</svg>
