<!-- Generated by IcoMoon.io -->
<svg version="1.1" xmlns="http://www.w3.org/2000/svg" width="512" height="512" viewBox="0 0 512 512">
<title>SolidNorthWestPawn</title>
<path d="M403.8 242.82c-0.723-3.839-3.329-7.096-6.942-8.649l-274.938-117.986c-4.466-1.907-9.632-0.924-13.055 2.511-3.424 3.424-4.431 8.601-2.511 13.044l117.975 274.95c1.552 3.613 4.81 6.22 8.649 6.954 3.862 0.747 7.843-0.474 10.615-3.246l156.964-156.952c2.784-2.784 4.005-6.764 3.246-10.627zM290.718 302.127c-7.618 7.618-19.927 7.618-27.521 0.024-0.414-0.438-0.841-0.889-1.244-1.398-0.048-0.059-0.118-0.118-0.178-0.202-8.316-10.094-16.953-35.329-19.986-44.818-0.498-1.552 0.948-3.009 2.512-2.5 9.454 3.080 34.724 11.752 44.771 19.927 0.106 0.106 0.213 0.166 0.296 0.26 0.462 0.403 0.924 0.794 1.339 1.221 7.606 7.582 7.606 19.892 0.012 27.486z"></path>
</svg>
