<!-- Generated by IcoMoon.io -->
<svg version="1.1" xmlns="http://www.w3.org/2000/svg" width="158" height="512" viewBox="0 0 158 512">
<title>SolidPawn</title>
<path d="M146.963 502.904l-62.169-155.595c-1.002-2.528-3.45-4.173-6.164-4.173s-5.156 1.646-6.164 4.173l-62.149 155.595c-0.816 2.050-0.564 4.365 0.67 6.183 1.24 1.825 3.291 2.913 5.493 2.913h124.325c2.203 0 4.26-1.088 5.494-2.913 1.227-1.818 1.48-4.14 0.663-6.183zM78.006 487.783c-6.025 0-10.901-4.87-10.901-10.888 0-0.339 0.020-0.69 0.053-1.048 0-0.040 0.007-0.093 0.013-0.139 0.704-7.298 7.285-20.707 9.833-25.657 0.418-0.816 1.566-0.816 1.984 0 2.534 4.963 9.109 18.399 9.84 25.618 0 0.079 0.013 0.139 0.013 0.219 0.033 0.351 0.059 0.69 0.059 1.009 0 6.011-4.876 10.888-10.894 10.888z"></path>
</svg>
