<!-- Generated by IcoMoon.io -->
<svg version="1.1" xmlns="http://www.w3.org/2000/svg" width="252" height="512" viewBox="0 0 252 512">
<title>SolidQueenOnDroneOnDroneExpanded</title>
<path d="M241.721 363.771l-109.476-259.815c-1.035-2.462-3.45-4.061-6.118-4.061s-5.082 1.599-6.118 4.061l-109.475 259.815c-0.863 2.063-0.643 4.392 0.591 6.243s3.304 2.966 5.527 2.966h41.979l-21.497 56.827c-0.77 2.037-0.491 4.313 0.749 6.118 1.24 1.791 3.277 2.866 5.454 2.866h18.106l-24.317 64.279c-0.77 2.037-0.491 4.313 0.749 6.118 1.24 1.791 3.277 2.866 5.454 2.866h165.567c2.176 0 4.22-1.075 5.454-2.866 1.248-1.798 1.519-4.080 0.75-6.118l-24.31-64.279h18.107c2.176 0 4.213-1.075 5.454-2.866 1.248-1.798 1.519-4.080 0.75-6.118l-21.49-56.827h41.972c2.222 0 4.293-1.115 5.527-2.966s1.473-4.18 0.611-6.243zM130.72 476.935c0 6.024-4.876 10.901-10.901 10.901-6.011 0-10.895-4.87-10.895-10.901 0-0.325 0.020-0.69 0.059-1.035 0-0.053 0-0.106 0.013-0.139 0.697-7.312 7.285-20.707 9.826-25.671 0.412-0.803 1.573-0.803 1.984 0 2.534 4.976 9.103 18.412 9.826 25.618 0.013 0.079 0.013 0.152 0.026 0.219 0.033 0.358 0.060 0.697 0.060 1.009zM100.969 476.935c0 6.024-4.877 10.901-10.901 10.901-6.011 0-10.894-4.87-10.894-10.901 0-0.325 0.020-0.69 0.053-1.035 0.007-0.053 0.007-0.106 0.020-0.139 0.697-7.312 7.285-20.707 9.826-25.671 0.418-0.803 1.573-0.803 1.984 0 2.534 4.976 9.103 18.412 9.826 25.618 0.013 0.079 0.013 0.152 0.026 0.219 0.040 0.358 0.059 0.697 0.059 1.009zM108.924 403.679c0-0.325 0.020-0.69 0.059-1.035 0-0.053 0-0.106 0.013-0.139 0.697-7.312 7.285-20.714 9.826-25.677 0.412-0.81 1.573-0.81 1.984 0 2.534 4.976 9.11 18.418 9.833 25.624 0.013 0.079 0.013 0.152 0.026 0.219 0.026 0.365 0.053 0.697 0.053 1.009 0 6.024-4.883 10.901-10.901 10.901-6.011-0.007-10.895-4.877-10.895-10.901zM95.596 348.55c-0.697 0.139-1.427 0.212-2.169 0.212-4.020 0-7.498-2.203-9.382-5.447-0.936-1.606-1.513-3.457-1.513-5.447 0-0.325 0.020-0.677 0.059-1.035 0-0.040 0-0.106 0.013-0.139 0.697-7.298 7.285-20.707 9.826-25.671 0.418-0.803 1.573-0.803 1.984 0 0.299 0.584 0.663 1.3 1.055 2.090 2.076 4.2 5.235 10.947 7.165 16.832 0.816 2.481 1.42 4.81 1.612 6.708 0.013 0.067 0.013 0.139 0.026 0.219 0.033 0.351 0.053 0.69 0.053 0.995 0 5.281-3.755 9.673-8.731 10.682zM79.227 402.644c0.007-0.053 0.007-0.106 0.020-0.139 0.697-7.312 7.285-20.714 9.826-25.677 0.418-0.81 1.573-0.81 1.984 0 1.041 2.043 2.76 5.527 4.472 9.401 2.468 5.574 4.93 11.976 5.361 16.223 0.013 0.079 0.013 0.152 0.026 0.219 0.033 0.365 0.053 0.697 0.053 1.009 0 6.024-4.877 10.901-10.901 10.901-1.739 0-3.357-0.451-4.817-1.181-3.59-1.778-6.078-5.44-6.078-9.72 0-0.325 0.020-0.69 0.053-1.035zM123.177 348.762c-5.002 0-9.176-3.397-10.45-8.002-0.259-0.929-0.438-1.885-0.438-2.899 0-0.325 0.020-0.677 0.053-1.035 0.007-0.040 0.007-0.106 0.013-0.139 0.704-7.298 7.291-20.707 9.826-25.671 0.391-0.743 1.36-0.716 1.831-0.099 0.040 0.053 0.126 0.040 0.153 0.099 2.534 4.976 9.103 18.412 9.826 25.63 0.013 0.067 0.013 0.139 0.026 0.219 0.026 0.351 0.053 0.69 0.053 0.995 0.006 6.031-4.87 10.901-10.894 10.901zM52.84 336.832c0-0.040 0-0.106 0.014-0.139 0.697-7.298 7.285-20.707 9.826-25.671 0.411-0.803 1.573-0.803 1.984 0 2.15 4.226 7.179 14.517 9.109 21.962 0.345 1.32 0.617 2.581 0.73 3.675 0.007 0.067 0.013 0.139 0.020 0.219 0.033 0.351 0.053 0.69 0.053 0.995 0 4.412-2.627 8.194-6.403 9.906-1.374 0.623-2.886 0.988-4.498 0.988-6.011 0-10.888-4.87-10.888-10.901 0-0.325 0.014-0.677 0.053-1.035z"></path>
</svg>
