<!-- Generated by IcoMoon.io -->
<svg version="1.1" xmlns="http://www.w3.org/2000/svg" width="252" height="512" viewBox="0 0 252 512">
<title>SolidPawnOnQueenOnDroneExpanded</title>
<path d="M241.768 428.599l-67.364-159.887h13.94c2.203 0 4.26-1.088 5.494-2.913 1.234-1.818 1.486-4.134 0.67-6.177l-62.162-155.601c-1.002-2.522-3.45-4.174-6.164-4.174s-5.156 1.652-6.164 4.174l-62.156 155.595c-0.816 2.050-0.564 4.359 0.67 6.177 1.234 1.831 3.285 2.92 5.487 2.92h13.933l-67.364 159.887c-0.863 2.063-0.643 4.392 0.591 6.243s3.304 2.966 5.527 2.966h44.52l-24.669 65.207c-0.77 2.037-0.491 4.313 0.749 6.118 1.24 1.791 3.277 2.866 5.454 2.866h165.566c2.176 0 4.22-1.075 5.454-2.866 1.248-1.798 1.519-4.080 0.75-6.118l-24.668-65.207h45.781c2.222 0 4.293-1.115 5.527-2.966s1.459-4.187 0.597-6.243zM130.137 476.882c0 6.024-4.876 10.901-10.901 10.901-6.011 0-10.895-4.87-10.895-10.901 0-0.325 0.020-0.69 0.059-1.035 0-0.053 0-0.106 0.013-0.139 0.697-7.312 7.285-20.707 9.826-25.671 0.412-0.803 1.573-0.803 1.984 0 2.534 4.976 9.103 18.412 9.826 25.618 0.013 0.079 0.013 0.152 0.026 0.219 0.033 0.358 0.060 0.697 0.060 1.009zM100.385 476.882c0 6.024-4.877 10.901-10.901 10.901-6.011 0-10.894-4.87-10.894-10.901 0-0.325 0.020-0.69 0.053-1.035 0.007-0.053 0.007-0.106 0.020-0.139 0.697-7.312 7.285-20.707 9.826-25.671 0.418-0.803 1.573-0.803 1.984 0 2.534 4.976 9.103 18.412 9.826 25.618 0.013 0.079 0.013 0.152 0.026 0.219 0.040 0.358 0.059 0.697 0.059 1.009zM82.585 402.69c0-0.325 0.020-0.677 0.059-1.035 0-0.040 0-0.106 0.013-0.139 0.697-7.298 7.285-20.707 9.826-25.671 0.418-0.803 1.573-0.803 1.984 0 0.63 1.234 1.506 2.986 2.481 5.043 2.953 6.224 6.808 15.161 7.352 20.594 0.013 0.067 0.013 0.139 0.026 0.219 0.033 0.351 0.053 0.69 0.053 0.995 0 6.024-4.877 10.901-10.901 10.901-3.005 0-5.726-1.221-7.697-3.185-1.977-1.977-3.198-4.717-3.198-7.723zM123.23 413.591c-6.011 0-10.894-4.87-10.894-10.901 0-0.325 0.020-0.677 0.053-1.035 0.007-0.040 0.007-0.106 0.013-0.139 0.704-7.298 7.291-20.707 9.826-25.671 0.418-0.803 1.579-0.803 1.99 0 2.534 4.976 9.103 18.412 9.826 25.63 0.013 0.067 0.013 0.139 0.026 0.219 0.026 0.351 0.053 0.69 0.053 0.995 0.006 6.031-4.876 10.901-10.894 10.901zM136.373 232.373c0 0.079 0.013 0.146 0.013 0.219 0.033 0.358 0.060 0.69 0.060 1.008 0 6.018-4.876 10.894-10.894 10.894-6.025 0-10.901-4.87-10.901-10.894 0-0.332 0.020-0.69 0.053-1.042 0-0.047 0.007-0.1 0.013-0.139 0.704-7.305 7.285-20.708 9.833-25.663 0.418-0.81 1.566-0.81 1.984 0 2.535 4.97 9.103 18.405 9.839 25.618zM52.893 401.656c0-0.040 0-0.106 0.014-0.139 0.697-7.298 7.285-20.707 9.826-25.671 0.411-0.803 1.573-0.803 1.984 0 2.534 4.976 9.103 18.412 9.833 25.63 0.007 0.067 0.013 0.139 0.020 0.219 0.020 0.259 0.033 0.491 0.040 0.723 0 0.093 0.013 0.179 0.013 0.272 0 2.839-1.108 5.401-2.893 7.345-1.99 2.163-4.823 3.55-8.008 3.55-6.011 0-10.888-4.87-10.888-10.901 0.007-0.312 0.020-0.663 0.059-1.029z"></path>
</svg>
