<!-- Generated by IcoMoon.io -->
<svg version="1.1" xmlns="http://www.w3.org/2000/svg" width="252" height="512" viewBox="0 0 252 512">
<title>SolidDroneOnPawnOnQueenExpanded</title>
<path d="M241.496 502.784l-73.296-173.966h19.819c2.203 0 4.26-1.088 5.494-2.913s1.486-4.134 0.67-6.183l-27.137-67.921h41.601c2.176 0 4.22-1.068 5.454-2.867 1.248-1.798 1.519-4.081 0.75-6.118l-82.784-218.845c-0.976-2.587-3.45-4.286-6.21-4.286s-5.228 1.705-6.21 4.286l-82.776 218.845c-0.77 2.037-0.491 4.32 0.749 6.118s3.278 2.867 5.454 2.867h41.594l-27.13 67.921c-0.816 2.050-0.564 4.353 0.67 6.183 1.24 1.825 3.291 2.913 5.493 2.913h19.918l-73.302 173.966c-0.863 2.063-0.643 4.392 0.591 6.243s3.304 2.966 5.527 2.966h218.951c2.222 0 4.293-1.115 5.527-2.966s1.446-4.18 0.584-6.243zM133.858 476.882c0 6.024-4.876 10.901-10.901 10.901-6.011 0-10.895-4.87-10.895-10.901 0-0.325 0.020-0.677 0.053-1.035 0.007-0.040 0.007-0.106 0.013-0.139 0.704-7.298 7.291-20.707 9.826-25.671 0.418-0.803 1.579-0.803 1.99 0 2.534 4.976 9.103 18.412 9.826 25.63 0.013 0.067 0.013 0.139 0.026 0.219 0.033 0.345 0.060 0.683 0.060 0.995zM104.101 476.882c0 6.024-4.876 10.901-10.901 10.901-6.011 0-10.895-4.87-10.895-10.901 0-0.325 0.020-0.677 0.059-1.035 0-0.040 0-0.106 0.013-0.139 0.697-7.298 7.285-20.707 9.826-25.671 0.418-0.803 1.573-0.803 1.984 0 2.534 4.976 9.103 18.412 9.826 25.63 0.013 0.067 0.013 0.139 0.026 0.219 0.046 0.345 0.059 0.683 0.059 0.995zM125.227 304.594c-6.025 0-10.901-4.87-10.901-10.901 0-0.325 0.020-0.69 0.053-1.035 0-0.053 0.007-0.106 0.013-0.139 0.146-1.559 0.604-3.43 1.195-5.401 1.984-6.648 5.846-14.75 8.041-19.075 0.199-0.404 0.431-0.856 0.597-1.195 0.418-0.803 1.566-0.803 1.984 0 2.534 4.976 9.103 18.412 9.833 25.618 0 0.079 0.013 0.152 0.013 0.219 0.033 0.365 0.060 0.697 0.060 1.009 0.006 6.031-4.876 10.901-10.888 10.901zM130.395 215.673c0.026 0.358 0.053 0.69 0.053 1.008 0 6.018-4.876 10.894-10.901 10.894-3.742 0-7.053-1.898-9.010-4.777-1.188-1.745-1.885-3.848-1.885-6.118 0-0.332 0.020-0.69 0.059-1.042 0-0.047 0-0.1 0.013-0.139 0.697-7.305 7.285-20.708 9.826-25.663 0.412-0.81 1.573-0.81 1.984 0 0.458 0.903 1.082 2.163 1.752 3.536 3.005 6.19 7.477 16.183 8.075 22.081 0.020 0.073 0.020 0.146 0.033 0.219zM78.955 215.64c0.007-0.047 0.007-0.1 0.020-0.139 0.697-7.305 7.285-20.708 9.826-25.663 0.418-0.81 1.573-0.81 1.984 0 2.269 4.446 7.743 15.659 9.389 23.136 0.192 0.869 0.365 1.725 0.438 2.482 0.013 0.079 0.013 0.146 0.026 0.219 0.033 0.358 0.053 0.69 0.053 1.008 0 4.18-2.376 7.763-5.832 9.588-1.519 0.803-3.225 1.3-5.069 1.3-6.011 0-10.894-4.87-10.894-10.894 0.013-0.325 0.033-0.677 0.059-1.035zM52.621 475.846c0-0.040 0-0.106 0.014-0.139 0.697-7.298 7.285-20.707 9.826-25.671 0.411-0.803 1.572-0.803 1.984 0 2.534 4.976 9.103 18.412 9.833 25.63 0.007 0.067 0.013 0.139 0.020 0.219 0.033 0.351 0.053 0.69 0.053 0.995 0 6.024-4.87 10.901-10.901 10.901-6.011 0-10.888-4.87-10.888-10.901 0.007-0.325 0.020-0.677 0.059-1.035z"></path>
</svg>
