<!-- Generated by IcoMoon.io -->
<svg version="1.1" xmlns="http://www.w3.org/2000/svg" width="199" height="512" viewBox="0 0 199 512">
<title>SolidDroneOnDroneOnPawn</title>
<path d="M188.437 503.202l-36.478-96.445v-5.752h30.123c2.176 0 4.22-1.062 5.454-2.866 1.248-1.791 1.519-4.080 0.75-6.118l-82.776-218.838c-0.975-2.588-3.45-4.286-6.21-4.286s-5.228 1.705-6.21 4.286l-82.784 218.838c-0.77 2.037-0.491 4.326 0.749 6.118 1.24 1.798 3.277 2.866 5.454 2.866h32.411l-38.655 102.197c-0.756 1.997-0.477 4.233 0.736 5.991 1.214 1.752 3.212 2.807 5.348 2.807h166.011c2.137 0 4.14-1.055 5.355-2.807 1.214-1.765 1.493-3.994 0.723-5.991zM50.405 476.245c0.007-0.053 0.007-0.106 0.014-0.139 0.703-7.325 7.312-20.774 9.853-25.736 0.425-0.816 1.579-0.816 1.997 0 0.339 0.663 0.763 1.5 1.221 2.435 2.236 4.538 5.567 11.771 7.391 17.768 0.611 2.017 1.082 3.908 1.24 5.481 0.007 0.079 0.013 0.152 0.020 0.219 0.033 0.351 0.053 0.69 0.053 1.009 0 4.83-3.151 8.864-7.491 10.317-1.088 0.365-2.23 0.611-3.437 0.611-3.696 0-6.947-1.851-8.924-4.664-1.248-1.778-1.997-3.921-1.997-6.257 0.007-0.332 0.026-0.677 0.059-1.041zM103.836 364.885c0.026 0.351 0.053 0.69 0.053 1.009 0 0.789-0.093 1.553-0.252 2.296-1.055 4.91-5.414 8.592-10.642 8.592-0.637 0-1.248-0.087-1.851-0.186-5.122-0.882-9.037-5.321-9.037-10.695 0-0.339 0.020-0.69 0.059-1.048 0-0.040 0-0.093 0.013-0.139 0.697-7.298 7.285-20.707 9.826-25.657 0.412-0.816 1.573-0.816 1.984 0 2.534 4.963 9.103 18.399 9.826 25.618 0.007 0.073 0.007 0.132 0.020 0.212zM52.395 364.845c0.007-0.040 0.007-0.093 0.020-0.139 0.697-7.298 7.285-20.707 9.826-25.657 0.418-0.816 1.572-0.816 1.984 0 1.049 2.063 2.793 5.6 4.531 9.527 2.448 5.54 4.877 11.87 5.302 16.096 0.013 0.079 0.013 0.139 0.026 0.219 0.033 0.351 0.053 0.69 0.053 1.009 0 6.011-4.877 10.888-10.901 10.888-1.699 0-3.291-0.418-4.724-1.122-3.636-1.765-6.164-5.454-6.164-9.767-0.007-0.339 0.014-0.69 0.047-1.055zM91.103 488.207c-6.031 0-10.921-4.89-10.921-10.921 0-0.332 0.020-0.677 0.046-1.035 0.007-0.053 0.007-0.106 0.013-0.139 0.704-7.325 7.311-20.774 9.859-25.736 0.418-0.816 1.579-0.816 1.997 0 2.541 4.976 9.123 18.458 9.853 25.683 0.013 0.079 0.013 0.152 0.026 0.219 0.033 0.351 0.053 0.69 0.053 1.009 0 6.031-4.883 10.921-10.927 10.921zM83.739 435.128h-13.827l12.38-34.13h13.827l-12.38 34.13zM138.158 498.995l-35.563-97.997h13.82l35.536 97.997h-13.794z"></path>
</svg>
