<!-- Generated by IcoMoon.io -->
<svg version="1.1" xmlns="http://www.w3.org/2000/svg" width="512" height="512" viewBox="0 0 512 512">
<title>SouthWestPawn</title>
<path d="M243.412 121.315l156.952 156.94c2.784 2.784 4.016 6.753 3.258 10.615-0.747 3.839-3.341 7.096-6.954 8.649l-274.95 117.975c-4.442 1.919-9.632 0.912-13.044-2.5-3.448-3.435-4.419-8.589-2.523-13.044l117.986-274.938c1.564-3.614 4.81-6.22 8.649-6.954 3.874-0.746 7.855 0.474 10.627 3.258zM371.243 282.639l-132.214-132.203-99.398 231.612 231.613-99.41z"></path>
<path d="M290.718 259.916c-0.048 0.048-0.118 0.118-0.19 0.166-10.094 8.329-35.352 16.954-44.83 19.974-1.552 0.51-3.009-0.936-2.5-2.5 3.081-9.454 11.752-34.713 19.927-44.758 0.095-0.095 0.166-0.202 0.26-0.296 0.403-0.474 0.794-0.924 1.221-1.339 7.594-7.594 19.904-7.594 27.498 0 7.606 7.606 7.618 19.915 0.012 27.509-0.426 0.414-0.889 0.841-1.398 1.244z"></path>
</svg>
