<!-- Generated by IcoMoon.io -->
<svg version="1.1" xmlns="http://www.w3.org/2000/svg" width="512" height="512" viewBox="0 0 512 512">
<title>SouthWestQueen</title>
<path d="M222.265 23.173l276.454 276.442c2.796 2.796 4.028 6.824 3.211 10.71-0.758 3.886-3.447 7.132-7.132 8.637l-466.258 189.827c-4.407 1.801-9.478 0.782-12.854-2.594-3.364-3.377-4.383-8.447-2.595-12.842l189.815-466.27c1.505-3.708 4.727-6.374 8.625-7.155 3.886-0.782 7.914 0.427 10.733 3.246zM469.327 303.738l-251.196-251.196-172.471 423.715 423.668-172.519z"></path>
<path d="M407.389 299.568c-0.071 0.048-0.142 0.142-0.213 0.166-10.094 8.329-35.329 16.942-44.818 20.010-1.529 0.486-3.009-0.995-2.5-2.5 3.080-9.514 11.752-34.76 19.95-44.794 0.071-0.095 0.166-0.19 0.249-0.296 0.391-0.486 0.782-0.936 1.185-1.327 7.618-7.606 19.927-7.606 27.533 0 7.594 7.606 7.594 19.892-0.024 27.498-0.414 0.414-0.877 0.829-1.363 1.244z"></path>
<path d="M369.81 262c-0.048 0.059-0.142 0.13-0.19 0.166-10.118 8.329-35.352 16.954-44.818 19.998-1.575 0.486-3.009-0.971-2.524-2.5 3.104-9.49 11.752-34.76 19.974-44.77 0.048-0.095 0.166-0.202 0.237-0.308 0.414-0.474 0.805-0.936 1.209-1.327 7.618-7.606 19.927-7.594 27.509 0s7.618 19.927 0 27.521c-0.426 0.403-0.889 0.817-1.398 1.221z"></path>
<path d="M332.255 224.457c-0.071 0.024-0.142 0.119-0.19 0.166-10.118 8.305-35.352 16.941-44.841 19.998-1.529 0.486-3.009-0.983-2.5-2.5 3.080-9.501 11.752-34.76 19.95-44.782 0.071-0.107 0.166-0.202 0.249-0.308 0.414-0.474 0.782-0.924 1.185-1.315 7.618-7.618 19.95-7.606 27.533 0 7.594 7.594 7.594 19.904 0 27.509-0.414 0.403-0.877 0.805-1.386 1.232z"></path>
</svg>
