<!-- Generated by IcoMoon.io -->
<svg version="1.1" xmlns="http://www.w3.org/2000/svg" width="512" height="512" viewBox="0 0 512 512">
<title>SouthDrone</title>
<path d="M108.201 58.62h295.646c3.886 0 7.523 1.895 9.738 5.118 2.228 3.198 2.713 7.286 1.339 10.923l-147.853 390.756c-1.729 4.62-6.161 7.654-11.089 7.654v0c-4.928 0-9.323-3.045-11.089-7.654l-147.77-390.756c-1.362-3.637-0.876-7.736 1.338-10.923 2.228-3.222 5.853-5.118 9.739-5.118zM386.704 82.314h-261.349l130.639 345.428 130.71-345.428z"></path>
<path d="M339.777 123.175c-0.024 0.071-0.024 0.166-0.048 0.249-1.244 13.032-13.008 36.975-17.534 45.813-0.758 1.457-2.82 1.457-3.543 0-4.538-8.862-16.278-32.852-17.57-45.742-0.024-0.142-0.024-0.249-0.048-0.391-0.048-0.628-0.095-1.232-0.095-1.801 0-10.733 8.731-19.441 19.477-19.441s19.465 8.696 19.465 19.441c-0.012 0.604-0.059 1.232-0.106 1.872z"></path>
<path d="M286.607 123.175c0 0.071 0 0.166-0.024 0.249-1.244 13.032-13.008 36.975-17.546 45.813-0.747 1.457-2.82 1.457-3.543 0-4.538-8.862-16.266-32.852-17.558-45.742-0.024-0.142-0.024-0.249-0.048-0.391-0.048-0.628-0.095-1.232-0.095-1.801 0-10.733 8.72-19.441 19.465-19.441s19.465 8.696 19.465 19.441c0 0.604-0.048 1.232-0.118 1.872z"></path>
</svg>
