<!-- Generated by IcoMoon.io -->
<svg version="1.1" xmlns="http://www.w3.org/2000/svg" width="512" height="512" viewBox="0 0 512 512">
<title>SouthQueen</title>
<path d="M60.551 22.024h390.969c3.957 0 7.654 1.991 9.857 5.296s2.594 7.476 1.066 11.148l-195.478 463.924c-1.848 4.384-6.161 7.25-10.923 7.25s-9.075-2.867-10.923-7.25l-195.49-463.913c-1.552-3.672-1.161-7.843 1.042-11.148s5.9-5.308 9.88-5.308zM433.654 45.718h-355.262l177.649 421.57 177.613-421.57z"></path>
<path d="M386.894 86.591c0 0.071 0 0.189-0.024 0.249-1.244 13.032-13.008 36.975-17.534 45.837-0.747 1.434-2.82 1.434-3.543 0-4.538-8.886-16.266-32.876-17.558-45.766-0.024-0.118-0.024-0.249-0.048-0.391-0.048-0.628-0.095-1.232-0.095-1.777 0-10.757 8.696-19.465 19.465-19.465 10.733 0 19.441 8.696 19.441 19.465-0.012 0.569-0.036 1.197-0.106 1.848z"></path>
<path d="M333.771 86.591c0 0.071 0 0.189-0.024 0.249-1.244 13.032-13.008 36.975-17.534 45.837-0.758 1.434-2.82 1.434-3.543 0-4.538-8.886-16.266-32.876-17.558-45.766-0.024-0.118-0.024-0.249-0.048-0.391-0.048-0.628-0.095-1.232-0.095-1.777 0-10.757 8.719-19.465 19.465-19.465s19.465 8.696 19.465 19.465c-0.012 0.569-0.059 1.197-0.13 1.848z"></path>
<path d="M280.66 86.591c-0.024 0.071-0.024 0.189-0.024 0.249-1.267 13.032-13.032 36.975-17.57 45.837-0.747 1.434-2.82 1.434-3.543 0-4.537-8.886-16.266-32.876-17.558-45.766-0.024-0.118-0.024-0.249-0.048-0.391-0.048-0.628-0.095-1.232-0.095-1.777 0-10.757 8.72-19.465 19.465-19.465s19.465 8.696 19.465 19.465c0 0.569-0.048 1.197-0.095 1.848z"></path>
</svg>
