<!-- Generated by IcoMoon.io -->
<svg version="1.1" xmlns="http://www.w3.org/2000/svg" width="512" height="512" viewBox="0 0 512 512">
<title>SoutheastPawn</title>
<path d="M111.648 278.433l156.939-156.94c2.772-2.784 6.764-4.005 10.627-3.246 3.839 0.734 7.108 3.341 8.649 6.954l117.974 274.95c1.919 4.442 0.912 9.632-2.5 13.044-3.435 3.435-8.601 4.431-13.067 2.524l-274.95-117.998c-3.614-1.552-6.196-4.81-6.942-8.649-0.746-3.886 0.486-7.866 3.27-10.639zM272.995 150.613l-132.226 132.214 231.613 99.398-99.386-231.613z"></path>
<path d="M250.26 231.138c0.048 0.048 0.107 0.107 0.166 0.202 8.317 10.094 16.954 35.328 19.986 44.806 0.51 1.552-0.948 3.009-2.5 2.5-9.466-3.068-34.736-11.74-44.77-19.927-0.095-0.095-0.202-0.166-0.296-0.26-0.462-0.403-0.924-0.805-1.339-1.221-7.594-7.594-7.594-19.892 0.012-27.486 7.606-7.606 19.915-7.606 27.498-0.012 0.391 0.427 0.817 0.888 1.244 1.398z"></path>
</svg>
