<!-- Generated by IcoMoon.io -->
<svg version="1.1" xmlns="http://www.w3.org/2000/svg" width="512" height="512" viewBox="0 0 512 512">
<title>SouthEastQueen</title>
<path d="M13.328 299.591l276.442-276.442c2.796-2.796 6.824-4.016 10.71-3.21 3.886 0.77 7.132 3.448 8.637 7.132l189.827 466.258c1.801 4.407 0.782 9.478-2.594 12.854-3.377 3.365-8.447 4.384-12.842 2.594l-466.27-189.815c-3.708-1.505-6.374-4.727-7.155-8.637-0.782-3.886 0.415-7.914 3.246-10.733zM293.894 52.542l-251.208 251.196 423.726 172.483-172.519-423.679z"></path>
<path d="M289.723 114.491c0.048 0.059 0.142 0.13 0.166 0.201 8.329 10.106 16.942 35.34 20.010 44.818 0.486 1.54-0.995 3.009-2.5 2.5-9.514-3.081-34.76-11.752-44.806-19.951-0.095-0.071-0.19-0.166-0.296-0.249-0.486-0.403-0.936-0.794-1.327-1.196-7.606-7.618-7.606-19.927 0-27.521s19.892-7.594 27.509 0.012c0.414 0.427 0.829 0.888 1.244 1.386z"></path>
<path d="M252.155 152.059c0.059 0.048 0.131 0.142 0.166 0.202 8.328 10.106 16.953 35.34 19.998 44.818 0.498 1.564-0.971 3.009-2.5 2.512-9.49-3.092-34.76-11.752-44.77-19.963-0.095-0.059-0.202-0.166-0.308-0.249-0.474-0.415-0.936-0.805-1.327-1.208-7.606-7.606-7.594-19.927 0-27.509s19.927-7.618 27.521 0c0.391 0.427 0.817 0.888 1.22 1.398z"></path>
<path d="M214.612 189.614c0.024 0.071 0.119 0.142 0.166 0.19 8.305 10.118 16.941 35.352 19.998 44.841 0.486 1.529-0.983 3.009-2.5 2.5-9.501-3.081-34.76-11.752-44.782-19.951-0.107-0.071-0.202-0.166-0.308-0.249-0.474-0.415-0.924-0.794-1.315-1.196-7.618-7.618-7.606-19.939 0-27.533 7.594-7.594 19.904-7.594 27.509 0.012 0.391 0.415 0.805 0.888 1.232 1.386z"></path>
</svg>
