<!-- Generated by IcoMoon.io -->
<svg version="1.1" xmlns="http://www.w3.org/2000/svg" width="512" height="512" viewBox="0 0 512 512">
<title>SouthWestDrone</title>
<path d="M240.818 71.853l209.043 209.043c2.748 2.748 3.981 6.67 3.281 10.509s-3.235 7.084-6.776 8.672l-380.863 171.772c-4.49 2.026-9.762 1.066-13.245-2.417v0c-3.483-3.495-4.431-8.743-2.417-13.257l171.796-380.816c1.623-3.543 4.833-6.090 8.672-6.776 3.839-0.711 7.748 0.522 10.508 3.27zM420.978 285.541l-184.792-184.804-151.869 336.65 336.661-151.846z"></path>
<path d="M358.899 281.24c-0.048 0.036-0.118 0.106-0.213 0.154-10.094 8.329-35.329 16.954-44.794 19.998-1.575 0.498-3.033-0.959-2.5-2.5 3.057-9.478 11.728-34.748 19.927-44.782 0.095-0.107 0.166-0.19 0.249-0.308 0.391-0.474 0.782-0.936 1.209-1.339 7.594-7.594 19.927-7.571 27.509 0.024 7.594 7.594 7.618 19.903 0 27.509-0.414 0.414-0.877 0.829-1.386 1.244z"></path>
<path d="M321.32 243.661c-0.048 0.048-0.118 0.119-0.213 0.166-10.094 8.328-35.329 16.954-44.794 19.998-1.552 0.498-3.009-0.971-2.5-2.5 3.057-9.466 11.728-34.736 19.927-44.77 0.095-0.119 0.166-0.202 0.249-0.308 0.414-0.474 0.805-0.936 1.209-1.339 7.594-7.594 19.927-7.571 27.509 0.012s7.618 19.915 0.024 27.509c-0.438 0.415-0.901 0.817-1.41 1.232z"></path>
</svg>
