<!-- Generated by IcoMoon.io -->
<svg version="1.1" xmlns="http://www.w3.org/2000/svg" width="512" height="512" viewBox="0 0 512 512">
<title>SouthEastDrone</title>
<path d="M62.139 280.897l209.032-209.055c2.76-2.749 6.67-3.969 10.509-3.27 3.827 0.687 7.073 3.234 8.672 6.776l171.761 380.851c2.038 4.49 1.066 9.762-2.428 13.257v0c-3.471 3.471-8.731 4.431-13.233 2.405l-380.816-171.796c-3.531-1.611-6.090-4.846-6.776-8.661-0.699-3.862 0.522-7.772 3.282-10.509zM275.803 100.713l-184.792 184.816 336.638 151.869-151.846-336.685z"></path>
<path d="M271.514 162.792c0.036 0.071 0.095 0.131 0.142 0.213 8.341 10.106 16.965 35.34 20.010 44.806 0.498 1.564-0.959 3.021-2.512 2.5-9.466-3.069-34.736-11.728-44.782-19.927-0.119-0.083-0.19-0.166-0.296-0.249-0.486-0.415-0.936-0.805-1.339-1.22-7.594-7.594-7.571-19.927 0.024-27.509 7.594-7.594 19.915-7.606 27.497-0.012 0.426 0.439 0.829 0.912 1.256 1.398z"></path>
<path d="M233.923 200.395c0.059 0.048 0.119 0.119 0.178 0.19 8.328 10.106 16.953 35.34 19.998 44.806 0.498 1.552-0.971 3.021-2.512 2.5-9.478-3.056-34.748-11.728-44.758-19.927-0.119-0.083-0.213-0.166-0.32-0.249-0.462-0.415-0.924-0.805-1.339-1.22-7.594-7.594-7.571-19.915 0.024-27.509s19.927-7.606 27.509-0.012c0.403 0.439 0.817 0.912 1.22 1.422z"></path>
</svg>
