<!-- Generated by IcoMoon.io -->
<svg version="1.1" xmlns="http://www.w3.org/2000/svg" width="526" height="512" viewBox="0 0 526 512">
<title>SymbolGreenClub</title>
<path d="M395.043 221.089c-24.983 0-48.202 7.629-67.456 20.653v-0.1c33.411-21.419 55.597-58.862 55.597-101.5 0-66.523-53.965-120.455-120.522-120.455-66.524 0-120.488 53.931-120.488 120.455 0 42.639 22.185 80.081 55.597 101.5v0.1c-19.254-13.025-42.439-20.653-67.456-20.653-66.523 0-120.455 53.931-120.455 120.455 0 66.557 53.931 120.488 120.455 120.488 48.735 0 90.674-28.948 109.662-70.554l-43.106 120.522h131.714l-43.139-120.522c19.021 41.606 60.927 70.554 109.662 70.554 66.524 0 120.455-53.932 120.455-120.488-0.034-66.524-53.998-120.455-120.522-120.455z"></path>
</svg>
