<!-- Generated by IcoMoon.io -->
<svg version="1.1" xmlns="http://www.w3.org/2000/svg" width="512" height="512" viewBox="0 0 512 512">
<title>SymbolPlanet</title>
<path d="M489.188 32.198c-29.35-29.35-92.002-6.858-185.632 65.878-14.5-3.546-29.466-5.609-44.81-5.609-49.983 0-96.885 19.441-132.163 54.777-48.529 48.53-64.541 117.314-48.413 179.443-64.6 86.51-83.778 144.745-55.94 172.613 8.456 8.457 19.47 12.728 33.215 12.728 23.654 0 55.213-12.67 95.46-38.039 10.839-6.829 22.143-14.646 33.709-22.986 23.131 10.055 48.239 15.401 74.247 15.401 49.895 0 96.885-19.441 132.134-54.748 55.068-55.068 68.406-136.202 40.305-203.998 12.176-16.215 23.219-31.965 32.605-46.844 40.102-63.495 48.326-105.573 25.282-128.618zM59.398 462.366c1.453-10.926 11.071-37.603 41.816-82.558 7.177 11.304 15.576 21.998 25.427 31.849 3.894 3.865 7.934 7.498 12.089 10.955-38.591 26.096-66.314 38.446-79.332 39.754zM180.547 391.839c-6.596-4.591-12.903-9.589-18.715-15.373-53.499-53.528-53.528-140.59-0.058-194.089 25.863-25.892 60.327-40.161 96.971-40.161 36.673 0 71.079 14.268 97 40.219 6.19 6.19 11.624 12.903 16.447 19.993-22.986 28.45-50.738 59.95-85.289 94.501-39.404 39.463-75.031 70.44-106.358 94.909zM355.805 376.466c-25.892 25.921-60.327 40.161-96.942 40.161-9.008 0-17.814-0.901-26.473-2.587 29.438-24.294 59.834-51.959 89.736-81.89 25.747-25.776 49.721-51.813 71.399-77.356 1.482 8.050 2.412 16.303 2.412 24.671 0 36.644-14.21 71.079-40.131 97zM403.579 161.251c-3.952-4.824-8.137-9.502-12.641-13.977-10.433-10.462-22.027-19.325-34.291-26.909 52.743-38.010 83.517-49.547 95.577-51.058-1.395 14.326-16.796 46.931-48.646 91.945z"></path>
</svg>
