<!-- Generated by IcoMoon.io -->
<svg version="1.1" xmlns="http://www.w3.org/2000/svg" width="474" height="512" viewBox="0 0 474 512">
<title>SymbolWildAtom</title>
<path d="M325.35 243.572l72.969-76.167c5.964 3.849 12.957 6.234 20.546 6.668 23.582 1.356 43.803-16.643 45.158-40.198 1.382-23.609-16.643-43.83-40.225-45.185-23.555-1.382-43.776 16.643-45.185 40.225-0.569 9.975 2.358 19.353 7.698 26.97l-70.096 73.159c-14.068-17.998-35.129-30.25-59.144-32.581v-92.024c19.651-3.876 34.452-21.142 34.452-41.959 0-23.609-19.163-42.773-42.8-42.773s-42.745 19.163-42.745 42.773c0 20.817 14.827 38.083 34.452 41.959v92.051c-18.025 1.735-34.397 9.081-47.408 20.248l-74.54-73.565c5.502-10.625 3.903-23.989-4.987-32.934-11.059-11.032-28.949-11.032-40.008 0-11.032 11.005-11.032 28.894 0 39.981 9.026 8.999 22.579 10.517 33.286 4.798l74.731 73.754c-11.465 14.556-18.377 32.933-18.377 52.884 0 2.331 0.162 4.662 0.352 6.966l-69.364 3.226c-4.797-19.435-22.769-33.394-43.477-32.418-23.609 1.111-41.824 21.115-40.74 44.697 1.111 23.609 21.142 41.851 44.724 40.74 20.763-0.949 37.352-16.562 40.279-36.376l71.532-3.361c3.822 13.282 10.707 25.209 19.869 34.993l-62.56 59.172c-10.246-5.8-23.365-4.852-32.636 3.416-11.683 10.382-12.686 28.244-2.304 39.899s28.244 12.685 39.899 2.304c9.704-8.647 11.927-22.416 6.451-33.53l63.698-60.202c11.927 8.565 26.13 14.204 41.553 15.694v89.829c-11.547 3.578-19.95 14.312-19.95 27.024 0 15.586 12.685 28.244 28.272 28.244 15.613 0 28.272-12.659 28.272-28.244 0-12.712-8.403-23.447-19.95-27.024v-89.829c13.010-1.247 25.181-5.502 35.834-11.954l88.175 72.562c-3.226 6.017-5.096 12.902-5.096 20.194 0 23.609 19.137 42.773 42.773 42.773 23.609 0 42.773-19.163 42.773-42.773 0-23.636-19.163-42.745-42.773-42.745-10.3 0-19.76 3.632-27.106 9.649l-85.031-69.933c13.336-12.279 22.823-28.705 26.265-47.3l61.557-2.846c4.093 11.358 15.233 19.218 27.919 18.622 15.586-0.678 27.675-13.959 26.916-29.545s-13.959-27.62-29.572-26.889c-12.685 0.596-23.067 9.487-26.048 21.169l-59.361 2.792c-0.108-13.336-3.334-25.886-8.918-37.081z"></path>
</svg>
