<!-- Generated by IcoMoon.io -->
<svg version="1.1" xmlns="http://www.w3.org/2000/svg" width="512" height="512" viewBox="0 0 512 512">
<title>SymbolComplexity</title>
<path d="M495.515 277.115l-95.787 52.413c-33.7 18.457-61.355 46.175-79.875 79.875l-52.349 95.787c-4.964 9.038-17.916 9.069-22.945 0l-52.349-95.819c-18.393-33.605-45.984-61.195-79.621-79.589l-95.978-52.317c-9.006-4.933-9.006-17.948 0-22.912l95.787-52.381c33.764-18.458 61.482-46.175 79.876-79.939l52.38-95.755c4.964-9.038 17.885-9.038 22.88 0l52.603 96.042c18.267 33.51 45.857 61.036 79.303 79.303l96.106 52.445c9.038 4.932 9.038 17.917-0.032 22.849z"></path>
</svg>
