<!-- Generated by IcoMoon.io -->
<svg version="1.1" xmlns="http://www.w3.org/2000/svg" width="394" height="512" viewBox="0 0 394 512">
<title>SymbolPurpleSpade</title>
<path d="M196.748 19.695c-6.668 27.769-16.937 52.697-30.836 74.473-13.87 21.861-38.573 48.786-74.192 81.057-35.535 32.243-58.127 56.974-67.636 74.164s-14.236 34.69-14.236 52.443c0 24.675 8.243 45.156 24.675 61.644 16.431 16.431 36.491 24.675 60.153 24.675 42.287 0 75.036-30.949 96.644-64.57-1.66 36.829-7.709 66.258-18.344 88.372-11.423 23.802-28.951 43.469-52.584 59.139-15.924 10.55-44.622 19.779-86.008 27.741l-3.067 13.195h330.726l-3.038-13.195c-41.414-7.962-70.084-17.19-86.008-27.741-23.661-15.671-41.161-35.337-52.584-59.139-10.635-22.029-16.684-51.43-18.316-88.203 21.579 33.621 54.47 64.401 96.756 64.401 23.661 0 43.693-8.243 60.153-24.675 16.459-16.487 24.675-36.969 24.675-61.644 0-17.753-4.726-35.225-14.236-52.416-9.538-17.19-32.074-41.921-67.692-74.192s-60.293-59.196-74.135-81.057c-13.899-21.776-24.168-46.704-30.864-74.473z"></path>
</svg>
