<!-- Generated by IcoMoon.io -->
<svg version="1.1" xmlns="http://www.w3.org/2000/svg" width="649" height="512" viewBox="0 0 649 512">
<title>SymbolRecycle</title>
<path d="M272.053 203.55c-3.476-8.583-11.788-14.124-21.023-14.124l-62.906 0.108c26.836-46.99 77.574-78.118 133.907-78.118h0.217c25.369 0 49.543 5.921 71.816 17.709 10.919 5.704 23.359 6.899 35.038 3.314 11.625-3.694 21.295-11.626 26.999-22.49 5.649-10.811 6.791-23.196 3.205-34.876-3.586-11.788-11.571-21.349-22.382-27.053-35.147-18.578-74.803-28.357-114.786-28.357h-0.108c-107.072 0.108-201.161 70.132-233.755 169.87h-11.68l-43.894 0.108c-9.235 0-17.492 5.541-21.132 14.016-3.531 8.583-1.575 18.362 4.998 24.935l109.245 109.082c4.291 4.237 9.996 6.682 16.134 6.682 6.030 0 11.897-2.445 16.134-6.682l109.082-109.299c6.464-6.573 8.474-16.352 4.889-24.826z"></path>
<path d="M522.539 181.387c-8.909-8.909-23.25-8.909-32.268 0l-109.028 109.299c-6.519 6.464-8.529 16.297-4.998 24.826 3.586 8.474 12.005 14.124 21.132 14.124h0.108l65.243-0.108c-24.337 53.346-78.009 90.666-140.372 90.774h-0.108c-30.258 0-59.538-8.8-84.799-25.26-7.66-5.161-16.46-7.606-25.043-7.606-14.939 0-29.607 7.334-38.407 20.697-13.907 21.132-8.040 49.652 13.147 63.558 37.863 24.935 81.92 38.298 127.334 39.656 2.662 0.108 5.215 0.652 7.769 0.652h0.108c1.901 0 3.694-0.543 5.649-0.652 63.558-1.466 123.206-26.401 168.295-71.707 31.073-30.964 52.531-68.991 63.558-110.114l55.899-0.108c9.235 0 17.601-5.649 21.023-14.124 3.586-8.474 1.576-18.361-4.889-24.826l-109.353-109.082z"></path>
</svg>
