<!-- Generated by IcoMoon.io -->
<svg version="1.1" xmlns="http://www.w3.org/2000/svg" width="529" height="512" viewBox="0 0 529 512">
<title>SymbolSplitCircle</title>
<path d="M197.185 20.453c-59.055 16.228-108.027 53.005-141.299 100.921-28.903 41.627-46.044 91.415-46.044 144.516s17.14 102.986 46.044 144.516c20.645 29.623 47.34 54.685 78.787 73.411 19.301 11.523 40.042 21.269 62.56 27.463 1.776 0.576 3.649 0.768 5.618 0.768 4.513 0 9.026-1.488 12.771-4.321 5.233-4.033 8.354-10.226 8.354-16.9v-449.921c0-6.578-3.073-12.867-8.354-16.804-5.281-4.033-12.147-5.329-18.436-3.649z"></path>
<path d="M333.731 21.029c-6.385-1.921-13.204-0.576-18.485 3.457-5.329 4.033-8.402 10.226-8.402 16.852v449.104c0 6.577 3.073 12.867 8.45 16.804 3.649 2.928 8.162 4.321 12.675 4.321 1.969 0 3.937-0.288 5.81-0.768 21.75-6.194 41.818-15.748 60.687-27.031 75.475-45.18 124.831-127.136 124.831-217.831-0.096-113.452-76.291-214.085-185.567-244.909z"></path>
</svg>
