<!-- Generated by IcoMoon.io -->
<svg version="1.1" xmlns="http://www.w3.org/2000/svg" width="523" height="512" viewBox="0 0 523 512">
<title>SymbolPyramids</title>
<path d="M511.753 481.775l-177.306-448.099c-3.353-8.431-11.439-14.003-20.512-14.003s-17.257 5.523-20.512 13.954l-177.356 448.148c-0.888 2.219-0.789 4.536-0.888 6.805-0.296 4.832 0.394 9.615 3.156 13.757 4.043 6.065 10.897 9.664 18.194 9.664h354.663c7.298 0 14.151-3.599 18.293-9.664 2.811-4.092 3.452-8.925 3.155-13.707-0.098-2.317-0.049-4.635-0.887-6.853z"></path>
<path d="M168.333 203.488c4.142-5.966 5.030-13.658 2.317-20.512l-59.118-149.251c-3.303-8.48-11.489-14.003-20.511-14.003s-17.159 5.523-20.511 14.003l-40.283 101.671-18.786 47.581c-2.761 6.853-1.923 14.546 2.219 20.512 3.796 5.572 9.96 8.776 16.567 9.22 0.591 0.099 1.134 0.444 1.726 0.444h118.138c7.346 0 14.201-3.6 18.244-9.664z"></path>
</svg>
