<!-- Generated by IcoMoon.io -->
<svg version="1.1" xmlns="http://www.w3.org/2000/svg" width="372" height="512" viewBox="0 0 372 512">
<title>SymbolBolt</title>
<path d="M30.192 512c4.177 0 8.353-1.258 12.076-4.026l230.966-172.093c7.346-5.485 10.517-15.247 7.749-24.154s-10.818-15.146-19.776-15.146h-37.739l79.606-84.034c5.887-6.19 7.548-15.548 4.428-23.6-3.221-8.051-10.818-13.285-19.171-13.285h-45.287l113.018-119.106c5.887-6.19 7.649-15.549 4.428-23.6s-10.819-13.234-19.171-13.234h-120.163c-5.485 0-10.869 2.264-14.744 6.39l-140.793 148.292c-5.837 6.19-7.598 15.499-4.378 23.6s10.718 13.234 19.171 13.234h72.258l-87.052 91.883c-5.837 6.19-7.598 15.548-4.378 23.6s10.718 13.284 19.172 13.284h51.678l-117.345 135.812c-3.22 3.825-4.63 8.555-4.881 13.385-0.302 5.485 1.056 11.070 4.881 15.498 4.076 4.83 9.662 7.296 15.448 7.296z"></path>
</svg>
