<!-- Generated by IcoMoon.io -->
<svg version="1.1" xmlns="http://www.w3.org/2000/svg" width="511" height="512" viewBox="0 0 511 512">
<title>SymbolTime</title>
<path d="M255.355 19.7c-135.591 0-245.489 110.206-245.489 246.196 0 135.929 109.898 246.135 245.489 246.135 135.621 0 245.52-110.206 245.52-246.135 0-135.99-109.899-246.196-245.52-246.196zM358.861 337.963c-3.78 6.792-10.757 10.541-17.886 10.541-3.411 0-6.792-0.769-10.019-2.643l-85.805-48.127c-9.404-5.224-15.274-15.243-15.274-25.969v-152.617c0-11.371 9.25-20.59 20.529-20.59 11.31 0 20.56 9.219 20.56 20.59v145.917l80.027 44.93c9.834 5.563 13.368 18.132 7.868 27.966z"></path>
</svg>
