<!-- Generated by IcoMoon.io -->
<svg version="1.1" xmlns="http://www.w3.org/2000/svg" width="512" height="512" viewBox="0 0 512 512">
<title>TopDownQueen</title>
<path d="M222.23 419.935c-1.292-12.889-13.032-36.88-17.57-45.766-0.722-1.433-2.796-1.433-3.542 0-4.537 8.861-16.29 32.817-17.534 45.837-0.024 0.071-0.024 0.19-0.024 0.249-0.071 0.651-0.095 1.267-0.095 1.848 0 10.757 8.696 19.465 19.441 19.465 10.769 0 19.465-8.696 19.465-19.465 0-0.557-0.048-1.161-0.095-1.777-0.024-0.13-0.024-0.272-0.048-0.391z"></path>
<path d="M275.341 419.935c-1.291-12.889-13.008-36.88-17.546-45.766-0.723-1.433-2.772-1.433-3.542 0-4.537 8.861-16.29 32.817-17.534 45.837-0.024 0.071-0.024 0.19-0.024 0.249-0.071 0.651-0.119 1.267-0.119 1.848 0 10.757 8.72 19.465 19.465 19.465s19.441-8.696 19.441-19.465c0-0.557-0.048-1.161-0.095-1.777-0.024-0.13-0.024-0.272-0.048-0.391z"></path>
<path d="M328.51 420.327c-0.024-0.142-0.024-0.272-0.048-0.391-1.291-12.889-13.032-36.88-17.558-45.766-0.723-1.433-2.796-1.433-3.543 0-4.538 8.861-16.29 32.817-17.558 45.837 0 0.071 0 0.19-0.024 0.249-0.048 0.651-0.095 1.267-0.095 1.848 0 10.757 8.719 19.465 19.465 19.465s19.465-8.696 19.465-19.465c-0.012-0.545-0.059-1.149-0.106-1.777z"></path>
<path d="M451.52 58.549h-390.981c-6.54 0-11.847 5.295-11.847 11.847v390.957c0 6.551 5.307 11.847 11.847 11.847h390.981c6.551 0 11.847-5.296 11.847-11.847v-390.957c0-6.54-5.296-11.847-11.847-11.847zM239.017 265.614l-166.631 166.631v-333.262l166.631 166.631zM89.162 82.243h333.226l-166.619 166.619-166.607-166.619zM255.769 282.366l167.152 167.14h-334.281l167.129-167.14zM272.533 265.614l167.14-167.14v334.292l-167.14-167.152z"></path>
</svg>
