<!-- Generated by IcoMoon.io -->
<svg version="1.1" xmlns="http://www.w3.org/2000/svg" width="512" height="512" viewBox="0 0 512 512">
<title>TopDownPawn</title>
<path d="M371.848 143.043h-231.625c-3.886 0-7.025 3.139-7.025 7.013v231.625c0 3.886 3.139 7.026 7.025 7.026h231.625c3.886 0 7.026-3.139 7.026-7.026v-231.613c-0.012-3.886-3.139-7.025-7.026-7.025zM239.124 265.721l-82.232 82.255v-164.498l82.231 82.243zM173.656 166.738h164.451l-82.231 82.231-82.219-82.231zM255.875 282.485l82.539 82.539h-165.067l82.528-82.539zM272.639 265.721l82.539-82.54v165.090l-82.539-82.551z"></path>
<path d="M275.388 339.564c-0.024-0.142-0.024-0.272-0.048-0.391-1.291-12.889-13.008-36.88-17.546-45.765-0.723-1.433-2.772-1.433-3.542 0-4.537 8.861-16.29 32.817-17.534 45.837-0.024 0.071-0.024 0.19-0.024 0.249-0.071 0.651-0.119 1.267-0.119 1.848 0 10.757 8.72 19.465 19.465 19.465s19.441-8.696 19.441-19.465c0-0.545-0.048-1.149-0.095-1.777z"></path>
</svg>
