<!-- Generated by IcoMoon.io -->
<svg version="1.1" xmlns="http://www.w3.org/2000/svg" width="512" height="512" viewBox="0 0 512 512">
<title>TopDownTree</title>
<path d="M451.52 58.549h-390.981c-6.54 0-11.847 5.307-11.847 11.847v390.957c0 6.551 5.307 11.847 11.847 11.847h390.981c6.551 0 11.847-5.296 11.847-11.847v-390.957c0-6.54-5.296-11.847-11.847-11.847zM132.428 82.243h290.197l-13.625 13.624h-306.214l-13.624-13.624h43.266zM398.599 143.896v247.796l-18.968-18.967v-213.984l18.967-18.968v4.123zM349.551 412.188h-223.367l22.711-22.711h213.984l22.711 22.711h-36.039zM113.472 143.896v-3.815l18.956 18.956v213.404l-18.956 18.968v-247.512zM355.937 349.030l-83.286-83.298 83.286-83.298v166.595zM307.505 365.782h-134.916l83.298-83.298 83.298 83.298h-31.68zM338.889 165.979l-83.001 83.001-83.001-83.001h166.003zM156.123 182.719l83.013 83.013-83.013 83.001v-166.014zM362.584 142.285h-213.392l-22.711-22.711h258.813l-22.711 22.711zM72.386 98.984l17.391 17.391v298.715l-17.392 17.392v-333.498zM132.428 449.506h-43.562l13.624-13.625h306.783l13.625 13.625h-290.469zM439.673 432.766l-17.392-17.392v-299.284l17.392-17.392v334.067z"></path>
<path d="M254.004 291.298c-4.537 8.861-16.29 32.817-17.534 45.837-0.024 0.071-0.024 0.19-0.024 0.249-0.048 0.474-0.071 0.924-0.083 1.375-0.012 0.154-0.036 0.32-0.036 0.474 0 5.639 2.429 10.651 6.244 14.205 3.471 3.235 8.103 5.248 13.209 5.248 3.803 0 7.333-1.137 10.331-3.033 5.45-3.435 9.111-9.49 9.111-16.432 0-0.557-0.048-1.161-0.095-1.777-0.024-0.142-0.024-0.272-0.048-0.391-0.059-0.568-0.237-1.244-0.32-1.848-2.085-13.209-12.878-35.423-17.226-43.918-0.711-1.421-2.772-1.421-3.53 0.012z"></path>
</svg>
