<!-- Generated by IcoMoon.io -->
<svg version="1.1" xmlns="http://www.w3.org/2000/svg" width="512" height="512" viewBox="0 0 512 512">
<title>TopDownDrone</title>
<path d="M406.572 106.21h-301.084c-5.035 0-9.123 4.088-9.123 9.123v293.064l-1.54 1.54 1.54 1.54v4.94c0 5.047 4.088 9.123 9.123 9.123h4.941l1.161 1.161 1.161-1.161h293.834c5.047 0 9.134-4.075 9.134-9.123v-301.084c-0.012-5.035-4.099-9.123-9.146-9.123zM272.592 265.673l119.419-119.431v238.863l-119.419-119.432zM255.828 248.922l-119.005-119.017h238.010l-119.005 119.017zM120.059 146.644l119.017 119.029-119.017 119.041v-238.070zM255.828 282.437l119.419 119.408h-238.815l119.396-119.408z"></path>
<path d="M247.761 373.364c-1.292-12.889-13.032-36.88-17.558-45.766-0.722-1.433-2.796-1.433-3.542 0-4.537 8.861-16.29 32.817-17.534 45.837-0.024 0.071-0.024 0.19-0.024 0.249-0.071 0.651-0.095 1.267-0.095 1.848 0 10.757 8.696 19.465 19.441 19.465 10.757 0 19.465-8.696 19.465-19.465 0-0.557-0.048-1.161-0.095-1.777-0.036-0.142-0.036-0.284-0.059-0.391z"></path>
<path d="M300.918 373.755c-0.024-0.142-0.024-0.272-0.048-0.391-1.291-12.889-13.008-36.88-17.534-45.766-0.723-1.433-2.772-1.433-3.543 0-4.538 8.861-16.29 32.817-17.546 45.837-0.024 0.071-0.024 0.19-0.024 0.249-0.071 0.651-0.118 1.267-0.118 1.848 0 10.757 8.719 19.465 19.465 19.465 10.733 0 19.441-8.696 19.441-19.465 0-0.557-0.048-1.149-0.095-1.777z"></path>
</svg>
