<!-- Generated by IcoMoon.io -->
<svg version="1.1" xmlns="http://www.w3.org/2000/svg" width="512" height="512" viewBox="0 0 512 512">
<title>TopDownPawnOnDrone</title>
<path d="M422.293 415.386v-307.328c0-6.718-5.462-12.179-12.179-12.179h-308.158c-6.729 0-12.179 5.45-12.179 12.179v315.668c0 6.717 5.45 12.167 12.179 12.167h308.134c6.717 0 12.179-5.45 12.179-12.167v-8.341zM193.962 412.188h-67.778l22.711-22.711h213.984l22.711 22.711h-191.629zM113.472 143.896v-3.815l18.956 18.956v213.404l-18.956 18.968v-247.512zM398.599 143.896v247.796l-18.968-18.967v-213.984l18.967-18.968v4.123zM307.505 365.782h-134.916l83.298-83.298 83.298 83.298h-31.68zM156.123 182.719l83.013 83.013-83.013 83.001v-166.014zM172.886 165.979h166.014l-83.001 83.001-83.013-83.001zM272.651 265.733l83.286-83.298v166.595l-83.286-83.298zM362.584 142.285h-213.392l-22.711-22.711h258.813l-22.711 22.711z"></path>
<path d="M254.004 291.298c-4.537 8.861-16.29 32.817-17.534 45.837-0.024 0.071-0.024 0.19-0.024 0.249-0.048 0.474-0.071 0.924-0.083 1.375-0.012 0.154-0.036 0.32-0.036 0.474 0 5.639 2.429 10.651 6.244 14.205 3.471 3.235 8.103 5.248 13.209 5.248 3.803 0 7.333-1.137 10.331-3.033 5.45-3.435 9.111-9.49 9.111-16.432 0-0.557-0.048-1.161-0.095-1.777-0.024-0.142-0.024-0.272-0.048-0.391-0.059-0.568-0.237-1.244-0.32-1.848-2.085-13.209-12.878-35.423-17.226-43.918-0.711-1.421-2.772-1.421-3.53 0.012z"></path>
</svg>
