<!-- Generated by IcoMoon.io -->
<svg version="1.1" xmlns="http://www.w3.org/2000/svg" width="512" height="512" viewBox="0 0 512 512">
<title>TopDownDroneOnQueen</title>
<path d="M451.52 58.549h-390.981c-6.54 0-11.847 5.307-11.847 11.847v390.957c0 6.551 5.307 11.847 11.847 11.847h390.981c6.551 0 11.847-5.296 11.847-11.847v-390.957c0-6.54-5.296-11.847-11.847-11.847zM132.428 82.243h290.197l-13.625 13.624h-306.214l-13.624-13.624h43.266zM398.599 143.896v247.796l-125.947-125.959 125.947-125.959v4.123zM349.551 412.188h-223.367l129.703-129.703 129.703 129.703h-36.039zM113.472 143.896v-3.815l125.663 125.663-125.663 125.663v-247.512zM362.584 142.285l-106.696 106.696-129.407-129.407h258.813l-22.711 22.711zM72.386 98.984l17.391 17.391v298.715l-17.392 17.392v-333.498zM132.428 449.506h-43.562l13.624-13.625h306.783l13.625 13.625h-290.469zM439.673 432.766l-17.392-17.392v-299.284l17.392-17.392v334.067z"></path>
<path d="M236.185 387.415c-0.048-0.568-0.237-1.244-0.32-1.848-0.876-5.568-3.317-12.724-6.161-19.785-3.898-9.703-8.542-19.216-11.065-24.132-0.722-1.433-2.772-1.433-3.542 0-2.512 4.893-7.179 14.418-11.113 24.132-3.175 7.866-5.864 15.875-6.421 21.704-0.024 0.071-0.024 0.19-0.024 0.249-0.048 0.474-0.071 0.924-0.083 1.375 0 0.118-0.012 0.249-0.024 0.356 0 0.036 0 0.083 0 0.118 0 5.639 2.429 10.651 6.244 14.205 3.471 3.235 8.103 5.248 13.209 5.248 3.815 0 7.333-1.137 10.343-3.033 5.438-3.435 9.099-9.49 9.099-16.432 0-0.036 0-0.083 0-0.118-0.012-0.522-0.048-1.090-0.095-1.671-0.024-0.106-0.024-0.249-0.048-0.368z"></path>
<path d="M313.986 387.415c-0.059-0.568-0.237-1.244-0.32-1.848-0.877-5.568-3.317-12.724-6.161-19.785-3.897-9.703-8.553-19.216-11.065-24.132-0.723-1.433-2.772-1.433-3.543 0-2.512 4.893-7.18 14.418-11.113 24.132-3.187 7.866-5.876 15.875-6.433 21.704-0.024 0.071-0.024 0.19-0.024 0.249-0.048 0.474-0.071 0.924-0.083 1.375-0.012 0.118-0.024 0.249-0.024 0.356 0 0.036-0.012 0.083-0.012 0.118 0 5.639 2.428 10.651 6.243 14.205 3.471 3.235 8.103 5.248 13.209 5.248 3.803 0 7.334-1.137 10.331-3.033 5.45-3.435 9.111-9.49 9.111-16.432 0-0.036 0-0.083 0-0.118-0.012-0.522-0.048-1.090-0.095-1.671 0-0.106 0-0.249-0.024-0.368z"></path>
</svg>
