<!-- Generated by IcoMoon.io -->
<svg version="1.1" xmlns="http://www.w3.org/2000/svg" width="252" height="512" viewBox="0 0 252 512">
<title>Tree</title>
<path d="M241.434 502.459l-47.996-113.912h15.048c2.256 0 4.373-1.101 5.653-2.959 1.294-1.858 1.572-4.233 0.769-6.336l-41.792-110.516h14.802c2.289 0 4.399-1.135 5.686-3.026 1.267-1.885 1.532-4.286 0.69-6.396l-61.995-155.201c-1.042-2.614-3.57-4.326-6.382-4.326s-5.341 1.712-6.382 4.326l-62.008 155.195c-0.849 2.116-0.584 4.519 0.69 6.396 1.281 1.891 3.404 3.026 5.686 3.026h14.815l-41.806 110.522c-0.796 2.103-0.511 4.478 0.77 6.336 1.294 1.858 3.404 2.959 5.666 2.959h15.035l-47.996 113.913c-0.889 2.116-0.663 4.538 0.611 6.462 1.274 1.93 3.424 3.078 5.732 3.078h218.371c2.315 0 4.452-1.148 5.732-3.079 1.267-1.924 1.493-4.339 0.604-6.462zM74.058 254.988l51.858-129.797 51.851 129.797h-103.709zM53.297 374.799l40.127-106.063h64.975l40.134 106.063h-145.236zM27.083 498.252l46.218-109.7h105.221l46.218 109.7h-197.657z"></path>
<path d="M74.416 475.502c-0.73-7.192-7.285-20.601-9.806-25.564-0.404-0.81-1.566-0.81-1.984 0-2.541 4.943-9.103 18.332-9.806 25.591 0 0.046-0.014 0.099-0.014 0.146-0.026 0.365-0.053 0.704-0.053 1.041 0 6.005 4.864 10.861 10.874 10.861 5.991 0 10.855-4.85 10.855-10.861 0-0.325-0.020-0.657-0.053-1.009 0-0.067-0.007-0.139-0.013-0.205z"></path>
<path d="M104.087 475.502c-0.723-7.192-7.278-20.601-9.799-25.564-0.418-0.81-1.573-0.81-1.99 0-2.541 4.943-9.109 18.332-9.799 25.591-0.013 0.046-0.013 0.099-0.013 0.146-0.046 0.365-0.059 0.704-0.059 1.041 0 6.005 4.864 10.861 10.861 10.861s10.868-4.85 10.868-10.861c0-0.325-0.020-0.657-0.053-1.009 0-0.067-0.007-0.139-0.013-0.205z"></path>
<path d="M133.757 475.502c-0.73-7.192-7.285-20.601-9.793-25.564-0.412-0.81-1.559-0.81-1.99 0-2.541 4.943-9.097 18.332-9.806 25.591 0 0.046-0.013 0.099-0.013 0.146-0.026 0.365-0.046 0.704-0.046 1.041 0 6.005 4.87 10.861 10.874 10.861 5.998 0 10.861-4.85 10.861-10.861 0-0.325-0.020-0.657-0.066-1.009 0-0.067-0.013-0.139-0.020-0.205z"></path>
<path d="M84.275 362.512c1.665 1.015 3.59 1.639 5.68 1.639 5.998 0 10.855-4.87 10.855-10.875 0-0.312-0.020-0.65-0.059-1.009 0-0.067-0.007-0.139-0.020-0.205-0.418-4.219-2.853-10.543-5.281-16.076-1.739-3.908-3.463-7.438-4.511-9.495-0.404-0.803-1.559-0.803-1.984 0-2.534 4.95-9.103 18.325-9.799 25.603-0.007 0.040-0.007 0.093-0.020 0.139-0.026 0.358-0.053 0.716-0.053 1.041 0 3.914 2.084 7.318 5.195 9.236z"></path>
<path d="M119.618 364.151c5.998 0 10.881-4.87 10.881-10.875 0-0.312-0.026-0.65-0.060-1.009 0-0.067-0.020-0.139-0.026-0.205-0.723-7.205-7.272-20.601-9.806-25.57-0.418-0.803-1.573-0.803-1.984 0-2.534 4.95-9.103 18.325-9.799 25.603-0.007 0.040-0.007 0.093-0.013 0.139-0.026 0.358-0.059 0.716-0.059 1.041 0.007 5.998 4.864 10.875 10.868 10.875z"></path>
<path d="M119.871 242.833c1.593 0.922 3.437 1.5 5.407 1.5 2.376 0 4.551-0.783 6.33-2.070 2.74-1.977 4.538-5.175 4.538-8.804 0-0.312-0.020-0.65-0.053-1.008-0.013-0.066-0.013-0.132-0.026-0.213-0.73-7.198-7.279-20.595-9.799-25.564-0.412-0.81-1.566-0.81-1.984 0-2.534 4.95-9.103 18.319-9.806 25.611-0.007 0.047-0.007 0.093-0.007 0.139-0.033 0.351-0.053 0.71-0.053 1.035 0 4.014 2.203 7.49 5.454 9.375z"></path>
</svg>
