<!-- Generated by IcoMoon.io -->
<svg version="1.1" xmlns="http://www.w3.org/2000/svg" width="512" height="512" viewBox="0 0 512 512">
<title>TreehouseHOP</title>
<path d="M258.366 239.131l-11.136 11.136 20.819 20.841 11.135-11.135c10.322-10.322 11.95-19.102 4.908-26.144s-15.229-5.215-25.726 5.304z"></path>
<path d="M181.34 314.308c-6.536 6.536-9.617 13.887-9.199 22.272 0.506 8.297 3.874 15.515 10.233 21.853 6.404 6.426 13.667 9.793 21.941 10.3 8.252 0.506 15.625-2.531 22.25-9.177 6.448-6.426 9.507-13.776 8.891-21.942-0.506-8.297-3.895-15.515-10.321-21.964-6.228-6.228-13.578-9.507-21.964-9.882-8.363-0.44-15.603 2.311-21.831 8.539z"></path>
<path d="M437.241 19.674h-271.438c-17.364 0-33.671 6.779-45.907 19.015l-98.769 98.813c-6.976 6.954-11.29 16.594-11.29 27.223v308.74c0 21.281 17.253 38.535 38.513 38.535h308.74c10.651 0 20.335-4.336 27.289-11.356l98.747-98.747c12.28-12.258 19.014-28.543 19.014-45.885v-271.416c0.022-35.806-29.094-64.921-64.899-64.921zM297.164 300.224c5.017 4.995 4.798 11.334 0.418 15.713s-10.608 4.49-15.603-0.506l-54.248-54.226c-6.096-6.118-6.096-13.27 0.022-19.388l19.279-19.279c8.495-8.473 17.364-13.072 26.761-13.887s17.782 2.443 25.132 9.793c7.461 7.46 10.916 16.043 10.322 25.815-0.594 9.816-5.106 18.794-13.38 27.069l-13.776 13.776 15.075 15.119zM240.562 300.245c10.696 10.717 15.911 23.063 15.824 37.281-0.22 14.063-5.524 26.298-15.956 36.73-10.321 10.322-22.558 15.625-36.532 15.757-14.107-0.044-26.453-5.238-37.171-15.956-10.607-10.608-15.823-22.998-15.735-36.972 0.022-14.106 5.326-26.342 15.647-36.664 10.41-10.432 22.667-15.713 36.84-15.824 14.084-0.198 26.475 5.017 37.083 15.647zM100.838 424.631l30.040-30.018-20.555-20.533c-4.995-5.017-4.886-11.245-0.484-15.625s10.585-4.49 15.625 0.506l56.449 56.471c5.018 4.995 4.907 11.224 0.506 15.603s-10.63 4.49-15.625-0.506l-22.052-22.051-30.018 30.040 22.052 22.051c5.018 4.995 4.929 11.224 0.506 15.603-4.38 4.38-10.63 4.49-15.625-0.506l-56.471-56.449c-4.995-5.017-4.886-11.245-0.484-15.625s10.585-4.49 15.625 0.506l6.558 6.58 13.953 13.952zM344.81 455.683v-278.414h-265.474c-8.209 0-14.855-6.646-14.855-14.855s6.646-14.855 14.855-14.855h274.145l79.028-79.249c5.81-5.832 15.185-5.81 20.995-0.022s5.832 15.185 0.022 21.017l-79.028 79.271v287.13c0 8.209-6.646 14.855-14.855 14.855s-14.833-6.668-14.833-14.877z"></path>
</svg>
