<!-- Generated by IcoMoon.io -->
<svg version="1.1" xmlns="http://www.w3.org/2000/svg" width="512" height="512" viewBox="0 0 512 512">
<title>TreehouseTIP</title>
<path d="M233.805 272.803l-11.136 11.135 20.841 20.819 11.136-11.135c10.322-10.3 11.95-19.080 4.908-26.144-7.065-7.021-15.229-5.194-25.749 5.326z"></path>
<path d="M437.351 19.697h-271.658c-17.32 0.022-33.605 6.779-45.797 18.992l-98.769 98.813c-6.976 6.954-11.29 16.594-11.29 27.223v308.74c0 21.215 17.122 38.38 38.315 38.513h309.159c10.563-0.066 20.159-4.358 27.069-11.334l98.747-98.747c12.236-12.214 18.926-28.411 18.993-45.665v-271.856c-0.066-35.652-29.094-64.635-64.767-64.68zM192.718 413.781c5.018 4.995 4.798 11.334 0.418 15.713s-10.607 4.49-15.603-0.506l-49.957-49.935-13.996 13.974c-4.6 4.599-10.431 4.512-14.393 0.506-4.094-4.094-4.181-9.882 0.418-14.481l43.31-43.288c4.577-4.599 10.431-4.512 14.503-0.44 3.962 3.983 4.072 9.793-0.506 14.393l-14.107 14.106 49.912 49.957zM272.604 333.873c4.995 5.017 4.82 11.356 0.44 15.735-4.401 4.38-10.63 4.467-15.647-0.506l-54.204-54.226c-6.14-6.118-6.14-13.271 0-19.389l19.3-19.279c8.473-8.473 17.342-13.072 26.739-13.887s17.76 2.443 25.11 9.815c7.483 7.461 10.938 16.022 10.322 25.815-0.594 9.815-5.084 18.772-13.358 27.069l-13.82 13.733 15.119 15.119zM240.848 365.63c4.995 5.017 4.907 11.245 0.506 15.647-4.38 4.38-10.607 4.467-15.625-0.506l-56.448-56.471c-5.040-5.017-4.907-11.224-0.506-15.603 4.38-4.401 10.607-4.512 15.603 0.484l56.471 56.449zM344.81 455.683v-278.414h-265.474c-8.209 0-14.855-6.646-14.855-14.855s6.646-14.855 14.855-14.855h274.145l79.028-79.249c5.81-5.832 15.185-5.81 20.995-0.022s5.832 15.185 0.022 21.017l-79.028 79.271v287.13c0 8.209-6.646 14.855-14.855 14.855s-14.833-6.668-14.833-14.877z"></path>
</svg>
