<!-- Generated by IcoMoon.io -->
<svg version="1.1" xmlns="http://www.w3.org/2000/svg" width="512" height="512" viewBox="0 0 512 512">
<title>TreehouseAIM</title>
<path d="M125.023 375.18l14.481 32.284 17.782-17.76z"></path>
<path d="M437.241 19.674h-271.438c-17.364 0-33.671 6.779-45.907 19.015l-98.769 98.813c-6.976 6.954-11.29 16.594-11.29 27.223v308.74c0 21.281 17.253 38.535 38.513 38.535h308.74c10.651 0 20.335-4.336 27.289-11.356l98.747-98.747c12.28-12.258 19.014-28.543 19.014-45.885v-271.416c0.022-35.806-29.094-64.921-64.899-64.921zM318.578 283.586c-0.528 1.166-1.276 2.267-2.267 3.257-4.38 4.401-10.608 4.49-15.603-0.506l-33.099-33.077 11.048 35.322c1.628 5.326 0.594 9.793-3.081 13.49-3.675 3.653-8.164 4.688-13.293 3.059l-35.432-11.135 33.099 33.099c4.995 4.995 4.908 11.224 0.506 15.603-4.38 4.401-10.607 4.49-15.625-0.506l-55.855-55.832c-5.634-5.634-5.942-12.258-0.506-17.672 4.006-3.983 8.693-5.216 13.887-3.477l54.028 17.672-17.584-54.116c-1.716-5.194-0.594-9.793 3.477-13.864 5.414-5.414 12.038-5.127 17.672 0.506l55.877 55.854c1.233 1.233 2.135 2.531 2.751 3.851v8.473zM153.523 438.781c2.839 6.338 0.682 11.752-4.489 14.525-5.436 2.751-11.356 1.123-14.107-5.106l-33.892-77.421c-2.883-6.316-1.849-11.818 2.839-16.527 4.82-4.798 10.322-5.832 16.549-3.059l77.598 33.892c6.206 2.751 7.834 8.693 5.106 14.106-3.081 5.722-7.879 7.24-14.503 4.467l-12.984-5.392-27.663 27.663 3.874 9.001 1.673 3.851zM156.098 301.852c4.38-4.38 10.607-4.49 15.603 0.506l56.471 56.471c4.995 4.995 4.907 11.224 0.506 15.603-4.38 4.401-10.607 4.49-15.625-0.506l-56.448-56.449c-5.018-5.017-4.886-11.224-0.506-15.625zM344.81 455.683v-278.414h-265.474c-8.209 0-14.855-6.646-14.855-14.855s6.646-14.855 14.855-14.855h274.145l79.028-79.249c5.81-5.832 15.185-5.81 20.995-0.022s5.832 15.185 0.022 21.017l-79.028 79.271v287.13c0 8.209-6.646 14.855-14.855 14.855s-14.833-6.668-14.833-14.877z"></path>
</svg>
