<!-- Generated by IcoMoon.io -->
<svg version="1.1" xmlns="http://www.w3.org/2000/svg" width="512" height="512" viewBox="0 0 512 512">
<title>TreehouseDIG</title>
<path d="M437.241 19.674h-271.438c-17.364 0-33.671 6.779-45.907 19.015l-98.769 98.813c-6.976 6.954-11.29 16.594-11.29 27.223v308.74c0 21.281 17.253 38.535 38.513 38.535h308.74c10.651 0 20.335-4.336 27.289-11.356l98.747-98.747c12.28-12.258 19.014-28.543 19.014-45.885v-271.416c0.022-35.806-29.094-64.921-64.899-64.921zM238.714 307.926c6.867 6.866 14.613 10.322 22.998 10.322s15.603-3.169 21.831-9.397c5.854-5.832 9.199-12.038 10.322-18.882l-8.693-8.671-8.869 8.891c-4.49 4.49-10.432 4.269-14.195 0.506-3.983-4.005-4.094-9.815 0.418-14.305l14.106-14.106c6.096-6.118 13.271-6.118 19.389 0l14.106 14.084c3.477 3.477 4.995 7.043 4.599 10.916-1.342 13.798-7.065 25.858-17.166 35.96-10.519 10.519-22.887 15.911-36.973 16.329-13.996 0.308-26.431-4.995-37.149-15.735-11.157-11.113-16.572-23.658-16.154-37.544 0.308-13.997 5.81-26.233 16.506-36.972 9.309-9.287 20.246-14.503 32.703-15.515 6.911-0.418 11.73 3.763 11.818 9.595 0.506 6.008-3.169 10.519-10.409 11.224-7.857 0.506-14.701 3.675-20.643 9.595-5.634 5.612-8.473 12.566-8.693 20.929-0.176 8.164 3.235 15.846 10.145 22.777zM237.811 365.63c4.995 4.995 4.907 11.245 0.506 15.625-4.401 4.401-10.63 4.49-15.647-0.506l-56.448-56.449c-5.018-5.039-4.907-11.224-0.484-15.625 4.38-4.38 10.585-4.49 15.603 0.484l56.471 56.471zM91.243 384.358l13.886-13.887c10.234-10.212 21.853-16.748 34.926-19.19 13.095-2.663 27.883 2.156 40.23 14.481 12.544 12.544 17.342 27.355 15.207 40.757-1.827 10.255-6.228 19.873-12.831 28.433-1.849 2.399-3.829 4.776-6.052 6.976l-13.887 13.887c-6.118 6.14-13.292 6.14-19.41 0l-52.070-52.048c-2.751-2.751-4.072-5.722-4.358-8.715-0.066-0.66-0.066-1.342 0-2.024 0.286-2.949 1.606-5.92 4.358-8.671zM344.81 455.683v-278.414h-265.474c-8.209 0-14.855-6.646-14.855-14.855s6.646-14.855 14.855-14.855h274.145l79.028-79.249c5.81-5.832 15.185-5.81 20.995-0.022s5.832 15.185 0.022 21.017l-79.028 79.271v287.13c0 8.209-6.646 14.855-14.855 14.855s-14.833-6.668-14.833-14.877z"></path>
<path d="M154.249 436.339l6.14-6.14c17.848-17.87 19.256-34.221 4.468-49.010-14.195-14.216-30.216-12.28-48.108 5.59l-5.986 6.052 43.486 43.509z"></path>
</svg>
