<!-- Generated by IcoMoon.io -->
<svg version="1.1" xmlns="http://www.w3.org/2000/svg" width="512" height="512" viewBox="0 0 512 512">
<title>TreehouseWILD</title>
<path d="M250.245 236.689l-6.008 6.008 43.53 43.531 6.118-6.14c17.892-17.87 19.279-34.221 4.467-49.011-14.195-14.195-30.238-12.258-48.108 5.612z"></path>
<path d="M437.241 19.674h-271.438c-17.364 0-33.671 6.779-45.907 19.015l-98.769 98.813c-6.976 6.954-11.29 16.594-11.29 27.223v308.74c0 21.281 17.253 38.535 38.513 38.535h308.74c10.651 0 20.335-4.336 27.289-11.356l98.747-98.747c12.28-12.258 19.014-28.543 19.014-45.885v-271.416c0.022-35.806-29.094-64.921-64.899-64.921zM313.78 215.649c1.892 1.87 3.235 3.895 4.798 5.876 8.715 11.157 12.258 23.482 10.432 34.838-1.584 8.935-5.216 17.32-10.432 25-2.465 3.653-5.193 7.197-8.473 10.431l-13.887 13.909c-6.118 6.118-13.293 6.096-19.411 0l-52.070-52.091c-6.118-6.118-6.118-13.27 0.022-19.388l13.887-13.887c8.12-8.143 17.209-13.821 27.179-17.1 2.531-0.837 5.084-1.607 7.724-2.113 6.866-1.387 14.173-0.616 21.369 2.113 6.514 2.487 12.962 6.536 18.861 12.412zM267.697 334.225l-31.141 31.163c-6.118 6.096-13.27 6.096-19.41-0.022l-54.314-54.314c-5.018-5.039-4.907-11.224-0.484-15.625 4.38-4.38 10.585-4.512 15.603 0.484l50.023 50.045 25.749-25.726c4.599-4.599 10.409-4.512 14.481-0.44 3.983 4.027 4.094 9.837-0.506 14.437zM130.57 327.183c4.38-4.38 10.585-4.49 15.603 0.484l56.471 56.471c4.995 4.995 4.907 11.245 0.506 15.625-4.401 4.401-10.63 4.49-15.647-0.506l-56.448-56.449c-4.995-5.017-4.886-11.224-0.484-15.625zM344.81 455.683v-278.414h-265.474c-8.209 0-14.855-6.646-14.855-14.855s6.646-14.855 14.855-14.855h274.145l79.028-79.249c5.81-5.832 15.185-5.81 20.995-0.022s5.832 15.185 0.022 21.017l-79.028 79.271v287.13c0 8.209-6.646 14.855-14.855 14.855s-14.833-6.668-14.833-14.877zM27.025 431.63c0.088-0.154 0.088-0.33 0.176-0.462 3.257-5.524 9.485-7.021 15.713-3.235l49.429 30.216-28.499-47.888c-4.093-6.756-3.367-12.764 1.936-18.090 5.216-5.193 11.356-5.81 18.068-1.716l47.8 28.368-30.216-49.406c-3.785-6.228-2.267-12.434 3.257-15.735 5.502-3.235 11.73-1.937 15.405 4.182l39.899 68.927c1.629 2.905 2.289 5.612 2.333 8.164 0.066 3.543-1.167 6.8-4.049 9.683-5.194 5.216-11.268 5.722-17.958 1.628l-49.868-29.402 29.314 50.132c4.094 6.734 3.477 12.654-1.716 17.87-5.017 5.039-11.047 5.502-17.892 1.541l-68.817-39.833c-1.98-1.188-3.257-2.685-4.247-4.291-1.936-3.235-2.024-7.043-0.066-10.651z"></path>
</svg>
