<!-- Generated by IcoMoon.io -->
<svg version="1.1" xmlns="http://www.w3.org/2000/svg" width="512" height="512" viewBox="0 0 512 512">
<title>TreehouseSWAP</title>
<path d="M271.46 214.373l-11.135 11.113 20.863 20.841 11.091-11.113c10.322-10.322 11.95-19.102 4.908-26.144s-15.229-5.215-25.726 5.304z"></path>
<path d="M437.241 19.674h-271.438c-17.364 0-33.671 6.779-45.907 19.015l-98.769 98.813c-6.976 6.954-11.29 16.594-11.29 27.223v308.74c0 21.281 17.253 38.535 38.513 38.535h308.74c10.651 0 20.335-4.336 27.289-11.356l98.747-98.747c12.28-12.258 19.014-28.543 19.014-45.885v-271.416c0.022-35.806-29.094-64.921-64.899-64.921zM151.917 433.544l-68.817-39.811c-6.118-3.697-7.439-9.904-4.159-15.427 1.849-3.147 4.71-4.82 7.945-5.106 2.443-0.242 5.061 0.22 7.769 1.849l49.428 30.216-28.499-47.888c-4.094-6.756-3.367-12.764 1.936-18.046 5.216-5.216 11.356-5.854 18.068-1.76l47.8 28.411-30.216-49.428c-3.786-6.228-2.267-12.456 3.257-15.735 5.502-3.257 11.73-1.937 15.405 4.204l39.899 68.905c3.874 6.933 3.257 12.875-1.716 17.892-5.194 5.194-11.268 5.7-17.958 1.606l-49.868-29.402 29.314 50.132c4.094 6.734 3.477 12.654-1.716 17.892-1.255 1.255-2.575 2.223-3.962 2.905-3.235 1.606-6.845 1.474-10.696 0-1.056-0.418-2.090-0.771-3.213-1.409zM245.293 345.713c2.861 6.338 0.726 11.73-4.468 14.503-5.436 2.751-11.356 1.123-14.107-5.106l-33.913-77.399c-2.861-6.316-1.849-11.84 2.861-16.527 4.798-4.798 10.322-5.832 16.549-3.059l77.62 33.892c6.184 2.751 7.813 8.693 5.106 14.106-3.103 5.722-7.856 7.24-14.547 4.49l-12.94-5.414-27.685 27.663 5.524 12.853zM308.916 246.548l-13.755 13.776 15.141 15.119c4.995 4.995 4.776 11.356 0.396 15.735s-10.608 4.49-15.603-0.506l-54.27-54.226c-6.096-6.118-6.096-13.27 0.022-19.388l19.256-19.279c8.495-8.473 17.386-13.095 26.761-13.887 9.419-0.815 17.804 2.443 25.154 9.793 7.438 7.46 10.916 16.043 10.322 25.815-0.308 4.863-1.563 9.507-3.763 13.953-2.245 4.534-5.458 8.913-9.661 13.095zM344.81 455.683v-278.414h-265.474c-8.209 0-14.855-6.646-14.855-14.855s6.646-14.855 14.855-14.855h274.145l79.028-79.249c5.81-5.832 15.185-5.81 20.995-0.022s5.832 15.185 0.022 21.017l-79.028 79.271v287.13c0 8.209-6.646 14.855-14.855 14.855s-14.833-6.668-14.833-14.877zM82.374 503.923c-4.094 0.594-7.416-0.748-9.683-3.037-1.585-1.606-2.707-3.631-2.861-6.052-0.947-5.832 2.311-10.717 9.375-11.84 9.793-1.034 17.782-4.709 23.812-10.717 7.769-7.791 9.199-15.735 4.71-20.202-3.808-3.808-9.705-2.971-17.606 2.421l-9.177 6.338c-16.528 11.444-32.263 12.853-44.102 1.034-6.646-6.668-9.309-14.415-7.966-23.482 1.255-9.199 5.502-17.364 12.764-24.604 8.693-8.693 18.486-14.019 29.203-15.735 6.933-1.233 12.17 3.191 12.566 9.089 0.903 5.832-2.355 10.519-9.419 11.84-7.659 1.123-14.084 4.291-19.3 9.507-6.426 6.448-7.659 13.358-3.433 17.562 3.873 3.896 9.771 3.081 17.848-2.531l7.043-5.017c3.741-2.707 7.263-4.512 10.74-6.184 12.72-6.096 23.746-5.149 33.121 2.641 0.837 0.704 1.782 0.99 2.597 1.805 6.536 6.536 9.155 14.481 7.944 23.68s-6.008 18.068-14.613 26.651c-6.58 6.58-14.129 11.202-22.602 14.106-3.499 1.188-7.13 2.156-10.96 2.729z"></path>
<path d="M231.319 314.353l17.738-17.738-32.263-14.525z"></path>
</svg>
