<!-- Generated by IcoMoon.io -->
<svg version="1.1" xmlns="http://www.w3.org/2000/svg" width="512" height="512" viewBox="0 0 512 512">
<title>WestQueen</title>
<path d="M499.833 70.373v390.969c0 3.957-1.99 7.654-5.296 9.857s-7.476 2.594-11.148 1.066l-463.936-195.478c-4.396-1.848-7.25-6.161-7.25-10.923s2.855-9.075 7.25-10.923l463.936-195.49c3.685-1.552 7.843-1.161 11.148 1.042s5.296 5.9 5.296 9.881zM476.139 443.488v-355.274l-421.582 177.649 421.582 177.625z"></path>
<path d="M435.277 396.715c-0.071 0-0.19 0-0.249-0.024-13.032-1.244-36.975-13.008-45.837-17.534-1.433-0.747-1.433-2.82 0-3.543 8.885-4.538 32.876-16.266 45.766-17.558 0.118-0.024 0.249-0.024 0.391-0.048 0.628-0.048 1.232-0.095 1.777-0.095 10.757 0 19.465 8.696 19.465 19.465 0 10.733-8.696 19.441-19.465 19.441-0.568-0.012-1.197-0.036-1.848-0.106z"></path>
<path d="M435.277 343.592c-0.071 0-0.19 0-0.249-0.024-13.032-1.244-36.975-13.008-45.837-17.534-1.433-0.758-1.433-2.82 0-3.543 8.885-4.538 32.876-16.266 45.766-17.558 0.118-0.024 0.249-0.024 0.391-0.048 0.628-0.048 1.232-0.095 1.777-0.095 10.757 0 19.465 8.719 19.465 19.465s-8.696 19.465-19.465 19.465c-0.568-0.012-1.197-0.059-1.848-0.13z"></path>
<path d="M435.277 290.493c-0.071-0.024-0.19-0.024-0.249-0.024-13.032-1.267-36.975-13.032-45.837-17.558-1.433-0.747-1.433-2.82 0-3.543 8.885-4.538 32.876-16.266 45.766-17.558 0.118-0.024 0.249-0.024 0.391-0.048 0.628-0.048 1.232-0.095 1.777-0.095 10.757 0 19.465 8.72 19.465 19.465s-8.696 19.465-19.465 19.465c-0.568-0.024-1.197-0.071-1.848-0.106z"></path>
</svg>
