<!-- Generated by IcoMoon.io -->
<svg version="1.1" xmlns="http://www.w3.org/2000/svg" width="512" height="512" viewBox="0 0 512 512">
<title>WestPawn</title>
<path d="M406.774 154.879v221.946c0 3.933-1.943 7.618-5.201 9.81-3.235 2.204-7.381 2.666-11.041 1.209l-277.841-110.997c-4.502-1.777-7.452-6.161-7.452-10.994 0-4.858 2.95-9.206 7.452-11.018l277.841-110.972c3.661-1.457 7.796-0.995 11.041 1.208 3.258 2.203 5.201 5.876 5.201 9.809zM383.079 359.337v-186.96l-234.065 93.475 234.065 93.486z"></path>
<path d="M342.218 286.334c-0.071 0-0.166 0-0.249-0.024-13.032-1.244-36.975-13.008-45.813-17.558-1.457-0.747-1.457-2.796 0-3.543 8.861-4.514 32.853-16.243 45.742-17.558 0.142 0 0.249-0.024 0.391-0.024 0.628-0.048 1.232-0.095 1.801-0.095 10.733 0 19.441 8.696 19.441 19.441 0 10.757-8.696 19.465-19.441 19.465-0.604-0.012-1.232-0.036-1.872-0.106z"></path>
</svg>
