<!-- Generated by IcoMoon.io -->
<svg version="1.1" xmlns="http://www.w3.org/2000/svg" width="512" height="512" viewBox="0 0 512 512">
<title>WestDrone</title>
<path d="M463.26 118.022v295.635c0 3.886-1.896 7.523-5.118 9.738-3.199 2.228-7.286 2.713-10.923 1.339l-390.779-147.841c-4.608-1.729-7.654-6.161-7.654-11.089v0c0-4.928 3.056-9.324 7.654-11.089l390.779-147.782c3.637-1.362 7.724-0.876 10.923 1.338 3.211 2.228 5.118 5.865 5.118 9.75zM439.567 396.514v-261.349l-345.452 130.651 345.452 130.698z"></path>
<path d="M398.693 349.587c-0.071-0.024-0.166-0.024-0.249-0.048-13.032-1.244-36.975-13.008-45.813-17.534-1.457-0.758-1.457-2.82 0-3.543 8.861-4.538 32.853-16.278 45.742-17.57 0.142-0.024 0.249-0.024 0.391-0.048 0.628-0.048 1.232-0.095 1.801-0.095 10.733 0 19.441 8.731 19.441 19.477s-8.696 19.465-19.441 19.465c-0.592-0.012-1.221-0.059-1.872-0.106z"></path>
<path d="M398.693 296.428c-0.071 0-0.166 0-0.249-0.024-13.032-1.244-36.975-13.008-45.813-17.534-1.457-0.747-1.457-2.82 0-3.543 8.861-4.538 32.853-16.266 45.742-17.558 0.142-0.024 0.249-0.024 0.391-0.048 0.628-0.048 1.232-0.095 1.801-0.095 10.733 0 19.441 8.719 19.441 19.465s-8.696 19.465-19.441 19.465c-0.592-0.024-1.221-0.071-1.872-0.13z"></path>
</svg>
