<!-- Generated by IcoMoon.io -->
<svg version="1.1" xmlns="http://www.w3.org/2000/svg" width="512" height="512" viewBox="0 0 512 512">
<title>ZendoPyramid</title>
<path d="M451.52 58.549h-390.981c-6.54 0-11.847 5.295-11.847 11.847v390.957c0 6.551 5.307 11.847 11.847 11.847h390.981c6.551 0 11.847-5.296 11.847-11.847v-390.957c0-6.54-5.296-11.847-11.847-11.847zM239.017 265.614l-166.631 166.631v-333.262l166.631 166.631zM89.162 82.243h333.226l-166.619 166.619-166.607-166.619zM255.769 282.366l167.152 167.14h-334.281l167.129-167.14zM272.533 265.614l167.14-167.14v334.292l-167.14-167.152z"></path>
</svg>
