<?xml version="1.0" encoding="iso-8859-1"?>
<!-- Generator: Adobe Illustrator 16.0.0, SVG Export Plug-In . SVG Version: 6.00 Build 0)  -->
<!DOCTYPE svg PUBLIC "-//W3C//DTD SVG 1.1//EN" "http://www.w3.org/Graphics/SVG/1.1/DTD/svg11.dtd">
<svg version="1.1" xmlns="http://www.w3.org/2000/svg" xmlns:xlink="http://www.w3.org/1999/xlink" x="0px" y="0px"
	 width="10.836px" height="10.835px" viewBox="0 0 10.836 10.835" style="enable-background:new 0 0 10.836 10.835;"
	 xml:space="preserve">
<g id="ArrowNortheast">
	<path style="fill:#231F20;" d="M3.751,9.781l0.25-0.252l3.66-3.66l1.305,1.304C9.087,7.295,9.272,7.33,9.433,7.266
		C9.485,7.244,9.53,7.213,9.569,7.174c0.08-0.078,0.127-0.188,0.127-0.305V1.775c0-0.113-0.047-0.223-0.127-0.303
		S9.38,1.347,9.267,1.347L4.173,1.345c-0.174,0-0.33,0.106-0.396,0.264C3.71,1.769,3.748,1.956,3.869,2.078l1.305,1.304l-3.66,3.66
		L1.261,7.293c-0.166,0.166-0.166,0.438,0,0.604l1.883,1.883C3.312,9.947,3.583,9.947,3.751,9.781z"/>
</g>
<g id="Layer_1">
</g>
</svg>
