<?xml version="1.0" encoding="iso-8859-1"?>
<!-- Generator: Adobe Illustrator 16.0.0, SVG Export Plug-In . SVG Version: 6.00 Build 0)  -->
<!DOCTYPE svg PUBLIC "-//W3C//DTD SVG 1.1//EN" "http://www.w3.org/Graphics/SVG/1.1/DTD/svg11.dtd">
<svg version="1.1" xmlns="http://www.w3.org/2000/svg" xmlns:xlink="http://www.w3.org/1999/xlink" x="0px" y="0px"
	 width="10.836px" height="10.835px" viewBox="0 0 10.836 10.835" style="enable-background:new 0 0 10.836 10.835;"
	 xml:space="preserve">
<g id="ArrowSoutheast">
	<path style="fill:#231F20;" d="M1.261,3.959l0.25,0.252L5.172,7.87L3.869,9.174C3.748,9.296,3.711,9.48,3.777,9.641
		c0.021,0.055,0.053,0.1,0.092,0.139c0.078,0.078,0.188,0.127,0.305,0.127l5.093-0.002c0.113,0,0.221-0.045,0.301-0.125
		c0.082-0.08,0.127-0.189,0.127-0.303l0.002-5.095c0-0.174-0.107-0.33-0.266-0.396c-0.16-0.066-0.346-0.029-0.467,0.093L7.659,5.382
		l-3.657-3.66L3.75,1.471c-0.167-0.167-0.438-0.167-0.604,0L1.261,3.353C1.093,3.521,1.093,3.792,1.261,3.959z"/>
</g>
<g id="Layer_1">
</g>
</svg>
