<?xml version="1.0" encoding="iso-8859-1"?>
<!-- Generator: Adobe Illustrator 16.0.0, SVG Export Plug-In . SVG Version: 6.00 Build 0)  -->
<!DOCTYPE svg PUBLIC "-//W3C//DTD SVG 1.1//EN" "http://www.w3.org/Graphics/SVG/1.1/DTD/svg11.dtd">
<svg version="1.1" xmlns="http://www.w3.org/2000/svg" xmlns:xlink="http://www.w3.org/1999/xlink" x="0px" y="0px"
	 width="10.836px" height="10.835px" viewBox="0 0 10.836 10.835" style="enable-background:new 0 0 10.836 10.835;"
	 xml:space="preserve">
<g id="ArrowNorthwest">
	<path style="fill:#231F20;" d="M9.572,7.293L9.32,7.042l-3.658-3.66l1.303-1.304c0.121-0.122,0.158-0.307,0.092-0.467
		c-0.021-0.054-0.053-0.1-0.092-0.139C6.887,1.395,6.777,1.346,6.662,1.346L1.566,1.348c-0.113,0-0.223,0.045-0.303,0.125
		c-0.08,0.081-0.125,0.189-0.125,0.303L1.137,6.87c0,0.174,0.107,0.33,0.264,0.396c0.16,0.066,0.348,0.029,0.469-0.093L3.172,5.87
		l3.66,3.66l0.252,0.251c0.166,0.167,0.438,0.167,0.605,0L9.57,7.899C9.74,7.73,9.74,7.46,9.572,7.293z"/>
</g>
<g id="Layer_1">
</g>
</svg>
