<?xml version="1.0" encoding="iso-8859-1"?>
<!-- Generator: Adobe Illustrator 16.0.0, SVG Export Plug-In . SVG Version: 6.00 Build 0)  -->
<!DOCTYPE svg PUBLIC "-//W3C//DTD SVG 1.1//EN" "http://www.w3.org/Graphics/SVG/1.1/DTD/svg11.dtd">
<svg version="1.1" xmlns="http://www.w3.org/2000/svg" xmlns:xlink="http://www.w3.org/1999/xlink" x="0px" y="0px"
	 width="10.836px" height="10.835px" viewBox="0 0 10.836 10.835" style="enable-background:new 0 0 10.836 10.835;"
	 xml:space="preserve">
<g id="ArrowSouth">
	<path style="fill:#231F20;" d="M3.657,0.845V1.2v5.176H1.813c-0.172,0-0.328,0.105-0.395,0.266
		C1.396,6.694,1.386,6.749,1.386,6.804c0,0.111,0.043,0.223,0.125,0.305l3.604,3.602c0.08,0.08,0.189,0.125,0.303,0.125
		S5.64,10.79,5.72,10.71l3.604-3.602C9.446,6.985,9.481,6.8,9.417,6.642c-0.066-0.16-0.225-0.266-0.396-0.266H7.177V1.2V0.845
		c0-0.236-0.191-0.428-0.428-0.428H4.087C3.849,0.417,3.657,0.608,3.657,0.845z"/>
</g>
<g id="Layer_1">
</g>
</svg>
