<?xml version="1.0" encoding="iso-8859-1"?>
<!-- Generator: Adobe Illustrator 16.0.0, SVG Export Plug-In . SVG Version: 6.00 Build 0)  -->
<!DOCTYPE svg PUBLIC "-//W3C//DTD SVG 1.1//EN" "http://www.w3.org/Graphics/SVG/1.1/DTD/svg11.dtd">
<svg version="1.1" xmlns="http://www.w3.org/2000/svg" xmlns:xlink="http://www.w3.org/1999/xlink" x="0px" y="0px"
	 width="10.836px" height="10.835px" viewBox="0 0 10.836 10.835" style="enable-background:new 0 0 10.836 10.835;"
	 xml:space="preserve">
<g id="ArrowWest">
	<path style="fill:#231F20;" d="M10.198,3.866H9.843H4.667V2.022c0-0.172-0.105-0.328-0.266-0.395
		C4.349,1.604,4.294,1.595,4.239,1.595c-0.111,0-0.223,0.043-0.305,0.125L0.333,5.323c-0.08,0.08-0.125,0.189-0.125,0.303
		s0.045,0.223,0.125,0.303l3.602,3.604C4.058,9.655,4.243,9.69,4.401,9.626c0.16-0.066,0.266-0.225,0.266-0.396V7.386h5.176h0.355
		c0.236,0,0.428-0.191,0.428-0.428V4.296C10.626,4.058,10.435,3.866,10.198,3.866z"/>
</g>
<g id="Layer_1">
</g>
</svg>
