<?xml version="1.0" encoding="iso-8859-1"?>
<!-- Generator: Adobe Illustrator 16.0.0, SVG Export Plug-In . SVG Version: 6.00 Build 0)  -->
<!DOCTYPE svg PUBLIC "-//W3C//DTD SVG 1.1//EN" "http://www.w3.org/Graphics/SVG/1.1/DTD/svg11.dtd">
<svg version="1.1" xmlns="http://www.w3.org/2000/svg" xmlns:xlink="http://www.w3.org/1999/xlink" x="0px" y="0px"
	 width="10.836px" height="10.835px" viewBox="0 0 10.836 10.835" style="enable-background:new 0 0 10.836 10.835;"
	 xml:space="preserve">
<g id="ArrowNorth">
	<path style="fill:#231F20;" d="M7.177,10.407v-0.355V4.876h1.844c0.172,0,0.328-0.105,0.395-0.266
		c0.023-0.053,0.033-0.107,0.033-0.162c0-0.111-0.043-0.223-0.125-0.305L5.72,0.542c-0.08-0.08-0.189-0.125-0.303-0.125
		S5.195,0.462,5.115,0.542L1.511,4.144C1.388,4.267,1.353,4.452,1.417,4.61c0.066,0.16,0.225,0.266,0.397,0.266h1.844v5.176v0.355
		c0,0.236,0.191,0.428,0.428,0.428h2.662C6.985,10.835,7.177,10.644,7.177,10.407z"/>
</g>
<g id="Layer_1">
</g>
</svg>
