<?xml version="1.0" encoding="iso-8859-1"?>
<!-- Generator: Adobe Illustrator 16.0.0, SVG Export Plug-In . SVG Version: 6.00 Build 0)  -->
<!DOCTYPE svg PUBLIC "-//W3C//DTD SVG 1.1//EN" "http://www.w3.org/Graphics/SVG/1.1/DTD/svg11.dtd">
<svg version="1.1" xmlns="http://www.w3.org/2000/svg" xmlns:xlink="http://www.w3.org/1999/xlink" x="0px" y="0px"
	 width="10.836px" height="10.835px" viewBox="0 0 10.836 10.835" style="enable-background:new 0 0 10.836 10.835;"
	 xml:space="preserve">
<g id="ArrowSouthwest">
	<path style="fill:#231F20;" d="M7.08,1.471L6.83,1.722l-3.658,3.66L1.868,4.078C1.747,3.956,1.561,3.921,1.401,3.987
		c-0.053,0.021-0.1,0.052-0.137,0.091c-0.08,0.079-0.127,0.188-0.127,0.304v5.095c0,0.113,0.047,0.223,0.127,0.303
		s0.188,0.126,0.301,0.126l5.093,0.001c0.174,0,0.33-0.106,0.396-0.264c0.066-0.16,0.029-0.347-0.092-0.469L5.659,7.87L9.32,4.211
		l0.252-0.252c0.166-0.167,0.166-0.438,0-0.604L7.689,1.472C7.52,1.304,7.248,1.304,7.08,1.471z"/>
</g>
<g id="Layer_1">
</g>
</svg>
