<?xml version="1.0" encoding="utf-8"?>
<!-- Generated by IcoMoon.io -->
<!DOCTYPE svg PUBLIC "-//W3C//DTD SVG 1.1//EN" "http://www.w3.org/Graphics/SVG/1.1/DTD/svg11.dtd">
<svg version="1.1" xmlns="http://www.w3.org/2000/svg" xmlns:xlink="http://www.w3.org/1999/xlink" width="33" height="32" viewBox="0 0 33 32">
<path d="M24.14 32h-23.323c-0.451 0-0.817-0.365-0.817-0.817v-22.576c0-0.231 0.096-0.44 0.251-0.589l8.046-7.788c0.152-0.147 0.355-0.23 0.568-0.23h23.323c0.452 0 0.817 0.366 0.817 0.817v22.576c0 0.221-0.090 0.433-0.249 0.588l-8.048 7.789c-0.146 0.142-0.346 0.23-0.568 0.23zM1.634 30.366h21.689v-20.942h-21.689v20.942zM24.958 8.953v20.302l6.413-6.208v-20.301l-6.413 6.207zM2.836 7.789h20.974l6.358-6.155h-20.974l-6.359 6.155z"></path>
<path d="M12.022 11.947c-0.194 0.806-0.493 1.531-0.896 2.163-0.404 0.634-1.121 1.417-2.155 2.353s-1.689 1.655-1.965 2.155c-0.276 0.5-0.413 1.008-0.413 1.522 0 0.717 0.239 1.312 0.717 1.791 0.477 0.477 1.059 0.717 1.746 0.717 1.228 0 2.179-0.899 2.806-1.876-0.048 1.070-0.224 1.925-0.533 2.568-0.332 0.691-0.84 1.262-1.527 1.717-0.463 0.306-1.296 0.574-2.497 0.806l-0.089 0.383h9.607l-0.088-0.383c-1.203-0.231-2.036-0.499-2.498-0.806-0.687-0.455-1.196-1.026-1.527-1.717-0.308-0.64-0.485-1.495-0.532-2.563 0.627 0.977 1.583 1.871 2.81 1.871 0.687 0 1.269-0.239 1.747-0.717 0.478-0.479 0.717-1.075 0.717-1.791 0-0.515-0.137-1.022-0.413-1.522s-0.932-1.218-1.966-2.155c-1.034-0.937-1.75-1.719-2.152-2.353-0.405-0.633-0.703-1.357-0.897-2.163z"></path>
</svg>
