<?xml version="1.0" encoding="utf-8"?>
<!-- Generated by IcoMoon.io -->
<!DOCTYPE svg PUBLIC "-//W3C//DTD SVG 1.1//EN" "http://www.w3.org/Graphics/SVG/1.1/DTD/svg11.dtd">
<svg version="1.1" xmlns="http://www.w3.org/2000/svg" xmlns:xlink="http://www.w3.org/1999/xlink" width="33" height="32" viewBox="0 0 33 32">
<path d="M24.14 32h-23.323c-0.451 0-0.817-0.365-0.817-0.817v-22.576c0-0.231 0.096-0.44 0.251-0.589l8.046-7.788c0.152-0.147 0.355-0.23 0.568-0.23h23.323c0.452 0 0.817 0.366 0.817 0.817v22.576c0 0.221-0.090 0.433-0.249 0.588l-8.048 7.789c-0.146 0.142-0.346 0.23-0.568 0.23zM1.634 30.366h21.689v-20.942h-21.689v20.942zM24.958 8.953v20.302l6.413-6.208v-20.301l-6.413 6.207zM2.836 7.789h20.974l6.358-6.155h-20.974l-6.359 6.155z"></path>
<path d="M14.687 18.426l2.2-2.296c0.18 0.116 0.391 0.188 0.619 0.201 0.711 0.041 1.321-0.502 1.361-1.212 0.042-0.712-0.502-1.321-1.213-1.362s-1.32 0.502-1.362 1.213c-0.017 0.301 0.071 0.583 0.232 0.813l-2.113 2.205c-0.424-0.543-1.059-0.912-1.783-0.982v-2.775c0.592-0.117 1.039-0.637 1.039-1.265 0-0.712-0.578-1.29-1.29-1.29s-1.289 0.578-1.289 1.29c0 0.628 0.447 1.148 1.039 1.265v2.775c-0.543 0.053-1.037 0.275-1.429 0.611l-2.247-2.218c0.166-0.321 0.118-0.723-0.15-0.993-0.333-0.333-0.873-0.333-1.206 0s-0.333 0.871 0 1.205c0.272 0.271 0.681 0.317 1.003 0.145l2.253 2.224c-0.346 0.439-0.554 0.993-0.554 1.594 0 0.070 0.005 0.141 0.011 0.21l-2.091 0.097c-0.145-0.586-0.686-1.007-1.311-0.977-0.712 0.034-1.261 0.637-1.228 1.348s0.637 1.262 1.348 1.228c0.626-0.029 1.126-0.499 1.214-1.097l2.157-0.101c0.115 0.4 0.323 0.76 0.599 1.055l-1.886 1.784c-0.309-0.175-0.704-0.146-0.984 0.103-0.352 0.313-0.382 0.852-0.069 1.203s0.852 0.382 1.203 0.069c0.293-0.261 0.36-0.676 0.194-1.011l1.92-1.815c0.36 0.258 0.788 0.428 1.253 0.473v2.708c-0.348 0.108-0.601 0.431-0.601 0.815 0 0.47 0.382 0.852 0.852 0.852s0.852-0.382 0.852-0.852c0-0.383-0.253-0.707-0.601-0.815v-2.708c0.392-0.038 0.759-0.166 1.079-0.36l2.658 2.188c-0.097 0.181-0.154 0.389-0.154 0.609 0 0.712 0.577 1.29 1.29 1.29s1.29-0.578 1.29-1.29c0-0.713-0.578-1.289-1.29-1.289-0.311 0-0.596 0.11-0.817 0.291l-2.563-2.108c0.402-0.37 0.688-0.865 0.792-1.426l1.856-0.086c0.123 0.342 0.459 0.579 0.842 0.561 0.47-0.020 0.834-0.421 0.811-0.891s-0.421-0.833-0.892-0.811c-0.382 0.018-0.695 0.286-0.785 0.638l-1.79 0.084c-0.004-0.402-0.101-0.78-0.27-1.118z"></path>
</svg>
