<?xml version="1.0" encoding="utf-8"?>
<!-- Generated by IcoMoon.io -->
<!DOCTYPE svg PUBLIC "-//W3C//DTD SVG 1.1//EN" "http://www.w3.org/Graphics/SVG/1.1/DTD/svg11.dtd">
<svg version="1.1" xmlns="http://www.w3.org/2000/svg" xmlns:xlink="http://www.w3.org/1999/xlink" width="33" height="32" viewBox="0 0 33 32">
<path d="M24.14 32h-23.323c-0.451 0-0.817-0.365-0.817-0.817v-22.576c0-0.23 0.096-0.439 0.249-0.587l8.047-7.789c0.152-0.148 0.355-0.23 0.568-0.23h23.323c0.452 0 0.817 0.366 0.817 0.817v22.576c0 0.221-0.089 0.433-0.249 0.588l-8.047 7.789c-0.146 0.142-0.346 0.23-0.568 0.23zM1.634 30.366h21.689v-20.942h-21.689v20.942zM24.958 8.953v20.301l6.412-6.207v-20.301l-6.412 6.207zM2.836 7.789h20.974l6.358-6.155h-20.974l-6.358 6.155z"></path>
<path d="M15.714 18.928c-0.613 0-1.182 0.187-1.655 0.507v-0.002c0.82-0.525 1.364-1.444 1.364-2.49 0-1.632-1.324-2.955-2.956-2.955s-2.956 1.323-2.956 2.955c0 1.046 0.544 1.965 1.364 2.49v0.002c-0.472-0.32-1.041-0.507-1.655-0.507-1.632 0-2.955 1.323-2.955 2.955s1.323 2.956 2.955 2.956c1.196 0 2.224-0.71 2.69-1.731l-1.057 2.957h3.23l-1.058-2.957c0.466 1.021 1.494 1.731 2.689 1.731 1.632 0 2.955-1.323 2.955-2.956s-1.324-2.955-2.956-2.955z"></path>
</svg>
