<?xml version="1.0" encoding="utf-8"?>
<!-- Generated by IcoMoon.io -->
<!DOCTYPE svg PUBLIC "-//W3C//DTD SVG 1.1//EN" "http://www.w3.org/Graphics/SVG/1.1/DTD/svg11.dtd">
<svg version="1.1" xmlns="http://www.w3.org/2000/svg" xmlns:xlink="http://www.w3.org/1999/xlink" width="26" height="32" viewBox="0 0 26 32">
<path d="M24.8 0h-20.091c-0.221 0-0.434 0.087-0.591 0.244l-3.761 3.732c-0.216 0.152-0.357 0.403-0.357 0.686v26.5c0 0.463 0.375 0.839 0.839 0.839h20.091c0.23 0 0.439-0.092 0.59-0.241l3.871-3.822c0.159-0.158 0.249-0.373 0.249-0.596v-26.501c0-0.464-0.375-0.839-0.839-0.839zM5.055 1.678h17.748l-2.146 2.146h-17.765l2.162-2.146zM20.091 30.322h-18.413v-24.823h18.413v24.823zM21.768 29.154v-24.068l2.194-2.196v24.098l-2.194 2.166z"></path>
<path d="M5.423 21.825c0.439 0 0.765-0.298 0.765-0.789v-1.477h1.377c0.826 0 1.5-0.221 2.019-0.67 0.519-0.45 0.775-1.039 0.775-1.768 0-0.719-0.256-1.29-0.765-1.709-0.511-0.419-1.183-0.629-2.030-0.629h-1.926c-0.613 0-0.969 0.349-0.969 0.949v5.306c-0.001 0.488 0.316 0.787 0.754 0.787zM6.187 16.152h1.112c1.051 0 1.551 0.311 1.551 0.999s-0.521 1.040-1.551 1.040h-1.112v-2.039z"></path>
<path d="M11.909 21.787c0.398 0.119 0.775-0.040 0.948-0.491l0.367-0.9h2.765l0.379 0.9c0.193 0.46 0.509 0.62 0.948 0.491 0.408-0.13 0.623-0.5 0.449-0.939l-2.183-5.456c-0.174-0.44-0.5-0.659-0.979-0.659-0.47 0-0.795 0.22-0.969 0.67l-2.173 5.446c-0.173 0.439 0.041 0.808 0.45 0.938zM14.613 16.79l0.887 2.288h-1.776l0.888-2.288z"></path>
</svg>
