<?xml version="1.0" encoding="utf-8"?>
<!-- Generated by IcoMoon.io -->
<!DOCTYPE svg PUBLIC "-//W3C//DTD SVG 1.1//EN" "http://www.w3.org/Graphics/SVG/1.1/DTD/svg11.dtd">
<svg version="1.1" xmlns="http://www.w3.org/2000/svg" xmlns:xlink="http://www.w3.org/1999/xlink" width="37" height="32" viewBox="0 0 37 32">
<path d="M1.321 32c-0.433 0-0.839-0.213-1.085-0.57-0.004-0.006-0.010-0.014-0.014-0.020-0.238-0.357-0.289-0.806-0.135-1.206l8.411-21.819 0.006 0.004 0.002-0.008c0.392-1.017 2.069-1.017 2.461 0l2.135 5.545 5.085-13.094c0.121-0.314 0.355-0.562 0.642-0.707 0.648-0.326 1.552-0.004 1.825 0.699l6.529 16.808 1.396-3.656c0.392-1.017 2.075-1.019 2.463 0l6.203 16.221c0.156 0.406 0.102 0.859-0.144 1.218s-0.652 0.57-1.087 0.57h-12.395c-0.057 0-0.115-0.004-0.172-0.012l-22.123 0.025c0 0-0.002 0-0.004 0zM9.734 12.518l-6.49 16.839 3.869-0.012 4.571-11.768-1.95-5.059zM26.14 29.351h7.96l-4.286-11.21-4.279 11.21h0.605zM15.986 29.34h6.73l3.067-8.034-6.361-16.347-9.467 24.374 6.031 0.008z"></path>
</svg>
