<?xml version="1.0" encoding="utf-8"?>
<!-- Generated by IcoMoon.io -->
<!DOCTYPE svg PUBLIC "-//W3C//DTD SVG 1.1//EN" "http://www.w3.org/Graphics/SVG/1.1/DTD/svg11.dtd">
<svg version="1.1" xmlns="http://www.w3.org/2000/svg" xmlns:xlink="http://www.w3.org/1999/xlink" width="25" height="32" viewBox="0 0 25 32">
<path d="M24.185 32h-22.984c-0.322 0-0.626-0.129-0.847-0.352-0.053-0.053-0.103-0.111-0.145-0.175-0.221-0.326-0.271-0.74-0.127-1.106l11.486-29.613c0.11-0.285 0.322-0.51 0.586-0.639 0.58-0.295 1.403-0.005 1.652 0.633l11.5 29.619c0.142 0.366 0.096 0.78-0.127 1.106-0.042 0.064-0.092 0.12-0.145 0.175-0.223 0.223-0.525 0.352-0.847 0.352zM5.874 29.612h13.448c0.042-0.005 0.085-0.007 0.129-0.007h2.986l-9.754-25.109-9.736 25.109 2.926 0.007z"></path>
</svg>
