<?xml version="1.0" encoding="utf-8"?>
<!-- Generated by IcoMoon.io -->
<!DOCTYPE svg PUBLIC "-//W3C//DTD SVG 1.1//EN" "http://www.w3.org/Graphics/SVG/1.1/DTD/svg11.dtd">
<svg version="1.1" xmlns="http://www.w3.org/2000/svg" xmlns:xlink="http://www.w3.org/1999/xlink" width="18" height="32" viewBox="0 0 18 32">
<path d="M16.124 17.899l-5.804-9.402h4.919c0.294 0.391 0.749 0.646 1.266 0.646 0.885 0 1.603-0.735 1.603-1.639 0-0.903-0.718-1.638-1.603-1.638-0.714 0-1.313 0.483-1.521 1.142h-4.524l3.689-5.863c0.146-0.23 0.157-0.521 0.024-0.759-0.13-0.238-0.381-0.386-0.652-0.386h-8.932c-0.271 0-0.522 0.148-0.653 0.387-0.13 0.237-0.12 0.529 0.025 0.757l2.184 3.427 1.504 2.435h-4.522c-0.207-0.659-0.807-1.142-1.522-1.142-0.885 0-1.604 0.735-1.604 1.639s0.719 1.639 1.604 1.639c0.518 0 0.973-0.255 1.267-0.646h4.919l-5.804 9.402-0.008-0.004c-0.996 1.506-1.523 3.274-1.523 5.111-0.001 4.96 3.857 8.994 8.598 8.994 4.743 0 8.6-4.034 8.6-8.994 0-1.837-0.526-3.605-1.524-5.111l-0.007 0.004zM7.405 3.78l-0.799-1.294-0.019 0.011-0.641-1.007h6.217l-0.643 1.009-0.019-0.012-2.447 3.881-1.649-2.586zM9.054 30.51c-3.921 0-7.11-3.368-7.11-7.506 0-1.321 0.323-2.598 0.939-3.729l0.001 0.001 6.169-9.993 6.172 9.992c0.617 1.131 0.94 2.408 0.94 3.729-0.001 4.139-3.19 7.506-7.112 7.506z"></path>
</svg>
