<?xml version="1.0" encoding="utf-8"?>
<!-- Generated by IcoMoon.io -->
<!DOCTYPE svg PUBLIC "-//W3C//DTD SVG 1.1//EN" "http://www.w3.org/Graphics/SVG/1.1/DTD/svg11.dtd">
<svg version="1.1" xmlns="http://www.w3.org/2000/svg" xmlns:xlink="http://www.w3.org/1999/xlink" width="32" height="32" viewBox="0 0 32 32">
<path d="M28.444 0h-24.89c-1.959 0-3.554 1.595-3.554 3.554v24.891c0 1.96 1.595 3.554 3.554 3.554h24.89c1.962 0 3.555-1.595 3.555-3.554v-24.891c0.001-1.959-1.593-3.554-3.555-3.554zM30.479 28.445c0 1.121-0.914 2.034-2.035 2.034h-24.89c-1.121 0-2.034-0.913-2.034-2.034v-24.891c0-1.121 0.913-2.034 2.034-2.034h24.89c1.121 0 2.035 0.913 2.035 2.034v24.891z"></path>
<path d="M18.825 12.419h-0.358l-0.949-0.948c-0.18-0.182-0.472-0.182-0.652 0l-0.948 0.948h-2.743c-0.382 0-0.692 0.31-0.692 0.692v5.651c0 0.382 0.31 0.692 0.692 0.692h0.691l0.947 0.948c0.087 0.087 0.204 0.135 0.326 0.135s0.239-0.049 0.326-0.135l0.948-0.948h2.412c0.382 0 0.693-0.31 0.693-0.692v-0.453l0.947-0.948c0.181-0.18 0.181-0.472 0-0.652l-0.947-0.948v-2.651c0-0.381-0.311-0.691-0.692-0.691zM18.132 18.068h-4.266v-4.267h4.266v4.267z"></path>
<path d="M4.74 11h0.691l0.947 0.949c0.087 0.087 0.204 0.135 0.326 0.135s0.24-0.049 0.326-0.135l0.948-0.949h2.412c0.382 0 0.692-0.31 0.692-0.692v-0.451l0.948-0.947c0.181-0.181 0.181-0.473 0-0.653l-0.948-0.949v-2.649c0-0.382-0.31-0.692-0.692-0.692h-0.734l-0.948-0.948c-0.18-0.182-0.471-0.181-0.652-0.001l-0.95 0.949h-2.365c-0.382 0-0.692 0.31-0.692 0.692v5.651c0 0.381 0.31 0.691 0.692 0.691zM5.432 5.35h4.266v4.267h-4.266v-4.267z"></path>
<path d="M15.531 17.659h0.937c0.693 0 1.256-0.564 1.256-1.256v-0.939c0-0.693-0.563-1.255-1.256-1.255h-0.937c-0.692 0-1.256 0.563-1.256 1.255v0.939c0 0.693 0.564 1.256 1.256 1.256zM15.658 15.592h0.682v0.684h-0.682v-0.684z"></path>
<path d="M12.482 7.58v2.729c0 0.382 0.31 0.692 0.692 0.692h0.692l0.947 0.949c0.087 0.087 0.204 0.135 0.326 0.135s0.24-0.049 0.326-0.135l0.948-0.949h2.411c0.382 0 0.693-0.31 0.693-0.692v-0.45l0.949-0.948c0.18-0.181 0.18-0.473 0-0.653l-0.949-0.95v-2.648c0-0.382-0.311-0.692-0.693-0.692h-5.651c-0.382 0-0.692 0.31-0.692 0.692v0.373l-0.948 0.948c-0.181 0.18-0.181 0.472 0 0.652l0.949 0.947zM13.866 5.35h4.266v4.267h-4.266v-4.267z"></path>
<path d="M27.95 15.759v-2.65c0-0.382-0.311-0.692-0.693-0.692h-0.357l-0.947-0.948c-0.087-0.087-0.203-0.135-0.327-0.135-0.121 0-0.24 0.049-0.327 0.135l-0.947 0.948h-2.744c-0.383 0-0.692 0.31-0.692 0.692v5.651c0 0.382 0.308 0.692 0.692 0.692h0.691l0.948 0.948c0.086 0.087 0.203 0.135 0.326 0.135s0.239-0.049 0.326-0.135l0.949-0.948h2.412c0.382 0 0.693-0.31 0.693-0.692v-0.451l0.949-0.949c0.18-0.18 0.18-0.472 0-0.652l-0.952-0.948zM26.566 18.068h-4.266v-4.267h4.266v4.267z"></path>
<path d="M27.95 7.308v-2.649c0-0.382-0.311-0.692-0.693-0.692h-0.357l-0.947-0.948c-0.087-0.087-0.203-0.135-0.327-0.135-0.121 0-0.24 0.049-0.327 0.135l-0.947 0.948h-2.744c-0.383 0-0.692 0.31-0.692 0.692v0.373l-0.949 0.948c-0.18 0.18-0.18 0.472 0 0.652l0.949 0.948v2.729c0 0.382 0.308 0.692 0.692 0.692h5.651c0.382 0 0.693-0.31 0.693-0.692v-0.451l0.949-0.948c0.18-0.181 0.18-0.473 0-0.653l-0.95-0.949zM26.566 9.618h-4.266v-4.268h4.266v4.268z"></path>
<path d="M4.049 16.032v2.729c0 0.382 0.31 0.692 0.692 0.692h5.651c0.382 0 0.692-0.31 0.692-0.692v-0.451l0.949-0.949c0.181-0.18 0.181-0.472 0-0.652l-0.949-0.949v-2.65c0-0.382-0.31-0.692-0.692-0.692h-0.359l-0.947-0.948c-0.087-0.087-0.204-0.135-0.326-0.135s-0.239 0.049-0.326 0.135l-0.948 0.948h-2.744c-0.382 0-0.692 0.31-0.692 0.692v0.372l-0.949 0.949c-0.181 0.18-0.181 0.472 0 0.652l0.949 0.949zM5.432 13.801h4.266v4.267h-4.266v-4.267z"></path>
<path d="M27.95 24.209v-2.648c0-0.382-0.311-0.692-0.693-0.692h-0.357l-0.948-0.949c-0.087-0.087-0.203-0.135-0.327-0.135-0.121 0-0.24 0.049-0.327 0.135l-0.949 0.949h-2.742c-0.383 0-0.692 0.31-0.692 0.692v0.372l-0.949 0.947c-0.086 0.087-0.134 0.203-0.134 0.327s0.048 0.24 0.134 0.326l0.949 0.948v2.73c0 0.382 0.308 0.692 0.692 0.692h5.651c0.382 0 0.693-0.31 0.693-0.692v-0.453l0.949-0.949c0.18-0.18 0.18-0.472 0-0.652l-0.949-0.949zM26.566 26.52h-4.266v-4.267h4.266v4.267z"></path>
<path d="M19.517 24.209v-2.648c0-0.382-0.311-0.692-0.693-0.692h-0.358l-0.949-0.949c-0.18-0.182-0.472-0.182-0.652 0l-0.949 0.949h-2.741c-0.382 0-0.692 0.31-0.692 0.692v0.372l-0.948 0.947c-0.087 0.087-0.135 0.203-0.135 0.327s0.048 0.24 0.135 0.326l0.948 0.948v2.73c0 0.382 0.31 0.692 0.692 0.692h0.693l0.947 0.947c0.087 0.087 0.204 0.135 0.326 0.135s0.239-0.049 0.326-0.135l0.947-0.947h2.412c0.382 0 0.693-0.31 0.693-0.692v-0.453l0.949-0.949c0.18-0.18 0.18-0.472 0-0.652l-0.95-0.949zM18.132 26.52h-4.266v-4.267h4.266v4.267z"></path>
<path d="M11.083 24.209v-2.648c0-0.382-0.31-0.692-0.692-0.692h-5.651c-0.382 0-0.692 0.31-0.692 0.692v0.371l-0.949 0.948c-0.087 0.087-0.135 0.203-0.135 0.327s0.048 0.24 0.135 0.326l0.949 0.949v2.729c0 0.382 0.31 0.692 0.692 0.692h0.692l0.947 0.947c0.087 0.087 0.204 0.135 0.326 0.135s0.239-0.049 0.326-0.135l0.947-0.947h2.413c0.382 0 0.692-0.31 0.692-0.692v-0.453l0.949-0.949c0.181-0.18 0.181-0.472 0-0.652l-0.949-0.949zM9.698 26.52h-4.266v-4.267h4.266v4.267z"></path>
</svg>
