<?xml version="1.0" encoding="utf-8"?>
<!-- Generated by IcoMoon.io -->
<!DOCTYPE svg PUBLIC "-//W3C//DTD SVG 1.1//EN" "http://www.w3.org/Graphics/SVG/1.1/DTD/svg11.dtd">
<svg version="1.1" xmlns="http://www.w3.org/2000/svg" xmlns:xlink="http://www.w3.org/1999/xlink" width="17" height="32" viewBox="0 0 17 32">
<path d="M16.783 30.603l-3.392-9.029h0.64c0.162 0 0.321-0.038 0.463-0.11 0.153-0.075 0.287-0.191 0.388-0.335 0.193-0.28 0.235-0.634 0.116-0.952l-2.58-6.861h0.235c0.206 0 0.407-0.061 0.573-0.174 0.11-0.072 0.203-0.165 0.28-0.272 0.193-0.281 0.237-0.636 0.118-0.952l-4.234-11.248c-0.148-0.404-0.533-0.669-0.963-0.669-0.087 0-0.174 0.011-0.254 0.032-0.326 0.079-0.598 0.315-0.72 0.637l-4.228 11.25c-0.119 0.316-0.073 0.671 0.118 0.951 0.037 0.050 0.076 0.099 0.121 0.144 0.194 0.193 0.454 0.303 0.732 0.303h0.226l-2.58 6.864c-0.119 0.316-0.075 0.671 0.119 0.949 0.191 0.28 0.507 0.445 0.848 0.445h0.648l-3.393 9.030c-0.119 0.316-0.075 0.671 0.118 0.949 0.193 0.28 0.509 0.445 0.848 0.445h14.786c0.338 0 0.654-0.165 0.848-0.445 0.119-0.173 0.182-0.378 0.182-0.585 0.002-0.121-0.020-0.246-0.066-0.365zM8.425 3.969l2.738 7.28h-0.248c-0.027 0-0.053 0.002-0.078 0.003h-4.842c-0.027-0.002-0.052-0.003-0.078-0.003h-0.229l2.737-7.28zM6.637 13.316h3.572l2.329 6.195h-8.231l2.329-6.195zM2.525 29.935l3.141-8.362h5.519l3.143 8.362h-11.803z"></path>
</svg>
