<?xml version="1.0" encoding="utf-8"?>
<!-- Generated by IcoMoon.io -->
<!DOCTYPE svg PUBLIC "-//W3C//DTD SVG 1.1//EN" "http://www.w3.org/Graphics/SVG/1.1/DTD/svg11.dtd">
<svg version="1.1" xmlns="http://www.w3.org/2000/svg" xmlns:xlink="http://www.w3.org/1999/xlink" width="58" height="32" viewBox="0 0 58 32">
<path d="M57.214 0h-56.376c-0.463 0-0.839 0.377-0.839 0.839v30.323c0 0.463 0.375 0.839 0.839 0.839h56.376c0.463 0 0.84-0.375 0.84-0.839v-30.323c0-0.462-0.377-0.839-0.84-0.839zM56.377 30.323h-54.699v-28.645h54.699v28.645z"></path>
<path d="M31.33 26.78h20.625c0.461 0 0.837-0.375 0.837-0.839v-19.881c0-0.463-0.377-0.839-0.837-0.839h-20.625c-0.462 0-0.839 0.375-0.839 0.839v19.881c0 0.463 0.377 0.839 0.839 0.839zM32.169 21.055h4.624v4.047h-4.624v-4.047zM51.116 16.229v4.39h-4.036v-4.39h4.036zM37.236 16.229h4.478v4.39h-4.478v-4.39zM42.158 11.402h4.479v4.391h-4.479v-4.391zM42.158 21.055h4.479v4.047h-4.479v-4.047zM41.713 10.967h-4.478v-4.068h4.478v4.068zM36.791 11.402v4.391h-4.624v-4.391h4.624zM51.116 10.967h-4.036v-4.068h4.036v4.068z"></path>
<path d="M6.213 26.566h19.841c0.463 0 0.839-0.375 0.839-0.839v-19.454c0-0.463-0.375-0.839-0.839-0.839h-19.841c-0.463 0-0.839 0.375-0.839 0.839v19.454c0 0.463 0.375 0.839 0.839 0.839zM25.216 16.229v4.39h-3.922v-4.39h3.922zM11.449 16.229h4.478v4.39h-4.478v-4.39zM16.372 11.402h4.478v4.391h-4.478v-4.391zM16.372 21.055h4.478v3.833h-4.478v-3.833zM15.927 10.967h-4.478v-3.854h4.478v3.854zM11.005 11.402v4.391h-3.954v-4.391h3.954zM7.052 21.055h3.955v3.833h-3.955v-3.833zM25.216 10.967h-3.922v-3.854h3.922v3.854z"></path>
</svg>
