<?xml version="1.0" encoding="utf-8"?>
<!-- Generated by IcoMoon.io -->
<!DOCTYPE svg PUBLIC "-//W3C//DTD SVG 1.1//EN" "http://www.w3.org/Graphics/SVG/1.1/DTD/svg11.dtd">
<svg version="1.1" xmlns="http://www.w3.org/2000/svg" xmlns:xlink="http://www.w3.org/1999/xlink" width="32" height="32" viewBox="0 0 32 32">
<path d="M28.71 32h-25.42c-1.814 0-3.29-1.477-3.29-3.29v-25.42c0-1.814 1.476-3.29 3.29-3.29h25.42c1.814 0 3.29 1.476 3.29 3.29v25.419c0 1.814-1.477 3.291-3.29 3.291zM3.29 1.461c-1.008 0-1.828 0.821-1.828 1.828v25.419c0 1.009 0.821 1.828 1.828 1.828h25.42c1.009 0 1.828-0.821 1.828-1.828v-25.419c0-1.009-0.821-1.828-1.828-1.828h-25.42z"></path>
<path d="M27.855 27.937h-5.723c-0.403 0-0.73-0.327-0.73-0.731v-5.707c0-0.404 0.327-0.731 0.73-0.731h5.723c0.404 0 0.732 0.327 0.732 0.731v5.707c0 0.404-0.328 0.731-0.732 0.731zM22.863 26.476h4.263v-4.247h-4.263v4.247zM18.996 27.937h-5.721c-0.404 0-0.731-0.327-0.731-0.731v-5.707c0-0.404 0.327-0.731 0.731-0.731h5.721c0.404 0 0.732 0.327 0.732 0.731v5.707c0 0.404-0.328 0.731-0.732 0.731zM14.006 26.476h4.261v-4.247h-4.261v4.247zM10.439 27.937h-5.723c-0.404 0-0.731-0.327-0.731-0.731v-5.707c0-0.404 0.327-0.731 0.731-0.731h5.722c0.404 0 0.731 0.327 0.731 0.731v5.707c0 0.404-0.327 0.731-0.73 0.731zM5.446 26.476h4.262v-4.247h-4.262v4.247zM27.855 19.585h-5.723c-0.403 0-0.73-0.327-0.73-0.731v-5.707c0-0.404 0.327-0.731 0.73-0.731h5.723c0.404 0 0.732 0.327 0.732 0.731v5.707c0 0.404-0.328 0.731-0.732 0.731zM22.863 18.124h4.263v-4.247h-4.263v4.247zM10.439 19.585h-5.723c-0.404 0-0.731-0.327-0.731-0.731v-5.707c0-0.404 0.327-0.731 0.731-0.731h5.722c0.404 0 0.731 0.327 0.731 0.731v5.707c0 0.404-0.327 0.731-0.73 0.731zM5.446 18.124h4.262v-4.247h-4.262v4.247zM27.697 11.252h-5.723c-0.403 0-0.73-0.327-0.73-0.731v-5.708c0-0.404 0.327-0.731 0.73-0.731h5.723c0.403 0 0.73 0.327 0.73 0.731v5.707c0 0.405-0.327 0.732-0.73 0.732zM22.705 9.791h4.261v-4.247h-4.261v4.247zM18.996 11.252h-5.721c-0.404 0-0.731-0.327-0.731-0.731v-5.708c0-0.404 0.327-0.731 0.731-0.731h5.721c0.404 0 0.732 0.327 0.732 0.731v5.707c0 0.405-0.328 0.732-0.732 0.732zM14.006 9.791h4.261v-4.247h-4.261v4.247zM10.439 11.252h-5.723c-0.404 0-0.731-0.327-0.731-0.731v-5.708c0-0.404 0.327-0.731 0.731-0.731h5.722c0.404 0 0.731 0.327 0.731 0.731v5.707c0 0.405-0.327 0.732-0.73 0.732zM5.446 9.791h4.262v-4.247h-4.262v4.247z"></path>
<path d="M17.795 11.921h-3.38l-2.389 2.389v3.379l2.389 2.389h3.38l2.388-2.389v-3.379l-2.388-2.389zM17.164 13.442l1.498 1.498v2.119l-1.498 1.498h-2.119l-1.499-1.498v-2.119l1.499-1.498h2.119z"></path>
</svg>
