<?xml version="1.0" encoding="utf-8"?>
<!-- Generated by IcoMoon.io -->
<!DOCTYPE svg PUBLIC "-//W3C//DTD SVG 1.1//EN" "http://www.w3.org/Graphics/SVG/1.1/DTD/svg11.dtd">
<svg version="1.1" xmlns="http://www.w3.org/2000/svg" xmlns:xlink="http://www.w3.org/1999/xlink" width="32" height="32" viewBox="0 0 32 32">
<path d="M15.929 0c-8.783 0-15.929 7.177-15.929 16 0 8.822 7.146 15.999 15.929 15.999 8.784 0 15.929-7.177 15.929-15.999 0-8.823-7.145-16-15.929-16zM15.929 30.571c-7.995 0-14.5-6.536-14.5-14.571s6.505-14.571 14.5-14.571c7.996 0 14.5 6.537 14.5 14.572s-6.504 14.57-14.5 14.57z"></path>
<path d="M4.666 13.758c0.056 0.014 0.113 0.020 0.169 0.020 0.322 0 0.615-0.219 0.693-0.546 0.826-3.396 3.349-6.166 6.577-7.355l0.108 0.715c0.032 0.212 0.188 0.383 0.397 0.435 0.042 0.011 0.085 0.016 0.127 0.016 0.165 0 0.325-0.077 0.426-0.215l1.31-1.775c0.084-0.112 0.119-0.254 0.097-0.393-0.021-0.14-0.096-0.264-0.21-0.347l-1.775-1.309c-0.173-0.126-0.404-0.14-0.588-0.026-0.183 0.11-0.282 0.321-0.25 0.531l0.143 0.943c-3.801 1.296-6.789 4.491-7.75 8.445-0.094 0.381 0.141 0.768 0.525 0.861z"></path>
<path d="M14.214 9.697c0.083 0.197 0.275 0.325 0.488 0.325h0.512v2.423h-0.512c-0.213 0-0.405 0.128-0.488 0.325s-0.039 0.422 0.11 0.576l1.227 1.251c0.1 0.102 0.236 0.158 0.378 0.158s0.278-0.057 0.378-0.159l1.225-1.251c0.15-0.152 0.194-0.378 0.11-0.575s-0.275-0.325-0.488-0.325h-0.511v-2.423h0.511c0.213 0 0.405-0.128 0.488-0.325s0.039-0.422-0.11-0.575l-1.225-1.251c-0.1-0.103-0.236-0.159-0.378-0.159s-0.278 0.057-0.378 0.158l-1.227 1.251c-0.149 0.153-0.193 0.38-0.11 0.576z"></path>
<path d="M17.643 22.303c-0.083-0.197-0.275-0.325-0.488-0.325h-0.511v-2.424h0.512c0.007-0.001 0.014-0.001 0.021 0 0.291 0 0.529-0.237 0.529-0.529 0-0.191-0.101-0.357-0.25-0.45l-1.149-1.171c-0.199-0.202-0.556-0.202-0.756 0l-1.226 1.25c-0.149 0.154-0.193 0.379-0.11 0.576s0.275 0.325 0.488 0.325h0.511v2.424h-0.512c-0.213 0-0.405 0.128-0.488 0.325s-0.039 0.423 0.11 0.576l1.227 1.25c0.1 0.102 0.236 0.158 0.378 0.158s0.278-0.057 0.378-0.159l1.225-1.25c0.149-0.152 0.193-0.379 0.11-0.576z"></path>
<path d="M19.142 14.277c-0.197-0.079-0.425-0.036-0.577 0.113l-1.24 1.233c-0.1 0.1-0.156 0.235-0.156 0.375s0.056 0.276 0.156 0.375l1.239 1.234c0.102 0.101 0.237 0.155 0.375 0.155 0.068 0 0.138-0.014 0.203-0.040 0.197-0.083 0.326-0.275 0.326-0.489v-0.52h2.413v0.52c0 0.214 0.129 0.407 0.326 0.489 0.067 0.026 0.134 0.040 0.203 0.040 0.138 0 0.272-0.054 0.374-0.155l1.241-1.234c0.1-0.1 0.155-0.235 0.155-0.375s-0.056-0.276-0.155-0.375l-1.241-1.233c-0.151-0.15-0.379-0.194-0.577-0.113-0.197 0.083-0.326 0.275-0.326 0.489v0.519h-2.413v-0.519c0-0.214-0.129-0.407-0.326-0.489z"></path>
<path d="M12.716 17.724c0.066 0.026 0.134 0.040 0.203 0.040 0.138 0 0.272-0.054 0.374-0.155l1.24-1.234c0.1-0.1 0.156-0.235 0.156-0.375s-0.056-0.276-0.156-0.375l-1.24-1.233c-0.151-0.15-0.379-0.194-0.576-0.113-0.198 0.083-0.326 0.275-0.326 0.489v0.519h-2.414v-0.519c0-0.214-0.129-0.407-0.326-0.489-0.196-0.079-0.425-0.036-0.576 0.113l-1.241 1.233c-0.1 0.1-0.156 0.235-0.156 0.375s0.056 0.276 0.156 0.375l1.24 1.234c0.102 0.101 0.236 0.155 0.374 0.155 0.068 0 0.138-0.014 0.203-0.040 0.198-0.083 0.326-0.275 0.326-0.489v-0.52h2.413v0.52c0 0.214 0.129 0.407 0.326 0.489z"></path>
<path d="M28.619 11.757c-0.111-0.183-0.323-0.283-0.531-0.248l-0.937 0.144c-1.288-3.817-4.468-6.819-8.401-7.786-0.383-0.098-0.77 0.141-0.864 0.523-0.094 0.383 0.141 0.771 0.523 0.864 3.379 0.83 6.135 3.368 7.317 6.616l-0.705 0.108c-0.211 0.032-0.381 0.188-0.433 0.395s0.025 0.425 0.197 0.552l1.765 1.319c0.092 0.069 0.202 0.106 0.317 0.106 0.026 0 0.054-0.002 0.079-0.006 0.14-0.021 0.266-0.097 0.348-0.212l1.301-1.788c0.126-0.173 0.137-0.404 0.024-0.587z"></path>
<path d="M27.139 17.667c-0.381-0.090-0.77 0.143-0.862 0.526-0.825 3.397-3.348 6.167-6.577 7.356l-0.109-0.715c-0.031-0.212-0.188-0.383-0.396-0.435-0.207-0.051-0.426 0.026-0.553 0.199l-1.31 1.774c-0.083 0.112-0.117 0.254-0.097 0.393 0.021 0.14 0.096 0.264 0.209 0.347l1.775 1.31c0.093 0.068 0.204 0.104 0.314 0.104 0.004 0 0.008 0 0.011 0 0.317 0.003 0.542-0.233 0.541-0.529 0-0.079-0.018-0.155-0.049-0.222l-0.121-0.8c3.8-1.294 6.789-4.49 7.75-8.445 0.093-0.382-0.143-0.77-0.527-0.862z"></path>
<path d="M13.395 26.17c-3.379-0.829-6.133-3.367-7.317-6.615l0.706-0.108c0.211-0.032 0.381-0.188 0.433-0.395s-0.025-0.425-0.197-0.552l-1.765-1.319c-0.113-0.086-0.257-0.121-0.396-0.1-0.14 0.021-0.266 0.097-0.349 0.212l-1.301 1.787c-0.126 0.173-0.135 0.404-0.024 0.587 0.097 0.159 0.269 0.254 0.452 0.254 0.026 0 0.053-0.002 0.080-0.006l0.936-0.143c1.288 3.817 4.468 6.819 8.401 7.785 0.057 0.015 0.114 0.021 0.17 0.021 0.322 0 0.614-0.218 0.693-0.544 0.095-0.383-0.14-0.77-0.523-0.864z"></path>
</svg>
