<?xml version="1.0" encoding="utf-8"?>
<!-- Generated by IcoMoon.io -->
<!DOCTYPE svg PUBLIC "-//W3C//DTD SVG 1.1//EN" "http://www.w3.org/Graphics/SVG/1.1/DTD/svg11.dtd">
<svg version="1.1" xmlns="http://www.w3.org/2000/svg" xmlns:xlink="http://www.w3.org/1999/xlink" width="34" height="32" viewBox="0 0 34 32">
<path d="M33.68 15.755l-3.069-9.401c-0.051-0.158-0.152-0.297-0.288-0.394l-8.035-5.811c-0.134-0.098-0.296-0.151-0.463-0.151h-9.932c-0.166 0-0.327 0.053-0.463 0.151l-8.035 5.811c-0.134 0.097-0.235 0.236-0.288 0.394l-3.069 9.401c-0.051 0.16-0.051 0.331 0 0.491l3.069 9.401c0.051 0.158 0.152 0.297 0.288 0.394l8.035 5.811c0.134 0.098 0.296 0.15 0.463 0.15h9.932c0.167 0 0.327-0.051 0.463-0.15l8.035-5.811c0.136-0.097 0.236-0.236 0.288-0.394l3.069-9.401c0.051-0.16 0.051-0.332 0-0.491zM30.34 10.612l-4.261-0.306 3.367-2.434 0.894 2.74zM26.219 4.941l2.295 1.659-3.345 2.419 1.050-4.078zM29.060 12.104l-3.162 2.549-0.928-2.843 4.091 0.295zM22.239 2.062l2.287 1.653-3.563 2.256 1.277-3.91zM16.859 13.458l-1.584-4.854h3.168l-1.584 4.854zM19.946 9.086l2.563 1.854-4.148 2.998 1.585-4.852zM15.356 13.939l-4.147-2.999 2.563-1.854 1.584 4.853zM14.421 15.211h-5.121l0.977-2.996 4.143 2.996zM14.421 16.789l-4.142 2.996-0.979-2.996h5.121zM15.356 18.061l-1.583 4.849-2.562-1.852 4.145-2.998zM16.859 18.542l1.584 4.853h-3.168l1.584-4.853zM18.362 18.061l4.146 2.998-2.562 1.852-1.584-4.849zM19.297 16.789h5.122l-0.977 2.996-4.145-2.996zM19.297 15.211l4.145-2.996 0.977 2.996h-5.122zM24.403 5.662l-1.021 3.961-2.445-1.767 3.465-2.194zM20.738 1.577l-1.279 3.917-1.555-3.917h2.834zM18.369 7.025h-3.020l1.511-3.802 1.509 3.802zM15.815 1.577l-1.555 3.917-1.279-3.917h2.834zM10.339 9.624l-1.021-3.962 3.463 2.196-2.442 1.767zM11.478 2.062l1.277 3.911-3.561-2.259 2.284-1.652zM7.501 4.938l1.051 4.083-3.347-2.421 2.296-1.661zM8.751 11.809l-0.928 2.844-3.164-2.55 4.092-0.295zM4.272 7.872l3.366 2.434-4.26 0.307 0.894-2.742zM2.736 12.581l3.264 2.631h-4.123l0.859-2.631zM2.757 19.486l-0.88-2.697h4.142l-3.262 2.697zM3.402 21.46l4.213 0.249-3.343 2.418-0.871-2.667zM7.5 27.060l-2.295-1.659 3.345-2.419-1.050 4.078zM4.667 19.955l3.154-2.608 0.931 2.85-4.085-0.242zM11.478 29.936l-2.291-1.655 3.572-2.266-1.28 3.921zM9.318 26.33l1.018-3.955 2.439 1.763-3.457 2.192zM12.981 30.422l1.28-3.921 1.557 3.921h-2.837zM15.353 24.974h3.013l-1.506 3.794-1.507-3.794zM17.902 30.422l1.556-3.921 1.281 3.921h-2.837zM23.384 22.375l1.019 3.955-3.459-2.192 2.44-1.763zM22.239 29.936l-1.28-3.921 3.572 2.265-2.291 1.657zM25.897 17.346l3.154 2.608-4.085 0.241 0.931-2.849zM26.221 27.059l-1.050-4.074 3.343 2.417-2.293 1.658zM29.447 24.128l-3.341-2.418 4.213-0.249-0.872 2.667zM30.961 19.486l-3.261-2.697h4.142l-0.882 2.697zM27.72 15.211l3.264-2.631 0.858 2.631h-4.122z"></path>
</svg>
