<?xml version="1.0" encoding="utf-8"?>
<!-- Generated by IcoMoon.io -->
<!DOCTYPE svg PUBLIC "-//W3C//DTD SVG 1.1//EN" "http://www.w3.org/Graphics/SVG/1.1/DTD/svg11.dtd">
<svg version="1.1" xmlns="http://www.w3.org/2000/svg" xmlns:xlink="http://www.w3.org/1999/xlink" width="56" height="32" viewBox="0 0 56 32">
<path d="M55.217 32h-54.473c-0.411 0-0.744-0.332-0.744-0.743v-30.513c0-0.411 0.333-0.744 0.744-0.744h54.473c0.41 0 0.744 0.333 0.744 0.744v30.513c0 0.411-0.334 0.743-0.744 0.743zM1.488 30.513h52.984v-29.024h-52.984v29.024z"></path>
<path d="M17.627 28.963c-0.086 0-0.172-0.014-0.255-0.045l-2.22-0.81c-0.294-0.107-0.488-0.387-0.488-0.699v-0.484l-0.452-0.278c-0.22-0.136-0.354-0.377-0.354-0.635v-3.183l-2.073-1.852c-0.158-0.14-0.248-0.343-0.248-0.555v-3.409l-0.805-0.589c-0.192-0.14-0.304-0.364-0.304-0.601v-0.149l-0.265-0.118c-0.147-0.065-0.268-0.176-0.345-0.315l-0.194-0.342h-0.724c-0.411 0-0.744-0.333-0.744-0.744v-0.223l-0.385-0.090c-0.336-0.079-0.573-0.379-0.573-0.724v-3.876c0-0.216 0.094-0.421 0.257-0.562l1.42-1.228 0.058-0.155-0.252 0.083c-0.075 0.024-0.154 0.037-0.233 0.037h-1.969c-0.276 0-0.528-0.151-0.657-0.394s-0.114-0.537 0.039-0.765l1.059-1.578c0.135-0.201 0.358-0.322 0.599-0.329l1.521-0.039 0.566-0.437c0.13-0.1 0.29-0.155 0.455-0.155h1.009c0.116 0 0.229 0.026 0.333 0.078l1.104 0.551h2.398c0.197 0 0.387 0.078 0.527 0.218 0.139 0.139 0.218 0.329 0.217 0.527v0.744h0.341l1.505-1.306c0.136-0.117 0.309-0.182 0.487-0.182h1.715c0.202 0 0.395 0.082 0.535 0.227s0.215 0.342 0.208 0.542l-0.1 2.93c-0.014 0.401-0.343 0.719-0.744 0.719h-0.767l-4.527 4.218c-0.294 0.276-0.756 0.266-1.039-0.023l-0.431-0.44-0.283 0.051-0.104 0.178 0.537 0.588 1.498 1.397c0.174 0.104 0.298 0.274 0.343 0.472l0.069 0.301h0.77c0.16 0 0.316 0.051 0.444 0.147l1.059 0.788 0.822 0.767 2.272 0.499c0.19 0.043 0.356 0.158 0.463 0.321l0.708 1.081c0.123 0.189 0.154 0.423 0.085 0.636-0.069 0.214-0.232 0.386-0.442 0.465l-0.229 0.088v1.337c0 0.204-0.084 0.398-0.232 0.538l-0.806 0.766c-0.049 0.046-0.103 0.085-0.161 0.116l-0.616 0.33v0.862c0 0.3-0.182 0.573-0.46 0.688l-0.196 0.080v3.198c0 0.243-0.118 0.47-0.317 0.61-0.129 0.088-0.278 0.133-0.429 0.133zM16.151 26.888l0.732 0.268v-2.632c0-0.3 0.182-0.573 0.46-0.688l0.196-0.080v-0.81c0-0.273 0.151-0.526 0.392-0.656l0.919-0.492 0.503-0.478v-1.529c0-0.252 0.128-0.484 0.333-0.621l-0.046-0.071-2.174-0.478c-0.131-0.028-0.252-0.093-0.349-0.185l-0.907-0.853-0.795-0.587h-1.118c-0.347 0-0.648-0.239-0.725-0.578l-0.136-0.593c-0.001-0.001-0.002-0.002-0.004-0.003l-1.514-1.442-0.943-1.029c-0.22-0.24-0.258-0.598-0.093-0.879l0.555-0.947c0.11-0.187 0.298-0.319 0.512-0.356l1.009-0.18c0.241-0.042 0.491 0.036 0.663 0.212l0.198 0.203 4.21-3.923c0.138-0.129 0.319-0.2 0.507-0.2h0.342l0.050-1.443h-0.667l-1.505 1.306c-0.136 0.117-0.309 0.182-0.487 0.182h-1.363c-0.197 0-0.387-0.078-0.527-0.218-0.139-0.139-0.218-0.329-0.217-0.527v-0.744h-1.829c-0.116 0-0.229-0.026-0.333-0.078l-1.104-0.551h-0.581l-0.557 0.43c-0.011 0.009-0.022 0.017-0.033 0.024h0.083c0.411 0 0.744 0.333 0.744 0.744v0.671c0 0.089-0.015 0.178-0.046 0.26l-0.303 0.811c-0.044 0.117-0.116 0.222-0.209 0.302l-1.306 1.131v2.947l0.385 0.090c0.336 0.079 0.573 0.379 0.573 0.724v0.068h0.417c0.269 0 0.518 0.146 0.649 0.38l0.283 0.506 0.481 0.215c0.268 0.12 0.44 0.386 0.44 0.679v0.254l0.805 0.589c0.192 0.14 0.304 0.364 0.304 0.601v3.454l2.073 1.85c0.158 0.142 0.248 0.344 0.248 0.556v3.101l0.452 0.278c0.221 0.136 0.354 0.376 0.354 0.634v0.379zM7.875 5.928h0.453l0.359-0.118-0.745 0.019-0.067 0.099zM42.020 27.386c-0.1 0-0.201-0.021-0.295-0.062-0.273-0.117-0.449-0.386-0.449-0.682v-1.322l-0.143-0.12h-1.145c-0.411 0-0.744-0.334-0.744-0.745v-2.048c0-0.266 0.141-0.512 0.372-0.645l3.949-2.278c-0.022-0.015-0.043-0.032-0.063-0.051l-1.506-1.335-0.724-0.204c-0.321-0.090-0.542-0.384-0.542-0.717v-2.207l-0.555-0.87h-0.246v2.152c0 0.221-0.097 0.429-0.266 0.57-0.168 0.141-0.39 0.201-0.607 0.162l-1.398-0.246c-0.355-0.063-0.615-0.372-0.615-0.733v-0.746l-0.137-0.010c-0.389-0.029-0.689-0.353-0.689-0.742v-1.030l-0.585-0.593h-0.445c0.108 0.132 0.166 0.298 0.166 0.47v1.273c0 0.305-0.186 0.581-0.472 0.692l-0.609 0.239v1.373c0 0.213-0.090 0.415-0.25 0.556l-0.831 0.739v1.798c0 0.251-0.126 0.484-0.336 0.622l-0.68 0.445v1.48c0 0.161-0.052 0.316-0.147 0.444l-1.4 1.88c-0.14 0.189-0.362 0.3-0.596 0.3h-1.257c-0.258 0-0.498-0.134-0.634-0.355l-0.559-0.908c-0.072-0.117-0.11-0.252-0.11-0.39v-4.775l-0.567-0.161c-0.238-0.067-0.428-0.25-0.505-0.484l-0.341-1.040h-0.071l-0.743 0.65c-0.271 0.237-0.671 0.248-0.954 0.023l-1.048-0.835c-0.068-0.054-0.126-0.119-0.171-0.194l-1.048-1.712c-0.144-0.236-0.146-0.534-0.003-0.771l0.402-0.672v-1.129c0-0.208 0.087-0.408 0.241-0.549l1.589-1.455c0.169-0.153 0.398-0.22 0.622-0.185l2.547 0.415h1.476l-1.188-0.541-1.875-0.336h-3.462c-0.411 0-0.744-0.333-0.744-0.744v-0.936c0-0.204 0.083-0.398 0.229-0.538l1.239-1.183c0.123-0.118 0.284-0.19 0.455-0.204l2.025-0.161 1.714-1.636c0.227-0.216 0.569-0.267 0.847-0.127l0.81 0.407h2.321l1.751-1.151c0.121-0.079 0.264-0.122 0.409-0.122h12.948c0.41 0 0.744 0.333 0.744 0.744v1.395c0 0.411-0.334 0.744-0.744 0.744h-1.693l0.050 0.066 1.857 0.537c0.318 0.091 0.537 0.384 0.537 0.714v0.91c0 0.411-0.334 0.744-0.744 0.744h-0.655v0.728l1.036 0.62c0.224 0.134 0.362 0.377 0.362 0.639v1.455c0 0.255-0.129 0.492-0.345 0.628l-0.228 0.144v5.414c0 0.411-0.334 0.744-0.744 0.744h-1.158c0.002 0.001 0.002 0.002 0.002 0.003l0.756 1.037c0.094 0.127 0.143 0.28 0.143 0.437v2.93c0 0.207-0.085 0.402-0.235 0.542l-2.786 2.614c-0.142 0.13-0.325 0.201-0.51 0.201zM40.731 23.712h0.674c0.175 0 0.345 0.062 0.481 0.174l0.615 0.52c0.155 0.13 0.25 0.319 0.262 0.52l1.3-1.219v-2.366l-0.218-0.301-3.112 1.796v0.875zM29.193 23.712h0.465l1.030-1.383v-1.634c0-0.252 0.126-0.484 0.336-0.622l0.68-0.447v-1.731c0-0.212 0.090-0.415 0.25-0.556l0.831-0.739v-1.546c0-0.305 0.187-0.58 0.472-0.692l0.609-0.239v-0.437l-1.091-0.992c-0.227-0.207-0.304-0.533-0.193-0.819 0.11-0.287 0.386-0.475 0.693-0.475h2.669c0.2 0 0.39 0.079 0.528 0.22l1.019 1.031c0.138 0.139 0.215 0.327 0.215 0.524v0.644l0.137 0.010c0.259 0.020 0.482 0.171 0.599 0.386v-0.857c0-0.411 0.333-0.744 0.744-0.744h1.398c0.254 0 0.491 0.129 0.626 0.344l0.892 1.395c0.075 0.119 0.116 0.258 0.116 0.4v1.861l0.346 0.097c0.109 0.031 0.208 0.085 0.293 0.16l1.421 1.261h0.788v-5.079c0-0.255 0.129-0.492 0.345-0.628l0.228-0.144v-0.624l-1.035-0.62c-0.226-0.134-0.363-0.377-0.363-0.639v-1.895c0-0.277 0.151-0.518 0.375-0.646l-0.536-0.155c-0.157-0.045-0.294-0.14-0.39-0.271l-1.080-1.455c-0.168-0.226-0.194-0.527-0.067-0.778 0.068-0.136 0.174-0.245 0.301-0.316h-9.186l-1.751 1.151c-0.121 0.079-0.264 0.122-0.409 0.122h-2.719c-0.116 0-0.229-0.026-0.333-0.078l-0.499-0.25-1.527 1.457c-0.123 0.118-0.284 0.19-0.454 0.204l-2.025 0.161-0.689 0.658h2.656c0.044 0 0.088 0.003 0.131 0.011l2.033 0.364c0.061 0.011 0.12 0.030 0.177 0.055l2.161 0.983c0.28 0.128 0.452 0.416 0.434 0.723l-0.064 1.018c-0.024 0.392-0.349 0.698-0.743 0.698h-2.669c-0.040 0-0.080-0.003-0.119-0.010l-2.25-0.366-1.081 0.99v1.009c0 0.134-0.036 0.267-0.106 0.383l-0.277 0.462 0.745 1.216 0.46 0.366 0.486-0.426c0.136-0.118 0.31-0.184 0.489-0.184h0.89c0.322 0 0.607 0.207 0.708 0.513l0.385 1.176 0.727 0.206c0.321 0.090 0.541 0.384 0.541 0.715v5.126l0.227 0.377z"></path>
</svg>
