<?xml version="1.0" encoding="utf-8"?>
<!-- Generated by IcoMoon.io -->
<!DOCTYPE svg PUBLIC "-//W3C//DTD SVG 1.1//EN" "http://www.w3.org/Graphics/SVG/1.1/DTD/svg11.dtd">
<svg version="1.1" xmlns="http://www.w3.org/2000/svg" xmlns:xlink="http://www.w3.org/1999/xlink" width="25" height="32" viewBox="0 0 25 32">
<path d="M25.274 30.346l-11.483-29.584c-0.177-0.459-0.618-0.762-1.112-0.762-0.148 0-0.292 0.026-0.424 0.078-0.316 0.117-0.576 0.364-0.702 0.689l-11.474 29.579c-0.143 0.366-0.094 0.779 0.127 1.104 0.042 0.064 0.092 0.12 0.145 0.175 0.221 0.223 0.525 0.352 0.846 0.352h3.944c0.041 0.005 0.080 0.025 0.12 0.025h14.721c0.037 0 0.065-0.021 0.102-0.025h4.068c0.322 0 0.626-0.129 0.846-0.352 0.055-0.053 0.104-0.111 0.145-0.175 0.224-0.325 0.272-0.739 0.129-1.104zM11.31 29.591l1.288-3.63 1.288 3.63h-2.577zM16.424 29.591l-2.698-7.592c-0.279-0.783-1.415-1.004-1.974-0.438-0.12 0.122-0.217 0.272-0.276 0.442l-2.695 7.588h-1.772l5.616-14.639 5.62 14.639h-1.82zM20.801 29.584l-7.060-18.402c-0.177-0.463-0.62-0.765-1.113-0.765-0.133 0-0.262 0.021-0.383 0.062-0.334 0.111-0.611 0.366-0.742 0.707l-7.051 18.402-1.507-0.004 9.728-25.076 9.739 25.076h-1.61z"></path>
</svg>
