<?xml version="1.0" encoding="utf-8"?>
<!-- Generated by IcoMoon.io -->
<!DOCTYPE svg PUBLIC "-//W3C//DTD SVG 1.1//EN" "http://www.w3.org/Graphics/SVG/1.1/DTD/svg11.dtd">
<svg version="1.1" xmlns="http://www.w3.org/2000/svg" xmlns:xlink="http://www.w3.org/1999/xlink" width="26" height="32" viewBox="0 0 26 32">
<path d="M24.798 0h-20.089c-0.221 0-0.434 0.087-0.591 0.244l-3.764 3.735c-0.214 0.152-0.354 0.403-0.354 0.685v26.498c0 0.463 0.375 0.839 0.839 0.839h20.089c0.23 0 0.439-0.092 0.59-0.241l3.87-3.825c0.159-0.158 0.248-0.373 0.248-0.596v-26.499c0-0.462-0.375-0.839-0.839-0.839zM5.055 1.677h17.737l-2.157 2.148h-17.743l2.163-2.148zM20.089 30.323h-18.412v-24.821h18.412v24.821zM21.767 29.153v-24.088l2.194-2.183v24.104l-2.194 2.167z"></path>
<path d="M3.514 16.15h1.398v4.886c0 0.49 0.317 0.79 0.754 0.79 0.439 0 0.765-0.301 0.765-0.79v-4.886h1.408c0.458 0 0.744-0.29 0.744-0.68 0-0.4-0.286-0.69-0.744-0.69h-4.325c-0.46 0-0.744 0.29-0.744 0.69 0 0.39 0.285 0.68 0.744 0.68z"></path>
<path d="M10.938 21.026c0.143 0.531 0.468 0.8 0.969 0.8 0.521 0 0.847-0.26 0.979-0.79l1.041-3.887 1.019 3.877c0.133 0.531 0.459 0.8 0.979 0.8 0.499 0 0.826-0.26 0.979-0.79l1.449-5.325c0.123-0.48-0.123-0.849-0.562-0.959-0.439-0.109-0.825 0.121-0.949 0.61l-0.958 3.898-0.969-3.728c-0.132-0.529-0.47-0.799-0.989-0.799-0.531 0-0.867 0.26-1 0.789l-0.969 3.738-0.958-3.898c-0.123-0.49-0.511-0.719-0.949-0.61-0.439 0.111-0.683 0.48-0.56 0.959l1.449 5.316z"></path>
</svg>
