<?xml version="1.0" encoding="utf-8"?>
<!-- Generated by IcoMoon.io -->
<!DOCTYPE svg PUBLIC "-//W3C//DTD SVG 1.1//EN" "http://www.w3.org/Graphics/SVG/1.1/DTD/svg11.dtd">
<svg version="1.1" xmlns="http://www.w3.org/2000/svg" xmlns:xlink="http://www.w3.org/1999/xlink" width="32" height="32" viewBox="0 0 32 32">
<path d="M28.71 32h-25.42c-1.814 0-3.29-1.477-3.29-3.29v-25.421c0-1.814 1.476-3.289 3.29-3.289h25.42c1.814 0 3.29 1.474 3.29 3.289v25.42c0 1.814-1.477 3.291-3.29 3.291zM3.29 1.461c-1.008 0-1.828 0.821-1.828 1.827v25.42c0 1.009 0.821 1.828 1.828 1.828h25.42c1.009 0 1.828-0.821 1.828-1.828v-25.42c0-1.008-0.821-1.827-1.828-1.827h-25.42zM27.475 28.206h-22.95c-0.404 0-0.731-0.327-0.731-0.731v-22.95c0-0.404 0.327-0.731 0.731-0.731h22.95c0.403 0 0.731 0.327 0.731 0.731v22.95c0 0.404-0.328 0.731-0.731 0.731zM20.621 26.744h6.123v-6.107h-6.123v6.107zM12.837 26.744h6.323v-6.107h-6.323v6.107zM5.255 26.744h6.121v-6.107h-6.121v6.107zM20.621 19.177h6.123v-6.324h-6.123v6.324zM12.837 19.177h6.323v-6.324h-6.323v6.324zM5.255 19.177h6.121v-6.324h-6.121v6.324zM20.621 11.392h6.123v-6.137h-6.123v6.137zM12.837 11.392h6.323v-6.137h-6.323v6.137zM5.255 11.392h6.121v-6.137h-6.121v6.137z"></path>
</svg>
