<?xml version="1.0" encoding="utf-8"?>
<!-- Generated by IcoMoon.io -->
<!DOCTYPE svg PUBLIC "-//W3C//DTD SVG 1.1//EN" "http://www.w3.org/Graphics/SVG/1.1/DTD/svg11.dtd">
<svg version="1.1" xmlns="http://www.w3.org/2000/svg" xmlns:xlink="http://www.w3.org/1999/xlink" width="32" height="32" viewBox="0 0 32 32">
<path d="M16 3.132c-7.095 0-12.868 5.773-12.868 12.868 0 4.599 2.432 8.629 6.070 10.905l-0.012 0.019c0.065 0.035 0.13 0.061 0.195 0.092 1.936 1.167 4.193 1.851 6.613 1.851 2.438 0 4.71-0.693 6.656-1.875 0.046-0.025 0.094-0.041 0.141-0.068l-0.007-0.015c3.642-2.274 6.078-6.308 6.078-10.91 0.001-7.095-5.771-12.867-12.867-12.867zM13.111 26.902c1.294-0.78 2.312-2.336 2.882-4.255 0.572 1.921 1.591 3.479 2.885 4.258-0.921 0.243-1.882 0.386-2.879 0.386-1 0-1.964-0.144-2.888-0.388zM13.621 18.121l2.378-5.592 2.379 5.592h-4.757zM21.944 25.581c-0.795 0.401-1.533 0.401-2.242-0.022-1.445-0.859-2.473-3.221-2.609-5.861h2.482c0.265 0 0.512-0.132 0.658-0.354 0.146-0.22 0.171-0.5 0.069-0.745l-3.574-8.398c-0.248-0.582-1.204-0.582-1.452 0l-3.573 8.399c-0.104 0.244-0.078 0.524 0.068 0.745s0.393 0.354 0.658 0.354h2.467c-0.138 2.641-1.166 5-2.609 5.861-0.699 0.415-1.423 0.419-2.206 0.036-2.833-1.755-4.833-4.718-5.27-8.171h2.726c0.436 0 0.789-0.353 0.789-0.789s-0.353-0.789-0.789-0.789h-2.817c0.008-0.664 0.076-1.314 0.195-1.947h6.017c0.436 0 0.789-0.353 0.789-0.789s-0.354-0.789-0.789-0.789h-5.594c1.53-4.423 5.726-7.613 10.663-7.613 2.803 0 5.366 1.033 7.343 2.731h-4.93c-0.436 0-0.789 0.353-0.789 0.789s0.353 0.789 0.789 0.789h5.953c0.148 0 0.278-0.051 0.398-0.122 0.424 0.521 0.804 1.081 1.131 1.675h-2.667c-0.436 0-0.788 0.353-0.788 0.789s0.352 0.789 0.788 0.789h3.11c0.087 0 0.167-0.025 0.244-0.049 0.45 1.217 0.71 2.528 0.71 3.9 0 1.501-0.302 2.933-0.836 4.245h-4.444c-0.436 0-0.788 0.353-0.788 0.789s0.352 0.789 0.788 0.789h3.642c-0.922 1.524-2.194 2.813-3.709 3.756z"></path>
<path d="M16 0c-8.823 0-16 7.178-16 16 0 8.823 7.177 16.001 16 16.001s16.002-7.178 16.002-16.001c-0.001-8.822-7.18-16-16.002-16zM16 30.422c-7.952 0-14.422-6.47-14.422-14.423 0-7.951 6.47-14.421 14.422-14.421 7.953 0 14.424 6.47 14.424 14.422-0.001 7.952-6.472 14.422-14.424 14.422z"></path>
</svg>
