<?xml version="1.0" encoding="utf-8"?>
<!-- Generated by IcoMoon.io -->
<!DOCTYPE svg PUBLIC "-//W3C//DTD SVG 1.1//EN" "http://www.w3.org/Graphics/SVG/1.1/DTD/svg11.dtd">
<svg version="1.1" xmlns="http://www.w3.org/2000/svg" xmlns:xlink="http://www.w3.org/1999/xlink" width="26" height="32" viewBox="0 0 26 32">
<path d="M24.961 0h-20.221c-0.23 0-0.449 0.093-0.608 0.259l-3.787 3.931c-0.21 0.154-0.345 0.401-0.345 0.682v26.286c0 0.466 0.378 0.844 0.844 0.844h20.221c0.238 0 0.453-0.099 0.607-0.256l3.896-4.026c0.151-0.158 0.236-0.369 0.236-0.588v-26.287c0.001-0.467-0.376-0.844-0.843-0.844zM5.099 1.688h17.897l-2.199 2.339h-17.951l2.252-2.339zM20.221 30.312h-18.533v-24.597h18.533v24.597zM21.909 29.070v-23.758l2.209-2.349v23.827l-2.209 2.28z"></path>
<path d="M4.252 20.386c0 0.515 0.349 0.872 0.954 0.872h4.18c0.462 0 0.75-0.304 0.75-0.713 0-0.42-0.288-0.725-0.75-0.725h-3.102l3.532-4.407c0.133-0.168 0.205-0.378 0.205-0.63 0-0.514-0.349-0.87-0.956-0.87h-4.033c-0.463 0-0.75 0.304-0.75 0.713 0 0.42 0.286 0.724 0.75 0.724h2.957l-3.532 4.409c-0.133 0.168-0.205 0.378-0.205 0.629z"></path>
<path d="M14.989 21.373c0.997 0 1.829-0.293 2.485-0.892 0.369-0.336 0.4-0.798 0.113-1.102-0.278-0.326-0.688-0.368-1.088-0.041-0.451 0.389-0.964 0.577-1.55 0.577-0.627 0-1.151-0.21-1.571-0.63-0.421-0.419-0.638-0.997-0.638-1.721 0-0.714 0.216-1.281 0.638-1.69 0.431-0.42 0.923-0.629 1.488-0.629 0.595 0 1.098 0.189 1.52 0.567 0.4 0.336 0.81 0.294 1.088-0.043 0.286-0.304 0.256-0.767-0.114-1.102-0.678-0.588-1.488-0.882-2.424-0.882-1.077 0-1.971 0.346-2.689 1.049-0.718 0.693-1.078 1.616-1.078 2.761 0 1.133 0.36 2.046 1.078 2.739 0.73 0.693 1.643 1.038 2.742 1.038z"></path>
</svg>
