<?xml version="1.0" encoding="utf-8"?>
<!-- Generated by IcoMoon.io -->
<!DOCTYPE svg PUBLIC "-//W3C//DTD SVG 1.1//EN" "http://www.w3.org/Graphics/SVG/1.1/DTD/svg11.dtd">
<svg version="1.1" xmlns="http://www.w3.org/2000/svg" xmlns:xlink="http://www.w3.org/1999/xlink" width="33" height="32" viewBox="0 0 33 32">
<path d="M16.374 0c-9.028 0-16.374 7.178-16.374 16s7.346 16 16.374 16c9.030 0 16.374-7.178 16.374-16s-7.345-16-16.374-16zM16.374 30.532c-8.219 0-14.905-6.519-14.905-14.532s6.686-14.531 14.905-14.531c8.22 0 14.905 6.519 14.905 14.532s-6.685 14.531-14.905 14.531z"></path>
<path d="M29.845 16c0-2.005-1.663-3.636-3.707-3.636-0.382 0-0.896 0.13-1.753 0.396 0.788-0.397 1.241-0.658 1.509-0.921 0.704-0.688 1.092-1.603 1.092-2.578s-0.386-1.889-1.093-2.577c-1.398-1.365-3.83-1.365-5.23 0-0.288 0.282-0.574 0.767-1.031 1.639 0.303-0.92 0.451-1.455 0.451-1.85 0-2.006-1.663-3.636-3.708-3.636-2.044 0-3.707 1.63-3.707 3.636 0 0.396 0.148 0.933 0.453 1.856-0.458-0.875-0.745-1.363-1.034-1.644-1.398-1.365-3.832-1.365-5.229 0-0.706 0.688-1.095 1.603-1.095 2.578s0.389 1.89 1.092 2.577c0.269 0.262 0.722 0.523 1.509 0.922-0.859-0.267-1.372-0.396-1.753-0.396-2.045 0-3.708 1.631-3.708 3.636s1.663 3.636 3.708 3.636c0.381 0 0.895-0.13 1.753-0.396-0.788 0.397-1.241 0.658-1.508 0.921-0.705 0.688-1.093 1.604-1.093 2.578 0 0.975 0.389 1.889 1.093 2.576 1.398 1.365 3.832 1.365 5.229 0 0.29-0.281 0.576-0.768 1.035-1.643-0.305 0.922-0.453 1.459-0.453 1.856 0 2.005 1.663 3.636 3.707 3.636 2.045 0 3.708-1.631 3.708-3.636 0-0.395-0.148-0.932-0.451-1.85 0.458 0.872 0.743 1.357 1.032 1.638 1.398 1.365 3.831 1.365 5.229 0 0.704-0.687 1.093-1.602 1.093-2.576s-0.386-1.89-1.092-2.578c-0.269-0.261-0.722-0.522-1.509-0.921 0.858 0.267 1.372 0.396 1.753 0.396 2.045-0.001 3.708-1.632 3.708-3.637zM19.835 11.124c0.243-0.46 0.466-0.892 0.669-1.29 0.477-0.929 0.971-1.888 1.184-2.098 0.426-0.414 0.988-0.641 1.59-0.641s1.164 0.227 1.589 0.641c0.419 0.408 0.65 0.95 0.65 1.525 0 0.576-0.231 1.118-0.65 1.526-0.217 0.212-1.209 0.699-2.169 1.168-0.402 0.197-0.839 0.411-1.305 0.644-1.105 0.555-2.267 1.149-3.226 1.643 0.503-0.929 1.106-2.051 1.667-3.118zM16.374 4.306c1.234 0 2.24 0.973 2.24 2.167 0 0.292-0.346 1.307-0.68 2.29-0.144 0.422-0.299 0.884-0.464 1.378-0.381 1.161-0.774 2.391-1.095 3.406-0.321-1.015-0.714-2.245-1.096-3.406-0.162-0.494-0.319-0.956-0.463-1.378-0.334-0.982-0.68-1.998-0.68-2.29-0.001-1.194 1.003-2.167 2.238-2.167zM7.882 10.788c-0.419-0.408-0.65-0.95-0.65-1.526 0-0.575 0.231-1.117 0.65-1.525 0.423-0.414 0.987-0.641 1.588-0.641s1.166 0.227 1.588 0.641c0.214 0.209 0.708 1.169 1.185 2.098 0.204 0.396 0.427 0.829 0.668 1.29 0.563 1.067 1.166 2.19 1.668 3.119-0.959-0.494-2.121-1.088-3.226-1.643-0.468-0.234-0.908-0.449-1.311-0.648-0.954-0.469-1.944-0.953-2.16-1.166zM6.611 18.167c-1.234 0-2.24-0.973-2.24-2.167s1.005-2.167 2.24-2.167c0.309 0 1.358 0.341 2.372 0.668 0.43 0.139 0.899 0.292 1.402 0.449 1.164 0.364 2.398 0.74 3.424 1.049-1.026 0.309-2.259 0.686-3.424 1.049-0.503 0.159-0.972 0.31-1.402 0.449-1.014 0.329-2.063 0.668-2.372 0.668zM12.914 20.877c-0.242 0.459-0.464 0.89-0.667 1.287-0.478 0.929-0.972 1.889-1.186 2.099-0.846 0.827-2.33 0.827-3.177 0-0.419-0.408-0.65-0.949-0.65-1.524 0-0.576 0.231-1.118 0.651-1.527 0.215-0.211 1.205-0.695 2.161-1.163 0.404-0.198 0.843-0.414 1.311-0.648 1.105-0.555 2.267-1.149 3.226-1.643-0.504 0.928-1.108 2.050-1.669 3.118zM16.374 27.694c-1.234 0-2.239-0.973-2.239-2.167 0-0.292 0.346-1.307 0.68-2.29 0.144-0.422 0.3-0.884 0.463-1.378 0.382-1.161 0.775-2.391 1.096-3.406 0.321 1.015 0.714 2.245 1.095 3.406 0.163 0.494 0.32 0.956 0.464 1.378 0.334 0.982 0.68 1.998 0.68 2.29 0.001 1.195-1.005 2.167-2.239 2.167zM24.867 21.212c0.419 0.408 0.65 0.95 0.65 1.526 0 0.575-0.231 1.116-0.649 1.524-0.848 0.827-2.331 0.827-3.18 0-0.214-0.209-0.707-1.17-1.186-2.099-0.203-0.395-0.426-0.828-0.667-1.287-0.562-1.067-1.163-2.19-1.667-3.119 0.959 0.494 2.121 1.088 3.226 1.643 0.466 0.233 0.903 0.447 1.305 0.644 0.959 0.471 1.951 0.957 2.169 1.169zM23.769 17.5c-0.431-0.139-0.901-0.293-1.407-0.451-1.163-0.363-2.395-0.74-3.424-1.049 1.027-0.309 2.259-0.686 3.424-1.049 0.506-0.159 0.975-0.311 1.407-0.451 1.013-0.329 2.060-0.667 2.369-0.667 1.234 0 2.239 0.973 2.239 2.167s-1.005 2.167-2.239 2.167c-0.31 0-1.357-0.338-2.369-0.667z"></path>
</svg>
