<?xml version="1.0" encoding="utf-8"?>
<!-- Generated by IcoMoon.io -->
<!DOCTYPE svg PUBLIC "-//W3C//DTD SVG 1.1//EN" "http://www.w3.org/Graphics/SVG/1.1/DTD/svg11.dtd">
<svg version="1.1" xmlns="http://www.w3.org/2000/svg" xmlns:xlink="http://www.w3.org/1999/xlink" width="32" height="32" viewBox="0 0 32 32">
<path d="M29.133 0h-25.799c-1.838 0-3.335 1.477-3.335 3.293v25.416c0 1.815 1.496 3.292 3.335 3.292h25.798c1.838 0 3.335-1.477 3.335-3.292v-25.416c0-1.816-1.496-3.293-3.333-3.293zM7.95 24.24v3.421h-3.498v-3.421h3.498zM24.616 7.751v-3.421h3.497v3.421h-3.497zM28.113 9.388v3.421h-3.497v-3.421h3.497zM28.113 14.391v3.421h-3.497v-3.421h3.497zM28.113 19.357v3.422h-3.497v-3.422h3.497zM23.107 19.357v3.422h-3.497v-3.422h3.497zM19.61 17.812v-3.421h3.497v3.421h-3.497zM19.61 12.809v-3.421h3.497v3.421h-3.497zM4.453 17.76v-3.421h3.498v3.421h-3.498zM4.453 12.757v-3.423h3.498v3.423h-3.498zM14.485 12.757v-3.423h3.498v3.423h-3.498zM17.982 14.338v3.421h-3.498v-3.421h3.498zM12.989 14.338v3.421h-3.497v-3.421h3.497zM9.493 12.757v-3.423h3.497v3.423h-3.497zM12.989 19.304v3.422h-3.497v-3.422h3.497zM17.982 19.304v3.422h-3.498v-3.422h3.498zM4.453 22.726v-3.422h3.498v3.422h-3.498zM19.61 7.751v-3.421h3.497v3.421h-3.497zM14.57 7.751v-3.421h3.498v3.421h-3.498zM9.493 7.751v-3.421h3.497v3.421h-3.497zM4.453 7.751v-3.421h3.498v3.421h-3.498zM12.989 24.24v3.421h-3.497v-3.421h3.497zM17.982 24.24v3.421h-3.498v-3.421h3.498zM23.107 24.294v3.422h-3.497v-3.422h3.497zM28.113 24.294v3.422h-3.497v-3.422h3.497z"></path>
</svg>
