<?xml version="1.0" encoding="utf-8"?>
<!-- Generated by IcoMoon.io -->
<!DOCTYPE svg PUBLIC "-//W3C//DTD SVG 1.1//EN" "http://www.w3.org/Graphics/SVG/1.1/DTD/svg11.dtd">
<svg version="1.1" xmlns="http://www.w3.org/2000/svg" xmlns:xlink="http://www.w3.org/1999/xlink" width="32" height="32" viewBox="0 0 32 32">
<path d="M22.616 13.219c0.15 0.039 0.303 0.060 0.459 0.060 0.997 0 1.905-0.801 2.206-1.947 0.192-0.725 0.108-1.475-0.231-2.057-0.266-0.457-0.676-0.778-1.153-0.904-1.112-0.295-2.314 0.561-2.666 1.888-0.354 1.338 0.268 2.666 1.385 2.961zM22.62 10.628c0.144-0.542 0.517-0.868 0.891-0.868 0.007 0 0.014 0 0.021 0 0.136 0.035 0.228 0.15 0.28 0.239 0.146 0.251 0.177 0.611 0.083 0.966-0.146 0.551-0.53 0.878-0.819 0.878l-0.091-0.011c-0.303-0.082-0.526-0.595-0.365-1.205z"></path>
<path d="M26.953 17.914c-1.265-0.802-3.342 0.177-4.594 2.164-1.284 2.029-1.275 4.26 0.019 5.078 0.312 0.198 0.67 0.297 1.063 0.297 1.201 0 2.586-0.966 3.53-2.461 1.28-2.029 1.274-4.26-0.019-5.078zM25.757 22.225c-0.893 1.416-2.134 2.020-2.613 1.717-0.446-0.283-0.501-1.63 0.427-3.099 0.743-1.177 1.728-1.793 2.317-1.793 0.119 0 0.217 0.024 0.298 0.074 0.445 0.284 0.499 1.63-0.43 3.1z"></path>
<path d="M13.852 24.849c-0.953 0.686-1.249 1.911-0.66 2.733 0.319 0.442 0.843 0.698 1.44 0.698 0.47 0 0.954-0.162 1.362-0.455 0.952-0.686 1.247-1.911 0.658-2.733-0.572-0.792-1.877-0.907-2.8-0.242zM15.155 26.66c-0.163 0.116-0.354 0.185-0.523 0.185-0.061 0-0.208-0.011-0.274-0.102-0.095-0.131-0.012-0.482 0.333-0.73 0.163-0.116 0.354-0.185 0.523-0.185 0.061 0 0.208 0.011 0.273 0.102 0.095 0.132 0.013 0.483-0.332 0.73z"></path>
<path d="M14.407 11.842c-1.55 0-3.319 0.515-4.98 1.449-1.629 0.918-2.971 2.137-3.78 3.437-0.891 1.431-1.049 2.811-0.443 3.885 0.594 1.057 1.828 1.639 3.472 1.639 1.549 0 3.318-0.515 4.98-1.449 1.629-0.918 2.971-2.137 3.781-3.437 0.891-1.431 1.047-2.811 0.442-3.886-0.594-1.056-1.827-1.638-3.472-1.638zM16.217 16.607c-0.684 1.097-1.843 2.144-3.266 2.944-1.429 0.806-2.987 1.267-4.276 1.267-0.639 0-1.777-0.118-2.22-0.908-0.332-0.588-0.182-1.471 0.41-2.421 0.684-1.099 1.843-2.144 3.266-2.944 1.428-0.805 2.987-1.265 4.276-1.265 0.639 0 1.778 0.117 2.22 0.906 0.332 0.588 0.182 1.471-0.41 2.422z"></path>
<path d="M11.399 9.179c0.839 0 1.709-0.359 2.387-0.986 0.619-0.571 1.025-1.306 1.146-2.069 0.13-0.816-0.089-1.599-0.599-2.149-0.988-1.072-2.973-0.972-4.249 0.208-1.323 1.222-1.57 3.115-0.549 4.22 0.463 0.501 1.124 0.776 1.863 0.776zM11.058 5.237c0.417-0.384 0.932-0.604 1.413-0.604 0.236 0 0.567 0.054 0.808 0.316 0.286 0.309 0.27 0.729 0.235 0.952-0.069 0.439-0.325 0.891-0.703 1.239-0.417 0.385-0.932 0.605-1.413 0.605-0.236 0-0.568-0.055-0.808-0.316-0.475-0.515-0.261-1.517 0.468-2.192z"></path>
<path d="M15.999 0c-8.822 0-15.999 7.178-15.999 15.999 0 8.822 7.177 16 15.999 16 8.823 0 16-7.178 16-16 0-8.821-7.177-15.999-16-15.999zM15.999 30.564c-8.030 0-14.563-6.535-14.563-14.565s6.534-14.564 14.563-14.564c8.032 0 14.564 6.535 14.564 14.564 0 8.032-6.532 14.565-14.564 14.565z"></path>
</svg>
