<?xml version="1.0" encoding="utf-8"?>
<!-- Generated by IcoMoon.io -->
<!DOCTYPE svg PUBLIC "-//W3C//DTD SVG 1.1//EN" "http://www.w3.org/Graphics/SVG/1.1/DTD/svg11.dtd">
<svg version="1.1" xmlns="http://www.w3.org/2000/svg" xmlns:xlink="http://www.w3.org/1999/xlink" width="14" height="32" viewBox="0 0 14 32">
<path d="M3.384 25.368l-0.39 1.030h7.903l-0.39-1.030z"></path>
<path d="M1.265 25.368l5.681-15.017 5.68 15.017h-1.018l0.39 1.030h1.374c0.169 0 0.328-0.082 0.423-0.223 0.097-0.139 0.118-0.317 0.058-0.475l-6.425-16.987c-0.076-0.201-0.268-0.333-0.482-0.333s-0.406 0.132-0.482 0.333l-6.426 16.987c-0.060 0.158-0.038 0.336 0.058 0.475s0.254 0.223 0.423 0.223h1.374l0.39-1.030h-1.018z"></path>
<path d="M4.147 24.518c0.467 0 0.846-0.378 0.846-0.845 0-0.025-0.002-0.052-0.004-0.078-0.001-0.006-0.001-0.011-0.002-0.017-0.034-0.34-0.236-0.858-0.433-1.299l-0.808 2.135c0.119 0.064 0.255 0.105 0.401 0.105z"></path>
<path d="M7.298 23.594c-0.001-0.006-0.001-0.011-0.002-0.017-0.056-0.56-0.567-1.603-0.763-1.989-0.032-0.063-0.122-0.063-0.154 0-0.198 0.384-0.709 1.426-0.763 1.992-0.001 0.004-0.001 0.008-0.001 0.011-0.003 0.028-0.005 0.055-0.005 0.081 0 0.467 0.379 0.845 0.846 0.845s0.846-0.378 0.846-0.845c-0-0.025-0.003-0.052-0.005-0.078z"></path>
<path d="M11.999 26.398h-1.101l1.729 4.572h-11.361l1.73-4.572h-1.101l-1.856 4.905c-0.060 0.158-0.038 0.336 0.058 0.475s0.254 0.223 0.423 0.223h12.853c0.169 0 0.328-0.082 0.423-0.223 0.097-0.139 0.118-0.317 0.058-0.475l-1.855-4.905z"></path>
<path d="M10.508 25.368l0.39 1.030h1.101l-0.39-1.030z"></path>
<path d="M3.384 25.368h-1.101l-0.39 1.030h1.101z"></path>
<path d="M4.069 21.588c-0.198 0.384-0.709 1.426-0.763 1.992-0.001 0.004-0.001 0.008-0.002 0.011-0.003 0.028-0.004 0.055-0.004 0.081 0 0.321 0.181 0.596 0.445 0.741l0.808-2.135c-0.127-0.285-0.252-0.538-0.33-0.689-0.031-0.063-0.121-0.063-0.154 0z"></path>
<path d="M4.147 30.12c0.467 0 0.846-0.378 0.846-0.845 0-0.025-0.002-0.052-0.004-0.078-0.001-0.006-0.001-0.011-0.002-0.017-0.056-0.56-0.567-1.603-0.763-1.989-0.032-0.063-0.121-0.063-0.154 0-0.198 0.384-0.709 1.426-0.763 1.992-0.001 0.004-0.001 0.008-0.002 0.011-0.003 0.028-0.004 0.055-0.004 0.081-0.001 0.467 0.379 0.845 0.845 0.845z"></path>
<path d="M6.456 30.12c0.467 0 0.846-0.378 0.846-0.845 0-0.025-0.002-0.052-0.004-0.078-0.001-0.006-0.001-0.011-0.002-0.017-0.056-0.56-0.567-1.603-0.763-1.989-0.032-0.063-0.122-0.063-0.154 0-0.198 0.384-0.709 1.426-0.763 1.992-0.001 0.004-0.001 0.008-0.001 0.011-0.003 0.028-0.005 0.055-0.005 0.081 0 0.467 0.379 0.845 0.845 0.845z"></path>
</svg>
