<?xml version="1.0" encoding="utf-8"?>
<!-- Generated by IcoMoon.io -->
<!DOCTYPE svg PUBLIC "-//W3C//DTD SVG 1.1//EN" "http://www.w3.org/Graphics/SVG/1.1/DTD/svg11.dtd">
<svg version="1.1" xmlns="http://www.w3.org/2000/svg" xmlns:xlink="http://www.w3.org/1999/xlink" width="19" height="32" viewBox="0 0 19 32">
<path d="M0.034 31.304l4.533-12.026c0.060-0.159 0.194-0.278 0.358-0.318 0.164-0.042 0.337 0 0.464 0.113l13.63 12.005c0.161 0.142 0.217 0.368 0.141 0.569v0c-0.075 0.2-0.267 0.333-0.481 0.333l-18.162 0.021c-0.169 0.001-0.328-0.082-0.424-0.221-0.097-0.139-0.119-0.317-0.058-0.475zM5.268 20.338l-4.008 10.631 16.056-0.018-12.048-10.613z"></path>
<path d="M6.211 22.874c0.003 0.001 0.007 0.002 0.010 0.005 0.51 0.25 1.305 1.097 1.596 1.416 0.046 0.053 0.015 0.137-0.055 0.144-0.43 0.048-1.586 0.158-2.13 0.012-0.007-0.001-0.012-0.003-0.016-0.004-0.028-0.007-0.053-0.015-0.076-0.023-0.437-0.165-0.657-0.653-0.492-1.089 0.164-0.438 0.652-0.658 1.090-0.494 0.022 0.009 0.048 0.022 0.073 0.033z"></path>
<path d="M5.396 25.035c0.004 0.002 0.007 0.003 0.011 0.005 0.511 0.25 1.304 1.097 1.596 1.416 0.047 0.053 0.015 0.137-0.055 0.145-0.43 0.046-1.585 0.157-2.129 0.012-0.007-0.002-0.012-0.003-0.018-0.003-0.026-0.008-0.051-0.016-0.075-0.024-0.437-0.166-0.656-0.654-0.492-1.090s0.652-0.658 1.090-0.493c0.022 0.010 0.048 0.021 0.073 0.032z"></path>
</svg>
