<?xml version="1.0" encoding="utf-8"?>
<!-- Generated by IcoMoon.io -->
<!DOCTYPE svg PUBLIC "-//W3C//DTD SVG 1.1//EN" "http://www.w3.org/Graphics/SVG/1.1/DTD/svg11.dtd">
<svg version="1.1" xmlns="http://www.w3.org/2000/svg" xmlns:xlink="http://www.w3.org/1999/xlink" width="18" height="32" viewBox="0 0 18 32">
<path d="M4.235 27.189c-0.032-0.062-0.122-0.062-0.154 0-0.198 0.385-0.709 1.426-0.763 1.992 0 0.004 0 0.008-0.001 0.012-0.003 0.027-0.004 0.055-0.004 0.080 0 0.468 0.378 0.846 0.846 0.846 0.467 0 0.846-0.378 0.846-0.846 0-0.024-0.002-0.052-0.005-0.078 0-0.005-0.001-0.011-0.001-0.017-0.057-0.559-0.567-1.602-0.764-1.989z"></path>
<path d="M6.468 30.12c0.467 0 0.846-0.378 0.846-0.846 0-0.024-0.001-0.052-0.004-0.078 0-0.005-0.001-0.011-0.001-0.017-0.057-0.559-0.567-1.602-0.763-1.989-0.032-0.062-0.122-0.062-0.154 0-0.198 0.385-0.709 1.426-0.763 1.992-0 0.004-0 0.008-0.001 0.012-0.003 0.027-0.004 0.055-0.004 0.080-0 0.468 0.378 0.846 0.845 0.846z"></path>
<path d="M8.777 30.12c0.468 0 0.846-0.378 0.846-0.846 0-0.024-0.001-0.052-0.004-0.078-0.001-0.005-0.001-0.011-0.002-0.017-0.056-0.559-0.567-1.602-0.763-1.989-0.032-0.062-0.122-0.062-0.154 0-0.198 0.385-0.709 1.426-0.764 1.992-0.001 0.004-0.001 0.008-0.001 0.012-0.003 0.027-0.004 0.055-0.004 0.080 0 0.468 0.379 0.846 0.846 0.846z"></path>
<path d="M17.98 31.285l-3.363-7.981h0.816c0.169 0 0.328-0.083 0.423-0.223 0.097-0.14 0.118-0.317 0.058-0.475l-6.426-16.988c-0.076-0.201-0.268-0.333-0.482-0.333s-0.406 0.132-0.482 0.333l-6.426 16.989c-0.060 0.158-0.038 0.335 0.058 0.475 0.096 0.139 0.254 0.223 0.423 0.223h0.816l-3.363 7.981c-0.067 0.159-0.050 0.341 0.046 0.485s0.257 0.23 0.429 0.23h16.997c0.172 0 0.333-0.087 0.429-0.23s0.113-0.326 0.046-0.485zM3.325 22.273l5.681-15.018 5.681 15.018h-11.362zM1.284 30.97l3.23-7.667h8.984l3.23 7.667h-15.444z"></path>
<path d="M5.365 20.497c0-0.004 0-0.008 0.001-0.011 0.054-0.568 0.566-1.608 0.763-1.993 0.032-0.062 0.122-0.062 0.154 0 0.197 0.386 0.706 1.429 0.763 1.989 0 0.006 0.001 0.012 0.001 0.017 0.003 0.027 0.004 0.054 0.004 0.078 0 0.468-0.378 0.846-0.846 0.846s-0.846-0.378-0.846-0.846c0-0.025 0.002-0.053 0.005-0.080z"></path>
<path d="M7.675 20.497c0-0.004 0-0.008 0.001-0.011 0.054-0.568 0.566-1.608 0.763-1.993 0.032-0.062 0.122-0.062 0.154 0 0.196 0.386 0.707 1.429 0.763 1.989 0.001 0.006 0.002 0.012 0.002 0.017 0.002 0.027 0.004 0.054 0.004 0.078 0 0.468-0.379 0.846-0.846 0.846s-0.846-0.378-0.846-0.846c0.001-0.025 0.002-0.053 0.005-0.080z"></path>
</svg>
