<?xml version="1.0" encoding="utf-8"?>
<!-- Generated by IcoMoon.io -->
<!DOCTYPE svg PUBLIC "-//W3C//DTD SVG 1.1//EN" "http://www.w3.org/Graphics/SVG/1.1/DTD/svg11.dtd">
<svg version="1.1" xmlns="http://www.w3.org/2000/svg" xmlns:xlink="http://www.w3.org/1999/xlink" width="19" height="32" viewBox="0 0 19 32">
<path d="M19.102 31.779c-0.097 0.139-0.254 0.222-0.424 0.221l-18.162-0.020c-0.215 0-0.406-0.133-0.482-0.333v0c-0.076-0.201-0.020-0.427 0.141-0.569l13.629-12.005c0.127-0.112 0.3-0.154 0.465-0.113 0.164 0.040 0.298 0.159 0.358 0.318l4.533 12.026c0.061 0.158 0.039 0.336-0.058 0.474zM1.877 30.951l16.056 0.018-4.008-10.631-12.049 10.613z"></path>
<path d="M12.983 22.874c-0.003 0.001-0.007 0.002-0.010 0.005-0.51 0.25-1.305 1.097-1.596 1.416-0.046 0.053-0.015 0.137 0.055 0.144 0.43 0.048 1.586 0.158 2.13 0.012 0.007-0.001 0.012-0.003 0.017-0.004 0.027-0.007 0.053-0.015 0.075-0.023 0.438-0.165 0.657-0.653 0.492-1.089-0.164-0.438-0.652-0.658-1.090-0.494-0.022 0.009-0.048 0.022-0.073 0.033z"></path>
<path d="M13.798 25.035c-0.004 0.002-0.007 0.003-0.011 0.005-0.511 0.25-1.304 1.097-1.596 1.416-0.046 0.053-0.015 0.137 0.055 0.145 0.431 0.046 1.585 0.157 2.13 0.012 0.006-0.002 0.012-0.003 0.017-0.003 0.026-0.008 0.052-0.016 0.075-0.024 0.437-0.166 0.656-0.654 0.492-1.090s-0.652-0.658-1.090-0.493c-0.022 0.010-0.048 0.021-0.072 0.032z"></path>
</svg>
