<?xml version="1.0" encoding="utf-8"?>
<!-- Generated by IcoMoon.io -->
<!DOCTYPE svg PUBLIC "-//W3C//DTD SVG 1.1//EN" "http://www.w3.org/Graphics/SVG/1.1/DTD/svg11.dtd">
<svg version="1.1" xmlns="http://www.w3.org/2000/svg" xmlns:xlink="http://www.w3.org/1999/xlink" width="14" height="32" viewBox="0 0 14 32">
<path d="M14.149 31.303l-6.576-17.384c-0.076-0.2-0.268-0.333-0.482-0.333s-0.406 0.133-0.482 0.333l-6.576 17.384c-0.060 0.158-0.038 0.335 0.058 0.475 0.096 0.139 0.254 0.223 0.424 0.223h13.152c0.169 0 0.328-0.083 0.424-0.223s0.118-0.317 0.058-0.475zM11.259 30.97l-3.684-10.158c-0.074-0.204-0.267-0.34-0.484-0.34s-0.41 0.136-0.484 0.34l-1.849 5.098h1.095l1.237-3.412 3.074 8.472h-8.905l5.831-15.414 5.83 15.414h-1.663z"></path>
<path d="M4.153 27.117c-0.033-0.064-0.125-0.064-0.158 0-0.202 0.393-0.725 1.459-0.781 2.039-0.001 0.003-0.001 0.007-0.001 0.011-0.003 0.029-0.004 0.056-0.004 0.082 0 0.185 0.059 0.355 0.158 0.496 0.157 0.223 0.414 0.369 0.707 0.369 0.096 0 0.186-0.019 0.272-0.048 0.344-0.115 0.593-0.435 0.593-0.817 0-0.025-0.002-0.053-0.004-0.080-0-0.005-0.001-0.011-0.002-0.017-0.012-0.125-0.050-0.275-0.098-0.435-0.144-0.475-0.408-1.048-0.586-1.407-0.036-0.075-0.070-0.141-0.097-0.194z"></path>
<path d="M6.438 30.115c0.478 0 0.866-0.387 0.866-0.865 0-0.025-0.002-0.053-0.004-0.080-0.001-0.005-0.001-0.011-0.002-0.017-0.058-0.572-0.579-1.641-0.781-2.035-0.033-0.064-0.125-0.064-0.158 0-0.202 0.393-0.725 1.459-0.781 2.039-0 0.003-0 0.007-0.001 0.011-0.003 0.029-0.004 0.056-0.004 0.082 0 0.478 0.387 0.865 0.865 0.865z"></path>
</svg>
