<?xml version="1.0" encoding="utf-8"?>
<!-- Generated by IcoMoon.io -->
<!DOCTYPE svg PUBLIC "-//W3C//DTD SVG 1.1//EN" "http://www.w3.org/Graphics/SVG/1.1/DTD/svg11.dtd">
<svg version="1.1" xmlns="http://www.w3.org/2000/svg" xmlns:xlink="http://www.w3.org/1999/xlink" width="32" height="32" viewBox="0 0 32 32">
<path d="M27.608 0.104h-17.543c-1.119 0.001-2.169 0.438-2.958 1.228l-6.378 6.38c-0.451 0.451-0.729 1.072-0.729 1.759v19.94c0 1.369 1.106 2.479 2.474 2.487h19.965c0.682-0.006 1.302-0.283 1.748-0.733l6.377-6.376c0.79-0.789 1.222-1.835 1.227-2.95v-17.558c-0.006-2.302-1.879-4.173-4.183-4.177zM4.234 20.63c0.271-0.011 0.519 0.070 0.742 0.189 0.355 0.192 0.632 0.507 0.732 0.911l2.348-0.108c-0.007-0.081-0.011-0.158-0.011-0.236 0-0.678 0.233-1.299 0.623-1.794l-2.531-2.498c-0.362 0.195-0.821 0.145-1.127-0.162-0.014-0.014-0.020-0.034-0.033-0.050-0.318-0.361-0.318-0.894 0-1.255 0.013-0.016 0.018-0.034 0.033-0.050 0.374-0.375 0.979-0.375 1.353 0 0.303 0.303 0.357 0.753 0.171 1.116l2.525 2.493c0.441-0.381 0.995-0.63 1.605-0.688v-3.117c-0.664-0.132-1.165-0.718-1.165-1.421 0-0.8 0.648-1.448 1.448-1.448s1.448 0.648 1.448 1.448c0 0.704-0.502 1.289-1.167 1.421v3.117c0.813 0.078 1.526 0.495 2.002 1.104l2.375-2.479c-0.181-0.256-0.279-0.574-0.263-0.914 0.047-0.799 0.733-1.407 1.532-1.362s1.408 0.732 1.362 1.529c-0.047 0.799-0.732 1.41-1.531 1.362-0.256-0.014-0.492-0.094-0.694-0.225l-2.471 2.578c0.189 0.378 0.298 0.804 0.304 1.255l2.012-0.094c0.1-0.397 0.451-0.696 0.88-0.719 0.529-0.026 0.976 0.384 1.001 0.914 0.026 0.527-0.384 0.975-0.912 0.999-0.428 0.020-0.804-0.247-0.944-0.63l-2.086 0.097c-0.117 0.627-0.436 1.185-0.888 1.602l2.879 2.368c0.252-0.206 0.57-0.327 0.918-0.327 0.77 0 1.386 0.605 1.433 1.363 0.001 0.030 0.017 0.055 0.017 0.087 0 0.8-0.648 1.45-1.45 1.45-0.8 0-1.448-0.649-1.448-1.45 0-0.030 0.010-0.055 0.010-0.087 0.014-0.213 0.064-0.419 0.162-0.6l-2.986-2.454c-0.361 0.216-0.772 0.361-1.214 0.402v3.041c0.391 0.122 0.675 0.486 0.675 0.917 0 0.527-0.428 0.955-0.956 0.955s-0.958-0.428-0.958-0.955c0-0.431 0.284-0.794 0.675-0.917v-3.041c-0.522-0.050-1.002-0.242-1.407-0.53l-2.156 2.038c0.185 0.378 0.109 0.844-0.219 1.136-0.004 0.003-0.011 0.006-0.017 0.009-0.358 0.306-0.866 0.291-1.219 0-0.037-0.030-0.082-0.047-0.115-0.087-0.351-0.394-0.317-0.999 0.078-1.352 0.314-0.28 0.758-0.311 1.104-0.114l2.119-2.004c-0.31-0.33-0.544-0.736-0.672-1.185l-2.422 0.114c-0.068 0.458-0.361 0.836-0.759 1.049-0.183 0.097-0.384 0.172-0.607 0.183-0.799 0.038-1.477-0.58-1.515-1.38-0.038-0.799 0.58-1.477 1.379-1.515zM21.632 28.261v-17.981h-17.143c-0.53 0-0.959-0.429-0.959-0.959s0.429-0.959 0.959-0.959h17.704l5.104-5.118c0.375-0.377 0.981-0.375 1.356-0.001s0.377 0.981 0.001 1.357l-5.105 5.118v18.544c0 0.53-0.429 0.958-0.959 0.958s-0.958-0.428-0.958-0.958z"></path>
</svg>
