<?xml version="1.0" encoding="utf-8"?>
<!-- Generated by IcoMoon.io -->
<!DOCTYPE svg PUBLIC "-//W3C//DTD SVG 1.1//EN" "http://www.w3.org/Graphics/SVG/1.1/DTD/svg11.dtd">
<svg version="1.1" xmlns="http://www.w3.org/2000/svg" xmlns:xlink="http://www.w3.org/1999/xlink" width="32" height="32" viewBox="0 0 32 32">
<path d="M27.6 0h-17.528c-1.101 0-2.183 0.449-2.972 1.238l-6.377 6.431c-0.448 0.449-0.723 1.069-0.723 1.752v20.090c0 1.374 1.114 2.489 2.489 2.489h19.937c0.691 0 1.319-0.284 1.771-0.74l6.373-6.422c0.777-0.782 1.224-1.863 1.224-2.969v-17.661c0.001-2.319-1.88-4.207-4.193-4.207zM12.406 27.023v-13.096c0-0.196 0.090-0.381 0.249-0.499 0.156-0.119 0.36-0.158 0.547-0.104 3.235 0.914 5.492 3.893 5.492 7.251 0 2.685-1.46 5.112-3.695 6.448-0.559 0.333-1.153 0.618-1.798 0.8-0.055 0.016-0.114 0.024-0.171 0.024-0.134 0-0.267-0.043-0.377-0.128-0.158-0.118-0.249-0.303-0.249-0.499v-0.198zM9.158 13.308c0.188-0.051 0.389-0.013 0.546 0.107 0.155 0.118 0.247 0.303 0.247 0.497v13.32c0 0.198-0.091 0.381-0.247 0.5-0.111 0.084-0.244 0.128-0.379 0.128-0.057 0-0.112-0.007-0.166-0.024-0.667-0.182-1.278-0.47-1.85-0.813-0.931-0.556-1.723-1.295-2.332-2.172-0.856-1.231-1.363-2.706-1.363-4.278s0.507-3.047 1.363-4.278c0.985-1.418 2.436-2.508 4.183-2.987zM21.892 28.832v-18.869h-17.887c-0.53 0-0.959-0.429-0.959-0.959s0.429-0.959 0.959-0.959h18.447l5.324-5.368c0.372-0.375 0.979-0.378 1.357-0.006 0.375 0.374 0.378 0.981 0.006 1.357l-5.331 5.369v19.434c0 0.53-0.428 0.959-0.958 0.959s-0.958-0.428-0.958-0.958z"></path>
</svg>
