<?xml version="1.0" encoding="utf-8"?>
<!-- Generated by IcoMoon.io -->
<!DOCTYPE svg PUBLIC "-//W3C//DTD SVG 1.1//EN" "http://www.w3.org/Graphics/SVG/1.1/DTD/svg11.dtd">
<svg version="1.1" xmlns="http://www.w3.org/2000/svg" xmlns:xlink="http://www.w3.org/1999/xlink" width="32" height="32" viewBox="0 0 32 32">
<path d="M27.601 0.104h-17.529c-1.117 0-2.169 0.433-2.966 1.226l-6.377 6.38c-0.451 0.452-0.729 1.073-0.729 1.759v19.938c0 1.374 1.114 2.489 2.489 2.489h19.937c0.686 0 1.309-0.279 1.758-0.73l6.386-6.383c0.79-0.793 1.224-1.845 1.224-2.962v-17.528c0.001-2.309-1.879-4.19-4.191-4.19zM3.276 18.869c0.092-0.222 0.311-0.368 0.553-0.368l1.455-0.001c0.853-2.611 3.314-4.441 6.115-4.444h0.003c1.046 0 2.085 0.256 3.003 0.74 0.283 0.149 0.492 0.399 0.586 0.706 0.094 0.306 0.064 0.631-0.085 0.915s-0.401 0.492-0.706 0.587c-0.306 0.094-0.631 0.064-0.917-0.087-0.583-0.308-1.215-0.463-1.879-0.463h-0.006c-1.474 0-2.801 0.813-3.503 2.044l1.644-0.001c0.243 0 0.459 0.145 0.551 0.368s0.041 0.479-0.128 0.651l-2.855 2.858c-0.109 0.111-0.263 0.175-0.422 0.175s-0.31-0.063-0.422-0.175l-2.857-2.852c-0.173-0.172-0.223-0.428-0.131-0.652zM7.868 25.88c-0.554-0.364-0.708-1.109-0.343-1.663 0.229-0.348 0.614-0.54 1.003-0.54 0.226 0 0.455 0.064 0.657 0.199 0.661 0.432 1.427 0.661 2.219 0.661h0.001c1.633-0.001 3.039-0.978 3.674-2.375l-1.711 0.001c-0.24 0-0.458-0.146-0.553-0.368-0.091-0.223-0.040-0.48 0.131-0.651l2.854-2.859c0.235-0.233 0.611-0.233 0.844 0l2.859 2.854c0.169 0.171 0.222 0.429 0.128 0.649-0.090 0.223-0.308 0.371-0.55 0.371l-1.462 0.001c-0.288 1.079-0.85 2.071-1.663 2.882-1.18 1.185-2.74 1.838-4.403 1.876-0.050 0.003-0.098 0.016-0.148 0.016h-0.003c-0.068 0-0.135-0.013-0.203-0.016-1.188-0.036-2.339-0.385-3.331-1.039zM21.632 28.259v-17.981h-17.144c-0.53 0-0.959-0.429-0.959-0.959s0.429-0.959 0.959-0.959h17.704l5.104-5.118c0.375-0.377 0.981-0.375 1.356-0.001s0.377 0.981 0.001 1.357l-5.104 5.118v18.543c0 0.529-0.429 0.959-0.959 0.959s-0.958-0.429-0.958-0.958z"></path>
</svg>
