<?xml version="1.0" encoding="utf-8"?>
<!-- Generated by IcoMoon.io -->
<!DOCTYPE svg PUBLIC "-//W3C//DTD SVG 1.1//EN" "http://www.w3.org/Graphics/SVG/1.1/DTD/svg11.dtd">
<svg version="1.1" xmlns="http://www.w3.org/2000/svg" xmlns:xlink="http://www.w3.org/1999/xlink" width="32" height="32" viewBox="0 0 32 32">
<path d="M27.601 0.102h-17.529c-1.12 0-2.173 0.436-2.966 1.229l-6.376 6.38c-0.452 0.451-0.731 1.072-0.731 1.759v19.94c0 1.374 1.114 2.487 2.489 2.487h19.937c0.686 0 1.309-0.277 1.758-0.729l6.381-6.38c0.793-0.792 1.228-1.845 1.228-2.965v-17.529c0.001-2.311-1.879-4.193-4.191-4.193zM12.333 18.211v-2.619c0-0.246 0.148-0.469 0.377-0.563 0.226-0.092 0.489-0.041 0.664 0.134l5.121 5.121c0.114 0.114 0.178 0.269 0.178 0.431s-0.064 0.317-0.178 0.431l-5.122 5.119c-0.117 0.117-0.273 0.178-0.432 0.178-0.078 0-0.156-0.014-0.232-0.047-0.227-0.094-0.377-0.317-0.377-0.561v-2.621h-7.861c-0.335 0-0.608-0.271-0.608-0.611v-3.783c0-0.335 0.271-0.608 0.608-0.608h7.862zM21.632 28.261v-17.981h-17.144c-0.53 0-0.959-0.429-0.959-0.959s0.429-0.959 0.959-0.959h17.704l5.104-5.118c0.375-0.377 0.981-0.375 1.356-0.001s0.377 0.981 0.001 1.357l-5.104 5.118v18.544c0 0.529-0.429 0.958-0.959 0.958s-0.958-0.429-0.958-0.958z"></path>
</svg>
