<?xml version="1.0" encoding="utf-8"?>
<!-- Generated by IcoMoon.io -->
<!DOCTYPE svg PUBLIC "-//W3C//DTD SVG 1.1//EN" "http://www.w3.org/Graphics/SVG/1.1/DTD/svg11.dtd">
<svg version="1.1" xmlns="http://www.w3.org/2000/svg" xmlns:xlink="http://www.w3.org/1999/xlink" width="32" height="32" viewBox="0 0 32 32">
<path d="M27.441 0.188h-17.428c-1.099 0-2.174 0.448-2.955 1.231l-6.339 6.393c-0.445 0.448-0.719 1.063-0.719 1.742v19.972c0 1.366 1.109 2.473 2.474 2.473h19.82c0.688 0 1.313-0.283 1.761-0.738l6.336-6.386c0.773-0.775 1.217-1.852 1.217-2.95v-17.555c0-2.307-1.869-4.183-4.167-4.183zM8.735 22.84c-0.237 0-0.449-0.148-0.541-0.377-0.091-0.227-0.041-0.492 0.124-0.667l2.457-2.595h-2.039c-0.237 0-0.449-0.148-0.541-0.375-0.091-0.227-0.041-0.492 0.124-0.667l3.975-4.19c0.111-0.114 0.261-0.178 0.416-0.178h3.397c0.236 0 0.449 0.148 0.54 0.377 0.091 0.226 0.041 0.49-0.124 0.665l-3.193 3.364h1.28c0.235 0 0.448 0.148 0.541 0.375 0.090 0.227 0.041 0.492-0.125 0.667l-2.25 2.375h1.066c0.254 0 0.48 0.173 0.559 0.426s-0.011 0.529-0.217 0.682l-6.523 4.861c-0.105 0.078-0.223 0.114-0.343 0.114-0.163 0-0.321-0.070-0.436-0.205-0.108-0.127-0.146-0.283-0.136-0.441 0.007-0.136 0.045-0.269 0.138-0.378l3.313-3.834h-1.46zM21.766 28.852v-18.76h-17.784c-0.527 0-0.954-0.426-0.954-0.954s0.426-0.954 0.954-0.954h18.339l5.294-5.338c0.371-0.374 0.976-0.377 1.349-0.006 0.375 0.371 0.378 0.975 0.006 1.349l-5.297 5.342v19.321c0 0.524-0.428 0.952-0.954 0.952-0.527-0.001-0.954-0.429-0.954-0.954z"></path>
</svg>
