<?xml version="1.0" encoding="utf-8"?>
<!-- Generated by IcoMoon.io -->
<!DOCTYPE svg PUBLIC "-//W3C//DTD SVG 1.1//EN" "http://www.w3.org/Graphics/SVG/1.1/DTD/svg11.dtd">
<svg version="1.1" xmlns="http://www.w3.org/2000/svg" xmlns:xlink="http://www.w3.org/1999/xlink" width="35" height="32" viewBox="0 0 35 32">
<path d="M2.213 32c-0.393 0-0.759-0.193-0.982-0.515-0.067-0.097-0.117-0.198-0.152-0.308-0.088-0.258-0.085-0.547 0.016-0.809l8.234-21.455c0.11-0.283 0.32-0.511 0.587-0.644 0.081-0.042 0.17-0.074 0.262-0.096 0.384-0.090 0.787 0.012 1.079 0.278l23.527 21.337c0.257 0.234 0.395 0.557 0.393 0.893 0.002 0.145-0.027 0.292-0.078 0.432-0.179 0.462-0.619 0.766-1.113 0.768l-31.768 0.119c-0.002 0-0.004 0-0.005 0zM5.058 26.706c-0.009 0.034-0.021 0.067-0.034 0.101l-1.069 2.788 26.931-0.104-19.946-18.090-1.051 2.732-0.005-0.002-4.826 12.576z"></path>
</svg>
