<?xml version="1.0" encoding="utf-8"?>
<!-- Generated by IcoMoon.io -->
<!DOCTYPE svg PUBLIC "-//W3C//DTD SVG 1.1//EN" "http://www.w3.org/Graphics/SVG/1.1/DTD/svg11.dtd">
<svg version="1.1" xmlns="http://www.w3.org/2000/svg" xmlns:xlink="http://www.w3.org/1999/xlink" width="11" height="32" viewBox="0 0 11 32">
<path d="M8.772 26.609h1.397c0.171 0 0.331-0.084 0.426-0.226 0.096-0.141 0.115-0.321 0.052-0.48l-4.825-12.079c-0.078-0.196-0.268-0.324-0.478-0.324s-0.4 0.128-0.478 0.324l-4.825 12.079c-0.063 0.159-0.044 0.339 0.052 0.48s0.255 0.226 0.426 0.226h1.389l-1.871 4.685c-0.063 0.159-0.044 0.339 0.052 0.48s0.255 0.226 0.426 0.226h9.65c0.171 0 0.331-0.084 0.426-0.226 0.096-0.141 0.115-0.321 0.052-0.48l-1.872-4.685zM1.279 25.579l4.065-10.175 4.065 10.175h-8.13zM1.276 30.97l1.742-4.361h4.646l1.742 4.361h-8.13z"></path>
<path d="M6.131 29.179c-0.057-0.56-0.567-1.603-0.763-1.989-0.032-0.063-0.122-0.063-0.154 0-0.198 0.384-0.709 1.426-0.763 1.992-0 0.004-0.001 0.008-0.001 0.011-0.003 0.028-0.004 0.055-0.004 0.081 0 0.467 0.378 0.845 0.846 0.845 0.467 0 0.846-0.378 0.846-0.845 0-0.025-0.002-0.052-0.005-0.078-0-0.006-0.002-0.011-0.002-0.017z"></path>
<path d="M5.295 24.729c0.467 0 0.846-0.378 0.846-0.845 0-0.025-0.002-0.052-0.005-0.078 0-0.006-0.001-0.011-0.001-0.017-0.057-0.56-0.567-1.603-0.763-1.989-0.032-0.063-0.122-0.063-0.154 0-0.198 0.384-0.709 1.426-0.763 1.992-0 0.004-0.001 0.008-0.001 0.011-0.003 0.028-0.004 0.055-0.004 0.081 0 0.467 0.378 0.845 0.846 0.845z"></path>
</svg>
