<?xml version="1.0" encoding="utf-8"?>
<!-- Generated by IcoMoon.io -->
<!DOCTYPE svg PUBLIC "-//W3C//DTD SVG 1.1//EN" "http://www.w3.org/Graphics/SVG/1.1/DTD/svg11.dtd">
<svg version="1.1" xmlns="http://www.w3.org/2000/svg" xmlns:xlink="http://www.w3.org/1999/xlink" width="14" height="32" viewBox="0 0 14 32">
<path d="M4.983 29.179c-0.057-0.56-0.567-1.603-0.763-1.99-0.032-0.062-0.122-0.062-0.154 0-0.198 0.385-0.709 1.427-0.763 1.993-0.001 0.003-0.001 0.008-0.001 0.011-0.003 0.028-0.004 0.055-0.004 0.080 0 0.468 0.378 0.846 0.846 0.846 0.467 0 0.846-0.378 0.846-0.846 0-0.024-0.002-0.050-0.005-0.077-0-0.006-0.002-0.012-0.002-0.017z"></path>
<path d="M7.292 29.179c-0.056-0.56-0.566-1.603-0.762-1.99-0.032-0.062-0.122-0.062-0.154 0-0.198 0.385-0.709 1.427-0.764 1.993 0 0.003-0.001 0.008-0.001 0.011-0.003 0.028-0.004 0.055-0.004 0.080 0 0.468 0.378 0.846 0.846 0.846 0.467 0 0.845-0.378 0.845-0.846 0-0.024-0.002-0.050-0.004-0.077 0-0.006-0.001-0.012-0.002-0.017z"></path>
<path d="M13.85 31.303l-2.797-7.393h0.714c0.17 0 0.331-0.085 0.426-0.226 0.096-0.142 0.115-0.322 0.052-0.48l-4.825-12.079c-0.078-0.196-0.268-0.324-0.478-0.324s-0.4 0.128-0.479 0.324l-4.825 12.080c-0.063 0.158-0.044 0.338 0.052 0.48 0.096 0.141 0.256 0.226 0.426 0.226h0.714l-2.797 7.393c-0.060 0.158-0.038 0.336 0.058 0.475s0.254 0.222 0.423 0.222h12.853c0.169 0 0.328-0.082 0.424-0.223 0.096-0.139 0.118-0.317 0.058-0.475zM6.942 12.704l4.065 10.176h-8.131l4.066-10.176zM1.261 30.97l2.671-7.060h6.020l2.671 7.060h-11.361z"></path>
<path d="M6.892 22.030c0.467 0 0.846-0.379 0.846-0.846 0-0.025-0.002-0.052-0.004-0.078-0.001-0.006-0.001-0.011-0.002-0.017-0.056-0.559-0.567-1.603-0.763-1.989-0.031-0.063-0.122-0.063-0.154 0-0.197 0.385-0.708 1.426-0.763 1.992-0.001 0.004-0.002 0.008-0.002 0.011-0.003 0.028-0.004 0.055-0.004 0.080 0 0.468 0.379 0.846 0.846 0.846z"></path>
</svg>
