<?xml version="1.0" encoding="utf-8"?>
<!-- Generated by IcoMoon.io -->
<!DOCTYPE svg PUBLIC "-//W3C//DTD SVG 1.1//EN" "http://www.w3.org/Graphics/SVG/1.1/DTD/svg11.dtd">
<svg version="1.1" xmlns="http://www.w3.org/2000/svg" xmlns:xlink="http://www.w3.org/1999/xlink" width="14" height="32" viewBox="0 0 14 32">
<path d="M3.991 22.014c0.166-0.036 0.34 0.012 0.464 0.13l9.423 8.967c0.152 0.145 0.201 0.368 0.123 0.564-0.078 0.195-0.268 0.324-0.479 0.324l-13.006-0.007c-0.171 0-0.33-0.084-0.425-0.226-0.097-0.142-0.116-0.321-0.053-0.48l3.585-8.96c0.063-0.159 0.201-0.275 0.369-0.312zM12.233 30.969l-7.938-7.554-3.019 7.547 10.957 0.006z"></path>
<path d="M4.103 28.676c0.004 0.001 0.008 0.002 0.011 0.003 0.548 0.16 1.703 0.073 2.134 0.031 0.071-0.006 0.103-0.090 0.057-0.143-0.286-0.326-1.064-1.187-1.563-1.448-0.006-0.002-0.011-0.005-0.016-0.007-0.025-0.013-0.048-0.025-0.071-0.034-0.434-0.173-0.926 0.038-1.099 0.472-0.174 0.434 0.037 0.927 0.47 1.1 0.024 0.009 0.050 0.017 0.076 0.026z"></path>
</svg>
