<?xml version="1.0" encoding="utf-8"?>
<!-- Generated by IcoMoon.io -->
<!DOCTYPE svg PUBLIC "-//W3C//DTD SVG 1.1//EN" "http://www.w3.org/Graphics/SVG/1.1/DTD/svg11.dtd">
<svg version="1.1" xmlns="http://www.w3.org/2000/svg" xmlns:xlink="http://www.w3.org/1999/xlink" width="14" height="32" viewBox="0 0 14 32">
<path d="M10.416 22.326l3.585 8.96c0.063 0.159 0.044 0.338-0.053 0.48s-0.254 0.226-0.425 0.226l-13.007 0.007c-0.211 0-0.4-0.129-0.478-0.324-0.078-0.196-0.030-0.419 0.123-0.564l9.423-8.967c0.124-0.118 0.298-0.166 0.464-0.13 0.169 0.037 0.306 0.153 0.37 0.312zM12.761 30.963l-3.019-7.547-7.938 7.554 10.957-0.006z"></path>
<path d="M9.934 28.676c-0.004 0.001-0.008 0.002-0.011 0.003-0.547 0.16-1.703 0.073-2.134 0.031-0.071-0.006-0.103-0.090-0.057-0.143 0.286-0.326 1.064-1.187 1.563-1.448 0.006-0.002 0.011-0.005 0.016-0.007 0.025-0.013 0.048-0.025 0.071-0.034 0.434-0.173 0.926 0.038 1.099 0.472 0.174 0.434-0.037 0.927-0.47 1.1-0.024 0.009-0.050 0.017-0.076 0.026z"></path>
</svg>
