<?xml version="1.0" encoding="utf-8"?>
<!-- Generated by IcoMoon.io -->
<!DOCTYPE svg PUBLIC "-//W3C//DTD SVG 1.1//EN" "http://www.w3.org/Graphics/SVG/1.1/DTD/svg11.dtd">
<svg version="1.1" xmlns="http://www.w3.org/2000/svg" xmlns:xlink="http://www.w3.org/1999/xlink" width="18" height="32" viewBox="0 0 18 32">
<path d="M3.291 29.193c0-0.003 0-0.008 0.001-0.011 0.054-0.567 0.566-1.608 0.763-1.993 0.032-0.062 0.122-0.062 0.155 0 0.196 0.386 0.706 1.429 0.763 1.99 0 0.005 0.001 0.011 0.002 0.017 0.003 0.027 0.004 0.054 0.004 0.078 0 0.467-0.378 0.845-0.846 0.845-0.467 0-0.845-0.378-0.845-0.845 0.001-0.026 0.002-0.054 0.005-0.081z"></path>
<path d="M5.601 29.193c0-0.003 0-0.008 0.002-0.011 0.054-0.567 0.566-1.608 0.763-1.993 0.032-0.062 0.122-0.062 0.154 0 0.197 0.386 0.707 1.429 0.763 1.99 0.001 0.005 0.001 0.011 0.002 0.017 0.003 0.027 0.004 0.054 0.004 0.078 0 0.467-0.379 0.845-0.846 0.845-0.467 0-0.846-0.378-0.846-0.845 0-0.026 0.002-0.054 0.005-0.081z"></path>
<path d="M7.91 29.193c0-0.003 0-0.008 0.001-0.011 0.055-0.567 0.566-1.608 0.763-1.993 0.032-0.062 0.123-0.062 0.155 0 0.197 0.386 0.707 1.429 0.763 1.99 0.001 0.005 0.001 0.011 0.002 0.017 0.002 0.027 0.004 0.054 0.004 0.078 0 0.467-0.379 0.845-0.846 0.845s-0.846-0.378-0.846-0.845c0-0.026 0.002-0.054 0.004-0.081z"></path>
<path d="M17.954 31.285l-4.926-11.689h0.778c0.171 0 0.331-0.084 0.426-0.226s0.116-0.321 0.053-0.48l-4.826-12.080c-0.078-0.196-0.268-0.324-0.479-0.324s-0.4 0.128-0.479 0.324l-4.826 12.080c-0.063 0.159-0.044 0.338 0.052 0.48s0.255 0.226 0.426 0.226h0.778l-4.926 11.689c-0.067 0.16-0.050 0.341 0.046 0.485s0.257 0.23 0.429 0.23h16.997c0.172 0 0.333-0.087 0.429-0.23s0.113-0.325 0.046-0.485zM4.916 18.565l4.065-10.176 4.065 10.176h-8.13zM1.259 30.97l4.793-11.375h5.859l4.793 11.375h-15.444z"></path>
<path d="M8.090 16.789c0-0.004 0.001-0.008 0.001-0.012 0.055-0.566 0.566-1.607 0.763-1.992 0.032-0.063 0.122-0.063 0.154 0 0.197 0.386 0.707 1.429 0.764 1.989 0 0.006 0.001 0.012 0.001 0.017 0.002 0.027 0.004 0.054 0.004 0.078 0 0.467-0.378 0.846-0.845 0.846s-0.846-0.379-0.846-0.846c0-0.026 0.002-0.054 0.004-0.080z"></path>
</svg>
