<?xml version="1.0" encoding="utf-8"?>
<!-- Generated by IcoMoon.io -->
<!DOCTYPE svg PUBLIC "-//W3C//DTD SVG 1.1//EN" "http://www.w3.org/Graphics/SVG/1.1/DTD/svg11.dtd">
<svg version="1.1" xmlns="http://www.w3.org/2000/svg" xmlns:xlink="http://www.w3.org/1999/xlink" width="33" height="32" viewBox="0 0 33 32">
<path d="M13.958 25.94c0 0.535-0.434 0.971-0.971 0.971s-0.972-0.435-0.972-0.971c0-0.536 0.435-0.971 0.972-0.971s0.971 0.435 0.971 0.971z"></path>
<path d="M16.425 25.94c0 0.535-0.435 0.971-0.971 0.971s-0.971-0.435-0.971-0.971c0-0.536 0.435-0.971 0.971-0.971s0.971 0.435 0.971 0.971z"></path>
<path d="M18.889 25.94c0 0.535-0.434 0.971-0.971 0.971s-0.972-0.435-0.972-0.971c0-0.536 0.435-0.971 0.972-0.971s0.971 0.435 0.971 0.971z"></path>
<path d="M22.066 29.711h-13.344c-0.279 0-0.541-0.14-0.695-0.373s-0.181-0.528-0.072-0.786l6.73-15.817c0.131-0.307 0.433-0.507 0.767-0.507 0.001 0 0.002 0 0.002 0 0.335 0.001 0.637 0.203 0.767 0.512l6.613 15.817c0.107 0.257 0.079 0.552-0.076 0.784-0.153 0.233-0.413 0.372-0.692 0.372zM9.983 28.045h10.831l-5.368-12.839-5.463 12.839z"></path>
<path d="M24.14 32h-23.323c-0.451 0-0.817-0.365-0.817-0.817v-22.576c0-0.23 0.096-0.439 0.249-0.587l8.047-7.789c0.152-0.148 0.355-0.23 0.568-0.23h23.323c0.452 0 0.817 0.366 0.817 0.817v22.576c0 0.221-0.089 0.433-0.249 0.588l-8.047 7.789c-0.146 0.142-0.346 0.23-0.568 0.23zM1.634 30.366h21.689v-20.942h-21.689v20.942zM24.958 8.953v20.301l6.412-6.207v-20.301l-6.412 6.207zM2.836 7.789h20.974l6.358-6.155h-20.974l-6.358 6.155z"></path>
<path d="M7.806 13.95c0-0.536-0.435-0.971-0.971-0.971s-0.971 0.435-0.971 0.971 0.435 0.971 0.971 0.971 0.971-0.434 0.971-0.971z"></path>
<path d="M8.137 25.608c-0.002 0-0.006 0-0.008 0-0.348-0.003-0.658-0.222-0.776-0.551l-4.801-13.309c-0.092-0.256-0.054-0.54 0.102-0.762s0.41-0.355 0.682-0.355h9.9c0.275 0 0.531 0.136 0.686 0.361s0.19 0.514 0.092 0.771l-5.099 13.31c-0.123 0.323-0.433 0.535-0.778 0.535zM4.522 12.299l3.638 10.085 3.864-10.085h-7.503z"></path>
<path d="M10.229 13.95c0-0.536-0.435-0.971-0.971-0.971s-0.971 0.435-0.971 0.971 0.434 0.971 0.971 0.971c0.535 0 0.971-0.434 0.971-0.971z"></path>
</svg>
