<?xml version="1.0" encoding="utf-8"?>
<!-- Generated by IcoMoon.io -->
<!DOCTYPE svg PUBLIC "-//W3C//DTD SVG 1.1//EN" "http://www.w3.org/Graphics/SVG/1.1/DTD/svg11.dtd">
<svg version="1.1" xmlns="http://www.w3.org/2000/svg" xmlns:xlink="http://www.w3.org/1999/xlink" width="33" height="32" viewBox="0 0 33 32">
<path d="M10.543 25.035c0 0.536-0.435 0.971-0.971 0.971s-0.971-0.435-0.971-0.971c0-0.536 0.435-0.971 0.971-0.971s0.971 0.435 0.971 0.971z"></path>
<path d="M13.008 25.035c0 0.536-0.435 0.971-0.971 0.971s-0.971-0.435-0.971-0.971c0-0.536 0.435-0.971 0.971-0.971s0.971 0.435 0.971 0.971z"></path>
<path d="M15.474 25.035c0 0.536-0.435 0.971-0.971 0.971s-0.971-0.435-0.971-0.971c0-0.536 0.435-0.971 0.971-0.971s0.971 0.435 0.971 0.971z"></path>
<path d="M5.307 28.807h13.344c0.279 0 0.539-0.139 0.694-0.371s0.183-0.527 0.076-0.784l-6.613-15.817c-0.129-0.309-0.431-0.511-0.767-0.512-0.001 0-0.002 0-0.002 0-0.334 0-0.636 0.199-0.767 0.507l-6.731 15.816c-0.109 0.257-0.083 0.553 0.072 0.786s0.415 0.373 0.695 0.373zM12.031 14.302l5.368 12.839h-10.831l5.463-12.839z"></path>
<path d="M32.187 0h-23.323c-0.212 0-0.416 0.083-0.568 0.23l-8.047 7.789c-0.154 0.149-0.249 0.356-0.249 0.587v22.576c0 0.452 0.366 0.817 0.817 0.817h23.323c0.221 0 0.422-0.087 0.568-0.23l8.047-7.789c0.159-0.154 0.249-0.366 0.249-0.588v-22.576c0-0.451-0.366-0.817-0.817-0.817zM23.323 30.366h-21.689v-20.942h21.689v20.942zM23.81 7.789h-20.974l6.358-6.155h20.974l-6.358 6.155zM31.37 23.047l-6.412 6.207v-20.301l6.412-6.207v20.301z"></path>
</svg>
