<?xml version="1.0" encoding="utf-8"?>
<!-- Generated by IcoMoon.io -->
<!DOCTYPE svg PUBLIC "-//W3C//DTD SVG 1.1//EN" "http://www.w3.org/Graphics/SVG/1.1/DTD/svg11.dtd">
<svg version="1.1" xmlns="http://www.w3.org/2000/svg" xmlns:xlink="http://www.w3.org/1999/xlink" width="33" height="32" viewBox="0 0 33 32">
<path d="M12.061 24.238c0 0.536-0.435 0.971-0.971 0.971s-0.971-0.435-0.971-0.971c0-0.536 0.435-0.971 0.971-0.971s0.971 0.435 0.971 0.971z"></path>
<path d="M7.592 27.556h9.899c0.275 0 0.531-0.135 0.687-0.36 0.154-0.226 0.189-0.515 0.091-0.771l-5.098-13.309c-0.123-0.323-0.433-0.535-0.779-0.535-0.002 0-0.006 0-0.008 0-0.348 0.003-0.658 0.223-0.775 0.551l-4.8 13.309c-0.092 0.256-0.054 0.539 0.102 0.762s0.41 0.355 0.682 0.355zM12.416 15.804l3.864 10.085h-7.501l3.637-10.085z"></path>
<path d="M14.483 24.238c0 0.536-0.435 0.971-0.971 0.971s-0.971-0.435-0.971-0.971c0-0.536 0.435-0.971 0.971-0.971s0.971 0.435 0.971 0.971z"></path>
<path d="M32.187 0h-23.323c-0.212 0-0.416 0.083-0.568 0.23l-8.047 7.789c-0.154 0.149-0.249 0.356-0.249 0.587v22.576c0 0.452 0.366 0.817 0.817 0.817h23.323c0.221 0 0.422-0.087 0.568-0.23l8.047-7.789c0.159-0.154 0.249-0.366 0.249-0.588v-22.576c0-0.451-0.366-0.817-0.817-0.817zM23.323 30.366h-21.689v-20.942h21.689v20.942zM23.81 7.789h-20.974l6.358-6.155h20.974l-6.358 6.155zM31.37 23.047l-6.412 6.207v-20.301l6.412-6.207v20.301z"></path>
</svg>
