<?xml version="1.0" encoding="utf-8"?>
<!-- Generated by IcoMoon.io -->
<!DOCTYPE svg PUBLIC "-//W3C//DTD SVG 1.1//EN" "http://www.w3.org/Graphics/SVG/1.1/DTD/svg11.dtd">
<svg version="1.1" xmlns="http://www.w3.org/2000/svg" xmlns:xlink="http://www.w3.org/1999/xlink" width="33" height="32" viewBox="0 0 33 32">
<path d="M24.14 32h-23.323c-0.451 0-0.817-0.365-0.817-0.817v-22.576c0-0.23 0.096-0.439 0.249-0.587l8.047-7.789c0.152-0.148 0.355-0.23 0.568-0.23h23.323c0.452 0 0.817 0.366 0.817 0.817v22.576c0 0.221-0.089 0.433-0.249 0.588l-8.047 7.789c-0.146 0.142-0.346 0.23-0.568 0.23zM1.634 30.366h21.689v-20.942h-21.689v20.942zM24.958 8.953v20.301l6.412-6.207v-20.301l-6.412 6.207zM2.836 7.789h20.974l6.358-6.155h-20.974l-6.358 6.155z"></path>
<path d="M11.821 24.19c0 0.536 0.434 0.971 0.971 0.971s0.972-0.434 0.972-0.971-0.435-0.971-0.972-0.971c-0.537-0.001-0.971 0.434-0.971 0.971z"></path>
<path d="M16.244 27.436h-6.904c-0.269 0-0.521-0.129-0.677-0.348s-0.199-0.498-0.112-0.753l3.201-9.421c0.113-0.331 0.42-0.557 0.77-0.565 0.352-0.020 0.668 0.203 0.795 0.528l3.703 9.421c0.101 0.256 0.068 0.547-0.087 0.774-0.155 0.229-0.413 0.364-0.689 0.364zM10.504 25.77h4.517l-2.422-6.165-2.094 6.165z"></path>
</svg>
