<?xml version="1.0" encoding="utf-8"?>
<!-- Generated by IcoMoon.io -->
<!DOCTYPE svg PUBLIC "-//W3C//DTD SVG 1.1//EN" "http://www.w3.org/Graphics/SVG/1.1/DTD/svg11.dtd">
<svg version="1.1" xmlns="http://www.w3.org/2000/svg" xmlns:xlink="http://www.w3.org/1999/xlink" width="33" height="32" viewBox="0 0 33 32">
<path d="M12.994 25.036c0 0.535-0.434 0.971-0.971 0.971s-0.972-0.435-0.972-0.971c0-0.536 0.435-0.971 0.972-0.971s0.971 0.434 0.971 0.971z"></path>
<path d="M15.46 25.036c0 0.535-0.435 0.971-0.971 0.971s-0.971-0.435-0.971-0.971c0-0.536 0.435-0.971 0.971-0.971s0.971 0.434 0.971 0.971z"></path>
<path d="M17.926 25.036c0 0.535-0.434 0.971-0.971 0.971s-0.972-0.435-0.972-0.971c0-0.536 0.435-0.971 0.972-0.971s0.971 0.434 0.971 0.971z"></path>
<path d="M21.102 28.807h-13.344c-0.279 0-0.541-0.14-0.695-0.373s-0.181-0.528-0.072-0.786l6.73-15.817c0.131-0.307 0.433-0.507 0.767-0.507 0.001 0 0.002 0 0.002 0 0.335 0.001 0.637 0.203 0.767 0.512l6.613 15.817c0.107 0.257 0.079 0.552-0.076 0.784-0.153 0.233-0.413 0.372-0.692 0.372zM9.019 27.141h10.831l-5.368-12.839-5.463 12.839z"></path>
<path d="M24.14 32h-23.323c-0.451 0-0.817-0.365-0.817-0.817v-22.576c0-0.23 0.096-0.439 0.249-0.587l8.047-7.789c0.152-0.148 0.355-0.23 0.568-0.23h23.323c0.452 0 0.817 0.366 0.817 0.817v22.576c0 0.221-0.089 0.433-0.249 0.588l-8.047 7.789c-0.146 0.142-0.346 0.23-0.568 0.23zM1.634 30.366h21.689v-20.942h-21.689v20.942zM24.958 8.953v20.301l6.412-6.207v-20.301l-6.412 6.207zM2.836 7.789h20.974l6.358-6.155h-20.974l-6.358 6.155z"></path>
<path d="M6.496 13.91c0-0.536 0.434-0.971 0.971-0.971s0.972 0.434 0.972 0.971-0.435 0.971-0.972 0.971c-0.537 0.001-0.971-0.434-0.971-0.971z"></path>
<path d="M7.216 21.752c-0.007 0-0.013 0-0.020 0-0.35-0.008-0.657-0.234-0.77-0.565l-3.201-9.422c-0.087-0.255-0.045-0.535 0.112-0.753s0.409-0.348 0.677-0.348h6.904c0.275 0 0.534 0.136 0.689 0.364s0.188 0.517 0.087 0.774l-3.703 9.422c-0.125 0.319-0.433 0.528-0.776 0.528zM5.178 12.33l2.094 6.165 2.422-6.164h-4.517z"></path>
</svg>
