<?xml version="1.0" encoding="utf-8"?>
<!-- Generated by IcoMoon.io -->
<!DOCTYPE svg PUBLIC "-//W3C//DTD SVG 1.1//EN" "http://www.w3.org/Graphics/SVG/1.1/DTD/svg11.dtd">
<svg version="1.1" xmlns="http://www.w3.org/2000/svg" xmlns:xlink="http://www.w3.org/1999/xlink" width="18" height="32" viewBox="0 0 18 32">
<path d="M4.162 24.518c0.468 0 0.846-0.379 0.846-0.846 0-0.025-0.002-0.052-0.004-0.078-0-0.005-0.001-0.011-0.002-0.017-0.023-0.225-0.12-0.527-0.239-0.834-0.178-0.457-0.407-0.924-0.524-1.154-0.019-0.037-0.055-0.046-0.091-0.039-0.025 0.005-0.050 0.012-0.063 0.039-0.185 0.359-0.64 1.289-0.743 1.872-0.007 0.040-0.017 0.083-0.021 0.119-0.001 0.004-0.001 0.008-0.001 0.012-0.003 0.027-0.004 0.054-0.004 0.080 0 0.419 0.305 0.764 0.704 0.832 0.046 0.008 0.093 0.015 0.141 0.015z"></path>
<path d="M6.472 24.518c0.467 0 0.846-0.379 0.846-0.846 0-0.025-0.002-0.052-0.004-0.078-0.001-0.005-0.001-0.011-0.002-0.017-0.056-0.559-0.567-1.603-0.763-1.989-0.032-0.063-0.121-0.063-0.154 0-0.198 0.384-0.709 1.426-0.763 1.992-0.001 0.004-0.001 0.008-0.001 0.012-0.003 0.027-0.005 0.054-0.005 0.080-0 0.467 0.379 0.846 0.845 0.846z"></path>
<path d="M8.781 24.518c0.467 0 0.846-0.379 0.846-0.846 0-0.025-0.002-0.052-0.004-0.078-0.001-0.005-0.001-0.011-0.002-0.017-0.056-0.559-0.566-1.603-0.763-1.989-0.032-0.063-0.122-0.063-0.155 0-0.197 0.384-0.708 1.426-0.763 1.992-0 0.004-0 0.008-0.001 0.012-0.003 0.027-0.004 0.054-0.004 0.080 0 0.467 0.379 0.846 0.846 0.846z"></path>
<path d="M15.915 26.398h1.594c0.172 0 0.333-0.087 0.429-0.23s0.113-0.326 0.046-0.485l-8.498-20.17c-0.080-0.191-0.268-0.315-0.475-0.315s-0.395 0.124-0.475 0.315l-8.498 20.17c-0.067 0.159-0.050 0.341 0.046 0.485s0.257 0.23 0.429 0.23h1.593l-2.067 4.907c-0.067 0.16-0.050 0.341 0.046 0.485s0.257 0.23 0.429 0.23h16.997c0.172 0 0.333-0.087 0.429-0.23s0.113-0.326 0.046-0.485l-2.068-4.907zM1.288 25.368l7.722-18.328 7.722 18.328h-15.444zM1.288 30.99l1.935-4.592h11.575l1.935 4.592h-15.444z"></path>
<path d="M5.002 29.199c-0.057-0.56-0.567-1.603-0.763-1.989-0.032-0.063-0.122-0.063-0.154 0-0.198 0.385-0.709 1.426-0.763 1.992-0.001 0.004-0.001 0.008-0.001 0.011-0.003 0.028-0.004 0.055-0.004 0.080 0 0.467 0.378 0.846 0.845 0.846s0.846-0.379 0.846-0.846c0-0.025-0.002-0.051-0.004-0.078-0.001-0.005-0.002-0.011-0.002-0.017z"></path>
<path d="M7.312 29.199c-0.056-0.56-0.567-1.603-0.763-1.989-0.032-0.063-0.121-0.063-0.154 0-0.198 0.385-0.709 1.426-0.763 1.992-0.001 0.004-0.001 0.008-0.001 0.011-0.003 0.028-0.005 0.055-0.005 0.080 0 0.467 0.379 0.846 0.846 0.846s0.846-0.379 0.846-0.846c0-0.025-0.002-0.051-0.004-0.078-0.002-0.005-0.002-0.011-0.003-0.017z"></path>
<path d="M9.621 29.199c-0.056-0.56-0.566-1.603-0.763-1.989-0.032-0.063-0.122-0.063-0.155 0-0.197 0.385-0.708 1.426-0.763 1.992-0 0.004-0 0.008-0.001 0.011-0.003 0.028-0.004 0.055-0.004 0.080 0 0.467 0.379 0.846 0.846 0.846s0.846-0.379 0.846-0.846c0-0.025-0.002-0.051-0.004-0.078-0.001-0.005-0.001-0.011-0.002-0.017z"></path>
</svg>
