<?xml version="1.0" encoding="utf-8"?>
<!-- Generated by IcoMoon.io -->
<!DOCTYPE svg PUBLIC "-//W3C//DTD SVG 1.1//EN" "http://www.w3.org/Graphics/SVG/1.1/DTD/svg11.dtd">
<svg version="1.1" xmlns="http://www.w3.org/2000/svg" xmlns:xlink="http://www.w3.org/1999/xlink" width="18" height="32" viewBox="0 0 18 32">
<path d="M18.383 31.285l-8.696-20.64c-0.080-0.191-0.268-0.315-0.474-0.315-0.208 0-0.395 0.124-0.475 0.315l-8.697 20.64c-0.067 0.16-0.050 0.341 0.045 0.485s0.257 0.231 0.43 0.231h17.393c0.172 0 0.334-0.087 0.429-0.23s0.112-0.325 0.046-0.485zM16.128 30.97l-6.443-15.144c-0.080-0.19-0.268-0.313-0.473-0.313-0.207 0-0.393 0.123-0.474 0.313l-4.308 10.125h1.12l3.662-8.608 5.797 13.627h-13.718l7.921-18.799 7.921 18.799h-1.004z"></path>
<path d="M4.171 27.089c-0.202 0.395-0.725 1.46-0.781 2.039-0.001 0.004-0.001 0.007-0.001 0.011-0.003 0.029-0.004 0.057-0.004 0.083 0 0.327 0.183 0.609 0.451 0.756 0.124 0.067 0.263 0.11 0.414 0.11 0.478 0 0.865-0.387 0.865-0.865 0-0.025-0.002-0.053-0.004-0.080-0-0.006-0.001-0.011-0.002-0.017-0.032-0.32-0.209-0.791-0.394-1.215-0.146-0.337-0.298-0.645-0.387-0.82-0.033-0.065-0.125-0.065-0.158-0.001z"></path>
<path d="M6.128 29.938c0.139 0.095 0.306 0.15 0.486 0.15 0.478 0 0.865-0.387 0.865-0.865 0-0.025-0.002-0.053-0.004-0.080-0-0.006-0.001-0.011-0.002-0.017-0.035-0.345-0.238-0.868-0.438-1.317-0.132-0.297-0.263-0.561-0.343-0.718-0.033-0.065-0.125-0.065-0.158-0.001-0.202 0.395-0.725 1.46-0.781 2.039-0 0.004-0.001 0.007-0.001 0.011-0.003 0.029-0.004 0.057-0.004 0.083 0 0.298 0.151 0.561 0.38 0.716z"></path>
<path d="M8.977 30.088c0.478 0 0.865-0.387 0.865-0.865 0-0.025-0.001-0.053-0.004-0.080 0-0.006-0.001-0.011-0.001-0.017-0.058-0.573-0.579-1.641-0.781-2.035-0.033-0.065-0.125-0.065-0.158-0.001-0.202 0.395-0.725 1.46-0.781 2.039-0.001 0.004-0.001 0.007-0.001 0.011-0.003 0.029-0.004 0.057-0.004 0.083 0 0.478 0.387 0.865 0.865 0.865z"></path>
</svg>
