<?xml version="1.0" encoding="utf-8"?>
<!-- Generated by IcoMoon.io -->
<!DOCTYPE svg PUBLIC "-//W3C//DTD SVG 1.1//EN" "http://www.w3.org/Graphics/SVG/1.1/DTD/svg11.dtd">
<svg version="1.1" xmlns="http://www.w3.org/2000/svg" xmlns:xlink="http://www.w3.org/1999/xlink" width="23" height="32" viewBox="0 0 23 32">
<path d="M0.041 31.283l6.602-15.662c0.066-0.159 0.209-0.274 0.378-0.306 0.17-0.032 0.344 0.023 0.465 0.146l15.285 15.664c0.144 0.148 0.186 0.369 0.106 0.56s-0.268 0.315-0.475 0.315l-21.886-0.002c-0.173-0.001-0.333-0.087-0.428-0.23s-0.112-0.326-0.046-0.485zM7.29 16.736l-5.998 14.231 19.888 0.003-13.89-14.234z"></path>
<path d="M8.138 19.299c0.003 0.002 0.007 0.003 0.010 0.006 0.501 0.27 1.261 1.145 1.54 1.477 0.045 0.054 0.010 0.137-0.060 0.142-0.432 0.031-1.591 0.096-2.13-0.070-0.005-0.002-0.011-0.004-0.016-0.005-0.026-0.008-0.051-0.017-0.074-0.027-0.431-0.182-0.633-0.677-0.451-1.108 0.181-0.431 0.677-0.632 1.107-0.45 0.024 0.010 0.048 0.022 0.073 0.035z"></path>
<path d="M7.24 21.428c0.003 0.001 0.008 0.003 0.010 0.005 0.501 0.27 1.262 1.146 1.54 1.477 0.045 0.055 0.010 0.138-0.060 0.142-0.432 0.032-1.591 0.097-2.129-0.070-0.006-0.001-0.011-0.003-0.017-0.005-0.026-0.008-0.050-0.016-0.074-0.026-0.431-0.181-0.633-0.678-0.451-1.108 0.181-0.43 0.677-0.632 1.107-0.45 0.024 0.010 0.048 0.022 0.073 0.036z"></path>
<path d="M6.344 23.555c0.003 0.002 0.007 0.004 0.010 0.005 0.5 0.27 1.261 1.146 1.539 1.478 0.045 0.054 0.011 0.137-0.059 0.142-0.433 0.031-1.593 0.097-2.13-0.070-0.006-0.001-0.011-0.004-0.017-0.005-0.025-0.008-0.050-0.017-0.074-0.026-0.431-0.182-0.632-0.678-0.451-1.108 0.181-0.43 0.677-0.632 1.107-0.451 0.024 0.011 0.048 0.023 0.074 0.036z"></path>
</svg>
