<?xml version="1.0" encoding="utf-8"?>
<!-- Generated by IcoMoon.io -->
<!DOCTYPE svg PUBLIC "-//W3C//DTD SVG 1.1//EN" "http://www.w3.org/Graphics/SVG/1.1/DTD/svg11.dtd">
<svg version="1.1" xmlns="http://www.w3.org/2000/svg" xmlns:xlink="http://www.w3.org/1999/xlink" width="33" height="32" viewBox="0 0 33 32">
<path d="M24.14 32h-23.323c-0.451 0-0.817-0.365-0.817-0.817v-22.576c0-0.23 0.096-0.439 0.249-0.587l8.047-7.789c0.152-0.148 0.355-0.23 0.568-0.23h23.323c0.452 0 0.817 0.366 0.817 0.817v22.576c0 0.221-0.089 0.433-0.249 0.588l-8.047 7.789c-0.146 0.142-0.346 0.23-0.568 0.23zM1.634 30.366h21.689v-20.942h-21.689v20.942zM24.958 8.953v20.301l6.412-6.207v-20.301l-6.412 6.207zM2.836 7.789h20.974l6.358-6.155h-20.974l-6.358 6.155z"></path>
<path d="M13.892 19.634c0 1.128-0.915 2.043-2.043 2.043s-2.043-0.915-2.043-2.043c0-1.128 0.915-2.043 2.043-2.043s2.043 0.915 2.043 2.043z"></path>
</svg>
