<?xml version="1.0" encoding="utf-8"?>
<!-- Generated by IcoMoon.io -->
<!DOCTYPE svg PUBLIC "-//W3C//DTD SVG 1.1//EN" "http://www.w3.org/Graphics/SVG/1.1/DTD/svg11.dtd">
<svg version="1.1" xmlns="http://www.w3.org/2000/svg" xmlns:xlink="http://www.w3.org/1999/xlink" width="33" height="32" viewBox="0 0 33 32">
<path d="M25.037 13.091c-1.624 0-3.133 0.496-4.385 1.342v-0.007c2.172-1.392 3.614-3.826 3.614-6.597 0-4.324-3.508-7.83-7.832-7.83s-7.832 3.506-7.832 7.83c0 2.772 1.442 5.205 3.614 6.597v0.007c-1.252-0.847-2.758-1.342-4.385-1.342-4.326 0-7.832 3.506-7.832 7.829 0 4.326 3.506 7.832 7.83 7.832 3.168 0 5.894-1.882 7.128-4.586l-2.802 7.834h8.559l-2.804-7.834c1.234 2.704 3.958 4.586 7.126 4.586 4.324 0 7.83-3.506 7.83-7.832 0.002-4.324-3.503-7.829-7.829-7.829z"></path>
</svg>
