<?xml version="1.0" encoding="utf-8"?>
<!-- Generated by IcoMoon.io -->
<!DOCTYPE svg PUBLIC "-//W3C//DTD SVG 1.1//EN" "http://www.w3.org/Graphics/SVG/1.1/DTD/svg11.dtd">
<svg version="1.1" xmlns="http://www.w3.org/2000/svg" xmlns:xlink="http://www.w3.org/1999/xlink" width="32" height="32" viewBox="0 0 32 32">
<path d="M15.956 0c-8.813 0-15.956 7.163-15.956 16.002 0 8.835 7.143 15.998 15.956 15.998 8.815 0 15.958-7.163 15.958-15.998 0.002-8.839-7.143-16.002-15.958-16.002zM22.684 20.686c-0.246 0.441-0.699 0.685-1.163 0.685-0.222 0-0.441-0.050-0.651-0.172l-5.577-3.128c-0.609-0.34-0.991-0.989-0.991-1.688v-9.92c0-0.739 0.601-1.338 1.334-1.338 0.735 0 1.336 0.599 1.336 1.338v9.484l5.201 2.92c0.639 0.362 0.869 1.179 0.509 1.818z"></path>
</svg>
