<?xml version="1.0" encoding="utf-8"?>
<!-- Generated by IcoMoon.io -->
<!DOCTYPE svg PUBLIC "-//W3C//DTD SVG 1.1//EN" "http://www.w3.org/Graphics/SVG/1.1/DTD/svg11.dtd">
<svg version="1.1" xmlns="http://www.w3.org/2000/svg" xmlns:xlink="http://www.w3.org/1999/xlink" width="24" height="32" viewBox="0 0 24 32">
<path d="M12.149 0c-0.433 1.803-1.101 3.425-2.004 4.841-0.902 1.421-2.507 3.173-4.822 5.267-2.312 2.098-3.778 3.705-4.396 4.822-0.618 1.119-0.925 2.255-0.925 3.407 0 1.604 0.536 2.937 1.604 4.009 1.068 1.068 2.372 1.604 3.91 1.604 2.749 0 4.877-2.012 6.282-4.199-0.108 2.396-0.501 4.309-1.192 5.746-0.742 1.547-1.882 2.824-3.418 3.842-1.035 0.686-2.9 1.286-5.591 1.803l-0.199 0.858h21.499l-0.198-0.858c-2.692-0.518-4.556-1.117-5.591-1.803-1.538-1.019-2.675-2.295-3.418-3.842-0.691-1.432-1.084-3.345-1.191-5.735 1.403 2.187 3.542 4.188 6.289 4.188 1.538 0 2.84-0.536 3.91-1.604 1.070-1.072 1.604-2.405 1.604-4.009 0-1.152-0.307-2.288-0.925-3.407-0.62-1.117-2.085-2.725-4.4-4.822-2.317-2.094-3.921-3.846-4.821-5.267-0.903-1.415-1.571-3.038-2.006-4.841z"></path>
</svg>
