<?xml version="1.0" encoding="utf-8"?>
<!-- Generated by IcoMoon.io -->
<!DOCTYPE svg PUBLIC "-//W3C//DTD SVG 1.1//EN" "http://www.w3.org/Graphics/SVG/1.1/DTD/svg11.dtd">
<svg version="1.1" xmlns="http://www.w3.org/2000/svg" xmlns:xlink="http://www.w3.org/1999/xlink" width="30" height="32" viewBox="0 0 30 32">
<path d="M20.509 14.553l4.743-4.951c0.388 0.25 0.842 0.405 1.336 0.433 1.533 0.088 2.847-1.082 2.935-2.613 0.090-1.535-1.082-2.849-2.615-2.937-1.531-0.090-2.846 1.082-2.937 2.615-0.037 0.648 0.153 1.258 0.5 1.753l-4.556 4.754c-0.914-1.17-2.283-1.966-3.845-2.118v-5.982c1.277-0.252 2.239-1.374 2.239-2.727 0-1.535-1.246-2.78-2.782-2.78s-2.779 1.246-2.779 2.78c0 1.353 0.964 2.475 2.239 2.727v5.983c-1.173 0.115-2.236 0.59-3.083 1.318l-4.845-4.782c0.358-0.692 0.255-1.559-0.322-2.141-0.719-0.717-1.882-0.717-2.601 0-0.717 0.715-0.717 1.878 0 2.599 0.587 0.585 1.468 0.684 2.164 0.312l4.858 4.796c-0.745 0.944-1.195 2.139-1.195 3.436 0 0.152 0.011 0.303 0.023 0.453l-4.509 0.21c-0.312-1.263-1.48-2.171-2.826-2.107-1.535 0.072-2.719 1.373-2.648 2.905 0.072 1.535 1.374 2.72 2.907 2.648 1.35-0.062 2.428-1.077 2.618-2.364l4.65-0.218c0.248 0.863 0.696 1.639 1.291 2.275l-4.066 3.846c-0.666-0.377-1.519-0.315-2.121 0.222-0.759 0.675-0.825 1.836-0.15 2.594s1.836 0.825 2.594 0.15c0.631-0.562 0.775-1.457 0.419-2.18l4.14-3.913c0.775 0.557 1.698 0.923 2.701 1.020v5.839c-0.749 0.233-1.297 0.93-1.297 1.757 0 1.013 0.825 1.836 1.838 1.836 1.017 0 1.838-0.823 1.838-1.836 0-0.826-0.546-1.524-1.295-1.757v-5.839c0.846-0.081 1.637-0.358 2.328-0.777l5.732 4.717c-0.21 0.391-0.331 0.839-0.331 1.313 0 1.535 1.244 2.78 2.78 2.78 1.535 0 2.78-1.246 2.78-2.78 0-1.536-1.246-2.779-2.78-2.779-0.67 0-1.284 0.236-1.762 0.627l-5.527-4.546c0.867-0.798 1.484-1.866 1.707-3.075l4.001-0.185c0.266 0.738 0.99 1.249 1.815 1.21 1.013-0.044 1.799-0.907 1.75-1.921s-0.907-1.795-1.922-1.748c-0.825 0.039-1.499 0.617-1.693 1.376l-3.859 0.181c-0.007-0.867-0.217-1.683-0.58-2.41z"></path>
</svg>
