<?xml version="1.0" encoding="utf-8"?>
<!-- Generated by IcoMoon.io -->
<!DOCTYPE svg PUBLIC "-//W3C//DTD SVG 1.1//EN" "http://www.w3.org/Graphics/SVG/1.1/DTD/svg11.dtd">
<svg version="1.1" xmlns="http://www.w3.org/2000/svg" xmlns:xlink="http://www.w3.org/1999/xlink" width="32" height="32" viewBox="0 0 32 32">
<path d="M31.159 0.812c-1.908-1.908-5.981-0.446-12.067 4.282-0.943-0.232-1.915-0.366-2.913-0.366-3.249 0-6.298 1.264-8.591 3.561-3.155 3.155-4.196 7.626-3.147 11.665-4.199 5.624-5.446 9.409-3.636 11.221 0.55 0.55 1.266 0.827 2.159 0.827 1.538 0 3.589-0.824 6.205-2.473 0.705-0.444 1.439-0.952 2.191-1.494 1.504 0.654 3.136 1.001 4.826 1.001 3.243 0 6.298-1.264 8.589-3.559 3.58-3.58 4.447-8.854 2.62-13.261 0.791-1.054 1.509-2.078 2.119-3.045 2.607-4.128 3.141-6.861 1.643-8.359zM3.221 28.774c0.094-0.71 0.72-2.444 2.718-5.367 0.467 0.735 1.013 1.43 1.653 2.070 0.253 0.251 0.516 0.487 0.786 0.712-2.509 1.698-4.311 2.501-5.157 2.584zM11.096 24.191c-0.429-0.298-0.839-0.623-1.217-0.999-3.476-3.48-3.478-9.141-0.002-12.617 1.681-1.683 3.922-2.611 6.304-2.611 2.384 0 4.621 0.928 6.306 2.614 0.402 0.402 0.756 0.839 1.069 1.3-1.494 1.849-3.298 3.897-5.544 6.143-2.563 2.563-4.879 4.577-6.916 6.17zM22.489 23.19c-1.683 1.685-3.922 2.611-6.302 2.611-0.586 0-1.158-0.059-1.721-0.168 1.914-1.579 3.889-3.378 5.833-5.323 1.674-1.676 3.232-3.368 4.641-5.029 0.096 0.523 0.157 1.060 0.157 1.604 0 2.382-0.924 4.622-2.609 6.306zM25.594 9.2c-0.257-0.314-0.529-0.618-0.822-0.909-0.678-0.68-1.432-1.256-2.229-1.749 3.429-2.471 5.429-3.221 6.213-3.319-0.091 0.933-1.090 3.051-3.162 5.977z"></path>
</svg>
