<?xml version="1.0" encoding="utf-8"?>
<!-- Generated by IcoMoon.io -->
<!DOCTYPE svg PUBLIC "-//W3C//DTD SVG 1.1//EN" "http://www.w3.org/Graphics/SVG/1.1/DTD/svg11.dtd">
<svg version="1.1" xmlns="http://www.w3.org/2000/svg" xmlns:xlink="http://www.w3.org/1999/xlink" width="32" height="32" viewBox="0 0 32 32">
<path d="M31.568 16.732l-6.226 3.407c-2.191 1.2-3.988 3.001-5.192 5.192l-3.403 6.226c-0.323 0.59-1.165 0.59-1.491 0l-3.405-6.226c-1.196-2.186-2.989-3.98-5.175-5.175l-6.237-3.401c-0.585-0.321-0.585-1.167 0-1.489l6.226-3.405c2.195-1.2 3.996-3.001 5.192-5.196l3.405-6.224c0.323-0.587 1.163-0.587 1.487-0.002l3.417 6.243c1.187 2.178 2.981 3.967 5.155 5.155l6.247 3.409c0.59 0.323 0.59 1.167 0 1.487z"></path>
</svg>
