<?xml version="1.0" encoding="utf-8"?>
<!-- Generated by IcoMoon.io -->
<!DOCTYPE svg PUBLIC "-//W3C//DTD SVG 1.1//EN" "http://www.w3.org/Graphics/SVG/1.1/DTD/svg11.dtd">
<svg version="1.1" xmlns="http://www.w3.org/2000/svg" xmlns:xlink="http://www.w3.org/1999/xlink" width="32" height="32" viewBox="0 0 32 32">
<path d="M17.006 12.656l-0.724 0.722 1.356 1.355 0.721-0.722c0.671-0.671 0.777-1.242 0.319-1.699-0.459-0.458-0.99-0.339-1.672 0.345z"></path>
<path d="M27.78 0h-17.644c-1.129 0-2.189 0.439-2.984 1.236l-6.419 6.421c-0.453 0.453-0.734 1.079-0.734 1.771v20.068c0 1.383 1.122 2.505 2.503 2.505h20.068c0.692 0 1.322-0.282 1.774-0.738l6.417-6.419c0.8-0.797 1.237-1.855 1.237-2.983v-17.644c0.001-2.326-1.893-4.218-4.22-4.218zM9.235 26.902l-4.473-2.588c-0.398-0.24-0.484-0.644-0.27-1.003 0.12-0.205 0.306-0.313 0.516-0.332 0.159-0.016 0.329 0.014 0.505 0.12l3.213 1.964-1.852-3.113c-0.266-0.439-0.219-0.83 0.126-1.173 0.339-0.339 0.738-0.381 1.174-0.114l3.107 1.847-1.964-3.213c-0.246-0.405-0.147-0.81 0.212-1.023 0.358-0.212 0.762-0.126 1.001 0.273l2.593 4.479c0.252 0.451 0.212 0.837-0.112 1.163-0.338 0.338-0.732 0.37-1.167 0.104l-3.241-1.911 1.905 3.259c0.266 0.438 0.226 0.823-0.112 1.163-0.082 0.082-0.167 0.144-0.258 0.189-0.21 0.104-0.445 0.096-0.695 0-0.069-0.027-0.137-0.050-0.209-0.092zM15.303 21.191c0.186 0.412 0.047 0.762-0.29 0.943-0.353 0.179-0.738 0.073-0.917-0.332l-2.204-5.031c-0.186-0.411-0.12-0.77 0.186-1.074 0.312-0.312 0.671-0.379 1.076-0.199l5.045 2.203c0.402 0.179 0.508 0.565 0.332 0.917-0.202 0.372-0.511 0.471-0.944 0.292l-0.843-0.352-1.8 1.798 0.359 0.835zM19.44 14.745l-0.894 0.896 0.984 0.983c0.325 0.325 0.31 0.738 0.026 1.023s-0.689 0.292-1.014-0.033l-3.528-3.525c-0.396-0.398-0.396-0.863 0.001-1.26l1.252-1.253c0.552-0.551 1.13-0.851 1.739-0.903 0.612-0.053 1.157 0.159 1.635 0.637 0.483 0.485 0.71 1.043 0.671 1.678-0.020 0.316-0.103 0.618-0.246 0.907-0.146 0.296-0.356 0.579-0.627 0.851zM21.773 28.341v-18.099h-17.256c-0.534 0-0.966-0.432-0.966-0.966s0.432-0.966 0.966-0.966h17.82l5.135-5.151c0.378-0.379 0.988-0.378 1.366-0.001s0.378 0.987 0 1.366l-5.135 5.151v18.664c0 0.534-0.433 0.966-0.967 0.966s-0.963-0.431-0.963-0.964zM4.715 31.476c-0.266 0.039-0.482-0.049-0.629-0.197-0.103-0.104-0.176-0.236-0.186-0.393-0.062-0.379 0.15-0.697 0.609-0.77 0.637-0.067 1.156-0.306 1.548-0.697 0.505-0.506 0.598-1.023 0.306-1.313-0.247-0.247-0.631-0.193-1.144 0.157l-0.598 0.412c-1.074 0.744-2.097 0.835-2.867 0.067-0.432-0.433-0.605-0.937-0.518-1.526 0.082-0.598 0.358-1.129 0.83-1.599 0.565-0.565 1.202-0.911 1.898-1.023 0.451-0.080 0.791 0.207 0.817 0.591 0.059 0.379-0.153 0.684-0.612 0.77-0.498 0.073-0.915 0.279-1.255 0.618-0.418 0.419-0.498 0.868-0.223 1.142 0.252 0.253 0.635 0.2 1.16-0.165l0.458-0.326c0.243-0.176 0.472-0.293 0.698-0.402 0.827-0.396 1.543-0.335 2.153 0.172 0.054 0.046 0.116 0.064 0.169 0.117 0.425 0.425 0.595 0.941 0.516 1.539s-0.391 1.174-0.95 1.732c-0.428 0.428-0.918 0.728-1.469 0.917-0.226 0.077-0.462 0.14-0.711 0.177z"></path>
<path d="M14.395 19.154l1.154-1.154-2.099-0.943z"></path>
</svg>
