<?xml version="1.0" encoding="utf-8"?>
<!-- Generated by IcoMoon.io -->
<!DOCTYPE svg PUBLIC "-//W3C//DTD SVG 1.1//EN" "http://www.w3.org/Graphics/SVG/1.1/DTD/svg11.dtd">
<svg version="1.1" xmlns="http://www.w3.org/2000/svg" xmlns:xlink="http://www.w3.org/1999/xlink" width="18" height="32" viewBox="0 0 18 32">
<path d="M17.978 31.259l-3.726-8.843h1.168c0.175 0 0.34-0.085 0.439-0.23 0.1-0.144 0.123-0.328 0.060-0.492l-3.244-8.579h1.149c0.178 0 0.342-0.088 0.441-0.235 0.098-0.146 0.12-0.333 0.054-0.496l-4.812-12.048c-0.081-0.203-0.278-0.336-0.496-0.336s-0.415 0.133-0.495 0.336l-4.813 12.048c-0.066 0.164-0.045 0.351 0.054 0.496 0.099 0.147 0.264 0.235 0.441 0.235h1.15l-3.246 8.58c-0.062 0.164-0.040 0.348 0.060 0.492 0.1 0.144 0.264 0.23 0.44 0.23h1.167l-3.726 8.843c-0.069 0.164-0.051 0.352 0.047 0.502s0.266 0.239 0.445 0.239h16.952c0.18 0 0.346-0.089 0.446-0.239s0.116-0.337 0.046-0.502zM4.985 12.048l4.026-10.076 4.025 10.076h-8.050zM3.373 21.35l3.115-8.234h5.044l3.116 8.234h-11.275zM1.338 30.933l3.588-8.516h8.169l3.587 8.516h-15.344z"></path>
<path d="M5.013 29.167c-0.057-0.558-0.566-1.599-0.761-1.985-0.031-0.063-0.122-0.063-0.154 0-0.197 0.384-0.707 1.423-0.761 1.987 0 0.004-0.001 0.008-0.001 0.011-0.002 0.028-0.004 0.055-0.004 0.081 0 0.466 0.378 0.843 0.844 0.843 0.465 0 0.843-0.377 0.843-0.843 0-0.025-0.002-0.051-0.004-0.078 0-0.005-0-0.011-0.001-0.016z"></path>
<path d="M7.316 29.167c-0.056-0.558-0.565-1.599-0.761-1.985-0.032-0.063-0.122-0.063-0.155 0-0.197 0.384-0.707 1.423-0.761 1.987-0.001 0.004-0.001 0.008-0.001 0.011-0.004 0.028-0.005 0.055-0.005 0.081 0 0.466 0.378 0.843 0.843 0.843s0.844-0.377 0.844-0.843c0-0.025-0.002-0.051-0.004-0.078 0-0.005-0-0.011-0.001-0.016z"></path>
<path d="M9.619 29.167c-0.056-0.558-0.565-1.599-0.76-1.985-0.032-0.063-0.121-0.063-0.155 0-0.197 0.384-0.706 1.423-0.761 1.987 0 0.004-0.001 0.008-0.001 0.011-0.002 0.028-0.004 0.055-0.004 0.081 0 0.466 0.378 0.843 0.844 0.843s0.844-0.377 0.844-0.843c0-0.025-0.002-0.051-0.005-0.078 0-0.005-0.001-0.011-0.002-0.016z"></path>
<path d="M5.778 20.395c0.129 0.078 0.279 0.127 0.441 0.127 0.466 0 0.843-0.378 0.843-0.844 0-0.025-0.002-0.052-0.005-0.079 0-0.006-0-0.011-0.002-0.016-0.032-0.327-0.221-0.818-0.41-1.247-0.135-0.304-0.269-0.577-0.35-0.737-0.031-0.062-0.121-0.062-0.154 0-0.197 0.384-0.707 1.422-0.761 1.987-0 0.004-0 0.008-0.002 0.011-0.002 0.028-0.004 0.055-0.004 0.081 0 0.303 0.162 0.568 0.403 0.717z"></path>
<path d="M8.522 20.522c0.466 0 0.845-0.378 0.845-0.844 0-0.025-0.002-0.052-0.005-0.079 0-0.006-0.001-0.011-0.002-0.016-0.056-0.559-0.564-1.599-0.761-1.984-0.032-0.062-0.122-0.062-0.154 0-0.197 0.384-0.707 1.422-0.761 1.987-0 0.004-0 0.008-0.001 0.011-0.002 0.028-0.005 0.055-0.005 0.081 0 0.466 0.378 0.844 0.844 0.844z"></path>
<path d="M8.541 11.105c0.124 0.072 0.267 0.116 0.42 0.116 0.184 0 0.353-0.061 0.491-0.161 0.213-0.153 0.352-0.402 0.352-0.683 0-0.024-0.001-0.050-0.004-0.078-0.001-0.005-0.001-0.010-0.002-0.016-0.056-0.559-0.565-1.599-0.761-1.985-0.032-0.063-0.122-0.063-0.154 0-0.197 0.384-0.707 1.422-0.761 1.988-0.001 0.004-0.001 0.007-0.001 0.011-0.003 0.027-0.004 0.055-0.004 0.080 0 0.312 0.171 0.582 0.423 0.728z"></path>
</svg>
