<?xml version="1.0" encoding="utf-8"?>
<!-- Generated by IcoMoon.io -->
<!DOCTYPE svg PUBLIC "-//W3C//DTD SVG 1.1//EN" "http://www.w3.org/Graphics/SVG/1.1/DTD/svg11.dtd">
<svg version="1.1" xmlns="http://www.w3.org/2000/svg" xmlns:xlink="http://www.w3.org/1999/xlink" width="32" height="32" viewBox="0 0 32 32">
<path d="M15.625 14.105l-0.391 0.391 2.828 2.83 0.399-0.399c1.163-1.162 1.252-2.224 0.29-3.186-0.921-0.923-1.964-0.797-3.127 0.365z"></path>
<path d="M27.78 0h-17.644c-1.129 0-2.189 0.439-2.984 1.236l-6.419 6.421c-0.453 0.453-0.734 1.079-0.734 1.771v20.068c0 1.383 1.122 2.505 2.503 2.505h20.068c0.692 0 1.322-0.282 1.774-0.738l6.417-6.419c0.8-0.797 1.237-1.855 1.237-2.983v-17.644c0.001-2.326-1.893-4.218-4.22-4.218zM19.756 12.739c0.123 0.122 0.209 0.253 0.31 0.382 0.566 0.725 0.797 1.526 0.679 2.264-0.103 0.581-0.34 1.126-0.679 1.625-0.159 0.237-0.338 0.468-0.551 0.678l-0.903 0.904c-0.396 0.398-0.864 0.396-1.26 0l-3.386-3.386c-0.398-0.398-0.398-0.863 0.001-1.26l0.903-0.903c0.528-0.529 1.119-0.898 1.767-1.111 0.165-0.054 0.33-0.104 0.502-0.137 0.445-0.090 0.92-0.040 1.389 0.137 0.425 0.162 0.844 0.425 1.227 0.807zM16.76 20.445l-2.024 2.026c-0.398 0.396-0.863 0.396-1.262-0.001l-3.53-3.53c-0.326-0.328-0.319-0.73-0.031-1.016 0.285-0.285 0.688-0.293 1.014 0.031l3.252 3.253 1.674-1.672c0.299-0.299 0.677-0.293 0.941-0.029 0.259 0.262 0.266 0.639-0.033 0.938zM7.848 19.988c0.285-0.285 0.688-0.292 1.014 0.031l3.671 3.671c0.325 0.325 0.319 0.731 0.033 1.016-0.286 0.286-0.691 0.292-1.017-0.033l-3.669-3.669c-0.325-0.328-0.318-0.73-0.031-1.016zM21.773 28.341v-18.099h-17.256c-0.534 0-0.966-0.432-0.966-0.966s0.432-0.966 0.966-0.966h17.82l5.135-5.151c0.378-0.379 0.988-0.378 1.366-0.001s0.378 0.987 0 1.366l-5.135 5.151v18.664c0 0.534-0.433 0.966-0.967 0.966s-0.963-0.431-0.963-0.964zM1.116 26.777c0.006-0.010 0.006-0.021 0.011-0.030 0.212-0.359 0.617-0.456 1.021-0.21l3.213 1.964-1.852-3.113c-0.266-0.439-0.219-0.83 0.126-1.176 0.339-0.338 0.738-0.378 1.174-0.112l3.107 1.844-1.964-3.211c-0.246-0.405-0.147-0.808 0.212-1.023 0.358-0.21 0.762-0.126 1.001 0.272l2.593 4.48c0.106 0.189 0.149 0.365 0.152 0.531 0.004 0.23-0.076 0.442-0.263 0.629-0.338 0.339-0.732 0.372-1.167 0.106l-3.241-1.911 1.905 3.259c0.266 0.438 0.226 0.823-0.112 1.162-0.326 0.328-0.718 0.358-1.163 0.1l-4.473-2.589c-0.129-0.077-0.212-0.175-0.276-0.279-0.126-0.21-0.13-0.458-0.004-0.692z"></path>
</svg>
