<?xml version="1.0" encoding="utf-8"?>
<!-- Generated by IcoMoon.io -->
<!DOCTYPE svg PUBLIC "-//W3C//DTD SVG 1.1//EN" "http://www.w3.org/Graphics/SVG/1.1/DTD/svg11.dtd">
<svg version="1.1" xmlns="http://www.w3.org/2000/svg" xmlns:xlink="http://www.w3.org/1999/xlink" width="32" height="32" viewBox="0 0 32 32">
<path d="M14.557 16.453l-0.724 0.724 1.355 1.353 0.724-0.724c0.671-0.669 0.777-1.24 0.319-1.699-0.458-0.456-0.988-0.338-1.674 0.346z"></path>
<path d="M27.789 0h-17.658c-1.127 0.001-2.184 0.442-2.978 1.236l-6.419 6.421c-0.453 0.453-0.734 1.079-0.734 1.771v20.068c0 1.379 1.113 2.495 2.49 2.503h20.096c0.687-0.004 1.31-0.283 1.759-0.737l6.417-6.419c0.797-0.794 1.232-1.847 1.235-2.968v-17.672c-0.004-2.317-1.89-4.2-4.209-4.204zM11.887 25.616c0.326 0.325 0.312 0.737 0.027 1.021s-0.69 0.292-1.014-0.033l-3.247-3.246-0.91 0.908c-0.299 0.299-0.678 0.293-0.936 0.033-0.266-0.266-0.272-0.642 0.027-0.941l2.815-2.814c0.298-0.299 0.678-0.293 0.943-0.029 0.258 0.259 0.265 0.637-0.033 0.936l-0.917 0.917 3.244 3.247zM17.080 20.422c0.323 0.326 0.312 0.738 0.029 1.023-0.286 0.285-0.691 0.29-1.017-0.033l-3.523-3.525c-0.399-0.398-0.399-0.863 0-1.26l1.255-1.253c0.551-0.551 1.127-0.85 1.738-0.903s1.154 0.159 1.631 0.638c0.486 0.485 0.712 1.041 0.671 1.678-0.039 0.638-0.329 1.22-0.868 1.759l-0.897 0.895 0.983 0.98zM15.016 22.487c0.325 0.326 0.319 0.731 0.033 1.017-0.285 0.285-0.69 0.29-1.016-0.033l-3.669-3.671c-0.328-0.326-0.319-0.73-0.033-1.014 0.285-0.286 0.69-0.293 1.014 0.031l3.671 3.669zM21.773 28.341v-18.099h-17.256c-0.534 0-0.966-0.432-0.966-0.966s0.432-0.966 0.966-0.966h17.82l5.135-5.151c0.378-0.379 0.988-0.378 1.366-0.001s0.378 0.987 0 1.366l-5.135 5.151v18.664c0 0.534-0.433 0.966-0.967 0.966s-0.963-0.431-0.963-0.964z"></path>
</svg>
