<?xml version="1.0" encoding="utf-8"?>
<!-- Generated by IcoMoon.io -->
<!DOCTYPE svg PUBLIC "-//W3C//DTD SVG 1.1//EN" "http://www.w3.org/Graphics/SVG/1.1/DTD/svg11.dtd">
<svg version="1.1" xmlns="http://www.w3.org/2000/svg" xmlns:xlink="http://www.w3.org/1999/xlink" width="32" height="32" viewBox="0 0 32 32">
<path d="M16.153 14.265l-0.724 0.724 1.353 1.355 0.722-0.724c0.671-0.671 0.777-1.242 0.319-1.699-0.453-0.459-0.987-0.339-1.671 0.345z"></path>
<path d="M11.146 19.151c-0.425 0.425-0.625 0.903-0.598 1.448 0.033 0.539 0.252 1.009 0.665 1.42 0.416 0.418 0.888 0.637 1.426 0.669 0.536 0.033 1.016-0.165 1.446-0.596 0.419-0.418 0.618-0.895 0.578-1.426-0.033-0.539-0.253-1.009-0.671-1.428-0.405-0.405-0.883-0.618-1.428-0.642-0.542-0.030-1.013 0.149-1.419 0.555z"></path>
<path d="M27.78 0h-17.644c-1.129 0-2.189 0.439-2.984 1.236l-6.419 6.421c-0.453 0.453-0.734 1.079-0.734 1.771v20.068c0 1.383 1.122 2.505 2.503 2.505h20.068c0.692 0 1.322-0.282 1.774-0.738l6.417-6.419c0.8-0.797 1.237-1.855 1.237-2.983v-17.644c0.001-2.326-1.893-4.218-4.22-4.218zM18.675 18.234c0.328 0.325 0.313 0.737 0.029 1.021s-0.689 0.292-1.014-0.033l-3.528-3.525c-0.396-0.398-0.396-0.863 0.001-1.26l1.253-1.253c0.552-0.551 1.129-0.85 1.739-0.903s1.156 0.159 1.634 0.637c0.483 0.485 0.71 1.043 0.671 1.678-0.039 0.638-0.332 1.222-0.871 1.759l-0.894 0.895 0.98 0.983zM14.997 18.236c0.695 0.697 1.034 1.499 1.029 2.423-0.014 0.914-0.359 1.709-1.037 2.387-0.671 0.671-1.466 1.016-2.375 1.024-0.917-0.003-1.719-0.34-2.416-1.037-0.69-0.689-1.029-1.495-1.023-2.403 0.001-0.917 0.346-1.712 1.017-2.383 0.677-0.678 1.473-1.021 2.395-1.029 0.915-0.013 1.719 0.328 2.41 1.017zM5.914 26.321l1.954-1.951-1.336-1.335c-0.325-0.326-0.318-0.731-0.031-1.016s0.688-0.292 1.016 0.033l3.669 3.671c0.326 0.325 0.319 0.73 0.033 1.014s-0.691 0.292-1.016-0.033l-1.433-1.432-1.951 1.953 1.433 1.433c0.326 0.325 0.32 0.73 0.033 1.014-0.285 0.285-0.691 0.292-1.016-0.033l-3.671-3.669c-0.325-0.326-0.318-0.731-0.031-1.016s0.688-0.292 1.016 0.033l0.426 0.428 0.905 0.905zM21.773 28.341v-18.099h-17.256c-0.534 0-0.966-0.432-0.966-0.966s0.432-0.966 0.966-0.966h17.82l5.135-5.151c0.378-0.379 0.988-0.378 1.366-0.001s0.378 0.987 0 1.366l-5.135 5.151v18.664c0 0.534-0.433 0.966-0.967 0.966s-0.963-0.431-0.963-0.964z"></path>
</svg>
