<?xml version="1.0" encoding="utf-8"?>
<!-- Generated by IcoMoon.io -->
<!DOCTYPE svg PUBLIC "-//W3C//DTD SVG 1.1//EN" "http://www.w3.org/Graphics/SVG/1.1/DTD/svg11.dtd">
<svg version="1.1" xmlns="http://www.w3.org/2000/svg" xmlns:xlink="http://www.w3.org/1999/xlink" width="32" height="32" viewBox="0 0 32 32">
<path d="M27.78 0h-17.644c-1.129 0-2.189 0.439-2.984 1.236l-6.419 6.421c-0.453 0.453-0.734 1.079-0.734 1.771v20.068c0 1.383 1.122 2.505 2.503 2.505h20.068c0.692 0 1.322-0.282 1.774-0.738l6.417-6.419c0.8-0.797 1.237-1.855 1.237-2.983v-17.644c0.001-2.326-1.893-4.218-4.22-4.218zM14.877 18.737c0.446 0.446 0.95 0.671 1.495 0.671s1.014-0.206 1.42-0.611c0.381-0.379 0.598-0.782 0.671-1.227l-0.565-0.564-0.578 0.578c-0.292 0.292-0.677 0.277-0.921 0.033-0.259-0.26-0.266-0.638 0.027-0.93l0.917-0.917c0.396-0.398 0.861-0.398 1.26 0l0.917 0.916c0.226 0.226 0.325 0.458 0.299 0.71-0.087 0.897-0.461 1.681-1.117 2.337-0.682 0.684-1.486 1.034-2.402 1.061-0.91 0.020-1.718-0.325-2.415-1.023-0.724-0.724-1.076-1.539-1.047-2.442 0.020-0.91 0.378-1.705 1.073-2.403 0.605-0.604 1.316-0.943 2.126-1.008 0.449-0.027 0.762 0.245 0.768 0.624 0.033 0.391-0.206 0.684-0.677 0.73-0.511 0.033-0.956 0.239-1.342 0.624-0.366 0.365-0.551 0.817-0.565 1.36-0.016 0.532 0.205 1.030 0.655 1.482zM14.818 22.487c0.325 0.325 0.319 0.731 0.033 1.016-0.286 0.286-0.691 0.292-1.017-0.033l-3.669-3.669c-0.326-0.328-0.319-0.73-0.031-1.016 0.285-0.285 0.688-0.292 1.014 0.031l3.671 3.671zM5.291 23.703l0.903-0.903c0.665-0.664 1.42-1.089 2.27-1.247 0.851-0.173 1.812 0.14 2.615 0.941 0.815 0.815 1.127 1.778 0.988 2.649-0.119 0.668-0.405 1.292-0.834 1.848-0.12 0.156-0.249 0.31-0.393 0.453l-0.903 0.903c-0.398 0.399-0.864 0.399-1.262 0l-3.385-3.383c-0.179-0.179-0.265-0.372-0.283-0.566-0.004-0.043-0.004-0.087 0-0.132 0.019-0.192 0.104-0.385 0.283-0.564zM21.773 28.341v-18.099h-17.256c-0.534 0-0.966-0.432-0.966-0.966s0.432-0.966 0.966-0.966h17.82l5.135-5.151c0.378-0.379 0.988-0.378 1.366-0.001s0.378 0.987 0 1.366l-5.135 5.151v18.664c0 0.534-0.433 0.966-0.967 0.966s-0.963-0.431-0.963-0.964z"></path>
<path d="M9.387 27.083l0.399-0.399c1.16-1.162 1.252-2.224 0.29-3.186-0.923-0.924-1.964-0.798-3.127 0.363l-0.391 0.392 2.828 2.829z"></path>
</svg>
