<?xml version="1.0" encoding="utf-8"?>
<!-- Generated by IcoMoon.io -->
<!DOCTYPE svg PUBLIC "-//W3C//DTD SVG 1.1//EN" "http://www.w3.org/Graphics/SVG/1.1/DTD/svg11.dtd">
<svg version="1.1" xmlns="http://www.w3.org/2000/svg" xmlns:xlink="http://www.w3.org/1999/xlink" width="32" height="32" viewBox="0 0 32 32">
<path d="M7.487 23.107l0.941 2.099 1.156-1.154z"></path>
<path d="M27.78 0h-17.644c-1.129 0-2.189 0.439-2.984 1.236l-6.419 6.421c-0.453 0.453-0.734 1.079-0.734 1.771v20.068c0 1.383 1.122 2.505 2.503 2.505h20.068c0.692 0 1.322-0.282 1.774-0.738l6.417-6.419c0.8-0.797 1.237-1.855 1.237-2.983v-17.644c0.001-2.326-1.893-4.218-4.22-4.218zM20.065 17.153c-0.033 0.076-0.082 0.147-0.146 0.212-0.285 0.286-0.689 0.292-1.014-0.033l-2.151-2.15 0.718 2.296c0.106 0.346 0.039 0.637-0.202 0.877-0.239 0.237-0.531 0.305-0.863 0.199l-2.303-0.724 2.151 2.151c0.325 0.325 0.319 0.73 0.033 1.014-0.285 0.286-0.69 0.292-1.016-0.033l-3.629-3.631c-0.366-0.366-0.386-0.797-0.033-1.149 0.26-0.259 0.565-0.339 0.903-0.226l3.512 1.149-1.143-3.518c-0.112-0.338-0.039-0.637 0.226-0.901 0.352-0.352 0.782-0.333 1.149 0.033l3.631 3.631c0.082 0.080 0.14 0.165 0.179 0.25v0.552zM9.34 27.242c0.185 0.412 0.044 0.764-0.292 0.944-0.353 0.179-0.738 0.073-0.917-0.332l-2.203-5.032c-0.187-0.411-0.12-0.768 0.185-1.074 0.313-0.312 0.671-0.379 1.076-0.199l5.044 2.203c0.403 0.179 0.509 0.565 0.332 0.917-0.2 0.372-0.512 0.471-0.943 0.29l-0.844-0.35-1.797 1.798 0.252 0.585 0.107 0.25zM9.507 18.34c0.285-0.285 0.69-0.292 1.014 0.033l3.671 3.671c0.325 0.325 0.319 0.73 0.033 1.014-0.285 0.286-0.69 0.292-1.016-0.033l-3.669-3.669c-0.326-0.325-0.318-0.73-0.033-1.016zM21.773 28.341v-18.099h-17.256c-0.534 0-0.966-0.432-0.966-0.966s0.432-0.966 0.966-0.966h17.82l5.135-5.151c0.378-0.379 0.988-0.378 1.366-0.001s0.378 0.987 0 1.366l-5.135 5.151v18.664c0 0.534-0.433 0.966-0.967 0.966s-0.963-0.431-0.963-0.964z"></path>
</svg>
