<?xml version="1.0" encoding="utf-8"?>
<!-- Generated by IcoMoon.io -->
<!DOCTYPE svg PUBLIC "-//W3C//DTD SVG 1.1//EN" "http://www.w3.org/Graphics/SVG/1.1/DTD/svg11.dtd">
<svg version="1.1" xmlns="http://www.w3.org/2000/svg" xmlns:xlink="http://www.w3.org/1999/xlink" width="32" height="32" viewBox="0 0 32 32">
<path fill="#000" d="M5.795 1.306h5.097v5.097h-5.097v-5.097z"></path>
<path fill="#000" d="M16.004 1.306h5.097v5.097h-5.097v-5.097z"></path>
<path fill="#000" d="M26.198 1.306h5.112v5.097h-5.112v-5.097z"></path>
<path fill="#000" d="M10.892 6.403h5.112v5.112h-5.112v-5.112z"></path>
<path fill="#000" d="M21.101 6.403h5.097v5.112h-5.097v-5.112z"></path>
<path fill="#000" d="M0.691 6.403h5.104v5.119h-5.104v-5.119z"></path>
<path fill="#000" d="M5.795 11.522h5.104v5.097h-5.104v-5.097z"></path>
<path fill="#000" d="M16.004 11.515h5.089v5.105h-5.089v-5.104z"></path>
<path fill="#000" d="M26.198 11.515h5.112v5.105h-5.112v-5.104z"></path>
<path fill="#000" d="M21.093 16.619h5.112v5.097h-5.112v-5.097z"></path>
<path fill="#000" d="M10.899 16.619h5.104v5.097h-5.104v-5.097z"></path>
<path fill="#000" d="M0.691 16.619h5.097v5.097h-5.097v-5.097z"></path>
<path fill="#000" d="M5.788 21.716h5.112v5.112h-5.112v-5.112z"></path>
<path fill="#000" d="M16.004 21.716h5.097v5.112h-5.097v-5.112z"></path>
<path fill="#000" d="M26.205 21.716h5.104v5.112h-5.105v-5.112z"></path>
<path fill="#000" d="M0.691 26.828h5.104v5.097h-5.104v-5.097z"></path>
<path fill="#000" d="M10.899 26.828h5.104v5.097h-5.104v-5.097z"></path>
<path fill="#000" d="M21.101 26.828h5.105v5.097h-5.105v-5.097z"></path>
</svg>
