<?xml version="1.0" encoding="utf-8"?>
<!-- Generated by IcoMoon.io -->
<!DOCTYPE svg PUBLIC "-//W3C//DTD SVG 1.1//EN" "http://www.w3.org/Graphics/SVG/1.1/DTD/svg11.dtd">
<svg version="1.1" xmlns="http://www.w3.org/2000/svg" xmlns:xlink="http://www.w3.org/1999/xlink" width="32" height="32" viewBox="0 0 32 32">
<path fill="#000" d="M0.615 1.231v30.769h30.769v-30.769h-30.769zM31.316 2.94h-1.641v-1.641h1.641v1.641zM26.569 26.812c-0.016-0.161-0.143-0.288-0.304-0.304v-1.329h1.641v1.633h-1.337zM4.094 26.812v-1.633h1.641v1.329c-0.161 0.016-0.288 0.143-0.304 0.304h-1.337zM5.431 6.418c0.016 0.161 0.143 0.288 0.304 0.304v1.329h-1.641v-1.633h1.337zM26.197 26.509c-0.161 0.016-0.288 0.143-0.304 0.304h-1.329v-1.633h1.633v1.329zM16.338 26.812c-0.016-0.161-0.143-0.288-0.304-0.304v-1.329h1.641v1.633h-1.337zM14.325 26.812v-1.633h1.641v1.329c-0.161 0.016-0.288 0.143-0.304 0.304h-1.337zM6.107 26.812c-0.016-0.161-0.143-0.288-0.304-0.304v-1.329h1.633v1.633h-1.329zM5.803 6.722c0.161-0.016 0.288-0.143 0.304-0.304h1.329v1.633h-1.633v-1.329zM15.662 6.418c0.016 0.161 0.143 0.288 0.304 0.304v1.329h-1.641v-1.633h1.337zM17.675 6.418v1.633h-1.641v-1.329c0.161-0.016 0.288-0.143 0.304-0.304h1.337zM15.966 16.277c-0.161 0.016-0.288 0.143-0.304 0.304h-1.337v-1.641h1.641v1.337zM15.662 16.65c0.016 0.161 0.143 0.288 0.304 0.304v1.337h-1.641v-1.641h1.337zM16.034 16.953c0.161-0.016 0.288-0.143 0.304-0.304h1.337v1.641h-1.641v-1.337zM16.338 16.581c-0.016-0.161-0.143-0.288-0.304-0.304v-1.337h1.641v1.641h-1.337zM16.034 14.872v-1.633h1.641v1.633h-1.641zM15.966 14.872h-1.641v-1.633h1.641v1.633zM14.257 14.872h-1.633v-1.633h1.633v1.633zM14.257 14.941v1.641h-1.633v-1.641h1.633zM14.257 16.65v1.641h-1.633v-1.641h1.633zM14.257 18.358v1.633h-1.633v-1.633h1.633zM14.325 18.358h1.641v1.633h-1.641v-1.633zM16.034 18.358h1.641v1.633h-1.641v-1.633zM17.743 18.358h1.633v1.633h-1.633v-1.633zM17.743 18.29v-1.641h1.633v1.641h-1.633zM17.743 16.581v-1.641h1.633v1.641h-1.633zM17.743 14.872v-1.633h1.633v1.633h-1.633zM17.743 13.171v-1.641h1.633v1.641h-1.633zM17.675 13.171h-1.641v-1.641h1.641v1.641zM15.966 13.171h-1.641v-1.641h1.641v1.641zM14.257 13.171h-1.633v-1.641h1.633v1.641zM12.555 13.171h-1.641v-1.641h1.641v1.641zM12.555 13.239v1.633h-1.641v-1.633h1.641zM12.555 14.941v1.641h-1.641v-1.641h1.641zM12.555 16.65v1.641h-1.641v-1.641h1.641zM12.555 18.358v1.633h-1.641v-1.633h1.641zM12.555 20.060v1.641h-1.641v-1.641h1.641zM12.624 20.060h1.633v1.641h-1.633v-1.641zM14.325 20.060h1.641v1.641h-1.641v-1.641zM16.034 20.060h1.641v1.641h-1.641v-1.641zM17.743 20.060h1.633v1.641h-1.633v-1.641zM19.445 20.060h1.641v1.641h-1.641v-1.641zM19.445 19.992v-1.633h1.641v1.633h-1.641zM19.445 18.29v-1.641h1.641v1.641h-1.641zM19.445 16.581v-1.641h1.641v1.641h-1.641zM19.445 14.872v-1.633h1.641v1.633h-1.641zM19.445 13.171v-1.641h1.641v1.641h-1.641zM19.445 11.462v-1.633h1.641v1.633h-1.641zM19.376 11.462h-1.633v-1.633h1.633v1.633zM17.675 11.462h-1.641v-1.633h1.641v1.633zM15.966 11.462h-1.641v-1.633h1.641v1.633zM14.257 11.462h-1.633v-1.633h1.633v1.633zM12.555 11.462h-1.641v-1.633h1.641v1.633zM10.847 11.462h-1.633v-1.633h1.633v1.633zM10.847 11.53v1.641h-1.633v-1.641h1.633zM10.847 13.239v1.633h-1.633v-1.633h1.633zM10.847 14.941v1.641h-1.633v-1.641h1.633zM10.847 16.65v1.641h-1.633v-1.641h1.633zM10.847 18.358v1.633h-1.633v-1.633h1.633zM10.847 20.060v1.641h-1.633v-1.641h1.633zM10.847 21.769v1.633h-1.633v-1.633h1.633zM10.915 21.769h1.641v1.633h-1.641v-1.633zM12.624 21.769h1.633v1.633h-1.633v-1.633zM14.325 21.769h1.641v1.633h-1.641v-1.633zM16.034 21.769h1.641v1.633h-1.641v-1.633zM17.743 21.769h1.633v1.633h-1.633v-1.633zM19.445 21.769h1.641v1.633h-1.641v-1.633zM21.153 21.769h1.633v1.633h-1.633v-1.633zM21.153 21.701v-1.641h1.633v1.641h-1.633zM21.153 19.992v-1.633h1.633v1.633h-1.633zM21.153 18.29v-1.641h1.633v1.641h-1.633zM21.153 16.581v-1.641h1.633v1.641h-1.633zM21.153 14.872v-1.633h1.633v1.633h-1.633zM21.153 13.171v-1.641h1.633v1.641h-1.633zM21.153 11.462v-1.633h1.633v1.633h-1.633zM21.153 9.76v-1.641h1.633v1.641h-1.633zM21.085 9.76h-1.641v-1.641h1.641v1.641zM19.376 9.76h-1.633v-1.641h1.633v1.641zM17.675 9.76h-1.641v-1.641h1.641v1.641zM15.966 9.76h-1.641v-1.641h1.641v1.641zM14.257 9.76h-1.633v-1.641h1.633v1.641zM12.555 9.76h-1.641v-1.641h1.641v1.641zM10.847 9.76h-1.633v-1.641h1.633v1.641zM9.145 9.76h-1.641v-1.641h1.641v1.641zM9.145 9.829v1.633h-1.641v-1.633h1.641zM9.145 11.53v1.641h-1.641v-1.641h1.641zM9.145 13.239v1.633h-1.641v-1.633h1.641zM9.145 14.941v1.641h-1.641v-1.641h1.641zM9.145 16.65v1.641h-1.641v-1.641h1.641zM9.145 18.358v1.633h-1.641v-1.633h1.641zM9.145 20.060v1.641h-1.641v-1.641h1.641zM9.145 21.769v1.633h-1.641v-1.633h1.641zM9.145 23.47v1.641h-1.641v-1.641h1.641zM9.213 23.47h1.633v1.641h-1.633v-1.641zM10.915 23.47h1.641v1.641h-1.641v-1.641zM12.624 23.47h1.633v1.641h-1.633v-1.641zM14.325 23.47h1.641v1.641h-1.641v-1.641zM16.034 23.47h1.641v1.641h-1.641v-1.641zM17.743 23.47h1.633v1.641h-1.633v-1.641zM19.445 23.47h1.641v1.641h-1.641v-1.641zM21.153 23.47h1.633v1.641h-1.633v-1.641zM22.855 23.47h1.641v1.641h-1.641v-1.641zM22.855 23.402v-1.633h1.641v1.633h-1.641zM22.855 21.701v-1.641h1.641v1.641h-1.641zM22.855 19.992v-1.633h1.641v1.633h-1.641zM22.855 18.29v-1.641h1.641v1.641h-1.641zM22.855 16.581v-1.641h1.641v1.641h-1.641zM22.855 14.872v-1.633h1.641v1.633h-1.641zM22.855 13.171v-1.641h1.641v1.641h-1.641zM22.855 11.462v-1.633h1.641v1.633h-1.641zM22.855 9.76v-1.641h1.641v1.641h-1.641zM22.855 8.052v-1.633h1.641v1.633h-1.641zM22.787 8.052h-1.633v-1.633h1.633v1.633zM21.085 8.052h-1.641v-1.633h1.641v1.633zM19.376 8.052h-1.633v-1.633h1.633v1.633zM14.257 8.052h-1.633v-1.633h1.633v1.633zM12.555 8.052h-1.641v-1.633h1.641v1.633zM10.847 8.052h-1.633v-1.633h1.633v1.633zM9.145 8.052h-1.641v-1.633h1.641v1.633zM7.436 8.12v1.641h-1.633v-1.641h1.633zM7.436 9.829v1.633h-1.633v-1.633h1.633zM7.436 11.53v1.641h-1.633v-1.641h1.633zM7.436 13.239v1.633h-1.633v-1.633h1.633zM7.436 14.941v1.641h-1.329c-0.016-0.161-0.143-0.288-0.304-0.304v-1.337h1.633zM5.803 16.953c0.161-0.016 0.288-0.143 0.304-0.304h1.329v1.641h-1.633v-1.337zM7.436 18.358v1.633h-1.633v-1.633h1.633zM7.436 20.060v1.641h-1.633v-1.641h1.633zM7.436 21.769v1.633h-1.633v-1.633h1.633zM7.436 23.47v1.641h-1.633v-1.641h1.633zM7.504 25.179h1.641v1.633h-1.641v-1.633zM9.213 25.179h1.633v1.633h-1.633v-1.633zM10.915 25.179h1.641v1.633h-1.641v-1.633zM12.624 25.179h1.633v1.633h-1.633v-1.633zM17.743 25.179h1.633v1.633h-1.633v-1.633zM19.445 25.179h1.641v1.633h-1.641v-1.633zM21.153 25.179h1.633v1.633h-1.633v-1.633zM22.855 25.179h1.641v1.633h-1.641v-1.633zM24.564 25.111v-1.641h1.633v1.641h-1.633zM24.564 23.402v-1.633h1.633v1.633h-1.633zM24.564 21.701v-1.641h1.633v1.641h-1.633zM24.564 19.992v-1.633h1.633v1.633h-1.633zM24.564 18.29v-1.641h1.329c0.016 0.161 0.143 0.288 0.304 0.304v1.337h-1.633zM26.197 16.277c-0.161 0.016-0.288 0.143-0.304 0.304h-1.329v-1.641h1.633v1.337zM24.564 14.872v-1.633h1.633v1.633h-1.633zM24.564 13.171v-1.641h1.633v1.641h-1.633zM24.564 11.462v-1.633h1.633v1.633h-1.633zM24.564 9.76v-1.641h1.633v1.641h-1.633zM24.564 8.052v-1.633h1.329c0.016 0.161 0.143 0.288 0.304 0.304v1.329h-1.633zM26.197 6.046c-0.161 0.016-0.288 0.143-0.304 0.304h-1.329v-1.641h1.633v1.337zM24.496 6.35h-1.641v-1.641h1.641v1.641zM22.787 6.35h-1.633v-1.641h1.633v1.641zM21.085 6.35h-1.641v-1.641h1.641v1.641zM19.376 6.35h-1.633v-1.641h1.633v1.641zM17.675 6.35h-1.337c-0.016-0.161-0.143-0.288-0.304-0.304v-1.337h1.641v1.641zM15.966 6.046c-0.161 0.016-0.288 0.143-0.304 0.304h-1.337v-1.641h1.641v1.337zM14.257 6.35h-1.633v-1.641h1.633v1.641zM12.555 6.35h-1.641v-1.641h1.641v1.641zM10.847 6.35h-1.633v-1.641h1.633v1.641zM9.145 6.35h-1.641v-1.641h1.641v1.641zM7.436 6.35h-1.329c-0.016-0.161-0.143-0.288-0.304-0.304v-1.337h1.633v1.641zM5.735 8.12v1.641h-1.641v-1.641h1.641zM5.735 9.829v1.633h-1.641v-1.633h1.641zM5.735 11.53v1.641h-1.641v-1.641h1.641zM5.735 13.239v1.633h-1.641v-1.633h1.641zM5.735 14.941v1.337c-0.161 0.016-0.288 0.143-0.304 0.304h-1.337v-1.641h1.641zM5.431 16.65c0.016 0.161 0.143 0.288 0.304 0.304v1.337h-1.641v-1.641h1.337zM5.735 18.358v1.633h-1.641v-1.633h1.641zM5.735 20.060v1.641h-1.641v-1.641h1.641zM5.735 21.769v1.633h-1.641v-1.633h1.641zM5.735 23.47v1.641h-1.641v-1.641h1.641zM5.803 27.184c0.161-0.016 0.288-0.143 0.304-0.304h1.329v1.641h-1.633v-1.337zM7.504 26.881h1.641v1.641h-1.641v-1.641zM9.213 26.881h1.633v1.641h-1.633v-1.641zM10.915 26.881h1.641v1.641h-1.641v-1.641zM12.624 26.881h1.633v1.641h-1.633v-1.641zM14.325 26.881h1.337c0.016 0.161 0.143 0.288 0.304 0.304v1.337h-1.641v-1.641zM16.034 27.184c0.161-0.016 0.288-0.143 0.304-0.304h1.337v1.641h-1.641v-1.337zM17.743 26.881h1.633v1.641h-1.633v-1.641zM19.445 26.881h1.641v1.641h-1.641v-1.641zM21.153 26.881h1.633v1.641h-1.633v-1.641zM22.855 26.881h1.641v1.641h-1.641v-1.641zM24.564 26.881h1.329c0.016 0.161 0.143 0.288 0.304 0.304v1.337h-1.633v-1.641zM26.265 25.111v-1.641h1.641v1.641h-1.641zM26.265 23.402v-1.633h1.641v1.633h-1.641zM26.265 21.701v-1.641h1.641v1.641h-1.641zM26.265 19.992v-1.633h1.641v1.633h-1.641zM26.265 18.29v-1.337c0.161-0.016 0.288-0.143 0.304-0.304h1.337v1.641h-1.641zM26.569 16.581c-0.016-0.161-0.143-0.288-0.304-0.304v-1.337h1.641v1.641h-1.337zM26.265 14.872v-1.633h1.641v1.633h-1.641zM26.265 13.171v-1.641h1.641v1.641h-1.641zM26.265 11.462v-1.633h1.641v1.633h-1.641zM26.265 9.76v-1.641h1.641v1.641h-1.641zM26.265 8.052v-1.329c0.161-0.016 0.288-0.143 0.304-0.304h1.337v1.633h-1.641zM26.569 6.35c-0.016-0.161-0.143-0.288-0.304-0.304v-1.337h1.641v1.641h-1.337zM26.265 4.641v-1.633h1.641v1.633h-1.641zM26.197 4.641h-1.633v-1.633h1.633v1.633zM24.496 4.641h-1.641v-1.633h1.641v1.633zM22.787 4.641h-1.633v-1.633h1.633v1.633zM21.085 4.641h-1.641v-1.633h1.641v1.633zM19.376 4.641h-1.633v-1.633h1.633v1.633zM17.675 4.641h-1.641v-1.633h1.641v1.633zM15.966 4.641h-1.641v-1.633h1.641v1.633zM14.257 4.641h-1.633v-1.633h1.633v1.633zM12.555 4.641h-1.641v-1.633h1.641v1.633zM10.847 4.641h-1.633v-1.633h1.633v1.633zM9.145 4.641h-1.641v-1.633h1.641v1.633zM7.436 4.641h-1.633v-1.633h1.633v1.633zM5.735 4.641h-1.641v-1.633h1.641v1.633zM5.735 4.709v1.337c-0.161 0.016-0.288 0.143-0.304 0.304h-1.337v-1.641h1.641zM4.026 6.35h-1.633v-1.641h1.633v1.641zM4.026 6.418v1.633h-1.633v-1.633h1.633zM4.026 8.12v1.641h-1.633v-1.641h1.633zM4.026 9.829v1.633h-1.633v-1.633h1.633zM4.026 11.53v1.641h-1.633v-1.641h1.633zM4.026 13.239v1.633h-1.633v-1.633h1.633zM4.026 14.941v1.641h-1.633v-1.641h1.633zM4.026 16.65v1.641h-1.633v-1.641h1.633zM4.026 18.358v1.633h-1.633v-1.633h1.633zM4.026 20.060v1.641h-1.633v-1.641h1.633zM4.026 21.769v1.633h-1.633v-1.633h1.633zM4.026 23.47v1.641h-1.633v-1.641h1.633zM4.026 25.179v1.633h-1.633v-1.633h1.633zM4.026 26.881v1.641h-1.633v-1.641h1.633zM4.094 26.881h1.337c0.016 0.161 0.143 0.288 0.304 0.304v1.337h-1.641v-1.641zM5.735 28.59v1.633h-1.641v-1.633h1.641zM5.803 28.59h1.633v1.633h-1.633v-1.633zM7.504 28.59h1.641v1.633h-1.641v-1.633zM9.213 28.59h1.633v1.633h-1.633v-1.633zM10.915 28.59h1.641v1.633h-1.641v-1.633zM12.624 28.59h1.633v1.633h-1.633v-1.633zM14.325 28.59h1.641v1.633h-1.641v-1.633zM16.034 28.59h1.641v1.633h-1.641v-1.633zM17.743 28.59h1.633v1.633h-1.633v-1.633zM19.445 28.59h1.641v1.633h-1.641v-1.633zM21.153 28.59h1.633v1.633h-1.633v-1.633zM22.855 28.59h1.641v1.633h-1.641v-1.633zM24.564 28.59h1.633v1.633h-1.633v-1.633zM26.265 28.59h1.641v1.633h-1.641v-1.633zM26.265 28.521v-1.337c0.161-0.016 0.288-0.143 0.304-0.304h1.337v1.641h-1.641zM27.974 26.881h1.633v1.641h-1.633v-1.641zM27.974 26.812v-1.633h1.633v1.633h-1.633zM27.974 25.111v-1.641h1.633v1.641h-1.633zM27.974 23.402v-1.633h1.633v1.633h-1.633zM27.974 21.701v-1.641h1.633v1.641h-1.633zM27.974 19.992v-1.633h1.633v1.633h-1.633zM27.974 18.29v-1.641h1.633v1.641h-1.633zM27.974 16.581v-1.641h1.633v1.641h-1.633zM27.974 14.872v-1.633h1.633v1.633h-1.633zM27.974 13.171v-1.641h1.633v1.641h-1.633zM27.974 11.462v-1.633h1.633v1.633h-1.633zM27.974 9.76v-1.641h1.633v1.641h-1.633zM27.974 8.052v-1.633h1.633v1.633h-1.633zM27.974 6.35v-1.641h1.633v1.641h-1.633zM27.974 4.641v-1.633h1.633v1.633h-1.633zM27.974 2.94v-1.641h1.633v1.641h-1.633zM27.906 2.94h-1.641v-1.641h1.641v1.641zM26.197 2.94h-1.633v-1.641h1.633v1.641zM24.496 2.94h-1.641v-1.641h1.641v1.641zM22.787 2.94h-1.633v-1.641h1.633v1.641zM21.085 2.94h-1.641v-1.641h1.641v1.641zM19.376 2.94h-1.633v-1.641h1.633v1.641zM17.675 2.94h-1.641v-1.641h1.641v1.641zM15.966 2.94h-1.641v-1.641h1.641v1.641zM14.257 2.94h-1.633v-1.641h1.633v1.641zM12.555 2.94h-1.641v-1.641h1.641v1.641zM10.847 2.94h-1.633v-1.641h1.633v1.641zM9.145 2.94h-1.641v-1.641h1.641v1.641zM7.436 2.94h-1.633v-1.641h1.633v1.641zM5.735 2.94h-1.641v-1.641h1.641v1.641zM4.026 2.94h-1.633v-1.641h1.633v1.641zM4.026 3.008v1.633h-1.633v-1.633h1.633zM2.324 4.641h-1.641v-1.633h1.641v1.633zM2.324 4.709v1.641h-1.641v-1.641h1.641zM2.324 6.418v1.633h-1.641v-1.633h1.641zM2.324 8.12v1.641h-1.641v-1.641h1.641zM2.324 9.829v1.633h-1.641v-1.633h1.641zM2.324 11.53v1.641h-1.641v-1.641h1.641zM2.324 13.239v1.633h-1.641v-1.633h1.641zM2.324 14.941v1.641h-1.641v-1.641h1.641zM2.324 16.65v1.641h-1.641v-1.641h1.641zM2.324 18.358v1.633h-1.641v-1.633h1.641zM2.324 20.060v1.641h-1.641v-1.641h1.641zM2.324 21.769v1.633h-1.641v-1.633h1.641zM2.324 23.47v1.641h-1.641v-1.641h1.641zM2.324 25.179v1.633h-1.641v-1.633h1.641zM2.324 26.881v1.641h-1.641v-1.641h1.641zM2.324 28.59v1.633h-1.641v-1.633h1.641zM2.393 28.59h1.633v1.633h-1.633v-1.633zM4.026 30.291v1.641h-1.633v-1.641h1.633zM4.094 30.291h1.641v1.641h-1.641v-1.641zM5.803 30.291h1.633v1.641h-1.633v-1.641zM7.504 30.291h1.641v1.641h-1.641v-1.641zM9.213 30.291h1.633v1.641h-1.633v-1.641zM10.915 30.291h1.641v1.641h-1.641v-1.641zM12.624 30.291h1.633v1.641h-1.633v-1.641zM14.325 30.291h1.641v1.641h-1.641v-1.641zM16.034 30.291h1.641v1.641h-1.641v-1.641zM17.743 30.291h1.633v1.641h-1.633v-1.641zM19.445 30.291h1.641v1.641h-1.641v-1.641zM21.153 30.291h1.633v1.641h-1.633v-1.641zM22.855 30.291h1.641v1.641h-1.641v-1.641zM24.564 30.291h1.633v1.641h-1.633v-1.641zM26.265 30.291h1.641v1.641h-1.641v-1.641zM27.974 30.291h1.633v1.641h-1.633v-1.641zM27.974 30.223v-1.633h1.633v1.633h-1.633zM29.676 28.59h1.641v1.633h-1.641v-1.633zM29.676 28.521v-1.641h1.641v1.641h-1.641zM29.676 26.812v-1.633h1.641v1.633h-1.641zM29.676 25.111v-1.641h1.641v1.641h-1.641zM29.676 23.402v-1.633h1.641v1.633h-1.641zM29.676 21.701v-1.641h1.641v1.641h-1.641zM29.676 19.992v-1.633h1.641v1.633h-1.641zM29.676 18.29v-1.641h1.641v1.641h-1.641zM29.676 16.581v-1.641h1.641v1.641h-1.641zM29.676 14.872v-1.633h1.641v1.633h-1.641zM29.676 13.171v-1.641h1.641v1.641h-1.641zM29.676 11.462v-1.633h1.641v1.633h-1.641zM29.676 9.76v-1.641h1.641v1.641h-1.641zM29.676 8.052v-1.633h1.641v1.633h-1.641zM29.676 6.35v-1.641h1.641v1.641h-1.641zM29.676 4.641v-1.633h1.641v1.633h-1.641zM2.324 1.299v1.641h-1.641v-1.641h1.641zM0.684 30.291h1.641v1.641h-1.641v-1.641zM29.676 31.932v-1.641h1.641v1.641h-1.641z"></path>
</svg>
