<?xml version="1.0" encoding="utf-8"?>
<!-- Generated by IcoMoon.io -->
<!DOCTYPE svg PUBLIC "-//W3C//DTD SVG 1.1//EN" "http://www.w3.org/Graphics/SVG/1.1/DTD/svg11.dtd">
<svg version="1.1" xmlns="http://www.w3.org/2000/svg" xmlns:xlink="http://www.w3.org/1999/xlink" width="32" height="32" viewBox="0 0 32 32">
<path fill="#000" d="M0.615 1.231v30.769h30.765v-30.769h-30.765zM28.219 10.436h-2.973v-2.98h2.973v2.98zM28.219 16.57h-2.973v-2.98h2.973v2.98zM28.219 22.704h-2.973v-2.973h2.973v2.973zM19.113 28.839v-2.973h2.973v2.973h-2.973zM12.973 28.839v-2.973h2.98v2.973h-2.98zM6.839 28.839v-2.973h2.98v2.973h-2.98zM12.882 4.392v2.973h-2.973v-2.973h2.973zM19.023 4.392v2.973h-2.98v-2.973h2.98zM25.156 4.392v2.973h-2.98v-2.973h2.98zM25.156 19.641h-2.98v-2.98h2.98v2.98zM6.839 19.731h2.98v2.973h-2.98v-2.973zM6.839 13.59h2.98v2.98h-2.98v-2.98zM15.953 7.455v2.98h-2.98v-2.98h2.98zM22.086 7.455v2.98h-2.973v-2.98h2.973zM22.086 16.57h-2.973v-2.98h2.973v2.98zM22.086 22.704h-2.973v-2.973h2.973v2.973zM19.023 19.641h-2.98v-2.98h2.98v2.98zM15.953 13.59v2.98h-2.98v-2.98h2.98zM15.953 19.731v2.973h-2.98v-2.973h2.98zM19.023 13.499h-2.98v-2.973h2.98v2.973zM12.882 16.661v2.98h-2.973v-2.98h2.973zM12.882 10.526v2.973h-2.973v-2.973h2.973zM19.023 22.795v2.98h-2.98v-2.98h2.98zM9.91 22.795h2.973v2.98h-2.973v-2.98zM22.176 22.795h2.98v2.98h-2.98v-2.98zM22.176 13.499v-2.973h2.98v2.973h-2.98zM9.819 7.455v2.98h-2.98v-2.98h2.98zM3.776 10.526h2.972v2.973h-2.972v-2.973zM3.776 16.661h2.972v2.98h-2.972v-2.98zM6.749 22.795v2.98h-2.972v-2.98h2.972zM6.749 4.392v2.973h-2.972v-2.973h2.972zM25.247 28.839v-2.973h2.973v2.973h-2.973zM28.219 4.302h-2.973v-2.98h2.973v2.98zM22.086 4.302h-2.973v-2.98h2.973v2.98zM15.953 4.302h-2.98v-2.98h2.98v2.98zM9.819 4.302h-2.98v-2.98h2.98v2.98zM3.686 7.455v2.98h-2.98v-2.98h2.98zM3.686 13.59v2.98h-2.98v-2.98h2.98zM3.686 19.731v2.973h-2.98v-2.973h2.98zM3.686 25.866v2.973h-2.98v-2.973h2.98zM3.776 28.929h2.972v2.98h-2.972v-2.98zM9.91 28.929h2.973v2.98h-2.973v-2.98zM16.043 28.929h2.98v2.98h-2.98v-2.98zM22.176 28.929h2.98v2.98h-2.98v-2.98zM28.31 25.775v-2.98h2.98v2.98h-2.98zM28.31 19.641v-2.98h2.98v2.98h-2.98zM28.31 13.499v-2.973h2.98v2.973h-2.98zM28.31 7.365v-2.973h2.98v2.973h-2.98zM3.686 1.321v2.98h-2.98v-2.98h2.98zM28.31 31.91v-2.98h2.98v2.98h-2.98z"></path>
</svg>
