<?xml version="1.0" encoding="utf-8"?>
<!-- Generated by IcoMoon.io -->
<!DOCTYPE svg PUBLIC "-//W3C//DTD SVG 1.1//EN" "http://www.w3.org/Graphics/SVG/1.1/DTD/svg11.dtd">
<svg version="1.1" xmlns="http://www.w3.org/2000/svg" xmlns:xlink="http://www.w3.org/1999/xlink" width="32" height="32" viewBox="0 0 32 32">
<path fill="#000" d="M31.623 10.382l0.027-0.027h-0.055z"></path>
<path fill="#000" d="M29.377 8.437h-28.239l-0.823 0.823 14.939 14.939 14.942-14.942-0.82-0.82zM27.112 8.514l1.012 1.012-1.799 1.799-1.799-1.799 1.012-1.012h1.575zM23.404 8.514l1.012 1.012-1.799 1.799-1.799-1.799 1.012-1.012h1.574zM24.415 13.234l-1.799 1.799-1.799-1.799 1.799-1.799 1.799 1.799zM19.696 8.514l1.012 1.012-1.799 1.799-1.799-1.799 1.013-1.013h1.574zM18.908 15.034l-1.799-1.799 1.799-1.799 1.799 1.799-1.799 1.799zM20.707 16.942l-1.799 1.799-1.799-1.799 1.799-1.799 1.799 1.799zM15.988 8.514l1.013 1.013-1.799 1.799-1.799-1.799 1.013-1.013h1.573zM15.2 18.742l-1.799-1.799 1.799-1.799 1.799 1.799-1.799 1.799zM16.999 20.651l-1.799 1.799-1.799-1.799 1.799-1.799 1.799 1.799zM15.2 15.034l-1.799-1.799 1.799-1.799 1.799 1.799-1.799 1.799zM12.279 8.514l1.013 1.013-1.799 1.799-1.799-1.799 1.013-1.013h1.572zM11.493 15.035l-1.799-1.799 1.799-1.799 1.799 1.799-1.799 1.799zM13.292 16.943l-1.799 1.799-1.799-1.799 1.799-1.799 1.799 1.799zM8.571 8.514l1.013 1.013-1.799 1.799-1.799-1.799 1.014-1.014h1.572zM9.584 13.236l-1.799 1.799-1.799-1.799 1.799-1.799 1.799 1.799zM4.863 8.514l1.014 1.014-1.8 1.799-1.799-1.799 1.014-1.014h1.571zM0.424 9.26l0.738-0.738 14.037 14.037 14.045-14.045h0.1l0.742 0.742-14.833 14.833-14.83-14.83z"></path>
</svg>
