<?xml version="1.0" encoding="utf-8"?>
<!-- Generated by IcoMoon.io -->
<!DOCTYPE svg PUBLIC "-//W3C//DTD SVG 1.1//EN" "http://www.w3.org/Graphics/SVG/1.1/DTD/svg11.dtd">
<svg version="1.1" xmlns="http://www.w3.org/2000/svg" xmlns:xlink="http://www.w3.org/1999/xlink" width="32" height="32" viewBox="0 0 32 32">
<path fill="#000" d="M6.825 1.312h6.111v6.111h-6.111v-6.111z"></path>
<path fill="#000" d="M19.064 1.312h6.111v6.111h-6.111v-6.111z"></path>
<path fill="#000" d="M12.936 7.423h6.129v6.129h-6.129v-6.129z"></path>
<path fill="#000" d="M25.175 7.423h6.111v6.129h-6.111v-6.129z"></path>
<path fill="#000" d="M0.706 7.423h6.12v6.138h-6.12v-6.138z"></path>
<path fill="#000" d="M6.825 13.56h6.12v6.111h-6.12v-6.111z"></path>
<path fill="#000" d="M19.064 13.551h6.102v6.12h-6.102v-6.12z"></path>
<path fill="#000" d="M25.166 19.671h6.129v6.111h-6.129v-6.111z"></path>
<path fill="#000" d="M12.945 19.671h6.12v6.111h-6.12v-6.111z"></path>
<path fill="#000" d="M0.706 19.671h6.111v6.111h-6.111v-6.111z"></path>
<path fill="#000" d="M6.816 25.781h6.129v6.129h-6.129v-6.129z"></path>
<path fill="#000" d="M19.064 25.781h6.111v6.129h-6.111v-6.129z"></path>
<path fill="#000" d="M31.385 32h-30.769v-30.769h30.769v30.769zM0.796 31.82h30.409v-30.409h-30.409v30.409z"></path>
<path fill="#000" d="M0.706 25.703h30.589v0.18h-30.589v-0.18z"></path>
<path fill="#000" d="M0.706 19.587h30.589v0.18h-30.589v-0.18z"></path>
<path fill="#000" d="M0.706 13.463h30.589v0.18h-30.589v-0.18z"></path>
<path fill="#000" d="M0.706 7.347h30.589v0.18h-30.589v-0.18z"></path>
<path fill="#000" d="M25.088 1.321h0.18v30.589h-0.18v-30.589z"></path>
<path fill="#000" d="M18.972 1.321h0.18v30.589h-0.18v-30.589z"></path>
<path fill="#000" d="M12.848 1.321h0.18v30.589h-0.18v-30.589z"></path>
<path fill="#000" d="M6.732 1.321h0.18v30.589h-0.18v-30.589z"></path>
</svg>
