<?xml version="1.0" encoding="utf-8"?>
<!-- Generated by IcoMoon.io -->
<!DOCTYPE svg PUBLIC "-//W3C//DTD SVG 1.1//EN" "http://www.w3.org/Graphics/SVG/1.1/DTD/svg11.dtd">
<svg version="1.1" xmlns="http://www.w3.org/2000/svg" xmlns:xlink="http://www.w3.org/1999/xlink" width="32" height="32" viewBox="0 0 32 32">
<path fill="#000" d="M0.615 1.231v30.769h30.764v-30.769h-30.764zM31.266 8.895h-3.718v-3.719h3.718v3.719zM27.435 20.391h-3.718v-3.719h3.718v3.719zM8.391 28.055v-3.719h3.718v3.719h-3.718zM15.941 5.176v3.719h-3.718v-3.719h3.718zM23.603 5.176v3.719h-3.718v-3.719h3.718zM23.603 16.559h-3.718v-3.719h3.718v3.719zM8.391 16.672h3.718v3.719h-3.718v-3.719zM19.772 9.008v3.719h-3.718v-3.719h3.718zM15.941 12.84v3.719h-3.718v-3.719h3.718zM16.054 20.391v-3.719h3.718v3.719h-3.718zM12.222 24.223v-3.719h3.718v3.719h-3.718zM12.109 9.008v3.719h-3.718v-3.719h3.718zM19.885 24.223v-3.719h3.718v3.719h-3.718zM4.56 12.84h3.718v3.719h-3.718v-3.719zM4.56 20.504h3.718v3.719h-3.718v-3.719zM16.054 28.055v-3.719h3.718v3.719h-3.718zM23.716 12.727v-3.719h3.718v3.719h-3.718zM8.278 5.176v3.719h-3.718v-3.719h3.718zM23.716 28.055v-3.719h3.718v3.719h-3.718zM27.435 5.063h-3.718v-3.719h3.718v3.719zM19.772 5.063h-3.718v-3.719h3.718v3.719zM12.109 5.063h-3.718v-3.719h3.718v3.719zM4.447 9.008v3.719h-3.718v-3.719h3.718zM4.447 16.672v3.719h-3.718v-3.719h3.718zM4.447 24.336v3.719h-3.718v-3.719h3.718zM4.56 28.168h3.718v3.719h-3.718v-3.719zM12.222 28.168h3.718v3.719h-3.718v-3.719zM19.885 28.168h3.718v3.719h-3.718v-3.719zM27.548 24.223v-3.719h3.718v3.719h-3.718zM27.548 16.559v-3.719h3.718v3.719h-3.718zM4.447 1.344v3.719h-3.718v-3.719h3.718zM27.548 31.887v-3.719h3.718v3.719h-3.718z"></path>
</svg>
