<?xml version="1.0" encoding="utf-8"?>
<!-- Generated by IcoMoon.io -->
<!DOCTYPE svg PUBLIC "-//W3C//DTD SVG 1.1//EN" "http://www.w3.org/Graphics/SVG/1.1/DTD/svg11.dtd">
<svg version="1.1" xmlns="http://www.w3.org/2000/svg" xmlns:xlink="http://www.w3.org/1999/xlink" width="32" height="32" viewBox="0 0 32 32">
<path fill="#000" d="M5.74 3.614h5.139v5.139h-5.139v-5.139z"></path>
<path fill="#000" d="M16.033 3.614h5.139v5.139h-5.139v-5.139z"></path>
<path fill="#000" d="M26.311 3.614h5.154v5.139h-5.154v-5.139z"></path>
<path fill="#000" d="M10.879 8.753h5.154v5.154h-5.154v-5.154z"></path>
<path fill="#000" d="M21.172 8.753h5.139v5.154h-5.139v-5.154z"></path>
<path fill="#000" d="M0.594 8.753h5.147v5.162h-5.147v-5.162z"></path>
<path fill="#000" d="M5.74 13.914h5.147v5.139h-5.147v-5.139z"></path>
<path fill="#000" d="M16.033 13.907h5.132v5.147h-5.132v-5.147z"></path>
<path fill="#000" d="M26.311 13.907h5.154v5.147h-5.154v-5.147z"></path>
<path fill="#000" d="M21.165 19.053h5.154v5.139h-5.154v-5.139z"></path>
<path fill="#000" d="M10.887 19.053h5.147v5.139h-5.147v-5.139z"></path>
<path fill="#000" d="M0.594 19.053h5.139v5.139h-5.139v-5.139z"></path>
<path fill="#000" d="M5.733 24.193h5.154v5.154h-5.154v-5.154z"></path>
<path fill="#000" d="M16.033 24.193h5.139v5.154h-5.139v-5.154z"></path>
<path fill="#000" d="M26.319 24.193h5.147v5.154h-5.147v-5.154z"></path>
</svg>
