<?xml version="1.0" encoding="utf-8"?>
<!-- Generated by IcoMoon.io -->
<!DOCTYPE svg PUBLIC "-//W3C//DTD SVG 1.1//EN" "http://www.w3.org/Graphics/SVG/1.1/DTD/svg11.dtd">
<svg version="1.1" xmlns="http://www.w3.org/2000/svg" xmlns:xlink="http://www.w3.org/1999/xlink" width="32" height="32" viewBox="0 0 32 32">
<path fill="#000" d="M0.615 1.231v30.769h30.766v-30.769h-30.766zM28.75 8.904h-2.487v-2.48h2.487v2.48zM28.75 14.022h-2.487v-2.487h2.487v2.487zM28.75 19.133h-2.487v-2.48h2.487v2.48zM21.153 29.369v-2.487h2.48v2.487h-2.48zM5.808 29.369v-2.487h2.48v2.487h-2.48zM10.843 3.861v2.487h-2.48v-2.487h2.48zM15.96 3.861v2.487h-2.48v-2.487h2.48zM21.078 3.861v2.487h-2.487v-2.487h2.487zM26.188 3.861v2.487h-2.48v-2.487h2.48zM26.188 11.46h-2.48v-2.48h2.48v2.48zM26.188 16.578h-2.48v-2.48h2.48v2.48zM18.591 26.807v-2.48h2.487v2.48h-2.487zM13.481 26.807v-2.48h2.48v2.48h-2.48zM5.808 16.653h2.48v2.48h-2.48v-2.48zM5.808 11.535h2.48v2.487h-2.48v-2.487zM13.405 6.424v2.48h-2.487v-2.48h2.487zM18.515 6.424v2.48h-2.48v-2.48h2.48zM23.633 14.022h-2.48v-2.487h2.48v2.487zM23.633 19.133h-2.48v-2.48h2.48v2.48zM16.036 24.251v-2.48h2.48v2.48h-2.48zM10.918 24.251v-2.48h2.487v2.48h-2.487zM8.363 19.208h2.48v2.487h-2.48v-2.487zM21.078 16.578h-2.487v-2.48h2.487v2.48zM13.405 11.535v2.487h-2.487v-2.487h2.487zM18.515 11.535v2.487h-2.48v-2.487h2.48zM18.515 19.133h-2.48v-2.48h2.48v2.48zM13.481 14.098h2.48v2.48h-2.48v-2.48zM15.96 19.208v2.487h-2.48v-2.487h2.48zM13.405 16.653v2.48h-2.487v-2.48h2.487zM18.591 19.208h2.487v2.487h-2.487v-2.487zM21.078 8.98v2.48h-2.487v-2.48h2.487zM15.96 11.46h-2.48v-2.48h2.48v2.48zM10.843 14.098v2.48h-2.48v-2.48h2.48zM10.843 8.98v2.48h-2.48v-2.48h2.48zM21.153 24.251v-2.48h2.48v2.48h-2.48zM23.633 8.904h-2.48v-2.48h2.48v2.48zM5.808 21.771h2.48v2.48h-2.48v-2.48zM8.363 26.807v-2.48h2.48v2.48h-2.48zM26.188 21.696h-2.48v-2.487h2.48v2.487zM8.288 6.424v2.48h-2.48v-2.48h2.48zM23.708 26.807v-2.48h2.48v2.48h-2.48zM3.246 8.98h2.487v2.48h-2.487v-2.48zM3.246 14.098h2.487v2.48h-2.487v-2.48zM5.733 19.208v2.487h-2.487v-2.487h2.487zM3.246 24.327h2.487v2.48h-2.487v-2.48zM10.918 29.369v-2.487h2.487v2.487h-2.487zM16.036 29.369v-2.487h2.48v2.487h-2.48zM26.263 24.251v-2.48h2.487v2.48h-2.487zM5.733 3.861v2.487h-2.487v-2.487h2.487zM26.263 29.369v-2.487h2.487v2.487h-2.487zM28.75 3.786h-2.487v-2.48h2.487v2.48zM23.633 3.786h-2.48v-2.48h2.48v2.48zM18.515 3.786h-2.48v-2.48h2.48v2.48zM13.405 3.786h-2.487v-2.48h2.487v2.48zM8.288 3.786h-2.48v-2.48h2.48v2.48zM3.17 6.424v2.48h-2.48v-2.48h2.48zM3.17 11.535v2.487h-2.48v-2.487h2.48zM3.17 16.653v2.48h-2.48v-2.48h2.48zM3.17 21.771v2.48h-2.48v-2.48h2.48zM3.17 26.882v2.487h-2.48v-2.487h2.48zM3.246 29.445h2.487v2.48h-2.487v-2.48zM8.363 29.445h2.48v2.48h-2.48v-2.48zM13.481 29.445h2.48v2.48h-2.48v-2.48zM18.591 29.445h2.487v2.48h-2.487v-2.48zM23.708 29.445h2.48v2.48h-2.48v-2.48zM28.826 26.807v-2.48h2.48v2.48h-2.48zM28.826 21.696v-2.487h2.48v2.487h-2.48zM28.826 16.578v-2.48h2.48v2.48h-2.48zM28.826 11.46v-2.48h2.48v2.48h-2.48zM28.826 6.349v-2.487h2.48v2.487h-2.48zM3.17 1.306v2.48h-2.48v-2.48h2.48zM28.826 31.925v-2.48h2.48v2.48h-2.48z"></path>
</svg>
