<?xml version="1.0" encoding="utf-8"?>
<!-- Generated by IcoMoon.io -->
<!DOCTYPE svg PUBLIC "-//W3C//DTD SVG 1.1//EN" "http://www.w3.org/Graphics/SVG/1.1/DTD/svg11.dtd">
<svg version="1.1" xmlns="http://www.w3.org/2000/svg" xmlns:xlink="http://www.w3.org/1999/xlink" width="33" height="32" viewBox="0 0 33 32">
<path d="M23.827 32h-22.426c-0.434 0-0.786-0.351-0.786-0.786v-21.708c0-0.222 0.093-0.424 0.241-0.567l7.736-7.488c0.147-0.141 0.343-0.221 0.546-0.221h22.426c0.434 0 0.786 0.352 0.786 0.786v21.708c0 0.213-0.086 0.416-0.24 0.565l-7.738 7.49c-0.141 0.136-0.333 0.221-0.546 0.221zM2.187 30.429h20.854v-20.136h-20.854v20.136zM24.612 9.839v19.521l6.166-5.969v-19.52l-6.166 5.968zM3.343 8.721h20.167l6.114-5.918h-20.166l-6.115 5.918z"></path>
<path d="M14.737 18.947l2.115-2.208c0.173 0.112 0.376 0.181 0.596 0.193 0.684 0.039 1.27-0.482 1.309-1.165 0.040-0.684-0.482-1.271-1.166-1.31s-1.269 0.482-1.31 1.166c-0.017 0.289 0.068 0.561 0.223 0.782l-2.032 2.12c-0.408-0.522-1.018-0.877-1.714-0.944v-2.668c0.57-0.112 0.999-0.613 0.999-1.216 0-0.684-0.556-1.24-1.24-1.24s-1.239 0.556-1.239 1.24c0 0.603 0.43 1.104 0.999 1.216v2.668c-0.523 0.051-0.997 0.264-1.374 0.588l-2.161-2.133c0.159-0.309 0.114-0.695-0.145-0.955-0.321-0.32-0.839-0.32-1.16 0s-0.32 0.838 0 1.159c0.262 0.261 0.655 0.305 0.965 0.139l2.166 2.139c-0.332 0.422-0.533 0.955-0.533 1.533 0 0.068 0.005 0.135 0.010 0.202l-2.011 0.093c-0.139-0.563-0.66-0.968-1.26-0.94-0.684 0.032-1.212 0.612-1.181 1.296s0.613 1.213 1.296 1.181c0.602-0.027 1.083-0.48 1.168-1.054l2.074-0.097c0.111 0.385 0.31 0.731 0.576 1.014l-1.813 1.715c-0.297-0.168-0.677-0.141-0.946 0.099-0.339 0.301-0.368 0.819-0.067 1.157s0.819 0.368 1.157 0.067c0.281-0.251 0.346-0.65 0.187-0.972l1.847-1.745c0.346 0.248 0.757 0.412 1.205 0.455v2.604c-0.335 0.104-0.578 0.415-0.578 0.783 0 0.452 0.368 0.819 0.82 0.819s0.82-0.367 0.82-0.819c0-0.369-0.244-0.68-0.578-0.783v-2.604c0.377-0.036 0.73-0.16 1.038-0.346l2.556 2.103c-0.093 0.174-0.148 0.374-0.148 0.585 0 0.684 0.555 1.24 1.24 1.24s1.24-0.556 1.24-1.24c0-0.685-0.556-1.239-1.24-1.239-0.299 0-0.573 0.105-0.786 0.28l-2.465-2.027c0.387-0.356 0.662-0.832 0.761-1.371l1.784-0.082c0.119 0.329 0.442 0.557 0.809 0.54 0.452-0.020 0.802-0.405 0.78-0.856s-0.405-0.801-0.857-0.779c-0.368 0.017-0.669 0.275-0.755 0.614l-1.721 0.081c-0.004-0.387-0.097-0.751-0.259-1.076z"></path>
</svg>
