<?xml version="1.0" encoding="utf-8"?>
<!-- Generated by IcoMoon.io -->
<!DOCTYPE svg PUBLIC "-//W3C//DTD SVG 1.1//EN" "http://www.w3.org/Graphics/SVG/1.1/DTD/svg11.dtd">
<svg version="1.1" xmlns="http://www.w3.org/2000/svg" xmlns:xlink="http://www.w3.org/1999/xlink" width="33" height="32" viewBox="0 0 33 32">
<path d="M23.827 32h-22.426c-0.434 0-0.786-0.351-0.786-0.786v-21.708c0-0.222 0.093-0.424 0.241-0.567l7.736-7.488c0.147-0.141 0.343-0.221 0.546-0.221h22.426c0.434 0 0.786 0.352 0.786 0.786v21.708c0 0.213-0.086 0.416-0.24 0.565l-7.738 7.49c-0.141 0.136-0.333 0.221-0.546 0.221zM2.187 30.429h20.854v-20.136h-20.854v20.136zM24.612 9.839v19.521l6.166-5.969v-19.52l-6.166 5.968zM3.343 8.721h20.167l6.114-5.918h-20.166l-6.115 5.918z"></path>
<path d="M12.175 12.719c-0.186 0.775-0.474 1.472-0.861 2.080-0.388 0.61-1.078 1.362-2.072 2.263s-1.624 1.591-1.89 2.072c-0.266 0.481-0.397 0.969-0.397 1.464 0 0.689 0.229 1.262 0.689 1.722 0.459 0.459 1.018 0.689 1.679 0.689 1.181 0 2.096-0.864 2.698-1.804-0.046 1.029-0.215 1.851-0.512 2.469-0.319 0.665-0.808 1.213-1.469 1.651-0.445 0.295-1.246 0.552-2.401 0.775l-0.086 0.369h9.237l-0.085-0.369c-1.157-0.222-1.957-0.48-2.402-0.775-0.661-0.438-1.15-0.986-1.469-1.651-0.296-0.615-0.466-1.437-0.512-2.464 0.603 0.94 1.522 1.799 2.702 1.799 0.661 0 1.22-0.23 1.68-0.689 0.46-0.46 0.689-1.033 0.689-1.722 0-0.495-0.132-0.983-0.398-1.464s-0.896-1.171-1.89-2.072c-0.994-0.9-1.683-1.653-2.070-2.263-0.389-0.608-0.677-1.305-0.863-2.080z"></path>
</svg>
