<?xml version="1.0" encoding="utf-8"?>
<!-- Generated by IcoMoon.io -->
<!DOCTYPE svg PUBLIC "-//W3C//DTD SVG 1.1//EN" "http://www.w3.org/Graphics/SVG/1.1/DTD/svg11.dtd">
<svg version="1.1" xmlns="http://www.w3.org/2000/svg" xmlns:xlink="http://www.w3.org/1999/xlink" width="33" height="32" viewBox="0 0 33 32">
<path d="M23.827 32h-22.426c-0.434 0-0.786-0.351-0.786-0.786v-21.708c0-0.222 0.092-0.422 0.24-0.564l7.737-7.49c0.147-0.142 0.343-0.222 0.546-0.222h22.426c0.434 0 0.786 0.352 0.786 0.786v21.708c0 0.213-0.086 0.416-0.24 0.565l-7.737 7.49c-0.141 0.136-0.333 0.221-0.546 0.221zM2.187 30.429h20.854v-20.136h-20.854v20.136zM24.612 9.839v19.52l6.166-5.968v-19.52l-6.166 5.968zM3.343 8.721h20.167l6.113-5.918h-20.166l-6.114 5.918z"></path>
<path d="M15.724 19.431c-0.589 0-1.137 0.18-1.591 0.487v-0.002c0.788-0.505 1.311-1.388 1.311-2.394 0-1.569-1.273-2.841-2.842-2.841s-2.842 1.272-2.842 2.841c0 1.006 0.523 1.889 1.311 2.394v0.002c-0.454-0.307-1.001-0.487-1.591-0.487-1.569 0-2.841 1.272-2.841 2.841s1.272 2.842 2.841 2.842c1.15 0 2.139-0.683 2.587-1.664l-1.017 2.843h3.106l-1.018-2.843c0.448 0.981 1.436 1.664 2.586 1.664 1.569 0 2.841-1.272 2.841-2.842s-1.273-2.841-2.842-2.841z"></path>
</svg>
