<?xml version="1.0" encoding="utf-8"?>
<!-- Generated by IcoMoon.io -->
<!DOCTYPE svg PUBLIC "-//W3C//DTD SVG 1.1//EN" "http://www.w3.org/Graphics/SVG/1.1/DTD/svg11.dtd">
<svg version="1.1" xmlns="http://www.w3.org/2000/svg" xmlns:xlink="http://www.w3.org/1999/xlink" width="55" height="32" viewBox="0 0 55 32">
<path fill="#000" d="M53.706 32h-52.376c-0.395 0-0.716-0.32-0.716-0.716v-29.338c0-0.395 0.32-0.716 0.716-0.716h52.376c0.394 0 0.716 0.32 0.716 0.716v29.338c0 0.395-0.321 0.716-0.716 0.716zM2.046 30.569h50.945v-27.907h-50.945v27.907z"></path>
<path fill="#000" d="M17.565 29.080c-0.083 0-0.165-0.014-0.245-0.043l-2.135-0.779c-0.283-0.103-0.47-0.372-0.47-0.672v-0.465l-0.435-0.267c-0.212-0.13-0.34-0.363-0.34-0.611v-3.060l-1.993-1.781c-0.152-0.135-0.239-0.33-0.239-0.533v-3.278l-0.774-0.567c-0.184-0.134-0.293-0.349-0.293-0.577v-0.143l-0.254-0.113c-0.141-0.063-0.258-0.17-0.332-0.303l-0.183-0.328h-0.7c-0.395 0-0.716-0.32-0.716-0.716v-0.215l-0.37-0.087c-0.323-0.076-0.551-0.365-0.551-0.696v-3.728c0-0.208 0.090-0.405 0.247-0.541l1.364-1.181 0.056-0.149-0.243 0.079c-0.072 0.023-0.148 0.036-0.224 0.036h-1.892c-0.265 0-0.508-0.145-0.632-0.378s-0.11-0.516 0.037-0.736l1.019-1.517c0.129-0.193 0.345-0.311 0.576-0.317l1.463-0.037 0.544-0.42c0.125-0.096 0.279-0.149 0.438-0.149h0.97c0.111 0 0.22 0.025 0.32 0.075l1.061 0.53h2.306c0.19 0 0.372 0.075 0.507 0.21 0.134 0.134 0.21 0.316 0.209 0.507v0.716h0.328l1.447-1.256c0.13-0.112 0.297-0.175 0.469-0.175h1.649c0.194 0 0.38 0.078 0.514 0.218s0.207 0.329 0.2 0.522l-0.096 2.818c-0.014 0.386-0.33 0.691-0.716 0.691h-0.738l-4.352 4.056c-0.283 0.265-0.727 0.255-0.999-0.022l-0.414-0.423-0.272 0.049-0.1 0.171 0.516 0.565 1.441 1.343c0.167 0.1 0.286 0.264 0.33 0.454l0.067 0.289h0.74c0.154 0 0.304 0.049 0.427 0.141l1.019 0.757 0.791 0.739 2.185 0.48c0.182 0.039 0.342 0.151 0.445 0.306l0.681 1.041c0.119 0.181 0.148 0.407 0.082 0.612-0.067 0.206-0.223 0.371-0.425 0.447l-0.221 0.085v1.286c0 0.196-0.081 0.383-0.223 0.517l-0.775 0.737c-0.047 0.045-0.099 0.082-0.155 0.111l-0.593 0.317v0.829c0 0.288-0.175 0.551-0.442 0.661l-0.189 0.077v3.075c0 0.233-0.113 0.452-0.305 0.586-0.124 0.088-0.267 0.131-0.412 0.131zM16.145 27.084l0.704 0.258v-2.53c0-0.288 0.175-0.551 0.442-0.661l0.189-0.077v-0.779c0-0.263 0.145-0.506 0.377-0.631l0.884-0.473 0.483-0.46v-1.47c0-0.243 0.123-0.465 0.32-0.597l-0.045-0.068-2.090-0.46c-0.126-0.028-0.243-0.089-0.336-0.177l-0.872-0.822-0.764-0.563h-1.075c-0.334 0-0.623-0.23-0.697-0.555l-0.13-0.57c-0.001-0.001-0.002-0.002-0.004-0.003l-1.455-1.386-0.906-0.989c-0.212-0.231-0.248-0.575-0.089-0.845l0.533-0.911c0.106-0.18 0.286-0.306 0.492-0.342l0.97-0.173c0.232-0.040 0.472 0.035 0.637 0.204l0.191 0.195 4.048-3.772c0.133-0.124 0.306-0.192 0.488-0.192h0.329l0.048-1.388h-0.641l-1.447 1.256c-0.13 0.112-0.297 0.175-0.469 0.175h-1.31c-0.19 0-0.372-0.075-0.507-0.21-0.134-0.134-0.21-0.316-0.209-0.507v-0.716h-1.759c-0.111 0-0.22-0.025-0.32-0.075l-1.061-0.53h-0.559l-0.535 0.413c-0.011 0.008-0.021 0.016-0.032 0.023h0.079c0.395 0 0.716 0.32 0.716 0.716v0.646c0 0.086-0.015 0.171-0.045 0.25l-0.291 0.779c-0.042 0.112-0.111 0.213-0.201 0.29l-1.257 1.088v2.833l0.37 0.087c0.323 0.076 0.551 0.365 0.551 0.696v0.066h0.401c0.259 0 0.498 0.14 0.624 0.366l0.272 0.487 0.462 0.207c0.258 0.116 0.423 0.371 0.423 0.653v0.244l0.774 0.566c0.184 0.135 0.293 0.35 0.293 0.577v3.322l1.993 1.779c0.152 0.137 0.239 0.331 0.239 0.534v2.982l0.435 0.267c0.212 0.13 0.34 0.361 0.34 0.61v0.365zM8.188 6.931h0.436l0.345-0.114-0.717 0.018-0.064 0.096zM41.018 27.563c-0.096 0-0.193-0.020-0.284-0.059-0.263-0.112-0.431-0.371-0.431-0.656v-1.271l-0.138-0.116h-1.101c-0.395 0-0.716-0.321-0.716-0.717v-1.97c0-0.255 0.136-0.492 0.357-0.62l3.797-2.19c-0.021-0.015-0.041-0.031-0.060-0.049l-1.448-1.284-0.696-0.197c-0.308-0.087-0.522-0.369-0.522-0.688v-2.122l-0.533-0.835h-0.236v2.069c0 0.212-0.093 0.412-0.255 0.548-0.161 0.137-0.375 0.193-0.584 0.157l-1.344-0.237c-0.341-0.060-0.592-0.357-0.592-0.705v-0.718l-0.131-0.010c-0.374-0.028-0.663-0.339-0.663-0.713v-0.99l-0.562-0.569h-0.428c0.104 0.127 0.16 0.286 0.16 0.452v1.224c0 0.294-0.179 0.559-0.454 0.666l-0.585 0.23v1.32c0 0.205-0.087 0.4-0.241 0.534l-0.799 0.71v1.73c0 0.242-0.121 0.465-0.323 0.598l-0.654 0.428v1.423c0 0.155-0.050 0.304-0.141 0.427l-1.346 1.807c-0.135 0.181-0.348 0.288-0.573 0.288h-1.207c-0.248 0-0.479-0.129-0.61-0.341l-0.537-0.873c-0.069-0.112-0.106-0.243-0.106-0.375v-4.591l-0.545-0.155c-0.229-0.066-0.411-0.24-0.485-0.465l-0.328-1h-0.068l-0.714 0.626c-0.261 0.227-0.646 0.236-0.917 0.021l-1.008-0.802c-0.066-0.053-0.121-0.114-0.164-0.187l-1.008-1.646c-0.139-0.227-0.14-0.513-0.003-0.741l0.387-0.647v-1.085c0-0.2 0.084-0.392 0.232-0.528l1.527-1.399c0.162-0.147 0.383-0.212 0.598-0.178l2.449 0.399h1.419l-1.143-0.52-1.803-0.323h-3.328c-0.395 0-0.716-0.32-0.716-0.716v-0.902c0-0.196 0.079-0.383 0.221-0.517l1.191-1.137c0.119-0.113 0.273-0.182 0.438-0.196l1.947-0.155 1.648-1.573c0.218-0.208 0.547-0.257 0.814-0.122l0.779 0.391h2.23l1.683-1.107c0.117-0.076 0.253-0.118 0.393-0.118h12.45c0.394 0 0.716 0.32 0.716 0.716v1.341c0 0.395-0.321 0.716-0.716 0.716h-1.629l0.048 0.064 1.785 0.516c0.305 0.088 0.516 0.369 0.516 0.687v0.875c0 0.395-0.321 0.716-0.716 0.716h-0.63v0.7l0.996 0.596c0.215 0.129 0.348 0.363 0.348 0.615v1.399c0 0.245-0.124 0.473-0.332 0.604l-0.219 0.139v5.206c0 0.395-0.321 0.716-0.716 0.716h-1.113c0.002 0.001 0.002 0.002 0.002 0.003l0.727 0.997c0.090 0.122 0.138 0.269 0.138 0.42v2.818c0 0.199-0.082 0.387-0.226 0.522l-2.679 2.513c-0.137 0.124-0.313 0.192-0.491 0.192zM39.778 24.030h0.648c0.169 0 0.332 0.059 0.462 0.167l0.592 0.5c0.149 0.125 0.241 0.306 0.252 0.5l1.25-1.172v-2.275l-0.21-0.289-2.992 1.727v0.842zM28.685 24.030h0.448l0.989-1.329v-1.571c0-0.243 0.121-0.465 0.323-0.598l0.654-0.429v-1.664c0-0.205 0.087-0.4 0.241-0.534l0.799-0.71v-1.486c0-0.294 0.18-0.558 0.454-0.666l0.585-0.23v-0.42l-1.049-0.954c-0.218-0.199-0.293-0.512-0.186-0.788 0.106-0.276 0.371-0.457 0.667-0.457h2.566c0.192 0 0.375 0.076 0.508 0.212l0.979 0.991c0.133 0.134 0.207 0.315 0.207 0.504v0.619l0.131 0.010c0.249 0.019 0.463 0.164 0.576 0.371v-0.824c0-0.395 0.32-0.716 0.716-0.716h1.344c0.244 0 0.472 0.124 0.602 0.331l0.858 1.341c0.072 0.114 0.111 0.248 0.111 0.385v1.79l0.333 0.093c0.105 0.029 0.2 0.082 0.282 0.154l1.366 1.214h0.758v-4.888c0-0.245 0.124-0.473 0.332-0.604l0.219-0.139v-0.6l-0.995-0.596c-0.217-0.129-0.349-0.363-0.349-0.615v-1.819c0-0.266 0.145-0.498 0.36-0.621l-0.515-0.149c-0.151-0.043-0.283-0.135-0.375-0.261l-1.039-1.399c-0.161-0.217-0.187-0.507-0.065-0.748 0.066-0.13 0.167-0.235 0.289-0.304h-8.832l-1.686 1.107c-0.117 0.076-0.253 0.118-0.393 0.118h-2.613c-0.111 0-0.221-0.025-0.32-0.075l-0.48-0.241-1.468 1.401c-0.119 0.113-0.273 0.182-0.437 0.196l-1.947 0.155-0.663 0.633h2.554c0.042 0 0.085 0.003 0.126 0.011l1.955 0.35c0.058 0.011 0.116 0.029 0.171 0.053l2.078 0.946c0.269 0.123 0.435 0.4 0.418 0.695l-0.061 0.978c-0.023 0.377-0.336 0.671-0.714 0.671h-2.565c-0.038 0-0.077-0.003-0.114-0.010l-2.163-0.352-1.040 0.952v0.969c0 0.129-0.035 0.257-0.102 0.368l-0.266 0.444 0.717 1.169 0.442 0.352 0.467-0.409c0.13-0.113 0.298-0.177 0.471-0.177h0.855c0.31 0 0.584 0.199 0.681 0.493l0.37 1.131 0.699 0.197c0.308 0.087 0.52 0.369 0.52 0.689v4.928l0.219 0.364z"></path>
</svg>
