<?xml version="1.0" encoding="utf-8"?>
<!-- Generated by IcoMoon.io -->
<!DOCTYPE svg PUBLIC "-//W3C//DTD SVG 1.1//EN" "http://www.w3.org/Graphics/SVG/1.1/DTD/svg11.dtd">
<svg version="1.1" xmlns="http://www.w3.org/2000/svg" xmlns:xlink="http://www.w3.org/1999/xlink" width="34" height="32" viewBox="0 0 34 32">
<path fill="#000" d="M32.998 16.379l-2.951-9.039c-0.049-0.152-0.146-0.286-0.277-0.379l-7.726-5.587c-0.129-0.094-0.284-0.145-0.445-0.145h-9.549c-0.16 0-0.315 0.051-0.445 0.145l-7.726 5.587c-0.129 0.093-0.226 0.228-0.275 0.379l-2.951 9.039c-0.049 0.154-0.049 0.318 0 0.472l2.951 9.039c0.049 0.152 0.146 0.286 0.277 0.379l7.726 5.587c0.129 0.094 0.284 0.144 0.445 0.144h9.55c0.161 0 0.315-0.049 0.445-0.144l7.726-5.587c0.13-0.093 0.227-0.227 0.277-0.379l2.951-9.039c0.047-0.154 0.047-0.318-0.002-0.472zM29.788 11.436l-4.097-0.295 3.237-2.34 0.86 2.635zM25.825 5.981l2.207 1.595-3.217 2.327 1.011-3.922zM28.557 12.869l-3.041 2.451-0.893-2.734 3.933 0.283zM21.999 3.214l2.199 1.589-3.427 2.171 1.229-3.76zM16.826 14.171l-1.523-4.667h3.047l-1.524 4.667zM19.793 9.969l2.464 1.783-3.988 2.882 1.524-4.665zM15.381 14.635l-3.987-2.882 2.464-1.783 1.523 4.665zM14.481 15.857h-4.924l0.94-2.881 3.984 2.881zM14.481 17.374l-3.983 2.881-0.94-2.881h4.922zM15.38 18.597l-1.522 4.663-2.463-1.781 3.985-2.882zM16.826 19.060l1.523 4.666h-3.046l1.523-4.666zM18.271 18.597l3.986 2.882-2.463 1.781-1.523-4.663zM19.171 17.374h4.925l-0.94 2.881-3.985-2.881zM19.171 15.857l3.985-2.881 0.94 2.881h-4.925zM24.080 6.675l-0.981 3.81-2.351-1.7 3.332-2.11zM20.555 2.747l-1.231 3.766-1.495-3.766h2.726zM18.278 7.986h-2.904l1.452-3.656 1.451 3.656zM15.821 2.747l-1.495 3.766-1.23-3.766h2.725zM10.555 10.486l-0.981-3.811 3.33 2.111-2.348 1.7zM11.652 3.214l1.228 3.76-3.425-2.172 2.198-1.588zM7.827 5.979l1.011 3.925-3.218-2.328 2.208-1.597zM9.029 12.586l-0.893 2.735-3.042-2.452 3.934-0.283zM4.723 8.801l3.236 2.34-4.097 0.296 0.861-2.636zM3.245 13.327l3.138 2.529h-3.965l0.826-2.529zM3.267 19.968l-0.846-2.593h3.983l-3.136 2.593zM3.886 21.866l4.051 0.239-3.214 2.325-0.837-2.564zM7.826 27.25l-2.207-1.595 3.216-2.326-1.009 3.921zM5.103 20.418l3.033-2.508 0.895 2.741-3.928-0.233zM11.652 30.016l-2.203-1.592 3.434-2.179-1.231 3.77zM9.574 26.547l0.979-3.803 2.345 1.695-3.324 2.108zM13.096 30.482l1.231-3.77 1.497 3.77h-2.728zM15.377 25.244h2.898l-1.449 3.648-1.449-3.648zM17.827 30.482l1.497-3.77 1.232 3.77h-2.729zM23.099 22.744l0.98 3.803-3.326-2.108 2.346-1.695zM21.999 30.016l-1.231-3.77 3.434 2.177-2.203 1.593zM25.516 17.91l3.033 2.508-3.928 0.232 0.895-2.739zM25.828 27.248l-1.009-3.918 3.214 2.324-2.204 1.594zM28.928 24.43l-3.213-2.325 4.051-0.239-0.839 2.564zM30.385 19.968l-3.135-2.593h3.983l-0.848 2.593zM27.269 15.857l3.139-2.529 0.825 2.529h-3.964z"></path>
</svg>
