<?xml version="1.0" encoding="utf-8"?>
<!-- Generated by IcoMoon.io -->
<!DOCTYPE svg PUBLIC "-//W3C//DTD SVG 1.1//EN" "http://www.w3.org/Graphics/SVG/1.1/DTD/svg11.dtd">
<svg version="1.1" xmlns="http://www.w3.org/2000/svg" xmlns:xlink="http://www.w3.org/1999/xlink" width="26" height="32" viewBox="0 0 26 32">
<path fill="#000" d="M24.617 1.23h-19.444c-0.221 0-0.432 0.089-0.584 0.249l-3.641 3.78c-0.202 0.148-0.332 0.386-0.332 0.655v25.275c0 0.449 0.363 0.812 0.812 0.812h19.444c0.229 0 0.435-0.095 0.583-0.247l3.746-3.871c0.145-0.152 0.227-0.355 0.227-0.565v-25.276c0.001-0.447-0.362-0.812-0.811-0.812zM5.519 2.854h17.209l-2.114 2.249h-17.261l2.166-2.249zM20.059 30.378h-17.821v-23.652h17.821v23.652zM21.682 29.183v-22.846l2.124-2.258v22.911l-2.124 2.194z"></path>
<path fill="#000" d="M4.705 20.833c0 0.495 0.336 0.838 0.918 0.838h4.019c0.444 0 0.722-0.292 0.722-0.685 0-0.404-0.277-0.698-0.722-0.698h-2.982l3.396-4.238c0.127-0.161 0.197-0.363 0.197-0.606 0-0.494-0.336-0.837-0.919-0.837h-3.878c-0.445 0-0.722 0.292-0.722 0.685 0 0.404 0.275 0.696 0.722 0.696h2.843l-3.396 4.239c-0.127 0.161-0.197 0.363-0.197 0.605z"></path>
<path fill="#000" d="M15.029 21.782c0.958 0 1.758-0.281 2.39-0.857 0.355-0.323 0.385-0.767 0.108-1.059-0.267-0.314-0.661-0.354-1.046-0.040-0.434 0.374-0.927 0.554-1.49 0.554-0.603 0-1.106-0.202-1.51-0.606-0.405-0.403-0.613-0.958-0.613-1.655 0-0.685 0.208-1.23 0.613-1.625 0.415-0.404 0.888-0.605 1.431-0.605 0.572 0 1.056 0.182 1.461 0.545 0.385 0.323 0.779 0.283 1.046-0.041 0.275-0.292 0.247-0.737-0.109-1.059-0.652-0.565-1.431-0.848-2.331-0.848-1.035 0-1.895 0.333-2.586 1.009-0.69 0.666-1.037 1.554-1.037 2.655 0 1.090 0.346 1.967 1.037 2.634 0.702 0.666 1.58 0.998 2.636 0.998z"></path>
</svg>
