<?xml version="1.0" encoding="utf-8"?>
<!-- Generated by IcoMoon.io -->
<!DOCTYPE svg PUBLIC "-//W3C//DTD SVG 1.1//EN" "http://www.w3.org/Graphics/SVG/1.1/DTD/svg11.dtd">
<svg version="1.1" xmlns="http://www.w3.org/2000/svg" xmlns:xlink="http://www.w3.org/1999/xlink" width="18" height="32" viewBox="0 0 18 32">
<path fill="#000" d="M12.149 19.183c-1.036-1.009-1.914-1.881-2.175-2.566 0.262-0.685 1.139-1.558 2.175-2.566 2.385-2.323 5.65-5.503 5.652-10.552 0-0.001 0.001-0.003 0.001-0.006 0-2.099-6.578-2.262-8.593-2.262s-8.592 0.163-8.593 2.262v0c0 5.052 3.268 8.234 5.653 10.556 1.036 1.009 1.914 1.883 2.176 2.568-0.262 0.685-1.138 1.558-2.174 2.566-2.385 2.323-5.649 5.503-5.652 10.549 0 0.003-0.001 0.004-0.001 0.007 0 2.098 6.576 2.262 8.592 2.262s8.594-0.163 8.594-2.262c0-0.003-0.001-0.004-0.001-0.006-0.004-5.050-3.268-8.231-5.653-10.551zM9.209 2.645c3.663 0 6.027 0.481 6.897 0.846-0.87 0.365-3.234 0.846-6.897 0.846s-6.027-0.481-6.896-0.846c0.869-0.365 3.233-0.846 6.896-0.846zM7.255 13.035c-2.067-2.013-4.572-4.468-5.11-8.11 2.069 0.75 5.663 0.829 7.063 0.829s4.992-0.081 7.062-0.829c-0.538 3.642-3.042 6.099-5.111 8.112-0.795 0.776-1.465 1.451-1.95 2.108-0.487-0.658-1.156-1.333-1.953-2.109zM7.257 20.197c0.797-0.776 1.465-1.449 1.952-2.106 0.487 0.657 1.155 1.331 1.95 2.106 2.068 2.013 4.572 4.468 5.11 8.11-2.068-0.75-5.662-0.831-7.062-0.831s-4.991 0.081-7.060 0.831c0.539-3.642 3.043-6.098 5.11-8.11zM9.207 30.585c-3.663 0-6.027-0.481-6.896-0.846 0.869-0.367 3.231-0.848 6.896-0.848 3.666 0 6.030 0.481 6.899 0.848-0.87 0.367-3.234 0.846-6.899 0.846z"></path>
</svg>
