<?xml version="1.0" encoding="utf-8"?>
<!-- Generated by IcoMoon.io -->
<!DOCTYPE svg PUBLIC "-//W3C//DTD SVG 1.1//EN" "http://www.w3.org/Graphics/SVG/1.1/DTD/svg11.dtd">
<svg version="1.1" xmlns="http://www.w3.org/2000/svg" xmlns:xlink="http://www.w3.org/1999/xlink" width="32" height="32" viewBox="0 0 32 32">
<path fill="#000" d="M28.22 32h-24.442c-1.745 0-3.163-1.419-3.163-3.163v-24.443c0-1.745 1.419-3.162 3.163-3.162h24.442c1.745 0 3.163 1.418 3.163 3.162v24.443c0 1.745-1.419 3.163-3.163 3.163zM3.779 2.636c-0.969 0-1.758 0.789-1.758 1.757v24.443c0 0.97 0.789 1.758 1.758 1.758h24.442c0.97 0 1.758-0.789 1.758-1.758v-24.442c0-0.969-0.789-1.757-1.758-1.757h-24.442zM27.034 28.352h-22.068c-0.388 0-0.703-0.314-0.703-0.703v-22.068c0-0.388 0.314-0.703 0.703-0.703h22.068c0.387 0 0.703 0.314 0.703 0.703v22.068c0 0.389-0.315 0.703-0.703 0.703zM20.444 26.947h5.887v-5.872h-5.887v5.872zM12.959 26.947h6.079v-5.872h-6.079v5.872zM5.669 26.947h5.885v-5.872h-5.885v5.872zM20.444 19.67h5.887v-6.081h-5.887v6.081zM12.959 19.67h6.079v-6.081h-6.079v6.081zM5.669 19.67h5.885v-6.081h-5.885v6.081zM20.444 12.185h5.887v-5.901h-5.887v5.901zM12.959 12.185h6.079v-5.901h-6.079v5.901zM5.669 12.185h5.885v-5.901h-5.885v5.901z"></path>
</svg>
