<?xml version="1.0" encoding="utf-8"?>
<!-- Generated by IcoMoon.io -->
<!DOCTYPE svg PUBLIC "-//W3C//DTD SVG 1.1//EN" "http://www.w3.org/Graphics/SVG/1.1/DTD/svg11.dtd">
<svg version="1.1" xmlns="http://www.w3.org/2000/svg" xmlns:xlink="http://www.w3.org/1999/xlink" width="26" height="32" viewBox="0 0 26 32">
<path fill="#000" d="M23.869 32h-22.098c-0.31 0-0.602-0.124-0.815-0.339-0.051-0.051-0.099-0.107-0.14-0.168-0.213-0.313-0.26-0.711-0.122-1.063l11.042-28.475c0.107-0.272 0.311-0.488 0.563-0.612 0.558-0.284 1.349-0.005 1.589 0.609l11.057 28.479c0.136 0.352 0.092 0.75-0.122 1.063-0.041 0.061-0.088 0.116-0.14 0.168-0.213 0.213-0.505 0.339-0.815 0.339zM6.264 29.703h12.93c0.041-0.005 0.082-0.007 0.124-0.007h2.872l-9.378-24.142-9.361 24.142 2.814 0.007z"></path>
</svg>
