<?xml version="1.0" encoding="utf-8"?>
<!-- Generated by IcoMoon.io -->
<!DOCTYPE svg PUBLIC "-//W3C//DTD SVG 1.1//EN" "http://www.w3.org/Graphics/SVG/1.1/DTD/svg11.dtd">
<svg version="1.1" xmlns="http://www.w3.org/2000/svg" xmlns:xlink="http://www.w3.org/1999/xlink" width="35" height="32" viewBox="0 0 35 32">
<path fill="#000" d="M23.821 6.356v-2.143c0-3.977-14.685-3.976-14.685 0v7.633c-4.019-0.237-8.521 0.745-8.521 2.946v11.319c0 0.545 0.283 1.014 0.76 1.414 1.265 1.064 3.933 1.616 6.583 1.616 0.4 0 0.798-0.017 1.193-0.042 0.157 1.904 3.759 2.902 7.328 2.902 3.648 0 7.342-1.041 7.342-3.028v-0.577c1.059 0.215 2.235 0.33 3.414 0.33 2.396 0 4.805-0.452 6.18-1.323 0.719-0.456 1.162-1.023 1.162-1.706v-16.665c0.001-2.627-6.406-3.518-10.755-2.674zM16.479 2.346c3.773 0 6.181 1.106 6.181 1.867 0 0.044-0.036 0.092-0.052 0.138-0.007 0.023-0.014 0.046-0.024 0.070-0.073 0.144-0.207 0.29-0.417 0.44-0.177 0.124-0.411 0.246-0.678 0.364-0.259 0.115-0.558 0.221-0.894 0.319-0.53 0.157-1.143 0.289-1.845 0.382-0.686 0.092-1.438 0.152-2.27 0.152s-1.582-0.060-2.27-0.152c-0.702-0.094-1.315-0.225-1.843-0.382-0.336-0.099-0.637-0.206-0.894-0.319-0.267-0.118-0.501-0.239-0.678-0.364-0.214-0.149-0.345-0.296-0.418-0.44-0.012-0.024-0.019-0.046-0.026-0.070-0.016-0.046-0.051-0.094-0.051-0.138 0-0.761 2.407-1.867 6.181-1.867zM10.298 7.181v-1.261c1.376 0.871 3.784 1.323 6.181 1.323s4.803-0.452 6.181-1.323v1.818c-0.031 0.035-0.059 0.070-0.098 0.103-0.031 0.030-0.084 0.059-0.121 0.088-0.102 0.082-0.204 0.164-0.336 0.243-0.197 0.12-0.429 0.232-0.692 0.34-0.012 0.005-0.027 0.009-0.038 0.015-0.317 0.128-0.664 0.249-1.066 0.352-0.128 0.034-0.272 0.059-0.409 0.088-0.395 0.085-0.812 0.16-1.265 0.217-0.668 0.084-1.38 0.141-2.157 0.141s-1.488-0.056-2.156-0.139c-0.609-0.077-1.175-0.177-1.674-0.306-0.416-0.108-0.777-0.233-1.105-0.367-0.264-0.108-0.494-0.222-0.692-0.341-0.18-0.108-0.335-0.217-0.457-0.331-0.037-0.035-0.065-0.070-0.096-0.103v-0.556zM22.66 25.216v1.344c-0.031 0.035-0.059 0.071-0.098 0.106-0.045 0.041-0.093 0.080-0.143 0.121-0.014 0.012-0.024 0.023-0.038 0.034-0.074 0.055-0.177 0.106-0.266 0.159-0.269 0.166-0.59 0.322-0.978 0.465-0.036 0.013-0.062 0.027-0.098 0.040-0.15 0.052-0.326 0.095-0.491 0.142-1.084 0.312-2.46 0.523-4.069 0.523-0.947 0-1.803-0.079-2.576-0.203-0.541-0.086-1.049-0.192-1.495-0.319-0.161-0.046-0.336-0.088-0.484-0.139-0.001-0.001-0.005-0.001-0.006-0.002-0.438-0.152-0.782-0.324-1.076-0.505-0.087-0.053-0.191-0.105-0.265-0.159-0.070-0.052-0.127-0.103-0.184-0.156-0.037-0.035-0.065-0.071-0.096-0.106v-1.9c0.163 0.116 0.35 0.224 0.553 0.328 0.023 0.012 0.051 0.021 0.074 0.031 0.215 0.108 0.444 0.21 0.699 0.301 0.084 0.030 0.186 0.052 0.273 0.081 0.242 0.078 0.482 0.159 0.753 0.223 0.398 0.096 0.826 0.177 1.278 0.242 0.066 0.009 0.143 0.010 0.21 0.019 0.372 0.046 0.762 0.077 1.162 0.101 0.1 0.006 0.189 0.021 0.29 0.024 0.293 0.014 0.583 0.030 0.89 0.030s0.597-0.017 0.89-0.030c0.578-0.027 1.141-0.071 1.662-0.144 0.305-0.044 0.582-0.106 0.863-0.164 0.135-0.028 0.285-0.046 0.412-0.078 0.269-0.065 0.509-0.144 0.749-0.222 0.088-0.029 0.193-0.052 0.276-0.082 0.283-0.101 0.54-0.213 0.774-0.332 0.148-0.074 0.274-0.158 0.404-0.238 0.048 0.016 0.1 0.030 0.15 0.046v0.423zM15.107 15.236c0.062 0.005 0.129 0.002 0.192 0.007 0.384 0.023 0.774 0.042 1.18 0.042 0.472 0 0.929-0.017 1.371-0.049 0.74-0.052 1.415-0.156 2.043-0.287 0.137-0.028 0.287-0.049 0.418-0.081 0.267-0.065 0.504-0.144 0.745-0.222 0.088-0.029 0.193-0.052 0.279-0.084 0.281-0.101 0.538-0.213 0.771-0.331 0.129-0.066 0.238-0.138 0.352-0.208 0.062 0.022 0.136 0.040 0.202 0.060v1.719c-0.031 0.035-0.059 0.070-0.098 0.103-0.050 0.048-0.127 0.092-0.188 0.137-0.086 0.065-0.164 0.131-0.267 0.194-0.105 0.063-0.24 0.12-0.361 0.178-0.111 0.053-0.207 0.111-0.331 0.163-0.114 0.046-0.236 0.091-0.359 0.134-0.231 0.082-0.474 0.163-0.747 0.233-0.13 0.034-0.276 0.060-0.416 0.091-0.393 0.085-0.806 0.159-1.257 0.215-0.668 0.084-1.38 0.141-2.157 0.141-0.411 0-0.801-0.017-1.18-0.045-0.337-0.024-0.663-0.056-0.978-0.096-0.064-0.008-0.121-0.020-0.184-0.028-0.393-0.053-0.761-0.12-1.108-0.194-0.127-0.028-0.262-0.051-0.382-0.082-0.416-0.108-0.777-0.232-1.104-0.367-0.171-0.070-0.306-0.146-0.45-0.221-0.078-0.041-0.173-0.078-0.243-0.12-0.18-0.108-0.335-0.218-0.458-0.332-0.037-0.035-0.065-0.070-0.096-0.103v-1.9c0.163 0.116 0.35 0.225 0.553 0.329 0.232 0.12 0.49 0.23 0.771 0.331 0.315 0.114 0.656 0.216 1.024 0.306 0.412 0.1 0.863 0.179 1.332 0.244 0.365 0.053 0.736 0.098 1.129 0.125zM10.298 17.356v-0.765c0.164 0.116 0.35 0.225 0.554 0.329 0.232 0.12 0.49 0.23 0.771 0.331 0.107 0.038 0.236 0.069 0.348 0.103 0.22 0.070 0.434 0.143 0.677 0.201 0.458 0.111 0.964 0.193 1.49 0.261 0.316 0.042 0.633 0.082 0.971 0.107 0.062 0.005 0.129 0.002 0.191 0.007 0.384 0.024 0.774 0.042 1.18 0.042 0.472 0 0.928-0.017 1.369-0.049 0.741-0.052 1.415-0.157 2.044-0.287 0.137-0.028 0.286-0.049 0.416-0.080 0.267-0.065 0.506-0.144 0.747-0.222 0.088-0.029 0.193-0.051 0.279-0.082 0.281-0.101 0.538-0.213 0.771-0.331 0.129-0.066 0.236-0.138 0.35-0.208 0.064 0.022 0.138 0.040 0.204 0.060v1.72c-0.031 0.035-0.059 0.070-0.098 0.103-0.045 0.043-0.114 0.081-0.168 0.122-0.091 0.071-0.174 0.142-0.288 0.21-0.105 0.063-0.24 0.12-0.364 0.178-0.109 0.055-0.204 0.111-0.329 0.164-0.114 0.045-0.236 0.089-0.359 0.132-0.231 0.084-0.474 0.164-0.747 0.233-0.13 0.034-0.276 0.060-0.416 0.091-0.393 0.084-0.806 0.159-1.256 0.215-0.669 0.084-1.381 0.141-2.158 0.141-0.411 0-0.801-0.017-1.18-0.044-0.337-0.024-0.663-0.057-0.978-0.096-0.064-0.008-0.121-0.020-0.184-0.027-0.422-0.058-0.815-0.128-1.184-0.211-0.101-0.024-0.21-0.042-0.307-0.067-0.26-0.067-0.492-0.143-0.716-0.222-0.134-0.046-0.266-0.094-0.389-0.144-0.264-0.109-0.494-0.222-0.692-0.341-0.18-0.108-0.335-0.218-0.458-0.332-0.037-0.034-0.065-0.069-0.096-0.103v-1.137zM22.66 22.527v1.344c-0.031 0.035-0.059 0.070-0.098 0.105-0.043 0.041-0.111 0.079-0.164 0.12-0.093 0.072-0.177 0.143-0.293 0.213-0.098 0.058-0.224 0.111-0.338 0.167-0.118 0.058-0.218 0.12-0.352 0.173-0.114 0.046-0.238 0.091-0.361 0.135-0.231 0.082-0.474 0.163-0.749 0.233-0.129 0.033-0.274 0.060-0.414 0.089-0.394 0.084-0.811 0.158-1.261 0.215-0.667 0.084-1.378 0.141-2.152 0.141-0.411 0-0.801-0.017-1.18-0.045-0.335-0.024-0.66-0.056-0.973-0.095-0.065-0.008-0.124-0.020-0.188-0.028-0.422-0.057-0.817-0.128-1.185-0.21-0.1-0.023-0.208-0.041-0.303-0.066-0.264-0.069-0.498-0.145-0.723-0.224-0.132-0.048-0.265-0.094-0.386-0.144-0.262-0.108-0.492-0.221-0.691-0.34-0.179-0.108-0.333-0.218-0.457-0.331-0.037-0.035-0.065-0.070-0.096-0.105v-1.9c0.163 0.116 0.35 0.224 0.553 0.328 0.022 0.012 0.051 0.021 0.073 0.031 0.215 0.107 0.443 0.209 0.697 0.301 0.091 0.033 0.201 0.058 0.296 0.088 0.236 0.076 0.467 0.153 0.728 0.217 0.458 0.111 0.964 0.193 1.491 0.262 0.31 0.040 0.62 0.080 0.951 0.105 0.067 0.005 0.142 0.003 0.21 0.008 0.384 0.023 0.774 0.042 1.18 0.042 0.479 0 0.943-0.019 1.389-0.050 0.732-0.053 1.402-0.157 2.025-0.285 0.137-0.028 0.287-0.050 0.418-0.081 0.267-0.065 0.504-0.144 0.745-0.221 0.091-0.029 0.195-0.053 0.281-0.084 0.279-0.102 0.538-0.214 0.769-0.332 0.141-0.071 0.259-0.149 0.379-0.224 0.055 0.020 0.118 0.033 0.174 0.051v0.398zM22.66 19.837v1.346c-0.031 0.035-0.059 0.070-0.098 0.103-0.043 0.042-0.114 0.080-0.166 0.121-0.093 0.071-0.177 0.143-0.29 0.211-0.095 0.058-0.222 0.11-0.333 0.165-0.118 0.059-0.222 0.121-0.357 0.175-0.114 0.046-0.238 0.091-0.361 0.135-0.231 0.082-0.472 0.163-0.745 0.231-0.131 0.034-0.279 0.062-0.418 0.091-0.391 0.084-0.804 0.159-1.251 0.216-0.67 0.084-1.385 0.141-2.163 0.141-0.411 0-0.801-0.017-1.18-0.044-0.338-0.024-0.667-0.057-0.983-0.096-0.063-0.008-0.118-0.020-0.179-0.027-0.422-0.058-0.817-0.129-1.185-0.213-0.101-0.023-0.211-0.042-0.308-0.067-0.259-0.066-0.491-0.142-0.712-0.22-0.135-0.048-0.268-0.095-0.391-0.146-0.262-0.108-0.492-0.221-0.691-0.34-0.179-0.108-0.335-0.218-0.457-0.332-0.037-0.034-0.064-0.069-0.096-0.103v-1.901c0.163 0.116 0.35 0.224 0.553 0.329 0.022 0.012 0.049 0.020 0.071 0.030 0.216 0.107 0.446 0.208 0.702 0.301 0.091 0.033 0.199 0.057 0.294 0.087 0.236 0.076 0.468 0.154 0.731 0.218 0.458 0.111 0.963 0.194 1.49 0.262 0.314 0.041 0.627 0.081 0.962 0.106 0.065 0.005 0.135 0.003 0.2 0.007 0.383 0.023 0.774 0.042 1.18 0.042 0.475 0 0.935-0.019 1.38-0.049 0.736-0.053 1.409-0.157 2.034-0.287 0.137-0.028 0.286-0.049 0.416-0.080 0.267-0.066 0.506-0.144 0.747-0.222 0.088-0.028 0.193-0.052 0.279-0.082 0.281-0.102 0.538-0.213 0.771-0.331 0.129-0.066 0.236-0.138 0.35-0.209 0.064 0.023 0.138 0.040 0.204 0.060v0.373zM10.298 9.87v-1.345c0.163 0.116 0.35 0.225 0.553 0.329 0.233 0.12 0.49 0.23 0.772 0.332 0.315 0.114 0.656 0.216 1.024 0.306 0.731 0.177 1.556 0.303 2.457 0.367 0.443 0.031 0.901 0.049 1.375 0.049s0.932-0.017 1.375-0.049c0.738-0.052 1.411-0.156 2.039-0.286 0.137-0.028 0.286-0.049 0.416-0.081 0.297-0.072 0.565-0.158 0.828-0.246 0.064-0.021 0.136-0.036 0.197-0.058 0.281-0.101 0.538-0.213 0.771-0.332 0.204-0.103 0.39-0.213 0.554-0.329v1.9c-0.031 0.035-0.059 0.070-0.098 0.105-0.122 0.114-0.276 0.223-0.456 0.331-0.122 0.073-0.279 0.141-0.424 0.209-0.093 0.043-0.166 0.091-0.267 0.132-0.114 0.046-0.236 0.091-0.359 0.134-0.231 0.082-0.474 0.163-0.747 0.233-0.13 0.034-0.276 0.060-0.416 0.091-0.393 0.085-0.806 0.159-1.257 0.215-0.668 0.084-1.38 0.141-2.157 0.141s-1.489-0.057-2.157-0.141c-0.609-0.075-1.175-0.177-1.674-0.306-0.416-0.108-0.777-0.232-1.105-0.367-0.264-0.108-0.494-0.221-0.692-0.34-0.18-0.109-0.336-0.22-0.458-0.333-0.037-0.035-0.065-0.070-0.096-0.105v-0.555zM10.298 11.77v-0.556c0.164 0.116 0.35 0.224 0.554 0.329 0.232 0.12 0.49 0.23 0.771 0.331 0.315 0.114 0.656 0.216 1.024 0.306 0.732 0.177 1.56 0.304 2.461 0.367 0.441 0.031 0.898 0.049 1.371 0.049s0.929-0.017 1.371-0.049c0.74-0.052 1.415-0.157 2.043-0.287 0.137-0.028 0.286-0.049 0.416-0.080 0.267-0.065 0.506-0.144 0.747-0.222 0.088-0.029 0.193-0.051 0.279-0.082 0.281-0.101 0.538-0.213 0.771-0.331 0.114-0.058 0.209-0.122 0.311-0.185 0.077 0.027 0.161 0.051 0.243 0.077v1.681c-0.031 0.035-0.059 0.070-0.098 0.103-0.050 0.048-0.127 0.092-0.188 0.138-0.086 0.065-0.164 0.13-0.267 0.194-0.105 0.063-0.24 0.118-0.361 0.178-0.111 0.055-0.207 0.111-0.331 0.163-0.114 0.046-0.236 0.089-0.359 0.134-0.231 0.082-0.474 0.163-0.745 0.232-0.131 0.034-0.279 0.060-0.418 0.091-0.391 0.084-0.805 0.158-1.253 0.215-0.669 0.084-1.382 0.142-2.16 0.142-0.416 0-0.812-0.019-1.195-0.046-0.332-0.024-0.654-0.056-0.965-0.095-0.098-0.013-0.187-0.029-0.282-0.043-0.498-0.071-0.971-0.155-1.39-0.262-0.416-0.107-0.776-0.232-1.104-0.366-0.264-0.108-0.494-0.221-0.692-0.34-0.179-0.108-0.335-0.218-0.457-0.332-0.037-0.035-0.065-0.070-0.096-0.103v-1.346zM7.958 12.925c0.412 0 0.8 0.019 1.179 0.043v3.65c-0.375 0.026-0.767 0.042-1.179 0.042-0.831 0-1.582-0.060-2.27-0.152-0.702-0.094-1.315-0.225-1.843-0.382-0.336-0.099-0.638-0.206-0.896-0.319-0.267-0.118-0.501-0.239-0.678-0.364-0.213-0.15-0.345-0.297-0.417-0.44-0.013-0.024-0.019-0.046-0.026-0.070-0.016-0.046-0.051-0.094-0.051-0.138 0-0.763 2.408-1.869 6.181-1.869zM1.777 17.766v-1.268c1.376 0.871 3.786 1.323 6.181 1.323 0.395 0 0.788-0.019 1.179-0.042v2.082c-0.377 0.027-0.769 0.044-1.179 0.044-0.776 0-1.489-0.057-2.157-0.141-0.609-0.077-1.176-0.177-1.674-0.307-0.415-0.107-0.777-0.23-1.105-0.364-0.263-0.109-0.493-0.222-0.692-0.343-0.179-0.107-0.333-0.218-0.457-0.331-0.037-0.034-0.065-0.069-0.096-0.105v-0.549zM1.777 20.453v-1.35c0.163 0.116 0.35 0.223 0.553 0.328 0.233 0.118 0.491 0.229 0.772 0.331 0.315 0.114 0.656 0.216 1.024 0.304 0.732 0.177 1.558 0.304 2.457 0.367 0.443 0.031 0.9 0.050 1.375 0.050 0.407 0 0.796-0.020 1.179-0.043v2.106c-0.377 0.027-0.769 0.044-1.179 0.044-0.776 0-1.489-0.057-2.157-0.141-0.609-0.074-1.176-0.177-1.674-0.304-0.415-0.109-0.776-0.233-1.103-0.367-0.264-0.109-0.494-0.222-0.692-0.34-0.18-0.109-0.335-0.218-0.458-0.331-0.037-0.036-0.065-0.071-0.096-0.105v-0.549zM1.777 23.144v-1.354c0.164 0.116 0.351 0.224 0.554 0.329 0.232 0.121 0.49 0.229 0.771 0.331 0.315 0.114 0.656 0.216 1.025 0.307 0.733 0.177 1.561 0.304 2.461 0.367 0.441 0.029 0.898 0.048 1.371 0.048 0.407 0 0.796-0.019 1.179-0.041v2.115c-0.377 0.026-0.77 0.040-1.179 0.040-1.608 0-2.983-0.209-4.064-0.522-0.316-0.091-0.609-0.191-0.871-0.297-0.228-0.093-0.421-0.193-0.603-0.295-0.030-0.021-0.069-0.036-0.099-0.055-0.009-0.007-0.017-0.012-0.026-0.016-0.163-0.1-0.309-0.202-0.422-0.307-0.037-0.034-0.065-0.071-0.096-0.105v-0.545zM1.777 26.111v-0.279c0.002 0.002 0.005 0.005 0.007 0.005-0.001-0.005-0.007-0.012-0.007-0.016v-1.336c0.239 0.17 0.527 0.329 0.853 0.472 0.085 0.038 0.188 0.069 0.285 0.102 0.065 0.024 0.118 0.057 0.186 0.079 0.009-0.002 0.021-0.005 0.029-0.009 1.243 0.454 2.904 0.738 4.827 0.738 0.408 0 0.797-0.020 1.179-0.043v2.109c-0.379 0.024-0.767 0.043-1.179 0.043-3.772 0.003-6.18-1.104-6.18-1.864zM22.66 28.68c0 0.006-0.007 0.013-0.007 0.017 0.002-0.001 0.005-0.002 0.007-0.005v0.278c0 0.761-2.408 1.867-6.181 1.867-3.747 0-6.142-1.090-6.175-1.85 0-0.006-0.006-0.012-0.006-0.017v-0.278c0.002 0.002 0.005 0.003 0.007 0.005 0-0.005-0.007-0.012-0.007-0.017v-1.332c0.182 0.129 0.401 0.25 0.635 0.364 0.073 0.036 0.141 0.073 0.218 0.108 0.106 0.046 0.239 0.081 0.352 0.125 0.436 0.167 0.946 0.303 1.486 0.421 1.016 0.224 2.187 0.364 3.491 0.364 1.994 0 3.717-0.302 4.976-0.784 0.114-0.044 0.245-0.079 0.352-0.125 0.009-0.005 0.019-0.010 0.029-0.015 0.314-0.141 0.592-0.293 0.824-0.458v1.335zM33.416 24.073v1.331c0 0.005-0.007 0.012-0.007 0.016 0.002 0 0.005-0.002 0.007-0.005v0.28c0 0.76-2.407 1.867-6.18 1.867-1.328 0-2.471-0.142-3.414-0.352v-2.105c1 0.214 2.144 0.346 3.414 0.346 1.994 0 3.718-0.302 4.975-0.783 0.114-0.045 0.247-0.079 0.352-0.127 0.326-0.143 0.614-0.302 0.853-0.472v0.002zM33.416 21.384v1.899c-0.031 0.034-0.059 0.071-0.098 0.105-0.057 0.052-0.114 0.105-0.181 0.157-0.073 0.055-0.177 0.105-0.264 0.159-0.295 0.179-0.64 0.352-1.078 0.504-0.15 0.052-0.326 0.095-0.49 0.143-1.085 0.311-2.459 0.522-4.070 0.522-1.304 0-2.447-0.143-3.414-0.361v-2.084c0.281 0.058 0.558 0.12 0.864 0.163 0.519 0.074 1.083 0.118 1.661 0.145 0.293 0.014 0.583 0.029 0.89 0.029s0.597-0.016 0.89-0.029c0.578-0.027 1.141-0.071 1.663-0.145 0.452-0.064 0.878-0.145 1.278-0.24 0.367-0.088 0.71-0.191 1.026-0.307 0.281-0.1 0.54-0.211 0.774-0.331 0.202-0.105 0.39-0.214 0.552-0.329v0.001zM33.416 19.249v1.344c-0.031 0.034-0.059 0.069-0.095 0.105-0.122 0.114-0.276 0.222-0.456 0.331-0.2 0.118-0.429 0.231-0.692 0.34-0.326 0.134-0.69 0.259-1.107 0.367-0.499 0.129-1.066 0.229-1.676 0.304-0.667 0.084-1.378 0.141-2.154 0.141-0.774 0-1.486-0.057-2.154-0.141-0.452-0.056-0.869-0.129-1.261-0.215v-2.063c0.626 0.13 1.302 0.233 2.044 0.286 0.44 0.031 0.898 0.050 1.371 0.050s0.93-0.019 1.371-0.050c0.903-0.064 1.731-0.191 2.461-0.367 0.369-0.088 0.71-0.191 1.026-0.304 0.281-0.102 0.538-0.214 0.771-0.331 0.202-0.105 0.388-0.214 0.552-0.329v0.532zM33.416 16.587v1.321c-0.031 0.034-0.059 0.069-0.095 0.102-0.122 0.116-0.276 0.224-0.456 0.333-0.2 0.118-0.429 0.231-0.692 0.34-0.326 0.134-0.688 0.259-1.102 0.365-0.499 0.129-1.064 0.229-1.671 0.307-0.669 0.084-1.383 0.141-2.162 0.141s-1.493-0.057-2.162-0.141c-0.45-0.057-0.862-0.131-1.252-0.216v-2.062c0.628 0.13 1.304 0.235 2.044 0.287 0.443 0.031 0.898 0.049 1.371 0.049s0.93-0.017 1.371-0.049c0.9-0.064 1.728-0.191 2.459-0.367 0.369-0.088 0.712-0.191 1.026-0.305 0.281-0.101 0.54-0.213 0.771-0.331 0.204-0.105 0.39-0.214 0.554-0.329v0.555zM33.416 13.896v1.346c-0.031 0.034-0.059 0.071-0.095 0.105-0.122 0.114-0.276 0.223-0.459 0.331-0.197 0.121-0.429 0.233-0.692 0.34-0.326 0.135-0.688 0.26-1.105 0.367-0.497 0.129-1.064 0.229-1.671 0.305-0.667 0.084-1.381 0.141-2.157 0.141s-1.488-0.057-2.157-0.141c-0.45-0.056-0.864-0.13-1.257-0.215v-2.087c0.628 0.13 1.302 0.233 2.040 0.286 0.443 0.031 0.9 0.049 1.375 0.049s0.933-0.017 1.375-0.049c0.898-0.064 1.726-0.189 2.454-0.366 0.369-0.089 0.712-0.192 1.026-0.307 0.281-0.101 0.54-0.211 0.774-0.331 0.202-0.105 0.388-0.214 0.552-0.329v0.554zM33.416 11.001v1.553c-0.031 0.034-0.059 0.069-0.095 0.103-0.122 0.114-0.276 0.223-0.456 0.332-0.2 0.12-0.431 0.231-0.692 0.34-0.329 0.134-0.69 0.259-1.107 0.367-0.497 0.129-1.064 0.228-1.672 0.304-0.667 0.084-1.381 0.141-2.157 0.141s-1.488-0.057-2.157-0.141c-0.45-0.056-0.864-0.13-1.257-0.214v-2.053c1.059 0.215 2.237 0.324 3.414 0.324 2.396 0 4.805-0.452 6.18-1.323v0.265zM33.366 9.167c-0.009 0.024-0.014 0.046-0.027 0.070-0.073 0.144-0.204 0.292-0.417 0.441-0.177 0.124-0.411 0.246-0.678 0.364-0.259 0.115-0.558 0.22-0.894 0.319-0.529 0.157-1.141 0.288-1.842 0.382-0.688 0.092-1.44 0.153-2.271 0.153s-1.581-0.062-2.269-0.153c-0.417-0.056-0.792-0.128-1.145-0.207v-3.024c0.944-0.21 2.087-0.351 3.414-0.351 3.773 0 6.18 1.106 6.18 1.868 0 0.043-0.035 0.091-0.050 0.137z"></path>
</svg>
