<?xml version="1.0" encoding="utf-8"?>
<!-- Generated by IcoMoon.io -->
<!DOCTYPE svg PUBLIC "-//W3C//DTD SVG 1.1//EN" "http://www.w3.org/Graphics/SVG/1.1/DTD/svg11.dtd">
<svg version="1.1" xmlns="http://www.w3.org/2000/svg" xmlns:xlink="http://www.w3.org/1999/xlink" width="26" height="32" viewBox="0 0 26 32">
<path fill="#000" d="M24.617 1.23h-19.444c-0.221 0-0.432 0.089-0.584 0.249l-3.641 3.78c-0.202 0.148-0.332 0.386-0.332 0.655v25.275c0 0.449 0.363 0.812 0.812 0.812h19.444c0.229 0 0.435-0.095 0.583-0.247l3.746-3.871c0.145-0.152 0.227-0.355 0.227-0.565v-25.276c0.001-0.447-0.362-0.812-0.811-0.812zM5.519 2.854h17.209l-2.114 2.249h-17.261l2.166-2.249zM20.059 30.378h-17.821v-23.652h17.821v23.652zM21.682 29.183v-22.846l2.124-2.258v22.911l-2.124 2.194z"></path>
<path fill="#000" d="M8.756 23.92c0.621 0 1.081-0.441 1.081-1.165v-2.184h1.948c1.169 0 2.12-0.325 2.856-0.987 0.735-0.665 1.096-1.533 1.096-2.612 0-1.062-0.361-1.902-1.081-2.523-0.722-0.619-1.674-0.928-2.871-0.928h-2.726c-0.866 0-1.371 0.516-1.371 1.401v7.835c0.001 0.722 0.449 1.164 1.068 1.164zM9.838 15.54h1.572c1.485 0 2.192 0.457 2.192 1.476s-0.735 1.533-2.192 1.533h-1.572v-3.009z"></path>
</svg>
