<?xml version="1.0" encoding="utf-8"?>
<!-- Generated by IcoMoon.io -->
<!DOCTYPE svg PUBLIC "-//W3C//DTD SVG 1.1//EN" "http://www.w3.org/Graphics/SVG/1.1/DTD/svg11.dtd">
<svg version="1.1" xmlns="http://www.w3.org/2000/svg" xmlns:xlink="http://www.w3.org/1999/xlink" width="32" height="32" viewBox="0 0 32 32">
<path fill="#000" d="M15.999 4.241c-6.822 0-12.373 5.551-12.373 12.373 0 4.422 2.338 8.297 5.836 10.486l-0.010 0.019c0.063 0.034 0.125 0.058 0.188 0.089 1.862 1.122 4.032 1.779 6.359 1.779 2.344 0 4.529-0.667 6.4-1.803 0.045-0.024 0.091-0.039 0.136-0.065l-0.007-0.015c3.502-2.186 5.844-6.066 5.844-10.49 0-6.822-5.55-12.373-12.373-12.373zM13.222 27.097c1.244-0.75 2.223-2.246 2.771-4.092 0.55 1.847 1.529 3.345 2.774 4.094-0.885 0.234-1.809 0.371-2.768 0.371-0.962 0.001-1.89-0.138-2.778-0.373zM13.713 18.655l2.286-5.377 2.289 5.377h-4.575zM21.714 25.828c-0.766 0.386-1.474 0.386-2.156-0.021-1.389-0.826-2.378-3.097-2.509-5.635h2.385c0.255 0 0.492-0.127 0.633-0.341 0.14-0.211 0.164-0.481 0.066-0.716l-3.435-8.074c-0.238-0.56-1.158-0.56-1.396 0l-3.434 8.074c-0.1 0.235-0.075 0.504 0.065 0.716s0.378 0.341 0.633 0.341h2.372c-0.133 2.539-1.121 4.808-2.509 5.635-0.672 0.399-1.368 0.402-2.121 0.035-2.724-1.687-4.647-4.537-5.067-7.856h2.621c0.419 0 0.759-0.339 0.759-0.759s-0.339-0.759-0.759-0.759h-2.709c0.008-0.639 0.073-1.264 0.188-1.872h5.786c0.419 0 0.759-0.339 0.759-0.759s-0.339-0.759-0.759-0.759h-5.38c1.471-4.253 5.506-7.32 10.253-7.32 2.696 0 5.159 0.994 7.061 2.626h-4.739c-0.419 0-0.759 0.339-0.759 0.759s0.339 0.759 0.759 0.759h5.723c0.143 0 0.268-0.049 0.382-0.117 0.408 0.501 0.773 1.040 1.087 1.611h-2.564c-0.418 0-0.758 0.339-0.758 0.759s0.339 0.759 0.758 0.759h2.99c0.083 0 0.161-0.024 0.235-0.047 0.434 1.17 0.682 2.43 0.682 3.75 0 1.443-0.29 2.82-0.804 4.082h-4.273c-0.418 0-0.758 0.339-0.758 0.759s0.339 0.759 0.758 0.759h3.503c-0.888 1.466-2.111 2.706-3.568 3.613z"></path>
<path fill="#000" d="M15.999 1.231c-8.483 0-15.385 6.902-15.385 15.385 0 8.484 6.901 15.386 15.385 15.386s15.386-6.903 15.386-15.387c0-8.483-6.903-15.383-15.386-15.383zM15.999 30.482c-7.646 0-13.867-6.221-13.867-13.868 0-7.646 6.221-13.867 13.867-13.867s13.868 6.221 13.868 13.867c0 7.647-6.222 13.868-13.868 13.868z"></path>
</svg>
