<?xml version="1.0" encoding="utf-8"?>
<!-- Generated by IcoMoon.io -->
<!DOCTYPE svg PUBLIC "-//W3C//DTD SVG 1.1//EN" "http://www.w3.org/Graphics/SVG/1.1/DTD/svg11.dtd">
<svg version="1.1" xmlns="http://www.w3.org/2000/svg" xmlns:xlink="http://www.w3.org/1999/xlink" width="33" height="32" viewBox="0 0 33 32">
<path fill="#000" d="M4.8 8.388c0-0.116 0.021-0.226 0.034-0.338l-2.347 0.817 2.454 0.384c-0.082-0.274-0.14-0.56-0.14-0.863z"></path>
<path fill="#000" d="M10.549 7.189l1.615-1.871-2.31 0.891c0.293 0.276 0.533 0.606 0.695 0.98z"></path>
<path fill="#000" d="M8.14 5.421l-0.817-2.347-0.384 2.455c0.274-0.083 0.561-0.141 0.863-0.141 0.116 0 0.226 0.022 0.338 0.034z"></path>
<path fill="#000" d="M6.601 5.641l-1.871-1.615 0.892 2.311c0.275-0.294 0.606-0.533 0.979-0.696z"></path>
<path fill="#000" d="M5.395 6.61l-2.436-0.464 1.927 1.556c0.094-0.402 0.271-0.769 0.509-1.091z"></path>
<path fill="#000" d="M5.559 13.231l1.555-1.927c-0.401-0.094-0.769-0.271-1.090-0.509l-0.464 2.436z"></path>
<path fill="#000" d="M10.208 10.167l2.436 0.464-1.927-1.556c-0.095 0.402-0.271 0.769-0.509 1.091z"></path>
<path fill="#000" d="M10.803 8.388c0 0.116-0.021 0.226-0.034 0.338l2.347-0.817-2.454-0.384c0.082 0.275 0.14 0.561 0.14 0.863z"></path>
<path fill="#000" d="M10.045 3.547l-1.555 1.927c0.401 0.094 0.769 0.271 1.090 0.509l0.464-2.436z"></path>
<path fill="#000" d="M3.438 11.46l2.311-0.892c-0.293-0.275-0.533-0.605-0.695-0.979l-1.616 1.871z"></path>
<path fill="#000" d="M9.002 11.137l1.871 1.615-0.892-2.311c-0.276 0.293-0.606 0.533-0.979 0.696z"></path>
<path fill="#000" d="M7.463 11.356l0.817 2.347 0.384-2.454c-0.275 0.083-0.561 0.141-0.863 0.141-0.115-0.001-0.225-0.022-0.338-0.035z"></path>
<path fill="#000" d="M10.064 8.388c0 1.249-1.013 2.262-2.262 2.262s-2.262-1.013-2.262-2.262c0-1.249 1.013-2.262 2.262-2.262s2.262 1.013 2.262 2.262z"></path>
<path fill="#000" d="M25.613 12.036c0.746 0 1.437-0.212 2.033-0.559-0.232 0.045-0.471 0.070-0.717 0.070-2.006 0-3.63-1.578-3.63-3.525s1.624-3.526 3.63-3.526c0.075 0 0.146 0.017 0.222 0.021-0.474-0.193-0.992-0.301-1.538-0.301-2.213 0-4.004 1.75-4.004 3.909 0 2.159 1.791 3.91 4.004 3.91z"></path>
<path fill="#000" d="M14.987 1.203h-14.372v14.372h14.372v-14.372zM13.984 14.571h-12.366v-12.365h12.366v12.365z"></path>
<path fill="#000" d="M24.911 15.574c3.962 0 7.186-3.223 7.186-7.187s-3.223-7.186-7.186-7.186-7.187 3.223-7.187 7.186c0 3.963 3.224 7.187 7.187 7.187zM24.911 2.206c3.409 0 6.183 2.774 6.183 6.182s-2.774 6.184-6.183 6.184-6.184-2.774-6.184-6.184 2.775-6.183 6.184-6.183z"></path>
<path fill="#000" d="M7.802 17.653c-3.962 0-7.187 3.223-7.187 7.186s3.223 7.187 7.187 7.187c3.963 0 7.186-3.224 7.186-7.187s-3.223-7.186-7.186-7.186zM7.802 31.022c-3.409 0-6.184-2.775-6.184-6.184s2.774-6.183 6.184-6.183 6.182 2.774 6.182 6.183-2.773 6.184-6.183 6.184z"></path>
<path fill="#000" d="M9.862 25.799h-0.794v-4.884c0-0.397-0.181-0.602-0.529-0.602-0.193 0-0.349 0.084-0.457 0.241l-3.718 5.173c-0.108 0.157-0.168 0.301-0.168 0.421 0 0.349 0.192 0.518 0.589 0.518h3.369v1.672c0 0.349 0.156 0.518 0.457 0.518s0.457-0.169 0.457-0.518v-1.672h0.794c0.325 0 0.494-0.144 0.494-0.433s-0.17-0.433-0.495-0.433zM8.154 25.799h-2.84l2.84-3.91v3.91z"></path>
<path fill="#000" d="M17.139 32.024h14.372v-14.37h-14.372v14.37zM24.577 18.657h5.932v5.932h-5.932v-5.932zM24.577 25.090h5.932v5.931h-5.932v-5.931zM18.142 18.657h5.933v5.932h-5.933v-5.932zM18.142 25.090h5.933v5.931h-5.933v-5.931z"></path>
</svg>
