<?xml version="1.0" encoding="utf-8"?>
<!-- Generated by IcoMoon.io -->
<!DOCTYPE svg PUBLIC "-//W3C//DTD SVG 1.1//EN" "http://www.w3.org/Graphics/SVG/1.1/DTD/svg11.dtd">
<svg version="1.1" xmlns="http://www.w3.org/2000/svg" xmlns:xlink="http://www.w3.org/1999/xlink" width="26" height="32" viewBox="0 0 26 32">
<path fill="#000" d="M24.617 1.23h-19.444c-0.221 0-0.432 0.089-0.584 0.249l-3.641 3.78c-0.202 0.148-0.332 0.386-0.332 0.655v25.275c0 0.449 0.363 0.812 0.812 0.812h19.444c0.229 0 0.435-0.095 0.583-0.247l3.746-3.871c0.145-0.152 0.227-0.355 0.227-0.565v-25.276c0.001-0.447-0.362-0.812-0.811-0.812zM5.519 2.854h17.209l-2.114 2.249h-17.261l2.166-2.249zM20.059 30.378h-17.821v-23.652h17.821v23.652zM21.682 29.183v-22.846l2.124-2.258v22.911l-2.124 2.194z"></path>
</svg>
