<?xml version="1.0" encoding="utf-8"?>
<!-- Generated by IcoMoon.io -->
<!DOCTYPE svg PUBLIC "-//W3C//DTD SVG 1.1//EN" "http://www.w3.org/Graphics/SVG/1.1/DTD/svg11.dtd">
<svg version="1.1" xmlns="http://www.w3.org/2000/svg" xmlns:xlink="http://www.w3.org/1999/xlink" width="30" height="32" viewBox="0 0 30 32">
<path fill="#000" d="M29.039 7.78l-0.596-0.287c-0.212-0.101-0.553 0.169-0.765 0.608l-3.003 6.243v-13.113h-24.057v30.769h24.057v-14.164l4.368-9.081c0.209-0.436 0.207-0.874-0.002-0.975zM23.441 16.905l-3.697 7.688-0.737 2.609c-0.131 0.27-0.121 0.546 0.026 0.614 0.143 0.073 0.366-0.091 0.498-0.366l1.576-2.2 2.334-4.852v10.369h-21.593v-25.783h21.593v11.921zM23.441 4.368h-21.593v-1.904h21.593v1.904z"></path>
<path fill="#000" d="M4.19 30.065h2.989l1.388-2.403h2.579l1.438 2.491h2.989l1.494-2.589-1.386-2.403 1.386-2.403-1.388-2.403 1.282-2.221h2.797l1.494-2.588-1.386-2.403 1.386-2.403-1.494-2.588h-2.799l-1.386-2.403h-2.989l-1.337 2.314h-2.68l-1.388-2.403h-2.989l-1.495 2.588 1.388 2.404-1.388 2.403 1.388 2.403-1.388 2.404 1.388 2.402-1.388 2.404 1.388 2.403-1.388 2.403 1.495 2.59zM8.587 27.291l-1.28-2.22 1.28-2.217h2.558l1.283 2.221-1.278 2.216h-2.563zM12.429 15.46l-1.279 2.215h-2.562l-1.28-2.218 1.28-2.218h2.557l1.284 2.222zM11.519 13.14l1.279-2.216h2.562l1.282 2.218-1.282 2.218h-2.557l-1.284-2.221zM11.146 18.047l1.283 2.222-1.279 2.216h-2.562l-1.28-2.22 1.28-2.218h2.558zM16.641 27.563l-1.282 2.218h-2.562l-1.28-2.218 1.28-2.218h2.562l1.282 2.218zM16.641 22.757l-1.282 2.218h-2.557l-1.284-2.222 1.279-2.215h2.562l1.282 2.218zM15.359 20.167h-2.558l-1.283-2.221 1.279-2.216h2.562l1.282 2.218-1.282 2.218zM20.825 15.545l-1.282 2.218h-2.561l-1.282-2.218 1.282-2.218h2.561l1.282 2.218zM16.982 8.521h2.561l1.282 2.218-1.282 2.218h-2.561l-1.282-2.218 1.282-2.218zM12.797 6.116h2.562l1.282 2.218-1.282 2.22h-2.557l-1.283-2.222 1.278-2.216zM8.587 8.432h2.558l1.283 2.222-1.279 2.216h-2.562l-1.28-2.218 1.28-2.22zM3.123 8.247l1.28-2.218h2.562l1.28 2.218-1.28 2.22h-2.562l-1.28-2.22zM3.123 13.055l1.28-2.218h2.562l1.28 2.218-1.28 2.218h-2.562l-1.28-2.218zM3.123 17.862l1.28-2.22h2.562l1.28 2.22-1.28 2.217h-2.562l-1.28-2.217zM3.123 22.67l1.28-2.218h2.562l1.28 2.218-1.28 2.218h-2.562l-1.28-2.218zM4.403 25.258h2.562l1.28 2.218-1.28 2.218h-2.562l-1.28-2.218 1.28-2.218z"></path>
</svg>
