<?xml version="1.0" encoding="utf-8"?>
<!-- Generated by IcoMoon.io -->
<!DOCTYPE svg PUBLIC "-//W3C//DTD SVG 1.1//EN" "http://www.w3.org/Graphics/SVG/1.1/DTD/svg11.dtd">
<svg version="1.1" xmlns="http://www.w3.org/2000/svg" xmlns:xlink="http://www.w3.org/1999/xlink" width="89" height="32" viewBox="0 0 89 32">
<path fill="#000" d="M81.477 1.231h-75.681c-2.952 0-5.18 4.096-5.18 9.529 0 4.21 1.772 7.385 4.122 7.385h5.741v13.854h77.587v-18.38c0-6.947-2.895-12.388-6.589-12.388zM10.479 16.24h-3.246c0.518-1.012 0.835-2.346 0.835-3.871 0-2.649-1.151-4.57-2.737-4.57-1.327 0-2.291 1.542-2.291 3.667 0 0.526 0.427 0.953 0.953 0.953s0.953-0.427 0.953-0.953c0-1.105 0.368-1.704 0.374-1.761 0.253 0.065 0.842 1.056 0.842 2.664 0 2.401-0.922 3.871-1.426 3.871-0.903 0-2.217-2.135-2.217-5.479 0-4.364 1.729-7.624 3.274-7.624 2.215 0 4.683 4.305 4.683 10.482v2.621zM86.16 30.094h-73.775v-16.475c0-4.471-1.203-8.308-3.042-10.482h72.134c2.215 0 4.683 4.305 4.683 10.482v16.475z"></path>
<path fill="#000" d="M75.765 7.601h-59.799v20.506h67.013v-20.506h-7.214zM63.047 20.892v-6.078h6.076v6.076h-6.076zM69.123 21.466v6.068h-6.076v-6.068h6.076zM56.407 14.815h6.068v6.076h-6.068v-6.076zM63.047 14.245v-6.072h6.076v6.072h-6.076zM69.695 14.815h6.070v6.076h-6.070v-6.076zM75.765 14.245h-6.070v-6.072h6.070v6.072zM62.473 8.172v6.072h-6.068v-6.072h6.068zM43.113 20.892v-6.078h6.076v6.076h-6.076zM49.189 21.466v6.068h-6.076v-6.068h6.076zM23.18 20.892v-6.078h6.076v6.076h-6.076zM29.256 21.466v6.068h-6.076v-6.068h6.076zM22.608 20.892h-6.070v-6.078h6.072v6.078zM23.18 14.245v-6.072h6.076v6.072h-6.076zM29.827 14.815h6.072v6.076h-6.072v-6.076zM36.469 14.815h6.072v6.076h-6.072v-6.076zM43.113 14.245v-6.072h6.076v6.072h-6.076zM49.761 14.815h6.070v6.076h-6.070v-6.076zM55.831 14.245h-6.070v-6.072h6.070v6.072zM42.541 8.172v6.072h-6.072v-6.072h6.072zM35.898 14.245h-6.070v-6.072h6.072v6.072zM22.608 8.172v6.072h-6.070v-6.072h6.070zM16.537 21.466h6.072v6.068h-6.072v-6.068zM29.827 27.533v-6.068h6.072v6.068h-6.072zM36.469 21.466h6.072v6.068h-6.072v-6.068zM49.761 27.533v-6.068h6.070v6.068h-6.070zM56.407 21.466h6.068v6.068h-6.068v-6.068zM75.765 27.533h-6.070v-6.068h6.070v6.068zM82.405 27.533h-6.068v-6.068h6.068v6.068zM82.405 20.892h-6.068v-6.078h6.068v6.078zM82.405 8.172v6.072h-6.068v-6.072h6.068z"></path>
</svg>
