<?xml version="1.0" encoding="utf-8"?>
<!-- Generated by IcoMoon.io -->
<!DOCTYPE svg PUBLIC "-//W3C//DTD SVG 1.1//EN" "http://www.w3.org/Graphics/SVG/1.1/DTD/svg11.dtd">
<svg version="1.1" xmlns="http://www.w3.org/2000/svg" xmlns:xlink="http://www.w3.org/1999/xlink" width="30" height="32" viewBox="0 0 30 32">
<path fill="#000" d="M29.039 7.78l-0.596-0.287c-0.212-0.101-0.553 0.169-0.765 0.608l-3.003 6.243v-13.113h-24.057v30.769h24.057v-14.164l4.368-9.081c0.209-0.436 0.207-0.874-0.002-0.975zM1.849 2.464h21.593v1.905h-21.593v-1.905zM23.441 30.768h-21.593v-25.784h21.593v11.921l-3.697 7.688-0.737 2.609c-0.131 0.27-0.121 0.546 0.026 0.614 0.143 0.073 0.366-0.091 0.498-0.366l1.576-2.2 2.334-4.852v10.37z"></path>
</svg>
