<?xml version="1.0" encoding="utf-8"?>
<!-- Generated by IcoMoon.io -->
<!DOCTYPE svg PUBLIC "-//W3C//DTD SVG 1.1//EN" "http://www.w3.org/Graphics/SVG/1.1/DTD/svg11.dtd">
<svg version="1.1" xmlns="http://www.w3.org/2000/svg" xmlns:xlink="http://www.w3.org/1999/xlink" width="32" height="32" viewBox="0 0 32 32">
<path fill="#000" d="M22.361 13.943c0.144 0.038 0.291 0.057 0.442 0.057 0.959 0 1.831-0.77 2.121-1.872 0.185-0.697 0.104-1.418-0.222-1.977-0.256-0.44-0.65-0.748-1.108-0.869-1.070-0.283-2.225 0.54-2.563 1.815-0.34 1.285 0.258 2.562 1.331 2.847zM22.364 11.45c0.138-0.521 0.497-0.834 0.857-0.834 0.007 0 0.013 0 0.020 0 0.131 0.034 0.219 0.144 0.269 0.23 0.14 0.241 0.17 0.588 0.080 0.928-0.14 0.53-0.509 0.845-0.787 0.845l-0.088-0.010c-0.29-0.078-0.505-0.573-0.351-1.159z"></path>
<path fill="#000" d="M26.531 18.456c-1.217-0.771-3.214 0.17-4.417 2.081-1.234 1.952-1.226 4.097 0.018 4.882 0.3 0.19 0.644 0.286 1.023 0.286 1.154 0 2.487-0.929 3.395-2.367 1.232-1.951 1.225-4.096-0.018-4.882zM25.38 22.601c-0.859 1.362-2.052 1.943-2.512 1.651-0.428-0.272-0.482-1.566 0.411-2.98 0.715-1.132 1.662-1.724 2.228-1.724 0.115 0 0.209 0.024 0.286 0.072 0.428 0.273 0.48 1.567-0.413 2.981z"></path>
<path fill="#000" d="M13.935 25.124c-0.916 0.66-1.201 1.837-0.635 2.628 0.307 0.426 0.811 0.671 1.384 0.671 0.452 0 0.917-0.155 1.31-0.438 0.915-0.66 1.199-1.837 0.633-2.627-0.55-0.763-1.805-0.873-2.692-0.234zM15.188 26.865c-0.156 0.112-0.341 0.178-0.503 0.178-0.058 0-0.2-0.010-0.264-0.097-0.091-0.127-0.011-0.463 0.32-0.702 0.156-0.111 0.341-0.177 0.503-0.177 0.058 0 0.2 0.009 0.263 0.097 0.090 0.127 0.011 0.464-0.319 0.701z"></path>
<path fill="#000" d="M14.468 12.619c-1.491 0-3.191 0.495-4.788 1.394-1.566 0.882-2.857 2.055-3.635 3.305-0.857 1.376-1.008 2.702-0.426 3.735 0.572 1.015 1.758 1.575 3.338 1.575 1.49 0 3.19-0.495 4.788-1.394 1.566-0.882 2.857-2.055 3.635-3.305 0.857-1.376 1.007-2.702 0.426-3.735-0.572-1.015-1.757-1.575-3.338-1.575zM16.209 17.199c-0.657 1.055-1.772 2.061-3.14 2.831-1.374 0.774-2.872 1.217-4.111 1.217-0.615 0-1.709-0.113-2.135-0.872-0.319-0.566-0.175-1.415 0.395-2.329 0.657-1.055 1.772-2.061 3.14-2.83 1.373-0.774 2.872-1.217 4.111-1.217 0.615 0 1.71 0.112 2.135 0.871 0.319 0.566 0.175 1.415-0.395 2.329z"></path>
<path fill="#000" d="M11.576 10.058c0.807 0 1.643-0.346 2.296-0.948 0.595-0.549 0.986-1.256 1.102-1.99 0.125-0.784-0.086-1.538-0.576-2.066-0.95-1.031-2.859-0.935-4.086 0.2-1.272 1.174-1.509 2.994-0.528 4.056 0.445 0.482 1.081 0.747 1.791 0.747zM11.248 6.268c0.401-0.369 0.896-0.581 1.359-0.581 0.227 0 0.545 0.052 0.777 0.304 0.275 0.298 0.26 0.701 0.226 0.915-0.066 0.422-0.313 0.857-0.676 1.191-0.401 0.37-0.896 0.582-1.359 0.582-0.227 0-0.546-0.053-0.777-0.304-0.457-0.495-0.251-1.459 0.45-2.107z"></path>
<path fill="#000" d="M15.999 1.231c-8.483 0-15.383 6.902-15.383 15.384 0 8.484 6.901 15.384 15.383 15.384s15.383-6.901 15.383-15.384c0-8.483-6.901-15.384-15.383-15.384zM15.999 30.62c-7.721 0-14.003-6.283-14.003-14.004s6.282-14.004 14.003-14.004c7.722 0 14.004 6.283 14.004 14.004s-6.282 14.004-14.004 14.004z"></path>
</svg>
