<?xml version="1.0" encoding="utf-8"?>
<!-- Generated by IcoMoon.io -->
<!DOCTYPE svg PUBLIC "-//W3C//DTD SVG 1.1//EN" "http://www.w3.org/Graphics/SVG/1.1/DTD/svg11.dtd">
<svg version="1.1" xmlns="http://www.w3.org/2000/svg" xmlns:xlink="http://www.w3.org/1999/xlink" width="56" height="32" viewBox="0 0 56 32">
<path fill="#000" d="M50.271 15.46l-0.043-0.071-0.058-0.060c-0.235-0.253-2.338-2.478-3.305-3.1-1.051-0.676-3.324-1.363-4.492-1.558-0.246-0.042-0.62-0.061-1.144-0.061-0.828 0-1.74 0.050-1.779 0.051l-0.066 0.007c-0.092 0.014-2.249 0.322-4.058 1.468-0.107 0.067-0.222 0.147-0.345 0.237 0.173-0.714 0.244-1.798 0.139-2.42-0.209-1.266-1.231-3.383-1.843-4.284-0.079-0.117-0.163-0.241-0.251-0.374-0.802-1.201-1.9-2.844-3.194-3.381-0.656-0.271-2.111-0.3-2.706-0.3-0.315 0-0.594 0.008-0.787 0.024-0.816 0.068-2.482 0.331-3.325 0.556-0.868 0.231-2.562 0.944-3.361 1.483-0.701 0.472-1.739 1.586-2.133 2.053-0.051 0.060-0.108 0.128-0.17 0.201-0.796 0.931-1.524 1.831-1.686 2.618-0.159 0.765 0.095 1.918 0.351 2.787-0.723-0.104-1.627-0.158-2.288-0.158-0.254 0-0.478 0.008-0.664 0.023-0.888 0.073-2.568 0.486-3.423 0.794-0.588 0.212-1.753 0.751-2.324 1.169-0.882 0.647-2.462 2.222-3.102 3.208-0.463 0.712-1.146 2.329-1.304 3.266-0.177 1.054-0.121 3.205 0.212 4.299 0.282 0.925 1.262 2.542 1.975 3.262 0.636 0.642 2.096 1.419 2.704 1.696 0.558 0.253 1.771 0.662 2.476 0.75 0.368 0.046 0.916 0.075 1.502 0.075 0.339 0 0.98-0.011 1.456-0.075 1.078-0.148 3.009-0.843 3.863-1.26 0.871-0.423 2.66-1.541 3.482-2.328 0.612-0.585 1.576-1.905 1.944-2.662 0.378-0.773 0.862-2.367 0.922-3.264 0.050-0.731-0.167-2.041-0.383-2.68-0.011-0.033-0.025-0.069-0.037-0.102 0.552 0.133 1.109 0.232 1.519 0.243 0.044 0.001 0.091 0.001 0.138 0.001 1.499 0 4.355-0.554 5.765-1.12 0.431-0.171 1.035-0.497 1.638-0.873-0.607 1.186-1.294 2.959-1.277 4.115 0.019 1.435 1.425 3.631 2.138 4.437 0.915 1.034 3.281 2.144 4.282 2.516 1.547 0.578 4.521 0.936 6.391 0.936 0.333 0 0.636-0.011 0.896-0.031 1.092-0.091 2.956-0.862 3.814-1.373 0.746-0.448 1.775-1.599 2.155-2.086 0.609-0.78 1.699-2.815 1.705-4.095 0.005-1.314-1.6-4.028-1.922-4.559zM21.867 20.027c-0.043 0.66-0.467 2.063-0.764 2.674-0.29 0.593-1.137 1.752-1.616 2.21-0.63 0.604-2.22 1.63-3.079 2.049-0.841 0.407-2.569 1.003-3.386 1.116-0.275 0.037-0.739 0.060-1.24 0.060-0.515 0-1.001-0.024-1.302-0.062-0.477-0.062-1.528-0.401-2.021-0.625-0.668-0.302-1.84-0.968-2.233-1.366-0.533-0.538-1.379-1.928-1.586-2.611-0.254-0.832-0.307-2.718-0.164-3.573 0.108-0.639 0.679-2.061 1.070-2.668 0.527-0.813 1.954-2.239 2.71-2.792 0.378-0.278 1.375-0.758 1.925-0.957 0.741-0.266 2.278-0.645 3.013-0.705 0.142-0.011 0.326-0.018 0.535-0.018 0.858 0 1.959 0.096 2.503 0.219 0.126 0.028 0.28 0.073 0.447 0.127 0.27 0.566 0.658 1.261 1.060 1.643 0.745 0.707 2.269 1.493 3.199 1.908 0.274 0.488 0.518 0.982 0.628 1.303 0.171 0.51 0.332 1.611 0.302 2.070zM29.861 15.002c-1.244 0.499-3.856 1.007-5.177 1.007-0.035 0-0.069 0-0.103 0-0.563-0.014-1.845-0.34-2.547-0.609-0.239-0.39-0.476-0.739-0.666-0.974-0.49-0.604-1.611-1.588-2.264-1.989-0.315-0.193-0.78-0.406-1.249-0.59-0.005-0.014-0.011-0.027-0.016-0.041-0.45-1.219-0.719-2.482-0.622-2.94 0.093-0.452 0.966-1.473 1.339-1.908 0.065-0.076 0.125-0.146 0.178-0.21 0.444-0.525 1.345-1.45 1.805-1.758 0.647-0.436 2.154-1.071 2.886-1.267 0.745-0.198 2.299-0.446 3.047-0.507 0.147-0.012 0.387-0.019 0.656-0.019 1.028 0 1.891 0.093 2.1 0.18 0.85 0.353 1.832 1.823 2.483 2.796 0.091 0.137 0.177 0.266 0.259 0.384 0.576 0.847 1.441 2.736 1.592 3.653 0.073 0.443-0.012 1.506-0.155 1.927-0.079 0.232-0.431 0.781-0.627 0.978-0.559 0.566-2.088 1.552-2.918 1.885zM49.241 23.138c-0.402 0.516-1.272 1.435-1.722 1.703-0.766 0.458-2.392 1.094-3.13 1.154-0.22 0.018-0.478 0.026-0.768 0.026-1.738 0-4.497-0.337-5.835-0.837-1.104-0.412-3.041-1.391-3.652-2.082-0.68-0.769-1.729-2.601-1.741-3.41-0.012-0.923 0.826-3.042 1.493-4.063 0.407-0.621 1.633-1.74 2.289-2.155 1.408-0.893 3.154-1.194 3.398-1.232 0.177-0.008 0.964-0.048 1.656-0.048 0.563 0 0.796 0.025 0.883 0.040 0.997 0.167 3.071 0.798 3.897 1.328 0.66 0.424 2.3 2.103 2.951 2.791 0.803 1.338 1.65 3.094 1.648 3.662-0.001 0.698-0.786 2.38-1.367 3.123z"></path>
<path fill="#000" d="M17.975 16.622l-0.948-0.565-0.076 1.1-0.173 2.494-2.223 3.078 0.331 0.405 1.223 1.489 0.528-0.595 2.56-2.888 0.035-0.183 0.531-2.749 0.091-0.468-1.879-1.118zM18.564 20.828l-2.436 2.75-0.719-0.874 2.032-2.812 0.188-2.687 1.468 0.875-0.533 2.747z"></path>
<path fill="#000" d="M28.436 7.832l-0.687-0.196-0.162 0.696-1.184 5.137 3.993-2.202 0.087-0.244 0.832-2.367-0.694-0.201-2.186-0.624zM29.84 10.795l-2.436 1.343 0.843-3.655 2.187 0.625-0.594 1.687z"></path>
<path fill="#000" d="M47.065 17.329l-0.124-0.317-0.33-0.091-2.973-0.811 0.862 2.423-0.436 1.475-0.087 0.294 0.163 0.26 1.839 2.934 0.457-1.362 1.078-3.217 0.076-0.232-0.087-0.228-0.438-1.127zM45.792 21.918l-1.078-1.719 0.5-1.686-0.5-1.406 1.719 0.467 0.438 1.126-1.078 3.217z"></path>
</svg>
