<?xml version="1.0" encoding="utf-8"?>
<!-- Generated by IcoMoon.io -->
<!DOCTYPE svg PUBLIC "-//W3C//DTD SVG 1.1//EN" "http://www.w3.org/Graphics/SVG/1.1/DTD/svg11.dtd">
<svg version="1.1" xmlns="http://www.w3.org/2000/svg" xmlns:xlink="http://www.w3.org/1999/xlink" width="26" height="32" viewBox="0 0 26 32">
<path fill="#000" d="M24.916 30.408l-11.041-28.445c-0.17-0.442-0.595-0.732-1.069-0.732-0.143 0-0.28 0.026-0.408 0.075-0.304 0.112-0.552 0.35-0.675 0.663l-11.031 28.44c-0.138 0.352-0.090 0.749 0.122 1.062 0.041 0.061 0.088 0.116 0.139 0.168 0.212 0.214 0.505 0.338 0.814 0.338h3.792c0.039 0.005 0.076 0.024 0.116 0.024h14.154c0.036 0 0.063-0.020 0.099-0.024h3.911c0.309 0 0.602-0.124 0.814-0.338 0.053-0.051 0.1-0.107 0.139-0.168 0.216-0.311 0.26-0.709 0.122-1.062zM11.491 29.684l1.239-3.49 1.239 3.49h-2.477zM16.407 29.684l-2.595-7.3c-0.268-0.753-1.361-0.965-1.898-0.421-0.116 0.117-0.209 0.262-0.265 0.425l-2.593 7.296h-1.703l5.4-14.076 5.403 14.076h-1.75zM20.617 29.677l-6.788-17.693c-0.172-0.445-0.598-0.737-1.072-0.737-0.127 0-0.251 0.020-0.369 0.059-0.321 0.107-0.588 0.352-0.714 0.68l-6.78 17.693-1.449-0.003 9.354-24.111 9.364 24.111h-1.546z"></path>
</svg>
