<?xml version="1.0" encoding="utf-8"?>
<!-- Generated by IcoMoon.io -->
<!DOCTYPE svg PUBLIC "-//W3C//DTD SVG 1.1//EN" "http://www.w3.org/Graphics/SVG/1.1/DTD/svg11.dtd">
<svg version="1.1" xmlns="http://www.w3.org/2000/svg" xmlns:xlink="http://www.w3.org/1999/xlink" width="32" height="32" viewBox="0 0 32 32">
<path fill="#000" d="M27.966 1.231h-23.932c-1.884 0-3.417 1.533-3.417 3.417v23.934c0 1.885 1.533 3.417 3.417 3.417h23.933c1.886 0 3.418-1.533 3.418-3.417v-23.934c-0.001-1.885-1.533-3.417-3.419-3.417zM29.922 28.583c0 1.078-0.878 1.956-1.957 1.956h-23.932c-1.078 0-1.956-0.877-1.956-1.956v-23.934c0-1.078 0.877-1.956 1.956-1.956h23.933c1.078 0 1.957 0.877 1.957 1.956v23.934z"></path>
<path fill="#000" d="M18.715 13.171h-0.345l-0.912-0.912c-0.173-0.175-0.455-0.175-0.628 0l-0.912 0.912h-2.638c-0.367 0-0.665 0.298-0.665 0.665v5.433c0 0.367 0.298 0.665 0.665 0.665h0.664l0.911 0.912c0.083 0.083 0.196 0.13 0.313 0.13s0.23-0.047 0.313-0.13l0.912-0.912h2.319c0.367 0 0.666-0.298 0.666-0.665v-0.435l0.911-0.912c0.174-0.173 0.174-0.454 0-0.627l-0.911-0.912v-2.548c0.001-0.367-0.298-0.665-0.665-0.665zM18.051 18.605h-4.103v-4.103h4.102v4.103z"></path>
<path fill="#000" d="M5.173 11.809h0.664l0.911 0.913c0.083 0.083 0.196 0.13 0.313 0.13s0.231-0.047 0.313-0.13l0.912-0.913h2.319c0.367 0 0.665-0.298 0.665-0.665v-0.434l0.912-0.911c0.174-0.174 0.174-0.455 0-0.628l-0.912-0.913v-2.548c0-0.367-0.298-0.665-0.665-0.665h-0.705l-0.912-0.911c-0.173-0.175-0.454-0.174-0.628-0.001l-0.913 0.913h-2.275c-0.367 0-0.665 0.298-0.665 0.665v5.433c0 0.366 0.298 0.664 0.665 0.664zM5.838 6.375h4.102v4.103h-4.102v-4.103z"></path>
<path fill="#000" d="M15.549 18.211h0.901c0.666 0 1.208-0.542 1.208-1.207v-0.902c0-0.666-0.542-1.206-1.208-1.206h-0.901c-0.665 0-1.207 0.541-1.207 1.206v0.902c0 0.666 0.542 1.207 1.207 1.207zM15.673 16.224h0.656v0.658h-0.656v-0.658z"></path>
<path fill="#000" d="M12.618 8.52v2.624c0 0.367 0.298 0.665 0.665 0.665h0.665l0.911 0.913c0.083 0.083 0.196 0.13 0.313 0.13s0.231-0.047 0.313-0.13l0.912-0.913h2.317c0.367 0 0.666-0.298 0.666-0.665v-0.433l0.913-0.912c0.173-0.174 0.173-0.455 0-0.628l-0.912-0.913v-2.548c0-0.367-0.299-0.665-0.666-0.665h-5.432c-0.367 0-0.665 0.298-0.665 0.665v0.359l-0.912 0.912c-0.174 0.173-0.174 0.454 0 0.627l0.912 0.912zM13.948 6.375h4.102v4.103h-4.102v-4.103z"></path>
<path fill="#000" d="M27.491 16.384v-2.547c0-0.367-0.299-0.665-0.666-0.665h-0.345l-0.911-0.912c-0.083-0.083-0.196-0.13-0.314-0.13-0.117 0-0.231 0.047-0.314 0.13l-0.911 0.912h-2.639c-0.368 0-0.665 0.298-0.665 0.665v5.433c0 0.367 0.297 0.665 0.665 0.665h0.664l0.912 0.912c0.082 0.083 0.196 0.13 0.313 0.13s0.23-0.047 0.313-0.13l0.913-0.912h2.319c0.367 0 0.666-0.298 0.666-0.665v-0.434l0.913-0.913c0.173-0.173 0.173-0.454 0-0.627l-0.914-0.913zM26.16 18.605h-4.103v-4.103h4.102v4.103z"></path>
<path fill="#000" d="M27.491 8.258v-2.548c0-0.367-0.299-0.665-0.666-0.665h-0.345l-0.911-0.912c-0.083-0.083-0.196-0.13-0.314-0.13-0.117 0-0.231 0.047-0.314 0.13l-0.911 0.912h-2.639c-0.368 0-0.665 0.298-0.665 0.665v0.359l-0.913 0.912c-0.173 0.173-0.173 0.454 0 0.627l0.913 0.912v2.624c0 0.367 0.297 0.665 0.665 0.665h5.433c0.367 0 0.666-0.298 0.666-0.665v-0.433l0.913-0.912c0.173-0.174 0.173-0.455 0-0.628l-0.913-0.913zM26.16 10.479h-4.103v-4.103h4.102v4.103z"></path>
<path fill="#000" d="M4.508 16.646v2.624c0 0.367 0.298 0.665 0.665 0.665h5.433c0.367 0 0.665-0.298 0.665-0.665v-0.434l0.913-0.913c0.174-0.173 0.174-0.454 0-0.627l-0.913-0.913v-2.547c0-0.367-0.298-0.665-0.665-0.665h-0.346l-0.911-0.912c-0.083-0.083-0.196-0.13-0.313-0.13s-0.23 0.047-0.313 0.13l-0.912 0.912h-2.639c-0.367 0-0.665 0.298-0.665 0.665v0.358l-0.913 0.913c-0.174 0.173-0.174 0.454 0 0.627l0.913 0.912zM5.838 14.502h4.102v4.103h-4.102v-4.103z"></path>
<path fill="#000" d="M27.491 24.51v-2.546c0-0.367-0.299-0.665-0.666-0.665h-0.343l-0.912-0.913c-0.083-0.083-0.196-0.13-0.314-0.13-0.117 0-0.231 0.047-0.314 0.13l-0.913 0.913h-2.637c-0.368 0-0.665 0.298-0.665 0.665v0.358l-0.913 0.911c-0.082 0.083-0.129 0.196-0.129 0.314s0.046 0.231 0.129 0.313l0.913 0.912v2.625c0 0.367 0.297 0.665 0.665 0.665h5.433c0.367 0 0.666-0.298 0.666-0.665v-0.435l0.913-0.913c0.173-0.173 0.173-0.454 0-0.627l-0.913-0.913zM26.16 26.732h-4.103v-4.103h4.102v4.103z"></path>
<path fill="#000" d="M19.381 24.51v-2.546c0-0.367-0.299-0.665-0.666-0.665h-0.343l-0.913-0.913c-0.173-0.175-0.455-0.175-0.628 0l-0.913 0.913h-2.637c-0.367 0-0.665 0.298-0.665 0.665v0.358l-0.912 0.911c-0.083 0.083-0.13 0.196-0.13 0.314s0.046 0.231 0.13 0.313l0.912 0.912v2.625c0 0.367 0.298 0.665 0.665 0.665h0.666l0.911 0.911c0.083 0.083 0.196 0.13 0.313 0.13s0.23-0.047 0.313-0.13l0.911-0.911h2.319c0.367 0 0.666-0.298 0.666-0.665v-0.435l0.913-0.913c0.173-0.173 0.173-0.454 0-0.627l-0.913-0.913zM18.051 26.732h-4.103v-4.103h4.102v4.103z"></path>
<path fill="#000" d="M11.272 24.51v-2.546c0-0.367-0.298-0.665-0.665-0.665h-5.433c-0.367 0-0.665 0.298-0.665 0.665v0.357l-0.913 0.912c-0.083 0.083-0.13 0.196-0.13 0.314s0.046 0.231 0.13 0.313l0.913 0.913v2.624c0 0.367 0.298 0.665 0.665 0.665h0.665l0.911 0.911c0.083 0.083 0.196 0.13 0.313 0.13s0.23-0.047 0.313-0.13l0.911-0.911h2.32c0.367 0 0.665-0.298 0.665-0.665v-0.435l0.913-0.913c0.174-0.173 0.174-0.454 0-0.627l-0.913-0.913zM9.941 26.732h-4.103v-4.103h4.102v4.103z"></path>
</svg>
