<?xml version="1.0" encoding="utf-8"?>
<!-- Generated by IcoMoon.io -->
<!DOCTYPE svg PUBLIC "-//W3C//DTD SVG 1.1//EN" "http://www.w3.org/Graphics/SVG/1.1/DTD/svg11.dtd">
<svg version="1.1" xmlns="http://www.w3.org/2000/svg" xmlns:xlink="http://www.w3.org/1999/xlink" width="26" height="32" viewBox="0 0 26 32">
<path fill="#000" d="M24.462 1.231h-19.318c-0.213 0-0.417 0.084-0.569 0.234l-3.617 3.588c-0.208 0.146-0.343 0.387-0.343 0.661v25.481c0 0.446 0.361 0.806 0.806 0.806h19.317c0.221 0 0.422-0.088 0.568-0.232l3.722-3.675c0.153-0.152 0.239-0.358 0.239-0.574v-25.483c0-0.444-0.36-0.806-0.805-0.806zM5.476 2.844h17.065l-2.063 2.063h-17.080l2.079-2.063zM19.933 30.388h-17.705v-23.868h17.705v23.868zM21.545 29.264v-23.143l2.11-2.111v23.171l-2.11 2.083z"></path>
<path fill="#000" d="M5.83 22.218c0.422 0 0.736-0.287 0.736-0.759v-1.421h1.324c0.795 0 1.442-0.213 1.942-0.644 0.499-0.433 0.746-1 0.746-1.7 0-0.693-0.246-1.24-0.736-1.644-0.491-0.403-1.137-0.605-1.952-0.605h-1.852c-0.589 0-0.932 0.336-0.932 0.913v5.102c-0.001 0.47 0.303 0.758 0.725 0.758zM6.566 16.76h1.069c1.011 0 1.491 0.299 1.491 0.962s-0.501 0.999-1.491 0.999h-1.069v-1.961z"></path>
<path fill="#000" d="M12.067 22.18c0.382 0.115 0.746-0.038 0.912-0.472l0.352-0.865h2.659l0.363 0.865c0.185 0.442 0.49 0.596 0.912 0.472 0.392-0.125 0.599-0.48 0.431-0.903l-2.099-5.247c-0.167-0.423-0.48-0.633-0.942-0.633-0.45 0-0.765 0.211-0.931 0.644l-2.090 5.237c-0.166 0.422 0.041 0.777 0.433 0.902zM14.665 17.376l0.853 2.2h-1.706l0.853-2.2z"></path>
</svg>
