<?xml version="1.0" encoding="utf-8"?>
<!-- Generated by IcoMoon.io -->
<!DOCTYPE svg PUBLIC "-//W3C//DTD SVG 1.1//EN" "http://www.w3.org/Graphics/SVG/1.1/DTD/svg11.dtd">
<svg version="1.1" xmlns="http://www.w3.org/2000/svg" xmlns:xlink="http://www.w3.org/1999/xlink" width="19" height="32" viewBox="0 0 19 32">
<path fill="#000" d="M16.119 18.441l-5.582-9.041h4.73c0.282 0.376 0.72 0.621 1.217 0.621 0.851 0 1.542-0.707 1.542-1.576 0-0.868-0.691-1.575-1.542-1.575-0.686 0-1.263 0.465-1.462 1.098h-4.35l3.547-5.637c0.14-0.221 0.151-0.501 0.023-0.73-0.126-0.23-0.367-0.372-0.628-0.372h-8.587c-0.262 0-0.502 0.142-0.628 0.372-0.125 0.23-0.116 0.509 0.024 0.729l2.1 3.296 1.446 2.342h-4.348c-0.199-0.633-0.776-1.097-1.463-1.097-0.851 0-1.543 0.707-1.543 1.575 0 0.869 0.692 1.576 1.543 1.576 0.498 0 0.936-0.245 1.218-0.621h4.73l-5.581 9.041-0.007-0.004c-0.958 1.448-1.464 3.148-1.464 4.915 0 4.769 3.709 8.648 8.268 8.648 4.56 0 8.27-3.879 8.27-8.648 0-1.767-0.506-3.466-1.465-4.915l-0.007 0.004zM7.737 4.866l-0.769-1.245-0.018 0.011-0.616-0.969h5.978l-0.619 0.97-0.018-0.012-2.353 3.732-1.584-2.487zM9.321 30.569c-3.77 0-6.836-3.238-6.836-7.217 0-1.27 0.311-2.498 0.903-3.585l0.001 0.001 5.932-9.608 5.934 9.607c0.593 1.088 0.904 2.315 0.904 3.585-0.001 3.979-3.067 7.217-6.838 7.217z"></path>
</svg>
