<?xml version="1.0" encoding="utf-8"?>
<!-- Generated by IcoMoon.io -->
<!DOCTYPE svg PUBLIC "-//W3C//DTD SVG 1.1//EN" "http://www.w3.org/Graphics/SVG/1.1/DTD/svg11.dtd">
<svg version="1.1" xmlns="http://www.w3.org/2000/svg" xmlns:xlink="http://www.w3.org/1999/xlink" width="89" height="32" viewBox="0 0 89 32">
<path fill="#000" d="M81.477 1.231h-75.681c-2.952 0-5.18 4.096-5.18 9.529 0 4.21 1.772 7.385 4.122 7.385h5.741v13.854h77.587v-18.38c0-6.947-2.895-12.388-6.589-12.388zM10.479 16.24h-3.246c0.518-1.012 0.835-2.346 0.835-3.871 0-2.649-1.151-4.57-2.737-4.57-1.327 0-2.291 1.542-2.291 3.667 0 0.526 0.427 0.953 0.953 0.953s0.953-0.427 0.953-0.953c0-1.105 0.368-1.704 0.374-1.761 0.253 0.065 0.842 1.056 0.842 2.664 0 2.401-0.922 3.871-1.426 3.871-0.903 0-2.217-2.135-2.217-5.479 0-4.364 1.729-7.624 3.274-7.624 2.215 0 4.683 4.305 4.683 10.482v2.621zM86.16 30.094h-73.775v-16.475c0-4.471-1.203-8.308-3.042-10.482h72.134c2.215 0 4.683 4.305 4.683 10.482v16.475z"></path>
<path fill="#000" d="M81.325 11.087h-4.87l-2.424-4.206h-5.19l-2.426 4.206h-4.536l-2.428-4.206h-5.19l-2.426 4.206h-4.568l-2.43-4.206h-5.186l-2.428 4.206h-4.536l-2.43-4.206h-5.184l-2.43 4.206h-4.877l-2.594 4.492 2.428 4.206-2.428 4.206 2.594 4.49h5.186l2.428-4.204h4.54l2.428 4.204h5.186l2.428-4.204h4.568l2.428 4.204h5.188l2.426-4.204h4.54l2.426 4.204h5.186l2.424-4.204h4.563l2.426 4.204h5.188l2.592-4.49-2.426-4.206 2.426-4.206-2.592-4.492zM83.259 15.579l-2.264 3.92h-4.525l-2.264-3.92 2.264-3.92h4.525l2.264 3.92zM61.869 19.497l-2.258-3.909 2.268-3.932h4.511l2.241 3.882-2.283 3.959h-4.479zM47.289 19.497l-2.264-3.92 2.264-3.92h4.525l2.241 3.88-2.285 3.96h-4.481zM32.677 19.497l-2.259-3.913 2.268-3.928h4.517l2.241 3.882-2.285 3.959h-4.483zM23.115 19.785l2.264-3.92h4.485l2.262 3.92-2.262 3.92h-4.485l-2.264-3.92zM37.697 19.785l2.264-3.92h4.483l2.26 3.92-2.262 3.92h-4.483l-2.262-3.92zM52.309 19.785l2.262-3.92h4.485l2.264 3.92-2.264 3.92h-4.485l-2.262-3.92zM66.889 19.785l2.26-3.92h4.488l2.258 3.92-2.26 3.92h-4.486l-2.26-3.92zM69.173 7.452h4.526l2.262 3.92-2.26 3.919h-4.53l-2.264-3.92 2.266-3.919zM54.593 7.452h4.528l2.26 3.909-2.27 3.932h-4.517l-2.264-3.92 2.262-3.92zM39.982 7.452h4.526l2.264 3.92-2.262 3.92h-4.528l-2.26-3.92 2.26-3.92zM25.402 7.452h4.526l2.258 3.913-2.268 3.928h-4.517l-2.264-3.92 2.264-3.92zM18.095 11.658h4.526l2.241 3.884-2.285 3.957h-4.483l-2.262-3.92 2.262-3.92zM22.621 27.91h-4.526l-2.264-3.919 2.264-3.92h4.483l2.285 3.957-2.241 3.882zM37.203 27.91h-4.526l-2.262-3.919 2.262-3.92h4.483l2.285 3.959-2.241 3.88zM51.814 27.91h-4.525l-2.264-3.919 2.264-3.92h4.481l2.285 3.96-2.241 3.878zM66.392 27.91h-4.523l-2.264-3.919 2.264-3.92h4.481l2.283 3.959-2.241 3.88zM80.993 27.91h-4.525l-2.264-3.919 2.264-3.92h4.525l2.264 3.92-2.264 3.919z"></path>
</svg>
