<?xml version="1.0" encoding="utf-8"?>
<!-- Generated by IcoMoon.io -->
<!DOCTYPE svg PUBLIC "-//W3C//DTD SVG 1.1//EN" "http://www.w3.org/Graphics/SVG/1.1/DTD/svg11.dtd">
<svg version="1.1" xmlns="http://www.w3.org/2000/svg" xmlns:xlink="http://www.w3.org/1999/xlink" width="30" height="32" viewBox="0 0 30 32">
<path fill="#000" d="M29.039 7.78l-0.596-0.287c-0.212-0.101-0.553 0.169-0.765 0.608l-3.003 6.243v-13.113h-24.057v30.769h24.057v-14.164l4.368-9.081c0.209-0.436 0.207-0.874-0.002-0.975zM23.441 16.905l-3.697 7.688-0.737 2.609c-0.131 0.27-0.121 0.546 0.026 0.614 0.143 0.073 0.366-0.091 0.498-0.366l1.576-2.2 2.334-4.852v10.369h-21.593v-25.783h21.593v11.921zM23.441 4.368h-21.593v-1.904h21.593v1.904z"></path>
<path fill="#000" d="M2.756 28.771h13.31v-6.472h3.233v-6.469h3.236v-10.077h-19.778v23.018zM19.298 6.122h2.865v2.867h-2.865v-2.867zM19.298 9.359h2.865v2.863h-2.865v-2.863zM19.298 12.591h2.865v2.867h-2.865v-2.867zM16.065 6.122h2.862v2.867h-2.862v-2.867zM16.065 9.359h2.862v2.863h-2.862v-2.863zM16.065 12.591h2.862v2.867h-2.862v-2.867zM16.065 15.827h2.862v2.865h-2.862v-2.865zM16.065 19.064h2.862v2.863h-2.862v-2.863zM5.992 28.4h-2.867v-2.868h2.867v2.868zM15.697 25.532v2.868h-2.867v-2.868h2.867zM12.829 6.122h2.867v2.867h-2.867v-2.867zM12.829 9.359h2.867v2.863h-2.867v-2.863zM12.829 12.591h2.867v2.867h-2.867v-2.867zM12.829 15.827h2.867v2.865h-2.867v-2.865zM12.829 19.064h2.867v2.863h-2.867v-2.863zM12.829 22.297h2.867v2.864h-2.867v-2.864zM12.461 25.532v2.868h-2.867v-2.868h2.867zM9.593 6.122h2.867v2.867h-2.867v-2.867zM9.593 9.359h2.867v2.863h-2.867v-2.863zM9.593 12.591h2.867v2.867h-2.867v-2.867zM9.593 15.827h2.867v2.865h-2.867v-2.865zM9.593 19.064h2.867v2.863h-2.867v-2.863zM9.593 22.297h2.867v2.864h-2.865v-2.864zM9.224 25.532v2.868h-2.863v-2.868h2.863zM6.362 6.122h2.863v2.867h-2.863v-2.867zM6.362 9.359h2.863v2.863h-2.863v-2.863zM6.362 12.591h2.863v2.867h-2.863v-2.867zM6.362 15.827h2.863v2.865h-2.863v-2.865zM6.362 19.064h2.863v2.863h-2.863v-2.863zM6.362 22.297h2.863v2.864h-2.863v-2.864zM3.125 6.122h2.867v2.867h-2.867v-2.867zM3.125 9.359h2.867v2.863h-2.867v-2.863zM3.125 12.591h2.867v2.867h-2.867v-2.867zM3.125 15.827h2.867v2.865h-2.867v-2.865zM3.125 19.064h2.867v2.863h-2.867v-2.863zM3.125 22.297h2.867v2.864h-2.867v-2.864z"></path>
</svg>
