<?xml version="1.0" encoding="utf-8"?>
<!-- Generated by IcoMoon.io -->
<!DOCTYPE svg PUBLIC "-//W3C//DTD SVG 1.1//EN" "http://www.w3.org/Graphics/SVG/1.1/DTD/svg11.dtd">
<svg version="1.1" xmlns="http://www.w3.org/2000/svg" xmlns:xlink="http://www.w3.org/1999/xlink" width="32" height="32" viewBox="0 0 32 32">
<path fill="#000" d="M15.931 1.231c-8.445 0-15.316 6.901-15.316 15.385s6.871 15.384 15.316 15.384c8.446 0 15.316-6.901 15.316-15.384s-6.87-15.385-15.316-15.385zM15.931 30.626c-7.688 0-13.942-6.285-13.942-14.010s6.254-14.010 13.942-14.010c7.689 0 13.942 6.286 13.942 14.011s-6.253 14.009-13.942 14.009z"></path>
<path fill="#000" d="M5.101 14.459c0.054 0.013 0.109 0.019 0.163 0.019 0.309 0 0.591-0.211 0.667-0.525 0.794-3.266 3.22-5.929 6.324-7.072l0.104 0.687c0.031 0.204 0.181 0.369 0.382 0.418 0.041 0.010 0.081 0.015 0.122 0.015 0.159 0 0.313-0.074 0.409-0.207l1.259-1.707c0.080-0.108 0.114-0.244 0.094-0.378-0.020-0.134-0.093-0.253-0.202-0.334l-1.707-1.258c-0.166-0.121-0.389-0.134-0.565-0.025-0.175 0.104-0.271 0.306-0.24 0.509l0.137 0.907c-3.655 1.246-6.528 4.318-7.452 8.12-0.091 0.368 0.136 0.74 0.505 0.83z"></path>
<path fill="#000" d="M14.283 10.554c0.079 0.189 0.265 0.313 0.469 0.313h0.493v2.33h-0.493c-0.205 0-0.39 0.123-0.469 0.313s-0.038 0.406 0.106 0.554l1.18 1.203c0.096 0.098 0.227 0.152 0.363 0.152s0.268-0.055 0.363-0.153l1.179-1.203c0.144-0.147 0.185-0.363 0.106-0.553s-0.265-0.313-0.469-0.313h-0.492v-2.33h0.492c0.205 0 0.39-0.123 0.469-0.313s0.038-0.406-0.106-0.553l-1.179-1.203c-0.096-0.099-0.227-0.153-0.363-0.153s-0.268 0.055-0.363 0.152l-1.18 1.203c-0.144 0.148-0.185 0.365-0.106 0.554z"></path>
<path fill="#000" d="M17.58 22.676c-0.079-0.189-0.265-0.313-0.469-0.313h-0.492v-2.331h0.493c0.007-0.001 0.013-0.001 0.020 0 0.281 0 0.509-0.228 0.509-0.509 0-0.183-0.097-0.343-0.24-0.433l-1.105-1.126c-0.191-0.194-0.534-0.194-0.727 0l-1.179 1.202c-0.144 0.148-0.185 0.364-0.106 0.554s0.265 0.313 0.469 0.313h0.492v2.331h-0.493c-0.205 0-0.39 0.123-0.469 0.313s-0.038 0.407 0.106 0.554l1.18 1.202c0.096 0.098 0.227 0.152 0.363 0.152s0.268-0.055 0.363-0.153l1.179-1.202c0.143-0.147 0.184-0.364 0.105-0.554z"></path>
<path fill="#000" d="M19.022 14.959c-0.189-0.076-0.408-0.035-0.555 0.109l-1.192 1.186c-0.096 0.096-0.15 0.226-0.15 0.36s0.054 0.266 0.15 0.36l1.192 1.187c0.098 0.097 0.227 0.149 0.359 0.149 0.065 0 0.132-0.013 0.195-0.039 0.189-0.079 0.314-0.265 0.314-0.47v-0.5h2.32v0.5c0 0.206 0.124 0.391 0.314 0.47 0.064 0.025 0.129 0.039 0.195 0.039 0.132 0 0.262-0.052 0.359-0.149l1.193-1.187c0.096-0.096 0.149-0.226 0.149-0.36s-0.054-0.266-0.149-0.36l-1.193-1.186c-0.146-0.145-0.364-0.186-0.555-0.109-0.189 0.079-0.314 0.265-0.314 0.47v0.499h-2.32v-0.499c-0.001-0.206-0.125-0.391-0.314-0.47z"></path>
<path fill="#000" d="M12.843 18.273c0.063 0.025 0.129 0.039 0.195 0.039 0.132 0 0.262-0.052 0.359-0.149l1.192-1.187c0.096-0.096 0.15-0.226 0.15-0.36s-0.054-0.266-0.15-0.36l-1.192-1.186c-0.146-0.145-0.364-0.186-0.554-0.109-0.19 0.079-0.314 0.265-0.314 0.47v0.499h-2.32v-0.499c0-0.206-0.124-0.391-0.314-0.47-0.188-0.076-0.408-0.035-0.554 0.109l-1.192 1.186c-0.096 0.096-0.15 0.226-0.15 0.36s0.054 0.266 0.15 0.36l1.192 1.187c0.098 0.097 0.227 0.149 0.359 0.149 0.065 0 0.132-0.013 0.195-0.039 0.19-0.079 0.314-0.265 0.314-0.47v-0.5h2.32v0.5c-0.002 0.206 0.121 0.391 0.312 0.47z"></path>
<path fill="#000" d="M28.134 12.535c-0.107-0.176-0.31-0.272-0.511-0.238l-0.901 0.138c-1.239-3.67-4.296-6.557-8.077-7.486-0.37-0.094-0.74 0.135-0.831 0.503-0.092 0.369 0.134 0.741 0.503 0.831 3.248 0.798 5.898 3.238 7.034 6.361l-0.678 0.104c-0.203 0.031-0.366 0.181-0.416 0.38s0.024 0.408 0.189 0.53l1.697 1.268c0.089 0.066 0.194 0.102 0.304 0.102 0.025 0 0.052-0.002 0.076-0.006 0.134-0.020 0.256-0.094 0.335-0.204l1.251-1.719c0.12-0.166 0.13-0.389 0.023-0.564z"></path>
<path fill="#000" d="M26.71 18.218c-0.366-0.087-0.74 0.137-0.829 0.506-0.793 3.267-3.219 5.93-6.324 7.073l-0.105-0.687c-0.030-0.204-0.181-0.369-0.381-0.418-0.2-0.049-0.409 0.025-0.531 0.191l-1.259 1.706c-0.080 0.108-0.114 0.244-0.094 0.378 0.020 0.134 0.093 0.253 0.202 0.334l1.706 1.259c0.090 0.065 0.196 0.1 0.302 0.1 0.004 0 0.008 0 0.010 0 0.304 0.003 0.521-0.224 0.52-0.509 0-0.076-0.017-0.149-0.047-0.214l-0.116-0.77c3.654-1.244 6.528-4.317 7.452-8.12 0.090-0.366-0.136-0.739-0.507-0.829z"></path>
<path fill="#000" d="M13.494 26.394c-3.249-0.797-5.897-3.237-7.035-6.36l0.679-0.104c0.203-0.031 0.366-0.181 0.416-0.38s-0.024-0.408-0.189-0.53l-1.697-1.268c-0.109-0.082-0.247-0.116-0.381-0.096-0.134 0.020-0.255 0.094-0.336 0.204l-1.251 1.718c-0.121 0.166-0.13 0.389-0.023 0.564 0.094 0.153 0.259 0.244 0.435 0.244 0.025 0 0.051-0.002 0.077-0.006l0.901-0.136c1.239 3.67 4.296 6.557 8.078 7.485 0.055 0.014 0.11 0.020 0.164 0.020 0.309 0 0.59-0.21 0.667-0.523 0.091-0.37-0.134-0.741-0.504-0.832z"></path>
</svg>
