<?xml version="1.0" encoding="utf-8"?>
<!-- Generated by IcoMoon.io -->
<!DOCTYPE svg PUBLIC "-//W3C//DTD SVG 1.1//EN" "http://www.w3.org/Graphics/SVG/1.1/DTD/svg11.dtd">
<svg version="1.1" xmlns="http://www.w3.org/2000/svg" xmlns:xlink="http://www.w3.org/1999/xlink" width="18" height="32" viewBox="0 0 18 32">
<path fill="#000" d="M16.217 32h-14.355c-0.401 0-0.778-0.192-1.012-0.517s-0.299-0.739-0.172-1.121l3.425-10.34h-0.471c-0.336 0-0.654-0.133-0.885-0.366-0.046-0.046-0.092-0.1-0.131-0.155-0.235-0.325-0.297-0.741-0.172-1.121l5.409-16.313c0.091-0.272 0.268-0.497 0.495-0.647 0.626-0.419 1.631-0.107 1.881 0.643l5.417 16.317c0.126 0.379 0.061 0.798-0.174 1.121-0.039 0.055-0.083 0.109-0.133 0.155-0.231 0.233-0.549 0.366-0.881 0.366h-0.484l3.425 10.34c0.126 0.381 0.063 0.798-0.172 1.121s-0.61 0.517-1.011 0.517zM13.494 29.508h0.992l-3.146-9.487h-4.6l-3.143 9.487h9.897zM5.927 17.527h6.206c0.030-0.002 0.061-0.004 0.094-0.004h0.502l-3.688-11.101-3.682 11.101h0.473c0.031 0 0.061 0.002 0.094 0.004z"></path>
</svg>
