<?xml version="1.0" encoding="utf-8"?>
<!-- Generated by IcoMoon.io -->
<!DOCTYPE svg PUBLIC "-//W3C//DTD SVG 1.1//EN" "http://www.w3.org/Graphics/SVG/1.1/DTD/svg11.dtd">
<svg version="1.1" xmlns="http://www.w3.org/2000/svg" xmlns:xlink="http://www.w3.org/1999/xlink" width="63" height="32" viewBox="0 0 63 32">
<path fill="#000" d="M54.397 1.23c-4.522 0-8.2 3.678-8.2 8.2s3.678 8.2 8.2 8.2 8.2-3.678 8.2-8.2-3.678-8.2-8.2-8.2zM54.397 16.224c-3.746 0-6.794-3.047-6.794-6.794s3.048-6.794 6.794-6.794 6.794 3.047 6.794 6.794-3.048 6.794-6.794 6.794z"></path>
<path fill="#000" d="M31.177 31.006l-1.732-1.734-0.994 0.994 1.732 1.734h1.988l1.194-1.195-0.994-0.994z"></path>
<path fill="#000" d="M36.35 27.822l-0.994-0.994 3.977-3.977 0.994 0.994-3.977 3.977z"></path>
<path fill="#000" d="M43.308 20.863l-0.994-0.994 3.977-3.977 0.994 0.994-3.977 3.977z"></path>
<path fill="#000" d="M18.512 20.327l-3.977-3.978 0.994-0.994 3.977 3.978-0.994 0.994z"></path>
<path fill="#000" d="M25.47 27.285l-3.977-3.977 0.994-0.994 3.977 3.977-0.994 0.994z"></path>
<path fill="#000" d="M11.551 13.366l-3.977-3.977 0.994-0.994 3.977 3.977-0.994 0.994z"></path>
<path fill="#000" d="M4.592 6.408l-3.977-3.977 0.994-0.994 3.977 3.977-0.994 0.994z"></path>
</svg>
