<?xml version="1.0" encoding="utf-8"?>
<!-- Generated by IcoMoon.io -->
<!DOCTYPE svg PUBLIC "-//W3C//DTD SVG 1.1//EN" "http://www.w3.org/Graphics/SVG/1.1/DTD/svg11.dtd">
<svg version="1.1" xmlns="http://www.w3.org/2000/svg" xmlns:xlink="http://www.w3.org/1999/xlink" width="32" height="32" viewBox="0 0 32 32">
<path fill="#000" d="M28.628 1.231h-24.806c-1.768 0-3.206 1.42-3.206 3.166v24.439c0 1.745 1.439 3.165 3.206 3.165h24.806c1.768 0 3.206-1.42 3.206-3.165v-24.44c0-1.745-1.439-3.165-3.206-3.165zM8.26 24.538v3.29h-3.363v-3.29h3.363zM24.285 8.683v-3.29h3.362v3.29h-3.362zM27.648 10.257v3.29h-3.363v-3.29h3.363zM27.648 15.069v3.29h-3.363v-3.29h3.363zM27.648 19.843v3.291h-3.363v-3.291h3.363zM22.833 19.843v3.291h-3.362v-3.291h3.362zM19.471 18.358v-3.29h3.362v3.29h-3.362zM19.471 13.547v-3.29h3.362v3.29h-3.362zM4.897 18.307v-3.29h3.363v3.29h-3.363zM4.897 13.497v-3.292h3.363v3.292h-3.363zM14.543 13.497v-3.292h3.364v3.292h-3.364zM17.907 15.018v3.29h-3.364v-3.29h3.364zM13.105 15.018v3.29h-3.363v-3.29h3.363zM9.742 13.497v-3.292h3.362v3.292h-3.362zM13.105 19.793v3.291h-3.363v-3.291h3.363zM17.907 19.793v3.291h-3.364v-3.291h3.364zM4.897 23.083v-3.291h3.363v3.291h-3.363zM19.471 8.683v-3.29h3.362v3.29h-3.362zM14.625 8.683v-3.29h3.364v3.29h-3.364zM9.743 8.683v-3.29h3.362v3.29h-3.362zM4.897 8.683v-3.29h3.363v3.29h-3.363zM13.105 24.538v3.29h-3.363v-3.29h3.363zM17.907 24.538v3.29h-3.364v-3.29h3.364zM22.833 24.589v3.291h-3.362v-3.291h3.362zM27.648 24.589v3.291h-3.363v-3.291h3.363z"></path>
</svg>
