<?xml version="1.0" encoding="utf-8"?>
<!-- Generated by IcoMoon.io -->
<!DOCTYPE svg PUBLIC "-//W3C//DTD SVG 1.1//EN" "http://www.w3.org/Graphics/SVG/1.1/DTD/svg11.dtd">
<svg version="1.1" xmlns="http://www.w3.org/2000/svg" xmlns:xlink="http://www.w3.org/1999/xlink" width="44" height="32" viewBox="0 0 44 32">
<path fill="#000" d="M0.616 1.231v30.769h42.619v-30.769h-42.619zM42.096 30.861h-40.341v-28.491h40.341v28.491z"></path>
<path fill="#000" d="M15.766 14.624c0.043 0.038 0.1 0.058 0.159 0.056l6.174-0.227c0.075-0.002 0.146-0.043 0.188-0.108 0.007-0.011 0.015-0.026 0.019-0.039 0.024-0.058 0.024-0.123-0.001-0.18l-1.767-4.104c-0.025-0.057-0.072-0.101-0.13-0.124-0.013-0.006-0.028-0.009-0.041-0.014-0.076-0.014-0.154 0.009-0.208 0.063l-4.405 4.332c-0.097 0.096-0.085 0.265 0.011 0.345z"></path>
<path fill="#000" d="M14.874 13.536c0.056 0.001 0.113-0.017 0.158-0.056l4.698-4.012c0.057-0.048 0.087-0.123 0.080-0.2-0.002-0.015-0.003-0.030-0.009-0.043-0.017-0.059-0.058-0.109-0.114-0.139l-3.932-2.12c-0.057-0.030-0.12-0.035-0.179-0.017-0.014 0.003-0.028 0.010-0.041 0.016-0.069 0.035-0.116 0.101-0.124 0.178l-0.765 6.132c-0.015 0.132 0.099 0.258 0.228 0.262z"></path>
<path fill="#000" d="M12.901 13.33c0.068 0.116 0.236 0.146 0.338 0.071 0.047-0.032 0.080-0.082 0.091-0.139l1.289-6.044c0.019-0.074-0.005-0.153-0.057-0.207-0.010-0.011-0.022-0.021-0.033-0.030-0.048-0.036-0.115-0.050-0.173-0.040l-4.413 0.709c-0.063 0.010-0.117 0.043-0.151 0.095-0.009 0.010-0.018 0.024-0.023 0.038-0.035 0.069-0.033 0.149 0.008 0.215l3.124 5.333z"></path>
<path fill="#000" d="M5.899 12.258l5.826 2.063c0.125 0.043 0.273-0.041 0.303-0.165 0.016-0.054 0.008-0.115-0.018-0.165l-2.912-5.451c-0.035-0.068-0.104-0.113-0.178-0.12-0.016-0.003-0.030-0.005-0.046-0.002-0.060 0.002-0.118 0.033-0.158 0.080l-2.915 3.388c-0.042 0.047-0.060 0.107-0.054 0.169-0.001 0.015 0.001 0.031 0.006 0.044 0.018 0.074 0.072 0.134 0.146 0.159z"></path>
<path fill="#000" d="M5.267 17.997c0.008 0.010 0.022 0.020 0.034 0.028 0.066 0.039 0.145 0.046 0.215 0.014l5.628-2.554c0.12-0.057 0.169-0.22 0.104-0.33-0.026-0.049-0.073-0.088-0.128-0.105l-5.879-1.91c-0.071-0.024-0.151-0.010-0.212 0.036-0.013 0.009-0.023 0.019-0.032 0.031-0.042 0.046-0.063 0.106-0.058 0.167l0.248 4.462c0.006 0.065 0.033 0.122 0.080 0.161z"></path>
<path fill="#000" d="M40.553 22.99l-7.236 3.57c-0.156 0.077-0.213 0.293-0.123 0.433 0.038 0.063 0.101 0.11 0.174 0.132l7.746 2.247c0.096 0.028 0.202 0.007 0.277-0.056 0.013-0.013 0.028-0.027 0.041-0.041 0.052-0.064 0.079-0.143 0.071-0.223l-0.509-5.813c-0.009-0.080-0.047-0.154-0.109-0.205-0.015-0.014-0.034-0.024-0.047-0.032-0.091-0.050-0.195-0.054-0.285-0.011z"></path>
<path fill="#000" d="M40.401 22.006c0.003-0.020 0.007-0.038 0.008-0.059 0.002-0.079-0.026-0.157-0.084-0.215l-4.007-4.237c-0.060-0.063-0.134-0.096-0.215-0.096-0.019-0.003-0.039 0-0.057 0.002-0.1 0.016-0.186 0.077-0.228 0.169l-3.458 7.288c-0.073 0.161 0.018 0.362 0.175 0.417 0.069 0.027 0.145 0.024 0.216-0.003l7.469-3.052c0.089-0.033 0.158-0.115 0.181-0.213z"></path>
<path fill="#000" d="M34.817 17.060c-0.009-0.020-0.018-0.035-0.028-0.052-0.044-0.064-0.121-0.108-0.199-0.12l-5.759-0.925c-0.085-0.014-0.165 0.003-0.227 0.055-0.018 0.008-0.033 0.022-0.046 0.038-0.072 0.071-0.1 0.172-0.077 0.271l1.69 7.887c0.036 0.172 0.233 0.277 0.391 0.228 0.071-0.023 0.134-0.071 0.17-0.138l4.070-6.963c0.056-0.088 0.058-0.191 0.016-0.28z"></path>
<path fill="#000" d="M21.824 19.704c-0.007 0.019-0.011 0.040-0.010 0.058-0.008 0.101 0.033 0.198 0.116 0.257l6.378 4.941c0.136 0.107 0.355 0.064 0.444-0.079 0.041-0.061 0.056-0.138 0.042-0.213l-1.377-7.951c-0.016-0.097-0.081-0.181-0.17-0.221-0.022-0.009-0.036-0.016-0.056-0.020-0.075-0.023-0.163-0.008-0.228 0.035l-5.003 3.005c-0.072 0.042-0.122 0.107-0.138 0.187z"></path>
<path fill="#000" d="M20.753 20.845c-0.077-0.060-0.184-0.073-0.277-0.042-0.019 0.009-0.035 0.015-0.054 0.024-0.071 0.040-0.121 0.108-0.14 0.183l-1.518 5.633c-0.023 0.082-0.010 0.164 0.032 0.231 0.005 0.017 0.017 0.034 0.031 0.051 0.064 0.075 0.162 0.116 0.262 0.106l8.024-0.867c0.17-0.020 0.299-0.204 0.263-0.364-0.015-0.073-0.056-0.14-0.118-0.182l-6.505-4.774z"></path>
<path fill="#000" d="M36.136 11.835c-0.096 0.028-0.145 0.145-0.108 0.23 0.017 0.039 0.044 0.072 0.084 0.091l4.143 1.953c0.050 0.024 0.112 0.021 0.161-0.007 0.008-0.005 0.017-0.013 0.024-0.021 0.036-0.028 0.058-0.072 0.060-0.118l0.236-3.302c0.001-0.048-0.013-0.092-0.044-0.125-0.006-0.009-0.016-0.016-0.022-0.023-0.046-0.036-0.104-0.048-0.161-0.031l-4.373 1.353z"></path>
<path fill="#000" d="M35.809 11.045c0.038 0.022 0.081 0.027 0.124 0.017l4.46-1.041c0.051-0.013 0.098-0.051 0.118-0.106 0.005-0.008 0.009-0.019 0.010-0.031 0.009-0.044-0.002-0.091-0.027-0.13l-1.865-2.733c-0.027-0.039-0.069-0.064-0.114-0.074-0.008-0.001-0.022-0.001-0.031-0.001-0.058 0-0.11 0.026-0.142 0.074l-2.592 3.775c-0.056 0.082-0.023 0.205 0.058 0.249z"></path>
<path fill="#000" d="M34.782 10.4c0.041-0.005 0.079-0.027 0.107-0.060l2.906-3.54c0.038-0.042 0.049-0.103 0.032-0.155-0.002-0.013-0.006-0.021-0.010-0.031-0.020-0.041-0.058-0.073-0.1-0.087l-3.146-1.035c-0.046-0.015-0.093-0.013-0.132 0.010-0.011 0.003-0.019 0.009-0.028 0.017-0.046 0.034-0.072 0.088-0.067 0.143l0.239 4.574c0.006 0.099 0.107 0.177 0.2 0.163z"></path>
<path fill="#000" d="M33.471 10.489c0.068 0.072 0.192 0.066 0.256-0.005 0.027-0.030 0.044-0.073 0.043-0.114l-0.059-4.579c-0.001-0.057-0.030-0.11-0.076-0.141-0.010-0.008-0.019-0.014-0.031-0.017-0.040-0.019-0.088-0.017-0.13-0.002l-3.075 1.238c-0.041 0.018-0.074 0.050-0.091 0.093-0.006 0.008-0.010 0.021-0.011 0.031-0.014 0.056 0.002 0.114 0.041 0.155l3.133 3.341z"></path>
<path fill="#000" d="M28.119 10.824l4.574 0.235c0.098 0.003 0.184-0.088 0.182-0.182-0.003-0.042-0.022-0.083-0.052-0.113l-3.219-3.259c-0.035-0.040-0.096-0.057-0.15-0.049-0.011 0.002-0.023 0.005-0.032 0.009-0.043 0.016-0.076 0.048-0.095 0.091l-1.355 3.023c-0.020 0.042-0.022 0.089-0.003 0.132 0.003 0.009 0.006 0.021 0.014 0.031 0.028 0.047 0.080 0.077 0.137 0.082z"></path>
</svg>
