<?xml version="1.0" encoding="utf-8"?>
<!-- Generated by IcoMoon.io -->
<!DOCTYPE svg PUBLIC "-//W3C//DTD SVG 1.1//EN" "http://www.w3.org/Graphics/SVG/1.1/DTD/svg11.dtd">
<svg version="1.1" xmlns="http://www.w3.org/2000/svg" xmlns:xlink="http://www.w3.org/1999/xlink" width="17" height="32" viewBox="0 0 17 32">
<path fill="#000" d="M16.753 30.658l-3.261-8.682h0.614c0.156 0 0.309-0.037 0.445-0.106 0.147-0.072 0.276-0.184 0.373-0.322 0.185-0.269 0.226-0.61 0.112-0.916l-2.479-6.598h0.226c0.198 0 0.391-0.059 0.551-0.168 0.104-0.069 0.195-0.157 0.269-0.262 0.185-0.27 0.228-0.611 0.113-0.916l-4.071-10.816c-0.144-0.387-0.514-0.644-0.927-0.644-0.084 0-0.166 0.010-0.244 0.031-0.313 0.076-0.575 0.303-0.692 0.613l-4.064 10.817c-0.115 0.304-0.072 0.645 0.113 0.914 0.035 0.049 0.074 0.096 0.116 0.138 0.185 0.185 0.437 0.291 0.704 0.291h0.218l-2.481 6.6c-0.115 0.304-0.072 0.645 0.115 0.913 0.184 0.269 0.488 0.428 0.816 0.428h0.623l-3.263 8.683c-0.115 0.304-0.072 0.645 0.113 0.913 0.185 0.269 0.489 0.428 0.816 0.428h14.219c0.325 0 0.629-0.159 0.816-0.428 0.115-0.166 0.175-0.363 0.175-0.563 0-0.116-0.021-0.237-0.065-0.351zM8.715 5.048l2.634 7h-0.238c-0.026 0-0.051 0.001-0.075 0.003h-4.657c-0.025-0.001-0.050-0.003-0.074-0.003h-0.22l2.631-7zM6.996 14.036h3.435l2.24 5.957h-7.913l2.238-5.957zM3.044 30.016l3.020-8.041h5.309l3.022 8.041h-11.351z"></path>
</svg>
