<?xml version="1.0" encoding="utf-8"?>
<!-- Generated by IcoMoon.io -->
<!DOCTYPE svg PUBLIC "-//W3C//DTD SVG 1.1//EN" "http://www.w3.org/Graphics/SVG/1.1/DTD/svg11.dtd">
<svg version="1.1" xmlns="http://www.w3.org/2000/svg" xmlns:xlink="http://www.w3.org/1999/xlink" width="69" height="32" viewBox="0 0 69 32">
<path fill="#000" d="M16.814 1.231c-9.084 0-16.199 3.138-16.199 7.147v12.445c0 4.006 7.115 7.144 16.199 7.144s16.199-3.138 16.199-7.144v-12.445c0-4.009-7.115-7.147-16.199-7.147zM31.41 20.821c0 2.621-5.995 5.541-14.596 5.541-8.603 0-14.596-2.92-14.596-5.541v-3.092c0.365 0.338 0.781 0.662 1.257 0.968 2.898 1.851 7.742 3.045 13.339 3.045s10.441-1.194 13.339-3.047c0.476-0.303 0.891-0.63 1.257-0.968v3.094zM31.41 14.604v0c-0.003 0.577-0.316 1.167-0.866 1.736-0.123 0.128-0.244 0.256-0.391 0.381-0.401 0.343-0.896 0.673-1.471 0.987-2.558 1.391-6.743 2.432-11.866 2.432-5.124 0-9.31-1.039-11.868-2.432-0.577-0.314-1.071-0.644-1.473-0.987-0.808-0.688-1.257-1.414-1.257-2.122v-3.090c0.365 0.338 0.779 0.662 1.255 0.967 1.369 0.875 3.17 1.6 5.278 2.124 1.542 0.383 3.246 0.657 5.068 0.801 0.968 0.077 1.967 0.122 2.994 0.122s2.024-0.045 2.994-0.122c1.822-0.144 3.526-0.42 5.068-0.801 2.109-0.524 3.909-1.249 5.277-2.124 0.476-0.305 0.891-0.628 1.257-0.967v3.095zM30.155 10.501c-0.401 0.343-0.896 0.673-1.471 0.987-2.039 1.109-5.11 1.996-8.874 2.308-0.957 0.079-1.956 0.123-2.994 0.123s-2.039-0.043-2.996-0.123c-3.764-0.313-6.835-1.197-8.874-2.308-0.577-0.314-1.071-0.644-1.471-0.987-0.808-0.688-1.257-1.415-1.257-2.122 0-2.622 5.995-5.544 14.596-5.544s14.596 2.922 14.596 5.544c0 0.707-0.449 1.435-1.255 2.122z"></path>
<path fill="#000" d="M21.304 7.726l2.319-2.234-5.076 0.861-1.733-2.428-1.734 2.428-5.075-0.861 2.585 2.491-4.547 1.723 5.52 0.466-0.351 2.674 3.602-1.842 3.602 1.842-0.351-2.674 5.52-0.466-4.547-1.723 0.266-0.256zM21.998 9.204l-2.839 0.24 0.263 1.994-2.608-1.335-2.608 1.334 0.263-1.994-2.84-0.239 2.43-0.92-1.629-1.568 3.010 0.51 1.372-1.923 1.372 1.923 3.010-0.51-0.93 0.896-0.699 0.672 2.432 0.92z"></path>
<path fill="#000" d="M68.506 18.634c0-4.007-7.114-7.146-16.197-7.146s-16.199 3.138-16.199 7.146v6.222c0 4.006 7.115 7.144 16.199 7.144s16.199-3.138 16.199-7.144l-0.002-6.222zM59.579 20.087l-4.020 0.341 0.351 2.67-3.602-1.84-3.602 1.84 0.351-2.67-5.52-0.468 4.547-1.721-2.585-2.491 5.076 0.861 1.733-2.428 1.733 2.428 5.076-0.861-2.585 2.491 4.547 1.721-1.5 0.127z"></path>
</svg>
