<?xml version="1.0" encoding="utf-8"?>
<!-- Generated by IcoMoon.io -->
<!DOCTYPE svg PUBLIC "-//W3C//DTD SVG 1.1//EN" "http://www.w3.org/Graphics/SVG/1.1/DTD/svg11.dtd">
<svg version="1.1" xmlns="http://www.w3.org/2000/svg" xmlns:xlink="http://www.w3.org/1999/xlink" width="32" height="32" viewBox="0 0 32 32">
<path fill="#000" d="M28.22 32h-24.442c-1.745 0-3.163-1.419-3.163-3.163v-24.442c0-1.745 1.419-3.163 3.163-3.163h24.442c1.745 0 3.163 1.419 3.163 3.163v24.442c0 1.745-1.419 3.163-3.163 3.163zM3.779 2.636c-0.969 0-1.758 0.789-1.758 1.758v24.442c0 0.97 0.789 1.758 1.758 1.758h24.442c0.97 0 1.758-0.789 1.758-1.758v-24.441c0-0.97-0.789-1.758-1.758-1.758h-24.442z"></path>
<path fill="#000" d="M27.399 28.093h-5.503c-0.387 0-0.702-0.314-0.702-0.703v-5.488c0-0.388 0.314-0.703 0.702-0.703h5.503c0.388 0 0.704 0.314 0.704 0.703v5.488c0 0.389-0.315 0.703-0.704 0.703zM22.599 26.689h4.099v-4.084h-4.099v4.084zM18.881 28.093h-5.5c-0.388 0-0.703-0.314-0.703-0.703v-5.488c0-0.388 0.314-0.703 0.703-0.703h5.5c0.388 0 0.704 0.314 0.704 0.703v5.488c-0.001 0.389-0.315 0.703-0.704 0.703zM14.083 26.689h4.097v-4.084h-4.097v4.084zM10.653 28.093h-5.502c-0.388 0-0.703-0.314-0.703-0.703v-5.488c0-0.388 0.314-0.703 0.703-0.703h5.502c0.388 0 0.703 0.314 0.703 0.703v5.488c0 0.389-0.315 0.703-0.703 0.703zM5.853 26.689h4.098v-4.084h-4.098v4.084zM27.399 20.063h-5.503c-0.387 0-0.702-0.314-0.702-0.703v-5.488c0-0.388 0.314-0.703 0.702-0.703h5.503c0.388 0 0.704 0.314 0.704 0.703v5.489c0 0.388-0.315 0.702-0.704 0.702zM22.599 18.659h4.099v-4.084h-4.099v4.084zM10.653 20.063h-5.502c-0.388 0-0.703-0.314-0.703-0.703v-5.488c0-0.388 0.314-0.703 0.703-0.703h5.502c0.388 0 0.703 0.314 0.703 0.703v5.489c0 0.388-0.315 0.702-0.703 0.702zM5.853 18.659h4.098v-4.084h-4.098v4.084zM27.247 12.050h-5.503c-0.387 0-0.702-0.314-0.702-0.703v-5.488c0-0.388 0.314-0.703 0.702-0.703h5.503c0.387 0 0.702 0.314 0.702 0.703v5.488c0 0.388-0.314 0.703-0.702 0.703zM22.446 10.646h4.097v-4.084h-4.097v4.084zM18.881 12.050h-5.5c-0.388 0-0.703-0.314-0.703-0.703v-5.488c0-0.388 0.314-0.703 0.703-0.703h5.5c0.388 0 0.704 0.314 0.704 0.703v5.488c-0.001 0.388-0.315 0.703-0.704 0.703zM14.083 10.646h4.097v-4.084h-4.097v4.084zM10.653 12.050h-5.502c-0.388 0-0.703-0.314-0.703-0.703v-5.488c0-0.388 0.314-0.703 0.703-0.703h5.502c0.388 0 0.703 0.314 0.703 0.703v5.488c0 0.388-0.315 0.703-0.703 0.703zM5.853 10.646h4.098v-4.084h-4.098v4.084z"></path>
<path fill="#000" d="M17.725 12.693h-3.249l-2.297 2.297v3.249l2.297 2.297h3.249l2.296-2.297v-3.249l-2.296-2.297zM17.119 14.157l1.441 1.441v2.037l-1.441 1.441h-2.037l-1.442-1.441v-2.037l1.442-1.441h2.037z"></path>
</svg>
