<?xml version="1.0" encoding="utf-8"?>
<!-- Generated by IcoMoon.io -->
<!DOCTYPE svg PUBLIC "-//W3C//DTD SVG 1.1//EN" "http://www.w3.org/Graphics/SVG/1.1/DTD/svg11.dtd">
<svg version="1.1" xmlns="http://www.w3.org/2000/svg" xmlns:xlink="http://www.w3.org/1999/xlink" width="26" height="32" viewBox="0 0 26 32">
<path fill="#000" d="M24.617 1.23h-19.444c-0.221 0-0.432 0.089-0.584 0.249l-3.641 3.78c-0.202 0.148-0.332 0.386-0.332 0.655v25.275c0 0.449 0.363 0.812 0.812 0.812h19.444c0.229 0 0.435-0.095 0.583-0.247l3.746-3.871c0.145-0.152 0.227-0.355 0.227-0.565v-25.276c0.001-0.447-0.362-0.812-0.811-0.812zM5.519 2.854h17.209l-2.114 2.249h-17.261l2.166-2.249zM20.059 30.378h-17.821v-23.652h17.821v23.652zM21.682 29.183v-22.846l2.124-2.258v22.911l-2.124 2.194z"></path>
<path fill="#000" d="M4.476 21.68c0.385 0.123 0.75-0.040 0.919-0.493l0.356-0.909h2.676l0.366 0.909c0.188 0.464 0.493 0.625 0.919 0.493 0.394-0.13 0.601-0.504 0.434-0.948l-2.113-5.512c-0.168-0.444-0.483-0.666-0.948-0.666-0.455 0-0.771 0.222-0.938 0.676l-2.106 5.502c-0.166 0.444 0.041 0.818 0.435 0.948zM7.092 16.636l0.859 2.31h-1.716l0.857-2.31z"></path>
<path fill="#000" d="M14.624 21.782c0.74 0 1.401-0.19 2.004-0.584l0.307 0.313c0.316 0.325 0.73 0.314 0.978 0.041 0.275-0.283 0.286-0.666-0.029-0.999l-0.307-0.303c0.426-0.627 0.631-1.331 0.631-2.12 0-1.049-0.345-1.917-1.037-2.604-0.69-0.696-1.539-1.039-2.546-1.039-0.997 0-1.846 0.343-2.528 1.039-0.681 0.687-1.027 1.554-1.027 2.604 0 1.061 0.346 1.929 1.027 2.625 0.681 0.685 1.53 1.028 2.527 1.028zM13.143 16.544c0.384-0.434 0.888-0.646 1.52-0.646 0.602 0 1.086 0.222 1.472 0.655 0.385 0.434 0.582 0.958 0.582 1.574 0 0.374-0.070 0.717-0.208 1.029l-0.425-0.444c-0.316-0.323-0.73-0.314-0.978-0.041-0.266 0.284-0.285 0.646 0.030 1.001l0.474 0.483c-0.267 0.142-0.582 0.213-0.948 0.213-0.641 0-1.145-0.213-1.52-0.647-0.376-0.433-0.564-0.958-0.564-1.595 0-0.624 0.188-1.15 0.564-1.584z"></path>
</svg>
