<?xml version="1.0" encoding="utf-8"?>
<!-- Generated by IcoMoon.io -->
<!DOCTYPE svg PUBLIC "-//W3C//DTD SVG 1.1//EN" "http://www.w3.org/Graphics/SVG/1.1/DTD/svg11.dtd">
<svg version="1.1" xmlns="http://www.w3.org/2000/svg" xmlns:xlink="http://www.w3.org/1999/xlink" width="57" height="32" viewBox="0 0 57 32">
<path fill="#000" d="M55.629 1.231h-54.208c-0.446 0-0.806 0.362-0.806 0.806v29.156c0 0.446 0.361 0.806 0.806 0.806h54.208c0.446 0 0.808-0.361 0.808-0.806v-29.156c-0.001-0.444-0.362-0.806-0.808-0.806zM54.824 30.388h-52.596v-27.545h52.596v27.545z"></path>
<path fill="#000" d="M30.741 26.981h19.832c0.444 0 0.805-0.361 0.805-0.806v-19.117c0-0.446-0.361-0.806-0.805-0.806h-19.832c-0.444 0-0.806 0.361-0.806 0.806v19.117c0 0.446 0.361 0.806 0.806 0.806zM31.546 21.477h4.446v3.891h-4.446v-3.891zM49.764 16.836v4.221h-3.881v-4.221h3.881zM36.418 16.836h4.306v4.221h-4.306v-4.221zM41.151 12.194h4.307v4.222h-4.307v-4.222zM41.151 21.477h4.307v3.891h-4.307v-3.891zM40.724 11.776h-4.306v-3.912h4.306v3.912zM35.992 12.194v4.222h-4.446v-4.222h4.446zM49.764 11.776h-3.881v-3.912h3.881v3.912z"></path>
<path fill="#000" d="M6.589 26.775h19.078c0.446 0 0.806-0.361 0.806-0.806v-18.706c0-0.446-0.361-0.806-0.806-0.806h-19.078c-0.446 0-0.806 0.361-0.806 0.806v18.706c0 0.446 0.362 0.806 0.806 0.806zM24.861 16.836v4.221h-3.771v-4.221h3.771zM11.624 16.836h4.306v4.221h-4.306v-4.221zM16.358 12.194h4.306v4.222h-4.306v-4.222zM16.358 21.477h4.306v3.686h-4.306v-3.686zM15.93 11.776h-4.306v-3.706h4.306v3.706zM11.199 12.194v4.222h-3.803v-4.222h3.803zM7.396 21.477h3.803v3.686h-3.803v-3.686zM24.861 11.776h-3.771v-3.706h3.771v3.706z"></path>
</svg>
