<?xml version="1.0" encoding="utf-8"?>
<!-- Generated by IcoMoon.io -->
<!DOCTYPE svg PUBLIC "-//W3C//DTD SVG 1.1//EN" "http://www.w3.org/Graphics/SVG/1.1/DTD/svg11.dtd">
<svg version="1.1" xmlns="http://www.w3.org/2000/svg" xmlns:xlink="http://www.w3.org/1999/xlink" width="26" height="32" viewBox="0 0 26 32">
<path fill="#000" d="M24.461 1.231h-19.317c-0.213 0-0.417 0.084-0.569 0.234l-3.619 3.59c-0.206 0.147-0.341 0.387-0.341 0.66v25.48c0 0.446 0.361 0.806 0.806 0.806h19.316c0.221 0 0.422-0.088 0.568-0.232l3.722-3.678c0.153-0.152 0.239-0.358 0.239-0.573v-25.481c0-0.446-0.36-0.806-0.805-0.806zM5.476 2.842h17.054l-2.074 2.066h-17.060l2.080-2.066zM19.933 30.388h-17.704v-23.867h17.704v23.867zM21.544 29.263v-23.162l2.11-2.099v23.178l-2.11 2.084z"></path>
<path fill="#000" d="M3.994 16.759h1.344v4.698c0 0.471 0.305 0.76 0.725 0.76 0.422 0 0.736-0.289 0.736-0.76v-4.698h1.354c0.441 0 0.716-0.278 0.716-0.654 0-0.385-0.275-0.663-0.716-0.663h-4.159c-0.442 0-0.716 0.278-0.716 0.663 0 0.375 0.275 0.654 0.716 0.654z"></path>
<path fill="#000" d="M11.133 21.448c0.137 0.51 0.45 0.769 0.932 0.769 0.501 0 0.815-0.25 0.941-0.76l1-3.737 0.98 3.728c0.128 0.51 0.442 0.769 0.941 0.769 0.48 0 0.795-0.25 0.941-0.76l1.393-5.121c0.118-0.461-0.118-0.816-0.54-0.922-0.422-0.105-0.793 0.116-0.913 0.587l-0.919 3.747-0.932-3.584c-0.127-0.509-0.452-0.768-0.951-0.768-0.51 0-0.834 0.25-0.962 0.759l-0.932 3.594-0.921-3.748c-0.118-0.471-0.491-0.692-0.913-0.587-0.422 0.106-0.657 0.461-0.539 0.922l1.392 5.113z"></path>
</svg>
