<?xml version="1.0" encoding="utf-8"?>
<!-- Generated by IcoMoon.io -->
<!DOCTYPE svg PUBLIC "-//W3C//DTD SVG 1.1//EN" "http://www.w3.org/Graphics/SVG/1.1/DTD/svg11.dtd">
<svg version="1.1" xmlns="http://www.w3.org/2000/svg" xmlns:xlink="http://www.w3.org/1999/xlink" width="37" height="32" viewBox="0 0 37 32">
<path fill="#000" d="M1.886 32c-0.417 0-0.807-0.205-1.044-0.548-0.004-0.006-0.007-0.013-0.011-0.019-0.231-0.343-0.278-0.775-0.129-1.16l8.086-20.98 0.006 0.004 0.002-0.008c0.377-0.978 1.988-0.978 2.365 0l2.053 5.332 4.889-12.591c0.118-0.302 0.343-0.541 0.619-0.678 0.623-0.313 1.492-0.004 1.755 0.672l6.276 16.162 1.342-3.515c0.377-0.978 1.995-0.98 2.369 0l5.965 15.597c0.15 0.39 0.098 0.826-0.139 1.171s-0.629 0.546-1.047 0.546h-11.919c-0.054 0-0.111-0.004-0.165-0.011l-21.27 0.024c-0.002 0-0.004 0-0.004 0zM9.976 13.266l-6.241 16.192 3.722-0.011 4.394-11.316-1.875-4.865zM25.75 29.453h7.654l-4.122-10.779-4.114 10.779h0.582zM15.988 29.444h6.472l2.949-7.726-6.117-15.719-9.103 23.437 5.8 0.008z"></path>
</svg>
