<?xml version="1.0" encoding="utf-8"?>
<!-- Generated by IcoMoon.io -->
<!DOCTYPE svg PUBLIC "-//W3C//DTD SVG 1.1//EN" "http://www.w3.org/Graphics/SVG/1.1/DTD/svg11.dtd">
<svg version="1.1" xmlns="http://www.w3.org/2000/svg" xmlns:xlink="http://www.w3.org/1999/xlink" width="50" height="32" viewBox="0 0 50 32">
<path fill="#000" d="M28.921 15.996h-25.84c-1.359 0-2.465 1.107-2.465 2.466v11.074c0 1.359 1.107 2.465 2.465 2.465h25.84c1.359 0 2.465-1.107 2.465-2.465v-11.074c0-1.361-1.105-2.466-2.465-2.466zM30.146 29.535c0 0.677-0.549 1.226-1.226 1.226h-25.84c-0.675 0-1.226-0.549-1.226-1.226v-11.074c0-0.677 0.55-1.227 1.226-1.227h25.84c0.677 0 1.226 0.55 1.226 1.227v11.074z"></path>
<path fill="#000" d="M16 18.716c-0.342 0-0.62 0.279-0.62 0.62v9.325c0 0.342 0.278 0.62 0.62 0.62s0.62-0.278 0.62-0.62v-9.325c0-0.342-0.278-0.62-0.62-0.62z"></path>
<path fill="#000" d="M9.688 23.998c0 0.663-0.538 1.201-1.201 1.201s-1.201-0.538-1.201-1.201c0-0.663 0.538-1.201 1.201-1.201s1.201 0.538 1.201 1.201z"></path>
<path fill="#000" d="M46.497 1.23h-11.073c-1.361 0-2.466 1.107-2.466 2.465v25.84c0 1.359 1.107 2.465 2.466 2.465h11.073c1.361 0 2.467-1.107 2.467-2.465v-25.84c0.001-1.358-1.107-2.465-2.467-2.465zM47.726 29.535c0 0.677-0.55 1.226-1.228 1.226h-11.073c-0.677 0-1.227-0.549-1.227-1.226v-25.84c0-0.675 0.55-1.226 1.227-1.226h11.073c0.678 0 1.228 0.55 1.228 1.226v25.84z"></path>
<path fill="#000" d="M45.622 15.996h-9.323c-0.342 0-0.62 0.278-0.62 0.62s0.278 0.62 0.62 0.62h9.323c0.342 0 0.62-0.278 0.62-0.62s-0.276-0.62-0.62-0.62z"></path>
<path fill="#000" d="M38.63 9.383c0 0.662-0.537 1.2-1.2 1.2s-1.2-0.537-1.2-1.2c0-0.662 0.537-1.2 1.2-1.2s1.2 0.537 1.2 1.2z"></path>
<path fill="#000" d="M38.56 12.804c0 0.662-0.537 1.2-1.2 1.2s-1.2-0.537-1.2-1.2c0-0.662 0.537-1.2 1.2-1.2s1.2 0.537 1.2 1.2z"></path>
<path fill="#000" d="M45.622 12.804c0 0.662-0.537 1.2-1.2 1.2s-1.2-0.537-1.2-1.2c0-0.662 0.537-1.2 1.2-1.2s1.2 0.537 1.2 1.2z"></path>
<path fill="#000" d="M38.56 6.047c0 0.662-0.537 1.2-1.2 1.2s-1.2-0.537-1.2-1.2c0-0.662 0.537-1.2 1.2-1.2s1.2 0.537 1.2 1.2z"></path>
<path fill="#000" d="M45.622 6.047c0 0.662-0.537 1.2-1.2 1.2s-1.2-0.537-1.2-1.2c0-0.662 0.537-1.2 1.2-1.2s1.2 0.537 1.2 1.2z"></path>
<path fill="#000" d="M25.301 24.591c0 0.663-0.538 1.201-1.201 1.201s-1.201-0.538-1.201-1.201c0-0.663 0.538-1.201 1.201-1.201s1.201 0.538 1.201 1.201z"></path>
<path fill="#000" d="M21.7 28.012c0 0.662-0.537 1.2-1.2 1.2s-1.2-0.537-1.2-1.2c0-0.662 0.537-1.2 1.2-1.2s1.2 0.537 1.2 1.2z"></path>
<path fill="#000" d="M28.762 28.012c0 0.662-0.537 1.2-1.2 1.2s-1.2-0.537-1.2-1.2c0-0.662 0.537-1.2 1.2-1.2s1.2 0.537 1.2 1.2z"></path>
<path fill="#000" d="M21.7 21.256c0 0.662-0.537 1.2-1.2 1.2s-1.2-0.537-1.2-1.2c0-0.662 0.537-1.2 1.2-1.2s1.2 0.537 1.2 1.2z"></path>
<path fill="#000" d="M28.762 21.256c0 0.662-0.537 1.2-1.2 1.2s-1.2-0.537-1.2-1.2c0-0.662 0.537-1.2 1.2-1.2s1.2 0.537 1.2 1.2z"></path>
<path fill="#000" d="M42.228 24.548c0 0.662-0.537 1.2-1.2 1.2s-1.2-0.537-1.2-1.2c0-0.662 0.537-1.2 1.2-1.2s1.2 0.537 1.2 1.2z"></path>
<path fill="#000" d="M38.63 27.969c0 0.662-0.537 1.2-1.2 1.2s-1.2-0.537-1.2-1.2c0-0.662 0.537-1.2 1.2-1.2s1.2 0.537 1.2 1.2z"></path>
<path fill="#000" d="M45.69 27.969c0 0.662-0.537 1.2-1.2 1.2s-1.2-0.537-1.2-1.2c0-0.662 0.537-1.2 1.2-1.2s1.2 0.537 1.2 1.2z"></path>
<path fill="#000" d="M38.63 21.213c0 0.662-0.537 1.2-1.2 1.2s-1.2-0.537-1.2-1.2c0-0.662 0.537-1.2 1.2-1.2s1.2 0.537 1.2 1.2z"></path>
<path fill="#000" d="M45.69 21.213c0 0.662-0.537 1.2-1.2 1.2s-1.2-0.537-1.2-1.2c0-0.662 0.537-1.2 1.2-1.2s1.2 0.537 1.2 1.2z"></path>
<path fill="#000" d="M42.16 12.804c0 0.662-0.537 1.2-1.2 1.2s-1.2-0.537-1.2-1.2c0-0.662 0.537-1.2 1.2-1.2s1.2 0.537 1.2 1.2z"></path>
<path fill="#000" d="M45.622 9.383c0 0.662-0.537 1.2-1.2 1.2s-1.2-0.537-1.2-1.2c0-0.662 0.537-1.2 1.2-1.2s1.2 0.537 1.2 1.2z"></path>
<path fill="#000" d="M42.228 6.047c0 0.662-0.537 1.2-1.2 1.2s-1.2-0.537-1.2-1.2c0-0.662 0.537-1.2 1.2-1.2s1.2 0.537 1.2 1.2z"></path>
</svg>
