<?xml version="1.0" encoding="utf-8"?>
<!-- Generated by IcoMoon.io -->
<!DOCTYPE svg PUBLIC "-//W3C//DTD SVG 1.1//EN" "http://www.w3.org/Graphics/SVG/1.1/DTD/svg11.dtd">
<svg version="1.1" xmlns="http://www.w3.org/2000/svg" xmlns:xlink="http://www.w3.org/1999/xlink" width="31" height="32" viewBox="0 0 31 32">
<path fill="#000" d="M30.117 10.769l-14.239-9.444c0 0-0.001 0-0.003 0-0.086-0.058-0.192-0.080-0.299-0.091-0.071-0.007-0.134 0.008-0.203 0.025-0.076 0.017-0.155 0.024-0.22 0.066-0.001 0.001-0.003 0-0.004 0.001l-14.24 9.443c-0.183 0.123-0.294 0.328-0.294 0.549v10.579c0 0.221 0.111 0.427 0.295 0.549l14.24 9.444c0.012 0.008 0.028 0.005 0.040 0.012 0.098 0.057 0.204 0.098 0.324 0.098 0.001 0 0.001 0 0.003 0 0.12 0 0.227-0.041 0.323-0.098 0.012-0.007 0.028-0.004 0.038-0.012l14.24-9.444c0.184-0.123 0.295-0.328 0.295-0.549v-10.579c-0.001-0.221-0.112-0.427-0.296-0.549zM29.095 20.888l-5.602-2.465-6.475-14.762 12.077 8.011v9.216zM22.11 18.552l-6.625 2.526-6.572-2.633 6.598-14.936 6.598 15.043zM8.050 19.52l6.771 2.712 0.028 7.879-12.223-8.107 5.424-2.484zM16.139 22.238l6.836-2.606 5.41 2.382-12.215 8.103-0.030-7.879zM14.002 3.666l-6.468 14.644-5.601 2.561v-9.199l12.069-8.006z"></path>
<path fill="#000" d="M12.85 15.076l0.843-0.47v3.701h-1.024c-0.373 0-0.373 0.498 0 0.498h2.503c0.373 0 0.373-0.498 0-0.498h-0.955v-4.066c0-0.215-0.117-0.311-0.277-0.311-0.070 0-0.173 0.041-0.318 0.124l-0.975 0.561c-0.132 0.076-0.194 0.166-0.194 0.269 0 0.199 0.229 0.296 0.395 0.192z"></path>
<path fill="#000" d="M17.047 18.673c0.228 0.137 0.491 0.207 0.789 0.207s0.553-0.070 0.781-0.207c0.464-0.285 0.719-0.789 0.858-1.369 0.137-0.581 0.137-1.273 0-1.854-0.138-0.58-0.395-1.078-0.858-1.354-0.228-0.145-0.484-0.215-0.781-0.215s-0.561 0.070-0.789 0.215c-0.449 0.277-0.713 0.775-0.851 1.354-0.138 0.581-0.138 1.273 0 1.854 0.138 0.58 0.403 1.084 0.851 1.369zM16.936 14.924c0.215-0.366 0.513-0.553 0.9-0.553s0.685 0.179 0.892 0.545c0.215 0.366 0.318 0.851 0.318 1.459s-0.103 1.1-0.318 1.466c-0.207 0.366-0.505 0.545-0.892 0.545s-0.685-0.187-0.9-0.553c-0.215-0.365-0.318-0.856-0.318-1.459 0-0.6 0.103-1.086 0.318-1.451z"></path>
</svg>
