<?xml version="1.0" encoding="utf-8"?>
<!-- Generated by IcoMoon.io -->
<!DOCTYPE svg PUBLIC "-//W3C//DTD SVG 1.1//EN" "http://www.w3.org/Graphics/SVG/1.1/DTD/svg11.dtd">
<svg version="1.1" xmlns="http://www.w3.org/2000/svg" xmlns:xlink="http://www.w3.org/1999/xlink" width="31" height="32" viewBox="0 0 31 32">
<path fill="#000" d="M30.117 10.769l-14.239-9.444c0 0-0.001 0-0.003 0-0.086-0.058-0.192-0.080-0.299-0.091-0.071-0.007-0.134 0.008-0.203 0.025-0.076 0.017-0.155 0.024-0.22 0.066-0.001 0.001-0.003 0-0.004 0.001l-14.24 9.443c-0.183 0.123-0.294 0.328-0.294 0.549v10.579c0 0.221 0.111 0.427 0.295 0.549l14.24 9.444c0.013 0.008 0.028 0.005 0.040 0.012 0.098 0.057 0.204 0.098 0.324 0.098 0.001 0 0.001 0 0.003 0 0.12 0 0.227-0.041 0.323-0.098 0.012-0.007 0.028-0.004 0.038-0.012l14.24-9.444c0.184-0.123 0.295-0.328 0.295-0.549v-10.579c-0.001-0.221-0.112-0.427-0.296-0.549zM1.933 11.671l12.069-8.006-6.468 14.644-5.601 2.561v-9.199zM2.626 22.004l5.424-2.484 6.771 2.712 0.029 7.879-12.224-8.107zM15.486 21.077l-6.573-2.633 6.6-14.936 6.6 15.043-6.626 2.526zM16.168 30.117l-0.029-7.879 6.836-2.606 5.41 2.382-12.217 8.103zM29.095 20.888l-5.602-2.465-6.475-14.762 12.077 8.011v9.216z"></path>
<path fill="#000" d="M17.542 11.684c-0.196-0.113-0.357-0.067-0.48 0.149l-3.642 5.948c-0.123 0.216-0.094 0.375 0.084 0.499 0.179 0.103 0.339 0.046 0.47-0.159l3.642-5.948c0.133-0.216 0.104-0.376-0.075-0.489z"></path>
<path fill="#000" d="M14.852 13.633c0.236-0.237 0.348-0.527 0.348-0.856s-0.112-0.613-0.348-0.847-0.517-0.358-0.846-0.358c-0.34 0-0.631 0.124-0.866 0.357s-0.349 0.518-0.349 0.847 0.113 0.621 0.349 0.856c0.236 0.235 0.526 0.348 0.866 0.348 0.329 0 0.611-0.113 0.846-0.347zM13.413 12.775c0-0.178 0.057-0.329 0.179-0.443 0.366-0.365 0.988-0.132 0.988 0.443 0 0.368-0.273 0.613-0.574 0.613-0.311 0-0.593-0.244-0.593-0.613z"></path>
<path fill="#000" d="M17.91 16.322c-0.235-0.235-0.518-0.357-0.847-0.357-0.339 0-0.631 0.124-0.864 0.357-0.236 0.237-0.349 0.518-0.349 0.856 0 0.329 0.113 0.613 0.349 0.847 0.235 0.237 0.526 0.348 0.864 0.348 0.329 0 0.602-0.111 0.838-0.348 0.236-0.235 0.357-0.518 0.357-0.847 0-0.34-0.113-0.621-0.348-0.856zM17.063 17.791c-0.31 0-0.592-0.245-0.592-0.613 0-0.365 0.282-0.621 0.592-0.621 0.302 0 0.574 0.254 0.574 0.621 0 0.368-0.273 0.613-0.574 0.613z"></path>
</svg>
