<?xml version="1.0" encoding="utf-8"?>
<!-- Generated by IcoMoon.io -->
<!DOCTYPE svg PUBLIC "-//W3C//DTD SVG 1.1//EN" "http://www.w3.org/Graphics/SVG/1.1/DTD/svg11.dtd">
<svg version="1.1" xmlns="http://www.w3.org/2000/svg" xmlns:xlink="http://www.w3.org/1999/xlink" width="31" height="32" viewBox="0 0 31 32">
<path fill="#000" d="M29.932 12.035c0-0.118-0.037-0.235-0.108-0.331l-5.384-7.41c-0.070-0.096-0.168-0.168-0.281-0.205l-8.713-2.831c-0.113-0.037-0.235-0.037-0.348 0l-8.71 2.833c-0.114 0.036-0.213 0.108-0.281 0.204l-5.384 7.411c-0.071 0.097-0.108 0.211-0.108 0.331v9.162c0 0.118 0.037 0.235 0.108 0.331l5.385 7.41c0.070 0.096 0.168 0.168 0.281 0.205l8.712 2.831c0.056 0.019 0.116 0.027 0.173 0.027s0.117-0.009 0.173-0.027l8.712-2.831c0.114-0.036 0.212-0.109 0.281-0.205l5.385-7.411c0.071-0.097 0.108-0.212 0.108-0.331l-0.001-9.162zM23.639 5.104l4.822 6.635-4.476 1.455-8.147-5.919-0.001-4.708 7.803 2.538zM15.274 8.257l7.949 5.777-3.036 9.346h-9.826l-3.036-9.346 7.95-5.777zM6.909 5.104l7.803-2.537 0.001 4.708-8.148 5.919-4.476-1.453 4.82-6.637zM1.74 21.015v-8.204l4.476 1.453 3.112 9.579-2.765 3.808-4.823-6.636zM15.274 30.847l-7.803-2.536 2.766-3.808h10.070l2.766 3.808-7.8 2.536zM23.986 27.65l-2.767-3.808 3.113-9.579 4.476-1.455 0.001 8.204-4.823 6.637z"></path>
<path fill="#000" d="M10.862 14.907l1.179-0.657v5.171h-1.43c-0.522 0-0.522 0.695 0 0.695h3.497c0.522 0 0.522-0.695 0-0.695h-1.334v-5.683c0-0.3-0.164-0.435-0.387-0.435-0.096 0-0.241 0.059-0.444 0.174l-1.363 0.782c-0.183 0.107-0.27 0.232-0.27 0.377 0.001 0.281 0.319 0.416 0.552 0.271z"></path>
<path fill="#000" d="M18.257 16.25l-0.474 0.319-0.232 0.154c-1.478 0.996-2.155 1.903-2.155 2.938 0 0.241 0.194 0.453 0.435 0.453h3.595c0.532 0 0.532-0.695 0-0.695h-3.248c0.038-0.658 0.667-1.402 1.518-1.944l0.435-0.28c1.092-0.705 1.623-1.286 1.623-2.145 0-0.57-0.204-1.014-0.619-1.334-0.406-0.318-0.899-0.483-1.469-0.483-0.928 0-1.682 0.531-2.079 1.237-0.116 0.203-0.076 0.425 0.078 0.531 0.145 0.117 0.396 0.069 0.512-0.135 0.349-0.628 0.84-0.947 1.488-0.947 0.812 0 1.342 0.435 1.342 1.122 0 0.348-0.097 0.628-0.396 0.899-0.143 0.136-0.26 0.243-0.355 0.309z"></path>
</svg>
