<?xml version="1.0" encoding="utf-8"?>
<!-- Generated by IcoMoon.io -->
<!DOCTYPE svg PUBLIC "-//W3C//DTD SVG 1.1//EN" "http://www.w3.org/Graphics/SVG/1.1/DTD/svg11.dtd">
<svg version="1.1" xmlns="http://www.w3.org/2000/svg" xmlns:xlink="http://www.w3.org/1999/xlink" width="28" height="32" viewBox="0 0 28 32">
<path fill="#000" d="M27.508 9.265c-0.002-0.068-0.022-0.132-0.051-0.196-0.009-0.019-0.009-0.038-0.018-0.055-0.001-0.002-0.001-0.004-0.002-0.006-0.045-0.075-0.109-0.135-0.181-0.179-0.002-0.002-0.003-0.005-0.006-0.007l-12.809-7.517c-0.163-0.095-0.365-0.098-0.533-0.003l-12.915 7.332c-0.002 0.001-0.003 0.004-0.006 0.006-0.072 0.043-0.136 0.1-0.182 0.174-0.001 0.002-0.001 0.005-0.003 0.009-0.011 0.017-0.011 0.038-0.020 0.058-0.028 0.062-0.049 0.124-0.052 0.192 0 0.006-0.005 0.013-0.005 0.021l-0.107 14.853c-0.001 0.191 0.099 0.368 0.263 0.464l12.809 7.519c0.083 0.049 0.176 0.072 0.27 0.072 0.086 0 0.168-0.024 0.244-0.065 0.005-0.003 0.013-0.002 0.019-0.005l12.917-7.333c0.165-0.094 0.268-0.268 0.27-0.459l0.108-14.852c-0.001-0.007-0.006-0.014-0.006-0.021zM6.142 20.568l-4.143-11.004 11.089-1.004-6.946 12.008zM14.065 9.001l7.1 12.274h-14.2l7.1-12.274zM20.942 22.341l-6.98 8.293-6.796-8.293h13.776zM21.887 20.398l-6.838-11.825 11.171 1.164-4.332 10.66zM14.605 7.457l0.082-4.772 9.904 5.813-9.986-1.041zM13.54 7.448l-9.88 0.896 9.964-5.658-0.083 4.762zM5.365 21.523l-3.677 1.61 0.080-11.164 3.597 9.555zM5.885 22.458l5.77 7.039-9.336-5.48 3.567-1.56zM22.176 22.53l3.537 1.651-9.433 5.355 5.896-7.006zM22.573 21.54l3.854-9.484-0.081 11.245-3.773-1.761z"></path>
<path fill="#000" d="M13.265 19.707h-2.185c0.026-0.442 0.448-0.943 1.021-1.307l0.292-0.19c0.734-0.474 1.092-0.865 1.092-1.442 0-0.384-0.136-0.683-0.417-0.898-0.273-0.214-0.604-0.325-0.989-0.325-0.624 0-1.131 0.358-1.399 0.832-0.077 0.136-0.052 0.287 0.052 0.358 0.098 0.078 0.267 0.046 0.345-0.092 0.234-0.422 0.566-0.637 1-0.637 0.546 0 0.904 0.292 0.904 0.754 0 0.234-0.066 0.422-0.266 0.604-0.098 0.092-0.176 0.162-0.241 0.208l-0.475 0.319c-0.995 0.67-1.449 1.282-1.449 1.976 0 0.162 0.129 0.306 0.292 0.306h2.419c0.36 0.002 0.36-0.466 0.002-0.466z"></path>
<path fill="#000" d="M17.546 17.022c-0.13-0.546-0.372-1.014-0.806-1.274-0.214-0.137-0.456-0.201-0.734-0.201-0.28 0-0.527 0.065-0.741 0.201-0.423 0.26-0.67 0.729-0.8 1.274s-0.13 1.196 0 1.743 0.377 1.021 0.8 1.287c0.214 0.13 0.462 0.196 0.741 0.196s0.52-0.066 0.734-0.196c0.435-0.266 0.676-0.74 0.806-1.287s0.13-1.197 0-1.743zM16.844 19.271c-0.196 0.344-0.474 0.513-0.838 0.513s-0.643-0.176-0.846-0.52-0.299-0.806-0.299-1.372 0.097-1.021 0.299-1.365c0.201-0.345 0.482-0.52 0.846-0.52s0.643 0.168 0.838 0.513c0.201 0.344 0.298 0.799 0.298 1.371s-0.097 1.034-0.298 1.378z"></path>
</svg>
