<?xml version="1.0" encoding="utf-8"?>
<!-- Generated by IcoMoon.io -->
<!DOCTYPE svg PUBLIC "-//W3C//DTD SVG 1.1//EN" "http://www.w3.org/Graphics/SVG/1.1/DTD/svg11.dtd">
<svg version="1.1" xmlns="http://www.w3.org/2000/svg" xmlns:xlink="http://www.w3.org/1999/xlink" width="30" height="32" viewBox="0 0 30 32">
<path fill="#000" d="M13.438 16.982c0.167-0.066 0.326-0.204 0.48-0.413 0.159-0.21 0.239-0.45 0.239-0.725 0-0.436-0.16-0.769-0.472-1.008s-0.681-0.362-1.102-0.362c-0.508 0-0.951 0.166-1.327 0.5-0.152 0.138-0.174 0.276-0.051 0.406 0.124 0.13 0.255 0.13 0.406-0.008 0.297-0.255 0.63-0.385 1.001-0.385 0.254 0 0.479 0.072 0.681 0.21 0.209 0.138 0.312 0.355 0.312 0.638 0 0.602-0.48 0.951-1.204 0.951h-0.072c-0.203 0-0.304 0.087-0.304 0.268 0 0.174 0.102 0.26 0.304 0.26h0.152c0.726 0 1.248 0.298 1.248 0.914 0 0.638-0.472 0.972-1.089 0.972-0.449 0-0.834-0.138-1.153-0.421-0.152-0.138-0.283-0.138-0.405-0.008-0.124 0.13-0.102 0.268 0.051 0.406 0.376 0.341 0.951 0.535 1.472 0.535 0.472 0 0.87-0.13 1.189-0.384 0.326-0.26 0.486-0.631 0.486-1.11 0-0.607-0.37-1.042-0.841-1.238z"></path>
<path fill="#000" d="M18.635 16.119c-0.145-0.609-0.413-1.132-0.899-1.421-0.239-0.152-0.508-0.224-0.819-0.224s-0.587 0.071-0.827 0.224c-0.471 0.29-0.747 0.813-0.892 1.421-0.146 0.61-0.146 1.335 0 1.943 0.145 0.61 0.421 1.139 0.892 1.436 0.24 0.146 0.515 0.217 0.827 0.217s0.58-0.071 0.819-0.217c0.486-0.297 0.755-0.826 0.899-1.436 0.146-0.608 0.146-1.333 0-1.943zM17.853 18.629c-0.218 0.384-0.53 0.573-0.936 0.573s-0.719-0.196-0.943-0.58c-0.225-0.385-0.334-0.899-0.334-1.53 0-0.63 0.109-1.138 0.334-1.523 0.224-0.385 0.535-0.58 0.943-0.58s0.718 0.189 0.936 0.573c0.224 0.385 0.334 0.893 0.334 1.53s-0.11 1.152-0.334 1.536z"></path>
<path fill="#000" d="M29.824 17.050c0-0.012-0.006-0.021-0.007-0.032-0.001-0.017 0.002-0.033 0-0.051l-1.262-8.265c0-0.001 0-0.001 0-0.002v-0.001c-0.011-0.070-0.035-0.137-0.070-0.198-0.006-0.009-0.016-0.016-0.021-0.023-0.031-0.047-0.066-0.092-0.11-0.128l-5.847-4.703c-0.055-0.043-0.116-0.077-0.183-0.098l-7.34-2.294c-0.009-0.002-0.017 0.003-0.024 0.001-0.020-0.006-0.037-0.014-0.057-0.017-0.019-0.003-0.037-0.003-0.056-0.004-0.010 0-0.019-0.006-0.029-0.006-0.001 0-0.001 0-0.002 0-0.020 0-0.037 0.010-0.057 0.012-0.022 0.002-0.045 0-0.067 0.006-0.020 0.004-0.037 0.012-0.057 0.019-0.006 0.002-0.013-0.001-0.019 0.001l-6.535 2.523c-0.058 0.023-0.111 0.055-0.158 0.094l-5.734 4.816c-0.016 0.013-0.023 0.030-0.037 0.045-0.021 0.021-0.039 0.042-0.057 0.067-0.023 0.032-0.040 0.068-0.056 0.105-0.011 0.026-0.022 0.052-0.028 0.079-0.003 0.013-0.011 0.023-0.013 0.036l-1.376 7.924c-0.003 0.018 0.002 0.033 0 0.051-0.001 0.016-0.009 0.028-0.009 0.045s0.008 0.030 0.010 0.047c0.001 0.020-0.003 0.039 0 0.059l1.376 7.099c0.001 0.004 0.006 0.008 0.007 0.012 0.021 0.098 0.070 0.183 0.138 0.255 0.007 0.008 0.007 0.020 0.014 0.027l4.587 4.472c0.056 0.055 0.122 0.097 0.196 0.124l7.683 2.822c0.002 0.001 0.006 0 0.008 0.001 0.060 0.022 0.121 0.032 0.185 0.032 0.057 0 0.114-0.009 0.168-0.026l7.453-2.363c0.056-0.018 0.109-0.045 0.157-0.078l5.733-4.128c0.004-0.003 0.007-0.009 0.011-0.012 0.053-0.041 0.101-0.089 0.136-0.147 0.016-0.023 0.019-0.051 0.029-0.076 0.019-0.040 0.039-0.079 0.047-0.124 0-0.002 0.002-0.003 0.002-0.006l1.262-7.902c0.003-0.019-0.001-0.037 0-0.056 0.001-0.012 0.007-0.021 0.007-0.033zM23.467 25.536l-8.089 4.914 0.032-6.773 8.827-5.548-0.77 7.406zM3.020 23.659l-1.173-6.052 2.428 0.001 1.349 6.445-2.603-0.394zM3.024 9.636l2.201-0.227-0.983 7.086-2.408-0.001 1.19-6.858zM23.464 8.070l0.78 7.907-8.833-5.552-0.032-7.609 8.085 5.254zM14.855 22.714l-9.078-5.662 9.077-5.663 9.009 5.663-9.008 5.662zM14.299 10.424l-8.858 5.526 0.953-6.869 7.872-6.158 0.033 7.5zM6.835 24.412l-1.298-6.198 8.761 5.464-0.031 6.619-7.432-5.886zM25.414 16.495l-0.789-8.006 2.886 0.742 1.109 7.263-3.206 0.001zM25.649 7.601l-1.429-0.367-5.707-3.71 3.378 1.056 3.758 3.021zM8.569 4.796l2.961-1.142-5.873 4.591-1.364 0.141 4.275-3.591zM4.175 24.959l1.927 0.293 5.648 4.473-4.312-1.584-3.262-3.182zM22.018 28.577l-2.947 0.935 5.136-3.121 1.242-0.284-3.431 2.47zM27.515 24.493l-2.89 0.66 0.785-7.544 3.205-0.001-1.1 6.886z"></path>
</svg>
