<?xml version="1.0" encoding="utf-8"?>
<!-- Generated by IcoMoon.io -->
<!DOCTYPE svg PUBLIC "-//W3C//DTD SVG 1.1//EN" "http://www.w3.org/Graphics/SVG/1.1/DTD/svg11.dtd">
<svg version="1.1" xmlns="http://www.w3.org/2000/svg" xmlns:xlink="http://www.w3.org/1999/xlink" width="32" height="32" viewBox="0 0 32 32">
<path fill="#000" d="M31.343 18.247l-12.599-16.79-0.018 0.014c-0.097-0.127-0.228-0.226-0.393-0.238-0.213-0.021-0.423 0.093-0.53 0.281l-17.111 29.64c-0.102 0.174-0.102 0.39 0 0.564 0.1 0.174 0.287 0.282 0.489 0.282h28.764c0.186 0 0.361-0.093 0.466-0.247 0.056-0.084 0.084-0.178 0.091-0.275h0.006l0.948-12.851c0.010-0.135-0.029-0.27-0.112-0.379zM2.157 30.872l16.038-27.78 10.922 27.78h-26.96zM29.563 28.924l-9.22-23.456 9.971 13.287-0.75 10.169z"></path>
<path fill="#000" d="M17.74 11.733l-7.416 10.728c-0.216 0.324-0.336 0.624-0.336 0.872 0 0.724 0.385 1.073 1.177 1.073h6.719v3.467c0 0.723 0.311 1.072 0.913 1.072 0.599 0 0.913-0.35 0.913-1.072v-3.467h1.583c0.648 0 0.984-0.3 0.984-0.898 0-0.599-0.336-0.899-0.984-0.899h-1.583v-10.128c0-0.822-0.36-1.247-1.057-1.247-0.385 0.001-0.696 0.176-0.912 0.5zM17.883 22.609h-5.663l5.663-8.108v8.108z"></path>
</svg>
