<?xml version="1.0" encoding="utf-8"?>
<!-- Generated by IcoMoon.io -->
<!DOCTYPE svg PUBLIC "-//W3C//DTD SVG 1.1//EN" "http://www.w3.org/Graphics/SVG/1.1/DTD/svg11.dtd">
<svg version="1.1" xmlns="http://www.w3.org/2000/svg" xmlns:xlink="http://www.w3.org/1999/xlink" width="33" height="32" viewBox="0 0 33 32">
<path fill="#000" d="M12.824 28.464c1.228 0 2.314-0.447 3.279-1.341 0.963-0.916 1.434-2.108 1.434-3.62 0-1.468-0.471-2.661-1.414-3.577-0.922-0.916-2.028-1.363-3.297-1.363-1.475 0-2.993 0.788-3.751 2.257-0.061-1.831 0.267-3.321 1.004-4.492s1.7-1.747 2.889-1.747c0.963 0 1.761 0.34 2.438 1.043 0.388 0.404 0.841 0.384 1.148 0.064 0.349-0.363 0.327-0.767-0.082-1.193-0.943-0.957-2.109-1.427-3.503-1.427-1.66 0-2.971 0.681-3.934 2.065-0.963 1.385-1.435 3.216-1.435 5.493 0 2.363 0.472 4.28 1.414 5.707s2.213 2.131 3.812 2.131zM10.631 21.032c0.616-0.617 1.353-0.936 2.193-0.936 0.859 0 1.597 0.32 2.212 0.936 0.616 0.619 0.922 1.427 0.922 2.469 0 1.107-0.307 1.959-0.922 2.556-0.593 0.596-1.311 0.893-2.109 0.893-0.902 0-1.66-0.34-2.274-1s-0.923-1.491-0.923-2.469c0-1.001 0.309-1.831 0.902-2.449z"></path>
<path fill="#000" d="M31.565 1.23h-22.427c-0.203 0-0.398 0.078-0.545 0.22l-7.738 7.492c-0.148 0.144-0.239 0.341-0.239 0.563v21.707c0 0.435 0.351 0.787 0.787 0.787h22.427c0.212 0 0.404-0.087 0.546-0.22l7.738-7.49c0.151-0.148 0.238-0.353 0.238-0.563v-21.71c-0.001-0.432-0.353-0.785-0.787-0.785zM23.042 30.43h-20.855v-20.139h20.855v20.139zM23.51 8.721h-20.167l6.114-5.919h20.167l-6.114 5.919zM30.78 23.39l-6.166 5.968v-19.52l6.166-5.967v19.518z"></path>
</svg>
