<?xml version="1.0" encoding="utf-8"?>
<!-- Generated by IcoMoon.io -->
<!DOCTYPE svg PUBLIC "-//W3C//DTD SVG 1.1//EN" "http://www.w3.org/Graphics/SVG/1.1/DTD/svg11.dtd">
<svg version="1.1" xmlns="http://www.w3.org/2000/svg" xmlns:xlink="http://www.w3.org/1999/xlink" width="28" height="32" viewBox="0 0 28 32">
<path fill="#000" d="M27.394 9.155c0-0.17-0.091-0.327-0.238-0.412l-12.913-7.455c-0.018-0.010-0.037-0.011-0.055-0.019-0.031-0.013-0.061-0.025-0.095-0.031-0.022-0.004-0.043-0.007-0.065-0.008-0.017-0.001-0.031-0.001-0.049 0-0.022 0.002-0.043 0.004-0.065 0.008-0.033 0.007-0.062 0.019-0.094 0.031-0.019 0.009-0.039 0.010-0.057 0.020-0.001 0.001-0.001 0.001-0.002 0.002l-12.909 7.452c-0.147 0.085-0.238 0.242-0.238 0.412v14.912c0 0.020 0.010 0.038 0.011 0.058 0.005 0.032 0.010 0.064 0.020 0.096 0.008 0.022 0.017 0.042 0.027 0.062 0.008 0.014 0.014 0.026 0.022 0.038 0.012 0.020 0.025 0.037 0.040 0.054 0.022 0.026 0.049 0.047 0.076 0.067 0.015 0.011 0.025 0.028 0.042 0.037l12.913 7.457c0.073 0.043 0.156 0.064 0.238 0.064s0.165-0.021 0.238-0.064l12.913-7.457c0.011-0.007 0.016-0.020 0.027-0.027 0.048-0.032 0.087-0.071 0.12-0.12 0.011-0.017 0.024-0.030 0.033-0.049 0.033-0.065 0.058-0.137 0.058-0.216v-14.912zM26.443 22.013l-11.119-19.002 11.119 6.42v12.582zM26.264 23.592h-24.349l12.093-20.944 12.256 20.944zM12.706 2.999l-11.14 19.293v-12.862l11.14-6.431zM14.005 30.975l-11.138-6.432h22.275l-11.138 6.432z"></path>
<path fill="#000" d="M12.579 15.983c-0.417 0.108-0.851 0.417-1.268 0.896s-0.618 1.051-0.618 1.685c0 0.913 0.34 1.64 1.006 2.196 0.68 0.558 1.515 0.836 2.489 0.836s1.809-0.278 2.474-0.836c0.68-0.557 1.020-1.284 1.020-2.196 0-0.634-0.217-1.206-0.634-1.685s-0.835-0.789-1.252-0.896c0.386-0.171 0.742-0.449 1.098-0.852s0.526-0.896 0.526-1.5c0-0.896-0.325-1.607-0.974-2.15-0.634-0.541-1.391-0.804-2.257-0.804s-1.624 0.263-2.274 0.804c-0.634 0.541-0.958 1.252-0.958 2.15 0 0.603 0.17 1.098 0.526 1.5 0.353 0.403 0.71 0.68 1.096 0.852zM16.491 18.55c0 1.19-1.006 1.949-2.304 1.949s-2.305-0.758-2.305-1.949c0-1.222 0.959-1.964 2.305-1.964 1.314 0 2.304 0.742 2.304 1.964zM12.78 12.256c0.418-0.325 0.897-0.48 1.407-0.48s0.99 0.155 1.407 0.48c0.417 0.325 0.634 0.789 0.634 1.392 0 1.13-0.866 1.824-2.041 1.824-1.191 0-2.042-0.695-2.042-1.824 0.001-0.603 0.217-1.067 0.635-1.392z"></path>
</svg>
