<?xml version="1.0" encoding="utf-8"?>
<!-- Generated by IcoMoon.io -->
<!DOCTYPE svg PUBLIC "-//W3C//DTD SVG 1.1//EN" "http://www.w3.org/Graphics/SVG/1.1/DTD/svg11.dtd">
<svg version="1.1" xmlns="http://www.w3.org/2000/svg" xmlns:xlink="http://www.w3.org/1999/xlink" width="33" height="32" viewBox="0 0 33 32">
<path d="M23.827 32h-22.426c-0.434 0-0.786-0.351-0.786-0.786v-21.708c0-0.222 0.092-0.422 0.24-0.564l7.737-7.49c0.147-0.142 0.343-0.222 0.546-0.222h22.426c0.434 0 0.786 0.352 0.786 0.786v21.708c0 0.213-0.086 0.416-0.24 0.565l-7.737 7.49c-0.141 0.136-0.333 0.221-0.546 0.221zM2.187 30.429h20.854v-20.136h-20.854v20.136zM24.612 9.839v19.52l6.166-5.968v-19.52l-6.166 5.968zM3.343 8.721h20.167l6.113-5.918h-20.166l-6.114 5.918z"></path>
<path d="M12.142 19.915l0.396-0.264 0.809-0.545c0.165-0.115 0.363-0.297 0.611-0.528 0.512-0.462 0.677-0.941 0.677-1.534 0-1.172-0.908-1.914-2.293-1.914-1.106 0-1.947 0.545-2.54 1.616-0.198 0.346-0.627 0.43-0.875 0.232-0.264-0.181-0.33-0.561-0.132-0.908 0.677-1.205 1.964-2.112 3.547-2.112 0.974 0 1.815 0.28 2.507 0.825 0.71 0.545 1.056 1.304 1.056 2.276 0 1.469-0.908 2.459-2.771 3.662l-0.743 0.478c-1.452 0.924-2.524 2.195-2.59 3.317h5.543c0.908 0 0.908 1.188 0 1.188h-6.137c-0.412 0-0.743-0.363-0.743-0.775-0.001-1.766 1.154-3.317 3.678-5.015z"></path>
</svg>
