<?xml version="1.0" encoding="utf-8"?>
<!-- Generated by IcoMoon.io -->
<!DOCTYPE svg PUBLIC "-//W3C//DTD SVG 1.1//EN" "http://www.w3.org/Graphics/SVG/1.1/DTD/svg11.dtd">
<svg version="1.1" xmlns="http://www.w3.org/2000/svg" xmlns:xlink="http://www.w3.org/1999/xlink" width="33" height="32" viewBox="0 0 33 32">
<path d="M23.827 32h-22.426c-0.434 0-0.786-0.351-0.786-0.786v-21.708c0-0.222 0.092-0.422 0.24-0.564l7.737-7.49c0.147-0.142 0.343-0.222 0.546-0.222h22.426c0.434 0 0.786 0.352 0.786 0.786v21.708c0 0.213-0.086 0.416-0.24 0.565l-7.737 7.49c-0.141 0.136-0.333 0.221-0.546 0.221zM2.187 30.429h20.854v-20.136h-20.854v20.136zM24.612 9.839v19.52l6.166-5.968v-19.52l-6.166 5.968zM3.343 8.721h20.167l6.113-5.918h-20.166l-6.114 5.918z"></path>
<path d="M3.878 23.742c0.28-0.298 0.578-0.298 0.924 0.017 0.726 0.644 1.601 0.957 2.623 0.957 1.403 0 2.474-0.759 2.474-2.21 0-1.402-1.188-2.079-2.837-2.079h-0.346c-0.462 0-0.693-0.198-0.693-0.594 0-0.413 0.231-0.611 0.693-0.611h0.165c1.65 0 2.738-0.792 2.738-2.161 0-0.644-0.231-1.139-0.71-1.452-0.462-0.313-0.974-0.479-1.551-0.479-0.842 0-1.601 0.297-2.276 0.875-0.346 0.314-0.644 0.314-0.924 0.017s-0.231-0.611 0.115-0.924c0.858-0.759 1.865-1.139 3.019-1.139 0.957 0 1.799 0.28 2.507 0.825s1.073 1.304 1.073 2.293c0 0.627-0.181 1.172-0.545 1.651-0.347 0.478-0.71 0.792-1.089 0.94 1.073 0.445 1.914 1.436 1.914 2.822 0 1.088-0.363 1.93-1.106 2.524-0.726 0.578-1.634 0.874-2.705 0.874-1.188 0-2.491-0.445-3.349-1.22-0.346-0.314-0.395-0.628-0.115-0.924z"></path>
<path d="M16.665 19.915l0.396-0.264 0.809-0.545c0.164-0.115 0.362-0.297 0.61-0.528 0.512-0.462 0.676-0.941 0.676-1.534 0-1.172-0.907-1.914-2.293-1.914-1.106 0-1.947 0.545-2.54 1.616-0.198 0.346-0.627 0.43-0.875 0.232-0.264-0.181-0.33-0.561-0.132-0.908 0.677-1.205 1.964-2.112 3.547-2.112 0.973 0 1.815 0.28 2.507 0.825 0.709 0.545 1.056 1.304 1.056 2.276 0 1.469-0.907 2.459-2.771 3.662l-0.743 0.478c-1.452 0.924-2.524 2.195-2.59 3.317h5.543c0.908 0 0.908 1.188 0 1.188h-6.137c-0.412 0-0.743-0.363-0.743-0.775 0.001-1.766 1.156-3.317 3.68-5.015z"></path>
</svg>
