<?xml version="1.0" encoding="utf-8"?>
<!-- Generated by IcoMoon.io -->
<!DOCTYPE svg PUBLIC "-//W3C//DTD SVG 1.1//EN" "http://www.w3.org/Graphics/SVG/1.1/DTD/svg11.dtd">
<svg version="1.1" xmlns="http://www.w3.org/2000/svg" xmlns:xlink="http://www.w3.org/1999/xlink" width="33" height="32" viewBox="0 0 33 32">
<path d="M23.827 32h-22.426c-0.434 0-0.786-0.351-0.786-0.786v-21.708c0-0.222 0.092-0.422 0.24-0.564l7.737-7.49c0.147-0.142 0.343-0.222 0.546-0.222h22.426c0.434 0 0.786 0.352 0.786 0.786v21.708c0 0.213-0.086 0.416-0.24 0.565l-7.737 7.49c-0.141 0.136-0.333 0.221-0.546 0.221zM2.187 30.429h20.854v-20.136h-20.854v20.136zM24.612 9.839v19.52l6.166-5.968v-19.52l-6.166 5.968zM3.343 8.721h20.167l6.113-5.918h-20.166l-6.114 5.918z"></path>
<path d="M7.82 24.517h2.276c0.891 0 0.891 1.188 0 1.188h-5.972c-0.891 0-0.891-1.188 0-1.188h2.441v-8.826l-2.013 1.121c-0.396 0.247-0.941 0.017-0.941-0.461 0-0.247 0.148-0.462 0.462-0.644l2.326-1.337c0.346-0.198 0.594-0.297 0.759-0.297 0.38 0 0.66 0.231 0.66 0.743v9.701z"></path>
<path d="M16.896 15.129c-0.957 0-1.733 0.446-2.326 1.353s-0.858 2.063-0.809 3.481c0.611-1.139 1.832-1.749 3.019-1.749 1.023 0 1.913 0.346 2.656 1.056 0.759 0.71 1.139 1.634 1.139 2.771 0 1.172-0.38 2.096-1.156 2.804-0.775 0.693-1.65 1.039-2.639 1.039-1.287 0-2.309-0.544-3.068-1.65-0.759-1.105-1.139-2.59-1.139-4.421 0-1.765 0.38-3.184 1.155-4.256s1.832-1.601 3.167-1.601c1.122 0 2.062 0.363 2.822 1.106 0.33 0.33 0.346 0.644 0.066 0.924-0.247 0.248-0.611 0.264-0.924-0.050-0.544-0.543-1.187-0.807-1.963-0.807zM15.015 20.128c-0.479 0.478-0.726 1.122-0.726 1.898 0 0.758 0.248 1.402 0.743 1.914 0.495 0.511 1.106 0.775 1.832 0.775 0.643 0 1.221-0.231 1.699-0.693 0.496-0.462 0.743-1.122 0.743-1.98 0-0.808-0.247-1.436-0.743-1.914-0.494-0.478-1.088-0.726-1.781-0.726-0.677 0.001-1.271 0.249-1.766 0.727z"></path>
</svg>
