<?xml version="1.0" encoding="utf-8"?>
<!-- Generated by IcoMoon.io -->
<!DOCTYPE svg PUBLIC "-//W3C//DTD SVG 1.1//EN" "http://www.w3.org/Graphics/SVG/1.1/DTD/svg11.dtd">
<svg version="1.1" xmlns="http://www.w3.org/2000/svg" xmlns:xlink="http://www.w3.org/1999/xlink" width="33" height="32" viewBox="0 0 33 32">
<path d="M23.827 32h-22.426c-0.434 0-0.786-0.351-0.786-0.786v-21.708c0-0.222 0.092-0.422 0.24-0.564l7.737-7.49c0.147-0.142 0.343-0.222 0.546-0.222h22.426c0.434 0 0.786 0.352 0.786 0.786v21.708c0 0.213-0.086 0.416-0.24 0.565l-7.737 7.49c-0.141 0.136-0.333 0.221-0.546 0.221zM2.187 30.429h20.854v-20.136h-20.854v20.136zM24.612 9.839v19.52l6.166-5.968v-19.52l-6.166 5.968zM3.343 8.721h20.167l6.113-5.918h-20.166l-6.114 5.918z"></path>
<path d="M13.065 14.404c0.149-0.214 0.363-0.33 0.627-0.33 0.479 0 0.726 0.28 0.726 0.825v6.698h1.089c0.445 0 0.677 0.198 0.677 0.594s-0.231 0.594-0.677 0.594h-1.089v2.294c0 0.478-0.214 0.71-0.627 0.71s-0.627-0.232-0.627-0.71v-2.294h-4.619c-0.545 0-0.809-0.23-0.809-0.709 0-0.165 0.082-0.363 0.231-0.577l5.098-7.095zM9.271 21.596h3.893v-5.361l-3.893 5.361z"></path>
</svg>
