<?xml version="1.0" encoding="utf-8"?>
<!-- Generated by IcoMoon.io -->
<!DOCTYPE svg PUBLIC "-//W3C//DTD SVG 1.1//EN" "http://www.w3.org/Graphics/SVG/1.1/DTD/svg11.dtd">
<svg version="1.1" xmlns="http://www.w3.org/2000/svg" xmlns:xlink="http://www.w3.org/1999/xlink" width="20" height="32" viewBox="0 0 20 32">
<path fill="#000" d="M0.648 31.331l4.359-11.564c0.057-0.153 0.186-0.267 0.344-0.306 0.158-0.040 0.324 0 0.446 0.108l13.106 11.544c0.155 0.136 0.209 0.354 0.135 0.547v0c-0.072 0.193-0.257 0.32-0.463 0.32l-17.464 0.019c-0.163 0.001-0.315-0.079-0.408-0.213-0.094-0.133-0.115-0.305-0.056-0.456zM5.681 20.787l-3.854 10.222 15.439-0.017-11.585-10.204z"></path>
<path fill="#000" d="M6.588 23.225c0.003 0.001 0.007 0.002 0.010 0.005 0.49 0.241 1.254 1.054 1.534 1.362 0.045 0.050 0.014 0.132-0.053 0.138-0.413 0.047-1.525 0.152-2.048 0.011-0.007-0.001-0.011-0.003-0.016-0.004-0.027-0.007-0.051-0.014-0.073-0.022-0.42-0.158-0.631-0.628-0.473-1.047 0.158-0.421 0.627-0.632 1.048-0.475 0.021 0.009 0.047 0.021 0.070 0.032z"></path>
<path fill="#000" d="M5.804 25.303c0.003 0.002 0.006 0.003 0.010 0.005 0.491 0.241 1.253 1.054 1.534 1.362 0.045 0.050 0.014 0.132-0.053 0.139-0.414 0.045-1.524 0.151-2.047 0.011-0.006-0.002-0.012-0.003-0.017-0.003-0.025-0.008-0.050-0.015-0.072-0.023-0.42-0.159-0.631-0.629-0.473-1.048s0.627-0.632 1.048-0.474c0.021 0.009 0.047 0.019 0.070 0.031z"></path>
</svg>
