<?xml version="1.0" encoding="utf-8"?>
<!-- Generated by IcoMoon.io -->
<!DOCTYPE svg PUBLIC "-//W3C//DTD SVG 1.1//EN" "http://www.w3.org/Graphics/SVG/1.1/DTD/svg11.dtd">
<svg version="1.1" xmlns="http://www.w3.org/2000/svg" xmlns:xlink="http://www.w3.org/1999/xlink" width="16" height="32" viewBox="0 0 16 32">
<path fill="#000" d="M15.093 26.926l-2.605-6.182h0.551c0.136 0 0.264-0.067 0.341-0.179s0.095-0.255 0.047-0.382l-5.173-13.677c-0.061-0.162-0.216-0.268-0.388-0.268s-0.327 0.107-0.388 0.268l-5.173 13.677c-0.048 0.127-0.031 0.27 0.047 0.382s0.205 0.179 0.341 0.179h0.557l-2.605 6.182c-0.054 0.129-0.040 0.274 0.037 0.39s0.207 0.185 0.345 0.185h4.138l-1.568 3.926c-0.051 0.128-0.035 0.272 0.042 0.386s0.206 0.182 0.343 0.182h7.77c0.138 0 0.266-0.068 0.343-0.182s0.093-0.258 0.042-0.386l-1.568-3.926h4.143c0.139 0 0.268-0.070 0.345-0.185s0.090-0.262 0.036-0.39zM3.292 19.914l4.574-12.091 4.573 12.091h-9.147zM11.139 31.166h-6.545l1.464-3.665h3.617l1.464 3.665zM10.237 26.672h-8.585l2.498-5.929h7.439l2.498 5.929h-3.85z"></path>
<path fill="#000" d="M4.642 25.23c-0.046-0.451-0.457-1.291-0.615-1.602-0.026-0.050-0.098-0.050-0.124 0-0.159 0.31-0.571 1.149-0.614 1.604-0.001 0.003-0.001 0.007-0.001 0.009-0.002 0.023-0.003 0.044-0.003 0.065 0 0.377 0.304 0.681 0.68 0.681s0.681-0.304 0.681-0.681c0-0.020-0.001-0.041-0.003-0.062-0.001-0.005-0.001-0.010-0.002-0.014z"></path>
<path fill="#000" d="M8.361 25.23c-0.045-0.451-0.456-1.291-0.614-1.602-0.026-0.050-0.098-0.050-0.124 0-0.024 0.048-0.056 0.111-0.090 0.18-0.157 0.32-0.392 0.832-0.486 1.217-0.018 0.075-0.032 0.145-0.038 0.207-0 0.003-0 0.007-0.001 0.009-0.002 0.023-0.003 0.044-0.003 0.065 0 0.377 0.305 0.681 0.681 0.681s0.681-0.304 0.681-0.681c0-0.020-0.002-0.041-0.003-0.062-0.001-0.005-0.001-0.010-0.002-0.014z"></path>
<path fill="#000" d="M5.612 19.23c0.376 0 0.681-0.304 0.681-0.681 0-0.020-0.001-0.041-0.003-0.063-0.001-0.005-0.001-0.009-0.002-0.014-0.041-0.404-0.373-1.117-0.556-1.485-0.021-0.043-0.042-0.084-0.058-0.116-0.026-0.051-0.097-0.051-0.124 0-0.159 0.31-0.571 1.148-0.614 1.604-0.001 0.003-0.001 0.006-0.001 0.009-0.002 0.022-0.003 0.044-0.003 0.065 0 0.083 0.017 0.161 0.044 0.234 0.096 0.26 0.344 0.447 0.637 0.447z"></path>
<path fill="#000" d="M7.472 19.23c0.376 0 0.681-0.304 0.681-0.681 0-0.020-0.002-0.041-0.003-0.063-0.001-0.005-0.001-0.009-0.002-0.014-0.045-0.451-0.456-1.29-0.614-1.601-0.026-0.051-0.098-0.051-0.124 0-0.159 0.31-0.571 1.148-0.614 1.604-0.001 0.003-0.001 0.006-0.001 0.009-0.003 0.022-0.004 0.044-0.004 0.065-0 0.377 0.304 0.681 0.68 0.681z"></path>
<path fill="#000" d="M6.502 25.23c-0.017-0.172-0.088-0.4-0.177-0.634-0.145-0.38-0.339-0.775-0.437-0.968-0.026-0.050-0.097-0.050-0.124 0-0.159 0.31-0.571 1.149-0.614 1.604-0.001 0.003-0.001 0.007-0.001 0.009-0.003 0.023-0.004 0.044-0.004 0.065 0 0.358 0.277 0.648 0.627 0.676 0.018 0.001 0.035 0.005 0.054 0.005 0.376 0 0.681-0.304 0.681-0.681 0-0.020-0.001-0.041-0.003-0.062-0-0.005-0-0.010-0.001-0.014z"></path>
<path fill="#000" d="M7.827 30.482c0.376 0 0.681-0.304 0.681-0.681 0-0.020-0.002-0.041-0.004-0.063 0-0.005-0.001-0.009-0.001-0.014-0.046-0.451-0.457-1.29-0.615-1.601-0.026-0.051-0.098-0.051-0.124 0-0.16 0.31-0.571 1.148-0.615 1.604-0 0.003-0.001 0.006-0.001 0.009-0.002 0.022-0.003 0.044-0.003 0.065-0 0.376 0.304 0.681 0.681 0.681z"></path>
</svg>
