<?xml version="1.0" encoding="utf-8"?>
<!-- Generated by IcoMoon.io -->
<!DOCTYPE svg PUBLIC "-//W3C//DTD SVG 1.1//EN" "http://www.w3.org/Graphics/SVG/1.1/DTD/svg11.dtd">
<svg version="1.1" xmlns="http://www.w3.org/2000/svg" xmlns:xlink="http://www.w3.org/1999/xlink" width="12" height="32" viewBox="0 0 12 32">
<path fill="#000" d="M11.777 31.45l-2.416-6.387h2.019c0.136 0 0.264-0.066 0.341-0.179s0.095-0.255 0.047-0.382l-5.174-13.677c-0.061-0.162-0.216-0.268-0.388-0.268s-0.327 0.107-0.388 0.268l-5.174 13.677c-0.048 0.127-0.031 0.27 0.047 0.382s0.205 0.179 0.341 0.179h2.026l-2.416 6.387c-0.047 0.125-0.030 0.265 0.046 0.374s0.201 0.175 0.334 0.175h10.376c0.134 0 0.259-0.066 0.335-0.175s0.093-0.25 0.045-0.374zM1.632 24.233l4.574-12.090 4.574 12.090h-9.148zM2.921 31.187h-1.312l2.317-6.125h1.216l-0.774 2.133h0.864l0.773-2.133h0.406l2.223 6.125h-5.713zM9.497 31.187l-2.221-6.125h1.217l2.317 6.125h-1.312z"></path>
<path fill="#000" d="M4.508 29.753c-0.010-0.098-0.039-0.216-0.078-0.343-0.114-0.374-0.322-0.827-0.462-1.111-0.029-0.059-0.055-0.111-0.076-0.152-0.026-0.051-0.098-0.051-0.125 0-0.159 0.31-0.572 1.15-0.616 1.609-0 0.003-0 0.006-0.001 0.009-0.002 0.023-0.003 0.044-0.003 0.065 0 0.146 0.047 0.28 0.125 0.391 0.124 0.176 0.327 0.292 0.558 0.292 0.075 0 0.147-0.015 0.215-0.038 0.271-0.091 0.468-0.343 0.468-0.645 0-0.020-0.001-0.041-0.003-0.063-0.001-0.004-0.001-0.008-0.002-0.013z"></path>
<path fill="#000" d="M6.372 29.753c-0.045-0.452-0.457-1.294-0.616-1.605-0.026-0.051-0.098-0.051-0.125 0-0.159 0.31-0.572 1.15-0.616 1.609-0 0.003-0 0.006-0.001 0.009-0.002 0.023-0.003 0.044-0.003 0.065 0 0.377 0.306 0.683 0.683 0.683s0.683-0.306 0.683-0.683c0-0.020-0.001-0.041-0.003-0.063-0.001-0.004-0.001-0.009-0.002-0.014z"></path>
<path fill="#000" d="M4.633 22.868c0-0.020-0.001-0.041-0.003-0.063-0.001-0.005-0.001-0.009-0.002-0.014-0.027-0.264-0.178-0.66-0.331-1.006-0.108-0.245-0.217-0.466-0.283-0.595-0.026-0.051-0.097-0.051-0.124 0-0.159 0.309-0.571 1.148-0.614 1.604-0.001 0.003-0.001 0.007-0.001 0.009-0.002 0.023-0.003 0.044-0.003 0.066 0 0.269 0.158 0.5 0.385 0.61 0.090 0.044 0.189 0.070 0.295 0.070 0.377 0 0.682-0.304 0.682-0.68z"></path>
<path fill="#000" d="M5.696 23.537c0.038 0.007 0.076 0.012 0.116 0.012 0.327 0 0.599-0.23 0.665-0.537 0.010-0.046 0.016-0.094 0.016-0.143 0-0.020-0.002-0.041-0.003-0.063-0.001-0.005-0.001-0.009-0.002-0.014-0.045-0.451-0.456-1.291-0.614-1.601-0.026-0.051-0.098-0.051-0.124 0-0.159 0.309-0.571 1.148-0.614 1.604-0.001 0.003-0.001 0.007-0.001 0.009-0.003 0.023-0.004 0.044-0.004 0.066 0 0.336 0.245 0.614 0.565 0.669z"></path>
</svg>
