<?xml version="1.0" encoding="utf-8"?>
<!-- Generated by IcoMoon.io -->
<!DOCTYPE svg PUBLIC "-//W3C//DTD SVG 1.1//EN" "http://www.w3.org/Graphics/SVG/1.1/DTD/svg11.dtd">
<svg version="1.1" xmlns="http://www.w3.org/2000/svg" xmlns:xlink="http://www.w3.org/1999/xlink" width="16" height="32" viewBox="0 0 16 32">
<path fill="#000" d="M4.025 28.127c-0.026-0.050-0.098-0.050-0.124 0-0.16 0.31-0.571 1.148-0.615 1.604 0 0.003 0 0.007-0.001 0.010-0.002 0.022-0.003 0.044-0.003 0.065 0 0.377 0.304 0.681 0.681 0.681 0.376 0 0.681-0.304 0.681-0.681 0-0.020-0.001-0.041-0.004-0.063 0-0.004-0.001-0.009-0.001-0.014-0.046-0.45-0.457-1.29-0.615-1.601z"></path>
<path fill="#000" d="M5.822 30.486c0.376 0 0.681-0.304 0.681-0.681 0-0.020-0.001-0.041-0.003-0.063 0-0.004-0.001-0.009-0.001-0.014-0.046-0.45-0.457-1.29-0.615-1.601-0.026-0.050-0.098-0.050-0.124 0-0.16 0.31-0.571 1.148-0.615 1.604-0 0.003-0 0.007-0.001 0.010-0.002 0.022-0.003 0.044-0.003 0.065-0 0.377 0.304 0.681 0.68 0.681z"></path>
<path fill="#000" d="M7.681 30.486c0.377 0 0.681-0.304 0.681-0.681 0-0.020-0.001-0.041-0.003-0.063-0.001-0.004-0.001-0.009-0.002-0.014-0.045-0.45-0.456-1.29-0.614-1.601-0.026-0.050-0.098-0.050-0.124 0-0.16 0.31-0.571 1.148-0.615 1.604-0.001 0.003-0.001 0.007-0.001 0.010-0.003 0.022-0.003 0.044-0.003 0.065 0 0.377 0.305 0.681 0.68 0.681z"></path>
<path fill="#000" d="M15.091 31.424l-2.707-6.426h0.657c0.136 0 0.264-0.067 0.341-0.179 0.078-0.112 0.095-0.255 0.047-0.382l-5.174-13.677c-0.061-0.162-0.216-0.268-0.388-0.268s-0.327 0.107-0.388 0.268l-5.173 13.678c-0.048 0.127-0.031 0.27 0.047 0.382s0.205 0.179 0.341 0.179h0.657l-2.707 6.425c-0.054 0.128-0.040 0.274 0.037 0.39s0.207 0.185 0.345 0.185h13.684c0.139 0 0.268-0.070 0.345-0.185s0.091-0.262 0.038-0.39zM3.292 24.169l4.574-12.091 4.573 12.091h-9.147zM1.649 31.171l2.6-6.172h7.233l2.6 6.172h-12.434z"></path>
<path fill="#000" d="M4.935 22.739c0-0.003 0-0.007 0.001-0.009 0.044-0.457 0.455-1.295 0.615-1.604 0.026-0.051 0.098-0.051 0.124 0 0.158 0.31 0.569 1.15 0.615 1.601 0 0.005 0.001 0.010 0.001 0.014 0.003 0.022 0.003 0.044 0.003 0.063 0 0.377-0.304 0.681-0.681 0.681s-0.681-0.304-0.681-0.681c0-0.020 0.002-0.043 0.004-0.065z"></path>
<path fill="#000" d="M6.794 22.739c0-0.003 0-0.007 0.001-0.009 0.044-0.457 0.455-1.295 0.615-1.604 0.026-0.051 0.098-0.051 0.124 0 0.158 0.31 0.569 1.15 0.614 1.601 0.001 0.005 0.002 0.010 0.002 0.014 0.002 0.022 0.003 0.044 0.003 0.063 0 0.377-0.304 0.681-0.681 0.681s-0.681-0.304-0.681-0.681c0-0.020 0.001-0.043 0.003-0.065z"></path>
</svg>
