<?xml version="1.0" encoding="utf-8"?>
<!-- Generated by IcoMoon.io -->
<!DOCTYPE svg PUBLIC "-//W3C//DTD SVG 1.1//EN" "http://www.w3.org/Graphics/SVG/1.1/DTD/svg11.dtd">
<svg version="1.1" xmlns="http://www.w3.org/2000/svg" xmlns:xlink="http://www.w3.org/1999/xlink" width="12" height="32" viewBox="0 0 12 32">
<path fill="#000" d="M11.774 25.414l-5.188-13.714c-0.060-0.158-0.211-0.262-0.38-0.262s-0.32 0.104-0.38 0.262l-5.188 13.714c-0.047 0.125-0.030 0.264 0.046 0.374s0.201 0.176 0.334 0.176h3.101l-2.184 5.468c-0.051 0.128-0.035 0.272 0.042 0.386s0.206 0.182 0.343 0.182h7.77c0.138 0 0.267-0.068 0.343-0.182s0.093-0.258 0.042-0.386l-2.185-5.468h3.102c0.134 0 0.259-0.066 0.335-0.176s0.093-0.249 0.046-0.374zM9.478 31.171h-6.545l2.080-5.207h2.386l2.080 5.207zM9.494 25.151l-2.906-8.013c-0.058-0.161-0.211-0.268-0.382-0.268s-0.324 0.107-0.381 0.268l-1.459 4.022h0.864l0.976-2.692 2.425 6.683h-7.026l4.6-12.159 4.6 12.159h-1.312z"></path>
<path fill="#000" d="M3.888 22.112c-0.026-0.051-0.098-0.051-0.125 0-0.159 0.31-0.572 1.15-0.616 1.609-0 0.003-0 0.006-0.001 0.009-0.002 0.023-0.003 0.044-0.003 0.065 0 0.146 0.047 0.28 0.125 0.391 0.124 0.176 0.327 0.292 0.558 0.292 0.075 0 0.147-0.015 0.215-0.038 0.271-0.091 0.468-0.343 0.468-0.645 0-0.020-0.001-0.041-0.003-0.063-0-0.004-0.001-0.009-0.001-0.014-0.010-0.099-0.039-0.217-0.078-0.343-0.114-0.375-0.322-0.827-0.462-1.111-0.029-0.058-0.056-0.11-0.077-0.152z"></path>
<path fill="#000" d="M5.61 24.469c0.027 0.003 0.053 0.008 0.080 0.008 0.378 0 0.683-0.306 0.683-0.683 0-0.020-0.001-0.041-0.003-0.063-0.001-0.004-0.001-0.009-0.002-0.014-0.018-0.181-0.095-0.423-0.191-0.67-0.143-0.371-0.329-0.749-0.425-0.936-0.017-0.035-0.053-0.037-0.085-0.025-0.015 0.006-0.032 0.009-0.040 0.025-0.159 0.31-0.572 1.15-0.616 1.609-0 0.003-0 0.006-0.001 0.009 0 0.001 0 0.002 0 0.003-0.002 0.022-0.003 0.042-0.003 0.061 0 0.349 0.264 0.634 0.602 0.674z"></path>
<path fill="#000" d="M6.167 30.486c0.376 0 0.681-0.304 0.681-0.681 0-0.020-0.002-0.041-0.003-0.063 0-0.005-0.001-0.009-0.001-0.014-0.046-0.451-0.457-1.29-0.615-1.601-0.026-0.051-0.098-0.051-0.124 0-0.16 0.31-0.571 1.148-0.615 1.604-0 0.003-0.001 0.006-0.001 0.009-0.002 0.022-0.003 0.044-0.003 0.065 0 0.376 0.305 0.681 0.682 0.681z"></path>
</svg>
