<?xml version="1.0" encoding="utf-8"?>
<!-- Generated by IcoMoon.io -->
<!DOCTYPE svg PUBLIC "-//W3C//DTD SVG 1.1//EN" "http://www.w3.org/Graphics/SVG/1.1/DTD/svg11.dtd">
<svg version="1.1" xmlns="http://www.w3.org/2000/svg" xmlns:xlink="http://www.w3.org/1999/xlink" width="12" height="32" viewBox="0 0 12 32">
<path fill="#000" d="M3.953 19.229c0.376 0 0.681-0.304 0.681-0.68 0-0.020-0.001-0.041-0.003-0.063-0.001-0.005-0.001-0.009-0.002-0.014-0.018-0.177-0.092-0.412-0.184-0.653-0.144-0.374-0.334-0.76-0.43-0.948-0.019-0.037-0.058-0.038-0.090-0.021-0.012 0.007-0.027 0.007-0.034 0.021-0.159 0.309-0.571 1.148-0.614 1.604-0.001 0.003-0.001 0.007-0.001 0.009-0.002 0.023-0.004 0.045-0.004 0.066 0 0.007 0.002 0.014 0.002 0.021 0.011 0.352 0.289 0.634 0.639 0.655 0.013 0.001 0.026 0.004 0.040 0.004z"></path>
<path fill="#000" d="M5.812 19.229c0.376 0 0.681-0.304 0.681-0.68 0-0.020-0.002-0.041-0.003-0.063-0.001-0.005-0.001-0.009-0.002-0.014-0.045-0.451-0.456-1.291-0.614-1.601-0.026-0.051-0.098-0.051-0.124 0-0.159 0.309-0.571 1.148-0.614 1.604-0.001 0.003-0.001 0.007-0.001 0.009-0.003 0.023-0.004 0.044-0.004 0.066 0 0.376 0.305 0.68 0.681 0.68z"></path>
<path fill="#000" d="M5.975 30.486c0.376 0 0.681-0.304 0.681-0.68 0-0.020-0.002-0.041-0.004-0.063 0-0.005-0.001-0.009-0.001-0.014-0.046-0.451-0.456-1.291-0.615-1.601-0.026-0.051-0.098-0.051-0.124 0-0.16 0.309-0.57 1.148-0.615 1.604 0 0.003-0.001 0.007-0.001 0.009-0.002 0.023-0.003 0.044-0.003 0.066 0 0.376 0.305 0.68 0.681 0.68z"></path>
<path fill="#000" d="M9.961 20.743h1.419c0.136 0 0.264-0.066 0.341-0.179s0.095-0.255 0.047-0.382l-5.174-13.677c-0.061-0.162-0.216-0.268-0.388-0.268s-0.327 0.107-0.388 0.268l-5.174 13.677c-0.048 0.127-0.031 0.27 0.047 0.382s0.205 0.179 0.341 0.179h1.419l-1.807 4.777c-0.048 0.127-0.031 0.27 0.047 0.382s0.205 0.179 0.341 0.179h2.849l-2.136 5.35c-0.051 0.128-0.036 0.273 0.041 0.386s0.206 0.182 0.343 0.182h7.771c0.138 0 0.266-0.068 0.343-0.182s0.092-0.258 0.041-0.386l-2.137-5.35h3.234c0.136 0 0.264-0.066 0.341-0.179s0.095-0.255 0.047-0.382l-1.808-4.777zM1.633 19.913l4.574-12.090 4.574 12.090h-9.148zM9.287 31.17h-6.546l2.033-5.089h2.479l2.033 5.089zM7.816 25.252h-6.183l1.706-4.509h5.736l1.706 4.509h-2.965z"></path>
<path fill="#000" d="M4.629 23.811c-0.045-0.451-0.456-1.291-0.614-1.601-0.026-0.051-0.097-0.051-0.124 0-0.159 0.309-0.571 1.148-0.614 1.604-0.001 0.003-0.001 0.007-0.001 0.009-0.002 0.023-0.003 0.044-0.003 0.066 0 0.376 0.305 0.68 0.681 0.68s0.681-0.304 0.681-0.68c0-0.020-0.001-0.041-0.003-0.063-0.001-0.005-0.001-0.009-0.002-0.014z"></path>
<path fill="#000" d="M6.489 23.811c-0.045-0.451-0.456-1.291-0.614-1.601-0.026-0.051-0.098-0.051-0.124 0-0.159 0.309-0.571 1.148-0.614 1.604-0.001 0.003-0.001 0.007-0.001 0.009-0.003 0.023-0.004 0.044-0.004 0.066 0 0.233 0.117 0.438 0.296 0.56 0.11 0.075 0.242 0.12 0.385 0.12 0.305 0 0.56-0.201 0.647-0.476 0.020-0.064 0.034-0.132 0.034-0.203 0-0.020-0.002-0.041-0.003-0.063-0.001-0.005-0.001-0.009-0.002-0.014z"></path>
</svg>
