<?xml version="1.0" encoding="utf-8"?>
<!-- Generated by IcoMoon.io -->
<!DOCTYPE svg PUBLIC "-//W3C//DTD SVG 1.1//EN" "http://www.w3.org/Graphics/SVG/1.1/DTD/svg11.dtd">
<svg version="1.1" xmlns="http://www.w3.org/2000/svg" xmlns:xlink="http://www.w3.org/1999/xlink" width="12" height="32" viewBox="0 0 12 32">
<path fill="#000" d="M4.631 18.486c-0.001-0.005-0.001-0.009-0.002-0.014-0.016-0.16-0.079-0.369-0.159-0.586-0.146-0.394-0.353-0.816-0.455-1.016-0.026-0.051-0.097-0.051-0.124 0-0.159 0.309-0.571 1.148-0.614 1.604-0.001 0.003-0.001 0.007-0.001 0.009-0.002 0.023-0.003 0.045-0.003 0.066 0 0.369 0.295 0.668 0.663 0.678 0.006 0 0.012 0.002 0.018 0.002 0.376 0 0.681-0.304 0.681-0.68-0-0.020-0.002-0.041-0.003-0.063z"></path>
<path fill="#000" d="M6.087 23.484c0.376 0 0.681-0.304 0.681-0.68 0-0.020-0.002-0.041-0.004-0.063 0-0.005-0.001-0.009-0.001-0.014-0.045-0.451-0.456-1.291-0.615-1.601-0.026-0.051-0.098-0.051-0.124 0-0.16 0.309-0.57 1.148-0.615 1.604 0 0.003-0.001 0.007-0.001 0.009-0.002 0.023-0.003 0.044-0.003 0.066 0 0.376 0.305 0.68 0.681 0.68z"></path>
<path fill="#000" d="M9.332 24.997h0.68c0.138 0 0.266-0.068 0.343-0.182s0.092-0.258 0.041-0.386l-1.473-3.686h2.457c0.136 0 0.264-0.066 0.341-0.179s0.095-0.255 0.047-0.382l-5.174-13.676c-0.061-0.162-0.216-0.268-0.388-0.268s-0.327 0.107-0.388 0.268l-5.174 13.677c-0.048 0.127-0.031 0.27 0.047 0.382s0.205 0.179 0.341 0.179h2.296l-1.473 3.686c-0.051 0.128-0.036 0.273 0.041 0.386s0.206 0.182 0.343 0.182h0.84l-2.437 6.441c-0.048 0.127-0.031 0.27 0.047 0.382s0.205 0.179 0.341 0.179h10.348c0.136 0 0.264-0.066 0.341-0.179s0.095-0.255 0.047-0.382l-2.436-6.441zM1.633 19.913l4.574-12.090 4.574 12.090h-9.148zM2.853 24.168l1.368-3.426h3.809l1.368 3.426h-6.546zM1.633 31.171l2.335-6.173h4.477l2.335 6.173h-9.148z"></path>
<path fill="#000" d="M5.812 19.229c0.142 0 0.274-0.044 0.383-0.118 0.006-0.005 0.011-0.010 0.017-0.014 0.169-0.124 0.281-0.322 0.281-0.548 0-0.020-0.002-0.041-0.003-0.063-0.001-0.005-0.001-0.009-0.002-0.014-0.026-0.256-0.169-0.634-0.317-0.973-0.113-0.259-0.229-0.494-0.298-0.629-0.020-0.041-0.067-0.040-0.099-0.015-0.008 0.006-0.019 0.005-0.025 0.015-0.155 0.302-0.55 1.108-0.608 1.57-0.001 0.010-0.005 0.024-0.006 0.034-0.001 0.003-0.001 0.007-0.001 0.009-0.003 0.023-0.004 0.044-0.004 0.066 0 0.19 0.079 0.362 0.206 0.486 0.123 0.12 0.29 0.194 0.475 0.194z"></path>
<path fill="#000" d="M4.629 29.729c-0.045-0.451-0.456-1.291-0.614-1.601-0.026-0.051-0.097-0.051-0.124 0-0.159 0.309-0.571 1.148-0.614 1.604-0.001 0.003-0.001 0.007-0.001 0.009-0.002 0.023-0.003 0.044-0.003 0.066 0 0.376 0.305 0.68 0.681 0.68s0.681-0.304 0.681-0.68c0-0.020-0.001-0.041-0.003-0.063-0.001-0.005-0.001-0.009-0.002-0.014z"></path>
<path fill="#000" d="M6.489 29.729c-0.045-0.451-0.456-1.291-0.614-1.601-0.026-0.051-0.098-0.051-0.124 0-0.159 0.309-0.571 1.148-0.614 1.604-0.001 0.003-0.001 0.007-0.001 0.009-0.003 0.023-0.004 0.044-0.004 0.066 0 0.376 0.305 0.68 0.681 0.68s0.681-0.304 0.681-0.68c0-0.020-0.002-0.041-0.003-0.063-0.001-0.005-0.001-0.009-0.002-0.014z"></path>
</svg>
