<?xml version="1.0" encoding="utf-8"?>
<!-- Generated by IcoMoon.io -->
<!DOCTYPE svg PUBLIC "-//W3C//DTD SVG 1.1//EN" "http://www.w3.org/Graphics/SVG/1.1/DTD/svg11.dtd">
<svg version="1.1" xmlns="http://www.w3.org/2000/svg" xmlns:xlink="http://www.w3.org/1999/xlink" width="12" height="32" viewBox="0 0 12 32">
<path fill="#000" d="M3.954 30.486c0.376 0 0.681-0.304 0.681-0.68 0-0.020-0.001-0.041-0.003-0.063-0.001-0.005-0.001-0.009-0.002-0.014-0.045-0.451-0.456-1.291-0.614-1.601-0.026-0.051-0.097-0.051-0.124 0-0.159 0.309-0.571 1.148-0.614 1.604-0.001 0.003-0.001 0.007-0.001 0.009-0.002 0.023-0.003 0.044-0.003 0.066-0 0.376 0.304 0.68 0.68 0.68z"></path>
<path fill="#000" d="M5.813 30.486c0.376 0 0.681-0.304 0.681-0.68 0-0.020-0.002-0.041-0.003-0.063-0.001-0.005-0.001-0.009-0.002-0.014-0.045-0.451-0.456-1.291-0.614-1.601-0.026-0.051-0.098-0.051-0.124 0-0.159 0.309-0.571 1.148-0.614 1.604-0.001 0.003-0.001 0.007-0.001 0.009-0.003 0.023-0.004 0.044-0.004 0.066-0 0.376 0.305 0.68 0.681 0.68z"></path>
<path fill="#000" d="M5.814 21.465c0.376 0 0.681-0.304 0.681-0.68 0-0.020-0.002-0.041-0.003-0.063-0.001-0.005-0.001-0.009-0.002-0.014-0.045-0.451-0.456-1.291-0.614-1.601-0.026-0.051-0.098-0.051-0.124 0-0.159 0.309-0.571 1.148-0.614 1.604-0.001 0.003-0.001 0.007-0.001 0.009-0.003 0.023-0.004 0.044-0.004 0.066-0 0.376 0.305 0.68 0.681 0.68z"></path>
<path fill="#000" d="M11.382 27.49c0.136 0 0.264-0.066 0.341-0.179s0.095-0.255 0.047-0.382l-1.494-3.949h1.106c0.136 0 0.264-0.066 0.341-0.179s0.095-0.255 0.047-0.382l-5.173-13.677c-0.061-0.162-0.216-0.268-0.388-0.268s-0.327 0.107-0.388 0.268l-5.174 13.677c-0.048 0.127-0.031 0.27 0.047 0.382s0.205 0.179 0.341 0.179h1.106l-1.494 3.949c-0.048 0.127-0.031 0.27 0.047 0.382s0.205 0.179 0.341 0.179h1.106l-1.494 3.949c-0.048 0.127-0.031 0.27 0.047 0.382s0.205 0.179 0.341 0.179h10.348c0.136 0 0.264-0.066 0.341-0.179s0.095-0.255 0.047-0.382l-1.494-3.949 1.107-0zM1.634 22.15l4.574-12.090 4.574 12.090h-9.148zM10.782 31.171h-9.148l1.393-3.681h6.363l1.393 3.681zM9.962 26.66h-8.328l1.393-3.681h6.362l1.393 3.681h-0.82z"></path>
<path fill="#000" d="M3.631 21.381v0c0.097 0.052 0.206 0.085 0.323 0.085 0.376 0 0.681-0.304 0.681-0.68 0-0.020-0.001-0.041-0.003-0.063-0.001-0.005-0.001-0.009-0.002-0.014-0.027-0.274-0.19-0.691-0.349-1.046-0.102-0.229-0.203-0.433-0.265-0.555-0.026-0.051-0.097-0.051-0.124 0-0.159 0.309-0.571 1.148-0.614 1.604-0.001 0.003-0.001 0.007-0.001 0.009-0.002 0.023-0.003 0.044-0.003 0.066 0 0.258 0.146 0.48 0.358 0.596z"></path>
<path fill="#000" d="M4.631 25.218c-0.007-0.065-0.022-0.139-0.042-0.218-0.004-0.017-0.010-0.034-0.014-0.051-0.018-0.065-0.039-0.132-0.062-0.202-0.006-0.018-0.013-0.036-0.019-0.054-0.027-0.077-0.056-0.154-0.088-0.231-0.003-0.009-0.007-0.017-0.010-0.025-0.035-0.086-0.072-0.172-0.109-0.254-0.001-0.004-0.003-0.007-0.005-0.010-0.029-0.065-0.058-0.127-0.085-0.186-0.013-0.027-0.024-0.051-0.037-0.078-0.015-0.032-0.030-0.062-0.044-0.091-0.016-0.032-0.030-0.062-0.044-0.090-0.003-0.005-0.005-0.009-0.007-0.014-0.017-0.034-0.034-0.070-0.048-0.096s-0.037-0.038-0.062-0.038-0.049 0.012-0.062 0.038c-0.159 0.309-0.571 1.148-0.614 1.604-0.001 0.003-0.001 0.007-0.001 0.009-0.003 0.023-0.004 0.045-0.004 0.066 0 0.004 0.001 0.007 0.001 0.010 0.001 0.054 0.009 0.106 0.022 0.156 0.004 0.015 0.009 0.029 0.014 0.044 0.014 0.043 0.032 0.085 0.055 0.125 0.004 0.007 0.007 0.015 0.012 0.022 0.062 0.099 0.148 0.18 0.25 0.236 0.002 0.001 0.003 0.003 0.005 0.003s0.004 0.001 0.006 0.003c0.042 0.022 0.087 0.040 0.134 0.054 0.007 0.002 0.013 0.005 0.020 0.006 0.052 0.013 0.105 0.022 0.161 0.022 0 0 0.001 0 0.001 0v0 0c0.376 0 0.681-0.304 0.681-0.68 0-0.020-0.001-0.041-0.003-0.063-0.001-0.005-0.001-0.010-0.002-0.015z"></path>
<path fill="#000" d="M6.49 25.218c-0.045-0.451-0.456-1.291-0.614-1.601-0.013-0.026-0.037-0.038-0.062-0.038s-0.049 0.012-0.062 0.038c-0.159 0.309-0.571 1.148-0.614 1.604-0.001 0.003-0.001 0.007-0.001 0.009-0.003 0.023-0.004 0.044-0.004 0.066 0 0.376 0.305 0.68 0.681 0.68v0 0c0.376 0 0.681-0.304 0.681-0.68 0-0.020-0.002-0.041-0.003-0.063-0.001-0.005-0.001-0.009-0.002-0.014z"></path>
</svg>
