<?xml version="1.0" encoding="utf-8"?>
<!-- Generated by IcoMoon.io -->
<!DOCTYPE svg PUBLIC "-//W3C//DTD SVG 1.1//EN" "http://www.w3.org/Graphics/SVG/1.1/DTD/svg11.dtd">
<svg version="1.1" xmlns="http://www.w3.org/2000/svg" xmlns:xlink="http://www.w3.org/1999/xlink" width="12" height="32" viewBox="0 0 12 32">
<path fill="#000" d="M4.504 20.371c-0.010-0.098-0.039-0.216-0.078-0.343-0.114-0.374-0.322-0.827-0.462-1.111-0.029-0.058-0.055-0.111-0.076-0.152-0.026-0.051-0.098-0.051-0.125 0-0.159 0.31-0.572 1.151-0.616 1.609-0 0.003-0 0.006-0.001 0.009-0.002 0.023-0.003 0.045-0.003 0.065 0 0.147 0.047 0.28 0.125 0.391 0.124 0.176 0.327 0.292 0.558 0.292 0.075 0 0.147-0.015 0.215-0.038 0.271-0.091 0.468-0.343 0.468-0.645 0-0.020-0.001-0.041-0.003-0.063-0.001-0.004-0.001-0.009-0.002-0.014z"></path>
<path fill="#000" d="M8.435 22.617h2.959c0.134 0 0.258-0.066 0.335-0.175s0.093-0.25 0.045-0.375l-5.188-13.714c-0.060-0.158-0.212-0.262-0.381-0.262s-0.32 0.104-0.38 0.262l-5.188 13.714c-0.047 0.125-0.030 0.265 0.046 0.375s0.201 0.175 0.334 0.175h2.959l-3.333 8.811c-0.048 0.127-0.031 0.27 0.047 0.382s0.205 0.179 0.341 0.179h10.349c0.136 0 0.263-0.066 0.341-0.179s0.095-0.255 0.047-0.382l-3.332-8.811zM2.918 21.805h-1.312l4.6-12.16 4.6 12.16h-1.312l-2.906-8.014c-0.058-0.161-0.211-0.268-0.382-0.268s-0.323 0.107-0.381 0.268l-1.459 4.022h0.864l0.976-2.692 2.426 6.684h-5.713zM1.632 31.161l3.232-8.543h2.685l3.232 8.543h-9.148z"></path>
<path fill="#000" d="M5.444 21.083c0.077 0.029 0.159 0.047 0.246 0.047 0.377 0 0.683-0.305 0.683-0.683 0-0.020-0.001-0.041-0.003-0.063-0.001-0.004-0.001-0.009-0.002-0.014-0.025-0.246-0.158-0.607-0.3-0.936-0.119-0.275-0.243-0.528-0.316-0.67-0.026-0.051-0.098-0.051-0.125 0-0.159 0.31-0.572 1.151-0.616 1.609-0 0.003-0 0.006-0.001 0.009-0.002 0.023-0.003 0.044-0.003 0.065 0.001 0.29 0.182 0.537 0.437 0.635z"></path>
<path fill="#000" d="M4.628 29.719c-0.045-0.451-0.456-1.291-0.614-1.601-0.026-0.051-0.097-0.051-0.124 0-0.159 0.309-0.571 1.148-0.614 1.604-0.001 0.003-0.001 0.007-0.001 0.009-0.002 0.023-0.003 0.044-0.003 0.066 0 0.376 0.305 0.68 0.681 0.68s0.681-0.304 0.681-0.68c0-0.020-0.001-0.041-0.003-0.063-0.001-0.005-0.001-0.009-0.002-0.014z"></path>
<path fill="#000" d="M6.488 29.719c-0.045-0.451-0.456-1.291-0.615-1.601-0.026-0.051-0.098-0.051-0.124 0-0.159 0.309-0.571 1.148-0.614 1.604-0.001 0.003-0.001 0.007-0.001 0.009-0.003 0.023-0.004 0.044-0.004 0.066 0 0.376 0.305 0.68 0.681 0.68s0.682-0.304 0.682-0.68c0-0.020-0.002-0.041-0.003-0.063-0.001-0.005-0.001-0.009-0.002-0.014z"></path>
</svg>
