<?xml version="1.0" encoding="utf-8"?>
<!-- Generated by IcoMoon.io -->
<!DOCTYPE svg PUBLIC "-//W3C//DTD SVG 1.1//EN" "http://www.w3.org/Graphics/SVG/1.1/DTD/svg11.dtd">
<svg version="1.1" xmlns="http://www.w3.org/2000/svg" xmlns:xlink="http://www.w3.org/1999/xlink" width="12" height="32" viewBox="0 0 12 32">
<path fill="#000" d="M3.34 26.66l-0.314 0.829h6.363l-0.314-0.829z"></path>
<path fill="#000" d="M1.634 26.66l4.574-12.091 4.574 12.091h-0.82l0.314 0.829h1.106c0.136 0 0.264-0.066 0.341-0.179s0.095-0.255 0.047-0.382l-5.174-13.677c-0.061-0.162-0.216-0.268-0.388-0.268s-0.327 0.107-0.388 0.268l-5.174 13.677c-0.048 0.127-0.031 0.27 0.047 0.382s0.205 0.179 0.341 0.179h1.106l0.314-0.829h-0.82z"></path>
<path fill="#000" d="M3.954 25.976c0.376 0 0.681-0.304 0.681-0.68 0-0.020-0.001-0.041-0.003-0.063-0.001-0.005-0.001-0.009-0.002-0.014-0.027-0.274-0.19-0.691-0.349-1.046l-0.65 1.719c0.096 0.052 0.205 0.084 0.323 0.084z"></path>
<path fill="#000" d="M6.491 25.232c-0.001-0.005-0.001-0.009-0.002-0.014-0.045-0.451-0.456-1.291-0.614-1.601-0.026-0.051-0.098-0.051-0.124 0-0.159 0.309-0.571 1.148-0.614 1.604-0.001 0.003-0.001 0.007-0.001 0.009-0.003 0.023-0.004 0.044-0.004 0.066 0 0.376 0.305 0.68 0.681 0.68s0.681-0.304 0.681-0.68c-0-0.020-0.002-0.041-0.004-0.063z"></path>
<path fill="#000" d="M10.276 27.49h-0.887l1.393 3.681h-9.148l1.393-3.681h-0.887l-1.494 3.949c-0.048 0.127-0.031 0.27 0.047 0.382s0.205 0.179 0.341 0.179h10.348c0.136 0 0.264-0.066 0.341-0.179s0.095-0.255 0.047-0.382l-1.494-3.949z"></path>
<path fill="#000" d="M9.076 26.66l0.314 0.829h0.886l-0.314-0.829z"></path>
<path fill="#000" d="M3.34 26.66h-0.887l-0.314 0.829h0.887z"></path>
<path fill="#000" d="M3.892 23.617c-0.159 0.309-0.571 1.148-0.614 1.604-0.001 0.003-0.001 0.007-0.001 0.009-0.002 0.023-0.003 0.045-0.003 0.066 0 0.258 0.146 0.48 0.358 0.596l0.65-1.719c-0.102-0.229-0.203-0.433-0.265-0.555-0.025-0.051-0.097-0.051-0.124-0z"></path>
<path fill="#000" d="M3.954 30.486c0.376 0 0.681-0.304 0.681-0.68 0-0.020-0.001-0.041-0.003-0.063-0.001-0.005-0.001-0.009-0.002-0.014-0.045-0.451-0.456-1.291-0.614-1.601-0.026-0.051-0.097-0.051-0.124 0-0.159 0.309-0.571 1.148-0.614 1.604-0.001 0.003-0.001 0.007-0.001 0.009-0.002 0.023-0.003 0.044-0.003 0.066-0 0.376 0.304 0.68 0.68 0.68z"></path>
<path fill="#000" d="M5.813 30.486c0.376 0 0.681-0.304 0.681-0.68 0-0.020-0.002-0.041-0.003-0.063-0.001-0.005-0.001-0.009-0.002-0.014-0.045-0.451-0.456-1.291-0.614-1.601-0.026-0.051-0.098-0.051-0.124 0-0.159 0.309-0.571 1.148-0.614 1.604-0.001 0.003-0.001 0.007-0.001 0.009-0.003 0.023-0.004 0.044-0.004 0.066-0 0.376 0.305 0.68 0.681 0.68z"></path>
</svg>
