<?xml version="1.0" encoding="utf-8"?>
<!-- Generated by IcoMoon.io -->
<!DOCTYPE svg PUBLIC "-//W3C//DTD SVG 1.1//EN" "http://www.w3.org/Graphics/SVG/1.1/DTD/svg11.dtd">
<svg version="1.1" xmlns="http://www.w3.org/2000/svg" xmlns:xlink="http://www.w3.org/1999/xlink" width="16" height="32" viewBox="0 0 16 32">
<path fill="#000" d="M5.615 23.339c0.376 0 0.681-0.304 0.681-0.681 0-0.020-0.001-0.041-0.003-0.063-0.001-0.005-0.001-0.009-0.002-0.014-0.035-0.346-0.284-0.919-0.469-1.307-0.056-0.118-0.108-0.221-0.145-0.294-0.026-0.051-0.097-0.051-0.124 0-0.159 0.31-0.571 1.148-0.614 1.604-0.001 0.003-0.001 0.006-0.001 0.009-0.002 0.022-0.003 0.044-0.003 0.065 0 0.151 0.051 0.29 0.134 0.403 0.124 0.168 0.321 0.278 0.546 0.278z"></path>
<path fill="#000" d="M7.474 23.339c0.376 0 0.682-0.304 0.682-0.681 0-0.020-0.002-0.041-0.003-0.063-0.001-0.005-0.001-0.009-0.002-0.014-0.045-0.451-0.457-1.29-0.615-1.601-0.026-0.051-0.098-0.051-0.124 0-0.159 0.31-0.571 1.148-0.614 1.604-0.001 0.003-0.001 0.006-0.001 0.009-0.003 0.022-0.004 0.044-0.004 0.065 0 0.377 0.305 0.681 0.68 0.681z"></path>
<path fill="#000" d="M15.093 31.424l-2.769-6.571h0.718c0.136 0 0.263-0.067 0.341-0.179s0.095-0.255 0.047-0.382l-1.342-3.548h0.954c0.136 0 0.264-0.067 0.341-0.179s0.095-0.255 0.047-0.382l-5.173-13.676c-0.061-0.162-0.216-0.268-0.388-0.268s-0.327 0.107-0.388 0.268l-5.174 13.677c-0.048 0.127-0.031 0.27 0.047 0.382s0.205 0.179 0.341 0.179h0.954l-1.342 3.548c-0.048 0.127-0.031 0.27 0.047 0.382s0.205 0.179 0.341 0.179h0.718l-2.768 6.571c-0.054 0.129-0.040 0.274 0.037 0.39s0.207 0.185 0.345 0.185h13.684c0.139 0 0.268-0.070 0.345-0.185s0.090-0.262 0.037-0.39zM3.295 19.914l4.574-12.091 4.573 12.091h-9.147zM3.295 24.023l1.241-3.28h6.667l1.241 3.28h-9.148zM1.652 31.171l2.662-6.318h7.111l2.662 6.318h-12.434z"></path>
<path fill="#000" d="M4.642 29.728c-0.046-0.451-0.457-1.291-0.615-1.601-0.026-0.051-0.098-0.051-0.124 0-0.159 0.31-0.571 1.148-0.614 1.604-0.001 0.003-0.001 0.007-0.001 0.009-0.002 0.022-0.003 0.044-0.003 0.065 0 0.376 0.304 0.681 0.68 0.681s0.681-0.305 0.681-0.681c0-0.020-0.001-0.041-0.003-0.063-0.001-0.004-0.001-0.009-0.002-0.014z"></path>
<path fill="#000" d="M6.502 29.728c-0.045-0.451-0.456-1.291-0.614-1.601-0.026-0.051-0.097-0.051-0.124 0-0.159 0.31-0.571 1.148-0.614 1.604-0.001 0.003-0.001 0.007-0.001 0.009-0.003 0.022-0.004 0.044-0.004 0.065 0 0.376 0.305 0.681 0.681 0.681s0.681-0.305 0.681-0.681c0-0.020-0.001-0.041-0.003-0.063-0.001-0.004-0.001-0.009-0.002-0.014z"></path>
<path fill="#000" d="M8.361 29.728c-0.045-0.451-0.456-1.291-0.614-1.601-0.026-0.051-0.098-0.051-0.124 0-0.159 0.31-0.57 1.148-0.614 1.604-0 0.003-0 0.007-0.001 0.009-0.002 0.022-0.003 0.044-0.003 0.065 0 0.376 0.305 0.681 0.681 0.681s0.681-0.305 0.681-0.681c0-0.020-0.002-0.041-0.003-0.063-0.001-0.004-0.001-0.009-0.002-0.014z"></path>
<path fill="#000" d="M5.616 19.23c0.062 0 0.122-0.011 0.179-0.027 0.289-0.078 0.502-0.34 0.502-0.654 0-0.020-0.001-0.041-0.003-0.063-0.001-0.005-0.001-0.009-0.002-0.014-0.009-0.086-0.034-0.189-0.065-0.297-0.085-0.297-0.235-0.649-0.367-0.931-0.071-0.152-0.137-0.285-0.182-0.374-0.026-0.051-0.097-0.051-0.124 0-0.159 0.31-0.571 1.148-0.614 1.604-0.001 0.003-0.001 0.006-0.001 0.009-0.002 0.022-0.003 0.044-0.003 0.065 0 0.206 0.093 0.389 0.238 0.513 0.119 0.103 0.273 0.168 0.443 0.168z"></path>
<path fill="#000" d="M7.475 19.23c0.376 0 0.681-0.304 0.681-0.681 0-0.020-0.002-0.041-0.003-0.063-0.001-0.005-0.001-0.009-0.002-0.014-0.039-0.39-0.352-1.072-0.538-1.449-0.029-0.058-0.055-0.11-0.076-0.152-0.026-0.051-0.098-0.051-0.124 0-0.159 0.31-0.571 1.148-0.614 1.604-0.001 0.003-0.001 0.006-0.001 0.009-0.003 0.022-0.004 0.044-0.004 0.065 0 0.098 0.022 0.192 0.059 0.276 0.106 0.238 0.344 0.405 0.622 0.405z"></path>
</svg>
