<?xml version="1.0" encoding="utf-8"?>
<!-- Generated by IcoMoon.io -->
<!DOCTYPE svg PUBLIC "-//W3C//DTD SVG 1.1//EN" "http://www.w3.org/Graphics/SVG/1.1/DTD/svg11.dtd">
<svg version="1.1" xmlns="http://www.w3.org/2000/svg" xmlns:xlink="http://www.w3.org/1999/xlink" width="16" height="32" viewBox="0 0 16 32">
<path fill="#000" d="M13.502 27.653h1.207c0.139 0 0.268-0.070 0.345-0.185s0.091-0.262 0.037-0.39l-2.668-6.333h0.621c0.136 0 0.264-0.067 0.341-0.179s0.095-0.255 0.047-0.382l-5.173-13.678c-0.061-0.162-0.216-0.268-0.388-0.268s-0.327 0.107-0.388 0.268l-5.174 13.677c-0.048 0.127-0.031 0.27 0.047 0.382s0.205 0.179 0.341 0.179h0.615l-2.668 6.333c-0.054 0.128-0.040 0.274 0.037 0.39s0.207 0.185 0.345 0.185h1.207l-1.589 3.772c-0.054 0.129-0.040 0.274 0.037 0.39s0.207 0.185 0.345 0.185h13.684c0.139 0 0.268-0.070 0.345-0.185s0.091-0.262 0.037-0.39l-1.589-3.771zM3.295 19.914l4.574-12.091 4.573 12.091h-9.147zM1.649 26.823l2.561-6.080h7.312l2.561 6.080h-12.434zM1.649 31.171l1.482-3.518h9.47l1.482 3.518h-12.434z"></path>
<path fill="#000" d="M4.639 29.728c-0.046-0.451-0.457-1.291-0.615-1.601-0.026-0.051-0.098-0.051-0.124 0-0.159 0.31-0.571 1.148-0.614 1.604-0.001 0.003-0.001 0.007-0.001 0.009-0.002 0.022-0.003 0.044-0.003 0.065 0 0.376 0.304 0.681 0.68 0.681s0.681-0.305 0.681-0.681c0-0.020-0.001-0.041-0.003-0.063-0.001-0.004-0.001-0.009-0.002-0.014z"></path>
<path fill="#000" d="M6.499 29.728c-0.045-0.451-0.456-1.291-0.614-1.601-0.026-0.051-0.097-0.051-0.124 0-0.159 0.31-0.571 1.148-0.614 1.604-0.001 0.003-0.001 0.007-0.001 0.009-0.003 0.022-0.004 0.044-0.004 0.065 0 0.376 0.305 0.681 0.681 0.681s0.681-0.305 0.681-0.681c0-0.020-0.001-0.041-0.003-0.063-0.001-0.004-0.001-0.009-0.002-0.014z"></path>
<path fill="#000" d="M8.358 29.728c-0.045-0.451-0.456-1.291-0.614-1.601-0.026-0.051-0.098-0.051-0.124 0-0.159 0.31-0.57 1.148-0.614 1.604-0 0.003-0 0.007-0.001 0.009-0.002 0.022-0.003 0.044-0.003 0.065 0 0.376 0.305 0.681 0.681 0.681s0.681-0.305 0.681-0.681c0-0.020-0.002-0.041-0.003-0.063-0.001-0.004-0.001-0.009-0.002-0.014z"></path>
<path fill="#000" d="M3.963 26.139c0.377 0 0.681-0.305 0.681-0.681 0-0.020-0.001-0.041-0.003-0.063-0-0.004-0.001-0.009-0.001-0.014-0.021-0.203-0.117-0.486-0.229-0.764-0.137-0.337-0.299-0.667-0.386-0.838-0.026-0.050-0.098-0.050-0.124 0-0.159 0.31-0.571 1.148-0.614 1.604-0.001 0.003-0.001 0.007-0.001 0.010-0.002 0.022-0.003 0.044-0.003 0.065 0 0.312 0.211 0.573 0.498 0.653 0.058 0.017 0.118 0.029 0.182 0.029z"></path>
<path fill="#000" d="M5.822 26.139c0.376 0 0.681-0.305 0.681-0.681 0-0.020-0.001-0.041-0.003-0.063-0.001-0.004-0.001-0.009-0.002-0.014-0.045-0.45-0.456-1.291-0.614-1.601-0.026-0.050-0.097-0.050-0.124 0-0.159 0.31-0.571 1.148-0.614 1.604-0.001 0.003-0.001 0.007-0.001 0.010-0.003 0.022-0.004 0.044-0.004 0.065-0 0.376 0.305 0.681 0.68 0.681z"></path>
<path fill="#000" d="M7.682 26.139c0.376 0 0.681-0.305 0.681-0.681 0-0.020-0.002-0.041-0.003-0.063-0.001-0.004-0.001-0.009-0.002-0.014-0.045-0.45-0.456-1.291-0.614-1.601-0.026-0.050-0.098-0.050-0.124 0-0.159 0.31-0.57 1.148-0.614 1.604-0 0.003-0 0.007-0.001 0.010-0.002 0.022-0.003 0.044-0.003 0.065 0 0.376 0.305 0.681 0.68 0.681z"></path>
<path fill="#000" d="M5.616 19.23c0.061 0 0.119-0.010 0.175-0.026 0.291-0.078 0.506-0.34 0.506-0.655 0-0.020-0.001-0.041-0.003-0.063-0.001-0.005-0.001-0.009-0.002-0.014-0.009-0.087-0.034-0.192-0.066-0.301-0.107-0.371-0.315-0.826-0.459-1.121-0.034-0.069-0.065-0.131-0.089-0.179-0.026-0.051-0.097-0.051-0.124 0-0.159 0.31-0.571 1.148-0.614 1.604-0.001 0.003-0.001 0.006-0.001 0.009-0.002 0.022-0.003 0.044-0.003 0.065 0 0.109 0.028 0.21 0.073 0.302 0.112 0.224 0.34 0.379 0.607 0.379z"></path>
<path fill="#000" d="M7.475 19.23c0.376 0 0.681-0.304 0.681-0.681 0-0.020-0.002-0.041-0.003-0.063-0.001-0.005-0.001-0.009-0.002-0.014-0.039-0.391-0.354-1.076-0.54-1.453-0.028-0.057-0.053-0.108-0.074-0.148-0.026-0.051-0.098-0.051-0.124 0-0.159 0.31-0.571 1.148-0.614 1.604-0.001 0.003-0.001 0.006-0.001 0.009-0.003 0.022-0.004 0.044-0.004 0.065 0 0.097 0.021 0.189 0.058 0.272 0.105 0.241 0.344 0.408 0.623 0.408z"></path>
</svg>
