<?xml version="1.0" encoding="utf-8"?>
<!-- Generated by IcoMoon.io -->
<!DOCTYPE svg PUBLIC "-//W3C//DTD SVG 1.1//EN" "http://www.w3.org/Graphics/SVG/1.1/DTD/svg11.dtd">
<svg version="1.1" xmlns="http://www.w3.org/2000/svg" xmlns:xlink="http://www.w3.org/1999/xlink" width="16" height="32" viewBox="0 0 16 32">
<path fill="#000" d="M15.093 27.077l-2.669-6.333h0.618c0.136 0 0.264-0.067 0.341-0.179s0.095-0.255 0.047-0.382l-5.173-13.677c-0.061-0.162-0.216-0.268-0.388-0.268s-0.327 0.107-0.388 0.268l-5.174 13.677c-0.048 0.127-0.031 0.27 0.047 0.382s0.205 0.179 0.341 0.179h0.618l-2.668 6.333c-0.054 0.129-0.040 0.274 0.037 0.39s0.207 0.185 0.345 0.185h2.708l-1.431 3.782c-0.048 0.127-0.031 0.27 0.047 0.382s0.205 0.179 0.341 0.179h10.348c0.136 0 0.264-0.067 0.341-0.179s0.095-0.255 0.047-0.382l-1.431-3.782h2.714c0.139 0 0.268-0.070 0.345-0.185s0.091-0.262 0.037-0.39zM3.295 19.914l4.574-12.091 4.573 12.091h-9.147zM12.44 31.166h-9.148l1.329-3.514h6.488l1.33 3.514zM11.683 26.823h-10.031l2.561-6.080h7.311l2.562 6.080h-2.403z"></path>
<path fill="#000" d="M6.502 25.381c-0.037-0.367-0.313-0.986-0.501-1.373-0.043-0.090-0.084-0.17-0.113-0.229-0.026-0.050-0.097-0.050-0.124 0-0.159 0.31-0.571 1.149-0.614 1.604-0.001 0.003-0.001 0.007-0.001 0.009-0.003 0.023-0.004 0.044-0.004 0.065 0 0.16 0.057 0.304 0.148 0.42 0.125 0.158 0.316 0.261 0.532 0.261 0.376 0 0.681-0.304 0.681-0.681 0-0.020-0.001-0.041-0.003-0.062-0.001-0.005-0.001-0.009-0.002-0.013z"></path>
<path fill="#000" d="M8.361 25.381c-0.045-0.451-0.456-1.291-0.614-1.602-0.026-0.050-0.098-0.050-0.124 0-0.159 0.31-0.57 1.149-0.614 1.604-0 0.003-0 0.007-0.001 0.009-0.002 0.023-0.003 0.044-0.003 0.065 0 0.377 0.305 0.681 0.681 0.681s0.681-0.304 0.681-0.681c0-0.020-0.002-0.041-0.003-0.062-0.001-0.005-0.001-0.010-0.002-0.014z"></path>
<path fill="#000" d="M4.642 25.381c-0.003-0.026-0.010-0.058-0.015-0.087-0.081-0.465-0.45-1.222-0.599-1.515-0.026-0.050-0.098-0.050-0.124 0-0.159 0.31-0.571 1.149-0.614 1.604-0.001 0.003-0.001 0.007-0.001 0.009-0.002 0.023-0.003 0.044-0.003 0.065 0 0.377 0.304 0.681 0.68 0.681 0.145 0 0.278-0.045 0.388-0.122 0.177-0.123 0.293-0.327 0.293-0.559 0-0.020-0.001-0.041-0.003-0.062-0.001-0.005-0.001-0.010-0.002-0.014z"></path>
<path fill="#000" d="M5.612 30.482c0.376 0 0.681-0.304 0.681-0.681 0-0.020-0.001-0.041-0.003-0.063-0.001-0.005-0.001-0.009-0.002-0.014-0.045-0.451-0.456-1.29-0.614-1.601-0.026-0.051-0.097-0.051-0.124 0-0.159 0.31-0.571 1.148-0.614 1.604-0.001 0.003-0.001 0.006-0.001 0.009-0.002 0.022-0.003 0.044-0.003 0.065 0 0.376 0.305 0.681 0.68 0.681z"></path>
<path fill="#000" d="M7.472 30.482c0.376 0 0.681-0.304 0.681-0.681 0-0.020-0.002-0.041-0.003-0.063-0.001-0.005-0.001-0.009-0.002-0.014-0.045-0.451-0.456-1.29-0.614-1.601-0.026-0.051-0.098-0.051-0.124 0-0.159 0.31-0.571 1.148-0.614 1.604-0.001 0.003-0.001 0.006-0.001 0.009-0.003 0.022-0.004 0.044-0.004 0.065-0 0.376 0.304 0.681 0.68 0.681z"></path>
<path fill="#000" d="M5.616 19.23c0.376 0 0.681-0.304 0.681-0.681 0-0.020-0.001-0.041-0.003-0.063-0.001-0.005-0.001-0.009-0.002-0.014-0.038-0.381-0.336-1.036-0.524-1.419-0.034-0.070-0.066-0.134-0.091-0.182-0.026-0.051-0.097-0.051-0.124 0-0.159 0.31-0.571 1.148-0.614 1.604-0.001 0.003-0.001 0.006-0.001 0.009-0.002 0.022-0.003 0.044-0.003 0.065 0 0.11 0.029 0.213 0.075 0.304 0.112 0.223 0.34 0.377 0.606 0.377z"></path>
<path fill="#000" d="M7.475 19.23c0.139 0 0.268-0.042 0.376-0.113 0.008-0.006 0.016-0.012 0.024-0.018 0.17-0.124 0.282-0.323 0.282-0.549 0-0.020-0.002-0.041-0.003-0.063-0.001-0.005-0.001-0.009-0.002-0.014-0.026-0.257-0.17-0.638-0.319-0.977-0.112-0.257-0.227-0.49-0.295-0.624-0.026-0.051-0.098-0.051-0.124 0-0.159 0.31-0.571 1.148-0.614 1.604-0.001 0.003-0.001 0.006-0.001 0.009-0.003 0.022-0.004 0.044-0.004 0.065 0 0.189 0.078 0.36 0.202 0.483 0.124 0.122 0.293 0.197 0.479 0.197z"></path>
</svg>
