<?xml version="1.0" encoding="utf-8"?>
<!-- Generated by IcoMoon.io -->
<!DOCTYPE svg PUBLIC "-//W3C//DTD SVG 1.1//EN" "http://www.w3.org/Graphics/SVG/1.1/DTD/svg11.dtd">
<svg version="1.1" xmlns="http://www.w3.org/2000/svg" xmlns:xlink="http://www.w3.org/1999/xlink" width="12" height="32" viewBox="0 0 12 32">
<path fill="#000" d="M11.769 20.181l-5.174-13.677c-0.061-0.162-0.216-0.268-0.388-0.268s-0.327 0.107-0.388 0.268l-5.174 13.677c-0.048 0.127-0.031 0.27 0.047 0.382s0.205 0.179 0.341 0.179h2.857l-1.952 4.888c-0.051 0.128-0.036 0.273 0.041 0.386s0.206 0.182 0.343 0.182h1.705l-2.090 5.232c-0.051 0.128-0.036 0.273 0.041 0.386s0.206 0.182 0.343 0.182h7.771c0.138 0 0.266-0.068 0.343-0.182s0.092-0.258 0.041-0.386l-2.090-5.232h1.706c0.138 0 0.266-0.068 0.343-0.182s0.092-0.258 0.041-0.386l-1.953-4.888h2.857c0.136 0 0.264-0.066 0.341-0.179s0.095-0.255 0.047-0.382zM9.48 31.171h-6.546l1.986-4.971h2.574l1.986 4.971zM9.48 25.37h-6.546l1.849-4.627h2.849l1.848 4.627zM8.192 19.913h-6.56l4.574-12.090 4.574 12.090h-2.588z"></path>
<path fill="#000" d="M4.629 18.472c-0.045-0.451-0.456-1.291-0.614-1.601-0.026-0.051-0.097-0.051-0.124 0-0.159 0.309-0.571 1.148-0.614 1.604-0.001 0.003-0.001 0.007-0.001 0.009-0.002 0.023-0.004 0.045-0.004 0.066 0 0.376 0.305 0.68 0.681 0.68s0.681-0.304 0.681-0.68c0-0.020-0.001-0.041-0.003-0.063-0.001-0.005-0.001-0.009-0.002-0.014z"></path>
<path fill="#000" d="M5.874 16.871c-0.026-0.051-0.098-0.051-0.124 0-0.159 0.309-0.571 1.148-0.614 1.604-0.001 0.003-0.001 0.007-0.001 0.009-0.003 0.023-0.004 0.044-0.004 0.066 0 0.235 0.12 0.442 0.302 0.564 0.109 0.073 0.239 0.115 0.379 0.115 0.376 0 0.681-0.304 0.681-0.68 0-0.020-0.002-0.041-0.003-0.063-0.001-0.005-0.001-0.009-0.002-0.014-0.029-0.284-0.202-0.722-0.366-1.084-0.097-0.214-0.19-0.401-0.249-0.516z"></path>
<path fill="#000" d="M6.167 24.685c0.251 0 0.468-0.137 0.586-0.339 0.059-0.1 0.095-0.216 0.095-0.341 0-0.020-0.002-0.041-0.004-0.063 0-0.005-0.001-0.009-0.001-0.014-0.045-0.451-0.456-1.291-0.615-1.601-0.026-0.051-0.098-0.051-0.124 0-0.16 0.309-0.57 1.148-0.615 1.604 0 0.003-0.001 0.007-0.001 0.009-0.002 0.023-0.003 0.044-0.003 0.066 0 0.157 0.055 0.3 0.145 0.415 0.124 0.16 0.317 0.265 0.537 0.265z"></path>
<path fill="#000" d="M6.167 30.486c0.376 0 0.681-0.304 0.681-0.68 0-0.020-0.002-0.041-0.004-0.063 0-0.005-0.001-0.009-0.001-0.014-0.045-0.451-0.456-1.291-0.615-1.601-0.026-0.051-0.098-0.051-0.124 0-0.16 0.309-0.57 1.148-0.615 1.604 0 0.003-0.001 0.007-0.001 0.009-0.002 0.023-0.003 0.044-0.003 0.066 0 0.376 0.304 0.68 0.681 0.68z"></path>
</svg>
