<?xml version="1.0" encoding="utf-8"?>
<!-- Generated by IcoMoon.io -->
<!DOCTYPE svg PUBLIC "-//W3C//DTD SVG 1.1//EN" "http://www.w3.org/Graphics/SVG/1.1/DTD/svg11.dtd">
<svg version="1.1" xmlns="http://www.w3.org/2000/svg" xmlns:xlink="http://www.w3.org/1999/xlink" width="16" height="32" viewBox="0 0 16 32">
<path fill="#000" d="M7.354 19.277c0.378 0 0.683-0.306 0.683-0.683 0-0.020-0.002-0.041-0.003-0.063-0.001-0.004-0.001-0.009-0.002-0.014-0.036-0.355-0.296-0.948-0.484-1.338-0.051-0.107-0.098-0.201-0.132-0.268-0.026-0.051-0.098-0.051-0.125 0-0.159 0.31-0.572 1.15-0.616 1.609-0 0.003-0 0.006-0.001 0.009-0.002 0.023-0.003 0.044-0.003 0.065 0 0.143 0.044 0.274 0.119 0.385 0.124 0.18 0.33 0.298 0.564 0.298z"></path>
<path fill="#000" d="M15.093 31.428l-4.493-10.665h2.457c0.134 0 0.259-0.066 0.335-0.176s0.093-0.25 0.045-0.374l-5.188-13.715c-0.060-0.158-0.211-0.263-0.38-0.263s-0.32 0.104-0.38 0.263l-5.188 13.715c-0.047 0.125-0.030 0.264 0.046 0.374s0.201 0.176 0.334 0.176h2.457l-4.493 10.665c-0.054 0.129-0.040 0.274 0.037 0.39s0.207 0.185 0.345 0.185h13.684c0.139 0 0.268-0.070 0.345-0.185s0.090-0.261 0.037-0.39zM4.581 19.95h-1.312l4.6-12.159 4.6 12.159h-1.312l-2.906-8.013c-0.058-0.161-0.211-0.268-0.381-0.268s-0.324 0.107-0.381 0.268l-1.459 4.021h0.864l0.976-2.692 2.425 6.683h-5.713zM1.652 31.175l4.387-10.411h3.662l4.386 10.411h-12.435z"></path>
<path fill="#000" d="M6.168 18.517c-0.004-0.043-0.014-0.090-0.024-0.139-0.014-0.065-0.032-0.133-0.053-0.204-0.114-0.375-0.322-0.827-0.462-1.111-0.029-0.059-0.055-0.111-0.076-0.152-0.026-0.051-0.098-0.051-0.125 0-0.159 0.31-0.572 1.15-0.616 1.609-0 0.003-0 0.006-0.001 0.009-0.002 0.023-0.003 0.044-0.003 0.065 0 0.146 0.047 0.28 0.125 0.391 0.124 0.176 0.327 0.292 0.558 0.292 0.075 0 0.147-0.015 0.215-0.038 0.035-0.012 0.066-0.034 0.098-0.051 0.217-0.114 0.37-0.332 0.37-0.594 0-0.020-0.001-0.041-0.003-0.063-0.001-0.003-0.001-0.008-0.002-0.013z"></path>
<path fill="#000" d="M4.642 29.733c-0.046-0.451-0.457-1.291-0.615-1.602-0.026-0.050-0.098-0.050-0.124 0-0.159 0.31-0.571 1.149-0.614 1.604-0.001 0.003-0.001 0.007-0.001 0.009-0.002 0.023-0.003 0.044-0.003 0.065 0 0.377 0.304 0.681 0.68 0.681s0.681-0.304 0.681-0.681c0-0.020-0.001-0.041-0.003-0.062-0.001-0.005-0.001-0.010-0.002-0.014z"></path>
<path fill="#000" d="M5.887 28.131c-0.026-0.050-0.097-0.050-0.124 0-0.159 0.31-0.571 1.149-0.614 1.604-0.001 0.003-0.001 0.007-0.001 0.009-0.003 0.023-0.004 0.044-0.004 0.065 0 0.377 0.305 0.681 0.681 0.681s0.681-0.304 0.681-0.681c0-0.020-0.001-0.041-0.003-0.062-0.001-0.005-0.001-0.010-0.002-0.014-0.046-0.451-0.456-1.291-0.615-1.602z"></path>
<path fill="#000" d="M7.685 30.49c0.376 0 0.681-0.304 0.681-0.681 0-0.020-0.002-0.041-0.003-0.062-0.001-0.005-0.001-0.010-0.002-0.014-0.045-0.451-0.456-1.291-0.614-1.602-0.026-0.050-0.098-0.050-0.124 0-0.159 0.31-0.57 1.149-0.614 1.604-0 0.003-0 0.007-0.001 0.009-0.002 0.023-0.003 0.044-0.003 0.065 0 0.377 0.305 0.681 0.68 0.681z"></path>
</svg>
