<?xml version="1.0" encoding="utf-8"?>
<!-- Generated by IcoMoon.io -->
<!DOCTYPE svg PUBLIC "-//W3C//DTD SVG 1.1//EN" "http://www.w3.org/Graphics/SVG/1.1/DTD/svg11.dtd">
<svg version="1.1" xmlns="http://www.w3.org/2000/svg" xmlns:xlink="http://www.w3.org/1999/xlink" width="12" height="32" viewBox="0 0 12 32">
<path fill="#000" d="M11.777 31.45l-5.188-13.714c-0.060-0.158-0.211-0.262-0.38-0.262s-0.32 0.105-0.38 0.262l-5.188 13.714c-0.047 0.125-0.030 0.265 0.046 0.374s0.201 0.175 0.334 0.175h10.376c0.134 0 0.259-0.066 0.335-0.175s0.093-0.25 0.045-0.374zM9.497 31.187l-2.906-8.013c-0.058-0.161-0.211-0.268-0.382-0.268s-0.324 0.107-0.381 0.268l-1.459 4.022h0.864l0.976-2.692 2.425 6.683h-7.025l4.6-12.16 4.6 12.16h-1.312z"></path>
<path fill="#000" d="M3.892 28.148c-0.026-0.051-0.098-0.051-0.125 0-0.159 0.31-0.572 1.15-0.616 1.609-0 0.003-0 0.006-0.001 0.009-0.002 0.023-0.003 0.044-0.003 0.065 0 0.146 0.047 0.28 0.125 0.391 0.124 0.176 0.327 0.292 0.558 0.292 0.075 0 0.147-0.015 0.215-0.038 0.271-0.091 0.468-0.343 0.468-0.645 0-0.020-0.001-0.041-0.003-0.063-0-0.004-0.001-0.009-0.001-0.014-0.010-0.098-0.039-0.216-0.078-0.343-0.114-0.374-0.322-0.827-0.462-1.111-0.029-0.058-0.056-0.11-0.077-0.152z"></path>
<path fill="#000" d="M5.694 30.513c0.378 0 0.683-0.306 0.683-0.683 0-0.020-0.001-0.041-0.003-0.063-0.001-0.004-0.001-0.009-0.002-0.014-0.045-0.452-0.457-1.294-0.616-1.605-0.026-0.051-0.098-0.051-0.125 0-0.159 0.31-0.572 1.15-0.616 1.609-0 0.003-0 0.006-0.001 0.009-0.002 0.023-0.003 0.044-0.003 0.065 0 0.377 0.306 0.683 0.683 0.683z"></path>
</svg>
