<?xml version="1.0" encoding="utf-8"?>
<!-- Generated by IcoMoon.io -->
<!DOCTYPE svg PUBLIC "-//W3C//DTD SVG 1.1//EN" "http://www.w3.org/Graphics/SVG/1.1/DTD/svg11.dtd">
<svg version="1.1" xmlns="http://www.w3.org/2000/svg" xmlns:xlink="http://www.w3.org/1999/xlink" width="16" height="32" viewBox="0 0 16 32">
<path fill="#000" d="M15.093 31.424l-4.581-10.873h1.239c0.138 0 0.266-0.068 0.343-0.182s0.093-0.258 0.042-0.386l-1.696-4.245h2.6c0.136 0 0.264-0.067 0.341-0.179s0.095-0.255 0.047-0.382l-5.174-13.677c-0.061-0.162-0.216-0.268-0.388-0.268s-0.327 0.107-0.388 0.268l-5.173 13.677c-0.049 0.127-0.031 0.27 0.047 0.382s0.205 0.179 0.341 0.179h2.6l-1.696 4.245c-0.051 0.128-0.035 0.272 0.042 0.386s0.206 0.182 0.343 0.182h1.245l-4.581 10.873c-0.054 0.129-0.040 0.274 0.037 0.39s0.207 0.185 0.345 0.185h13.684c0.139 0 0.268-0.070 0.345-0.185s0.090-0.261 0.037-0.39zM3.292 14.908l4.574-12.091 4.573 12.091h-9.148zM4.593 19.722l1.592-3.984h3.362l1.592 3.984h-6.545zM1.652 31.171l4.474-10.619h3.486l4.474 10.619h-12.434z"></path>
<path fill="#000" d="M4.642 29.729c-0.046-0.451-0.457-1.291-0.615-1.602-0.026-0.050-0.098-0.050-0.124 0-0.159 0.31-0.571 1.149-0.614 1.604-0.001 0.003-0.001 0.007-0.001 0.009-0.002 0.023-0.003 0.044-0.003 0.065 0 0.377 0.304 0.681 0.68 0.681s0.681-0.304 0.681-0.681c0-0.020-0.001-0.041-0.003-0.062-0.001-0.005-0.001-0.010-0.002-0.014z"></path>
<path fill="#000" d="M6.502 29.729c-0.045-0.451-0.456-1.291-0.614-1.602-0.026-0.050-0.097-0.050-0.124 0-0.159 0.31-0.571 1.149-0.614 1.604-0.001 0.003-0.001 0.007-0.001 0.009-0.003 0.023-0.004 0.044-0.004 0.065 0 0.377 0.305 0.681 0.681 0.681s0.681-0.304 0.681-0.681c0-0.020-0.001-0.041-0.003-0.062-0.001-0.005-0.001-0.010-0.002-0.014z"></path>
<path fill="#000" d="M8.361 29.729c-0.045-0.451-0.456-1.291-0.614-1.602-0.026-0.050-0.098-0.050-0.124 0-0.159 0.31-0.57 1.149-0.614 1.604-0 0.003-0 0.007-0.001 0.009-0.002 0.023-0.003 0.044-0.003 0.065 0 0.377 0.305 0.681 0.681 0.681s0.681-0.304 0.681-0.681c0-0.020-0.002-0.041-0.003-0.062-0.001-0.005-0.001-0.010-0.002-0.014z"></path>
<path fill="#000" d="M7.472 14.224c0.376 0 0.681-0.304 0.681-0.681 0-0.020-0.002-0.041-0.003-0.063-0.001-0.005-0.001-0.009-0.002-0.014-0.037-0.369-0.317-0.993-0.505-1.38-0.042-0.086-0.081-0.165-0.109-0.221-0.026-0.051-0.098-0.051-0.124 0-0.159 0.31-0.571 1.148-0.614 1.604-0.001 0.003-0.001 0.006-0.001 0.009-0.003 0.022-0.004 0.044-0.004 0.065 0 0.142 0.044 0.273 0.118 0.382 0.122 0.18 0.328 0.299 0.563 0.299z"></path>
<path fill="#000" d="M6.289 13.466c-0.005-0.047-0.016-0.101-0.027-0.155-0.103-0.467-0.445-1.168-0.587-1.446-0.026-0.051-0.097-0.051-0.124 0-0.159 0.31-0.571 1.148-0.614 1.604-0.001 0.003-0.001 0.006-0.001 0.009-0.002 0.022-0.003 0.044-0.003 0.065 0 0.376 0.305 0.681 0.681 0.681 0.115 0 0.221-0.031 0.317-0.081 0.216-0.114 0.364-0.338 0.364-0.599 0-0.020-0.001-0.041-0.003-0.063-0.001-0.005-0.001-0.009-0.002-0.014z"></path>
<path fill="#000" d="M7.827 19.037c0.376 0 0.681-0.304 0.681-0.681 0-0.020-0.002-0.041-0.004-0.063 0-0.005-0.001-0.009-0.001-0.014-0.046-0.451-0.457-1.29-0.615-1.601-0.026-0.051-0.098-0.051-0.124 0-0.010 0.021-0.025 0.049-0.037 0.074-0.137 0.271-0.379 0.777-0.503 1.193-0.037 0.123-0.066 0.24-0.075 0.337-0 0.003-0.001 0.006-0.001 0.009-0.002 0.022-0.003 0.044-0.003 0.065-0 0.377 0.304 0.681 0.681 0.681z"></path>
</svg>
