<?xml version="1.0" encoding="utf-8"?>
<!-- Generated by IcoMoon.io -->
<!DOCTYPE svg PUBLIC "-//W3C//DTD SVG 1.1//EN" "http://www.w3.org/Graphics/SVG/1.1/DTD/svg11.dtd">
<svg version="1.1" xmlns="http://www.w3.org/2000/svg" xmlns:xlink="http://www.w3.org/1999/xlink" width="32" height="32" viewBox="0 0 32 32">
<path fill="#000" d="M0.763 28.832v-24.435c0-0.247 0.124-0.478 0.331-0.616s0.467-0.162 0.697-0.067l28.996 12.217c0.274 0.116 0.453 0.385 0.453 0.683s-0.179 0.567-0.453 0.683l-28.996 12.217c-0.23 0.097-0.49 0.073-0.697-0.065s-0.331-0.369-0.331-0.618zM2.244 5.513v22.204l26.348-11.103-26.348-11.101z"></path>
<path fill="#000" d="M4.797 8.436c0.004 0 0.012 0 0.016 0.001 0.814 0.078 2.311 0.813 2.865 1.096 0.090 0.047 0.090 0.176 0 0.221-0.555 0.284-2.055 1.017-2.86 1.097-0.007 0.001-0.016 0.001-0.024 0.003-0.039 0.003-0.077 0.006-0.111 0.006-0.672 0-1.217-0.543-1.217-1.217 0-0.671 0.543-1.215 1.217-1.215 0.036 0.001 0.075 0.002 0.115 0.007z"></path>
<path fill="#000" d="M4.797 11.756c0.004 0 0.012 0 0.016 0.001 0.814 0.078 2.311 0.813 2.865 1.096 0.090 0.047 0.090 0.176 0 0.221-0.555 0.284-2.055 1.017-2.86 1.097-0.007 0.001-0.016 0.001-0.024 0.003-0.039 0.003-0.077 0.006-0.111 0.006-0.672 0-1.217-0.545-1.217-1.216s0.543-1.217 1.217-1.217c0.036 0.001 0.075 0.004 0.115 0.007z"></path>
<path fill="#000" d="M4.797 15.075c0.004 0.001 0.012 0.001 0.016 0.001 0.814 0.079 2.311 0.815 2.865 1.097 0.090 0.047 0.090 0.176 0 0.221-0.555 0.284-2.055 1.017-2.86 1.097-0.007 0.001-0.016 0.001-0.024 0.003-0.039 0.003-0.077 0.006-0.111 0.006-0.672 0-1.217-0.545-1.217-1.217s0.543-1.217 1.217-1.217c0.036 0.001 0.075 0.004 0.115 0.007z"></path>
</svg>
