<?xml version="1.0" encoding="utf-8"?>
<!-- Generated by IcoMoon.io -->
<!DOCTYPE svg PUBLIC "-//W3C//DTD SVG 1.1//EN" "http://www.w3.org/Graphics/SVG/1.1/DTD/svg11.dtd">
<svg version="1.1" xmlns="http://www.w3.org/2000/svg" xmlns:xlink="http://www.w3.org/1999/xlink" width="32" height="32" viewBox="0 0 32 32">
<path fill="#000" d="M6.577 23.551v-13.872c0-0.246 0.121-0.476 0.325-0.613 0.202-0.138 0.461-0.167 0.69-0.076l17.365 6.937c0.282 0.111 0.466 0.385 0.466 0.687 0 0.304-0.184 0.575-0.466 0.689l-17.365 6.936c-0.229 0.091-0.487 0.062-0.69-0.076s-0.325-0.367-0.325-0.612zM8.058 10.773v11.685l14.628-5.843-14.628-5.842z"></path>
<path fill="#000" d="M10.613 15.335c0.004 0 0.010 0 0.016 0.001 0.815 0.078 2.311 0.813 2.863 1.097 0.091 0.047 0.091 0.175 0 0.221-0.554 0.282-2.053 1.015-2.859 1.097-0.009 0-0.016 0.001-0.024 0.001-0.039 0.003-0.077 0.006-0.113 0.006-0.671 0-1.215-0.544-1.215-1.215s0.543-1.217 1.215-1.217c0.037 0.001 0.076 0.002 0.117 0.007z"></path>
</svg>
