<?xml version="1.0" encoding="utf-8"?>
<!-- Generated by IcoMoon.io -->
<!DOCTYPE svg PUBLIC "-//W3C//DTD SVG 1.1//EN" "http://www.w3.org/Graphics/SVG/1.1/DTD/svg11.dtd">
<svg version="1.1" xmlns="http://www.w3.org/2000/svg" xmlns:xlink="http://www.w3.org/1999/xlink" width="32" height="32" viewBox="0 0 32 32">
<path fill="#000" d="M27.001 1.412h-16.757c-1.056 0-2.091 0.43-2.841 1.183l-6.096 6.147c-0.426 0.429-0.692 1.021-0.692 1.675v19.205c0 1.313 1.066 2.378 2.379 2.378h19.058c0.661 0 1.263-0.272 1.693-0.709l6.092-6.14c0.743-0.745 1.17-1.781 1.17-2.837v-16.881c0-2.217-1.797-4.021-4.007-4.021zM9.014 23.194c-0.228 0-0.432-0.142-0.521-0.362-0.087-0.219-0.040-0.473 0.119-0.641l2.363-2.495h-1.961c-0.228 0-0.432-0.142-0.521-0.361-0.087-0.219-0.040-0.473 0.119-0.641l3.824-4.027c0.107-0.112 0.251-0.174 0.4-0.174h3.266c0.227 0 0.432 0.142 0.519 0.362 0.087 0.217 0.040 0.471-0.119 0.64l-3.071 3.235h1.231c0.226 0 0.43 0.142 0.521 0.361 0.086 0.219 0.040 0.473-0.12 0.641l-2.163 2.284h1.025c0.245 0 0.462 0.167 0.537 0.41s-0.011 0.508-0.209 0.656l-6.273 4.674c-0.101 0.075-0.215 0.109-0.329 0.109-0.157 0-0.309-0.067-0.42-0.197-0.104-0.122-0.141-0.272-0.131-0.424 0.005-0.13 0.042-0.258 0.131-0.362l3.185-3.687h-1.403zM21.546 28.973v-18.039h-17.101c-0.507 0-0.917-0.41-0.917-0.917s0.41-0.917 0.917-0.917h17.634l5.091-5.133c0.357-0.359 0.939-0.362 1.297-0.005 0.361 0.357 0.363 0.937 0.005 1.297l-5.093 5.137v18.579c0 0.504-0.411 0.916-0.917 0.916-0.507-0.001-0.916-0.413-0.916-0.917z"></path>
</svg>
