<?xml version="1.0" encoding="utf-8"?>
<!-- Generated by IcoMoon.io -->
<!DOCTYPE svg PUBLIC "-//W3C//DTD SVG 1.1//EN" "http://www.w3.org/Graphics/SVG/1.1/DTD/svg11.dtd">
<svg version="1.1" xmlns="http://www.w3.org/2000/svg" xmlns:xlink="http://www.w3.org/1999/xlink" width="32" height="32" viewBox="0 0 32 32">
<path fill="#000" d="M27.155 1.33h-16.855c-1.059 0-2.098 0.429-2.852 1.182l-6.132 6.135c-0.433 0.433-0.701 1.032-0.701 1.69v19.172c0 1.322 1.071 2.392 2.393 2.392h19.17c0.66 0 1.259-0.267 1.69-0.701l6.139-6.136c0.76-0.763 1.178-1.774 1.178-2.849v-16.853c0.001-2.223-1.807-4.031-4.030-4.031zM18.771 27.117c0.008 0.134-0.011 0.267-0.087 0.38-0.113 0.168-0.303 0.268-0.506 0.268h-9.831c-0.202 0-0.392-0.1-0.504-0.268-0.078-0.113-0.097-0.247-0.089-0.38 0.004-0.063 0.001-0.127 0.026-0.189l4.916-12.421c0.092-0.234 0.318-0.387 0.57-0.387s0.476 0.153 0.569 0.387l4.914 12.421c0.022 0.061 0.019 0.126 0.023 0.189zM6.517 14.509c0.093-0.234 0.317-0.387 0.569-0.387s0.477 0.153 0.569 0.387l1.639 4.138c0.075 0.19 0.051 0.403-0.064 0.569-0.112 0.168-0.303 0.268-0.504 0.268h-3.277c-0.016 0-0.030-0.010-0.046-0.012-0.186-0.014-0.355-0.101-0.459-0.257-0.115-0.165-0.139-0.379-0.063-0.569l0.522-1.319 1.117-2.818zM21.416 28.404v-17.289h-16.485c-0.51 0-0.922-0.413-0.922-0.922s0.413-0.922 0.922-0.922h17.024l4.907-4.92c0.361-0.362 0.943-0.361 1.304-0.001s0.362 0.943 0.001 1.305l-4.907 4.921v17.83c0 0.51-0.413 0.922-0.922 0.922s-0.921-0.414-0.921-0.924z"></path>
</svg>
