<?xml version="1.0" encoding="utf-8"?>
<!-- Generated by IcoMoon.io -->
<!DOCTYPE svg PUBLIC "-//W3C//DTD SVG 1.1//EN" "http://www.w3.org/Graphics/SVG/1.1/DTD/svg11.dtd">
<svg version="1.1" xmlns="http://www.w3.org/2000/svg" xmlns:xlink="http://www.w3.org/1999/xlink" width="32" height="32" viewBox="0 0 32 32">
<path fill="#000" d="M27.154 1.23h-16.854c-1.059 0-2.099 0.432-2.858 1.19l-6.132 6.184c-0.429 0.432-0.696 1.029-0.696 1.685v19.318c0 1.322 1.071 2.393 2.393 2.393h19.17c0.664 0 1.268-0.273 1.703-0.712l6.128-6.176c0.748-0.752 1.177-1.792 1.177-2.855v-16.983c0.001-2.229-1.808-4.045-4.031-4.045zM12.544 27.214v-12.593c0-0.189 0.086-0.366 0.239-0.48 0.15-0.115 0.346-0.152 0.526-0.1 3.11 0.879 5.28 3.743 5.28 6.972 0 2.581-1.404 4.916-3.553 6.2-0.537 0.32-1.108 0.594-1.729 0.769-0.053 0.015-0.109 0.023-0.164 0.023-0.128 0-0.257-0.041-0.362-0.123-0.152-0.113-0.239-0.291-0.239-0.48v-0.19zM9.423 14.028c0.18-0.049 0.374-0.012 0.525 0.102 0.149 0.113 0.238 0.291 0.238 0.478v12.808c0 0.19-0.087 0.366-0.238 0.481-0.107 0.081-0.235 0.123-0.365 0.123-0.055 0-0.108-0.007-0.16-0.023-0.641-0.175-1.229-0.452-1.779-0.782-0.895-0.534-1.656-1.245-2.243-2.088-0.823-1.183-1.311-2.602-1.311-4.113s0.488-2.93 1.311-4.113c0.947-1.365 2.341-2.412 4.022-2.873zM21.666 28.955v-18.146h-17.198c-0.51 0-0.922-0.413-0.922-0.922s0.413-0.922 0.922-0.922h17.738l5.119-5.162c0.358-0.361 0.942-0.364 1.305-0.005 0.361 0.359 0.363 0.943 0.005 1.305l-5.126 5.163v18.687c0 0.51-0.411 0.922-0.921 0.922s-0.922-0.41-0.922-0.92z"></path>
</svg>
