<?xml version="1.0" encoding="utf-8"?>
<!-- Generated by IcoMoon.io -->
<!DOCTYPE svg PUBLIC "-//W3C//DTD SVG 1.1//EN" "http://www.w3.org/Graphics/SVG/1.1/DTD/svg11.dtd">
<svg version="1.1" xmlns="http://www.w3.org/2000/svg" xmlns:xlink="http://www.w3.org/1999/xlink" width="32" height="32" viewBox="0 0 32 32">
<path fill="#000" d="M27.162 1.33h-16.869c-1.075 0.003-2.085 0.422-2.844 1.181l-6.133 6.135c-0.433 0.433-0.7 1.032-0.7 1.692v19.173c0 1.316 1.063 2.383 2.379 2.392h19.198c0.656-0.005 1.252-0.272 1.681-0.705l6.132-6.131c0.76-0.758 1.175-1.764 1.179-2.837v-16.881c-0.007-2.215-1.808-4.014-4.023-4.018zM4.687 21.067c0.261-0.011 0.499 0.067 0.713 0.182 0.342 0.184 0.608 0.488 0.704 0.876l2.258-0.104c-0.007-0.078-0.011-0.152-0.011-0.227 0-0.652 0.224-1.249 0.599-1.725l-2.434-2.401c-0.348 0.186-0.79 0.138-1.084-0.156-0.014-0.014-0.019-0.033-0.031-0.048-0.306-0.347-0.306-0.86 0-1.207 0.012-0.015 0.018-0.033 0.031-0.048 0.359-0.361 0.942-0.361 1.301 0 0.291 0.291 0.343 0.724 0.164 1.073l2.427 2.396c0.424-0.366 0.957-0.605 1.543-0.661v-2.997c-0.638-0.127-1.121-0.69-1.121-1.367 0-0.769 0.623-1.393 1.393-1.393s1.393 0.623 1.393 1.393c0 0.676-0.482 1.239-1.122 1.367v2.997c0.782 0.075 1.468 0.476 1.926 1.062l2.284-2.383c-0.174-0.247-0.268-0.552-0.253-0.88 0.045-0.768 0.705-1.353 1.473-1.309s1.354 0.704 1.309 1.47c-0.045 0.769-0.704 1.356-1.472 1.309-0.246-0.014-0.473-0.090-0.667-0.216l-2.377 2.479c0.182 0.363 0.287 0.773 0.292 1.207l1.935-0.090c0.096-0.381 0.433-0.67 0.846-0.692 0.508-0.025 0.939 0.369 0.962 0.879 0.025 0.507-0.369 0.937-0.877 0.961-0.411 0.019-0.773-0.238-0.907-0.605l-2.006 0.093c-0.112 0.603-0.42 1.14-0.854 1.54l2.769 2.277c0.242-0.198 0.548-0.314 0.883-0.314 0.741 0 1.332 0.582 1.378 1.311 0.001 0.029 0.016 0.053 0.016 0.083 0 0.769-0.623 1.394-1.394 1.394-0.769 0-1.393-0.625-1.393-1.394 0-0.029 0.010-0.053 0.010-0.083 0.014-0.205 0.062-0.403 0.156-0.577l-2.871-2.36c-0.347 0.208-0.742 0.347-1.167 0.387v2.924c0.376 0.118 0.649 0.467 0.649 0.881 0 0.507-0.411 0.918-0.92 0.918s-0.921-0.411-0.921-0.918c0-0.414 0.273-0.764 0.649-0.881v-2.924c-0.502-0.048-0.963-0.232-1.353-0.51l-2.073 1.96c0.178 0.363 0.105 0.812-0.21 1.092-0.004 0.003-0.011 0.005-0.016 0.008-0.344 0.294-0.832 0.28-1.173 0-0.036-0.029-0.079-0.045-0.111-0.083-0.338-0.379-0.305-0.961 0.075-1.3 0.302-0.269 0.728-0.299 1.062-0.109l2.038-1.927c-0.298-0.317-0.523-0.708-0.646-1.14l-2.329 0.109c-0.066 0.44-0.347 0.804-0.73 1.009-0.176 0.093-0.369 0.165-0.584 0.176-0.768 0.037-1.42-0.558-1.457-1.327-0.036-0.767 0.559-1.419 1.327-1.455zM21.416 28.404v-17.29h-16.484c-0.51 0-0.922-0.413-0.922-0.922s0.413-0.922 0.922-0.922h17.024l4.907-4.921c0.361-0.362 0.943-0.361 1.304-0.001s0.362 0.943 0.001 1.305l-4.907 4.922v17.831c0 0.51-0.413 0.921-0.922 0.921s-0.922-0.413-0.922-0.922z"></path>
</svg>
