<?xml version="1.0" encoding="utf-8"?>
<!-- Generated by IcoMoon.io -->
<!DOCTYPE svg PUBLIC "-//W3C//DTD SVG 1.1//EN" "http://www.w3.org/Graphics/SVG/1.1/DTD/svg11.dtd">
<svg version="1.1" xmlns="http://www.w3.org/2000/svg" xmlns:xlink="http://www.w3.org/1999/xlink" width="32" height="32" viewBox="0 0 32 32">
<path fill="#000" d="M27.155 1.33h-16.855c-1.077 0-2.090 0.42-2.852 1.181l-6.13 6.135c-0.435 0.433-0.702 1.032-0.702 1.692v19.173c0 1.322 1.071 2.392 2.393 2.392h19.17c0.66 0 1.259-0.267 1.69-0.701l6.136-6.135c0.763-0.761 1.181-1.774 1.181-2.851v-16.855c0.001-2.222-1.807-4.030-4.030-4.030zM12.474 18.743v-2.519c0-0.236 0.142-0.451 0.362-0.541 0.217-0.089 0.47-0.040 0.638 0.128l4.924 4.924c0.109 0.109 0.171 0.258 0.171 0.414s-0.061 0.305-0.171 0.414l-4.924 4.925c-0.112 0.112-0.262 0.171-0.415 0.171-0.075 0-0.15-0.014-0.223-0.045-0.219-0.090-0.362-0.305-0.362-0.54v-2.52h-7.559c-0.322 0-0.585-0.261-0.585-0.588v-3.638c0-0.323 0.261-0.585 0.585-0.585h7.559zM21.416 28.404v-17.29h-16.485c-0.51 0-0.922-0.413-0.922-0.922s0.413-0.922 0.922-0.922h17.024l4.907-4.921c0.361-0.362 0.943-0.361 1.304-0.001s0.362 0.943 0.001 1.305l-4.907 4.922v17.831c0 0.508-0.413 0.921-0.922 0.921s-0.921-0.414-0.921-0.922z"></path>
</svg>
