<?xml version="1.0" encoding="utf-8"?>
<!-- Generated by IcoMoon.io -->
<!DOCTYPE svg PUBLIC "-//W3C//DTD SVG 1.1//EN" "http://www.w3.org/Graphics/SVG/1.1/DTD/svg11.dtd">
<svg version="1.1" xmlns="http://www.w3.org/2000/svg" xmlns:xlink="http://www.w3.org/1999/xlink" width="32" height="32" viewBox="0 0 32 32">
<path fill="#000" d="M27.155 1.33h-16.855c-1.074 0-2.085 0.418-2.852 1.179l-6.132 6.136c-0.433 0.433-0.701 1.032-0.701 1.69v19.172c0 1.322 1.071 2.393 2.393 2.393h19.17c0.66 0 1.259-0.268 1.69-0.702l6.14-6.137c0.76-0.763 1.177-1.774 1.177-2.848v-16.853c0.001-2.222-1.807-4.030-4.030-4.030zM3.765 19.375c0.089-0.213 0.299-0.354 0.532-0.354l1.399-0.001c0.82-2.51 3.187-4.271 5.88-4.273h0.003c1.006 0 2.005 0.246 2.888 0.712 0.272 0.143 0.473 0.384 0.563 0.679 0.090 0.294 0.062 0.607-0.082 0.88s-0.385 0.473-0.679 0.564c-0.294 0.090-0.607 0.061-0.881-0.083-0.56-0.297-1.168-0.445-1.807-0.445h-0.005c-1.417 0-2.694 0.782-3.369 1.965l1.581-0.001c0.234 0 0.441 0.139 0.53 0.354s0.040 0.461-0.123 0.626l-2.745 2.748c-0.105 0.107-0.253 0.168-0.406 0.168s-0.298-0.060-0.406-0.168l-2.747-2.744c-0.165-0.164-0.215-0.411-0.126-0.626zM8.18 26.115c-0.533-0.35-0.681-1.066-0.329-1.599 0.22-0.335 0.59-0.519 0.965-0.519 0.217 0 0.437 0.061 0.631 0.191 0.635 0.415 1.372 0.635 2.133 0.635h0.001c1.57-0.001 2.922-0.94 3.533-2.284l-1.645 0.001c-0.231 0-0.44-0.141-0.532-0.354-0.087-0.215-0.038-0.462 0.126-0.626l2.744-2.75c0.226-0.224 0.588-0.224 0.812 0l2.75 2.744c0.163 0.164 0.213 0.413 0.123 0.625-0.086 0.215-0.297 0.357-0.529 0.357l-1.406 0.001c-0.277 1.037-0.817 1.991-1.599 2.771-1.134 1.14-2.635 1.767-4.234 1.804-0.048 0.003-0.094 0.015-0.142 0.015h-0.001c-0.066 0-0.13-0.012-0.195-0.015-1.144-0.034-2.249-0.37-3.205-0.999zM21.416 28.403v-17.289h-16.485c-0.51 0-0.922-0.413-0.922-0.922s0.413-0.922 0.922-0.922h17.024l4.907-4.921c0.361-0.362 0.943-0.361 1.304-0.001s0.362 0.943 0.001 1.305l-4.907 4.922v17.83c0 0.508-0.413 0.922-0.922 0.922s-0.921-0.415-0.921-0.924z"></path>
</svg>
