<?xml version="1.0" encoding="utf-8"?>
<!-- Generated by IcoMoon.io -->
<!DOCTYPE svg PUBLIC "-//W3C//DTD SVG 1.1//EN" "http://www.w3.org/Graphics/SVG/1.1/DTD/svg11.dtd">
<svg version="1.1" xmlns="http://www.w3.org/2000/svg" xmlns:xlink="http://www.w3.org/1999/xlink" width="35" height="32" viewBox="0 0 35 32">
<path fill="#000" d="M2.744 32c-0.378 0-0.73-0.185-0.944-0.495-0.065-0.094-0.112-0.191-0.146-0.296-0.085-0.248-0.082-0.526 0.015-0.777l7.917-20.631c0.105-0.272 0.308-0.492 0.565-0.619 0.080-0.039 0.163-0.071 0.252-0.092 0.369-0.087 0.757 0.014 1.038 0.267l22.622 20.516c0.247 0.225 0.379 0.536 0.378 0.859 0.002 0.14-0.026 0.281-0.075 0.415-0.172 0.444-0.595 0.737-1.070 0.738l-30.546 0.116c-0.002 0-0.003 0-0.005 0zM5.479 26.909c-0.008 0.032-0.020 0.065-0.032 0.097l-1.027 2.681 25.893-0.1-19.179-17.392-1.009 2.627-0.005-0.002-4.641 12.090z"></path>
</svg>
