<?xml version="1.0" encoding="utf-8"?>
<!-- Generated by IcoMoon.io -->
<!DOCTYPE svg PUBLIC "-//W3C//DTD SVG 1.1//EN" "http://www.w3.org/Graphics/SVG/1.1/DTD/svg11.dtd">
<svg version="1.1" xmlns="http://www.w3.org/2000/svg" xmlns:xlink="http://www.w3.org/1999/xlink" width="35" height="32" viewBox="0 0 35 32">
<path fill="#000" d="M32.304 32l-30.546-0.117c-0.473-0.002-0.898-0.294-1.068-0.738-0.051-0.134-0.077-0.276-0.075-0.415-0.002-0.322 0.131-0.635 0.376-0.859l22.623-20.514c0.279-0.253 0.669-0.354 1.036-0.267 0.090 0.022 0.174 0.053 0.252 0.092 0.255 0.128 0.459 0.347 0.565 0.619l7.917 20.63c0.097 0.252 0.1 0.529 0.014 0.777-0.034 0.105-0.082 0.202-0.146 0.296-0.213 0.31-0.566 0.495-0.944 0.495 0 0.002-0.002 0.002-0.003 0.002zM24.933 14.819l-0.005 0.002-1.010-2.627-19.179 17.394 25.895 0.1-1.027-2.681c-0.012-0.032-0.024-0.065-0.032-0.097l-4.641-12.092z"></path>
</svg>
