<?xml version="1.0" encoding="utf-8"?>
<!-- Generated by IcoMoon.io -->
<!DOCTYPE svg PUBLIC "-//W3C//DTD SVG 1.1//EN" "http://www.w3.org/Graphics/SVG/1.1/DTD/svg11.dtd">
<svg version="1.1" xmlns="http://www.w3.org/2000/svg" xmlns:xlink="http://www.w3.org/1999/xlink" width="16" height="32" viewBox="0 0 16 32">
<path fill="#000" d="M15.063 31.438l-6.835-16.223c-0.063-0.15-0.21-0.248-0.373-0.248s-0.31 0.097-0.373 0.248l-6.835 16.223c-0.053 0.125-0.039 0.268 0.036 0.381s0.202 0.181 0.337 0.181h13.671c0.136 0 0.263-0.068 0.338-0.181s0.089-0.256 0.036-0.381zM13.292 31.191l-5.064-11.904c-0.063-0.149-0.21-0.246-0.373-0.246s-0.309 0.097-0.372 0.246l-3.386 7.958h0.88l2.878-6.765 4.556 10.71h-0.858l-3.302-7.746c-0.064-0.15-0.211-0.246-0.372-0.246s-0.309 0.096-0.372 0.246l-1.62 3.8h0.88l1.113-2.609 2.793 6.554-9.044 0.001 6.226-14.775 6.226 14.775h-0.789z"></path>
<path fill="#000" d="M3.894 28.14c-0.158 0.31-0.57 1.147-0.614 1.603-0 0.003-0 0.005-0.001 0.009-0.002 0.023-0.003 0.045-0.003 0.066 0 0.257 0.144 0.478 0.355 0.593 0.097 0.053 0.207 0.087 0.326 0.087 0.376 0 0.68-0.304 0.68-0.68 0-0.020-0.001-0.041-0.003-0.063-0-0.005-0.001-0.009-0.001-0.013-0.026-0.251-0.164-0.622-0.31-0.956-0.115-0.264-0.234-0.507-0.304-0.644-0.026-0.051-0.098-0.051-0.124-0.001z"></path>
<path fill="#000" d="M5.431 30.379c0.109 0.075 0.24 0.118 0.382 0.118 0.375 0 0.68-0.304 0.68-0.68 0-0.020-0.001-0.041-0.003-0.063-0-0.005-0.001-0.009-0.001-0.013-0.027-0.271-0.187-0.683-0.344-1.035-0.104-0.233-0.207-0.441-0.27-0.564-0.026-0.051-0.098-0.051-0.124-0.001-0.158 0.31-0.57 1.147-0.613 1.603-0 0.003-0.001 0.005-0.001 0.009-0.002 0.023-0.003 0.045-0.003 0.066-0 0.234 0.118 0.44 0.298 0.562z"></path>
<path fill="#000" d="M7.671 30.497c0.376 0 0.68-0.304 0.68-0.68 0-0.020-0.001-0.041-0.004-0.063-0-0.005-0.001-0.009-0.001-0.013-0.045-0.451-0.455-1.29-0.613-1.599-0.026-0.051-0.098-0.051-0.124-0.001-0.159 0.31-0.57 1.147-0.614 1.603 0 0.003 0 0.005-0 0.009-0.002 0.023-0.003 0.045-0.003 0.066-0 0.376 0.304 0.68 0.68 0.68z"></path>
</svg>
