<?xml version="1.0" encoding="utf-8"?>
<!-- Generated by IcoMoon.io -->
<!DOCTYPE svg PUBLIC "-//W3C//DTD SVG 1.1//EN" "http://www.w3.org/Graphics/SVG/1.1/DTD/svg11.dtd">
<svg version="1.1" xmlns="http://www.w3.org/2000/svg" xmlns:xlink="http://www.w3.org/1999/xlink" width="16" height="32" viewBox="0 0 16 32">
<path fill="#000" d="M15.093 22.731l-6.842-16.239c-0.065-0.154-0.215-0.254-0.382-0.254s-0.318 0.1-0.382 0.254l-6.842 16.239c-0.054 0.129-0.040 0.274 0.037 0.39s0.207 0.185 0.345 0.185h2.87l-1.406 3.715c-0.048 0.127-0.031 0.27 0.047 0.382s0.205 0.179 0.341 0.179h2.437l-1.536 3.846c-0.051 0.128-0.035 0.272 0.042 0.386s0.206 0.182 0.343 0.182h7.77c0.138 0 0.266-0.068 0.343-0.182s0.093-0.258 0.042-0.386l-1.536-3.846h2.444c0.136 0 0.263-0.066 0.341-0.179s0.095-0.255 0.047-0.382l-1.405-3.715h2.501c0.139 0 0.269-0.070 0.346-0.185s0.091-0.261 0.037-0.39zM11.323 31.169h-6.546l1.432-3.585h3.681l1.433 3.585zM12.627 26.754h-9.147l1.304-3.447h6.539l1.304 3.447zM11.896 22.477h-10.244l6.217-14.756 6.218 14.756h-2.191z"></path>
<path fill="#000" d="M4.643 21.036c-0.046-0.451-0.457-1.291-0.615-1.602-0.026-0.050-0.098-0.050-0.124 0-0.159 0.31-0.571 1.149-0.614 1.604-0.001 0.003-0.001 0.007-0.001 0.009-0.002 0.023-0.003 0.044-0.003 0.065 0 0.377 0.304 0.681 0.68 0.681s0.681-0.304 0.681-0.681c0-0.020-0.001-0.041-0.003-0.062-0.001-0.005-0.001-0.010-0.002-0.014z"></path>
<path fill="#000" d="M6.502 21.036c-0.031-0.311-0.235-0.804-0.411-1.183-0.079-0.171-0.154-0.322-0.203-0.419-0.026-0.050-0.097-0.050-0.124 0-0.159 0.31-0.571 1.149-0.614 1.604-0.001 0.003-0.001 0.007-0.001 0.009-0.003 0.023-0.004 0.044-0.004 0.065 0 0.219 0.105 0.412 0.266 0.537 0.115 0.089 0.258 0.144 0.415 0.144 0.376 0 0.681-0.304 0.681-0.681 0-0.020-0.001-0.041-0.003-0.062-0.001-0.005-0.001-0.010-0.002-0.013z"></path>
<path fill="#000" d="M7.623 19.434c-0.159 0.31-0.57 1.149-0.614 1.604-0 0.003-0 0.007-0.001 0.009-0.002 0.023-0.003 0.044-0.003 0.065 0 0.358 0.277 0.648 0.627 0.675 0.018 0.002 0.035 0.006 0.053 0.006 0.233 0 0.438-0.117 0.561-0.296 0.076-0.11 0.12-0.242 0.12-0.386 0-0.020-0.002-0.041-0.003-0.062-0.001-0.005-0.001-0.010-0.002-0.014-0.045-0.451-0.456-1.291-0.615-1.602-0.025-0.051-0.097-0.051-0.124-0z"></path>
<path fill="#000" d="M8.336 25.312c-0.044-0.435-0.425-1.228-0.595-1.563-0.006-0.012-0.014-0.028-0.019-0.039-0.026-0.051-0.098-0.051-0.124 0-0.159 0.309-0.571 1.148-0.614 1.604-0.001 0.003-0.001 0.007-0.001 0.009-0.003 0.023-0.004 0.044-0.004 0.066 0 0.067 0.013 0.131 0.031 0.192 0.083 0.282 0.341 0.488 0.65 0.488 0.376 0 0.681-0.304 0.681-0.68 0-0.020-0.002-0.041-0.003-0.063-0.001-0.004-0.001-0.008-0.002-0.013z"></path>
<path fill="#000" d="M6.476 25.312c-0.011-0.113-0.046-0.25-0.093-0.398-0.142-0.441-0.403-0.971-0.521-1.203-0.026-0.051-0.097-0.051-0.124 0-0.159 0.309-0.571 1.148-0.614 1.604-0.001 0.003-0.001 0.007-0.001 0.009-0.002 0.023-0.003 0.044-0.003 0.066 0 0.376 0.305 0.68 0.681 0.68 0.043 0 0.085-0.005 0.127-0.013 0.316-0.059 0.554-0.335 0.554-0.667 0-0.020-0.001-0.041-0.003-0.063-0.001-0.005-0.001-0.009-0.002-0.014z"></path>
<path fill="#000" d="M8.011 30.484c0.376 0 0.681-0.304 0.681-0.681 0-0.020-0.002-0.041-0.004-0.063 0-0.005-0.001-0.009-0.001-0.014-0.046-0.451-0.457-1.29-0.615-1.601-0.026-0.051-0.098-0.051-0.124 0-0.16 0.31-0.571 1.148-0.615 1.604-0 0.003-0.001 0.006-0.001 0.009-0.002 0.022-0.003 0.044-0.003 0.065 0 0.376 0.304 0.681 0.681 0.681z"></path>
</svg>
