<?xml version="1.0" encoding="utf-8"?>
<!-- Generated by IcoMoon.io -->
<!DOCTYPE svg PUBLIC "-//W3C//DTD SVG 1.1//EN" "http://www.w3.org/Graphics/SVG/1.1/DTD/svg11.dtd">
<svg version="1.1" xmlns="http://www.w3.org/2000/svg" xmlns:xlink="http://www.w3.org/1999/xlink" width="32" height="32" viewBox="0 0 32 32">
<path fill="#000" d="M18.11 31.782l-17.278-17.278c-0.175-0.175-0.251-0.427-0.201-0.669 0.048-0.243 0.215-0.446 0.446-0.54l29.141-11.864c0.275-0.113 0.592-0.049 0.803 0.162s0.274 0.528 0.162 0.803l-11.863 29.142c-0.094 0.232-0.295 0.398-0.54 0.447-0.243 0.049-0.495-0.027-0.671-0.203zM2.669 14.247l15.701 15.7 10.779-26.482-26.48 10.782z"></path>
<path fill="#000" d="M6.54 14.508c0.004-0.003 0.008-0.009 0.013-0.010 0.632-0.521 2.209-1.059 2.801-1.251 0.096-0.030 0.188 0.062 0.156 0.156-0.193 0.595-0.735 2.172-1.247 2.8-0.004 0.006-0.010 0.012-0.016 0.018-0.025 0.030-0.050 0.058-0.075 0.083-0.476 0.475-1.245 0.475-1.72 0s-0.475-1.243 0.001-1.719c0.027-0.026 0.056-0.052 0.087-0.078z"></path>
<path fill="#000" d="M8.888 16.856c0.003-0.004 0.009-0.008 0.013-0.010 0.632-0.521 2.209-1.060 2.801-1.25 0.098-0.030 0.188 0.061 0.157 0.156-0.193 0.593-0.735 2.172-1.248 2.798-0.004 0.006-0.010 0.013-0.016 0.019-0.026 0.030-0.050 0.058-0.076 0.083-0.475 0.475-1.245 0.475-1.719 0s-0.476-1.245 0-1.72c0.027-0.025 0.056-0.051 0.087-0.076z"></path>
<path fill="#000" d="M11.236 19.202c0.004-0.001 0.009-0.007 0.012-0.010 0.632-0.519 2.21-1.059 2.803-1.25 0.096-0.030 0.188 0.061 0.156 0.156-0.193 0.594-0.735 2.172-1.247 2.799-0.004 0.007-0.010 0.013-0.016 0.019-0.026 0.030-0.050 0.058-0.075 0.082-0.476 0.476-1.246 0.475-1.721 0s-0.475-1.244 0.001-1.719c0.026-0.025 0.056-0.050 0.087-0.077z"></path>
</svg>
