<?xml version="1.0" encoding="utf-8"?>
<!-- Generated by IcoMoon.io -->
<!DOCTYPE svg PUBLIC "-//W3C//DTD SVG 1.1//EN" "http://www.w3.org/Graphics/SVG/1.1/DTD/svg11.dtd">
<svg version="1.1" xmlns="http://www.w3.org/2000/svg" xmlns:xlink="http://www.w3.org/1999/xlink" width="32" height="32" viewBox="0 0 32 32">
<path fill="#000" d="M25.24 29.568h-18.478c-0.243 0-0.47-0.118-0.609-0.32-0.139-0.2-0.17-0.455-0.084-0.683l9.24-24.422c0.108-0.289 0.385-0.478 0.693-0.478v0c0.308 0 0.583 0.19 0.693 0.478l9.237 24.422c0.085 0.227 0.055 0.483-0.084 0.683s-0.367 0.32-0.609 0.32zM7.834 28.087h16.334l-8.166-21.59-8.169 21.59z"></path>
<path fill="#000" d="M10.767 25.532c0.001-0.004 0.001-0.010 0.003-0.016 0.078-0.814 0.813-2.311 1.096-2.863 0.047-0.091 0.176-0.091 0.221 0 0.284 0.554 1.017 2.053 1.098 2.859 0.001 0.009 0.001 0.016 0.003 0.024 0.003 0.039 0.006 0.077 0.006 0.113 0 0.671-0.546 1.215-1.217 1.215s-1.217-0.544-1.217-1.215c0.001-0.037 0.004-0.076 0.007-0.117z"></path>
<path fill="#000" d="M14.089 25.532c0-0.004 0-0.010 0.001-0.016 0.078-0.814 0.813-2.311 1.096-2.863 0.047-0.091 0.176-0.091 0.221 0 0.284 0.554 1.017 2.053 1.097 2.859 0.001 0.009 0.001 0.016 0.003 0.024 0.003 0.039 0.006 0.077 0.006 0.113 0 0.671-0.545 1.215-1.217 1.215s-1.217-0.544-1.217-1.215c0.001-0.037 0.004-0.076 0.008-0.117z"></path>
</svg>
