<?xml version="1.0" encoding="utf-8"?>
<!-- Generated by IcoMoon.io -->
<!DOCTYPE svg PUBLIC "-//W3C//DTD SVG 1.1//EN" "http://www.w3.org/Graphics/SVG/1.1/DTD/svg11.dtd">
<svg version="1.1" xmlns="http://www.w3.org/2000/svg" xmlns:xlink="http://www.w3.org/1999/xlink" width="32" height="32" viewBox="0 0 32 32">
<path fill="#000" d="M28.115 15.666l-13.065 13.064c-0.172 0.172-0.417 0.249-0.657 0.205s-0.443-0.202-0.542-0.424l-10.736-23.803c-0.127-0.281-0.067-0.61 0.151-0.828v0c0.218-0.218 0.546-0.278 0.828-0.152l23.802 10.737c0.22 0.101 0.381 0.304 0.422 0.542 0.045 0.241-0.032 0.485-0.204 0.658zM14.76 26.925l11.55-11.549-21.040-9.493 9.49 21.041z"></path>
<path fill="#000" d="M15.027 23.047c-0.003-0.004-0.006-0.009-0.010-0.013-0.521-0.632-1.059-2.209-1.25-2.8-0.030-0.1 0.061-0.19 0.158-0.158 0.592 0.193 2.171 0.733 2.797 1.245 0.007 0.006 0.013 0.010 0.020 0.016 0.030 0.024 0.058 0.049 0.084 0.076 0.475 0.475 0.473 1.245-0.001 1.719s-1.245 0.476-1.719 0.001c-0.024-0.027-0.050-0.056-0.077-0.087z"></path>
<path fill="#000" d="M17.377 20.696c-0.003-0.003-0.007-0.007-0.010-0.012-0.521-0.632-1.059-2.209-1.25-2.8-0.032-0.098 0.061-0.19 0.158-0.158 0.592 0.193 2.171 0.733 2.797 1.247 0.007 0.004 0.012 0.010 0.018 0.015 0.030 0.026 0.059 0.050 0.084 0.077 0.475 0.475 0.475 1.244 0 1.718s-1.245 0.476-1.719 0.001c-0.026-0.028-0.052-0.057-0.078-0.089z"></path>
</svg>
