<?xml version="1.0" encoding="utf-8"?>
<!-- Generated by IcoMoon.io -->
<!DOCTYPE svg PUBLIC "-//W3C//DTD SVG 1.1//EN" "http://www.w3.org/Graphics/SVG/1.1/DTD/svg11.dtd">
<svg version="1.1" xmlns="http://www.w3.org/2000/svg" xmlns:xlink="http://www.w3.org/1999/xlink" width="32" height="32" viewBox="0 0 32 32">
<path fill="#000" d="M31.169 14.505l-17.278 17.278c-0.175 0.175-0.427 0.251-0.669 0.201-0.243-0.048-0.446-0.215-0.54-0.446l-11.865-29.141c-0.112-0.276-0.048-0.592 0.163-0.803s0.527-0.275 0.803-0.162l29.143 11.863c0.232 0.094 0.398 0.295 0.447 0.54 0.049 0.243-0.027 0.495-0.203 0.671zM13.634 29.946l15.7-15.7-26.483-10.78 10.783 26.48z"></path>
<path fill="#000" d="M13.894 26.074c-0.003-0.004-0.009-0.008-0.010-0.013-0.521-0.632-1.060-2.209-1.251-2.801-0.030-0.096 0.061-0.188 0.156-0.156 0.593 0.193 2.172 0.735 2.8 1.247 0.006 0.004 0.012 0.010 0.018 0.016 0.030 0.025 0.058 0.050 0.082 0.075 0.476 0.476 0.476 1.245 0 1.72-0.475 0.475-1.244 0.475-1.718-0.001-0.026-0.027-0.052-0.056-0.078-0.087z"></path>
<path fill="#000" d="M16.241 23.726c-0.003-0.003-0.007-0.009-0.010-0.013-0.521-0.632-1.059-2.209-1.251-2.801-0.029-0.098 0.062-0.188 0.158-0.157 0.593 0.193 2.172 0.735 2.799 1.248 0.006 0.004 0.012 0.010 0.018 0.016 0.030 0.026 0.059 0.050 0.084 0.076 0.475 0.475 0.475 1.245 0 1.719s-1.245 0.476-1.722 0c-0.024-0.027-0.050-0.056-0.076-0.087z"></path>
<path fill="#000" d="M18.588 21.379c-0.001-0.004-0.007-0.009-0.010-0.012-0.519-0.632-1.059-2.209-1.25-2.803-0.030-0.096 0.061-0.188 0.156-0.156 0.593 0.193 2.172 0.735 2.798 1.247 0.007 0.004 0.013 0.010 0.020 0.016 0.029 0.026 0.058 0.050 0.082 0.075 0.476 0.476 0.475 1.246 0 1.721s-1.244 0.475-1.719-0.001c-0.024-0.026-0.050-0.056-0.077-0.087z"></path>
</svg>
