<?xml version="1.0" encoding="utf-8"?>
<!-- Generated by IcoMoon.io -->
<!DOCTYPE svg PUBLIC "-//W3C//DTD SVG 1.1//EN" "http://www.w3.org/Graphics/SVG/1.1/DTD/svg11.dtd">
<svg version="1.1" xmlns="http://www.w3.org/2000/svg" xmlns:xlink="http://www.w3.org/1999/xlink" width="32" height="32" viewBox="0 0 32 32">
<path fill="#000" d="M16.787 25.648l-9.809-9.809c-0.174-0.173-0.251-0.422-0.203-0.663 0.047-0.24 0.208-0.444 0.434-0.541l17.184-7.373c0.278-0.121 0.601-0.057 0.815 0.157s0.278 0.537 0.158 0.816l-7.374 17.183c-0.097 0.227-0.301 0.389-0.541 0.435-0.242 0.047-0.491-0.030-0.665-0.204zM8.798 15.566l8.263 8.263 6.212-14.476-14.476 6.212z"></path>
<path fill="#000" d="M13.831 16.987c0.003-0.004 0.007-0.007 0.013-0.011 0.631-0.521 2.208-1.060 2.8-1.249 0.097-0.032 0.188 0.059 0.156 0.156-0.192 0.592-0.733 2.171-1.245 2.799-0.006 0.006-0.010 0.012-0.016 0.018-0.026 0.029-0.050 0.058-0.077 0.084-0.475 0.475-1.244 0.475-1.718 0-0.475-0.476-0.475-1.245-0.001-1.719 0.027-0.027 0.056-0.053 0.087-0.078z"></path>
</svg>
