<?xml version="1.0" encoding="utf-8"?>
<!-- Generated by IcoMoon.io -->
<!DOCTYPE svg PUBLIC "-//W3C//DTD SVG 1.1//EN" "http://www.w3.org/Graphics/SVG/1.1/DTD/svg11.dtd">
<svg version="1.1" xmlns="http://www.w3.org/2000/svg" xmlns:xlink="http://www.w3.org/1999/xlink" width="32" height="32" viewBox="0 0 32 32">
<path fill="#000" d="M28.218 31.854h-24.436c-0.247 0-0.478-0.124-0.616-0.331s-0.162-0.467-0.067-0.697l12.217-28.995c0.116-0.275 0.385-0.453 0.683-0.453s0.567 0.178 0.683 0.453l12.218 28.995c0.097 0.23 0.073 0.49-0.065 0.697s-0.369 0.331-0.618 0.331zM4.899 30.373h22.204l-11.103-26.349-11.101 26.349z"></path>
<path fill="#000" d="M7.821 27.819c0-0.004 0-0.012 0.001-0.016 0.078-0.814 0.813-2.311 1.096-2.865 0.047-0.090 0.176-0.090 0.221 0 0.284 0.555 1.017 2.055 1.097 2.86 0.001 0.007 0.001 0.016 0.003 0.024 0.003 0.039 0.006 0.077 0.006 0.111 0 0.672-0.543 1.217-1.217 1.217-0.671 0-1.215-0.544-1.215-1.217 0.001-0.036 0.003-0.075 0.007-0.116z"></path>
<path fill="#000" d="M11.142 27.819c0-0.004 0-0.012 0.001-0.016 0.078-0.814 0.813-2.311 1.096-2.865 0.047-0.090 0.176-0.090 0.221 0 0.284 0.555 1.017 2.055 1.097 2.86 0.001 0.007 0.001 0.016 0.003 0.024 0.003 0.039 0.006 0.077 0.006 0.111 0 0.672-0.545 1.217-1.216 1.217s-1.217-0.544-1.217-1.217c0-0.036 0.003-0.075 0.007-0.116z"></path>
<path fill="#000" d="M14.461 27.819c0.001-0.004 0.001-0.012 0.001-0.016 0.079-0.814 0.815-2.311 1.097-2.865 0.047-0.090 0.176-0.090 0.221 0 0.284 0.555 1.017 2.055 1.097 2.86 0.001 0.007 0.001 0.016 0.003 0.024 0.003 0.039 0.006 0.077 0.006 0.111 0 0.672-0.545 1.217-1.217 1.217s-1.217-0.544-1.217-1.217c0.001-0.036 0.004-0.075 0.007-0.116z"></path>
</svg>
