<?xml version="1.0" encoding="utf-8"?>
<!-- Generated by IcoMoon.io -->
<!DOCTYPE svg PUBLIC "-//W3C//DTD SVG 1.1//EN" "http://www.w3.org/Graphics/SVG/1.1/DTD/svg11.dtd">
<svg version="1.1" xmlns="http://www.w3.org/2000/svg" xmlns:xlink="http://www.w3.org/1999/xlink" width="32" height="32" viewBox="0 0 32 32">
<path fill="#000" d="M16.925 28.718l-13.067-13.066c-0.171-0.171-0.249-0.415-0.204-0.656 0.043-0.239 0.202-0.442 0.424-0.541l23.803-10.737c0.281-0.127 0.61-0.067 0.829 0.151v0c0.218 0.218 0.277 0.547 0.15 0.829l-10.737 23.801c-0.101 0.221-0.303 0.381-0.541 0.423-0.242 0.045-0.486-0.032-0.658-0.204zM5.664 15.363l11.551 11.551 9.493-21.041-21.044 9.49z"></path>
<path fill="#000" d="M9.544 15.631c0.004-0.002 0.009-0.007 0.013-0.010 0.632-0.52 2.21-1.059 2.8-1.25 0.098-0.030 0.19 0.061 0.157 0.157-0.192 0.592-0.732 2.172-1.245 2.798-0.005 0.007-0.010 0.013-0.016 0.019-0.026 0.029-0.050 0.058-0.076 0.084-0.475 0.475-1.245 0.473-1.719-0.001-0.475-0.475-0.476-1.245-0.001-1.719 0.027-0.024 0.057-0.051 0.087-0.078z"></path>
<path fill="#000" d="M11.894 17.98c0.003-0.003 0.007-0.007 0.012-0.010 0.631-0.521 2.209-1.060 2.8-1.25 0.097-0.032 0.19 0.061 0.156 0.156-0.191 0.593-0.732 2.172-1.245 2.798-0.005 0.007-0.010 0.013-0.016 0.019-0.025 0.030-0.050 0.058-0.076 0.083-0.475 0.475-1.244 0.475-1.719-0.001s-0.475-1.245-0.001-1.719c0.027-0.024 0.057-0.051 0.089-0.077z"></path>
</svg>
