<?xml version="1.0" encoding="utf-8"?>
<!-- Generated by IcoMoon.io -->
<!DOCTYPE svg PUBLIC "-//W3C//DTD SVG 1.1//EN" "http://www.w3.org/Graphics/SVG/1.1/DTD/svg11.dtd">
<svg version="1.1" xmlns="http://www.w3.org/2000/svg" xmlns:xlink="http://www.w3.org/1999/xlink" width="12" height="32" viewBox="0 0 12 32">
<path fill="#000" d="M4.627 29.729c-0.046-0.451-0.457-1.291-0.615-1.602-0.026-0.050-0.098-0.050-0.124 0-0.16 0.31-0.571 1.149-0.615 1.604-0 0.003-0 0.007-0.001 0.009-0.002 0.023-0.003 0.044-0.003 0.065 0 0.377 0.304 0.681 0.681 0.681 0.376 0 0.681-0.304 0.681-0.681 0-0.020-0.001-0.041-0.004-0.062-0-0.005-0.001-0.010-0.001-0.014z"></path>
<path fill="#000" d="M6.486 29.729c-0.045-0.451-0.456-1.291-0.614-1.602-0.026-0.050-0.098-0.050-0.124 0-0.16 0.31-0.571 1.149-0.615 1.604 0 0.003-0.001 0.007-0.001 0.009-0.002 0.023-0.003 0.044-0.003 0.065 0 0.377 0.304 0.681 0.681 0.681 0.376 0 0.681-0.304 0.681-0.681 0-0.020-0.002-0.041-0.003-0.062 0-0.005-0.001-0.010-0.002-0.014z"></path>
<path fill="#000" d="M11.766 31.439l-2.252-5.952h0.575c0.137 0 0.266-0.069 0.343-0.182s0.092-0.259 0.041-0.386l-3.886-9.725c-0.063-0.158-0.216-0.261-0.385-0.261s-0.322 0.103-0.386 0.261l-3.884 9.726c-0.051 0.127-0.035 0.272 0.042 0.386 0.077 0.113 0.206 0.182 0.343 0.182h0.575l-2.252 5.952c-0.048 0.127-0.031 0.27 0.047 0.382s0.205 0.179 0.341 0.179h10.348c0.136 0 0.264-0.066 0.341-0.179s0.095-0.255 0.046-0.383zM6.204 16.464l3.273 8.193h-6.546l3.273-8.193zM1.631 31.171l2.15-5.684h4.847l2.151 5.684h-9.148z"></path>
<path fill="#000" d="M6.165 23.973c0.376 0 0.681-0.305 0.681-0.681 0-0.020-0.002-0.041-0.003-0.063-0.001-0.005-0.001-0.009-0.002-0.014-0.045-0.45-0.456-1.29-0.615-1.601-0.025-0.051-0.098-0.051-0.124 0-0.159 0.31-0.57 1.148-0.614 1.604-0.001 0.003-0.001 0.006-0.001 0.009-0.002 0.023-0.003 0.044-0.003 0.065 0 0.376 0.305 0.681 0.681 0.681z"></path>
</svg>
