<?xml version="1.0" encoding="utf-8"?>
<!-- Generated by IcoMoon.io -->
<!DOCTYPE svg PUBLIC "-//W3C//DTD SVG 1.1//EN" "http://www.w3.org/Graphics/SVG/1.1/DTD/svg11.dtd">
<svg version="1.1" xmlns="http://www.w3.org/2000/svg" xmlns:xlink="http://www.w3.org/1999/xlink" width="12" height="32" viewBox="0 0 12 32">
<path fill="#000" d="M11.777 31.45l-2.256-5.964h0.573c0.138 0 0.266-0.068 0.343-0.182s0.093-0.258 0.042-0.386l-3.886-9.725c-0.063-0.158-0.216-0.261-0.385-0.261s-0.322 0.103-0.385 0.261l-3.885 9.725c-0.051 0.128-0.035 0.273 0.042 0.386s0.206 0.182 0.343 0.182h0.573l-2.256 5.964c-0.047 0.125-0.030 0.265 0.046 0.374s0.201 0.175 0.334 0.175h10.376c0.134 0 0.259-0.066 0.335-0.175s0.093-0.25 0.045-0.374zM2.937 24.657l3.273-8.192 3.273 8.192h-6.546zM2.921 31.187h-1.312l2.157-5.701h1.223l-0.62 1.709h0.864l0.62-1.709h0.712l2.069 5.701h-5.714zM9.497 31.187l-2.067-5.701h1.222l2.157 5.701h-1.312z"></path>
<path fill="#000" d="M4.508 29.753c-0.010-0.098-0.039-0.216-0.078-0.343-0.114-0.374-0.322-0.827-0.462-1.111-0.029-0.059-0.055-0.111-0.076-0.152-0.026-0.051-0.098-0.051-0.125 0-0.159 0.31-0.572 1.15-0.616 1.609-0 0.003-0 0.006-0.001 0.009-0.002 0.023-0.003 0.044-0.003 0.065 0 0.146 0.047 0.28 0.125 0.391 0.124 0.176 0.327 0.292 0.558 0.292 0.075 0 0.147-0.015 0.215-0.038 0.271-0.091 0.468-0.343 0.468-0.645 0-0.020-0.001-0.041-0.003-0.063-0.001-0.004-0.001-0.008-0.002-0.013z"></path>
<path fill="#000" d="M6.372 29.753c-0.045-0.452-0.457-1.294-0.616-1.605-0.026-0.051-0.098-0.051-0.125 0-0.159 0.31-0.572 1.15-0.616 1.609-0 0.003-0 0.006-0.001 0.009-0.002 0.023-0.003 0.044-0.003 0.065 0 0.377 0.306 0.683 0.683 0.683s0.683-0.306 0.683-0.683c0-0.020-0.001-0.041-0.003-0.063-0.001-0.004-0.001-0.009-0.002-0.014z"></path>
<path fill="#000" d="M6.17 23.973c0.252 0 0.469-0.138 0.587-0.341 0.058-0.1 0.094-0.215 0.094-0.339 0-0.020-0.002-0.041-0.004-0.063 0-0.005-0.001-0.009-0.001-0.014-0.046-0.451-0.457-1.291-0.615-1.601-0.026-0.051-0.098-0.051-0.124 0-0.16 0.309-0.571 1.148-0.615 1.604-0 0.003-0.001 0.007-0.001 0.009-0.002 0.023-0.003 0.044-0.003 0.066 0 0.157 0.056 0.3 0.145 0.416 0.124 0.16 0.317 0.265 0.536 0.265z"></path>
</svg>
