<?xml version="1.0" encoding="utf-8"?>
<!-- Generated by IcoMoon.io -->
<!DOCTYPE svg PUBLIC "-//W3C//DTD SVG 1.1//EN" "http://www.w3.org/Graphics/SVG/1.1/DTD/svg11.dtd">
<svg version="1.1" xmlns="http://www.w3.org/2000/svg" xmlns:xlink="http://www.w3.org/1999/xlink" width="16" height="32" viewBox="0 0 16 32">
<path fill="#000" d="M5.576 30.482c0.376 0 0.681-0.304 0.681-0.681 0-0.020-0.001-0.041-0.003-0.063-0.001-0.005-0.001-0.009-0.002-0.014-0.045-0.451-0.456-1.29-0.614-1.601-0.026-0.051-0.097-0.051-0.124 0-0.159 0.31-0.571 1.148-0.614 1.604-0.001 0.003-0.001 0.006-0.001 0.009-0.002 0.022-0.003 0.044-0.003 0.065 0 0.376 0.305 0.681 0.68 0.681z"></path>
<path fill="#000" d="M7.436 30.482c0.376 0 0.681-0.304 0.681-0.681 0-0.020-0.002-0.041-0.003-0.063-0.001-0.005-0.001-0.009-0.002-0.014-0.045-0.451-0.456-1.29-0.614-1.601-0.026-0.051-0.098-0.051-0.124 0-0.159 0.31-0.571 1.148-0.614 1.604-0.001 0.003-0.001 0.006-0.001 0.009-0.003 0.022-0.004 0.044-0.004 0.065-0 0.376 0.304 0.681 0.68 0.681z"></path>
<path fill="#000" d="M15.093 26.783l-4.21-9.992h0.871c0.138 0 0.266-0.068 0.343-0.182s0.093-0.258 0.042-0.386l-3.885-9.725c-0.063-0.158-0.216-0.261-0.385-0.261s-0.322 0.103-0.385 0.261l-3.885 9.725c-0.051 0.128-0.035 0.272 0.042 0.386s0.206 0.182 0.343 0.182h0.871l-4.211 9.992c-0.054 0.129-0.040 0.274 0.037 0.39s0.207 0.185 0.345 0.185h2.782l-1.542 4.075c-0.048 0.127-0.031 0.27 0.047 0.382s0.205 0.179 0.341 0.179h10.348c0.136 0 0.264-0.067 0.341-0.179s0.095-0.255 0.047-0.382l-1.542-4.075h2.861c0.139 0 0.268-0.070 0.345-0.185s0.091-0.262 0.037-0.39zM4.597 15.962l3.273-8.193 3.273 8.193h-6.546zM12.403 31.166h-9.147l1.441-3.808h6.267l1.44 3.808zM11.536 26.53h-9.884l4.104-9.739h4.228l4.104 9.739h-2.551z"></path>
<path fill="#000" d="M4.644 25.102c-0-0.005-0.001-0.010-0.001-0.014-0.046-0.451-0.457-1.291-0.615-1.602-0.026-0.050-0.098-0.050-0.124 0-0.159 0.31-0.571 1.149-0.614 1.604-0.001 0.003-0.001 0.007-0.001 0.009-0.002 0.023-0.003 0.044-0.003 0.065 0 0.377 0.304 0.681 0.68 0.681 0.199 0 0.376-0.086 0.5-0.222 0.112-0.121 0.181-0.282 0.181-0.459 0-0.005-0-0.011-0.001-0.017-0.001-0.015-0.001-0.030-0.003-0.046z"></path>
<path fill="#000" d="M6.502 25.088c-0.034-0.339-0.275-0.898-0.459-1.287-0.061-0.129-0.116-0.238-0.155-0.315-0.026-0.050-0.097-0.050-0.124 0-0.159 0.31-0.571 1.149-0.614 1.604-0.001 0.003-0.001 0.007-0.001 0.009-0.003 0.023-0.004 0.044-0.004 0.065 0 0.188 0.076 0.359 0.199 0.482s0.293 0.199 0.481 0.199c0.376 0 0.681-0.304 0.681-0.681 0-0.020-0.001-0.041-0.003-0.062-0-0.004-0-0.009-0.001-0.013z"></path>
<path fill="#000" d="M8.361 25.088c-0.045-0.451-0.456-1.291-0.614-1.602-0.026-0.050-0.098-0.050-0.124 0-0.159 0.31-0.57 1.149-0.614 1.604-0 0.003-0 0.007-0.001 0.009-0.002 0.023-0.003 0.044-0.003 0.065 0 0.377 0.305 0.681 0.681 0.681s0.681-0.304 0.681-0.681c0-0.020-0.002-0.041-0.003-0.062-0.001-0.005-0.001-0.010-0.002-0.014z"></path>
<path fill="#000" d="M7.83 15.277c0.376 0 0.681-0.304 0.681-0.681 0-0.020-0.002-0.041-0.004-0.063 0-0.005-0.001-0.009-0.001-0.014-0.046-0.451-0.457-1.29-0.615-1.601-0.026-0.051-0.098-0.051-0.124 0-0.16 0.31-0.571 1.148-0.615 1.604-0 0.003-0.001 0.006-0.001 0.009-0.002 0.022-0.003 0.044-0.003 0.065-0 0.376 0.304 0.681 0.681 0.681z"></path>
</svg>
