<?xml version="1.0" encoding="utf-8"?>
<!-- Generated by IcoMoon.io -->
<!DOCTYPE svg PUBLIC "-//W3C//DTD SVG 1.1//EN" "http://www.w3.org/Graphics/SVG/1.1/DTD/svg11.dtd">
<svg version="1.1" xmlns="http://www.w3.org/2000/svg" xmlns:xlink="http://www.w3.org/1999/xlink" width="10" height="32" viewBox="0 0 10 32">
<path fill="#000" d="M7.689 23.338h1.115c0.138 0 0.266-0.068 0.343-0.182s0.093-0.258 0.042-0.386l-3.886-9.725c-0.063-0.158-0.216-0.261-0.385-0.261s-0.322 0.103-0.385 0.261l-3.885 9.725c-0.051 0.128-0.035 0.273 0.042 0.386s0.206 0.182 0.343 0.182h1.114l-1.499 3.753c-0.014 0.034-0.022 0.069-0.026 0.105v0c-0.006 0.036-0.001 0.072 0.002 0.108 0.006 0.068 0.023 0.134 0.062 0.192 0.078 0.114 0.206 0.182 0.343 0.182h1.114l-1.499 3.753c-0.051 0.128-0.035 0.273 0.042 0.386s0.206 0.182 0.343 0.182h7.77c0.138 0 0.266-0.068 0.343-0.182s0.093-0.258 0.042-0.386l-1.499-3.753h1.115c0.138 0 0.266-0.068 0.343-0.182 0.039-0.058 0.062-0.124 0.069-0.192v-0c0.005-0.034 0.005-0.069 0.002-0.103 0-0.002 0-0.003 0-0.005-0.004-0.035-0.012-0.070-0.026-0.105l-1.5-3.753zM8.181 26.83h-6.531l1.395-3.492h3.74l1.395 3.492zM1.645 22.508l3.273-8.192 3.273 8.192h-6.546zM8.188 31.171h-6.546l1.395-3.492h3.755l1.395 3.492z"></path>
<path fill="#000" d="M5.552 29.729c-0.046-0.451-0.457-1.291-0.615-1.601-0.026-0.051-0.098-0.051-0.124 0-0.16 0.309-0.571 1.148-0.615 1.604-0 0.003-0.001 0.007-0.001 0.009-0.002 0.023-0.003 0.044-0.003 0.066 0 0.376 0.304 0.68 0.681 0.68 0.376 0 0.681-0.304 0.681-0.68 0-0.020-0.002-0.041-0.004-0.063 0-0.005-0.001-0.009-0.001-0.014z"></path>
<path fill="#000" d="M4.875 26.165c0.235 0 0.433-0.126 0.553-0.309 0.007-0.010 0.017-0.017 0.024-0.028 0.004-0.006 0.007-0.012 0.010-0.019 0.007-0.010 0.012-0.022 0.018-0.033 0.024-0.050 0.047-0.101 0.059-0.157 0.001-0.003 0.003-0.006 0.004-0.009 0-0 0-0.001 0-0.001 0-0.002 0-0.003 0-0.005 0.009-0.045 0.015-0.092 0.015-0.139 0-0.020-0.002-0.041-0.004-0.063 0-0.005-0.001-0.009-0.001-0.014-0.046-0.451-0.457-1.291-0.615-1.601-0.026-0.051-0.098-0.051-0.124 0-0.16 0.309-0.571 1.148-0.615 1.604-0 0.006-0.003 0.013-0.003 0.019-0 0.003-0.001 0.007-0.001 0.009-0.002 0.023-0.003 0.044-0.003 0.066 0 0.375 0.305 0.68 0.681 0.68z"></path>
<path fill="#000" d="M4.879 21.824c0.376 0 0.681-0.304 0.681-0.68 0-0.020-0.002-0.041-0.004-0.063 0-0.005-0.001-0.009-0.001-0.014-0.046-0.451-0.457-1.291-0.615-1.601-0.026-0.051-0.098-0.051-0.124 0-0.16 0.309-0.571 1.148-0.615 1.604-0 0.003-0.001 0.007-0.001 0.009-0.002 0.023-0.003 0.044-0.003 0.066 0 0.376 0.305 0.68 0.681 0.68z"></path>
</svg>
