<?xml version="1.0" encoding="utf-8"?>
<!-- Generated by IcoMoon.io -->
<!DOCTYPE svg PUBLIC "-//W3C//DTD SVG 1.1//EN" "http://www.w3.org/Graphics/SVG/1.1/DTD/svg11.dtd">
<svg version="1.1" xmlns="http://www.w3.org/2000/svg" xmlns:xlink="http://www.w3.org/1999/xlink" width="12" height="32" viewBox="0 0 12 32">
<path fill="#000" d="M11.769 24.722l-3-7.932h1.323c0.138 0 0.266-0.068 0.343-0.182s0.092-0.258 0.041-0.386l-3.886-9.725c-0.062-0.158-0.216-0.261-0.385-0.261s-0.322 0.103-0.386 0.261l-3.884 9.725c-0.051 0.128-0.036 0.273 0.041 0.386s0.206 0.182 0.343 0.182h1.324l-3.001 7.932c-0.048 0.127-0.031 0.27 0.047 0.382s0.205 0.179 0.341 0.179h3.359l-2.455 6.147c-0.051 0.128-0.036 0.273 0.041 0.386s0.206 0.182 0.343 0.182h7.771c0.138 0 0.266-0.068 0.343-0.182s0.092-0.258 0.041-0.386l-2.456-6.147h3.361c0.136 0 0.264-0.066 0.341-0.179 0.078-0.112 0.095-0.255 0.047-0.382zM2.934 15.961l3.273-8.192 3.273 8.192h-6.546zM9.479 31.17h-6.546l2.352-5.886h1.843l2.351 5.886zM7.689 24.454h-6.056l2.899-7.663h3.349l2.899 7.663h-3.092z"></path>
<path fill="#000" d="M4.629 23.012c-0.045-0.451-0.456-1.291-0.614-1.601-0.026-0.051-0.097-0.051-0.124 0-0.159 0.309-0.571 1.147-0.615 1.604-0.001 0.003-0.001 0.007-0.001 0.009-0.002 0.023-0.003 0.044-0.003 0.066 0 0.376 0.305 0.68 0.681 0.68s0.681-0.304 0.681-0.68c0-0.020-0.001-0.041-0.003-0.063-0.001-0.005-0.001-0.009-0.002-0.014z"></path>
<path fill="#000" d="M6.489 23.012c-0.040-0.397-0.362-1.094-0.547-1.468-0.025-0.051-0.048-0.096-0.067-0.134-0.026-0.051-0.098-0.051-0.124 0-0.159 0.309-0.571 1.148-0.614 1.604-0.001 0.003-0.001 0.007-0.001 0.009-0.003 0.023-0.004 0.044-0.004 0.066 0 0.082 0.017 0.159 0.043 0.232 0.095 0.261 0.343 0.449 0.637 0.449 0.027 0 0.053-0.005 0.080-0.008 0.212-0.025 0.393-0.145 0.499-0.318 0.063-0.103 0.102-0.224 0.102-0.354 0-0.020-0.002-0.041-0.003-0.063-0.001-0.004-0.001-0.008-0.002-0.013z"></path>
<path fill="#000" d="M6.166 30.486c0.376 0 0.681-0.304 0.681-0.68 0-0.020-0.002-0.041-0.004-0.063 0-0.005-0.001-0.009-0.001-0.014-0.045-0.451-0.456-1.291-0.615-1.601-0.026-0.051-0.098-0.051-0.124 0-0.16 0.309-0.57 1.148-0.615 1.604 0 0.003-0.001 0.007-0.001 0.009-0.002 0.023-0.003 0.044-0.003 0.066 0 0.376 0.304 0.68 0.681 0.68z"></path>
<path fill="#000" d="M6.167 15.277c0.376 0 0.681-0.304 0.681-0.681 0-0.020-0.002-0.041-0.004-0.063 0-0.005-0.001-0.009-0.001-0.014-0.045-0.451-0.456-1.291-0.615-1.601-0.026-0.051-0.098-0.051-0.124 0-0.16 0.309-0.57 1.148-0.615 1.604 0 0.003-0.001 0.007-0.001 0.009-0.002 0.023-0.003 0.044-0.003 0.066 0 0.376 0.304 0.681 0.681 0.681z"></path>
</svg>
