<?xml version="1.0" encoding="utf-8"?>
<!-- Generated by IcoMoon.io -->
<!DOCTYPE svg PUBLIC "-//W3C//DTD SVG 1.1//EN" "http://www.w3.org/Graphics/SVG/1.1/DTD/svg11.dtd">
<svg version="1.1" xmlns="http://www.w3.org/2000/svg" xmlns:xlink="http://www.w3.org/1999/xlink" width="16" height="32" viewBox="0 0 16 32">
<path fill="#000" d="M15.040 31.439l-3.971-9.426h0.66c0.138 0 0.266-0.068 0.343-0.182s0.093-0.258 0.042-0.386l-3.885-9.725c-0.063-0.158-0.216-0.261-0.385-0.261s-0.322 0.103-0.385 0.261l-3.885 9.725c-0.051 0.128-0.035 0.273 0.042 0.386s0.206 0.182 0.343 0.182h0.66l-3.972 9.426c-0.053 0.126-0.039 0.268 0.036 0.381s0.201 0.181 0.337 0.181h13.649c0.135 0 0.262-0.068 0.336-0.181s0.088-0.255 0.036-0.381zM4.571 21.183l3.273-8.192 3.273 8.192h-6.546zM11.535 31.192h-9.907l3.868-9.179h0.825l-2.229 5.241h0.879l2.23-5.241h1.288l3.905 9.179h-0.857zM13.271 31.192l-3.905-9.179h0.824l3.868 9.179h-0.787z"></path>
<path fill="#000" d="M4.625 29.744c-0.026-0.251-0.164-0.62-0.309-0.954-0.115-0.264-0.233-0.506-0.304-0.643-0.026-0.051-0.098-0.051-0.124-0.001-0.158 0.309-0.569 1.145-0.612 1.6-0 0.003-0 0.006-0.001 0.009-0.002 0.023-0.003 0.045-0.003 0.066 0 0.257 0.144 0.477 0.354 0.593 0.097 0.053 0.207 0.086 0.325 0.086 0.375 0 0.679-0.304 0.679-0.679 0-0.020-0.001-0.041-0.003-0.063-0.001-0.005-0.001-0.009-0.002-0.013z"></path>
<path fill="#000" d="M6.479 29.744c-0.027-0.27-0.187-0.681-0.344-1.033-0.104-0.233-0.206-0.441-0.269-0.564-0.026-0.051-0.097-0.051-0.124-0.001-0.158 0.309-0.569 1.145-0.612 1.6-0 0.003-0.001 0.006-0.001 0.009-0.002 0.023-0.003 0.045-0.003 0.066 0 0.233 0.118 0.44 0.297 0.561 0.109 0.074 0.24 0.118 0.381 0.118 0.375 0 0.679-0.304 0.679-0.679 0-0.020-0.001-0.041-0.003-0.063 0-0.005-0-0.009-0.001-0.014z"></path>
<path fill="#000" d="M8.334 29.744c-0.046-0.45-0.454-1.287-0.612-1.597-0.026-0.051-0.098-0.051-0.124-0.001-0.158 0.309-0.569 1.145-0.613 1.6 0 0.003 0 0.006-0 0.009-0.002 0.023-0.003 0.045-0.003 0.066 0 0.375 0.304 0.679 0.679 0.679s0.679-0.304 0.679-0.679c0-0.020-0.001-0.041-0.003-0.063-0-0.005-0.001-0.009-0.001-0.013z"></path>
<path fill="#000" d="M7.804 20.499c0.342 0 0.622-0.253 0.671-0.581 0.005-0.032 0.010-0.065 0.010-0.099 0-0.020-0.002-0.041-0.004-0.063 0-0.005-0.001-0.009-0.001-0.014-0.046-0.451-0.457-1.291-0.615-1.601-0.026-0.051-0.098-0.051-0.124 0-0.16 0.309-0.571 1.148-0.615 1.604-0 0.003-0.001 0.007-0.001 0.009-0.002 0.023-0.003 0.044-0.003 0.066 0 0.077 0.016 0.149 0.039 0.218 0.092 0.268 0.343 0.462 0.642 0.462z"></path>
</svg>
