<?xml version="1.0" encoding="utf-8"?>
<!-- Generated by IcoMoon.io -->
<!DOCTYPE svg PUBLIC "-//W3C//DTD SVG 1.1//EN" "http://www.w3.org/Graphics/SVG/1.1/DTD/svg11.dtd">
<svg version="1.1" xmlns="http://www.w3.org/2000/svg" xmlns:xlink="http://www.w3.org/1999/xlink" width="13" height="32" viewBox="0 0 13 32">
<path fill="#000" d="M3.828 23.96c0.134-0.029 0.274 0.010 0.373 0.105l7.587 7.22c0.123 0.117 0.162 0.297 0.099 0.454s-0.216 0.261-0.386 0.261l-10.472-0.006c-0.138 0-0.266-0.068-0.343-0.182-0.078-0.114-0.093-0.258-0.042-0.386l2.886-7.214c0.051-0.128 0.162-0.221 0.297-0.251zM10.464 31.17l-6.391-6.082-2.431 6.077 8.822 0.005z"></path>
<path fill="#000" d="M3.919 29.324c0.003 0.001 0.007 0.002 0.009 0.003 0.441 0.129 1.371 0.058 1.718 0.025 0.057-0.005 0.083-0.072 0.046-0.115-0.23-0.262-0.857-0.956-1.258-1.166-0.005-0.002-0.009-0.004-0.013-0.006-0.020-0.010-0.039-0.020-0.057-0.027-0.349-0.139-0.746 0.031-0.885 0.38-0.14 0.349 0.029 0.746 0.379 0.885 0.019 0.008 0.041 0.014 0.061 0.021z"></path>
</svg>
