<?xml version="1.0" encoding="utf-8"?>
<!-- Generated by IcoMoon.io -->
<!DOCTYPE svg PUBLIC "-//W3C//DTD SVG 1.1//EN" "http://www.w3.org/Graphics/SVG/1.1/DTD/svg11.dtd">
<svg version="1.1" xmlns="http://www.w3.org/2000/svg" xmlns:xlink="http://www.w3.org/1999/xlink" width="16" height="32" viewBox="0 0 16 32">
<path fill="#000" d="M7.827 30.482c0.376 0 0.681-0.304 0.681-0.681 0-0.020-0.002-0.041-0.004-0.063 0-0.005-0.001-0.009-0.001-0.014-0.046-0.451-0.457-1.29-0.615-1.601-0.026-0.051-0.098-0.051-0.124 0-0.16 0.31-0.571 1.148-0.615 1.604-0 0.003-0.001 0.006-0.001 0.009-0.002 0.022-0.003 0.044-0.003 0.065-0 0.376 0.304 0.681 0.681 0.681z"></path>
<path fill="#000" d="M15.093 26.812l-4.222-10.021h0.883c0.138 0 0.266-0.068 0.343-0.182s0.093-0.258 0.042-0.386l-3.885-9.725c-0.063-0.158-0.216-0.261-0.385-0.261s-0.322 0.103-0.385 0.261l-3.885 9.725c-0.051 0.128-0.035 0.272 0.042 0.386s0.206 0.182 0.343 0.182h0.882l-4.222 10.021c-0.054 0.129-0.040 0.274 0.037 0.39s0.207 0.185 0.345 0.185h4.183l-1.614 4.040c-0.051 0.128-0.035 0.272 0.042 0.386s0.206 0.182 0.343 0.182h7.77c0.138 0 0.266-0.068 0.343-0.182s0.093-0.258 0.042-0.386l-1.614-4.040h4.189c0.139 0 0.268-0.070 0.345-0.185s0.090-0.261 0.037-0.39zM4.597 15.962l3.273-8.193 3.273 8.193h-6.546zM11.139 31.166h-6.545l1.509-3.779h3.526l1.51 3.779zM10.191 26.558h-8.539l4.115-9.767h4.204l4.115 9.767h-3.896z"></path>
<path fill="#000" d="M4.642 25.116c-0.046-0.451-0.457-1.291-0.615-1.602-0.026-0.050-0.098-0.050-0.124 0-0.159 0.31-0.571 1.149-0.614 1.605-0.001 0.003-0.001 0.007-0.001 0.009-0.002 0.023-0.003 0.044-0.003 0.065 0 0.377 0.304 0.681 0.68 0.681s0.681-0.304 0.681-0.681c0-0.020-0.001-0.041-0.003-0.062-0.001-0.005-0.001-0.010-0.002-0.014z"></path>
<path fill="#000" d="M8.361 25.116c-0.045-0.451-0.456-1.291-0.614-1.602-0.018-0.036-0.056-0.037-0.088-0.022-0.013 0.007-0.029 0.007-0.036 0.022-0.159 0.31-0.57 1.149-0.614 1.605 0 0.001 0 0.002 0 0.003 0 0.002-0 0.005-0 0.006-0.002 0.023-0.003 0.044-0.003 0.065 0 0.377 0.305 0.681 0.681 0.681s0.681-0.304 0.681-0.681c0-0.020-0.002-0.041-0.003-0.062-0.002-0.005-0.002-0.010-0.003-0.014z"></path>
<path fill="#000" d="M6.502 25.116c-0.016-0.157-0.077-0.362-0.155-0.574-0.147-0.398-0.356-0.825-0.459-1.028-0.026-0.050-0.097-0.050-0.124 0-0.159 0.31-0.571 1.149-0.614 1.605-0.001 0.003-0.001 0.007-0.001 0.009-0.003 0.023-0.004 0.044-0.004 0.065 0 0.373 0.299 0.674 0.67 0.68 0.004 0 0.007 0.001 0.010 0.001 0.376 0 0.681-0.304 0.681-0.681 0-0.020-0.001-0.041-0.003-0.062-0-0.005-0-0.010-0.001-0.014z"></path>
<path fill="#000" d="M7.83 15.277c0.376 0 0.681-0.304 0.681-0.681 0-0.020-0.002-0.041-0.004-0.063 0-0.005-0.001-0.009-0.001-0.014-0.046-0.451-0.457-1.29-0.615-1.601-0.026-0.051-0.098-0.051-0.124 0-0.16 0.31-0.571 1.148-0.615 1.604-0 0.003-0.001 0.006-0.001 0.009-0.002 0.022-0.003 0.044-0.003 0.065-0 0.376 0.304 0.681 0.681 0.681z"></path>
</svg>
