<?xml version="1.0" encoding="utf-8"?>
<!-- Generated by IcoMoon.io -->
<!DOCTYPE svg PUBLIC "-//W3C//DTD SVG 1.1//EN" "http://www.w3.org/Graphics/SVG/1.1/DTD/svg11.dtd">
<svg version="1.1" xmlns="http://www.w3.org/2000/svg" xmlns:xlink="http://www.w3.org/1999/xlink" width="16" height="32" viewBox="0 0 16 32">
<path fill="#000" d="M15.087 31.437l-3.971-9.425h0.615c0.138 0 0.266-0.068 0.343-0.182s0.093-0.258 0.042-0.386l-3.885-9.725c-0.063-0.158-0.216-0.261-0.385-0.261s-0.322 0.103-0.385 0.261l-3.885 9.725c-0.051 0.128-0.035 0.273 0.042 0.386s0.206 0.182 0.343 0.182h0.657l-3.971 9.425c-0.053 0.126-0.039 0.268 0.036 0.381s0.202 0.182 0.338 0.182h13.692c0.136 0 0.263-0.068 0.338-0.182s0.090-0.256 0.037-0.381zM4.573 21.183l3.273-8.192 3.273 8.192h-6.546zM13.312 31.189h-1.74l-3.307-7.758c-0.063-0.149-0.211-0.247-0.373-0.247s-0.309 0.097-0.373 0.247l-1.623 3.808h0.882l1.114-2.615 2.798 6.565-9.058 0 3.867-9.176h4.738l3.866 9.176h-0.79z"></path>
<path fill="#000" d="M4.638 29.737c-0.026-0.252-0.165-0.622-0.31-0.957-0.115-0.265-0.234-0.508-0.305-0.645-0.026-0.051-0.098-0.051-0.124-0.001-0.159 0.31-0.571 1.149-0.615 1.605-0 0.003-0 0.005-0.001 0.009-0.002 0.023-0.003 0.045-0.003 0.066 0 0.257 0.145 0.479 0.355 0.595 0.097 0.053 0.207 0.086 0.326 0.086 0.376 0 0.681-0.305 0.681-0.681 0-0.020-0.001-0.041-0.003-0.063-0-0.005-0.001-0.008-0.001-0.013z"></path>
<path fill="#000" d="M5.759 28.134c-0.159 0.31-0.571 1.149-0.615 1.605-0 0.003-0.001 0.005-0.001 0.009-0.002 0.023-0.003 0.045-0.003 0.066 0 0.234 0.118 0.441 0.298 0.563 0.109 0.075 0.241 0.118 0.383 0.118 0.376 0 0.681-0.305 0.681-0.681 0-0.020-0.001-0.041-0.003-0.063-0-0.005-0.001-0.009-0.001-0.013-0.027-0.272-0.187-0.683-0.345-1.037-0.104-0.233-0.207-0.442-0.27-0.565-0.025-0.051-0.097-0.051-0.124-0.001z"></path>
<path fill="#000" d="M7.683 30.494c0.377 0 0.681-0.305 0.681-0.681 0-0.020-0.001-0.041-0.004-0.063-0-0.005-0.001-0.009-0.001-0.013-0.046-0.452-0.456-1.292-0.614-1.602-0.026-0.051-0.098-0.051-0.124-0.001-0.159 0.31-0.571 1.149-0.615 1.605-0 0.003-0 0.005-0.001 0.009-0.002 0.023-0.003 0.045-0.003 0.066-0 0.376 0.305 0.68 0.681 0.68z"></path>
<path fill="#000" d="M7.806 20.499c0.376 0 0.681-0.304 0.681-0.68 0-0.020-0.002-0.041-0.004-0.063 0-0.005-0.001-0.009-0.001-0.014-0.046-0.451-0.457-1.291-0.615-1.601-0.026-0.051-0.098-0.051-0.124 0-0.16 0.309-0.571 1.148-0.615 1.604-0 0.003-0.001 0.007-0.001 0.009-0.002 0.023-0.003 0.044-0.003 0.066 0 0.376 0.304 0.68 0.681 0.68z"></path>
</svg>
