<?xml version="1.0" encoding="utf-8"?>
<!-- Generated by IcoMoon.io -->
<!DOCTYPE svg PUBLIC "-//W3C//DTD SVG 1.1//EN" "http://www.w3.org/Graphics/SVG/1.1/DTD/svg11.dtd">
<svg version="1.1" xmlns="http://www.w3.org/2000/svg" xmlns:xlink="http://www.w3.org/1999/xlink" width="10" height="32" viewBox="0 0 10 32">
<path fill="#000" d="M8.8 32h-7.77c-0.138 0-0.266-0.068-0.343-0.182s-0.093-0.258-0.042-0.386l3.885-9.725c0.063-0.158 0.216-0.261 0.385-0.261s0.322 0.103 0.385 0.261l3.886 9.725c0.051 0.128 0.035 0.273-0.042 0.386s-0.206 0.182-0.343 0.182zM1.642 31.171h6.546l-3.273-8.192-3.273 8.192z"></path>
<path fill="#000" d="M4.198 29.74c0-0.003 0-0.006 0.001-0.009 0.044-0.456 0.455-1.294 0.615-1.604 0.026-0.051 0.098-0.051 0.124 0 0.158 0.31 0.569 1.15 0.615 1.601 0 0.005 0.001 0.009 0.001 0.014 0.002 0.022 0.004 0.043 0.004 0.063 0 0.376-0.305 0.68-0.681 0.68s-0.681-0.304-0.681-0.68c0-0.021 0.001-0.043 0.003-0.066z"></path>
</svg>
