<?xml version="1.0" encoding="utf-8"?>
<!-- Generated by IcoMoon.io -->
<!DOCTYPE svg PUBLIC "-//W3C//DTD SVG 1.1//EN" "http://www.w3.org/Graphics/SVG/1.1/DTD/svg11.dtd">
<svg version="1.1" xmlns="http://www.w3.org/2000/svg" xmlns:xlink="http://www.w3.org/1999/xlink" width="13" height="32" viewBox="0 0 13 32">
<path fill="#000" d="M9.001 24.212l2.886 7.214c0.051 0.128 0.036 0.272-0.042 0.386s-0.205 0.182-0.343 0.182l-10.473 0.006c-0.17 0-0.322-0.104-0.385-0.261s-0.024-0.338 0.099-0.454l7.587-7.22c0.1-0.095 0.24-0.134 0.373-0.105 0.136 0.030 0.246 0.123 0.297 0.251zM10.89 31.165l-2.431-6.077-6.391 6.082 8.823-0.005z"></path>
<path fill="#000" d="M8.613 29.324c-0.003 0.001-0.007 0.002-0.009 0.003-0.441 0.129-1.371 0.058-1.718 0.025-0.057-0.005-0.083-0.072-0.046-0.115 0.23-0.262 0.857-0.956 1.258-1.166 0.005-0.002 0.009-0.004 0.013-0.006 0.020-0.010 0.039-0.020 0.057-0.027 0.349-0.139 0.746 0.031 0.884 0.38 0.14 0.349-0.029 0.746-0.379 0.885-0.020 0.008-0.041 0.014-0.061 0.021z"></path>
</svg>
