<?xml version="1.0" encoding="utf-8"?>
<!-- Generated by IcoMoon.io -->
<!DOCTYPE svg PUBLIC "-//W3C//DTD SVG 1.1//EN" "http://www.w3.org/Graphics/SVG/1.1/DTD/svg11.dtd">
<svg version="1.1" xmlns="http://www.w3.org/2000/svg" xmlns:xlink="http://www.w3.org/1999/xlink" width="33" height="32" viewBox="0 0 33 32">
<path d="M23.827 32h-22.426c-0.434 0-0.786-0.351-0.786-0.786v-21.708c0-0.222 0.092-0.422 0.24-0.564l7.737-7.49c0.147-0.142 0.343-0.222 0.546-0.222h22.426c0.434 0 0.786 0.352 0.786 0.786v21.708c0 0.213-0.086 0.416-0.24 0.565l-7.737 7.49c-0.141 0.136-0.333 0.221-0.546 0.221zM2.187 30.429h20.854v-20.136h-20.854v20.136zM24.612 9.839v19.52l6.166-5.968v-19.52l-6.166 5.968zM3.343 8.721h20.167l6.113-5.918h-20.166l-6.114 5.918z"></path>
<path d="M11.982 24.49c0 0.515 0.417 0.933 0.933 0.933s0.934-0.417 0.934-0.933-0.418-0.933-0.934-0.933c-0.516-0.001-0.933 0.418-0.933 0.933z"></path>
<path d="M16.234 27.612h-6.638c-0.258 0-0.501-0.124-0.651-0.335s-0.191-0.479-0.108-0.724l3.078-9.059c0.108-0.318 0.404-0.536 0.74-0.543 0.339-0.020 0.642 0.196 0.765 0.508l3.56 9.059c0.097 0.246 0.065 0.526-0.083 0.744-0.149 0.22-0.397 0.35-0.662 0.35zM10.715 26.010h4.343l-2.329-5.928-2.014 5.928z"></path>
</svg>
