<?xml version="1.0" encoding="utf-8"?>
<!-- Generated by IcoMoon.io -->
<!DOCTYPE svg PUBLIC "-//W3C//DTD SVG 1.1//EN" "http://www.w3.org/Graphics/SVG/1.1/DTD/svg11.dtd">
<svg version="1.1" xmlns="http://www.w3.org/2000/svg" xmlns:xlink="http://www.w3.org/1999/xlink" width="33" height="32" viewBox="0 0 33 32">
<path d="M10.753 25.303c0 0.516-0.418 0.933-0.933 0.933s-0.933-0.418-0.933-0.933c0-0.516 0.418-0.933 0.933-0.933s0.933 0.418 0.933 0.933z"></path>
<path d="M13.123 25.303c0 0.516-0.418 0.933-0.933 0.933s-0.933-0.418-0.933-0.933c0-0.516 0.418-0.933 0.933-0.933s0.933 0.418 0.933 0.933z"></path>
<path d="M15.494 25.303c0 0.516-0.418 0.933-0.933 0.933s-0.933-0.418-0.933-0.933c0-0.516 0.418-0.933 0.933-0.933s0.933 0.418 0.933 0.933z"></path>
<path d="M5.718 28.929h12.83c0.268 0 0.519-0.134 0.667-0.357s0.176-0.507 0.073-0.754l-6.359-15.208c-0.124-0.297-0.414-0.491-0.737-0.492-0.001 0-0.002 0-0.002 0-0.321 0-0.611 0.192-0.737 0.488l-6.472 15.207c-0.105 0.247-0.079 0.532 0.069 0.756s0.399 0.359 0.668 0.359zM12.183 14.982l5.162 12.345h-10.414l5.253-12.345z"></path>
<path d="M31.564 1.23h-22.426c-0.204 0-0.4 0.079-0.546 0.222l-7.737 7.49c-0.148 0.143-0.24 0.343-0.24 0.564v21.708c0 0.434 0.352 0.786 0.786 0.786h22.426c0.213 0 0.405-0.084 0.546-0.221l7.737-7.49c0.153-0.148 0.24-0.352 0.24-0.565v-21.708c0-0.434-0.351-0.786-0.786-0.786zM23.041 30.429h-20.854v-20.136h20.854v20.136zM23.509 8.721h-20.167l6.114-5.918h20.166l-6.113 5.918zM30.778 23.391l-6.166 5.968v-19.521l6.166-5.968v19.521z"></path>
</svg>
