<?xml version="1.0" encoding="utf-8"?>
<!-- Generated by IcoMoon.io -->
<!DOCTYPE svg PUBLIC "-//W3C//DTD SVG 1.1//EN" "http://www.w3.org/Graphics/SVG/1.1/DTD/svg11.dtd">
<svg version="1.1" xmlns="http://www.w3.org/2000/svg" xmlns:xlink="http://www.w3.org/1999/xlink" width="33" height="32" viewBox="0 0 33 32">
<path d="M13.11 25.303c0 0.515-0.417 0.933-0.933 0.933s-0.934-0.418-0.934-0.933c0-0.515 0.418-0.933 0.934-0.933s0.933 0.418 0.933 0.933z"></path>
<path d="M15.481 25.303c0 0.515-0.418 0.933-0.933 0.933s-0.933-0.418-0.933-0.933c0-0.515 0.418-0.933 0.933-0.933s0.933 0.418 0.933 0.933z"></path>
<path d="M17.851 25.303c0 0.515-0.417 0.933-0.933 0.933s-0.934-0.418-0.934-0.933c0-0.515 0.418-0.933 0.934-0.933s0.933 0.418 0.933 0.933z"></path>
<path d="M20.905 28.929h-12.83c-0.269 0-0.52-0.134-0.669-0.359s-0.174-0.508-0.069-0.756l6.471-15.208c0.126-0.295 0.416-0.488 0.737-0.488 0.001 0 0.002 0 0.002 0 0.322 0.001 0.612 0.195 0.737 0.492l6.359 15.208c0.103 0.247 0.076 0.53-0.073 0.754-0.146 0.224-0.398 0.358-0.666 0.358zM9.287 27.327h10.414l-5.162-12.345-5.253 12.345z"></path>
<path d="M23.827 32h-22.426c-0.434 0-0.786-0.351-0.786-0.786v-21.708c0-0.222 0.092-0.422 0.24-0.564l7.737-7.49c0.147-0.142 0.343-0.222 0.546-0.222h22.426c0.434 0 0.786 0.352 0.786 0.786v21.708c0 0.213-0.086 0.416-0.24 0.565l-7.737 7.49c-0.141 0.136-0.333 0.221-0.546 0.221zM2.187 30.429h20.854v-20.136h-20.854v20.136zM24.612 9.839v19.52l6.166-5.968v-19.52l-6.166 5.968zM3.343 8.721h20.167l6.113-5.918h-20.166l-6.114 5.918z"></path>
<path d="M6.861 14.606c0-0.515 0.417-0.933 0.933-0.933s0.934 0.417 0.934 0.933-0.418 0.933-0.934 0.933c-0.515 0-0.933-0.418-0.933-0.933z"></path>
<path d="M7.553 22.146c-0.006 0-0.013 0-0.019 0-0.336-0.008-0.632-0.225-0.74-0.543l-3.078-9.060c-0.083-0.245-0.043-0.515 0.108-0.724s0.393-0.335 0.651-0.335h6.638c0.265 0 0.513 0.131 0.662 0.35s0.181 0.497 0.083 0.744l-3.56 9.059c-0.12 0.307-0.416 0.508-0.746 0.508zM5.594 13.087l2.014 5.927 2.329-5.927h-4.343z"></path>
</svg>
