<?xml version="1.0" encoding="utf-8"?>
<!-- Generated by IcoMoon.io -->
<!DOCTYPE svg PUBLIC "-//W3C//DTD SVG 1.1//EN" "http://www.w3.org/Graphics/SVG/1.1/DTD/svg11.dtd">
<svg version="1.1" xmlns="http://www.w3.org/2000/svg" xmlns:xlink="http://www.w3.org/1999/xlink" width="33" height="32" viewBox="0 0 33 32">
<path d="M12.212 24.536c0 0.516-0.418 0.933-0.933 0.933s-0.933-0.418-0.933-0.933c0-0.516 0.418-0.933 0.933-0.933s0.933 0.418 0.933 0.933z"></path>
<path d="M7.915 27.726h9.518c0.264 0 0.511-0.13 0.661-0.346 0.148-0.217 0.181-0.495 0.087-0.741l-4.902-12.797c-0.119-0.31-0.416-0.515-0.749-0.515-0.002 0-0.005 0-0.008 0-0.335 0.003-0.633 0.214-0.746 0.53l-4.615 12.797c-0.089 0.246-0.052 0.519 0.098 0.732s0.394 0.34 0.655 0.34zM12.554 16.427l3.715 9.697h-7.212l3.497-9.697z"></path>
<path d="M14.541 24.536c0 0.516-0.418 0.933-0.933 0.933s-0.933-0.418-0.933-0.933c0-0.516 0.418-0.933 0.933-0.933s0.933 0.418 0.933 0.933z"></path>
<path d="M31.564 1.23h-22.426c-0.204 0-0.4 0.079-0.546 0.222l-7.737 7.49c-0.148 0.143-0.24 0.343-0.24 0.564v21.708c0 0.434 0.352 0.786 0.786 0.786h22.426c0.213 0 0.405-0.084 0.546-0.221l7.737-7.49c0.153-0.148 0.24-0.352 0.24-0.565v-21.708c0-0.434-0.351-0.786-0.786-0.786zM23.041 30.429h-20.854v-20.136h20.854v20.136zM23.509 8.721h-20.167l6.114-5.918h20.166l-6.113 5.918zM30.778 23.391l-6.166 5.968v-19.521l6.166-5.968v19.521z"></path>
</svg>
