<?xml version="1.0" encoding="utf-8"?>
<!-- Generated by IcoMoon.io -->
<!DOCTYPE svg PUBLIC "-//W3C//DTD SVG 1.1//EN" "http://www.w3.org/Graphics/SVG/1.1/DTD/svg11.dtd">
<svg version="1.1" xmlns="http://www.w3.org/2000/svg" xmlns:xlink="http://www.w3.org/1999/xlink" width="16" height="32" viewBox="0 0 16 32">
<path fill="#000" d="M3.96 21.744c0.377 0 0.681-0.305 0.681-0.681 0-0.020-0.001-0.041-0.003-0.063-0-0.005-0.001-0.009-0.001-0.014-0.020-0.196-0.11-0.465-0.216-0.733-0.139-0.348-0.309-0.693-0.398-0.869-0.026-0.051-0.098-0.051-0.124 0-0.020 0.040-0.045 0.089-0.073 0.144-0.135 0.272-0.339 0.709-0.455 1.080-0.044 0.14-0.076 0.271-0.086 0.38-0.001 0.003-0.001 0.007-0.001 0.009-0.002 0.022-0.003 0.044-0.003 0.065 0 0.321 0.223 0.589 0.521 0.661 0.051 0.012 0.104 0.021 0.159 0.021z"></path>
<path fill="#000" d="M7.679 21.744c0.376 0 0.681-0.305 0.681-0.681 0-0.020-0.002-0.041-0.003-0.063-0.001-0.005-0.001-0.009-0.002-0.014-0.045-0.451-0.456-1.291-0.614-1.601-0.026-0.051-0.098-0.051-0.124 0-0.159 0.31-0.57 1.148-0.614 1.604-0 0.003-0 0.007-0.001 0.009-0.002 0.022-0.003 0.044-0.003 0.065-0 0.376 0.304 0.681 0.68 0.681z"></path>
<path fill="#000" d="M3.966 26.139c0.377 0 0.681-0.305 0.681-0.681 0-0.020-0.001-0.041-0.003-0.063-0-0.004-0.001-0.009-0.001-0.014-0.021-0.205-0.118-0.491-0.232-0.771-0.136-0.335-0.296-0.661-0.382-0.83-0.026-0.051-0.098-0.051-0.124 0-0.159 0.309-0.571 1.148-0.614 1.604-0.001 0.003-0.001 0.007-0.001 0.010-0.002 0.022-0.003 0.044-0.003 0.065 0 0.31 0.209 0.57 0.493 0.651 0.060 0.018 0.122 0.030 0.187 0.030z"></path>
<path fill="#000" d="M5.825 26.139c0.376 0 0.681-0.305 0.681-0.681 0-0.020-0.001-0.041-0.003-0.063-0.001-0.004-0.001-0.009-0.002-0.014-0.045-0.45-0.456-1.291-0.614-1.601-0.026-0.051-0.097-0.051-0.124 0-0.159 0.309-0.571 1.148-0.614 1.604-0.001 0.003-0.001 0.007-0.001 0.010-0.003 0.022-0.004 0.044-0.004 0.065-0 0.376 0.305 0.681 0.68 0.681z"></path>
<path fill="#000" d="M7.685 26.139c0.376 0 0.681-0.305 0.681-0.681 0-0.020-0.002-0.041-0.003-0.063-0.001-0.004-0.001-0.009-0.002-0.014-0.045-0.45-0.456-1.291-0.614-1.601-0.026-0.051-0.098-0.051-0.124 0-0.159 0.309-0.57 1.148-0.614 1.604-0 0.003-0 0.007-0.001 0.010-0.002 0.022-0.003 0.044-0.003 0.065 0 0.376 0.305 0.681 0.68 0.681z"></path>
<path fill="#000" d="M13.498 27.653h1.213c0.139 0 0.268-0.070 0.345-0.185s0.091-0.262 0.037-0.39l-1.609-3.819h1.22c0.139 0 0.268-0.070 0.345-0.185s0.091-0.262 0.037-0.39l-6.842-16.239c-0.065-0.154-0.216-0.254-0.382-0.254s-0.318 0.1-0.382 0.254l-6.842 16.239c-0.054 0.128-0.040 0.274 0.037 0.39s0.207 0.185 0.345 0.185h1.233l-1.609 3.819c-0.054 0.128-0.040 0.274 0.037 0.39s0.207 0.185 0.345 0.185h1.201l-1.589 3.771c-0.054 0.128-0.040 0.274 0.037 0.39s0.207 0.185 0.345 0.185h13.684c0.139 0 0.268-0.070 0.345-0.185s0.091-0.262 0.037-0.39l-1.589-3.771zM1.646 22.428l6.217-14.756 6.217 14.756h-12.434zM1.652 26.823l1.502-3.566h9.43l1.502 3.566h-12.435zM1.646 31.171l1.482-3.518h9.47l1.482 3.518h-12.434z"></path>
<path fill="#000" d="M5.63 21.714c0.061 0.018 0.123 0.030 0.189 0.030 0.376 0 0.681-0.305 0.681-0.681 0-0.020-0.001-0.041-0.003-0.063-0.001-0.005-0.001-0.009-0.002-0.014-0.021-0.206-0.119-0.493-0.233-0.773-0.136-0.334-0.295-0.659-0.381-0.828-0.026-0.051-0.097-0.051-0.124 0-0.159 0.31-0.571 1.148-0.614 1.604-0.001 0.003-0.001 0.007-0.001 0.010-0.003 0.022-0.004 0.044-0.004 0.065 0 0.31 0.209 0.569 0.492 0.651z"></path>
<path fill="#000" d="M4.636 29.728c-0.046-0.45-0.457-1.291-0.615-1.601-0.026-0.051-0.098-0.051-0.124 0-0.159 0.309-0.571 1.148-0.614 1.604-0.001 0.003-0.001 0.007-0.001 0.010-0.002 0.022-0.003 0.044-0.003 0.065 0 0.376 0.304 0.681 0.68 0.681s0.681-0.305 0.681-0.681c0-0.020-0.001-0.041-0.003-0.063-0.001-0.004-0.001-0.009-0.002-0.014z"></path>
<path fill="#000" d="M6.495 29.728c-0.045-0.45-0.456-1.291-0.614-1.601-0.026-0.051-0.097-0.051-0.124 0-0.159 0.309-0.571 1.148-0.614 1.604-0.001 0.003-0.001 0.007-0.001 0.010-0.003 0.022-0.004 0.044-0.004 0.065 0 0.376 0.305 0.681 0.681 0.681s0.681-0.305 0.681-0.681c0-0.020-0.001-0.041-0.003-0.063-0.001-0.004-0.001-0.009-0.002-0.014z"></path>
<path fill="#000" d="M8.355 29.728c-0.045-0.45-0.456-1.291-0.614-1.601-0.026-0.051-0.098-0.051-0.124 0-0.159 0.309-0.57 1.148-0.614 1.604-0 0.003-0 0.007-0.001 0.010-0.002 0.022-0.003 0.044-0.003 0.065 0 0.376 0.305 0.681 0.681 0.681s0.681-0.305 0.681-0.681c0-0.020-0.002-0.041-0.003-0.063-0.001-0.004-0.001-0.009-0.002-0.014z"></path>
</svg>
