<?xml version="1.0" encoding="utf-8"?>
<!-- Generated by IcoMoon.io -->
<!DOCTYPE svg PUBLIC "-//W3C//DTD SVG 1.1//EN" "http://www.w3.org/Graphics/SVG/1.1/DTD/svg11.dtd">
<svg version="1.1" xmlns="http://www.w3.org/2000/svg" xmlns:xlink="http://www.w3.org/1999/xlink" width="16" height="32" viewBox="0 0 16 32">
<path fill="#000" d="M5.612 30.482c0.376 0 0.681-0.304 0.681-0.681 0-0.020-0.001-0.041-0.003-0.063-0.001-0.005-0.001-0.009-0.002-0.014-0.045-0.451-0.456-1.29-0.614-1.601-0.026-0.051-0.097-0.051-0.124 0-0.159 0.31-0.571 1.148-0.614 1.604-0.001 0.003-0.001 0.006-0.001 0.009-0.002 0.022-0.003 0.044-0.003 0.065 0 0.376 0.305 0.681 0.68 0.681z"></path>
<path fill="#000" d="M7.472 30.482c0.376 0 0.681-0.304 0.681-0.681 0-0.020-0.002-0.041-0.003-0.063-0.001-0.005-0.001-0.009-0.002-0.014-0.045-0.451-0.456-1.29-0.614-1.601-0.026-0.051-0.098-0.051-0.124 0-0.159 0.31-0.571 1.148-0.614 1.604-0.001 0.003-0.001 0.006-0.001 0.009-0.003 0.022-0.004 0.044-0.004 0.065-0 0.376 0.304 0.681 0.68 0.681z"></path>
<path fill="#000" d="M13.504 23.305h1.207c0.139 0 0.268-0.070 0.345-0.185s0.091-0.262 0.037-0.39l-6.842-16.239c-0.065-0.154-0.216-0.254-0.382-0.254s-0.318 0.1-0.382 0.254l-6.842 16.239c-0.054 0.129-0.040 0.274 0.037 0.39s0.207 0.185 0.346 0.185h1.207l-1.589 3.772c-0.054 0.129-0.040 0.274 0.037 0.39s0.207 0.185 0.345 0.185h2.708l-1.431 3.782c-0.048 0.127-0.031 0.27 0.047 0.382s0.205 0.179 0.341 0.179h10.348c0.136 0 0.264-0.067 0.341-0.179s0.095-0.255 0.047-0.382l-1.431-3.782h2.714c0.139 0 0.268-0.070 0.345-0.185s0.091-0.262 0.037-0.39l-1.589-3.772zM1.652 22.475l6.217-14.756 6.218 14.756h-12.435zM12.44 31.166h-9.148l1.329-3.514h6.488l1.33 3.514zM11.683 26.823h-10.031l1.482-3.518h9.47l1.482 3.518h-2.403z"></path>
<path fill="#000" d="M6.502 25.381c-0.037-0.367-0.313-0.986-0.501-1.373-0.043-0.090-0.084-0.17-0.113-0.229-0.026-0.050-0.097-0.050-0.124 0-0.159 0.31-0.571 1.149-0.614 1.604-0.001 0.003-0.001 0.007-0.001 0.009-0.003 0.023-0.004 0.044-0.004 0.065 0 0.16 0.057 0.304 0.148 0.42 0.125 0.158 0.316 0.261 0.532 0.261 0.376 0 0.681-0.304 0.681-0.681 0-0.020-0.001-0.041-0.003-0.062-0.001-0.005-0.001-0.009-0.002-0.013z"></path>
<path fill="#000" d="M8.361 25.381c-0.045-0.451-0.456-1.291-0.614-1.602-0.026-0.050-0.098-0.050-0.124 0-0.159 0.31-0.57 1.149-0.614 1.604-0 0.003-0 0.007-0.001 0.009-0.002 0.023-0.003 0.044-0.003 0.065 0 0.377 0.305 0.681 0.681 0.681s0.681-0.304 0.681-0.681c0-0.020-0.002-0.041-0.003-0.062-0.001-0.005-0.001-0.010-0.002-0.014z"></path>
<path fill="#000" d="M4.642 25.381c-0.003-0.026-0.010-0.058-0.015-0.087-0.081-0.465-0.45-1.222-0.599-1.515-0.026-0.050-0.098-0.050-0.124 0-0.159 0.31-0.571 1.149-0.614 1.604-0.001 0.003-0.001 0.007-0.001 0.009-0.002 0.023-0.003 0.044-0.003 0.065 0 0.377 0.304 0.681 0.68 0.681 0.145 0 0.278-0.045 0.388-0.122 0.177-0.123 0.293-0.327 0.293-0.559 0-0.020-0.001-0.041-0.003-0.062-0.001-0.005-0.001-0.010-0.002-0.014z"></path>
<path fill="#000" d="M3.784 21.763c0.058 0.016 0.119 0.028 0.182 0.028 0.377 0 0.681-0.304 0.681-0.681 0-0.020-0.001-0.041-0.003-0.062-0-0.005-0.001-0.010-0.001-0.014-0.021-0.204-0.117-0.486-0.229-0.764-0.137-0.337-0.299-0.667-0.385-0.838-0.026-0.050-0.098-0.050-0.124 0-0.159 0.31-0.571 1.149-0.614 1.604-0.001 0.003-0.001 0.007-0.001 0.009-0.002 0.023-0.003 0.044-0.003 0.065-0 0.314 0.211 0.574 0.498 0.654z"></path>
<path fill="#000" d="M5.825 21.791c0.045 0 0.089-0.005 0.132-0.013 0.313-0.061 0.549-0.337 0.549-0.668 0-0.020-0.001-0.041-0.003-0.062-0.001-0.005-0.001-0.010-0.002-0.014-0.012-0.119-0.051-0.267-0.102-0.424-0.143-0.436-0.396-0.949-0.512-1.178-0.026-0.050-0.097-0.050-0.124 0-0.159 0.31-0.571 1.149-0.614 1.604-0.001 0.003-0.001 0.007-0.001 0.009-0.003 0.023-0.004 0.044-0.004 0.065 0 0.376 0.305 0.681 0.681 0.681z"></path>
<path fill="#000" d="M7.685 21.791c0.376 0 0.681-0.304 0.681-0.681 0-0.020-0.002-0.041-0.003-0.062-0.001-0.005-0.001-0.010-0.002-0.014-0.045-0.451-0.456-1.291-0.614-1.602-0.003-0.005-0.009-0.004-0.012-0.008-0.031-0.036-0.088-0.037-0.112 0.008-0.159 0.31-0.57 1.149-0.614 1.604-0 0.003-0 0.007-0.001 0.009-0.002 0.023-0.003 0.044-0.003 0.065 0 0.061 0.011 0.12 0.026 0.176 0.078 0.291 0.34 0.505 0.654 0.505z"></path>
</svg>
