<?xml version="1.0" encoding="utf-8"?>
<!-- Generated by IcoMoon.io -->
<!DOCTYPE svg PUBLIC "-//W3C//DTD SVG 1.1//EN" "http://www.w3.org/Graphics/SVG/1.1/DTD/svg11.dtd">
<svg version="1.1" xmlns="http://www.w3.org/2000/svg" xmlns:xlink="http://www.w3.org/1999/xlink" width="16" height="32" viewBox="0 0 16 32">
<path fill="#000" d="M15.090 22.729l-6.842-16.238c-0.065-0.154-0.216-0.254-0.382-0.254s-0.318 0.1-0.382 0.254l-6.842 16.238c-0.054 0.129-0.040 0.274 0.037 0.39s0.207 0.185 0.345 0.185h2.624l-1.344 3.552c-0.048 0.127-0.031 0.27 0.047 0.382s0.205 0.179 0.341 0.179h1.132l-1.52 4.017c-0.048 0.127-0.031 0.27 0.047 0.382s0.205 0.179 0.341 0.179h10.348c0.136 0 0.264-0.067 0.341-0.179s0.095-0.255 0.047-0.382l-1.519-4.017h1.132c0.136 0 0.263-0.067 0.341-0.179s0.095-0.255 0.047-0.382l-1.343-3.552h2.623c0.139 0 0.268-0.070 0.345-0.185s0.092-0.262 0.038-0.39zM12.44 31.166h-9.148l1.418-3.749h6.311l1.419 3.749zM12.44 26.588h-9.148l1.242-3.284h6.663l1.242 3.284zM11.771 22.475h-10.122l6.217-14.756 6.217 14.756h-2.312z"></path>
<path fill="#000" d="M7.734 19.426c-0.030-0.039-0.090-0.041-0.114 0.006-0.159 0.31-0.57 1.149-0.614 1.604-0 0.003-0 0.007-0.001 0.009-0.002 0.023-0.003 0.044-0.003 0.065 0 0.063 0.011 0.123 0.027 0.182 0.080 0.287 0.34 0.5 0.653 0.5 0.376 0 0.681-0.304 0.681-0.681 0-0.020-0.002-0.041-0.003-0.062-0.001-0.005-0.001-0.010-0.002-0.014-0.045-0.451-0.456-1.291-0.614-1.602-0.002-0.004-0.007-0.003-0.010-0.006z"></path>
<path fill="#000" d="M6.498 21.034c-0.012-0.118-0.050-0.264-0.101-0.419-0.121-0.367-0.318-0.79-0.448-1.052-0.024-0.049-0.047-0.095-0.066-0.131-0.026-0.050-0.097-0.050-0.124 0-0.159 0.31-0.571 1.149-0.614 1.604-0.001 0.003-0.001 0.007-0.001 0.009-0.003 0.023-0.004 0.044-0.004 0.065 0 0.125 0.036 0.24 0.095 0.341 0.118 0.202 0.335 0.34 0.586 0.34 0.046 0 0.092-0.005 0.136-0.013 0.311-0.063 0.546-0.337 0.546-0.668 0-0.020-0.001-0.041-0.003-0.062-0.001-0.005-0.001-0.010-0.002-0.014z"></path>
<path fill="#000" d="M5.612 30.482c0.376 0 0.681-0.304 0.681-0.681 0-0.020-0.001-0.041-0.003-0.063-0.001-0.005-0.001-0.009-0.002-0.014-0.045-0.451-0.456-1.29-0.614-1.601-0.026-0.051-0.097-0.051-0.124 0-0.159 0.31-0.571 1.148-0.614 1.604-0.001 0.003-0.001 0.006-0.001 0.009-0.002 0.022-0.003 0.044-0.003 0.065 0 0.376 0.305 0.681 0.68 0.681z"></path>
<path fill="#000" d="M7.472 30.482c0.376 0 0.681-0.304 0.681-0.681 0-0.020-0.002-0.041-0.003-0.063-0.001-0.005-0.001-0.009-0.002-0.014-0.045-0.451-0.456-1.29-0.614-1.601-0.026-0.051-0.098-0.051-0.124 0-0.159 0.31-0.571 1.148-0.614 1.604-0.001 0.003-0.001 0.006-0.001 0.009-0.003 0.022-0.004 0.044-0.004 0.065-0 0.376 0.304 0.681 0.68 0.681z"></path>
<path fill="#000" d="M4.639 21.034c-0.007-0.068-0.024-0.147-0.046-0.23-0.121-0.465-0.435-1.108-0.569-1.373-0.026-0.050-0.098-0.050-0.124 0-0.159 0.31-0.571 1.149-0.614 1.604-0.001 0.003-0.001 0.007-0.001 0.009-0.002 0.023-0.003 0.044-0.003 0.065 0 0.377 0.304 0.681 0.68 0.681 0.101 0 0.195-0.023 0.281-0.061 0.236-0.107 0.4-0.343 0.4-0.62 0-0.020-0.001-0.041-0.003-0.062-0.001-0.005-0.001-0.010-0.001-0.014z"></path>
<path fill="#000" d="M6.289 25.146c-0.027-0.266-0.181-0.665-0.335-1.013-0.107-0.242-0.214-0.46-0.279-0.588-0.026-0.050-0.097-0.050-0.124 0-0.159 0.31-0.571 1.148-0.614 1.605-0.001 0.003-0.001 0.006-0.001 0.009-0.002 0.022-0.003 0.044-0.003 0.065 0 0.268 0.155 0.496 0.38 0.608 0.091 0.045 0.192 0.073 0.301 0.073 0.376 0 0.681-0.304 0.681-0.681 0-0.020-0.001-0.041-0.003-0.063-0.001-0.004-0.001-0.009-0.002-0.014z"></path>
<path fill="#000" d="M8.148 25.146c-0.045-0.45-0.456-1.29-0.615-1.601-0.026-0.050-0.098-0.050-0.124 0-0.159 0.31-0.571 1.148-0.614 1.605-0.001 0.003-0.001 0.006-0.001 0.009-0.003 0.022-0.004 0.044-0.004 0.065 0 0.377 0.305 0.681 0.681 0.681s0.681-0.304 0.681-0.681c0-0.020-0.002-0.041-0.003-0.063-0.001-0.004-0.001-0.009-0.002-0.014z"></path>
</svg>
