<?xml version="1.0" encoding="utf-8"?>
<!-- Generated by IcoMoon.io -->
<!DOCTYPE svg PUBLIC "-//W3C//DTD SVG 1.1//EN" "http://www.w3.org/Graphics/SVG/1.1/DTD/svg11.dtd">
<svg version="1.1" xmlns="http://www.w3.org/2000/svg" xmlns:xlink="http://www.w3.org/1999/xlink" width="16" height="32" viewBox="0 0 16 32">
<path fill="#000" d="M15.093 17.723l-6.842-16.238c-0.065-0.154-0.216-0.254-0.382-0.254s-0.318 0.1-0.382 0.254l-6.842 16.238c-0.054 0.129-0.040 0.274 0.037 0.39s0.207 0.185 0.345 0.185h4.221l-1.651 4.134c-0.051 0.128-0.035 0.273 0.042 0.386s0.206 0.182 0.343 0.182h1.514l-3.191 8.434c-0.048 0.127-0.031 0.27 0.047 0.382s0.205 0.179 0.341 0.179h10.348c0.136 0 0.264-0.067 0.341-0.179s0.095-0.255 0.047-0.382l-3.19-8.434h1.513c0.138 0 0.266-0.068 0.343-0.182s0.093-0.258 0.042-0.386l-1.651-4.134h4.226c0.139 0 0.268-0.070 0.345-0.185s0.091-0.262 0.037-0.391zM12.44 31.166h-9.148l3.089-8.165h2.97l3.089 8.165zM11.139 22.172h-6.546l1.547-3.873h3.45l1.548 3.873zM10.153 17.469h-8.502l6.218-14.756 6.217 14.756h-3.933z"></path>
<path fill="#000" d="M4.642 16.028c-0.046-0.451-0.457-1.291-0.615-1.602-0.026-0.050-0.098-0.050-0.124 0-0.159 0.31-0.571 1.149-0.614 1.604-0.001 0.003-0.001 0.007-0.001 0.009-0.002 0.023-0.003 0.044-0.003 0.065 0 0.377 0.304 0.681 0.68 0.681s0.681-0.304 0.681-0.681c0-0.020-0.001-0.041-0.003-0.062-0.001-0.005-0.001-0.010-0.002-0.014z"></path>
<path fill="#000" d="M7.699 14.397c-0.029-0.007-0.061-0.002-0.077 0.029-0.159 0.31-0.57 1.149-0.614 1.604-0 0.003-0 0.007-0.001 0.009-0.002 0.023-0.003 0.044-0.003 0.065 0 0.009 0.002 0.017 0.003 0.026 0.014 0.364 0.311 0.655 0.678 0.655 0.376 0 0.681-0.304 0.681-0.681 0-0.020-0.002-0.041-0.003-0.062-0.001-0.005-0.001-0.010-0.002-0.014-0.045-0.451-0.456-1.291-0.614-1.602-0.010-0.020-0.029-0.024-0.048-0.029z"></path>
<path fill="#000" d="M6.289 29.725c-0.045-0.451-0.456-1.29-0.614-1.601-0.026-0.051-0.097-0.051-0.124 0-0.159 0.31-0.571 1.148-0.614 1.604-0.001 0.003-0.001 0.006-0.001 0.009-0.002 0.022-0.003 0.044-0.003 0.065 0 0.376 0.305 0.681 0.681 0.681s0.681-0.304 0.681-0.681c0-0.020-0.001-0.041-0.003-0.063-0.001-0.005-0.001-0.009-0.002-0.014z"></path>
<path fill="#000" d="M8.148 29.725c-0.045-0.451-0.456-1.29-0.614-1.601-0.026-0.051-0.098-0.051-0.124 0-0.159 0.31-0.571 1.148-0.614 1.604-0.001 0.003-0.001 0.006-0.001 0.009-0.003 0.022-0.004 0.044-0.004 0.065 0 0.376 0.305 0.681 0.681 0.681s0.681-0.304 0.681-0.681c0-0.020-0.002-0.041-0.003-0.063-0.001-0.005-0.001-0.009-0.002-0.014z"></path>
<path fill="#000" d="M6.502 16.028c-0.014-0.145-0.068-0.33-0.138-0.524-0.147-0.412-0.369-0.866-0.476-1.078-0.026-0.050-0.097-0.050-0.124 0-0.159 0.31-0.571 1.149-0.614 1.604-0.001 0.003-0.001 0.007-0.001 0.009-0.003 0.023-0.004 0.044-0.004 0.065 0 0.377 0.305 0.681 0.681 0.681 0.010 0 0.018-0.003 0.028-0.003 0.363-0.015 0.653-0.311 0.653-0.678 0-0.020-0.001-0.041-0.003-0.062-0.001-0.005-0.001-0.010-0.002-0.014z"></path>
<path fill="#000" d="M8.504 20.743c0-0.004-0.001-0.009-0.001-0.014-0.046-0.45-0.457-1.29-0.615-1.601-0-0.001-0.002-0-0.003-0.001-0.007-0.012-0.020-0.013-0.032-0.020-0.032-0.017-0.071-0.016-0.090 0.021-0.16 0.31-0.571 1.148-0.615 1.604-0 0.003-0.001 0.006-0.001 0.009-0.002 0.022-0.003 0.044-0.003 0.065 0 0.047 0.005 0.093 0.014 0.138 0.063 0.31 0.338 0.544 0.667 0.544 0.376 0 0.681-0.304 0.681-0.681 0-0.013-0.001-0.028-0.002-0.043-0.001-0.006-0.001-0.012-0.002-0.020z"></path>
</svg>
