<?xml version="1.0" encoding="utf-8"?>
<!-- Generated by IcoMoon.io -->
<!DOCTYPE svg PUBLIC "-//W3C//DTD SVG 1.1//EN" "http://www.w3.org/Graphics/SVG/1.1/DTD/svg11.dtd">
<svg version="1.1" xmlns="http://www.w3.org/2000/svg" xmlns:xlink="http://www.w3.org/1999/xlink" width="16" height="32" viewBox="0 0 16 32">
<path fill="#000" d="M15.107 25.881l-6.856-16.271c-0.063-0.151-0.21-0.248-0.374-0.248s-0.311 0.098-0.374 0.248l-6.856 16.271c-0.053 0.126-0.039 0.268 0.036 0.382s0.202 0.182 0.338 0.182h3.157l-1.888 4.991c-0.049 0.128-0.031 0.272 0.047 0.384s0.206 0.18 0.343 0.18h10.396c0.136 0 0.265-0.067 0.342-0.18 0.078-0.112 0.096-0.256 0.047-0.384l-1.888-4.991h3.156c0.136 0 0.263-0.068 0.338-0.182 0.076-0.114 0.090-0.256 0.037-0.382zM12.472 31.166h-9.19l1.786-4.722h5.617l1.786 4.722zM13.33 25.632l-5.079-11.938c-0.063-0.15-0.211-0.247-0.373-0.247s-0.31 0.097-0.374 0.247l-3.396 7.982h0.882l2.887-6.785 4.57 10.742h-10.815l6.244-14.82 6.244 14.82h-0.791z"></path>
<path fill="#000" d="M3.903 22.573c-0.159 0.311-0.571 1.15-0.615 1.608-0 0.003-0 0.006-0.001 0.008-0.002 0.024-0.003 0.045-0.003 0.066 0 0.258 0.145 0.48 0.356 0.596 0.097 0.054 0.207 0.087 0.327 0.087 0.377 0 0.682-0.306 0.682-0.683 0-0.020-0.001-0.041-0.003-0.063-0-0.004-0.001-0.008-0.001-0.013-0.026-0.253-0.165-0.624-0.311-0.959-0.115-0.265-0.235-0.508-0.305-0.646-0.026-0.052-0.098-0.052-0.125-0.001z"></path>
<path fill="#000" d="M7.692 24.937c0.377 0 0.682-0.306 0.682-0.683 0-0.020-0.001-0.041-0.003-0.063-0-0.004-0.001-0.008-0.001-0.013-0.046-0.452-0.457-1.294-0.615-1.604-0.026-0.052-0.098-0.052-0.125-0.001-0.159 0.311-0.572 1.15-0.616 1.608 0 0.003 0 0.006-0 0.008-0.002 0.024-0.003 0.045-0.003 0.066 0 0.376 0.306 0.682 0.682 0.682z"></path>
<path fill="#000" d="M5.446 24.819c0.061 0.042 0.13 0.071 0.203 0.091 0.058 0.016 0.118 0.027 0.18 0.027 0.377 0 0.682-0.306 0.682-0.683 0-0.020-0.001-0.041-0.003-0.063-0-0.004-0.001-0.008-0.001-0.013-0.023-0.224-0.136-0.541-0.262-0.843-0.027-0.066-0.055-0.131-0.083-0.195-0.104-0.234-0.207-0.442-0.27-0.566-0.026-0.052-0.098-0.052-0.125-0.001-0.159 0.311-0.571 1.15-0.615 1.608-0 0.003-0.001 0.006-0.001 0.008-0.002 0.024-0.003 0.045-0.003 0.066 0 0.235 0.119 0.441 0.299 0.564z"></path>
<path fill="#000" d="M4.932 29.73c-0.002 0.022-0.003 0.045-0.003 0.066 0 0.378 0.306 0.684 0.684 0.684s0.684-0.306 0.684-0.684c0-0.020-0.001-0.041-0.003-0.063-0.001-0.005-0.001-0.009-0.002-0.014-0.046-0.453-0.458-1.297-0.617-1.609-0.026-0.051-0.098-0.051-0.124 0-0.16 0.311-0.573 1.153-0.617 1.612-0.001 0.003-0.001 0.006-0.001 0.009z"></path>
<path fill="#000" d="M7.481 30.479c0.378 0 0.684-0.306 0.684-0.684 0-0.020-0.002-0.041-0.003-0.063-0.001-0.005-0.001-0.009-0.002-0.014-0.045-0.453-0.458-1.297-0.617-1.609-0.026-0.051-0.099-0.051-0.124 0-0.16 0.311-0.573 1.153-0.617 1.612-0.001 0.003-0.001 0.006-0.001 0.009-0.003 0.022-0.004 0.045-0.004 0.066 0 0.378 0.306 0.684 0.684 0.684z"></path>
</svg>
