<?xml version="1.0" encoding="utf-8"?>
<!-- Generated by IcoMoon.io -->
<!DOCTYPE svg PUBLIC "-//W3C//DTD SVG 1.1//EN" "http://www.w3.org/Graphics/SVG/1.1/DTD/svg11.dtd">
<svg version="1.1" xmlns="http://www.w3.org/2000/svg" xmlns:xlink="http://www.w3.org/1999/xlink" width="16" height="32" viewBox="0 0 16 32">
<path fill="#000" d="M12.48 25.24h2.237c0.139 0 0.269-0.070 0.346-0.185s0.091-0.262 0.037-0.39l-6.842-16.239c-0.065-0.154-0.215-0.254-0.382-0.254s-0.318 0.1-0.382 0.254l-6.842 16.239c-0.054 0.128-0.040 0.274 0.037 0.39s0.207 0.185 0.345 0.185h2.237l-2.612 6.197c-0.053 0.126-0.039 0.268 0.036 0.381s0.202 0.182 0.338 0.182h13.685c0.136 0 0.263-0.068 0.338-0.182s0.089-0.255 0.036-0.381l-2.61-6.197zM1.658 24.411l6.217-14.756 6.218 14.756h-12.435zM5.103 31.188l0.002-0.004h-0.881l-0.002 0.005h-0.908l0.002-0.005h-0.881l-0.002 0.005h-0.79l2.507-5.949h2.607l-0.853 2h0.881l0.853-2h0.523l2.535 5.948h-5.593zM13.317 31.189h-1.74l-2.536-5.949h2.559l2.507 5.949h-0.79z"></path>
<path fill="#000" d="M4.648 29.738c-0.026-0.251-0.165-0.622-0.31-0.956-0.115-0.265-0.234-0.508-0.305-0.646-0.026-0.051-0.098-0.051-0.124-0.001-0.159 0.311-0.571 1.149-0.614 1.604-0 0.003-0 0.006-0.001 0.009-0.002 0.023-0.003 0.045-0.003 0.066 0 0.257 0.145 0.479 0.355 0.595 0.097 0.053 0.207 0.086 0.326 0.086 0.376 0 0.681-0.304 0.681-0.681 0-0.020-0.001-0.041-0.003-0.063-0.001-0.005-0.001-0.008-0.001-0.013z"></path>
<path fill="#000" d="M6.507 29.738c-0.028-0.271-0.187-0.683-0.345-1.036-0.104-0.233-0.207-0.441-0.27-0.565-0.026-0.051-0.098-0.051-0.124-0.001-0.159 0.311-0.57 1.149-0.614 1.604-0 0.003-0.001 0.006-0.001 0.009-0.002 0.023-0.003 0.045-0.003 0.066 0 0.234 0.119 0.441 0.298 0.563 0.109 0.074 0.241 0.118 0.383 0.118 0.376 0 0.681-0.304 0.681-0.681 0-0.020-0.001-0.041-0.003-0.063-0-0.005-0.001-0.008-0.001-0.013z"></path>
<path fill="#000" d="M7.628 28.136c-0.159 0.311-0.571 1.149-0.614 1.604-0 0.003-0 0.006-0.001 0.009-0.002 0.023-0.003 0.045-0.003 0.066 0 0.376 0.305 0.681 0.681 0.681s0.681-0.304 0.681-0.681c0-0.020-0.001-0.041-0.003-0.063-0-0.005-0.001-0.009-0.001-0.014-0.046-0.451-0.456-1.29-0.614-1.601-0.026-0.051-0.098-0.051-0.125-0.001z"></path>
<path fill="#000" d="M4.649 22.982c-0-0.004-0.001-0.009-0.001-0.014-0.017-0.164-0.083-0.381-0.167-0.605-0.146-0.389-0.348-0.799-0.448-0.996-0.026-0.051-0.098-0.051-0.124 0-0.159 0.309-0.571 1.148-0.614 1.604-0.001 0.003-0.001 0.007-0.001 0.010-0.002 0.022-0.003 0.044-0.003 0.065 0 0.355 0.272 0.643 0.619 0.675 0.021 0.002 0.041 0.007 0.062 0.007 0.377 0 0.681-0.305 0.681-0.681 0-0.020-0.001-0.041-0.003-0.063z"></path>
<path fill="#000" d="M5.831 23.726c0.376 0 0.681-0.305 0.681-0.681 0-0.020-0.001-0.041-0.003-0.063-0.001-0.004-0.001-0.009-0.002-0.014-0.045-0.45-0.456-1.291-0.614-1.601-0.022-0.044-0.076-0.043-0.108-0.010-0.005 0.005-0.012 0.003-0.016 0.010-0.137 0.267-0.46 0.925-0.576 1.394-0.018 0.075-0.033 0.147-0.039 0.21-0.001 0.003-0.001 0.007-0.001 0.010-0.003 0.022-0.004 0.044-0.004 0.065-0 0.376 0.305 0.681 0.68 0.681z"></path>
<path fill="#000" d="M7.425 23.672c0.082 0.035 0.171 0.054 0.266 0.054 0.239 0 0.449-0.124 0.57-0.309 0.070-0.107 0.112-0.234 0.112-0.372 0-0.020-0.002-0.041-0.003-0.063-0.001-0.004-0.001-0.009-0.002-0.014-0.045-0.45-0.456-1.291-0.615-1.601-0.026-0.051-0.098-0.051-0.124 0-0.159 0.309-0.57 1.148-0.614 1.604-0 0.003-0 0.007-0.001 0.010-0.002 0.022-0.003 0.044-0.003 0.065-0 0.281 0.17 0.523 0.415 0.627z"></path>
</svg>
