<?xml version="1.0" encoding="utf-8"?>
<!-- Generated by IcoMoon.io -->
<!DOCTYPE svg PUBLIC "-//W3C//DTD SVG 1.1//EN" "http://www.w3.org/Graphics/SVG/1.1/DTD/svg11.dtd">
<svg version="1.1" xmlns="http://www.w3.org/2000/svg" xmlns:xlink="http://www.w3.org/1999/xlink" width="16" height="32" viewBox="0 0 16 32">
<path fill="#000" d="M12.428 25.24h2.289c0.139 0 0.268-0.070 0.345-0.185s0.091-0.262 0.037-0.39l-6.842-16.238c-0.065-0.154-0.216-0.254-0.382-0.254s-0.318 0.1-0.382 0.254l-6.842 16.238c-0.054 0.129-0.040 0.274 0.037 0.39s0.207 0.185 0.345 0.185h2.226l-2.612 6.199c-0.053 0.126-0.039 0.268 0.036 0.381s0.201 0.181 0.337 0.181h13.649c0.135 0 0.262-0.068 0.336-0.181s0.089-0.255 0.036-0.381l-2.612-6.199zM1.658 24.41l6.217-14.756 6.217 14.756h-12.434zM11.535 31.192h-9.907l2.508-5.952h0.812l-0.857 2.014h0.879l0.857-2.014h4.034l2.532 5.952h-0.857zM13.271 31.192l-2.532-5.952h0.812l2.508 5.952h-0.787z"></path>
<path fill="#000" d="M4.625 29.744c-0.026-0.251-0.164-0.62-0.309-0.954-0.115-0.264-0.233-0.506-0.304-0.643-0.026-0.051-0.098-0.051-0.124-0.001-0.158 0.309-0.569 1.145-0.612 1.6-0 0.003-0 0.006-0.001 0.009-0.002 0.023-0.003 0.045-0.003 0.066 0 0.257 0.144 0.477 0.354 0.593 0.097 0.053 0.207 0.086 0.325 0.086 0.375 0 0.679-0.304 0.679-0.679 0-0.020-0.001-0.041-0.003-0.063-0.001-0.005-0.001-0.009-0.002-0.013z"></path>
<path fill="#000" d="M6.479 29.744c-0.027-0.27-0.187-0.681-0.344-1.033-0.104-0.233-0.206-0.441-0.269-0.564-0.026-0.051-0.097-0.051-0.124-0.001-0.158 0.309-0.569 1.145-0.612 1.6-0 0.003-0.001 0.006-0.001 0.009-0.002 0.023-0.003 0.045-0.003 0.066 0 0.233 0.118 0.44 0.297 0.561 0.109 0.074 0.24 0.118 0.381 0.118 0.375 0 0.679-0.304 0.679-0.679 0-0.020-0.001-0.041-0.003-0.063 0-0.005-0-0.009-0.001-0.014z"></path>
<path fill="#000" d="M8.334 29.744c-0.046-0.45-0.454-1.287-0.612-1.597-0.026-0.051-0.098-0.051-0.124-0.001-0.158 0.309-0.569 1.145-0.613 1.6 0 0.003 0 0.006-0 0.009-0.002 0.023-0.003 0.045-0.003 0.066 0 0.375 0.304 0.679 0.679 0.679s0.679-0.304 0.679-0.679c0-0.020-0.001-0.041-0.003-0.063-0-0.005-0.001-0.009-0.001-0.013z"></path>
<path fill="#000" d="M4.65 22.982c-0-0.004-0.001-0.009-0.001-0.014-0.017-0.168-0.085-0.39-0.172-0.619-0.146-0.385-0.344-0.788-0.443-0.982-0.026-0.051-0.098-0.051-0.124 0-0.159 0.309-0.571 1.148-0.614 1.604-0.001 0.003-0.001 0.007-0.001 0.010-0.002 0.022-0.003 0.044-0.003 0.065 0 0.352 0.267 0.637 0.608 0.674 0.024 0.003 0.047 0.007 0.072 0.007 0.377 0 0.681-0.305 0.681-0.681 0-0.020-0.001-0.041-0.003-0.063z"></path>
<path fill="#000" d="M5.609 23.686c0.070 0.024 0.144 0.041 0.222 0.041 0.376 0 0.681-0.305 0.681-0.681 0-0.020-0.001-0.041-0.003-0.063-0.001-0.004-0.001-0.009-0.002-0.014-0.022-0.215-0.127-0.518-0.248-0.811-0.132-0.321-0.284-0.628-0.366-0.79-0.026-0.051-0.097-0.051-0.124 0-0.003 0.005-0.006 0.011-0.009 0.017-0.131 0.257-0.411 0.831-0.54 1.283-0.032 0.111-0.057 0.216-0.066 0.304-0.001 0.003-0.001 0.007-0.001 0.010-0.003 0.022-0.004 0.044-0.004 0.065 0 0.298 0.192 0.548 0.459 0.641z"></path>
<path fill="#000" d="M7.691 23.726c0.376 0 0.681-0.305 0.681-0.681 0-0.020-0.002-0.041-0.003-0.063-0.001-0.004-0.001-0.009-0.002-0.014-0.045-0.45-0.456-1.291-0.614-1.601-0.026-0.051-0.098-0.051-0.124 0-0.159 0.309-0.57 1.148-0.614 1.604-0 0.003-0 0.007-0.001 0.010-0.002 0.022-0.003 0.044-0.003 0.065-0 0.376 0.305 0.681 0.68 0.681z"></path>
</svg>
