<?xml version="1.0" encoding="utf-8"?>
<!-- Generated by IcoMoon.io -->
<!DOCTYPE svg PUBLIC "-//W3C//DTD SVG 1.1//EN" "http://www.w3.org/Graphics/SVG/1.1/DTD/svg11.dtd">
<svg version="1.1" xmlns="http://www.w3.org/2000/svg" xmlns:xlink="http://www.w3.org/1999/xlink" width="16" height="32" viewBox="0 0 16 32">
<path fill="#000" d="M15.093 31.424l-3.424-8.128h3.046c0.136 0 0.263-0.068 0.338-0.182s0.089-0.256 0.036-0.381l-6.846-16.249c-0.063-0.15-0.211-0.248-0.374-0.248s-0.31 0.098-0.373 0.248l-6.846 16.249c-0.053 0.126-0.039 0.268 0.036 0.381s0.202 0.182 0.338 0.182h3.047l-3.424 8.128c-0.027 0.064-0.037 0.133-0.031 0.2 0.006 0.068 0.028 0.135 0.068 0.194 0.077 0.116 0.207 0.185 0.345 0.185h13.684c0.139 0 0.268-0.070 0.345-0.185 0.039-0.059 0.061-0.126 0.067-0.194 0.006-0.067-0.003-0.136-0.031-0.2zM14.084 31.171h-12.431l3.318-7.874h5.795l3.318 7.874zM4.216 22.481l-0.002 0.005h-0.908l0.002-0.005h-0.881l-0.002 0.005h-0.79l6.235-14.799 6.236 14.799h-2.531l-0.002-0.005h-0.247l-3.074-7.295c-0.065-0.154-0.216-0.254-0.382-0.254s-0.318 0.1-0.382 0.254l-1.411 3.349h0.703l1.114-2.615 2.798 6.565h-0.265l-0.002-0.004h-0.002l0.002 0.004-6.208-0.004z"></path>
<path fill="#000" d="M4.644 29.742c-0-0.005-0.001-0.009-0.001-0.014-0.046-0.451-0.457-1.291-0.615-1.601-0.026-0.051-0.098-0.051-0.124 0-0.159 0.31-0.571 1.148-0.614 1.604-0.001 0.003-0.001 0.007-0.001 0.009-0.002 0.022-0.003 0.044-0.003 0.065 0 0 0 0.001 0 0.002s0 0.002 0 0.003c0 0.376 0.304 0.681 0.68 0.681s0.681-0.305 0.681-0.681c0-0.001 0-0.002 0-0.003s0-0.001 0-0.002c-0-0.020-0.002-0.041-0.004-0.063z"></path>
<path fill="#000" d="M4.644 21.11c0-0.020-0.001-0.041-0.003-0.063-0-0.005-0.001-0.009-0.001-0.013-0.026-0.252-0.165-0.622-0.31-0.957-0.115-0.265-0.234-0.508-0.305-0.645-0.026-0.051-0.098-0.051-0.124-0.001-0.159 0.31-0.571 1.149-0.615 1.605-0 0.003-0 0.005-0.001 0.009-0.002 0.023-0.003 0.045-0.003 0.066 0 0.257 0.145 0.479 0.355 0.595 0.097 0.053 0.207 0.086 0.326 0.086 0.376 0 0.681-0.305 0.681-0.681z"></path>
<path fill="#000" d="M7.685 21.791c0.377 0 0.681-0.305 0.681-0.681 0-0.020-0.001-0.041-0.004-0.063-0-0.005-0.001-0.009-0.001-0.013-0.046-0.452-0.456-1.292-0.614-1.602-0.026-0.051-0.098-0.051-0.124-0.001-0.159 0.31-0.571 1.149-0.615 1.605-0 0.003-0 0.005-0.001 0.009-0.002 0.023-0.003 0.045-0.003 0.066-0 0.375 0.305 0.68 0.681 0.68z"></path>
<path fill="#000" d="M5.441 21.673c0.054 0.037 0.113 0.065 0.176 0.085 0 0 0.001 0.001 0.002 0.001 0.065 0.020 0.134 0.032 0.205 0.032 0.376 0 0.681-0.305 0.681-0.681 0-0.020-0.001-0.041-0.003-0.063-0-0.005-0.001-0.009-0.001-0.013-0.022-0.211-0.123-0.507-0.241-0.794-0-0-0-0.001-0.001-0.002-0.034-0.081-0.068-0.163-0.103-0.241-0.104-0.233-0.207-0.442-0.27-0.565-0.026-0.051-0.098-0.051-0.124-0.001-0.159 0.31-0.571 1.149-0.615 1.605-0 0.003-0.001 0.005-0.001 0.009-0.002 0.023-0.003 0.045-0.003 0.066 0 0.234 0.119 0.441 0.299 0.563z"></path>
<path fill="#000" d="M5.825 30.491c0.376 0 0.681-0.305 0.681-0.681 0-0.001 0-0.002 0-0.003s0-0.001 0-0.002c0-0.020-0.001-0.041-0.003-0.063-0.001-0.005-0.001-0.009-0.002-0.014-0.045-0.451-0.456-1.291-0.614-1.601-0.026-0.051-0.097-0.051-0.124 0-0.159 0.31-0.571 1.148-0.614 1.604-0.001 0.003-0.001 0.007-0.001 0.009-0.003 0.022-0.004 0.044-0.004 0.065 0 0 0 0.001 0 0.002s0 0.002 0 0.003c-0 0.377 0.305 0.681 0.68 0.681z"></path>
<path fill="#000" d="M7.685 30.491c0.376 0 0.681-0.305 0.681-0.681 0-0.001 0-0.002 0-0.003s0-0.001 0-0.002c0-0.020-0.002-0.041-0.003-0.063-0.001-0.005-0.001-0.009-0.002-0.014-0.045-0.451-0.456-1.291-0.614-1.601-0.026-0.051-0.098-0.051-0.124 0-0.159 0.31-0.57 1.148-0.614 1.604-0 0.003-0 0.007-0.001 0.009-0.002 0.022-0.003 0.044-0.003 0.065 0 0 0 0.001 0 0.002s0 0.002 0 0.003c0 0.377 0.305 0.681 0.68 0.681z"></path>
</svg>
