<?xml version="1.0" encoding="utf-8"?>
<!-- Generated by IcoMoon.io -->
<!DOCTYPE svg PUBLIC "-//W3C//DTD SVG 1.1//EN" "http://www.w3.org/Graphics/SVG/1.1/DTD/svg11.dtd">
<svg version="1.1" xmlns="http://www.w3.org/2000/svg" xmlns:xlink="http://www.w3.org/1999/xlink" width="20" height="32" viewBox="0 0 20 32">
<path d="M18.997 31.813c-0.077 0.116-0.206 0.185-0.345 0.185l-17.622 0.002c-0.167 0-0.318-0.1-0.382-0.253s-0.031-0.332 0.085-0.451l12.307-12.612c0.097-0.1 0.237-0.144 0.374-0.118s0.251 0.118 0.304 0.246l5.315 12.61c0.054 0.128 0.040 0.275-0.037 0.39zM2.014 31.171l16.012-0.003-4.829-11.458-11.184 11.46z"></path>
<path d="M12.515 21.774c-0.002 0.001-0.006 0.003-0.008 0.005-0.403 0.217-1.016 0.922-1.24 1.189-0.037 0.043-0.008 0.11 0.049 0.114 0.348 0.025 1.281 0.077 1.715-0.056 0.004-0.001 0.009-0.003 0.013-0.004 0.021-0.007 0.041-0.014 0.059-0.022 0.347-0.146 0.51-0.545 0.363-0.892s-0.545-0.509-0.892-0.362c-0.019 0.008-0.039 0.017-0.058 0.028z"></path>
<path d="M13.238 23.488c-0.002 0.001-0.007 0.003-0.008 0.004-0.403 0.218-1.016 0.923-1.24 1.189-0.037 0.044-0.008 0.111 0.049 0.114 0.348 0.026 1.281 0.078 1.714-0.056 0.005-0.001 0.009-0.003 0.014-0.004 0.021-0.007 0.041-0.013 0.059-0.021 0.347-0.146 0.51-0.546 0.363-0.892s-0.545-0.509-0.892-0.362c-0.020 0.008-0.039 0.017-0.058 0.029z"></path>
<path d="M13.959 25.201c-0.002 0.002-0.006 0.003-0.008 0.004-0.403 0.218-1.016 0.923-1.239 1.19-0.037 0.044-0.009 0.11 0.048 0.114 0.348 0.025 1.282 0.078 1.715-0.056 0.005-0.001 0.009-0.003 0.014-0.004 0.020-0.007 0.041-0.014 0.059-0.021 0.347-0.147 0.509-0.546 0.363-0.892s-0.545-0.509-0.892-0.363c-0.020 0.009-0.039 0.018-0.059 0.029z"></path>
</svg>
