<?xml version="1.0" encoding="utf-8"?>
<!-- Generated by IcoMoon.io -->
<!DOCTYPE svg PUBLIC "-//W3C//DTD SVG 1.1//EN" "http://www.w3.org/Graphics/SVG/1.1/DTD/svg11.dtd">
<svg version="1.1" xmlns="http://www.w3.org/2000/svg" xmlns:xlink="http://www.w3.org/1999/xlink" width="20" height="32" viewBox="0 0 20 32">
<path d="M0.648 31.422l5.315-12.61c0.053-0.128 0.168-0.22 0.304-0.246s0.277 0.018 0.374 0.118l12.307 12.612c0.116 0.119 0.15 0.297 0.085 0.451s-0.216 0.253-0.382 0.253l-17.621-0.001c-0.139-0.001-0.268-0.070-0.345-0.185s-0.090-0.262-0.037-0.391zM6.485 19.71l-4.829 11.458 16.012 0.003-11.183-11.46z"></path>
<path d="M7.167 21.774c0.003 0.001 0.006 0.003 0.008 0.005 0.403 0.217 1.016 0.922 1.24 1.189 0.037 0.043 0.008 0.11-0.049 0.114-0.348 0.025-1.281 0.077-1.715-0.056-0.004-0.001-0.009-0.003-0.013-0.004-0.021-0.007-0.041-0.014-0.059-0.022-0.347-0.146-0.51-0.545-0.363-0.892s0.545-0.509 0.892-0.362c0.019 0.008 0.039 0.017 0.058 0.028z"></path>
<path d="M6.445 23.488c0.003 0.001 0.007 0.003 0.008 0.004 0.403 0.218 1.016 0.923 1.24 1.189 0.037 0.044 0.008 0.111-0.049 0.114-0.348 0.026-1.281 0.078-1.714-0.056-0.005-0.001-0.009-0.003-0.014-0.004-0.021-0.007-0.041-0.013-0.059-0.021-0.347-0.146-0.51-0.546-0.363-0.892s0.545-0.509 0.892-0.362c0.019 0.008 0.039 0.017 0.058 0.029z"></path>
<path d="M5.723 25.201c0.003 0.002 0.006 0.003 0.008 0.004 0.403 0.218 1.016 0.923 1.239 1.19 0.037 0.044 0.009 0.11-0.048 0.114-0.348 0.025-1.282 0.078-1.715-0.056-0.005-0.001-0.009-0.003-0.014-0.004-0.020-0.007-0.041-0.014-0.059-0.021-0.347-0.147-0.509-0.546-0.363-0.892s0.545-0.509 0.892-0.363c0.019 0.009 0.039 0.018 0.059 0.029z"></path>
</svg>
