<?xml version="1.0" encoding="utf-8"?>
<!-- Generated by IcoMoon.io -->
<!DOCTYPE svg PUBLIC "-//W3C//DTD SVG 1.1//EN" "http://www.w3.org/Graphics/SVG/1.1/DTD/svg11.dtd">
<svg version="1.1" xmlns="http://www.w3.org/2000/svg" xmlns:xlink="http://www.w3.org/1999/xlink" width="16" height="32" viewBox="0 0 16 32">
<path fill="#000" d="M11.543 22.999h1.316c0.136 0 0.264-0.067 0.341-0.179s0.095-0.255 0.047-0.382l-1.565-4.139h3.030c0.139 0 0.268-0.070 0.345-0.185s0.091-0.262 0.037-0.39l-6.843-16.239c-0.065-0.154-0.216-0.254-0.382-0.254s-0.318 0.1-0.382 0.254l-6.842 16.238c-0.054 0.129-0.040 0.274 0.037 0.39s0.207 0.185 0.345 0.185h2.662l-1.565 4.139c-0.048 0.127-0.031 0.27 0.047 0.382s0.205 0.179 0.341 0.179h1.684l-3.55 8.425c-0.054 0.129-0.040 0.274 0.037 0.39s0.207 0.185 0.345 0.185h13.684c0.139 0 0.268-0.070 0.345-0.185s0.091-0.262 0.037-0.39l-3.55-8.425zM1.652 17.469l6.218-14.756 6.217 14.756h-12.435zM3.111 22.17l1.464-3.871h6.219l1.464 3.871h-9.147zM1.652 31.171l3.443-8.172h5.548l3.443 8.172h-12.434z"></path>
<path fill="#000" d="M4.642 29.729c-0.046-0.451-0.457-1.291-0.615-1.602-0.026-0.050-0.098-0.050-0.124 0-0.159 0.31-0.571 1.149-0.614 1.604-0.001 0.003-0.001 0.007-0.001 0.009-0.002 0.023-0.003 0.044-0.003 0.065 0 0.377 0.304 0.681 0.68 0.681s0.681-0.304 0.681-0.681c0-0.020-0.001-0.041-0.003-0.062-0.001-0.005-0.001-0.010-0.002-0.014z"></path>
<path fill="#000" d="M6.502 29.729c-0.045-0.451-0.456-1.291-0.614-1.602-0.026-0.050-0.097-0.050-0.124 0-0.159 0.31-0.571 1.149-0.614 1.604-0.001 0.003-0.001 0.007-0.001 0.009-0.003 0.023-0.004 0.044-0.004 0.065 0 0.377 0.305 0.681 0.681 0.681s0.681-0.304 0.681-0.681c0-0.020-0.001-0.041-0.003-0.062-0.001-0.005-0.001-0.010-0.002-0.014z"></path>
<path fill="#000" d="M8.361 29.729c-0.045-0.451-0.456-1.291-0.614-1.602-0.026-0.050-0.098-0.050-0.124 0-0.159 0.31-0.57 1.149-0.614 1.604-0 0.003-0 0.007-0.001 0.009-0.002 0.023-0.003 0.044-0.003 0.065 0 0.377 0.305 0.681 0.681 0.681s0.681-0.304 0.681-0.681c0-0.020-0.002-0.041-0.003-0.062-0.001-0.005-0.001-0.010-0.002-0.014z"></path>
<path fill="#000" d="M6.112 20.804c0-0.020-0.001-0.041-0.003-0.063-0.001-0.004-0.001-0.009-0.002-0.014-0.003-0.028-0.011-0.061-0.017-0.092-0.058-0.326-0.254-0.79-0.419-1.142-0.070-0.149-0.135-0.279-0.179-0.367-0.026-0.050-0.097-0.050-0.124 0-0.159 0.31-0.571 1.148-0.614 1.604-0.001 0.003-0.001 0.006-0.001 0.009-0.002 0.022-0.003 0.044-0.003 0.065 0 0.176 0.068 0.334 0.177 0.455 0.124 0.138 0.303 0.226 0.503 0.226 0.125 0 0.241-0.037 0.341-0.095 0.203-0.118 0.34-0.335 0.34-0.586z"></path>
<path fill="#000" d="M7.291 21.486c0.376 0 0.681-0.304 0.681-0.681 0-0.020-0.002-0.041-0.003-0.063-0.001-0.004-0.001-0.009-0.002-0.014-0.045-0.45-0.456-1.29-0.614-1.601-0.026-0.050-0.098-0.050-0.124 0-0.159 0.31-0.571 1.148-0.614 1.604-0.001 0.003-0.001 0.006-0.001 0.009-0.003 0.022-0.004 0.044-0.004 0.065-0 0.377 0.305 0.681 0.68 0.681z"></path>
<path fill="#000" d="M4.642 16.028c-0.005-0.052-0.017-0.109-0.030-0.17-0.107-0.468-0.444-1.157-0.585-1.432-0.026-0.050-0.098-0.050-0.124 0-0.159 0.31-0.571 1.149-0.614 1.604-0.001 0.003-0.001 0.007-0.001 0.009-0.002 0.023-0.003 0.044-0.003 0.065 0 0.377 0.304 0.681 0.68 0.681 0.12 0 0.231-0.034 0.329-0.088 0.209-0.117 0.352-0.337 0.352-0.593 0-0.020-0.001-0.041-0.003-0.062-0-0.005-0.001-0.010-0.001-0.014z"></path>
<path fill="#000" d="M5.825 16.785c0.376 0 0.681-0.304 0.681-0.681 0-0.020-0.001-0.041-0.003-0.062-0.001-0.005-0.001-0.010-0.002-0.014-0.039-0.384-0.34-1.045-0.527-1.427-0.033-0.067-0.063-0.129-0.087-0.175-0.026-0.050-0.097-0.050-0.124 0-0.159 0.31-0.571 1.149-0.614 1.604-0.001 0.003-0.001 0.007-0.001 0.009-0.003 0.023-0.004 0.044-0.004 0.065 0 0.141 0.043 0.273 0.117 0.382 0.122 0.18 0.329 0.299 0.564 0.299z"></path>
<path fill="#000" d="M7.685 16.785c0.010 0 0.019-0.003 0.029-0.003 0.1-0.005 0.194-0.031 0.278-0.074 0.221-0.112 0.373-0.34 0.373-0.605 0-0.020-0.002-0.041-0.003-0.062-0.001-0.005-0.001-0.010-0.002-0.014-0.028-0.281-0.198-0.712-0.36-1.072-0.099-0.219-0.194-0.412-0.254-0.53-0.026-0.050-0.098-0.050-0.124 0-0.159 0.31-0.57 1.149-0.614 1.604-0 0.003-0 0.007-0.001 0.009-0.002 0.023-0.003 0.044-0.003 0.065 0 0.059 0.010 0.116 0.024 0.17 0.076 0.294 0.34 0.511 0.657 0.511z"></path>
</svg>
