<?xml version="1.0" encoding="utf-8"?>
<!-- Generated by IcoMoon.io -->
<!DOCTYPE svg PUBLIC "-//W3C//DTD SVG 1.1//EN" "http://www.w3.org/Graphics/SVG/1.1/DTD/svg11.dtd">
<svg version="1.1" xmlns="http://www.w3.org/2000/svg" xmlns:xlink="http://www.w3.org/1999/xlink" width="16" height="32" viewBox="0 0 16 32">
<path fill="#000" d="M15.087 31.437l-6.846-16.249c-0.063-0.15-0.211-0.248-0.374-0.248s-0.31 0.098-0.373 0.248l-6.847 16.249c-0.053 0.126-0.039 0.268 0.036 0.381s0.202 0.182 0.338 0.182h13.692c0.136 0 0.263-0.068 0.338-0.182s0.090-0.256 0.037-0.381zM13.312 31.189h-1.74l-3.307-7.758c-0.063-0.149-0.211-0.247-0.373-0.247s-0.309 0.097-0.373 0.247l-1.623 3.808h0.882l1.114-2.615 2.798 6.565-9.058 0 6.235-14.799 6.236 14.799h-0.79z"></path>
<path fill="#000" d="M4.638 29.737c-0.026-0.252-0.165-0.622-0.31-0.957-0.115-0.265-0.234-0.508-0.305-0.645-0.026-0.051-0.098-0.051-0.124-0.001-0.159 0.31-0.571 1.149-0.615 1.605-0 0.003-0 0.005-0.001 0.009-0.002 0.023-0.003 0.045-0.003 0.066 0 0.257 0.145 0.479 0.355 0.595 0.097 0.053 0.207 0.086 0.326 0.086 0.376 0 0.681-0.305 0.681-0.681 0-0.020-0.001-0.041-0.003-0.063-0-0.005-0.001-0.008-0.001-0.013z"></path>
<path fill="#000" d="M5.759 28.134c-0.159 0.31-0.571 1.149-0.615 1.605-0 0.003-0.001 0.005-0.001 0.009-0.002 0.023-0.003 0.045-0.003 0.066 0 0.234 0.118 0.441 0.298 0.563 0.109 0.075 0.241 0.118 0.383 0.118 0.376 0 0.681-0.305 0.681-0.681 0-0.020-0.001-0.041-0.003-0.063-0-0.005-0.001-0.009-0.001-0.013-0.027-0.272-0.187-0.683-0.345-1.037-0.104-0.233-0.207-0.442-0.27-0.565-0.025-0.051-0.097-0.051-0.124-0.001z"></path>
<path fill="#000" d="M7.683 30.494c0.377 0 0.681-0.305 0.681-0.681 0-0.020-0.001-0.041-0.004-0.063-0-0.005-0.001-0.009-0.001-0.013-0.046-0.452-0.456-1.292-0.614-1.602-0.026-0.051-0.098-0.051-0.124-0.001-0.159 0.31-0.571 1.149-0.615 1.605-0 0.003-0 0.005-0.001 0.009-0.002 0.023-0.003 0.045-0.003 0.066-0 0.376 0.305 0.68 0.681 0.68z"></path>
</svg>
