<?xml version="1.0" encoding="utf-8"?>
<!-- Generated by IcoMoon.io -->
<!DOCTYPE svg PUBLIC "-//W3C//DTD SVG 1.1//EN" "http://www.w3.org/Graphics/SVG/1.1/DTD/svg11.dtd">
<svg version="1.1" xmlns="http://www.w3.org/2000/svg" xmlns:xlink="http://www.w3.org/1999/xlink" width="16" height="32" viewBox="0 0 16 32">
<path fill="#000" d="M4.605 16.028c-0.046-0.451-0.457-1.291-0.615-1.602-0.026-0.050-0.098-0.050-0.124 0-0.159 0.31-0.571 1.149-0.614 1.604-0.001 0.003-0.001 0.007-0.001 0.009-0.002 0.023-0.003 0.044-0.003 0.065 0 0.377 0.304 0.681 0.68 0.681s0.681-0.304 0.681-0.681c0-0.020-0.001-0.041-0.003-0.062-0.001-0.005-0.001-0.010-0.002-0.014z"></path>
<path fill="#000" d="M6.47 16.104c0-0.020-0.001-0.041-0.003-0.062-0.001-0.005-0.001-0.010-0.002-0.014-0.020-0.203-0.116-0.484-0.228-0.761-0.137-0.338-0.299-0.67-0.386-0.841-0.026-0.050-0.097-0.050-0.124 0-0.159 0.31-0.571 1.149-0.614 1.604-0.001 0.003-0.001 0.007-0.001 0.009-0.003 0.023-0.004 0.044-0.004 0.065 0 0.325 0.227 0.594 0.53 0.663 0.049 0.011 0.099 0.018 0.151 0.018 0.376 0 0.681-0.305 0.681-0.681z"></path>
<path fill="#000" d="M7.832 20.918c0.376 0 0.681-0.304 0.681-0.681 0-0.020-0.002-0.041-0.004-0.063 0-0.004-0.001-0.009-0.001-0.014-0.045-0.45-0.456-1.29-0.615-1.601-0.026-0.050-0.098-0.050-0.124 0-0.16 0.31-0.571 1.148-0.615 1.604-0 0.003-0.001 0.006-0.001 0.009-0.002 0.022-0.003 0.044-0.003 0.065 0 0.377 0.305 0.681 0.681 0.681z"></path>
<path fill="#000" d="M15.096 31.424l-3.789-8.992h0.45c0.138 0 0.266-0.068 0.343-0.182s0.092-0.258 0.041-0.386l-1.424-3.565h3.956c0.139 0 0.268-0.070 0.345-0.185s0.091-0.262 0.037-0.39l-6.842-16.238c-0.065-0.154-0.216-0.254-0.382-0.254s-0.318 0.1-0.382 0.254l-6.842 16.238c-0.054 0.129-0.040 0.274 0.037 0.39s0.207 0.185 0.345 0.185h4.036l-1.424 3.565c-0.051 0.128-0.035 0.272 0.042 0.386s0.206 0.182 0.343 0.182h0.45l-3.789 8.992c-0.054 0.129-0.040 0.274 0.037 0.39s0.207 0.185 0.345 0.185h13.684c0.139 0 0.268-0.070 0.345-0.185s0.090-0.261 0.037-0.39zM1.615 17.469l6.217-14.756 6.217 14.756h-12.434zM4.599 21.603l1.319-3.304h3.906l1.32 3.304h-6.546zM1.655 31.171l3.682-8.738h5.071l3.682 8.738h-12.435z"></path>
<path fill="#000" d="M7.648 16.785c0.024 0 0.047-0.005 0.071-0.007 0.097-0.010 0.189-0.041 0.27-0.087 0.203-0.118 0.341-0.335 0.341-0.587 0-0.020-0.002-0.041-0.003-0.062-0.001-0.005-0.001-0.010-0.002-0.014-0.028-0.284-0.201-0.72-0.365-1.083-0.097-0.215-0.19-0.403-0.25-0.519-0.026-0.050-0.098-0.050-0.124 0-0.159 0.31-0.57 1.149-0.614 1.604-0 0.003-0 0.007-0.001 0.009-0.002 0.023-0.003 0.044-0.003 0.065 0 0.079 0.016 0.154 0.041 0.225 0.093 0.265 0.343 0.457 0.64 0.457z"></path>
<path fill="#000" d="M4.645 29.729c-0.046-0.451-0.457-1.291-0.615-1.602-0.026-0.050-0.098-0.050-0.124 0-0.159 0.31-0.571 1.149-0.614 1.605-0.001 0.003-0.001 0.007-0.001 0.009-0.002 0.023-0.003 0.044-0.003 0.065 0 0.377 0.304 0.681 0.68 0.681s0.681-0.304 0.681-0.681c0-0.020-0.001-0.041-0.003-0.062-0.001-0.005-0.001-0.010-0.002-0.014z"></path>
<path fill="#000" d="M5.152 29.731c-0.001 0.003-0.001 0.007-0.001 0.009-0.003 0.023-0.004 0.044-0.004 0.065 0 0.377 0.305 0.681 0.681 0.681s0.681-0.304 0.681-0.681c0-0.020-0.001-0.041-0.003-0.062-0.001-0.005-0.001-0.010-0.002-0.014-0.045-0.451-0.456-1.291-0.614-1.602-0.026-0.050-0.097-0.050-0.124 0-0.16 0.31-0.571 1.149-0.615 1.605z"></path>
<path fill="#000" d="M7.688 30.486c0.376 0 0.681-0.304 0.681-0.681 0-0.020-0.002-0.041-0.003-0.062-0.001-0.005-0.001-0.010-0.002-0.014-0.045-0.451-0.456-1.291-0.614-1.602-0.026-0.050-0.098-0.050-0.124 0-0.159 0.31-0.57 1.149-0.614 1.605-0 0.003-0 0.007-0.001 0.009-0.002 0.023-0.003 0.044-0.003 0.065-0 0.377 0.305 0.681 0.68 0.681z"></path>
</svg>
