<?xml version="1.0" encoding="utf-8"?>
<!-- Generated by IcoMoon.io -->
<!DOCTYPE svg PUBLIC "-//W3C//DTD SVG 1.1//EN" "http://www.w3.org/Graphics/SVG/1.1/DTD/svg11.dtd">
<svg version="1.1" xmlns="http://www.w3.org/2000/svg" xmlns:xlink="http://www.w3.org/1999/xlink" width="16" height="32" viewBox="0 0 16 32">
<path fill="#000" d="M4.651 20.985c-0.026-0.251-0.164-0.62-0.309-0.954-0.115-0.264-0.233-0.506-0.304-0.643-0.026-0.051-0.098-0.051-0.124-0.001-0.158 0.309-0.569 1.145-0.612 1.6-0 0.003-0 0.006-0.001 0.008-0.002 0.024-0.003 0.045-0.003 0.066 0 0.257 0.144 0.478 0.354 0.593 0.097 0.053 0.207 0.087 0.325 0.087 0.375 0 0.679-0.304 0.679-0.68 0-0.020-0.001-0.041-0.003-0.063-0.001-0.004-0.001-0.008-0.002-0.013z"></path>
<path fill="#000" d="M7.686 21.741c0.375 0 0.679-0.304 0.679-0.68 0-0.020-0.001-0.041-0.003-0.063 0-0.004-0.001-0.008-0.001-0.013-0.046-0.45-0.455-1.288-0.613-1.597-0.026-0.051-0.098-0.051-0.124-0.001-0.158 0.309-0.569 1.145-0.613 1.6 0 0.003 0 0.006-0 0.008-0.002 0.024-0.003 0.045-0.003 0.066 0 0.375 0.304 0.68 0.679 0.68z"></path>
<path fill="#000" d="M15.093 31.424l-3.448-8.184h3.049c0.134 0 0.262-0.068 0.336-0.181s0.088-0.255 0.036-0.381l-6.823-16.196c-0.063-0.15-0.21-0.247-0.372-0.247s-0.309 0.097-0.372 0.247l-0.417 0.991-6.408 15.205c-0.053 0.126-0.039 0.268 0.036 0.381s0.201 0.181 0.337 0.181h3.047l-3.448 8.184c-0.054 0.129-0.040 0.274 0.037 0.39s0.207 0.185 0.345 0.185h13.684c0.139 0 0.268-0.070 0.345-0.185s0.090-0.262 0.037-0.39zM4.43 22.432h-1.11l0.002-0.005h-0.878l-0.002 0.005h-0.788l6.215-14.75 6.215 14.75h-0.787l-5.056-11.883c-0.063-0.149-0.21-0.246-0.372-0.246s-0.309 0.097-0.372 0.246l-3.38 7.945h0.879l2.873-6.754 4.549 10.692h-7.989zM14.083 31.171h-12.432l3.341-7.93h5.752l3.341 7.93h-0.003z"></path>
<path fill="#000" d="M5.635 21.71c0.001 0 0.002 0 0.003 0 0.061 0.019 0.126 0.030 0.194 0.030 0.375 0 0.679-0.304 0.679-0.68 0-0.020-0.001-0.041-0.003-0.063-0-0.004-0.001-0.008-0.001-0.013-0.021-0.207-0.119-0.496-0.234-0.777-0-0.001-0.001-0.003-0.002-0.004-0.035-0.085-0.071-0.17-0.107-0.252-0.104-0.233-0.206-0.441-0.269-0.564-0.026-0.051-0.097-0.051-0.124-0.001-0.158 0.309-0.569 1.145-0.612 1.6-0 0.003-0.001 0.006-0.001 0.008-0.002 0.024-0.003 0.045-0.003 0.066 0 0.234 0.118 0.44 0.297 0.561 0.056 0.038 0.119 0.068 0.185 0.087z"></path>
<path fill="#000" d="M4.642 29.728c-0.046-0.451-0.457-1.291-0.615-1.601-0.013-0.026-0.038-0.038-0.063-0.037-0.024 0-0.048 0.012-0.061 0.037-0.159 0.31-0.571 1.148-0.614 1.604-0.001 0.003-0.001 0.007-0.001 0.009-0.002 0.022-0.003 0.044-0.003 0.065 0 0.376 0.304 0.68 0.679 0.681 0 0 0.001 0 0.002 0 0.377 0 0.681-0.305 0.681-0.681 0-0.020-0.001-0.041-0.003-0.063-0.001-0.004-0.001-0.009-0.002-0.014z"></path>
<path fill="#000" d="M6.502 29.728c-0.045-0.451-0.456-1.291-0.614-1.601-0.013-0.026-0.038-0.038-0.063-0.037s-0.048 0.012-0.061 0.037c-0.159 0.31-0.571 1.148-0.614 1.604-0.001 0.003-0.001 0.007-0.001 0.009-0.003 0.022-0.004 0.044-0.004 0.065 0 0.376 0.304 0.68 0.679 0.681 0 0 0.001 0 0.002 0 0.376 0 0.681-0.305 0.681-0.681 0-0.020-0.001-0.041-0.003-0.063-0.002-0.004-0.002-0.009-0.003-0.014z"></path>
<path fill="#000" d="M8.361 29.728c-0.045-0.451-0.456-1.291-0.614-1.601-0.013-0.026-0.038-0.038-0.063-0.037-0.024 0-0.048 0.012-0.061 0.037-0.159 0.31-0.57 1.148-0.614 1.604-0 0.003-0 0.007-0.001 0.009-0.002 0.022-0.003 0.044-0.003 0.065 0 0.376 0.304 0.68 0.679 0.681 0 0 0.001 0 0.002 0 0.376 0 0.681-0.305 0.681-0.681 0-0.020-0.002-0.041-0.003-0.063-0.002-0.004-0.002-0.009-0.002-0.014z"></path>
</svg>
