<?xml version="1.0" encoding="utf-8"?>
<!-- Generated by IcoMoon.io -->
<!DOCTYPE svg PUBLIC "-//W3C//DTD SVG 1.1//EN" "http://www.w3.org/Graphics/SVG/1.1/DTD/svg11.dtd">
<svg version="1.1" xmlns="http://www.w3.org/2000/svg" xmlns:xlink="http://www.w3.org/1999/xlink" width="16" height="32" viewBox="0 0 16 32">
<path fill="#000" d="M15.092 31.437l-6.849-16.255c-0.063-0.15-0.21-0.248-0.373-0.248s-0.311 0.098-0.374 0.248l-6.849 16.255c-0.053 0.126-0.039 0.268 0.036 0.382s0.202 0.182 0.338 0.182h13.698c0.136 0 0.263-0.068 0.337-0.182 0.075-0.114 0.089-0.256 0.037-0.382zM13.317 31.189l-5.074-11.926c-0.063-0.15-0.211-0.247-0.373-0.247s-0.31 0.097-0.374 0.247l-3.392 7.974h0.882l2.884-6.779 4.566 10.731h-10.803l6.238-14.804 6.238 14.804h-0.79z"></path>
<path fill="#000" d="M3.9 28.132c-0.159 0.311-0.571 1.149-0.615 1.606-0 0.003-0 0.006-0.001 0.009-0.002 0.023-0.003 0.045-0.003 0.066 0 0.258 0.145 0.479 0.355 0.595 0.097 0.053 0.207 0.086 0.326 0.086 0.377 0 0.681-0.305 0.681-0.682 0-0.020-0.001-0.041-0.003-0.063-0-0.005-0.001-0.009-0.001-0.013-0.026-0.252-0.165-0.623-0.31-0.957-0.115-0.265-0.235-0.508-0.305-0.646-0.026-0.051-0.099-0.051-0.125-0.001z"></path>
<path fill="#000" d="M5.441 30.376c0.109 0.075 0.241 0.118 0.383 0.118 0.377 0 0.682-0.305 0.682-0.682 0-0.020-0.001-0.041-0.003-0.063-0-0.005-0.001-0.009-0.001-0.013-0.027-0.272-0.187-0.683-0.345-1.037-0.104-0.233-0.207-0.442-0.27-0.566-0.026-0.051-0.098-0.051-0.124-0.001-0.159 0.311-0.571 1.149-0.615 1.606-0 0.003-0.001 0.006-0.001 0.009-0.002 0.023-0.003 0.045-0.003 0.066-0.001 0.234 0.118 0.441 0.298 0.563z"></path>
<path fill="#000" d="M7.685 30.494c0.377 0 0.681-0.305 0.681-0.682 0-0.020-0.001-0.041-0.003-0.063-0-0.005-0.001-0.009-0.001-0.013-0.046-0.452-0.456-1.292-0.615-1.603-0.026-0.051-0.098-0.051-0.124-0.001-0.159 0.311-0.571 1.149-0.615 1.606 0 0.003 0 0.006-0 0.009-0.002 0.023-0.003 0.045-0.003 0.066-0 0.377 0.304 0.681 0.681 0.681z"></path>
</svg>
