<?xml version="1.0" encoding="utf-8"?>
<!-- Generated by IcoMoon.io -->
<!DOCTYPE svg PUBLIC "-//W3C//DTD SVG 1.1//EN" "http://www.w3.org/Graphics/SVG/1.1/DTD/svg11.dtd">
<svg version="1.1" xmlns="http://www.w3.org/2000/svg" xmlns:xlink="http://www.w3.org/1999/xlink" width="33" height="32" viewBox="0 0 33 32">
<path d="M23.827 32h-22.426c-0.434 0-0.786-0.351-0.786-0.786v-21.708c0-0.222 0.092-0.422 0.24-0.564l7.737-7.49c0.147-0.142 0.343-0.222 0.546-0.222h22.426c0.434 0 0.786 0.352 0.786 0.786v21.708c0 0.213-0.086 0.416-0.24 0.565l-7.737 7.49c-0.141 0.136-0.333 0.221-0.546 0.221zM2.187 30.429h20.854v-20.136h-20.854v20.136zM24.612 9.839v19.52l6.166-5.968v-19.52l-6.166 5.968zM3.343 8.721h20.167l6.113-5.918h-20.166l-6.114 5.918z"></path>
<path d="M8.473 14.609c0 1.085-0.879 1.964-1.964 1.964s-1.964-0.879-1.964-1.964c0-1.085 0.879-1.964 1.964-1.964s1.964 0.879 1.964 1.964z"></path>
<path d="M13.973 20.109c0 1.085-0.879 1.964-1.964 1.964s-1.964-0.879-1.964-1.964c0-1.085 0.879-1.964 1.964-1.964s1.964 0.879 1.964 1.964z"></path>
<path d="M19.473 25.61c0 1.085-0.879 1.964-1.964 1.964s-1.964-0.879-1.964-1.964c0-1.085 0.879-1.964 1.964-1.964s1.964 0.879 1.964 1.964z"></path>
</svg>
