<?xml version="1.0" encoding="utf-8"?>
<!-- Generated by IcoMoon.io -->
<!DOCTYPE svg PUBLIC "-//W3C//DTD SVG 1.1//EN" "http://www.w3.org/Graphics/SVG/1.1/DTD/svg11.dtd">
<svg version="1.1" xmlns="http://www.w3.org/2000/svg" xmlns:xlink="http://www.w3.org/1999/xlink" width="16" height="32" viewBox="0 0 16 32">
<path fill="#000" d="M15.111 27.081l-2.669-6.333h0.618c0.136 0 0.264-0.066 0.341-0.179s0.095-0.255 0.047-0.382l-5.173-13.677c-0.061-0.162-0.216-0.268-0.388-0.268s-0.327 0.107-0.388 0.268l-5.174 13.677c-0.048 0.127-0.031 0.27 0.047 0.382s0.205 0.179 0.341 0.179h0.618l-2.668 6.333c-0.054 0.129-0.040 0.275 0.037 0.39s0.207 0.185 0.345 0.185h2.708l-1.431 3.782c-0.048 0.127-0.031 0.27 0.047 0.382s0.205 0.179 0.341 0.179h10.348c0.136 0 0.264-0.067 0.341-0.179s0.095-0.255 0.047-0.382l-1.431-3.782h2.714c0.139 0 0.268-0.070 0.345-0.185s0.091-0.262 0.037-0.39zM8.17 29.805c0 0.377-0.305 0.681-0.681 0.681s-0.681-0.304-0.681-0.681c0-0.020 0.001-0.043 0.004-0.065 0-0.003 0-0.007 0.001-0.009 0.044-0.457 0.455-1.294 0.614-1.604 0.026-0.050 0.098-0.050 0.124 0 0.158 0.311 0.569 1.151 0.614 1.601 0.001 0.005 0.001 0.010 0.002 0.014 0.002 0.022 0.004 0.044 0.004 0.063zM6.311 29.805c0 0.377-0.305 0.681-0.681 0.681s-0.681-0.304-0.681-0.681c0-0.020 0.001-0.043 0.003-0.065 0-0.003 0-0.007 0.001-0.009 0.044-0.457 0.455-1.294 0.614-1.604 0.026-0.050 0.098-0.050 0.124 0 0.158 0.311 0.569 1.151 0.614 1.601 0.001 0.005 0.001 0.010 0.002 0.014 0.003 0.022 0.004 0.044 0.004 0.063zM4.952 18.553c0-0.021 0.001-0.043 0.003-0.066 0-0.003 0-0.006 0.001-0.009 0.044-0.456 0.455-1.294 0.614-1.604 0.026-0.051 0.098-0.051 0.124 0 0.024 0.048 0.056 0.112 0.091 0.182 0.187 0.382 0.485 1.038 0.524 1.419 0.001 0.005 0.001 0.009 0.002 0.014 0.002 0.022 0.003 0.043 0.003 0.063 0 0.376-0.305 0.68-0.681 0.68-0.266 0-0.493-0.154-0.606-0.376-0.046-0.092-0.075-0.195-0.075-0.305zM8.383 25.461c0 0.377-0.305 0.681-0.681 0.681s-0.681-0.304-0.681-0.681c0-0.020 0.001-0.042 0.003-0.065 0-0.003 0-0.007 0.001-0.009 0.044-0.456 0.456-1.294 0.614-1.604 0.026-0.050 0.099-0.050 0.124 0 0.158 0.311 0.569 1.151 0.614 1.602 0.001 0.004 0.001 0.009 0.002 0.014 0.002 0.022 0.004 0.043 0.004 0.062zM6.52 25.399c0.002 0.022 0.003 0.043 0.003 0.062 0 0.377-0.305 0.681-0.681 0.681-0.216 0-0.407-0.104-0.532-0.262-0.092-0.116-0.148-0.26-0.148-0.42 0-0.020 0.001-0.042 0.004-0.065 0-0.003 0-0.007 0.001-0.009 0.044-0.456 0.455-1.294 0.614-1.604 0.026-0.050 0.098-0.050 0.124 0 0.029 0.058 0.070 0.139 0.113 0.229 0.188 0.388 0.464 1.007 0.501 1.374 0.001 0.004 0.001 0.008 0.002 0.013zM8.17 18.49c0.002 0.022 0.003 0.043 0.003 0.063 0 0.226-0.112 0.425-0.282 0.549-0.008 0.006-0.015 0.012-0.024 0.018-0.108 0.071-0.237 0.113-0.376 0.113-0.187 0-0.356-0.075-0.479-0.197-0.124-0.124-0.202-0.294-0.202-0.483 0-0.021 0.001-0.043 0.004-0.066 0-0.003 0-0.006 0.001-0.009 0.044-0.456 0.455-1.294 0.614-1.604 0.026-0.051 0.098-0.051 0.124 0 0.068 0.134 0.183 0.367 0.295 0.624 0.149 0.339 0.293 0.721 0.319 0.977 0 0.005 0 0.009 0.001 0.014zM3.306 25.397c0-0.003 0-0.007 0.001-0.009 0.044-0.456 0.455-1.294 0.614-1.604 0.026-0.050 0.098-0.050 0.124 0 0.149 0.292 0.518 1.050 0.599 1.515 0.005 0.028 0.013 0.060 0.015 0.087 0 0.004 0.001 0.009 0.001 0.014 0.002 0.022 0.003 0.043 0.003 0.062 0 0.232-0.116 0.436-0.293 0.559-0.11 0.077-0.243 0.122-0.388 0.122-0.376 0-0.68-0.304-0.68-0.681 0-0.020 0.001-0.042 0.004-0.065z"></path>
</svg>
