<?xml version="1.0" encoding="utf-8"?>
<!-- Generated by IcoMoon.io -->
<!DOCTYPE svg PUBLIC "-//W3C//DTD SVG 1.1//EN" "http://www.w3.org/Graphics/SVG/1.1/DTD/svg11.dtd">
<svg version="1.1" xmlns="http://www.w3.org/2000/svg" xmlns:xlink="http://www.w3.org/1999/xlink" width="32" height="32" viewBox="0 0 32 32">
<path fill="#000" d="M28.116 17.556l-13.065-13.065c-0.172-0.172-0.417-0.248-0.657-0.204s-0.441 0.202-0.542 0.424l-10.737 23.801c-0.126 0.282-0.067 0.61 0.151 0.829s0.547 0.278 0.828 0.151l23.804-10.736c0.221-0.1 0.381-0.302 0.424-0.542s-0.033-0.485-0.205-0.657zM17.113 16.332c0.191-0.592 0.733-2.171 1.245-2.798 0.006-0.007 0.010-0.013 0.016-0.019 0.026-0.030 0.050-0.059 0.076-0.084 0.475-0.475 1.245-0.473 1.719 0.001s0.476 1.245 0.001 1.719c-0.027 0.027-0.056 0.052-0.088 0.078-0.003 0.003-0.007 0.007-0.013 0.010-0.631 0.521-2.208 1.060-2.8 1.25-0.097 0.031-0.188-0.061-0.156-0.157zM22.518 17.5c-0.026 0.026-0.055 0.052-0.087 0.078-0.003 0.002-0.007 0.007-0.013 0.010-0.631 0.521-2.208 1.060-2.8 1.25-0.098 0.031-0.19-0.060-0.156-0.156 0.191-0.592 0.733-2.172 1.245-2.799 0.006-0.007 0.010-0.012 0.016-0.019 0.024-0.030 0.049-0.059 0.076-0.084 0.475-0.475 1.245-0.473 1.719 0.001s0.476 1.244 0 1.719z"></path>
</svg>
