<?xml version="1.0" encoding="utf-8"?>
<!-- Generated by IcoMoon.io -->
<!DOCTYPE svg PUBLIC "-//W3C//DTD SVG 1.1//EN" "http://www.w3.org/Graphics/SVG/1.1/DTD/svg11.dtd">
<svg version="1.1" xmlns="http://www.w3.org/2000/svg" xmlns:xlink="http://www.w3.org/1999/xlink" width="16" height="32" viewBox="0 0 16 32">
<path fill="#000" d="M15.090 31.404l-3-7.12h0.941c0.141 0 0.273-0.069 0.353-0.185s0.098-0.264 0.048-0.396l-2.612-6.907h0.925c0.143 0 0.275-0.071 0.355-0.189 0.079-0.118 0.096-0.268 0.043-0.4l-3.875-9.7c-0.065-0.163-0.223-0.27-0.399-0.27s-0.334 0.107-0.399 0.27l-3.876 9.7c-0.053 0.132-0.037 0.282 0.043 0.4s0.213 0.189 0.355 0.189h0.926l-2.613 6.907c-0.050 0.132-0.032 0.28 0.048 0.396s0.213 0.185 0.354 0.185h0.94l-3 7.12c-0.056 0.132-0.041 0.284 0.038 0.404s0.214 0.192 0.358 0.192h13.648c0.145 0 0.278-0.072 0.358-0.192s0.093-0.271 0.038-0.404zM8.365 29.796c0 0.375-0.304 0.679-0.679 0.679s-0.68-0.303-0.68-0.679c0-0.021 0.001-0.043 0.003-0.065 0-0.003 0.001-0.007 0.001-0.009 0.044-0.454 0.454-1.29 0.613-1.599 0.027-0.051 0.099-0.051 0.124 0 0.157 0.31 0.566 1.148 0.612 1.598 0 0.004 0.001 0.009 0.001 0.013 0.003 0.022 0.004 0.042 0.004 0.063zM6.51 29.796c0 0.375-0.304 0.679-0.679 0.679s-0.679-0.303-0.679-0.679c0-0.021 0.001-0.043 0.004-0.065 0-0.003 0-0.007 0.001-0.009 0.043-0.454 0.454-1.29 0.612-1.599 0.026-0.051 0.098-0.051 0.124 0 0.158 0.31 0.567 1.148 0.612 1.598 0 0.004 0.001 0.009 0.001 0.013 0.001 0.022 0.003 0.042 0.003 0.063zM7.538 20.406c0.158 0.31 0.567 1.147 0.613 1.597 0 0.005 0.002 0.009 0.002 0.013 0.002 0.022 0.004 0.043 0.004 0.063 0 0.374-0.305 0.679-0.68 0.679s-0.679-0.304-0.679-0.679c0-0.021 0.002-0.043 0.004-0.066 0-0.003 0-0.006 0.001-0.009 0.044-0.455 0.454-1.29 0.612-1.599 0.025-0.051 0.097-0.051 0.124-0zM6.296 22.003c0.001 0.005 0.001 0.009 0.001 0.013 0.003 0.022 0.004 0.043 0.004 0.063 0 0.374-0.304 0.679-0.678 0.679-0.131 0-0.251-0.039-0.355-0.102-0.194-0.12-0.325-0.333-0.325-0.577 0-0.021 0.002-0.043 0.003-0.066 0.001-0.003 0.001-0.006 0.001-0.009 0.044-0.455 0.454-1.29 0.612-1.599 0.027-0.050 0.099-0.050 0.124 0 0.066 0.128 0.173 0.348 0.282 0.593 0.152 0.345 0.304 0.741 0.33 1.004zM8.504 14.514c0.001 0.005 0.001 0.009 0.002 0.013 0.002 0.022 0.003 0.043 0.003 0.063 0 0.227-0.112 0.427-0.284 0.55-0.112 0.080-0.247 0.129-0.396 0.129-0.123 0-0.238-0.036-0.338-0.094-0.203-0.118-0.341-0.335-0.341-0.586 0-0.020 0.001-0.043 0.003-0.065 0-0.003 0-0.006 0-0.009 0.044-0.456 0.454-1.291 0.613-1.601 0.026-0.051 0.099-0.051 0.124 0 0.158 0.311 0.566 1.148 0.612 1.598zM3.3 29.73c0-0.003 0.001-0.007 0.001-0.009 0.044-0.454 0.454-1.29 0.613-1.599 0.026-0.051 0.099-0.051 0.124 0 0.158 0.31 0.567 1.148 0.613 1.598 0 0.004 0.001 0.009 0.001 0.013 0.002 0.022 0.003 0.043 0.003 0.063 0 0.375-0.304 0.679-0.678 0.679s-0.68-0.303-0.68-0.679c0-0.021 0.002-0.043 0.003-0.066z"></path>
</svg>
