<?xml version="1.0" encoding="utf-8"?>
<!-- Generated by IcoMoon.io -->
<!DOCTYPE svg PUBLIC "-//W3C//DTD SVG 1.1//EN" "http://www.w3.org/Graphics/SVG/1.1/DTD/svg11.dtd">
<svg version="1.1" xmlns="http://www.w3.org/2000/svg" xmlns:xlink="http://www.w3.org/1999/xlink" width="16" height="32" viewBox="0 0 16 32">
<path fill="#000" d="M15.089 26.16l-6.846-16.248c-0.063-0.15-0.211-0.248-0.374-0.248s-0.31 0.098-0.373 0.248l-6.847 16.248c-0.053 0.126-0.039 0.268 0.036 0.381s0.202 0.182 0.338 0.182h4.457l-1.88 4.708c-0.051 0.128-0.035 0.273 0.042 0.386s0.206 0.182 0.343 0.182h7.77c0.138 0 0.266-0.068 0.343-0.182s0.093-0.258 0.042-0.386l-1.881-4.708h4.457c0.136 0 0.262-0.068 0.338-0.182s0.089-0.255 0.036-0.381zM3.637 25.132c-0.211-0.116-0.355-0.338-0.355-0.595 0-0.021 0.001-0.043 0.003-0.066 0-0.003 0-0.005 0.001-0.008 0.044-0.457 0.456-1.295 0.615-1.605 0.026-0.051 0.099-0.051 0.124 0.001 0.070 0.138 0.189 0.38 0.305 0.645 0.145 0.335 0.284 0.706 0.31 0.957 0 0.005 0.001 0.008 0.001 0.013 0.002 0.023 0.003 0.044 0.003 0.064 0 0.376-0.305 0.68-0.681 0.68-0.119 0-0.229-0.033-0.326-0.086zM5.143 24.537c0-0.021 0.001-0.043 0.003-0.066 0-0.003 0-0.005 0.001-0.008 0.037-0.39 0.343-1.057 0.53-1.437 0.032-0.065 0.061-0.123 0.085-0.168 0.027-0.051 0.099-0.051 0.124 0.001 0.063 0.123 0.166 0.331 0.27 0.565 0.123 0.276 0.245 0.586 0.307 0.838 0.017 0.070 0.032 0.139 0.038 0.198 0 0.005 0.001 0.008 0.001 0.013 0.002 0.023 0.003 0.044 0.003 0.064 0 0.275-0.164 0.51-0.399 0.617-0.086 0.039-0.182 0.063-0.282 0.063-0.051 0-0.099-0.012-0.147-0.022-0.085-0.019-0.166-0.047-0.236-0.095-0.18-0.122-0.299-0.328-0.299-0.562zM7.149 29.806c0-0.021 0.001-0.043 0.003-0.066 0-0.003 0-0.006 0.001-0.009 0.044-0.456 0.455-1.294 0.615-1.604 0.026-0.051 0.098-0.051 0.124 0 0.158 0.31 0.569 1.15 0.615 1.601 0 0.005 0.001 0.009 0.001 0.014 0.002 0.022 0.004 0.043 0.004 0.063 0 0.376-0.305 0.68-0.681 0.68s-0.681-0.305-0.681-0.68zM10.691 25.912l-2.798-6.564-1.114 2.615h-0.882l1.623-3.808c0.064-0.149 0.211-0.247 0.373-0.247s0.31 0.097 0.373 0.247l3.308 7.758-0.883-0.001zM7.004 24.537c0-0.021 0.001-0.043 0.003-0.066 0-0.003 0-0.005 0.001-0.008 0.044-0.457 0.456-1.295 0.615-1.605 0.026-0.051 0.099-0.051 0.124 0.001 0.025 0.050 0.058 0.117 0.095 0.189 0.187 0.384 0.482 1.033 0.52 1.412 0.001 0.005 0.001 0.008 0.002 0.013 0.002 0.023 0.003 0.044 0.003 0.064 0 0.376-0.304 0.68-0.681 0.68-0.246 0-0.46-0.131-0.579-0.327-0.063-0.103-0.102-0.223-0.102-0.353z"></path>
</svg>
