<?xml version="1.0" encoding="utf-8"?>
<!-- Generated by IcoMoon.io -->
<!DOCTYPE svg PUBLIC "-//W3C//DTD SVG 1.1//EN" "http://www.w3.org/Graphics/SVG/1.1/DTD/svg11.dtd">
<svg version="1.1" xmlns="http://www.w3.org/2000/svg" xmlns:xlink="http://www.w3.org/1999/xlink" width="32" height="32" viewBox="0 0 32 32">
<path fill="#000" d="M25.366 25.009l-7.373-17.184c-0.097-0.226-0.301-0.389-0.541-0.435-0.241-0.047-0.491 0.030-0.664 0.203l-9.809 9.809c-0.174 0.173-0.251 0.422-0.203 0.663 0.047 0.24 0.208 0.444 0.434 0.541l17.184 7.375c0.279 0.119 0.602 0.057 0.817-0.158 0.212-0.212 0.275-0.537 0.155-0.814zM13.843 14.36c0.475-0.475 1.245-0.475 1.719-0.001 0.026 0.027 0.053 0.056 0.079 0.087 0.003 0.003 0.007 0.007 0.010 0.013 0.52 0.631 1.060 2.208 1.249 2.8 0.032 0.097-0.059 0.188-0.156 0.156-0.592-0.192-2.171-0.734-2.798-1.245-0.006-0.006-0.013-0.010-0.018-0.016-0.029-0.025-0.058-0.050-0.084-0.076-0.475-0.475-0.475-1.243 0-1.718z"></path>
</svg>
