<?xml version="1.0" encoding="utf-8"?>
<!-- Generated by IcoMoon.io -->
<!DOCTYPE svg PUBLIC "-//W3C//DTD SVG 1.1//EN" "http://www.w3.org/Graphics/SVG/1.1/DTD/svg11.dtd">
<svg version="1.1" xmlns="http://www.w3.org/2000/svg" xmlns:xlink="http://www.w3.org/1999/xlink" width="16" height="32" viewBox="0 0 16 32">
<path fill="#000" d="M15.094 31.424l-4.328-10.273h0.989c0.138 0 0.266-0.068 0.343-0.182s0.093-0.258 0.042-0.386l-1.514-3.792h1.13c0.138 0 0.266-0.068 0.343-0.182s0.093-0.258 0.042-0.386l-3.885-9.725c-0.063-0.158-0.216-0.261-0.385-0.261s-0.322 0.103-0.385 0.261l-3.885 9.725c-0.051 0.128-0.035 0.272 0.042 0.386s0.206 0.182 0.343 0.182h1.13l-1.515 3.792c-0.051 0.128-0.035 0.272 0.042 0.386s0.206 0.182 0.343 0.182h0.989l-4.329 10.273c-0.054 0.129-0.040 0.275 0.037 0.39s0.207 0.185 0.345 0.185h13.684c0.139 0 0.268-0.070 0.345-0.185s0.090-0.262 0.037-0.39zM8.366 29.805c0 0.376-0.305 0.681-0.681 0.681s-0.681-0.305-0.681-0.681c0-0.021 0.001-0.043 0.003-0.065 0-0.003 0-0.007 0.001-0.009 0.044-0.456 0.456-1.294 0.614-1.604 0.026-0.051 0.099-0.051 0.124 0 0.158 0.311 0.569 1.151 0.614 1.602 0.001 0.005 0.001 0.009 0.002 0.014 0.002 0.022 0.004 0.043 0.004 0.063zM6.506 29.805c0 0.376-0.305 0.681-0.681 0.681s-0.681-0.305-0.681-0.681c0-0.021 0.001-0.043 0.004-0.065 0-0.003 0-0.007 0.001-0.009 0.044-0.456 0.455-1.294 0.614-1.604 0.026-0.051 0.098-0.051 0.124 0 0.158 0.311 0.569 1.151 0.614 1.602 0.001 0.005 0.001 0.009 0.002 0.014 0.003 0.022 0.004 0.043 0.004 0.063zM7.152 18.892c0-0.003 0-0.006 0.001-0.009 0.044-0.457 0.455-1.294 0.615-1.604 0.026-0.051 0.098-0.051 0.124 0 0.158 0.311 0.569 1.15 0.615 1.601 0 0.005 0.001 0.009 0.001 0.014 0.002 0.022 0.004 0.043 0.004 0.063 0 0.376-0.305 0.681-0.681 0.681s-0.681-0.304-0.681-0.681c0-0.021 0.002-0.043 0.004-0.065zM8.506 14.52c0 0.005 0.001 0.009 0.001 0.014 0.002 0.022 0.004 0.043 0.004 0.063 0 0.227-0.112 0.426-0.283 0.55-0.112 0.081-0.249 0.131-0.398 0.131-0.125 0-0.24-0.036-0.341-0.095-0.202-0.118-0.34-0.335-0.34-0.586 0-0.021 0.001-0.043 0.003-0.065 0-0.003 0-0.006 0.001-0.009 0.044-0.457 0.455-1.294 0.615-1.604 0.026-0.051 0.098-0.051 0.124 0 0.158 0.31 0.569 1.15 0.615 1.601zM3.289 29.74c0-0.003 0-0.007 0.001-0.009 0.044-0.456 0.455-1.294 0.614-1.604 0.026-0.051 0.098-0.051 0.124 0 0.158 0.311 0.569 1.151 0.615 1.602 0 0.005 0.001 0.009 0.001 0.014 0.002 0.022 0.003 0.043 0.003 0.063 0 0.376-0.304 0.681-0.681 0.681-0.376 0-0.68-0.305-0.68-0.681 0-0.021 0.001-0.043 0.004-0.065z"></path>
</svg>
