<?xml version="1.0" encoding="utf-8"?>
<!-- Generated by IcoMoon.io -->
<!DOCTYPE svg PUBLIC "-//W3C//DTD SVG 1.1//EN" "http://www.w3.org/Graphics/SVG/1.1/DTD/svg11.dtd">
<svg version="1.1" xmlns="http://www.w3.org/2000/svg" xmlns:xlink="http://www.w3.org/1999/xlink" width="32" height="32" viewBox="0 0 32 32">
<path fill="#000" d="M31.022 1.593c-0.211-0.211-0.528-0.275-0.803-0.162l-29.142 11.865c-0.23 0.094-0.397 0.296-0.446 0.54s0.026 0.495 0.201 0.669l17.278 17.278c0.176 0.176 0.428 0.252 0.671 0.202 0.244-0.048 0.446-0.215 0.54-0.447l11.863-29.142c0.113-0.275 0.049-0.591-0.161-0.803zM9.51 13.403c-0.193 0.595-0.735 2.172-1.247 2.8-0.004 0.006-0.010 0.012-0.016 0.018-0.025 0.030-0.050 0.058-0.075 0.083-0.476 0.475-1.245 0.475-1.72 0s-0.475-1.243 0.001-1.719c0.026-0.026 0.055-0.052 0.086-0.078 0.004-0.003 0.008-0.009 0.013-0.010 0.632-0.521 2.209-1.059 2.801-1.251 0.097-0.030 0.189 0.062 0.157 0.156zM11.702 15.595c0.098-0.030 0.188 0.061 0.157 0.156-0.193 0.593-0.735 2.172-1.248 2.798-0.004 0.006-0.010 0.013-0.016 0.019-0.026 0.030-0.050 0.058-0.076 0.083-0.475 0.475-1.245 0.475-1.719 0s-0.476-1.245 0-1.72c0.026-0.025 0.055-0.051 0.087-0.077 0.003-0.004 0.009-0.008 0.013-0.010 0.632-0.52 2.21-1.059 2.802-1.249zM14.206 18.098c-0.193 0.594-0.735 2.172-1.247 2.799-0.004 0.007-0.010 0.013-0.016 0.019-0.026 0.030-0.050 0.058-0.075 0.082-0.476 0.476-1.246 0.475-1.721 0s-0.475-1.244 0.001-1.719c0.025-0.026 0.055-0.051 0.086-0.078 0.004-0.001 0.009-0.007 0.012-0.010 0.632-0.519 2.21-1.059 2.803-1.25 0.096-0.030 0.189 0.062 0.157 0.157z"></path>
</svg>
