<?xml version="1.0" encoding="utf-8"?>
<!-- Generated by IcoMoon.io -->
<!DOCTYPE svg PUBLIC "-//W3C//DTD SVG 1.1//EN" "http://www.w3.org/Graphics/SVG/1.1/DTD/svg11.dtd">
<svg version="1.1" xmlns="http://www.w3.org/2000/svg" xmlns:xlink="http://www.w3.org/1999/xlink" width="16" height="32" viewBox="0 0 16 32">
<path fill="#000" d="M15.064 31.438l-6.836-16.224c-0.063-0.15-0.21-0.248-0.373-0.248s-0.31 0.097-0.373 0.248l-6.835 16.224c-0.053 0.125-0.039 0.268 0.036 0.381s0.202 0.181 0.337 0.181h13.671c0.136 0 0.263-0.068 0.338-0.181s0.089-0.257 0.036-0.381zM3.631 30.41c-0.21-0.115-0.355-0.336-0.355-0.593 0-0.020 0.001-0.043 0.003-0.066 0-0.003 0-0.005 0.001-0.009 0.044-0.456 0.455-1.293 0.614-1.603 0.026-0.051 0.098-0.051 0.124 0.001 0.070 0.137 0.189 0.379 0.304 0.644 0.145 0.334 0.284 0.705 0.31 0.956 0 0.005 0.001 0.009 0.001 0.013 0.002 0.022 0.003 0.043 0.003 0.063 0 0.376-0.304 0.68-0.68 0.68-0.119 0-0.228-0.033-0.326-0.087zM10.673 31.19l-2.793-6.554-1.113 2.609h-0.88l1.62-3.801c0.063-0.149 0.21-0.245 0.372-0.245s0.309 0.096 0.372 0.245l3.302 7.747-0.88-0.001zM5.133 29.817c0-0.020 0.001-0.043 0.003-0.066 0-0.003 0-0.005 0.001-0.009 0.044-0.456 0.455-1.293 0.613-1.603 0.027-0.051 0.098-0.051 0.124 0.001 0.063 0.124 0.165 0.331 0.27 0.564 0.157 0.353 0.317 0.764 0.344 1.035 0 0.005 0.001 0.009 0.001 0.013 0.002 0.022 0.003 0.043 0.003 0.063 0 0.376-0.304 0.68-0.68 0.68-0.142 0-0.273-0.043-0.382-0.118-0.179-0.122-0.298-0.328-0.298-0.562zM6.991 29.817c0-0.020 0.001-0.043 0.003-0.066 0-0.003 0-0.005 0-0.009 0.044-0.456 0.455-1.293 0.614-1.603 0.026-0.051 0.098-0.051 0.124 0.001 0.158 0.31 0.568 1.149 0.613 1.599 0 0.005 0.001 0.009 0.001 0.013 0.002 0.022 0.004 0.043 0.004 0.063 0 0.376-0.304 0.68-0.681 0.68s-0.68-0.304-0.68-0.68zM12.412 31.191l-4.556-10.711-2.878 6.765h-0.88l3.385-7.958c0.063-0.149 0.21-0.246 0.372-0.246s0.309 0.097 0.373 0.246l0.458 1.078 4.606 10.826h-0.88z"></path>
</svg>
