<?xml version="1.0" encoding="utf-8"?>
<!-- Generated by IcoMoon.io -->
<!DOCTYPE svg PUBLIC "-//W3C//DTD SVG 1.1//EN" "http://www.w3.org/Graphics/SVG/1.1/DTD/svg11.dtd">
<svg version="1.1" xmlns="http://www.w3.org/2000/svg" xmlns:xlink="http://www.w3.org/1999/xlink" width="20" height="32" viewBox="0 0 20 32">
<path fill="#000" d="M19.039 31.331l-4.359-11.564c-0.057-0.153-0.186-0.267-0.344-0.306-0.158-0.040-0.324 0-0.446 0.108l-13.106 11.543c-0.154 0.137-0.209 0.354-0.136 0.548 0.073 0.193 0.257 0.32 0.463 0.32l17.464 0.019c0.163 0.001 0.315-0.079 0.408-0.213 0.094-0.133 0.115-0.305 0.056-0.456zM11.555 24.592c0.279-0.308 1.043-1.121 1.534-1.362 0.003-0.003 0.007-0.004 0.010-0.005 0.023-0.011 0.049-0.023 0.071-0.032 0.422-0.157 0.89 0.054 1.048 0.475 0.158 0.42-0.053 0.889-0.473 1.047-0.023 0.008-0.047 0.015-0.073 0.022-0.004 0.001-0.009 0.003-0.016 0.004-0.522 0.14-1.635 0.035-2.048-0.011-0.068-0.007-0.099-0.088-0.054-0.139zM14.528 26.795c-0.023 0.008-0.047 0.015-0.072 0.023-0.005 0-0.010 0.001-0.017 0.003-0.523 0.139-1.634 0.033-2.047-0.011-0.068-0.008-0.098-0.089-0.053-0.139 0.28-0.308 1.042-1.121 1.534-1.362 0.004-0.002 0.007-0.003 0.010-0.005 0.023-0.011 0.049-0.022 0.070-0.031 0.421-0.158 0.89 0.054 1.048 0.474s-0.053 0.888-0.473 1.048z"></path>
</svg>
