<?xml version="1.0" encoding="utf-8"?>
<!-- Generated by IcoMoon.io -->
<!DOCTYPE svg PUBLIC "-//W3C//DTD SVG 1.1//EN" "http://www.w3.org/Graphics/SVG/1.1/DTD/svg11.dtd">
<svg version="1.1" xmlns="http://www.w3.org/2000/svg" xmlns:xlink="http://www.w3.org/1999/xlink" width="12" height="32" viewBox="0 0 12 32">
<path fill="#000" d="M11.777 31.45l-2.256-5.964h0.573c0.138 0 0.266-0.068 0.343-0.182s0.093-0.258 0.042-0.386l-3.886-9.725c-0.063-0.158-0.216-0.261-0.385-0.261s-0.322 0.103-0.385 0.261l-3.885 9.725c-0.051 0.128-0.035 0.273 0.042 0.386s0.206 0.182 0.343 0.182h0.573l-0.256 0.676-2 5.288c-0.047 0.125-0.030 0.265 0.046 0.374s0.201 0.175 0.334 0.175h10.376c0.134 0 0.259-0.066 0.335-0.175s0.093-0.25 0.045-0.374zM3.15 29.765c0-0.003 0-0.007 0.001-0.009 0.044-0.458 0.457-1.298 0.616-1.609 0.027-0.051 0.099-0.051 0.125 0 0.021 0.041 0.048 0.094 0.076 0.152 0.14 0.284 0.348 0.736 0.462 1.11 0.038 0.126 0.068 0.244 0.078 0.343 0 0.005 0.001 0.010 0.001 0.014 0.002 0.022 0.003 0.043 0.003 0.063 0 0.302-0.197 0.554-0.468 0.645-0.068 0.023-0.139 0.038-0.215 0.038-0.231 0-0.434-0.116-0.558-0.292-0.078-0.111-0.125-0.245-0.125-0.391 0-0.021 0.002-0.042 0.004-0.065zM6.847 23.215c0 0.005 0.001 0.009 0.001 0.014 0.002 0.022 0.004 0.043 0.004 0.063 0 0.124-0.036 0.239-0.094 0.339-0.117 0.203-0.335 0.341-0.587 0.341-0.219 0-0.411-0.105-0.536-0.265-0.090-0.115-0.145-0.258-0.145-0.416 0-0.021 0.001-0.043 0.003-0.066 0-0.003 0-0.006 0.001-0.009 0.044-0.456 0.455-1.294 0.615-1.604 0.026-0.051 0.098-0.051 0.124 0 0.158 0.311 0.569 1.151 0.615 1.602zM5.694 30.513c-0.377 0-0.683-0.306-0.683-0.683 0-0.021 0.001-0.042 0.003-0.065 0-0.003 0-0.007 0.001-0.009 0.044-0.458 0.457-1.298 0.616-1.609 0.026-0.051 0.099-0.051 0.125 0 0.159 0.311 0.57 1.154 0.616 1.605 0.001 0.005 0.001 0.010 0.002 0.014 0.002 0.022 0.003 0.043 0.003 0.063 0 0.377-0.305 0.683-0.683 0.683zM5.234 27.196h-0.864l0.62-1.709h0.864l-0.62 1.709zM8.635 31.187l-2.069-5.701h0.864l2.067 5.701h-0.862z"></path>
</svg>
