<?xml version="1.0" encoding="utf-8"?>
<!-- Generated by IcoMoon.io -->
<!DOCTYPE svg PUBLIC "-//W3C//DTD SVG 1.1//EN" "http://www.w3.org/Graphics/SVG/1.1/DTD/svg11.dtd">
<svg version="1.1" xmlns="http://www.w3.org/2000/svg" xmlns:xlink="http://www.w3.org/1999/xlink" width="32" height="32" viewBox="0 0 32 32">
<path fill="#000" d="M25.023 17.391l-9.809-9.809c-0.173-0.174-0.422-0.25-0.663-0.204-0.24 0.046-0.444 0.209-0.541 0.435l-7.375 17.184c-0.118 0.278-0.058 0.601 0.158 0.817 0.213 0.213 0.538 0.276 0.815 0.156l17.184-7.373c0.226-0.098 0.388-0.301 0.435-0.541 0.047-0.242-0.030-0.49-0.204-0.665zM18.257 16.166c-0.027 0.027-0.056 0.053-0.087 0.078-0.003 0.003-0.007 0.007-0.012 0.010-0.631 0.521-2.21 1.060-2.802 1.248-0.097 0.032-0.188-0.058-0.156-0.156 0.193-0.591 0.735-2.17 1.245-2.797 0.006-0.006 0.010-0.013 0.016-0.018 0.025-0.030 0.050-0.058 0.076-0.084 0.475-0.475 1.244-0.475 1.719 0s0.476 1.244 0.001 1.719z"></path>
</svg>
