<?xml version="1.0" encoding="utf-8"?>
<!-- Generated by IcoMoon.io -->
<!DOCTYPE svg PUBLIC "-//W3C//DTD SVG 1.1//EN" "http://www.w3.org/Graphics/SVG/1.1/DTD/svg11.dtd">
<svg version="1.1" xmlns="http://www.w3.org/2000/svg" xmlns:xlink="http://www.w3.org/1999/xlink" width="16" height="32" viewBox="0 0 16 32">
<path fill="#000" d="M15.087 31.437l-3.971-9.424h0.615c0.138 0 0.266-0.068 0.343-0.182s0.093-0.258 0.042-0.386l-3.885-9.725c-0.063-0.158-0.216-0.261-0.385-0.261s-0.322 0.103-0.385 0.261l-3.885 9.725c-0.051 0.128-0.035 0.272 0.042 0.386s0.206 0.182 0.343 0.182h0.657l-3.971 9.424c-0.053 0.126-0.039 0.268 0.036 0.381s0.202 0.182 0.338 0.182h13.692c0.136 0 0.263-0.068 0.338-0.182s0.090-0.256 0.037-0.381zM7.128 19.753c0-0.003 0-0.007 0.001-0.009 0.044-0.457 0.455-1.294 0.615-1.604 0.026-0.050 0.098-0.050 0.124 0 0.158 0.311 0.569 1.151 0.615 1.601 0 0.005 0.001 0.010 0.001 0.014 0.002 0.023 0.004 0.044 0.004 0.063 0 0.377-0.305 0.681-0.681 0.681s-0.681-0.304-0.681-0.681c0.001-0.020 0.002-0.043 0.004-0.065zM3.961 30.494c-0.119 0-0.229-0.033-0.326-0.086-0.211-0.115-0.355-0.337-0.355-0.595 0-0.021 0.001-0.043 0.003-0.066 0-0.003 0-0.005 0.001-0.009 0.044-0.457 0.456-1.295 0.615-1.605 0.026-0.051 0.099-0.051 0.124 0.001 0.070 0.138 0.189 0.38 0.305 0.645 0.145 0.335 0.284 0.705 0.31 0.957 0 0.005 0.001 0.009 0.001 0.013 0.002 0.022 0.003 0.044 0.003 0.063 0 0.376-0.305 0.681-0.681 0.681zM5.822 30.494c-0.142 0-0.274-0.043-0.383-0.118-0.18-0.122-0.298-0.329-0.298-0.563 0-0.021 0.001-0.043 0.003-0.066 0-0.003 0-0.005 0.001-0.009 0.044-0.457 0.456-1.295 0.615-1.605 0.013-0.026 0.038-0.038 0.063-0.038s0.049 0.013 0.062 0.039c0.063 0.124 0.166 0.332 0.27 0.565 0.157 0.353 0.317 0.765 0.345 1.037 0 0.005 0.001 0.009 0.001 0.013 0.002 0.022 0.003 0.044 0.003 0.063-0 0.376-0.306 0.681-0.682 0.681zM7.683 30.494c-0.376 0-0.681-0.305-0.681-0.681 0-0.021 0.001-0.043 0.003-0.066 0-0.003 0-0.005 0.001-0.009 0.044-0.457 0.456-1.295 0.615-1.605 0.026-0.051 0.099-0.051 0.124 0.001 0.158 0.31 0.569 1.15 0.614 1.602 0 0.005 0.001 0.009 0.001 0.013 0.002 0.022 0.004 0.044 0.004 0.063 0 0.377-0.304 0.681-0.681 0.681zM10.689 31.188l-2.798-6.565-1.114 2.615h-0.882l1.623-3.808c0.064-0.149 0.211-0.246 0.373-0.246s0.309 0.097 0.373 0.246l3.308 7.759-0.882-0z"></path>
</svg>
