<?xml version="1.0" encoding="utf-8"?>
<!-- Generated by IcoMoon.io -->
<!DOCTYPE svg PUBLIC "-//W3C//DTD SVG 1.1//EN" "http://www.w3.org/Graphics/SVG/1.1/DTD/svg11.dtd">
<svg version="1.1" xmlns="http://www.w3.org/2000/svg" xmlns:xlink="http://www.w3.org/1999/xlink" width="16" height="32" viewBox="0 0 16 32">
<path fill="#000" d="M15.14 31.424l-3.789-8.993h0.45c0.138 0 0.266-0.068 0.343-0.182s0.092-0.258 0.041-0.386l-1.424-3.565h3.956c0.139 0 0.268-0.070 0.345-0.185s0.091-0.262 0.037-0.39l-6.842-16.239c-0.065-0.154-0.216-0.254-0.382-0.254s-0.318 0.1-0.382 0.254l-6.842 16.239c-0.054 0.129-0.040 0.275 0.037 0.391s0.207 0.185 0.345 0.185h4.036l-1.424 3.565c-0.051 0.128-0.035 0.272 0.042 0.386s0.206 0.182 0.343 0.182h0.45l-3.789 8.992c-0.054 0.129-0.040 0.275 0.037 0.39s0.207 0.185 0.345 0.185h13.684c0.139 0 0.268-0.070 0.345-0.185s0.091-0.261 0.037-0.39zM8.412 29.805c0 0.377-0.305 0.681-0.681 0.681s-0.681-0.304-0.681-0.681c0-0.020 0.001-0.042 0.003-0.065 0-0.003 0-0.007 0.001-0.009 0.044-0.456 0.456-1.295 0.614-1.605 0.026-0.050 0.099-0.050 0.124 0 0.158 0.311 0.569 1.152 0.614 1.603 0.001 0.004 0.001 0.009 0.002 0.014 0.002 0.022 0.004 0.043 0.004 0.062zM6.553 29.805c0 0.377-0.305 0.681-0.681 0.681s-0.681-0.304-0.681-0.681c0-0.020 0.001-0.042 0.004-0.065 0-0.003 0-0.007 0.001-0.009 0.044-0.456 0.455-1.295 0.614-1.605 0.026-0.050 0.098-0.050 0.124 0 0.158 0.311 0.569 1.152 0.614 1.603 0.001 0.004 0.001 0.009 0.002 0.014 0.003 0.022 0.004 0.043 0.004 0.062zM8.557 20.237c0 0.377-0.305 0.681-0.681 0.681s-0.681-0.304-0.681-0.681c0-0.020 0.001-0.043 0.003-0.065 0-0.003 0-0.007 0.001-0.009 0.044-0.457 0.455-1.294 0.615-1.604 0.026-0.050 0.098-0.050 0.124 0 0.158 0.311 0.569 1.151 0.614 1.601 0 0.005 0.001 0.010 0.001 0.014 0.003 0.022 0.005 0.044 0.005 0.063zM5.832 16.785c-0.052 0-0.102-0.007-0.151-0.018-0.303-0.069-0.53-0.338-0.53-0.663 0-0.020 0.001-0.042 0.004-0.065 0-0.003 0-0.007 0.001-0.009 0.044-0.456 0.455-1.294 0.614-1.604 0.026-0.050 0.098-0.050 0.124 0 0.087 0.171 0.25 0.503 0.386 0.841 0.112 0.277 0.207 0.558 0.228 0.761 0.001 0.004 0.001 0.009 0.002 0.014 0.002 0.022 0.003 0.043 0.003 0.062 0 0.377-0.304 0.681-0.681 0.681zM8.368 16.027c0.001 0.004 0.001 0.009 0.002 0.014 0.002 0.022 0.003 0.043 0.003 0.062 0 0.252-0.138 0.469-0.34 0.587-0.081 0.047-0.172 0.077-0.27 0.087-0.024 0.003-0.046 0.007-0.071 0.007-0.297 0-0.547-0.191-0.64-0.457-0.025-0.070-0.041-0.146-0.041-0.225 0-0.020 0.001-0.042 0.003-0.065 0-0.003 0-0.007 0.001-0.009 0.044-0.456 0.456-1.294 0.614-1.604 0.026-0.050 0.099-0.050 0.124 0 0.059 0.116 0.153 0.304 0.25 0.519 0.163 0.363 0.336 0.799 0.364 1.083zM3.295 16.039c0-0.003 0-0.007 0.001-0.009 0.044-0.456 0.455-1.294 0.614-1.604 0.026-0.050 0.098-0.050 0.124 0 0.158 0.311 0.569 1.151 0.615 1.602 0 0.004 0.001 0.009 0.001 0.014 0.002 0.022 0.003 0.043 0.003 0.062 0 0.377-0.304 0.681-0.681 0.681-0.376 0-0.68-0.305-0.68-0.681 0-0.020 0.001-0.042 0.004-0.065zM3.335 29.74c0-0.003 0-0.007 0.001-0.009 0.044-0.456 0.455-1.295 0.614-1.605 0.026-0.050 0.098-0.050 0.124 0 0.158 0.311 0.569 1.152 0.615 1.603 0 0.004 0.001 0.009 0.001 0.014 0.002 0.022 0.003 0.043 0.003 0.062 0 0.377-0.304 0.681-0.681 0.681-0.376 0-0.68-0.304-0.68-0.681 0-0.020 0.001-0.042 0.004-0.065z"></path>
</svg>
