<?xml version="1.0" encoding="utf-8"?>
<!-- Generated by IcoMoon.io -->
<!DOCTYPE svg PUBLIC "-//W3C//DTD SVG 1.1//EN" "http://www.w3.org/Graphics/SVG/1.1/DTD/svg11.dtd">
<svg version="1.1" xmlns="http://www.w3.org/2000/svg" xmlns:xlink="http://www.w3.org/1999/xlink" width="16" height="32" viewBox="0 0 16 32">
<path fill="#000" d="M15.040 31.439l-2.714-6.44h0.717c0.136 0 0.264-0.067 0.341-0.179s0.095-0.255 0.047-0.382l-5.174-13.677c-0.061-0.162-0.216-0.268-0.388-0.268s-0.327 0.107-0.388 0.268l-5.174 13.678c-0.048 0.127-0.031 0.27 0.047 0.382s0.205 0.179 0.341 0.179h0.666l-2.714 6.44c-0.053 0.126-0.039 0.268 0.036 0.381s0.201 0.181 0.337 0.181h13.649c0.135 0 0.262-0.068 0.336-0.181s0.088-0.255 0.036-0.381zM3.626 30.413c-0.21-0.115-0.354-0.336-0.354-0.593 0-0.020 0.001-0.043 0.003-0.066 0-0.003 0-0.005 0.001-0.009 0.044-0.455 0.454-1.29 0.612-1.6 0.026-0.051 0.098-0.051 0.124 0.001 0.070 0.137 0.189 0.379 0.304 0.643 0.145 0.333 0.284 0.702 0.309 0.954 0 0.005 0.001 0.009 0.001 0.013 0.002 0.022 0.003 0.043 0.003 0.063 0 0.375-0.304 0.679-0.679 0.679-0.118 0-0.228-0.033-0.325-0.086zM5.126 29.82c0-0.020 0.001-0.043 0.003-0.066 0-0.003 0-0.005 0.001-0.009 0.044-0.455 0.455-1.29 0.612-1.6 0.027-0.051 0.098-0.051 0.124 0.001 0.063 0.123 0.165 0.331 0.269 0.564 0.157 0.352 0.316 0.763 0.344 1.033 0 0.005 0.001 0.009 0.001 0.013 0.002 0.022 0.003 0.043 0.003 0.063 0 0.375-0.304 0.679-0.679 0.679-0.141 0-0.273-0.044-0.381-0.118-0.18-0.121-0.298-0.327-0.298-0.561zM7.66 30.5c-0.375 0-0.679-0.304-0.679-0.679 0-0.020 0.001-0.043 0.003-0.066 0-0.003 0-0.005 0-0.009 0.044-0.455 0.455-1.29 0.613-1.6 0.026-0.051 0.098-0.051 0.124 0.001 0.158 0.309 0.567 1.147 0.612 1.597 0 0.005 0.001 0.009 0.001 0.013 0.002 0.022 0.003 0.043 0.003 0.063 0 0.375-0.304 0.679-0.679 0.679zM4.97 27.254h-0.878l0.959-2.255h0.879l-0.96 2.255zM8.153 22.74c0.002 0.023 0.003 0.044 0.003 0.063 0 0.377-0.305 0.681-0.681 0.681-0.331 0-0.606-0.236-0.668-0.55-0.008-0.043-0.013-0.086-0.013-0.131 0-0.020 0.001-0.043 0.004-0.065 0-0.003 0-0.007 0.001-0.009 0.044-0.457 0.455-1.294 0.614-1.604 0.026-0.050 0.098-0.050 0.124 0 0.006 0.012 0.015 0.030 0.022 0.044 0.17 0.337 0.549 1.125 0.593 1.558 0.001 0.004 0.001 0.009 0.002 0.013zM4.935 22.803c0-0.020 0.001-0.043 0.003-0.065 0-0.003 0-0.007 0.001-0.009 0.044-0.457 0.455-1.294 0.614-1.604 0.026-0.050 0.098-0.050 0.124 0 0.027 0.054 0.064 0.129 0.104 0.21 0.129 0.265 0.302 0.644 0.412 0.978 0.050 0.153 0.087 0.297 0.099 0.413 0.001 0.005 0.001 0.010 0.002 0.014 0.002 0.023 0.003 0.044 0.003 0.063 0 0.348-0.262 0.631-0.598 0.673-0.027 0.003-0.055 0.009-0.083 0.009-0.255 0-0.476-0.143-0.592-0.351-0.055-0.098-0.089-0.21-0.089-0.331zM12.393 31.192l-2.635-6.194h0.879l2.635 6.194h-0.878z"></path>
</svg>
