<?xml version="1.0" encoding="utf-8"?>
<!-- Generated by IcoMoon.io -->
<!DOCTYPE svg PUBLIC "-//W3C//DTD SVG 1.1//EN" "http://www.w3.org/Graphics/SVG/1.1/DTD/svg11.dtd">
<svg version="1.1" xmlns="http://www.w3.org/2000/svg" xmlns:xlink="http://www.w3.org/1999/xlink" width="16" height="32" viewBox="0 0 16 32">
<path fill="#000" d="M15.089 22.733l-6.846-16.249c-0.063-0.15-0.211-0.248-0.374-0.248s-0.31 0.098-0.373 0.248l-6.847 16.249c-0.053 0.126-0.039 0.268 0.036 0.381s0.202 0.182 0.338 0.182h4.365l-3.080 8.142c-0.048 0.127-0.031 0.27 0.047 0.382s0.205 0.179 0.341 0.179h10.348c0.136 0 0.264-0.067 0.341-0.179s0.095-0.255 0.047-0.382l-3.080-8.143h4.364c0.136 0 0.263-0.068 0.338-0.182s0.090-0.255 0.037-0.381zM4.935 29.805c0-0.021 0.001-0.043 0.003-0.065 0-0.003 0-0.006 0.001-0.009 0.044-0.457 0.455-1.294 0.614-1.604 0.026-0.051 0.098-0.051 0.124 0 0.158 0.311 0.569 1.15 0.614 1.601 0.001 0.005 0.001 0.009 0.002 0.014 0.002 0.022 0.003 0.043 0.003 0.063 0 0.376-0.305 0.681-0.681 0.681-0.375 0-0.681-0.305-0.681-0.681zM6.795 29.805c0-0.021 0.001-0.043 0.004-0.065 0-0.003 0-0.006 0.001-0.009 0.044-0.457 0.455-1.294 0.614-1.604 0.026-0.051 0.098-0.051 0.124 0 0.158 0.311 0.569 1.15 0.614 1.601 0.001 0.005 0.001 0.009 0.002 0.014 0.002 0.022 0.003 0.043 0.003 0.063 0 0.376-0.305 0.681-0.681 0.681s-0.681-0.305-0.681-0.681zM3.637 21.704c-0.211-0.115-0.355-0.337-0.355-0.595 0-0.021 0.001-0.043 0.003-0.066 0-0.003 0-0.005 0.001-0.009 0.044-0.457 0.456-1.295 0.615-1.605 0.026-0.051 0.099-0.051 0.124 0.001 0.070 0.138 0.189 0.38 0.305 0.645 0.145 0.335 0.284 0.705 0.31 0.957 0 0.005 0.001 0.009 0.001 0.013 0.002 0.022 0.003 0.044 0.003 0.063 0 0.376-0.305 0.681-0.681 0.681-0.119 0-0.229-0.033-0.326-0.086zM5.441 21.673c-0.18-0.122-0.298-0.329-0.298-0.563 0-0.021 0.001-0.043 0.003-0.066 0-0.003 0-0.005 0.001-0.009 0.044-0.457 0.456-1.295 0.615-1.605 0.013-0.025 0.038-0.038 0.063-0.038s0.049 0.013 0.062 0.039c0.063 0.124 0.166 0.332 0.27 0.565 0.090 0.202 0.178 0.421 0.244 0.624 0.050 0.152 0.089 0.297 0.101 0.413 0 0.005 0.001 0.009 0.001 0.013 0.002 0.022 0.003 0.044 0.003 0.063 0 0.328-0.233 0.603-0.543 0.666-0.045 0.009-0.091 0.014-0.138 0.014-0.142 0-0.274-0.043-0.383-0.117zM10.691 22.485l-2.798-6.565-1.114 2.615h-0.882l1.623-3.808c0.064-0.149 0.211-0.246 0.373-0.246s0.309 0.097 0.373 0.246l3.308 7.758-0.882-0zM7.004 21.11c0-0.021 0.001-0.043 0.003-0.066 0-0.003 0-0.005 0.001-0.009 0.044-0.457 0.456-1.295 0.615-1.605 0.024-0.047 0.087-0.046 0.117-0.004 0.002 0.003 0.007 0.002 0.008 0.005 0.158 0.31 0.569 1.15 0.614 1.602 0 0.005 0.001 0.009 0.001 0.013 0.002 0.022 0.004 0.044 0.004 0.063 0 0.376-0.305 0.681-0.681 0.681-0.312 0-0.572-0.211-0.653-0.497-0.017-0.058-0.029-0.119-0.029-0.184z"></path>
</svg>
