<?xml version="1.0" encoding="utf-8"?>
<!-- Generated by IcoMoon.io -->
<!DOCTYPE svg PUBLIC "-//W3C//DTD SVG 1.1//EN" "http://www.w3.org/Graphics/SVG/1.1/DTD/svg11.dtd">
<svg version="1.1" xmlns="http://www.w3.org/2000/svg" xmlns:xlink="http://www.w3.org/1999/xlink" width="16" height="32" viewBox="0 0 16 32">
<path fill="#000" d="M15.094 26.921l-2.605-6.182h0.551c0.136 0 0.264-0.066 0.341-0.179s0.095-0.255 0.047-0.382l-5.174-13.677c-0.061-0.162-0.216-0.268-0.388-0.268s-0.327 0.107-0.388 0.268l-5.174 13.677c-0.049 0.127-0.031 0.271 0.047 0.382s0.205 0.179 0.341 0.179h0.557l-2.605 6.182c-0.054 0.129-0.040 0.275 0.037 0.39s0.207 0.185 0.345 0.185h4.138l-1.568 3.927c-0.051 0.128-0.035 0.272 0.042 0.386s0.206 0.182 0.343 0.182h7.77c0.138 0 0.266-0.068 0.343-0.182s0.093-0.258 0.042-0.386l-1.568-3.927h4.143c0.139 0 0.268-0.070 0.345-0.185s0.090-0.262 0.036-0.39zM8.508 29.797c0 0.377-0.305 0.681-0.681 0.681s-0.681-0.304-0.681-0.681c0-0.020 0.001-0.043 0.003-0.065 0-0.003 0-0.007 0.001-0.009 0.044-0.457 0.455-1.294 0.615-1.604 0.026-0.050 0.098-0.050 0.124 0 0.158 0.311 0.569 1.151 0.615 1.601 0 0.005 0.001 0.010 0.001 0.014 0.002 0.023 0.004 0.044 0.004 0.063zM7.004 25.302c0-0.020 0.001-0.042 0.003-0.065 0-0.003 0-0.007 0.001-0.009 0.006-0.062 0.020-0.133 0.038-0.207 0.095-0.386 0.329-0.897 0.486-1.218 0.034-0.069 0.066-0.132 0.090-0.18 0.026-0.050 0.099-0.050 0.124 0 0.158 0.311 0.569 1.151 0.614 1.602 0.001 0.004 0.001 0.009 0.002 0.014 0.002 0.022 0.003 0.043 0.003 0.062 0 0.377-0.305 0.681-0.681 0.681s-0.681-0.304-0.681-0.681zM5.771 25.978c-0.35-0.028-0.627-0.318-0.627-0.676 0-0.020 0.001-0.042 0.004-0.065 0-0.003 0-0.007 0.001-0.009 0.044-0.456 0.455-1.294 0.614-1.604 0.026-0.050 0.098-0.050 0.124 0 0.098 0.193 0.293 0.588 0.438 0.969 0.089 0.233 0.16 0.462 0.177 0.633 0.001 0.004 0.001 0.009 0.002 0.014 0.002 0.022 0.003 0.043 0.003 0.062 0 0.377-0.305 0.681-0.681 0.681-0.019 0-0.036-0.004-0.054-0.005zM4.932 18.545c0-0.021 0.001-0.043 0.003-0.066 0-0.003 0-0.006 0.001-0.009 0.044-0.456 0.455-1.294 0.614-1.604 0.026-0.051 0.098-0.051 0.124 0 0.017 0.032 0.037 0.073 0.058 0.116 0.183 0.368 0.515 1.081 0.556 1.485 0.001 0.005 0.001 0.009 0.002 0.014 0.002 0.022 0.003 0.043 0.003 0.063 0 0.376-0.305 0.68-0.681 0.68-0.293 0-0.541-0.186-0.637-0.446-0.027-0.073-0.044-0.152-0.044-0.234zM8.15 18.481c0.002 0.022 0.003 0.043 0.003 0.063 0 0.376-0.305 0.68-0.681 0.68s-0.681-0.304-0.681-0.68c0-0.021 0.001-0.043 0.004-0.066 0-0.003 0-0.006 0.001-0.009 0.044-0.456 0.455-1.294 0.614-1.604 0.026-0.051 0.098-0.051 0.124 0 0.158 0.31 0.569 1.15 0.614 1.601 0.001 0.005 0.001 0.009 0.002 0.014zM3.289 25.237c0-0.003 0-0.007 0.001-0.009 0.044-0.456 0.455-1.294 0.614-1.604 0.026-0.050 0.098-0.050 0.124 0 0.158 0.311 0.569 1.151 0.615 1.602 0 0.004 0.001 0.009 0.001 0.014 0.002 0.022 0.003 0.043 0.003 0.062 0 0.377-0.304 0.681-0.681 0.681-0.376 0-0.68-0.304-0.68-0.681 0-0.020 0.001-0.042 0.004-0.065z"></path>
</svg>
