<?xml version="1.0" encoding="utf-8"?>
<!-- Generated by IcoMoon.io -->
<!DOCTYPE svg PUBLIC "-//W3C//DTD SVG 1.1//EN" "http://www.w3.org/Graphics/SVG/1.1/DTD/svg11.dtd">
<svg version="1.1" xmlns="http://www.w3.org/2000/svg" xmlns:xlink="http://www.w3.org/1999/xlink" width="16" height="32" viewBox="0 0 16 32">
<path fill="#000" d="M15.040 31.439l-3.971-9.426h0.66c0.138 0 0.266-0.068 0.343-0.182s0.093-0.258 0.042-0.386l-3.886-9.725c-0.063-0.158-0.216-0.261-0.385-0.261s-0.322 0.103-0.385 0.261l-3.885 9.725c-0.051 0.128-0.035 0.272 0.042 0.386s0.206 0.182 0.343 0.182h0.66l-3.972 9.426c-0.053 0.126-0.039 0.268 0.036 0.381s0.201 0.181 0.337 0.181h13.649c0.135 0 0.262-0.068 0.336-0.181s0.088-0.255 0.036-0.381zM3.626 30.413c-0.21-0.115-0.354-0.336-0.354-0.593 0-0.020 0.001-0.043 0.003-0.066 0-0.003 0-0.005 0.001-0.009 0.044-0.455 0.454-1.29 0.612-1.6 0.015-0.029 0.043-0.037 0.070-0.033 0.021 0.003 0.043 0.011 0.054 0.034 0.070 0.137 0.189 0.379 0.304 0.643 0.145 0.333 0.284 0.702 0.309 0.954 0 0.005 0.001 0.009 0.001 0.013 0.002 0.022 0.003 0.043 0.003 0.063 0 0.372-0.3 0.674-0.671 0.678-0.002 0-0.005 0.001-0.008 0.001-0.118 0-0.228-0.033-0.325-0.086zM5.126 29.82c0-0.020 0.001-0.043 0.003-0.066 0-0.003 0-0.005 0.001-0.009 0.044-0.455 0.455-1.29 0.612-1.6 0.027-0.051 0.098-0.051 0.124 0.001 0.063 0.123 0.165 0.331 0.269 0.564 0.157 0.352 0.316 0.763 0.344 1.033 0 0.005 0.001 0.009 0.001 0.013 0.002 0.022 0.003 0.043 0.003 0.063 0 0.375-0.304 0.679-0.679 0.679-0.141 0-0.273-0.044-0.381-0.118-0.18-0.121-0.298-0.327-0.298-0.561zM7.66 30.5c-0.375 0-0.679-0.304-0.679-0.679 0-0.020 0.001-0.043 0.003-0.066 0-0.003 0-0.005 0-0.009 0.044-0.455 0.455-1.29 0.613-1.6 0.026-0.051 0.098-0.051 0.124 0.001 0.158 0.309 0.567 1.147 0.612 1.597 0 0.005 0.001 0.009 0.001 0.013 0.002 0.022 0.003 0.043 0.003 0.063 0 0.375-0.304 0.679-0.679 0.679zM4.97 27.254h-0.878l2.229-5.241h0.879l-2.23 5.241zM8.48 19.741c0 0.005 0.001 0.010 0.001 0.014 0.002 0.023 0.004 0.044 0.004 0.063 0 0.034-0.005 0.067-0.010 0.1-0.048 0.328-0.329 0.581-0.671 0.581-0.3 0-0.551-0.195-0.642-0.462-0.023-0.069-0.039-0.142-0.039-0.219 0-0.020 0.001-0.043 0.003-0.065 0-0.003 0-0.007 0.001-0.009 0.044-0.457 0.455-1.294 0.615-1.604 0.026-0.050 0.098-0.050 0.124 0 0.158 0.311 0.569 1.151 0.615 1.601zM12.393 31.192l-3.905-9.179h0.879l3.905 9.179h-0.879z"></path>
</svg>
