<?xml version="1.0" encoding="utf-8"?>
<!-- Generated by IcoMoon.io -->
<!DOCTYPE svg PUBLIC "-//W3C//DTD SVG 1.1//EN" "http://www.w3.org/Graphics/SVG/1.1/DTD/svg11.dtd">
<svg version="1.1" xmlns="http://www.w3.org/2000/svg" xmlns:xlink="http://www.w3.org/1999/xlink" width="32" height="32" viewBox="0 0 32 32">
<path fill="#000" d="M31.371 13.835c-0.049-0.244-0.215-0.446-0.447-0.54l-29.142-11.863c-0.275-0.112-0.592-0.048-0.803 0.162s-0.275 0.527-0.163 0.803l11.864 29.141c0.095 0.23 0.297 0.397 0.54 0.446s0.495-0.026 0.669-0.201l17.279-17.278c0.176-0.176 0.252-0.428 0.202-0.671zM12.789 23.104c0.593 0.193 2.172 0.735 2.8 1.247 0.006 0.004 0.012 0.010 0.018 0.016 0.030 0.025 0.058 0.050 0.082 0.075 0.476 0.476 0.476 1.245 0 1.72-0.475 0.475-1.244 0.475-1.718-0.001-0.026-0.026-0.052-0.055-0.078-0.086-0.003-0.004-0.009-0.008-0.010-0.013-0.521-0.632-1.060-2.209-1.251-2.801-0.030-0.097 0.061-0.189 0.156-0.157zM15.138 20.756c0.593 0.193 2.172 0.735 2.799 1.248 0.006 0.004 0.012 0.010 0.018 0.016 0.030 0.026 0.059 0.050 0.084 0.076 0.475 0.475 0.475 1.245 0 1.719s-1.245 0.476-1.722 0c-0.024-0.026-0.050-0.055-0.077-0.087-0.003-0.003-0.007-0.009-0.010-0.013-0.521-0.632-1.059-2.209-1.251-2.801-0.028-0.098 0.063-0.189 0.158-0.158zM20.386 21.466c-0.475 0.475-1.244 0.475-1.719-0.001-0.026-0.025-0.052-0.055-0.078-0.086-0.001-0.004-0.007-0.009-0.010-0.012-0.519-0.632-1.059-2.209-1.25-2.803-0.030-0.096 0.061-0.188 0.156-0.156 0.593 0.193 2.172 0.735 2.798 1.247 0.007 0.004 0.013 0.010 0.020 0.016 0.029 0.026 0.058 0.050 0.082 0.075 0.477 0.475 0.475 1.245 0.001 1.72z"></path>
</svg>
