<?xml version="1.0" encoding="utf-8"?>
<!-- Generated by IcoMoon.io -->
<!DOCTYPE svg PUBLIC "-//W3C//DTD SVG 1.1//EN" "http://www.w3.org/Graphics/SVG/1.1/DTD/svg11.dtd">
<svg version="1.1" xmlns="http://www.w3.org/2000/svg" xmlns:xlink="http://www.w3.org/1999/xlink" width="12" height="32" viewBox="0 0 12 32">
<path fill="#000" d="M8.435 22.617h2.959c0.134 0 0.258-0.066 0.335-0.175s0.093-0.25 0.045-0.375l-5.188-13.714c-0.060-0.158-0.212-0.262-0.381-0.262s-0.32 0.104-0.38 0.262l-5.188 13.714c-0.047 0.125-0.030 0.265 0.046 0.375s0.201 0.175 0.334 0.175h2.959l-3.333 8.811c-0.048 0.127-0.031 0.27 0.047 0.382s0.205 0.179 0.341 0.179h10.349c0.136 0 0.263-0.066 0.341-0.179s0.095-0.255 0.047-0.382l-3.332-8.811zM3.147 20.383c0-0.003 0-0.007 0.001-0.009 0.044-0.458 0.457-1.298 0.616-1.609 0.027-0.051 0.099-0.051 0.125 0 0.021 0.041 0.048 0.094 0.076 0.152 0.14 0.284 0.348 0.736 0.462 1.11 0.038 0.126 0.068 0.245 0.078 0.343 0 0.005 0.001 0.010 0.001 0.014 0.002 0.022 0.003 0.044 0.003 0.063 0 0.302-0.197 0.554-0.468 0.645-0.068 0.023-0.139 0.038-0.215 0.038-0.231 0-0.434-0.116-0.558-0.292-0.078-0.111-0.125-0.245-0.125-0.391 0-0.020 0.002-0.042 0.004-0.065zM6.493 29.796c0 0.376-0.305 0.68-0.682 0.68s-0.681-0.304-0.681-0.68c0-0.021 0.001-0.043 0.004-0.066 0-0.003 0-0.006 0.001-0.009 0.044-0.456 0.455-1.294 0.614-1.604 0.026-0.051 0.098-0.051 0.124 0 0.159 0.31 0.569 1.15 0.615 1.601 0.001 0.005 0.001 0.009 0.002 0.014 0.002 0.022 0.004 0.043 0.004 0.063zM5.69 21.13c-0.087 0-0.169-0.018-0.246-0.047-0.255-0.099-0.437-0.345-0.437-0.635 0-0.020 0.001-0.042 0.003-0.065 0-0.003 0-0.007 0.001-0.009 0.044-0.458 0.457-1.298 0.616-1.609 0.026-0.051 0.099-0.051 0.125 0 0.072 0.141 0.197 0.395 0.316 0.67 0.142 0.329 0.275 0.69 0.3 0.936 0.001 0.005 0.001 0.010 0.002 0.014 0.003 0.022 0.003 0.044 0.003 0.063 0 0.377-0.306 0.683-0.683 0.683zM3.274 29.73c0-0.003 0-0.006 0.001-0.009 0.044-0.456 0.455-1.294 0.614-1.604 0.026-0.051 0.098-0.051 0.124 0 0.158 0.31 0.569 1.15 0.614 1.601 0.001 0.005 0.001 0.009 0.002 0.014 0.002 0.022 0.003 0.043 0.003 0.063 0 0.376-0.305 0.68-0.681 0.68s-0.681-0.304-0.681-0.68c0-0.021 0.002-0.043 0.004-0.066zM8.631 21.805l-2.426-6.684-0.976 2.692h-0.864l1.459-4.022c0.058-0.161 0.211-0.268 0.381-0.268s0.324 0.107 0.382 0.268l2.906 8.014h-0.863z"></path>
</svg>
