<?xml version="1.0" encoding="utf-8"?>
<!-- Generated by IcoMoon.io -->
<!DOCTYPE svg PUBLIC "-//W3C//DTD SVG 1.1//EN" "http://www.w3.org/Graphics/SVG/1.1/DTD/svg11.dtd">
<svg version="1.1" xmlns="http://www.w3.org/2000/svg" xmlns:xlink="http://www.w3.org/1999/xlink" width="20" height="32" viewBox="0 0 20 32">
<path fill="#231f20" d="M18.949 31.295l-12.306-12.612c-0.097-0.1-0.237-0.144-0.374-0.118s-0.251 0.118-0.304 0.246l-5.316 12.61c-0.053 0.128-0.040 0.275 0.037 0.39s0.206 0.185 0.345 0.185l17.621 0.002c0.167 0 0.318-0.1 0.382-0.253s0.032-0.332-0.085-0.451zM6.386 23.459c0.019 0.008 0.039 0.017 0.058 0.028 0.003 0.001 0.007 0.003 0.008 0.004 0.403 0.218 1.016 0.923 1.24 1.189 0.037 0.044 0.008 0.111-0.049 0.114-0.348 0.026-1.281 0.078-1.714-0.056-0.005-0.001-0.009-0.003-0.014-0.004-0.021-0.007-0.041-0.013-0.059-0.021-0.347-0.146-0.51-0.546-0.363-0.892s0.545-0.508 0.892-0.362zM4.773 25.535c0.146-0.346 0.545-0.509 0.892-0.363 0.019 0.008 0.039 0.018 0.059 0.028 0.003 0.002 0.006 0.003 0.008 0.004 0.403 0.218 1.016 0.923 1.239 1.19 0.037 0.044 0.009 0.11-0.048 0.114-0.348 0.025-1.282 0.078-1.715-0.056-0.005-0.001-0.009-0.003-0.014-0.004-0.020-0.007-0.041-0.014-0.059-0.021-0.347-0.146-0.509-0.545-0.363-0.892zM8.367 23.082c-0.348 0.025-1.281 0.077-1.715-0.056-0.004-0.001-0.009-0.003-0.013-0.004-0.021-0.007-0.041-0.014-0.059-0.022-0.347-0.146-0.51-0.545-0.363-0.892s0.545-0.509 0.892-0.362c0.019 0.008 0.039 0.017 0.058 0.028 0.003 0.001 0.006 0.003 0.008 0.005 0.403 0.217 1.016 0.922 1.24 1.189 0.037 0.043 0.008 0.11-0.049 0.114z"></path>
</svg>
