<?xml version="1.0" encoding="utf-8"?>
<!-- Generated by IcoMoon.io -->
<!DOCTYPE svg PUBLIC "-//W3C//DTD SVG 1.1//EN" "http://www.w3.org/Graphics/SVG/1.1/DTD/svg11.dtd">
<svg version="1.1" xmlns="http://www.w3.org/2000/svg" xmlns:xlink="http://www.w3.org/1999/xlink" width="32" height="32" viewBox="0 0 32 32">
<path fill="#000" d="M31.17 18.726l-17.278-17.278c-0.176-0.176-0.428-0.252-0.671-0.202-0.244 0.048-0.445 0.215-0.539 0.447l-11.863 29.142c-0.112 0.275-0.048 0.592 0.162 0.803s0.528 0.275 0.803 0.162l29.141-11.864c0.23-0.094 0.398-0.296 0.446-0.54 0.051-0.244-0.026-0.495-0.201-0.67zM20.853 13.951c-0.026 0.026-0.055 0.051-0.087 0.078-0.004 0.001-0.009 0.007-0.012 0.010-0.632 0.519-2.209 1.059-2.803 1.25-0.096 0.030-0.188-0.061-0.156-0.156 0.193-0.594 0.735-2.172 1.247-2.799 0.004-0.007 0.010-0.013 0.016-0.019 0.026-0.030 0.049-0.058 0.074-0.082 0.476-0.476 1.247-0.475 1.721 0 0.475 0.473 0.475 1.242 0 1.719zM21.391 14.681c0.003-0.006 0.010-0.013 0.015-0.019 0.026-0.030 0.050-0.059 0.076-0.083 0.476-0.475 1.245-0.475 1.719 0s0.476 1.245 0 1.72c-0.026 0.025-0.055 0.051-0.087 0.077-0.003 0.004-0.009 0.008-0.012 0.010-0.632 0.521-2.209 1.060-2.801 1.25-0.098 0.030-0.188-0.061-0.158-0.156 0.193-0.593 0.734-2.172 1.248-2.799zM25.547 18.645c-0.026 0.026-0.055 0.052-0.085 0.078-0.004 0.003-0.009 0.009-0.013 0.010-0.631 0.521-2.208 1.059-2.801 1.251-0.096 0.030-0.188-0.062-0.156-0.156 0.193-0.595 0.735-2.172 1.247-2.8 0.004-0.006 0.010-0.012 0.016-0.018 0.024-0.030 0.049-0.058 0.074-0.083 0.476-0.475 1.245-0.475 1.721 0s0.475 1.242-0.001 1.719z"></path>
</svg>
