<?xml version="1.0" encoding="utf-8"?>
<!-- Generated by IcoMoon.io -->
<!DOCTYPE svg PUBLIC "-//W3C//DTD SVG 1.1//EN" "http://www.w3.org/Graphics/SVG/1.1/DTD/svg11.dtd">
<svg version="1.1" xmlns="http://www.w3.org/2000/svg" xmlns:xlink="http://www.w3.org/1999/xlink" width="32" height="32" viewBox="0 0 32 32">
<path fill="#000" d="M25.631 5.992h-19.259c-0.421 0-0.761 0.341-0.761 0.761v19.729c0 0.42 0.341 0.76 0.761 0.76h19.258c0.42 0 0.761-0.341 0.761-0.76v-19.729c0.001-0.421-0.34-0.761-0.76-0.761zM23.275 24.938c-0.166 0.056-0.339 0.093-0.523 0.093h-13.513c-0.185 0-0.36-0.038-0.526-0.094-0.493-0.168-0.878-0.559-1.037-1.057-0.050-0.158-0.085-0.324-0.085-0.499v-13.513c0-0.184 0.037-0.358 0.093-0.524 0.167-0.494 0.558-0.88 1.055-1.039 0.159-0.051 0.325-0.087 0.501-0.087h13.513c0.175 0 0.341 0.035 0.499 0.085 0.497 0.159 0.889 0.544 1.057 1.037 0.056 0.167 0.094 0.341 0.094 0.526v13.513c0 0.175-0.035 0.343-0.086 0.502-0.162 0.498-0.547 0.888-1.041 1.055z"></path>
<path fill="#000" d="M22.752 9.7h-13.513c-0.093 0-0.169 0.076-0.169 0.169v13.513c0 0.093 0.076 0.169 0.169 0.169h13.513c0.093 0 0.169-0.076 0.169-0.169v-13.513c-0.001-0.093-0.076-0.169-0.169-0.169zM16.632 22.229c-0.187 0.118-0.408 0.19-0.646 0.19-0.32 0-0.609-0.126-0.826-0.328-0.238-0.222-0.39-0.536-0.39-0.888 0-0.010 0.001-0.020 0.002-0.030 0.001-0.028 0.002-0.056 0.005-0.086 0-0.004 0-0.012 0.001-0.016 0.078-0.814 0.813-2.311 1.096-2.865 0.047-0.090 0.176-0.090 0.221 0 0.271 0.531 0.946 1.919 1.077 2.745 0.006 0.038 0.016 0.080 0.020 0.116 0.001 0.007 0.001 0.016 0.003 0.024 0.003 0.039 0.006 0.077 0.006 0.111-0.001 0.434-0.23 0.812-0.57 1.026z"></path>
</svg>
