<?xml version="1.0" encoding="utf-8"?>
<!-- Generated by IcoMoon.io -->
<!DOCTYPE svg PUBLIC "-//W3C//DTD SVG 1.1//EN" "http://www.w3.org/Graphics/SVG/1.1/DTD/svg11.dtd">
<svg version="1.1" xmlns="http://www.w3.org/2000/svg" xmlns:xlink="http://www.w3.org/1999/xlink" width="12" height="32" viewBox="0 0 12 32">
<path fill="#000" d="M11.774 25.414l-5.188-13.714c-0.060-0.158-0.211-0.262-0.38-0.262s-0.32 0.104-0.38 0.262l-5.188 13.714c-0.047 0.125-0.030 0.264 0.046 0.374s0.201 0.176 0.334 0.176h3.101l-2.184 5.468c-0.051 0.128-0.035 0.272 0.042 0.386s0.206 0.182 0.343 0.182h7.77c0.138 0 0.267-0.068 0.343-0.182s0.093-0.258 0.042-0.386l-2.185-5.468h3.102c0.134 0 0.259-0.066 0.335-0.176s0.093-0.249 0.046-0.374zM6.847 29.805c0 0.376-0.305 0.681-0.681 0.681-0.377 0-0.681-0.304-0.681-0.681 0-0.021 0.001-0.043 0.003-0.065 0-0.003 0-0.006 0.001-0.009 0.044-0.457 0.455-1.294 0.615-1.604 0.026-0.051 0.098-0.051 0.124 0 0.158 0.311 0.569 1.15 0.615 1.601 0 0.005 0.001 0.009 0.001 0.014 0.001 0.022 0.003 0.043 0.003 0.063zM5.691 24.477c-0.027 0-0.054-0.005-0.080-0.008-0.338-0.041-0.602-0.326-0.602-0.675 0-0.020 0.001-0.040 0.003-0.061 0-0.001 0-0.002 0-0.003 0-0.003 0-0.007 0.001-0.009 0.044-0.458 0.457-1.298 0.616-1.609 0.009-0.016 0.025-0.019 0.040-0.025 0.032-0.012 0.067-0.010 0.085 0.025 0.095 0.187 0.281 0.565 0.425 0.936 0.095 0.246 0.173 0.489 0.191 0.67 0.001 0.005 0.001 0.010 0.002 0.014 0.002 0.022 0.003 0.043 0.003 0.063-0 0.377-0.306 0.683-0.683 0.683zM4.041 24.439c-0.068 0.023-0.139 0.038-0.215 0.038-0.231 0-0.434-0.116-0.558-0.292-0.078-0.111-0.125-0.245-0.125-0.391 0-0.021 0.001-0.042 0.003-0.065 0-0.003 0-0.007 0.001-0.009 0.044-0.458 0.457-1.298 0.616-1.609 0.027-0.051 0.099-0.051 0.125 0 0.021 0.041 0.048 0.093 0.076 0.152 0.14 0.284 0.348 0.735 0.462 1.111 0.038 0.126 0.068 0.244 0.078 0.343 0 0.005 0.001 0.010 0.001 0.014 0.002 0.022 0.003 0.043 0.003 0.063 0 0.301-0.197 0.554-0.468 0.644zM8.631 25.151l-2.425-6.683-0.976 2.692h-0.864l1.459-4.022c0.058-0.161 0.211-0.268 0.381-0.268s0.324 0.107 0.382 0.268l2.906 8.013h-0.863z"></path>
</svg>
