<?xml version="1.0" encoding="utf-8"?>
<!-- Generated by IcoMoon.io -->
<!DOCTYPE svg PUBLIC "-//W3C//DTD SVG 1.1//EN" "http://www.w3.org/Graphics/SVG/1.1/DTD/svg11.dtd">
<svg version="1.1" xmlns="http://www.w3.org/2000/svg" xmlns:xlink="http://www.w3.org/1999/xlink" width="16" height="32" viewBox="0 0 16 32">
<path fill="#000" d="M15.085 22.729l-6.842-16.238c-0.065-0.154-0.216-0.254-0.382-0.254s-0.318 0.1-0.382 0.254l-6.842 16.238c-0.054 0.129-0.040 0.275 0.037 0.39s0.207 0.185 0.345 0.185h4.084l-1.512 3.785c-0.051 0.128-0.035 0.273 0.042 0.386s0.206 0.182 0.343 0.182h1.117l-1.506 3.769c-0.051 0.128-0.035 0.272 0.042 0.386s0.206 0.182 0.343 0.182h7.77c0.138 0 0.266-0.068 0.343-0.182s0.093-0.258 0.042-0.386l-1.506-3.769h1.124c0.138 0 0.266-0.068 0.343-0.182s0.093-0.258 0.042-0.386l-1.512-3.785h4.084c0.139 0 0.268-0.070 0.345-0.185s0.090-0.262 0.037-0.39zM8.498 29.801c0 0.377-0.305 0.681-0.681 0.681s-0.681-0.304-0.681-0.681c0-0.020 0.001-0.043 0.003-0.065 0-0.003 0-0.007 0.001-0.009 0.044-0.457 0.455-1.294 0.615-1.604 0.026-0.050 0.098-0.050 0.124 0 0.158 0.311 0.569 1.151 0.615 1.601 0 0.005 0.001 0.010 0.001 0.014 0.002 0.023 0.004 0.044 0.004 0.063zM5.711 21.78c-0.326-0.051-0.576-0.33-0.576-0.671 0-0.020 0.001-0.042 0.004-0.065 0-0.003 0-0.007 0.001-0.009 0.044-0.456 0.455-1.294 0.614-1.604 0.026-0.050 0.098-0.050 0.124 0 0.092 0.182 0.27 0.543 0.411 0.902 0.101 0.257 0.185 0.512 0.204 0.7 0.001 0.004 0.001 0.009 0.002 0.014 0.002 0.022 0.003 0.043 0.003 0.062 0 0.377-0.305 0.681-0.681 0.681-0.037 0-0.071-0.005-0.105-0.011zM7.821 26.144c-0.377 0-0.681-0.304-0.681-0.68 0-0.021 0.001-0.043 0.003-0.066 0-0.003 0-0.006 0.001-0.009 0.044-0.456 0.455-1.294 0.615-1.604 0.026-0.051 0.098-0.051 0.124 0 0.158 0.31 0.569 1.15 0.615 1.601 0 0.005 0.001 0.009 0.001 0.014 0.002 0.022 0.004 0.043 0.004 0.063 0 0.376-0.304 0.68-0.681 0.68zM8.165 21.582c-0.124 0.128-0.297 0.209-0.489 0.209-0.078 0-0.153-0.016-0.223-0.041-0.265-0.093-0.457-0.343-0.457-0.641 0-0.020 0.001-0.042 0.003-0.065 0-0.003 0-0.007 0.001-0.009 0.044-0.456 0.456-1.294 0.614-1.604 0.026-0.050 0.099-0.050 0.124 0 0.158 0.311 0.569 1.151 0.614 1.602 0.001 0.004 0.001 0.009 0.002 0.014 0.002 0.022 0.003 0.043 0.003 0.062 0 0.185-0.073 0.35-0.192 0.473zM3.28 21.045c0-0.003 0-0.007 0.001-0.009 0.044-0.456 0.455-1.294 0.614-1.604 0.026-0.050 0.098-0.050 0.124 0 0.158 0.311 0.569 1.151 0.615 1.602 0 0.004 0.001 0.009 0.001 0.014 0.002 0.022 0.003 0.043 0.003 0.062 0 0.377-0.304 0.681-0.681 0.681-0.376 0-0.68-0.304-0.68-0.681 0-0.020 0.001-0.042 0.004-0.065z"></path>
</svg>
