<?xml version="1.0" encoding="utf-8"?>
<!-- Generated by IcoMoon.io -->
<!DOCTYPE svg PUBLIC "-//W3C//DTD SVG 1.1//EN" "http://www.w3.org/Graphics/SVG/1.1/DTD/svg11.dtd">
<svg version="1.1" xmlns="http://www.w3.org/2000/svg" xmlns:xlink="http://www.w3.org/1999/xlink" width="32" height="32" viewBox="0 0 32 32">
<path fill="#000" d="M28.475 15.924l-24.423-9.241c-0.227-0.085-0.483-0.055-0.683 0.084-0.201 0.138-0.32 0.366-0.32 0.609v18.477c0 0.243 0.118 0.47 0.32 0.609 0.2 0.139 0.455 0.17 0.683 0.084l24.423-9.237c0.288-0.11 0.478-0.385 0.478-0.693s-0.19-0.583-0.478-0.692zM5.753 15.912c0-0.671 0.543-1.217 1.215-1.217 0.038 0 0.077 0.003 0.117 0.007 0.004 0 0.010 0 0.016 0.001 0.814 0.078 2.311 0.813 2.863 1.096 0.091 0.047 0.091 0.176 0 0.221-0.554 0.284-2.053 1.017-2.859 1.097-0.009 0.001-0.016 0.001-0.024 0.003-0.039 0.003-0.077 0.006-0.113 0.006-0.672 0.001-1.215-0.545-1.215-1.216zM9.963 12.701c-0.554 0.284-2.053 1.017-2.859 1.098-0.009 0.001-0.016 0.001-0.024 0.003-0.039 0.003-0.077 0.006-0.113 0.006-0.671 0-1.215-0.546-1.215-1.217s0.543-1.217 1.215-1.217c0.038 0 0.077 0.003 0.117 0.006 0.004 0.001 0.010 0.001 0.016 0.003 0.814 0.078 2.311 0.813 2.863 1.096 0.091 0.049 0.091 0.178 0 0.222z"></path>
</svg>
