<?xml version="1.0" encoding="utf-8"?>
<!-- Generated by IcoMoon.io -->
<!DOCTYPE svg PUBLIC "-//W3C//DTD SVG 1.1//EN" "http://www.w3.org/Graphics/SVG/1.1/DTD/svg11.dtd">
<svg version="1.1" xmlns="http://www.w3.org/2000/svg" xmlns:xlink="http://www.w3.org/1999/xlink" width="16" height="32" viewBox="0 0 16 32">
<path fill="#000" d="M15.094 31.428l-4.493-10.665h2.457c0.134 0 0.259-0.066 0.335-0.175s0.093-0.25 0.045-0.375l-5.188-13.714c-0.060-0.158-0.211-0.263-0.38-0.263s-0.32 0.104-0.38 0.263l-0.47 1.243-4.717 12.472c-0.047 0.125-0.030 0.265 0.046 0.375s0.201 0.175 0.334 0.175h2.457l-4.493 10.665c-0.054 0.129-0.040 0.275 0.037 0.39s0.207 0.185 0.345 0.185h13.684c0.139 0 0.268-0.070 0.345-0.185s0.090-0.261 0.037-0.39zM4.81 18.529c0-0.003 0-0.007 0.001-0.009 0.044-0.458 0.457-1.298 0.616-1.609 0.027-0.051 0.099-0.051 0.125 0 0.021 0.041 0.048 0.094 0.076 0.152 0.14 0.284 0.348 0.736 0.462 1.111 0.022 0.072 0.039 0.14 0.053 0.204 0.011 0.049 0.020 0.096 0.024 0.139 0 0.005 0.001 0.010 0.001 0.014 0.002 0.022 0.003 0.044 0.003 0.063 0 0.262-0.153 0.481-0.37 0.595-0.033 0.017-0.063 0.039-0.098 0.050-0.068 0.023-0.139 0.038-0.215 0.038-0.231 0-0.434-0.116-0.558-0.292-0.078-0.111-0.125-0.245-0.125-0.391 0-0.021 0.002-0.043 0.004-0.065zM6.672 18.593c0-0.020 0.001-0.042 0.003-0.065 0-0.003 0-0.007 0.001-0.009 0.044-0.458 0.457-1.298 0.616-1.609 0.026-0.051 0.099-0.051 0.125 0 0.034 0.067 0.081 0.162 0.132 0.268 0.187 0.39 0.448 0.983 0.484 1.337 0.001 0.005 0.001 0.010 0.002 0.014 0.002 0.022 0.003 0.044 0.003 0.063 0 0.377-0.306 0.683-0.683 0.683-0.234 0-0.441-0.118-0.563-0.298-0.076-0.109-0.12-0.241-0.12-0.384zM8.366 29.809c0 0.377-0.305 0.681-0.681 0.681s-0.681-0.304-0.681-0.681c0-0.020 0.001-0.042 0.003-0.065 0-0.003 0-0.007 0.001-0.009 0.044-0.456 0.456-1.294 0.614-1.604 0.026-0.050 0.099-0.050 0.124 0 0.158 0.311 0.569 1.151 0.614 1.602 0.001 0.004 0.001 0.009 0.002 0.014 0.002 0.022 0.004 0.043 0.004 0.062zM6.506 29.809c0 0.377-0.305 0.681-0.681 0.681s-0.681-0.304-0.681-0.681c0-0.020 0.001-0.042 0.004-0.065 0-0.003 0-0.007 0.001-0.009 0.044-0.456 0.455-1.294 0.614-1.604 0.026-0.050 0.098-0.050 0.124 0 0.158 0.311 0.569 1.151 0.614 1.602 0.001 0.004 0.001 0.009 0.002 0.014 0.003 0.022 0.004 0.043 0.004 0.062zM3.289 29.745c0-0.003 0-0.007 0.001-0.009 0.044-0.456 0.455-1.294 0.614-1.604 0.026-0.050 0.098-0.050 0.124 0 0.158 0.311 0.569 1.151 0.615 1.602 0 0.004 0.001 0.009 0.001 0.014 0.002 0.022 0.003 0.043 0.003 0.062 0 0.377-0.304 0.681-0.681 0.681-0.376 0-0.68-0.304-0.68-0.681 0-0.020 0.001-0.042 0.004-0.065zM10.294 19.951l-2.425-6.684-0.976 2.692h-0.864l1.459-4.022c0.058-0.161 0.211-0.268 0.381-0.268s0.324 0.107 0.382 0.268l2.906 8.014h-0.863z"></path>
</svg>
