<?xml version="1.0" encoding="utf-8"?>
<!-- Generated by IcoMoon.io -->
<!DOCTYPE svg PUBLIC "-//W3C//DTD SVG 1.1//EN" "http://www.w3.org/Graphics/SVG/1.1/DTD/svg11.dtd">
<svg version="1.1" xmlns="http://www.w3.org/2000/svg" xmlns:xlink="http://www.w3.org/1999/xlink" width="16" height="32" viewBox="0 0 16 32">
<path fill="#000" d="M15.087 31.437l-2.713-6.439h0.669c0.136 0 0.264-0.067 0.341-0.179s0.095-0.255 0.047-0.382l-5.174-13.678c-0.061-0.162-0.216-0.268-0.388-0.268s-0.327 0.107-0.388 0.268l-5.174 13.678c-0.048 0.127-0.031 0.27 0.047 0.382s0.205 0.179 0.341 0.179h0.665l-2.713 6.439c-0.053 0.126-0.039 0.268 0.036 0.381s0.202 0.182 0.338 0.182h13.692c0.136 0 0.263-0.068 0.338-0.182s0.090-0.256 0.037-0.381zM6.798 22.739c0-0.003 0-0.007 0.001-0.009 0.044-0.457 0.455-1.294 0.614-1.604 0.026-0.050 0.098-0.050 0.124 0 0.158 0.311 0.569 1.151 0.614 1.601 0.001 0.005 0.001 0.010 0.002 0.014 0.002 0.023 0.003 0.044 0.003 0.063 0 0.152-0.051 0.291-0.135 0.404-0.12 0.162-0.309 0.268-0.525 0.275-0.007 0-0.014 0.003-0.021 0.003-0.376 0-0.681-0.304-0.681-0.681 0-0.020 0.001-0.043 0.004-0.065zM3.961 30.494c-0.119 0-0.229-0.033-0.326-0.086-0.211-0.115-0.355-0.337-0.355-0.595 0-0.021 0.001-0.043 0.003-0.066 0-0.003 0-0.005 0.001-0.009 0.044-0.457 0.456-1.295 0.615-1.605 0.026-0.051 0.099-0.051 0.124 0.001 0.070 0.138 0.189 0.38 0.305 0.645 0.145 0.335 0.284 0.705 0.31 0.957 0 0.005 0.001 0.009 0.001 0.013 0.002 0.022 0.003 0.044 0.003 0.063 0 0.376-0.305 0.681-0.681 0.681zM5.025 23.136c-0.056-0.098-0.090-0.211-0.090-0.333 0-0.020 0.001-0.043 0.003-0.065 0-0.003 0-0.007 0.001-0.009 0.044-0.457 0.455-1.294 0.614-1.604 0.026-0.050 0.098-0.050 0.124 0 0.028 0.055 0.065 0.13 0.105 0.212 0.188 0.386 0.472 1.018 0.509 1.389 0.001 0.005 0.001 0.010 0.002 0.014 0.002 0.023 0.003 0.044 0.003 0.063 0 0.377-0.305 0.681-0.681 0.681-0.254-0-0.474-0.142-0.59-0.349zM5.822 30.494c-0.142 0-0.274-0.043-0.383-0.118-0.18-0.122-0.298-0.329-0.298-0.563 0-0.021 0.001-0.043 0.003-0.066 0-0.003 0-0.005 0.001-0.009 0.044-0.457 0.456-1.295 0.615-1.605 0.027-0.051 0.099-0.051 0.124 0.001 0.063 0.124 0.166 0.332 0.27 0.565 0.157 0.353 0.317 0.765 0.345 1.037 0 0.005 0.001 0.009 0.001 0.013 0.002 0.022 0.003 0.044 0.003 0.063-0 0.376-0.306 0.681-0.682 0.681zM5.896 27.238l0.955-2.24h0.882l-0.955 2.24h-0.882zM7.683 30.494c-0.376 0-0.681-0.305-0.681-0.681 0-0.021 0.001-0.043 0.003-0.066 0-0.003 0-0.005 0.001-0.009 0.044-0.457 0.456-1.295 0.615-1.605 0.026-0.051 0.099-0.051 0.124 0.001 0.158 0.31 0.569 1.15 0.614 1.602 0 0.005 0.001 0.009 0.001 0.013 0.002 0.022 0.004 0.044 0.004 0.063 0 0.377-0.304 0.681-0.681 0.681zM10.689 31.188l-2.638-6.19h0.882l2.639 6.191-0.882-0z"></path>
</svg>
