<?xml version="1.0" encoding="utf-8"?>
<!-- Generated by IcoMoon.io -->
<!DOCTYPE svg PUBLIC "-//W3C//DTD SVG 1.1//EN" "http://www.w3.org/Graphics/SVG/1.1/DTD/svg11.dtd">
<svg version="1.1" xmlns="http://www.w3.org/2000/svg" xmlns:xlink="http://www.w3.org/1999/xlink" width="13" height="32" viewBox="0 0 13 32">
<path fill="#000" d="M11.789 31.285l-7.587-7.22c-0.1-0.095-0.24-0.134-0.373-0.105-0.136 0.030-0.246 0.123-0.297 0.251l-2.886 7.214c-0.051 0.128-0.036 0.272 0.042 0.386s0.205 0.182 0.343 0.182l10.472 0.006c0.17 0 0.322-0.104 0.386-0.261s0.024-0.337-0.099-0.454zM5.646 29.351c-0.347 0.033-1.277 0.104-1.718-0.025-0.002-0.001-0.006-0.002-0.009-0.003-0.021-0.007-0.042-0.013-0.061-0.021-0.349-0.139-0.519-0.536-0.379-0.885 0.139-0.349 0.535-0.519 0.884-0.38 0.019 0.007 0.037 0.017 0.057 0.027 0.004 0.002 0.008 0.004 0.013 0.006 0.401 0.21 1.028 0.903 1.258 1.166 0.037 0.043 0.010 0.111-0.046 0.115z"></path>
</svg>
