<?xml version="1.0" encoding="utf-8"?>
<!-- Generated by IcoMoon.io -->
<!DOCTYPE svg PUBLIC "-//W3C//DTD SVG 1.1//EN" "http://www.w3.org/Graphics/SVG/1.1/DTD/svg11.dtd">
<svg version="1.1" xmlns="http://www.w3.org/2000/svg" xmlns:xlink="http://www.w3.org/1999/xlink" width="16" height="32" viewBox="0 0 16 32">
<path fill="#000" d="M15.087 31.437l-6.846-16.249c-0.063-0.15-0.211-0.248-0.374-0.248s-0.31 0.098-0.373 0.248l-6.847 16.249c-0.053 0.126-0.039 0.268 0.036 0.381s0.202 0.182 0.338 0.182h13.692c0.136 0 0.263-0.068 0.338-0.182s0.090-0.256 0.037-0.381zM3.635 30.408c-0.211-0.115-0.355-0.337-0.355-0.595 0-0.021 0.001-0.043 0.003-0.066 0-0.003 0-0.005 0.001-0.009 0.044-0.457 0.456-1.295 0.615-1.605 0.026-0.051 0.099-0.051 0.124 0.001 0.070 0.138 0.189 0.38 0.305 0.645 0.145 0.335 0.284 0.705 0.31 0.957 0 0.005 0.001 0.009 0.001 0.013 0.002 0.022 0.003 0.044 0.003 0.063 0 0.376-0.305 0.681-0.681 0.681-0.119 0-0.229-0.033-0.326-0.086zM5.141 29.814c0-0.021 0.001-0.043 0.003-0.066 0-0.003 0-0.005 0.001-0.009 0.044-0.457 0.456-1.295 0.615-1.605 0.013-0.026 0.038-0.038 0.063-0.038s0.049 0.013 0.062 0.039c0.063 0.124 0.166 0.332 0.27 0.565 0.157 0.353 0.317 0.765 0.345 1.037 0 0.005 0.001 0.009 0.001 0.013 0.002 0.022 0.003 0.044 0.003 0.063 0 0.376-0.305 0.681-0.681 0.681-0.142 0-0.274-0.043-0.383-0.118-0.18-0.122-0.299-0.329-0.299-0.563zM10.689 31.188l-2.798-6.565-1.114 2.615h-0.882l1.623-3.808c0.064-0.149 0.211-0.246 0.373-0.246s0.309 0.097 0.373 0.246l3.308 7.759-0.882-0zM7.001 29.814c0-0.021 0.001-0.043 0.003-0.066 0-0.003 0-0.005 0.001-0.009 0.044-0.457 0.456-1.295 0.615-1.605 0.026-0.051 0.099-0.051 0.124 0.001 0.158 0.31 0.569 1.15 0.614 1.602 0 0.005 0.001 0.009 0.001 0.013 0.002 0.022 0.004 0.044 0.004 0.063 0 0.376-0.305 0.681-0.681 0.681s-0.681-0.305-0.681-0.68z"></path>
</svg>
