<?xml version="1.0" encoding="utf-8"?>
<!-- Generated by IcoMoon.io -->
<!DOCTYPE svg PUBLIC "-//W3C//DTD SVG 1.1//EN" "http://www.w3.org/Graphics/SVG/1.1/DTD/svg11.dtd">
<svg version="1.1" xmlns="http://www.w3.org/2000/svg" xmlns:xlink="http://www.w3.org/1999/xlink" width="32" height="32" viewBox="0 0 32 32">
<path fill="#000" d="M25.411 6.638h-18.818c-0.315 0-0.57 0.255-0.57 0.57v18.818c0 0.315 0.255 0.57 0.57 0.57h18.818c0.315 0 0.571-0.255 0.571-0.57v-18.818c0-0.315-0.255-0.57-0.571-0.57zM13.068 23.355c0-0.004 0-0.012 0.001-0.016 0.078-0.814 0.813-2.311 1.096-2.865 0.047-0.090 0.176-0.090 0.221 0 0.284 0.555 1.017 2.055 1.097 2.86 0.001 0.007 0.001 0.016 0.003 0.024 0.003 0.039 0.006 0.077 0.006 0.111 0 0.672-0.543 1.217-1.217 1.217-0.671 0-1.215-0.544-1.215-1.217 0.001-0.036 0.002-0.075 0.007-0.116zM17.599 24.687c-0.672 0-1.217-0.544-1.217-1.217 0-0.036 0.003-0.076 0.007-0.116 0-0.004 0-0.012 0.001-0.016 0.078-0.814 0.813-2.311 1.097-2.865 0.047-0.090 0.176-0.090 0.221 0 0.284 0.555 1.015 2.055 1.096 2.86 0.001 0.007 0.001 0.016 0.003 0.024 0.003 0.039 0.006 0.077 0.006 0.111-0.001 0.672-0.544 1.217-1.215 1.217z"></path>
</svg>
