<?xml version="1.0" encoding="utf-8"?>
<!-- Generated by IcoMoon.io -->
<!DOCTYPE svg PUBLIC "-//W3C//DTD SVG 1.1//EN" "http://www.w3.org/Graphics/SVG/1.1/DTD/svg11.dtd">
<svg version="1.1" xmlns="http://www.w3.org/2000/svg" xmlns:xlink="http://www.w3.org/1999/xlink" width="16" height="32" viewBox="0 0 16 32">
<path fill="#000" d="M15.094 31.424l-3.448-8.183h3.049c0.134 0 0.262-0.068 0.336-0.181s0.088-0.255 0.036-0.381l-6.824-16.196c-0.063-0.15-0.21-0.247-0.372-0.247s-0.309 0.097-0.372 0.247l-0.417 0.991-6.408 15.205c-0.053 0.126-0.039 0.267 0.036 0.381s0.201 0.181 0.337 0.181h3.047l-3.448 8.183c-0.054 0.129-0.040 0.275 0.037 0.39s0.207 0.185 0.345 0.185h13.684c0.139 0 0.268-0.070 0.345-0.185s0.090-0.262 0.037-0.39zM3.298 21.061c0-0.020 0.001-0.043 0.003-0.066 0-0.003 0-0.006 0.001-0.009 0.022-0.235 0.143-0.571 0.276-0.884 0.124-0.293 0.26-0.566 0.336-0.716 0.026-0.051 0.098-0.051 0.124 0.001 0.070 0.137 0.189 0.379 0.304 0.643 0.145 0.333 0.284 0.702 0.309 0.953 0 0.005 0.001 0.009 0.001 0.014 0.002 0.022 0.003 0.043 0.003 0.063 0 0.375-0.304 0.679-0.679 0.679-0.119 0-0.228-0.033-0.325-0.086-0.027-0.015-0.049-0.036-0.074-0.054-0.167-0.123-0.28-0.315-0.28-0.539zM7.007 21.061c0-0.020 0.001-0.043 0.003-0.066 0-0.003 0-0.006 0-0.009 0.044-0.454 0.455-1.29 0.613-1.599 0.026-0.051 0.098-0.051 0.124 0.001 0.158 0.309 0.566 1.147 0.613 1.597 0 0.005 0.001 0.009 0.001 0.014 0.002 0.022 0.003 0.043 0.003 0.063 0 0.375-0.304 0.679-0.679 0.679s-0.679-0.304-0.679-0.679zM8.366 29.805c0 0.376-0.305 0.681-0.681 0.681-0 0-0.001 0-0.002 0-0.375-0.001-0.679-0.305-0.679-0.681 0-0.021 0.001-0.043 0.003-0.065 0-0.003 0-0.007 0.001-0.009 0.044-0.456 0.456-1.294 0.614-1.604 0.013-0.025 0.037-0.037 0.061-0.037 0.025-0.001 0.051 0.011 0.063 0.037 0.158 0.311 0.569 1.151 0.614 1.602 0.001 0.005 0.001 0.009 0.002 0.014 0.002 0.022 0.004 0.043 0.004 0.063zM6.506 29.805c0 0.376-0.305 0.681-0.681 0.681-0 0-0.001 0-0.002 0-0.375-0.001-0.679-0.305-0.679-0.681 0-0.021 0.001-0.043 0.004-0.065 0-0.003 0-0.007 0.001-0.009 0.044-0.456 0.455-1.294 0.614-1.604 0.013-0.025 0.037-0.037 0.061-0.037 0.025-0.001 0.050 0.011 0.063 0.037 0.158 0.311 0.569 1.151 0.614 1.602 0.001 0.005 0.001 0.009 0.002 0.014 0.003 0.022 0.004 0.043 0.004 0.063zM5.831 21.74c-0.068 0-0.132-0.011-0.194-0.029-0.001-0-0.002 0-0.003-0-0.066-0.020-0.129-0.049-0.185-0.087-0.18-0.122-0.297-0.328-0.297-0.561 0-0.020 0.001-0.043 0.003-0.066 0-0.003 0-0.006 0.001-0.009 0.044-0.454 0.455-1.29 0.612-1.599 0.027-0.051 0.098-0.051 0.124 0.001 0.063 0.123 0.165 0.331 0.269 0.564 0.036 0.081 0.073 0.166 0.107 0.252 0 0.001 0.001 0.003 0.002 0.004 0.115 0.282 0.214 0.571 0.234 0.777 0 0.005 0.001 0.009 0.001 0.014 0.002 0.022 0.003 0.043 0.003 0.063 0 0.375-0.304 0.679-0.679 0.679zM3.289 29.74c0-0.003 0-0.007 0.001-0.009 0.044-0.456 0.455-1.294 0.614-1.604 0.012-0.025 0.037-0.037 0.061-0.037 0.025-0.001 0.051 0.011 0.063 0.037 0.158 0.311 0.569 1.151 0.615 1.602 0 0.005 0.001 0.009 0.001 0.014 0.002 0.022 0.003 0.043 0.003 0.063 0 0.376-0.304 0.681-0.681 0.681-0 0-0.001 0-0.002 0-0.375-0.001-0.679-0.305-0.679-0.681 0-0.021 0.001-0.043 0.004-0.065zM12.419 22.433l-4.549-10.693-2.873 6.754h-0.879l3.38-7.945c0.063-0.149 0.21-0.246 0.372-0.246s0.309 0.097 0.372 0.246l0.458 1.076 4.598 10.808h-0.879z"></path>
</svg>
