<?xml version="1.0" encoding="utf-8"?>
<!-- Generated by IcoMoon.io -->
<!DOCTYPE svg PUBLIC "-//W3C//DTD SVG 1.1//EN" "http://www.w3.org/Graphics/SVG/1.1/DTD/svg11.dtd">
<svg version="1.1" xmlns="http://www.w3.org/2000/svg" xmlns:xlink="http://www.w3.org/1999/xlink" width="16" height="32" viewBox="0 0 16 32">
<path fill="#000" d="M13.502 27.652h1.207c0.139 0 0.268-0.070 0.345-0.185s0.091-0.262 0.037-0.39l-2.668-6.333h0.621c0.136 0 0.264-0.067 0.341-0.179s0.095-0.255 0.047-0.382l-5.174-13.678c-0.061-0.162-0.216-0.268-0.388-0.268s-0.327 0.107-0.388 0.268l-5.174 13.677c-0.048 0.127-0.031 0.27 0.047 0.382s0.205 0.179 0.341 0.179h0.615l-2.668 6.333c-0.054 0.128-0.040 0.275 0.037 0.39s0.207 0.185 0.345 0.185h1.207l-1.589 3.772c-0.054 0.129-0.040 0.275 0.037 0.39s0.207 0.185 0.345 0.185h13.684c0.139 0 0.268-0.070 0.345-0.185s0.091-0.262 0.037-0.39l-1.589-3.771zM8.363 29.805c0 0.376-0.305 0.681-0.681 0.681s-0.681-0.305-0.681-0.681c0-0.021 0.001-0.043 0.003-0.065 0-0.003 0-0.007 0.001-0.009 0.044-0.456 0.456-1.294 0.614-1.604 0.026-0.051 0.099-0.051 0.124 0 0.158 0.311 0.569 1.151 0.614 1.602 0.001 0.005 0.001 0.009 0.002 0.014 0.002 0.022 0.004 0.043 0.004 0.063zM6.504 29.805c0 0.376-0.305 0.681-0.681 0.681s-0.681-0.305-0.681-0.681c0-0.021 0.001-0.043 0.004-0.065 0-0.003 0-0.007 0.001-0.009 0.044-0.456 0.455-1.294 0.614-1.604 0.026-0.051 0.098-0.051 0.124 0 0.158 0.311 0.569 1.151 0.614 1.602 0.001 0.005 0.001 0.009 0.002 0.014 0.003 0.022 0.004 0.043 0.004 0.063zM4.644 29.805c0 0.376-0.304 0.681-0.681 0.681-0.376 0-0.68-0.305-0.68-0.681 0-0.021 0.001-0.043 0.003-0.065 0-0.003 0-0.007 0.001-0.009 0.044-0.456 0.455-1.294 0.614-1.604 0.026-0.051 0.098-0.051 0.124 0 0.158 0.311 0.569 1.151 0.615 1.602 0 0.005 0.001 0.009 0.001 0.014 0.003 0.022 0.004 0.043 0.004 0.063zM8.363 25.458c0 0.376-0.305 0.681-0.681 0.681s-0.681-0.305-0.681-0.681c0-0.021 0.001-0.043 0.003-0.065 0-0.003 0-0.007 0.001-0.010 0.044-0.456 0.456-1.294 0.614-1.604 0.026-0.051 0.099-0.051 0.124 0 0.158 0.31 0.569 1.151 0.614 1.601 0.001 0.005 0.001 0.010 0.002 0.014 0.002 0.022 0.004 0.043 0.004 0.063zM5.146 25.383c0.044-0.456 0.455-1.294 0.614-1.604 0.026-0.051 0.098-0.051 0.124 0 0.158 0.31 0.569 1.151 0.614 1.601 0.001 0.005 0.001 0.010 0.002 0.014 0.002 0.022 0.003 0.043 0.003 0.063 0 0.376-0.305 0.681-0.681 0.681s-0.681-0.305-0.681-0.681c0-0.021 0.001-0.043 0.004-0.065 0-0.003 0-0.006 0.001-0.010zM5.791 19.204c-0.056 0.015-0.114 0.026-0.175 0.026-0.267 0-0.496-0.155-0.607-0.379-0.045-0.091-0.073-0.192-0.073-0.301 0-0.021 0.001-0.043 0.003-0.065 0-0.003 0-0.006 0.001-0.009 0.044-0.457 0.455-1.294 0.614-1.604 0.026-0.051 0.098-0.051 0.124 0 0.024 0.047 0.056 0.11 0.089 0.179 0.145 0.295 0.352 0.751 0.459 1.121 0.032 0.11 0.057 0.214 0.066 0.301 0.001 0.005 0.001 0.009 0.002 0.014 0.002 0.022 0.003 0.043 0.003 0.063 0 0.314-0.215 0.577-0.506 0.655zM4.639 25.38c0 0.005 0.001 0.010 0.001 0.014 0.002 0.022 0.003 0.043 0.003 0.063 0 0.376-0.304 0.681-0.681 0.681-0.063 0-0.124-0.011-0.182-0.028-0.287-0.080-0.498-0.341-0.498-0.653 0-0.021 0.001-0.043 0.003-0.065 0-0.003 0-0.007 0.001-0.010 0.044-0.456 0.455-1.294 0.614-1.604 0.026-0.051 0.098-0.051 0.124 0 0.087 0.17 0.249 0.5 0.386 0.838 0.113 0.277 0.209 0.56 0.229 0.763zM8.153 18.486c0.002 0.022 0.003 0.043 0.003 0.063 0 0.376-0.305 0.681-0.681 0.681-0.279 0-0.518-0.168-0.623-0.408-0.037-0.084-0.058-0.176-0.058-0.273 0-0.021 0.001-0.043 0.004-0.065 0-0.003 0-0.006 0.001-0.009 0.044-0.457 0.455-1.294 0.614-1.604 0.026-0.051 0.098-0.051 0.124 0 0.021 0.041 0.046 0.092 0.074 0.148 0.186 0.377 0.501 1.062 0.54 1.453 0.001 0.005 0.001 0.009 0.002 0.013z"></path>
</svg>
