<?xml version="1.0" encoding="utf-8"?>
<!-- Generated by IcoMoon.io -->
<!DOCTYPE svg PUBLIC "-//W3C//DTD SVG 1.1//EN" "http://www.w3.org/Graphics/SVG/1.1/DTD/svg11.dtd">
<svg version="1.1" xmlns="http://www.w3.org/2000/svg" xmlns:xlink="http://www.w3.org/1999/xlink" width="16" height="32" viewBox="0 0 16 32">
<path fill="#000" d="M15.040 25.909l-6.824-16.196c-0.063-0.15-0.209-0.247-0.372-0.247s-0.309 0.097-0.372 0.247l-0.417 0.991-6.408 15.205c-0.053 0.126-0.039 0.267 0.036 0.381s0.201 0.181 0.337 0.181h3.142l-1.88 4.968c-0.048 0.127-0.031 0.27 0.047 0.382s0.205 0.179 0.341 0.179h10.348c0.136 0 0.264-0.067 0.341-0.179 0.078-0.112 0.095-0.255 0.047-0.382l-1.879-4.968h3.142c0.135 0 0.262-0.068 0.336-0.181s0.089-0.255 0.037-0.381zM6.981 24.29c0-0.020 0.001-0.042 0.003-0.066 0-0.003 0-0.005 0-0.008 0.044-0.455 0.455-1.291 0.613-1.6 0.026-0.050 0.098-0.050 0.124 0.001 0.158 0.309 0.567 1.147 0.612 1.597 0 0.005 0.001 0.009 0.001 0.013 0.002 0.023 0.003 0.044 0.003 0.063 0 0.375-0.304 0.68-0.679 0.68s-0.679-0.305-0.679-0.68zM8.13 29.805c0 0.376-0.304 0.681-0.681 0.681s-0.681-0.304-0.681-0.681c0-0.021 0.001-0.043 0.004-0.065 0-0.003 0-0.006 0.001-0.009 0.044-0.457 0.455-1.294 0.614-1.604 0.026-0.051 0.098-0.051 0.124 0 0.158 0.311 0.569 1.15 0.614 1.601 0.001 0.005 0.001 0.009 0.002 0.014 0.002 0.022 0.004 0.043 0.004 0.063zM4.912 29.74c0-0.003 0-0.006 0.001-0.009 0.044-0.457 0.455-1.294 0.614-1.604 0.026-0.051 0.098-0.051 0.124 0 0.158 0.31 0.569 1.15 0.615 1.601 0.001 0.005 0.001 0.009 0.002 0.014 0.002 0.022 0.003 0.043 0.003 0.063 0 0.376-0.305 0.681-0.681 0.681s-0.681-0.304-0.681-0.681c0-0.020 0.001-0.043 0.003-0.065zM5.805 24.97c-0.063 0-0.122-0.012-0.18-0.027-0.073-0.020-0.141-0.049-0.202-0.091-0.18-0.122-0.297-0.327-0.297-0.561 0-0.020 0.001-0.042 0.003-0.066 0-0.003 0-0.005 0.001-0.008 0.044-0.455 0.455-1.291 0.612-1.6 0.027-0.050 0.098-0.050 0.124 0.001 0.063 0.123 0.165 0.331 0.269 0.564 0.028 0.063 0.055 0.129 0.083 0.194 0.126 0.301 0.238 0.617 0.261 0.839 0 0.005 0.001 0.009 0.001 0.013 0.002 0.023 0.003 0.044 0.003 0.063 0 0.375-0.304 0.68-0.679 0.68zM3.951 24.97c-0.119 0-0.228-0.033-0.325-0.087-0.033-0.018-0.061-0.043-0.090-0.065-0.158-0.124-0.265-0.311-0.265-0.527 0-0.020 0.001-0.042 0.003-0.066 0-0.003 0-0.005 0.001-0.008 0.022-0.226 0.134-0.545 0.26-0.848 0.129-0.307 0.272-0.596 0.352-0.753 0.026-0.050 0.098-0.050 0.124 0.001 0.070 0.138 0.189 0.379 0.304 0.643 0.145 0.334 0.284 0.703 0.309 0.954 0 0.005 0.001 0.009 0.001 0.013 0.002 0.023 0.003 0.044 0.003 0.063 0 0.374-0.304 0.679-0.678 0.679zM12.393 25.662l-4.549-10.693-2.874 6.754h-0.878l3.38-7.945c0.063-0.149 0.21-0.246 0.372-0.246s0.308 0.097 0.372 0.246l5.056 11.883h-0.878z"></path>
</svg>
