<?xml version="1.0" encoding="utf-8"?>
<!-- Generated by IcoMoon.io -->
<!DOCTYPE svg PUBLIC "-//W3C//DTD SVG 1.1//EN" "http://www.w3.org/Graphics/SVG/1.1/DTD/svg11.dtd">
<svg version="1.1" xmlns="http://www.w3.org/2000/svg" xmlns:xlink="http://www.w3.org/1999/xlink" width="12" height="32" viewBox="0 0 12 32">
<path fill="#000" d="M9.332 24.997h0.68c0.138 0 0.266-0.068 0.343-0.182s0.092-0.258 0.041-0.386l-1.473-3.686h2.457c0.136 0 0.264-0.066 0.341-0.179s0.095-0.255 0.047-0.382l-5.174-13.676c-0.061-0.162-0.216-0.268-0.388-0.268s-0.327 0.107-0.388 0.268l-5.174 13.677c-0.048 0.127-0.031 0.27 0.047 0.382s0.205 0.179 0.341 0.179h2.296l-1.473 3.686c-0.051 0.128-0.036 0.273 0.041 0.386s0.206 0.182 0.343 0.182h0.84l-2.437 6.441c-0.048 0.127-0.031 0.27 0.047 0.382s0.205 0.179 0.341 0.179h10.348c0.136 0 0.264-0.066 0.341-0.179s0.095-0.255 0.047-0.382l-2.436-6.441zM6.493 29.806c0 0.376-0.305 0.68-0.681 0.68s-0.681-0.304-0.681-0.68c0-0.021 0.001-0.043 0.004-0.066 0-0.003 0-0.006 0.001-0.009 0.044-0.456 0.455-1.294 0.614-1.604 0.026-0.051 0.098-0.051 0.124 0 0.158 0.31 0.569 1.15 0.614 1.601 0.001 0.005 0.001 0.009 0.002 0.014 0.002 0.022 0.004 0.043 0.004 0.063zM5.409 22.738c0-0.003 0.001-0.006 0.001-0.009 0.044-0.456 0.455-1.294 0.615-1.604 0.026-0.051 0.098-0.051 0.124 0 0.159 0.31 0.57 1.15 0.615 1.601 0 0.005 0.001 0.009 0.001 0.014 0.003 0.022 0.004 0.043 0.004 0.063 0 0.376-0.306 0.68-0.681 0.68s-0.681-0.304-0.681-0.68c0-0.021 0.002-0.043 0.003-0.066zM6.49 18.486c0.002 0.022 0.003 0.043 0.003 0.063 0 0.226-0.112 0.424-0.281 0.548-0.006 0.004-0.011 0.010-0.017 0.014-0.109 0.074-0.241 0.118-0.383 0.118-0.185 0-0.352-0.074-0.475-0.194-0.126-0.124-0.206-0.296-0.206-0.486 0-0.021 0.001-0.043 0.004-0.066 0-0.003 0-0.006 0.001-0.009 0.001-0.010 0.005-0.024 0.006-0.034 0.059-0.462 0.453-1.268 0.608-1.57 0.005-0.010 0.017-0.009 0.025-0.015 0.033-0.025 0.079-0.026 0.099 0.015 0.069 0.134 0.185 0.37 0.298 0.629 0.148 0.338 0.291 0.717 0.317 0.973 0.001 0.005 0.001 0.009 0.002 0.014zM3.275 18.483c0-0.003 0-0.006 0.001-0.009 0.044-0.456 0.455-1.294 0.614-1.604 0.026-0.051 0.098-0.051 0.124 0 0.102 0.2 0.309 0.621 0.455 1.016 0.080 0.216 0.143 0.425 0.159 0.586 0.001 0.005 0.001 0.009 0.002 0.014 0.002 0.022 0.003 0.043 0.003 0.063 0 0.376-0.305 0.68-0.681 0.68-0.006 0-0.012-0.002-0.018-0.002-0.367-0.010-0.663-0.309-0.663-0.678 0-0.021 0.001-0.043 0.003-0.066zM3.275 29.741c0-0.003 0-0.006 0.001-0.009 0.044-0.456 0.455-1.294 0.614-1.604 0.026-0.051 0.098-0.051 0.124 0 0.158 0.31 0.569 1.15 0.614 1.601 0.001 0.005 0.001 0.009 0.002 0.014 0.002 0.022 0.003 0.043 0.003 0.063 0 0.376-0.305 0.68-0.681 0.68s-0.681-0.304-0.681-0.68c0-0.021 0.002-0.043 0.004-0.066z"></path>
</svg>
