<?xml version="1.0" encoding="utf-8"?>
<!-- Generated by IcoMoon.io -->
<!DOCTYPE svg PUBLIC "-//W3C//DTD SVG 1.1//EN" "http://www.w3.org/Graphics/SVG/1.1/DTD/svg11.dtd">
<svg version="1.1" xmlns="http://www.w3.org/2000/svg" xmlns:xlink="http://www.w3.org/1999/xlink" width="32" height="32" viewBox="0 0 32 32">
<path fill="#000" d="M25.237 15.176c-0.045-0.24-0.208-0.444-0.434-0.541l-17.184-7.374c-0.279-0.119-0.602-0.058-0.816 0.157s-0.277 0.538-0.157 0.815l7.373 17.184c0.097 0.226 0.301 0.389 0.541 0.435 0.241 0.047 0.49-0.030 0.663-0.203l9.81-9.809c0.174-0.174 0.25-0.423 0.203-0.664zM18.17 18.883c-0.476 0.476-1.245 0.476-1.72 0.001-0.026-0.027-0.053-0.056-0.078-0.087-0.003-0.004-0.007-0.007-0.011-0.013-0.52-0.631-1.060-2.208-1.249-2.801-0.031-0.097 0.059-0.188 0.157-0.156 0.591 0.193 2.17 0.735 2.798 1.245 0.007 0.007 0.013 0.010 0.018 0.016 0.029 0.025 0.058 0.050 0.084 0.076 0.475 0.474 0.475 1.243 0.001 1.718z"></path>
</svg>
