<?xml version="1.0" encoding="utf-8"?>
<!-- Generated by IcoMoon.io -->
<!DOCTYPE svg PUBLIC "-//W3C//DTD SVG 1.1//EN" "http://www.w3.org/Graphics/SVG/1.1/DTD/svg11.dtd">
<svg version="1.1" xmlns="http://www.w3.org/2000/svg" xmlns:xlink="http://www.w3.org/1999/xlink" width="10" height="32" viewBox="0 0 10 32">
<path fill="#000" d="M7.689 23.338h1.115c0.138 0 0.266-0.068 0.343-0.182s0.093-0.258 0.042-0.386l-3.886-9.725c-0.063-0.158-0.216-0.261-0.385-0.261s-0.322 0.103-0.385 0.261l-3.885 9.725c-0.051 0.128-0.035 0.273 0.042 0.386s0.206 0.182 0.343 0.182h1.114l-1.499 3.753c-0.014 0.034-0.022 0.069-0.026 0.105v0c-0.006 0.036-0.001 0.072 0.002 0.108 0.006 0.068 0.023 0.134 0.062 0.192 0.078 0.114 0.206 0.182 0.343 0.182h1.114l-1.499 3.753c-0.051 0.128-0.035 0.273 0.042 0.386s0.206 0.182 0.343 0.182h7.77c0.138 0 0.266-0.068 0.343-0.182s0.093-0.258 0.042-0.386l-1.499-3.753h1.115c0.138 0 0.266-0.068 0.343-0.182 0.039-0.058 0.062-0.124 0.069-0.192v-0c0.005-0.034 0.005-0.069 0.002-0.103 0-0.002 0-0.003 0-0.005-0.004-0.035-0.012-0.070-0.026-0.105l-1.5-3.753zM5.556 29.806c0 0.376-0.305 0.68-0.681 0.68s-0.681-0.304-0.681-0.68c0-0.021 0.001-0.043 0.003-0.066 0-0.003 0-0.006 0.001-0.009 0.044-0.456 0.455-1.294 0.615-1.604 0.026-0.051 0.098-0.051 0.124 0 0.158 0.31 0.569 1.15 0.615 1.601 0 0.005 0.001 0.009 0.001 0.014 0.003 0.022 0.004 0.043 0.004 0.063zM4.194 25.484c0-0.021 0.001-0.043 0.003-0.066 0-0.003 0-0.006 0.001-0.009 0-0.006 0.003-0.013 0.003-0.019 0.044-0.456 0.455-1.294 0.615-1.604 0.026-0.051 0.098-0.051 0.124 0 0.158 0.31 0.569 1.15 0.615 1.601 0 0.005 0.001 0.009 0.001 0.014 0.002 0.022 0.004 0.043 0.004 0.063 0 0.048-0.006 0.094-0.015 0.139-0 0.002 0 0.003-0 0.005 0 0-0 0.001-0 0.001-0.001 0.003-0.003 0.006-0.004 0.009-0.012 0.056-0.034 0.107-0.059 0.157-0.006 0.011-0.011 0.022-0.018 0.033-0.004 0.007-0.007 0.013-0.010 0.019-0.007 0.010-0.017 0.018-0.024 0.028-0.121 0.182-0.318 0.309-0.553 0.309-0.377 0-0.681-0.304-0.681-0.68zM5.555 21.067c0 0.005 0.001 0.009 0.001 0.014 0.002 0.022 0.004 0.043 0.004 0.063 0 0.376-0.305 0.68-0.681 0.68s-0.681-0.304-0.681-0.68c0-0.021 0.001-0.043 0.003-0.066 0-0.003 0-0.006 0.001-0.009 0.044-0.456 0.455-1.294 0.615-1.604 0.026-0.051 0.098-0.051 0.124 0 0.158 0.31 0.569 1.15 0.615 1.601z"></path>
</svg>
