<?xml version="1.0" encoding="utf-8"?>
<!-- Generated by IcoMoon.io -->
<!DOCTYPE svg PUBLIC "-//W3C//DTD SVG 1.1//EN" "http://www.w3.org/Graphics/SVG/1.1/DTD/svg11.dtd">
<svg version="1.1" xmlns="http://www.w3.org/2000/svg" xmlns:xlink="http://www.w3.org/1999/xlink" width="20" height="32" viewBox="0 0 20 32">
<path fill="#231f20" d="M19.034 31.422l-5.315-12.61c-0.053-0.128-0.168-0.22-0.304-0.246s-0.277 0.018-0.374 0.118l-12.307 12.612c-0.116 0.119-0.15 0.297-0.085 0.451s0.216 0.253 0.382 0.253l17.621-0.002c0.139-0.001 0.268-0.070 0.345-0.185s0.090-0.262 0.037-0.391zM11.267 22.968c0.224-0.267 0.837-0.972 1.24-1.189 0.002-0.002 0.006-0.003 0.008-0.005 0.020-0.010 0.040-0.020 0.058-0.028 0.347-0.146 0.746 0.016 0.892 0.362 0.147 0.347-0.016 0.746-0.363 0.892-0.018 0.008-0.038 0.015-0.059 0.022-0.004 0.001-0.009 0.003-0.013 0.004-0.433 0.133-1.367 0.081-1.715 0.056-0.057-0.005-0.085-0.072-0.049-0.114zM14.188 23.822c0.147 0.346-0.016 0.746-0.363 0.892-0.019 0.008-0.038 0.015-0.059 0.021-0.005 0.002-0.009 0.003-0.014 0.004-0.432 0.134-1.366 0.082-1.714 0.056-0.057-0.003-0.085-0.070-0.049-0.114 0.223-0.267 0.837-0.971 1.24-1.189 0.002-0.002 0.006-0.003 0.008-0.004 0.020-0.011 0.039-0.021 0.058-0.028 0.346-0.147 0.746 0.016 0.892 0.362zM14.547 26.428c-0.019 0.007-0.039 0.015-0.059 0.021-0.005 0.001-0.009 0.003-0.014 0.004-0.432 0.134-1.366 0.081-1.715 0.056-0.057-0.004-0.084-0.070-0.048-0.114 0.223-0.267 0.837-0.972 1.239-1.19 0.002-0.001 0.006-0.003 0.008-0.004 0.020-0.010 0.040-0.020 0.059-0.028 0.347-0.146 0.746 0.017 0.892 0.363s-0.016 0.746-0.363 0.892z"></path>
</svg>
