<?xml version="1.0" encoding="utf-8"?>
<!-- Generated by IcoMoon.io -->
<!DOCTYPE svg PUBLIC "-//W3C//DTD SVG 1.1//EN" "http://www.w3.org/Graphics/SVG/1.1/DTD/svg11.dtd">
<svg version="1.1" xmlns="http://www.w3.org/2000/svg" xmlns:xlink="http://www.w3.org/1999/xlink" width="16" height="32" viewBox="0 0 16 32">
<path fill="#000" d="M15.085 17.723l-6.842-16.239c-0.065-0.154-0.216-0.254-0.382-0.254s-0.318 0.1-0.382 0.254l-6.842 16.239c-0.054 0.129-0.040 0.275 0.037 0.39s0.207 0.185 0.345 0.185h4.221l-1.652 4.134c-0.051 0.128-0.035 0.273 0.042 0.386s0.206 0.182 0.343 0.182h1.514l-3.191 8.434c-0.048 0.127-0.031 0.27 0.047 0.382s0.205 0.179 0.341 0.179h10.348c0.136 0 0.264-0.067 0.341-0.179s0.095-0.255 0.047-0.382l-3.19-8.434h1.513c0.138 0 0.266-0.068 0.343-0.182s0.093-0.258 0.042-0.386l-1.651-4.134h4.226c0.139 0 0.268-0.070 0.345-0.185s0.091-0.262 0.037-0.391zM8.144 29.801c0 0.377-0.305 0.681-0.681 0.681s-0.681-0.304-0.681-0.681c0-0.020 0.001-0.043 0.004-0.065 0-0.003 0-0.007 0.001-0.009 0.044-0.457 0.455-1.294 0.614-1.604 0.026-0.050 0.098-0.050 0.124 0 0.158 0.311 0.569 1.151 0.614 1.601 0.001 0.005 0.001 0.010 0.002 0.014 0.002 0.023 0.004 0.044 0.004 0.063zM7.818 21.487c-0.329 0-0.604-0.233-0.667-0.543-0.009-0.044-0.014-0.090-0.014-0.138 0-0.021 0.001-0.043 0.003-0.065 0-0.003 0-0.006 0.001-0.009 0.044-0.457 0.455-1.294 0.615-1.604 0.019-0.037 0.058-0.038 0.090-0.021 0.011 0.006 0.024 0.007 0.032 0.020 0 0.001 0.002 0 0.003 0.001 0.158 0.311 0.569 1.15 0.615 1.601 0 0.005 0.001 0.009 0.001 0.014 0.001 0.007 0.001 0.013 0.001 0.020 0.001 0.015 0.002 0.029 0.002 0.043 0 0.376-0.305 0.68-0.681 0.68zM5.816 16.785c-0.376 0-0.681-0.305-0.681-0.681 0-0.020 0.001-0.042 0.004-0.065 0-0.003 0-0.007 0.001-0.009 0.044-0.456 0.455-1.294 0.614-1.604 0.026-0.050 0.098-0.050 0.124 0 0.108 0.211 0.33 0.666 0.476 1.078 0.069 0.194 0.123 0.38 0.138 0.524 0.001 0.004 0.001 0.009 0.002 0.014 0.002 0.022 0.003 0.043 0.003 0.062 0 0.367-0.29 0.663-0.653 0.678-0.009 0.001-0.018 0.003-0.028 0.003zM7.676 16.785c-0.367 0-0.664-0.291-0.678-0.655-0-0.009-0.003-0.017-0.003-0.026 0-0.020 0.001-0.042 0.003-0.065 0-0.003 0-0.007 0.001-0.009 0.044-0.456 0.456-1.294 0.614-1.604 0.016-0.031 0.047-0.036 0.077-0.029 0.019 0.004 0.038 0.010 0.048 0.029 0.158 0.311 0.569 1.151 0.614 1.602 0.001 0.004 0.001 0.009 0.002 0.014 0.002 0.022 0.003 0.043 0.003 0.062-0 0.377-0.305 0.681-0.681 0.681zM3.28 16.039c0-0.003 0-0.007 0.001-0.009 0.044-0.456 0.455-1.294 0.614-1.604 0.026-0.050 0.098-0.050 0.124 0 0.158 0.311 0.569 1.151 0.615 1.602 0 0.004 0.001 0.009 0.001 0.014 0.002 0.022 0.003 0.043 0.003 0.062 0 0.377-0.304 0.681-0.681 0.681-0.376 0-0.68-0.305-0.68-0.681 0-0.020 0.001-0.042 0.004-0.065zM4.926 29.736c0-0.003 0-0.007 0.001-0.009 0.044-0.457 0.455-1.294 0.614-1.604 0.026-0.050 0.098-0.050 0.124 0 0.158 0.311 0.569 1.151 0.614 1.601 0.001 0.005 0.001 0.010 0.002 0.014 0.002 0.023 0.003 0.044 0.003 0.063 0 0.377-0.305 0.681-0.681 0.681s-0.681-0.304-0.681-0.681c0-0.020 0.002-0.043 0.004-0.065z"></path>
</svg>
