<?xml version="1.0" encoding="utf-8"?>
<!-- Generated by IcoMoon.io -->
<!DOCTYPE svg PUBLIC "-//W3C//DTD SVG 1.1//EN" "http://www.w3.org/Graphics/SVG/1.1/DTD/svg11.dtd">
<svg version="1.1" xmlns="http://www.w3.org/2000/svg" xmlns:xlink="http://www.w3.org/1999/xlink" width="12" height="32" viewBox="0 0 12 32">
<path fill="#000" d="M11.766 31.439l-2.252-5.952h0.575c0.138 0 0.266-0.068 0.343-0.182 0.039-0.057 0.061-0.122 0.068-0.188s-0.002-0.134-0.027-0.198l-1.507-3.772h1.125c0.138 0 0.266-0.068 0.343-0.182s0.092-0.258 0.041-0.386l-3.886-9.725c-0.062-0.158-0.216-0.261-0.385-0.261s-0.322 0.103-0.386 0.261l-3.884 9.725c-0.051 0.128-0.036 0.273 0.041 0.386s0.206 0.182 0.343 0.182h1.118l-1.507 3.772c-0.038 0.095-0.039 0.201-0.005 0.296 0.012 0.031 0.027 0.062 0.046 0.090 0.078 0.114 0.206 0.182 0.343 0.182h0.575l-2.252 5.952c-0.048 0.127-0.031 0.27 0.047 0.382s0.205 0.179 0.341 0.179h10.348c0.136 0 0.264-0.066 0.341-0.179s0.095-0.255 0.047-0.383zM6.491 29.805c0 0.377-0.304 0.681-0.681 0.681s-0.681-0.304-0.681-0.681c0-0.020 0.001-0.042 0.003-0.065 0-0.003 0.001-0.007 0.001-0.009 0.044-0.456 0.455-1.294 0.615-1.604 0.026-0.050 0.098-0.050 0.124 0 0.158 0.311 0.569 1.151 0.614 1.602 0.001 0.004 0.002 0.009 0.002 0.014 0.002 0.022 0.003 0.043 0.003 0.062zM5.487 23.227c0-0.003 0.001-0.006 0.001-0.009 0.017-0.176 0.089-0.408 0.179-0.645 0.013-0.034 0.028-0.067 0.042-0.101 0.082-0.203 0.172-0.405 0.251-0.571 0.056-0.116 0.106-0.216 0.143-0.288 0.026-0.051 0.099-0.051 0.124 0 0.159 0.311 0.57 1.151 0.615 1.601 0.001 0.005 0.001 0.009 0.002 0.014 0.002 0.022 0.003 0.043 0.003 0.063 0 0 0 0 0 0v0c0 0.376-0.306 0.68-0.681 0.68s-0.681-0.304-0.681-0.68c-0-0.021 0.001-0.043 0.003-0.066zM6.844 18.875c0 0.005 0.001 0.009 0.001 0.014 0.003 0.022 0.004 0.043 0.004 0.063 0 0.376-0.306 0.68-0.681 0.68s-0.681-0.304-0.681-0.68c0-0.021 0.002-0.043 0.003-0.066 0-0.003 0.001-0.006 0.001-0.009 0.044-0.456 0.455-1.294 0.615-1.604 0.026-0.051 0.098-0.051 0.124 0 0.159 0.31 0.57 1.15 0.615 1.601zM3.273 29.74c0-0.003 0-0.007 0.001-0.009 0.044-0.456 0.455-1.294 0.615-1.604 0.026-0.050 0.098-0.050 0.124 0 0.158 0.311 0.569 1.151 0.615 1.602 0 0.004 0.001 0.009 0.001 0.014 0.003 0.022 0.004 0.043 0.004 0.062 0 0.377-0.305 0.681-0.681 0.681s-0.681-0.304-0.681-0.681c0-0.020 0.002-0.042 0.004-0.065z"></path>
</svg>
