<?xml version="1.0" encoding="utf-8"?>
<!-- Generated by IcoMoon.io -->
<!DOCTYPE svg PUBLIC "-//W3C//DTD SVG 1.1//EN" "http://www.w3.org/Graphics/SVG/1.1/DTD/svg11.dtd">
<svg version="1.1" xmlns="http://www.w3.org/2000/svg" xmlns:xlink="http://www.w3.org/1999/xlink" width="20" height="32" viewBox="0 0 20 32">
<path fill="#000" d="M18.903 31.113l-13.106-11.543c-0.122-0.108-0.288-0.149-0.446-0.108-0.158 0.039-0.287 0.153-0.344 0.306l-4.359 11.564c-0.058 0.152-0.037 0.323 0.056 0.457s0.245 0.214 0.408 0.213l17.464-0.019c0.206 0 0.39-0.128 0.463-0.32 0.073-0.194 0.019-0.412-0.136-0.548zM4.685 25.746c0.157-0.42 0.627-0.632 1.048-0.474 0.021 0.009 0.047 0.019 0.070 0.031 0.003 0.002 0.006 0.003 0.010 0.005 0.491 0.241 1.253 1.054 1.534 1.362 0.045 0.050 0.014 0.132-0.053 0.139-0.414 0.045-1.524 0.151-2.047 0.011-0.006-0.002-0.012-0.003-0.017-0.003-0.025-0.008-0.050-0.015-0.072-0.023-0.421-0.159-0.631-0.628-0.473-1.048zM8.078 24.73c-0.413 0.047-1.525 0.152-2.048 0.011-0.007-0.001-0.011-0.003-0.016-0.004-0.027-0.007-0.051-0.014-0.073-0.022-0.42-0.158-0.631-0.628-0.473-1.047 0.158-0.421 0.627-0.632 1.048-0.475 0.022 0.009 0.048 0.020 0.071 0.032 0.003 0.001 0.007 0.002 0.010 0.005 0.49 0.241 1.254 1.054 1.534 1.362 0.044 0.050 0.013 0.132-0.054 0.139z"></path>
</svg>
