<?xml version="1.0" encoding="utf-8"?>
<!-- Generated by IcoMoon.io -->
<!DOCTYPE svg PUBLIC "-//W3C//DTD SVG 1.1//EN" "http://www.w3.org/Graphics/SVG/1.1/DTD/svg11.dtd">
<svg version="1.1" xmlns="http://www.w3.org/2000/svg" xmlns:xlink="http://www.w3.org/1999/xlink" width="32" height="32" viewBox="0 0 32 32">
<path fill="#000" d="M30.909 3.781c-0.207-0.138-0.467-0.162-0.697-0.065l-28.996 12.219c-0.275 0.116-0.453 0.385-0.453 0.683s0.178 0.567 0.453 0.683l28.996 12.217c0.23 0.096 0.49 0.071 0.697-0.067s0.331-0.369 0.331-0.616v-24.436c0-0.249-0.124-0.48-0.331-0.618zM24.325 23.476c0.555-0.284 2.055-1.017 2.86-1.097 0.007-0.001 0.016-0.001 0.024-0.003 0.039-0.003 0.077-0.006 0.111-0.006 0.672 0 1.217 0.544 1.217 1.217 0 0.671-0.544 1.215-1.217 1.215-0.036 0-0.076-0.001-0.116-0.006-0.004 0-0.012 0-0.016-0.001-0.814-0.078-2.311-0.813-2.865-1.096-0.090-0.047-0.090-0.177 0-0.222zM24.325 20.156c0.555-0.284 2.055-1.017 2.86-1.097 0.007-0.001 0.016-0.001 0.024-0.003 0.039-0.003 0.077-0.006 0.111-0.006 0.672 0 1.217 0.545 1.217 1.217s-0.544 1.217-1.217 1.217c-0.036 0-0.076-0.003-0.116-0.007-0.004 0-0.012 0-0.016-0.001-0.814-0.078-2.311-0.813-2.865-1.096-0.090-0.049-0.090-0.178 0-0.222zM27.32 18.161c-0.036 0-0.076-0.003-0.116-0.006-0.004-0.001-0.012-0.001-0.016-0.001-0.814-0.079-2.311-0.814-2.865-1.097-0.090-0.047-0.090-0.176 0-0.221 0.555-0.284 2.055-1.017 2.86-1.097 0.007-0.001 0.016-0.001 0.024-0.003 0.039-0.003 0.077-0.006 0.111-0.006 0.672 0 1.217 0.545 1.217 1.217s-0.544 1.216-1.217 1.216z"></path>
</svg>
