<?xml version="1.0" encoding="utf-8"?>
<!-- Generated by IcoMoon.io -->
<!DOCTYPE svg PUBLIC "-//W3C//DTD SVG 1.1//EN" "http://www.w3.org/Graphics/SVG/1.1/DTD/svg11.dtd">
<svg version="1.1" xmlns="http://www.w3.org/2000/svg" xmlns:xlink="http://www.w3.org/1999/xlink" width="12" height="32" viewBox="0 0 12 32">
<path fill="#000" d="M11.769 20.181l-5.174-13.677c-0.061-0.162-0.216-0.268-0.388-0.268s-0.327 0.107-0.388 0.268l-5.174 13.677c-0.048 0.127-0.031 0.27 0.047 0.382s0.205 0.179 0.341 0.179h10.348c0.136 0 0.264-0.066 0.341-0.179s0.095-0.255 0.047-0.382zM3.275 18.483c0-0.003 0-0.006 0.001-0.009 0.044-0.456 0.455-1.294 0.614-1.604 0.026-0.051 0.098-0.051 0.124 0 0.158 0.31 0.569 1.15 0.614 1.601 0.001 0.005 0.001 0.009 0.002 0.014 0.002 0.022 0.003 0.043 0.003 0.063 0 0.376-0.305 0.68-0.681 0.68s-0.681-0.304-0.681-0.68c0-0.021 0.002-0.043 0.004-0.066zM5.812 19.229c-0.376 0-0.681-0.304-0.681-0.68 0-0.021 0.001-0.043 0.004-0.066 0-0.003 0-0.006 0.001-0.009 0.044-0.456 0.455-1.294 0.614-1.604 0.026-0.051 0.098-0.051 0.124 0 0.158 0.31 0.569 1.15 0.614 1.601 0.001 0.005 0.001 0.009 0.002 0.014 0.002 0.022 0.003 0.043 0.003 0.063 0 0.376-0.305 0.68-0.681 0.68z"></path>
<path fill="#000" d="M6.59 21.706c-0.062-0.158-0.216-0.261-0.385-0.261s-0.322 0.103-0.386 0.261l-3.884 9.725c-0.051 0.128-0.036 0.273 0.041 0.386s0.206 0.182 0.343 0.182h7.771c0.138 0 0.266-0.068 0.343-0.182s0.092-0.258 0.041-0.386l-3.886-9.725zM6.166 30.486c-0.377 0-0.681-0.304-0.681-0.68 0-0.021 0.002-0.043 0.003-0.066 0-0.003 0.001-0.006 0.001-0.009 0.044-0.456 0.455-1.294 0.615-1.604 0.026-0.051 0.098-0.051 0.124 0 0.159 0.31 0.57 1.15 0.615 1.601 0 0.005 0.001 0.009 0.001 0.014 0.003 0.022 0.004 0.043 0.004 0.063 0 0.376-0.306 0.68-0.681 0.68z"></path>
</svg>
