<?xml version="1.0" encoding="utf-8"?>
<!-- Generated by IcoMoon.io -->
<!DOCTYPE svg PUBLIC "-//W3C//DTD SVG 1.1//EN" "http://www.w3.org/Graphics/SVG/1.1/DTD/svg11.dtd">
<svg version="1.1" xmlns="http://www.w3.org/2000/svg" xmlns:xlink="http://www.w3.org/1999/xlink" width="32" height="32" viewBox="0 0 32 32">
<path fill="#000" d="M28.883 28.512l-10.735-23.803c-0.101-0.221-0.303-0.381-0.542-0.424-0.24-0.044-0.484 0.033-0.657 0.204l-13.065 13.066c-0.172 0.171-0.249 0.416-0.205 0.657 0.044 0.238 0.203 0.441 0.424 0.541l23.802 10.737c0.281 0.127 0.61 0.067 0.827-0.15 0.218-0.218 0.279-0.548 0.152-0.829zM12.824 12.437c0.475-0.475 1.245-0.475 1.719-0.001 0.026 0.027 0.052 0.056 0.077 0.088 0.004 0.003 0.007 0.007 0.011 0.012 0.521 0.632 1.060 2.209 1.25 2.8 0.031 0.097-0.061 0.189-0.157 0.156-0.592-0.191-2.172-0.733-2.797-1.245-0.007-0.005-0.013-0.010-0.020-0.016-0.029-0.026-0.058-0.050-0.084-0.076-0.475-0.474-0.474-1.244 0.001-1.719zM18.072 13.144c-0.592-0.192-2.171-0.733-2.799-1.245-0.007-0.005-0.012-0.010-0.018-0.016-0.030-0.026-0.059-0.050-0.084-0.076-0.475-0.475-0.473-1.245 0.001-1.719s1.245-0.475 1.719-0.001c0.027 0.027 0.052 0.056 0.078 0.087 0.002 0.004 0.006 0.008 0.009 0.013 0.521 0.632 1.060 2.209 1.251 2.8 0.031 0.098-0.060 0.19-0.157 0.157z"></path>
</svg>
