<?xml version="1.0" encoding="utf-8"?>
<!-- Generated by IcoMoon.io -->
<!DOCTYPE svg PUBLIC "-//W3C//DTD SVG 1.1//EN" "http://www.w3.org/Graphics/SVG/1.1/DTD/svg11.dtd">
<svg version="1.1" xmlns="http://www.w3.org/2000/svg" xmlns:xlink="http://www.w3.org/1999/xlink" width="16" height="32" viewBox="0 0 16 32">
<path fill="#000" d="M15.040 31.439l-6.824-16.196c-0.063-0.15-0.209-0.247-0.372-0.247s-0.309 0.097-0.372 0.247l-0.417 0.991-6.407 15.205c-0.053 0.126-0.039 0.268 0.036 0.381s0.201 0.181 0.337 0.181h13.649c0.135 0 0.262-0.068 0.336-0.181s0.088-0.255 0.036-0.381zM5.126 29.82c0-0.020 0.001-0.043 0.003-0.066 0-0.003 0-0.005 0.001-0.009 0.044-0.455 0.455-1.29 0.612-1.6 0.027-0.051 0.098-0.051 0.124 0.001 0.063 0.123 0.165 0.331 0.269 0.564 0.157 0.352 0.316 0.763 0.344 1.033 0 0.005 0.001 0.009 0.001 0.013 0.002 0.022 0.003 0.043 0.003 0.063 0 0.375-0.304 0.679-0.679 0.679-0.141 0-0.273-0.044-0.381-0.118-0.18-0.121-0.298-0.327-0.298-0.561zM6.981 29.82c0-0.020 0.001-0.043 0.003-0.066 0-0.003 0-0.005 0-0.009 0.044-0.455 0.455-1.29 0.613-1.6 0.026-0.051 0.098-0.051 0.124 0.001 0.158 0.309 0.567 1.147 0.612 1.597 0 0.005 0.001 0.009 0.001 0.013 0.002 0.022 0.003 0.043 0.003 0.063 0 0.375-0.304 0.679-0.679 0.679s-0.679-0.304-0.679-0.679zM3.951 30.5c-0.119 0-0.228-0.033-0.325-0.086-0.21-0.115-0.354-0.336-0.354-0.593 0-0.020 0.001-0.043 0.003-0.066 0-0.003 0-0.005 0.001-0.009 0.044-0.455 0.454-1.29 0.612-1.6 0.026-0.051 0.098-0.051 0.124 0.001 0.070 0.137 0.189 0.379 0.304 0.643 0.145 0.333 0.284 0.702 0.309 0.954 0 0.005 0.001 0.009 0.001 0.013 0.002 0.022 0.003 0.043 0.003 0.063 0 0.375-0.304 0.679-0.678 0.679zM12.393 31.192l-4.549-10.693-2.874 6.754h-0.878l3.38-7.945c0.063-0.149 0.21-0.246 0.372-0.246s0.308 0.097 0.372 0.246l5.056 11.883h-0.878z"></path>
</svg>
