<?xml version="1.0" encoding="utf-8"?>
<!-- Generated by IcoMoon.io -->
<!DOCTYPE svg PUBLIC "-//W3C//DTD SVG 1.1//EN" "http://www.w3.org/Graphics/SVG/1.1/DTD/svg11.dtd">
<svg version="1.1" xmlns="http://www.w3.org/2000/svg" xmlns:xlink="http://www.w3.org/1999/xlink" width="32" height="32" viewBox="0 0 32 32">
<path fill="#000" d="M28.71 3.87c-0.218-0.218-0.548-0.278-0.829-0.151l-23.803 10.735c-0.221 0.1-0.381 0.302-0.424 0.541-0.045 0.241 0.033 0.484 0.204 0.656l13.066 13.066c0.172 0.171 0.415 0.249 0.657 0.204 0.238-0.043 0.441-0.202 0.541-0.423l10.739-23.8c0.126-0.281 0.067-0.61-0.151-0.828zM9.457 15.71c0.026-0.026 0.056-0.052 0.087-0.079 0.004-0.002 0.009-0.007 0.013-0.010 0.632-0.52 2.21-1.059 2.8-1.25 0.098-0.030 0.19 0.061 0.157 0.157-0.192 0.592-0.732 2.172-1.245 2.798-0.005 0.007-0.010 0.013-0.016 0.019-0.026 0.029-0.050 0.058-0.076 0.084-0.475 0.475-1.245 0.473-1.719-0.001s-0.475-1.245-0.001-1.719zM14.862 16.877c-0.191 0.593-0.732 2.172-1.245 2.798-0.005 0.007-0.010 0.013-0.016 0.019-0.025 0.030-0.050 0.058-0.076 0.083-0.475 0.475-1.244 0.475-1.719-0.001s-0.475-1.245-0.001-1.719c0.026-0.026 0.056-0.052 0.088-0.078 0.003-0.003 0.007-0.007 0.012-0.010 0.631-0.521 2.209-1.060 2.8-1.25 0.098-0.031 0.19 0.061 0.157 0.157z"></path>
</svg>
