<?xml version="1.0" encoding="utf-8"?>
<!-- Generated by IcoMoon.io -->
<!DOCTYPE svg PUBLIC "-//W3C//DTD SVG 1.1//EN" "http://www.w3.org/Graphics/SVG/1.1/DTD/svg11.dtd">
<svg version="1.1" xmlns="http://www.w3.org/2000/svg" xmlns:xlink="http://www.w3.org/1999/xlink" width="16" height="32" viewBox="0 0 16 32">
<path fill="#000" d="M15.094 31.424l-2.769-6.571h0.718c0.136 0 0.263-0.067 0.341-0.179s0.095-0.255 0.047-0.382l-1.342-3.548h0.954c0.136 0 0.264-0.067 0.341-0.179s0.095-0.255 0.047-0.382l-5.173-13.677c-0.061-0.162-0.216-0.268-0.388-0.268s-0.327 0.107-0.388 0.268l-5.174 13.677c-0.048 0.127-0.031 0.27 0.047 0.382s0.205 0.179 0.341 0.179h0.954l-1.342 3.548c-0.048 0.127-0.031 0.27 0.047 0.382s0.205 0.179 0.341 0.179h0.718l-2.768 6.571c-0.054 0.129-0.040 0.275 0.037 0.39s0.207 0.185 0.345 0.185h13.684c0.139 0 0.268-0.070 0.345-0.185s0.090-0.262 0.037-0.39zM8.366 29.805c0 0.376-0.305 0.681-0.681 0.681s-0.681-0.305-0.681-0.681c0-0.021 0.001-0.043 0.003-0.065 0-0.003 0-0.007 0.001-0.009 0.044-0.456 0.456-1.294 0.614-1.604 0.026-0.051 0.099-0.051 0.124 0 0.158 0.311 0.569 1.151 0.614 1.602 0.001 0.005 0.001 0.009 0.002 0.014 0.002 0.022 0.004 0.043 0.004 0.063zM6.506 29.805c0 0.376-0.305 0.681-0.681 0.681s-0.681-0.305-0.681-0.681c0-0.021 0.001-0.043 0.004-0.065 0-0.003 0-0.007 0.001-0.009 0.044-0.456 0.455-1.294 0.614-1.604 0.026-0.051 0.098-0.051 0.124 0 0.158 0.311 0.569 1.151 0.614 1.602 0.001 0.005 0.001 0.009 0.002 0.014 0.003 0.022 0.004 0.043 0.004 0.063zM8.156 22.658c0 0.376-0.306 0.681-0.682 0.681s-0.681-0.304-0.681-0.681c0-0.021 0.001-0.043 0.004-0.065 0-0.003 0-0.006 0.001-0.009 0.044-0.457 0.455-1.294 0.614-1.604 0.026-0.051 0.098-0.051 0.124 0 0.158 0.311 0.569 1.15 0.615 1.601 0.001 0.005 0.001 0.009 0.002 0.014 0.002 0.022 0.004 0.043 0.004 0.063zM5.677 20.98c0.037 0.073 0.088 0.175 0.145 0.294 0.186 0.389 0.435 0.962 0.469 1.308 0.001 0.005 0.001 0.009 0.002 0.014 0.002 0.022 0.003 0.043 0.003 0.063 0 0.376-0.305 0.681-0.681 0.681-0.225 0-0.423-0.11-0.546-0.278-0.083-0.113-0.134-0.252-0.134-0.403 0-0.021 0.001-0.043 0.003-0.065 0-0.003 0-0.006 0.001-0.009 0.044-0.457 0.455-1.294 0.614-1.604 0.027-0.051 0.099-0.051 0.124 0zM5.794 19.203c-0.057 0.016-0.117 0.027-0.179 0.027-0.17 0-0.324-0.064-0.443-0.168-0.144-0.125-0.238-0.307-0.238-0.513 0-0.021 0.001-0.043 0.003-0.065 0-0.003 0-0.006 0.001-0.009 0.044-0.457 0.455-1.294 0.614-1.604 0.026-0.051 0.098-0.051 0.124 0 0.045 0.088 0.111 0.221 0.182 0.374 0.132 0.282 0.282 0.634 0.367 0.931 0.031 0.108 0.056 0.211 0.065 0.297 0.001 0.005 0.001 0.009 0.002 0.014 0.002 0.022 0.003 0.043 0.003 0.063 0 0.314-0.214 0.575-0.502 0.654zM8.153 18.486c0.002 0.022 0.003 0.043 0.003 0.063 0 0.376-0.305 0.681-0.681 0.681-0.277 0-0.515-0.166-0.622-0.405-0.037-0.085-0.059-0.177-0.059-0.276 0-0.021 0.001-0.043 0.004-0.065 0-0.003 0-0.006 0.001-0.009 0.044-0.457 0.455-1.294 0.614-1.604 0.026-0.051 0.098-0.051 0.124 0 0.021 0.041 0.047 0.094 0.076 0.152 0.186 0.377 0.499 1.059 0.538 1.449 0.001 0.005 0.001 0.009 0.002 0.014zM3.289 29.74c0-0.003 0-0.007 0.001-0.009 0.044-0.456 0.455-1.294 0.614-1.604 0.026-0.051 0.098-0.051 0.124 0 0.158 0.311 0.569 1.151 0.615 1.602 0 0.005 0.001 0.009 0.001 0.014 0.002 0.022 0.003 0.043 0.003 0.063 0 0.376-0.304 0.681-0.681 0.681-0.376 0-0.68-0.305-0.68-0.681 0-0.021 0.001-0.043 0.004-0.065z"></path>
</svg>
