<?xml version="1.0" encoding="utf-8"?>
<!-- Generated by IcoMoon.io -->
<!DOCTYPE svg PUBLIC "-//W3C//DTD SVG 1.1//EN" "http://www.w3.org/Graphics/SVG/1.1/DTD/svg11.dtd">
<svg version="1.1" xmlns="http://www.w3.org/2000/svg" xmlns:xlink="http://www.w3.org/1999/xlink" width="16" height="32" viewBox="0 0 16 32">
<path fill="#000" d="M15.094 31.424l-3.424-8.128h3.046c0.136 0 0.263-0.068 0.338-0.182s0.089-0.256 0.036-0.381l-6.846-16.249c-0.063-0.15-0.211-0.248-0.374-0.248s-0.31 0.098-0.373 0.248l-6.846 16.249c-0.053 0.126-0.039 0.268 0.036 0.381s0.202 0.182 0.338 0.182h3.047l-3.424 8.128c-0.027 0.064-0.037 0.133-0.031 0.2 0.006 0.068 0.028 0.135 0.068 0.195 0.077 0.116 0.207 0.185 0.345 0.185h13.684c0.139 0 0.268-0.070 0.345-0.185 0.039-0.059 0.061-0.126 0.067-0.195 0.006-0.067-0.003-0.136-0.031-0.2zM3.963 21.791c-0.119 0-0.229-0.033-0.326-0.086-0.211-0.115-0.355-0.337-0.355-0.595 0-0.021 0.001-0.043 0.003-0.066 0-0.003 0-0.005 0.001-0.009 0.044-0.457 0.456-1.295 0.615-1.605 0.026-0.051 0.099-0.051 0.124 0.001 0.070 0.138 0.189 0.38 0.305 0.645 0.145 0.335 0.284 0.705 0.31 0.957 0 0.005 0.001 0.009 0.001 0.013 0.002 0.022 0.003 0.044 0.003 0.063 0 0.376-0.305 0.681-0.681 0.681zM4.647 29.81c0 0.376-0.304 0.681-0.681 0.681-0.376 0-0.68-0.305-0.68-0.681 0-0.001 0-0.002 0-0.003s0-0.001 0-0.002c0-0.021 0.001-0.043 0.003-0.065 0-0.003 0-0.007 0.001-0.009 0.044-0.456 0.455-1.294 0.614-1.604 0.026-0.051 0.098-0.051 0.124 0 0.158 0.311 0.569 1.151 0.615 1.602 0 0.005 0.001 0.009 0.001 0.014 0.002 0.022 0.003 0.043 0.003 0.063 0 0 0 0.001 0 0.002s0 0.002 0 0.003zM5.146 21.044c0-0.003 0-0.005 0.001-0.009 0.031-0.319 0.24-0.821 0.418-1.203 0.077-0.165 0.148-0.309 0.196-0.403 0.027-0.051 0.099-0.051 0.124 0.001 0.063 0.124 0.166 0.332 0.27 0.565 0.034 0.078 0.069 0.159 0.103 0.241 0 0.001 0 0.002 0.001 0.003 0.118 0.287 0.22 0.582 0.241 0.794 0 0.005 0.001 0.009 0.001 0.013 0.002 0.022 0.003 0.044 0.003 0.063 0 0.376-0.305 0.681-0.681 0.681-0.071 0-0.14-0.011-0.205-0.032-0-0-0.001-0-0.002-0.001-0.019-0.006-0.034-0.018-0.052-0.026-0.043-0.017-0.086-0.034-0.124-0.060-0.18-0.122-0.298-0.329-0.298-0.563-0-0.020 0.001-0.042 0.003-0.066zM6.506 29.81c0 0.376-0.305 0.681-0.681 0.681s-0.681-0.305-0.681-0.681c0-0.001 0-0.002 0-0.003s0-0.001 0-0.002c0-0.021 0.001-0.043 0.004-0.065 0-0.003 0-0.007 0.001-0.009 0.044-0.456 0.455-1.294 0.614-1.604 0.026-0.051 0.098-0.051 0.124 0 0.158 0.311 0.569 1.151 0.614 1.602 0.001 0.005 0.001 0.009 0.002 0.014 0.002 0.022 0.003 0.043 0.003 0.063 0 0 0 0.001 0 0.002s0 0.002 0 0.003zM8.366 29.807c0 0.001 0 0.002 0 0.003 0 0.376-0.305 0.681-0.681 0.681s-0.681-0.305-0.681-0.681c0-0.001 0-0.002 0-0.003s0-0.001 0-0.002c0-0.021 0.001-0.043 0.003-0.065 0-0.003 0-0.007 0.001-0.009 0.044-0.456 0.456-1.294 0.614-1.604 0.026-0.051 0.099-0.051 0.124 0 0.158 0.311 0.569 1.151 0.614 1.602 0.001 0.005 0.001 0.009 0.002 0.014 0.002 0.022 0.003 0.043 0.003 0.063 0 0 0 0.001 0 0.002zM7.685 21.791c-0.376 0-0.681-0.305-0.681-0.681 0-0.021 0.001-0.043 0.003-0.066 0-0.003 0-0.005 0.001-0.009 0.044-0.457 0.456-1.295 0.615-1.605 0.026-0.051 0.099-0.051 0.124 0.001 0.158 0.31 0.569 1.15 0.614 1.602 0 0.005 0.001 0.009 0.001 0.013 0.002 0.022 0.004 0.044 0.004 0.063 0 0.377-0.305 0.681-0.681 0.681zM10.69 22.481l-0.386-0.904-2.411-5.657-1.114 2.615h-0.703l1.411-3.349c0.065-0.154 0.216-0.254 0.382-0.254s0.318 0.1 0.382 0.254l3.074 7.295h-0.636z"></path>
</svg>
