<?xml version="1.0" encoding="utf-8"?>
<!-- Generated by IcoMoon.io -->
<!DOCTYPE svg PUBLIC "-//W3C//DTD SVG 1.1//EN" "http://www.w3.org/Graphics/SVG/1.1/DTD/svg11.dtd">
<svg version="1.1" xmlns="http://www.w3.org/2000/svg" xmlns:xlink="http://www.w3.org/1999/xlink" width="16" height="32" viewBox="0 0 16 32">
<path fill="#000" d="M13.499 27.652h1.213c0.139 0 0.268-0.070 0.345-0.185s0.091-0.262 0.037-0.39l-1.609-3.819h1.22c0.139 0 0.268-0.070 0.345-0.185s0.091-0.262 0.037-0.39l-6.842-16.239c-0.065-0.154-0.216-0.254-0.382-0.254s-0.318 0.1-0.382 0.254l-6.842 16.238c-0.054 0.128-0.040 0.275 0.037 0.39s0.207 0.185 0.345 0.185h1.233l-1.609 3.819c-0.054 0.128-0.040 0.275 0.037 0.39s0.207 0.185 0.345 0.185h1.201l-1.589 3.772c-0.054 0.128-0.040 0.275 0.037 0.39s0.207 0.185 0.345 0.185h13.684c0.139 0 0.268-0.070 0.345-0.185s0.091-0.262 0.037-0.39l-1.589-3.771zM8.36 29.805c0 0.376-0.305 0.681-0.681 0.681s-0.681-0.305-0.681-0.681c0-0.021 0.001-0.043 0.003-0.065 0-0.003 0-0.007 0.001-0.010 0.044-0.456 0.456-1.294 0.614-1.604 0.026-0.051 0.099-0.051 0.124 0 0.158 0.31 0.569 1.151 0.614 1.601 0.001 0.005 0.001 0.010 0.002 0.014 0.002 0.022 0.004 0.043 0.004 0.063zM6.501 29.805c0 0.376-0.305 0.681-0.681 0.681s-0.681-0.305-0.681-0.681c0-0.021 0.001-0.043 0.004-0.065 0-0.003 0-0.007 0.001-0.010 0.044-0.456 0.455-1.294 0.614-1.604 0.026-0.051 0.098-0.051 0.124 0 0.158 0.31 0.569 1.151 0.614 1.601 0.001 0.005 0.001 0.010 0.002 0.014 0.003 0.022 0.004 0.043 0.004 0.063zM4.641 29.805c0 0.376-0.304 0.681-0.681 0.681-0.376 0-0.68-0.305-0.68-0.681 0-0.021 0.001-0.043 0.003-0.065 0-0.003 0-0.007 0.001-0.010 0.044-0.456 0.455-1.294 0.614-1.604 0.026-0.051 0.098-0.051 0.124 0 0.158 0.31 0.569 1.151 0.615 1.601 0 0.005 0.001 0.010 0.001 0.014 0.003 0.022 0.004 0.043 0.004 0.063zM8.366 25.458c0 0.376-0.305 0.681-0.681 0.681s-0.681-0.305-0.681-0.681c0-0.021 0.001-0.043 0.003-0.065 0-0.003 0-0.007 0.001-0.010 0.044-0.456 0.456-1.294 0.614-1.604 0.026-0.051 0.099-0.051 0.124 0 0.158 0.31 0.569 1.151 0.614 1.601 0.001 0.005 0.001 0.010 0.002 0.014 0.002 0.022 0.004 0.043 0.004 0.063zM6.506 25.458c0 0.376-0.305 0.681-0.681 0.681s-0.681-0.305-0.681-0.681c0-0.021 0.001-0.043 0.004-0.065 0-0.003 0-0.007 0.001-0.010 0.044-0.456 0.455-1.294 0.614-1.604 0.026-0.051 0.098-0.051 0.124 0 0.158 0.31 0.569 1.151 0.614 1.601 0.001 0.005 0.001 0.010 0.002 0.014 0.003 0.022 0.004 0.043 0.004 0.063zM5.819 21.744c-0.066 0-0.129-0.012-0.189-0.030-0.283-0.083-0.492-0.342-0.492-0.651 0-0.021 0.001-0.043 0.004-0.065 0-0.003 0-0.007 0.001-0.009 0.044-0.456 0.455-1.294 0.614-1.604 0.026-0.051 0.098-0.051 0.124 0 0.086 0.169 0.245 0.494 0.381 0.828 0.114 0.281 0.212 0.568 0.233 0.773 0.001 0.005 0.001 0.009 0.002 0.014 0.002 0.022 0.003 0.043 0.003 0.063 0 0.376-0.305 0.681-0.681 0.681zM3.96 21.744c-0.055 0-0.108-0.009-0.159-0.021-0.299-0.072-0.521-0.339-0.521-0.661 0-0.021 0.001-0.043 0.003-0.065 0-0.003 0-0.007 0.001-0.009 0.010-0.109 0.043-0.24 0.086-0.38 0.117-0.372 0.32-0.808 0.455-1.080 0.027-0.055 0.052-0.104 0.073-0.144 0.026-0.051 0.098-0.051 0.124 0 0.090 0.176 0.259 0.521 0.398 0.87 0.107 0.267 0.197 0.536 0.216 0.732 0 0.005 0.001 0.009 0.001 0.014 0.002 0.022 0.003 0.043 0.003 0.063 0 0.376-0.304 0.681-0.681 0.681zM3.289 25.392c0-0.003 0-0.007 0.001-0.010 0.044-0.456 0.455-1.294 0.614-1.604 0.026-0.051 0.098-0.051 0.124 0 0.086 0.169 0.246 0.495 0.382 0.83 0.114 0.28 0.212 0.566 0.232 0.771 0 0.005 0.001 0.010 0.001 0.014 0.002 0.022 0.003 0.043 0.003 0.063 0 0.376-0.304 0.681-0.681 0.681-0.066 0-0.128-0.012-0.187-0.029-0.284-0.082-0.493-0.341-0.493-0.651 0-0.021 0.001-0.043 0.003-0.065zM8.357 21c0.002 0.022 0.003 0.043 0.003 0.063 0 0.376-0.305 0.682-0.681 0.682s-0.681-0.305-0.681-0.682c0-0.021 0.001-0.043 0.003-0.065 0-0.003 0-0.007 0.001-0.009 0.044-0.456 0.456-1.294 0.614-1.604 0.026-0.051 0.099-0.051 0.124 0 0.158 0.311 0.569 1.151 0.614 1.602 0.001 0.004 0.001 0.009 0.002 0.014z"></path>
</svg>
