<?xml version="1.0" encoding="utf-8"?>
<!-- Generated by IcoMoon.io -->
<!DOCTYPE svg PUBLIC "-//W3C//DTD SVG 1.1//EN" "http://www.w3.org/Graphics/SVG/1.1/DTD/svg11.dtd">
<svg version="1.1" xmlns="http://www.w3.org/2000/svg" xmlns:xlink="http://www.w3.org/1999/xlink" width="12" height="32" viewBox="0 0 12 32">
<path fill="#000" d="M11.768 31.551l-1.475-3.899h1.087c0.136 0 0.264-0.066 0.341-0.179 0.058-0.084 0.083-0.186 0.070-0.285 0-0.050-0.006-0.099-0.024-0.147l-2.233-5.902h0.556c0.137 0 0.266-0.069 0.343-0.182s0.092-0.259 0.041-0.386l-3.886-9.725c-0.063-0.158-0.216-0.261-0.385-0.261s-0.322 0.103-0.386 0.261l-3.884 9.725c-0.051 0.127-0.035 0.272 0.042 0.386 0.077 0.113 0.206 0.182 0.343 0.182h0.556l-2.233 5.903c-0.024 0.064-0.032 0.131-0.024 0.198 0 0.083 0.022 0.165 0.071 0.234 0.078 0.112 0.205 0.179 0.341 0.179h1.087l-1.475 3.899c-0.048 0.127-0.031 0.27 0.047 0.382s0.205 0.179 0.341 0.179h10.348c0.136 0 0.264-0.066 0.341-0.179s0.095-0.255 0.047-0.382zM6.493 29.918c0 0.376-0.305 0.68-0.681 0.68s-0.681-0.304-0.681-0.68c0-0.021 0.001-0.043 0.004-0.066 0-0.003 0-0.006 0.001-0.009 0.044-0.456 0.455-1.294 0.614-1.604 0.026-0.051 0.098-0.051 0.124 0 0.158 0.31 0.569 1.15 0.614 1.601 0.001 0.005 0.001 0.009 0.002 0.014 0.002 0.022 0.004 0.043 0.004 0.063zM4.633 29.918c0 0.376-0.305 0.68-0.681 0.68s-0.681-0.304-0.681-0.68c0-0.021 0.001-0.043 0.003-0.066 0-0.003 0-0.006 0.001-0.009 0.044-0.456 0.455-1.294 0.614-1.604 0.026-0.051 0.098-0.051 0.124 0 0.158 0.31 0.569 1.15 0.614 1.601 0.001 0.005 0.001 0.009 0.002 0.014 0.003 0.022 0.004 0.043 0.004 0.063zM6.493 25.457c0 0.377-0.304 0.681-0.681 0.681s-0.681-0.304-0.681-0.681c0-0.010 0.001-0.021 0.002-0.032 0-0.006-0.002-0.011-0.002-0.017 0-0.021 0.001-0.043 0.004-0.066 0-0.003 0-0.006 0.001-0.009 0.044-0.456 0.455-1.294 0.614-1.604 0.026-0.051 0.098-0.051 0.124 0 0.158 0.31 0.569 1.15 0.614 1.601 0.001 0.005 0.001 0.009 0.002 0.014 0.002 0.022 0.003 0.043 0.003 0.063 0 0.006-0.002 0.011-0.002 0.017 0 0.011 0.002 0.022 0.002 0.032zM4.014 23.73c0.062 0.122 0.163 0.326 0.265 0.555 0.159 0.355 0.321 0.773 0.349 1.046 0.001 0.005 0.001 0.009 0.002 0.014 0.002 0.022 0.003 0.043 0.003 0.063 0 0.006-0.002 0.011-0.002 0.017 0 0.011 0.002 0.022 0.002 0.032 0 0.377-0.305 0.681-0.681 0.681s-0.681-0.304-0.681-0.681c0-0.011 0.001-0.024 0.002-0.035 0-0.005-0.002-0.009-0.002-0.014 0-0.021 0.001-0.043 0.003-0.066 0.001-0.003 0.001-0.005 0.002-0.009 0.044-0.456 0.455-1.294 0.614-1.604 0.027-0.051 0.099-0.051 0.124 0zM6.843 18.867c0.001 0.005 0.001 0.009 0.002 0.014 0.002 0.022 0.003 0.043 0.003 0.063 0 0.376-0.306 0.681-0.681 0.681s-0.681-0.305-0.681-0.681c0-0.021 0.001-0.042 0.003-0.065 0-0.003 0-0.007 0.001-0.009 0.044-0.457 0.455-1.294 0.614-1.604 0.026-0.051 0.099-0.051 0.124 0 0.158 0.311 0.569 1.151 0.615 1.601z"></path>
</svg>
