<?xml version="1.0" encoding="utf-8"?>
<!-- Generated by IcoMoon.io -->
<!DOCTYPE svg PUBLIC "-//W3C//DTD SVG 1.1//EN" "http://www.w3.org/Graphics/SVG/1.1/DTD/svg11.dtd">
<svg version="1.1" xmlns="http://www.w3.org/2000/svg" xmlns:xlink="http://www.w3.org/1999/xlink" width="16" height="32" viewBox="0 0 16 32">
<path fill="#000" d="M15.111 26.787l-4.21-9.993h0.871c0.138 0 0.266-0.068 0.343-0.182s0.093-0.258 0.042-0.386l-3.885-9.725c-0.063-0.158-0.216-0.261-0.385-0.261s-0.322 0.103-0.385 0.261l-3.885 9.725c-0.051 0.128-0.035 0.272 0.042 0.386s0.205 0.182 0.343 0.182h0.871l-4.21 9.993c-0.054 0.129-0.040 0.275 0.037 0.39s0.207 0.185 0.345 0.185h2.783l-1.542 4.075c-0.048 0.127-0.031 0.27 0.047 0.382s0.205 0.179 0.341 0.179h10.348c0.136 0 0.264-0.067 0.341-0.179s0.095-0.255 0.047-0.382l-1.542-4.075h2.861c0.139 0 0.268-0.070 0.345-0.185s0.091-0.262 0.037-0.39zM8.134 29.805c0 0.377-0.305 0.681-0.681 0.681s-0.681-0.304-0.681-0.681c0-0.020 0.001-0.043 0.004-0.065 0-0.003 0-0.007 0.001-0.009 0.044-0.457 0.455-1.294 0.614-1.604 0.026-0.050 0.098-0.050 0.124 0 0.158 0.311 0.569 1.151 0.614 1.601 0.001 0.005 0.001 0.010 0.002 0.014 0.002 0.022 0.004 0.044 0.004 0.063zM6.274 29.805c0 0.377-0.305 0.681-0.681 0.681s-0.681-0.304-0.681-0.681c0-0.020 0.001-0.043 0.003-0.065 0-0.003 0-0.007 0.001-0.009 0.044-0.457 0.455-1.294 0.614-1.604 0.026-0.050 0.098-0.050 0.124 0 0.158 0.311 0.569 1.151 0.614 1.601 0.001 0.005 0.001 0.010 0.002 0.014 0.003 0.022 0.004 0.044 0.004 0.063zM5.162 25.168c0-0.020 0.001-0.042 0.004-0.065 0-0.003 0-0.007 0.001-0.009 0.044-0.456 0.455-1.294 0.614-1.604 0.026-0.050 0.098-0.050 0.124 0 0.039 0.077 0.094 0.187 0.155 0.315 0.185 0.389 0.425 0.948 0.459 1.287 0.001 0.004 0.001 0.009 0.002 0.014 0.002 0.022 0.003 0.043 0.003 0.062 0 0.377-0.305 0.681-0.681 0.681-0.188 0-0.358-0.076-0.481-0.199s-0.2-0.295-0.2-0.483zM7.702 25.849c-0.376 0-0.681-0.304-0.681-0.681 0-0.020 0.001-0.042 0.003-0.065 0-0.003 0-0.007 0.001-0.009 0.044-0.456 0.456-1.294 0.614-1.604 0.026-0.050 0.099-0.050 0.124 0 0.158 0.311 0.569 1.151 0.614 1.602 0.001 0.004 0.001 0.009 0.002 0.014 0.002 0.022 0.003 0.043 0.003 0.062 0 0.377-0.305 0.681-0.681 0.681zM8.523 14.523c0 0.005 0.001 0.009 0.001 0.014 0.002 0.022 0.004 0.043 0.004 0.063 0 0.376-0.305 0.681-0.681 0.681s-0.681-0.304-0.681-0.681c0-0.021 0.001-0.043 0.003-0.065 0-0.003 0-0.006 0.001-0.009 0.044-0.457 0.455-1.294 0.615-1.604 0.026-0.051 0.098-0.051 0.124 0 0.158 0.311 0.569 1.15 0.615 1.601zM3.306 25.103c0-0.003 0-0.007 0.001-0.009 0.044-0.456 0.455-1.294 0.614-1.604 0.026-0.050 0.098-0.050 0.124 0 0.158 0.311 0.569 1.151 0.615 1.602 0 0.004 0.001 0.009 0.001 0.014 0.001 0.016 0.002 0.031 0.003 0.045 0 0.006 0.001 0.011 0.001 0.017 0 0.177-0.069 0.338-0.181 0.459-0.124 0.135-0.301 0.222-0.501 0.222-0.376 0-0.68-0.304-0.68-0.681 0-0.020 0.001-0.041 0.004-0.064z"></path>
</svg>
