<?xml version="1.0" encoding="utf-8"?>
<!-- Generated by IcoMoon.io -->
<!DOCTYPE svg PUBLIC "-//W3C//DTD SVG 1.1//EN" "http://www.w3.org/Graphics/SVG/1.1/DTD/svg11.dtd">
<svg version="1.1" xmlns="http://www.w3.org/2000/svg" xmlns:xlink="http://www.w3.org/1999/xlink" width="16" height="32" viewBox="0 0 16 32">
<path fill="#000" d="M12.48 25.24h2.237c0.139 0 0.269-0.070 0.346-0.185s0.091-0.262 0.037-0.39l-6.842-16.239c-0.065-0.154-0.215-0.254-0.382-0.254s-0.318 0.1-0.382 0.254l-6.842 16.239c-0.054 0.128-0.040 0.275 0.037 0.39s0.207 0.185 0.345 0.185h2.237l-2.612 6.197c-0.053 0.126-0.039 0.268 0.036 0.381s0.202 0.182 0.338 0.182h13.686c0.136 0 0.263-0.068 0.338-0.182s0.089-0.255 0.036-0.381l-2.61-6.197zM7.013 22.98c0-0.003 0-0.007 0.001-0.010 0.044-0.456 0.456-1.294 0.614-1.604 0.026-0.050 0.099-0.050 0.124 0 0.158 0.311 0.569 1.151 0.615 1.602 0.001 0.005 0.001 0.010 0.002 0.014 0.002 0.022 0.003 0.043 0.003 0.063 0 0.137-0.041 0.265-0.112 0.372-0.121 0.186-0.331 0.309-0.57 0.309-0.095 0-0.184-0.019-0.266-0.054-0.244-0.104-0.415-0.346-0.415-0.627 0-0.021 0.002-0.042 0.004-0.064zM5.154 22.98c0-0.003 0-0.007 0.001-0.010 0.006-0.063 0.020-0.134 0.039-0.209 0.115-0.469 0.439-1.128 0.576-1.395 0.003-0.007 0.011-0.005 0.016-0.010 0.032-0.032 0.086-0.034 0.108 0.010 0.158 0.311 0.569 1.151 0.614 1.602 0.001 0.005 0.001 0.010 0.002 0.014 0.002 0.022 0.003 0.043 0.003 0.063 0 0.376-0.305 0.681-0.681 0.681s-0.681-0.305-0.681-0.681c0-0.021 0.002-0.043 0.004-0.065zM3.971 30.495c-0.119 0-0.229-0.034-0.326-0.086-0.211-0.115-0.355-0.337-0.355-0.595 0-0.021 0.001-0.043 0.003-0.066 0-0.003 0-0.006 0.001-0.009 0.044-0.456 0.456-1.294 0.614-1.604 0.026-0.051 0.098-0.051 0.124 0.001 0.070 0.138 0.189 0.38 0.305 0.646 0.145 0.334 0.284 0.704 0.31 0.956 0 0.005 0.001 0.009 0.001 0.014 0.002 0.022 0.003 0.043 0.003 0.063-0 0.376-0.305 0.68-0.681 0.68zM3.972 23.726c-0.021 0-0.041-0.005-0.062-0.006-0.346-0.032-0.619-0.32-0.619-0.675 0-0.021 0.001-0.043 0.003-0.065 0-0.003 0-0.007 0.001-0.010 0.044-0.456 0.455-1.294 0.614-1.604 0.026-0.050 0.098-0.050 0.124 0 0.1 0.197 0.302 0.608 0.448 0.996 0.084 0.224 0.15 0.441 0.167 0.605 0 0.005 0.001 0.010 0.001 0.014 0.002 0.022 0.003 0.043 0.003 0.063-0 0.376-0.305 0.681-0.681 0.681zM6.039 30.459c-0.066 0.021-0.134 0.036-0.207 0.036-0.142 0-0.274-0.044-0.383-0.118-0.18-0.122-0.298-0.328-0.298-0.563 0-0.021 0.001-0.043 0.003-0.066 0-0.003 0-0.006 0.001-0.009 0.044-0.456 0.455-1.294 0.614-1.604 0.027-0.051 0.099-0.051 0.124 0.001 0.037 0.073 0.089 0.177 0.146 0.296 0.040 0.083 0.081 0.173 0.124 0.268 0.157 0.354 0.317 0.765 0.345 1.036 0 0.005 0.001 0.009 0.001 0.014 0.002 0.022 0.003 0.043 0.003 0.063-0 0.303-0.2 0.557-0.474 0.645zM6.039 27.24h-0.134l0.134-0.315 0.718-1.685h0.881l-0.853 2h-0.747zM7.69 30.495c-0.376 0-0.681-0.304-0.681-0.681 0-0.021 0.001-0.043 0.003-0.066 0-0.003 0-0.006 0.001-0.009 0.044-0.456 0.455-1.294 0.614-1.604 0.027-0.051 0.099-0.051 0.124 0.001 0.158 0.311 0.569 1.15 0.614 1.601 0 0.005 0.001 0.009 0.001 0.014 0.002 0.022 0.003 0.043 0.003 0.063 0.001 0.377-0.304 0.681-0.681 0.681zM10.696 31.188l-2.535-5.949h0.881l2.536 5.949-0.882-0.001z"></path>
</svg>
