<?xml version="1.0" encoding="utf-8"?>
<!-- Generated by IcoMoon.io -->
<!DOCTYPE svg PUBLIC "-//W3C//DTD SVG 1.1//EN" "http://www.w3.org/Graphics/SVG/1.1/DTD/svg11.dtd">
<svg version="1.1" xmlns="http://www.w3.org/2000/svg" xmlns:xlink="http://www.w3.org/1999/xlink" width="16" height="32" viewBox="0 0 16 32">
<path fill="#000" d="M13.24 27.166l-0.812-1.927h2.289c0.139 0 0.268-0.070 0.345-0.185s0.091-0.262 0.037-0.39l-6.842-16.238c-0.065-0.154-0.216-0.254-0.382-0.254s-0.318 0.1-0.382 0.254l-6.842 16.238c-0.054 0.129-0.040 0.275 0.037 0.39s0.207 0.185 0.345 0.185h2.226l-2.612 6.199c-0.053 0.126-0.039 0.268 0.036 0.381s0.201 0.181 0.337 0.181h13.649c0.135 0 0.262-0.068 0.336-0.181s0.089-0.255 0.036-0.381l-1.801-4.272zM3.626 30.413c-0.21-0.115-0.354-0.336-0.354-0.593 0-0.020 0.001-0.043 0.003-0.066 0-0.003 0-0.005 0.001-0.009 0.044-0.455 0.454-1.29 0.612-1.6 0.017-0.034 0.053-0.037 0.084-0.024 0.015 0.006 0.032 0.009 0.040 0.025 0.070 0.137 0.189 0.379 0.304 0.643 0.145 0.333 0.284 0.702 0.309 0.954 0 0.005 0.001 0.009 0.001 0.013 0.002 0.022 0.003 0.043 0.003 0.063 0 0.368-0.293 0.665-0.657 0.677-0.007 0-0.014 0.002-0.022 0.002-0.119 0-0.228-0.033-0.325-0.086zM8.369 22.982c0.002 0.022 0.003 0.043 0.003 0.062 0 0.377-0.305 0.681-0.681 0.681s-0.681-0.304-0.681-0.681c0-0.020 0.001-0.042 0.003-0.065 0-0.003 0-0.007 0.001-0.009 0.044-0.456 0.456-1.294 0.614-1.604 0.026-0.050 0.099-0.050 0.124 0 0.158 0.311 0.569 1.151 0.614 1.602 0.001 0.004 0.001 0.009 0.002 0.014zM5.151 23.045c0-0.020 0.001-0.042 0.004-0.065 0-0.003 0-0.007 0.001-0.009 0.009-0.089 0.034-0.195 0.066-0.305 0.129-0.451 0.409-1.026 0.54-1.283 0.003-0.005 0.006-0.012 0.009-0.017 0.026-0.050 0.098-0.050 0.124 0 0.083 0.163 0.234 0.47 0.366 0.79 0.121 0.292 0.226 0.596 0.248 0.812 0.001 0.004 0.001 0.009 0.002 0.014 0.002 0.022 0.003 0.043 0.003 0.062 0 0.377-0.305 0.681-0.681 0.681-0.078 0-0.152-0.016-0.222-0.040-0.266-0.092-0.459-0.343-0.459-0.641zM3.295 22.98c0-0.003 0-0.007 0.001-0.009 0.044-0.456 0.455-1.294 0.614-1.604 0.026-0.050 0.098-0.050 0.124 0 0.099 0.195 0.298 0.598 0.443 0.982 0.086 0.229 0.155 0.451 0.172 0.62 0 0.004 0.001 0.009 0.001 0.014 0.002 0.022 0.003 0.043 0.003 0.062 0 0.377-0.304 0.681-0.681 0.681-0.025 0-0.048-0.005-0.072-0.007-0.341-0.037-0.608-0.322-0.608-0.674 0-0.020 0.001-0.042 0.003-0.065zM5.126 29.82c0-0.020 0.001-0.043 0.003-0.066 0-0.003 0-0.005 0.001-0.009 0.044-0.455 0.455-1.29 0.612-1.6 0.027-0.051 0.098-0.051 0.124 0.001 0.063 0.123 0.165 0.331 0.269 0.564 0.157 0.352 0.316 0.763 0.344 1.033 0 0.005 0.001 0.009 0.001 0.013 0.002 0.022 0.003 0.043 0.003 0.063 0 0.375-0.304 0.679-0.679 0.679-0.141 0-0.273-0.044-0.381-0.118-0.18-0.121-0.298-0.327-0.298-0.561zM7.66 30.5c-0.375 0-0.679-0.304-0.679-0.679 0-0.020 0.001-0.043 0.003-0.066 0-0.003 0-0.005 0-0.009 0.044-0.455 0.455-1.29 0.613-1.6 0.026-0.051 0.098-0.051 0.124 0.001 0.158 0.309 0.567 1.147 0.612 1.597 0 0.005 0.001 0.009 0.001 0.013 0.002 0.022 0.003 0.043 0.003 0.063 0 0.375-0.304 0.679-0.679 0.679zM4.97 27.254h-0.878l0.857-2.014h0.879l-0.857 2.014zM13.24 31.192h-0.847l-2.532-5.952h0.879l2.501 5.878v0.074z"></path>
</svg>
