<?xml version="1.0" encoding="utf-8"?>
<!-- Generated by IcoMoon.io -->
<!DOCTYPE svg PUBLIC "-//W3C//DTD SVG 1.1//EN" "http://www.w3.org/Graphics/SVG/1.1/DTD/svg11.dtd">
<svg version="1.1" xmlns="http://www.w3.org/2000/svg" xmlns:xlink="http://www.w3.org/1999/xlink" width="12" height="32" viewBox="0 0 12 32">
<path fill="#000" d="M11.777 31.45l-2.28-6.028v-0.36h1.883c0.136 0 0.264-0.066 0.341-0.179s0.095-0.255 0.047-0.382l-5.174-13.677c-0.061-0.162-0.216-0.268-0.388-0.268s-0.327 0.107-0.388 0.268l-5.174 13.677c-0.048 0.127-0.031 0.27 0.047 0.382s0.205 0.179 0.341 0.179h2.026l-2.416 6.387c-0.047 0.125-0.030 0.265 0.046 0.374s0.201 0.175 0.334 0.175h10.376c0.134 0 0.259-0.066 0.335-0.175s0.093-0.25 0.045-0.374zM3.15 29.765c0-0.003 0-0.007 0.001-0.009 0.044-0.458 0.457-1.298 0.616-1.609 0.027-0.051 0.099-0.051 0.125 0 0.021 0.041 0.048 0.094 0.076 0.152 0.14 0.284 0.348 0.736 0.462 1.11 0.038 0.126 0.068 0.244 0.078 0.343 0 0.005 0.001 0.010 0.001 0.014 0.002 0.022 0.003 0.043 0.003 0.063 0 0.302-0.197 0.554-0.468 0.645-0.068 0.023-0.139 0.038-0.215 0.038-0.231 0-0.434-0.116-0.558-0.292-0.078-0.111-0.125-0.245-0.125-0.391 0-0.021 0.002-0.042 0.004-0.065zM6.49 22.805c0.002 0.022 0.003 0.043 0.003 0.063 0 0.049-0.006 0.097-0.016 0.143-0.066 0.307-0.338 0.537-0.665 0.537-0.040 0-0.078-0.005-0.116-0.012-0.32-0.055-0.565-0.333-0.565-0.668 0-0.021 0.001-0.043 0.004-0.066 0-0.003 0-0.006 0.001-0.009 0.044-0.456 0.455-1.294 0.614-1.604 0.026-0.051 0.098-0.051 0.124 0 0.158 0.31 0.569 1.15 0.614 1.601 0 0.005 0 0.008 0.001 0.013zM3.275 22.803c0-0.003 0-0.006 0.001-0.009 0.044-0.456 0.455-1.294 0.614-1.604 0.026-0.051 0.098-0.051 0.124 0 0.066 0.129 0.175 0.35 0.283 0.595 0.153 0.346 0.305 0.742 0.331 1.006 0.001 0.005 0.001 0.009 0.002 0.014 0.002 0.022 0.003 0.043 0.003 0.063 0 0.376-0.305 0.68-0.681 0.68-0.106 0-0.206-0.026-0.295-0.070-0.227-0.11-0.385-0.341-0.385-0.61-0-0.021 0.001-0.043 0.003-0.066zM5.694 30.513c-0.377 0-0.683-0.306-0.683-0.683 0-0.021 0.001-0.042 0.003-0.065 0-0.003 0-0.007 0.001-0.009 0.044-0.458 0.457-1.298 0.616-1.609 0.026-0.051 0.099-0.051 0.125 0 0.159 0.311 0.57 1.154 0.616 1.605 0.001 0.005 0.001 0.010 0.002 0.014 0.002 0.022 0.003 0.043 0.003 0.063 0 0.377-0.305 0.683-0.683 0.683zM5.234 27.196h-0.864l0.774-2.133h0.864l-0.774 2.133zM8.635 31.187l-2.223-6.125h0.864l2.221 6.125h-0.862z"></path>
</svg>
