<?xml version="1.0" encoding="utf-8"?>
<!-- Generated by IcoMoon.io -->
<!DOCTYPE svg PUBLIC "-//W3C//DTD SVG 1.1//EN" "http://www.w3.org/Graphics/SVG/1.1/DTD/svg11.dtd">
<svg version="1.1" xmlns="http://www.w3.org/2000/svg" xmlns:xlink="http://www.w3.org/1999/xlink" width="32" height="32" viewBox="0 0 32 32">
<path fill="#000" d="M22.743 9.69h-13.513c-0.093 0-0.169 0.076-0.169 0.169v13.513c0 0.093 0.076 0.169 0.169 0.169h13.513c0.093 0 0.169-0.076 0.169-0.169v-13.513c-0.001-0.093-0.076-0.169-0.169-0.169zM16.616 22.228c-0.187 0.118-0.408 0.19-0.646 0.19-0.32 0-0.609-0.126-0.826-0.328-0.238-0.222-0.39-0.536-0.39-0.888 0-0.010 0.001-0.020 0.002-0.030 0.001-0.028 0.002-0.056 0.005-0.086 0-0.004 0-0.012 0.001-0.016 0.078-0.814 0.813-2.311 1.096-2.865 0.047-0.090 0.176-0.090 0.221 0 0.271 0.531 0.946 1.919 1.077 2.745 0.006 0.038 0.016 0.080 0.020 0.116 0.001 0.007 0.001 0.016 0.003 0.024 0.003 0.039 0.006 0.077 0.006 0.111-0.001 0.433-0.23 0.812-0.57 1.026z"></path>
<path fill="#000" d="M28.204 3.657h-24.436c-0.409 0-0.74 0.332-0.74 0.74v24.435c0 0.409 0.332 0.74 0.74 0.74h24.436c0.409 0 0.74-0.331 0.74-0.74v-24.435c0-0.409-0.331-0.74-0.74-0.74zM24.392 23.372c0 0.91-0.74 1.65-1.65 1.65h-13.513c-0.909 0-1.65-0.74-1.65-1.65v-13.513c0-0.909 0.74-1.65 1.65-1.65h13.513c0.91 0 1.65 0.74 1.65 1.65v13.513z"></path>
</svg>
