<?xml version="1.0" encoding="utf-8"?>
<!-- Generated by IcoMoon.io -->
<!DOCTYPE svg PUBLIC "-//W3C//DTD SVG 1.1//EN" "http://www.w3.org/Graphics/SVG/1.1/DTD/svg11.dtd">
<svg version="1.1" xmlns="http://www.w3.org/2000/svg" xmlns:xlink="http://www.w3.org/1999/xlink" width="32" height="32" viewBox="0 0 32 32">
<path fill="#000" d="M31.184 30.833l-11.864-29.142c-0.094-0.23-0.296-0.397-0.54-0.446s-0.495 0.026-0.669 0.201l-17.278 17.278c-0.176 0.176-0.252 0.428-0.202 0.671 0.048 0.244 0.215 0.446 0.447 0.54l29.143 11.863c0.275 0.112 0.592 0.048 0.803-0.162s0.274-0.527 0.161-0.803zM15.769 9.516c0.521 0.632 1.060 2.209 1.25 2.801 0.031 0.098-0.061 0.188-0.156 0.157-0.593-0.193-2.172-0.735-2.798-1.248-0.006-0.004-0.013-0.010-0.019-0.016-0.030-0.026-0.059-0.050-0.083-0.076-0.475-0.475-0.475-1.245 0-1.719s1.245-0.476 1.72 0c0.025 0.026 0.051 0.055 0.077 0.087 0.004 0.004 0.007 0.010 0.010 0.013zM11.615 11.764c0.475-0.475 1.244-0.475 1.719 0.001 0.026 0.025 0.051 0.055 0.078 0.086 0.001 0.004 0.007 0.009 0.010 0.012 0.519 0.632 1.059 2.21 1.25 2.803 0.030 0.096-0.061 0.188-0.156 0.156-0.594-0.193-2.172-0.735-2.799-1.247-0.007-0.004-0.013-0.010-0.019-0.016-0.030-0.026-0.058-0.050-0.082-0.075-0.477-0.475-0.476-1.245-0.001-1.72zM19.212 10.126c-0.595-0.193-2.172-0.735-2.8-1.247-0.006-0.004-0.012-0.010-0.018-0.016-0.030-0.025-0.058-0.050-0.083-0.075-0.475-0.476-0.475-1.245 0-1.72s1.243-0.475 1.719 0.001c0.026 0.026 0.052 0.055 0.078 0.086 0.003 0.004 0.009 0.008 0.010 0.013 0.521 0.632 1.059 2.209 1.251 2.801 0.030 0.097-0.062 0.189-0.156 0.157z"></path>
</svg>
