<?xml version="1.0" encoding="utf-8"?>
<!-- Generated by IcoMoon.io -->
<!DOCTYPE svg PUBLIC "-//W3C//DTD SVG 1.1//EN" "http://www.w3.org/Graphics/SVG/1.1/DTD/svg11.dtd">
<svg version="1.1" xmlns="http://www.w3.org/2000/svg" xmlns:xlink="http://www.w3.org/1999/xlink" width="12" height="32" viewBox="0 0 12 32">
<path fill="#000" d="M9.961 20.743h1.419c0.136 0 0.264-0.066 0.341-0.179s0.095-0.255 0.047-0.382l-5.174-13.677c-0.061-0.162-0.216-0.268-0.388-0.268s-0.327 0.107-0.388 0.268l-5.174 13.677c-0.048 0.127-0.031 0.27 0.047 0.382s0.205 0.179 0.341 0.179h1.419l-1.807 4.777c-0.048 0.127-0.031 0.27 0.047 0.382s0.205 0.179 0.341 0.179h2.849l-2.136 5.35c-0.051 0.128-0.036 0.273 0.041 0.386s0.206 0.182 0.343 0.182h7.771c0.138 0 0.266-0.068 0.343-0.182s0.092-0.258 0.041-0.386l-2.137-5.35h3.234c0.136 0 0.264-0.066 0.341-0.179s0.095-0.255 0.047-0.382l-1.808-4.777zM6.656 29.805c0 0.376-0.306 0.68-0.681 0.68s-0.681-0.304-0.681-0.68c0-0.021 0.002-0.043 0.003-0.066 0-0.003 0.001-0.006 0.001-0.009 0.044-0.456 0.455-1.294 0.615-1.604 0.026-0.051 0.098-0.051 0.124 0 0.159 0.31 0.569 1.15 0.615 1.601 0 0.005 0.001 0.009 0.001 0.014 0.003 0.022 0.004 0.043 0.004 0.063zM5.132 23.887c0-0.021 0.001-0.043 0.004-0.066 0-0.003 0-0.006 0.001-0.009 0.044-0.456 0.455-1.294 0.614-1.604 0.026-0.051 0.098-0.051 0.124 0 0.158 0.31 0.569 1.15 0.614 1.601 0.001 0.005 0.001 0.009 0.002 0.014 0.002 0.022 0.003 0.043 0.003 0.063 0 0.071-0.014 0.139-0.034 0.203-0.087 0.276-0.342 0.476-0.647 0.476-0.143 0-0.275-0.044-0.385-0.12-0.178-0.122-0.295-0.327-0.295-0.56zM3.953 19.229c-0.014 0-0.026-0.003-0.040-0.004-0.35-0.021-0.628-0.303-0.639-0.655 0-0.007-0.002-0.014-0.002-0.021 0-0.021 0.001-0.043 0.003-0.066 0-0.003 0-0.006 0.001-0.009 0.044-0.456 0.455-1.294 0.614-1.604 0.007-0.014 0.022-0.015 0.034-0.021 0.032-0.017 0.071-0.016 0.090 0.021 0.096 0.189 0.286 0.574 0.43 0.948 0.092 0.241 0.166 0.476 0.184 0.653 0.001 0.005 0.001 0.009 0.002 0.014 0.002 0.022 0.003 0.043 0.003 0.063 0 0.376-0.305 0.68-0.681 0.68zM6.49 18.486c0.002 0.022 0.003 0.043 0.003 0.063 0 0.376-0.305 0.68-0.681 0.68s-0.681-0.304-0.681-0.68c0-0.021 0.001-0.043 0.004-0.066 0-0.003 0-0.006 0.001-0.009 0.044-0.456 0.455-1.294 0.614-1.604 0.026-0.051 0.098-0.051 0.124 0 0.158 0.31 0.569 1.15 0.614 1.601 0.001 0.005 0.001 0.009 0.002 0.014zM3.275 23.822c0-0.003 0-0.006 0.001-0.009 0.044-0.456 0.455-1.294 0.614-1.604 0.026-0.051 0.098-0.051 0.124 0 0.158 0.31 0.569 1.15 0.614 1.601 0.001 0.005 0.001 0.009 0.002 0.014 0.002 0.022 0.003 0.043 0.003 0.063 0 0.376-0.305 0.68-0.681 0.68s-0.681-0.304-0.681-0.68c0-0.021 0.002-0.043 0.004-0.066z"></path>
</svg>
