<?xml version="1.0" encoding="utf-8"?>
<!-- Generated by IcoMoon.io -->
<!DOCTYPE svg PUBLIC "-//W3C//DTD SVG 1.1//EN" "http://www.w3.org/Graphics/SVG/1.1/DTD/svg11.dtd">
<svg version="1.1" xmlns="http://www.w3.org/2000/svg" xmlns:xlink="http://www.w3.org/1999/xlink" width="16" height="32" viewBox="0 0 16 32">
<path fill="#000" d="M11.561 22.999h1.316c0.136 0 0.264-0.067 0.341-0.179s0.095-0.255 0.047-0.382l-1.565-4.139h3.030c0.139 0 0.268-0.070 0.345-0.185s0.091-0.262 0.037-0.39l-6.842-16.239c-0.065-0.154-0.216-0.254-0.382-0.254s-0.318 0.1-0.382 0.254l-6.842 16.239c-0.054 0.129-0.040 0.274 0.037 0.39s0.207 0.185 0.345 0.185h2.662l-1.566 4.139c-0.048 0.127-0.031 0.27 0.047 0.382s0.205 0.179 0.341 0.179h1.684l-3.55 8.425c-0.054 0.129-0.040 0.275 0.037 0.39s0.207 0.185 0.345 0.185h13.684c0.139 0 0.268-0.070 0.345-0.185s0.091-0.262 0.037-0.39l-3.55-8.425zM8.384 29.805c0 0.377-0.305 0.681-0.681 0.681s-0.681-0.304-0.681-0.681c0-0.020 0.001-0.042 0.003-0.065 0-0.003 0-0.007 0.001-0.009 0.044-0.456 0.456-1.294 0.614-1.604 0.026-0.050 0.099-0.050 0.124 0 0.158 0.311 0.569 1.151 0.614 1.602 0.001 0.004 0.001 0.009 0.002 0.014 0.002 0.022 0.004 0.043 0.004 0.062zM6.524 29.805c0 0.377-0.305 0.681-0.681 0.681s-0.681-0.304-0.681-0.681c0-0.020 0.001-0.042 0.004-0.065 0-0.003 0-0.007 0.001-0.009 0.044-0.456 0.455-1.294 0.614-1.604 0.026-0.050 0.098-0.050 0.124 0 0.158 0.311 0.569 1.151 0.614 1.602 0.001 0.004 0.001 0.009 0.002 0.014 0.003 0.022 0.004 0.043 0.004 0.062zM5.162 16.103c0-0.020 0.001-0.042 0.004-0.065 0-0.003 0-0.007 0.001-0.009 0.044-0.456 0.455-1.294 0.614-1.604 0.026-0.050 0.098-0.050 0.124 0 0.024 0.046 0.054 0.108 0.087 0.175 0.187 0.382 0.489 1.043 0.527 1.427 0.001 0.004 0.001 0.009 0.002 0.014 0.002 0.022 0.003 0.043 0.003 0.062 0 0.377-0.305 0.681-0.681 0.681-0.234 0-0.441-0.119-0.564-0.299-0.074-0.109-0.117-0.24-0.117-0.382zM6.631 20.739c0-0.003 0-0.006 0.001-0.009 0.044-0.457 0.455-1.294 0.614-1.604 0.026-0.051 0.098-0.051 0.124 0 0.158 0.311 0.569 1.15 0.614 1.601 0.001 0.005 0.001 0.009 0.002 0.014 0.002 0.022 0.003 0.043 0.003 0.063 0 0.376-0.305 0.681-0.681 0.681s-0.681-0.304-0.681-0.681c0-0.021 0.002-0.043 0.004-0.065zM4.771 20.739c0-0.003 0-0.006 0.001-0.009 0.044-0.457 0.455-1.294 0.614-1.604 0.026-0.051 0.098-0.051 0.124 0 0.044 0.087 0.109 0.217 0.179 0.367 0.165 0.352 0.36 0.816 0.419 1.142 0.005 0.031 0.014 0.065 0.017 0.093 0.001 0.005 0.001 0.009 0.002 0.014 0.002 0.022 0.003 0.043 0.003 0.063 0 0.251-0.138 0.468-0.34 0.586-0.101 0.059-0.216 0.095-0.341 0.095-0.2 0-0.379-0.088-0.503-0.226-0.109-0.121-0.177-0.279-0.177-0.455-0-0.021 0.001-0.044 0.003-0.066zM8.379 16.027c0.001 0.004 0.001 0.009 0.002 0.014 0.002 0.022 0.003 0.043 0.003 0.062 0 0.265-0.153 0.492-0.373 0.605-0.084 0.043-0.178 0.070-0.278 0.074-0.010 0.001-0.019 0.003-0.029 0.003-0.317 0-0.581-0.217-0.656-0.511-0.014-0.055-0.024-0.112-0.024-0.17 0-0.020 0.001-0.042 0.003-0.065 0-0.003 0-0.007 0.001-0.009 0.044-0.456 0.456-1.294 0.614-1.604 0.026-0.050 0.099-0.050 0.124 0 0.060 0.117 0.155 0.311 0.254 0.53 0.162 0.36 0.331 0.791 0.36 1.072zM3.306 16.039c0-0.003 0-0.007 0.001-0.009 0.044-0.456 0.455-1.294 0.614-1.604 0.026-0.050 0.098-0.050 0.124 0 0.14 0.275 0.477 0.965 0.585 1.432 0.014 0.061 0.025 0.118 0.030 0.17 0 0.004 0.001 0.009 0.001 0.014 0.002 0.022 0.003 0.043 0.003 0.062 0 0.257-0.143 0.477-0.352 0.593-0.098 0.054-0.209 0.088-0.329 0.088-0.376 0-0.68-0.305-0.68-0.681 0-0.020 0.001-0.042 0.003-0.065zM3.306 29.74c0-0.003 0-0.007 0.001-0.009 0.044-0.456 0.455-1.294 0.614-1.604 0.026-0.050 0.098-0.050 0.124 0 0.158 0.311 0.569 1.151 0.615 1.602 0 0.004 0.001 0.009 0.001 0.014 0.002 0.022 0.003 0.043 0.003 0.062 0 0.377-0.304 0.681-0.681 0.681-0.376 0-0.68-0.304-0.68-0.681 0-0.020 0.001-0.042 0.004-0.065z"></path>
</svg>
