<?xml version="1.0" encoding="utf-8"?>
<!-- Generated by IcoMoon.io -->
<!DOCTYPE svg PUBLIC "-//W3C//DTD SVG 1.1//EN" "http://www.w3.org/Graphics/SVG/1.1/DTD/svg11.dtd">
<svg version="1.1" xmlns="http://www.w3.org/2000/svg" xmlns:xlink="http://www.w3.org/1999/xlink" width="32" height="32" viewBox="0 0 32 32">
<path fill="#000" d="M25.56 6.512h-19.115c-0.301 0-0.545 0.245-0.545 0.545v19.115c0 0.301 0.245 0.546 0.545 0.546h19.115c0.301 0 0.545-0.245 0.545-0.546v-19.114c0-0.301-0.244-0.546-0.545-0.546zM14.771 24.35c0 0.434-0.229 0.812-0.569 1.027-0.188 0.118-0.408 0.19-0.646 0.19-0.32 0-0.609-0.126-0.826-0.328-0.238-0.222-0.39-0.536-0.39-0.888 0-0.002 0-0.005 0-0.007 0.001-0.007 0.001-0.016 0.001-0.022 0.001-0.028 0.002-0.056 0.005-0.086 0-0.004 0-0.012 0.001-0.016 0.035-0.364 0.203-0.865 0.401-1.357 0.245-0.607 0.538-1.203 0.695-1.508 0.047-0.090 0.176-0.090 0.221 0 0.158 0.307 0.447 0.902 0.692 1.508 0.177 0.441 0.329 0.889 0.385 1.237 0.006 0.038 0.017 0.080 0.020 0.116 0.001 0.007 0.001 0.016 0.003 0.024 0.003 0.036 0.005 0.072 0.006 0.104 0 0.001 0 0.004 0 0.006zM19.633 24.35c0 0.434-0.229 0.812-0.569 1.027-0.187 0.118-0.408 0.19-0.646 0.19-0.32 0-0.609-0.126-0.826-0.328-0.238-0.222-0.39-0.536-0.39-0.888 0-0.002 0.001-0.005 0.001-0.007 0-0.007 0.001-0.016 0.001-0.022 0.001-0.028 0.002-0.056 0.005-0.086 0-0.004 0-0.012 0.001-0.016 0.035-0.364 0.203-0.865 0.402-1.357 0.245-0.607 0.538-1.203 0.695-1.508 0.047-0.090 0.176-0.090 0.221 0 0.157 0.307 0.447 0.902 0.692 1.508 0.177 0.441 0.329 0.889 0.385 1.237 0.006 0.038 0.016 0.080 0.020 0.116 0.001 0.007 0.001 0.016 0.003 0.024 0.003 0.036 0.005 0.072 0.006 0.104-0.001 0.001-0.001 0.004-0.001 0.006z"></path>
<path fill="#000" d="M28.22 3.659h-24.436c-0.409 0-0.74 0.332-0.74 0.74v24.435c0 0.409 0.332 0.74 0.74 0.74h24.436c0.409 0 0.74-0.331 0.74-0.74v-24.435c0-0.409-0.331-0.74-0.74-0.74zM27.586 26.173c0 1.118-0.909 2.027-2.026 2.027h-19.115c-1.117 0-2.026-0.909-2.026-2.027v-19.115c0-1.117 0.909-2.026 2.026-2.026h19.115c1.117 0 2.026 0.909 2.026 2.026v19.115z"></path>
</svg>
