<?xml version="1.0" encoding="utf-8"?>
<!-- Generated by IcoMoon.io -->
<!DOCTYPE svg PUBLIC "-//W3C//DTD SVG 1.1//EN" "http://www.w3.org/Graphics/SVG/1.1/DTD/svg11.dtd">
<svg version="1.1" xmlns="http://www.w3.org/2000/svg" xmlns:xlink="http://www.w3.org/1999/xlink" width="32" height="32" viewBox="0 0 32 32">
<path fill="#000" d="M23.241 8.94h-14.477c-0.243 0-0.439 0.196-0.439 0.438v14.477c0 0.243 0.196 0.439 0.439 0.439h14.477c0.243 0 0.439-0.196 0.439-0.439v-14.476c-0.001-0.243-0.196-0.439-0.439-0.439zM16.003 22.55c-0.671 0-1.217-0.544-1.217-1.217 0-0.036 0.003-0.076 0.007-0.116 0-0.004 0-0.012 0.001-0.016 0.078-0.814 0.813-2.311 1.096-2.865 0.047-0.090 0.176-0.090 0.221 0 0.284 0.555 1.016 2.055 1.097 2.86 0.001 0.007 0.001 0.016 0.003 0.024 0.003 0.039 0.006 0.077 0.006 0.111 0 0.673-0.544 1.217-1.215 1.217z"></path>
</svg>
