<?xml version="1.0" encoding="utf-8"?>
<!-- Generated by IcoMoon.io -->
<!DOCTYPE svg PUBLIC "-//W3C//DTD SVG 1.1//EN" "http://www.w3.org/Graphics/SVG/1.1/DTD/svg11.dtd">
<svg version="1.1" xmlns="http://www.w3.org/2000/svg" xmlns:xlink="http://www.w3.org/1999/xlink" width="16" height="32" viewBox="0 0 16 32">
<path fill="#000" d="M15.094 31.424l-4.581-10.873h1.239c0.138 0 0.266-0.068 0.343-0.182s0.093-0.258 0.042-0.386l-1.696-4.245h2.6c0.136 0 0.264-0.067 0.341-0.179s0.095-0.255 0.047-0.382l-5.174-13.678c-0.061-0.162-0.216-0.268-0.388-0.268s-0.327 0.107-0.388 0.268l-5.174 13.678c-0.048 0.127-0.031 0.27 0.047 0.382s0.205 0.179 0.341 0.179h2.6l-1.696 4.245c-0.051 0.128-0.035 0.272 0.042 0.386s0.206 0.182 0.343 0.182h1.245l-4.581 10.873c-0.054 0.129-0.040 0.275 0.037 0.39s0.207 0.185 0.345 0.185h13.684c0.139 0 0.268-0.070 0.345-0.185s0.090-0.261 0.037-0.39zM8.366 29.805c0 0.377-0.305 0.681-0.681 0.681s-0.681-0.304-0.681-0.681c0-0.020 0.001-0.042 0.003-0.065 0-0.003 0-0.007 0.001-0.009 0.044-0.456 0.456-1.294 0.614-1.604 0.026-0.050 0.099-0.050 0.124 0 0.158 0.311 0.569 1.151 0.614 1.602 0.001 0.004 0.001 0.009 0.002 0.014 0.002 0.022 0.004 0.043 0.004 0.062zM6.506 29.805c0 0.377-0.305 0.681-0.681 0.681s-0.681-0.304-0.681-0.681c0-0.020 0.001-0.042 0.004-0.065 0-0.003 0-0.007 0.001-0.009 0.044-0.456 0.455-1.294 0.614-1.604 0.026-0.050 0.098-0.050 0.124 0 0.158 0.311 0.569 1.151 0.614 1.602 0.001 0.004 0.001 0.009 0.002 0.014 0.003 0.022 0.004 0.043 0.004 0.062zM7.827 19.037c-0.377 0-0.681-0.304-0.681-0.681 0-0.020 0.001-0.043 0.003-0.065 0-0.003 0-0.007 0.001-0.009 0.009-0.097 0.038-0.214 0.075-0.338 0.124-0.416 0.365-0.922 0.503-1.192 0.012-0.025 0.027-0.053 0.037-0.075 0.026-0.050 0.098-0.050 0.124 0 0.158 0.311 0.569 1.151 0.615 1.601 0 0.005 0.001 0.010 0.001 0.014 0.002 0.023 0.004 0.044 0.004 0.063 0 0.377-0.305 0.681-0.681 0.681zM8.15 13.48c0.002 0.022 0.003 0.043 0.003 0.063 0 0.376-0.305 0.681-0.681 0.681-0.234 0-0.441-0.119-0.563-0.299-0.074-0.109-0.118-0.241-0.118-0.382 0-0.021 0.001-0.043 0.004-0.065 0-0.003 0-0.006 0.001-0.009 0.044-0.457 0.455-1.294 0.614-1.604 0.026-0.051 0.098-0.051 0.124 0 0.029 0.056 0.068 0.135 0.109 0.221 0.188 0.387 0.467 1.011 0.505 1.38 0.001 0.005 0.001 0.009 0.002 0.014zM4.935 13.477c0-0.003 0-0.006 0.001-0.009 0.044-0.457 0.455-1.294 0.614-1.604 0.026-0.051 0.098-0.051 0.124 0 0.142 0.278 0.484 0.979 0.587 1.446 0.012 0.054 0.023 0.108 0.027 0.155 0.001 0.005 0.001 0.009 0.002 0.014 0.002 0.022 0.003 0.043 0.003 0.063 0 0.261-0.148 0.485-0.364 0.599-0.095 0.050-0.202 0.081-0.317 0.081-0.376 0-0.681-0.304-0.681-0.681 0.001-0.020 0.002-0.042 0.004-0.065zM3.289 29.74c0-0.003 0-0.007 0.001-0.009 0.044-0.456 0.455-1.294 0.614-1.604 0.026-0.050 0.098-0.050 0.124 0 0.158 0.311 0.569 1.151 0.615 1.602 0 0.004 0.001 0.009 0.001 0.014 0.002 0.022 0.003 0.043 0.003 0.062 0 0.377-0.304 0.681-0.681 0.681-0.376 0-0.68-0.304-0.68-0.681 0-0.020 0.001-0.042 0.004-0.065z"></path>
</svg>
