<?xml version="1.0" encoding="utf-8"?>
<!-- Generated by IcoMoon.io -->
<!DOCTYPE svg PUBLIC "-//W3C//DTD SVG 1.1//EN" "http://www.w3.org/Graphics/SVG/1.1/DTD/svg11.dtd">
<svg version="1.1" xmlns="http://www.w3.org/2000/svg" xmlns:xlink="http://www.w3.org/1999/xlink" width="32" height="32" viewBox="0 0 32 32">
<path fill="#000" d="M25.209 7.419c-0.214-0.214-0.537-0.278-0.815-0.157l-17.184 7.373c-0.226 0.097-0.387 0.301-0.434 0.541-0.047 0.241 0.029 0.49 0.203 0.663l9.809 9.809c0.173 0.175 0.423 0.252 0.664 0.204 0.24-0.047 0.444-0.208 0.541-0.435l7.374-17.183c0.121-0.278 0.058-0.601-0.157-0.815zM16.8 15.883c-0.192 0.592-0.733 2.171-1.245 2.799-0.006 0.006-0.010 0.012-0.016 0.018-0.026 0.029-0.050 0.058-0.077 0.084-0.475 0.475-1.244 0.475-1.718 0-0.475-0.476-0.475-1.245-0.001-1.719 0.027-0.027 0.056-0.054 0.087-0.078 0.003-0.004 0.007-0.007 0.013-0.011 0.631-0.521 2.208-1.060 2.8-1.249 0.097-0.031 0.188 0.060 0.156 0.157z"></path>
</svg>
