<?xml version="1.0" encoding="utf-8"?>
<!-- Generated by IcoMoon.io -->
<!DOCTYPE svg PUBLIC "-//W3C//DTD SVG 1.1//EN" "http://www.w3.org/Graphics/SVG/1.1/DTD/svg11.dtd">
<svg version="1.1" xmlns="http://www.w3.org/2000/svg" xmlns:xlink="http://www.w3.org/1999/xlink" width="12" height="32" viewBox="0 0 12 32">
<path fill="#000" d="M11.777 31.45l-5.188-13.714c-0.060-0.158-0.211-0.262-0.38-0.262s-0.32 0.105-0.38 0.262l-5.188 13.714c-0.047 0.125-0.030 0.265 0.046 0.374s0.201 0.175 0.334 0.175h10.376c0.134 0 0.259-0.066 0.335-0.175s0.093-0.25 0.045-0.374zM5.012 29.83c0-0.021 0.001-0.042 0.003-0.065 0-0.003 0-0.007 0.001-0.009 0.044-0.458 0.457-1.298 0.616-1.609 0.026-0.051 0.099-0.051 0.125 0 0.159 0.311 0.57 1.154 0.616 1.605 0.001 0.005 0.001 0.010 0.002 0.014 0.002 0.022 0.003 0.043 0.003 0.063 0 0.377-0.305 0.683-0.683 0.683s-0.683-0.306-0.683-0.683zM4.044 30.475c-0.068 0.023-0.139 0.038-0.215 0.038-0.231 0-0.434-0.116-0.558-0.292-0.078-0.111-0.125-0.245-0.125-0.391 0-0.021 0.001-0.042 0.003-0.065 0-0.003 0-0.007 0.001-0.009 0.044-0.458 0.457-1.298 0.616-1.609 0.027-0.051 0.099-0.051 0.125 0 0.021 0.041 0.048 0.094 0.076 0.152 0.14 0.284 0.348 0.736 0.462 1.11 0.038 0.126 0.068 0.244 0.078 0.343 0 0.005 0.001 0.010 0.001 0.014 0.002 0.022 0.003 0.043 0.003 0.063 0 0.301-0.197 0.554-0.468 0.644zM8.635 31.187l-2.425-6.683-0.976 2.692h-0.864l1.459-4.022c0.058-0.161 0.211-0.268 0.381-0.268s0.324 0.107 0.382 0.268l2.906 8.013h-0.863z"></path>
</svg>
