<?xml version="1.0" encoding="utf-8"?>
<!-- Generated by IcoMoon.io -->
<!DOCTYPE svg PUBLIC "-//W3C//DTD SVG 1.1//EN" "http://www.w3.org/Graphics/SVG/1.1/DTD/svg11.dtd">
<svg version="1.1" xmlns="http://www.w3.org/2000/svg" xmlns:xlink="http://www.w3.org/1999/xlink" width="16" height="32" viewBox="0 0 16 32">
<path fill="#000" d="M13.521 23.309h1.207c0.139 0 0.268-0.070 0.345-0.185s0.091-0.262 0.037-0.39l-6.842-16.239c-0.065-0.154-0.216-0.254-0.382-0.254s-0.318 0.1-0.382 0.254l-6.842 16.239c-0.054 0.129-0.040 0.275 0.037 0.39s0.207 0.185 0.345 0.185h1.207l-1.589 3.772c-0.054 0.129-0.040 0.275 0.037 0.39s0.207 0.185 0.345 0.185h2.708l-1.431 3.782c-0.048 0.127-0.031 0.27 0.047 0.382s0.205 0.179 0.341 0.179h10.348c0.136 0 0.264-0.067 0.341-0.179s0.095-0.255 0.047-0.382l-1.431-3.782h2.714c0.139 0 0.268-0.070 0.345-0.185s0.091-0.262 0.037-0.39l-1.589-3.772zM8.17 29.805c0 0.377-0.305 0.681-0.681 0.681s-0.681-0.304-0.681-0.681c0-0.020 0.001-0.043 0.004-0.065 0-0.003 0-0.007 0.001-0.009 0.044-0.457 0.455-1.294 0.614-1.604 0.026-0.050 0.098-0.050 0.124 0 0.158 0.311 0.569 1.151 0.614 1.601 0.001 0.005 0.001 0.010 0.002 0.014 0.002 0.022 0.004 0.044 0.004 0.063zM6.311 29.805c0 0.377-0.305 0.681-0.681 0.681s-0.681-0.304-0.681-0.681c0-0.020 0.001-0.043 0.003-0.065 0-0.003 0-0.007 0.001-0.009 0.044-0.457 0.455-1.294 0.614-1.604 0.026-0.050 0.098-0.050 0.124 0 0.158 0.311 0.569 1.151 0.614 1.601 0.001 0.005 0.001 0.010 0.002 0.014 0.003 0.022 0.004 0.044 0.004 0.063zM8.383 25.461c0 0.377-0.305 0.681-0.681 0.681s-0.681-0.304-0.681-0.681c0-0.020 0.001-0.042 0.003-0.065 0-0.003 0-0.007 0.001-0.009 0.044-0.456 0.456-1.294 0.614-1.604 0.026-0.050 0.099-0.050 0.124 0 0.158 0.311 0.569 1.151 0.614 1.602 0.001 0.004 0.001 0.009 0.002 0.014 0.002 0.022 0.004 0.043 0.004 0.062zM5.904 23.784c0.029 0.058 0.070 0.139 0.113 0.229 0.188 0.388 0.464 1.007 0.501 1.374 0.001 0.004 0.001 0.009 0.002 0.014 0.002 0.022 0.003 0.043 0.003 0.062 0 0.377-0.305 0.681-0.681 0.681-0.216 0-0.407-0.104-0.532-0.262-0.092-0.116-0.148-0.26-0.148-0.42 0-0.020 0.001-0.042 0.004-0.065 0-0.003 0-0.007 0.001-0.009 0.044-0.456 0.455-1.294 0.614-1.604 0.027-0.051 0.099-0.051 0.124-0zM5.974 21.781c-0.043 0.009-0.087 0.014-0.132 0.014-0.376 0-0.681-0.304-0.681-0.681 0-0.020 0.001-0.042 0.004-0.065 0-0.003 0-0.007 0.001-0.009 0.044-0.456 0.455-1.294 0.614-1.604 0.026-0.050 0.098-0.050 0.124 0 0.117 0.229 0.368 0.742 0.512 1.178 0.052 0.157 0.090 0.304 0.102 0.424 0.001 0.004 0.001 0.009 0.002 0.014 0.002 0.022 0.003 0.043 0.003 0.062 0 0.332-0.236 0.607-0.549 0.668zM3.983 21.795c-0.063 0-0.124-0.012-0.182-0.028-0.287-0.080-0.498-0.34-0.498-0.653 0-0.020 0.001-0.042 0.003-0.065 0-0.003 0-0.007 0.001-0.009 0.044-0.456 0.455-1.294 0.614-1.604 0.026-0.050 0.098-0.050 0.124 0 0.087 0.17 0.249 0.501 0.385 0.838 0.113 0.278 0.209 0.561 0.229 0.765 0 0.004 0.001 0.009 0.001 0.014 0.002 0.022 0.003 0.043 0.003 0.062 0 0.376-0.304 0.68-0.681 0.68zM3.306 25.397c0-0.003 0-0.007 0.001-0.009 0.044-0.456 0.455-1.294 0.614-1.604 0.026-0.050 0.098-0.050 0.124 0 0.149 0.292 0.518 1.050 0.599 1.515 0.005 0.028 0.013 0.060 0.015 0.087 0 0.004 0.001 0.009 0.001 0.014 0.002 0.022 0.003 0.043 0.003 0.062 0 0.232-0.116 0.436-0.293 0.559-0.11 0.077-0.243 0.122-0.388 0.122-0.376 0-0.68-0.304-0.68-0.681 0-0.020 0.001-0.042 0.004-0.065zM8.38 21.052c0.002 0.022 0.003 0.043 0.003 0.062 0 0.377-0.305 0.681-0.681 0.681-0.314 0-0.577-0.215-0.655-0.505-0.015-0.056-0.026-0.115-0.026-0.176 0-0.020 0.001-0.042 0.003-0.065 0-0.003 0-0.007 0.001-0.009 0.044-0.456 0.456-1.294 0.614-1.604 0.024-0.045 0.081-0.044 0.112-0.008 0.003 0.004 0.010 0.003 0.012 0.008 0.158 0.311 0.569 1.151 0.614 1.602 0.001 0.004 0.001 0.009 0.002 0.014z"></path>
</svg>
