<?xml version="1.0" encoding="utf-8"?>
<!-- Generated by IcoMoon.io -->
<!DOCTYPE svg PUBLIC "-//W3C//DTD SVG 1.1//EN" "http://www.w3.org/Graphics/SVG/1.1/DTD/svg11.dtd">
<svg version="1.1" xmlns="http://www.w3.org/2000/svg" xmlns:xlink="http://www.w3.org/1999/xlink" width="12" height="32" viewBox="0 0 12 32">
<path fill="#000" d="M11.382 27.49c0.136 0 0.264-0.066 0.341-0.179s0.095-0.255 0.047-0.382l-1.494-3.949h1.106c0.136 0 0.264-0.066 0.341-0.179s0.095-0.255 0.047-0.382l-5.173-13.677c-0.061-0.162-0.216-0.268-0.388-0.268s-0.327 0.107-0.388 0.268l-5.174 13.677c-0.048 0.127-0.031 0.27 0.047 0.382s0.205 0.179 0.341 0.179h1.106l-1.494 3.949c-0.048 0.127-0.031 0.27 0.047 0.382s0.205 0.179 0.341 0.179h1.106l-1.494 3.949c-0.048 0.127-0.031 0.27 0.047 0.382s0.205 0.179 0.341 0.179h10.348c0.136 0 0.264-0.066 0.341-0.179s0.095-0.255 0.047-0.382l-1.494-3.949 1.107-0zM6.495 29.806c0 0.376-0.305 0.68-0.681 0.68s-0.681-0.304-0.681-0.68c0-0.021 0.001-0.043 0.004-0.066 0-0.003 0-0.006 0.001-0.009 0.044-0.456 0.455-1.294 0.614-1.604 0.026-0.051 0.098-0.051 0.124 0 0.158 0.31 0.569 1.15 0.614 1.601 0.001 0.005 0.001 0.009 0.002 0.014 0.002 0.022 0.004 0.043 0.004 0.063zM4.635 29.806c0 0.376-0.305 0.68-0.681 0.68s-0.681-0.304-0.681-0.68c0-0.021 0.001-0.043 0.003-0.066 0-0.003 0-0.006 0.001-0.009 0.044-0.456 0.455-1.294 0.614-1.604 0.026-0.051 0.098-0.051 0.124 0 0.158 0.31 0.569 1.15 0.614 1.601 0.001 0.005 0.001 0.009 0.002 0.014 0.003 0.022 0.004 0.043 0.004 0.063zM5.133 25.295c0-0.021 0.001-0.043 0.004-0.066 0-0.003 0-0.006 0.001-0.009 0.044-0.456 0.455-1.294 0.614-1.604 0.013-0.026 0.037-0.038 0.062-0.038s0.049 0.012 0.062 0.038c0.158 0.31 0.569 1.15 0.614 1.601 0.001 0.005 0.001 0.009 0.002 0.014 0.002 0.022 0.003 0.043 0.003 0.063 0 0.376-0.305 0.68-0.681 0.68v0 0c-0.376 0-0.681-0.305-0.681-0.68zM3.954 25.976v0 0c-0.001 0-0.001 0-0.002 0-0.056-0-0.109-0.009-0.161-0.022-0.007-0.002-0.013-0.004-0.020-0.006-0.047-0.014-0.092-0.032-0.134-0.054-0.002-0.001-0.004-0.002-0.006-0.003s-0.003-0.003-0.005-0.003c-0.102-0.056-0.188-0.136-0.249-0.236-0.004-0.007-0.007-0.014-0.012-0.022-0.023-0.039-0.041-0.081-0.055-0.125-0.005-0.015-0.010-0.029-0.014-0.044-0.013-0.050-0.021-0.102-0.022-0.156 0-0.003-0.001-0.007-0.001-0.010 0-0.021 0.001-0.043 0.003-0.066 0-0.003 0-0.006 0.001-0.009 0.044-0.456 0.455-1.294 0.614-1.604 0.013-0.026 0.038-0.038 0.062-0.038s0.049 0.012 0.062 0.038c0.013 0.026 0.031 0.062 0.048 0.096 0.003 0.005 0.005 0.009 0.007 0.014 0.014 0.028 0.028 0.058 0.044 0.090 0.014 0.029 0.029 0.059 0.044 0.091 0.012 0.026 0.024 0.050 0.037 0.078 0.028 0.060 0.056 0.122 0.085 0.186 0.001 0.003 0.003 0.007 0.005 0.010 0.037 0.082 0.073 0.168 0.109 0.254 0.003 0.008 0.007 0.017 0.010 0.025 0.032 0.078 0.061 0.155 0.088 0.231 0.007 0.018 0.013 0.037 0.019 0.054 0.024 0.070 0.044 0.137 0.062 0.202 0.005 0.017 0.010 0.035 0.014 0.051 0.020 0.078 0.036 0.153 0.042 0.218 0.001 0.005 0.001 0.009 0.002 0.014 0.002 0.022 0.003 0.043 0.003 0.063 0 0.376-0.305 0.68-0.681 0.68zM3.954 21.465c-0.117 0-0.226-0.032-0.323-0.084l-0.001-0c-0.212-0.116-0.357-0.337-0.357-0.596 0-0.021 0.001-0.043 0.003-0.066 0-0.003 0-0.006 0.001-0.009 0.044-0.456 0.455-1.294 0.614-1.604 0.026-0.051 0.098-0.051 0.124 0 0.062 0.122 0.163 0.326 0.265 0.555 0.159 0.355 0.321 0.773 0.349 1.046 0.001 0.005 0.001 0.009 0.002 0.014 0.002 0.022 0.003 0.043 0.003 0.063-0 0.376-0.305 0.68-0.681 0.68zM6.492 20.722c0.002 0.022 0.003 0.043 0.003 0.063 0 0.376-0.305 0.68-0.681 0.68s-0.681-0.304-0.681-0.68c0-0.021 0.001-0.043 0.004-0.066 0-0.003 0-0.006 0.001-0.009 0.044-0.456 0.455-1.294 0.614-1.604 0.026-0.051 0.098-0.051 0.124 0 0.158 0.31 0.569 1.15 0.614 1.601 0.001 0.005 0.001 0.009 0.002 0.014z"></path>
</svg>
