<?xml version="1.0" encoding="utf-8"?>
<!-- Generated by IcoMoon.io -->
<!DOCTYPE svg PUBLIC "-//W3C//DTD SVG 1.1//EN" "http://www.w3.org/Graphics/SVG/1.1/DTD/svg11.dtd">
<svg version="1.1" xmlns="http://www.w3.org/2000/svg" xmlns:xlink="http://www.w3.org/1999/xlink" width="12" height="32" viewBox="0 0 12 32">
<path fill="#000" d="M11.769 24.722l-3-7.932h1.323c0.138 0 0.266-0.068 0.343-0.182s0.092-0.258 0.041-0.386l-3.886-9.725c-0.062-0.158-0.216-0.261-0.385-0.261s-0.322 0.103-0.386 0.261l-3.884 9.725c-0.051 0.128-0.036 0.273 0.041 0.386s0.206 0.182 0.343 0.182h1.324l-3.001 7.932c-0.048 0.127-0.031 0.27 0.047 0.382s0.205 0.179 0.341 0.179h3.359l-2.455 6.147c-0.051 0.128-0.036 0.273 0.041 0.386s0.206 0.182 0.343 0.182h7.771c0.138 0 0.266-0.068 0.343-0.182s0.092-0.258 0.041-0.386l-2.456-6.147h3.361c0.136 0 0.264-0.066 0.341-0.179 0.078-0.112 0.095-0.255 0.047-0.382zM6.848 29.805c0 0.376-0.306 0.68-0.681 0.68s-0.681-0.304-0.681-0.68c0-0.021 0.002-0.043 0.003-0.066 0-0.003 0.001-0.006 0.001-0.009 0.044-0.456 0.455-1.294 0.615-1.604 0.026-0.051 0.098-0.051 0.124 0 0.159 0.31 0.57 1.15 0.615 1.601 0 0.005 0.001 0.009 0.001 0.014 0.003 0.022 0.004 0.043 0.004 0.063zM6.392 23.443c-0.106 0.173-0.287 0.293-0.499 0.318-0.027 0.003-0.053 0.008-0.080 0.008-0.294 0-0.542-0.187-0.637-0.449-0.027-0.073-0.043-0.15-0.043-0.232 0-0.021 0.001-0.043 0.004-0.066 0-0.003 0-0.006 0.001-0.009 0.044-0.456 0.455-1.294 0.614-1.604 0.026-0.051 0.098-0.051 0.124 0 0.019 0.037 0.042 0.083 0.067 0.134 0.185 0.373 0.507 1.071 0.547 1.468 0.001 0.005 0.001 0.009 0.002 0.014 0.002 0.022 0.003 0.043 0.003 0.063 0 0.13-0.039 0.25-0.102 0.354zM6.843 14.52c0 0.005 0.001 0.009 0.001 0.014 0.003 0.022 0.004 0.043 0.004 0.063 0 0.376-0.306 0.681-0.681 0.681s-0.681-0.304-0.681-0.681c0-0.021 0.002-0.043 0.003-0.066 0-0.002 0.001-0.006 0.001-0.009 0.044-0.456 0.455-1.294 0.615-1.604 0.026-0.051 0.098-0.051 0.124 0 0.159 0.31 0.57 1.15 0.615 1.601zM3.276 23.023c0-0.002 0-0.005 0.001-0.009 0.044-0.456 0.455-1.294 0.614-1.604 0.026-0.051 0.098-0.051 0.124 0 0.158 0.31 0.569 1.15 0.614 1.601 0.001 0.005 0.001 0.009 0.002 0.014 0.002 0.022 0.003 0.043 0.003 0.063 0 0.376-0.305 0.68-0.681 0.68s-0.681-0.304-0.681-0.68c0-0.021 0.002-0.043 0.004-0.066z"></path>
</svg>
