<?xml version="1.0" encoding="utf-8"?>
<!-- Generated by IcoMoon.io -->
<!DOCTYPE svg PUBLIC "-//W3C//DTD SVG 1.1//EN" "http://www.w3.org/Graphics/SVG/1.1/DTD/svg11.dtd">
<svg version="1.1" xmlns="http://www.w3.org/2000/svg" xmlns:xlink="http://www.w3.org/1999/xlink" width="16" height="32" viewBox="0 0 16 32">
<path fill="#000" d="M15.111 22.733l-6.842-16.238c-0.065-0.154-0.215-0.254-0.382-0.254s-0.318 0.1-0.382 0.254l-6.842 16.238c-0.054 0.129-0.040 0.275 0.037 0.39s0.207 0.185 0.345 0.185h2.87l-1.406 3.715c-0.048 0.127-0.031 0.27 0.047 0.382s0.205 0.179 0.341 0.179h2.437l-1.536 3.846c-0.051 0.128-0.035 0.273 0.042 0.386s0.206 0.182 0.343 0.182h7.77c0.138 0 0.266-0.068 0.343-0.182s0.093-0.258 0.042-0.386l-1.536-3.846h2.444c0.136 0 0.263-0.066 0.341-0.179s0.095-0.255 0.047-0.382l-1.405-3.715h2.501c0.139 0 0.269-0.070 0.346-0.185s0.091-0.261 0.037-0.39zM8.709 29.806c0 0.376-0.305 0.68-0.681 0.68s-0.681-0.304-0.681-0.68c0-0.021 0.001-0.043 0.003-0.066 0-0.003 0-0.006 0.001-0.009 0.044-0.456 0.455-1.294 0.615-1.604 0.026-0.051 0.098-0.051 0.124 0 0.158 0.31 0.569 1.15 0.615 1.601 0 0.005 0.001 0.009 0.001 0.014 0.002 0.022 0.004 0.043 0.004 0.063zM5.162 21.114c0-0.020 0.001-0.042 0.004-0.065 0-0.003 0-0.007 0.001-0.009 0.044-0.456 0.455-1.294 0.614-1.604 0.026-0.050 0.098-0.050 0.124 0 0.049 0.097 0.124 0.248 0.203 0.419 0.176 0.38 0.38 0.872 0.411 1.183 0.001 0.004 0.001 0.009 0.002 0.014 0.002 0.022 0.003 0.043 0.003 0.062 0 0.377-0.305 0.681-0.681 0.681-0.157 0-0.299-0.055-0.415-0.144-0.161-0.125-0.266-0.318-0.266-0.537zM7.677 26.071c-0.309 0-0.566-0.206-0.65-0.488-0.018-0.061-0.031-0.125-0.031-0.192 0-0.021 0.001-0.043 0.004-0.066 0-0.003 0-0.006 0.001-0.009 0.044-0.456 0.455-1.294 0.614-1.604 0.026-0.051 0.098-0.051 0.124 0 0.006 0.011 0.014 0.027 0.019 0.039 0.169 0.335 0.551 1.128 0.595 1.563 0.001 0.005 0.001 0.009 0.002 0.014 0.002 0.022 0.003 0.043 0.003 0.063 0 0.376-0.305 0.68-0.681 0.68zM5.14 25.325c0-0.003 0-0.006 0.001-0.009 0.044-0.456 0.455-1.294 0.614-1.604 0.026-0.051 0.098-0.051 0.124 0 0.119 0.233 0.379 0.763 0.521 1.203 0.047 0.147 0.082 0.285 0.093 0.398 0.001 0.005 0.001 0.009 0.002 0.014 0.002 0.022 0.003 0.043 0.003 0.063 0 0.333-0.239 0.608-0.554 0.667-0.041 0.008-0.083 0.013-0.127 0.013-0.376 0-0.681-0.304-0.681-0.68 0-0.020 0.001-0.042 0.003-0.065zM8.263 21.499c-0.123 0.178-0.328 0.296-0.561 0.296-0.018 0-0.035-0.004-0.053-0.006-0.35-0.027-0.627-0.317-0.627-0.675 0-0.020 0.001-0.042 0.003-0.065 0-0.003 0-0.007 0.001-0.009 0.044-0.456 0.456-1.294 0.614-1.604 0.026-0.050 0.099-0.050 0.124 0 0.158 0.311 0.569 1.151 0.615 1.602 0.001 0.004 0.001 0.009 0.002 0.014 0.002 0.022 0.003 0.043 0.003 0.062-0 0.143-0.045 0.276-0.121 0.386zM3.306 21.049c0-0.003 0-0.007 0.001-0.009 0.044-0.456 0.455-1.294 0.614-1.604 0.026-0.050 0.098-0.050 0.124 0 0.158 0.311 0.569 1.151 0.615 1.602 0 0.004 0.001 0.009 0.001 0.014 0.002 0.022 0.003 0.043 0.003 0.062 0 0.377-0.304 0.681-0.681 0.681-0.376 0-0.68-0.304-0.68-0.681 0-0.020 0.001-0.042 0.004-0.065z"></path>
</svg>
