<?xml version="1.0" encoding="utf-8"?>
<!-- Generated by IcoMoon.io -->
<!DOCTYPE svg PUBLIC "-//W3C//DTD SVG 1.1//EN" "http://www.w3.org/Graphics/SVG/1.1/DTD/svg11.dtd">
<svg version="1.1" xmlns="http://www.w3.org/2000/svg" xmlns:xlink="http://www.w3.org/1999/xlink" width="16" height="32" viewBox="0 0 16 32">
<path fill="#000" d="M15.1 26.842l-4.222-10.021h0.883c0.138 0 0.266-0.068 0.343-0.182s0.093-0.258 0.042-0.386l-3.885-9.725c-0.063-0.158-0.216-0.261-0.385-0.261s-0.322 0.103-0.385 0.261l-3.885 9.725c-0.051 0.128-0.035 0.272 0.042 0.386s0.206 0.182 0.343 0.182h0.882l-4.222 10.022c-0.054 0.129-0.040 0.275 0.037 0.39s0.207 0.185 0.345 0.185h4.183l-1.614 4.040c-0.051 0.128-0.035 0.272 0.042 0.386s0.206 0.182 0.343 0.182h7.77c0.138 0 0.266-0.068 0.343-0.182s0.093-0.258 0.042-0.386l-1.614-4.040h4.189c0.139 0 0.268-0.070 0.345-0.185s0.091-0.262 0.037-0.39zM8.514 29.831c0 0.377-0.305 0.681-0.681 0.681s-0.681-0.304-0.681-0.681c0-0.020 0.001-0.043 0.003-0.065 0-0.003 0-0.007 0.001-0.009 0.044-0.457 0.455-1.294 0.615-1.604 0.026-0.050 0.098-0.050 0.124 0 0.158 0.311 0.569 1.151 0.615 1.601 0 0.005 0.001 0.010 0.001 0.014 0.002 0.022 0.004 0.044 0.004 0.063zM7.011 25.222c0-0.020 0.001-0.042 0.003-0.065 0-0.002 0-0.004 0-0.007 0-0.001 0-0.002 0-0.003 0.044-0.456 0.456-1.295 0.614-1.605 0.008-0.015 0.023-0.016 0.036-0.022 0.032-0.015 0.070-0.014 0.088 0.022 0.158 0.311 0.569 1.151 0.614 1.602 0.001 0.004 0.001 0.009 0.002 0.014 0.002 0.022 0.003 0.043 0.003 0.062 0 0.377-0.305 0.681-0.681 0.681-0.374 0-0.68-0.304-0.68-0.681zM5.821 25.902c-0.371-0.006-0.67-0.307-0.67-0.68 0-0.020 0.001-0.042 0.004-0.065 0-0.003 0-0.007 0.001-0.009 0.044-0.456 0.455-1.295 0.614-1.605 0.026-0.050 0.098-0.050 0.124 0 0.103 0.203 0.312 0.63 0.459 1.028 0.078 0.212 0.139 0.417 0.155 0.574 0.001 0.004 0.001 0.009 0.002 0.014 0.002 0.022 0.003 0.043 0.003 0.062 0 0.377-0.305 0.681-0.681 0.681-0.004 0-0.007-0.001-0.011-0.002zM8.513 14.549c0 0.005 0.001 0.009 0.001 0.014 0.002 0.022 0.004 0.043 0.004 0.063 0 0.376-0.305 0.681-0.681 0.681s-0.681-0.304-0.681-0.681c0-0.021 0.001-0.043 0.003-0.065 0-0.003 0-0.006 0.001-0.009 0.044-0.457 0.455-1.294 0.615-1.604 0.026-0.051 0.098-0.051 0.124 0 0.159 0.311 0.569 1.151 0.615 1.601zM3.295 25.158c0-0.003 0-0.007 0.001-0.009 0.044-0.456 0.455-1.295 0.614-1.605 0.026-0.050 0.098-0.050 0.124 0 0.158 0.311 0.569 1.151 0.615 1.602 0 0.004 0.001 0.009 0.001 0.014 0.002 0.022 0.003 0.043 0.003 0.062 0 0.377-0.304 0.681-0.681 0.681-0.376 0-0.68-0.304-0.68-0.681 0-0.020 0.001-0.042 0.004-0.065z"></path>
</svg>
