<?xml version="1.0" encoding="utf-8"?>
<!-- Generated by IcoMoon.io -->
<!DOCTYPE svg PUBLIC "-//W3C//DTD SVG 1.1//EN" "http://www.w3.org/Graphics/SVG/1.1/DTD/svg11.dtd">
<svg version="1.1" xmlns="http://www.w3.org/2000/svg" xmlns:xlink="http://www.w3.org/1999/xlink" width="16" height="32" viewBox="0 0 16 32">
<path fill="#000" d="M15.108 22.736l-6.842-16.238c-0.065-0.154-0.216-0.254-0.382-0.254s-0.318 0.1-0.382 0.254l-6.842 16.238c-0.054 0.129-0.040 0.275 0.037 0.39s0.207 0.185 0.345 0.185h2.624l-1.344 3.552c-0.048 0.127-0.031 0.27 0.047 0.382s0.205 0.179 0.341 0.179h1.132l-1.52 4.017c-0.048 0.127-0.031 0.27 0.047 0.382s0.205 0.179 0.341 0.179h10.348c0.136 0 0.264-0.067 0.341-0.179s0.095-0.255 0.047-0.382l-1.519-4.017h1.132c0.136 0 0.263-0.067 0.341-0.179s0.095-0.255 0.047-0.382l-1.343-3.552h2.623c0.139 0 0.268-0.070 0.345-0.185s0.092-0.261 0.038-0.39zM8.17 29.808c0 0.377-0.305 0.681-0.681 0.681s-0.681-0.304-0.681-0.681c0-0.020 0.001-0.043 0.004-0.065 0-0.003 0-0.007 0.001-0.009 0.044-0.457 0.455-1.294 0.614-1.604 0.026-0.050 0.098-0.050 0.124 0 0.158 0.311 0.569 1.151 0.614 1.601 0.001 0.005 0.001 0.010 0.002 0.014 0.002 0.022 0.004 0.044 0.004 0.063zM6.311 29.808c0 0.377-0.305 0.681-0.681 0.681s-0.681-0.304-0.681-0.681c0-0.020 0.001-0.043 0.003-0.065 0-0.003 0-0.007 0.001-0.009 0.044-0.457 0.455-1.294 0.614-1.604 0.026-0.050 0.098-0.050 0.124 0 0.158 0.311 0.569 1.151 0.614 1.601 0.001 0.005 0.001 0.010 0.002 0.014 0.003 0.022 0.004 0.044 0.004 0.063zM6.808 25.23c0-0.020 0.001-0.043 0.004-0.065 0-0.003 0-0.007 0.001-0.009 0.044-0.457 0.455-1.295 0.614-1.605 0.026-0.051 0.098-0.051 0.124 0 0.158 0.311 0.569 1.151 0.615 1.602 0.001 0.005 0.001 0.010 0.002 0.014 0.002 0.023 0.003 0.044 0.003 0.063 0 0.377-0.305 0.681-0.681 0.681s-0.681-0.305-0.681-0.681zM5.975 21.784c-0.044 0.009-0.089 0.013-0.136 0.013-0.251 0-0.469-0.138-0.586-0.34-0.058-0.1-0.095-0.216-0.095-0.34 0-0.020 0.001-0.042 0.004-0.065 0-0.003 0-0.007 0.001-0.009 0.044-0.456 0.455-1.294 0.614-1.604 0.026-0.050 0.098-0.050 0.124 0 0.019 0.037 0.041 0.081 0.066 0.131 0.13 0.262 0.327 0.684 0.448 1.052 0.051 0.155 0.089 0.301 0.101 0.419 0.001 0.004 0.001 0.009 0.002 0.014 0.002 0.022 0.003 0.043 0.003 0.062 0 0.33-0.235 0.605-0.546 0.668zM4.952 25.165c0-0.003 0-0.007 0.001-0.009 0.044-0.457 0.455-1.295 0.614-1.605 0.026-0.051 0.098-0.051 0.124 0 0.065 0.128 0.173 0.345 0.279 0.588 0.154 0.348 0.308 0.748 0.335 1.014 0.001 0.005 0.001 0.010 0.002 0.014 0.002 0.023 0.003 0.044 0.003 0.063 0 0.377-0.305 0.681-0.681 0.681-0.109 0-0.21-0.028-0.301-0.074-0.224-0.111-0.38-0.34-0.38-0.608 0-0.020 0.001-0.043 0.003-0.065zM7.699 21.798c-0.313 0-0.574-0.212-0.653-0.5-0.016-0.058-0.027-0.118-0.027-0.181 0-0.020 0.001-0.042 0.003-0.065 0-0.003 0-0.007 0.001-0.009 0.044-0.456 0.456-1.294 0.614-1.604 0.024-0.046 0.085-0.045 0.114-0.006 0.003 0.003 0.008 0.003 0.010 0.006 0.158 0.311 0.569 1.151 0.614 1.602 0.001 0.004 0.001 0.009 0.002 0.014 0.002 0.022 0.003 0.043 0.003 0.062 0 0.377-0.304 0.681-0.681 0.681zM3.303 21.052c0-0.003 0-0.007 0.001-0.009 0.044-0.456 0.455-1.294 0.614-1.604 0.026-0.050 0.098-0.050 0.124 0 0.134 0.264 0.449 0.907 0.569 1.373 0.022 0.083 0.039 0.161 0.046 0.23 0 0.004 0.001 0.009 0.001 0.014 0.002 0.022 0.003 0.043 0.003 0.062 0 0.276-0.164 0.512-0.4 0.619-0.086 0.039-0.18 0.062-0.281 0.062-0.376 0-0.68-0.304-0.68-0.681 0-0.020 0.001-0.042 0.003-0.065z"></path>
</svg>
