<?xml version="1.0" encoding="utf-8"?>
<!-- Generated by IcoMoon.io -->
<!DOCTYPE svg PUBLIC "-//W3C//DTD SVG 1.1//EN" "http://www.w3.org/Graphics/SVG/1.1/DTD/svg11.dtd">
<svg version="1.1" xmlns="http://www.w3.org/2000/svg" xmlns:xlink="http://www.w3.org/1999/xlink" width="32" height="32" viewBox="0 0 32 32">
<path fill="#000" d="M15.213 7.582l9.809 9.809c0.174 0.174 0.251 0.422 0.204 0.663-0.047 0.24-0.209 0.444-0.435 0.541l-17.184 7.373c-0.278 0.12-0.602 0.057-0.815-0.156-0.215-0.215-0.276-0.537-0.158-0.815l7.374-17.184c0.098-0.226 0.301-0.389 0.541-0.435 0.242-0.047 0.491 0.030 0.664 0.204zM23.203 17.665l-8.263-8.263-6.212 14.476 14.476-6.213z"></path>
<path fill="#000" d="M18.17 16.245c-0.003 0.003-0.007 0.007-0.012 0.010-0.631 0.521-2.21 1.060-2.802 1.248-0.097 0.032-0.188-0.058-0.156-0.156 0.193-0.591 0.735-2.17 1.245-2.797 0.006-0.006 0.010-0.013 0.016-0.018 0.025-0.030 0.050-0.058 0.076-0.084 0.475-0.475 1.244-0.475 1.719 0s0.476 1.245 0.001 1.719c-0.027 0.026-0.056 0.053-0.087 0.078z"></path>
</svg>
