<?xml version="1.0" encoding="utf-8"?>
<!-- Generated by IcoMoon.io -->
<!DOCTYPE svg PUBLIC "-//W3C//DTD SVG 1.1//EN" "http://www.w3.org/Graphics/SVG/1.1/DTD/svg11.dtd">
<svg version="1.1" xmlns="http://www.w3.org/2000/svg" xmlns:xlink="http://www.w3.org/1999/xlink" width="32" height="32" viewBox="0 0 32 32">
<path fill="#000" d="M3.884 17.556l13.065-13.066c0.173-0.172 0.417-0.248 0.657-0.204s0.442 0.202 0.542 0.424l10.735 23.803c0.127 0.281 0.067 0.61-0.152 0.829v0c-0.217 0.217-0.546 0.277-0.827 0.15l-23.801-10.737c-0.221-0.101-0.381-0.303-0.424-0.541-0.044-0.241 0.033-0.486 0.205-0.657zM17.238 6.295l-11.55 11.551 21.040 9.492-9.49-21.043z"></path>
<path fill="#000" d="M16.97 10.175c0.002 0.004 0.006 0.008 0.009 0.013 0.521 0.632 1.060 2.209 1.251 2.8 0.031 0.098-0.060 0.189-0.157 0.156-0.592-0.192-2.171-0.733-2.799-1.245-0.007-0.005-0.012-0.010-0.018-0.016-0.030-0.026-0.059-0.050-0.084-0.076-0.475-0.475-0.473-1.245 0.001-1.719s1.245-0.475 1.719-0.001c0.027 0.027 0.052 0.057 0.078 0.087z"></path>
<path fill="#000" d="M14.62 12.525c0.004 0.003 0.007 0.007 0.011 0.012 0.521 0.632 1.060 2.209 1.25 2.8 0.031 0.097-0.061 0.189-0.157 0.156-0.592-0.191-2.172-0.733-2.797-1.245-0.007-0.005-0.013-0.010-0.020-0.016-0.029-0.026-0.058-0.050-0.084-0.076-0.475-0.475-0.473-1.245 0.001-1.719s1.245-0.475 1.719-0.001c0.025 0.027 0.051 0.057 0.076 0.089z"></path>
</svg>
