<?xml version="1.0" encoding="utf-8"?>
<!-- Generated by IcoMoon.io -->
<!DOCTYPE svg PUBLIC "-//W3C//DTD SVG 1.1//EN" "http://www.w3.org/Graphics/SVG/1.1/DTD/svg11.dtd">
<svg version="1.1" xmlns="http://www.w3.org/2000/svg" xmlns:xlink="http://www.w3.org/1999/xlink" width="32" height="32" viewBox="0 0 32 32">
<path fill="#000" d="M6.978 17.402l9.809-9.809c0.173-0.174 0.423-0.25 0.664-0.203 0.24 0.046 0.444 0.209 0.541 0.435l7.373 17.184c0.12 0.278 0.057 0.602-0.156 0.815-0.215 0.215-0.538 0.277-0.817 0.158l-17.184-7.375c-0.226-0.097-0.387-0.301-0.434-0.541-0.047-0.243 0.030-0.492 0.204-0.665zM17.062 9.413l-8.264 8.263 14.476 6.212-6.212-14.476z"></path>
<path fill="#000" d="M15.641 14.446c0.003 0.003 0.007 0.007 0.010 0.013 0.52 0.631 1.060 2.208 1.249 2.8 0.032 0.097-0.059 0.188-0.156 0.156-0.592-0.192-2.171-0.734-2.798-1.245-0.006-0.006-0.013-0.010-0.018-0.016-0.029-0.025-0.058-0.050-0.084-0.076-0.475-0.475-0.475-1.243 0.001-1.718s1.245-0.475 1.719-0.001c0.024 0.027 0.051 0.056 0.078 0.087z"></path>
</svg>
