<?xml version="1.0" encoding="utf-8"?>
<!-- Generated by IcoMoon.io -->
<!DOCTYPE svg PUBLIC "-//W3C//DTD SVG 1.1//EN" "http://www.w3.org/Graphics/SVG/1.1/DTD/svg11.dtd">
<svg version="1.1" xmlns="http://www.w3.org/2000/svg" xmlns:xlink="http://www.w3.org/1999/xlink" width="32" height="32" viewBox="0 0 32 32">
<path fill="#000" d="M15.051 4.491l13.065 13.065c0.172 0.172 0.249 0.417 0.205 0.657s-0.202 0.443-0.424 0.542l-23.804 10.736c-0.281 0.127-0.61 0.067-0.828-0.151v0c-0.218-0.218-0.277-0.546-0.151-0.829l10.737-23.801c0.101-0.221 0.302-0.381 0.542-0.424 0.24-0.044 0.484 0.033 0.657 0.204zM26.311 17.846l-11.55-11.55-9.492 21.041 21.041-9.49z"></path>
<path fill="#000" d="M22.431 17.578c-0.003 0.002-0.007 0.007-0.013 0.010-0.631 0.521-2.208 1.060-2.8 1.25-0.098 0.031-0.19-0.060-0.156-0.156 0.191-0.592 0.733-2.172 1.245-2.799 0.006-0.007 0.010-0.012 0.016-0.019 0.024-0.030 0.049-0.059 0.076-0.084 0.475-0.475 1.245-0.473 1.719 0.001s0.476 1.244 0 1.719c-0.026 0.026-0.055 0.052-0.087 0.078z"></path>
<path fill="#000" d="M20.082 15.229c-0.003 0.003-0.007 0.007-0.013 0.010-0.631 0.521-2.208 1.060-2.8 1.25-0.097 0.031-0.188-0.061-0.156-0.156 0.191-0.592 0.733-2.171 1.245-2.798 0.006-0.007 0.010-0.013 0.016-0.019 0.026-0.030 0.050-0.059 0.076-0.084 0.475-0.475 1.245-0.473 1.719 0.001s0.476 1.245 0.001 1.719c-0.027 0.026-0.056 0.051-0.088 0.077z"></path>
</svg>
