<?xml version="1.0" encoding="utf-8"?>
<!-- Generated by IcoMoon.io -->
<!DOCTYPE svg PUBLIC "-//W3C//DTD SVG 1.1//EN" "http://www.w3.org/Graphics/SVG/1.1/DTD/svg11.dtd">
<svg version="1.1" xmlns="http://www.w3.org/2000/svg" xmlns:xlink="http://www.w3.org/1999/xlink" width="32" height="32" viewBox="0 0 32 32">
<path fill="#000" d="M3.784 1.377h24.436c0.247 0 0.478 0.124 0.616 0.331s0.162 0.467 0.067 0.697l-12.217 28.995c-0.116 0.274-0.385 0.453-0.683 0.453s-0.567-0.179-0.683-0.453l-12.218-28.995c-0.097-0.23-0.073-0.49 0.065-0.697s0.369-0.332 0.618-0.332zM27.103 2.857h-22.204l11.103 26.348 11.101-26.348z"></path>
<path fill="#000" d="M24.181 5.412c0 0.004 0 0.012-0.001 0.016-0.078 0.814-0.813 2.311-1.096 2.865-0.047 0.090-0.176 0.090-0.221 0-0.284-0.555-1.017-2.055-1.097-2.86-0.001-0.007-0.001-0.016-0.003-0.024-0.003-0.039-0.006-0.077-0.006-0.111 0-0.672 0.544-1.217 1.217-1.217 0.671 0 1.215 0.543 1.215 1.217-0.001 0.036-0.002 0.075-0.007 0.115z"></path>
<path fill="#000" d="M20.861 5.412c0 0.004 0 0.012-0.001 0.016-0.078 0.814-0.813 2.311-1.096 2.865-0.047 0.090-0.176 0.090-0.221 0-0.284-0.555-1.017-2.055-1.097-2.86-0.001-0.007-0.001-0.016-0.003-0.024-0.003-0.039-0.006-0.077-0.006-0.111 0-0.672 0.545-1.217 1.217-1.217s1.217 0.543 1.217 1.217c-0.001 0.036-0.004 0.075-0.008 0.115z"></path>
<path fill="#000" d="M17.541 5.412c-0.001 0.004-0.001 0.012-0.001 0.016-0.079 0.814-0.814 2.311-1.098 2.865-0.047 0.090-0.176 0.090-0.221 0-0.284-0.555-1.017-2.055-1.097-2.86-0.001-0.007-0.001-0.016-0.003-0.024-0.003-0.039-0.006-0.077-0.006-0.111 0-0.672 0.545-1.217 1.217-1.217s1.217 0.543 1.217 1.217c0 0.036-0.003 0.075-0.006 0.115z"></path>
</svg>
