<?xml version="1.0" encoding="utf-8"?>
<!-- Generated by IcoMoon.io -->
<!DOCTYPE svg PUBLIC "-//W3C//DTD SVG 1.1//EN" "http://www.w3.org/Graphics/SVG/1.1/DTD/svg11.dtd">
<svg version="1.1" xmlns="http://www.w3.org/2000/svg" xmlns:xlink="http://www.w3.org/1999/xlink" width="32" height="32" viewBox="0 0 32 32">
<path fill="#000" d="M9.065 7.193h13.872c0.246 0 0.476 0.121 0.613 0.325 0.138 0.202 0.167 0.461 0.076 0.69l-6.938 17.365c-0.111 0.281-0.385 0.466-0.687 0.466-0.304 0-0.575-0.184-0.689-0.466l-6.936-17.365c-0.091-0.229-0.062-0.487 0.076-0.69s0.367-0.325 0.613-0.325zM21.843 8.674h-11.686l5.843 14.629 5.843-14.629z"></path>
<path fill="#000" d="M17.281 11.227c0 0.004 0 0.010-0.001 0.016-0.078 0.815-0.813 2.311-1.098 2.863-0.047 0.091-0.175 0.091-0.221 0-0.282-0.554-1.015-2.053-1.097-2.859 0-0.009-0.001-0.016-0.001-0.024-0.003-0.039-0.006-0.077-0.006-0.113 0-0.671 0.543-1.215 1.215-1.215s1.217 0.543 1.217 1.215c0 0.038-0.001 0.076-0.006 0.117z"></path>
</svg>
