<?xml version="1.0" encoding="utf-8"?>
<!-- Generated by IcoMoon.io -->
<!DOCTYPE svg PUBLIC "-//W3C//DTD SVG 1.1//EN" "http://www.w3.org/Graphics/SVG/1.1/DTD/svg11.dtd">
<svg version="1.1" xmlns="http://www.w3.org/2000/svg" xmlns:xlink="http://www.w3.org/1999/xlink" width="33" height="32" viewBox="0 0 33 32">
<path fill="#000" d="M31.985 30.111l-11.082-28.006c-0.21-0.527-0.715-0.875-1.282-0.875s-1.079 0.345-1.282 0.872l-11.085 28.009c-0.055 0.139-0.049 0.284-0.055 0.425-0.019 0.302 0.025 0.601 0.197 0.86 0.253 0.379 0.681 0.604 1.137 0.604h22.166c0.456 0 0.884-0.225 1.143-0.604 0.176-0.256 0.216-0.558 0.197-0.857-0.006-0.145-0.003-0.29-0.055-0.428z"></path>
<path fill="#000" d="M10.521 12.718c0.259-0.373 0.314-0.854 0.145-1.282l-3.695-9.328c-0.206-0.53-0.718-0.875-1.282-0.875s-1.072 0.345-1.282 0.875l-2.518 6.354-1.174 2.974c-0.173 0.428-0.12 0.909 0.139 1.282 0.237 0.348 0.623 0.549 1.035 0.576 0.037 0.006 0.071 0.028 0.108 0.028h7.384c0.459 0 0.888-0.225 1.14-0.604z"></path>
</svg>
