<?xml version="1.0" encoding="utf-8"?>
<!-- Generated by IcoMoon.io -->
<!DOCTYPE svg PUBLIC "-//W3C//DTD SVG 1.1//EN" "http://www.w3.org/Graphics/SVG/1.1/DTD/svg11.dtd">
<svg version="1.1" xmlns="http://www.w3.org/2000/svg" xmlns:xlink="http://www.w3.org/1999/xlink" width="32" height="32" viewBox="0 0 32 32">
<path fill="#000" d="M30.574 2.012c-1.834-1.834-5.75-0.429-11.602 4.117-0.906-0.222-1.842-0.351-2.801-0.351-3.124 0-6.055 1.215-8.26 3.424-3.033 3.033-4.034 7.332-3.026 11.215-4.037 5.407-5.236 9.047-3.496 10.788 0.529 0.529 1.217 0.796 2.076 0.796 1.478 0 3.451-0.792 5.966-2.377 0.677-0.427 1.384-0.915 2.107-1.437 1.446 0.628 3.015 0.963 4.64 0.963 3.118 0 6.055-1.215 8.258-3.422 3.442-3.442 4.275-8.513 2.519-12.75 0.761-1.013 1.451-1.998 2.038-2.928 2.506-3.968 3.020-6.598 1.58-8.039zM3.712 28.898c0.091-0.683 0.692-2.35 2.614-5.16 0.449 0.706 0.973 1.375 1.589 1.991 0.243 0.242 0.496 0.469 0.756 0.685-2.412 1.631-4.145 2.403-4.958 2.485zM11.284 24.49c-0.412-0.287-0.806-0.599-1.17-0.961-3.344-3.345-3.345-8.787-0.004-12.131 1.616-1.618 3.77-2.51 6.061-2.51 2.292 0 4.442 0.892 6.063 2.514 0.387 0.387 0.727 0.806 1.028 1.25-1.437 1.778-3.171 3.747-5.331 5.906-2.463 2.466-4.689 4.403-6.647 5.932zM22.238 23.529c-1.618 1.62-3.77 2.51-6.059 2.51-0.563 0-1.113-0.056-1.655-0.162 1.84-1.518 3.74-3.247 5.608-5.118 1.609-1.611 3.108-3.238 4.462-4.835 0.093 0.503 0.151 1.019 0.151 1.542 0 2.29-0.888 4.442-2.508 6.063zM25.224 10.078c-0.247-0.302-0.509-0.594-0.79-0.874-0.652-0.654-1.377-1.208-2.143-1.682 3.296-2.376 5.22-3.097 5.974-3.191-0.087 0.895-1.050 2.933-3.040 5.747z"></path>
</svg>
