<?xml version="1.0" encoding="utf-8"?>
<!-- Generated by IcoMoon.io -->
<!DOCTYPE svg PUBLIC "-//W3C//DTD SVG 1.1//EN" "http://www.w3.org/Graphics/SVG/1.1/DTD/svg11.dtd">
<svg version="1.1" xmlns="http://www.w3.org/2000/svg" xmlns:xlink="http://www.w3.org/1999/xlink" width="25" height="32" viewBox="0 0 25 32">
<path fill="#000" d="M12.297 1.231c-0.417 1.736-1.059 3.294-1.927 4.655-0.867 1.366-2.411 3.049-4.637 5.066-2.221 2.015-3.633 3.561-4.227 4.635s-0.89 2.168-0.89 3.278c0 1.542 0.515 2.822 1.542 3.853 1.027 1.027 2.281 1.542 3.76 1.542 2.643 0 4.69-1.934 6.040-4.036-0.104 2.302-0.482 4.141-1.146 5.523-0.714 1.488-1.809 2.717-3.287 3.696-0.995 0.659-2.789 1.236-5.376 1.734l-0.192 0.825h20.67l-0.19-0.825c-2.588-0.498-4.38-1.074-5.376-1.734-1.479-0.979-2.573-2.209-3.287-3.696-0.665-1.377-1.043-3.214-1.145-5.513 1.349 2.101 3.404 4.025 6.047 4.025 1.479 0 2.731-0.515 3.76-1.542 1.029-1.030 1.542-2.311 1.542-3.853 0-1.11-0.295-2.202-0.89-3.276-0.596-1.074-2.005-2.62-4.231-4.637s-3.768-3.7-4.633-5.066c-0.869-1.361-1.511-2.919-1.929-4.655z"></path>
</svg>
