<?xml version="1.0" encoding="utf-8"?>
<!-- Generated by IcoMoon.io -->
<!DOCTYPE svg PUBLIC "-//W3C//DTD SVG 1.1//EN" "http://www.w3.org/Graphics/SVG/1.1/DTD/svg11.dtd">
<svg version="1.1" xmlns="http://www.w3.org/2000/svg" xmlns:xlink="http://www.w3.org/1999/xlink" width="33" height="32" viewBox="0 0 33 32">
<path fill="#000" d="M12.324 1.278c-3.691 1.014-6.752 3.313-8.831 6.308-1.806 2.602-2.878 5.713-2.878 9.032s1.071 6.437 2.878 9.032c1.29 1.851 2.959 3.418 4.924 4.588 1.206 0.72 2.503 1.329 3.91 1.716 0.111 0.036 0.228 0.048 0.351 0.048 0.282 0 0.564-0.093 0.798-0.27 0.327-0.252 0.522-0.639 0.522-1.056v-28.12c0-0.411-0.192-0.804-0.522-1.050-0.33-0.252-0.759-0.333-1.152-0.228z"></path>
<path fill="#000" d="M20.858 1.314c-0.399-0.12-0.825-0.036-1.155 0.216-0.333 0.252-0.525 0.639-0.525 1.053v28.069c0 0.411 0.192 0.804 0.528 1.050 0.228 0.183 0.51 0.27 0.792 0.27 0.123 0 0.246-0.018 0.363-0.048 1.359-0.387 2.614-0.984 3.793-1.689 4.717-2.824 7.802-7.946 7.802-13.614-0.006-7.091-4.768-13.38-11.598-15.307z"></path>
</svg>
