<?xml version="1.0" encoding="utf-8"?>
<!-- Generated by IcoMoon.io -->
<!DOCTYPE svg PUBLIC "-//W3C//DTD SVG 1.1//EN" "http://www.w3.org/Graphics/SVG/1.1/DTD/svg11.dtd">
<svg version="1.1" xmlns="http://www.w3.org/2000/svg" xmlns:xlink="http://www.w3.org/1999/xlink" width="23" height="32" viewBox="0 0 23 32">
<path fill="#000" d="M1.887 32c0.261 0 0.522-0.079 0.755-0.252l14.435-10.756c0.459-0.343 0.657-0.953 0.484-1.51s-0.676-0.947-1.236-0.947h-2.359l4.975-5.252c0.368-0.387 0.472-0.972 0.277-1.475-0.201-0.503-0.676-0.83-1.198-0.83h-2.83l7.064-7.444c0.368-0.387 0.478-0.972 0.277-1.475s-0.676-0.827-1.198-0.827h-7.51c-0.343 0-0.679 0.142-0.921 0.399l-8.8 9.268c-0.365 0.387-0.475 0.969-0.274 1.475s0.67 0.827 1.198 0.827h4.516l-5.441 5.743c-0.365 0.387-0.475 0.972-0.274 1.475s0.67 0.83 1.198 0.83h3.23l-7.334 8.488c-0.201 0.239-0.289 0.535-0.305 0.837-0.019 0.343 0.066 0.692 0.305 0.969 0.255 0.302 0.604 0.456 0.966 0.456z"></path>
</svg>
