<?xml version="1.0" encoding="utf-8"?>
<!-- Generated by IcoMoon.io -->
<!DOCTYPE svg PUBLIC "-//W3C//DTD SVG 1.1//EN" "http://www.w3.org/Graphics/SVG/1.1/DTD/svg11.dtd">
<svg version="1.1" xmlns="http://www.w3.org/2000/svg" xmlns:xlink="http://www.w3.org/1999/xlink" width="32" height="32" viewBox="0 0 32 32">
<path fill="#000" d="M15.96 1.231c-8.474 0-15.343 6.888-15.343 15.387 0 8.496 6.869 15.383 15.343 15.383 8.476 0 15.345-6.888 15.345-15.383 0-8.499-6.869-15.387-15.345-15.387zM22.429 21.123c-0.236 0.424-0.672 0.659-1.118 0.659-0.213 0-0.424-0.048-0.626-0.165l-5.363-3.008c-0.588-0.327-0.955-0.953-0.955-1.623v-9.539c0-0.711 0.578-1.287 1.283-1.287 0.707 0 1.285 0.576 1.285 1.287v9.12l5.002 2.808c0.615 0.348 0.836 1.133 0.492 1.748z"></path>
</svg>
