<?xml version="1.0" encoding="utf-8"?>
<!-- Generated by IcoMoon.io -->
<!DOCTYPE svg PUBLIC "-//W3C//DTD SVG 1.1//EN" "http://www.w3.org/Graphics/SVG/1.1/DTD/svg11.dtd">
<svg version="1.1" xmlns="http://www.w3.org/2000/svg" xmlns:xlink="http://www.w3.org/1999/xlink" width="41" height="32" viewBox="0 0 41 32">
<path fill="#000" d="M2.248 23.329h21.108v7.037c0 0.656 0.401 1.252 1.015 1.507 0.202 0.088 0.408 0.126 0.618 0.126 0.424 0 0.851-0.164 1.164-0.477l13.746-13.754c0.305-0.305 0.477-0.721 0.477-1.156s-0.172-0.851-0.477-1.156l-13.746-13.75c-0.473-0.469-1.179-0.603-1.782-0.355-0.611 0.252-1.015 0.855-1.015 1.511v7.037h-21.108c-0.901 0-1.633 0.729-1.633 1.633v10.159c0 0.908 0.733 1.637 1.633 1.637z"></path>
</svg>
