<?xml version="1.0" encoding="utf-8"?>
<!-- Generated by IcoMoon.io -->
<!DOCTYPE svg PUBLIC "-//W3C//DTD SVG 1.1//EN" "http://www.w3.org/Graphics/SVG/1.1/DTD/svg11.dtd">
<svg version="1.1" xmlns="http://www.w3.org/2000/svg" xmlns:xlink="http://www.w3.org/1999/xlink" width="30" height="32" viewBox="0 0 30 32">
<path fill="#000" d="M20.334 15.223l4.561-4.76c0.373 0.241 0.81 0.39 1.284 0.417 1.474 0.085 2.738-1.040 2.822-2.512 0.086-1.476-1.040-2.739-2.514-2.824-1.472-0.086-2.736 1.040-2.824 2.514-0.036 0.623 0.147 1.21 0.481 1.686l-4.381 4.572c-0.879-1.125-2.196-1.891-3.697-2.036v-5.752c1.228-0.242 2.153-1.321 2.153-2.622 0-1.476-1.198-2.673-2.675-2.673s-2.672 1.198-2.672 2.673c0 1.301 0.927 2.38 2.153 2.622v5.753c-1.127 0.108-2.15 0.568-2.963 1.265l-4.659-4.598c0.344-0.664 0.244-1.499-0.312-2.058-0.691-0.689-1.809-0.689-2.501 0-0.689 0.688-0.689 1.806 0 2.499 0.564 0.562 1.411 0.657 2.080 0.3l4.671 4.61c-0.717 0.91-1.149 2.058-1.149 3.305 0 0.146 0.010 0.291 0.022 0.435l-4.335 0.202c-0.3-1.215-1.423-2.087-2.717-2.026-1.476 0.069-2.614 1.32-2.546 2.794 0.069 1.476 1.321 2.616 2.795 2.546 1.298-0.059 2.334-1.035 2.517-2.273l4.471-0.21c0.239 0.83 0.669 1.576 1.242 2.187l-3.91 3.698c-0.64-0.363-1.46-0.303-2.040 0.213-0.73 0.649-0.793 1.765-0.144 2.494s1.765 0.793 2.494 0.144c0.607-0.54 0.745-1.401 0.403-2.096l3.981-3.763c0.745 0.535 1.633 0.888 2.597 0.981v5.614c-0.722 0.224-1.247 0.895-1.247 1.689 0 0.974 0.793 1.765 1.767 1.765 0.976 0 1.767-0.791 1.767-1.765 0-0.795-0.525-1.465-1.247-1.689v-5.614c0.813-0.078 1.574-0.344 2.24-0.747l5.511 4.535c-0.202 0.376-0.319 0.806-0.319 1.262 0 1.476 1.196 2.673 2.673 2.673 1.476 0 2.673-1.198 2.673-2.673 0-1.477-1.198-2.672-2.673-2.672-0.644 0-1.235 0.227-1.694 0.603l-5.314-4.371c0.834-0.767 1.426-1.794 1.642-2.956l3.847-0.178c0.256 0.71 0.952 1.201 1.745 1.164 0.974-0.042 1.73-0.872 1.682-1.847s-0.872-1.726-1.848-1.681c-0.793 0.037-1.442 0.593-1.628 1.323l-3.71 0.174c-0.007-0.834-0.208-1.618-0.557-2.318z"></path>
</svg>
