<?xml version="1.0" encoding="utf-8"?>
<!-- Generated by IcoMoon.io -->
<!DOCTYPE svg PUBLIC "-//W3C//DTD SVG 1.1//EN" "http://www.w3.org/Graphics/SVG/1.1/DTD/svg11.dtd">
<svg version="1.1" xmlns="http://www.w3.org/2000/svg" xmlns:xlink="http://www.w3.org/1999/xlink" width="41" height="32" viewBox="0 0 41 32">
<path fill="#000" d="M17.003 12.722c-0.217-0.536-0.737-0.883-1.314-0.883l-3.932 0.007c1.677-2.937 4.848-4.882 8.369-4.882h0.014c1.586 0 3.096 0.37 4.488 1.107 0.682 0.357 1.46 0.431 2.19 0.207 0.727-0.231 1.331-0.727 1.687-1.406 0.353-0.676 0.424-1.45 0.2-2.18-0.224-0.737-0.723-1.334-1.399-1.691-2.197-1.161-4.675-1.772-7.174-1.772h-0.007c-6.692 0.007-12.573 4.383-14.61 10.617h-0.73l-2.743 0.007c-0.577 0-1.093 0.346-1.321 0.876-0.221 0.536-0.098 1.148 0.312 1.558l6.828 6.818c0.268 0.265 0.625 0.418 1.008 0.418 0.377 0 0.744-0.153 1.008-0.418l6.818-6.831c0.404-0.411 0.53-1.022 0.306-1.552z"></path>
<path fill="#000" d="M32.659 11.337c-0.557-0.557-1.453-0.557-2.017 0l-6.814 6.831c-0.407 0.404-0.533 1.019-0.312 1.552 0.224 0.53 0.75 0.883 1.321 0.883h0.007l4.078-0.007c-1.521 3.334-4.876 5.667-8.773 5.673h-0.007c-1.891 0-3.721-0.55-5.3-1.579-0.479-0.323-1.029-0.475-1.565-0.475-0.934 0-1.85 0.458-2.4 1.294-0.869 1.321-0.502 3.103 0.822 3.972 2.366 1.558 5.12 2.394 7.958 2.479 0.166 0.007 0.326 0.041 0.486 0.041h0.007c0.119 0 0.231-0.034 0.353-0.041 3.972-0.092 7.7-1.65 10.518-4.482 1.942-1.935 3.283-4.312 3.972-6.882l3.494-0.007c0.577 0 1.1-0.353 1.314-0.883 0.224-0.53 0.098-1.148-0.306-1.552l-6.835-6.818z"></path>
</svg>
