<?xml version="1.0" encoding="utf-8"?>
<!-- Generated by IcoMoon.io -->
<!DOCTYPE svg PUBLIC "-//W3C//DTD SVG 1.1//EN" "http://www.w3.org/Graphics/SVG/1.1/DTD/svg11.dtd">
<svg version="1.1" xmlns="http://www.w3.org/2000/svg" xmlns:xlink="http://www.w3.org/1999/xlink" width="33" height="32" viewBox="0 0 33 32">
<path fill="#000" d="M24.69 13.818c-1.561 0-3.013 0.477-4.216 1.291v-0.006c2.088-1.339 3.475-3.679 3.475-6.344 0-4.158-3.373-7.528-7.533-7.528-4.158 0-7.53 3.371-7.53 7.528 0 2.665 1.387 5.005 3.475 6.344v0.006c-1.203-0.814-2.652-1.291-4.216-1.291-4.158 0-7.528 3.371-7.528 7.528 0 4.16 3.371 7.53 7.528 7.53 3.046 0 5.667-1.809 6.854-4.41l-2.694 7.533h8.232l-2.696-7.533c1.189 2.6 3.808 4.41 6.854 4.41 4.158 0 7.528-3.371 7.528-7.53-0.002-4.158-3.375-7.528-7.533-7.528z"></path>
</svg>
