<?xml version="1.0" encoding="utf-8"?>
<!-- Generated by IcoMoon.io -->
<!DOCTYPE svg PUBLIC "-//W3C//DTD SVG 1.1//EN" "http://www.w3.org/Graphics/SVG/1.1/DTD/svg11.dtd">
<svg version="1.1" xmlns="http://www.w3.org/2000/svg" xmlns:xlink="http://www.w3.org/1999/xlink" width="32" height="32" viewBox="0 0 32 32">
<path fill="#000" d="M30.97 17.32l-5.987 3.276c-2.106 1.154-3.835 2.886-4.992 4.992l-3.272 5.987c-0.31 0.565-1.12 0.567-1.434 0l-3.272-5.989c-1.15-2.1-2.874-3.825-4.976-4.974l-5.999-3.27c-0.563-0.308-0.563-1.122 0-1.432l5.987-3.274c2.11-1.154 3.843-2.886 4.992-4.996l3.274-5.985c0.31-0.565 1.118-0.565 1.43 0l3.288 6.003c1.142 2.094 2.866 3.815 4.956 4.956l6.007 3.278c0.565 0.308 0.565 1.12-0.002 1.428z"></path>
</svg>
