<?xml version="1.0" encoding="utf-8"?>
<!-- Generated by IcoMoon.io -->
<!DOCTYPE svg PUBLIC "-//W3C//DTD SVG 1.1//EN" "http://www.w3.org/Graphics/SVG/1.1/DTD/svg11.dtd">
<svg version="1.1" xmlns="http://www.w3.org/2000/svg" xmlns:xlink="http://www.w3.org/1999/xlink" width="32" height="32" viewBox="0 0 32 32">
<path fill="#000" d="M23.241 8.94h-14.477c-0.243 0-0.439 0.196-0.439 0.438v14.477c0 0.243 0.196 0.439 0.439 0.439h14.477c0.243 0 0.439-0.196 0.439-0.439v-14.476c-0.001-0.243-0.196-0.439-0.439-0.439zM14.945 16.608l-5.139 5.141v-10.281l5.139 5.14zM10.854 10.421h10.278l-5.139 5.139-5.139-5.139zM15.992 17.655l5.159 5.159h-10.317l5.158-5.159zM17.040 16.608l5.159-5.159v10.318l-5.159-5.159z"></path>
<path fill="#000" d="M17.212 21.223c-0.001-0.009-0.001-0.017-0.003-0.024-0.081-0.806-0.813-2.305-1.097-2.86-0.045-0.090-0.173-0.090-0.221 0-0.284 0.554-1.018 2.051-1.096 2.865-0.001 0.004-0.001 0.012-0.001 0.016-0.004 0.041-0.007 0.079-0.007 0.116 0 0.672 0.545 1.217 1.217 1.217s1.215-0.544 1.215-1.217c0-0.034-0.003-0.072-0.006-0.111z"></path>
</svg>
