<?xml version="1.0" encoding="utf-8"?>
<!-- Generated by IcoMoon.io -->
<!DOCTYPE svg PUBLIC "-//W3C//DTD SVG 1.1//EN" "http://www.w3.org/Graphics/SVG/1.1/DTD/svg11.dtd">
<svg version="1.1" xmlns="http://www.w3.org/2000/svg" xmlns:xlink="http://www.w3.org/1999/xlink" width="32" height="32" viewBox="0 0 32 32">
<path fill="#000" d="M26.393 25.962v-19.208c0-0.42-0.341-0.761-0.761-0.761h-19.26c-0.421 0-0.761 0.341-0.761 0.761v19.729c0 0.42 0.341 0.76 0.761 0.76h19.258c0.42 0 0.761-0.341 0.761-0.76v-0.521zM12.123 25.762h-4.236l1.419-1.419h13.374l1.419 1.419h-11.977zM7.092 8.993v-0.238l1.185 1.185v13.338l-1.185 1.185v-15.469zM24.912 8.993v15.487l-1.185-1.185v-13.374l1.185-1.185v0.258zM19.219 22.861h-8.432l5.206-5.206 5.206 5.206h-1.98zM9.758 11.42l5.188 5.188-5.188 5.188v-10.376zM10.805 10.374h10.376l-5.188 5.188-5.188-5.188zM17.041 16.608l5.205-5.206v10.412l-5.205-5.206zM22.661 8.893h-13.337l-1.419-1.419h16.176l-1.419 1.419z"></path>
<path fill="#000" d="M15.875 18.206c-0.284 0.554-1.018 2.051-1.096 2.865-0.001 0.004-0.001 0.012-0.001 0.016-0.003 0.030-0.004 0.058-0.005 0.086-0.001 0.010-0.002 0.020-0.002 0.030 0 0.352 0.152 0.666 0.39 0.888 0.217 0.202 0.506 0.328 0.826 0.328 0.238 0 0.458-0.071 0.646-0.19 0.341-0.215 0.569-0.593 0.569-1.027 0-0.035-0.003-0.073-0.006-0.111-0.001-0.009-0.001-0.017-0.003-0.024-0.004-0.036-0.015-0.078-0.020-0.116-0.13-0.826-0.805-2.214-1.077-2.745-0.044-0.089-0.173-0.089-0.221 0.001z"></path>
</svg>
