<?xml version="1.0" encoding="utf-8"?>
<!-- Generated by IcoMoon.io -->
<!DOCTYPE svg PUBLIC "-//W3C//DTD SVG 1.1//EN" "http://www.w3.org/Graphics/SVG/1.1/DTD/svg11.dtd">
<svg version="1.1" xmlns="http://www.w3.org/2000/svg" xmlns:xlink="http://www.w3.org/1999/xlink" width="32" height="32" viewBox="0 0 32 32">
<path fill="#000" d="M28.22 3.659h-24.436c-0.409 0-0.74 0.332-0.74 0.74v24.435c0 0.409 0.332 0.74 0.74 0.74h24.436c0.409 0 0.74-0.331 0.74-0.74v-24.435c0-0.409-0.331-0.74-0.74-0.74zM8.277 5.14h18.137l-0.852 0.852h-19.138l-0.852-0.852h2.704zM24.912 8.993v15.487l-7.872-7.872 7.872-7.872v0.258zM21.847 25.762h-13.96l8.106-8.106 8.106 8.106h-2.252zM7.092 8.993v-0.238l7.854 7.854-7.854 7.854v-15.469zM22.661 8.893l-6.668 6.668-8.088-8.088h16.176l-1.419 1.419zM4.524 6.186l1.087 1.087v18.67l-1.087 1.087v-20.844zM8.277 28.094h-2.723l0.852-0.852h19.174l0.852 0.852h-18.154zM27.48 27.048l-1.087-1.087v-18.705l1.087-1.087v20.879z"></path>
<path fill="#000" d="M14.762 24.213c-0.003-0.036-0.015-0.078-0.020-0.116-0.055-0.348-0.207-0.795-0.385-1.237-0.244-0.606-0.534-1.201-0.692-1.508-0.045-0.090-0.173-0.090-0.221 0-0.157 0.306-0.449 0.901-0.695 1.508-0.198 0.492-0.367 0.992-0.401 1.357-0.001 0.004-0.001 0.012-0.001 0.016-0.003 0.030-0.004 0.058-0.005 0.086 0 0.007-0.001 0.016-0.001 0.022 0 0.002 0 0.005 0 0.007 0 0.352 0.152 0.666 0.39 0.888 0.217 0.202 0.506 0.328 0.826 0.328 0.238 0 0.458-0.071 0.646-0.19 0.34-0.215 0.569-0.593 0.569-1.027 0-0.002 0-0.005 0-0.007-0.001-0.033-0.003-0.068-0.006-0.104-0.001-0.007-0.001-0.016-0.003-0.023z"></path>
<path fill="#000" d="M19.624 24.213c-0.004-0.036-0.015-0.078-0.020-0.116-0.055-0.348-0.207-0.795-0.385-1.237-0.244-0.606-0.535-1.201-0.692-1.508-0.045-0.090-0.173-0.090-0.221 0-0.157 0.306-0.449 0.901-0.695 1.508-0.199 0.492-0.367 0.992-0.402 1.357-0.001 0.004-0.001 0.012-0.001 0.016-0.003 0.030-0.004 0.058-0.005 0.086-0.001 0.007-0.001 0.016-0.001 0.022 0 0.002-0.001 0.005-0.001 0.007 0 0.352 0.152 0.666 0.39 0.888 0.217 0.202 0.506 0.328 0.826 0.328 0.238 0 0.458-0.071 0.646-0.19 0.341-0.215 0.569-0.593 0.569-1.027 0-0.002 0-0.005 0-0.007-0.001-0.033-0.003-0.068-0.006-0.104 0-0.007 0-0.016-0.001-0.023z"></path>
</svg>
