<?xml version="1.0" encoding="utf-8"?>
<!-- Generated by IcoMoon.io -->
<!DOCTYPE svg PUBLIC "-//W3C//DTD SVG 1.1//EN" "http://www.w3.org/Graphics/SVG/1.1/DTD/svg11.dtd">
<svg version="1.1" xmlns="http://www.w3.org/2000/svg" xmlns:xlink="http://www.w3.org/1999/xlink" width="32" height="32" viewBox="0 0 32 32">
<path fill="#000" d="M28.22 3.659h-24.436c-0.409 0-0.74 0.332-0.74 0.74v24.435c0 0.409 0.332 0.74 0.74 0.74h24.436c0.409 0 0.74-0.331 0.74-0.74v-24.435c0-0.409-0.331-0.74-0.74-0.74zM8.277 5.14h18.137l-3.752 3.752h-13.338l-3.752-3.752h2.704zM22.246 21.814l-5.205-5.206 5.205-5.206v10.412zM19.219 22.861h-8.432l5.206-5.206 5.206 5.206h-1.98zM21.181 10.374l-5.188 5.188-5.188-5.188h10.375zM9.758 11.42l5.188 5.188-5.188 5.188v-10.376zM4.524 6.186l3.753 3.753v13.338l-3.753 3.753v-20.844zM8.277 28.094h-2.723l3.752-3.752h13.374l3.752 3.752h-18.155zM27.48 27.048l-3.753-3.753v-13.373l3.753-3.753v20.88z"></path>
<path fill="#000" d="M15.875 18.206c-0.284 0.554-1.018 2.051-1.096 2.865-0.001 0.004-0.001 0.012-0.001 0.016-0.003 0.030-0.004 0.058-0.005 0.086-0.001 0.010-0.002 0.020-0.002 0.030 0 0.352 0.152 0.666 0.39 0.888 0.217 0.202 0.506 0.328 0.826 0.328 0.238 0 0.458-0.071 0.646-0.19 0.341-0.215 0.569-0.593 0.569-1.027 0-0.035-0.003-0.073-0.006-0.111-0.001-0.009-0.001-0.017-0.003-0.024-0.004-0.036-0.015-0.078-0.020-0.116-0.13-0.826-0.805-2.214-1.077-2.745-0.044-0.089-0.173-0.089-0.221 0.001z"></path>
</svg>
