<?xml version="1.0" encoding="utf-8"?>
<!-- Generated by IcoMoon.io -->
<!DOCTYPE svg PUBLIC "-//W3C//DTD SVG 1.1//EN" "http://www.w3.org/Graphics/SVG/1.1/DTD/svg11.dtd">
<svg version="1.1" xmlns="http://www.w3.org/2000/svg" xmlns:xlink="http://www.w3.org/1999/xlink" width="32" height="32" viewBox="0 0 32 32">
<path fill="#000" d="M25.411 6.638h-18.818c-0.315 0-0.57 0.255-0.57 0.57v18.317l-0.096 0.096 0.096 0.096v0.309c0 0.315 0.255 0.57 0.57 0.57h0.309l0.073 0.073 0.073-0.073h18.365c0.315 0 0.571-0.255 0.571-0.57v-18.818c-0.001-0.315-0.256-0.57-0.572-0.57zM17.037 16.605l7.464-7.464v14.929l-7.464-7.464zM15.989 15.558l-7.438-7.439h14.876l-7.438 7.439zM7.504 9.165l7.439 7.439-7.439 7.44v-14.879zM15.989 17.652l7.464 7.463h-14.926l7.462-7.463z"></path>
<path fill="#000" d="M15.485 23.335c-0.081-0.806-0.815-2.305-1.097-2.86-0.045-0.090-0.175-0.090-0.221 0-0.284 0.554-1.018 2.051-1.096 2.865-0.001 0.004-0.001 0.012-0.001 0.016-0.004 0.041-0.006 0.079-0.006 0.116 0 0.672 0.543 1.217 1.215 1.217s1.217-0.544 1.217-1.217c0-0.035-0.003-0.073-0.006-0.111-0.002-0.009-0.002-0.018-0.004-0.024z"></path>
<path fill="#000" d="M18.807 23.36c-0.001-0.009-0.001-0.017-0.003-0.024-0.081-0.806-0.813-2.305-1.096-2.86-0.045-0.090-0.173-0.090-0.221 0-0.284 0.554-1.018 2.051-1.097 2.865-0.001 0.004-0.001 0.012-0.001 0.016-0.004 0.041-0.007 0.079-0.007 0.116 0 0.672 0.545 1.217 1.217 1.217s1.215-0.544 1.215-1.217c0-0.035-0.003-0.072-0.006-0.111z"></path>
</svg>
