<?xml version="1.0" encoding="utf-8"?>
<!-- Generated by IcoMoon.io -->
<!DOCTYPE svg PUBLIC "-//W3C//DTD SVG 1.1//EN" "http://www.w3.org/Graphics/SVG/1.1/DTD/svg11.dtd">
<svg version="1.1" xmlns="http://www.w3.org/2000/svg" xmlns:xlink="http://www.w3.org/1999/xlink" width="32" height="32" viewBox="0 0 32 32">
<path fill="#000" d="M13.889 26.246c-0.081-0.806-0.815-2.305-1.098-2.86-0.045-0.090-0.175-0.090-0.221 0-0.284 0.554-1.018 2.051-1.096 2.865-0.001 0.004-0.001 0.012-0.001 0.016-0.004 0.041-0.006 0.079-0.006 0.116 0 0.672 0.543 1.217 1.215 1.217 0.673 0 1.217-0.544 1.217-1.217 0-0.035-0.003-0.073-0.006-0.111-0.001-0.008-0.001-0.017-0.003-0.024z"></path>
<path fill="#000" d="M17.209 26.246c-0.081-0.806-0.813-2.305-1.097-2.86-0.045-0.090-0.173-0.090-0.221 0-0.284 0.554-1.018 2.051-1.096 2.865-0.001 0.004-0.001 0.012-0.001 0.016-0.004 0.041-0.007 0.079-0.007 0.116 0 0.672 0.545 1.217 1.217 1.217s1.215-0.544 1.215-1.217c0-0.035-0.003-0.073-0.006-0.111-0.001-0.008-0.001-0.017-0.003-0.024z"></path>
<path fill="#000" d="M20.532 26.27c-0.001-0.009-0.001-0.017-0.003-0.024-0.081-0.806-0.814-2.305-1.097-2.86-0.045-0.090-0.175-0.090-0.221 0-0.284 0.554-1.018 2.051-1.097 2.865 0 0.004 0 0.012-0.001 0.016-0.003 0.041-0.006 0.079-0.006 0.116 0 0.672 0.545 1.217 1.217 1.217s1.217-0.544 1.217-1.217c-0.001-0.034-0.004-0.072-0.007-0.111z"></path>
<path fill="#000" d="M28.22 3.659h-24.436c-0.409 0-0.74 0.331-0.74 0.74v24.435c0 0.409 0.332 0.74 0.74 0.74h24.436c0.409 0 0.74-0.331 0.74-0.74v-24.435c0-0.409-0.331-0.74-0.74-0.74zM14.939 16.601l-10.414 10.414v-20.829l10.414 10.414zM5.573 5.14h20.827l-10.414 10.414-10.413-10.414zM15.986 17.648l10.447 10.446h-20.893l10.446-10.446zM17.033 16.601l10.446-10.446v20.893l-10.446-10.447z"></path>
</svg>
