<?xml version="1.0" encoding="utf-8"?>
<!-- Generated by IcoMoon.io -->
<!DOCTYPE svg PUBLIC "-//W3C//DTD SVG 1.1//EN" "http://www.w3.org/Graphics/SVG/1.1/DTD/svg11.dtd">
<svg version="1.1" xmlns="http://www.w3.org/2000/svg" xmlns:xlink="http://www.w3.org/1999/xlink" width="32" height="32" viewBox="0 0 32 32">
<path fill="#000" d="M16.966 13.398l-0.696 0.695 1.304 1.303 0.693-0.695c0.645-0.645 0.747-1.194 0.307-1.634s-0.952-0.326-1.608 0.332z"></path>
<path fill="#000" d="M27.328 1.23h-16.965c-1.085 0-2.104 0.424-2.869 1.188l-6.173 6.176c-0.436 0.435-0.706 1.037-0.706 1.701v19.296c0 1.33 1.078 2.408 2.407 2.408h19.296c0.666 0 1.271-0.271 1.706-0.71l6.172-6.172c0.767-0.766 1.188-1.784 1.188-2.868v-16.963c0.001-2.238-1.818-4.058-4.056-4.058zM9.495 27.096l-4.301-2.488c-0.382-0.231-0.465-0.619-0.26-0.964 0.116-0.197 0.294-0.301 0.497-0.319 0.153-0.015 0.316 0.014 0.486 0.116l3.089 1.889-1.781-2.993c-0.256-0.422-0.21-0.798 0.121-1.128 0.326-0.326 0.71-0.366 1.129-0.11l2.987 1.776-1.889-3.089c-0.237-0.389-0.142-0.779 0.204-0.983 0.344-0.204 0.733-0.121 0.963 0.263l2.494 4.307c0.242 0.433 0.204 0.805-0.107 1.118-0.325 0.325-0.704 0.356-1.122 0.1l-3.117-1.838 1.832 3.133c0.256 0.421 0.217 0.791-0.107 1.118-0.078 0.078-0.161 0.139-0.248 0.182-0.202 0.1-0.428 0.092-0.668 0-0.066-0.026-0.131-0.048-0.201-0.088zM15.331 21.607c0.179 0.396 0.045 0.733-0.279 0.906-0.34 0.172-0.71 0.070-0.882-0.319l-2.12-4.837c-0.179-0.395-0.116-0.74 0.179-1.033 0.3-0.3 0.645-0.364 1.034-0.191l4.851 2.118c0.387 0.172 0.488 0.543 0.319 0.882-0.194 0.358-0.491 0.453-0.909 0.281l-0.809-0.338-1.73 1.729 0.345 0.803zM19.307 15.409l-0.86 0.861 0.946 0.945c0.312 0.312 0.298 0.71 0.025 0.983s-0.663 0.281-0.975-0.032l-3.392-3.389c-0.381-0.382-0.381-0.829 0.001-1.212l1.204-1.205c0.531-0.53 1.087-0.818 1.673-0.868 0.589-0.051 1.113 0.153 1.572 0.612 0.465 0.466 0.682 1.003 0.645 1.613-0.019 0.304-0.098 0.594-0.235 0.872-0.14 0.283-0.341 0.557-0.604 0.818zM21.551 28.48v-17.401h-16.592c-0.513 0-0.928-0.415-0.928-0.928s0.415-0.928 0.928-0.928h17.134l4.939-4.953c0.363-0.365 0.949-0.363 1.312-0.001s0.364 0.949 0.001 1.314l-4.939 4.954v17.946c0 0.513-0.415 0.928-0.928 0.928s-0.927-0.417-0.927-0.93zM5.148 31.495c-0.256 0.037-0.464-0.047-0.605-0.19-0.099-0.1-0.169-0.227-0.179-0.378-0.059-0.364 0.144-0.67 0.586-0.74 0.612-0.065 1.111-0.294 1.488-0.67 0.486-0.487 0.575-0.983 0.294-1.263-0.238-0.238-0.607-0.186-1.1 0.151l-0.574 0.396c-1.033 0.715-2.016 0.803-2.756 0.065-0.415-0.417-0.582-0.901-0.498-1.468 0.078-0.575 0.344-1.085 0.798-1.538 0.543-0.543 1.155-0.876 1.825-0.983 0.433-0.077 0.761 0.199 0.785 0.568 0.056 0.364-0.147 0.657-0.589 0.74-0.479 0.070-0.88 0.268-1.206 0.594-0.402 0.403-0.479 0.835-0.215 1.098 0.242 0.243 0.611 0.193 1.115-0.158l0.44-0.314c0.234-0.169 0.454-0.282 0.671-0.387 0.795-0.381 1.484-0.322 2.070 0.165 0.052 0.044 0.111 0.062 0.162 0.113 0.408 0.409 0.572 0.905 0.497 1.48s-0.375 1.129-0.913 1.666c-0.411 0.411-0.883 0.7-1.413 0.882-0.219 0.074-0.446 0.135-0.685 0.171z"></path>
<path fill="#000" d="M14.457 19.647l1.109-1.109-2.016-0.908z"></path>
</svg>
