<?xml version="1.0" encoding="utf-8"?>
<!-- Generated by IcoMoon.io -->
<!DOCTYPE svg PUBLIC "-//W3C//DTD SVG 1.1//EN" "http://www.w3.org/Graphics/SVG/1.1/DTD/svg11.dtd">
<svg version="1.1" xmlns="http://www.w3.org/2000/svg" xmlns:xlink="http://www.w3.org/1999/xlink" width="32" height="32" viewBox="0 0 32 32">
<path fill="#000" d="M7.814 23.449l0.905 2.018 1.111-1.11z"></path>
<path fill="#000" d="M27.328 1.23h-16.965c-1.085 0-2.104 0.424-2.869 1.188l-6.173 6.176c-0.436 0.435-0.706 1.037-0.706 1.701v19.296c0 1.33 1.078 2.408 2.407 2.408h19.296c0.666 0 1.271-0.271 1.706-0.71l6.172-6.172c0.767-0.766 1.188-1.784 1.188-2.868v-16.963c0.001-2.238-1.818-4.058-4.056-4.058zM19.911 17.724c-0.033 0.073-0.080 0.142-0.142 0.204-0.274 0.275-0.663 0.281-0.975-0.032l-2.069-2.067 0.69 2.208c0.102 0.333 0.037 0.612-0.193 0.843-0.23 0.228-0.51 0.293-0.831 0.191l-2.215-0.696 2.069 2.069c0.312 0.312 0.307 0.701 0.032 0.975-0.274 0.275-0.663 0.281-0.977-0.032l-3.491-3.49c-0.352-0.352-0.371-0.766-0.032-1.105 0.25-0.249 0.543-0.326 0.868-0.217l3.377 1.105-1.099-3.382c-0.107-0.325-0.037-0.612 0.217-0.867 0.338-0.338 0.752-0.32 1.104 0.032l3.492 3.491c0.077 0.077 0.133 0.158 0.172 0.241v0.53zM9.595 27.424c0.177 0.396 0.043 0.735-0.281 0.908-0.34 0.172-0.71 0.070-0.882-0.319l-2.118-4.839c-0.18-0.395-0.116-0.739 0.177-1.033 0.301-0.3 0.645-0.364 1.034-0.191l4.85 2.118c0.388 0.172 0.49 0.543 0.319 0.882-0.193 0.358-0.492 0.453-0.906 0.279l-0.812-0.337-1.729 1.729 0.242 0.563 0.105 0.241zM9.756 18.866c0.274-0.274 0.663-0.281 0.975 0.032l3.529 3.529c0.312 0.312 0.307 0.701 0.032 0.975-0.274 0.275-0.663 0.281-0.977-0.032l-3.528-3.528c-0.314-0.314-0.305-0.701-0.032-0.977zM21.551 28.48v-17.401h-16.592c-0.513 0-0.928-0.415-0.928-0.928s0.415-0.928 0.928-0.928h17.134l4.939-4.953c0.363-0.365 0.949-0.363 1.312-0.001s0.364 0.949 0.001 1.314l-4.939 4.954v17.946c0 0.513-0.415 0.928-0.928 0.928s-0.927-0.417-0.927-0.93z"></path>
</svg>
