<?xml version="1.0" encoding="utf-8"?>
<!-- Generated by IcoMoon.io -->
<!DOCTYPE svg PUBLIC "-//W3C//DTD SVG 1.1//EN" "http://www.w3.org/Graphics/SVG/1.1/DTD/svg11.dtd">
<svg version="1.1" xmlns="http://www.w3.org/2000/svg" xmlns:xlink="http://www.w3.org/1999/xlink" width="32" height="32" viewBox="0 0 32 32">
<path fill="#000" d="M15.64 14.793l-0.376 0.376 2.721 2.721 0.382-0.384c1.118-1.117 1.205-2.139 0.279-3.063-0.887-0.887-1.89-0.766-3.007 0.351z"></path>
<path fill="#000" d="M27.328 1.23h-16.965c-1.085 0-2.104 0.424-2.869 1.188l-6.173 6.176c-0.436 0.435-0.706 1.037-0.706 1.701v19.296c0 1.33 1.078 2.408 2.407 2.408h19.296c0.666 0 1.271-0.271 1.706-0.71l6.172-6.172c0.767-0.766 1.188-1.784 1.188-2.868v-16.963c0.001-2.238-1.818-4.058-4.056-4.058zM19.611 13.478c0.118 0.117 0.202 0.243 0.3 0.367 0.545 0.697 0.766 1.468 0.652 2.177-0.099 0.558-0.326 1.082-0.652 1.563-0.154 0.228-0.325 0.45-0.53 0.652l-0.868 0.869c-0.382 0.382-0.831 0.381-1.213 0l-3.254-3.256c-0.382-0.382-0.382-0.829 0.001-1.212l0.868-0.868c0.508-0.509 1.076-0.864 1.699-1.069 0.158-0.052 0.318-0.1 0.483-0.132 0.429-0.087 0.886-0.039 1.336 0.132 0.407 0.155 0.81 0.409 1.179 0.776zM16.731 20.889l-1.946 1.948c-0.382 0.381-0.829 0.381-1.213-0.001l-3.395-3.395c-0.314-0.315-0.307-0.701-0.030-0.977 0.274-0.274 0.662-0.282 0.975 0.030l3.126 3.128 1.609-1.608c0.287-0.287 0.651-0.282 0.905-0.027 0.249 0.252 0.256 0.615-0.032 0.902zM8.161 20.449c0.274-0.274 0.662-0.281 0.975 0.030l3.529 3.529c0.312 0.312 0.307 0.703 0.032 0.977-0.275 0.275-0.664 0.281-0.978-0.032l-3.528-3.528c-0.312-0.314-0.305-0.701-0.030-0.977zM21.551 28.48v-17.401h-16.592c-0.513 0-0.928-0.415-0.928-0.928s0.415-0.928 0.928-0.928h17.134l4.939-4.953c0.363-0.365 0.949-0.363 1.312-0.001s0.364 0.949 0.001 1.314l-4.939 4.954v17.946c0 0.513-0.415 0.928-0.928 0.928s-0.927-0.417-0.927-0.93zM1.689 26.977c0.006-0.010 0.006-0.021 0.011-0.029 0.204-0.345 0.593-0.439 0.982-0.202l3.089 1.889-1.781-2.993c-0.256-0.422-0.21-0.798 0.121-1.131 0.326-0.325 0.71-0.363 1.129-0.107l2.987 1.773-1.889-3.088c-0.237-0.389-0.142-0.777 0.204-0.983 0.344-0.202 0.733-0.121 0.963 0.261l2.494 4.308c0.102 0.182 0.143 0.351 0.146 0.51 0.004 0.221-0.073 0.425-0.253 0.605-0.325 0.326-0.704 0.358-1.122 0.102l-3.117-1.838 1.832 3.133c0.256 0.421 0.217 0.791-0.107 1.117-0.314 0.315-0.69 0.344-1.118 0.096l-4.301-2.49c-0.124-0.074-0.204-0.168-0.265-0.268-0.121-0.202-0.127-0.44-0.004-0.666z"></path>
</svg>
