<?xml version="1.0" encoding="utf-8"?>
<!-- Generated by IcoMoon.io -->
<!DOCTYPE svg PUBLIC "-//W3C//DTD SVG 1.1//EN" "http://www.w3.org/Graphics/SVG/1.1/DTD/svg11.dtd">
<svg version="1.1" xmlns="http://www.w3.org/2000/svg" xmlns:xlink="http://www.w3.org/1999/xlink" width="32" height="32" viewBox="0 0 32 32">
<path fill="#000" d="M27.328 1.23h-16.965c-1.085 0-2.104 0.424-2.869 1.188l-6.173 6.176c-0.436 0.435-0.706 1.037-0.706 1.701v19.296c0 1.33 1.078 2.408 2.407 2.408h19.296c0.666 0 1.271-0.271 1.706-0.71l6.172-6.172c0.767-0.766 1.188-1.784 1.188-2.868v-16.963c0.001-2.238-1.818-4.058-4.056-4.058zM14.92 19.245c0.429 0.429 0.913 0.645 1.437 0.645s0.975-0.198 1.364-0.587c0.366-0.364 0.575-0.752 0.645-1.18l-0.543-0.542-0.554 0.556c-0.281 0.281-0.652 0.267-0.887 0.032-0.249-0.25-0.256-0.613 0.026-0.894l0.882-0.882c0.381-0.382 0.829-0.382 1.212 0l0.882 0.88c0.217 0.217 0.312 0.44 0.287 0.682-0.084 0.862-0.442 1.616-1.073 2.247-0.657 0.657-1.43 0.994-2.311 1.021-0.875 0.019-1.652-0.312-2.322-0.983-0.697-0.695-1.036-1.479-1.010-2.347 0.019-0.875 0.363-1.64 1.032-2.311 0.582-0.58 1.265-0.906 2.044-0.97 0.432-0.026 0.733 0.235 0.739 0.6 0.032 0.376-0.198 0.657-0.651 0.701-0.491 0.032-0.919 0.23-1.29 0.6-0.352 0.351-0.53 0.785-0.543 1.308-0.011 0.51 0.202 0.99 0.634 1.424zM14.863 22.852c0.312 0.312 0.307 0.703 0.032 0.977-0.275 0.275-0.664 0.281-0.978-0.032l-3.528-3.528c-0.314-0.315-0.307-0.701-0.030-0.977 0.274-0.274 0.662-0.281 0.975 0.030l3.529 3.529zM5.703 24.022l0.868-0.868c0.64-0.638 1.366-1.047 2.183-1.199 0.818-0.166 1.743 0.135 2.514 0.905 0.784 0.784 1.084 1.71 0.95 2.547-0.114 0.641-0.389 1.242-0.802 1.777-0.116 0.15-0.239 0.298-0.378 0.436l-0.868 0.868c-0.382 0.384-0.831 0.384-1.213 0l-3.254-3.253c-0.172-0.172-0.254-0.358-0.272-0.545-0.004-0.041-0.004-0.084 0-0.127 0.018-0.184 0.1-0.37 0.272-0.542zM21.551 28.48v-17.401h-16.592c-0.513 0-0.928-0.415-0.928-0.928s0.415-0.928 0.928-0.928h17.134l4.939-4.953c0.363-0.365 0.949-0.363 1.312-0.001s0.364 0.949 0.001 1.314l-4.939 4.954v17.946c0 0.513-0.415 0.928-0.928 0.928s-0.927-0.417-0.927-0.93z"></path>
<path fill="#000" d="M9.641 27.271l0.384-0.384c1.115-1.117 1.204-2.139 0.279-3.063-0.887-0.889-1.889-0.767-3.007 0.349l-0.374 0.378 2.718 2.719z"></path>
</svg>
