<?xml version="1.0" encoding="utf-8"?>
<!-- Generated by IcoMoon.io -->
<!DOCTYPE svg PUBLIC "-//W3C//DTD SVG 1.1//EN" "http://www.w3.org/Graphics/SVG/1.1/DTD/svg11.dtd">
<svg version="1.1" xmlns="http://www.w3.org/2000/svg" xmlns:xlink="http://www.w3.org/1999/xlink" width="32" height="32" viewBox="0 0 32 32">
<path fill="#000" d="M14.613 17.050l-0.696 0.696 1.303 1.301 0.696-0.696c0.645-0.644 0.747-1.193 0.307-1.634-0.442-0.439-0.952-0.325-1.609 0.333z"></path>
<path fill="#000" d="M27.334 1.231h-16.979c-1.082 0.001-2.1 0.424-2.862 1.187l-6.173 6.176c-0.436 0.435-0.706 1.037-0.706 1.701v19.296c0 1.326 1.070 2.399 2.395 2.407h19.322c0.66-0.004 1.26-0.272 1.692-0.708l6.172-6.172c0.765-0.763 1.183-1.776 1.187-2.854v-16.991c-0.004-2.228-1.818-4.040-4.048-4.042zM12.045 25.861c0.314 0.312 0.3 0.708 0.026 0.982s-0.663 0.281-0.975-0.032l-3.122-3.121-0.875 0.873c-0.287 0.287-0.652 0.282-0.9 0.032-0.256-0.256-0.261-0.618 0.026-0.905l2.707-2.706c0.286-0.287 0.652-0.282 0.906-0.027 0.248 0.249 0.254 0.612-0.032 0.9l-0.882 0.882 3.12 3.122zM17.038 20.867c0.312 0.314 0.301 0.71 0.027 0.983-0.275 0.274-0.664 0.279-0.978-0.032l-3.388-3.389c-0.384-0.382-0.384-0.829 0-1.212l1.206-1.205c0.53-0.53 1.084-0.817 1.671-0.868s1.11 0.153 1.569 0.613c0.468 0.466 0.684 1.001 0.645 1.613-0.037 0.613-0.318 1.173-0.835 1.692l-0.864 0.858 0.945 0.945zM15.053 22.852c0.312 0.314 0.307 0.703 0.032 0.978-0.274 0.274-0.663 0.279-0.977-0.032l-3.528-3.529c-0.315-0.314-0.307-0.701-0.032-0.975 0.274-0.275 0.663-0.282 0.975 0.030l3.529 3.528zM21.551 28.48v-17.401h-16.592c-0.513 0-0.928-0.415-0.928-0.928s0.415-0.928 0.928-0.928h17.134l4.939-4.953c0.363-0.365 0.949-0.363 1.312-0.001s0.364 0.949 0.001 1.314l-4.939 4.954v17.946c0 0.513-0.415 0.928-0.928 0.928s-0.927-0.417-0.927-0.93z"></path>
</svg>
