<?xml version="1.0" encoding="utf-8"?>
<!-- Generated by IcoMoon.io -->
<!DOCTYPE svg PUBLIC "-//W3C//DTD SVG 1.1//EN" "http://www.w3.org/Graphics/SVG/1.1/DTD/svg11.dtd">
<svg version="1.1" xmlns="http://www.w3.org/2000/svg" xmlns:xlink="http://www.w3.org/1999/xlink" width="16" height="32" viewBox="0 0 16 32">
<path fill="#000" d="M15.090 31.404l-3-7.12h0.94c0.141 0 0.273-0.069 0.353-0.185s0.098-0.265 0.048-0.396l-2.612-6.907h0.925c0.143 0 0.275-0.071 0.355-0.189 0.079-0.118 0.096-0.268 0.043-0.4l-3.875-9.7c-0.065-0.163-0.223-0.27-0.399-0.27s-0.334 0.107-0.399 0.27l-3.876 9.7c-0.053 0.132-0.037 0.282 0.043 0.4s0.213 0.189 0.355 0.189h0.926l-2.613 6.908c-0.050 0.131-0.032 0.28 0.048 0.396s0.213 0.185 0.354 0.185h0.94l-3 7.12c-0.056 0.132-0.041 0.284 0.038 0.404s0.214 0.192 0.358 0.192h13.648c0.145 0 0.278-0.072 0.358-0.192s0.093-0.271 0.038-0.404zM4.629 15.937l3.241-8.112 3.241 8.112h-6.482zM3.331 23.425l2.508-6.629h4.061l2.508 6.629h-9.077zM1.693 31.141l2.889-6.856h6.576l2.889 6.856h-12.354z"></path>
<path fill="#000" d="M4.651 29.719c-0.046-0.45-0.455-1.288-0.613-1.598-0.025-0.051-0.098-0.051-0.124 0-0.159 0.309-0.569 1.146-0.613 1.599 0 0.003-0.001 0.006-0.001 0.009-0.002 0.023-0.003 0.044-0.003 0.065 0 0.375 0.304 0.679 0.68 0.679 0.374 0 0.678-0.303 0.678-0.679 0-0.020-0.001-0.041-0.003-0.063 0-0.004-0-0.009-0.001-0.013z"></path>
<path fill="#000" d="M6.505 29.719c-0.045-0.45-0.455-1.288-0.612-1.598-0.026-0.051-0.098-0.051-0.124 0-0.159 0.309-0.569 1.146-0.612 1.599-0.001 0.003-0.001 0.006-0.001 0.009-0.003 0.023-0.004 0.044-0.004 0.065 0 0.375 0.304 0.679 0.679 0.679s0.679-0.303 0.679-0.679c0-0.020-0.001-0.041-0.003-0.063 0-0.004-0-0.009-0.001-0.013z"></path>
<path fill="#000" d="M8.36 29.719c-0.046-0.45-0.455-1.288-0.612-1.598-0.026-0.051-0.097-0.051-0.124 0-0.159 0.309-0.569 1.146-0.613 1.599 0 0.003-0.001 0.006-0.001 0.009-0.002 0.023-0.003 0.044-0.003 0.065 0 0.375 0.304 0.679 0.68 0.679s0.679-0.303 0.679-0.679c0-0.020-0.001-0.041-0.004-0.063 0-0.004-0.001-0.009-0.001-0.013z"></path>
<path fill="#000" d="M5.267 22.657c0.104 0.063 0.224 0.102 0.355 0.102 0.375 0 0.678-0.304 0.678-0.68 0-0.020-0.001-0.041-0.004-0.063 0-0.004-0-0.009-0.001-0.013-0.026-0.264-0.178-0.659-0.33-1.005-0.109-0.244-0.216-0.465-0.282-0.593-0.025-0.050-0.097-0.050-0.124 0-0.158 0.309-0.569 1.145-0.612 1.6-0 0.003-0 0.006-0.001 0.009-0.002 0.022-0.003 0.045-0.003 0.065 0 0.245 0.13 0.457 0.325 0.577z"></path>
<path fill="#000" d="M7.476 22.759c0.375 0 0.68-0.304 0.68-0.68 0-0.020-0.002-0.041-0.004-0.063 0-0.004-0.001-0.009-0.002-0.013-0.045-0.45-0.454-1.288-0.613-1.598-0.026-0.050-0.098-0.050-0.124 0-0.158 0.309-0.569 1.145-0.612 1.6-0 0.003-0 0.006-0.001 0.009-0.002 0.022-0.004 0.045-0.004 0.065 0 0.375 0.304 0.68 0.679 0.68z"></path>
<path fill="#000" d="M7.492 15.177c0.1 0.058 0.215 0.094 0.338 0.094 0.148 0 0.284-0.049 0.396-0.129 0.171-0.124 0.284-0.323 0.284-0.55 0-0.020-0.001-0.041-0.003-0.063-0.001-0.004-0.001-0.008-0.002-0.013-0.046-0.45-0.455-1.287-0.612-1.598-0.026-0.051-0.098-0.051-0.124 0-0.158 0.309-0.569 1.145-0.613 1.601-0 0.003-0 0.006-0 0.009-0.002 0.022-0.003 0.044-0.003 0.065 0 0.251 0.138 0.468 0.341 0.586z"></path>
</svg>
