<?xml version="1.0" encoding="iso-8859-1"?>
<!-- Generator: Adobe Illustrator 16.0.0, SVG Export Plug-In . SVG Version: 6.00 Build 0)  -->
<!DOCTYPE svg PUBLIC "-//W3C//DTD SVG 1.1//EN" "http://www.w3.org/Graphics/SVG/1.1/DTD/svg11.dtd">
<svg version="1.1" xmlns="http://www.w3.org/2000/svg" xmlns:xlink="http://www.w3.org/1999/xlink" x="0px" y="0px" width="47.75px"
	 height="26.783px" viewBox="0 0 47.75 26.783" style="enable-background:new 0 0 47.75 26.783;" xml:space="preserve">
<g id="MartianChess">
	<g>
		<path style="fill:#231F20;" d="M46.56,1.03H1.19c-0.373,0-0.675,0.303-0.675,0.675v24.403c0,0.373,0.302,0.675,0.675,0.675h45.37
			c0.373,0,0.676-0.302,0.676-0.675V1.705C47.235,1.333,46.933,1.03,46.56,1.03z M45.886,25.434H1.865V2.38h44.021V25.434z"/>
		<path style="fill:#231F20;" d="M25.729,22.582h16.599c0.372,0,0.674-0.302,0.674-0.675v-16c0-0.373-0.302-0.675-0.674-0.675
			H25.729c-0.372,0-0.675,0.302-0.675,0.675v16C25.054,22.28,25.356,22.582,25.729,22.582z M26.403,17.976h3.721v3.257h-3.721
			V17.976z M41.651,14.091v3.533h-3.248v-3.533H41.651z M30.481,14.091h3.604v3.533h-3.604V14.091z M34.442,10.206h3.605v3.534
			h-3.605V10.206z M34.442,17.976h3.605v3.257h-3.605V17.976z M34.085,9.856h-3.604V6.582h3.604V9.856z M30.124,10.206v3.534h-3.721
			v-3.534H30.124z M41.651,9.856h-3.248V6.582h3.248V9.856z"/>
		<path style="fill:#231F20;" d="M5.515,22.41h15.968c0.373,0,0.675-0.302,0.675-0.675V6.079c0-0.373-0.302-0.675-0.675-0.675H5.515
			c-0.373,0-0.675,0.302-0.675,0.675v15.656C4.84,22.108,5.143,22.41,5.515,22.41z M20.808,14.091v3.533h-3.156v-3.533H20.808z
			 M9.729,14.091h3.604v3.533H9.729V14.091z M13.691,10.206h3.604v3.534h-3.604V10.206z M13.691,17.976h3.604v3.085h-3.604V17.976z
			 M13.333,9.856H9.729V6.754h3.604V9.856z M9.373,10.206v3.534H6.19v-3.534H9.373z M6.19,17.976h3.183v3.085H6.19V17.976z
			 M20.808,9.856h-3.156V6.754h3.156V9.856z"/>
	</g>
</g>
<g id="Layer_1">
</g>
</svg>
