<?xml version="1.0" encoding="iso-8859-1"?>
<!-- Generator: Adobe Illustrator 16.0.0, SVG Export Plug-In . SVG Version: 6.00 Build 0)  -->
<!DOCTYPE svg PUBLIC "-//W3C//DTD SVG 1.1//EN" "http://www.w3.org/Graphics/SVG/1.1/DTD/svg11.dtd">
<svg version="1.1" xmlns="http://www.w3.org/2000/svg" xmlns:xlink="http://www.w3.org/1999/xlink" x="0px" y="0px" width="24.19px"
	 height="25.966px" viewBox="0 0 24.19 25.966" style="enable-background:new 0 0 24.19 25.966;" xml:space="preserve">
<g id="HexPaper">
	<g>
		<path style="fill:#231F20;" d="M23.563,6.313l-0.484-0.233c-0.172-0.082-0.449,0.137-0.621,0.493l-2.437,5.066V0.999H0.5v24.967
			h19.521V14.473l3.544-7.369C23.735,6.75,23.733,6.395,23.563,6.313z M19.021,13.717l-3,6.238l-0.598,2.117
			c-0.106,0.219-0.098,0.443,0.021,0.498c0.116,0.059,0.297-0.074,0.404-0.297l1.279-1.785l1.894-3.937v8.414H1.5V4.044h17.521
			V13.717z M19.021,3.544H1.5V1.999h17.521V3.544z"/>
		<path style="fill:#231F20;" d="M3.4,24.396h2.425l1.126-1.95h2.093l1.167,2.021h2.425l1.212-2.101l-1.125-1.95l1.125-1.95
			l-1.126-1.95l1.04-1.802h2.27l1.212-2.1l-1.125-1.95l1.125-1.95l-1.212-2.1h-2.271l-1.125-1.95h-2.425L9.126,6.542H6.951
			l-1.126-1.95H3.4l-1.213,2.1l1.126,1.951l-1.126,1.95l1.126,1.95l-1.126,1.951l1.126,1.949l-1.126,1.951l1.126,1.95l-1.126,1.95
			L3.4,24.396z M6.968,22.145l-1.039-1.801l1.039-1.799h2.076l1.041,1.802l-1.037,1.798H6.968z M10.085,12.545l-1.038,1.797H6.968
			l-1.039-1.8l1.039-1.8h2.075L10.085,12.545z M9.347,10.662l1.038-1.798h2.079l1.04,1.8l-1.04,1.8h-2.075L9.347,10.662z
			 M9.044,14.644l1.041,1.803l-1.038,1.798H6.968l-1.039-1.801l1.039-1.8H9.044z M13.503,22.366l-1.04,1.8h-2.079l-1.039-1.8
			l1.039-1.8h2.079L13.503,22.366z M13.503,18.466l-1.04,1.8h-2.075l-1.042-1.803l1.038-1.797h2.079L13.503,18.466z M12.463,16.364
			h-2.076l-1.041-1.802l1.038-1.798h2.079l1.04,1.8L12.463,16.364z M16.898,12.614l-1.04,1.8H13.78l-1.04-1.8l1.04-1.8h2.078
			L16.898,12.614z M13.78,6.914h2.078l1.04,1.8l-1.04,1.8H13.78l-1.04-1.8L13.78,6.914z M10.384,4.963h2.079l1.04,1.8l-1.04,1.801
			h-2.075L9.347,6.761L10.384,4.963z M6.968,6.842h2.076l1.041,1.803l-1.038,1.798H6.968l-1.039-1.8L6.968,6.842z M2.534,6.692
			l1.039-1.8h2.079l1.039,1.8L5.652,8.493H3.573L2.534,6.692z M2.534,10.593l1.039-1.8h2.079l1.039,1.8l-1.039,1.8H3.573
			L2.534,10.593z M2.534,14.494l1.039-1.801h2.079l1.039,1.801l-1.039,1.799H3.573L2.534,14.494z M2.534,18.395l1.039-1.8h2.079
			l1.039,1.8l-1.039,1.8H3.573L2.534,18.395z M3.573,20.495h2.079l1.039,1.8l-1.039,1.8H3.573l-1.039-1.8L3.573,20.495z"/>
	</g>
</g>
<g id="Layer_1">
</g>
</svg>
