<?xml version="1.0" encoding="iso-8859-1"?>
<!-- Generator: Adobe Illustrator 16.0.0, SVG Export Plug-In . SVG Version: 6.00 Build 0)  -->
<!DOCTYPE svg PUBLIC "-//W3C//DTD SVG 1.1//EN" "http://www.w3.org/Graphics/SVG/1.1/DTD/svg11.dtd">
<svg version="1.1" xmlns="http://www.w3.org/2000/svg" xmlns:xlink="http://www.w3.org/1999/xlink" x="0px" y="0px"
	 width="13.012px" height="22.608px" viewBox="0 0 13.012 22.608" style="enable-background:new 0 0 13.012 22.608;"
	 xml:space="preserve">
<g id="Hourglass">
	<path style="fill:#231F20;" d="M8.583,13.553c-0.732-0.713-1.352-1.329-1.537-1.813c0.185-0.484,0.805-1.101,1.537-1.813
		c1.685-1.641,3.992-3.888,3.993-7.455c0-0.001,0.001-0.002,0.001-0.004c0-1.483-4.647-1.598-6.071-1.598s-6.07,0.115-6.071,1.598h0
		c0,3.569,2.309,5.817,3.994,7.458c0.732,0.713,1.352,1.33,1.537,1.814c-0.185,0.484-0.804,1.101-1.536,1.813
		c-1.685,1.641-3.991,3.888-3.993,7.453c0,0.002-0.001,0.003-0.001,0.005c0,1.482,4.646,1.598,6.07,1.598s6.072-0.115,6.072-1.598
		c0-0.002-0.001-0.003-0.001-0.004C12.574,17.439,10.268,15.192,8.583,13.553z M6.506,1.869c2.588,0,4.258,0.34,4.873,0.598
		c-0.615,0.258-2.285,0.598-4.873,0.598s-4.258-0.34-4.872-0.598C2.248,2.209,3.918,1.869,6.506,1.869z M5.126,9.209
		c-1.46-1.422-3.23-3.157-3.61-5.73c1.462,0.53,4.001,0.586,4.99,0.586s3.527-0.057,4.989-0.586
		c-0.38,2.573-2.149,4.309-3.611,5.731c-0.562,0.548-1.035,1.025-1.378,1.489C6.162,10.234,5.689,9.757,5.126,9.209z M5.127,14.269
		c0.563-0.548,1.035-1.024,1.379-1.488c0.344,0.464,0.816,0.94,1.378,1.488c1.461,1.422,3.23,3.157,3.61,5.73
		c-1.461-0.53-4-0.587-4.989-0.587s-3.526,0.057-4.988,0.587C1.898,17.426,3.667,15.691,5.127,14.269z M6.505,21.608
		c-2.588,0-4.258-0.34-4.872-0.598c0.614-0.259,2.283-0.599,4.872-0.599c2.59,0,4.26,0.34,4.874,0.599
		C10.764,21.269,9.094,21.608,6.505,21.608z"/>
</g>
<g id="Layer_1">
</g>
</svg>
