<?xml version="1.0" encoding="iso-8859-1"?>
<!-- Generator: Adobe Illustrator 16.0.0, SVG Export Plug-In . SVG Version: 6.00 Build 0)  -->
<!DOCTYPE svg PUBLIC "-//W3C//DTD SVG 1.1//EN" "http://www.w3.org/Graphics/SVG/1.1/DTD/svg11.dtd">
<svg version="1.1" xmlns="http://www.w3.org/2000/svg" xmlns:xlink="http://www.w3.org/1999/xlink" x="0px" y="0px"
	 width="43.124px" height="19.964px" viewBox="0 0 43.124 19.964" style="enable-background:new 0 0 43.124 19.964;"
	 xml:space="preserve">
<g id="Checkers">
	<g>
		<path style="fill:#231F20;" d="M10.49,0.768c-5.667,0-10.106,1.958-10.106,4.459v3.882v3.882c0,2.499,4.439,4.457,10.106,4.457
			s10.106-1.958,10.106-4.457V5.227C20.596,2.726,16.157,0.768,10.49,0.768z M19.596,12.99c0,1.635-3.74,3.457-9.106,3.457
			c-5.367,0-9.106-1.822-9.106-3.457v-1.929c0.228,0.211,0.487,0.413,0.784,0.604c1.808,1.155,4.83,1.9,8.322,1.9
			s6.514-0.745,8.322-1.901c0.297-0.189,0.556-0.393,0.784-0.604V12.99z M19.596,9.111L19.596,9.111
			c-0.002,0.36-0.197,0.728-0.54,1.083c-0.077,0.08-0.152,0.16-0.244,0.238c-0.25,0.214-0.559,0.42-0.918,0.616
			c-1.596,0.868-4.207,1.517-7.403,1.517c-3.197,0-5.808-0.648-7.404-1.517c-0.36-0.196-0.668-0.402-0.919-0.616
			C1.664,10.003,1.384,9.55,1.384,9.108V7.18C1.612,7.391,1.87,7.593,2.167,7.783C3.021,8.329,4.145,8.781,5.46,9.108
			c0.962,0.239,2.025,0.41,3.162,0.5c0.604,0.048,1.227,0.076,1.868,0.076s1.263-0.028,1.868-0.076c1.137-0.09,2.2-0.262,3.162-0.5
			c1.316-0.327,2.439-0.779,3.292-1.325c0.297-0.19,0.556-0.392,0.784-0.603V9.111z M18.813,6.551
			c-0.25,0.214-0.559,0.42-0.918,0.616c-1.272,0.692-3.188,1.245-5.536,1.44c-0.597,0.049-1.22,0.077-1.868,0.077
			S9.219,8.657,8.622,8.607C6.274,8.412,4.358,7.86,3.086,7.167c-0.36-0.196-0.668-0.402-0.918-0.616
			C1.664,6.122,1.384,5.668,1.384,5.227c0-1.636,3.74-3.459,9.106-3.459c5.366,0,9.106,1.823,9.106,3.459
			C19.596,5.668,19.316,6.122,18.813,6.551z"/>
		<path style="fill:#231F20;" d="M13.291,4.82l1.447-1.394l-3.167,0.537L10.49,2.448L9.408,3.963L6.242,3.426L7.689,4.82l0.166,0.16
			L5.018,6.055l0.936,0.079l2.508,0.212L8.243,8.014l2.247-1.149l2.247,1.149l-0.219-1.668l2.508-0.212l0.936-0.079L13.125,4.98
			L13.291,4.82z M13.724,5.742l-0.673,0.057l-1.098,0.093l0.164,1.244L10.49,6.303L8.863,7.135l0.164-1.244L7.929,5.799L7.255,5.742
			l1.516-0.574L8.336,4.749L7.755,4.19l1.878,0.318l0.856-1.2l0.856,1.2l1.878-0.318l-0.58,0.559l-0.436,0.419L13.724,5.742z"/>
		<path style="fill:#231F20;" d="M42.739,11.625c0-2.5-4.438-4.458-10.105-4.458s-10.106,1.958-10.106,4.458v3.882
			c0,2.499,4.439,4.457,10.106,4.457s10.106-1.958,10.106-4.457L42.739,11.625z M37.17,12.532l-2.508,0.213l0.219,1.666
			l-2.247-1.148l-2.247,1.148l0.219-1.666l-2.508-0.213l-0.936-0.079l2.837-1.074l-0.166-0.16l-1.447-1.394l3.167,0.537l1.081-1.515
			l1.081,1.515l3.167-0.537l-1.447,1.394l-0.166,0.16l2.837,1.074L37.17,12.532z"/>
	</g>
</g>
<g id="Layer_1">
</g>
</svg>
