<?xml version="1.0" encoding="iso-8859-1"?>
<!-- Generator: Adobe Illustrator 16.0.0, SVG Export Plug-In . SVG Version: 6.00 Build 0)  -->
<!DOCTYPE svg PUBLIC "-//W3C//DTD SVG 1.1//EN" "http://www.w3.org/Graphics/SVG/1.1/DTD/svg11.dtd">
<svg version="1.1" xmlns="http://www.w3.org/2000/svg" xmlns:xlink="http://www.w3.org/1999/xlink" x="0px" y="0px"
	 width="12.096px" height="12.021px" viewBox="0 0 12.096 12.021" style="enable-background:new 0 0 12.096 12.021;"
	 xml:space="preserve">
<g id="BlackMeeple">
	<path style="fill:#231F20;" d="M9.635,7.241C9.606,7.192,9.562,7.15,9.529,7.103c1.415-0.39,2.335-1.009,2.335-1.708
		c0-0.902-1.526-1.671-3.681-1.984V2.838H8.167c0.005-0.056,0.017-0.11,0.017-0.167c0-1.22-0.956-2.208-2.136-2.208
		c-1.18,0-2.136,0.989-2.136,2.208c0,0.057,0.012,0.111,0.016,0.167H3.912v0.573C1.757,3.724,0.231,4.493,0.231,5.395
		c0,0.7,0.921,1.32,2.339,1.708c-0.033,0.048-0.077,0.09-0.105,0.139L0.42,10.825c-0.367,0.643-0.173,1.168,0.433,1.172l3.058,0.023
		c0.606,0.004,1.395-0.512,1.762-1.154l0.377-0.66l0.376,0.66c0.367,0.643,1.157,1.158,1.762,1.154l3.059-0.023
		c0.605-0.004,0.8-0.529,0.433-1.172L9.635,7.241z"/>
</g>
<g id="Layer_1">
</g>
</svg>
