<?xml version="1.0" encoding="iso-8859-1"?>
<!-- Generator: Adobe Illustrator 16.0.0, SVG Export Plug-In . SVG Version: 6.00 Build 0)  -->
<!DOCTYPE svg PUBLIC "-//W3C//DTD SVG 1.1//EN" "http://www.w3.org/Graphics/SVG/1.1/DTD/svg11.dtd">
<svg version="1.1" xmlns="http://www.w3.org/2000/svg" xmlns:xlink="http://www.w3.org/1999/xlink" x="0px" y="0px"
	 width="29.936px" height="28.467px" viewBox="0 0 29.936 28.467" style="enable-background:new 0 0 29.936 28.467;"
	 xml:space="preserve">
<g id="Wheel">
	<path style="fill:#231F20;" d="M29.355,14.571L26.73,6.53c-0.044-0.135-0.13-0.254-0.246-0.337l-6.873-4.97
		c-0.115-0.084-0.253-0.129-0.396-0.129H10.72c-0.142,0-0.28,0.045-0.396,0.129l-6.873,4.97C3.336,6.276,3.25,6.396,3.206,6.53
		l-2.625,8.041c-0.044,0.137-0.044,0.283,0,0.42l2.625,8.041c0.044,0.135,0.13,0.254,0.246,0.337l6.873,4.97
		c0.115,0.084,0.253,0.128,0.396,0.128h8.496c0.143,0,0.28-0.044,0.396-0.128l6.873-4.97c0.116-0.083,0.202-0.202,0.246-0.337
		l2.625-8.041C29.399,14.854,29.399,14.708,29.355,14.571z M26.499,10.173l-3.645-0.262l2.88-2.082L26.499,10.173z M22.974,5.321
		l1.963,1.419L22.075,8.81L22.974,5.321z M25.404,11.448l-2.705,2.18l-0.794-2.432L25.404,11.448z M19.57,2.859l1.956,1.414
		l-3.049,1.931L19.57,2.859z M14.968,12.606l-1.355-4.152h2.711L14.968,12.606z M17.608,8.868l2.192,1.586l-3.548,2.564
		L17.608,8.868z M13.683,13.019l-3.547-2.564l2.192-1.586L13.683,13.019z M12.882,14.106h-4.38l0.836-2.563L12.882,14.106z
		 M12.882,15.456l-3.543,2.563l-0.836-2.563H12.882z M13.682,16.544l-1.354,4.148l-2.191-1.584L13.682,16.544z M14.968,16.956
		l1.355,4.151h-2.71L14.968,16.956z M16.254,16.544l3.546,2.564l-2.191,1.584L16.254,16.544z M17.054,15.456h4.381l-0.836,2.563
		L17.054,15.456z M17.054,14.106l3.545-2.563l0.836,2.563H17.054z M21.421,5.938l-0.873,3.389l-2.091-1.512L21.421,5.938z
		 M18.286,2.444l-1.095,3.35l-1.33-3.35H18.286z M16.26,7.104h-2.583l1.292-3.252L16.26,7.104z M14.074,2.444l-1.33,3.35
		l-1.094-3.35H14.074z M9.39,9.328l-0.873-3.39l2.962,1.878L9.39,9.328z M10.366,2.859l1.092,3.345L8.411,4.272L10.366,2.859z
		 M6.963,5.319l0.899,3.492L4.999,6.74L6.963,5.319z M8.032,11.196l-0.794,2.433l-2.706-2.181L8.032,11.196z M4.202,7.829
		l2.879,2.082l-3.645,0.263L4.202,7.829z M2.887,11.856l2.792,2.25H2.152L2.887,11.856z M2.906,17.763l-0.753-2.307h3.543
		L2.906,17.763z M3.457,19.452l3.604,0.213l-2.859,2.068L3.457,19.452z M6.962,24.241l-1.963-1.419l2.861-2.069L6.962,24.241z
		 M4.54,18.164l2.698-2.231l0.796,2.438L4.54,18.164z M10.366,26.702l-1.96-1.416l3.055-1.938L10.366,26.702z M8.517,23.616
		l0.871-3.383l2.086,1.508L8.517,23.616z M11.65,27.117l1.095-3.354l1.332,3.354H11.65z M13.679,22.457h2.578l-1.289,3.245
		L13.679,22.457z M15.859,27.117l1.332-3.354l1.096,3.354H15.859z M20.549,20.233l0.872,3.383l-2.959-1.875L20.549,20.233z
		 M19.57,26.702l-1.095-3.354l3.055,1.937L19.57,26.702z M22.699,15.933l2.698,2.231l-3.494,0.206L22.699,15.933z M22.976,24.24
		l-0.898-3.485l2.859,2.067L22.976,24.24z M25.734,21.733l-2.858-2.068l3.604-0.213L25.734,21.733z M27.03,17.763l-2.789-2.307
		h3.543L27.03,17.763z M24.258,14.106l2.792-2.25l0.734,2.25H24.258z"/>
</g>
<g id="Layer_1">
</g>
</svg>
