<?xml version="1.0" encoding="iso-8859-1"?>
<!-- Generator: Adobe Illustrator 16.0.0, SVG Export Plug-In . SVG Version: 6.00 Build 0)  -->
<!DOCTYPE svg PUBLIC "-//W3C//DTD SVG 1.1//EN" "http://www.w3.org/Graphics/SVG/1.1/DTD/svg11.dtd">
<svg version="1.1" xmlns="http://www.w3.org/2000/svg" xmlns:xlink="http://www.w3.org/1999/xlink" x="0px" y="0px"
	 width="12.096px" height="12.021px" viewBox="0 0 12.096 12.021" style="enable-background:new 0 0 12.096 12.021;"
	 xml:space="preserve">
<g id="WhiteMeeple">
	<path style="fill:#231F20;" d="M9.635,7.241C9.606,7.192,9.562,7.15,9.529,7.103c1.415-0.389,2.335-1.008,2.335-1.708
		c0-0.902-1.526-1.671-3.681-1.984V2.838V2.767h-0.01c0.005-0.032,0.01-0.063,0.01-0.096c0-1.22-0.956-2.208-2.136-2.208
		c-1.18,0-2.136,0.989-2.136,2.208c0,0.033,0.005,0.064,0.009,0.096H3.912v0.071v0.573C1.757,3.724,0.231,4.493,0.231,5.395
		c0,0.7,0.921,1.319,2.339,1.708c-0.033,0.048-0.077,0.09-0.105,0.139L0.42,10.825c-0.367,0.643-0.173,1.168,0.433,1.172
		l3.058,0.023c0.002,0,0.004,0,0.007,0c0.605,0,1.389-0.514,1.755-1.154l0.377-0.66l0.376,0.66c0.366,0.641,1.151,1.154,1.755,1.154
		c0.002,0,0.005,0,0.007,0l3.059-0.023c0.605-0.004,0.8-0.529,0.433-1.172L9.635,7.241z M8.181,11.021
		c-0.177,0-0.66-0.253-0.886-0.649l-0.376-0.66L6.05,8.188L5.181,9.71l-0.377,0.66c-0.227,0.397-0.71,0.65-0.886,0.65l-2.448-0.019
		l1.833-3.214c0.032-0.039,0.063-0.079,0.091-0.12L4.187,6.51L2.834,6.139C1.836,5.865,1.398,5.545,1.263,5.393
		c0.208-0.245,1.054-0.729,2.732-0.982c0.021-0.003,0.039-0.007,0.06-0.01l0.856-0.125V3.838V2.767V2.671
		c0-0.029,0.014-0.054,0.016-0.082c0.042-0.626,0.521-1.126,1.12-1.126c0.607,0,1.096,0.513,1.125,1.126
		c0.001,0.019,0.011,0.035,0.011,0.054v0.124v1.071v0.438L8.04,4.4c0.021,0.003,0.039,0.007,0.06,0.01
		c1.679,0.253,2.524,0.737,2.732,0.982c-0.134,0.152-0.572,0.471-1.568,0.745L7.923,6.507L8.7,7.661
		c0.027,0.041,0.058,0.08,0.095,0.126l1.833,3.215L8.181,11.021z"/>
</g>
<g id="Layer_1">
</g>
</svg>
