<?xml version="1.0" encoding="iso-8859-1"?>
<!-- Generator: Adobe Illustrator 16.0.0, SVG Export Plug-In . SVG Version: 6.00 Build 0)  -->
<!DOCTYPE svg PUBLIC "-//W3C//DTD SVG 1.1//EN" "http://www.w3.org/Graphics/SVG/1.1/DTD/svg11.dtd">
<svg version="1.1" xmlns="http://www.w3.org/2000/svg" xmlns:xlink="http://www.w3.org/1999/xlink" x="0px" y="0px"
	 width="46.529px" height="16.79px" viewBox="0 0 46.529 16.79" style="enable-background:new 0 0 46.529 16.79;"
	 xml:space="preserve">
<g id="HexBattlemat">
	<g>
		<path style="fill:#231F20;" d="M42.75,0.646H3.041c-1.549,0-2.718,2.149-2.718,5c0,2.209,0.93,3.875,2.163,3.875h3.012v7.269
			h40.709V7.146C46.207,3.501,44.688,0.646,42.75,0.646z M5.498,8.521H3.795C4.067,7.99,4.233,7.29,4.233,6.49
			c0-1.39-0.604-2.398-1.436-2.398c-0.696,0-1.202,0.809-1.202,1.924c0,0.276,0.224,0.5,0.5,0.5s0.5-0.224,0.5-0.5
			c0-0.58,0.193-0.894,0.196-0.924C2.924,5.126,3.233,5.646,3.233,6.49c0,1.26-0.484,2.031-0.748,2.031
			c-0.474,0-1.163-1.12-1.163-2.875c0-2.29,0.907-4,1.718-4c1.162,0,2.457,2.259,2.457,5.5V8.521z M45.207,15.79H6.498V7.146
			c0-2.346-0.631-4.359-1.596-5.5H42.75c1.162,0,2.457,2.259,2.457,5.5V15.79z"/>
		<path style="fill:#231F20;" d="M42.67,5.817h-2.555L38.843,3.61H36.12l-1.273,2.207h-2.38L31.193,3.61H28.47l-1.273,2.207h-2.397
			L23.525,3.61h-2.721l-1.274,2.207H17.15L15.875,3.61h-2.72L11.88,5.817H9.321L7.96,8.174l1.274,2.207L7.96,12.588l1.361,2.356
			h2.721l1.274-2.206h2.382l1.274,2.206h2.721l1.274-2.206h2.397l1.274,2.206h2.722l1.273-2.206h2.382l1.273,2.206h2.721
			l1.272-2.206h2.394l1.273,2.206h2.722l1.36-2.356l-1.273-2.207l1.273-2.207L42.67,5.817z M43.685,8.174l-1.188,2.057h-2.374
			l-1.188-2.057l1.188-2.057h2.374L43.685,8.174z M32.462,10.23l-1.185-2.051l1.19-2.063h2.367l1.176,2.037l-1.198,2.077H32.462z
			 M24.812,10.23l-1.188-2.057l1.188-2.057h2.374l1.176,2.036l-1.199,2.078H24.812z M17.145,10.23l-1.185-2.053l1.19-2.061h2.37
			l1.176,2.037l-1.199,2.077H17.145z M12.128,10.381l1.188-2.057h2.353l1.187,2.057l-1.187,2.057h-2.353L12.128,10.381z
			 M19.779,10.381l1.188-2.057h2.352l1.186,2.057l-1.187,2.057h-2.352L19.779,10.381z M27.446,10.381l1.187-2.057h2.353l1.188,2.057
			l-1.188,2.057h-2.353L27.446,10.381z M35.096,10.381l1.186-2.057h2.355l1.185,2.057l-1.186,2.057h-2.354L35.096,10.381z
			 M36.294,3.91h2.375l1.187,2.057L38.67,8.023h-2.377l-1.188-2.057L36.294,3.91z M28.644,3.91h2.376l1.186,2.051l-1.191,2.063
			h-2.37l-1.188-2.057L28.644,3.91z M20.978,3.91h2.375l1.188,2.057l-1.187,2.057h-2.376l-1.186-2.057L20.978,3.91z M13.328,3.91
			h2.375l1.185,2.053l-1.19,2.061h-2.37L12.14,5.967L13.328,3.91z M9.494,6.117h2.375l1.176,2.038l-1.199,2.076H9.494L8.307,8.174
			L9.494,6.117z M11.869,14.644H9.494l-1.188-2.056l1.188-2.057h2.352l1.199,2.076L11.869,14.644z M19.52,14.644h-2.375
			l-1.187-2.056l1.187-2.057h2.352l1.199,2.077L19.52,14.644z M27.186,14.644h-2.374l-1.188-2.056l1.188-2.057h2.351l1.199,2.078
			L27.186,14.644z M34.835,14.644h-2.373l-1.188-2.056l1.188-2.057h2.351l1.198,2.077L34.835,14.644z M42.496,14.644h-2.374
			l-1.188-2.056l1.188-2.057h2.374l1.188,2.057L42.496,14.644z"/>
	</g>
</g>
<g id="Layer_1">
</g>
</svg>
