<?xml version="1.0" encoding="iso-8859-1"?>
<!-- Generator: Adobe Illustrator 16.0.0, SVG Export Plug-In . SVG Version: 6.00 Build 0)  -->
<!DOCTYPE svg PUBLIC "-//W3C//DTD SVG 1.1//EN" "http://www.w3.org/Graphics/SVG/1.1/DTD/svg11.dtd">
<svg version="1.1" xmlns="http://www.w3.org/2000/svg" xmlns:xlink="http://www.w3.org/1999/xlink" x="0px" y="0px"
	 width="48.021px" height="30.313px" viewBox="0 0 48.021 30.313" style="enable-background:new 0 0 48.021 30.313;"
	 xml:space="preserve">
<g id="Box">
	<path style="fill:#231F20;" d="M46.826,1.166H9.305H8.883H7.102H6.491L6.102,1.348L0.972,3.741L0.583,3.923v26.39h0.611h39.725
		h0.611l0.389-0.182l5.129-2.394l0.39-0.182V1.166H46.826z M4.927,3v0.013l1.175-0.548L6.74,2.166h0.361h2.003h2.998h32.581
		l-3.375,1.575H7.102h-1H3.337L4.927,3z M40.919,29.313H3.337H1.583v-0.285V4.741h4.519h1h33.817v21.996v1V29.313z M41.919,29.027
		v-1.29v-1V4.56l4.519-2.108v24.286v0.182l-1.754,0.818L41.919,29.027z"/>
</g>
<g id="Layer_1">
</g>
</svg>
