<?xml version="1.0" encoding="iso-8859-1"?>
<!-- Generator: Adobe Illustrator 16.0.0, SVG Export Plug-In . SVG Version: 6.00 Build 0)  -->
<!DOCTYPE svg PUBLIC "-//W3C//DTD SVG 1.1//EN" "http://www.w3.org/Graphics/SVG/1.1/DTD/svg11.dtd">
<svg version="1.1" xmlns="http://www.w3.org/2000/svg" xmlns:xlink="http://www.w3.org/1999/xlink" x="0px" y="0px"
	 width="21.656px" height="26.609px" viewBox="0 0 21.656 26.609" style="enable-background:new 0 0 21.656 26.609;"
	 xml:space="preserve">
<g id="DectetCards">
	<g>
		<path d="M20.47,1.023H4.302c-0.184,0-0.359,0.074-0.486,0.207L0.788,4.373C0.62,4.496,0.512,4.694,0.512,4.918v21.017
			c0,0.373,0.302,0.675,0.675,0.675h16.168c0.19,0,0.362-0.079,0.485-0.205l3.115-3.219c0.121-0.126,0.189-0.295,0.189-0.47V1.698
			C21.145,1.326,20.843,1.023,20.47,1.023z M16.68,25.26H1.861V5.593H16.68V25.26z M17.141,4.243H2.788l1.801-1.87h14.31
			L17.141,4.243z M19.795,22.442l-1.766,1.824V5.27l1.766-1.878V22.442z"/>
		<path d="M7.468,19.688h1.631c1.187,0,2.279-0.336,3.19-0.971c0.912-0.66,1.5-1.811,1.5-3.286c0-1.452-0.588-2.603-1.512-3.214
			c-0.912-0.624-1.979-0.924-3.178-0.924H7.468c-0.719,0-1.139,0.42-1.139,1.14v6.117C6.329,19.269,6.749,19.688,7.468,19.688z
			 M8.116,12.937h0.708c2.099,0,3.154,0.828,3.154,2.495c0,1.739-1.043,2.614-3.143,2.614H8.116V12.937z"/>
	</g>
</g>
<g id="Layer_1">
</g>
</svg>
