<?xml version="1.0" encoding="iso-8859-1"?>
<!-- Generator: Adobe Illustrator 16.0.0, SVG Export Plug-In . SVG Version: 6.00 Build 0)  -->
<!DOCTYPE svg PUBLIC "-//W3C//DTD SVG 1.1//EN" "http://www.w3.org/Graphics/SVG/1.1/DTD/svg11.dtd">
<svg version="1.1" xmlns="http://www.w3.org/2000/svg" xmlns:xlink="http://www.w3.org/1999/xlink" x="0px" y="0px"
	 width="15.071px" height="18.811px" viewBox="0 0 15.071 18.811" style="enable-background:new 0 0 15.071 18.811;"
	 xml:space="preserve">
<g id="Pyramid">
	<path style="fill:#231F20;" d="M14.031,18.811H1.041c-0.182,0-0.354-0.073-0.479-0.199c-0.03-0.03-0.058-0.063-0.082-0.099
		c-0.125-0.184-0.153-0.418-0.072-0.625L6.899,1.149C6.962,0.989,7.082,0.862,7.23,0.789c0.328-0.167,0.793-0.003,0.934,0.358
		l6.5,16.741c0.08,0.207,0.054,0.441-0.072,0.625c-0.024,0.036-0.052,0.068-0.082,0.099C14.385,18.737,14.213,18.811,14.031,18.811z
		 M3.682,17.461h7.601c0.024-0.003,0.048-0.004,0.073-0.004h1.688L7.531,3.265L2.028,17.457L3.682,17.461z"/>
</g>
<g id="Layer_1">
</g>
</svg>
