<?xml version="1.0" encoding="iso-8859-1"?>
<!-- Generator: Adobe Illustrator 16.0.0, SVG Export Plug-In . SVG Version: 6.00 Build 0)  -->
<!DOCTYPE svg PUBLIC "-//W3C//DTD SVG 1.1//EN" "http://www.w3.org/Graphics/SVG/1.1/DTD/svg11.dtd">
<svg version="1.1" xmlns="http://www.w3.org/2000/svg" xmlns:xlink="http://www.w3.org/1999/xlink" x="0px" y="0px" width="11.86px"
	 height="21.773px" viewBox="0 0 11.86 21.773" style="enable-background:new 0 0 11.86 21.773;" xml:space="preserve">
<g id="Tree">
	<path style="fill:#231F20;" d="M11.399,20.86l-2.219-5.907h0.418c0.106,0,0.21-0.025,0.303-0.072
		c0.1-0.049,0.188-0.125,0.254-0.219c0.126-0.183,0.154-0.415,0.076-0.623L8.544,9.55h0.154c0.135,0,0.266-0.04,0.375-0.114
		c0.071-0.047,0.133-0.107,0.183-0.178c0.126-0.184,0.155-0.416,0.077-0.623l-2.77-7.359c-0.098-0.263-0.35-0.438-0.631-0.438
		c-0.057,0-0.113,0.007-0.166,0.021C5.553,0.911,5.375,1.065,5.295,1.276L2.53,8.636C2.452,8.843,2.481,9.075,2.607,9.258
		c0.024,0.033,0.05,0.065,0.079,0.094C2.812,9.478,2.983,9.55,3.165,9.55h0.148l-1.688,4.491c-0.078,0.207-0.049,0.439,0.078,0.621
		c0.125,0.183,0.332,0.291,0.555,0.291h0.424l-2.22,5.908c-0.078,0.207-0.049,0.439,0.077,0.621
		c0.126,0.183,0.333,0.291,0.555,0.291h9.675c0.221,0,0.428-0.108,0.555-0.291c0.078-0.113,0.119-0.247,0.119-0.383
		C11.443,21.02,11.429,20.938,11.399,20.86z M5.93,3.435l1.792,4.763H7.56c-0.018,0-0.035,0.001-0.051,0.002H4.34
		C4.323,8.199,4.306,8.198,4.29,8.198h-0.15L5.93,3.435z M4.76,9.55h2.337l1.524,4.053H3.237L4.76,9.55z M2.071,20.423l2.055-5.471
		h3.612l2.056,5.471H2.071z"/>
</g>
<g id="Layer_1">
</g>
</svg>
