<?xml version="1.0" encoding="iso-8859-1"?>
<!-- Generator: Adobe Illustrator 16.0.0, SVG Export Plug-In . SVG Version: 6.00 Build 0)  -->
<!DOCTYPE svg PUBLIC "-//W3C//DTD SVG 1.1//EN" "http://www.w3.org/Graphics/SVG/1.1/DTD/svg11.dtd">
<svg version="1.1" xmlns="http://www.w3.org/2000/svg" xmlns:xlink="http://www.w3.org/1999/xlink" x="0px" y="0px"
	 width="30.297px" height="27.549px" viewBox="0 0 30.297 27.549" style="enable-background:new 0 0 30.297 27.549;"
	 xml:space="preserve">
<g id="PokerChips">
	<path style="fill:#231F20;" d="M20.508,5.472V3.627c0-3.424-12.642-3.423-12.642,0v6.571c-3.46-0.204-7.336,0.641-7.336,2.536
		v9.745c0,0.469,0.244,0.873,0.654,1.217c1.089,0.916,3.386,1.391,5.667,1.391c0.344,0,0.687-0.015,1.027-0.036
		c0.135,1.639,3.236,2.498,6.309,2.498c3.141,0,6.321-0.896,6.321-2.607v-0.497c0.912,0.185,1.924,0.284,2.939,0.284
		c2.063,0,4.137-0.389,5.32-1.139c0.619-0.393,1-0.881,1-1.469V7.774C29.768,5.512,24.252,4.745,20.508,5.472z M14.187,2.02
		c3.248,0,5.321,0.952,5.321,1.607c0,0.038-0.031,0.079-0.045,0.119c-0.006,0.02-0.012,0.04-0.021,0.06
		c-0.063,0.124-0.178,0.25-0.359,0.379c-0.152,0.107-0.354,0.212-0.584,0.313c-0.223,0.099-0.48,0.19-0.77,0.275
		c-0.456,0.135-0.984,0.249-1.588,0.329c-0.591,0.079-1.238,0.131-1.954,0.131s-1.362-0.052-1.954-0.131
		c-0.604-0.081-1.132-0.194-1.587-0.329c-0.289-0.085-0.548-0.177-0.77-0.275c-0.23-0.102-0.431-0.206-0.584-0.313
		C9.108,4.057,8.995,3.93,8.932,3.806c-0.01-0.021-0.016-0.04-0.022-0.06c-0.014-0.04-0.044-0.081-0.044-0.119
		C8.866,2.972,10.938,2.02,14.187,2.02z M8.866,6.182V6.161V5.682V5.503V5.325V5.096c1.185,0.75,3.258,1.139,5.321,1.139
		s4.135-0.389,5.321-1.139v0.229v0.178v0.179v0.034v0.445v0.021v0.479c-0.027,0.03-0.051,0.06-0.084,0.089
		c-0.027,0.026-0.072,0.051-0.104,0.076c-0.088,0.071-0.176,0.141-0.289,0.209c-0.17,0.103-0.369,0.2-0.596,0.293
		c-0.01,0.004-0.023,0.008-0.033,0.013c-0.273,0.11-0.572,0.214-0.918,0.303c-0.11,0.029-0.234,0.051-0.352,0.076
		c-0.34,0.073-0.699,0.138-1.089,0.187c-0.575,0.072-1.188,0.121-1.857,0.121S12.905,7.98,12.33,7.908
		c-0.524-0.066-1.012-0.152-1.441-0.263c-0.358-0.093-0.669-0.201-0.951-0.316C9.711,7.236,9.513,7.138,9.342,7.035
		C9.187,6.942,9.054,6.848,8.949,6.75C8.917,6.72,8.893,6.69,8.866,6.661V6.182z M19.508,21.709v0.178v0.48v0.021v0.478
		c-0.027,0.03-0.051,0.061-0.084,0.091c-0.039,0.035-0.08,0.069-0.123,0.104c-0.012,0.01-0.021,0.02-0.033,0.029
		c-0.064,0.047-0.152,0.091-0.229,0.137c-0.232,0.143-0.508,0.277-0.842,0.4c-0.031,0.011-0.053,0.023-0.084,0.034
		c-0.129,0.045-0.281,0.082-0.423,0.122c-0.933,0.269-2.118,0.45-3.503,0.45c-0.815,0-1.552-0.068-2.218-0.175
		c-0.466-0.074-0.903-0.165-1.287-0.275c-0.139-0.04-0.289-0.076-0.417-0.12c-0.001-0.001-0.004-0.001-0.005-0.002
		c-0.377-0.131-0.673-0.279-0.926-0.435c-0.075-0.046-0.164-0.09-0.228-0.137c-0.06-0.045-0.109-0.089-0.158-0.134
		c-0.032-0.03-0.056-0.061-0.083-0.091v-0.478v-0.021v-0.235v-0.245v-0.178v-0.078v-0.401c0.14,0.1,0.301,0.193,0.476,0.282
		c0.02,0.01,0.044,0.018,0.064,0.027c0.185,0.093,0.382,0.181,0.602,0.259c0.072,0.026,0.16,0.045,0.235,0.07
		c0.208,0.067,0.415,0.137,0.648,0.192c0.343,0.083,0.711,0.152,1.1,0.208c0.057,0.008,0.123,0.009,0.181,0.016
		c0.32,0.04,0.656,0.066,1,0.087c0.086,0.005,0.163,0.018,0.25,0.021c0.252,0.012,0.502,0.026,0.766,0.026s0.514-0.015,0.766-0.026
		c0.498-0.023,0.982-0.061,1.431-0.124c0.263-0.038,0.501-0.091,0.743-0.141c0.116-0.024,0.245-0.04,0.355-0.067
		c0.232-0.056,0.438-0.124,0.645-0.191c0.076-0.025,0.166-0.045,0.238-0.071c0.244-0.087,0.465-0.183,0.666-0.286
		c0.127-0.064,0.236-0.136,0.348-0.205c0.041,0.014,0.086,0.026,0.129,0.04V21.709z M13.006,13.117
		c0.053,0.004,0.111,0.002,0.165,0.006c0.331,0.02,0.666,0.036,1.016,0.036c0.406,0,0.8-0.015,1.18-0.042
		c0.637-0.045,1.218-0.134,1.759-0.247c0.118-0.024,0.247-0.042,0.36-0.07c0.23-0.056,0.434-0.124,0.641-0.191
		c0.076-0.025,0.166-0.045,0.24-0.072c0.242-0.087,0.463-0.183,0.664-0.285c0.111-0.057,0.205-0.119,0.303-0.179
		c0.053,0.019,0.117,0.034,0.174,0.052v0.323v0.179v0.478v0.021v0.479c-0.027,0.03-0.051,0.06-0.084,0.089
		c-0.043,0.041-0.109,0.079-0.162,0.118c-0.074,0.056-0.141,0.113-0.23,0.167c-0.09,0.054-0.207,0.103-0.311,0.153
		c-0.096,0.046-0.178,0.096-0.285,0.14c-0.098,0.04-0.203,0.078-0.309,0.115c-0.199,0.071-0.408,0.14-0.643,0.201
		c-0.112,0.029-0.238,0.052-0.358,0.078c-0.338,0.073-0.694,0.137-1.082,0.185c-0.575,0.072-1.188,0.121-1.857,0.121
		c-0.354,0-0.69-0.015-1.016-0.039c-0.29-0.021-0.571-0.048-0.842-0.083c-0.055-0.007-0.104-0.017-0.158-0.024
		c-0.338-0.046-0.655-0.103-0.954-0.167c-0.109-0.024-0.226-0.044-0.329-0.071c-0.358-0.093-0.669-0.2-0.95-0.316
		c-0.147-0.06-0.263-0.126-0.387-0.19c-0.067-0.035-0.149-0.067-0.209-0.103c-0.155-0.093-0.288-0.188-0.394-0.286
		c-0.032-0.03-0.056-0.06-0.083-0.089v-0.479v-0.021v-0.478v-0.179v-0.479c0.14,0.1,0.301,0.194,0.476,0.283
		c0.2,0.103,0.422,0.198,0.664,0.285c0.271,0.098,0.565,0.186,0.882,0.263c0.355,0.086,0.743,0.154,1.147,0.21
		C12.348,13.055,12.668,13.093,13.006,13.117z M8.866,14.942v-0.18v-0.479c0.141,0.1,0.301,0.194,0.477,0.283
		c0.2,0.103,0.422,0.198,0.664,0.285c0.092,0.033,0.203,0.059,0.3,0.089c0.189,0.06,0.374,0.123,0.583,0.173
		c0.394,0.096,0.83,0.166,1.283,0.225c0.272,0.036,0.545,0.071,0.836,0.092c0.053,0.004,0.111,0.002,0.164,0.006
		c0.331,0.021,0.666,0.036,1.016,0.036c0.406,0,0.799-0.015,1.179-0.042c0.638-0.045,1.218-0.135,1.76-0.247
		c0.118-0.024,0.246-0.042,0.358-0.069c0.23-0.056,0.436-0.124,0.643-0.191c0.076-0.025,0.166-0.044,0.24-0.071
		c0.242-0.087,0.463-0.183,0.664-0.285c0.111-0.057,0.203-0.119,0.301-0.179c0.055,0.019,0.119,0.034,0.176,0.052v0.322v0.18v0.479
		v0.021v0.479c-0.027,0.03-0.051,0.06-0.084,0.089c-0.039,0.037-0.098,0.07-0.145,0.105c-0.078,0.061-0.15,0.122-0.248,0.181
		c-0.09,0.054-0.207,0.103-0.313,0.153c-0.094,0.047-0.176,0.096-0.283,0.141c-0.098,0.039-0.203,0.077-0.309,0.114
		c-0.199,0.072-0.408,0.141-0.643,0.201c-0.112,0.029-0.238,0.052-0.358,0.078c-0.338,0.072-0.694,0.137-1.081,0.185
		c-0.576,0.072-1.189,0.121-1.858,0.121c-0.354,0-0.69-0.015-1.016-0.038c-0.29-0.021-0.571-0.049-0.842-0.083
		c-0.055-0.007-0.104-0.017-0.158-0.023c-0.363-0.05-0.702-0.11-1.019-0.182c-0.087-0.021-0.181-0.036-0.264-0.058
		c-0.224-0.058-0.424-0.123-0.616-0.191c-0.115-0.04-0.229-0.081-0.335-0.124c-0.227-0.094-0.425-0.191-0.596-0.294
		c-0.155-0.093-0.288-0.188-0.394-0.286c-0.032-0.029-0.056-0.059-0.083-0.089v-0.479v-0.021v-0.21V14.942z M19.508,19.394v0.179
		v0.479v0.02v0.479c-0.027,0.03-0.051,0.06-0.084,0.09c-0.037,0.035-0.096,0.068-0.141,0.103c-0.08,0.062-0.152,0.123-0.252,0.183
		c-0.084,0.05-0.193,0.096-0.291,0.144c-0.102,0.05-0.188,0.103-0.303,0.149c-0.098,0.04-0.205,0.078-0.311,0.116
		c-0.199,0.071-0.408,0.14-0.645,0.201c-0.111,0.028-0.236,0.052-0.356,0.077c-0.339,0.072-0.698,0.136-1.086,0.185
		c-0.574,0.072-1.186,0.121-1.853,0.121c-0.354,0-0.69-0.015-1.016-0.039c-0.288-0.021-0.568-0.048-0.838-0.082
		c-0.056-0.007-0.107-0.017-0.162-0.024c-0.363-0.049-0.703-0.11-1.02-0.181c-0.086-0.02-0.179-0.035-0.261-0.057
		c-0.227-0.059-0.429-0.125-0.622-0.193c-0.114-0.041-0.228-0.081-0.332-0.124c-0.226-0.093-0.424-0.19-0.595-0.293
		c-0.154-0.093-0.287-0.188-0.393-0.285c-0.032-0.03-0.056-0.06-0.083-0.09v-0.479v-0.02v-0.233v-0.246v-0.179v-0.088v-0.391
		c0.14,0.1,0.301,0.193,0.476,0.282c0.019,0.01,0.044,0.018,0.063,0.027c0.185,0.092,0.381,0.18,0.6,0.259
		c0.078,0.028,0.173,0.05,0.255,0.076c0.203,0.065,0.402,0.132,0.627,0.187c0.394,0.096,0.83,0.166,1.284,0.226
		c0.267,0.034,0.534,0.069,0.819,0.09c0.058,0.004,0.122,0.003,0.181,0.007c0.331,0.02,0.666,0.036,1.016,0.036
		c0.412,0,0.812-0.016,1.196-0.043c0.63-0.046,1.207-0.135,1.743-0.245c0.118-0.024,0.247-0.043,0.36-0.07
		c0.23-0.056,0.434-0.124,0.641-0.19c0.078-0.025,0.168-0.046,0.242-0.072c0.24-0.088,0.463-0.184,0.662-0.286
		c0.121-0.061,0.223-0.128,0.326-0.193c0.047,0.017,0.102,0.028,0.15,0.044V19.394z M19.508,17.078v0.18v0.479v0.021v0.479
		c-0.027,0.03-0.051,0.06-0.084,0.089c-0.037,0.036-0.098,0.069-0.143,0.104c-0.08,0.061-0.152,0.123-0.25,0.182
		c-0.082,0.05-0.191,0.095-0.287,0.142c-0.102,0.051-0.191,0.104-0.307,0.151c-0.098,0.04-0.205,0.078-0.311,0.116
		c-0.199,0.071-0.406,0.14-0.641,0.199c-0.113,0.029-0.24,0.053-0.36,0.078c-0.337,0.072-0.692,0.137-1.077,0.186
		c-0.577,0.072-1.192,0.121-1.862,0.121c-0.354,0-0.69-0.015-1.016-0.038c-0.291-0.021-0.574-0.049-0.846-0.083
		c-0.054-0.007-0.102-0.017-0.154-0.023c-0.363-0.05-0.703-0.111-1.02-0.183c-0.087-0.02-0.182-0.036-0.265-0.058
		c-0.223-0.057-0.423-0.122-0.613-0.189c-0.116-0.041-0.231-0.082-0.337-0.126c-0.226-0.093-0.424-0.19-0.595-0.293
		c-0.154-0.093-0.288-0.188-0.393-0.286c-0.032-0.029-0.055-0.059-0.083-0.089v-0.479v-0.021v-0.234v-0.244v-0.18v-0.087V16.6
		c0.14,0.1,0.301,0.193,0.476,0.283c0.019,0.01,0.042,0.017,0.061,0.026c0.186,0.092,0.384,0.179,0.604,0.259
		c0.078,0.028,0.171,0.049,0.253,0.075c0.203,0.065,0.403,0.133,0.629,0.188c0.394,0.096,0.829,0.167,1.283,0.226
		c0.27,0.035,0.54,0.07,0.828,0.091c0.056,0.004,0.116,0.003,0.172,0.006c0.33,0.02,0.666,0.036,1.016,0.036
		c0.409,0,0.805-0.016,1.188-0.042c0.634-0.046,1.213-0.135,1.751-0.247c0.118-0.024,0.246-0.042,0.358-0.069
		c0.23-0.057,0.436-0.124,0.643-0.191c0.076-0.024,0.166-0.045,0.24-0.071c0.242-0.088,0.463-0.183,0.664-0.285
		c0.111-0.057,0.203-0.119,0.301-0.18c0.055,0.02,0.119,0.034,0.176,0.052V17.078z M8.866,8.497v-0.02V7.997V7.818V7.339
		c0.14,0.1,0.301,0.194,0.476,0.283c0.201,0.103,0.422,0.198,0.665,0.286c0.271,0.098,0.565,0.186,0.882,0.263
		c0.629,0.152,1.34,0.261,2.115,0.316c0.381,0.027,0.776,0.042,1.184,0.042s0.802-0.015,1.184-0.042
		c0.635-0.045,1.215-0.134,1.755-0.246c0.118-0.024,0.246-0.042,0.358-0.07c0.256-0.062,0.486-0.136,0.713-0.212
		c0.055-0.018,0.117-0.031,0.17-0.05c0.242-0.087,0.463-0.183,0.664-0.286c0.176-0.089,0.336-0.183,0.477-0.283v0.479v0.179v0.479
		v0.02v0.294v0.185c-0.027,0.03-0.051,0.06-0.084,0.09c-0.105,0.098-0.238,0.192-0.393,0.285c-0.105,0.063-0.24,0.121-0.365,0.18
		c-0.08,0.037-0.143,0.078-0.23,0.114c-0.098,0.04-0.203,0.078-0.309,0.115c-0.199,0.071-0.408,0.14-0.643,0.201
		c-0.112,0.029-0.238,0.052-0.358,0.078c-0.338,0.073-0.694,0.137-1.082,0.185c-0.575,0.072-1.188,0.121-1.857,0.121
		s-1.282-0.049-1.857-0.121c-0.524-0.065-1.012-0.152-1.441-0.263c-0.358-0.093-0.669-0.2-0.951-0.316
		c-0.227-0.093-0.425-0.19-0.596-0.293C9.188,9.258,9.054,9.163,8.949,9.065c-0.032-0.03-0.056-0.06-0.083-0.09V8.497z
		 M8.866,10.133V9.654c0.141,0.1,0.301,0.193,0.477,0.283c0.2,0.103,0.422,0.198,0.664,0.285c0.271,0.098,0.565,0.186,0.882,0.263
		c0.63,0.152,1.343,0.262,2.119,0.316c0.38,0.027,0.773,0.042,1.18,0.042s0.8-0.015,1.18-0.042c0.637-0.045,1.218-0.135,1.759-0.247
		c0.118-0.024,0.246-0.042,0.358-0.069c0.23-0.056,0.436-0.124,0.643-0.191c0.076-0.025,0.166-0.044,0.24-0.071
		c0.242-0.087,0.463-0.183,0.664-0.285c0.098-0.05,0.18-0.105,0.268-0.159c0.066,0.023,0.139,0.044,0.209,0.066v0.289v0.179v0.479
		v0.021v0.479c-0.027,0.03-0.051,0.06-0.084,0.089c-0.043,0.041-0.109,0.079-0.162,0.119c-0.074,0.056-0.141,0.112-0.23,0.167
		c-0.09,0.054-0.207,0.102-0.311,0.153c-0.096,0.047-0.178,0.096-0.285,0.14c-0.098,0.04-0.203,0.077-0.309,0.115
		c-0.199,0.071-0.408,0.14-0.641,0.2c-0.113,0.029-0.24,0.052-0.36,0.078c-0.337,0.072-0.693,0.136-1.079,0.185
		c-0.576,0.072-1.19,0.122-1.86,0.122c-0.358,0-0.699-0.016-1.029-0.04c-0.286-0.021-0.563-0.048-0.831-0.082
		c-0.084-0.011-0.161-0.025-0.243-0.037c-0.429-0.061-0.836-0.133-1.197-0.226c-0.358-0.092-0.668-0.2-0.95-0.315
		c-0.227-0.093-0.425-0.19-0.596-0.293c-0.154-0.093-0.288-0.188-0.393-0.286c-0.032-0.03-0.056-0.06-0.083-0.089v-0.026v-0.454
		v-0.021v-0.479v-0.023V10.133z M6.851,11.127c0.355,0,0.689,0.016,1.015,0.037v3.142c-0.323,0.022-0.66,0.036-1.015,0.036
		c-0.715,0-1.362-0.052-1.954-0.131c-0.604-0.081-1.132-0.194-1.587-0.329c-0.289-0.085-0.549-0.177-0.771-0.275
		c-0.23-0.102-0.431-0.206-0.584-0.313c-0.183-0.129-0.297-0.256-0.359-0.379c-0.011-0.021-0.016-0.04-0.022-0.06
		c-0.014-0.04-0.044-0.081-0.044-0.119C1.53,12.079,3.603,11.127,6.851,11.127z M1.53,15.295v-0.006v-0.014v-0.008v-0.472v-0.007
		v-0.173V14.61v-0.178v-0.229c1.185,0.75,3.259,1.139,5.321,1.139c0.34,0,0.678-0.016,1.015-0.036v1.792
		c-0.325,0.023-0.662,0.038-1.015,0.038c-0.668,0-1.282-0.049-1.857-0.121c-0.524-0.066-1.012-0.152-1.441-0.264
		c-0.357-0.092-0.669-0.198-0.951-0.313c-0.226-0.094-0.424-0.191-0.596-0.295c-0.154-0.092-0.287-0.188-0.393-0.285
		c-0.032-0.029-0.056-0.059-0.083-0.09V15.295z M1.53,17.608v-0.006v-0.014v-0.006V17.11v-0.006v-0.174v-0.006v-0.472v-0.006
		c0.14,0.1,0.301,0.192,0.476,0.282c0.201,0.102,0.423,0.197,0.665,0.285c0.271,0.098,0.565,0.186,0.882,0.262
		c0.63,0.152,1.341,0.262,2.115,0.316c0.381,0.027,0.775,0.043,1.184,0.043c0.35,0,0.685-0.017,1.015-0.037v1.813
		c-0.325,0.023-0.662,0.038-1.015,0.038c-0.668,0-1.282-0.049-1.857-0.121c-0.524-0.064-1.012-0.152-1.441-0.262
		c-0.357-0.094-0.668-0.201-0.95-0.316c-0.227-0.094-0.425-0.191-0.596-0.293c-0.155-0.094-0.288-0.188-0.394-0.285
		c-0.032-0.031-0.056-0.061-0.083-0.09V17.608z M1.53,19.925v-0.006v-0.014v-0.008v-0.473v-0.006v-0.172v-0.008v-0.473v-0.006
		c0.141,0.1,0.302,0.193,0.477,0.283c0.2,0.104,0.422,0.197,0.664,0.285c0.271,0.098,0.565,0.186,0.882,0.264
		c0.631,0.152,1.344,0.262,2.119,0.316c0.38,0.025,0.773,0.041,1.18,0.041c0.35,0,0.685-0.016,1.015-0.035v1.821
		c-0.325,0.022-0.663,0.034-1.015,0.034c-1.384,0-2.568-0.18-3.499-0.449c-0.272-0.078-0.524-0.164-0.75-0.256
		c-0.196-0.08-0.362-0.166-0.519-0.254c-0.026-0.018-0.059-0.031-0.085-0.047c-0.008-0.006-0.015-0.01-0.022-0.014
		c-0.14-0.086-0.266-0.174-0.363-0.264c-0.032-0.029-0.056-0.061-0.083-0.09V19.925z M1.53,22.479v-0.24
		c0.002,0.002,0.004,0.004,0.006,0.004c-0.001-0.004-0.006-0.01-0.006-0.014v-0.018v-0.479v-0.172v-0.006v-0.475
		c0.206,0.146,0.454,0.283,0.734,0.406c0.073,0.033,0.162,0.059,0.245,0.088c0.056,0.021,0.102,0.049,0.16,0.068
		c0.008-0.002,0.018-0.004,0.025-0.008c1.07,0.391,2.5,0.635,4.156,0.635c0.351,0,0.686-0.017,1.015-0.037v1.816
		c-0.326,0.021-0.66,0.037-1.015,0.037C3.603,24.087,1.53,23.134,1.53,22.479z M19.508,24.691c0,0.005-0.006,0.011-0.006,0.015
		c0.002-0.001,0.004-0.002,0.006-0.004v0.239c0,0.655-2.073,1.607-5.321,1.607c-3.226,0-5.288-0.938-5.316-1.593
		c0-0.005-0.005-0.01-0.005-0.015v-0.239c0.002,0.002,0.004,0.003,0.006,0.004c0-0.004-0.006-0.01-0.006-0.015v-0.667v-0.076v-0.404
		c0.157,0.111,0.345,0.215,0.547,0.313c0.063,0.031,0.121,0.063,0.188,0.093c0.091,0.04,0.206,0.07,0.303,0.108
		c0.375,0.144,0.814,0.261,1.279,0.362c0.875,0.193,1.883,0.313,3.005,0.313c1.717,0,3.2-0.26,4.284-0.675
		c0.098-0.038,0.211-0.068,0.303-0.108c0.008-0.004,0.016-0.009,0.025-0.013c0.27-0.121,0.51-0.252,0.709-0.394v0.48v0.172V24.691z
		 M28.768,20.725v0.021v0.457v0.021v0.18v0.467c0,0.004-0.006,0.01-0.006,0.014c0.002,0,0.004-0.002,0.006-0.004v0.002v0.02v0.219
		c0,0.654-2.072,1.607-5.32,1.607c-1.143,0-2.127-0.122-2.939-0.303v-1.812c0.861,0.184,1.846,0.298,2.939,0.298
		c1.717,0,3.201-0.26,4.283-0.674c0.098-0.039,0.213-0.068,0.303-0.109c0.281-0.123,0.529-0.26,0.734-0.406V20.725z M28.768,18.41
		v0.02v0.459v0.02v0.158v0.021v0.459v0.02v0.021v0.457c-0.027,0.029-0.051,0.061-0.084,0.09c-0.049,0.045-0.098,0.09-0.156,0.135
		c-0.063,0.047-0.152,0.09-0.227,0.137c-0.254,0.154-0.551,0.303-0.928,0.434c-0.129,0.045-0.281,0.082-0.422,0.123
		c-0.934,0.268-2.117,0.449-3.504,0.449c-1.123,0-2.107-0.123-2.939-0.311v-1.794c0.242,0.05,0.48,0.103,0.744,0.14
		c0.447,0.064,0.932,0.102,1.43,0.125c0.252,0.012,0.502,0.025,0.766,0.025s0.514-0.014,0.766-0.025
		c0.498-0.023,0.982-0.061,1.432-0.125c0.389-0.055,0.756-0.125,1.1-0.207c0.316-0.076,0.611-0.164,0.883-0.264
		c0.242-0.086,0.465-0.182,0.666-0.285c0.174-0.09,0.336-0.184,0.475-0.283V18.41z M28.768,16.572v0.021v0.158v0.021v0.457v0.02
		v0.002v0.021v0.457c-0.027,0.029-0.051,0.059-0.082,0.09c-0.105,0.098-0.238,0.191-0.393,0.285
		c-0.172,0.102-0.369,0.199-0.596,0.293c-0.281,0.115-0.594,0.223-0.953,0.316c-0.43,0.111-0.918,0.197-1.443,0.262
		c-0.574,0.072-1.186,0.121-1.854,0.121c-0.666,0-1.279-0.049-1.854-0.121c-0.389-0.048-0.748-0.111-1.086-0.185v-1.776
		c0.539,0.112,1.121,0.201,1.76,0.246c0.379,0.027,0.773,0.043,1.18,0.043s0.801-0.016,1.18-0.043
		c0.777-0.055,1.49-0.164,2.119-0.316c0.318-0.076,0.611-0.164,0.883-0.262c0.242-0.088,0.463-0.184,0.664-0.285
		c0.174-0.09,0.334-0.184,0.475-0.283V16.572z M28.768,14.28v0.179v0.479v0.021v0.458c-0.027,0.029-0.051,0.059-0.082,0.088
		c-0.105,0.1-0.238,0.193-0.393,0.287c-0.172,0.102-0.369,0.199-0.596,0.293c-0.281,0.115-0.592,0.223-0.949,0.314
		c-0.43,0.111-0.916,0.197-1.439,0.264c-0.576,0.072-1.191,0.121-1.861,0.121s-1.285-0.049-1.861-0.121
		c-0.387-0.049-0.742-0.113-1.078-0.186v-1.775c0.541,0.112,1.123,0.202,1.76,0.247c0.381,0.027,0.773,0.042,1.18,0.042
		s0.801-0.015,1.18-0.042c0.775-0.055,1.488-0.164,2.117-0.316c0.318-0.076,0.613-0.164,0.883-0.263
		c0.242-0.087,0.465-0.183,0.664-0.285c0.176-0.09,0.336-0.184,0.477-0.283V14.28z M28.768,11.963v0.18v0.479v0.021v0.479
		c-0.027,0.029-0.051,0.061-0.082,0.09c-0.105,0.098-0.238,0.192-0.395,0.285c-0.17,0.104-0.369,0.201-0.596,0.293
		c-0.281,0.116-0.592,0.224-0.951,0.316c-0.428,0.111-0.916,0.197-1.439,0.263c-0.574,0.072-1.189,0.121-1.857,0.121
		s-1.281-0.049-1.857-0.121c-0.387-0.048-0.744-0.112-1.082-0.185v-1.797c0.541,0.112,1.121,0.201,1.756,0.246
		c0.381,0.027,0.775,0.042,1.184,0.042s0.803-0.015,1.184-0.042c0.773-0.055,1.486-0.163,2.113-0.315
		c0.318-0.077,0.613-0.165,0.883-0.264c0.242-0.087,0.465-0.182,0.666-0.285c0.174-0.09,0.334-0.184,0.475-0.283V11.963z
		 M28.768,9.471v0.178v0.18v0.479v0.021v0.479c-0.027,0.029-0.051,0.059-0.082,0.089c-0.105,0.098-0.238,0.192-0.393,0.286
		c-0.172,0.103-0.371,0.199-0.596,0.293c-0.283,0.115-0.594,0.223-0.953,0.316c-0.428,0.111-0.916,0.196-1.439,0.262
		c-0.574,0.072-1.189,0.121-1.857,0.121s-1.281-0.049-1.857-0.121c-0.387-0.048-0.744-0.112-1.082-0.184v-1.767
		c0.912,0.185,1.926,0.279,2.939,0.279c2.063,0,4.137-0.389,5.32-1.139V9.471z M28.725,7.892c-0.008,0.021-0.012,0.04-0.023,0.06
		c-0.063,0.124-0.176,0.251-0.359,0.38c-0.152,0.107-0.354,0.212-0.584,0.313c-0.223,0.099-0.48,0.189-0.77,0.275
		c-0.455,0.135-0.982,0.248-1.586,0.329c-0.592,0.079-1.24,0.132-1.955,0.132s-1.361-0.053-1.953-0.132
		c-0.359-0.048-0.682-0.11-0.986-0.178V6.468c0.813-0.181,1.797-0.302,2.939-0.302c3.248,0,5.32,0.952,5.32,1.608
		C28.768,7.811,28.738,7.852,28.725,7.892z"/>
</g>
<g id="Layer_1">
</g>
</svg>
