<?xml version="1.0" encoding="iso-8859-1"?>
<!-- Generator: Adobe Illustrator 16.0.0, SVG Export Plug-In . SVG Version: 6.00 Build 0)  -->
<!DOCTYPE svg PUBLIC "-//W3C//DTD SVG 1.1//EN" "http://www.w3.org/Graphics/SVG/1.1/DTD/svg11.dtd">
<svg version="1.1" xmlns="http://www.w3.org/2000/svg" xmlns:xlink="http://www.w3.org/1999/xlink" x="0px" y="0px"
	 width="30.742px" height="30.742px" viewBox="0 0 30.742 30.742" style="enable-background:new 0 0 30.742 30.742;"
	 xml:space="preserve">
<g id="LaunchPad">
	<g>
		<path style="fill:#231F20;" d="M27.111,30.742H3.63c-1.676,0-3.039-1.363-3.039-3.039V4.222c0-1.676,1.363-3.039,3.039-3.039
			h23.481c1.676,0,3.039,1.363,3.039,3.039v23.481C30.15,29.379,28.787,30.742,27.111,30.742z M3.63,2.532
			c-0.931,0-1.689,0.758-1.689,1.689v23.481c0,0.932,0.758,1.689,1.689,1.689h23.481c0.932,0,1.689-0.758,1.689-1.689V4.222
			c0-0.932-0.758-1.689-1.689-1.689H3.63z"/>
		<path style="fill:#231F20;" d="M26.322,26.989h-5.287c-0.372,0-0.674-0.302-0.674-0.675v-5.272c0-0.373,0.302-0.675,0.674-0.675
			h5.287c0.373,0,0.676,0.302,0.676,0.675v5.272C26.998,26.688,26.695,26.989,26.322,26.989z M21.711,25.64h3.938v-3.923h-3.938
			V25.64z M18.139,26.989h-5.284c-0.373,0-0.675-0.302-0.675-0.675v-5.272c0-0.373,0.302-0.675,0.675-0.675h5.284
			c0.373,0,0.676,0.302,0.676,0.675v5.272C18.814,26.688,18.512,26.989,18.139,26.989z M13.529,25.64h3.936v-3.923h-3.936V25.64z
			 M10.234,26.989H4.948c-0.373,0-0.675-0.302-0.675-0.675v-5.272c0-0.373,0.302-0.675,0.675-0.675h5.286
			c0.373,0,0.675,0.302,0.675,0.675v5.272C10.909,26.688,10.606,26.989,10.234,26.989z M5.623,25.64h3.937v-3.923H5.623V25.64z
			 M26.322,19.274h-5.287c-0.372,0-0.674-0.302-0.674-0.675v-5.272c0-0.373,0.302-0.675,0.674-0.675h5.287
			c0.373,0,0.676,0.302,0.676,0.675V18.6C26.998,18.973,26.695,19.274,26.322,19.274z M21.711,17.925h3.938v-3.923h-3.938V17.925z
			 M10.234,19.274H4.948c-0.373,0-0.675-0.302-0.675-0.675v-5.272c0-0.373,0.302-0.675,0.675-0.675h5.286
			c0.373,0,0.675,0.302,0.675,0.675V18.6C10.909,18.973,10.606,19.274,10.234,19.274z M5.623,17.925h3.937v-3.923H5.623V17.925z
			 M26.176,11.576h-5.287c-0.372,0-0.674-0.302-0.674-0.675V5.629c0-0.373,0.302-0.675,0.674-0.675h5.287
			c0.372,0,0.674,0.302,0.674,0.675v5.272C26.85,11.274,26.548,11.576,26.176,11.576z M21.564,10.227H25.5V6.304h-3.936V10.227z
			 M18.139,11.576h-5.284c-0.373,0-0.675-0.302-0.675-0.675V5.629c0-0.373,0.302-0.675,0.675-0.675h5.284
			c0.373,0,0.676,0.302,0.676,0.675v5.272C18.814,11.274,18.512,11.576,18.139,11.576z M13.529,10.227h3.936V6.304h-3.936V10.227z
			 M10.234,11.576H4.948c-0.373,0-0.675-0.302-0.675-0.675V5.629c0-0.373,0.302-0.675,0.675-0.675h5.286
			c0.373,0,0.675,0.302,0.675,0.675v5.272C10.909,11.274,10.606,11.576,10.234,11.576z M5.623,10.227h3.937V6.304H5.623V10.227z"/>
		<path style="fill:#231F20;" d="M17.028,12.194h-3.121L11.7,14.401v3.121l2.207,2.207h3.121l2.206-2.207v-3.121L17.028,12.194z
			 M16.446,13.6l1.384,1.384v1.957l-1.384,1.384h-1.957l-1.385-1.384v-1.957l1.385-1.384H16.446z"/>
	</g>
</g>
<g id="Layer_1">
</g>
</svg>
