<?xml version="1.0" encoding="iso-8859-1"?>
<!-- Generator: Adobe Illustrator 16.0.0, SVG Export Plug-In . SVG Version: 6.00 Build 0)  -->
<!DOCTYPE svg PUBLIC "-//W3C//DTD SVG 1.1//EN" "http://www.w3.org/Graphics/SVG/1.1/DTD/svg11.dtd">
<svg version="1.1" xmlns="http://www.w3.org/2000/svg" xmlns:xlink="http://www.w3.org/1999/xlink" x="0px" y="0px"
	 width="21.663px" height="26.782px" viewBox="0 0 21.663 26.782" style="enable-background:new 0 0 21.663 26.782;"
	 xml:space="preserve">
<g id="PyramidArcadeCards">
	<g>
		<path style="fill:#231F20;" d="M20.473,1.03H4.305c-0.178,0-0.349,0.07-0.476,0.196L0.802,4.229
			C0.628,4.351,0.515,4.553,0.515,4.782v21.326c0,0.373,0.302,0.675,0.675,0.675h16.167c0.185,0,0.353-0.074,0.475-0.194
			l3.115-3.076c0.128-0.127,0.2-0.3,0.2-0.48V1.705C21.147,1.333,20.846,1.03,20.473,1.03z M4.583,2.38h14.282l-1.727,1.727H2.843
			L4.583,2.38z M16.683,25.433H1.865V5.457h14.818V25.433z M18.032,24.492V5.123l1.766-1.767v19.393L18.032,24.492z"/>
		<path style="fill:#231F20;" d="M4.879,18.595c0.353,0,0.616-0.24,0.616-0.635v-1.189h1.108c0.665,0,1.207-0.178,1.625-0.539
			c0.418-0.362,0.624-0.837,0.624-1.423c0-0.58-0.206-1.038-0.616-1.376c-0.411-0.337-0.952-0.506-1.634-0.506H5.052
			c-0.493,0-0.78,0.281-0.78,0.764v4.27C4.271,18.354,4.526,18.595,4.879,18.595z M5.495,14.027H6.39
			c0.846,0,1.248,0.25,1.248,0.805s-0.419,0.836-1.248,0.836H5.495V14.027z"/>
		<path style="fill:#231F20;" d="M10.099,18.563c0.32,0.096,0.624-0.032,0.763-0.395l0.295-0.724h2.225l0.304,0.724
			c0.155,0.37,0.41,0.499,0.763,0.395c0.328-0.105,0.501-0.402,0.361-0.756l-1.757-4.391c-0.14-0.354-0.402-0.53-0.788-0.53
			c-0.377,0-0.64,0.177-0.779,0.539l-1.749,4.383C9.598,18.161,9.771,18.458,10.099,18.563z M12.274,14.543l0.714,1.841H11.56
			L12.274,14.543z"/>
	</g>
</g>
<g id="Layer_1">
</g>
</svg>
