<?xml version="1.0" encoding="iso-8859-1"?>
<!-- Generator: Adobe Illustrator 16.0.0, SVG Export Plug-In . SVG Version: 6.00 Build 0)  -->
<!DOCTYPE svg PUBLIC "-//W3C//DTD SVG 1.1//EN" "http://www.w3.org/Graphics/SVG/1.1/DTD/svg11.dtd">
<svg version="1.1" xmlns="http://www.w3.org/2000/svg" xmlns:xlink="http://www.w3.org/1999/xlink" x="0px" y="0px"
	 width="21.656px" height="26.609px" viewBox="0 0 21.656 26.609" style="enable-background:new 0 0 21.656 26.609;"
	 xml:space="preserve">
<g id="ZarkCityCards">
	<g>
		<path style="fill:#231F20;" d="M20.47,1.023H4.302c-0.184,0-0.359,0.074-0.486,0.207L0.788,4.373
			C0.62,4.496,0.512,4.694,0.512,4.918v21.017c0,0.373,0.302,0.675,0.675,0.675h16.168c0.19,0,0.362-0.079,0.485-0.205l3.115-3.219
			c0.121-0.126,0.189-0.295,0.189-0.47V1.698C21.145,1.326,20.843,1.023,20.47,1.023z M4.589,2.373h14.31l-1.758,1.87H2.788
			L4.589,2.373z M16.68,25.26H1.861V5.593H16.68V25.26z M18.029,24.267V5.27l1.766-1.878v19.051L18.029,24.267z"/>
		<path style="fill:#231F20;" d="M3.912,17.323c0,0.412,0.279,0.697,0.763,0.697h3.342c0.369,0,0.6-0.243,0.6-0.57
			c0-0.336-0.23-0.58-0.6-0.58H5.537l2.824-3.524c0.106-0.134,0.164-0.302,0.164-0.504c0-0.411-0.279-0.696-0.764-0.696H4.536
			c-0.37,0-0.6,0.243-0.6,0.57c0,0.336,0.229,0.579,0.6,0.579H6.9L4.076,16.82C3.97,16.954,3.912,17.122,3.912,17.323z"/>
		<path style="fill:#231F20;" d="M12.497,18.112c0.797,0,1.462-0.234,1.987-0.713c0.295-0.269,0.32-0.638,0.09-0.881
			c-0.222-0.261-0.55-0.294-0.87-0.033c-0.361,0.311-0.771,0.461-1.239,0.461c-0.501,0-0.92-0.168-1.256-0.504
			c-0.337-0.335-0.51-0.797-0.51-1.376c0-0.57,0.173-1.023,0.51-1.351c0.345-0.336,0.738-0.503,1.19-0.503
			c0.476,0,0.878,0.151,1.215,0.453c0.32,0.269,0.648,0.235,0.87-0.034c0.229-0.243,0.205-0.613-0.091-0.881
			c-0.542-0.47-1.19-0.705-1.938-0.705c-0.861,0-1.576,0.277-2.15,0.839c-0.574,0.554-0.862,1.292-0.862,2.208
			c0,0.906,0.288,1.636,0.862,2.19C10.889,17.836,11.619,18.112,12.497,18.112z"/>
	</g>
</g>
<g id="Layer_1">
</g>
</svg>
