<?xml version="1.0" encoding="iso-8859-1"?>
<!-- Generator: Adobe Illustrator 16.0.0, SVG Export Plug-In . SVG Version: 6.00 Build 0)  -->
<!DOCTYPE svg PUBLIC "-//W3C//DTD SVG 1.1//EN" "http://www.w3.org/Graphics/SVG/1.1/DTD/svg11.dtd">
<svg version="1.1" xmlns="http://www.w3.org/2000/svg" xmlns:xlink="http://www.w3.org/1999/xlink" x="0px" y="0px"
	 width="25.571px" height="29.743px" viewBox="0 0 25.571 29.743" style="enable-background:new 0 0 25.571 29.743;"
	 xml:space="preserve">
<g id="ShotGlass">
	<path style="fill:#231F20;" d="M22.295,26.582l0.005,0.001L24.995,5.24l-0.006,0c0.001-0.021,0.01-0.041,0.01-0.062
		c0-2.62-6.293-4.034-12.213-4.034c-5.921,0-12.214,1.414-12.214,4.034c0,0.021,0.008,0.041,0.009,0.062l-0.005,0l2.696,21.343
		l0.005-0.001c0.095,2.074,4.827,3.161,9.509,3.161C17.468,29.743,22.2,28.656,22.295,26.582 M12.786,2.144
		c6.926,0,11.184,1.756,11.211,3.021l-0.009,0.063c-0.11,1.264-4.347,2.985-11.203,2.985S1.693,6.493,1.582,5.229L1.574,5.165
		C1.601,3.899,5.859,2.144,12.786,2.144z M21.304,26.521c-0.003,0.906-3.32,2.222-8.518,2.222s-8.516-1.315-8.518-2.222H4.264
		L4.19,25.879l-0.096-0.757L1.808,7.017C3.926,8.452,8.45,9.214,12.786,9.214s8.86-0.762,10.977-2.197l-2.286,18.105"/>
</g>
<g id="Layer_1">
</g>
</svg>
