<?xml version="1.0" encoding="iso-8859-1"?>
<!-- Generator: Adobe Illustrator 16.0.0, SVG Export Plug-In . SVG Version: 6.00 Build 0)  -->
<!DOCTYPE svg PUBLIC "-//W3C//DTD SVG 1.1//EN" "http://www.w3.org/Graphics/SVG/1.1/DTD/svg11.dtd">
<svg version="1.1" xmlns="http://www.w3.org/2000/svg" xmlns:xlink="http://www.w3.org/1999/xlink" x="0px" y="0px" width="44.96px"
	 height="22.76px" viewBox="0 0 44.96 22.76" style="enable-background:new 0 0 44.96 22.76;" xml:space="preserve">
<g id="Ball">
	<g>
		<path style="fill:#231F20;" d="M38.69,0.875c-3.216,0-5.832,2.616-5.832,5.832s2.616,5.832,5.832,5.832s5.832-2.616,5.832-5.832
			S41.906,0.875,38.69,0.875z M38.69,11.539c-2.664,0-4.832-2.167-4.832-4.832s2.168-4.832,4.832-4.832s4.832,2.167,4.832,4.832
			S41.354,11.539,38.69,11.539z"/>
		<polygon style="fill:#231F20;" points="22.175,22.053 20.943,20.82 20.236,21.527 21.468,22.76 21.468,22.76 22.881,22.76 
			22.882,22.76 23.731,21.91 23.024,21.203 		"/>
		
			<rect x="26.414" y="16.021" transform="matrix(-0.7071 -0.7071 0.7071 -0.7071 33.2028 49.794)" style="fill:#231F20;" width="1" height="4"/>
		
			<rect x="31.363" y="11.071" transform="matrix(-0.7071 -0.7071 0.7071 -0.7071 45.1516 44.844)" style="fill:#231F20;" width="1" height="4"/>
		
			<rect x="10.104" y="12.189" transform="matrix(-0.707 -0.7072 0.7072 -0.707 11.6901 30.2207)" style="fill:#231F20;" width="4.001" height="1"/>
		
			<rect x="15.054" y="17.139" transform="matrix(-0.7071 -0.7071 0.7071 -0.7071 16.6409 42.1702)" style="fill:#231F20;" width="4" height="1"/>
		
			<rect x="5.155" y="7.239" transform="matrix(-0.7071 -0.7071 0.7071 -0.7071 6.7421 18.2707)" style="fill:#231F20;" width="4" height="1"/>
		
			<rect x="0.205" y="2.289" transform="matrix(-0.7071 -0.7071 0.7071 -0.7071 1.7924 6.321)" style="fill:#231F20;" width="4" height="1"/>
	</g>
</g>
<g id="Layer_1">
</g>
</svg>
