<?xml version="1.0" encoding="iso-8859-1"?>
<!-- Generator: Adobe Illustrator 16.0.0, SVG Export Plug-In . SVG Version: 6.00 Build 0)  -->
<!DOCTYPE svg PUBLIC "-//W3C//DTD SVG 1.1//EN" "http://www.w3.org/Graphics/SVG/1.1/DTD/svg11.dtd">
<svg version="1.1" xmlns="http://www.w3.org/2000/svg" xmlns:xlink="http://www.w3.org/1999/xlink" x="0px" y="0px"
	 width="15.072px" height="18.833px" viewBox="0 0 15.072 18.833" style="enable-background:new 0 0 15.072 18.833;"
	 xml:space="preserve">
<g id="Nest">
	<path style="fill:#231F20;" d="M14.664,17.896L8.166,1.155c-0.1-0.26-0.35-0.431-0.629-0.431c-0.084,0-0.165,0.015-0.24,0.044
		C7.118,0.834,6.972,0.974,6.9,1.158L0.408,17.896c-0.081,0.207-0.053,0.441,0.072,0.625c0.024,0.036,0.052,0.068,0.082,0.099
		c0.125,0.126,0.297,0.199,0.479,0.199h2.232c0.023,0.003,0.045,0.014,0.068,0.014h8.33c0.021,0,0.037-0.012,0.058-0.014h2.302
		c0.182,0,0.354-0.073,0.479-0.199c0.031-0.03,0.059-0.063,0.082-0.099C14.719,18.338,14.745,18.104,14.664,17.896z M6.763,17.47
		l0.729-2.054l0.729,2.054H6.763z M9.656,17.47l-1.527-4.296c-0.158-0.443-0.801-0.568-1.117-0.248
		c-0.068,0.069-0.123,0.154-0.156,0.25L5.33,17.47H4.328l3.178-8.284l3.18,8.284H9.656z M12.134,17.466L8.139,7.053
		C8.038,6.791,7.787,6.619,7.508,6.619c-0.075,0-0.148,0.012-0.217,0.035c-0.189,0.063-0.346,0.207-0.42,0.4l-3.99,10.413
		l-0.853-0.002l5.505-14.19l5.511,14.19H12.134z"/>
</g>
<g id="Layer_1">
</g>
</svg>
