<?xml version="1.0" encoding="iso-8859-1"?>
<!-- Generator: Adobe Illustrator 16.0.0, SVG Export Plug-In . SVG Version: 6.00 Build 0)  -->
<!DOCTYPE svg PUBLIC "-//W3C//DTD SVG 1.1//EN" "http://www.w3.org/Graphics/SVG/1.1/DTD/svg11.dtd">
<svg version="1.1" xmlns="http://www.w3.org/2000/svg" xmlns:xlink="http://www.w3.org/1999/xlink" x="0px" y="0px"
	 width="40.011px" height="25.824px" viewBox="0 0 40.011 25.824" style="enable-background:new 0 0 40.011 25.824;"
	 xml:space="preserve">
<g id="Dominos">
	<g>
		<path style="fill:#231F20;" d="M23.339,12.909H2.486c-1.097,0-1.989,0.893-1.989,1.99v8.937c0,1.097,0.893,1.989,1.989,1.989
			h20.853c1.097,0,1.989-0.893,1.989-1.989v-8.937C25.328,13.801,24.436,12.909,23.339,12.909z M24.328,23.835
			c0,0.546-0.443,0.989-0.989,0.989H2.486c-0.545,0-0.989-0.443-0.989-0.989v-8.937c0-0.546,0.444-0.99,0.989-0.99h20.853
			c0.546,0,0.989,0.444,0.989,0.99V23.835z"/>
		<path style="fill:#231F20;" d="M12.912,15.104c-0.276,0-0.5,0.225-0.5,0.5v7.525c0,0.276,0.224,0.5,0.5,0.5s0.5-0.224,0.5-0.5
			v-7.525C13.412,15.328,13.188,15.104,12.912,15.104z"/>
		<circle style="fill:#231F20;" cx="6.849" cy="19.366" r="0.969"/>
		<path style="fill:#231F20;" d="M37.523,0.993h-8.936c-1.098,0-1.99,0.893-1.99,1.989v20.853c0,1.097,0.893,1.989,1.99,1.989h8.936
			c1.098,0,1.991-0.893,1.991-1.989V2.982C39.515,1.886,38.621,0.993,37.523,0.993z M38.515,23.835c0,0.546-0.444,0.989-0.991,0.989
			h-8.936c-0.546,0-0.99-0.443-0.99-0.989V2.982c0-0.545,0.444-0.989,0.99-0.989h8.936c0.547,0,0.991,0.444,0.991,0.989V23.835z"/>
		<path style="fill:#231F20;" d="M36.817,12.909h-7.524c-0.276,0-0.5,0.224-0.5,0.5s0.224,0.5,0.5,0.5h7.524
			c0.276,0,0.5-0.224,0.5-0.5S37.094,12.909,36.817,12.909z"/>
		<circle style="fill:#231F20;" cx="30.206" cy="7.572" r="0.968"/>
		<circle style="fill:#231F20;" cx="30.15" cy="10.333" r="0.968"/>
		<circle style="fill:#231F20;" cx="35.849" cy="10.333" r="0.968"/>
		<circle style="fill:#231F20;" cx="30.15" cy="4.88" r="0.968"/>
		<circle style="fill:#231F20;" cx="35.849" cy="4.88" r="0.968"/>
		<circle style="fill:#231F20;" cx="19.449" cy="19.845" r="0.969"/>
		<circle style="fill:#231F20;" cx="16.544" cy="22.606" r="0.968"/>
		<circle style="fill:#231F20;" cx="22.243" cy="22.606" r="0.968"/>
		<circle style="fill:#231F20;" cx="16.544" cy="17.154" r="0.968"/>
		<circle style="fill:#231F20;" cx="22.243" cy="17.154" r="0.968"/>
		<circle style="fill:#231F20;" cx="33.11" cy="19.81" r="0.968"/>
		<circle style="fill:#231F20;" cx="30.206" cy="22.571" r="0.968"/>
		<circle style="fill:#231F20;" cx="35.904" cy="22.571" r="0.968"/>
		<circle style="fill:#231F20;" cx="30.206" cy="17.119" r="0.968"/>
		<circle style="fill:#231F20;" cx="35.904" cy="17.119" r="0.968"/>
		<circle style="fill:#231F20;" cx="33.055" cy="10.333" r="0.968"/>
		<circle style="fill:#231F20;" cx="35.849" cy="7.572" r="0.968"/>
		<circle style="fill:#231F20;" cx="33.11" cy="4.88" r="0.968"/>
	</g>
</g>
<g id="Layer_1">
</g>
</svg>
