<?xml version="1.0" encoding="iso-8859-1"?>
<!-- Generator: Adobe Illustrator 16.0.0, SVG Export Plug-In . SVG Version: 6.00 Build 0)  -->
<!DOCTYPE svg PUBLIC "-//W3C//DTD SVG 1.1//EN" "http://www.w3.org/Graphics/SVG/1.1/DTD/svg11.dtd">
<svg version="1.1" xmlns="http://www.w3.org/2000/svg" xmlns:xlink="http://www.w3.org/1999/xlink" x="0px" y="0px"
	 width="31.295px" height="31.296px" viewBox="0 0 31.295 31.296" style="enable-background:new 0 0 31.295 31.296;"
	 xml:space="preserve">
<g id="Lunar">
	<g>
		<path style="fill:#231F20;" d="M21.869,13.636c0.141,0.037,0.285,0.056,0.432,0.056c0.938,0,1.791-0.753,2.074-1.831
			c0.181-0.682,0.102-1.387-0.217-1.934c-0.25-0.43-0.636-0.732-1.084-0.85c-1.046-0.277-2.176,0.528-2.507,1.775
			C20.234,12.109,20.819,13.358,21.869,13.636z M21.872,11.198c0.135-0.51,0.486-0.816,0.838-0.816c0.007,0,0.013,0,0.02,0
			c0.128,0.033,0.214,0.141,0.263,0.225c0.137,0.236,0.166,0.575,0.078,0.908c-0.137,0.518-0.498,0.826-0.77,0.826l-0.086-0.01
			C21.931,12.255,21.721,11.771,21.872,11.198z"/>
		<path style="fill:#231F20;" d="M25.947,18.05c-1.19-0.754-3.143,0.166-4.32,2.035c-1.207,1.909-1.199,4.007,0.018,4.775
			c0.293,0.186,0.63,0.28,1,0.28c1.129,0,2.432-0.909,3.32-2.315C27.17,20.917,27.163,18.819,25.947,18.05z M24.822,22.104
			c-0.84,1.332-2.007,1.9-2.457,1.615c-0.419-0.266-0.471-1.532,0.402-2.914c0.699-1.107,1.625-1.686,2.179-1.686
			c0.112,0,0.204,0.023,0.28,0.07C25.645,19.456,25.695,20.722,24.822,22.104z"/>
		<path style="fill:#231F20;" d="M13.628,24.571c-0.896,0.645-1.175,1.797-0.621,2.57c0.3,0.417,0.793,0.656,1.354,0.656
			c0.442,0,0.897-0.152,1.281-0.428c0.895-0.645,1.173-1.797,0.619-2.569C15.723,24.054,14.496,23.946,13.628,24.571z
			 M14.854,26.274c-0.153,0.11-0.333,0.174-0.492,0.174c-0.057,0-0.196-0.01-0.258-0.095c-0.089-0.124-0.011-0.453,0.313-0.687
			c0.153-0.109,0.333-0.173,0.492-0.173c0.057,0,0.196,0.009,0.257,0.095C15.254,25.712,15.177,26.042,14.854,26.274z"/>
		<path style="fill:#231F20;" d="M14.15,12.341c-1.458,0-3.121,0.484-4.683,1.363c-1.532,0.863-2.794,2.01-3.555,3.232
			c-0.838,1.346-0.986,2.643-0.417,3.653c0.559,0.993,1.719,1.54,3.265,1.54c1.457,0,3.12-0.484,4.683-1.363
			c1.532-0.863,2.794-2.01,3.555-3.232c0.838-1.346,0.985-2.643,0.417-3.653C16.856,12.888,15.697,12.341,14.15,12.341z
			 M15.852,16.821c-0.643,1.032-1.733,2.016-3.071,2.769c-1.344,0.757-2.809,1.19-4.021,1.19c-0.601,0-1.671-0.111-2.088-0.853
			c-0.312-0.554-0.171-1.384,0.386-2.278c0.643-1.032,1.733-2.016,3.071-2.768c1.343-0.757,2.809-1.19,4.021-1.19
			c0.601,0,1.672,0.11,2.088,0.852C16.55,15.097,16.409,15.927,15.852,16.821z"/>
		<path style="fill:#231F20;" d="M11.321,9.837c0.789,0,1.607-0.338,2.245-0.927c0.582-0.537,0.964-1.228,1.078-1.946
			c0.122-0.767-0.084-1.504-0.563-2.021c-0.929-1.008-2.796-0.914-3.996,0.196C8.841,6.287,8.609,8.067,9.569,9.106
			C10.004,9.577,10.626,9.837,11.321,9.837z M11.001,6.13c0.392-0.361,0.876-0.568,1.329-0.568c0.222,0,0.533,0.051,0.76,0.297
			c0.269,0.291,0.254,0.686,0.221,0.895c-0.065,0.413-0.306,0.838-0.661,1.165c-0.392,0.362-0.876,0.569-1.329,0.569
			c-0.222,0-0.534-0.052-0.76-0.297C10.114,7.707,10.316,6.764,11.001,6.13z"/>
		<path style="fill:#231F20;" d="M15.647,1.204c-8.296,0-15.045,6.75-15.045,15.046c0,8.297,6.749,15.046,15.045,15.046
			c8.296,0,15.045-6.749,15.045-15.046C30.692,7.954,23.943,1.204,15.647,1.204z M15.647,29.946
			c-7.551,0-13.695-6.145-13.695-13.696S8.096,2.554,15.647,2.554c7.552,0,13.696,6.145,13.696,13.696S23.199,29.946,15.647,29.946z
			"/>
	</g>
</g>
<g id="Layer_1">
</g>
</svg>
