<?xml version="1.0" encoding="iso-8859-1"?>
<!-- Generator: Adobe Illustrator 16.0.0, SVG Export Plug-In . SVG Version: 6.00 Build 0)  -->
<!DOCTYPE svg PUBLIC "-//W3C//DTD SVG 1.1//EN" "http://www.w3.org/Graphics/SVG/1.1/DTD/svg11.dtd">
<svg version="1.1" xmlns="http://www.w3.org/2000/svg" xmlns:xlink="http://www.w3.org/1999/xlink" x="0px" y="0px"
	 width="28.468px" height="28.467px" viewBox="0 0 28.468 28.467" style="enable-background:new 0 0 28.468 28.467;"
	 xml:space="preserve">
<g id="Coin">
	<g>
		<path style="fill:#231F20;" d="M14.233,3.773c-6.069,0-11.007,4.938-11.007,11.007c0,3.934,2.08,7.381,5.192,9.328l-0.009,0.017
			c0.056,0.03,0.111,0.052,0.167,0.079c1.656,0.998,3.587,1.583,5.657,1.583c2.085,0,4.029-0.593,5.693-1.604
			c0.04-0.021,0.081-0.035,0.121-0.058l-0.006-0.013c3.115-1.945,5.199-5.396,5.199-9.332C25.24,8.711,20.303,3.773,14.233,3.773z
			 M11.762,24.105c1.107-0.667,1.978-1.998,2.465-3.64c0.489,1.643,1.36,2.976,2.468,3.642c-0.787,0.208-1.609,0.33-2.462,0.33
			C13.377,24.438,12.552,24.314,11.762,24.105z M12.199,16.595l2.034-4.783l2.036,4.783H12.199z M19.317,22.976
			c-0.681,0.343-1.311,0.343-1.918-0.019c-1.236-0.735-2.115-2.755-2.232-5.013h2.122c0.227,0,0.438-0.113,0.563-0.303
			c0.125-0.188,0.146-0.428,0.059-0.637l-3.056-7.183c-0.212-0.498-1.03-0.498-1.242,0l-3.055,7.183
			c-0.089,0.209-0.067,0.448,0.058,0.637c0.125,0.189,0.336,0.303,0.563,0.303h2.11c-0.118,2.259-0.997,4.277-2.232,5.013
			c-0.598,0.355-1.217,0.358-1.887,0.031c-2.423-1.501-4.134-4.036-4.508-6.989h2.332c0.373,0,0.675-0.302,0.675-0.675
			s-0.302-0.675-0.675-0.675h-2.41c0.007-0.568,0.065-1.124,0.167-1.665h5.147c0.373,0,0.675-0.302,0.675-0.675
			s-0.302-0.675-0.675-0.675H5.112c1.309-3.783,4.898-6.512,9.121-6.512c2.398,0,4.589,0.884,6.281,2.336h-4.216
			c-0.373,0-0.675,0.302-0.675,0.675s0.302,0.675,0.675,0.675h5.091c0.127,0,0.238-0.044,0.34-0.104
			c0.363,0.446,0.688,0.925,0.967,1.433h-2.281c-0.372,0-0.674,0.302-0.674,0.675s0.302,0.675,0.674,0.675h2.66
			c0.074,0,0.143-0.021,0.209-0.042c0.386,1.041,0.607,2.162,0.607,3.336c0,1.284-0.258,2.509-0.715,3.631h-3.801
			c-0.372,0-0.674,0.302-0.674,0.675s0.302,0.675,0.674,0.675h3.116C21.701,21.066,20.613,22.169,19.317,22.976z"/>
		<path style="fill:#231F20;" d="M14.233,1.095c-7.546,0-13.686,6.14-13.686,13.686c0,7.547,6.139,13.687,13.686,13.687
			S27.92,22.327,27.92,14.78C27.92,7.234,21.779,1.095,14.233,1.095z M14.233,27.117c-6.802,0-12.336-5.534-12.336-12.337
			c0-6.802,5.534-12.336,12.336-12.336c6.802,0,12.337,5.534,12.337,12.336C26.57,21.583,21.035,27.117,14.233,27.117z"/>
	</g>
</g>
<g id="Layer_1">
</g>
</svg>
