<?xml version="1.0" encoding="iso-8859-1"?>
<!-- Generator: Adobe Illustrator 16.0.0, SVG Export Plug-In . SVG Version: 6.00 Build 0)  -->
<!DOCTYPE svg PUBLIC "-//W3C//DTD SVG 1.1//EN" "http://www.w3.org/Graphics/SVG/1.1/DTD/svg11.dtd">
<svg version="1.1" xmlns="http://www.w3.org/2000/svg" xmlns:xlink="http://www.w3.org/1999/xlink" x="0px" y="0px" width="24.19px"
	 height="25.966px" viewBox="0 0 24.19 25.966" style="enable-background:new 0 0 24.19 25.966;" xml:space="preserve">
<g id="Paper">
	<path style="fill:#231F20;" d="M23.563,6.313l-0.484-0.233c-0.172-0.082-0.449,0.137-0.621,0.493l-2.437,5.066V0.999H0.5v24.967
		h19.521V14.473l3.544-7.369C23.735,6.75,23.733,6.395,23.563,6.313z M1.5,1.999h17.521v1.546H1.5V1.999z M19.021,24.966H1.5V4.044
		h17.521v9.673l-3,6.238l-0.598,2.117c-0.106,0.219-0.098,0.443,0.021,0.498c0.116,0.059,0.297-0.074,0.404-0.297l1.279-1.785
		l1.894-3.937V24.966z"/>
</g>
<g id="Layer_1">
</g>
</svg>
