<?xml version="1.0" encoding="iso-8859-1"?>
<!-- Generator: Adobe Illustrator 16.0.0, SVG Export Plug-In . SVG Version: 6.00 Build 0)  -->
<!DOCTYPE svg PUBLIC "-//W3C//DTD SVG 1.1//EN" "http://www.w3.org/Graphics/SVG/1.1/DTD/svg11.dtd">
<svg version="1.1" xmlns="http://www.w3.org/2000/svg" xmlns:xlink="http://www.w3.org/1999/xlink" x="0px" y="0px" width="17.57px"
	 height="30.16px" viewBox="0 0 17.57 30.16" style="enable-background:new 0 0 17.57 30.16;" xml:space="preserve">
<g id="Bag">
	<path style="fill:#231F20;" d="M15.192,17.381L9.931,8.86h4.458c0.266,0.354,0.679,0.585,1.147,0.585
		c0.802,0,1.453-0.666,1.453-1.485c0-0.818-0.651-1.484-1.453-1.484c-0.647,0-1.19,0.438-1.378,1.035h-4.1l3.343-5.313
		c0.132-0.208,0.142-0.472,0.022-0.688c-0.119-0.217-0.346-0.351-0.592-0.351H4.738c-0.247,0-0.473,0.134-0.592,0.351
		C4.028,1.727,4.037,1.99,4.169,2.197l1.979,3.106l1.363,2.207H3.413C3.225,6.913,2.682,6.476,2.034,6.476
		c-0.802,0-1.454,0.666-1.454,1.484c0,0.819,0.652,1.485,1.454,1.485c0.469,0,0.882-0.231,1.148-0.585H7.64l-5.26,8.521
		l-0.007-0.004c-0.903,1.365-1.38,2.967-1.38,4.632c0,4.495,3.496,8.151,7.793,8.151c4.298,0,7.794-3.656,7.794-8.151
		c0-1.665-0.477-3.267-1.381-4.632L15.192,17.381z M7.292,4.586L6.567,3.413l-0.017,0.01L5.969,2.51h5.634L11.02,3.424l-0.017-0.011
		L8.785,6.93L7.292,4.586z M8.785,28.811c-3.553,0-6.443-3.052-6.443-6.802c0-1.197,0.293-2.354,0.851-3.379l0.001,0.001
		l5.591-9.056l5.592,9.056l0.001-0.001c0.559,1.025,0.852,2.182,0.852,3.379C15.229,25.759,12.339,28.811,8.785,28.811z"/>
</g>
<g id="Layer_1">
</g>
</svg>
