<?xml version="1.0" encoding="iso-8859-1"?>
<!-- Generator: Adobe Illustrator 16.0.0, SVG Export Plug-In . SVG Version: 6.00 Build 0)  -->
<!DOCTYPE svg PUBLIC "-//W3C//DTD SVG 1.1//EN" "http://www.w3.org/Graphics/SVG/1.1/DTD/svg11.dtd">
<svg version="1.1" xmlns="http://www.w3.org/2000/svg" xmlns:xlink="http://www.w3.org/1999/xlink" x="0px" y="0px"
	 width="51.921px" height="30.188px" viewBox="0 0 51.921 30.188" style="enable-background:new 0 0 51.921 30.188;"
	 xml:space="preserve">
<g id="WorldWar">
	<g>
		<path style="fill:#231F20;" d="M50.665,30.188H1.255c-0.373,0-0.675-0.302-0.675-0.675V1.836c0-0.373,0.302-0.675,0.675-0.675
			h49.41c0.372,0,0.675,0.302,0.675,0.675v27.677C51.34,29.886,51.037,30.188,50.665,30.188z M1.93,28.838h48.06V2.511H1.93V28.838z
			"/>
		<path style="fill:#231F20;" d="M16.57,27.433c-0.078,0-0.156-0.013-0.231-0.041l-2.014-0.735
			c-0.267-0.097-0.443-0.351-0.443-0.634v-0.439l-0.41-0.252c-0.2-0.123-0.321-0.342-0.321-0.576v-2.887l-1.88-1.68
			c-0.143-0.127-0.225-0.311-0.225-0.503v-3.092l-0.73-0.535c-0.174-0.126-0.276-0.329-0.276-0.544v-0.135l-0.24-0.107
			c-0.133-0.059-0.243-0.16-0.313-0.286l-0.173-0.309H8.654c-0.373,0-0.675-0.302-0.675-0.675V13.8L7.63,13.718
			c-0.305-0.072-0.52-0.344-0.52-0.657V9.544c0-0.196,0.085-0.382,0.233-0.51L8.63,7.92l0.053-0.141L8.454,7.854
			c-0.068,0.022-0.14,0.034-0.211,0.034H6.458c-0.25,0-0.479-0.137-0.596-0.357c-0.117-0.22-0.104-0.487,0.035-0.694l0.961-1.431
			C6.98,5.224,7.183,5.113,7.401,5.107l1.38-0.035l0.513-0.396c0.118-0.091,0.263-0.141,0.413-0.141h0.915
			c0.105,0,0.208,0.024,0.302,0.071l1.001,0.5h2.175c0.179,0,0.351,0.071,0.478,0.198c0.126,0.126,0.198,0.298,0.197,0.478l0,0.675
			h0.309l1.365-1.185c0.123-0.106,0.28-0.165,0.442-0.165h1.556c0.183,0,0.358,0.074,0.485,0.206
			c0.127,0.132,0.195,0.31,0.189,0.492L19.03,8.463c-0.013,0.364-0.311,0.652-0.675,0.652h-0.696l-4.106,3.826
			c-0.267,0.25-0.686,0.241-0.942-0.021l-0.391-0.399l-0.257,0.046l-0.094,0.161l0.487,0.533l1.359,1.267
			c0.158,0.094,0.27,0.249,0.311,0.428l0.063,0.273h0.698c0.145,0,0.287,0.046,0.403,0.133l0.961,0.714l0.746,0.697l2.061,0.453
			c0.172,0.037,0.323,0.142,0.42,0.289l0.642,0.982c0.112,0.171,0.14,0.384,0.077,0.577c-0.063,0.194-0.21,0.35-0.401,0.422
			l-0.208,0.08v1.213c0,0.185-0.076,0.361-0.21,0.488l-0.731,0.695c-0.044,0.042-0.093,0.077-0.146,0.105l-0.559,0.299v0.782
			c0,0.272-0.165,0.52-0.417,0.624l-0.178,0.073v2.901c0,0.22-0.107,0.426-0.288,0.553C16.842,27.392,16.707,27.433,16.57,27.433z
			 M15.231,25.55l0.664,0.243v-2.387c0-0.272,0.165-0.52,0.417-0.624l0.178-0.073v-0.735c0-0.248,0.137-0.477,0.356-0.595
			l0.834-0.446l0.456-0.434v-1.387c0-0.229,0.116-0.439,0.302-0.563l-0.042-0.064l-1.972-0.434
			c-0.119-0.026-0.229-0.084-0.317-0.167l-0.823-0.775l-0.721-0.531h-1.014c-0.315,0-0.588-0.217-0.658-0.524l-0.123-0.538
			c-0.001-0.001-0.002-0.002-0.004-0.003l-1.373-1.308l-0.855-0.933c-0.2-0.218-0.234-0.542-0.084-0.797l0.503-0.859
			c0.1-0.17,0.27-0.289,0.464-0.323l0.915-0.163c0.219-0.038,0.445,0.033,0.601,0.192l0.18,0.184l3.819-3.558
			c0.125-0.117,0.289-0.181,0.46-0.181h0.31l0.045-1.309h-0.605l-1.365,1.185c-0.123,0.106-0.28,0.165-0.442,0.165h-1.236
			c-0.179,0-0.351-0.071-0.478-0.198c-0.126-0.126-0.198-0.298-0.197-0.478l0-0.675h-1.659c-0.105,0-0.208-0.024-0.302-0.071
			l-1.001-0.5H9.937l-0.505,0.39c-0.01,0.008-0.02,0.015-0.03,0.022h0.075c0.373,0,0.675,0.302,0.675,0.675v0.609
			c0,0.081-0.014,0.161-0.042,0.236L9.835,8.553c-0.04,0.106-0.105,0.201-0.19,0.274L8.459,9.853v2.673l0.349,0.082
			c0.305,0.072,0.52,0.344,0.52,0.657v0.062h0.378c0.244,0,0.47,0.132,0.589,0.345l0.257,0.459l0.436,0.195
			c0.243,0.109,0.399,0.35,0.399,0.616v0.23l0.73,0.534c0.174,0.127,0.276,0.33,0.276,0.544v3.134l1.88,1.678
			c0.143,0.129,0.225,0.312,0.225,0.504v2.813l0.41,0.252c0.2,0.123,0.321,0.341,0.321,0.575V25.55z M7.724,6.539h0.411L8.46,6.431
			L7.784,6.448L7.724,6.539z M38.695,26.002c-0.091,0-0.182-0.019-0.268-0.056c-0.248-0.106-0.407-0.35-0.407-0.619v-1.199
			l-0.13-0.109h-1.039c-0.373,0-0.675-0.303-0.675-0.676v-1.858c0-0.241,0.128-0.464,0.337-0.585l3.582-2.066
			c-0.02-0.014-0.039-0.029-0.057-0.046l-1.366-1.211l-0.657-0.186c-0.291-0.082-0.492-0.348-0.492-0.649v-2.002l-0.503-0.788
			h-0.223v1.952c0,0.2-0.088,0.389-0.241,0.517c-0.152,0.129-0.354,0.182-0.551,0.148l-1.268-0.224
			c-0.322-0.057-0.558-0.337-0.558-0.665v-0.677l-0.124-0.009c-0.353-0.026-0.625-0.32-0.625-0.673v-0.934L32.9,12.85h-0.404
			c0.098,0.12,0.151,0.27,0.151,0.426v1.155c0,0.277-0.169,0.527-0.428,0.628l-0.552,0.217v1.245c0,0.193-0.082,0.377-0.227,0.504
			l-0.754,0.67v1.632c0,0.228-0.114,0.439-0.305,0.564l-0.617,0.404v1.342c0,0.146-0.047,0.287-0.133,0.403l-1.27,1.705
			c-0.127,0.171-0.328,0.272-0.541,0.272h-1.139c-0.234,0-0.452-0.122-0.575-0.322l-0.507-0.824c-0.065-0.106-0.1-0.229-0.1-0.354
			v-4.331l-0.514-0.146c-0.216-0.062-0.388-0.226-0.458-0.439l-0.309-0.943h-0.064l-0.674,0.591
			c-0.246,0.214-0.609,0.223-0.865,0.02l-0.951-0.757c-0.062-0.05-0.114-0.108-0.155-0.176l-0.951-1.553
			c-0.131-0.214-0.132-0.484-0.003-0.699l0.365-0.61V12.45c0-0.189,0.079-0.37,0.219-0.498l1.441-1.32
			c0.153-0.139,0.361-0.2,0.564-0.168l2.31,0.376h1.339l-1.078-0.491l-1.701-0.305h-3.14c-0.373,0-0.675-0.302-0.675-0.675V8.518
			c0-0.185,0.075-0.361,0.208-0.488l1.124-1.073c0.112-0.107,0.258-0.172,0.413-0.185l1.837-0.146l1.555-1.484
			c0.206-0.196,0.516-0.242,0.768-0.115l0.735,0.369h2.104l1.588-1.044c0.11-0.072,0.239-0.111,0.371-0.111h11.745
			c0.372,0,0.675,0.302,0.675,0.675v1.265c0,0.373-0.303,0.675-0.675,0.675H41.11l0.045,0.06l1.684,0.487
			c0.288,0.083,0.487,0.348,0.487,0.648v0.825c0,0.373-0.303,0.675-0.675,0.675h-0.594v0.66l0.94,0.562
			c0.203,0.122,0.328,0.342,0.328,0.58v1.32c0,0.231-0.117,0.446-0.313,0.57l-0.207,0.131v4.911c0,0.373-0.303,0.675-0.675,0.675
			H41.08c0.002,0.001,0.002,0.002,0.002,0.003l0.686,0.941c0.085,0.115,0.13,0.254,0.13,0.396v2.658
			c0,0.188-0.077,0.365-0.213,0.492l-2.527,2.371C39.029,25.938,38.863,26.002,38.695,26.002z M37.526,22.669h0.611
			c0.159,0,0.313,0.056,0.436,0.158l0.558,0.472c0.141,0.118,0.227,0.289,0.238,0.472l1.179-1.106v-2.146l-0.198-0.273l-2.823,1.629
			V22.669z M27.061,22.669h0.423l0.933-1.254v-1.482c0-0.229,0.114-0.439,0.305-0.564l0.617-0.405v-1.57
			c0-0.193,0.082-0.377,0.227-0.504l0.754-0.67v-1.402c0-0.277,0.17-0.526,0.428-0.628l0.552-0.217v-0.396l-0.99-0.9
			c-0.206-0.188-0.276-0.483-0.175-0.743c0.1-0.26,0.35-0.431,0.629-0.431h2.421c0.181,0,0.354,0.072,0.479,0.2l0.924,0.935
			c0.125,0.126,0.195,0.297,0.195,0.475v0.584l0.124,0.009c0.235,0.018,0.437,0.155,0.543,0.35v-0.777
			c0-0.373,0.302-0.675,0.675-0.675h1.268c0.23,0,0.445,0.117,0.568,0.312l0.809,1.265c0.068,0.108,0.105,0.234,0.105,0.363v1.689
			l0.314,0.088c0.099,0.027,0.189,0.077,0.266,0.145l1.289,1.145h0.715V13c0-0.231,0.117-0.446,0.313-0.57l0.207-0.131v-0.566
			l-0.939-0.562c-0.205-0.122-0.329-0.342-0.329-0.58V8.875c0-0.251,0.137-0.47,0.34-0.586l-0.486-0.141
			c-0.142-0.041-0.267-0.127-0.354-0.246l-0.98-1.32c-0.152-0.205-0.176-0.478-0.061-0.706c0.062-0.123,0.158-0.222,0.273-0.287
			h-8.332L29.52,6.633c-0.11,0.072-0.239,0.111-0.371,0.111h-2.465c-0.105,0-0.208-0.024-0.302-0.071l-0.453-0.227l-1.385,1.322
			c-0.112,0.107-0.258,0.172-0.412,0.185l-1.837,0.146l-0.625,0.597h2.409c0.04,0,0.08,0.003,0.119,0.01l1.844,0.33
			c0.055,0.01,0.109,0.027,0.161,0.05l1.96,0.892c0.254,0.116,0.41,0.377,0.394,0.656l-0.058,0.923
			c-0.022,0.356-0.317,0.633-0.674,0.633h-2.42c-0.036,0-0.073-0.003-0.108-0.009l-2.041-0.332l-0.981,0.898v0.914
			c0,0.122-0.033,0.242-0.096,0.347l-0.251,0.419l0.676,1.103l0.417,0.332l0.441-0.386c0.123-0.107,0.281-0.167,0.444-0.167h0.807
			c0.292,0,0.551,0.188,0.642,0.465l0.349,1.067l0.659,0.186c0.291,0.082,0.491,0.348,0.491,0.65v4.649L27.061,22.669z"/>
	</g>
</g>
<g id="Layer_1">
</g>
</svg>
