<?xml version="1.0" encoding="iso-8859-1"?>
<!-- Generator: Adobe Illustrator 16.0.0, SVG Export Plug-In . SVG Version: 6.00 Build 0)  -->
<!DOCTYPE svg PUBLIC "-//W3C//DTD SVG 1.1//EN" "http://www.w3.org/Graphics/SVG/1.1/DTD/svg11.dtd">
<svg version="1.1" xmlns="http://www.w3.org/2000/svg" xmlns:xlink="http://www.w3.org/1999/xlink" x="0px" y="0px"
	 width="21.656px" height="26.609px" viewBox="0 0 21.656 26.609" style="enable-background:new 0 0 21.656 26.609;"
	 xml:space="preserve">
<g id="AquariusCards">
	<g>
		<path style="fill:#231F20;" d="M20.47,1.023H4.302c-0.184,0-0.359,0.074-0.486,0.207L0.788,4.373
			C0.62,4.496,0.512,4.694,0.512,4.918v21.017c0,0.373,0.302,0.675,0.675,0.675h16.168c0.19,0,0.362-0.079,0.485-0.205l3.115-3.219
			c0.121-0.126,0.189-0.295,0.189-0.47V1.698C21.145,1.326,20.843,1.023,20.47,1.023z M4.589,2.373h14.31l-1.758,1.87H2.788
			L4.589,2.373z M16.68,25.26H1.861V5.593H16.68V25.26z M18.029,24.267V5.27l1.766-1.878v19.051L18.029,24.267z"/>
		<path style="fill:#231F20;" d="M3.722,18.028c0.32,0.102,0.624-0.033,0.764-0.41l0.296-0.756h2.225l0.304,0.756
			c0.156,0.386,0.41,0.52,0.764,0.41c0.328-0.108,0.5-0.419,0.361-0.788l-1.757-4.583c-0.14-0.369-0.402-0.554-0.788-0.554
			c-0.378,0-0.641,0.185-0.78,0.562L3.36,17.24C3.222,17.609,3.394,17.92,3.722,18.028z M5.897,13.833l0.714,1.921H5.184
			L5.897,13.833z"/>
		<path style="fill:#231F20;" d="M12.16,18.112c0.615,0,1.165-0.158,1.666-0.486l0.255,0.26c0.263,0.27,0.607,0.261,0.813,0.034
			c0.229-0.235,0.238-0.554-0.024-0.831l-0.255-0.252c0.354-0.521,0.525-1.107,0.525-1.763c0-0.872-0.287-1.594-0.862-2.165
			c-0.574-0.579-1.28-0.864-2.117-0.864c-0.829,0-1.535,0.285-2.102,0.864c-0.566,0.571-0.854,1.292-0.854,2.165
			c0,0.882,0.288,1.604,0.854,2.183C10.625,17.827,11.331,18.112,12.16,18.112z M10.929,13.757c0.319-0.361,0.738-0.537,1.264-0.537
			c0.501,0,0.903,0.185,1.224,0.545c0.32,0.361,0.484,0.797,0.484,1.309c0,0.311-0.058,0.596-0.173,0.856l-0.353-0.369
			c-0.263-0.269-0.607-0.261-0.813-0.034c-0.221,0.236-0.237,0.537,0.025,0.832l0.394,0.402c-0.222,0.118-0.484,0.177-0.788,0.177
			c-0.533,0-0.952-0.177-1.264-0.538c-0.313-0.36-0.469-0.797-0.469-1.326C10.46,14.555,10.616,14.118,10.929,13.757z"/>
	</g>
</g>
<g id="Layer_1">
</g>
</svg>
