<?xml version="1.0" encoding="iso-8859-1"?>
<!-- Generator: Adobe Illustrator 16.0.0, SVG Export Plug-In . SVG Version: 6.00 Build 0)  -->
<!DOCTYPE svg PUBLIC "-//W3C//DTD SVG 1.1//EN" "http://www.w3.org/Graphics/SVG/1.1/DTD/svg11.dtd">
<svg version="1.1" xmlns="http://www.w3.org/2000/svg" xmlns:xlink="http://www.w3.org/1999/xlink" x="0px" y="0px"
	 width="30.742px" height="30.742px" viewBox="0 0 30.742 30.742" style="enable-background:new 0 0 30.742 30.742;"
	 xml:space="preserve">
<g id="Hijincks">
	<path style="fill:#231F20;" d="M27.111,30.742H3.63c-1.676,0-3.039-1.363-3.039-3.039V4.221c0-1.676,1.363-3.038,3.039-3.038
		h23.481c1.676,0,3.039,1.362,3.039,3.038v23.482C30.15,29.379,28.787,30.742,27.111,30.742z M3.63,2.532
		c-0.931,0-1.689,0.758-1.689,1.688v23.482c0,0.932,0.758,1.689,1.689,1.689h23.481c0.932,0,1.689-0.758,1.689-1.689V4.221
		c0-0.931-0.758-1.688-1.689-1.688H3.63z M25.971,27.237h-21.2c-0.373,0-0.675-0.302-0.675-0.675v-21.2
		c0-0.373,0.302-0.675,0.675-0.675h21.2c0.372,0,0.675,0.302,0.675,0.675v21.2C26.646,26.936,26.343,27.237,25.971,27.237z
		 M19.64,25.888h5.656v-5.641H19.64V25.888z M12.45,25.888h5.84v-5.641h-5.84V25.888z M5.446,25.888H11.1v-5.641H5.446V25.888z
		 M19.64,18.897h5.656v-5.842H19.64V18.897z M12.45,18.897h5.84v-5.842h-5.84V18.897z M5.446,18.897H11.1v-5.842H5.446V18.897z
		 M19.64,11.706h5.656V6.037H19.64V11.706z M12.45,11.706h5.84V6.037h-5.84V11.706z M5.446,11.706H11.1V6.037H5.446V11.706z"/>
</g>
<g id="Layer_1">
</g>
</svg>
