<?xml version="1.0" encoding="iso-8859-1"?>
<!-- Generator: Adobe Illustrator 16.0.0, SVG Export Plug-In . SVG Version: 6.00 Build 0)  -->
<!DOCTYPE svg PUBLIC "-//W3C//DTD SVG 1.1//EN" "http://www.w3.org/Graphics/SVG/1.1/DTD/svg11.dtd">
<svg version="1.1" xmlns="http://www.w3.org/2000/svg" xmlns:xlink="http://www.w3.org/1999/xlink" x="0px" y="0px"
	 width="27.679px" height="27.148px" viewBox="0 0 27.679 27.148" style="enable-background:new 0 0 27.679 27.148;"
	 xml:space="preserve">
<g id="ZendoMarkers">
	<path style="fill:#231F20;" d="M20.677,6.442c-1.871-3.224-5.352-5.397-9.348-5.397c-5.969,0-10.807,4.838-10.807,10.807
		c0,4.43,2.667,8.232,6.481,9.901c1.871,3.223,5.351,5.396,9.346,5.396c5.969,0,10.808-4.838,10.808-10.807
		C27.157,11.913,24.49,8.111,20.677,6.442z M16.35,25.81c-2.905,0-5.506-1.316-7.244-3.383c0.718,0.15,1.461,0.231,2.223,0.231
		c5.97,0,10.809-4.838,10.809-10.807c0-1.186-0.198-2.323-0.551-3.391c2.549,1.699,4.231,4.596,4.231,7.881
		C25.818,21.563,21.571,25.81,16.35,25.81z"/>
</g>
<g id="Layer_1">
</g>
</svg>
