<?xml version="1.0" encoding="iso-8859-1"?>
<!-- Generator: Adobe Illustrator 16.0.0, SVG Export Plug-In . SVG Version: 6.00 Build 0)  -->
<!DOCTYPE svg PUBLIC "-//W3C//DTD SVG 1.1//EN" "http://www.w3.org/Graphics/SVG/1.1/DTD/svg11.dtd">
<svg version="1.1" xmlns="http://www.w3.org/2000/svg" xmlns:xlink="http://www.w3.org/1999/xlink" x="0px" y="0px"
	 width="21.656px" height="26.609px" viewBox="0 0 21.656 26.609" style="enable-background:new 0 0 21.656 26.609;"
	 xml:space="preserve">
<g id="PokerCards">
	<g>
		<path style="fill:#231F20;" d="M20.47,1.023H4.302c-0.184,0-0.359,0.074-0.486,0.207L0.788,4.373
			C0.62,4.496,0.512,4.694,0.512,4.918v21.017c0,0.373,0.302,0.675,0.675,0.675h16.168c0.19,0,0.362-0.079,0.485-0.205l3.115-3.219
			c0.121-0.126,0.189-0.295,0.189-0.47V1.698C21.145,1.326,20.843,1.023,20.47,1.023z M4.589,2.373h14.31l-1.758,1.87H2.788
			L4.589,2.373z M16.68,25.26H1.861V5.593H16.68V25.26z M18.029,24.267V5.27l1.766-1.878v19.051L18.029,24.267z"/>
		<path style="fill:#231F20;" d="M7.281,19.89c0.516,0,0.899-0.367,0.899-0.969v-1.816H9.8c0.972,0,1.763-0.27,2.375-0.821
			c0.611-0.553,0.911-1.275,0.911-2.172c0-0.883-0.3-1.582-0.899-2.098c-0.6-0.515-1.392-0.772-2.387-0.772H7.533
			c-0.72,0-1.14,0.429-1.14,1.165v6.515C6.394,19.522,6.766,19.89,7.281,19.89z M8.181,12.922h1.307c1.235,0,1.823,0.38,1.823,1.227
			s-0.611,1.275-1.823,1.275H8.181V12.922z"/>
	</g>
</g>
<g id="Layer_1">
</g>
</svg>
