<?xml version="1.0" encoding="iso-8859-1"?>
<!-- Generator: Adobe Illustrator 16.0.0, SVG Export Plug-In . SVG Version: 6.00 Build 0)  -->
<!DOCTYPE svg PUBLIC "-//W3C//DTD SVG 1.1//EN" "http://www.w3.org/Graphics/SVG/1.1/DTD/svg11.dtd">
<svg version="1.1" xmlns="http://www.w3.org/2000/svg" xmlns:xlink="http://www.w3.org/1999/xlink" x="0px" y="0px"
	 width="38.507px" height="28.101px" viewBox="0 0 38.507 28.101" style="enable-background:new 0 0 38.507 28.101;"
	 xml:space="preserve">
<g id="StashPad">
	<g>
		<path style="fill:#231F20;" d="M0.541,1.081v27.02h37.426V1.081H0.541z M36.967,27.101H1.541V2.081h35.426V27.101z"/>
		<path style="fill:#231F20;" d="M13.845,12.842c0.038,0.033,0.088,0.051,0.14,0.049l5.422-0.199
			c0.066-0.002,0.128-0.038,0.165-0.095c0.006-0.01,0.013-0.023,0.017-0.034c0.021-0.051,0.021-0.108-0.001-0.158l-1.552-3.604
			c-0.022-0.05-0.063-0.089-0.114-0.109c-0.011-0.005-0.025-0.008-0.036-0.012c-0.067-0.012-0.135,0.008-0.183,0.055l-3.868,3.804
			C13.75,12.623,13.76,12.772,13.845,12.842z"/>
		<path style="fill:#231F20;" d="M13.062,11.887c0.049,0.001,0.099-0.015,0.139-0.049l4.126-3.523
			c0.05-0.042,0.076-0.108,0.07-0.176c-0.002-0.013-0.003-0.026-0.008-0.038c-0.015-0.052-0.051-0.096-0.1-0.122l-3.453-1.862
			c-0.05-0.026-0.105-0.031-0.157-0.015c-0.012,0.003-0.025,0.009-0.036,0.014c-0.061,0.031-0.102,0.089-0.109,0.156l-0.672,5.385
			C12.849,11.773,12.949,11.884,13.062,11.887z"/>
		<path style="fill:#231F20;" d="M11.329,11.706c0.06,0.102,0.207,0.128,0.297,0.062c0.041-0.028,0.07-0.072,0.08-0.122l1.132-5.308
			c0.017-0.065-0.004-0.134-0.05-0.182c-0.009-0.01-0.019-0.018-0.029-0.026c-0.042-0.032-0.101-0.044-0.152-0.035L8.732,6.718
			C8.677,6.727,8.629,6.756,8.599,6.801C8.591,6.81,8.583,6.822,8.579,6.834C8.548,6.895,8.55,6.965,8.586,7.023L11.329,11.706z"/>
		<path style="fill:#231F20;" d="M5.18,10.764l5.116,1.812c0.11,0.038,0.24-0.036,0.266-0.145c0.014-0.047,0.007-0.101-0.016-0.145
			L7.989,7.499c-0.031-0.06-0.091-0.099-0.156-0.105C7.819,7.391,7.807,7.39,7.793,7.392C7.74,7.394,7.689,7.421,7.654,7.462
			l-2.56,2.975c-0.037,0.041-0.053,0.094-0.047,0.148c-0.001,0.013,0.001,0.027,0.005,0.039C5.068,10.689,5.115,10.742,5.18,10.764z
			"/>
		<path style="fill:#231F20;" d="M4.625,15.804c0.007,0.009,0.019,0.018,0.03,0.025c0.058,0.034,0.127,0.04,0.189,0.012l4.942-2.243
			c0.105-0.05,0.148-0.193,0.091-0.29c-0.023-0.043-0.064-0.077-0.112-0.092l-5.163-1.677c-0.062-0.021-0.133-0.009-0.186,0.032
			c-0.011,0.008-0.02,0.017-0.028,0.027c-0.037,0.04-0.055,0.093-0.051,0.147l0.218,3.918C4.56,15.72,4.584,15.77,4.625,15.804z"/>
		<path style="fill:#231F20;" d="M35.612,20.189l-6.354,3.135c-0.137,0.068-0.187,0.257-0.108,0.38
			c0.033,0.055,0.089,0.097,0.153,0.116l6.802,1.973c0.084,0.025,0.177,0.006,0.243-0.049c0.011-0.011,0.025-0.024,0.036-0.036
			c0.046-0.056,0.069-0.126,0.062-0.196l-0.447-5.105c-0.008-0.07-0.041-0.135-0.096-0.18c-0.013-0.012-0.03-0.021-0.041-0.028
			C35.782,20.155,35.691,20.152,35.612,20.189z"/>
		<path style="fill:#231F20;" d="M35.478,19.325c0.003-0.018,0.006-0.033,0.007-0.052c0.002-0.069-0.023-0.138-0.074-0.189
			l-3.519-3.721c-0.053-0.055-0.118-0.084-0.189-0.084c-0.017-0.003-0.034,0-0.05,0.002c-0.088,0.014-0.163,0.068-0.2,0.148
			l-3.037,6.4c-0.064,0.141,0.016,0.318,0.154,0.366c0.061,0.024,0.127,0.021,0.19-0.003l6.559-2.68
			C35.397,19.483,35.458,19.411,35.478,19.325z"/>
		<path style="fill:#231F20;" d="M30.575,14.981c-0.008-0.018-0.016-0.031-0.025-0.046c-0.039-0.056-0.106-0.095-0.175-0.105
			l-5.057-0.812c-0.075-0.012-0.145,0.003-0.199,0.048c-0.016,0.007-0.029,0.019-0.04,0.033c-0.063,0.062-0.088,0.151-0.068,0.238
			l1.484,6.926c0.032,0.151,0.205,0.243,0.343,0.2c0.062-0.02,0.118-0.062,0.149-0.121l3.574-6.115
			C30.61,15.15,30.612,15.059,30.575,14.981z"/>
		<path style="fill:#231F20;" d="M19.165,17.303c-0.006,0.017-0.01,0.035-0.009,0.051c-0.007,0.089,0.029,0.174,0.102,0.226
			l5.601,4.339c0.119,0.094,0.312,0.056,0.39-0.069c0.036-0.054,0.049-0.121,0.037-0.187l-1.209-6.982
			c-0.014-0.085-0.071-0.159-0.149-0.194c-0.019-0.008-0.032-0.014-0.049-0.018c-0.066-0.02-0.143-0.007-0.2,0.031l-4.393,2.639
			C19.223,17.176,19.179,17.233,19.165,17.303z"/>
		<path style="fill:#231F20;" d="M18.224,18.305c-0.068-0.053-0.162-0.064-0.243-0.037c-0.017,0.008-0.031,0.013-0.047,0.021
			c-0.062,0.035-0.106,0.095-0.123,0.161l-1.333,4.947c-0.02,0.072-0.009,0.144,0.028,0.203c0.004,0.015,0.015,0.03,0.027,0.045
			c0.056,0.066,0.142,0.102,0.23,0.093l7.046-0.761c0.149-0.018,0.263-0.179,0.231-0.32c-0.013-0.064-0.049-0.123-0.104-0.16
			L18.224,18.305z"/>
		<path style="fill:#231F20;" d="M31.733,10.393c-0.084,0.025-0.127,0.127-0.095,0.202c0.015,0.034,0.039,0.063,0.074,0.08
			l3.638,1.715c0.044,0.021,0.098,0.018,0.141-0.006c0.007-0.004,0.015-0.011,0.021-0.018c0.032-0.025,0.051-0.063,0.053-0.104
			l0.207-2.9c0.001-0.042-0.011-0.081-0.039-0.11c-0.005-0.008-0.014-0.014-0.019-0.02c-0.04-0.032-0.091-0.042-0.141-0.027
			L31.733,10.393z"/>
		<path style="fill:#231F20;" d="M31.446,9.699c0.033,0.019,0.071,0.024,0.109,0.015l3.917-0.914
			c0.045-0.011,0.086-0.045,0.104-0.093C35.58,8.7,35.584,8.69,35.585,8.68c0.008-0.039-0.002-0.08-0.024-0.114l-1.638-2.4
			c-0.024-0.034-0.061-0.056-0.1-0.065C33.816,6.1,33.804,6.1,33.796,6.1c-0.051,0-0.097,0.023-0.125,0.065l-2.276,3.315
			C31.346,9.552,31.375,9.66,31.446,9.699z"/>
		<path style="fill:#231F20;" d="M30.544,9.133c0.036-0.004,0.069-0.024,0.094-0.053l2.552-3.109
			c0.033-0.037,0.043-0.09,0.028-0.136c-0.002-0.011-0.005-0.018-0.009-0.027c-0.018-0.036-0.051-0.064-0.088-0.076l-2.763-0.909
			c-0.04-0.013-0.082-0.011-0.116,0.009c-0.01,0.003-0.017,0.008-0.025,0.015c-0.04,0.03-0.063,0.077-0.059,0.126l0.21,4.017
			C30.373,9.077,30.462,9.145,30.544,9.133z"/>
		<path style="fill:#231F20;" d="M29.393,9.211c0.06,0.063,0.169,0.058,0.225-0.004c0.024-0.026,0.039-0.064,0.038-0.1l-0.052-4.021
			c-0.001-0.05-0.026-0.097-0.067-0.124C29.528,4.955,29.52,4.95,29.51,4.947c-0.035-0.017-0.077-0.015-0.114-0.002l-2.7,1.087
			c-0.036,0.016-0.065,0.044-0.08,0.082c-0.005,0.007-0.009,0.018-0.01,0.027c-0.012,0.049,0.002,0.1,0.036,0.136L29.393,9.211z"/>
		<path style="fill:#231F20;" d="M24.693,9.505l4.017,0.206c0.086,0.003,0.162-0.077,0.16-0.16
			c-0.003-0.037-0.019-0.073-0.046-0.099L25.997,6.59c-0.031-0.035-0.084-0.05-0.132-0.043c-0.01,0.002-0.02,0.004-0.028,0.008
			c-0.038,0.014-0.067,0.042-0.083,0.08l-1.19,2.655c-0.018,0.037-0.019,0.078-0.003,0.116c0.003,0.008,0.005,0.018,0.012,0.027
			C24.598,9.474,24.643,9.501,24.693,9.505z"/>
	</g>
</g>
<g id="Layer_1">
</g>
</svg>
