<?xml version="1.0" encoding="iso-8859-1"?>
<!-- Generator: Adobe Illustrator 16.0.0, SVG Export Plug-In . SVG Version: 6.00 Build 0)  -->
<!DOCTYPE svg PUBLIC "-//W3C//DTD SVG 1.1//EN" "http://www.w3.org/Graphics/SVG/1.1/DTD/svg11.dtd">
<svg version="1.1" xmlns="http://www.w3.org/2000/svg" xmlns:xlink="http://www.w3.org/1999/xlink" x="0px" y="0px" width="24.19px"
	 height="25.966px" viewBox="0 0 24.19 25.966" style="enable-background:new 0 0 24.19 25.966;" xml:space="preserve">
<g id="GraphPaper">
	<g>
		<path style="fill:#231F20;" d="M23.563,6.313l-0.484-0.233c-0.172-0.082-0.449,0.137-0.621,0.493l-2.437,5.066V0.999H0.5v24.967
			h19.521V14.473l3.544-7.369C23.735,6.75,23.733,6.395,23.563,6.313z M19.021,13.717l-3,6.238l-0.598,2.117
			c-0.106,0.219-0.098,0.443,0.021,0.498c0.116,0.059,0.297-0.074,0.404-0.297l1.279-1.785l1.894-3.937v8.414H1.5V4.044h17.521
			V13.717z M19.021,3.544H1.5V1.999h17.521V3.544z"/>
		<path style="fill:#231F20;" d="M2.236,23.346h2.626h0.3h2.323h0.3h2.326h0.3h2.625v-0.15v-2.628v-0.15l0,0v-2.324h2.473h0.15
			v-0.15v-2.474v-0.15v-0.15v-2.325h2.476h0.15v-2.626v-0.3V7.594v-0.3V4.668h-2.626h-0.301h-2.322h-0.3H10.41h-0.3H7.784h-0.3
			H5.162h-0.3H2.236v2.626v0.3v2.323v0.3v2.326v0.3v2.325v0.301v2.323v0.301v2.625h0V23.346z M15.659,4.968h2.325v2.326h-2.325
			V4.968z M15.659,7.594h2.325v2.323h-2.325V7.594z M15.659,10.217h2.325v2.326h-2.325V10.217z M13.036,4.968h2.322v2.326h-2.322
			V4.968z M13.036,7.594h2.322v2.323h-2.322V7.594z M13.036,10.217h2.322v2.326h-2.322V10.217z M13.036,12.843h2.322v2.325h-2.322
			V12.843z M13.036,15.469h2.322v2.323h-2.322V15.469z M4.862,23.045H2.536v-2.327h2.326h0V23.045z M12.737,20.718v2.327h-2.326
			v-2.327H12.737z M10.41,4.968h2.326v2.326H10.41V4.968z M10.41,7.594h2.326v2.323H10.41V7.594z M10.41,10.217h2.326v2.326H10.41
			V10.217z M10.41,12.843h2.326v2.325H10.41V12.843z M10.41,15.469h2.326v2.323H10.41V15.469z M10.41,18.093h2.326v2.324h-2.326h0
			V18.093z M10.111,20.718v2.327H7.785v-2.327H10.111L10.111,20.718z M7.784,4.968h2.326v2.326H7.784V4.968z M7.784,7.594h2.326
			v2.323H7.784V7.594z M7.784,10.217h2.326v2.326H7.784V10.217z M7.784,12.843h2.326v2.325H7.784V12.843z M7.784,15.469h2.326v2.323
			H7.784V15.469z M7.784,18.093h2.326v2.324H7.785h0V18.093z M7.485,20.718v2.327H5.162v-2.327H7.485L7.485,20.718z M5.162,4.968
			h2.323v2.326H5.162V4.968z M5.162,7.594h2.323v2.323H5.162V7.594z M5.162,10.217h2.323v2.326H5.162V10.217z M5.162,12.843h2.323
			v2.325H5.162V12.843z M5.162,15.469h2.323v2.323H5.162V15.469z M5.162,18.093h2.323v2.324H5.162h0V18.093z M2.536,4.968h2.326
			v2.326H2.536V4.968z M2.536,7.594h2.326v2.323H2.536V7.594z M2.536,10.217h2.326v2.326H2.536V10.217z M2.536,12.843h2.326v2.325
			H2.536V12.843z M2.536,15.469h2.326v2.323H2.536V15.469z M2.536,18.093h2.326v2.324H2.536V18.093z"/>
	</g>
</g>
<g id="Layer_1">
</g>
</svg>
