<?xml version="1.0" encoding="iso-8859-1"?>
<!-- Generator: Adobe Illustrator 16.0.0, SVG Export Plug-In . SVG Version: 6.00 Build 0)  -->
<!DOCTYPE svg PUBLIC "-//W3C//DTD SVG 1.1//EN" "http://www.w3.org/Graphics/SVG/1.1/DTD/svg11.dtd">
<svg version="1.1" xmlns="http://www.w3.org/2000/svg" xmlns:xlink="http://www.w3.org/1999/xlink" x="0px" y="0px"
	 width="31.268px" height="30.58px" viewBox="0 0 31.268 30.58" style="enable-background:new 0 0 31.268 30.58;"
	 xml:space="preserve">
<g id="Petal">
	<g>
		<path style="fill:#231F20;" d="M15.634,1.176c-8.296,0-15.046,6.596-15.046,14.702S7.337,30.58,15.634,30.58
			c8.297,0,15.046-6.596,15.046-14.702S23.931,1.176,15.634,1.176z M15.634,29.23c-7.552,0-13.696-5.99-13.696-13.353
			S8.082,2.525,15.634,2.525c7.553,0,13.696,5.99,13.696,13.353S23.187,29.23,15.634,29.23z"/>
		<path style="fill:#231F20;" d="M28.012,15.878c0-1.842-1.528-3.341-3.406-3.341c-0.351,0-0.823,0.119-1.611,0.364
			c0.724-0.365,1.14-0.605,1.387-0.846c0.647-0.632,1.003-1.473,1.003-2.369c0-0.896-0.355-1.736-1.004-2.368
			c-1.285-1.254-3.519-1.254-4.806,0c-0.265,0.259-0.527,0.705-0.947,1.506c0.278-0.845,0.414-1.337,0.414-1.7
			c0-1.843-1.528-3.341-3.407-3.341c-1.878,0-3.406,1.498-3.406,3.341c0,0.364,0.136,0.857,0.416,1.705
			c-0.421-0.804-0.685-1.252-0.95-1.511c-1.285-1.254-3.521-1.254-4.805,0C6.241,7.95,5.884,8.791,5.884,9.687
			c0,0.896,0.357,1.737,1.003,2.368c0.247,0.241,0.663,0.481,1.387,0.847c-0.789-0.245-1.261-0.364-1.611-0.364
			c-1.879,0-3.407,1.499-3.407,3.341s1.528,3.341,3.407,3.341c0.35,0,0.822-0.119,1.611-0.364C7.55,19.22,7.134,19.46,6.888,19.7
			c-0.648,0.632-1.004,1.474-1.004,2.369c0,0.896,0.357,1.736,1.004,2.367c1.285,1.254,3.521,1.254,4.805,0
			c0.266-0.258,0.529-0.706,0.951-1.51c-0.28,0.847-0.416,1.341-0.416,1.705c0,1.842,1.528,3.341,3.406,3.341
			c1.879,0,3.407-1.499,3.407-3.341c0-0.363-0.136-0.856-0.414-1.7c0.421,0.801,0.683,1.247,0.948,1.505
			c1.285,1.254,3.52,1.254,4.805,0c0.647-0.631,1.004-1.472,1.004-2.367s-0.355-1.737-1.003-2.369
			c-0.247-0.24-0.663-0.48-1.387-0.846c0.788,0.245,1.261,0.364,1.611,0.364C26.483,19.219,28.012,17.72,28.012,15.878z
			 M18.813,11.397c0.223-0.423,0.428-0.82,0.615-1.185c0.438-0.854,0.892-1.735,1.088-1.928c0.391-0.38,0.908-0.589,1.461-0.589
			s1.07,0.209,1.46,0.589c0.385,0.375,0.597,0.873,0.597,1.401c0,0.529-0.212,1.027-0.597,1.402
			c-0.199,0.195-1.111,0.642-1.993,1.073c-0.369,0.181-0.771,0.378-1.199,0.592c-1.015,0.51-2.082,1.056-2.964,1.51
			C17.744,13.409,18.298,12.378,18.813,11.397z M15.634,5.133c1.134,0,2.058,0.894,2.058,1.991c0,0.268-0.317,1.201-0.625,2.104
			c-0.132,0.388-0.276,0.812-0.425,1.266c-0.351,1.067-0.712,2.197-1.007,3.13c-0.295-0.933-0.656-2.063-1.007-3.13
			c-0.149-0.454-0.293-0.878-0.425-1.266c-0.307-0.902-0.625-1.836-0.625-2.104C13.577,6.026,14.5,5.133,15.634,5.133z
			 M7.831,11.089c-0.385-0.375-0.597-0.873-0.597-1.402c0-0.528,0.212-1.026,0.597-1.401c0.389-0.38,0.907-0.589,1.459-0.589
			s1.071,0.209,1.459,0.589c0.197,0.192,0.651,1.074,1.089,1.928c0.187,0.364,0.392,0.762,0.614,1.185
			c0.517,0.98,1.071,2.012,1.533,2.866c-0.881-0.454-1.949-1-2.964-1.51c-0.43-0.215-0.834-0.413-1.205-0.595
			C8.939,11.729,8.03,11.284,7.831,11.089z M6.663,17.869c-1.134,0-2.058-0.894-2.058-1.991s0.923-1.991,2.058-1.991
			c0.284,0,1.248,0.313,2.18,0.614c0.395,0.128,0.826,0.268,1.288,0.413c1.07,0.334,2.203,0.68,3.146,0.964
			c-0.943,0.284-2.076,0.63-3.146,0.964c-0.462,0.146-0.893,0.285-1.288,0.413C7.911,17.557,6.947,17.869,6.663,17.869z
			 M12.454,20.358c-0.222,0.422-0.426,0.818-0.613,1.183c-0.439,0.854-0.893,1.736-1.09,1.929c-0.777,0.76-2.141,0.76-2.919,0
			c-0.385-0.375-0.597-0.872-0.597-1.4c0-0.529,0.212-1.027,0.598-1.403c0.198-0.194,1.107-0.639,1.986-1.069
			c0.371-0.182,0.775-0.38,1.205-0.595c1.015-0.51,2.083-1.056,2.964-1.51C13.524,18.347,12.97,19.378,12.454,20.358z
			 M15.634,26.623c-1.134,0-2.057-0.894-2.057-1.991c0-0.268,0.318-1.201,0.625-2.104c0.132-0.388,0.276-0.812,0.425-1.266
			c0.351-1.067,0.712-2.197,1.007-3.13c0.295,0.933,0.656,2.063,1.007,3.13c0.149,0.454,0.293,0.878,0.425,1.266
			c0.308,0.902,0.625,1.836,0.625,2.104C17.691,25.729,16.768,26.623,15.634,26.623z M23.438,20.667
			c0.385,0.375,0.597,0.873,0.597,1.402c0,0.528-0.212,1.025-0.596,1.4c-0.779,0.76-2.142,0.76-2.922,0
			c-0.197-0.192-0.65-1.075-1.09-1.929c-0.187-0.363-0.391-0.761-0.613-1.183c-0.516-0.98-1.069-2.012-1.532-2.866
			c0.882,0.454,1.949,1,2.964,1.51c0.428,0.214,0.83,0.411,1.199,0.592C22.326,20.025,23.238,20.472,23.438,20.667z M22.429,17.256
			c-0.396-0.128-0.828-0.269-1.293-0.414c-1.069-0.334-2.201-0.68-3.145-0.964c0.943-0.284,2.075-0.63,3.145-0.964
			c0.465-0.146,0.896-0.286,1.293-0.414c0.931-0.302,1.893-0.613,2.177-0.613c1.134,0,2.057,0.894,2.057,1.991
			s-0.923,1.991-2.057,1.991C24.321,17.869,23.359,17.558,22.429,17.256z"/>
	</g>
</g>
<g id="Layer_1">
</g>
</svg>
