<?xml version="1.0" encoding="iso-8859-1"?>
<!-- Generator: Adobe Illustrator 16.0.0, SVG Export Plug-In . SVG Version: 6.00 Build 0)  -->
<!DOCTYPE svg PUBLIC "-//W3C//DTD SVG 1.1//EN" "http://www.w3.org/Graphics/SVG/1.1/DTD/svg11.dtd">
<svg version="1.1" xmlns="http://www.w3.org/2000/svg" xmlns:xlink="http://www.w3.org/1999/xlink" x="0px" y="0px"
	 width="30.743px" height="30.743px" viewBox="0 0 30.743 30.743" style="enable-background:new 0 0 30.743 30.743;"
	 xml:space="preserve">
<g id="Ludo">
	<g>
		<path style="fill:#231F20;" d="M26.867,1.183H3.875c-1.81,0-3.283,1.473-3.283,3.283V27.46c0,1.811,1.473,3.283,3.283,3.283
			h22.993c1.812,0,3.284-1.473,3.284-3.283V4.466C30.151,2.655,28.679,1.183,26.867,1.183z M28.747,27.46
			c0,1.036-0.844,1.879-1.88,1.879H3.875c-1.036,0-1.879-0.843-1.879-1.879V4.466c0-1.036,0.843-1.879,1.879-1.879h22.993
			c1.036,0,1.88,0.843,1.88,1.879V27.46z"/>
		<path style="fill:#231F20;" d="M17.98,12.654h-0.331l-0.876-0.876c-0.166-0.168-0.437-0.168-0.603,0l-0.876,0.876h-2.534
			c-0.353,0-0.639,0.286-0.639,0.639v5.22c0,0.353,0.286,0.639,0.639,0.639h0.638l0.875,0.876c0.08,0.08,0.188,0.125,0.301,0.125
			c0.113,0,0.221-0.045,0.301-0.125l0.876-0.876h2.228c0.353,0,0.64-0.286,0.64-0.639v-0.418l0.875-0.876
			c0.167-0.166,0.167-0.436,0-0.602l-0.875-0.876v-2.448C18.62,12.94,18.333,12.654,17.98,12.654z M17.342,17.874H13.4v-3.942h3.941
			V17.874z"/>
		<path style="fill:#231F20;" d="M4.97,11.345h0.638l0.875,0.877c0.08,0.08,0.188,0.125,0.301,0.125
			c0.113,0,0.222-0.045,0.301-0.125l0.876-0.877h2.228c0.353,0,0.639-0.286,0.639-0.639v-0.417l0.876-0.875
			c0.167-0.167,0.167-0.437,0-0.603l-0.876-0.877V5.486c0-0.353-0.286-0.639-0.639-0.639H9.512L8.636,3.972
			C8.47,3.804,8.2,3.805,8.033,3.971L7.156,4.848H4.97c-0.353,0-0.639,0.286-0.639,0.639v5.22
			C4.331,11.059,4.617,11.345,4.97,11.345z M5.609,6.125h3.941v3.942H5.609V6.125z"/>
		<path style="fill:#231F20;" d="M14.938,17.496h0.866c0.64,0,1.161-0.521,1.161-1.16v-0.867c0-0.64-0.521-1.159-1.161-1.159h-0.866
			c-0.639,0-1.16,0.52-1.16,1.159v0.867C13.778,16.976,14.299,17.496,14.938,17.496z M15.057,15.587h0.63v0.632h-0.63V15.587z"/>
		<path style="fill:#231F20;" d="M12.122,8.185v2.521c0,0.353,0.286,0.639,0.639,0.639H13.4l0.875,0.877
			c0.08,0.08,0.188,0.125,0.301,0.125c0.113,0,0.222-0.045,0.301-0.125l0.876-0.877h2.226c0.353,0,0.64-0.286,0.64-0.639V10.29
			l0.877-0.876c0.166-0.167,0.166-0.437,0-0.603L18.62,7.934V5.486c0-0.353-0.287-0.639-0.64-0.639h-5.219
			c-0.353,0-0.639,0.286-0.639,0.639v0.345l-0.876,0.876c-0.167,0.166-0.167,0.436,0,0.602L12.122,8.185z M13.4,6.125h3.941v3.942
			H13.4V6.125z"/>
		<path style="fill:#231F20;" d="M26.411,15.74v-2.447c0-0.353-0.287-0.639-0.64-0.639H25.44l-0.875-0.876
			c-0.08-0.08-0.188-0.125-0.302-0.125c-0.112,0-0.222,0.045-0.302,0.125l-0.875,0.876h-2.535c-0.354,0-0.639,0.286-0.639,0.639
			v5.22c0,0.353,0.285,0.639,0.639,0.639h0.638l0.876,0.876c0.079,0.08,0.188,0.125,0.301,0.125s0.221-0.045,0.301-0.125
			l0.877-0.876h2.228c0.353,0,0.64-0.286,0.64-0.639v-0.417l0.877-0.877c0.166-0.166,0.166-0.436,0-0.602L26.411,15.74z
			 M25.132,17.874H21.19v-3.942h3.941V17.874z"/>
		<path style="fill:#231F20;" d="M26.411,7.934V5.486c0-0.353-0.287-0.639-0.64-0.639H25.44l-0.875-0.876
			c-0.08-0.08-0.188-0.125-0.302-0.125c-0.112,0-0.222,0.045-0.302,0.125l-0.875,0.876h-2.535c-0.354,0-0.639,0.286-0.639,0.639
			v0.345l-0.877,0.876c-0.166,0.166-0.166,0.436,0,0.602l0.877,0.876v2.521c0,0.353,0.285,0.639,0.639,0.639h5.22
			c0.353,0,0.64-0.286,0.64-0.639V10.29l0.877-0.876c0.166-0.167,0.166-0.437,0-0.603L26.411,7.934z M25.132,10.067H21.19V6.125
			h3.941V10.067z"/>
		<path style="fill:#231F20;" d="M4.331,15.992v2.521c0,0.353,0.286,0.639,0.639,0.639h5.22c0.353,0,0.639-0.286,0.639-0.639v-0.417
			l0.877-0.877c0.167-0.166,0.167-0.436,0-0.602l-0.877-0.877v-2.447c0-0.353-0.286-0.639-0.639-0.639H9.858l-0.875-0.876
			c-0.08-0.08-0.188-0.125-0.301-0.125c-0.113,0-0.221,0.045-0.301,0.125l-0.876,0.876H4.97c-0.353,0-0.639,0.286-0.639,0.639v0.344
			l-0.877,0.877c-0.167,0.166-0.167,0.436,0,0.602L4.331,15.992z M5.609,13.932h3.941v3.942H5.609V13.932z"/>
		<path style="fill:#231F20;" d="M26.411,23.547v-2.446c0-0.353-0.287-0.639-0.64-0.639h-0.33l-0.876-0.877
			c-0.08-0.08-0.188-0.125-0.302-0.125c-0.112,0-0.222,0.045-0.302,0.125l-0.877,0.877h-2.533c-0.354,0-0.639,0.286-0.639,0.639
			v0.344l-0.877,0.875c-0.079,0.08-0.124,0.188-0.124,0.302s0.044,0.222,0.124,0.301l0.877,0.876v2.522
			c0,0.353,0.285,0.639,0.639,0.639h5.22c0.353,0,0.64-0.286,0.64-0.639v-0.418l0.877-0.877c0.166-0.166,0.166-0.436,0-0.602
			L26.411,23.547z M25.132,25.682H21.19v-3.942h3.941V25.682z"/>
		<path style="fill:#231F20;" d="M18.62,23.547v-2.446c0-0.353-0.287-0.639-0.64-0.639h-0.33l-0.877-0.877
			c-0.166-0.168-0.437-0.168-0.603,0l-0.877,0.877h-2.533c-0.353,0-0.639,0.286-0.639,0.639v0.344l-0.876,0.875
			c-0.08,0.08-0.125,0.188-0.125,0.302s0.044,0.222,0.125,0.301l0.876,0.876v2.522c0,0.353,0.286,0.639,0.639,0.639h0.64
			l0.875,0.875c0.08,0.08,0.188,0.125,0.301,0.125c0.113,0,0.221-0.045,0.301-0.125l0.875-0.875h2.228
			c0.353,0,0.64-0.286,0.64-0.639v-0.418l0.877-0.877c0.166-0.166,0.166-0.436,0-0.602L18.62,23.547z M17.342,25.682H13.4v-3.942
			h3.941V25.682z"/>
		<path style="fill:#231F20;" d="M10.829,23.547v-2.446c0-0.353-0.286-0.639-0.639-0.639H4.97c-0.353,0-0.639,0.286-0.639,0.639
			v0.343l-0.877,0.876c-0.08,0.08-0.125,0.188-0.125,0.302s0.044,0.222,0.125,0.301l0.877,0.877v2.521
			c0,0.353,0.286,0.639,0.639,0.639h0.639l0.875,0.875c0.08,0.08,0.188,0.125,0.301,0.125c0.113,0,0.221-0.045,0.301-0.125
			l0.875-0.875h2.229c0.353,0,0.639-0.286,0.639-0.639v-0.418l0.877-0.877c0.167-0.166,0.167-0.436,0-0.602L10.829,23.547z
			 M9.551,25.682H5.609v-3.942h3.941V25.682z"/>
	</g>
</g>
<g id="Layer_1">
</g>
</svg>
