<?xml version="1.0" encoding="iso-8859-1"?>
<!-- Generator: Adobe Illustrator 16.0.0, SVG Export Plug-In . SVG Version: 6.00 Build 0)  -->
<!DOCTYPE svg PUBLIC "-//W3C//DTD SVG 1.1//EN" "http://www.w3.org/Graphics/SVG/1.1/DTD/svg11.dtd">
<svg version="1.1" xmlns="http://www.w3.org/2000/svg" xmlns:xlink="http://www.w3.org/1999/xlink" x="0px" y="0px"
	 width="49.631px" height="28.226px" viewBox="0 0 49.631 28.226" style="enable-background:new 0 0 49.631 28.226;"
	 xml:space="preserve">
<g id="MarkerStones">
	<g style="display:none;">
		<path style="display:inline;fill:#231F20;" d="M47.238,14.744l-0.029-0.038c-0.094-0.098-2.287-2.431-3.219-3.029
			c-0.982-0.631-3.205-1.301-4.305-1.485c-0.213-0.036-0.57-0.054-1.059-0.054c-0.816,0-1.75,0.05-1.76,0.051l-0.018,0.002
			c-0.086,0.012-2.141,0.306-3.857,1.394c-0.762,0.484-2.117,1.719-2.609,2.472c-0.691,1.06-1.688,3.403-1.67,4.665
			c0.018,1.219,1.316,3.314,2.01,4.096c0.842,0.951,3.154,2.029,4.082,2.375c1.498,0.561,4.4,0.906,6.23,0.906
			c0.32,0,0.607-0.01,0.855-0.029c1-0.082,2.795-0.826,3.592-1.303c0.639-0.383,1.625-1.465,2.012-1.961
			c0.633-0.809,1.592-2.727,1.594-3.771C49.094,17.817,47.314,14.87,47.238,14.744z M47.137,22.526
			c-0.434,0.553-1.354,1.529-1.889,1.85c-0.75,0.447-2.506,1.166-3.395,1.238c-0.236,0.02-0.512,0.029-0.818,0.029
			c-1.799,0-4.666-0.352-6.07-0.877c-1.197-0.447-3.219-1.479-3.902-2.252c-0.754-0.85-1.881-2.82-1.895-3.799
			c-0.014-1.119,0.943-3.41,1.598-4.411c0.455-0.695,1.76-1.885,2.471-2.336c1.576-0.999,3.52-1.305,3.666-1.327
			c0.104-0.006,0.967-0.05,1.725-0.05c0.578,0,0.854,0.026,0.984,0.048c1.035,0.173,3.213,0.827,4.133,1.418
			c0.844,0.542,2.912,2.725,3.117,2.941c0.506,0.839,1.775,3.136,1.771,4.034C48.631,19.95,47.736,21.757,47.137,22.526z"/>
		<path style="display:inline;fill:#231F20;" d="M31.725,11.437c0.199-0.589,0.299-1.819,0.197-2.437
			c-0.182-1.088-1.113-3.124-1.766-4.083c-0.08-0.118-0.166-0.246-0.256-0.38c-0.766-1.147-1.814-2.718-2.957-3.192
			c-0.596-0.247-2.19-0.259-2.504-0.259c-0.302,0-0.566,0.007-0.745,0.022c-0.799,0.066-2.425,0.322-3.246,0.542
			c-0.827,0.22-2.472,0.916-3.212,1.414c-0.591,0.398-1.559,1.405-2.028,1.96c-0.052,0.062-0.11,0.131-0.174,0.205
			c-0.567,0.664-1.424,1.666-1.572,2.379c-0.208,1.003,0.489,3.02,0.646,3.457c-0.153-0.048-0.292-0.086-0.408-0.113
			c-0.621-0.14-1.801-0.245-2.745-0.245c-0.24,0-0.449,0.007-0.621,0.021c-0.837,0.068-2.488,0.475-3.297,0.767
			c-0.572,0.207-1.684,0.725-2.195,1.1c-0.845,0.619-2.386,2.162-2.98,3.081c-0.433,0.666-1.084,2.215-1.228,3.07
			c-0.167,0.994-0.11,3.064,0.195,4.064c0.258,0.848,1.191,2.385,1.848,3.049c0.527,0.533,1.834,1.262,2.551,1.588
			c0.586,0.266,1.73,0.633,2.329,0.709c0.343,0.045,0.881,0.07,1.439,0.07c0.556,0,1.062-0.025,1.387-0.07
			c1.031-0.141,2.889-0.813,3.715-1.215c0.937-0.455,2.644-1.557,3.358-2.24c0.568-0.545,1.497-1.814,1.839-2.518
			c0.348-0.713,0.817-2.27,0.871-3.07c0.043-0.643-0.161-1.898-0.357-2.479c-0.11-0.322-0.308-0.744-0.538-1.174
			c0.773,0.26,1.922,0.549,2.581,0.564c0.041,0,0.083,0,0.126,0c1.453,0,4.221-0.537,5.588-1.086
			c0.879-0.352,2.566-1.402,3.285-2.125C31.129,12.533,31.586,11.844,31.725,11.437z M19.379,16.78
			c0.18,0.529,0.373,1.719,0.334,2.301c-0.049,0.742-0.503,2.24-0.826,2.902c-0.319,0.654-1.216,1.881-1.745,2.387
			c-0.686,0.658-2.335,1.721-3.243,2.16c-0.888,0.432-2.682,1.053-3.578,1.174c-0.306,0.043-0.789,0.066-1.325,0.066
			c-0.541,0-1.057-0.025-1.382-0.066c-0.55-0.07-1.652-0.426-2.198-0.672c-0.713-0.324-1.95-1.023-2.416-1.494
			c-0.594-0.602-1.503-2.098-1.736-2.861c-0.283-0.928-0.338-2.93-0.182-3.857c0.122-0.727,0.719-2.217,1.161-2.898
			c0.57-0.88,2.053-2.363,2.867-2.959c0.472-0.346,1.547-0.846,2.08-1.039c0.783-0.283,2.376-0.676,3.179-0.741
			c0.16-0.013,0.356-0.02,0.584-0.02c0.915,0,2.052,0.101,2.645,0.234c0.201,0.045,0.461,0.126,0.737,0.224
			c0.204,0.073,0.416,0.154,0.619,0.239c0.349,0.146,0.67,0.298,0.873,0.421c0.56,0.342,1.597,1.254,2.017,1.772
			c0.102,0.125,0.214,0.282,0.332,0.458c0.141,0.211,0.289,0.449,0.432,0.696C18.941,15.778,19.247,16.39,19.379,16.78z
			 M27.4,14.516c-1.303,0.521-4.038,1.053-5.42,1.053c-0.04,0-0.079,0-0.116,0c-0.72-0.018-2.147-0.41-2.814-0.672
			c-0.04-0.016-0.083-0.033-0.125-0.052c-0.258-0.433-0.521-0.827-0.725-1.079c-0.453-0.559-1.529-1.505-2.133-1.874
			c-0.329-0.202-0.875-0.441-1.392-0.633c-0.044-0.104-0.084-0.202-0.116-0.29c-0.316-0.855-0.809-2.506-0.651-3.271
			c0.124-0.599,0.968-1.585,1.472-2.175c0.064-0.075,0.124-0.146,0.177-0.208c0.47-0.557,1.403-1.519,1.934-1.875
			c0.707-0.475,2.281-1.141,3.075-1.353c0.777-0.207,2.391-0.463,3.167-0.527c0.164-0.014,0.421-0.021,0.707-0.021
			c0.861,0,1.958,0.07,2.331,0.225c1.014,0.421,2.061,1.987,2.752,3.024c0.092,0.136,0.178,0.264,0.258,0.383
			c0.623,0.916,1.527,2.897,1.693,3.902c0.09,0.54-0.004,1.7-0.18,2.216c-0.107,0.313-0.506,0.941-0.764,1.201
			C29.859,13.167,28.221,14.187,27.4,14.516z"/>
		<path style="display:inline;fill:#231F20;" d="M14.58,18.868l-2.075,2.873l0.863,1.051l2.561-2.889l0.555-2.875l-1.705-1.016
			L14.58,18.868z M14.98,16.397l1.25,0.744L15.717,19.8l-2.343,2.643l-0.583-0.709l2.011-2.785L14.98,16.397z"/>
		<path style="display:inline;fill:#231F20;" d="M26.121,11.33l2.713-1.496l0.65-1.853l-2.432-0.695L26.121,11.33z M29.189,8.134
			l-0.541,1.543l-2.191,1.208l0.764-3.313L29.189,8.134z"/>
		<path style="display:inline;fill:#231F20;" d="M42.832,17.353l0.564,1.586l-0.508,1.711l1.24,1.977l1.174-3.506l-0.477-1.223
			L42.832,17.353z M44.064,22.097l-0.928-1.482l0.498-1.682l-0.443-1.246l1.465,0.4l0.404,1.039L44.064,22.097z"/>
	</g>
	<g>
		<path style="fill:#231F20;" d="M44.342,13.637l-0.038-0.063l-0.051-0.053c-0.207-0.223-2.062-2.186-2.915-2.734
			c-0.927-0.596-2.932-1.202-3.962-1.374c-0.217-0.037-0.547-0.054-1.009-0.054c-0.73,0-1.535,0.044-1.569,0.045L34.74,9.41
			c-0.081,0.012-1.984,0.284-3.579,1.295c-0.094,0.059-0.196,0.13-0.304,0.209c0.153-0.63,0.215-1.586,0.123-2.135
			C30.796,7.662,29.894,5.795,29.354,5c-0.07-0.103-0.144-0.213-0.221-0.33c-0.707-1.059-1.676-2.509-2.817-2.982
			c-0.579-0.239-1.862-0.265-2.387-0.265c-0.278,0-0.524,0.007-0.694,0.021c-0.72,0.06-2.189,0.292-2.933,0.49
			c-0.766,0.204-2.26,0.833-2.965,1.308c-0.618,0.416-1.534,1.399-1.881,1.811c-0.045,0.053-0.095,0.113-0.15,0.177
			c-0.702,0.821-1.344,1.615-1.487,2.309c-0.14,0.675,0.084,1.692,0.31,2.458c-0.638-0.092-1.435-0.139-2.018-0.139
			c-0.224,0-0.422,0.007-0.586,0.02c-0.783,0.064-2.265,0.429-3.019,0.7c-0.519,0.187-1.546,0.662-2.05,1.031
			c-0.778,0.571-2.172,1.96-2.736,2.83c-0.408,0.628-1.011,2.054-1.15,2.881c-0.156,0.93-0.107,2.827,0.187,3.792
			c0.249,0.816,1.113,2.242,1.742,2.877c0.561,0.566,1.849,1.252,2.385,1.496c0.492,0.223,1.562,0.584,2.184,0.662
			c0.325,0.041,0.808,0.066,1.325,0.066c0.299,0,0.864-0.01,1.284-0.066c0.951-0.131,2.654-0.744,3.407-1.111
			c0.768-0.373,2.346-1.359,3.071-2.053c0.54-0.516,1.39-1.68,1.715-2.348c0.333-0.682,0.76-2.088,0.813-2.879
			c0.044-0.645-0.147-1.8-0.338-2.364c-0.01-0.029-0.022-0.061-0.033-0.09c0.487,0.117,0.978,0.205,1.34,0.214
			c0.039,0.001,0.08,0.001,0.122,0.001c1.322,0,3.841-0.489,5.085-0.988c0.38-0.151,0.913-0.438,1.445-0.77
			c-0.535,1.046-1.141,2.61-1.126,3.63c0.017,1.266,1.257,3.203,1.886,3.914c0.807,0.912,2.894,1.891,3.777,2.219
			c1.365,0.51,3.988,0.826,5.637,0.826c0.294,0,0.561-0.01,0.79-0.027c0.963-0.08,2.607-0.76,3.364-1.211
			c0.658-0.395,1.566-1.41,1.901-1.84c0.537-0.688,1.499-2.483,1.504-3.612C46.041,16.499,44.626,14.105,44.342,13.637z
			 M19.288,17.665c-0.038,0.582-0.412,1.82-0.674,2.359c-0.256,0.523-1.003,1.545-1.425,1.949c-0.556,0.533-1.958,1.438-2.716,1.807
			c-0.742,0.359-2.266,0.885-2.987,0.984c-0.243,0.033-0.652,0.053-1.094,0.053c-0.454,0-0.883-0.021-1.148-0.055
			c-0.421-0.055-1.348-0.354-1.783-0.551c-0.589-0.266-1.623-0.854-1.97-1.205c-0.47-0.475-1.216-1.701-1.399-2.303
			c-0.224-0.734-0.271-2.397-0.145-3.152c0.095-0.564,0.599-1.818,0.944-2.353c0.465-0.717,1.724-1.975,2.39-2.463
			c0.333-0.245,1.213-0.669,1.698-0.844c0.654-0.235,2.009-0.569,2.658-0.622c0.125-0.01,0.288-0.016,0.472-0.016
			c0.757,0,1.728,0.085,2.208,0.193c0.111,0.025,0.247,0.064,0.394,0.112c0.238,0.499,0.58,1.112,0.935,1.449
			c0.657,0.624,2.001,1.317,2.822,1.683c0.242,0.43,0.457,0.866,0.554,1.149C19.173,16.289,19.315,17.26,19.288,17.665z
			 M26.339,13.233c-1.097,0.44-3.401,0.888-4.566,0.888c-0.031,0-0.061,0-0.091,0c-0.497-0.012-1.627-0.3-2.247-0.537
			c-0.211-0.344-0.42-0.652-0.587-0.859c-0.432-0.533-1.421-1.401-1.997-1.754c-0.278-0.17-0.688-0.358-1.102-0.52
			c-0.004-0.012-0.01-0.024-0.014-0.036c-0.397-1.075-0.634-2.189-0.549-2.593c0.082-0.399,0.852-1.299,1.181-1.683
			c0.057-0.067,0.11-0.129,0.157-0.185c0.392-0.463,1.186-1.279,1.592-1.551c0.571-0.385,1.9-0.945,2.546-1.118
			c0.657-0.175,2.028-0.393,2.688-0.447c0.13-0.011,0.341-0.017,0.579-0.017c0.907,0,1.668,0.082,1.852,0.159
			c0.75,0.311,1.616,1.608,2.19,2.466c0.08,0.121,0.156,0.235,0.228,0.339c0.508,0.747,1.271,2.413,1.404,3.222
			c0.064,0.391-0.011,1.328-0.137,1.7c-0.07,0.205-0.38,0.689-0.553,0.863C28.42,12.069,27.071,12.939,26.339,13.233z
			 M43.434,20.409c-0.355,0.455-1.122,1.266-1.519,1.502c-0.676,0.404-2.11,0.965-2.761,1.018c-0.194,0.016-0.422,0.023-0.677,0.023
			c-1.533,0-3.967-0.297-5.147-0.738c-0.974-0.363-2.682-1.227-3.221-1.836c-0.6-0.678-1.525-2.294-1.536-3.008
			c-0.011-0.814,0.729-2.683,1.317-3.584c0.359-0.548,1.44-1.535,2.019-1.901c1.242-0.788,2.782-1.053,2.997-1.087
			c0.156-0.007,0.85-0.042,1.461-0.042c0.497,0,0.702,0.022,0.779,0.035c0.879,0.147,2.709,0.704,3.437,1.171
			c0.582,0.374,2.029,1.855,2.603,2.462c0.708,1.18,1.455,2.729,1.454,3.23C44.639,18.27,43.947,19.753,43.434,20.409z"/>
		<path style="fill:#231F20;" d="M15.855,14.662l-0.836-0.498l-0.067,0.97l-0.153,2.2l-1.691,2.34l-0.27,0.375l0.292,0.357
			l0.633,0.77l0.446,0.543l0.466-0.525l2.149-2.424l0.109-0.123l0.031-0.161l0.468-2.425l0.08-0.413l-0.361-0.215L15.855,14.662z
			 M16.375,18.372l-2.149,2.426l-0.634-0.771l1.792-2.48l0.166-2.37l1.295,0.772L16.375,18.372z"/>
		<path style="fill:#231F20;" d="M25.082,6.908l-0.606-0.173l-0.143,0.614l-0.743,3.225l-0.301,1.306l1.174-0.647l2.149-1.185
			l0.199-0.11l0.077-0.215l0.523-1.488l0.211-0.6L27.01,7.458L25.082,6.908z M26.321,9.522l-2.149,1.185l0.744-3.224l1.929,0.551
			L26.321,9.522z"/>
		<path style="fill:#231F20;" d="M41.514,15.285l-0.109-0.28l-0.291-0.08l-1.517-0.413l-1.105-0.302l0.384,1.08l0.376,1.057
			l-0.385,1.301l-0.077,0.259l0.144,0.229l0.95,1.516l0.672,1.072l0.403-1.201l0.951-2.838l0.067-0.205l-0.077-0.201L41.514,15.285z
			 M40.391,19.333l-0.951-1.516l0.441-1.487l-0.441-1.24l1.516,0.412l0.386,0.993L40.391,19.333z"/>
	</g>
</g>
<g id="Layer_1">
</g>
</svg>
