<?xml version="1.0" encoding="iso-8859-1"?>
<!-- Generator: Adobe Illustrator 16.0.0, SVG Export Plug-In . SVG Version: 6.00 Build 0)  -->
<!DOCTYPE svg PUBLIC "-//W3C//DTD SVG 1.1//EN" "http://www.w3.org/Graphics/SVG/1.1/DTD/svg11.dtd">
<svg version="1.1" xmlns="http://www.w3.org/2000/svg" xmlns:xlink="http://www.w3.org/1999/xlink" x="0px" y="0px" width="9.786px"
	 height="17.321px" viewBox="0 0 9.786 17.321" style="enable-background:new 0 0 9.786 17.321;" xml:space="preserve">
<g id="ShortStack">
	<g>
		<path style="fill:#231F20;" d="M8.778,17.321h-7.77c-0.217,0-0.421-0.104-0.548-0.28s-0.162-0.4-0.093-0.607l1.854-5.597H1.966
			c-0.182,0-0.354-0.072-0.479-0.198c-0.025-0.025-0.05-0.054-0.071-0.084c-0.127-0.176-0.161-0.401-0.093-0.607l2.928-8.83
			C4.3,0.971,4.396,0.849,4.519,0.768c0.339-0.227,0.883-0.058,1.018,0.348l2.932,8.832c0.068,0.205,0.033,0.432-0.094,0.607
			c-0.021,0.03-0.045,0.059-0.072,0.084c-0.125,0.126-0.297,0.198-0.477,0.198H7.564l1.854,5.597
			c0.068,0.206,0.034,0.432-0.093,0.607S8.995,17.321,8.778,17.321z M7.304,15.972h0.537l-1.703-5.135h-2.49l-1.701,5.135H7.304z
			 M3.208,9.487h3.359c0.016-0.001,0.033-0.002,0.051-0.002H6.89L4.894,3.476L2.901,9.485h0.256C3.174,9.485,3.19,9.486,3.208,9.487
			z"/>
	</g>
</g>
<g id="Layer_1">
</g>
</svg>
