<?xml version="1.0" encoding="iso-8859-1"?>
<!-- Generator: Adobe Illustrator 16.0.0, SVG Export Plug-In . SVG Version: 6.00 Build 0)  -->
<!DOCTYPE svg PUBLIC "-//W3C//DTD SVG 1.1//EN" "http://www.w3.org/Graphics/SVG/1.1/DTD/svg11.dtd">
<svg version="1.1" xmlns="http://www.w3.org/2000/svg" xmlns:xlink="http://www.w3.org/1999/xlink" x="0px" y="0px"
	 width="21.663px" height="26.783px" viewBox="0 0 21.663 26.783" style="enable-background:new 0 0 21.663 26.783;"
	 xml:space="preserve">
<g id="TwinWinCards">
	<g>
		<path style="fill:#231F20;" d="M20.473,1.03H4.305c-0.178,0-0.349,0.07-0.476,0.196L0.8,4.231
			C0.628,4.354,0.515,4.555,0.515,4.783v21.326c0,0.373,0.302,0.675,0.675,0.675h16.167c0.185,0,0.353-0.074,0.475-0.194
			l3.115-3.078c0.128-0.127,0.2-0.3,0.2-0.48V1.705C21.147,1.332,20.846,1.03,20.473,1.03z M4.583,2.379h14.274l-1.736,1.729H2.842
			L4.583,2.379z M16.683,25.434H1.865V5.458h14.818V25.434z M18.032,24.492V5.106l1.766-1.757v19.399L18.032,24.492z"/>
		<path style="fill:#231F20;" d="M3.343,14.027h1.125v3.932c0,0.394,0.255,0.636,0.607,0.636c0.353,0,0.616-0.242,0.616-0.636
			v-3.932h1.133c0.369,0,0.599-0.233,0.599-0.547c0-0.322-0.23-0.555-0.599-0.555H3.343c-0.37,0-0.599,0.233-0.599,0.555
			C2.744,13.794,2.974,14.027,3.343,14.027z"/>
		<path style="fill:#231F20;" d="M9.318,17.951c0.115,0.427,0.377,0.644,0.78,0.644c0.419,0,0.682-0.209,0.788-0.636l0.837-3.128
			l0.82,3.12c0.107,0.427,0.37,0.644,0.788,0.644c0.402,0,0.665-0.209,0.788-0.636l1.166-4.286c0.099-0.386-0.099-0.683-0.452-0.772
			c-0.353-0.088-0.664,0.097-0.764,0.491L13.3,16.528l-0.78-3c-0.106-0.426-0.378-0.643-0.796-0.643
			c-0.427,0-0.698,0.209-0.805,0.635l-0.78,3.008l-0.771-3.137c-0.099-0.394-0.411-0.579-0.764-0.491
			c-0.353,0.089-0.55,0.386-0.451,0.772L9.318,17.951z"/>
	</g>
</g>
<g id="Layer_1">
</g>
</svg>
