<?xml version="1.0" encoding="iso-8859-1"?>
<!-- Generator: Adobe Illustrator 16.0.0, SVG Export Plug-In . SVG Version: 6.00 Build 0)  -->
<!DOCTYPE svg PUBLIC "-//W3C//DTD SVG 1.1//EN" "http://www.w3.org/Graphics/SVG/1.1/DTD/svg11.dtd">
<svg version="1.1" xmlns="http://www.w3.org/2000/svg" xmlns:xlink="http://www.w3.org/1999/xlink" x="0px" y="0px"
	 width="32.608px" height="31.899px" viewBox="0 0 32.608 31.899" style="enable-background:new 0 0 32.608 31.899;"
	 xml:space="preserve">
<g id="Piecepack">
	<g>
		<path style="fill:#231F20;" d="M4.785,8.362c0-0.116,0.021-0.225,0.034-0.337l-2.34,0.814l2.446,0.383
			C4.843,8.949,4.785,8.664,4.785,8.362z"/>
		<path style="fill:#231F20;" d="M10.516,7.166l1.61-1.865L9.823,6.189C10.115,6.464,10.354,6.793,10.516,7.166z"/>
		<path style="fill:#231F20;" d="M8.114,5.404L7.3,3.064L6.917,5.511C7.19,5.428,7.476,5.37,7.777,5.37
			C7.893,5.37,8.002,5.392,8.114,5.404z"/>
		<path style="fill:#231F20;" d="M6.58,5.623l-1.865-1.61l0.889,2.304C5.878,6.024,6.208,5.786,6.58,5.623z"/>
		<path style="fill:#231F20;" d="M5.378,6.589L2.95,6.126l1.921,1.551C4.965,7.276,5.141,6.91,5.378,6.589z"/>
		<path style="fill:#231F20;" d="M5.541,13.189l1.55-1.921c-0.4-0.094-0.767-0.27-1.087-0.507L5.541,13.189z"/>
		<path style="fill:#231F20;" d="M10.176,10.135l2.428,0.463l-1.921-1.551C10.588,9.448,10.413,9.814,10.176,10.135z"/>
		<path style="fill:#231F20;" d="M10.769,8.362c0,0.116-0.021,0.225-0.034,0.337l2.34-0.814l-2.446-0.383
			C10.711,7.776,10.769,8.061,10.769,8.362z"/>
		<path style="fill:#231F20;" d="M10.013,3.536l-1.55,1.921c0.4,0.094,0.767,0.27,1.087,0.507L10.013,3.536z"/>
		<path style="fill:#231F20;" d="M3.427,11.424l2.304-0.889C5.439,10.261,5.2,9.932,5.038,9.559L3.427,11.424z"/>
		<path style="fill:#231F20;" d="M8.974,11.102l1.865,1.61L9.95,10.408C9.675,10.7,9.346,10.939,8.974,11.102z"/>
		<path style="fill:#231F20;" d="M7.439,11.32l0.814,2.34l0.383-2.446c-0.274,0.083-0.559,0.141-0.86,0.141
			C7.661,11.354,7.552,11.333,7.439,11.32z"/>
		<circle style="fill:#231F20;" cx="7.777" cy="8.362" r="2.255"/>
		<path style="fill:#231F20;" d="M25.532,11.998c0.744,0,1.432-0.211,2.027-0.557c-0.231,0.045-0.47,0.07-0.715,0.07
			c-2,0-3.619-1.573-3.619-3.514c0-1.941,1.619-3.515,3.619-3.515c0.075,0,0.146,0.017,0.221,0.021
			c-0.472-0.192-0.989-0.3-1.533-0.3c-2.206,0-3.991,1.744-3.991,3.897C21.541,10.252,23.326,11.998,25.532,11.998z"/>
		<path style="fill:#231F20;" d="M14.94,1.199H0.613v14.327H14.94V1.199z M13.94,14.525H1.613V2.199H13.94V14.525z"/>
		<path style="fill:#231F20;" d="M24.832,15.525c3.95,0,7.163-3.213,7.163-7.164c0-3.95-3.213-7.163-7.163-7.163
			s-7.164,3.213-7.164,7.163C17.668,12.312,20.882,15.525,24.832,15.525z M24.832,2.199c3.398,0,6.163,2.765,6.163,6.163
			s-2.765,6.164-6.163,6.164s-6.164-2.765-6.164-6.164S21.434,2.199,24.832,2.199z"/>
		<path style="fill:#231F20;" d="M7.777,17.597c-3.95,0-7.164,3.213-7.164,7.163s3.213,7.164,7.164,7.164
			c3.95,0,7.163-3.214,7.163-7.164S11.727,17.597,7.777,17.597z M7.777,30.924c-3.398,0-6.164-2.766-6.164-6.164
			s2.765-6.163,6.164-6.163s6.163,2.765,6.163,6.163S11.176,30.924,7.777,30.924z"/>
		<path style="fill:#231F20;" d="M9.831,25.718H9.039v-4.869c0-0.396-0.18-0.6-0.527-0.6c-0.192,0-0.348,0.084-0.456,0.24
			L4.35,25.646c-0.108,0.156-0.167,0.3-0.167,0.42c0,0.348,0.191,0.516,0.587,0.516h3.358v1.667c0,0.348,0.156,0.516,0.456,0.516
			s0.456-0.168,0.456-0.516v-1.667h0.792c0.324,0,0.492-0.144,0.492-0.432S10.155,25.718,9.831,25.718z M8.128,25.718H5.297
			l2.831-3.898V25.718z"/>
		<path style="fill:#231F20;" d="M17.085,31.923h14.327V17.598H17.085V31.923z M24.499,18.598h5.913v5.913h-5.913V18.598z
			 M24.499,25.011h5.913v5.912h-5.913V25.011z M18.085,18.598h5.914v5.913h-5.914V18.598z M18.085,25.011h5.914v5.912h-5.914V25.011
			z"/>
	</g>
</g>
<g id="Layer_1">
</g>
</svg>
