<?xml version="1.0" encoding="iso-8859-1"?>
<!-- Generator: Adobe Illustrator 16.0.0, SVG Export Plug-In . SVG Version: 6.00 Build 0)  -->
<!DOCTYPE svg PUBLIC "-//W3C//DTD SVG 1.1//EN" "http://www.w3.org/Graphics/SVG/1.1/DTD/svg11.dtd">
<svg version="1.1" xmlns="http://www.w3.org/2000/svg" xmlns:xlink="http://www.w3.org/1999/xlink" x="0px" y="0px"
	 width="19.781px" height="17.049px" viewBox="0 0 19.781 17.049" style="enable-background:new 0 0 19.781 17.049;"
	 xml:space="preserve">
<g id="Trio">
	<g>
		<path style="fill:#231F20;" d="M1.005,17.049c-0.222,0-0.43-0.109-0.556-0.292c-0.002-0.003-0.004-0.007-0.006-0.01
			c-0.123-0.183-0.148-0.413-0.069-0.618L4.682,4.951l0.003,0.002l0.001-0.004c0.201-0.521,1.059-0.521,1.26,0L7.04,7.79
			l2.605-6.708c0.063-0.161,0.183-0.288,0.33-0.361c0.332-0.167,0.795-0.002,0.935,0.358l3.344,8.611l0.715-1.873
			c0.201-0.521,1.063-0.522,1.262,0l3.178,8.31c0.08,0.208,0.052,0.44-0.074,0.624S19,17.042,18.777,17.042h-6.35
			c-0.029,0-0.059-0.002-0.088-0.006L1.007,17.049C1.006,17.049,1.005,17.049,1.005,17.049z M5.315,7.068L1.99,15.695l1.983-0.006
			L6.314,9.66L5.315,7.068z M13.719,15.692h4.078l-2.196-5.743l-2.192,5.743H13.719z M8.518,15.687h3.448l1.571-4.116l-3.259-8.375
			l-4.85,12.487L8.518,15.687z"/>
	</g>
</g>
<g id="Layer_1">
</g>
</svg>
