<?xml version="1.0" encoding="iso-8859-1"?>
<!-- Generator: Adobe Illustrator 16.0.0, SVG Export Plug-In . SVG Version: 6.00 Build 0)  -->
<!DOCTYPE svg PUBLIC "-//W3C//DTD SVG 1.1//EN" "http://www.w3.org/Graphics/SVG/1.1/DTD/svg11.dtd">
<svg version="1.1" xmlns="http://www.w3.org/2000/svg" xmlns:xlink="http://www.w3.org/1999/xlink" x="0px" y="0px"
	 width="46.529px" height="16.79px" viewBox="0 0 46.529 16.79" style="enable-background:new 0 0 46.529 16.79;"
	 xml:space="preserve">
<g id="Battlemat">
	<g>
		<path style="fill:#231F20;" d="M42.75,0.646H3.041c-1.549,0-2.718,2.149-2.718,5c0,2.209,0.93,3.875,2.163,3.875h3.012v7.269
			h40.709V7.146C46.207,3.501,44.688,0.646,42.75,0.646z M5.498,8.521H3.795C4.067,7.99,4.233,7.29,4.233,6.49
			c0-1.39-0.604-2.398-1.436-2.398c-0.696,0-1.202,0.809-1.202,1.924c0,0.276,0.224,0.5,0.5,0.5s0.5-0.224,0.5-0.5
			c0-0.58,0.193-0.894,0.196-0.924C2.924,5.126,3.233,5.646,3.233,6.49c0,1.26-0.484,2.031-0.748,2.031
			c-0.474,0-1.163-1.12-1.163-2.875c0-2.29,0.907-4,1.718-4c1.162,0,2.457,2.259,2.457,5.5V8.521z M45.207,15.79H6.498V7.146
			c0-2.346-0.631-4.359-1.596-5.5H42.75c1.162,0,2.457,2.259,2.457,5.5V15.79z"/>
		<path style="fill:#231F20;" d="M39.753,3.988H29.595h-0.3h-10.16h-0.3H8.377v10.759h10.458h0.3h10.16h0.3h10.158h0.301h3.484
			v-3.484v-0.301V7.773v-0.3V3.988h-3.484H39.753z M33.08,10.962V7.773h3.188v3.188H33.08z M36.268,11.263v3.184H33.08v-3.184
			H36.268z M29.596,7.773h3.184v3.188h-3.184V7.773z M33.08,7.474V4.288h3.188v3.186H33.08z M36.568,7.773h3.185v3.188h-3.185V7.773
			z M39.753,7.474h-3.185V4.288h3.185V7.474z M32.779,4.288v3.186h-3.184V4.288H32.779z M22.621,10.962V7.773h3.188v3.188H22.621z
			 M25.809,11.263v3.184h-3.188v-3.184H25.809z M12.162,10.962V7.773h3.188v3.188H12.162z M15.35,11.263v3.184h-3.188v-3.184H15.35z
			 M11.862,10.962H8.677V7.773h3.186V10.962z M12.162,7.474V4.288h3.188v3.186H12.162z M15.65,7.773h3.186v3.188H15.65V7.773z
			 M19.135,7.773h3.186v3.188h-3.186V7.773z M22.621,7.474V4.288h3.188v3.186H22.621z M26.109,7.773h3.185v3.188h-3.185V7.773z
			 M29.294,7.474h-3.185V4.288h3.185V7.474z M22.321,4.288v3.186h-3.186V4.288H22.321z M18.835,7.474H15.65V4.288h3.186V7.474z
			 M11.862,4.288v3.186H8.677V4.288H11.862z M8.677,11.263h3.186v3.184H8.677V11.263z M15.65,14.446v-3.184h3.186v3.184H15.65z
			 M19.135,11.263h3.186v3.184h-3.186V11.263z M26.109,14.446v-3.184h3.185v3.184H26.109z M29.596,11.263h3.184v3.184h-3.184V11.263
			z M39.753,14.446h-3.185v-3.184h3.185V14.446z M43.237,14.446h-3.184v-3.184h3.184V14.446z M43.237,10.962h-3.184V7.773h3.184
			V10.962z M43.237,4.288v3.186h-3.184V4.288H43.237z"/>
	</g>
</g>
<g id="Layer_1">
</g>
</svg>
