<?xml version="1.0" encoding="iso-8859-1"?>
<!-- Generator: Adobe Illustrator 16.0.0, SVG Export Plug-In . SVG Version: 6.00 Build 0)  -->
<!DOCTYPE svg PUBLIC "-//W3C//DTD SVG 1.1//EN" "http://www.w3.org/Graphics/SVG/1.1/DTD/svg11.dtd">
<svg version="1.1" xmlns="http://www.w3.org/2000/svg" xmlns:xlink="http://www.w3.org/1999/xlink" x="0px" y="0px"
	 width="20.606px" height="18.811px" viewBox="0 0 20.606 18.811" style="enable-background:new 0 0 20.606 18.811;"
	 xml:space="preserve">
<g id="Left">
	<path style="fill:#231F20;" d="M18.99,18.811L1.034,18.742c-0.278-0.001-0.528-0.173-0.628-0.434
		c-0.03-0.079-0.045-0.162-0.044-0.244c-0.001-0.189,0.077-0.373,0.221-0.505L13.882,5.5c0.164-0.149,0.393-0.208,0.609-0.157
		c0.053,0.013,0.102,0.031,0.148,0.054c0.15,0.075,0.27,0.204,0.332,0.364l4.654,12.127c0.057,0.148,0.059,0.311,0.008,0.457
		c-0.02,0.062-0.048,0.119-0.086,0.174c-0.125,0.182-0.333,0.291-0.555,0.291C18.992,18.811,18.991,18.811,18.99,18.811z
		 M14.657,8.711l-0.003,0.001l-0.594-1.544L2.786,17.393l15.222,0.059l-0.604-1.576c-0.007-0.019-0.014-0.038-0.019-0.057
		L14.657,8.711z"/>
</g>
<g id="Layer_1">
</g>
</svg>
