<?xml version="1.0" encoding="iso-8859-1"?>
<!-- Generator: Adobe Illustrator 16.0.0, SVG Export Plug-In . SVG Version: 6.00 Build 0)  -->
<!DOCTYPE svg PUBLIC "-//W3C//DTD SVG 1.1//EN" "http://www.w3.org/Graphics/SVG/1.1/DTD/svg11.dtd">
<svg version="1.1" xmlns="http://www.w3.org/2000/svg" xmlns:xlink="http://www.w3.org/1999/xlink" x="0px" y="0px"
	 width="20.606px" height="18.811px" viewBox="0 0 20.606 18.811" style="enable-background:new 0 0 20.606 18.811;"
	 xml:space="preserve">
<g id="Right">
	<path style="fill:#231F20;" d="M1.613,18.811c-0.222,0-0.429-0.109-0.555-0.291c-0.038-0.055-0.066-0.112-0.086-0.174
		c-0.05-0.146-0.048-0.309,0.009-0.457L5.635,5.761c0.062-0.16,0.181-0.289,0.332-0.364c0.047-0.023,0.096-0.042,0.148-0.054
		C6.332,5.292,6.56,5.351,6.725,5.5l13.298,12.06c0.145,0.132,0.223,0.315,0.222,0.505c0.001,0.082-0.015,0.165-0.044,0.244
		c-0.101,0.261-0.35,0.433-0.629,0.434L1.616,18.811C1.615,18.811,1.614,18.811,1.613,18.811z M3.221,15.818
		c-0.005,0.019-0.012,0.038-0.019,0.057l-0.604,1.576l15.221-0.059L6.545,7.168L5.952,8.712L5.949,8.711L3.221,15.818z"/>
</g>
<g id="Layer_1">
</g>
</svg>
