<?xml version="1.0" encoding="iso-8859-1"?>
<!-- Generator: Adobe Illustrator 16.0.0, SVG Export Plug-In . SVG Version: 6.00 Build 0)  -->
<!DOCTYPE svg PUBLIC "-//W3C//DTD SVG 1.1//EN" "http://www.w3.org/Graphics/SVG/1.1/DTD/svg11.dtd">
<svg version="1.1" xmlns="http://www.w3.org/2000/svg" xmlns:xlink="http://www.w3.org/1999/xlink" x="0px" y="0px"
	 width="15.771px" height="15.37px" viewBox="0 0 15.771 15.37" style="enable-background:new 0 0 15.771 15.37;"
	 xml:space="preserve">
<g id="GreenClub">
	<path style="fill:#231F20;" d="M11.859,6.637c-0.75,0-1.447,0.229-2.025,0.62V7.254c1.003-0.643,1.669-1.767,1.669-3.047
		c0-1.997-1.62-3.616-3.618-3.616c-1.997,0-3.617,1.619-3.617,3.616c0,1.28,0.666,2.404,1.669,3.047v0.003
		c-0.578-0.391-1.274-0.62-2.025-0.62c-1.997,0-3.616,1.619-3.616,3.616c0,1.998,1.619,3.617,3.616,3.617
		c1.463,0,2.722-0.869,3.292-2.118L5.91,15.37h3.954l-1.295-3.618c0.571,1.249,1.829,2.118,3.292,2.118
		c1.997,0,3.616-1.619,3.616-3.617C15.476,8.256,13.856,6.637,11.859,6.637"/>
</g>
<g id="Layer_1">
</g>
</svg>
