<?xml version="1.0" encoding="iso-8859-1"?>
<!-- Generator: Adobe Illustrator 16.0.0, SVG Export Plug-In . SVG Version: 6.00 Build 0)  -->
<!DOCTYPE svg PUBLIC "-//W3C//DTD SVG 1.1//EN" "http://www.w3.org/Graphics/SVG/1.1/DTD/svg11.dtd">
<svg version="1.1" xmlns="http://www.w3.org/2000/svg" xmlns:xlink="http://www.w3.org/1999/xlink" x="0px" y="0px"
	 width="13.986px" height="18.198px" viewBox="0 0 13.986 18.198" style="enable-background:new 0 0 13.986 18.198;"
	 xml:space="preserve">
<g id="PurpleSpade">
	<path id="path1939_2_" style="fill:#231F20;" d="M6.993,0.7C6.756,1.687,6.391,2.573,5.897,3.347
		C5.404,4.124,4.526,5.081,3.26,6.228C1.997,7.374,1.194,8.253,0.856,8.864S0.35,10.097,0.35,10.728
		c0,0.877,0.293,1.605,0.877,2.191c0.584,0.584,1.297,0.877,2.138,0.877c1.503,0,2.667-1.1,3.435-2.295
		c-0.059,1.309-0.274,2.355-0.652,3.141c-0.406,0.846-1.029,1.545-1.869,2.102c-0.566,0.375-1.586,0.703-3.057,0.986l-0.109,0.469
		h5.875h5.88l-0.108-0.469c-1.472-0.283-2.491-0.611-3.057-0.986c-0.841-0.557-1.463-1.256-1.869-2.102
		c-0.378-0.783-0.593-1.828-0.651-3.135c0.767,1.195,1.936,2.289,3.439,2.289c0.841,0,1.553-0.293,2.138-0.877
		c0.585-0.586,0.877-1.314,0.877-2.191c0-0.631-0.168-1.252-0.506-1.863c-0.339-0.611-1.14-1.49-2.406-2.637
		C9.459,5.081,8.582,4.124,8.09,3.347C7.596,2.573,7.231,1.687,6.993,0.7z"/>
</g>
<g id="Layer_1">
</g>
</svg>
