<?xml version="1.0" encoding="iso-8859-1"?>
<!-- Generator: Adobe Illustrator 16.0.0, SVG Export Plug-In . SVG Version: 6.00 Build 0)  -->
<!DOCTYPE svg PUBLIC "-//W3C//DTD SVG 1.1//EN" "http://www.w3.org/Graphics/SVG/1.1/DTD/svg11.dtd">
<svg version="1.1" xmlns="http://www.w3.org/2000/svg" xmlns:xlink="http://www.w3.org/1999/xlink" x="0px" y="0px" width="10.6px"
	 height="10.384px" viewBox="0 0 10.6 10.384" style="enable-background:new 0 0 10.6 10.384;" xml:space="preserve">
<g id="Pyramids">
	<g>
		<path style="fill:#231F20;" d="M10.379,9.771L6.783,0.683C6.715,0.511,6.551,0.399,6.367,0.399s-0.35,0.111-0.416,0.283
			L2.354,9.771C2.336,9.815,2.338,9.862,2.336,9.909C2.33,10.007,2.344,10.104,2.4,10.187c0.082,0.123,0.221,0.197,0.369,0.197
			h7.193c0.148,0,0.287-0.074,0.371-0.197c0.057-0.082,0.07-0.18,0.064-0.277C10.395,9.862,10.396,9.815,10.379,9.771z"/>
		<path style="fill:#231F20;" d="M3.414,4.126C3.498,4.005,3.516,3.849,3.461,3.71L2.262,0.683C2.195,0.511,2.029,0.399,1.846,0.399
			S1.498,0.511,1.43,0.683L0.613,2.745L0.232,3.71C0.176,3.849,0.193,4.005,0.277,4.126c0.076,0.113,0.201,0.178,0.336,0.188
			c0.012,0.002,0.023,0.01,0.035,0.01h2.396C3.193,4.323,3.332,4.249,3.414,4.126z"/>
	</g>
</g>
<g id="Layer_1">
</g>
</svg>
