<?xml version="1.0" encoding="iso-8859-1"?>
<!-- Generator: Adobe Illustrator 16.0.0, SVG Export Plug-In . SVG Version: 6.00 Build 0)  -->
<!DOCTYPE svg PUBLIC "-//W3C//DTD SVG 1.1//EN" "http://www.w3.org/Graphics/SVG/1.1/DTD/svg11.dtd">
<svg version="1.1" xmlns="http://www.w3.org/2000/svg" xmlns:xlink="http://www.w3.org/1999/xlink" x="0px" y="0px"
	 width="17.484px" height="18.889px" viewBox="0 0 17.484 18.889" style="enable-background:new 0 0 17.484 18.889;"
	 xml:space="preserve">
<g id="WildAtom">
	<path style="fill:#231F20;" d="M12.003,8.986l2.692-2.81c0.22,0.142,0.478,0.23,0.758,0.246c0.87,0.05,1.616-0.614,1.666-1.483
		c0.051-0.871-0.614-1.617-1.484-1.667c-0.869-0.051-1.615,0.614-1.667,1.484c-0.021,0.368,0.087,0.714,0.284,0.995L11.666,8.45
		c-0.519-0.664-1.296-1.116-2.182-1.202V3.853c0.725-0.143,1.271-0.78,1.271-1.548c0-0.871-0.707-1.578-1.579-1.578
		c-0.872,0-1.577,0.707-1.577,1.578c0,0.768,0.547,1.405,1.271,1.548v3.396C8.205,7.313,7.601,7.584,7.121,7.996l-2.75-2.714
		C4.574,4.89,4.515,4.397,4.187,4.067c-0.408-0.407-1.068-0.407-1.476,0c-0.407,0.406-0.407,1.066,0,1.475
		C3.044,5.874,3.544,5.93,3.939,5.719L6.696,8.44c-0.423,0.537-0.678,1.215-0.678,1.951c0,0.086,0.006,0.172,0.013,0.257
		l-2.559,0.119c-0.177-0.717-0.84-1.232-1.604-1.196c-0.871,0.041-1.543,0.779-1.503,1.649c0.041,0.871,0.78,1.544,1.65,1.503
		c0.766-0.035,1.378-0.611,1.486-1.342l2.639-0.124c0.141,0.49,0.395,0.93,0.733,1.291l-2.308,2.183
		c-0.378-0.214-0.862-0.179-1.204,0.126c-0.431,0.383-0.468,1.042-0.085,1.472s1.042,0.468,1.472,0.085
		c0.358-0.319,0.44-0.827,0.238-1.237l2.35-2.221c0.44,0.316,0.964,0.524,1.533,0.579v3.314c-0.426,0.132-0.736,0.528-0.736,0.997
		c0,0.575,0.468,1.042,1.043,1.042c0.576,0,1.043-0.467,1.043-1.042c0-0.469-0.31-0.865-0.736-0.997v-3.314
		c0.48-0.046,0.929-0.203,1.322-0.441l3.253,2.677c-0.119,0.222-0.188,0.476-0.188,0.745c0,0.871,0.706,1.578,1.578,1.578
		c0.871,0,1.578-0.707,1.578-1.578c0-0.872-0.707-1.577-1.578-1.577c-0.38,0-0.729,0.134-1,0.356l-3.137-2.58
		c0.492-0.453,0.842-1.059,0.969-1.745l2.271-0.105c0.151,0.419,0.562,0.709,1.03,0.687c0.575-0.025,1.021-0.515,0.993-1.09
		c-0.028-0.575-0.515-1.019-1.091-0.992c-0.468,0.022-0.851,0.35-0.961,0.781l-2.19,0.103C12.328,9.862,12.209,9.399,12.003,8.986"
		/>
</g>
<g id="Layer_1">
</g>
</svg>
