<?xml version="1.0" encoding="iso-8859-1"?>
<!-- Generator: Adobe Illustrator 16.0.0, SVG Export Plug-In . SVG Version: 6.00 Build 0)  -->
<!DOCTYPE svg PUBLIC "-//W3C//DTD SVG 1.1//EN" "http://www.w3.org/Graphics/SVG/1.1/DTD/svg11.dtd">
<svg version="1.1" xmlns="http://www.w3.org/2000/svg" xmlns:xlink="http://www.w3.org/1999/xlink" x="0px" y="0px"
	 width="11.935px" height="9.425px" viewBox="0 0 11.935 9.425" style="enable-background:new 0 0 11.935 9.425;"
	 xml:space="preserve">
<g id="Recycle">
	<g>
		<path style="fill:#231F20;" d="M5.008,3.747c-0.064-0.158-0.217-0.26-0.387-0.26L3.463,3.489c0.494-0.865,1.428-1.438,2.465-1.438
			h0.004c0.467,0,0.912,0.109,1.322,0.326c0.201,0.105,0.43,0.127,0.645,0.061C8.113,2.37,8.291,2.224,8.396,2.024
			C8.5,1.825,8.521,1.597,8.455,1.382C8.389,1.165,8.242,0.989,8.043,0.884C7.396,0.542,6.666,0.362,5.93,0.362H5.928
			C3.957,0.364,2.225,1.653,1.625,3.489H1.41L0.602,3.491c-0.17,0-0.322,0.102-0.389,0.258C0.148,3.907,0.184,4.087,0.305,4.208
			L1.41,5.312l0.906,0.904C2.395,6.294,2.5,6.339,2.613,6.339c0.111,0,0.219-0.045,0.297-0.123l2.008-2.012
			C5.037,4.083,5.074,3.903,5.008,3.747z"/>
		<path style="fill:#231F20;" d="M9.619,3.339c-0.164-0.164-0.428-0.164-0.594,0L7.018,5.351C6.898,5.47,6.861,5.651,6.926,5.808
			c0.066,0.156,0.221,0.26,0.389,0.26h0.002l1.201-0.002C8.07,7.048,7.082,7.735,5.934,7.737H5.932
			c-0.557,0-1.096-0.162-1.561-0.465C4.23,7.177,4.068,7.132,3.91,7.132c-0.275,0-0.545,0.135-0.707,0.381
			c-0.256,0.389-0.148,0.914,0.242,1.17c0.697,0.459,1.508,0.705,2.344,0.73c0.049,0.002,0.096,0.012,0.143,0.012h0.002
			c0.035,0,0.068-0.01,0.104-0.012c1.17-0.027,2.268-0.486,3.098-1.32c0.572-0.57,0.967-1.27,1.17-2.027l1.029-0.002
			c0.17,0,0.324-0.104,0.387-0.26c0.066-0.156,0.029-0.338-0.09-0.457L9.619,3.339z"/>
	</g>
</g>
<g id="Layer_1">
</g>
</svg>
