<?xml version="1.0" encoding="iso-8859-1"?>
<!-- Generator: Adobe Illustrator 16.0.0, SVG Export Plug-In . SVG Version: 6.00 Build 0)  -->
<!DOCTYPE svg PUBLIC "-//W3C//DTD SVG 1.1//EN" "http://www.w3.org/Graphics/SVG/1.1/DTD/svg11.dtd">
<svg version="1.1" xmlns="http://www.w3.org/2000/svg" xmlns:xlink="http://www.w3.org/1999/xlink" x="0px" y="0px" width="7.392px"
	 height="10.175px" viewBox="0 0 7.392 10.175" style="enable-background:new 0 0 7.392 10.175;" xml:space="preserve">
<g id="Bolt">
	<path style="fill:#231F20;" d="M0.6,10.175c0.083,0,0.166-0.025,0.24-0.08l0.501-0.373L5.43,6.675
		c0.146-0.109,0.209-0.303,0.154-0.48S5.369,5.894,5.191,5.894h-0.75l1.582-1.67c0.117-0.123,0.15-0.309,0.088-0.469
		C6.047,3.595,5.896,3.491,5.73,3.491h-0.9l2.246-2.367c0.117-0.123,0.152-0.309,0.088-0.469S6.949,0.392,6.783,0.392H4.395
		c-0.109,0-0.216,0.045-0.293,0.127L1.304,3.466C1.188,3.589,1.153,3.774,1.217,3.935S1.43,4.198,1.598,4.198h1.436L1.304,6.024
		C1.188,6.147,1.153,6.333,1.217,6.493S1.43,6.757,1.598,6.757h1.027L0.293,9.456c-0.064,0.076-0.092,0.17-0.097,0.266
		C0.19,9.831,0.217,9.942,0.293,10.03C0.374,10.126,0.485,10.175,0.6,10.175z"/>
</g>
<g id="Layer_1">
</g>
</svg>
