<?xml version="1.0" encoding="iso-8859-1"?>
<!-- Generator: Adobe Illustrator 16.0.0, SVG Export Plug-In . SVG Version: 6.00 Build 0)  -->
<!DOCTYPE svg PUBLIC "-//W3C//DTD SVG 1.1//EN" "http://www.w3.org/Graphics/SVG/1.1/DTD/svg11.dtd">
<svg version="1.1" xmlns="http://www.w3.org/2000/svg" xmlns:xlink="http://www.w3.org/1999/xlink" x="0px" y="0px" width="10.74px"
	 height="8.385px" viewBox="0 0 10.74 8.385" style="enable-background:new 0 0 10.74 8.385;" xml:space="preserve">
<g id="Arrow">
	<path style="fill:#231F20;" d="M0.589,6.113h0.355H6.12v1.844c0,0.172,0.105,0.328,0.266,0.395
		c0.053,0.023,0.107,0.033,0.162,0.033c0.111,0,0.223-0.043,0.305-0.125l3.602-3.604c0.08-0.08,0.125-0.189,0.125-0.303
		s-0.045-0.223-0.125-0.303L6.853,0.447C6.729,0.324,6.544,0.289,6.386,0.354C6.226,0.42,6.12,0.578,6.12,0.75v1.844H0.944H0.589
		c-0.236,0-0.428,0.191-0.428,0.428v2.662C0.161,5.922,0.353,6.113,0.589,6.113z"/>
</g>
<g id="Layer_1">
</g>
</svg>
