<?xml version="1.0" encoding="iso-8859-1"?>
<!-- Generator: Adobe Illustrator 16.0.0, SVG Export Plug-In . SVG Version: 6.00 Build 0)  -->
<!DOCTYPE svg PUBLIC "-//W3C//DTD SVG 1.1//EN" "http://www.w3.org/Graphics/SVG/1.1/DTD/svg11.dtd">
<svg version="1.1" xmlns="http://www.w3.org/2000/svg" xmlns:xlink="http://www.w3.org/1999/xlink" x="0px" y="0px" width="11.02px"
	 height="10.663px" viewBox="0 0 11.02 10.663" style="enable-background:new 0 0 11.02 10.663;" xml:space="preserve">
<g id="SplitCircle">
	<g>
		<path style="fill:#231F20;" d="M4.107,0.425c-1.23,0.338-2.25,1.104-2.943,2.102c-0.602,0.867-0.959,1.904-0.959,3.01
			s0.357,2.145,0.959,3.01c0.43,0.617,0.986,1.139,1.641,1.529c0.402,0.24,0.834,0.443,1.303,0.572
			c0.037,0.012,0.076,0.016,0.117,0.016c0.094,0,0.188-0.031,0.266-0.09c0.109-0.084,0.174-0.213,0.174-0.352v-0.146V0.851
			c0-0.137-0.064-0.268-0.174-0.35C4.381,0.417,4.238,0.39,4.107,0.425z"/>
		<path style="fill:#231F20;" d="M6.951,0.437C6.818,0.397,6.676,0.425,6.566,0.509C6.455,0.593,6.391,0.722,6.391,0.86v9.215v0.139
			c0,0.137,0.064,0.268,0.176,0.35c0.076,0.061,0.17,0.09,0.264,0.09c0.041,0,0.082-0.006,0.121-0.016
			c0.453-0.129,0.871-0.328,1.264-0.563c1.572-0.941,2.6-2.648,2.6-4.537C10.814,3.175,9.227,1.079,6.951,0.437z"/>
	</g>
</g>
<g id="Layer_1">
</g>
</svg>
