<?xml version="1.0" encoding="iso-8859-1"?>
<!-- Generator: Adobe Illustrator 16.0.0, SVG Export Plug-In . SVG Version: 6.00 Build 0)  -->
<!DOCTYPE svg PUBLIC "-//W3C//DTD SVG 1.1//EN" "http://www.w3.org/Graphics/SVG/1.1/DTD/svg11.dtd">
<svg version="1.1" xmlns="http://www.w3.org/2000/svg" xmlns:xlink="http://www.w3.org/1999/xlink" x="0px" y="0px" width="10.6px"
	 height="10.384px" viewBox="0 0 10.6 10.384" style="enable-background:new 0 0 10.6 10.384;" xml:space="preserve">
<g id="Pyramids">
	<g>
		<path style="fill:#231F20;" d="M10.379,9.771L6.783,0.683C6.715,0.512,6.551,0.399,6.367,0.399s-0.35,0.112-0.416,0.283
			L2.354,9.771C2.336,9.816,2.338,9.863,2.336,9.909C2.33,10.007,2.344,10.104,2.4,10.188c0.082,0.123,0.221,0.196,0.369,0.196
			h7.193c0.148,0,0.287-0.073,0.371-0.196c0.057-0.083,0.07-0.181,0.064-0.278C10.395,9.863,10.396,9.816,10.379,9.771z"/>
		<path style="fill:#231F20;" d="M3.414,4.127C3.498,4.006,3.516,3.85,3.461,3.711L2.262,0.684C2.195,0.512,2.029,0.4,1.846,0.4
			S1.498,0.512,1.43,0.684L0.613,2.746L0.232,3.711C0.176,3.85,0.193,4.006,0.277,4.127C0.354,4.24,0.479,4.305,0.613,4.314
			c0.012,0.002,0.023,0.009,0.035,0.009h2.396C3.193,4.323,3.332,4.25,3.414,4.127z"/>
	</g>
</g>
<g id="Layer_1">
</g>
</svg>
