<?xml version="1.0" encoding="iso-8859-1"?>
<!-- Generator: Adobe Illustrator 16.0.0, SVG Export Plug-In . SVG Version: 6.00 Build 0)  -->
<!DOCTYPE svg PUBLIC "-//W3C//DTD SVG 1.1//EN" "http://www.w3.org/Graphics/SVG/1.1/DTD/svg11.dtd">
<svg version="1.1" xmlns="http://www.w3.org/2000/svg" xmlns:xlink="http://www.w3.org/1999/xlink" x="0px" y="0px"
	 width="16.618px" height="16.66px" viewBox="0 0 16.618 16.66" style="enable-background:new 0 0 16.618 16.66;"
	 xml:space="preserve">
<g id="Time">
	<path style="fill:#231F20;" d="M8.309,0.641c-4.412,0-7.988,3.586-7.988,8.011c0,4.423,3.576,8.009,7.988,8.009
		c4.413,0,7.989-3.586,7.989-8.009C16.298,4.227,12.722,0.641,8.309,0.641z M11.677,10.997c-0.123,0.221-0.35,0.343-0.582,0.343
		c-0.111,0-0.221-0.025-0.326-0.086L7.977,9.688C7.671,9.518,7.48,9.192,7.48,8.843V3.877c0-0.37,0.301-0.67,0.668-0.67
		c0.368,0,0.669,0.3,0.669,0.67v4.748l2.604,1.462C11.741,10.268,11.856,10.677,11.677,10.997z"/>
</g>
<g id="Layer_1">
</g>
</svg>
