<?xml version="1.0" encoding="iso-8859-1"?>
<!-- Generator: Adobe Illustrator 16.0.0, SVG Export Plug-In . SVG Version: 6.00 Build 0)  -->
<!DOCTYPE svg PUBLIC "-//W3C//DTD SVG 1.1//EN" "http://www.w3.org/Graphics/SVG/1.1/DTD/svg11.dtd">
<svg version="1.1" xmlns="http://www.w3.org/2000/svg" xmlns:xlink="http://www.w3.org/1999/xlink" x="0px" y="0px" width="17.61px"
	 height="17.618px" viewBox="0 0 17.61 17.618" style="enable-background:new 0 0 17.61 17.618;" xml:space="preserve">
<g id="Planet">
	<path style="fill:#231F20;" d="M16.834,1.107c-1.01-1.01-3.166-0.236-6.388,2.267C9.947,3.252,9.432,3.181,8.904,3.181
		c-1.72,0-3.334,0.669-4.548,1.885c-1.67,1.67-2.221,4.037-1.666,6.175c-2.223,2.977-2.883,4.981-1.925,5.94
		c0.291,0.291,0.67,0.438,1.143,0.438c0.814,0,1.9-0.436,3.285-1.309c0.373-0.235,0.762-0.504,1.16-0.791
		c0.796,0.346,1.66,0.53,2.555,0.53c1.717,0,3.334-0.669,4.547-1.884c1.895-1.895,2.354-4.687,1.387-7.02
		c0.419-0.558,0.799-1.1,1.122-1.612C17.344,3.348,17.627,1.9,16.834,1.107z M2.044,15.91c0.05-0.376,0.381-1.294,1.439-2.841
		c0.247,0.389,0.536,0.757,0.875,1.096c0.134,0.133,0.273,0.258,0.416,0.377C3.446,15.44,2.492,15.865,2.044,15.91z M6.213,13.483
		c-0.227-0.158-0.444-0.33-0.644-0.529c-1.841-1.842-1.842-4.838-0.002-6.679c0.89-0.891,2.076-1.382,3.337-1.382
		c1.262,0,2.446,0.491,3.338,1.384c0.213,0.213,0.4,0.444,0.566,0.688c-0.791,0.979-1.746,2.063-2.935,3.252
		C8.517,11.575,7.291,12.641,6.213,13.483z M12.244,12.954c-0.891,0.892-2.076,1.382-3.336,1.382c-0.31,0-0.613-0.031-0.911-0.089
		c1.013-0.836,2.059-1.788,3.088-2.818c0.886-0.887,1.711-1.783,2.457-2.662c0.051,0.277,0.083,0.561,0.083,0.849
		C13.625,10.877,13.136,12.063,12.244,12.954z M13.888,5.548c-0.136-0.166-0.28-0.327-0.435-0.481
		c-0.359-0.36-0.758-0.665-1.18-0.926c1.815-1.308,2.874-1.705,3.289-1.757C15.514,2.877,14.984,3.999,13.888,5.548z"/>
</g>
<g id="Layer_1">
</g>
</svg>
