<?xml version="1.0" encoding="iso-8859-1"?>
<!-- Generator: Adobe Illustrator 16.0.0, SVG Export Plug-In . SVG Version: 6.00 Build 0)  -->
<!DOCTYPE svg PUBLIC "-//W3C//DTD SVG 1.1//EN" "http://www.w3.org/Graphics/SVG/1.1/DTD/svg11.dtd">
<svg version="1.1" xmlns="http://www.w3.org/2000/svg" xmlns:xlink="http://www.w3.org/1999/xlink" x="0px" y="0px"
	 width="41.954px" height="40.726px" viewBox="0 0 41.954 40.726" style="enable-background:new 0 0 41.954 40.726;"
	 xml:space="preserve">
<g id="_x31_6">
	<g>
		<path style="fill:#231F20;" d="M30.324,40.726H1.783c-0.552,0-1-0.447-1-1V12.099c0-0.282,0.117-0.537,0.305-0.718l9.847-9.532
			c0.187-0.181,0.436-0.282,0.695-0.282h28.541c0.553,0,1,0.448,1,1v27.627c0,0.271-0.109,0.53-0.305,0.719l-9.847,9.532
			C30.84,40.618,30.595,40.726,30.324,40.726z M2.783,38.726h26.541V13.099H2.783V38.726z M31.324,12.522v24.843l7.847-7.596V4.926
			L31.324,12.522z M4.254,11.099H29.92l7.78-7.532H12.035L4.254,11.099z"/>
	</g>
	<g>
		<path d="M9.953,31.202h2.897c1.134,0,1.134,1.512,0,1.512H5.25c-1.134,0-1.134-1.512,0-1.512h3.107V19.969l-2.562,1.427
			c-0.504,0.315-1.197,0.021-1.197-0.587c0-0.315,0.189-0.588,0.588-0.819l2.96-1.701c0.441-0.252,0.756-0.378,0.966-0.378
			c0.483,0,0.84,0.294,0.84,0.945V31.202z"/>
		<path d="M21.503,19.255c-1.218,0-2.205,0.567-2.96,1.722s-1.092,2.625-1.029,4.43c0.777-1.449,2.331-2.226,3.842-2.226
			c1.302,0,2.435,0.44,3.38,1.344c0.966,0.903,1.449,2.079,1.449,3.527c0,1.491-0.483,2.667-1.471,3.569
			c-0.986,0.882-2.1,1.322-3.359,1.322c-1.638,0-2.939-0.692-3.905-2.1c-0.966-1.406-1.449-3.296-1.449-5.627
			c0-2.246,0.483-4.052,1.47-5.417s2.331-2.037,4.031-2.037c1.428,0,2.624,0.462,3.591,1.407c0.42,0.42,0.44,0.819,0.084,1.176
			c-0.315,0.315-0.777,0.336-1.176-0.063C23.309,19.591,22.49,19.255,21.503,19.255z M19.109,25.617
			c-0.609,0.608-0.924,1.428-0.924,2.415c0,0.965,0.315,1.784,0.945,2.436c0.63,0.65,1.407,0.986,2.331,0.986
			c0.818,0,1.554-0.294,2.162-0.882c0.631-0.588,0.945-1.428,0.945-2.52c0-1.028-0.314-1.827-0.945-2.436
			c-0.629-0.608-1.385-0.924-2.267-0.924C20.495,24.693,19.739,25.009,19.109,25.617z"/>
	</g>
</g>
<g id="Layer_1">
</g>
</svg>
