<?xml version="1.0" encoding="iso-8859-1"?>
<!-- Generator: Adobe Illustrator 16.0.0, SVG Export Plug-In . SVG Version: 6.00 Build 0)  -->
<!DOCTYPE svg PUBLIC "-//W3C//DTD SVG 1.1//EN" "http://www.w3.org/Graphics/SVG/1.1/DTD/svg11.dtd">
<svg version="1.1" xmlns="http://www.w3.org/2000/svg" xmlns:xlink="http://www.w3.org/1999/xlink" x="0px" y="0px"
	 width="41.954px" height="40.726px" viewBox="0 0 41.954 40.726" style="enable-background:new 0 0 41.954 40.726;"
	 xml:space="preserve">
<g id="_x38_">
	<g>
		<path style="fill:#231F20;" d="M30.324,40.726H1.783c-0.552,0-1-0.447-1-1V12.099c0-0.282,0.117-0.537,0.305-0.718l9.847-9.532
			c0.187-0.181,0.436-0.282,0.695-0.282h28.541c0.553,0,1,0.448,1,1v27.627c0,0.271-0.109,0.53-0.305,0.719l-9.847,9.532
			C30.84,40.618,30.595,40.726,30.324,40.726z M2.783,38.726h26.541V13.099H2.783V38.726z M31.324,12.522v24.843l7.847-7.596V4.926
			L31.324,12.522z M4.254,11.099H29.92l7.78-7.532H12.035L4.254,11.099z"/>
	</g>
	<g>
		<path d="M12.103,26.541c0.567-0.651,1.155-1.071,1.722-1.218c-0.525-0.23-1.008-0.609-1.491-1.154
			c-0.483-0.547-0.714-1.219-0.714-2.037c0-1.218,0.441-2.184,1.302-2.918c0.882-0.735,1.911-1.092,3.086-1.092
			s2.205,0.357,3.065,1.092c0.882,0.735,1.323,1.701,1.323,2.918c0,0.818-0.231,1.49-0.714,2.037
			c-0.483,0.545-0.966,0.924-1.491,1.154c0.567,0.146,1.134,0.566,1.701,1.218s0.861,1.428,0.861,2.288
			c0,1.239-0.462,2.227-1.386,2.982c-0.903,0.756-2.037,1.133-3.359,1.133s-2.457-0.377-3.38-1.133
			c-0.903-0.756-1.365-1.743-1.365-2.982C11.263,27.969,11.536,27.192,12.103,26.541z M12.879,28.809
			c0,1.616,1.365,2.646,3.128,2.646s3.128-1.029,3.128-2.646c0-1.659-1.344-2.667-3.128-2.667
			C14.181,26.142,12.879,27.149,12.879,28.809z M16.008,24.63c1.596,0,2.771-0.944,2.771-2.477c0-0.819-0.294-1.449-0.861-1.89
			s-1.218-0.651-1.911-0.651s-1.344,0.21-1.911,0.651s-0.861,1.071-0.861,1.89C13.236,23.686,14.391,24.63,16.008,24.63z"/>
	</g>
</g>
<g id="Layer_1">
</g>
</svg>
