<?xml version="1.0" encoding="iso-8859-1"?>
<!-- Generator: Adobe Illustrator 16.0.0, SVG Export Plug-In . SVG Version: 6.00 Build 0)  -->
<!DOCTYPE svg PUBLIC "-//W3C//DTD SVG 1.1//EN" "http://www.w3.org/Graphics/SVG/1.1/DTD/svg11.dtd">
<svg version="1.1" xmlns="http://www.w3.org/2000/svg" xmlns:xlink="http://www.w3.org/1999/xlink" x="0px" y="0px"
	 width="41.954px" height="40.726px" viewBox="0 0 41.954 40.726" style="enable-background:new 0 0 41.954 40.726;"
	 xml:space="preserve">
<g id="_x34_">
	<g>
		<path style="fill:#231F20;" d="M30.324,40.726H1.783c-0.552,0-1-0.447-1-1V12.099c0-0.282,0.117-0.537,0.305-0.718l9.847-9.532
			c0.187-0.181,0.436-0.282,0.695-0.282h28.541c0.553,0,1,0.448,1,1v27.627c0,0.271-0.109,0.53-0.305,0.719l-9.847,9.532
			C30.84,40.618,30.595,40.726,30.324,40.726z M2.783,38.726h26.541V13.099H2.783V38.726z M31.324,12.522v24.843l7.847-7.596V4.926
			L31.324,12.522z M4.254,11.099H29.92l7.78-7.532H12.035L4.254,11.099z"/>
	</g>
	<g>
		<path d="M16.628,18.332c0.189-0.273,0.462-0.42,0.798-0.42c0.609,0,0.924,0.357,0.924,1.05v8.524h1.386
			c0.567,0,0.861,0.252,0.861,0.756s-0.294,0.756-0.861,0.756H18.35v2.919c0,0.608-0.273,0.903-0.798,0.903
			s-0.798-0.295-0.798-0.903v-2.919h-5.879c-0.693,0-1.029-0.293-1.029-0.902c0-0.21,0.105-0.462,0.294-0.734L16.628,18.332z
			 M11.799,27.485h4.955v-6.823L11.799,27.485z"/>
	</g>
</g>
<g id="Layer_1">
</g>
</svg>
