<?xml version="1.0" encoding="iso-8859-1"?>
<!-- Generator: Adobe Illustrator 16.0.0, SVG Export Plug-In . SVG Version: 6.00 Build 0)  -->
<!DOCTYPE svg PUBLIC "-//W3C//DTD SVG 1.1//EN" "http://www.w3.org/Graphics/SVG/1.1/DTD/svg11.dtd">
<svg version="1.1" xmlns="http://www.w3.org/2000/svg" xmlns:xlink="http://www.w3.org/1999/xlink" x="0px" y="0px"
	 width="41.954px" height="40.726px" viewBox="0 0 41.954 40.726" style="enable-background:new 0 0 41.954 40.726;"
	 xml:space="preserve">
<g id="_x32_">
	<g>
		<path style="fill:#231F20;" d="M30.324,40.726H1.783c-0.552,0-1-0.447-1-1V12.099c0-0.282,0.117-0.537,0.305-0.718l9.847-9.532
			c0.187-0.181,0.436-0.282,0.695-0.282h28.541c0.553,0,1,0.448,1,1v27.627c0,0.271-0.109,0.53-0.305,0.719l-9.847,9.532
			C30.84,40.618,30.595,40.726,30.324,40.726z M2.783,38.726h26.541V13.099H2.783V38.726z M31.324,12.522v24.843l7.847-7.596V4.926
			L31.324,12.522z M4.254,11.099H29.92l7.78-7.532H12.035L4.254,11.099z"/>
	</g>
	<g>
		<path d="M15.453,25.345l0.504-0.336l1.029-0.693c0.21-0.146,0.462-0.378,0.777-0.672c0.651-0.588,0.861-1.197,0.861-1.952
			c0-1.491-1.155-2.436-2.918-2.436c-1.407,0-2.478,0.693-3.233,2.057c-0.252,0.441-0.798,0.547-1.113,0.295
			c-0.336-0.231-0.42-0.714-0.168-1.155c0.861-1.533,2.499-2.688,4.514-2.688c1.239,0,2.31,0.357,3.191,1.05
			c0.903,0.693,1.344,1.659,1.344,2.897c0,1.869-1.155,3.129-3.527,4.661l-0.945,0.608c-1.848,1.176-3.212,2.793-3.296,4.221h7.055
			c1.155,0,1.155,1.512,0,1.512h-7.811c-0.525,0-0.945-0.462-0.945-0.986C10.771,29.48,12.241,27.507,15.453,25.345z"/>
	</g>
</g>
<g id="Layer_1">
</g>
</svg>
