<?xml version="1.0" encoding="iso-8859-1"?>
<!-- Generator: Adobe Illustrator 16.0.0, SVG Export Plug-In . SVG Version: 6.00 Build 0)  -->
<!DOCTYPE svg PUBLIC "-//W3C//DTD SVG 1.1//EN" "http://www.w3.org/Graphics/SVG/1.1/DTD/svg11.dtd">
<svg version="1.1" xmlns="http://www.w3.org/2000/svg" xmlns:xlink="http://www.w3.org/1999/xlink" x="0px" y="0px"
	 width="43.219px" height="43.217px" viewBox="0 0 43.219 43.217" style="enable-background:new 0 0 43.219 43.217;"
	 xml:space="preserve">
<g id="EastQueen">
	<g>
		<path style="fill:#231F20;" d="M1.03,38.938v-33c0-0.334,0.168-0.646,0.447-0.832s0.631-0.219,0.941-0.09l39.16,16.5
			c0.37,0.156,0.612,0.52,0.612,0.922s-0.242,0.766-0.612,0.922L2.418,39.86c-0.311,0.131-0.662,0.098-0.941-0.088
			S1.03,39.274,1.03,38.938z M3.03,7.446v29.987l35.584-14.995L3.03,7.446z"/>
		<path style="fill:#231F20;" d="M6.479,11.393c0.006,0,0.016,0,0.021,0.002c1.1,0.105,3.121,1.098,3.869,1.48
			c0.121,0.063,0.121,0.238,0,0.299c-0.75,0.383-2.775,1.373-3.863,1.482c-0.01,0.002-0.021,0.002-0.033,0.004
			c-0.053,0.004-0.104,0.008-0.15,0.008c-0.908,0-1.643-0.734-1.643-1.643c0-0.906,0.734-1.641,1.643-1.641
			C6.372,11.385,6.424,11.387,6.479,11.393"/>
		<path style="fill:#231F20;" d="M6.479,15.877c0.006,0,0.016,0,0.021,0.002c1.1,0.105,3.121,1.098,3.869,1.48
			c0.121,0.064,0.121,0.238,0,0.299c-0.75,0.383-2.775,1.373-3.863,1.482c-0.01,0.002-0.021,0.002-0.033,0.004
			c-0.053,0.004-0.104,0.008-0.15,0.008c-0.908,0-1.643-0.736-1.643-1.642s0.734-1.643,1.643-1.643
			C6.372,15.868,6.424,15.872,6.479,15.877"/>
		<path style="fill:#231F20;" d="M6.479,20.359c0.006,0.002,0.016,0.002,0.021,0.002c1.1,0.107,3.121,1.1,3.869,1.482
			c0.121,0.063,0.121,0.238,0,0.299c-0.75,0.383-2.775,1.373-3.863,1.482c-0.01,0.002-0.021,0.002-0.033,0.004
			c-0.053,0.004-0.104,0.008-0.15,0.008c-0.908,0-1.643-0.736-1.643-1.643s0.734-1.643,1.643-1.643
			C6.372,20.352,6.424,20.355,6.479,20.359"/>
	</g>
</g>
<g id="Layer_1">
</g>
</svg>
