<?xml version="1.0" encoding="iso-8859-1"?>
<!-- Generator: Adobe Illustrator 16.0.0, SVG Export Plug-In . SVG Version: 6.00 Build 0)  -->
<!DOCTYPE svg PUBLIC "-//W3C//DTD SVG 1.1//EN" "http://www.w3.org/Graphics/SVG/1.1/DTD/svg11.dtd">
<svg version="1.1" xmlns="http://www.w3.org/2000/svg" xmlns:xlink="http://www.w3.org/1999/xlink" x="0px" y="0px"
	 width="43.219px" height="43.217px" viewBox="0 0 43.219 43.217" style="enable-background:new 0 0 43.219 43.217;"
	 xml:space="preserve">
<g id="EastDrone">
	<g>
		<path style="fill:#231F20;" d="M4.118,34.916V9.962c0-0.328,0.16-0.635,0.432-0.822c0.27-0.188,0.615-0.229,0.922-0.113
			l32.984,12.479c0.389,0.146,0.646,0.52,0.646,0.936l0,0c0,0.416-0.258,0.787-0.646,0.936L5.472,35.852
			c-0.307,0.115-0.652,0.074-0.922-0.113C4.278,35.551,4.118,35.244,4.118,34.916z M6.118,11.409v22.06l29.158-11.027L6.118,11.409z
			"/>
		<path style="fill:#231F20;" d="M9.567,15.37c0.006,0.002,0.014,0.002,0.021,0.004c1.1,0.105,3.121,1.098,3.867,1.48
			c0.123,0.064,0.123,0.238,0,0.299c-0.748,0.383-2.773,1.374-3.861,1.483c-0.012,0.002-0.021,0.002-0.033,0.004
			c-0.053,0.004-0.104,0.008-0.152,0.008c-0.906,0-1.641-0.737-1.641-1.644s0.734-1.643,1.641-1.643
			C9.46,15.362,9.513,15.366,9.567,15.37"/>
		<path style="fill:#231F20;" d="M9.567,19.857c0.006,0,0.014,0,0.021,0.002c1.1,0.105,3.121,1.098,3.867,1.48
			c0.123,0.063,0.123,0.238,0,0.299c-0.748,0.383-2.773,1.373-3.861,1.482c-0.012,0.002-0.021,0.002-0.033,0.004
			c-0.053,0.004-0.104,0.008-0.152,0.008c-0.906,0-1.641-0.736-1.641-1.643s0.734-1.643,1.641-1.643
			C9.46,19.848,9.513,19.852,9.567,19.857"/>
	</g>
</g>
<g id="Layer_1">
</g>
</svg>
