<?xml version="1.0" encoding="iso-8859-1"?>
<!-- Generator: Adobe Illustrator 16.0.0, SVG Export Plug-In . SVG Version: 6.00 Build 0)  -->
<!DOCTYPE svg PUBLIC "-//W3C//DTD SVG 1.1//EN" "http://www.w3.org/Graphics/SVG/1.1/DTD/svg11.dtd">
<svg version="1.1" xmlns="http://www.w3.org/2000/svg" xmlns:xlink="http://www.w3.org/1999/xlink" x="0px" y="0px"
	 width="43.219px" height="43.217px" viewBox="0 0 43.219 43.217" style="enable-background:new 0 0 43.219 43.217;"
	 xml:space="preserve">
<g id="EastPawn">
	<g>
		<path style="fill:#231F20;" d="M8.883,31.807V13.072c0-0.332,0.164-0.643,0.439-0.828c0.273-0.186,0.623-0.225,0.932-0.102
			l23.452,9.369c0.381,0.15,0.629,0.52,0.629,0.928c0,0.41-0.248,0.777-0.629,0.93l-23.452,9.367
			c-0.309,0.123-0.658,0.084-0.932-0.102C9.047,32.449,8.883,32.139,8.883,31.807z M10.883,14.549V30.33l19.756-7.891L10.883,14.549
			z"/>
		<path style="fill:#231F20;" d="M14.333,20.711c0.006,0,0.014,0,0.021,0.002c1.1,0.105,3.121,1.098,3.867,1.482
			c0.123,0.063,0.123,0.236,0,0.299c-0.748,0.381-2.773,1.371-3.861,1.482c-0.012,0-0.021,0.002-0.033,0.002
			c-0.053,0.004-0.104,0.008-0.152,0.008c-0.906,0-1.641-0.734-1.641-1.641c0-0.908,0.734-1.643,1.641-1.643
			C14.225,20.703,14.278,20.705,14.333,20.711"/>
	</g>
</g>
<g id="Layer_1">
</g>
</svg>
