<?xml version="1.0" encoding="iso-8859-1"?>
<!-- Generator: Adobe Illustrator 16.0.0, SVG Export Plug-In . SVG Version: 6.00 Build 0)  -->
<!DOCTYPE svg PUBLIC "-//W3C//DTD SVG 1.1//EN" "http://www.w3.org/Graphics/SVG/1.1/DTD/svg11.dtd">
<svg version="1.1" xmlns="http://www.w3.org/2000/svg" xmlns:xlink="http://www.w3.org/1999/xlink" x="0px" y="0px"
	 width="43.219px" height="43.217px" viewBox="0 0 43.219 43.217" style="enable-background:new 0 0 43.219 43.217;"
	 xml:space="preserve">
<g id="NorthPawn">
	<g>
		<path style="fill:#231F20;" d="M30.977,35.166H12.242c-0.332,0-0.643-0.164-0.828-0.439c-0.186-0.273-0.225-0.623-0.102-0.932
			l9.369-23.452c0.15-0.38,0.52-0.629,0.928-0.629c0.41,0,0.777,0.249,0.93,0.629l9.368,23.452c0.123,0.309,0.084,0.658-0.102,0.932
			C31.619,35.002,31.309,35.166,30.977,35.166z M13.718,33.166H29.5l-7.891-19.757L13.718,33.166z"/>
		<path style="fill:#231F20;" d="M19.88,29.717c0-0.006,0-0.014,0.002-0.021c0.105-1.1,1.098-3.121,1.482-3.867
			c0.063-0.123,0.236-0.123,0.299,0c0.381,0.748,1.372,2.773,1.483,3.861c0,0.012,0.002,0.021,0.002,0.033
			c0.004,0.053,0.008,0.104,0.008,0.152c0,0.906-0.735,1.641-1.641,1.641c-0.908,0-1.643-0.734-1.643-1.641
			C19.873,29.824,19.875,29.771,19.88,29.717"/>
	</g>
</g>
<g id="Layer_1">
</g>
</svg>
