<?xml version="1.0" encoding="iso-8859-1"?>
<!-- Generator: Adobe Illustrator 16.0.0, SVG Export Plug-In . SVG Version: 6.00 Build 0)  -->
<!DOCTYPE svg PUBLIC "-//W3C//DTD SVG 1.1//EN" "http://www.w3.org/Graphics/SVG/1.1/DTD/svg11.dtd">
<svg version="1.1" xmlns="http://www.w3.org/2000/svg" xmlns:xlink="http://www.w3.org/1999/xlink" x="0px" y="0px"
	 width="43.219px" height="43.217px" viewBox="0 0 43.219 43.217" style="enable-background:new 0 0 43.219 43.217;"
	 xml:space="preserve">
<g id="NorthQueen">
	<g>
		<path style="fill:#231F20;" d="M38.109,43.02H5.108c-0.334,0-0.646-0.168-0.832-0.447s-0.219-0.631-0.09-0.941l16.5-39.159
			c0.156-0.371,0.52-0.612,0.922-0.612s0.766,0.241,0.922,0.612l16.501,39.159c0.131,0.311,0.098,0.662-0.088,0.941
			S38.445,43.02,38.109,43.02z M6.616,41.02h29.987L21.608,5.435L6.616,41.02z"/>
		<path style="fill:#231F20;" d="M10.563,37.57c0-0.006,0-0.016,0.002-0.021c0.105-1.1,1.098-3.121,1.48-3.869
			c0.063-0.121,0.238-0.121,0.299,0c0.383,0.75,1.373,2.775,1.482,3.863c0.002,0.01,0.002,0.021,0.004,0.033
			c0.004,0.053,0.008,0.104,0.008,0.15c0,0.908-0.734,1.643-1.643,1.643c-0.906,0-1.641-0.734-1.641-1.643
			C10.556,37.678,10.558,37.625,10.563,37.57"/>
		<path style="fill:#231F20;" d="M15.048,37.57c0-0.006,0-0.016,0.002-0.021c0.105-1.1,1.098-3.121,1.48-3.869
			c0.064-0.121,0.238-0.121,0.299,0c0.383,0.75,1.373,2.775,1.482,3.863c0.002,0.01,0.002,0.021,0.004,0.033
			c0.004,0.053,0.008,0.104,0.008,0.15c0,0.908-0.736,1.643-1.642,1.643s-1.643-0.734-1.643-1.643
			C15.038,37.678,15.042,37.625,15.048,37.57"/>
		<path style="fill:#231F20;" d="M19.53,37.57c0.002-0.006,0.002-0.016,0.002-0.021c0.107-1.1,1.1-3.121,1.482-3.869
			c0.063-0.121,0.238-0.121,0.299,0c0.383,0.75,1.373,2.775,1.482,3.863c0.002,0.01,0.002,0.021,0.004,0.033
			c0.004,0.053,0.008,0.104,0.008,0.15c0,0.908-0.736,1.643-1.643,1.643s-1.643-0.734-1.643-1.643
			C19.522,37.678,19.526,37.625,19.53,37.57"/>
	</g>
</g>
<g id="Layer_1">
</g>
</svg>
