<?xml version="1.0" encoding="iso-8859-1"?>
<!-- Generator: Adobe Illustrator 16.0.0, SVG Export Plug-In . SVG Version: 6.00 Build 0)  -->
<!DOCTYPE svg PUBLIC "-//W3C//DTD SVG 1.1//EN" "http://www.w3.org/Graphics/SVG/1.1/DTD/svg11.dtd">
<svg version="1.1" xmlns="http://www.w3.org/2000/svg" xmlns:xlink="http://www.w3.org/1999/xlink" x="0px" y="0px"
	 width="43.219px" height="43.217px" viewBox="0 0 43.219 43.217" style="enable-background:new 0 0 43.219 43.217;"
	 xml:space="preserve">
<g id="NorthWestDrone">
	<g>
		<path style="fill:#231F20;" d="M37.97,21.157L20.325,38.801c-0.232,0.232-0.563,0.336-0.887,0.277s-0.598-0.273-0.732-0.572
			L4.207,6.359C4.035,5.98,4.117,5.535,4.411,5.241l0,0c0.294-0.294,0.738-0.375,1.118-0.205l32.146,14.501
			c0.297,0.136,0.514,0.41,0.57,0.732C38.306,20.594,38.202,20.924,37.97,21.157z M19.934,36.363l15.598-15.597L7.117,7.946
			L19.934,36.363z"/>
		<path style="fill:#231F20;" d="M20.295,31.125c-0.004-0.006-0.008-0.012-0.014-0.018c-0.703-0.854-1.43-2.984-1.688-3.781
			c-0.041-0.135,0.082-0.256,0.213-0.213c0.799,0.26,2.932,0.99,3.777,1.682c0.01,0.008,0.018,0.014,0.027,0.021
			c0.041,0.033,0.078,0.066,0.113,0.102c0.641,0.641,0.639,1.682-0.002,2.322c-0.641,0.641-1.682,0.643-2.322,0.002
			C20.366,31.205,20.331,31.166,20.295,31.125"/>
		<path style="fill:#231F20;" d="M23.468,27.951c-0.004-0.004-0.01-0.01-0.014-0.016c-0.704-0.854-1.43-2.984-1.688-3.781
			c-0.043-0.133,0.082-0.256,0.213-0.213c0.799,0.26,2.932,0.99,3.778,1.684c0.01,0.006,0.016,0.014,0.025,0.02
			c0.041,0.035,0.08,0.068,0.113,0.104c0.641,0.641,0.641,1.68,0,2.32s-1.682,0.643-2.322,0.002
			C23.538,28.033,23.503,27.994,23.468,27.951"/>
	</g>
</g>
<g id="Layer_1">
</g>
</svg>
