<?xml version="1.0" encoding="iso-8859-1"?>
<!-- Generator: Adobe Illustrator 16.0.0, SVG Export Plug-In . SVG Version: 6.00 Build 0)  -->
<!DOCTYPE svg PUBLIC "-//W3C//DTD SVG 1.1//EN" "http://www.w3.org/Graphics/SVG/1.1/DTD/svg11.dtd">
<svg version="1.1" xmlns="http://www.w3.org/2000/svg" xmlns:xlink="http://www.w3.org/1999/xlink" x="0px" y="0px"
	 width="43.219px" height="43.217px" viewBox="0 0 43.219 43.217" style="enable-background:new 0 0 43.219 43.217;"
	 xml:space="preserve">
<g id="NorthWestQueen">
	<g>
		<path style="fill:#231F20;" d="M42.095,19.59L18.76,42.924c-0.236,0.236-0.576,0.339-0.904,0.271
			c-0.328-0.065-0.602-0.291-0.729-0.602L1.103,3.237c-0.151-0.373-0.065-0.8,0.22-1.084c0.284-0.285,0.712-0.371,1.084-0.219
			l39.358,16.021c0.313,0.127,0.537,0.399,0.604,0.729C42.435,19.012,42.333,19.352,42.095,19.59z M18.413,40.443L39.616,19.24
			L3.85,4.681L18.413,40.443z"/>
		<path style="fill:#231F20;" d="M18.764,35.214c-0.004-0.005-0.012-0.011-0.014-0.017c-0.703-0.853-1.431-2.983-1.689-3.783
			c-0.041-0.13,0.083-0.254,0.211-0.211c0.801,0.26,2.934,0.992,3.781,1.684c0.008,0.006,0.016,0.014,0.025,0.021
			c0.041,0.034,0.078,0.067,0.111,0.101c0.643,0.643,0.643,1.682,0,2.323c-0.641,0.642-1.68,0.641-2.32-0.001
			C18.834,35.295,18.799,35.256,18.764,35.214"/>
		<path style="fill:#231F20;" d="M21.934,32.043c-0.004-0.004-0.01-0.012-0.014-0.017c-0.703-0.853-1.43-2.983-1.689-3.783
			c-0.039-0.132,0.084-0.254,0.213-0.212c0.801,0.261,2.934,0.992,3.78,1.685c0.008,0.005,0.016,0.014,0.025,0.021
			c0.041,0.035,0.08,0.068,0.113,0.102c0.641,0.642,0.641,1.682,0,2.322s-1.682,0.643-2.325,0
			C22.004,32.125,21.969,32.086,21.934,32.043"/>
		<path style="fill:#231F20;" d="M25.104,28.873c-0.002-0.006-0.01-0.012-0.014-0.016c-0.701-0.854-1.43-2.984-1.688-3.785
			c-0.041-0.129,0.082-0.254,0.211-0.211c0.801,0.26,2.934,0.992,3.779,1.684c0.01,0.006,0.018,0.014,0.027,0.021
			c0.039,0.035,0.078,0.067,0.111,0.101c0.643,0.643,0.641,1.683,0,2.324c-0.641,0.641-1.68,0.641-2.322-0.001
			C25.175,28.955,25.14,28.915,25.104,28.873"/>
	</g>
</g>
<g id="Layer_1">
</g>
</svg>
