<?xml version="1.0" encoding="iso-8859-1"?>
<!-- Generator: Adobe Illustrator 16.0.0, SVG Export Plug-In . SVG Version: 6.00 Build 0)  -->
<!DOCTYPE svg PUBLIC "-//W3C//DTD SVG 1.1//EN" "http://www.w3.org/Graphics/SVG/1.1/DTD/svg11.dtd">
<svg version="1.1" xmlns="http://www.w3.org/2000/svg" xmlns:xlink="http://www.w3.org/1999/xlink" x="0px" y="0px"
	 width="43.219px" height="43.217px" viewBox="0 0 43.219 43.217" style="enable-background:new 0 0 43.219 43.217;"
	 xml:space="preserve">
<g id="NorthEastPawn">
	<g>
		<path style="fill:#231F20;" d="M22.671,34.639L9.424,21.392c-0.235-0.234-0.339-0.57-0.274-0.896
			c0.063-0.324,0.281-0.6,0.586-0.731l23.208-9.958c0.376-0.163,0.812-0.077,1.101,0.212c0.29,0.29,0.375,0.725,0.213,1.102
			l-9.959,23.206c-0.131,0.307-0.406,0.525-0.73,0.588C23.242,34.979,22.906,34.875,22.671,34.639z M11.882,21.022l11.16,11.16
			l8.39-19.55L11.882,21.022z"/>
		<path style="fill:#231F20;" d="M18.679,22.941c0.004-0.005,0.01-0.01,0.017-0.015c0.852-0.703,2.982-1.431,3.782-1.687
			c0.131-0.043,0.254,0.08,0.211,0.211c-0.259,0.799-0.99,2.932-1.682,3.78c-0.008,0.008-0.014,0.016-0.021,0.025
			c-0.035,0.039-0.068,0.078-0.104,0.113c-0.641,0.641-1.68,0.641-2.32,0c-0.642-0.643-0.642-1.682-0.001-2.322
			C18.597,23.01,18.636,22.974,18.679,22.941"/>
	</g>
</g>
<g id="Layer_1">
</g>
</svg>
