<?xml version="1.0" encoding="iso-8859-1"?>
<!-- Generator: Adobe Illustrator 16.0.0, SVG Export Plug-In . SVG Version: 6.00 Build 0)  -->
<!DOCTYPE svg PUBLIC "-//W3C//DTD SVG 1.1//EN" "http://www.w3.org/Graphics/SVG/1.1/DTD/svg11.dtd">
<svg version="1.1" xmlns="http://www.w3.org/2000/svg" xmlns:xlink="http://www.w3.org/1999/xlink" x="0px" y="0px"
	 width="43.219px" height="43.217px" viewBox="0 0 43.219 43.217" style="enable-background:new 0 0 43.219 43.217;"
	 xml:space="preserve">
<g id="NorthEastQueen">
	<g>
		<path style="fill:#231F20;" d="M24.458,42.923L1.124,19.589c-0.236-0.236-0.339-0.576-0.271-0.904
			c0.065-0.328,0.291-0.602,0.602-0.729L40.811,1.933c0.372-0.152,0.8-0.066,1.085,0.219c0.284,0.285,0.37,0.713,0.219,1.084
			L26.093,42.593c-0.127,0.313-0.399,0.538-0.729,0.604C25.036,43.263,24.696,43.161,24.458,42.923z M3.604,19.241l21.204,21.203
			L39.366,4.679L3.604,19.241z"/>
		<path style="fill:#231F20;" d="M8.833,19.593c0.005-0.004,0.011-0.012,0.017-0.014c0.853-0.703,2.983-1.43,3.783-1.689
			c0.13-0.041,0.254,0.084,0.211,0.211c-0.26,0.803-0.992,2.934-1.684,3.781c-0.006,0.008-0.014,0.016-0.021,0.025
			c-0.034,0.041-0.067,0.079-0.101,0.112c-0.643,0.642-1.682,0.642-2.323,0s-0.641-1.679,0.001-2.321
			C8.752,19.663,8.792,19.628,8.833,19.593"/>
		<path style="fill:#231F20;" d="M12.004,22.764c0.004-0.005,0.012-0.011,0.017-0.014c0.853-0.703,2.983-1.431,3.783-1.688
			c0.132-0.041,0.254,0.082,0.212,0.211c-0.261,0.801-0.992,2.934-1.685,3.779c-0.005,0.008-0.014,0.017-0.021,0.026
			c-0.035,0.04-0.068,0.079-0.102,0.112c-0.642,0.642-1.682,0.641-2.322,0s-0.643-1.682,0-2.323
			C11.922,22.833,11.961,22.798,12.004,22.764"/>
		<path style="fill:#231F20;" d="M15.174,25.933c0.006-0.002,0.012-0.01,0.016-0.014c0.854-0.701,2.984-1.43,3.785-1.688
			c0.129-0.041,0.254,0.083,0.211,0.211c-0.26,0.802-0.992,2.934-1.684,3.78c-0.006,0.009-0.014,0.017-0.021,0.026
			c-0.035,0.04-0.067,0.078-0.101,0.111c-0.643,0.643-1.683,0.642-2.324,0c-0.641-0.641-0.641-1.68,0.001-2.322
			C15.092,26.003,15.132,25.969,15.174,25.933"/>
	</g>
</g>
<g id="Layer_1">
</g>
</svg>
