<?xml version="1.0" encoding="iso-8859-1"?>
<!-- Generator: Adobe Illustrator 16.0.0, SVG Export Plug-In . SVG Version: 6.00 Build 0)  -->
<!DOCTYPE svg PUBLIC "-//W3C//DTD SVG 1.1//EN" "http://www.w3.org/Graphics/SVG/1.1/DTD/svg11.dtd">
<svg version="1.1" xmlns="http://www.w3.org/2000/svg" xmlns:xlink="http://www.w3.org/1999/xlink" x="0px" y="0px"
	 width="43.219px" height="43.217px" viewBox="0 0 43.219 43.217" style="enable-background:new 0 0 43.219 43.217;"
	 xml:space="preserve">
<g id="NorthDrone">
	<g>
		<path style="fill:#231F20;" d="M34.087,39.932H9.132c-0.328,0-0.635-0.16-0.822-0.432c-0.188-0.27-0.229-0.615-0.113-0.922
			L20.676,5.595c0.146-0.39,0.52-0.646,0.936-0.646l0,0c0.416,0,0.787,0.257,0.936,0.646l12.475,32.983
			c0.115,0.307,0.074,0.652-0.113,0.922C34.722,39.771,34.415,39.932,34.087,39.932z M10.58,37.932h22.06L21.612,8.774L10.58,37.932
			z"/>
		<path style="fill:#231F20;" d="M14.541,34.482c0.002-0.006,0.002-0.014,0.004-0.021c0.105-1.1,1.098-3.121,1.48-3.867
			c0.064-0.123,0.238-0.123,0.299,0c0.383,0.748,1.374,2.773,1.483,3.861c0.002,0.012,0.002,0.021,0.004,0.033
			c0.004,0.053,0.008,0.104,0.008,0.152c0,0.906-0.737,1.641-1.644,1.641s-1.643-0.734-1.643-1.641
			C14.533,34.59,14.537,34.537,14.541,34.482"/>
		<path style="fill:#231F20;" d="M19.028,34.482c0-0.006,0-0.014,0.002-0.021c0.105-1.1,1.098-3.121,1.48-3.867
			c0.063-0.123,0.238-0.123,0.299,0c0.383,0.748,1.373,2.773,1.482,3.861c0.002,0.012,0.002,0.021,0.004,0.033
			c0.004,0.053,0.008,0.104,0.008,0.152c0,0.906-0.736,1.641-1.643,1.641s-1.643-0.734-1.643-1.641
			C19.018,34.59,19.022,34.537,19.028,34.482"/>
	</g>
</g>
<g id="Layer_1">
</g>
</svg>
