<?xml version="1.0" encoding="iso-8859-1"?>
<!-- Generator: Adobe Illustrator 16.0.0, SVG Export Plug-In . SVG Version: 6.00 Build 0)  -->
<!DOCTYPE svg PUBLIC "-//W3C//DTD SVG 1.1//EN" "http://www.w3.org/Graphics/SVG/1.1/DTD/svg11.dtd">
<svg version="1.1" xmlns="http://www.w3.org/2000/svg" xmlns:xlink="http://www.w3.org/1999/xlink" x="0px" y="0px"
	 width="43.219px" height="43.217px" viewBox="0 0 43.219 43.217" style="enable-background:new 0 0 43.219 43.217;"
	 xml:space="preserve">
<g id="NorthWestPawn">
	<g>
		<path style="fill:#231F20;" d="M33.811,21.393L20.562,34.641c-0.234,0.234-0.57,0.338-0.896,0.274
			c-0.324-0.062-0.6-0.282-0.73-0.587L8.977,11.12c-0.162-0.375-0.077-0.813,0.212-1.101c0.289-0.29,0.725-0.373,1.102-0.212
			l23.208,9.959c0.305,0.131,0.525,0.406,0.586,0.73C34.148,20.822,34.045,21.158,33.811,21.393z M20.193,32.182l11.159-11.158
			l-19.549-8.391L20.193,32.182z"/>
		<path style="fill:#231F20;" d="M22.111,25.386c-0.004-0.005-0.01-0.01-0.015-0.017c-0.702-0.852-1.431-2.982-1.687-3.783
			c-0.042-0.131,0.08-0.254,0.212-0.211c0.798,0.26,2.931,0.992,3.779,1.682c0.009,0.009,0.018,0.014,0.025,0.022
			c0.039,0.034,0.078,0.067,0.113,0.103c0.641,0.641,0.641,1.68,0,2.32c-0.643,0.643-1.682,0.643-2.323,0.002
			C22.181,25.467,22.145,25.429,22.111,25.386"/>
	</g>
</g>
<g id="Layer_1">
</g>
</svg>
