<?xml version="1.0" encoding="iso-8859-1"?>
<!-- Generator: Adobe Illustrator 16.0.0, SVG Export Plug-In . SVG Version: 6.00 Build 0)  -->
<!DOCTYPE svg PUBLIC "-//W3C//DTD SVG 1.1//EN" "http://www.w3.org/Graphics/SVG/1.1/DTD/svg11.dtd">
<svg version="1.1" xmlns="http://www.w3.org/2000/svg" xmlns:xlink="http://www.w3.org/1999/xlink" x="0px" y="0px"
	 width="43.219px" height="43.217px" viewBox="0 0 43.219 43.217" style="enable-background:new 0 0 43.219 43.217;"
	 xml:space="preserve">
<g id="NorthEastDrone">
	<g>
		<path style="fill:#231F20;" d="M22.858,38.785L5.211,21.139c-0.231-0.231-0.336-0.561-0.275-0.886
			c0.058-0.323,0.273-0.597,0.572-0.731L37.655,5.022c0.379-0.171,0.824-0.09,1.119,0.204l0,0c0.294,0.294,0.374,0.739,0.203,1.119
			L24.477,38.489c-0.136,0.298-0.409,0.514-0.731,0.571C23.419,39.121,23.09,39.017,22.858,38.785z M7.649,20.748l15.6,15.6
			l12.82-28.416L7.649,20.748z"/>
		<path style="fill:#231F20;" d="M12.889,21.11c0.006-0.003,0.012-0.009,0.018-0.013c0.853-0.702,2.984-1.43,3.781-1.688
			c0.133-0.041,0.256,0.082,0.212,0.212c-0.259,0.8-0.989,2.933-1.682,3.779c-0.007,0.01-0.014,0.017-0.021,0.026
			c-0.035,0.039-0.068,0.078-0.102,0.113c-0.642,0.641-1.682,0.639-2.322-0.002c-0.642-0.642-0.643-1.682-0.002-2.322
			C12.807,21.182,12.848,21.146,12.889,21.11"/>
		<path style="fill:#231F20;" d="M16.063,24.283c0.004-0.004,0.01-0.01,0.016-0.014c0.852-0.703,2.983-1.431,3.781-1.688
			c0.131-0.043,0.256,0.082,0.211,0.211c-0.258,0.801-0.989,2.933-1.682,3.779c-0.007,0.01-0.014,0.017-0.021,0.026
			c-0.034,0.04-0.067,0.079-0.103,0.112c-0.641,0.642-1.68,0.641-2.321-0.001c-0.641-0.641-0.642-1.681-0.001-2.321
			C15.979,24.354,16.02,24.318,16.063,24.283"/>
	</g>
</g>
<g id="Layer_1">
</g>
</svg>
