<?xml version="1.0" encoding="iso-8859-1"?>
<!-- Generator: Adobe Illustrator 16.0.0, SVG Export Plug-In . SVG Version: 6.00 Build 0)  -->
<!DOCTYPE svg PUBLIC "-//W3C//DTD SVG 1.1//EN" "http://www.w3.org/Graphics/SVG/1.1/DTD/svg11.dtd">
<svg version="1.1" xmlns="http://www.w3.org/2000/svg" xmlns:xlink="http://www.w3.org/1999/xlink" x="0px" y="0px"
	 width="43.219px" height="43.217px" viewBox="0 0 43.219 43.217" style="enable-background:new 0 0 43.219 43.217;"
	 xml:space="preserve">
<g id="WestPawn">
	<path style="fill:#231F20;" d="M33.896,12.245c-0.273-0.186-0.623-0.225-0.932-0.102L9.512,21.511
		c-0.38,0.152-0.629,0.52-0.629,0.93c0,0.408,0.249,0.777,0.629,0.928l23.452,9.369c0.309,0.123,0.658,0.084,0.932-0.102
		c0.275-0.186,0.439-0.496,0.439-0.828V13.073C34.335,12.741,34.171,12.431,33.896,12.245z M29.044,24.177
		c-0.051,0-0.104-0.002-0.158-0.008c-0.006,0-0.014,0-0.021-0.002c-1.1-0.105-3.121-1.098-3.867-1.482
		c-0.123-0.063-0.123-0.236,0-0.299c0.748-0.381,2.773-1.371,3.861-1.482c0.012,0,0.021-0.002,0.033-0.002
		c0.053-0.004,0.104-0.008,0.152-0.008c0.906,0,1.641,0.734,1.641,1.641C30.685,23.442,29.95,24.177,29.044,24.177z"/>
</g>
<g id="Layer_1">
</g>
</svg>
