<?xml version="1.0" encoding="iso-8859-1"?>
<!-- Generator: Adobe Illustrator 16.0.0, SVG Export Plug-In . SVG Version: 6.00 Build 0)  -->
<!DOCTYPE svg PUBLIC "-//W3C//DTD SVG 1.1//EN" "http://www.w3.org/Graphics/SVG/1.1/DTD/svg11.dtd">
<svg version="1.1" xmlns="http://www.w3.org/2000/svg" xmlns:xlink="http://www.w3.org/1999/xlink" x="0px" y="0px"
	 width="43.219px" height="43.217px" viewBox="0 0 43.219 43.217" style="enable-background:new 0 0 43.219 43.217;"
	 xml:space="preserve">
<g id="NorthDrone">
	<path style="fill:#231F20;" d="M35.022,38.578L22.547,5.595c-0.148-0.39-0.52-0.646-0.936-0.646s-0.789,0.257-0.936,0.646
		L8.197,38.578C8.082,38.885,8.123,39.23,8.31,39.5c0.188,0.271,0.494,0.432,0.822,0.432h24.955c0.328,0,0.635-0.16,0.822-0.432
		C35.097,39.23,35.138,38.885,35.022,38.578z M14.541,34.482c0.002-0.006,0.002-0.014,0.004-0.021c0.105-1.1,1.098-3.121,1.48-3.867
		c0.064-0.123,0.238-0.123,0.299,0c0.383,0.748,1.374,2.773,1.483,3.861c0.002,0.012,0.002,0.021,0.004,0.033
		c0.004,0.053,0.008,0.104,0.008,0.152c0,0.906-0.737,1.641-1.644,1.641s-1.643-0.734-1.643-1.641
		C14.533,34.59,14.537,34.537,14.541,34.482z M20.661,36.281c-0.906,0-1.643-0.734-1.643-1.641c0-0.051,0.004-0.104,0.01-0.158
		c0-0.006,0-0.014,0.002-0.021c0.105-1.1,1.098-3.121,1.48-3.867c0.063-0.123,0.238-0.123,0.299,0
		c0.383,0.748,1.373,2.773,1.482,3.861c0.002,0.012,0.002,0.021,0.004,0.033c0.004,0.053,0.008,0.104,0.008,0.152
		C22.303,35.547,21.567,36.281,20.661,36.281z"/>
</g>
<g id="Layer_1">
</g>
</svg>
