<?xml version="1.0" encoding="iso-8859-1"?>
<!-- Generator: Adobe Illustrator 16.0.0, SVG Export Plug-In . SVG Version: 6.00 Build 0)  -->
<!DOCTYPE svg PUBLIC "-//W3C//DTD SVG 1.1//EN" "http://www.w3.org/Graphics/SVG/1.1/DTD/svg11.dtd">
<svg version="1.1" xmlns="http://www.w3.org/2000/svg" xmlns:xlink="http://www.w3.org/1999/xlink" x="0px" y="0px"
	 width="43.219px" height="43.217px" viewBox="0 0 43.219 43.217" style="enable-background:new 0 0 43.219 43.217;"
	 xml:space="preserve">
<g id="EastDrone">
	<path style="fill:#231F20;" d="M38.456,21.506L5.472,9.026C5.165,8.911,4.819,8.952,4.55,9.14C4.278,9.327,4.118,9.634,4.118,9.962
		v24.954c0,0.328,0.16,0.635,0.432,0.822c0.27,0.188,0.615,0.229,0.922,0.113l32.984-12.475c0.389-0.148,0.646-0.52,0.646-0.936
		S38.845,21.652,38.456,21.506z M7.769,21.49c0-0.906,0.734-1.643,1.641-1.643c0.051,0,0.104,0.004,0.158,0.01
		c0.006,0,0.014,0,0.021,0.002c1.1,0.105,3.121,1.098,3.867,1.48c0.123,0.063,0.123,0.238,0,0.299
		c-0.748,0.383-2.773,1.373-3.861,1.482c-0.012,0.002-0.021,0.002-0.033,0.004c-0.053,0.004-0.104,0.008-0.152,0.008
		C8.503,23.133,7.769,22.396,7.769,21.49z M13.456,17.153c-0.748,0.383-2.773,1.374-3.861,1.483
		c-0.012,0.002-0.021,0.002-0.033,0.004c-0.053,0.004-0.104,0.008-0.152,0.008c-0.906,0-1.641-0.737-1.641-1.644
		s0.734-1.643,1.641-1.643c0.051,0,0.104,0.004,0.158,0.008c0.006,0.002,0.014,0.002,0.021,0.004c1.1,0.105,3.121,1.098,3.867,1.48
		C13.579,16.919,13.579,17.093,13.456,17.153z"/>
</g>
<g id="Layer_1">
</g>
</svg>
