<?xml version="1.0" encoding="iso-8859-1"?>
<!-- Generator: Adobe Illustrator 16.0.0, SVG Export Plug-In . SVG Version: 6.00 Build 0)  -->
<!DOCTYPE svg PUBLIC "-//W3C//DTD SVG 1.1//EN" "http://www.w3.org/Graphics/SVG/1.1/DTD/svg11.dtd">
<svg version="1.1" xmlns="http://www.w3.org/2000/svg" xmlns:xlink="http://www.w3.org/1999/xlink" x="0px" y="0px"
	 width="43.219px" height="43.217px" viewBox="0 0 43.219 43.217" style="enable-background:new 0 0 43.219 43.217;"
	 xml:space="preserve">
<g id="NorthEastPawn">
	<path style="fill:#231F20;" d="M34.045,10.019c-0.289-0.289-0.725-0.375-1.101-0.212L9.736,19.765
		c-0.305,0.131-0.523,0.407-0.586,0.731c-0.064,0.326,0.039,0.662,0.274,0.896l13.247,13.247c0.234,0.236,0.571,0.34,0.897,0.275
		c0.324-0.063,0.6-0.281,0.73-0.588l9.959-23.206C34.42,10.744,34.335,10.309,34.045,10.019z M22.689,21.451
		c-0.259,0.799-0.99,2.932-1.682,3.78c-0.008,0.008-0.014,0.016-0.021,0.025c-0.035,0.039-0.068,0.078-0.104,0.113
		c-0.641,0.641-1.68,0.641-2.32,0c-0.642-0.643-0.642-1.682-0.001-2.322c0.036-0.037,0.075-0.073,0.118-0.106
		c0.004-0.005,0.01-0.01,0.017-0.015c0.852-0.703,2.982-1.431,3.782-1.687C22.609,21.197,22.732,21.32,22.689,21.451z"/>
</g>
<g id="Layer_1">
</g>
</svg>
