<?xml version="1.0" encoding="iso-8859-1"?>
<!-- Generator: Adobe Illustrator 16.0.0, SVG Export Plug-In . SVG Version: 6.00 Build 0)  -->
<!DOCTYPE svg PUBLIC "-//W3C//DTD SVG 1.1//EN" "http://www.w3.org/Graphics/SVG/1.1/DTD/svg11.dtd">
<svg version="1.1" xmlns="http://www.w3.org/2000/svg" xmlns:xlink="http://www.w3.org/1999/xlink" x="0px" y="0px"
	 width="43.219px" height="43.217px" viewBox="0 0 43.219 43.217" style="enable-background:new 0 0 43.219 43.217;"
	 xml:space="preserve">
<g id="NorthEastDrone">
	<path style="fill:#231F20;" d="M38.774,5.227c-0.295-0.294-0.74-0.375-1.119-0.204L5.508,19.521
		c-0.299,0.135-0.515,0.408-0.572,0.731c-0.061,0.325,0.044,0.654,0.275,0.886l17.646,17.646c0.232,0.231,0.561,0.336,0.887,0.275
		c0.322-0.058,0.596-0.273,0.731-0.571L38.978,6.345C39.148,5.966,39.068,5.521,38.774,5.227z M12.772,21.217
		c0.035-0.035,0.076-0.07,0.117-0.106c0.006-0.003,0.012-0.009,0.018-0.013c0.853-0.702,2.984-1.43,3.781-1.688
		c0.133-0.041,0.256,0.082,0.212,0.212c-0.259,0.8-0.989,2.933-1.682,3.779c-0.007,0.01-0.014,0.017-0.021,0.026
		c-0.035,0.039-0.068,0.078-0.102,0.113c-0.642,0.641-1.682,0.639-2.322-0.002C12.132,22.897,12.131,21.857,12.772,21.217z
		 M20.071,22.793c-0.258,0.801-0.989,2.933-1.682,3.779c-0.007,0.01-0.014,0.017-0.021,0.026c-0.034,0.04-0.067,0.079-0.103,0.112
		c-0.641,0.642-1.68,0.641-2.321-0.001c-0.641-0.641-0.642-1.681-0.001-2.321c0.035-0.035,0.076-0.07,0.119-0.105
		c0.004-0.004,0.01-0.01,0.016-0.014c0.852-0.703,2.983-1.431,3.781-1.688C19.991,22.539,20.116,22.664,20.071,22.793z"/>
</g>
<g id="Layer_1">
</g>
</svg>
