<?xml version="1.0" encoding="iso-8859-1"?>
<!-- Generator: Adobe Illustrator 16.0.0, SVG Export Plug-In . SVG Version: 6.00 Build 0)  -->
<!DOCTYPE svg PUBLIC "-//W3C//DTD SVG 1.1//EN" "http://www.w3.org/Graphics/SVG/1.1/DTD/svg11.dtd">
<svg version="1.1" xmlns="http://www.w3.org/2000/svg" xmlns:xlink="http://www.w3.org/1999/xlink" x="0px" y="0px"
	 width="43.219px" height="43.217px" viewBox="0 0 43.219 43.217" style="enable-background:new 0 0 43.219 43.217;"
	 xml:space="preserve">
<g id="EastPawn">
	<path style="fill:#231F20;" d="M33.706,21.512l-23.452-9.369c-0.309-0.123-0.658-0.084-0.932,0.102
		c-0.275,0.186-0.439,0.496-0.439,0.828v18.734c0,0.332,0.164,0.643,0.439,0.828c0.273,0.186,0.623,0.225,0.932,0.102l23.452-9.367
		c0.381-0.152,0.629-0.52,0.629-0.93C34.335,22.031,34.087,21.662,33.706,21.512z M18.221,22.494
		c-0.748,0.381-2.773,1.371-3.861,1.482c-0.012,0-0.021,0.002-0.033,0.002c-0.053,0.004-0.104,0.008-0.152,0.008
		c-0.906,0-1.641-0.734-1.641-1.641c0-0.908,0.734-1.643,1.641-1.643c0.051,0,0.104,0.002,0.158,0.008c0.006,0,0.014,0,0.021,0.002
		c1.1,0.105,3.121,1.098,3.867,1.482C18.344,22.258,18.344,22.432,18.221,22.494z"/>
</g>
<g id="Layer_1">
</g>
</svg>
