<?xml version="1.0" encoding="iso-8859-1"?>
<!-- Generator: Adobe Illustrator 16.0.0, SVG Export Plug-In . SVG Version: 6.00 Build 0)  -->
<!DOCTYPE svg PUBLIC "-//W3C//DTD SVG 1.1//EN" "http://www.w3.org/Graphics/SVG/1.1/DTD/svg11.dtd">
<svg version="1.1" xmlns="http://www.w3.org/2000/svg" xmlns:xlink="http://www.w3.org/1999/xlink" x="0px" y="0px"
	 width="43.219px" height="43.217px" viewBox="0 0 43.219 43.217" style="enable-background:new 0 0 43.219 43.217;"
	 xml:space="preserve">
<g id="EastQueen">
	<path style="fill:#231F20;" d="M41.578,21.516l-39.16-16.5C2.108,4.887,1.756,4.92,1.477,5.106S1.03,5.604,1.03,5.938v33
		c0,0.336,0.168,0.648,0.447,0.834s0.631,0.219,0.941,0.088l39.16-16.501c0.37-0.156,0.612-0.52,0.612-0.922
		S41.948,21.672,41.578,21.516z M10.37,22.143c-0.75,0.383-2.775,1.373-3.863,1.482c-0.01,0.002-0.021,0.002-0.033,0.004
		c-0.053,0.004-0.104,0.008-0.15,0.008c-0.908,0-1.643-0.736-1.643-1.643s0.734-1.643,1.643-1.643c0.049,0,0.102,0.004,0.156,0.008
		c0.006,0.002,0.016,0.002,0.021,0.002c1.1,0.107,3.121,1.1,3.869,1.482C10.491,21.906,10.491,22.082,10.37,22.143z M10.37,17.659
		c-0.75,0.383-2.775,1.373-3.863,1.482c-0.01,0.002-0.021,0.002-0.033,0.004c-0.053,0.004-0.104,0.008-0.15,0.008
		c-0.908,0-1.643-0.736-1.643-1.642s0.734-1.643,1.643-1.643c0.049,0,0.102,0.004,0.156,0.01c0.006,0,0.016,0,0.021,0.002
		c1.1,0.105,3.121,1.098,3.869,1.48C10.491,17.424,10.491,17.598,10.37,17.659z M10.37,13.174c-0.75,0.383-2.775,1.373-3.863,1.482
		c-0.01,0.002-0.021,0.002-0.033,0.004c-0.053,0.004-0.104,0.008-0.15,0.008c-0.908,0-1.643-0.734-1.643-1.643
		c0-0.906,0.734-1.641,1.643-1.641c0.049,0,0.102,0.002,0.156,0.008c0.006,0,0.016,0,0.021,0.002c1.1,0.105,3.121,1.098,3.869,1.48
		C10.491,12.938,10.491,13.114,10.37,13.174z"/>
</g>
<g id="Layer_1">
</g>
</svg>
