<?xml version="1.0" encoding="iso-8859-1"?>
<!-- Generator: Adobe Illustrator 16.0.0, SVG Export Plug-In . SVG Version: 6.00 Build 0)  -->
<!DOCTYPE svg PUBLIC "-//W3C//DTD SVG 1.1//EN" "http://www.w3.org/Graphics/SVG/1.1/DTD/svg11.dtd">
<svg version="1.1" xmlns="http://www.w3.org/2000/svg" xmlns:xlink="http://www.w3.org/1999/xlink" x="0px" y="0px"
	 width="43.219px" height="43.217px" viewBox="0 0 43.219 43.217" style="enable-background:new 0 0 43.219 43.217;"
	 xml:space="preserve">
<g id="TopDownDrone">
	<path style="fill:#231F20;" d="M34.318,8.965H8.904c-0.425,0-0.77,0.345-0.77,0.77v25.414c0,0.426,0.345,0.77,0.77,0.77h25.414
		c0.426,0,0.771-0.344,0.771-0.77V9.735C35.089,9.31,34.744,8.965,34.318,8.965z M17.649,31.542c0-0.006,0-0.016,0.002-0.021
		c0.105-1.1,1.098-3.121,1.48-3.869c0.063-0.121,0.238-0.121,0.299,0c0.383,0.75,1.373,2.775,1.482,3.863
		c0.002,0.01,0.002,0.021,0.004,0.033c0.004,0.053,0.008,0.104,0.008,0.15c0,0.908-0.734,1.643-1.643,1.643
		c-0.906,0-1.641-0.734-1.641-1.643C17.641,31.649,17.643,31.597,17.649,31.542z M23.768,33.341c-0.907,0-1.643-0.734-1.643-1.643
		c0-0.049,0.004-0.102,0.01-0.156c0-0.006,0-0.016,0.002-0.021c0.105-1.1,1.098-3.121,1.481-3.869c0.064-0.121,0.238-0.121,0.299,0
		c0.383,0.75,1.371,2.775,1.48,3.863c0.002,0.01,0.002,0.021,0.004,0.033c0.004,0.053,0.008,0.104,0.008,0.15
		C25.408,32.606,24.674,33.341,23.768,33.341z"/>
</g>
<g id="Layer_1">
</g>
</svg>
