<?xml version="1.0" encoding="iso-8859-1"?>
<!-- Generator: Adobe Illustrator 16.0.0, SVG Export Plug-In . SVG Version: 6.00 Build 0)  -->
<!DOCTYPE svg PUBLIC "-//W3C//DTD SVG 1.1//EN" "http://www.w3.org/Graphics/SVG/1.1/DTD/svg11.dtd">
<svg version="1.1" xmlns="http://www.w3.org/2000/svg" xmlns:xlink="http://www.w3.org/1999/xlink" x="0px" y="0px"
	 width="43.219px" height="43.217px" viewBox="0 0 43.219 43.217" style="enable-background:new 0 0 43.219 43.217;"
	 xml:space="preserve">
<g id="TopDownPawn">
	<path style="fill:#231F20;" d="M31.387,12.074H11.836c-0.328,0-0.593,0.265-0.593,0.592v19.551c0,0.328,0.265,0.593,0.593,0.593
		h19.551c0.328,0,0.593-0.265,0.593-0.593V12.667C31.979,12.339,31.715,12.074,31.387,12.074z M21.612,30.455
		c-0.906,0-1.643-0.734-1.643-1.643c0-0.049,0.004-0.102,0.01-0.156c0-0.006,0-0.016,0.002-0.021c0.105-1.1,1.098-3.121,1.48-3.869
		c0.064-0.121,0.238-0.121,0.299,0c0.383,0.75,1.372,2.775,1.481,3.863c0.002,0.01,0.002,0.021,0.004,0.033
		c0.004,0.053,0.008,0.104,0.008,0.15C23.253,29.721,22.518,30.455,21.612,30.455z"/>
</g>
<g id="Layer_1">
</g>
</svg>
