<?xml version="1.0" encoding="iso-8859-1"?>
<!-- Generator: Adobe Illustrator 16.0.0, SVG Export Plug-In . SVG Version: 6.00 Build 0)  -->
<!DOCTYPE svg PUBLIC "-//W3C//DTD SVG 1.1//EN" "http://www.w3.org/Graphics/SVG/1.1/DTD/svg11.dtd">
<svg version="1.1" xmlns="http://www.w3.org/2000/svg" xmlns:xlink="http://www.w3.org/1999/xlink" x="0px" y="0px"
	 width="43.219px" height="43.217px" viewBox="0 0 43.219 43.217" style="enable-background:new 0 0 43.219 43.217;"
	 xml:space="preserve">
<g id="SouthWestQueen">
	<path style="fill:#231F20;" d="M42.096,25.29L18.761,1.956c-0.238-0.238-0.578-0.34-0.906-0.273
		c-0.329,0.065-0.601,0.291-0.728,0.604L1.105,41.644c-0.151,0.371-0.065,0.799,0.219,1.084c0.285,0.285,0.713,0.371,1.085,0.219
		l39.356-16.023c0.311-0.127,0.537-0.4,0.602-0.729C42.436,25.866,42.332,25.526,42.096,25.29z M28.162,18.841
		c-0.035,0.035-0.074,0.069-0.117,0.105c-0.006,0.002-0.012,0.01-0.016,0.014c-0.854,0.701-2.984,1.43-3.785,1.688
		c-0.129,0.041-0.254-0.083-0.211-0.211c0.26-0.802,0.992-2.934,1.684-3.78c0.006-0.009,0.014-0.017,0.021-0.026
		c0.035-0.04,0.066-0.078,0.1-0.111c0.643-0.643,1.684-0.642,2.324,0C28.803,17.159,28.803,18.198,28.162,18.841z M28.889,19.827
		c0.004-0.008,0.014-0.017,0.02-0.026c0.035-0.04,0.068-0.079,0.102-0.112c0.643-0.642,1.682-0.641,2.322,0s0.643,1.682,0,2.323
		c-0.035,0.034-0.074,0.069-0.117,0.104c-0.004,0.005-0.012,0.011-0.016,0.014c-0.854,0.703-2.984,1.431-3.783,1.688
		c-0.133,0.041-0.254-0.082-0.213-0.211C27.465,22.806,28.195,20.673,28.889,19.827z M34.502,25.181
		c-0.035,0.035-0.074,0.07-0.115,0.105c-0.006,0.004-0.012,0.012-0.018,0.014c-0.852,0.703-2.982,1.43-3.783,1.689
		c-0.129,0.041-0.254-0.084-0.211-0.211c0.26-0.803,0.992-2.934,1.684-3.781c0.006-0.008,0.014-0.016,0.021-0.025
		c0.033-0.041,0.066-0.079,0.1-0.112c0.643-0.642,1.682-0.642,2.324,0C35.145,23.501,35.145,24.538,34.502,25.181z"/>
</g>
<g id="Layer_1">
</g>
</svg>
