<?xml version="1.0" encoding="iso-8859-1"?>
<!-- Generator: Adobe Illustrator 16.0.0, SVG Export Plug-In . SVG Version: 6.00 Build 0)  -->
<!DOCTYPE svg PUBLIC "-//W3C//DTD SVG 1.1//EN" "http://www.w3.org/Graphics/SVG/1.1/DTD/svg11.dtd">
<svg version="1.1" xmlns="http://www.w3.org/2000/svg" xmlns:xlink="http://www.w3.org/1999/xlink" x="0px" y="0px"
	 width="43.219px" height="43.217px" viewBox="0 0 43.219 43.217" style="enable-background:new 0 0 43.219 43.217;"
	 xml:space="preserve">
<g id="TopDownPawnOnQueen">
	<g>
		<path style="fill:#231F20;" d="M30.715,13.087h-18.25c-0.125,0-0.228,0.102-0.228,0.228v18.25c0,0.125,0.102,0.228,0.228,0.228
			h18.25c0.125,0,0.228-0.103,0.228-0.228v-18.25C30.942,13.189,30.84,13.087,30.715,13.087z M22.441,30.019
			c-0.253,0.16-0.551,0.256-0.872,0.256c-0.432,0-0.822-0.17-1.115-0.443c-0.322-0.3-0.527-0.724-0.527-1.199
			c0-0.013,0.002-0.027,0.003-0.04c0.001-0.038,0.003-0.076,0.007-0.116c0-0.006,0-0.016,0.002-0.021
			c0.105-1.1,1.098-3.121,1.48-3.869c0.064-0.121,0.238-0.121,0.299,0c0.366,0.717,1.277,2.592,1.454,3.707
			c0.008,0.051,0.022,0.108,0.027,0.156c0.002,0.01,0.002,0.021,0.004,0.033c0.004,0.053,0.008,0.104,0.008,0.15
			C23.21,29.218,22.901,29.729,22.441,30.019z"/>
		<path style="fill:#231F20;" d="M38.091,4.939H11.157H5.089c-0.552,0-1,0.448-1,1v6.203v26.797c0,0.553,0.448,1,1,1h6.068h26.934
			c0.553,0,1-0.447,1-1V12.143V5.939C39.091,5.387,38.644,4.939,38.091,4.939z M32.942,31.564c0,1.229-0.999,2.228-2.228,2.228
			h-18.25c-1.228,0-2.228-0.999-2.228-2.228v-18.25c0-1.228,1-2.228,2.228-2.228h18.25c1.229,0,2.228,1,2.228,2.228V31.564z"/>
	</g>
</g>
<g id="Layer_1">
</g>
</svg>
