<?xml version="1.0" encoding="iso-8859-1"?>
<!-- Generator: Adobe Illustrator 16.0.0, SVG Export Plug-In . SVG Version: 6.00 Build 0)  -->
<!DOCTYPE svg PUBLIC "-//W3C//DTD SVG 1.1//EN" "http://www.w3.org/Graphics/SVG/1.1/DTD/svg11.dtd">
<svg version="1.1" xmlns="http://www.w3.org/2000/svg" xmlns:xlink="http://www.w3.org/1999/xlink" x="0px" y="0px"
	 width="43.219px" height="43.217px" viewBox="0 0 43.219 43.217" style="enable-background:new 0 0 43.219 43.217;"
	 xml:space="preserve">
<g id="NorthWestDrone">
	<path style="fill:#231F20;" d="M38.245,20.27c-0.057-0.322-0.273-0.597-0.57-0.732L5.529,5.036c-0.38-0.17-0.824-0.089-1.118,0.205
		S4.035,5.98,4.207,6.359l14.499,32.146c0.135,0.299,0.408,0.514,0.732,0.572s0.654-0.045,0.887-0.277L37.97,21.157
		C38.202,20.924,38.306,20.594,38.245,20.27z M18.807,27.113c0.799,0.26,2.932,0.99,3.777,1.682c0.01,0.008,0.018,0.014,0.027,0.021
		c0.041,0.033,0.078,0.066,0.113,0.102c0.641,0.641,0.639,1.682-0.002,2.322c-0.641,0.641-1.682,0.643-2.322,0.002
		c-0.035-0.037-0.07-0.076-0.105-0.117c-0.004-0.006-0.008-0.012-0.014-0.018c-0.703-0.854-1.43-2.984-1.688-3.781
		C18.553,27.191,18.676,27.07,18.807,27.113z M25.896,28.068c-0.641,0.641-1.682,0.643-2.322,0.002
		c-0.035-0.037-0.07-0.076-0.105-0.119c-0.004-0.004-0.01-0.01-0.014-0.016c-0.704-0.854-1.43-2.984-1.688-3.781
		c-0.043-0.133,0.082-0.256,0.213-0.213c0.799,0.26,2.932,0.99,3.778,1.684c0.01,0.006,0.016,0.014,0.025,0.02
		c0.041,0.035,0.08,0.068,0.113,0.104C26.536,26.389,26.536,27.428,25.896,28.068z"/>
</g>
<g id="Layer_1">
</g>
</svg>
