<?xml version="1.0" encoding="iso-8859-1"?>
<!-- Generator: Adobe Illustrator 16.0.0, SVG Export Plug-In . SVG Version: 6.00 Build 0)  -->
<!DOCTYPE svg PUBLIC "-//W3C//DTD SVG 1.1//EN" "http://www.w3.org/Graphics/SVG/1.1/DTD/svg11.dtd">
<svg version="1.1" xmlns="http://www.w3.org/2000/svg" xmlns:xlink="http://www.w3.org/1999/xlink" x="0px" y="0px"
	 width="43.219px" height="43.217px" viewBox="0 0 43.219 43.217" style="enable-background:new 0 0 43.219 43.217;"
	 xml:space="preserve">
<g id="SouthEastQueen">
	<path style="fill:#231F20;" d="M42.115,41.641L26.092,2.284c-0.127-0.311-0.4-0.536-0.729-0.602
		c-0.328-0.067-0.668,0.035-0.904,0.271L1.125,25.288c-0.238,0.238-0.34,0.578-0.273,0.906c0.065,0.329,0.291,0.602,0.604,0.729
		l39.358,16.021c0.371,0.151,0.799,0.065,1.084-0.219C42.182,42.44,42.268,42.013,42.115,41.641z M21.297,12.852
		c0.703,0.853,1.431,2.983,1.688,3.783c0.042,0.132-0.082,0.254-0.211,0.212c-0.801-0.261-2.934-0.992-3.779-1.685
		c-0.008-0.005-0.017-0.014-0.026-0.021c-0.04-0.035-0.079-0.068-0.112-0.102c-0.642-0.642-0.641-1.682,0-2.322s1.682-0.643,2.323,0
		c0.034,0.035,0.069,0.074,0.104,0.117C21.289,12.839,21.294,12.847,21.297,12.852z M15.687,15.888
		c0.641-0.641,1.68-0.641,2.322,0.001c0.035,0.034,0.069,0.074,0.105,0.116c0.002,0.006,0.01,0.012,0.014,0.016
		c0.701,0.854,1.43,2.984,1.688,3.785c0.041,0.129-0.083,0.254-0.211,0.211c-0.802-0.26-2.934-0.992-3.78-1.684
		c-0.009-0.006-0.017-0.014-0.026-0.021c-0.04-0.035-0.078-0.067-0.111-0.101C15.044,17.569,15.045,16.529,15.687,15.888z
		 M25.947,13.675c-0.803-0.26-2.934-0.992-3.782-1.684c-0.008-0.006-0.016-0.014-0.025-0.021c-0.041-0.034-0.079-0.067-0.112-0.101
		c-0.642-0.643-0.642-1.682,0-2.323s1.679-0.641,2.322,0.001c0.035,0.035,0.07,0.074,0.105,0.116
		c0.004,0.005,0.012,0.011,0.014,0.017c0.703,0.853,1.43,2.983,1.689,3.783C26.199,13.594,26.074,13.718,25.947,13.675z"/>
</g>
<g id="Layer_1">
</g>
</svg>
