<?xml version="1.0" encoding="iso-8859-1"?>
<!-- Generator: Adobe Illustrator 16.0.0, SVG Export Plug-In . SVG Version: 6.00 Build 0)  -->
<!DOCTYPE svg PUBLIC "-//W3C//DTD SVG 1.1//EN" "http://www.w3.org/Graphics/SVG/1.1/DTD/svg11.dtd">
<svg version="1.1" xmlns="http://www.w3.org/2000/svg" xmlns:xlink="http://www.w3.org/1999/xlink" x="0px" y="0px"
	 width="43.219px" height="43.217px" viewBox="0 0 43.219 43.217" style="enable-background:new 0 0 43.219 43.217;"
	 xml:space="preserve">
<g id="TopDownTree">
	<g>
		<path style="fill:#231F20;" d="M30.736,13.09h-18.25c-0.125,0-0.228,0.102-0.228,0.228v18.25c0,0.125,0.102,0.228,0.228,0.228
			h18.25c0.125,0,0.228-0.103,0.228-0.228v-18.25C30.964,13.192,30.861,13.09,30.736,13.09z M22.462,30.021
			c-0.253,0.16-0.551,0.256-0.872,0.256c-0.432,0-0.822-0.17-1.115-0.443c-0.322-0.3-0.527-0.724-0.527-1.199
			c0-0.013,0.002-0.027,0.003-0.04c0.001-0.038,0.003-0.076,0.007-0.116c0-0.006,0-0.016,0.002-0.021
			c0.105-1.1,1.098-3.121,1.48-3.869c0.064-0.121,0.238-0.121,0.299,0c0.366,0.717,1.278,2.592,1.454,3.707
			c0.008,0.051,0.022,0.108,0.027,0.156c0.002,0.01,0.002,0.021,0.004,0.033c0.004,0.053,0.008,0.104,0.008,0.15
			C23.231,29.221,22.922,29.731,22.462,30.021z"/>
		<path style="fill:#231F20;" d="M38.112,4.942H11.178H5.11c-0.552,0-1,0.448-1,1v6.203v26.797c0,0.553,0.448,1,1,1h6.068h26.934
			c0.553,0,1-0.447,1-1V12.146V5.942C39.112,5.39,38.665,4.942,38.112,4.942z M37.243,35.337c0,1.51-1.228,2.737-2.736,2.737H8.691
			c-1.509,0-2.736-1.228-2.736-2.737V9.522c0-1.509,1.228-2.736,2.736-2.736h25.815c1.509,0,2.736,1.228,2.736,2.736V35.337z"/>
		<path style="fill:#231F20;" d="M34.507,8.786H8.691c-0.406,0-0.736,0.331-0.736,0.736v25.815c0,0.406,0.331,0.737,0.736,0.737
			h25.815c0.406,0,0.736-0.331,0.736-0.737V9.522C35.243,9.116,34.913,8.786,34.507,8.786z M32.964,31.567
			c0,1.229-0.999,2.228-2.228,2.228h-18.25c-1.228,0-2.228-0.999-2.228-2.228v-18.25c0-1.228,1-2.228,2.228-2.228h18.25
			c1.229,0,2.228,1,2.228,2.228V31.567z"/>
	</g>
</g>
<g id="Layer_1">
</g>
</svg>
