<?xml version="1.0" encoding="iso-8859-1"?>
<!-- Generator: Adobe Illustrator 16.0.0, SVG Export Plug-In . SVG Version: 6.00 Build 0)  -->
<!DOCTYPE svg PUBLIC "-//W3C//DTD SVG 1.1//EN" "http://www.w3.org/Graphics/SVG/1.1/DTD/svg11.dtd">
<svg version="1.1" xmlns="http://www.w3.org/2000/svg" xmlns:xlink="http://www.w3.org/1999/xlink" x="0px" y="0px"
	 width="43.219px" height="43.217px" viewBox="0 0 43.219 43.217" style="enable-background:new 0 0 43.219 43.217;"
	 xml:space="preserve">
<g id="SoutheastPawn">
	<path style="fill:#231F20;" d="M34.257,33.775l-9.958-23.208c-0.131-0.305-0.406-0.525-0.73-0.587
		c-0.326-0.063-0.663,0.04-0.897,0.274L9.424,23.502c-0.235,0.234-0.339,0.57-0.274,0.896c0.063,0.324,0.281,0.6,0.586,0.73
		l23.208,9.96c0.377,0.161,0.813,0.077,1.103-0.213C34.334,34.588,34.419,34.15,34.257,33.775z M18.696,19.394
		c0.642-0.642,1.681-0.642,2.321-0.001c0.035,0.036,0.071,0.075,0.106,0.118c0.004,0.004,0.009,0.009,0.014,0.017
		c0.702,0.852,1.431,2.982,1.687,3.782c0.043,0.131-0.08,0.254-0.211,0.211c-0.799-0.259-2.932-0.991-3.779-1.682
		c-0.008-0.008-0.017-0.014-0.025-0.022c-0.039-0.034-0.078-0.068-0.113-0.103C18.054,21.073,18.054,20.035,18.696,19.394z"/>
</g>
<g id="Layer_1">
</g>
</svg>
