<?xml version="1.0" encoding="iso-8859-1"?>
<!-- Generator: Adobe Illustrator 16.0.0, SVG Export Plug-In . SVG Version: 6.00 Build 0)  -->
<!DOCTYPE svg PUBLIC "-//W3C//DTD SVG 1.1//EN" "http://www.w3.org/Graphics/SVG/1.1/DTD/svg11.dtd">
<svg version="1.1" xmlns="http://www.w3.org/2000/svg" xmlns:xlink="http://www.w3.org/1999/xlink" x="0px" y="0px"
	 width="43.219px" height="43.217px" viewBox="0 0 43.219 43.217" style="enable-background:new 0 0 43.219 43.217;"
	 xml:space="preserve">
<g id="NorthQueen">
	<path style="fill:#231F20;" d="M39.031,41.631L22.53,2.472c-0.156-0.371-0.52-0.612-0.922-0.612s-0.766,0.241-0.922,0.612
		l-16.5,39.159c-0.129,0.311-0.096,0.662,0.09,0.941s0.498,0.447,0.832,0.447h33.001c0.336,0,0.648-0.168,0.834-0.447
		S39.162,41.941,39.031,41.631z M18.323,37.727c0,0.908-0.736,1.643-1.642,1.643s-1.643-0.734-1.643-1.643
		c0-0.049,0.004-0.102,0.01-0.156c0-0.006,0-0.016,0.002-0.021c0.105-1.1,1.098-3.121,1.48-3.869c0.064-0.121,0.238-0.121,0.299,0
		c0.383,0.75,1.373,2.775,1.482,3.863c0.002,0.01,0.002,0.021,0.004,0.033C18.319,37.629,18.323,37.68,18.323,37.727z M10.563,37.57
		c0-0.006,0-0.016,0.002-0.021c0.105-1.1,1.098-3.121,1.48-3.869c0.063-0.121,0.238-0.121,0.299,0
		c0.383,0.75,1.373,2.775,1.482,3.863c0.002,0.01,0.002,0.021,0.004,0.033c0.004,0.053,0.008,0.104,0.008,0.15
		c0,0.908-0.734,1.643-1.643,1.643c-0.906,0-1.641-0.734-1.641-1.643C10.556,37.678,10.558,37.625,10.563,37.57z M21.165,39.369
		c-0.906,0-1.643-0.734-1.643-1.643c0-0.049,0.004-0.102,0.008-0.156c0.002-0.006,0.002-0.016,0.002-0.021
		c0.107-1.1,1.1-3.121,1.482-3.869c0.063-0.121,0.238-0.121,0.299,0c0.383,0.75,1.373,2.775,1.482,3.863
		c0.002,0.01,0.002,0.021,0.004,0.033c0.004,0.053,0.008,0.104,0.008,0.15C22.807,38.635,22.071,39.369,21.165,39.369z"/>
</g>
<g id="Layer_1">
</g>
</svg>
