<?xml version="1.0" encoding="iso-8859-1"?>
<!-- Generator: Adobe Illustrator 16.0.0, SVG Export Plug-In . SVG Version: 6.00 Build 0)  -->
<!DOCTYPE svg PUBLIC "-//W3C//DTD SVG 1.1//EN" "http://www.w3.org/Graphics/SVG/1.1/DTD/svg11.dtd">
<svg version="1.1" xmlns="http://www.w3.org/2000/svg" xmlns:xlink="http://www.w3.org/1999/xlink" x="0px" y="0px"
	 width="43.219px" height="43.217px" viewBox="0 0 43.219 43.217" style="enable-background:new 0 0 43.219 43.217;"
	 xml:space="preserve">
<g id="SouthWestPawn">
	<path style="fill:#231F20;" d="M33.794,23.487L20.546,10.24c-0.234-0.235-0.57-0.338-0.896-0.275
		c-0.324,0.062-0.599,0.282-0.73,0.587L8.96,33.759c-0.16,0.376-0.078,0.812,0.213,1.103c0.288,0.288,0.726,0.373,1.101,0.211
		l23.208-9.958c0.305-0.132,0.524-0.406,0.587-0.73C34.133,24.058,34.029,23.723,33.794,23.487z M24.657,21.833
		c-0.036,0.036-0.075,0.072-0.118,0.106c-0.004,0.004-0.01,0.01-0.016,0.014c-0.852,0.703-2.984,1.431-3.784,1.686
		c-0.131,0.043-0.254-0.079-0.211-0.211c0.26-0.798,0.992-2.93,1.682-3.778c0.008-0.008,0.014-0.017,0.022-0.025
		c0.034-0.04,0.067-0.078,0.103-0.113c0.641-0.641,1.68-0.641,2.321,0C25.298,20.153,25.299,21.192,24.657,21.833z"/>
</g>
<g id="Layer_1">
</g>
</svg>
