<?xml version="1.0" encoding="iso-8859-1"?>
<!-- Generator: Adobe Illustrator 16.0.0, SVG Export Plug-In . SVG Version: 6.00 Build 0)  -->
<!DOCTYPE svg PUBLIC "-//W3C//DTD SVG 1.1//EN" "http://www.w3.org/Graphics/SVG/1.1/DTD/svg11.dtd">
<svg version="1.1" xmlns="http://www.w3.org/2000/svg" xmlns:xlink="http://www.w3.org/1999/xlink" x="0px" y="0px"
	 width="43.219px" height="43.217px" viewBox="0 0 43.219 43.217" style="enable-background:new 0 0 43.219 43.217;"
	 xml:space="preserve">
<g id="WestQueen">
	<path style="fill:#231F20;" d="M41.743,5.106c-0.279-0.186-0.631-0.219-0.941-0.088L1.642,21.52
		c-0.371,0.156-0.612,0.52-0.612,0.922s0.241,0.766,0.612,0.922l39.16,16.5c0.311,0.129,0.662,0.096,0.941-0.09
		s0.447-0.498,0.447-0.832V5.94C42.19,5.604,42.022,5.292,41.743,5.106z M32.851,31.705c0.75-0.383,2.775-1.373,3.863-1.482
		c0.01-0.002,0.021-0.002,0.033-0.004c0.053-0.004,0.104-0.008,0.15-0.008c0.908,0,1.643,0.734,1.643,1.643
		c0,0.906-0.734,1.641-1.643,1.641c-0.049,0-0.102-0.002-0.156-0.008c-0.006,0-0.016,0-0.021-0.002
		c-1.1-0.105-3.121-1.098-3.869-1.48C32.729,31.941,32.729,31.766,32.851,31.705z M32.851,27.221
		c0.75-0.383,2.775-1.373,3.863-1.482c0.01-0.002,0.021-0.002,0.033-0.004c0.053-0.004,0.104-0.008,0.15-0.008
		c0.908,0,1.643,0.736,1.643,1.643s-0.734,1.643-1.643,1.643c-0.049,0-0.102-0.004-0.156-0.01c-0.006,0-0.016,0-0.021-0.002
		c-1.1-0.105-3.121-1.098-3.869-1.48C32.729,27.455,32.729,27.281,32.851,27.221z M36.897,24.527c-0.049,0-0.102-0.004-0.156-0.008
		c-0.006-0.002-0.016-0.002-0.021-0.002c-1.1-0.107-3.121-1.1-3.869-1.482c-0.121-0.063-0.121-0.238,0-0.299
		c0.75-0.383,2.775-1.373,3.863-1.482c0.01-0.002,0.021-0.002,0.033-0.004c0.053-0.004,0.104-0.008,0.15-0.008
		c0.908,0,1.643,0.736,1.643,1.643S37.806,24.527,36.897,24.527z"/>
</g>
<g id="Layer_1">
</g>
</svg>
