<?xml version="1.0" encoding="iso-8859-1"?>
<!-- Generator: Adobe Illustrator 16.0.0, SVG Export Plug-In . SVG Version: 6.00 Build 0)  -->
<!DOCTYPE svg PUBLIC "-//W3C//DTD SVG 1.1//EN" "http://www.w3.org/Graphics/SVG/1.1/DTD/svg11.dtd">
<svg version="1.1" xmlns="http://www.w3.org/2000/svg" xmlns:xlink="http://www.w3.org/1999/xlink" x="0px" y="0px"
	 width="43.219px" height="43.217px" viewBox="0 0 43.219 43.217" style="enable-background:new 0 0 43.219 43.217;"
	 xml:space="preserve">
<g id="NorthPawn">
	<path style="fill:#231F20;" d="M31.906,33.795l-9.368-23.452c-0.152-0.38-0.52-0.629-0.93-0.629c-0.408,0-0.777,0.249-0.928,0.629
		l-9.369,23.452c-0.123,0.309-0.084,0.658,0.102,0.932c0.186,0.275,0.496,0.439,0.828,0.439h18.735c0.332,0,0.643-0.164,0.828-0.439
		C31.99,34.453,32.029,34.104,31.906,33.795z M21.515,31.516c-0.908,0-1.643-0.734-1.643-1.641c0-0.051,0.002-0.104,0.008-0.158
		c0-0.006,0-0.014,0.002-0.021c0.105-1.1,1.098-3.121,1.482-3.867c0.063-0.123,0.236-0.123,0.299,0
		c0.381,0.748,1.372,2.773,1.483,3.861c0,0.012,0.002,0.021,0.002,0.033c0.004,0.053,0.008,0.104,0.008,0.152
		C23.156,30.781,22.421,31.516,21.515,31.516z"/>
</g>
<g id="Layer_1">
</g>
</svg>
