<?xml version="1.0" encoding="iso-8859-1"?>
<!-- Generator: Adobe Illustrator 16.0.0, SVG Export Plug-In . SVG Version: 6.00 Build 0)  -->
<!DOCTYPE svg PUBLIC "-//W3C//DTD SVG 1.1//EN" "http://www.w3.org/Graphics/SVG/1.1/DTD/svg11.dtd">
<svg version="1.1" xmlns="http://www.w3.org/2000/svg" xmlns:xlink="http://www.w3.org/1999/xlink" x="0px" y="0px"
	 width="43.219px" height="43.217px" viewBox="0 0 43.219 43.217" style="enable-background:new 0 0 43.219 43.217;"
	 xml:space="preserve">
<g id="TopDownDroneOnQueen">
	<g>
		<path style="fill:#231F20;" d="M34.52,8.795H8.704c-0.406,0-0.736,0.331-0.736,0.736v25.815c0,0.406,0.331,0.737,0.736,0.737
			H34.52c0.406,0,0.736-0.331,0.736-0.737V9.532C35.256,9.126,34.926,8.795,34.52,8.795z M19.948,32.885
			c0,0.586-0.309,1.097-0.768,1.387c-0.254,0.16-0.551,0.256-0.873,0.256c-0.432,0-0.822-0.17-1.115-0.443
			c-0.322-0.3-0.527-0.724-0.527-1.199c0-0.003,0-0.007,0-0.01c0.001-0.01,0.002-0.021,0.002-0.03
			c0.001-0.038,0.003-0.076,0.007-0.116c0-0.006,0-0.016,0.002-0.021c0.047-0.492,0.274-1.168,0.542-1.832
			c0.331-0.82,0.726-1.624,0.938-2.037c0.064-0.121,0.238-0.121,0.299,0c0.213,0.415,0.604,1.218,0.934,2.037
			c0.239,0.596,0.445,1.2,0.52,1.67c0.008,0.051,0.023,0.108,0.027,0.156c0.002,0.01,0.002,0.021,0.004,0.033
			c0.004,0.049,0.007,0.097,0.008,0.141C19.948,32.878,19.948,32.882,19.948,32.885z M26.515,32.885
			c0,0.586-0.309,1.097-0.769,1.387c-0.253,0.16-0.551,0.256-0.872,0.256c-0.432,0-0.822-0.17-1.115-0.443
			c-0.322-0.3-0.527-0.724-0.527-1.199c0-0.003,0.001-0.007,0.001-0.01c0-0.01,0.001-0.021,0.002-0.03
			c0.001-0.038,0.003-0.076,0.007-0.116c0-0.006,0-0.016,0.002-0.021c0.047-0.492,0.274-1.168,0.543-1.832
			c0.331-0.82,0.726-1.624,0.938-2.037c0.064-0.121,0.238-0.121,0.299,0c0.212,0.415,0.604,1.218,0.934,2.037
			c0.239,0.596,0.445,1.2,0.52,1.67c0.008,0.051,0.022,0.108,0.027,0.156c0.002,0.01,0.002,0.021,0.004,0.033
			c0.004,0.049,0.007,0.097,0.008,0.141C26.515,32.878,26.515,32.882,26.515,32.885z"/>
		<path style="fill:#231F20;" d="M38.112,4.942H11.178H5.11c-0.552,0-1,0.448-1,1v6.203v26.797c0,0.553,0.448,1,1,1h6.068h26.934
			c0.553,0,1-0.447,1-1V12.146V5.942C39.112,5.39,38.665,4.942,38.112,4.942z M37.256,35.347c0,1.51-1.228,2.737-2.736,2.737H8.704
			c-1.509,0-2.736-1.228-2.736-2.737V9.532c0-1.509,1.228-2.736,2.736-2.736H34.52c1.509,0,2.736,1.228,2.736,2.736V35.347z"/>
	</g>
</g>
<g id="Layer_1">
</g>
</svg>
