<?xml version="1.0" encoding="iso-8859-1"?>
<!-- Generator: Adobe Illustrator 16.0.0, SVG Export Plug-In . SVG Version: 6.00 Build 0)  -->
<!DOCTYPE svg PUBLIC "-//W3C//DTD SVG 1.1//EN" "http://www.w3.org/Graphics/SVG/1.1/DTD/svg11.dtd">
<svg version="1.1" xmlns="http://www.w3.org/2000/svg" xmlns:xlink="http://www.w3.org/1999/xlink" x="0px" y="0px"
	 width="43.219px" height="43.217px" viewBox="0 0 43.219 43.217" style="enable-background:new 0 0 43.219 43.217;"
	 xml:space="preserve">
<g id="TopDownQueen">
	<path style="fill:#231F20;" d="M38.112,4.942H5.11c-0.552,0-1,0.447-1,1v33c0,0.553,0.448,1,1,1h33.002c0.553,0,1-0.447,1-1v-33
		C39.112,5.39,38.665,4.942,38.112,4.942z M21.461,31.583c0.064-0.121,0.238-0.121,0.299,0c0.383,0.75,1.372,2.775,1.481,3.863
		c0.002,0.01,0.002,0.021,0.004,0.033c0.004,0.053,0.008,0.104,0.008,0.15c0,0.908-0.735,1.643-1.641,1.643
		s-1.643-0.734-1.643-1.643c0-0.049,0.004-0.102,0.01-0.156c0-0.006,0-0.016,0.002-0.021C20.086,34.353,21.079,32.331,21.461,31.583
		z M15.494,35.474c0-0.006,0-0.016,0.002-0.021c0.105-1.1,1.098-3.121,1.48-3.869c0.063-0.121,0.239-0.121,0.299,0
		c0.383,0.75,1.374,2.775,1.483,3.863c0.002,0.01,0.002,0.021,0.004,0.033c0.004,0.053,0.008,0.104,0.008,0.15
		c0,0.908-0.734,1.643-1.643,1.643c-0.907,0-1.641-0.734-1.641-1.643C15.486,35.581,15.488,35.528,15.494,35.474z M26.095,37.272
		c-0.906,0-1.643-0.734-1.643-1.643c0-0.049,0.004-0.102,0.008-0.156c0.002-0.006,0.002-0.016,0.002-0.021
		c0.107-1.1,1.1-3.121,1.482-3.869c0.063-0.121,0.238-0.121,0.299,0c0.383,0.75,1.373,2.775,1.482,3.863
		c0.002,0.01,0.002,0.021,0.004,0.033c0.004,0.053,0.008,0.104,0.008,0.15C27.737,36.538,27.001,37.272,26.095,37.272z"/>
</g>
<g id="Layer_1">
</g>
</svg>
