<?xml version="1.0" encoding="iso-8859-1"?>
<!-- Generator: Adobe Illustrator 16.0.0, SVG Export Plug-In . SVG Version: 6.00 Build 0)  -->
<!DOCTYPE svg PUBLIC "-//W3C//DTD SVG 1.1//EN" "http://www.w3.org/Graphics/SVG/1.1/DTD/svg11.dtd">
<svg version="1.1" xmlns="http://www.w3.org/2000/svg" xmlns:xlink="http://www.w3.org/1999/xlink" x="0px" y="0px"
	 width="43.219px" height="43.217px" viewBox="0 0 43.219 43.217" style="enable-background:new 0 0 43.219 43.217;"
	 xml:space="preserve">
<g id="SouthQueen">
	<path style="fill:#231F20;" d="M38.944,2.307c-0.186-0.279-0.498-0.447-0.832-0.447H5.111c-0.336,0-0.648,0.168-0.834,0.447
		S4.058,2.938,4.189,3.248L20.69,42.407c0.156,0.37,0.52,0.612,0.922,0.612s0.766-0.242,0.922-0.612l16.5-39.159
		C39.163,2.938,39.13,2.586,38.944,2.307z M20.42,7.303c-0.004-0.053-0.008-0.104-0.008-0.15c0-0.908,0.736-1.643,1.643-1.643
		s1.643,0.734,1.643,1.643c0,0.049-0.004,0.102-0.008,0.156c-0.002,0.006-0.002,0.016-0.002,0.021c-0.107,1.1-1.1,3.121-1.483,3.869
		c-0.063,0.121-0.238,0.121-0.299,0c-0.383-0.75-1.373-2.775-1.482-3.863C20.422,7.326,20.422,7.314,20.42,7.303z M24.897,7.152
		c0-0.908,0.736-1.643,1.643-1.643s1.643,0.734,1.643,1.643c0,0.049-0.004,0.102-0.01,0.156c0,0.006,0,0.016-0.002,0.021
		c-0.105,1.1-1.098,3.121-1.48,3.869c-0.064,0.121-0.238,0.121-0.299,0c-0.383-0.75-1.373-2.775-1.482-3.863
		c-0.002-0.01-0.002-0.021-0.004-0.033C24.901,7.25,24.897,7.199,24.897,7.152z M32.657,7.309c0,0.006,0,0.016-0.002,0.021
		c-0.105,1.1-1.098,3.121-1.48,3.869c-0.063,0.121-0.238,0.121-0.299,0c-0.383-0.75-1.373-2.775-1.482-3.863
		c-0.002-0.01-0.002-0.021-0.004-0.033c-0.004-0.053-0.008-0.104-0.008-0.15c0-0.908,0.734-1.643,1.643-1.643
		c0.906,0,1.641,0.734,1.641,1.643C32.665,7.201,32.663,7.254,32.657,7.309z"/>
</g>
<g id="Layer_1">
</g>
</svg>
