<?xml version="1.0" encoding="iso-8859-1"?>
<!-- Generator: Adobe Illustrator 16.0.0, SVG Export Plug-In . SVG Version: 6.00 Build 0)  -->
<!DOCTYPE svg PUBLIC "-//W3C//DTD SVG 1.1//EN" "http://www.w3.org/Graphics/SVG/1.1/DTD/svg11.dtd">
<svg version="1.1" xmlns="http://www.w3.org/2000/svg" xmlns:xlink="http://www.w3.org/1999/xlink" x="0px" y="0px"
	 width="43.219px" height="43.217px" viewBox="0 0 43.219 43.217" style="enable-background:new 0 0 43.219 43.217;"
	 xml:space="preserve">
<g id="SouthEastDrone">
	<path style="fill:#231F20;" d="M39.007,38.507L24.509,6.36c-0.136-0.298-0.409-0.514-0.732-0.572
		c-0.324-0.06-0.654,0.044-0.887,0.276L5.245,23.71c-0.232,0.231-0.336,0.562-0.277,0.887c0.059,0.322,0.274,0.596,0.572,0.731
		l32.145,14.501c0.38,0.171,0.824,0.09,1.117-0.203C39.097,39.331,39.179,38.886,39.007,38.507z M17.319,16.797
		c0.641-0.641,1.682-0.642,2.322-0.001c0.035,0.036,0.07,0.076,0.104,0.119c0.005,0.004,0.01,0.01,0.015,0.016
		c0.703,0.853,1.431,2.983,1.688,3.782c0.042,0.131-0.082,0.255-0.212,0.211c-0.8-0.258-2.933-0.99-3.778-1.682
		c-0.01-0.007-0.018-0.014-0.027-0.021c-0.039-0.035-0.078-0.068-0.113-0.103C16.676,18.478,16.678,17.438,17.319,16.797z
		 M24.407,17.752c-0.799-0.259-2.932-0.99-3.78-1.682c-0.01-0.007-0.016-0.014-0.025-0.021c-0.041-0.035-0.079-0.068-0.113-0.103
		c-0.641-0.641-0.639-1.682,0.002-2.322c0.641-0.641,1.681-0.642,2.321-0.001c0.036,0.036,0.07,0.076,0.106,0.117
		c0.003,0.006,0.008,0.011,0.012,0.018c0.704,0.853,1.432,2.983,1.689,3.782C24.661,17.673,24.538,17.796,24.407,17.752z"/>
</g>
<g id="Layer_1">
</g>
</svg>
