<?xml version="1.0" encoding="iso-8859-1"?>
<!-- Generator: Adobe Illustrator 16.0.0, SVG Export Plug-In . SVG Version: 6.00 Build 0)  -->
<!DOCTYPE svg PUBLIC "-//W3C//DTD SVG 1.1//EN" "http://www.w3.org/Graphics/SVG/1.1/DTD/svg11.dtd">
<svg version="1.1" xmlns="http://www.w3.org/2000/svg" xmlns:xlink="http://www.w3.org/1999/xlink" x="0px" y="0px"
	 width="43.219px" height="43.217px" viewBox="0 0 43.219 43.217" style="enable-background:new 0 0 43.219 43.217;"
	 xml:space="preserve">
<g id="NorthWestPawn">
	<path style="fill:#231F20;" d="M34.084,20.496c-0.061-0.324-0.281-0.599-0.586-0.73L10.291,9.807
		c-0.377-0.161-0.813-0.078-1.102,0.212C8.9,10.308,8.815,10.745,8.977,11.12l9.958,23.208c0.131,0.305,0.406,0.525,0.73,0.587
		c0.326,0.063,0.662-0.04,0.896-0.274l13.249-13.248C34.045,21.158,34.148,20.822,34.084,20.496z M24.539,25.502
		c-0.643,0.643-1.682,0.643-2.323,0.002c-0.035-0.037-0.071-0.075-0.105-0.118c-0.004-0.005-0.01-0.01-0.015-0.017
		c-0.702-0.852-1.431-2.982-1.687-3.783c-0.042-0.131,0.08-0.254,0.212-0.211c0.798,0.26,2.931,0.992,3.779,1.682
		c0.009,0.009,0.018,0.014,0.025,0.022c0.039,0.034,0.078,0.067,0.113,0.103C25.18,23.822,25.18,24.861,24.539,25.502z"/>
</g>
<g id="Layer_1">
</g>
</svg>
