<?xml version="1.0" encoding="iso-8859-1"?>
<!-- Generator: Adobe Illustrator 16.0.0, SVG Export Plug-In . SVG Version: 6.00 Build 0)  -->
<!DOCTYPE svg PUBLIC "-//W3C//DTD SVG 1.1//EN" "http://www.w3.org/Graphics/SVG/1.1/DTD/svg11.dtd">
<svg version="1.1" xmlns="http://www.w3.org/2000/svg" xmlns:xlink="http://www.w3.org/1999/xlink" x="0px" y="0px"
	 width="43.219px" height="43.217px" viewBox="0 0 43.219 43.217" style="enable-background:new 0 0 43.219 43.217;"
	 xml:space="preserve">
<g id="SouthPawn">
	<path style="fill:#231F20;" d="M31.805,10.028c-0.186-0.275-0.496-0.439-0.828-0.439H12.242c-0.332,0-0.643,0.164-0.828,0.439
		c-0.186,0.273-0.225,0.623-0.102,0.932l9.367,23.452c0.152,0.38,0.52,0.629,0.93,0.629c0.408,0,0.777-0.249,0.928-0.629
		l9.37-23.452C32.029,10.651,31.99,10.302,31.805,10.028z M23.338,15.038c0,0.006,0,0.014-0.002,0.021
		c-0.105,1.1-1.098,3.121-1.483,3.867c-0.063,0.123-0.236,0.123-0.299,0c-0.381-0.748-1.371-2.773-1.482-3.861
		c0-0.012-0.002-0.021-0.002-0.033c-0.004-0.053-0.008-0.104-0.008-0.152c0-0.906,0.734-1.641,1.641-1.641
		c0.908,0,1.643,0.734,1.643,1.641C23.346,14.931,23.344,14.983,23.338,15.038z"/>
</g>
<g id="Layer_1">
</g>
</svg>
