<?xml version="1.0" encoding="iso-8859-1"?>
<!-- Generator: Adobe Illustrator 16.0.0, SVG Export Plug-In . SVG Version: 6.00 Build 0)  -->
<!DOCTYPE svg PUBLIC "-//W3C//DTD SVG 1.1//EN" "http://www.w3.org/Graphics/SVG/1.1/DTD/svg11.dtd">
<svg version="1.1" xmlns="http://www.w3.org/2000/svg" xmlns:xlink="http://www.w3.org/1999/xlink" x="0px" y="0px"
	 width="43.219px" height="43.217px" viewBox="0 0 43.219 43.217" style="enable-background:new 0 0 43.219 43.217;"
	 xml:space="preserve">
<g id="WestDrone">
	<path style="fill:#231F20;" d="M38.671,9.14c-0.27-0.188-0.615-0.229-0.922-0.113L4.764,21.501
		c-0.389,0.148-0.646,0.52-0.646,0.936s0.258,0.789,0.646,0.936l32.985,12.479c0.307,0.115,0.652,0.074,0.922-0.113
		c0.271-0.188,0.432-0.494,0.432-0.822V9.962C39.103,9.634,38.942,9.327,38.671,9.14z M29.765,27.725
		c0.748-0.383,2.773-1.374,3.861-1.483c0.012-0.002,0.021-0.002,0.033-0.004c0.053-0.004,0.104-0.008,0.152-0.008
		c0.906,0,1.641,0.737,1.641,1.644s-0.734,1.643-1.641,1.643c-0.051,0-0.104-0.004-0.158-0.008
		c-0.006-0.002-0.014-0.002-0.021-0.004c-1.1-0.105-3.121-1.098-3.867-1.48C29.642,27.959,29.642,27.785,29.765,27.725z
		 M33.812,25.03c-0.051,0-0.104-0.004-0.158-0.01c-0.006,0-0.014,0-0.021-0.002c-1.1-0.105-3.121-1.098-3.867-1.48
		c-0.123-0.063-0.123-0.238,0-0.299c0.748-0.383,2.773-1.373,3.861-1.482c0.012-0.002,0.021-0.002,0.033-0.004
		c0.053-0.004,0.104-0.008,0.152-0.008c0.906,0,1.641,0.736,1.641,1.643S34.718,25.03,33.812,25.03z"/>
</g>
<g id="Layer_1">
</g>
</svg>
