<?xml version="1.0" encoding="iso-8859-1"?>
<!-- Generator: Adobe Illustrator 16.0.0, SVG Export Plug-In . SVG Version: 6.00 Build 0)  -->
<!DOCTYPE svg PUBLIC "-//W3C//DTD SVG 1.1//EN" "http://www.w3.org/Graphics/SVG/1.1/DTD/svg11.dtd">
<svg version="1.1" xmlns="http://www.w3.org/2000/svg" xmlns:xlink="http://www.w3.org/1999/xlink" x="0px" y="0px"
	 width="43.219px" height="43.217px" viewBox="0 0 43.219 43.217" style="enable-background:new 0 0 43.219 43.217;"
	 xml:space="preserve">
<g id="SouthWestDrone">
	<path style="fill:#231F20;" d="M37.972,23.71L20.327,6.065c-0.232-0.232-0.563-0.335-0.887-0.276
		c-0.324,0.058-0.596,0.273-0.732,0.572L4.207,38.505c-0.17,0.381-0.09,0.824,0.204,1.119c0.294,0.294,0.739,0.375,1.118,0.204
		l32.148-14.499c0.299-0.135,0.514-0.408,0.572-0.732S38.204,23.942,37.972,23.71z M23.112,22.057
		c0.258-0.799,0.99-2.932,1.682-3.779c0.008-0.01,0.014-0.017,0.021-0.026c0.035-0.04,0.068-0.079,0.102-0.113
		c0.641-0.641,1.682-0.639,2.322,0.001s0.643,1.681,0.002,2.322c-0.037,0.036-0.076,0.07-0.119,0.105
		c-0.004,0.004-0.01,0.01-0.018,0.014c-0.852,0.703-2.982,1.431-3.781,1.688C23.192,22.311,23.069,22.187,23.112,22.057z
		 M30.411,23.634c-0.035,0.035-0.074,0.07-0.117,0.105c-0.004,0.003-0.01,0.009-0.018,0.013c-0.852,0.703-2.982,1.431-3.781,1.688
		c-0.133,0.042-0.256-0.081-0.211-0.211c0.258-0.8,0.99-2.933,1.682-3.78c0.008-0.009,0.014-0.016,0.021-0.026
		c0.033-0.04,0.066-0.079,0.102-0.113c0.641-0.641,1.682-0.639,2.322,0.002C31.052,21.953,31.054,22.992,30.411,23.634z"/>
</g>
<g id="Layer_1">
</g>
</svg>
