<?xml version="1.0" encoding="iso-8859-1"?>
<!-- Generator: Adobe Illustrator 16.0.0, SVG Export Plug-In . SVG Version: 6.00 Build 0)  -->
<!DOCTYPE svg PUBLIC "-//W3C//DTD SVG 1.1//EN" "http://www.w3.org/Graphics/SVG/1.1/DTD/svg11.dtd">
<svg version="1.1" xmlns="http://www.w3.org/2000/svg" xmlns:xlink="http://www.w3.org/1999/xlink" x="0px" y="0px"
	 width="43.219px" height="43.217px" viewBox="0 0 43.219 43.217" style="enable-background:new 0 0 43.219 43.217;"
	 xml:space="preserve">
<g id="NorthEastQueen">
	<path style="fill:#231F20;" d="M41.896,2.151c-0.285-0.285-0.713-0.371-1.085-0.219L1.454,17.956
		c-0.311,0.127-0.536,0.4-0.602,0.729c-0.067,0.328,0.035,0.668,0.271,0.904l23.334,23.334c0.238,0.238,0.578,0.34,0.906,0.273
		c0.329-0.065,0.602-0.291,0.729-0.604L42.114,3.235C42.266,2.864,42.18,2.437,41.896,2.151z M12.844,18.101
		c-0.26,0.803-0.992,2.934-1.684,3.781c-0.006,0.008-0.014,0.016-0.021,0.025c-0.034,0.041-0.067,0.079-0.101,0.112
		c-0.643,0.642-1.682,0.642-2.323,0s-0.641-1.679,0.001-2.321c0.035-0.035,0.074-0.07,0.116-0.105
		c0.005-0.004,0.011-0.012,0.017-0.014c0.853-0.703,2.983-1.43,3.783-1.689C12.763,17.849,12.887,17.974,12.844,18.101z
		 M15.804,21.062c0.132-0.041,0.254,0.082,0.212,0.211c-0.261,0.801-0.992,2.934-1.685,3.779c-0.005,0.008-0.014,0.017-0.021,0.026
		c-0.035,0.04-0.068,0.079-0.102,0.112c-0.642,0.642-1.682,0.641-2.322,0s-0.643-1.682,0-2.323c0.035-0.034,0.074-0.069,0.117-0.104
		c0.004-0.005,0.012-0.011,0.017-0.014C12.874,22.047,15.004,21.319,15.804,21.062z M19.186,24.442
		c-0.26,0.802-0.992,2.934-1.684,3.78c-0.006,0.009-0.014,0.017-0.021,0.026c-0.035,0.04-0.067,0.078-0.101,0.111
		c-0.643,0.643-1.683,0.642-2.324,0c-0.641-0.641-0.641-1.68,0.001-2.322c0.034-0.035,0.074-0.069,0.116-0.105
		c0.006-0.002,0.012-0.01,0.016-0.014c0.854-0.701,2.984-1.43,3.785-1.688C19.104,24.19,19.229,24.314,19.186,24.442z"/>
</g>
<g id="Layer_1">
</g>
</svg>
