<?xml version="1.0" encoding="iso-8859-1"?>
<!-- Generator: Adobe Illustrator 16.0.0, SVG Export Plug-In . SVG Version: 6.00 Build 0)  -->
<!DOCTYPE svg PUBLIC "-//W3C//DTD SVG 1.1//EN" "http://www.w3.org/Graphics/SVG/1.1/DTD/svg11.dtd">
<svg version="1.1" xmlns="http://www.w3.org/2000/svg" xmlns:xlink="http://www.w3.org/1999/xlink" x="0px" y="0px"
	 width="43.219px" height="43.217px" viewBox="0 0 43.219 43.217" style="enable-background:new 0 0 43.219 43.217;"
	 xml:space="preserve">
<g id="NorthWestQueen">
	<path style="fill:#231F20;" d="M42.368,18.684c-0.066-0.329-0.291-0.602-0.604-0.729L2.407,1.934
		c-0.372-0.151-0.8-0.065-1.084,0.219c-0.285,0.284-0.371,0.712-0.22,1.084l16.023,39.356c0.128,0.311,0.401,0.536,0.729,0.602
		c0.328,0.067,0.668-0.035,0.904-0.271L42.095,19.59C42.333,19.352,42.435,19.012,42.368,18.684z M17.272,31.203
		c0.801,0.26,2.934,0.992,3.781,1.684c0.008,0.006,0.016,0.014,0.025,0.021c0.041,0.034,0.078,0.067,0.111,0.101
		c0.643,0.643,0.643,1.682,0,2.323c-0.641,0.642-1.68,0.641-2.32-0.001c-0.035-0.035-0.07-0.074-0.105-0.116
		c-0.004-0.005-0.012-0.011-0.014-0.017c-0.703-0.853-1.431-2.983-1.689-3.783C17.02,31.284,17.144,31.16,17.272,31.203z
		 M20.444,28.031c0.801,0.261,2.934,0.992,3.78,1.685c0.008,0.005,0.016,0.014,0.025,0.021c0.041,0.035,0.08,0.068,0.113,0.102
		c0.641,0.642,0.641,1.682,0,2.322s-1.682,0.643-2.325,0c-0.033-0.035-0.068-0.074-0.104-0.117c-0.004-0.004-0.01-0.012-0.014-0.017
		c-0.703-0.853-1.43-2.983-1.689-3.783C20.192,28.111,20.315,27.989,20.444,28.031z M27.532,28.99
		c-0.641,0.641-1.68,0.641-2.322-0.001c-0.035-0.034-0.07-0.074-0.105-0.116c-0.002-0.006-0.01-0.012-0.014-0.016
		c-0.701-0.854-1.43-2.984-1.688-3.785c-0.041-0.129,0.082-0.254,0.211-0.211c0.801,0.26,2.934,0.992,3.779,1.684
		c0.01,0.006,0.018,0.014,0.027,0.021c0.039,0.035,0.078,0.067,0.111,0.101C28.175,27.309,28.173,28.349,27.532,28.99z"/>
</g>
<g id="Layer_1">
</g>
</svg>
