<?xml version="1.0" encoding="iso-8859-1"?>
<!-- Generator: Adobe Illustrator 16.0.0, SVG Export Plug-In . SVG Version: 6.00 Build 0)  -->
<!DOCTYPE svg PUBLIC "-//W3C//DTD SVG 1.1//EN" "http://www.w3.org/Graphics/SVG/1.1/DTD/svg11.dtd">
<svg version="1.1" xmlns="http://www.w3.org/2000/svg" xmlns:xlink="http://www.w3.org/1999/xlink" x="0px" y="0px"
	 width="43.219px" height="43.217px" viewBox="0 0 43.219 43.217" style="enable-background:new 0 0 43.219 43.217;"
	 xml:space="preserve">
<g id="SouthEastQueen">
	<g>
		<path style="fill:#231F20;" d="M1.125,25.288L24.459,1.954c0.236-0.236,0.576-0.339,0.904-0.271
			c0.328,0.065,0.602,0.291,0.729,0.602l16.023,39.356c0.152,0.372,0.066,0.8-0.219,1.085c-0.285,0.284-0.713,0.37-1.084,0.219
			L1.455,26.923c-0.313-0.127-0.538-0.399-0.604-0.729C0.785,25.866,0.886,25.526,1.125,25.288z M24.807,4.435L3.603,25.638
			l35.766,14.559L24.807,4.435z"/>
		<path style="fill:#231F20;" d="M24.455,9.664c0.004,0.005,0.012,0.011,0.014,0.017c0.703,0.853,1.43,2.983,1.689,3.783
			c0.041,0.13-0.084,0.254-0.211,0.211c-0.803-0.26-2.934-0.992-3.782-1.684c-0.008-0.006-0.016-0.014-0.025-0.021
			c-0.041-0.034-0.079-0.067-0.112-0.101c-0.642-0.643-0.642-1.682,0-2.323s1.679-0.641,2.322,0.001
			C24.385,9.583,24.42,9.622,24.455,9.664"/>
		<path style="fill:#231F20;" d="M21.284,12.835c0.005,0.004,0.011,0.012,0.014,0.017c0.703,0.853,1.431,2.983,1.688,3.783
			c0.042,0.132-0.082,0.254-0.211,0.212c-0.801-0.261-2.934-0.992-3.779-1.685c-0.008-0.005-0.017-0.014-0.026-0.021
			c-0.04-0.035-0.079-0.068-0.112-0.102c-0.642-0.642-0.641-1.682,0-2.322s1.682-0.643,2.323,0
			C21.214,12.753,21.25,12.792,21.284,12.835"/>
		<path style="fill:#231F20;" d="M18.115,16.005c0.002,0.006,0.01,0.012,0.014,0.016c0.701,0.854,1.43,2.984,1.688,3.785
			c0.041,0.129-0.083,0.254-0.211,0.211c-0.802-0.26-2.934-0.992-3.78-1.684c-0.009-0.006-0.017-0.014-0.026-0.021
			c-0.04-0.035-0.078-0.067-0.111-0.101c-0.643-0.643-0.642-1.683,0-2.324c0.641-0.641,1.68-0.641,2.322,0.001
			C18.044,15.923,18.079,15.963,18.115,16.005"/>
	</g>
</g>
<g id="Layer_1">
</g>
</svg>
