<?xml version="1.0" encoding="iso-8859-1"?>
<!-- Generator: Adobe Illustrator 16.0.0, SVG Export Plug-In . SVG Version: 6.00 Build 0)  -->
<!DOCTYPE svg PUBLIC "-//W3C//DTD SVG 1.1//EN" "http://www.w3.org/Graphics/SVG/1.1/DTD/svg11.dtd">
<svg version="1.1" xmlns="http://www.w3.org/2000/svg" xmlns:xlink="http://www.w3.org/1999/xlink" x="0px" y="0px"
	 width="43.219px" height="43.217px" viewBox="0 0 43.219 43.217" style="enable-background:new 0 0 43.219 43.217;"
	 xml:space="preserve">
<g id="SouthPawn">
	<g>
		<path style="fill:#231F20;" d="M12.242,9.714h18.735c0.332,0,0.643,0.164,0.828,0.439c0.186,0.273,0.225,0.623,0.102,0.932
			l-9.37,23.452c-0.15,0.38-0.52,0.629-0.928,0.629c-0.41,0-0.777-0.249-0.93-0.629l-9.367-23.452
			c-0.123-0.309-0.084-0.658,0.102-0.932C11.599,9.878,11.91,9.714,12.242,9.714z M29.5,11.714H13.718l7.891,19.757L29.5,11.714z"/>
		<path style="fill:#231F20;" d="M23.338,15.163c0,0.006,0,0.014-0.002,0.021c-0.105,1.1-1.098,3.121-1.483,3.867
			c-0.063,0.123-0.236,0.123-0.299,0c-0.381-0.748-1.371-2.773-1.482-3.861c0-0.012-0.002-0.021-0.002-0.033
			c-0.004-0.053-0.008-0.104-0.008-0.152c0-0.906,0.734-1.641,1.641-1.641c0.908,0,1.643,0.734,1.643,1.641
			C23.346,15.056,23.344,15.108,23.338,15.163"/>
	</g>
</g>
<g id="Layer_1">
</g>
</svg>
