<?xml version="1.0" encoding="iso-8859-1"?>
<!-- Generator: Adobe Illustrator 16.0.0, SVG Export Plug-In . SVG Version: 6.00 Build 0)  -->
<!DOCTYPE svg PUBLIC "-//W3C//DTD SVG 1.1//EN" "http://www.w3.org/Graphics/SVG/1.1/DTD/svg11.dtd">
<svg version="1.1" xmlns="http://www.w3.org/2000/svg" xmlns:xlink="http://www.w3.org/1999/xlink" x="0px" y="0px"
	 width="43.219px" height="43.217px" viewBox="0 0 43.219 43.217" style="enable-background:new 0 0 43.219 43.217;"
	 xml:space="preserve">
<g id="SouthEastDrone">
	<g>
		<path style="fill:#231F20;" d="M5.245,23.71L22.889,6.064c0.233-0.232,0.563-0.335,0.887-0.276
			c0.323,0.058,0.597,0.273,0.732,0.572l14.498,32.147c0.172,0.379,0.09,0.824-0.205,1.119l0,0
			c-0.293,0.293-0.737,0.374-1.117,0.203L5.54,25.328c-0.298-0.136-0.514-0.409-0.572-0.731C4.909,24.271,5.012,23.941,5.245,23.71z
			 M23.28,8.501L7.682,24.101L36.097,36.92L23.28,8.501z"/>
		<path style="fill:#231F20;" d="M22.918,13.741c0.003,0.006,0.008,0.011,0.012,0.018c0.704,0.853,1.432,2.983,1.689,3.782
			c0.042,0.132-0.081,0.255-0.212,0.211c-0.799-0.259-2.932-0.99-3.78-1.682c-0.01-0.007-0.016-0.014-0.025-0.021
			c-0.041-0.035-0.079-0.068-0.113-0.103c-0.641-0.641-0.639-1.682,0.002-2.322c0.641-0.641,1.681-0.642,2.321-0.001
			C22.848,13.66,22.882,13.7,22.918,13.741"/>
		<path style="fill:#231F20;" d="M19.745,16.915c0.005,0.004,0.01,0.01,0.015,0.016c0.703,0.853,1.431,2.983,1.688,3.782
			c0.042,0.131-0.082,0.255-0.212,0.211c-0.8-0.258-2.933-0.99-3.778-1.682c-0.01-0.007-0.018-0.014-0.027-0.021
			c-0.039-0.035-0.078-0.068-0.113-0.103c-0.641-0.641-0.639-1.681,0.002-2.322c0.641-0.641,1.682-0.642,2.322-0.001
			C19.676,16.832,19.711,16.872,19.745,16.915"/>
	</g>
</g>
<g id="Layer_1">
</g>
</svg>
