<?xml version="1.0" encoding="iso-8859-1"?>
<!-- Generator: Adobe Illustrator 16.0.0, SVG Export Plug-In . SVG Version: 6.00 Build 0)  -->
<!DOCTYPE svg PUBLIC "-//W3C//DTD SVG 1.1//EN" "http://www.w3.org/Graphics/SVG/1.1/DTD/svg11.dtd">
<svg version="1.1" xmlns="http://www.w3.org/2000/svg" xmlns:xlink="http://www.w3.org/1999/xlink" x="0px" y="0px"
	 width="43.219px" height="43.217px" viewBox="0 0 43.219 43.217" style="enable-background:new 0 0 43.219 43.217;"
	 xml:space="preserve">
<g id="SouthDrone">
	<g>
		<path style="fill:#231F20;" d="M9.133,4.948h24.955c0.328,0,0.635,0.16,0.822,0.432c0.188,0.27,0.229,0.615,0.113,0.922
			l-12.48,32.983c-0.146,0.39-0.52,0.646-0.936,0.646l0,0c-0.416,0-0.787-0.257-0.936-0.646L8.198,6.302
			C8.083,5.995,8.124,5.649,8.311,5.38C8.499,5.108,8.805,4.948,9.133,4.948z M32.641,6.948h-22.06l11.027,29.157L32.641,6.948z"/>
		<path style="fill:#231F20;" d="M28.68,10.397c-0.002,0.006-0.002,0.014-0.004,0.021c-0.105,1.1-1.098,3.121-1.48,3.867
			c-0.064,0.123-0.238,0.123-0.299,0c-0.383-0.748-1.374-2.773-1.483-3.861c-0.002-0.012-0.002-0.021-0.004-0.033
			c-0.004-0.053-0.008-0.104-0.008-0.152c0-0.906,0.737-1.641,1.644-1.641s1.643,0.734,1.643,1.641
			C28.688,10.29,28.684,10.343,28.68,10.397"/>
		<path style="fill:#231F20;" d="M24.192,10.397c0,0.006,0,0.014-0.002,0.021c-0.105,1.1-1.098,3.121-1.481,3.867
			c-0.063,0.123-0.238,0.123-0.299,0c-0.383-0.748-1.373-2.773-1.482-3.861c-0.002-0.012-0.002-0.021-0.004-0.033
			c-0.004-0.053-0.008-0.104-0.008-0.152c0-0.906,0.736-1.641,1.643-1.641c0.907,0,1.643,0.734,1.643,1.641
			C24.202,10.29,24.198,10.343,24.192,10.397"/>
	</g>
</g>
<g id="Layer_1">
</g>
</svg>
