<?xml version="1.0" encoding="iso-8859-1"?>
<!-- Generator: Adobe Illustrator 16.0.0, SVG Export Plug-In . SVG Version: 6.00 Build 0)  -->
<!DOCTYPE svg PUBLIC "-//W3C//DTD SVG 1.1//EN" "http://www.w3.org/Graphics/SVG/1.1/DTD/svg11.dtd">
<svg version="1.1" xmlns="http://www.w3.org/2000/svg" xmlns:xlink="http://www.w3.org/1999/xlink" x="0px" y="0px"
	 width="43.219px" height="43.217px" viewBox="0 0 43.219 43.217" style="enable-background:new 0 0 43.219 43.217;"
	 xml:space="preserve">
<g id="SoutheastPawn">
	<g>
		<path style="fill:#231F20;" d="M9.424,23.502l13.247-13.247c0.234-0.235,0.571-0.338,0.897-0.274
			c0.324,0.062,0.6,0.282,0.73,0.587l9.958,23.208c0.162,0.375,0.077,0.813-0.211,1.101c-0.29,0.29-0.726,0.374-1.103,0.213
			l-23.208-9.96c-0.305-0.131-0.523-0.406-0.586-0.73C9.085,24.072,9.189,23.736,9.424,23.502z M23.043,12.713l-11.161,11.16
			l19.55,8.39L23.043,12.713z"/>
		<path style="fill:#231F20;" d="M21.124,19.51c0.004,0.004,0.009,0.009,0.014,0.017c0.702,0.852,1.431,2.982,1.687,3.782
			c0.043,0.131-0.08,0.254-0.211,0.211c-0.799-0.259-2.932-0.991-3.779-1.682c-0.008-0.008-0.017-0.014-0.025-0.022
			c-0.039-0.034-0.078-0.068-0.113-0.103c-0.641-0.641-0.641-1.679,0.001-2.32c0.642-0.642,1.681-0.642,2.321-0.001
			C21.052,19.428,21.088,19.467,21.124,19.51"/>
	</g>
</g>
<g id="Layer_1">
</g>
</svg>
