<?xml version="1.0" encoding="iso-8859-1"?>
<!-- Generator: Adobe Illustrator 16.0.0, SVG Export Plug-In . SVG Version: 6.00 Build 0)  -->
<!DOCTYPE svg PUBLIC "-//W3C//DTD SVG 1.1//EN" "http://www.w3.org/Graphics/SVG/1.1/DTD/svg11.dtd">
<svg version="1.1" xmlns="http://www.w3.org/2000/svg" xmlns:xlink="http://www.w3.org/1999/xlink" x="0px" y="0px"
	 width="43.219px" height="43.217px" viewBox="0 0 43.219 43.217" style="enable-background:new 0 0 43.219 43.217;"
	 xml:space="preserve">
<g id="SouthQueen">
	<g>
		<path style="fill:#231F20;" d="M5.111,1.859h33.001c0.334,0,0.646,0.168,0.832,0.447s0.219,0.631,0.09,0.941l-16.5,39.159
			c-0.156,0.37-0.52,0.612-0.922,0.612s-0.766-0.242-0.922-0.612L4.189,3.248C4.058,2.938,4.091,2.586,4.277,2.307
			S4.775,1.859,5.111,1.859z M36.604,3.859H6.617l14.995,35.584L36.604,3.859z"/>
		<path style="fill:#231F20;" d="M32.657,7.309c0,0.006,0,0.016-0.002,0.021c-0.105,1.1-1.098,3.121-1.48,3.869
			c-0.063,0.121-0.238,0.121-0.299,0c-0.383-0.75-1.373-2.775-1.482-3.863c-0.002-0.01-0.002-0.021-0.004-0.033
			c-0.004-0.053-0.008-0.104-0.008-0.15c0-0.908,0.734-1.643,1.643-1.643c0.906,0,1.641,0.734,1.641,1.643
			C32.665,7.201,32.663,7.254,32.657,7.309"/>
		<path style="fill:#231F20;" d="M28.173,7.309c0,0.006,0,0.016-0.002,0.021c-0.105,1.1-1.098,3.121-1.48,3.869
			c-0.064,0.121-0.238,0.121-0.299,0c-0.383-0.75-1.373-2.775-1.482-3.863c-0.002-0.01-0.002-0.021-0.004-0.033
			c-0.004-0.053-0.008-0.104-0.008-0.15c0-0.908,0.736-1.643,1.643-1.643s1.643,0.734,1.643,1.643
			C28.183,7.201,28.179,7.254,28.173,7.309"/>
		<path style="fill:#231F20;" d="M23.69,7.309c-0.002,0.006-0.002,0.016-0.002,0.021c-0.107,1.1-1.1,3.121-1.483,3.869
			c-0.063,0.121-0.238,0.121-0.299,0c-0.383-0.75-1.373-2.775-1.482-3.863c-0.002-0.01-0.002-0.021-0.004-0.033
			c-0.004-0.053-0.008-0.104-0.008-0.15c0-0.908,0.736-1.643,1.643-1.643s1.643,0.734,1.643,1.643
			C23.698,7.201,23.694,7.254,23.69,7.309"/>
	</g>
</g>
<g id="Layer_1">
</g>
</svg>
