<?xml version="1.0" encoding="iso-8859-1"?>
<!-- Generator: Adobe Illustrator 16.0.0, SVG Export Plug-In . SVG Version: 6.00 Build 0)  -->
<!DOCTYPE svg PUBLIC "-//W3C//DTD SVG 1.1//EN" "http://www.w3.org/Graphics/SVG/1.1/DTD/svg11.dtd">
<svg version="1.1" xmlns="http://www.w3.org/2000/svg" xmlns:xlink="http://www.w3.org/1999/xlink" x="0px" y="0px"
	 width="43.219px" height="43.217px" viewBox="0 0 43.219 43.217" style="enable-background:new 0 0 43.219 43.217;"
	 xml:space="preserve">
<g id="SouthWestDrone">
	<g>
		<path style="fill:#231F20;" d="M20.327,6.065L37.972,23.71c0.232,0.232,0.336,0.563,0.277,0.887s-0.273,0.598-0.572,0.732
			L5.529,39.828c-0.379,0.171-0.824,0.09-1.118-0.204l0,0c-0.294-0.295-0.374-0.738-0.204-1.119L18.708,6.361
			c0.137-0.299,0.408-0.514,0.732-0.572C19.764,5.729,20.094,5.833,20.327,6.065z M35.534,24.102L19.936,8.503L7.117,36.919
			L35.534,24.102z"/>
		<path style="fill:#231F20;" d="M30.294,23.739c-0.004,0.003-0.01,0.009-0.018,0.013c-0.852,0.703-2.982,1.431-3.781,1.688
			c-0.133,0.042-0.256-0.081-0.211-0.211c0.258-0.8,0.99-2.933,1.682-3.78c0.008-0.009,0.014-0.016,0.021-0.026
			c0.033-0.04,0.066-0.079,0.102-0.113c0.641-0.641,1.682-0.639,2.322,0.002c0.641,0.641,0.643,1.68,0,2.322
			C30.376,23.669,30.337,23.704,30.294,23.739"/>
		<path style="fill:#231F20;" d="M27.122,20.567c-0.004,0.004-0.01,0.01-0.018,0.014c-0.852,0.703-2.982,1.431-3.781,1.688
			c-0.131,0.042-0.254-0.082-0.211-0.211c0.258-0.799,0.99-2.932,1.682-3.779c0.008-0.01,0.014-0.017,0.021-0.026
			c0.035-0.04,0.068-0.079,0.102-0.113c0.641-0.641,1.682-0.639,2.322,0.001s0.643,1.681,0.002,2.322
			C27.204,20.498,27.165,20.532,27.122,20.567"/>
	</g>
</g>
<g id="Layer_1">
</g>
</svg>
