<?xml version="1.0" encoding="iso-8859-1"?>
<!-- Generator: Adobe Illustrator 16.0.0, SVG Export Plug-In . SVG Version: 6.00 Build 0)  -->
<!DOCTYPE svg PUBLIC "-//W3C//DTD SVG 1.1//EN" "http://www.w3.org/Graphics/SVG/1.1/DTD/svg11.dtd">
<svg version="1.1" xmlns="http://www.w3.org/2000/svg" xmlns:xlink="http://www.w3.org/1999/xlink" x="0px" y="0px"
	 width="43.219px" height="43.217px" viewBox="0 0 43.219 43.217" style="enable-background:new 0 0 43.219 43.217;"
	 xml:space="preserve">
<g id="SouthWestQueen">
	<g>
		<path style="fill:#231F20;" d="M18.761,1.956L42.096,25.29c0.236,0.236,0.34,0.576,0.271,0.904
			c-0.064,0.328-0.291,0.602-0.602,0.729L2.409,42.946c-0.372,0.152-0.8,0.066-1.085-0.219c-0.284-0.285-0.37-0.713-0.219-1.084
			L17.127,2.286c0.127-0.313,0.399-0.538,0.728-0.604C18.183,1.616,18.523,1.718,18.761,1.956z M39.615,25.638L18.412,4.435
			L3.854,40.2L39.615,25.638z"/>
		<path style="fill:#231F20;" d="M34.387,25.286c-0.006,0.004-0.012,0.012-0.018,0.014c-0.852,0.703-2.982,1.43-3.783,1.689
			c-0.129,0.041-0.254-0.084-0.211-0.211c0.26-0.803,0.992-2.934,1.684-3.781c0.006-0.008,0.014-0.016,0.021-0.025
			c0.033-0.041,0.066-0.079,0.1-0.112c0.643-0.642,1.682-0.642,2.324,0c0.641,0.642,0.641,1.679-0.002,2.321
			C34.467,25.216,34.428,25.251,34.387,25.286"/>
		<path style="fill:#231F20;" d="M31.215,22.115c-0.004,0.005-0.012,0.011-0.016,0.014c-0.854,0.703-2.984,1.431-3.783,1.688
			c-0.133,0.041-0.254-0.082-0.213-0.211c0.262-0.801,0.992-2.934,1.686-3.779c0.004-0.008,0.014-0.017,0.02-0.026
			c0.035-0.04,0.068-0.079,0.102-0.112c0.643-0.642,1.682-0.641,2.322,0s0.643,1.682,0,2.323
			C31.297,22.046,31.258,22.081,31.215,22.115"/>
		<path style="fill:#231F20;" d="M28.045,18.946c-0.006,0.002-0.012,0.01-0.016,0.014c-0.854,0.701-2.984,1.43-3.785,1.688
			c-0.129,0.041-0.254-0.083-0.211-0.211c0.26-0.802,0.992-2.934,1.684-3.78c0.006-0.009,0.014-0.017,0.021-0.026
			c0.035-0.04,0.066-0.078,0.1-0.111c0.643-0.643,1.684-0.642,2.324,0c0.641,0.641,0.641,1.68,0,2.322
			C28.127,18.876,28.088,18.91,28.045,18.946"/>
	</g>
</g>
<g id="Layer_1">
</g>
</svg>
