<?xml version="1.0" encoding="iso-8859-1"?>
<!-- Generator: Adobe Illustrator 16.0.0, SVG Export Plug-In . SVG Version: 6.00 Build 0)  -->
<!DOCTYPE svg PUBLIC "-//W3C//DTD SVG 1.1//EN" "http://www.w3.org/Graphics/SVG/1.1/DTD/svg11.dtd">
<svg version="1.1" xmlns="http://www.w3.org/2000/svg" xmlns:xlink="http://www.w3.org/1999/xlink" x="0px" y="0px"
	 width="43.219px" height="43.217px" viewBox="0 0 43.219 43.217" style="enable-background:new 0 0 43.219 43.217;"
	 xml:space="preserve">
<g id="SouthWestPawn">
	<g>
		<path style="fill:#231F20;" d="M20.546,10.24l13.248,13.247c0.235,0.235,0.339,0.57,0.275,0.896
			c-0.063,0.324-0.282,0.599-0.587,0.73l-23.208,9.958c-0.375,0.162-0.813,0.077-1.101-0.211C8.882,34.57,8.8,34.135,8.96,33.759
			l9.959-23.207c0.132-0.305,0.406-0.525,0.73-0.587C19.976,9.902,20.312,10.005,20.546,10.24z M31.336,23.857l-11.16-11.159
			l-8.39,19.55L31.336,23.857z"/>
		<path style="fill:#231F20;" d="M24.539,21.939c-0.004,0.004-0.01,0.01-0.016,0.014c-0.852,0.703-2.984,1.431-3.784,1.686
			c-0.131,0.043-0.254-0.079-0.211-0.211c0.26-0.798,0.992-2.93,1.682-3.778c0.008-0.008,0.014-0.017,0.022-0.025
			c0.034-0.04,0.067-0.078,0.103-0.113c0.641-0.641,1.68-0.641,2.321,0c0.642,0.642,0.643,1.681,0.001,2.322
			C24.621,21.869,24.582,21.905,24.539,21.939"/>
	</g>
</g>
<g id="Layer_1">
</g>
</svg>
