<?xml version="1.0" encoding="iso-8859-1"?>
<!-- Generator: Adobe Illustrator 16.0.0, SVG Export Plug-In . SVG Version: 6.00 Build 0)  -->
<!DOCTYPE svg PUBLIC "-//W3C//DTD SVG 1.1//EN" "http://www.w3.org/Graphics/SVG/1.1/DTD/svg11.dtd">
<svg version="1.1" xmlns="http://www.w3.org/2000/svg" xmlns:xlink="http://www.w3.org/1999/xlink" x="0px" y="0px"
	 width="43.219px" height="43.217px" viewBox="0 0 43.219 43.217" style="enable-background:new 0 0 43.219 43.217;"
	 xml:space="preserve">
<g id="TopDownDroneOnQueen">
	<g>
		<path style="fill:#231F20;" d="M38.112,4.942H11.178H5.11c-0.552,0-1,0.448-1,1v6.203v26.797c0,0.553,0.448,1,1,1h6.068h26.934
			c0.553,0,1-0.447,1-1V12.146V5.942C39.112,5.39,38.665,4.942,38.112,4.942z M11.178,6.942h24.495l-1.15,1.15H11.178H8.676
			l-1.15-1.15H11.178z M33.645,12.146v20.916l-1.601-1.601l-2-2l-7.03-7.031l7.03-7.031l2-2l1.254-1.254l0.347-0.347V12.146z
			 M29.505,34.792h-2.7h-3.867h-2.7h-3.866h-2.701h-2.493h-0.527l0.527-0.527l1.39-1.39l2-2l7.031-7.031l7.031,7.031l2,2
			l1.917,1.917H29.505z M9.578,12.146v-0.322L9.9,12.146l1.278,1.278l2,2l7.007,7.007l-7.007,7.006l-2,2l-1.6,1.601V12.146z
			 M30.605,12.01l-0.136,0.136l-1.864,1.864l-7.006,7.006l-7.006-7.006l-1.864-1.864l-0.136-0.136l-1.415-1.415l-0.502-0.502h0.502
			h21.344L30.605,12.01z M6.11,8.355l1.468,1.468v2.322v22.892L6.11,36.505V12.146V8.355z M11.178,37.942H7.501l1.15-1.15h2.527
			h2.366h2.952h3.613h2.953h3.614h2.952h4.918l1.15,1.15H11.178z M37.112,36.529l-1.468-1.468V12.146V9.799l1.468-1.468v3.814
			V36.529z"/>
		<path style="fill:#231F20;" d="M19.936,32.701c-0.004-0.048-0.02-0.105-0.027-0.156c-0.074-0.47-0.28-1.074-0.52-1.67
			c-0.329-0.819-0.721-1.622-0.934-2.037c-0.061-0.121-0.234-0.121-0.299,0c-0.212,0.413-0.606,1.217-0.938,2.037
			c-0.268,0.664-0.495,1.34-0.542,1.832c-0.002,0.006-0.002,0.016-0.002,0.021c-0.004,0.04-0.006,0.078-0.007,0.116
			c0,0.01-0.001,0.021-0.002,0.03c0,0.003,0,0.007,0,0.01c0,0.476,0.205,0.899,0.527,1.199c0.293,0.273,0.684,0.443,1.115,0.443
			c0.322,0,0.619-0.096,0.873-0.256c0.459-0.29,0.768-0.801,0.768-1.387c0-0.003,0-0.007,0-0.01
			c-0.001-0.044-0.004-0.092-0.008-0.141C19.938,32.723,19.938,32.711,19.936,32.701z"/>
		<path style="fill:#231F20;" d="M26.503,32.701c-0.005-0.048-0.02-0.105-0.027-0.156c-0.074-0.47-0.28-1.074-0.52-1.67
			c-0.329-0.819-0.722-1.622-0.934-2.037c-0.061-0.121-0.234-0.121-0.299,0c-0.212,0.413-0.606,1.217-0.938,2.037
			c-0.269,0.664-0.496,1.34-0.543,1.832c-0.002,0.006-0.002,0.016-0.002,0.021c-0.004,0.04-0.006,0.078-0.007,0.116
			c-0.001,0.01-0.002,0.021-0.002,0.03c0,0.003-0.001,0.007-0.001,0.01c0,0.476,0.205,0.899,0.527,1.199
			c0.293,0.273,0.684,0.443,1.115,0.443c0.321,0,0.619-0.096,0.872-0.256c0.46-0.29,0.769-0.801,0.769-1.387c0-0.003,0-0.007,0-0.01
			c-0.001-0.044-0.004-0.092-0.008-0.141C26.505,32.723,26.505,32.711,26.503,32.701z"/>
	</g>
</g>
<g id="Layer_1">
</g>
</svg>
