<?xml version="1.0" encoding="iso-8859-1"?>
<!-- Generator: Adobe Illustrator 16.0.0, SVG Export Plug-In . SVG Version: 6.00 Build 0)  -->
<!DOCTYPE svg PUBLIC "-//W3C//DTD SVG 1.1//EN" "http://www.w3.org/Graphics/SVG/1.1/DTD/svg11.dtd">
<svg version="1.1" xmlns="http://www.w3.org/2000/svg" xmlns:xlink="http://www.w3.org/1999/xlink" x="0px" y="0px"
	 width="43.219px" height="43.217px" viewBox="0 0 43.219 43.217" style="enable-background:new 0 0 43.219 43.217;"
	 xml:space="preserve">
<g id="TopDownPawn">
	<g>
		<path style="fill:#231F20;" d="M31.387,12.074H11.836c-0.328,0-0.593,0.265-0.593,0.592v19.551c0,0.328,0.265,0.593,0.593,0.593
			h19.551c0.328,0,0.593-0.265,0.593-0.593V12.667C31.979,12.339,31.715,12.074,31.387,12.074z M20.184,22.429l-6.941,6.943V15.487
			L20.184,22.429z M14.658,14.074h13.881l-6.941,6.941L14.658,14.074z M21.598,23.844l6.967,6.967H14.632L21.598,23.844z
			 M23.013,22.429l6.967-6.967v13.935L23.013,22.429z"/>
		<path style="fill:#231F20;" d="M23.245,28.662c-0.002-0.012-0.002-0.023-0.004-0.033c-0.109-1.088-1.098-3.113-1.481-3.863
			c-0.061-0.121-0.234-0.121-0.299,0c-0.383,0.748-1.375,2.77-1.48,3.869c-0.002,0.006-0.002,0.016-0.002,0.021
			c-0.006,0.055-0.01,0.107-0.01,0.156c0,0.908,0.736,1.643,1.643,1.643s1.641-0.734,1.641-1.643
			C23.253,28.766,23.249,28.715,23.245,28.662z"/>
	</g>
</g>
<g id="Layer_1">
</g>
</svg>
