<?xml version="1.0" encoding="iso-8859-1"?>
<!-- Generator: Adobe Illustrator 16.0.0, SVG Export Plug-In . SVG Version: 6.00 Build 0)  -->
<!DOCTYPE svg PUBLIC "-//W3C//DTD SVG 1.1//EN" "http://www.w3.org/Graphics/SVG/1.1/DTD/svg11.dtd">
<svg version="1.1" xmlns="http://www.w3.org/2000/svg" xmlns:xlink="http://www.w3.org/1999/xlink" x="0px" y="0px"
	 width="43.219px" height="43.217px" viewBox="0 0 43.219 43.217" style="enable-background:new 0 0 43.219 43.217;"
	 xml:space="preserve">
<g id="TopDownPawnOnDrone">
	<g>
		<path style="fill:#231F20;" d="M35.645,35.062V12.146V9.799V9.121c0-0.567-0.461-1.028-1.028-1.028h-0.094H11.178H8.676h-0.07
			c-0.568,0-1.028,0.46-1.028,1.028v0.703v2.322v22.892v0.728c0,0.567,0.46,1.027,1.028,1.027h0.045h2.527h2.366h2.952h3.613h2.953
			h3.614h2.952h4.918h0.069c0.567,0,1.028-0.46,1.028-1.027V35.062z M16.372,34.792h-2.701h-2.493h-0.527l0.527-0.527l1.39-1.39
			h1.898h1.112h1.087h3.282h1.085h1.111h1.088h3.282H27.6h1.111h1.919l1.917,1.917h-3.042h-2.7h-3.867h-2.7H16.372z M9.578,12.146
			v-0.322L9.9,12.146l1.278,1.278v18.013l-1.6,1.601V12.146z M33.645,12.146v20.916l-1.601-1.601V13.399l1.254-1.254l0.347-0.347
			V12.146z M25.956,30.875h-2.17h-4.397h-2.17h-2.651l7.031-7.031l7.031,7.031H25.956z M13.178,15.423l7.007,7.007l-7.007,7.006
			V15.423z M14.593,14.01h14.013l-7.006,7.006L14.593,14.01z M23.014,22.43l7.03-7.031v14.062L23.014,22.43z M30.605,12.01H12.593
			l-1.415-1.415l-0.502-0.502h0.502h21.344L30.605,12.01z"/>
		<path style="fill:#231F20;" d="M21.44,24.588c-0.383,0.748-1.375,2.77-1.48,3.869c-0.002,0.006-0.002,0.016-0.002,0.021
			c-0.004,0.04-0.006,0.078-0.007,0.116c-0.001,0.013-0.003,0.027-0.003,0.04c0,0.476,0.205,0.899,0.527,1.199
			c0.293,0.273,0.684,0.443,1.115,0.443c0.321,0,0.619-0.096,0.872-0.256c0.46-0.29,0.769-0.801,0.769-1.387
			c0-0.047-0.004-0.098-0.008-0.15c-0.002-0.012-0.002-0.023-0.004-0.033c-0.005-0.048-0.02-0.105-0.027-0.156
			c-0.176-1.115-1.087-2.99-1.454-3.707C21.678,24.467,21.504,24.467,21.44,24.588z"/>
	</g>
</g>
<g id="Layer_1">
</g>
</svg>
