<?xml version="1.0" encoding="iso-8859-1"?>
<!-- Generator: Adobe Illustrator 16.0.0, SVG Export Plug-In . SVG Version: 6.00 Build 0)  -->
<!DOCTYPE svg PUBLIC "-//W3C//DTD SVG 1.1//EN" "http://www.w3.org/Graphics/SVG/1.1/DTD/svg11.dtd">
<svg version="1.1" xmlns="http://www.w3.org/2000/svg" xmlns:xlink="http://www.w3.org/1999/xlink" x="0px" y="0px"
	 width="43.219px" height="43.217px" viewBox="0 0 43.219 43.217" style="enable-background:new 0 0 43.219 43.217;"
	 xml:space="preserve">
<g id="TopDownQueen">
	<g id="Isolation_Mode">
		<g>
			<path style="fill:#231F20;" d="M18.758,35.446c-0.109-1.088-1.1-3.113-1.483-3.863c-0.061-0.121-0.236-0.121-0.299,0
				c-0.383,0.748-1.375,2.77-1.48,3.869c-0.002,0.006-0.002,0.016-0.002,0.021c-0.006,0.055-0.008,0.107-0.008,0.156
				c0,0.908,0.734,1.643,1.641,1.643c0.909,0,1.643-0.734,1.643-1.643c0-0.047-0.004-0.098-0.008-0.15
				C18.76,35.468,18.76,35.456,18.758,35.446z"/>
			<path style="fill:#231F20;" d="M23.241,35.446c-0.109-1.088-1.098-3.113-1.481-3.863c-0.061-0.121-0.234-0.121-0.299,0
				c-0.383,0.748-1.375,2.77-1.48,3.869c-0.002,0.006-0.002,0.016-0.002,0.021c-0.006,0.055-0.01,0.107-0.01,0.156
				c0,0.908,0.736,1.643,1.643,1.643s1.641-0.734,1.641-1.643c0-0.047-0.004-0.098-0.008-0.15
				C23.243,35.468,23.243,35.456,23.241,35.446z"/>
			<path style="fill:#231F20;" d="M27.729,35.479c-0.002-0.012-0.002-0.023-0.004-0.033c-0.109-1.088-1.1-3.113-1.482-3.863
				c-0.061-0.121-0.236-0.121-0.299,0c-0.383,0.748-1.375,2.77-1.482,3.869c0,0.006,0,0.016-0.002,0.021
				c-0.004,0.055-0.008,0.107-0.008,0.156c0,0.908,0.736,1.643,1.643,1.643s1.643-0.734,1.643-1.643
				C27.737,35.583,27.733,35.532,27.729,35.479z"/>
			<path style="fill:#231F20;" d="M38.112,4.942H5.11c-0.552,0-1,0.447-1,1v33c0,0.553,0.448,1,1,1h33.002c0.553,0,1-0.447,1-1v-33
				C39.112,5.39,38.665,4.942,38.112,4.942z M20.175,22.42L6.11,36.485V8.355L20.175,22.42z M7.526,6.942h28.127L21.589,21.006
				L7.526,6.942z M21.589,23.834l14.109,14.108H7.482L21.589,23.834z M23.004,22.42L37.112,8.312v28.217L23.004,22.42z"/>
		</g>
	</g>
</g>
<g id="Layer_1">
</g>
</svg>
