<?xml version="1.0" encoding="iso-8859-1"?>
<!-- Generator: Adobe Illustrator 16.0.0, SVG Export Plug-In . SVG Version: 6.00 Build 0)  -->
<!DOCTYPE svg PUBLIC "-//W3C//DTD SVG 1.1//EN" "http://www.w3.org/Graphics/SVG/1.1/DTD/svg11.dtd">
<svg version="1.1" xmlns="http://www.w3.org/2000/svg" xmlns:xlink="http://www.w3.org/1999/xlink" x="0px" y="0px"
	 width="43.219px" height="43.217px" viewBox="0 0 43.219 43.217" style="enable-background:new 0 0 43.219 43.217;"
	 xml:space="preserve">
<g id="TopDownDrone">
	<g>
		<path style="fill:#231F20;" d="M34.318,8.965H8.904c-0.425,0-0.77,0.345-0.77,0.77v24.737l-0.13,0.13l0.13,0.13v0.417
			c0,0.426,0.345,0.77,0.77,0.77h0.417l0.098,0.098l0.098-0.098h24.802c0.426,0,0.771-0.344,0.771-0.77V9.735
			C35.089,9.31,34.744,8.965,34.318,8.965z M23.009,22.425l10.08-10.081v20.162L23.009,22.425z M21.594,21.011L11.549,10.965h20.09
			L21.594,21.011z M10.134,12.378L20.18,22.425L10.134,32.473V12.378z M21.594,23.84l10.08,10.079H11.516L21.594,23.84z"/>
		<path style="fill:#231F20;" d="M20.913,31.515c-0.109-1.088-1.1-3.113-1.482-3.863c-0.061-0.121-0.236-0.121-0.299,0
			c-0.383,0.748-1.375,2.77-1.48,3.869c-0.002,0.006-0.002,0.016-0.002,0.021c-0.006,0.055-0.008,0.107-0.008,0.156
			c0,0.908,0.734,1.643,1.641,1.643c0.908,0,1.643-0.734,1.643-1.643c0-0.047-0.004-0.098-0.008-0.15
			C20.915,31.536,20.915,31.524,20.913,31.515z"/>
		<path style="fill:#231F20;" d="M25.4,31.548c-0.002-0.012-0.002-0.023-0.004-0.033c-0.109-1.088-1.098-3.113-1.48-3.863
			c-0.061-0.121-0.234-0.121-0.299,0c-0.383,0.748-1.375,2.77-1.481,3.869c-0.002,0.006-0.002,0.016-0.002,0.021
			c-0.006,0.055-0.01,0.107-0.01,0.156c0,0.908,0.736,1.643,1.643,1.643c0.906,0,1.641-0.734,1.641-1.643
			C25.408,31.651,25.404,31.601,25.4,31.548z"/>
	</g>
	<g id="Isolation_Mode_copy">
	</g>
</g>
<g id="Layer_1">
</g>
</svg>
