<?xml version="1.0" encoding="iso-8859-1"?>
<!-- Generator: Adobe Illustrator 16.0.0, SVG Export Plug-In . SVG Version: 6.00 Build 0)  -->
<!DOCTYPE svg PUBLIC "-//W3C//DTD SVG 1.1//EN" "http://www.w3.org/Graphics/SVG/1.1/DTD/svg11.dtd">
<svg version="1.1" xmlns="http://www.w3.org/2000/svg" xmlns:xlink="http://www.w3.org/1999/xlink" x="0px" y="0px"
	 width="43.219px" height="43.217px" viewBox="0 0 43.219 43.217" style="enable-background:new 0 0 43.219 43.217;"
	 xml:space="preserve">
<g id="TopDownPawnOnQueen">
	<g>
		<path style="fill:#231F20;" d="M38.112,4.942H11.178H5.11c-0.552,0-1,0.448-1,1v6.203v26.797c0,0.553,0.448,1,1,1h6.068h26.934
			c0.553,0,1-0.447,1-1V12.146V5.942C39.112,5.39,38.665,4.942,38.112,4.942z M11.178,6.942h24.495l-1.15,1.15l-2,2l-1.917,1.917
			H12.593l-1.415-1.415l-0.502-0.502l-2-2l-1.15-1.15H11.178z M30.044,29.461l-7.03-7.031l7.03-7.031V29.461z M25.956,30.875h-2.17
			h-4.397h-2.17h-2.651l7.031-7.031l7.031,7.031H25.956z M28.605,14.01l-7.006,7.006l-7.006-7.006H28.605z M13.178,15.423
			l7.007,7.007l-7.007,7.006V15.423z M6.11,8.355l1.468,1.468l2,2L9.9,12.146l1.278,1.278v18.013l-1.6,1.601l-2,2L6.11,36.505
			V12.146V8.355z M11.178,37.942H7.501l1.15-1.15l2-2l0.527-0.527l1.39-1.39h1.898h1.112h1.087h3.282h1.085h1.111h1.088h3.282H27.6
			h1.111h1.919l1.917,1.917l2,2l1.15,1.15H11.178z M37.112,36.529l-1.468-1.468l-2-2l-1.601-1.601V13.399l1.254-1.254l0.347-0.347
			l2-2l1.468-1.468v3.814V36.529z"/>
		<path style="fill:#231F20;" d="M21.44,24.588c-0.383,0.748-1.375,2.77-1.48,3.869c-0.002,0.006-0.002,0.016-0.002,0.021
			c-0.004,0.04-0.006,0.078-0.007,0.116c-0.001,0.013-0.003,0.027-0.003,0.04c0,0.476,0.205,0.899,0.527,1.199
			c0.293,0.273,0.684,0.443,1.115,0.443c0.321,0,0.619-0.096,0.872-0.256c0.46-0.29,0.769-0.801,0.769-1.387
			c0-0.047-0.004-0.098-0.008-0.15c-0.002-0.012-0.002-0.023-0.004-0.033c-0.005-0.048-0.02-0.105-0.027-0.156
			c-0.176-1.115-1.087-2.99-1.454-3.707C21.678,24.467,21.504,24.467,21.44,24.588z"/>
	</g>
</g>
<g id="Layer_1">
</g>
</svg>
