<?xml version="1.0" encoding="iso-8859-1"?>
<!-- Generator: Adobe Illustrator 16.0.0, SVG Export Plug-In . SVG Version: 6.00 Build 0)  -->
<!DOCTYPE svg PUBLIC "-//W3C//DTD SVG 1.1//EN" "http://www.w3.org/Graphics/SVG/1.1/DTD/svg11.dtd">
<svg version="1.1" xmlns="http://www.w3.org/2000/svg" xmlns:xlink="http://www.w3.org/1999/xlink" x="0px" y="0px"
	 width="43.219px" height="43.217px" viewBox="0 0 43.219 43.217" style="enable-background:new 0 0 43.219 43.217;"
	 xml:space="preserve">
<g id="WestPawn">
	<g>
		<path style="fill:#231F20;" d="M34.335,13.073v18.734c0,0.332-0.164,0.643-0.439,0.828c-0.273,0.186-0.623,0.225-0.932,0.102
			L9.512,23.368c-0.38-0.15-0.629-0.52-0.629-0.928c0-0.41,0.249-0.777,0.629-0.93l23.452-9.367
			c0.309-0.123,0.658-0.084,0.932,0.102C34.171,12.431,34.335,12.741,34.335,13.073z M32.335,30.331V14.55L12.578,22.44
			L32.335,30.331z"/>
		<path style="fill:#231F20;" d="M28.886,24.169c-0.006,0-0.014,0-0.021-0.002c-1.1-0.105-3.121-1.098-3.867-1.482
			c-0.123-0.063-0.123-0.236,0-0.299c0.748-0.381,2.773-1.371,3.861-1.482c0.012,0,0.021-0.002,0.033-0.002
			c0.053-0.004,0.104-0.008,0.152-0.008c0.906,0,1.641,0.734,1.641,1.641c0,0.908-0.734,1.643-1.641,1.643
			C28.993,24.177,28.94,24.175,28.886,24.169"/>
	</g>
</g>
<g id="Layer_1">
</g>
</svg>
