<?xml version="1.0" encoding="iso-8859-1"?>
<!-- Generator: Adobe Illustrator 16.0.0, SVG Export Plug-In . SVG Version: 6.00 Build 0)  -->
<!DOCTYPE svg PUBLIC "-//W3C//DTD SVG 1.1//EN" "http://www.w3.org/Graphics/SVG/1.1/DTD/svg11.dtd">
<svg version="1.1" xmlns="http://www.w3.org/2000/svg" xmlns:xlink="http://www.w3.org/1999/xlink" x="0px" y="0px"
	 width="43.219px" height="43.217px" viewBox="0 0 43.219 43.217" style="enable-background:new 0 0 43.219 43.217;"
	 xml:space="preserve">
<g id="WestDrone">
	<g>
		<path style="fill:#231F20;" d="M39.103,9.962v24.954c0,0.328-0.16,0.635-0.432,0.822c-0.27,0.188-0.615,0.229-0.922,0.113
			L4.764,23.372c-0.389-0.146-0.646-0.52-0.646-0.936l0,0c0-0.416,0.258-0.787,0.646-0.936L37.749,9.026
			c0.307-0.115,0.652-0.074,0.922,0.113C38.942,9.327,39.103,9.634,39.103,9.962z M37.103,33.469v-22.06L7.944,22.437L37.103,33.469
			z"/>
		<path style="fill:#231F20;" d="M33.653,29.508c-0.006-0.002-0.014-0.002-0.021-0.004c-1.1-0.105-3.121-1.098-3.867-1.48
			c-0.123-0.064-0.123-0.238,0-0.299c0.748-0.383,2.773-1.374,3.861-1.483c0.012-0.002,0.021-0.002,0.033-0.004
			c0.053-0.004,0.104-0.008,0.152-0.008c0.906,0,1.641,0.737,1.641,1.644s-0.734,1.643-1.641,1.643
			C33.761,29.516,33.708,29.512,33.653,29.508"/>
		<path style="fill:#231F20;" d="M33.653,25.021c-0.006,0-0.014,0-0.021-0.002c-1.1-0.105-3.121-1.098-3.867-1.48
			c-0.123-0.063-0.123-0.238,0-0.299c0.748-0.383,2.773-1.373,3.861-1.482c0.012-0.002,0.021-0.002,0.033-0.004
			c0.053-0.004,0.104-0.008,0.152-0.008c0.906,0,1.641,0.736,1.641,1.643s-0.734,1.643-1.641,1.643
			C33.761,25.03,33.708,25.026,33.653,25.021"/>
	</g>
</g>
<g id="Layer_1">
</g>
</svg>
