<?xml version="1.0" encoding="iso-8859-1"?>
<!-- Generator: Adobe Illustrator 16.0.0, SVG Export Plug-In . SVG Version: 6.00 Build 0)  -->
<!DOCTYPE svg PUBLIC "-//W3C//DTD SVG 1.1//EN" "http://www.w3.org/Graphics/SVG/1.1/DTD/svg11.dtd">
<svg version="1.1" xmlns="http://www.w3.org/2000/svg" xmlns:xlink="http://www.w3.org/1999/xlink" x="0px" y="0px"
	 width="43.219px" height="43.217px" viewBox="0 0 43.219 43.217" style="enable-background:new 0 0 43.219 43.217;"
	 xml:space="preserve">
<g id="WestQueen">
	<g>
		<path style="fill:#231F20;" d="M42.19,5.94v33.001c0,0.334-0.168,0.646-0.447,0.832s-0.631,0.219-0.941,0.09l-39.16-16.5
			c-0.371-0.156-0.612-0.52-0.612-0.922s0.241-0.766,0.612-0.922l39.16-16.501c0.311-0.131,0.662-0.098,0.941,0.088
			S42.19,5.604,42.19,5.94z M40.19,37.434V7.446L4.605,22.441L40.19,37.434z"/>
		<path style="fill:#231F20;" d="M36.741,33.486c-0.006,0-0.016,0-0.021-0.002c-1.1-0.105-3.121-1.098-3.869-1.48
			c-0.121-0.063-0.121-0.238,0-0.299c0.75-0.383,2.775-1.373,3.863-1.482c0.01-0.002,0.021-0.002,0.033-0.004
			c0.053-0.004,0.104-0.008,0.15-0.008c0.908,0,1.643,0.734,1.643,1.643c0,0.906-0.734,1.641-1.643,1.641
			C36.849,33.494,36.796,33.492,36.741,33.486"/>
		<path style="fill:#231F20;" d="M36.741,29.002c-0.006,0-0.016,0-0.021-0.002c-1.1-0.105-3.121-1.098-3.869-1.48
			c-0.121-0.064-0.121-0.238,0-0.299c0.75-0.383,2.775-1.373,3.863-1.482c0.01-0.002,0.021-0.002,0.033-0.004
			c0.053-0.004,0.104-0.008,0.15-0.008c0.908,0,1.643,0.736,1.643,1.643s-0.734,1.643-1.643,1.643
			C36.849,29.012,36.796,29.008,36.741,29.002"/>
		<path style="fill:#231F20;" d="M36.741,24.52c-0.006-0.002-0.016-0.002-0.021-0.002c-1.1-0.107-3.121-1.1-3.869-1.482
			c-0.121-0.063-0.121-0.238,0-0.299c0.75-0.383,2.775-1.373,3.863-1.482c0.01-0.002,0.021-0.002,0.033-0.004
			c0.053-0.004,0.104-0.008,0.15-0.008c0.908,0,1.643,0.736,1.643,1.643s-0.734,1.643-1.643,1.643
			C36.849,24.527,36.796,24.523,36.741,24.52"/>
	</g>
</g>
<g id="Layer_1">
</g>
</svg>
