<?xml version="1.0" encoding="iso-8859-1"?>
<!-- Generator: Adobe Illustrator 16.0.0, SVG Export Plug-In . SVG Version: 6.00 Build 0)  -->
<!DOCTYPE svg PUBLIC "-//W3C//DTD SVG 1.1//EN" "http://www.w3.org/Graphics/SVG/1.1/DTD/svg11.dtd">
<svg version="1.1" xmlns="http://www.w3.org/2000/svg" xmlns:xlink="http://www.w3.org/1999/xlink" x="0px" y="0px"
	 width="41.954px" height="40.726px" viewBox="0 0 41.954 40.726" style="enable-background:new 0 0 41.954 40.726;"
	 xml:space="preserve">
<g id="Medium">
	<g>
		<circle style="fill:#231F20;" cx="14.354" cy="31.227" r="1.188"/>
		<path style="fill:#231F20;" d="M10.073,35.287h12.114c0.336,0,0.65-0.165,0.841-0.441c0.189-0.276,0.231-0.63,0.111-0.943
			l-6.239-16.287c-0.151-0.395-0.53-0.655-0.953-0.655c-0.003,0-0.007,0-0.01,0c-0.426,0.004-0.805,0.273-0.949,0.674L9.114,33.922
			c-0.113,0.313-0.066,0.66,0.125,0.932C9.43,35.126,9.741,35.287,10.073,35.287z M15.977,20.907l4.728,12.341h-9.179L15.977,20.907
			z"/>
		<circle style="fill:#231F20;" cx="17.318" cy="31.227" r="1.188"/>
		<path style="fill:#231F20;" d="M40.171,1.566H11.63c-0.26,0-0.509,0.101-0.695,0.282L1.088,11.38
			c-0.188,0.182-0.305,0.437-0.305,0.718v27.627c0,0.553,0.448,1,1,1h28.541c0.271,0,0.516-0.107,0.695-0.281l9.847-9.532
			c0.195-0.188,0.305-0.448,0.305-0.719V2.566C41.171,2.014,40.724,1.566,40.171,1.566z M29.324,38.726H2.783V13.099h26.541V38.726z
			 M29.92,11.099H4.254l7.781-7.532H37.7L29.92,11.099z M39.171,29.77l-7.847,7.596V12.522l7.847-7.596V29.77z"/>
	</g>
</g>
<g id="Layer_1">
</g>
</svg>
