<?xml version="1.0" encoding="iso-8859-1"?>
<!-- Generator: Adobe Illustrator 16.0.0, SVG Export Plug-In . SVG Version: 6.00 Build 0)  -->
<!DOCTYPE svg PUBLIC "-//W3C//DTD SVG 1.1//EN" "http://www.w3.org/Graphics/SVG/1.1/DTD/svg11.dtd">
<svg version="1.1" xmlns="http://www.w3.org/2000/svg" xmlns:xlink="http://www.w3.org/1999/xlink" x="0px" y="0px"
	 width="41.954px" height="40.726px" viewBox="0 0 41.954 40.726" style="enable-background:new 0 0 41.954 40.726;"
	 xml:space="preserve">
<g id="Small">
	<g>
		<g>
			<path style="fill:#1D3160;" d="M440.544,369.767h-28.541c-0.553,0-1-0.447-1-1V341.14c0-0.282,0.117-0.537,0.305-0.719
				l9.847-9.532c0.187-0.181,0.436-0.281,0.695-0.281h28.541c0.553,0,1,0.447,1,1v27.627c0,0.271-0.109,0.53-0.305,0.719
				l-9.845,9.53C441.062,369.658,440.815,369.767,440.544,369.767z M413.003,367.767h26.541V342.14h-26.541V367.767z
				 M441.544,341.563v24.843l7.847-7.596v-24.843L441.544,341.563z M414.474,340.14h25.666l7.78-7.532h-25.666L414.474,340.14z"/>
		</g>
		<g>
			<path style="fill:#1D3160;" d="M425.469,360.209c0,0.656,0.531,1.188,1.188,1.188c0.657,0,1.189-0.531,1.189-1.188
				s-0.532-1.188-1.189-1.188C426,359.021,425.469,359.553,425.469,360.209"/>
		</g>
		<path style="fill:#1D3160;" d="M430.881,364.182h-8.448c-0.329,0-0.638-0.158-0.829-0.426s-0.242-0.61-0.137-0.922l3.917-11.529
			c0.138-0.405,0.514-0.682,0.941-0.691c0.446-0.016,0.817,0.249,0.974,0.646l4.531,11.529c0.123,0.313,0.084,0.669-0.106,0.947
			C431.534,364.016,431.218,364.182,430.881,364.182z M423.856,362.143h5.527l-2.965-7.544L423.856,362.143z"/>
	</g>
	<g>
		<g>
			<path style="fill:#231F20;" d="M30.324,40.726H1.783c-0.552,0-1-0.447-1-1V12.099c0-0.282,0.117-0.537,0.305-0.718l9.847-9.532
				c0.187-0.181,0.436-0.282,0.695-0.282h28.541c0.553,0,1,0.448,1,1v27.627c0,0.271-0.109,0.53-0.305,0.719l-9.847,9.532
				C30.84,40.618,30.595,40.726,30.324,40.726z M2.783,38.726h26.541V13.099H2.783V38.726z M31.324,12.522v24.843l7.847-7.596V4.926
				L31.324,12.522z M4.254,11.099H29.92l7.78-7.532H12.035L4.254,11.099z"/>
		</g>
		<g>
			<path style="fill:#231F20;" d="M15.249,31.168c0,0.656,0.531,1.188,1.188,1.188c0.657,0,1.189-0.531,1.189-1.188
				s-0.532-1.188-1.189-1.188C15.78,29.979,15.249,30.512,15.249,31.168"/>
		</g>
		<path style="fill:#231F20;" d="M20.661,35.141h-8.448c-0.329,0-0.638-0.158-0.829-0.426s-0.243-0.61-0.137-0.922l3.917-11.529
			c0.138-0.405,0.514-0.682,0.942-0.691c0.431-0.025,0.817,0.249,0.973,0.646l4.531,11.529c0.124,0.313,0.083,0.669-0.106,0.947
			C21.314,34.975,20.999,35.141,20.661,35.141z M13.637,33.102h5.527L16.2,25.558L13.637,33.102z"/>
	</g>
</g>
<g id="Layer_1">
</g>
</svg>
