<?xml version="1.0" encoding="iso-8859-1"?>
<!-- Generator: Adobe Illustrator 16.0.0, SVG Export Plug-In . SVG Version: 6.00 Build 0)  -->
<!DOCTYPE svg PUBLIC "-//W3C//DTD SVG 1.1//EN" "http://www.w3.org/Graphics/SVG/1.1/DTD/svg11.dtd">
<svg version="1.1" xmlns="http://www.w3.org/2000/svg" xmlns:xlink="http://www.w3.org/1999/xlink" x="0px" y="0px"
	 width="41.954px" height="40.726px" viewBox="0 0 41.954 40.726" style="enable-background:new 0 0 41.954 40.726;"
	 xml:space="preserve">
<g id="SmallLarge">
	<g>
		<g>
			<g>
				<path style="fill:#231F20;" d="M16.685,32.203c0,0.655-0.531,1.188-1.188,1.188c-0.657,0-1.189-0.532-1.189-1.188
					c0-0.656,0.532-1.188,1.189-1.188C16.153,31.015,16.685,31.547,16.685,32.203"/>
				<path style="fill:#231F20;" d="M19.702,32.203c0,0.655-0.532,1.188-1.188,1.188s-1.188-0.532-1.188-1.188
					c0-0.656,0.532-1.188,1.188-1.188S19.702,31.547,19.702,32.203"/>
				<path style="fill:#231F20;" d="M22.719,32.203c0,0.655-0.531,1.188-1.188,1.188c-0.657,0-1.189-0.532-1.189-1.188
					c0-0.656,0.532-1.188,1.189-1.188C22.188,31.015,22.719,31.547,22.719,32.203"/>
			</g>
			<path style="fill:#231F20;" d="M26.606,36.818H10.277c-0.342,0-0.662-0.171-0.851-0.457c-0.189-0.285-0.222-0.646-0.088-0.962
				l8.236-19.355c0.16-0.376,0.53-0.621,0.938-0.621c0.001,0,0.002,0,0.003,0c0.41,0.001,0.779,0.248,0.938,0.626l8.093,19.355
				c0.131,0.314,0.097,0.675-0.093,0.959C27.267,36.648,26.947,36.818,26.606,36.818z M11.82,34.779h13.254l-6.569-15.711
				L11.82,34.779z"/>
		</g>
		<path style="fill:#231F20;" d="M30.324,40.726H1.783c-0.552,0-1-0.447-1-1V12.099c0-0.282,0.117-0.537,0.305-0.718l9.847-9.532
			c0.187-0.181,0.436-0.282,0.695-0.282h28.541c0.553,0,1,0.448,1,1v27.627c0,0.271-0.109,0.53-0.305,0.719l-9.847,9.532
			C30.84,40.618,30.595,40.726,30.324,40.726z M2.783,38.726h26.541V13.099H2.783V38.726z M31.324,12.522v24.843l7.847-7.596V4.926
			L31.324,12.522z M4.254,11.099H29.92l7.78-7.532H12.035L4.254,11.099z"/>
		<g>
			<g>
				<path style="fill:#231F20;" d="M8.732,18.589c0-0.656,0.531-1.188,1.188-1.188c0.657,0,1.189,0.531,1.189,1.188
					s-0.532,1.188-1.189,1.188C9.264,19.777,8.732,19.245,8.732,18.589"/>
			</g>
			<path style="fill:#231F20;" d="M9.613,28.185c-0.008,0-0.016,0-0.024,0c-0.428-0.01-0.804-0.286-0.942-0.691L4.73,15.964
				c-0.106-0.312-0.055-0.655,0.137-0.922c0.191-0.267,0.5-0.426,0.829-0.426h8.448c0.337,0,0.653,0.167,0.843,0.446
				s0.23,0.633,0.106,0.947l-4.531,11.529C10.409,27.929,10.032,28.185,9.613,28.185z M7.12,16.656l2.563,7.543l2.964-7.543H7.12z"
				/>
		</g>
	</g>
</g>
<g id="Layer_1">
</g>
</svg>
