<?xml version="1.0" encoding="iso-8859-1"?>
<!-- Generator: Adobe Illustrator 16.0.0, SVG Export Plug-In . SVG Version: 6.00 Build 0)  -->
<!DOCTYPE svg PUBLIC "-//W3C//DTD SVG 1.1//EN" "http://www.w3.org/Graphics/SVG/1.1/DTD/svg11.dtd">
<svg version="1.1" xmlns="http://www.w3.org/2000/svg" xmlns:xlink="http://www.w3.org/1999/xlink" x="0px" y="0px"
	 width="41.954px" height="40.726px" viewBox="0 0 41.954 40.726" style="enable-background:new 0 0 41.954 40.726;"
	 xml:space="preserve">
<g id="MediumLarge">
	<g>
		<g>
			<g>
				<path style="fill:#231F20;" d="M17.864,33.31c0,0.655-0.531,1.188-1.188,1.188c-0.657,0-1.189-0.532-1.189-1.188
					c0-0.656,0.532-1.188,1.189-1.188C17.333,32.121,17.864,32.653,17.864,33.31"/>
				<path style="fill:#231F20;" d="M20.882,33.31c0,0.655-0.532,1.188-1.188,1.188s-1.188-0.532-1.188-1.188
					c0-0.656,0.532-1.188,1.188-1.188S20.882,32.653,20.882,33.31"/>
				<path style="fill:#231F20;" d="M23.898,33.31c0,0.655-0.531,1.188-1.188,1.188c-0.657,0-1.189-0.532-1.189-1.188
					c0-0.656,0.532-1.188,1.189-1.188C23.367,32.121,23.898,32.653,23.898,33.31"/>
			</g>
			<path style="fill:#231F20;" d="M27.786,37.925H11.457c-0.342,0-0.662-0.171-0.851-0.457c-0.189-0.285-0.222-0.646-0.088-0.962
				l8.236-19.355c0.16-0.376,0.53-0.621,0.938-0.621c0.001,0,0.002,0,0.003,0c0.41,0.001,0.779,0.248,0.938,0.626l8.093,19.355
				c0.131,0.314,0.097,0.675-0.093,0.959C28.446,37.755,28.127,37.925,27.786,37.925z M13,35.886h13.254l-6.569-15.711L13,35.886z"
				/>
		</g>
		<path style="fill:#231F20;" d="M30.324,40.726H1.783c-0.552,0-1-0.447-1-1V12.099c0-0.282,0.117-0.537,0.305-0.718l9.847-9.532
			c0.187-0.181,0.436-0.282,0.695-0.282h28.541c0.553,0,1,0.448,1,1v27.627c0,0.271-0.109,0.53-0.305,0.719l-9.847,9.532
			C30.84,40.618,30.595,40.726,30.324,40.726z M2.783,38.726h26.541V13.099H2.783V38.726z M31.324,12.522v24.843l7.847-7.596V4.926
			L31.324,12.522z M4.254,11.099H29.92l7.78-7.532H12.035L4.254,11.099z"/>
		<g>
			<g>
				<path style="fill:#231F20;" d="M10.335,18.638c0-0.656-0.532-1.188-1.188-1.188s-1.188,0.532-1.188,1.188
					s0.532,1.188,1.188,1.188S10.335,19.294,10.335,18.638"/>
			</g>
			<path style="fill:#231F20;" d="M10.74,32.903c-0.003,0-0.007,0-0.01,0c-0.426-0.004-0.805-0.272-0.949-0.674L3.906,15.943
				c-0.113-0.313-0.066-0.661,0.125-0.933c0.191-0.272,0.502-0.434,0.834-0.434H16.98c0.336,0,0.65,0.166,0.84,0.442
				c0.19,0.277,0.232,0.629,0.112,0.943l-6.24,16.288C11.542,32.644,11.163,32.903,10.74,32.903z M6.317,16.617l4.452,12.341
				l4.729-12.341H6.317z"/>
			<g>
				<path style="fill:#231F20;" d="M13.3,18.638c0-0.656-0.532-1.188-1.188-1.188c-0.657,0-1.188,0.532-1.188,1.188
					s0.531,1.188,1.188,1.188C12.768,19.825,13.3,19.294,13.3,18.638"/>
			</g>
		</g>
	</g>
</g>
<g id="Layer_1">
</g>
</svg>
