<?xml version="1.0" encoding="iso-8859-1"?>
<!-- Generator: Adobe Illustrator 16.0.0, SVG Export Plug-In . SVG Version: 6.00 Build 0)  -->
<!DOCTYPE svg PUBLIC "-//W3C//DTD SVG 1.1//EN" "http://www.w3.org/Graphics/SVG/1.1/DTD/svg11.dtd">
<svg version="1.1" xmlns="http://www.w3.org/2000/svg" xmlns:xlink="http://www.w3.org/1999/xlink" x="0px" y="0px" width="23.55px"
	 height="24.287px" viewBox="0 0 23.55 24.287" style="enable-background:new 0 0 23.55 24.287;" xml:space="preserve">
<g id="D10">
	<g>
		<path d="M22.858,8.173L12.051,1.005c0,0-0.001,0-0.002,0c-0.065-0.044-0.146-0.061-0.227-0.069
			c-0.054-0.005-0.102,0.006-0.154,0.019c-0.058,0.013-0.118,0.018-0.167,0.05c-0.001,0.001-0.002,0-0.003,0.001L0.69,8.173
			C0.551,8.266,0.467,8.422,0.467,8.59v8.029c0,0.168,0.084,0.324,0.224,0.417l10.808,7.168c0.009,0.006,0.021,0.004,0.03,0.009
			c0.074,0.043,0.155,0.074,0.246,0.074c0.001,0,0.001,0,0.002,0c0.091,0,0.172-0.031,0.245-0.074
			c0.009-0.005,0.021-0.003,0.029-0.009l10.808-7.168c0.14-0.093,0.224-0.249,0.224-0.417V8.59
			C23.082,8.422,22.998,8.266,22.858,8.173z M22.082,15.853l-4.252-1.871L12.916,2.778l9.166,6.08V15.853z M16.781,14.08
			l-5.028,1.917l-4.988-1.998l5.008-11.336L16.781,14.08z M6.11,14.815l5.139,2.058l0.021,5.98L1.993,16.7L6.11,14.815z
			 M12.249,16.878l5.188-1.978l4.106,1.808l-9.271,6.15L12.249,16.878z M10.627,2.782L5.718,13.896L1.467,15.84V8.858L10.627,2.782z
			"/>
		<path d="M9.753,11.442l0.64-0.357v2.809H9.616c-0.283,0-0.283,0.378,0,0.378h1.9c0.283,0,0.283-0.378,0-0.378h-0.725v-3.086
			c0-0.163-0.089-0.236-0.21-0.236c-0.053,0-0.131,0.031-0.241,0.094l-0.74,0.426c-0.1,0.058-0.147,0.126-0.147,0.204
			C9.453,11.447,9.627,11.521,9.753,11.442z"/>
		<path d="M12.938,14.172c0.173,0.104,0.373,0.157,0.599,0.157s0.42-0.053,0.593-0.157c0.352-0.216,0.546-0.599,0.651-1.039
			c0.104-0.441,0.104-0.966,0-1.407c-0.105-0.44-0.3-0.818-0.651-1.028c-0.173-0.11-0.367-0.163-0.593-0.163
			s-0.426,0.053-0.599,0.163c-0.341,0.21-0.541,0.588-0.646,1.028c-0.105,0.441-0.105,0.966,0,1.407
			C12.397,13.573,12.598,13.956,12.938,14.172z M12.854,11.327c0.163-0.278,0.389-0.42,0.683-0.42s0.52,0.136,0.677,0.414
			c0.163,0.278,0.241,0.646,0.241,1.107s-0.078,0.835-0.241,1.113c-0.157,0.278-0.383,0.414-0.677,0.414s-0.52-0.142-0.683-0.42
			c-0.163-0.277-0.241-0.65-0.241-1.107C12.613,11.973,12.691,11.604,12.854,11.327z"/>
	</g>
</g>
<g id="Layer_1">
</g>
</svg>
