<?xml version="1.0" encoding="iso-8859-1"?>
<!-- Generator: Adobe Illustrator 16.0.0, SVG Export Plug-In . SVG Version: 6.00 Build 0)  -->
<!DOCTYPE svg PUBLIC "-//W3C//DTD SVG 1.1//EN" "http://www.w3.org/Graphics/SVG/1.1/DTD/svg11.dtd">
<svg version="1.1" xmlns="http://www.w3.org/2000/svg" xmlns:xlink="http://www.w3.org/1999/xlink" x="0px" y="0px" width="23.55px"
	 height="24.287px" viewBox="0 0 23.55 24.287" style="enable-background:new 0 0 23.55 24.287;" xml:space="preserve">
<g id="D100">
	<g>
		<path d="M22.858,8.173L12.051,1.005c0,0-0.001,0-0.002,0c-0.065-0.044-0.146-0.061-0.227-0.069
			c-0.054-0.005-0.102,0.006-0.154,0.019c-0.058,0.013-0.118,0.018-0.167,0.05c-0.001,0.001-0.002,0-0.003,0.001L0.69,8.173
			C0.551,8.266,0.467,8.422,0.467,8.59v8.029c0,0.168,0.084,0.324,0.224,0.417l10.808,7.168c0.01,0.006,0.021,0.004,0.03,0.009
			c0.074,0.043,0.155,0.074,0.246,0.074c0.001,0,0.001,0,0.002,0c0.091,0,0.172-0.031,0.245-0.074
			c0.009-0.005,0.021-0.003,0.029-0.009l10.808-7.168c0.14-0.093,0.224-0.249,0.224-0.417V8.59
			C23.082,8.422,22.998,8.266,22.858,8.173z M1.467,8.858l9.16-6.076L5.718,13.896L1.467,15.84V8.858z M1.993,16.7l4.117-1.885
			l5.139,2.058l0.022,5.98L1.993,16.7z M11.753,15.997l-4.989-1.998l5.009-11.336l5.009,11.417L11.753,15.997z M12.271,22.858
			l-0.022-5.98l5.188-1.978l4.106,1.808L12.271,22.858z M22.082,15.853l-4.252-1.871L12.916,2.778l9.166,6.08V15.853z"/>
		<path d="M13.314,8.868c-0.149-0.086-0.271-0.051-0.364,0.113l-2.764,4.514c-0.093,0.164-0.071,0.285,0.064,0.379
			c0.136,0.078,0.257,0.035,0.357-0.121l2.764-4.514C13.472,9.075,13.45,8.954,13.314,8.868z"/>
		<path d="M11.272,10.347c0.179-0.18,0.264-0.4,0.264-0.65s-0.085-0.465-0.264-0.643S10.88,8.782,10.63,8.782
			c-0.258,0-0.479,0.094-0.657,0.271S9.708,9.446,9.708,9.696s0.086,0.471,0.265,0.65c0.179,0.178,0.399,0.264,0.657,0.264
			C10.88,10.61,11.094,10.524,11.272,10.347z M10.18,9.696c0-0.135,0.043-0.25,0.136-0.336c0.278-0.277,0.75-0.1,0.75,0.336
			c0,0.279-0.207,0.465-0.436,0.465C10.394,10.161,10.18,9.976,10.18,9.696z"/>
		<path d="M13.593,12.388c-0.178-0.178-0.393-0.271-0.643-0.271c-0.257,0-0.479,0.094-0.656,0.271
			c-0.179,0.18-0.265,0.393-0.265,0.65c0,0.25,0.086,0.465,0.265,0.643c0.178,0.18,0.399,0.264,0.656,0.264
			c0.25,0,0.457-0.084,0.636-0.264c0.179-0.178,0.271-0.393,0.271-0.643C13.857,12.78,13.771,12.567,13.593,12.388z M12.95,13.503
			c-0.235,0-0.449-0.186-0.449-0.465c0-0.277,0.214-0.471,0.449-0.471c0.229,0,0.436,0.193,0.436,0.471
			C13.386,13.317,13.179,13.503,12.95,13.503z"/>
	</g>
</g>
<g id="Layer_1">
</g>
</svg>
