<?xml version="1.0" encoding="iso-8859-1"?>
<!-- Generator: Adobe Illustrator 16.0.0, SVG Export Plug-In . SVG Version: 6.00 Build 0)  -->
<!DOCTYPE svg PUBLIC "-//W3C//DTD SVG 1.1//EN" "http://www.w3.org/Graphics/SVG/1.1/DTD/svg11.dtd">
<svg version="1.1" xmlns="http://www.w3.org/2000/svg" xmlns:xlink="http://www.w3.org/1999/xlink" x="0px" y="0px"
	 width="27.156px" height="28.446px" viewBox="0 0 27.156 28.446" style="enable-background:new 0 0 27.156 28.446;"
	 xml:space="preserve">
<g id="D12">
	<g>
		<path d="M26.608,10.698c0-0.105-0.033-0.209-0.096-0.294l-4.786-6.587c-0.062-0.085-0.149-0.149-0.25-0.182l-7.745-2.517
			c-0.1-0.033-0.209-0.033-0.309,0L5.679,3.636C5.578,3.668,5.49,3.732,5.429,3.817l-4.786,6.588
			c-0.063,0.086-0.096,0.188-0.096,0.294v8.144c0,0.105,0.033,0.209,0.096,0.294l4.787,6.587c0.062,0.085,0.149,0.149,0.25,0.182
			l7.744,2.517c0.05,0.017,0.103,0.024,0.154,0.024s0.104-0.008,0.154-0.024l7.744-2.517c0.101-0.032,0.188-0.097,0.25-0.182
			l4.787-6.588c0.063-0.086,0.096-0.188,0.096-0.294L26.608,10.698z M21.014,4.537l4.286,5.898l-3.979,1.293l-7.242-5.262
			l-0.001-4.185L21.014,4.537z M13.578,7.34l7.066,5.135l-2.699,8.308H9.21l-2.699-8.308L13.578,7.34z M6.142,4.537l6.936-2.255
			l0.001,4.185l-7.243,5.262l-3.979-1.292L6.142,4.537z M1.547,18.681v-7.293l3.979,1.292l2.766,8.515l-2.458,3.385L1.547,18.681z
			 M13.578,27.421l-6.936-2.254l2.459-3.385h8.952l2.459,3.385L13.578,27.421z M21.322,24.579l-2.46-3.385l2.767-8.515l3.979-1.293
			l0.001,7.293L21.322,24.579z"/>
		<path d="M9.656,13.251l1.048-0.584v4.597H9.433c-0.464,0-0.464,0.618,0,0.618h3.109c0.464,0,0.464-0.618,0-0.618h-1.186v-5.052
			c0-0.267-0.146-0.387-0.344-0.387c-0.085,0-0.214,0.052-0.395,0.155l-1.212,0.695c-0.163,0.095-0.24,0.206-0.24,0.335
			C9.166,13.26,9.449,13.38,9.656,13.251z"/>
		<path d="M16.229,14.445l-0.421,0.284l-0.206,0.137c-1.314,0.885-1.916,1.692-1.916,2.612c0,0.214,0.172,0.403,0.387,0.403h3.196
			c0.473,0,0.473-0.618,0-0.618h-2.887c0.034-0.585,0.593-1.246,1.349-1.728l0.387-0.249c0.971-0.627,1.443-1.143,1.443-1.907
			c0-0.507-0.181-0.901-0.55-1.186c-0.361-0.283-0.799-0.429-1.306-0.429c-0.825,0-1.495,0.472-1.848,1.1
			c-0.103,0.18-0.068,0.378,0.069,0.472c0.129,0.104,0.352,0.061,0.455-0.12c0.31-0.558,0.747-0.842,1.323-0.842
			c0.722,0,1.193,0.387,1.193,0.997c0,0.309-0.086,0.558-0.352,0.799C16.418,14.291,16.314,14.386,16.229,14.445z"/>
	</g>
</g>
<g id="Layer_1">
</g>
</svg>
