<?xml version="1.0" encoding="iso-8859-1"?>
<!-- Generator: Adobe Illustrator 16.0.0, SVG Export Plug-In . SVG Version: 6.00 Build 0)  -->
<!DOCTYPE svg PUBLIC "-//W3C//DTD SVG 1.1//EN" "http://www.w3.org/Graphics/SVG/1.1/DTD/svg11.dtd">
<svg version="1.1" xmlns="http://www.w3.org/2000/svg" xmlns:xlink="http://www.w3.org/1999/xlink" x="0px" y="0px"
	 width="26.404px" height="30.039px" viewBox="0 0 26.404 30.039" style="enable-background:new 0 0 26.404 30.039;"
	 xml:space="preserve">
<g id="D20">
	<g>
		<path d="M25.822,8.697c-0.002-0.064-0.021-0.124-0.048-0.184c-0.008-0.018-0.008-0.036-0.017-0.052
			c-0.001-0.002-0.001-0.004-0.002-0.006c-0.042-0.07-0.102-0.127-0.17-0.168c-0.002-0.002-0.003-0.005-0.006-0.007L13.555,1.224
			c-0.153-0.089-0.343-0.092-0.5-0.003L0.931,8.104C0.929,8.105,0.928,8.108,0.925,8.11C0.857,8.15,0.797,8.204,0.754,8.273
			C0.753,8.275,0.753,8.278,0.751,8.281c-0.01,0.016-0.01,0.036-0.019,0.054c-0.026,0.058-0.046,0.116-0.049,0.18
			C0.683,8.521,0.678,8.527,0.678,8.535L0.578,22.478c-0.001,0.179,0.093,0.345,0.247,0.436l12.024,7.058
			c0.078,0.046,0.165,0.068,0.253,0.068c0.081,0,0.158-0.023,0.229-0.061c0.005-0.003,0.012-0.002,0.018-0.005l12.125-6.884
			c0.155-0.088,0.252-0.252,0.253-0.431l0.101-13.942C25.827,8.71,25.822,8.704,25.822,8.697z M5.766,19.308L1.877,8.978
			l10.409-0.942L5.766,19.308z M13.203,8.449l6.665,11.522H6.538L13.203,8.449z M19.659,20.972l-6.552,7.785l-6.38-7.785H19.659z
			 M20.546,19.148l-6.419-11.1l10.486,1.093L20.546,19.148z M13.71,7l0.077-4.48l9.297,5.457L13.71,7z M12.71,6.992L3.435,7.833
			l9.353-5.311L12.71,6.992z M5.036,20.204l-3.452,1.511l0.075-10.48L5.036,20.204z M5.524,21.082l5.416,6.608l-8.764-5.144
			L5.524,21.082z M20.817,21.149l3.32,1.55l-8.855,5.027L20.817,21.149z M21.19,20.22l3.618-8.903l-0.076,10.556L21.19,20.22z"/>
		<path d="M12.452,18.499h-2.051c0.024-0.415,0.421-0.885,0.958-1.227l0.274-0.178c0.689-0.445,1.025-0.812,1.025-1.354
			c0-0.36-0.128-0.641-0.391-0.843c-0.256-0.201-0.567-0.305-0.928-0.305c-0.586,0-1.062,0.336-1.313,0.781
			c-0.072,0.128-0.049,0.269,0.049,0.336c0.092,0.073,0.251,0.043,0.324-0.086c0.22-0.396,0.531-0.598,0.939-0.598
			c0.513,0,0.849,0.274,0.849,0.708c0,0.22-0.062,0.396-0.25,0.567c-0.092,0.086-0.165,0.152-0.226,0.195l-0.3,0.201l-0.146,0.098
			c-0.934,0.629-1.36,1.203-1.36,1.855c0,0.152,0.121,0.287,0.274,0.287h2.271C12.788,18.938,12.788,18.499,12.452,18.499z"/>
		<path d="M16.471,15.979c-0.122-0.513-0.349-0.952-0.757-1.196c-0.201-0.129-0.428-0.189-0.689-0.189
			c-0.263,0-0.495,0.061-0.696,0.189c-0.397,0.244-0.629,0.684-0.751,1.196s-0.122,1.123,0,1.636s0.354,0.958,0.751,1.208
			c0.201,0.122,0.434,0.184,0.696,0.184c0.262,0,0.488-0.062,0.689-0.184c0.408-0.25,0.635-0.695,0.757-1.208
			S16.593,16.491,16.471,15.979z M15.812,18.09c-0.184,0.323-0.445,0.482-0.787,0.482s-0.604-0.165-0.794-0.488
			s-0.281-0.757-0.281-1.288s0.091-0.958,0.281-1.281c0.189-0.324,0.452-0.488,0.794-0.488s0.604,0.158,0.787,0.482
			c0.189,0.323,0.28,0.75,0.28,1.287S16.001,17.767,15.812,18.09z"/>
	</g>
</g>
<g id="Layer_1">
</g>
</svg>
