<?xml version="1.0" encoding="iso-8859-1"?>
<!-- Generator: Adobe Illustrator 16.0.0, SVG Export Plug-In . SVG Version: 6.00 Build 0)  -->
<!DOCTYPE svg PUBLIC "-//W3C//DTD SVG 1.1//EN" "http://www.w3.org/Graphics/SVG/1.1/DTD/svg11.dtd">
<svg version="1.1" xmlns="http://www.w3.org/2000/svg" xmlns:xlink="http://www.w3.org/1999/xlink" x="0px" y="0px"
	 width="27.347px" height="28.749px" viewBox="0 0 27.347 28.749" style="enable-background:new 0 0 27.347 28.749;"
	 xml:space="preserve">
<g id="D30">
	<g>
		<path style="fill:#231F20;" d="M12.073,15.257c0.15-0.059,0.293-0.183,0.431-0.371c0.143-0.189,0.215-0.404,0.215-0.651
			c0-0.392-0.144-0.691-0.424-0.906s-0.612-0.325-0.99-0.325c-0.456,0-0.854,0.149-1.192,0.449
			c-0.137,0.124-0.156,0.248-0.046,0.365c0.111,0.117,0.229,0.117,0.365-0.007c0.267-0.229,0.566-0.346,0.899-0.346
			c0.228,0,0.43,0.065,0.612,0.189c0.188,0.124,0.28,0.319,0.28,0.573c0,0.541-0.431,0.854-1.082,0.854h-0.065
			c-0.182,0-0.273,0.078-0.273,0.241c0,0.156,0.092,0.234,0.273,0.234h0.137c0.652,0,1.121,0.268,1.121,0.821
			c0,0.573-0.424,0.873-0.978,0.873c-0.403,0-0.749-0.124-1.036-0.378c-0.137-0.124-0.254-0.124-0.364-0.007
			c-0.111,0.117-0.092,0.241,0.046,0.365c0.338,0.306,0.854,0.481,1.322,0.481c0.424,0,0.782-0.117,1.068-0.345
			c0.293-0.234,0.437-0.567,0.437-0.997C12.829,15.824,12.497,15.433,12.073,15.257z"/>
		<path style="fill:#231F20;" d="M16.742,14.481c-0.13-0.547-0.371-1.017-0.808-1.277c-0.215-0.137-0.456-0.201-0.736-0.201
			s-0.527,0.064-0.743,0.201c-0.423,0.261-0.671,0.73-0.801,1.277c-0.131,0.548-0.131,1.199,0,1.746
			c0.13,0.548,0.378,1.023,0.801,1.29c0.216,0.131,0.463,0.195,0.743,0.195s0.521-0.064,0.736-0.195
			c0.437-0.267,0.678-0.742,0.808-1.29C16.873,15.681,16.873,15.029,16.742,14.481z M16.039,16.736
			c-0.196,0.345-0.476,0.515-0.841,0.515s-0.646-0.176-0.847-0.521c-0.202-0.346-0.3-0.808-0.3-1.375c0-0.566,0.098-1.022,0.3-1.368
			c0.201-0.346,0.481-0.521,0.847-0.521s0.645,0.17,0.841,0.515c0.201,0.346,0.3,0.802,0.3,1.375S16.24,16.391,16.039,16.736z"/>
		<path style="fill:#231F20;" d="M26.794,15.318c0-0.011-0.005-0.019-0.006-0.029c-0.001-0.015,0.002-0.03,0-0.046l-1.134-7.425
			c0-0.001,0-0.001,0-0.002V7.815c-0.01-0.063-0.031-0.123-0.063-0.178c-0.005-0.008-0.014-0.014-0.019-0.021
			c-0.028-0.042-0.059-0.083-0.099-0.115L20.22,3.276c-0.049-0.039-0.104-0.069-0.164-0.088l-6.594-2.061
			c-0.008-0.002-0.015,0.003-0.022,0.001c-0.018-0.005-0.033-0.013-0.051-0.015c-0.017-0.003-0.033-0.003-0.05-0.004
			c-0.009,0-0.017-0.005-0.026-0.005c-0.001,0-0.001,0-0.002,0c-0.018,0-0.033,0.009-0.051,0.011c-0.02,0.002-0.04,0-0.06,0.005
			c-0.018,0.004-0.033,0.011-0.051,0.017c-0.005,0.002-0.012-0.001-0.017,0.001L7.261,3.405c-0.052,0.021-0.1,0.049-0.142,0.084
			L1.968,7.816c-0.014,0.012-0.021,0.027-0.033,0.04c-0.019,0.019-0.035,0.038-0.051,0.06C1.863,7.945,1.848,7.977,1.834,8.01
			c-0.01,0.023-0.02,0.047-0.025,0.071c-0.003,0.012-0.01,0.021-0.012,0.032l-1.236,7.119c-0.003,0.016,0.002,0.03,0,0.046
			c-0.001,0.014-0.008,0.025-0.008,0.04s0.007,0.027,0.009,0.042c0.001,0.018-0.003,0.035,0,0.053l1.236,6.378
			c0.001,0.004,0.005,0.007,0.006,0.011c0.019,0.088,0.063,0.164,0.124,0.229c0.006,0.007,0.006,0.018,0.013,0.024l4.121,4.018
			c0.05,0.049,0.11,0.087,0.176,0.111l6.902,2.535c0.002,0.001,0.005,0,0.007,0.001c0.054,0.02,0.109,0.029,0.166,0.029
			c0.051,0,0.102-0.008,0.151-0.023l6.696-2.123c0.05-0.016,0.098-0.04,0.141-0.07l5.151-3.709c0.004-0.003,0.006-0.008,0.01-0.011
			c0.048-0.037,0.091-0.08,0.122-0.132c0.014-0.021,0.017-0.046,0.026-0.068c0.017-0.036,0.035-0.071,0.042-0.111
			c0-0.002,0.002-0.003,0.002-0.005l1.134-7.099c0.003-0.017-0.001-0.033,0-0.05C26.789,15.337,26.794,15.329,26.794,15.318z
			 M21.083,22.942l-7.267,4.415l0.029-6.085l7.93-4.984L21.083,22.942z M2.713,21.255l-1.054-5.437l2.181,0.001l1.212,5.79
			L2.713,21.255z M2.717,8.657l1.977-0.204l-0.883,6.366l-2.163-0.001L2.717,8.657z M21.08,7.25l0.701,7.104l-7.936-4.988
			l-0.029-6.836L21.08,7.25z M13.346,20.406L5.19,15.319l8.155-5.088l8.094,5.088L13.346,20.406z M12.846,9.365L4.888,14.33
			l0.856-6.171l7.072-5.532L12.846,9.365z M6.141,21.932l-1.166-5.568l7.871,4.909l-0.028,5.947L6.141,21.932z M22.832,14.819
			l-0.709-7.193l2.593,0.667l0.996,6.525L22.832,14.819z M23.043,6.829l-1.284-0.33l-5.127-3.333l3.035,0.949L23.043,6.829z
			 M7.698,4.309l2.66-1.026L5.082,7.408L3.857,7.535L7.698,4.309z M3.751,22.423l1.731,0.263l5.074,4.019l-3.874-1.423L3.751,22.423
			z M19.781,25.674l-2.648,0.84l4.614-2.804l1.116-0.255L19.781,25.674z M24.72,22.005l-2.596,0.593l0.705-6.778l2.879-0.001
			L24.72,22.005z"/>
	</g>
</g>
<g id="Layer_1">
</g>
</svg>
