<?xml version="1.0" encoding="iso-8859-1"?>
<!-- Generator: Adobe Illustrator 16.0.0, SVG Export Plug-In . SVG Version: 6.00 Build 0)  -->
<!DOCTYPE svg PUBLIC "-//W3C//DTD SVG 1.1//EN" "http://www.w3.org/Graphics/SVG/1.1/DTD/svg11.dtd">
<svg version="1.1" xmlns="http://www.w3.org/2000/svg" xmlns:xlink="http://www.w3.org/1999/xlink" x="0px" y="0px"
	 width="28.426px" height="28.362px" viewBox="0 0 28.426 28.362" style="enable-background:new 0 0 28.426 28.362;"
	 xml:space="preserve">
<g id="D4">
	<g>
		<path d="M27.78,16.173L16.613,1.292l-0.016,0.012c-0.086-0.113-0.202-0.2-0.348-0.211c-0.189-0.019-0.375,0.082-0.47,0.249
			L0.613,27.612c-0.09,0.154-0.09,0.346,0,0.5c0.089,0.154,0.254,0.25,0.433,0.25H26.54c0.165,0,0.32-0.082,0.413-0.219
			c0.05-0.074,0.074-0.158,0.081-0.244h0.005l0.84-11.39C27.888,16.389,27.853,16.27,27.78,16.173z M1.912,27.362L16.127,2.74
			l9.68,24.622H1.912z M26.202,25.636L18.03,4.847l8.837,11.776L26.202,25.636z"/>
		<path d="M15.723,10.399L9.15,19.907c-0.191,0.287-0.298,0.553-0.298,0.773c0,0.642,0.341,0.951,1.043,0.951h5.955v3.073
			c0,0.641,0.276,0.95,0.809,0.95c0.531,0,0.809-0.31,0.809-0.95v-3.073h1.403c0.574,0,0.872-0.266,0.872-0.796
			c0-0.531-0.298-0.797-0.872-0.797h-1.403v-8.977c0-0.729-0.319-1.105-0.937-1.105C16.19,9.957,15.914,10.112,15.723,10.399z
			 M15.85,20.039h-5.019l5.019-7.186V20.039z"/>
	</g>
</g>
<g id="Layer_1">
</g>
</svg>
