<?xml version="1.0" encoding="iso-8859-1"?>
<!-- Generator: Adobe Illustrator 16.0.0, SVG Export Plug-In . SVG Version: 6.00 Build 0)  -->
<!DOCTYPE svg PUBLIC "-//W3C//DTD SVG 1.1//EN" "http://www.w3.org/Graphics/SVG/1.1/DTD/svg11.dtd">
<svg version="1.1" xmlns="http://www.w3.org/2000/svg" xmlns:xlink="http://www.w3.org/1999/xlink" x="0px" y="0px"
	 width="23.176px" height="22.497px" viewBox="0 0 23.176 22.497" style="enable-background:new 0 0 23.176 22.497;"
	 xml:space="preserve">
<g id="D6">
	<g>
		<path style="fill:#231F20;" d="M9.016,20.011c0.863,0,1.627-0.314,2.305-0.943c0.677-0.644,1.008-1.482,1.008-2.545
			c0-1.032-0.331-1.871-0.994-2.515c-0.648-0.644-1.426-0.958-2.318-0.958c-1.037,0-2.104,0.554-2.637,1.587
			c-0.043-1.287,0.188-2.335,0.706-3.158s1.195-1.228,2.031-1.228c0.677,0,1.238,0.239,1.714,0.733
			c0.273,0.284,0.591,0.27,0.807,0.045c0.245-0.255,0.23-0.539-0.058-0.839c-0.663-0.673-1.483-1.003-2.463-1.003
			c-1.167,0-2.089,0.479-2.766,1.452c-0.677,0.974-1.009,2.261-1.009,3.862c0,1.661,0.332,3.009,0.994,4.012
			S7.892,20.011,9.016,20.011z M7.474,14.786c0.433-0.434,0.951-0.658,1.542-0.658c0.604,0,1.123,0.225,1.555,0.658
			c0.433,0.435,0.648,1.003,0.648,1.736c0,0.778-0.216,1.377-0.648,1.797c-0.417,0.419-0.922,0.628-1.483,0.628
			c-0.634,0-1.167-0.239-1.599-0.703S6.84,17.196,6.84,16.508C6.84,15.804,7.057,15.221,7.474,14.786z"/>
		<path style="fill:#231F20;" d="M22.191,0.865H6.424c-0.143,0-0.28,0.055-0.383,0.155l-5.44,5.267
			c-0.104,0.101-0.168,0.24-0.168,0.396v15.261c0,0.306,0.247,0.553,0.553,0.553h15.767c0.149,0,0.284-0.061,0.384-0.155l5.44-5.266
			c0.106-0.104,0.167-0.248,0.167-0.396V1.417C22.743,1.113,22.496,0.865,22.191,0.865z M16.199,21.393H1.537V7.235h14.662V21.393z
			 M16.528,6.131H2.35L6.648,1.97h14.178L16.528,6.131z M21.639,16.444l-4.335,4.196V6.917l4.335-4.195V16.444z"/>
	</g>
</g>
<g id="Layer_1">
</g>
</svg>
