<?xml version="1.0" encoding="iso-8859-1"?>
<!-- Generator: Adobe Illustrator 16.0.0, SVG Export Plug-In . SVG Version: 6.00 Build 0)  -->
<!DOCTYPE svg PUBLIC "-//W3C//DTD SVG 1.1//EN" "http://www.w3.org/Graphics/SVG/1.1/DTD/svg11.dtd">
<svg version="1.1" xmlns="http://www.w3.org/2000/svg" xmlns:xlink="http://www.w3.org/1999/xlink" x="0px" y="0px"
	 width="29.434px" height="33.627px" viewBox="0 0 29.434 33.627" style="enable-background:new 0 0 29.434 33.627;"
	 xml:space="preserve">
<g id="D8">
	<g>
		<path d="M28.787,9.621c0-0.179-0.096-0.344-0.25-0.433l-13.57-7.834c-0.019-0.011-0.039-0.012-0.058-0.02
			c-0.033-0.014-0.064-0.026-0.1-0.033c-0.023-0.004-0.045-0.007-0.068-0.008c-0.018-0.001-0.033-0.001-0.051,0
			c-0.023,0.002-0.045,0.004-0.068,0.008c-0.035,0.007-0.065,0.02-0.099,0.033c-0.02,0.009-0.041,0.01-0.06,0.021
			c-0.001,0.001-0.001,0.001-0.002,0.002L0.896,9.188c-0.154,0.089-0.25,0.254-0.25,0.433v15.67c0,0.021,0.01,0.04,0.012,0.061
			c0.005,0.034,0.01,0.067,0.021,0.101c0.008,0.023,0.018,0.044,0.028,0.065c0.008,0.015,0.015,0.027,0.023,0.04
			c0.013,0.021,0.026,0.039,0.042,0.057c0.023,0.027,0.051,0.049,0.08,0.07c0.016,0.012,0.026,0.029,0.044,0.039l13.57,7.836
			c0.077,0.045,0.164,0.067,0.25,0.067s0.173-0.022,0.25-0.067l13.57-7.836c0.012-0.007,0.017-0.021,0.028-0.028
			c0.05-0.034,0.091-0.075,0.126-0.126c0.012-0.018,0.025-0.032,0.035-0.052c0.035-0.068,0.061-0.144,0.061-0.227V9.621z
			 M27.787,23.132L16.103,3.164L27.787,9.91V23.132z M27.599,24.791H2.012L14.72,2.782L27.599,24.791z M13.352,3.152L1.646,23.426
			V9.91L13.352,3.152z M14.717,32.55L3.013,25.791h23.408L14.717,32.55z"/>
		<path d="M13.219,16.796c-0.438,0.113-0.894,0.438-1.333,0.942c-0.438,0.504-0.649,1.104-0.649,1.771
			c0,0.959,0.357,1.723,1.057,2.308c0.715,0.586,1.592,0.878,2.616,0.878c1.023,0,1.901-0.292,2.6-0.878
			c0.715-0.585,1.072-1.349,1.072-2.308c0-0.666-0.228-1.267-0.666-1.771s-0.877-0.829-1.316-0.942
			c0.406-0.18,0.78-0.472,1.154-0.895c0.373-0.422,0.553-0.942,0.553-1.576c0-0.942-0.342-1.689-1.024-2.259
			c-0.666-0.568-1.462-0.845-2.372-0.845s-1.707,0.276-2.39,0.845c-0.666,0.569-1.007,1.316-1.007,2.259
			c0,0.634,0.179,1.154,0.553,1.576C12.438,16.324,12.813,16.616,13.219,16.796z M17.33,19.493c0,1.251-1.057,2.048-2.421,2.048
			c-1.365,0-2.422-0.797-2.422-2.048c0-1.284,1.008-2.064,2.422-2.064C16.29,17.429,17.33,18.209,17.33,19.493z M13.43,12.879
			c0.439-0.341,0.943-0.504,1.479-0.504s1.04,0.163,1.479,0.504c0.438,0.342,0.666,0.829,0.666,1.463
			c0,1.187-0.91,1.917-2.145,1.917c-1.252,0-2.146-0.73-2.146-1.917C12.764,13.708,12.991,13.221,13.43,12.879z"/>
	</g>
</g>
<g id="Layer_1">
</g>
</svg>
