<?xml version="1.0" standalone="no"?>
<!DOCTYPE svg PUBLIC "-//W3C//DTD SVG 1.1//EN" "http://www.w3.org/Graphics/SVG/1.1/DTD/svg11.dtd" >
<svg xmlns="http://www.w3.org/2000/svg">
<metadata>
<json>
<![CDATA[
{
	"fontFamily": "Pyramid-Love",
	"majorVersion": 3,
	"minorVersion": 0,
	"designer": "Looney Labs & Lou Lessing",
	"fontURL": "http://www.looneylabs.com/games/pyramid-arcade",
	"description": "Pyramid Love is an icon font based on the icons from the rulebook to Pyramid Arcade. It is meant for people writing their own rules for pyramid games.\nFont generated by IcoMoon.",
	"license": "OFL 1.1",
	"licenseURL": "http://scripts.sil.org/cms/scripts/page.php?site_id=nrsi&id=OFL",
	"version": "Version 3.0",
	"fontId": "Pyramid-Love",
	"psName": "Pyramid-Love",
	"subFamily": "Regular",
	"fullName": "Pyramid-Love"
}
]]>
</json>
</metadata>
<defs>
<font id="Pyramid-Love" horiz-adv-x="1024">
<font-face units-per-em="1024" ascent="819" descent="-205" />
<missing-glyph horiz-adv-x="1024" />
<glyph unicode="&#x20;" horiz-adv-x="288" d="" />
<glyph unicode="&#x21;" glyph-name="exclam" data-tags="exclam" horiz-adv-x="393" d="M171.5 260q1-11 6-18.75t11.75-11.5 14.75-3.75q12.5 0 21.75 8.75t11.25 25.25l33 441q0.5 3 0.5 6 0 26-19.75 40.75t-46.5 14.75-46.5-14.75-19.75-40.75q0-1 0.25-2t0.25-2v-2zM206 10.5q29 0 47.5 18.5t18.5 43.5q0 26-19 44t-47 18q-29.5 0-48-18.5t-18.5-43.5q0-25.5 19-43.75t47.5-18.25z" />
<glyph unicode="&#x22;" glyph-name="quotedbl" data-tags="quotedbl" horiz-adv-x="368" d="M105.5 497q12.5 0 22 10t11.5 28.5l15 177.5q0.5 18.5-13.75 28.75t-34.25 10.25-34.75-10.5-14.25-29.5q0-2 15-176.5 1.5-18.5 11.25-28.5t22.25-10zM258.5 497q12.5 0 22.25 10t11.75 28.5l14.5 177.5q0.5 18.5-13.75 28.75t-33.75 10.25q-20 0-34.75-10.5t-14.25-28.5q0-3 15-177.5 2-18.5 11.25-28.5t21.75-10z" />
<glyph unicode="&#x23;" glyph-name="numbersign" data-tags="numbersign" horiz-adv-x="609" d="M157.5-8.5q14 0 25.25 9t13.75 25.5l31 211h121q-29-204.5-29-207-0.5-18 11-28.25t27.5-10.25q14.5 0 25.5 9t13.5 25.5l31 211h66.5q18 0 27.75 11t9.75 26q0 15.5-10 26.75t-27.5 11.25h-55.5l18.5 130.5h65.5q18 0 27.75 11t9.75 26.5q0 15-10 26.25t-27.5 11.25h-54.5q27.5 185.5 27.5 189.5 0.5 17.5-11.25 27.5t-27.75 10q-15 0-26.25-9t-13.75-26l-28-192h-121.5q27.5 185.5 27.5 189.5 0.5 17.5-11 27.5t-27.5 10q-15.5 0-26.75-9t-13.75-26l-28-192h-74.5q-17.5 0-27.25-11t-9.75-26q0-15.5 9.75-26.75t27.25-11.25h64l-19-130.5h-73q-17.5 0-27.5-11t-10-26.5q0-15 10-26.25t27.5-11.25h62.5q-29.5-203.5-29.5-206.5-0.5-18.5 11.25-28.75t27.75-10.25zM238 312l19 130.5h121l-18.5-130.5h-121.5z" />
<glyph unicode="&#x24;" glyph-name="dollar" data-tags="dollar" horiz-adv-x="597" d="M268.5 13q0-10.5 4.75-18t11.75-11 15-3.5q13.5 0 23.5 8.75t10 23.75v101q75.5 7.5 120.75 46.5t45.25 107.5q0 57.5-35 92t-113.5 54l-81 20q-47 11.5-62.5 23.25t-15.5 38.75q0 21.5 15 35.5t37.5 19.75 51.5 5.75q14 0 28.5-1.75t24.75-3.75 24.25-6 19.5-6 18-6.75 13-4.75q3-1 6.25-1.75t6-1.25 5.75-0.5q6 0 11.5 1.75t9.25 5 6.75 7.25 4.5 9 1.5 10q0 23.5-24 35-15 7.5-31 14t-41 13-51 9v103.5q0 15-10 23.75t-23 8.75-22.25-8.5-9.25-24v-102.5q-21.5-1.5-40.75-5.25t-36.75-9.75-32.25-14.5-26.5-19.75-20-24.5-12.75-29.75-4.5-35q0-20 3.75-36.25t10-28.5 17.5-22.5 22.75-17.25 29.75-14 34.25-11.75 40.5-11.25l82.5-21q39-10 57-26.25t18-41.25q0-13.5-4.25-24.75t-12-19.25-18.25-14.25-23.5-10.25-27-5.75-29.5-1.75q-41.5 0-75 12t-65 30.5q-12.5 7-24.5 7-15.5 0-25.75-10.75t-10.25-25.25q0-18 16.5-30 28.5-20 70-35.25t90.5-19.25v-101z" />
<glyph unicode="&#x25;" glyph-name="percent" data-tags="percent" horiz-adv-x="1040" d="M312.5-20.5q17 0 32.5 27l377.5 673q10 20 10 29.5 0 12.5-9.25 22t-21.25 9.5q-19 0-30.5-20.5l-383-684.5q-10-18-10-25 0-13 10.25-22t23.75-9zM270.5 387q-45.5 0-66.5 37.25t-21 99.75q0 62 21.25 99.25t66.25 37.25q45.5 0 66.75-37.25t21.25-99.25-21.25-99.5-66.75-37.5zM270.5 322.5q79.5 0 127.75 57t48.25 144.5q0 29.5-5.75 57.5t-19.25 54.5-33.5 46.25-50.25 31.5-67.25 11.75q-80 0-127.75-57.25t-47.75-144.25q0-91.5 46.75-146.5t128.75-55zM769 62q-87.5 0-87.5 136.5 0 62 21 99.25t66.5 37.25q31 0 51.25-19t28.25-48.5 8-69q0-62.5-21.25-99.5t-66.25-37zM769-3.5q80.5 0 128 57.5t47.5 144.5q0 29.5-5.75 57.25t-19.25 54.25-33.25 46-50 31.5-67.25 12q-80 0-127.75-57t-47.75-144q0-91 47-146.5t128.5-55.5z" />
<glyph unicode="&#x26;" glyph-name="ampersand" data-tags="ampersand" horiz-adv-x="770" d="M321.5-0.5q73.5 0 127 25.5t98.5 74l74-78.5q13-14.5 29.5-14.5 21 0 40 18.25t19 38.75q0 13-11.5 26.5l-74.5 79q38.5 61.5 58.5 141t20 131.5q0 18.5-14.25 30t-33.25 11.5q-41 0-46.5-32.5-5.5-115.5-54.5-211.5l-180 191.5q61 43.5 95.25 90.75t34.25 105.75q0 68-48 103.25t-128 35.25h-1.5q-38 0-73.25-9.25t-63.25-26.5-44.75-45-16.75-61.75q0-49 24.5-90.25t70.5-88.75q-40.5-22-69.25-42.25t-55.25-48-40.25-62.75-13.75-76.5q0-101.5 76.25-158t201.25-56.5zM324 87q-67.5 0-116.25 37.5t-48.75 102.5q0 77 129 145l197-212.5q-28.5-32.5-70-52.5t-91-20zM309 494q-75.5 73.5-75.5 130 0 33.5 25 51t60.5 17.5q34 0 59-18.25t25-50.25q0-13-4.5-26.25t-10.25-22.75-17.5-22.5-19-19.75-22.25-20.25-20.5-18.5z" />
<glyph unicode="&#x27;" glyph-name="quotesingle" data-tags="quotesingle" horiz-adv-x="305" d="M151.5 497q12.5 0 22.25 9.5t11.75 27.5l14.5 179q0 18.5-14 28.75t-34 10.25q-19.5 0-34.25-10.5t-14.75-28.5q0-6 15.5-179 2-18 11.25-27.5t21.75-9.5z" />
<glyph unicode="&#x28;" glyph-name="parenleft" data-tags="parenleft" horiz-adv-x="316" d="M220-105q17.5 0 30 12.25t12.5 30.75q0 8.5-6 26.5-67.5 191.5-67.5 359.5 0 171 69 365.5 5.5 16.5 5.5 26 0 19.5-12.5 31.5t-30.5 12q-16 0-29.25-12.75t-21.25-34.75q-44.5-110-69-203.75t-24.5-184.75q0-93.5 26-189.75t73.5-206.75q13-31.5 44-31.5z" />
<glyph unicode="&#x29;" glyph-name="parenright" data-tags="parenright" horiz-adv-x="316" d="M96.5-105q31.5 0 45 31.5 47.5 111.5 73.75 207.25t26.25 189.25q0 90-24.75 183.75t-69.25 204.75q-19 47-50 47-18 0-30.75-12.25t-12.75-30.25q0-10 5.5-26.5 69.5-196.5 69.5-365 0-169-68-360.5-6.5-16.5-6.5-26.5 0-18.5 12.25-30.5t29.75-12z" />
<glyph unicode="&#x2a;" glyph-name="asterisk" data-tags="asterisk" horiz-adv-x="523" d="M211 413l49.5 90.5 51-90.5q11-20 29.5-20 13 0 22.75 9.75t9.75 24.25q0 11.5-7 23l-51 83 109-3.5q16 0 24.75 9.75t8.75 23-8.75 23-24.75 9.75l-108.5-3.5 54 87 2 4t1.75 4 1 4 0.5 3.75 0.25 3.75q0 9-4.5 17t-12 12.5-16 4.5q-18.5 0-31-20.5l-51.5-93-51.5 95q-10.5 18-28.5 18-13.5 0-23.75-9.75t-10.25-23.75q0-11 6.5-21.5l52.5-85-107 3.5q-16 0-24.75-9.75t-8.75-23 8.75-23 24.75-9.75l108 3.5-53.5-87q-3-5-4.5-10t-1.5-10q0-4.5 1.25-9t3.5-8 5.5-6.75 6.75-5.25 7.75-3.25 8.75-1.25q8.5 0 16.5 5t14 15.5z" />
<glyph unicode="&#x2b;" glyph-name="plus" data-tags="plus" horiz-adv-x="660" d="M329.5 14.5q19.5 0 30.5 14t11 32.5v161.5h168q20 0 33.75 11.25t13.75 29.25q0 19.5-14.25 30t-33.25 10.5h-168v162.5q0 20-11.25 33.5t-30.25 13.5q-20.5 0-31-14t-10.5-33v-162.5h-167.5q-20.5 0-34.25-11t-13.75-29.5q0-19 14.5-29.75t33.5-10.75h167.5v-161.5q0-20.5 11-33.5t30.5-13z" />
<glyph unicode="&#x2c;" glyph-name="comma" data-tags="comma" horiz-adv-x="305" d="M74.5-149.5h38.5q7 0 11.75 2.25t8.5 7 6.25 12.25l84.5 241.5q0 0.5 0.25 1.25t0.5 1.75 0.5 1.75 0.25 1.75v2.5q0 17.5-18.5 19h-66q-32-1-36.5-28l-42-241.5q0-1.5-0.25-3t-0.25-3q0-15 12.5-15.5z" />
<glyph unicode="&#x2d;" glyph-name="hyphen" data-tags="hyphen" horiz-adv-x="329" d="M64.5 235h200q19.5 0 32.75 12.5t13.25 30.5q0 19-13 31.5t-33 12.5h-200q-20 0-32.75-12.5t-12.75-31.5q0-18 13.25-30.5t32.25-12.5z" />
<glyph unicode="&#x2e;" glyph-name="period" data-tags="period" horiz-adv-x="305" d="M152.5 11.5q29 0 47.5 18.5t18.5 43.5q0 26-19 44t-47 18q-29.5 0-48-18.5t-18.5-43.5q0-25.5 19-43.75t47.5-18.25z" />
<glyph unicode="&#x2f;" glyph-name="slash" data-tags="slash" horiz-adv-x="381" d="M71-62q28 0 38 28.5l239.5 714.5q2.5 9 2.5 15.5 0 17.5-12.5 28.25t-29 10.75q-30.5 0-40-29l-237.5-714.5q-2.5-7-2.5-15 0-17.5 12.5-28.25t29-10.75z" />
<glyph unicode="&#x30;" glyph-name="zero" data-tags="zero" horiz-adv-x="609" d="M304.5 101q-25 0-45.5 8.75t-34.5 23.5-24.5 36.75-16.75 45-9.75 52.25-4.75 54.75-1.25 55.5q0 30.5 1.25 56t4.75 54.25 9.75 51.25 16.75 44 24.5 35.75 34.5 22.75 45.5 8.5q29.5 0 52.25-11t37.25-31.5 24.25-45 14.75-57.5 6.75-62.25 1.75-65.25q0-30-1.25-55.25t-4.75-54.5-9.75-52.25-16.75-45.25-24.5-36.75-34.5-23.5-45.5-9zM304.5 2q59 0 104.75 21t75 56 48 84.25 26.25 101.5 7.5 112.75q0 61-7.5 113.25t-26.5 100.75-48 82.5-74.75 54.5-104.75 20.5-104.75-20.5-75-54.5-48.25-82.5-26.5-100.75-7.5-113.25q0-60.5 7.5-112.75t26.5-101.5 48-84.25 75-56 105-21z" />
<glyph unicode="&#x31;" glyph-name="one" data-tags="one" horiz-adv-x="602" d="M336 13q25 0 43.25 15.5t18.25 43l-0.5 598.5q0 29-17.25 44.75t-41.25 15.75q-20.5-2-32.5-8.5l-177.5-108.5q-21-12.5-21-35 0-17 12.75-30.5t30.25-13.5q12 0 23 6.5l101.5 65 0.5-534.5q0-27.5 18-43t42.5-15.5z" />
<glyph unicode="&#x32;" glyph-name="two" data-tags="two" horiz-adv-x="608" d="M532.5 530.5q0 33.5-10.5 64.5t-30.75 56.25-47.5 44-62.5 29.25-74.75 10.5q-63.5 0-111.5-16t-98-46q-5-3-8.75-6.25t-6.5-6.75-4.5-7.5-2.5-7.75-0.75-8.25q0-19 15.25-35.25t33.25-16.25q8 0 15 3.5 4.5 2.5 28.5 16.5t35.25 19 37.75 11 57 6q51 0 86.25-33t35.25-85.5q0-61.5-70-131.5l-259-260.5q-26-26.5-26-57 0-25.5 18.75-43t50.25-17.5h350.5q20 0 31 14t11 32.5-11 32-31 13.5h-287.5l219 205q62.5 56 90.75 109.75t28.25 110.75z" />
<glyph unicode="&#x33;" glyph-name="three" data-tags="three" horiz-adv-x="602" d="M287.5 2q51.5 0 96 12.25t79.25 36.75 54.75 64.5 20 91.5q0 71-32.5 119t-96 67q113.5 49 113.5 161 0 61.5-33 106.5t-86.75 66.75-120.25 21.75q-54.5 0-107.5-13.5t-81.5-32.5q-17-11-17-32 0-20 14-37.5t31.5-17.5q7.5 0 14 3.5 57.5 30.5 139.5 30.5 50.5 0 87-26.5t36.5-78q0-55.5-41-84.5t-106-29h-38q-19 0-28.75-13t-9.75-31q0-17.5 9.75-30.5t28.75-13h41.5q68 0 113.25-37t45.25-97.5q0-54.5-36.75-81.75t-99.75-27.25q-61 0-134.5 33-6.5 2.5-13 2.5-18.5 0-33.25-17t-14.75-37q0-26 26-39.5 78.5-41 179.5-41z" />
<glyph unicode="&#x34;" glyph-name="four" data-tags="four" horiz-adv-x="602" d="M426.5 11.5q23 0 40.5 14.5t17.5 40v96h64q20.5 0 31.75 12.75t11.25 30.25q0 18-11.25 31t-31.75 13h-63.5v397.5q0 42.5-24.25 63.25t-61.25 20.75q-31.5 0-56-14.25t-44.5-46.25l-259.5-417.5q-2.5-4-4.25-8.5t-2.5-9.5-0.75-10q0-24 15.75-43.25t40.75-19.25h278.5v-96q0-25.5 18-40t41.5-14.5zM151 249l216 357.5v-357.5h-216z" />
<glyph unicode="&#x35;" glyph-name="five" data-tags="five" horiz-adv-x="602" d="M306.5 2q70.5 0 127.25 28.5t90 82.75 33.25 124.75q0 102-62.25 165.75t-160.75 63.75q-29 0-55-4.75t-42.5-11.5-28.75-13.5-17.75-11.75l-5-4.5v215.5h289.5q20 0 31 13.75t11 32.25q0 18-11 32t-31 14h-326.5q-31 0-45.75-13.25t-14.75-41.75v-314q0-6 3-11.5t8-10 11.5-8.75 14-7 15.25-5 15-3.25 13.25-1q5.5 0 9.75 0.75t6.25 2.75q62.5 55 131 55 56 0 90.25-35t34.25-95.5q0-66.5-35-103.5t-102-37q-85.5 0-155 53.5-4.5 3.5-9.5 5.25t-10.5 1.75q-18.5 0-33.75-18.5t-15.25-39q0-16 11-25.5 91.5-76.5 217.5-76.5z" />
<glyph unicode="&#x36;" glyph-name="six" data-tags="six" horiz-adv-x="602" d="M315 2q115 0 183.75 66t68.75 171.5q0 101.5-65.25 164.5t-168.75 63q-59 0-105.5-23t-60-57q0 48.5 3.75 84.75t14.75 71.5 29.75 57.5 50.5 35.75 75.25 13.5q57 0 126.5-29 6-2.5 12.5-2.5 11.5 0 21.75 8.75t15.75 21.75 5.5 26.5q0 27.5-21.5 37.5-76 36-157.5 36-52.5 0-95.75-12t-74.5-32.75-55-51.75-38.75-65.75-24.5-78-13.25-85.75-3.75-91q0-55 8.75-102.5t29.25-90 51.75-72.5 78.5-47.5 107.25-17.5zM319 380.5q65 0 97.25-39.5t32.25-104.5q0-66.5-36-102.25t-103-35.75q-62 0-98.5 37t-36.5 98.5q0 69 37.5 107.75t107 38.75z" />
<glyph unicode="&#x37;" glyph-name="seven" data-tags="seven" horiz-adv-x="602" d="M233 13q38 0 53 34.5l249 572.5q11.5 27 11.5 53t-16.75 41-49.75 15h-384q-22 0-34.5-14.75t-12.5-34.25 12.5-34.25 34.5-14.75h314.5l-234-534.5q-7.5-16-7-27 0-24 19.5-40.25t44-16.25z" />
<glyph unicode="&#x38;" glyph-name="eight" data-tags="eight" horiz-adv-x="602" d="M300.5 2q117 0 189 55.75t72 151.25q0 69-35 115.25t-103.5 63.75q59 14 92.25 57.5t33.25 105q0 93-69.25 145.75t-178.75 52.75-178.25-52.75-68.75-145.75q0-62 32.75-104.25t92.75-58.25q-67-14.5-103-62.75t-36-116.25q0-95.5 72-151.25t188.5-55.75zM301 95q-61.5 0-99 27t-37.5 87.5q0 62 38.25 94.25t98.25 32.25q59 0 97.5-32.25t38.5-94.25q0-60.5-37.5-87.5t-98.5-27zM301 442.5q-60.5 0-95 28.75t-34.5 84.25q0 29 10.5 50.25t29.25 32.75 40.75 16.75 49 5.25q36.5 0 64-9t46.25-33.25 18.75-62.75q0-55.5-34.25-84.25t-94.75-28.75z" />
<glyph unicode="&#x39;" glyph-name="nine" data-tags="nine" horiz-adv-x="602" d="M258 2q73 0 127.75 23.25t88 61 54 93.5 28.25 112.75 7.5 126.5q0 55-8.75 102.5t-29.25 90-51.75 72.5-78.5 47.5-107.25 17.5q-115.5 0-184-66t-68.5-171.5q0-101 65.25-164t168.75-63h1.5q39 0 73.75 10.5t58.25 28.75 32 40.25q0-48.5-3.75-84.75t-14.75-71.5-29.75-57.5-50.5-35.75-75.25-13.5q-57.5 0-126.5 29.5-2 1-4 1.5t-4 0.75-4 0.25q-7.5 0-14.25-3.25t-12-9.25-9.25-13.25-6-15.5-2-16.25q0-27.5 21.5-37 77-36.5 157.5-36.5zM285 371q-65.5 0-98 39t-32.5 104.5q0 67 36 102.5t103 35.5q62 0 98.5-37t36.5-98.5q0-68.5-37.25-107.25t-106.25-38.75z" />
<glyph unicode="&#x3a;" glyph-name="colon" data-tags="colon" horiz-adv-x="305" d="M152.5 11.5q29 0 47.5 18.5t18.5 43.5q0 26-19 44t-47 18q-29.5 0-48-18.5t-18.5-43.5q0-25.5 19-43.75t47.5-18.25zM152.5 399.5q29 0 47.5 18.25t18.5 43.75q0 26-19 44t-47 18q-29.5 0-48-18.25t-18.5-43.75q0-26.5 18.75-44.25t47.75-17.75z" />
<glyph unicode="&#x3b;" glyph-name="semicolon" data-tags="semicolon" horiz-adv-x="305" d="M167.5 407.5q29.5 0 47.75 18.5t18.25 44.5q0 25.5-18.75 43.5t-47.25 18q-29.5 0-48-18.25t-18.5-43.25q0-26.5 18.75-44.75t47.75-18.25zM80.5-97h38.5q10.5 0 16.5 5t10 16.5l84.5 241.5q1.5 4 1.5 9 0 17.5-18.5 19h-66q-32-1-36.5-28l-42-241.5q-0.5-3-0.5-6 0-15 12.5-15.5z" />
<glyph unicode="&#x3c;" glyph-name="less" data-tags="less" horiz-adv-x="660" d="M524.5 27.5q4.5-2 8.5-2 14 0 24.75 16t10.75 33.5q0 20.5-15.5 27l-369.5 160.5 368 153q20 8.5 20 29.5 0 4.5-1 9.5t-3.25 9.5-5 8.75-6.25 7.75-7.25 6.25-8.25 4.25-8.5 1.5q-2.5 0-4.75-0.5t-4.25-1.5l-419.5-176.5q-9.5-4-17-9.75t-12-12.5-6.75-14-2.25-14.75q0-5.5 1-10.25t3-9.5 4.75-9 6.25-8 8-7 9.5-5.25z" />
<glyph unicode="&#x3d;" glyph-name="equal" data-tags="equal" horiz-adv-x="660" d="M114.5 119.5h423q20.5 0 34.5 10.5t14 29.5q0 19.5-13.5 30.25t-31.5 10.75h-419q-21 0-35.25-10.75t-14.25-30.25q0-17 12.5-28.5t29.5-11.5zM114.5 326h422.5q20.5 0 34.75 10.75t14.25 29.25q0 20.5-14.25 30.75t-34.75 10.25h-414.5q-21 0-35.5-10.75t-14.5-30.25q0-17 12.25-28.5t29.75-11.5z" />
<glyph unicode="&#x3e;" glyph-name="greater" data-tags="greater" horiz-adv-x="660" d="M112.5 27.5l427 186.5q15 6.5 23.75 20t8.75 29-9.5 29.25-28.5 21.75l-419.5 176.5q-4.5 2-9 2-7.5 0-14.75-4.5t-12.75-11.25-9-15.25-3.5-17q0-20.5 20-29l368.5-153-369.5-160.5q-15.5-6.5-15.5-27.5 0-17.5 10.5-33.25t24.5-15.75q2 0 4.25 0.5t4.25 1.5z" />
<glyph unicode="&#x3f;" glyph-name="question" data-tags="question" horiz-adv-x="523" d="M159.5 243.5q0-9 3.25-16.5t8.25-13 11.75-9.25 14.25-5.5 15-1.75q21 0 36.5 12t15 33l-0.5 41q0 15.5 10.75 31.25t28.25 30 38.5 29.5 42.25 33.75 38.5 39.25 28.25 49 11 59.75q0 48-17 84.5t-47.25 58.25-68.25 32.25-83.5 10.5q-75.5 0-149-20.5-19-5.5-29-18.25t-10-28.25q0-20.5 12-34t31-13.5q10 0 54.75 7.25t62.75 7.25q115.5 0 115.5-94.5 0-23-9.5-44t-24.75-37.75-33.75-32.75-37.25-31.75-34-31.5-24.75-35.25-9.5-40.5zM213-2q29 0 47.5 18.5t18.5 44.5q0 25.5-18.75 43.25t-47.25 17.75q-29.5 0-47.75-18t-18.25-43q0-26 18.5-44.5t47.5-18.5z" />
<glyph unicode="&#x40;" glyph-name="at" data-tags="at" horiz-adv-x="819" d="M404.5-0.5q77 0 159.5 24.5 20.5 6 20.5 28 0 12-8.5 21.25t-22.5 9.25q-7.5 0-13-2-62-19.5-128-19.5-63.5 0-119.25 20t-99 57.75-68.25 98.5-25 136.75q0 61.5 20.25 115.5t54.5 92.75 78.75 67 93.75 42.25 99.25 14q41 0 78.5-9.75t70.5-30.5 57-51 38-73.75 14-95.5q0-55.5-20.5-107.25t-53.25-83-66.75-31.25q-26 0-26 25.5 0 15 12 55.5l71 236q2 6 2 12 0 14.5-10 22.5t-24 8q-30 0-39-28l-4.5-14.5q-16.5 32-47.75 48.75t-68.75 16.75q-52 0-98.25-25.75t-76.75-66.75-48.25-91.5-17.75-101q0-68 40.5-114.5t108.5-46.5q83.5 0 132.5 69 1.5-32 25.25-49.5t53.25-17.5q38.5 0 79.25 22.5t74.25 60.25 55 92.5 21.5 113.75q0 63-18 115.75t-49.5 89.75-73.75 62.5-90.5 37.5-100.75 12q-61 0-121.25-16t-114.25-49-95.25-78.5-65.5-109-24.25-136.5q0-87.5 28.75-159.75t79.5-120 120.25-74 150-26.25zM359.5 227.5q-15 0-27 3.5t-20.75 10-15 15.75-10.25 21.25-5.75 25.5-1.75 29.5q0 22 5 45.75t14.25 46.25 23 42.75 30.25 35.5 37.25 24.25 42.75 9q19.5 0 36.75-6.25t27.5-15 17.75-17.5 10.5-14.75l3-6.5-46-161q-12-37.5-45.75-62.75t-75.75-25.25z" />
<glyph unicode="&#x41;" glyph-name="A" data-tags="A" horiz-adv-x="727" d="M495.5 271.5h-263l131.5 344.5zM581 48.5q7.5-20 22.5-29.75t33-9.75q24.5 0 43.25 15.25t18.75 37.75q0 10-4 20l-231.5 579.5q-13 31.5-29.5 49t-31.75 22-37.75 4.5q-33.5 0-57-15t-41.5-60.5l-231.5-579.5q-4-10-4-20 0-22.5 18.75-37.75t43.25-15.25q18 0 33 9.75t22.5 29.75l51.5 135h330.5z" />
<glyph unicode="&#x42;" glyph-name="B" data-tags="B" horiz-adv-x="682" d="M147.5 13h231.5q62 0 112 16.25t81 43.5 47.5 61.25 16.5 71q0 79.5-44 124.75t-123 55.75v2q68 11.5 102 55t34 111.5q0 82.5-60.75 129.75t-183.75 47.25h-213q-25 0-42.75-17.5t-17.75-42.5v-598.5q0-24.5 17.75-42t42.75-17.5zM211 109v224.5h110q39.5 0 66-2.25t51-9 38.5-19.25 22.25-33.25 8.25-50.25q0-34.5-9.25-56.75t-29.5-33.75-45.75-15.75-65-4.25h-146.5zM211 428.5v207h139.5q26.5 0 44.75-1.75t36.5-7.25 29-15.5 17.5-27.25 6.75-41.25q0-62.5-33.75-88.25t-113.75-25.75h-126.5z" />
<glyph unicode="&#x43;" glyph-name="C" data-tags="C" horiz-adv-x="677" d="M393 2q120 0 207 55 5.5 3.5 9.75 7.5t7.25 8.5 5 9 3 9.25 1 9.75q0 19-13 34t-31.5 15q-5 0-10.25-1.5t-10.25-4q-26-14-42.5-21.5t-45.25-14.75-58.25-7.25q-111 0-169 73t-58 201q0 127 57.25 201t164.75 74q26.5 0 51.75-5t37.25-9.25 32-13.5 21-9.75q2-1 4-1.5l4-1t4-0.5h4q6.5 0 13 2t11.75 5.25 10 8.25 8 10.5 5 12 1.75 13q0 28-30.5 43.5-85.5 45-182 45-101.5 0-180.75-46.75t-123.25-132.5-44-197.25q0-107.5 41.75-191.75t118.5-131.5 175.75-47.25z" />
<glyph unicode="&#x44;" glyph-name="D" data-tags="D" horiz-adv-x="764" d="M149 13.5h181q180 0 279.25 92t99.25 264q0 175.5-98.25 268.5t-289.25 93h-172q-25.5 0-43.75-18t-18.25-43v-596q0-25 18.25-42.75t43.75-17.75zM211 112v520.5h111.5q134 0 195.75-59.75t61.75-200.75q0-67.5-12.25-114.75t-40.25-80.5-74.75-49-115.25-15.75h-126.5z" />
<glyph unicode="&#x45;" glyph-name="E" data-tags="E" horiz-adv-x="627" d="M148 13h375.5q22 0 34.5 14.75t12.5 33.75q0 20-12.5 35t-34.5 15h-312.5v221h282.5q22 0 34.75 14.75t12.75 33.75q0 19.5-12.25 33.75t-35.25 14.25h-282.5v203h301q22 0 34.5 15t12.5 34.5-12.5 34.5-34.5 15h-366q-24.5 0-41.75-18.25t-17.25-42.25v-597.5q0-24 18.5-42t42.5-18z" />
<glyph unicode="&#x46;" glyph-name="F" data-tags="F" horiz-adv-x="584" d="M147.5 13q25.5 0 44.25 15.75t18.75 44.25v262h269q22.5 0 34.75 14.25t12.25 33.75-12.5 33.75-34.5 14.25h-269v201h282.5q22.5 0 34.75 15t12.25 34.5-12.25 34.5-34.75 15h-346.5q-24.5 0-42.5-17.75t-18-43.75v-596.5q0-28.5 18-44.25t43.5-15.75z" />
<glyph unicode="&#x47;" glyph-name="G" data-tags="G" horiz-adv-x="742" d="M412 2q95 0 223.5 35.5 50 13.5 50 66v240q0 25.5-12.75 40.75t-36.75 15.25h-194q-19 0-30-15.25t-11-32.75q0-17 11-31.75t30-14.75h119.5v-186q-73.5-18-142-18-115 0-173.25 71.5t-58.25 206q0 61 13.5 109.75t41.25 85.5 74.25 56.5 109 19.75q12 0 24.75-0.75t22.25-1.75 23.5-3.5 21.25-3.75 22.75-4.75 20.25-4.75 22-5.5 20.25-5.25q5.5-2 12.5-2 19.5 0 31.75 16.25t12.25 35.75q0 30-29 42.5-89.5 36.5-208.5 36.5-89.5 0-160.25-29.5t-115-80.75-67-118.25-22.75-144.5q0-178 96.25-276t258.75-98z" />
<glyph unicode="&#x48;" glyph-name="H" data-tags="H" horiz-adv-x="756" d="M148.5 14q26 0 44.25 15.75t18.25 44.25v261.5h334v-261.5q0-28.5 18.25-44.25t43.75-15.75 43.75 15.75 18.25 44.25v596q0 28.5-18.25 44.25t-43.25 15.75q-25.5 0-44-16t-18.5-44v-235.5h-334v235.5q0 28.5-18.25 44.25t-43.75 15.75-43.75-16-18.25-44v-596q0-28.5 18.25-44.25t43.25-15.75z" />
<glyph unicode="&#x49;" glyph-name="I" data-tags="I" horiz-adv-x="314" d="M157 14q25.5 0 44 15.5t18.5 44v598q0 28.5-18.5 44.25t-43.5 15.75q-25.5 0-44-15.75t-18.5-44.25v-598q0-28 18.25-43.75t43.75-15.75z" />
<glyph unicode="&#x4a;" glyph-name="J" data-tags="J" horiz-adv-x="524" d="M219.5-1.5q49 0 89.5 13.25t72.5 40.5 50 73.75 18 108.5v437q0 28-18 43.75t-43.5 15.75-44-15.75-18.5-43.75v-428.5q0-77-27.25-109.25t-85.75-32.25q-44.5 0-108.5 30-11.5 6.5-22.5 6.5-20 0-33-17t-13-38.5q0-32.5 27.5-46.5 25-12.5 40.5-19t46.5-12.5 69.5-6z" />
<glyph unicode="&#x4b;" glyph-name="K" data-tags="K" horiz-adv-x="661" d="M149 13q25 0 43.75 15.75t18.75 43.25v296l290.5-327.5q23-27 48.5-27 24.5 0 43.5 16.75t19 40.25q0 21.5-12 34.5l-262 287.5 236 253.5q11.5 12 11.5 32 0 21.5-17.75 36.75t-40.25 15.25q-24 0-47-25.5l-270-302v269q0 28-18.25 43.75t-43.25 15.75-43.5-15.75-18.5-43.75v-599.5q0-28 18-43.5t43-15.5z" />
<glyph unicode="&#x4c;" glyph-name="L" data-tags="L" horiz-adv-x="561" d="M150 13h358.5q22.5 0 35 14.75t12.5 34.25-12.75 34.5-34.75 15h-297.5v558.5q0 28.5-18 44.25t-43.5 15.75-44-15.75-18.5-44.25v-595q0-25.5 18.75-43.75t44.25-18.25z" />
<glyph unicode="&#x4d;" glyph-name="M" data-tags="M" horiz-adv-x="960" d="M476 35.5v150.5l-194 453.5q-14.5 34.5-42 51.75t-59 17.25q-38 0-65.75-22t-27.75-56.5v-563.5q0-19.5 17-30.5t40.25-11 40.25 11 17 30.5v502.5l202.5-479.5q11-26 30.5-40t41-14zM476.5 35.5q21.5 0 41.25 14.25t30.25 39.75l203 479.5v-502.5q0-19.5 17-30.5t40.25-11 40.25 11 17 30.5v563.5q0 23-13.25 41.25t-34.5 27.75-45.75 9.5q-31.5 0-59-17.25t-42.5-51.75l-194-453.5v-150.5z" />
<glyph unicode="&#x4e;" glyph-name="N" data-tags="N" horiz-adv-x="773" d="M141.5 13q23 0 40.25 14.25t17.25 38.75v475.5l342.5-487.5q13-18.5 35.25-29.75t41.25-11.25q29 0 49.25 20.5t20.25 55v588.5q0 25.5-16.75 39.75t-39.75 14.25-40-14.5-17-39.5v-479l-345 493.5q-13.5 19-35 29t-41.5 10q-28.5 0-48-20.25t-19.5-55.25v-589q0-25 16.75-39t39.75-14z" />
<glyph unicode="&#x4f;" glyph-name="O" data-tags="O" horiz-adv-x="802" d="M400.5 101q-105 0-159.75 73.75t-54.75 200.75q0 126.5 54.75 200.5t159.75 74q105.5 0 160.25-74t54.75-200.5q0-127-55-200.75t-160-73.75zM400.5 2q109 0 187.5 47t118.5 130.75 40 195.75q0 112.5-40 196.25t-118.5 130.5-187.5 46.75q-108.5 0-187-46.75t-118.75-130.75-40.25-196q0-170 91.75-271.75t254.25-101.75z" />
<glyph unicode="&#x50;" glyph-name="P" data-tags="P" horiz-adv-x="642" d="M149 12.5q25.5 0 43.75 15.75t18.25 44.25v235.5h145.5q129.5 0 199 49.75t69.5 162.25q0 111-66.25 161t-191.25 50h-217.5q-26 0-44.5-18.25t-18.5-43.75v-596.5q0-28.5 18.5-44.25t43.5-15.75zM211 402.5v230h145.5q76 0 111.25-23.25t35.25-89.25q0-67-36.25-92.25t-113.75-25.25h-142z" />
<glyph unicode="&#x51;" glyph-name="Q" data-tags="Q" horiz-adv-x="802" d="M628.5-90.5q17.5 0 31 14t13.5 33.5q0 26.5-27.5 40.5l-134.5 66-152-32 249.5-117q10-5 20-5zM400.5 101q-105 0-159.75 73.75t-54.75 200.75q0 126.5 54.75 200.5t159.75 74q105.5 0 160.25-74t54.75-200.5q0-127-55-200.75t-160-73.75zM400.5 2q109 0 187.5 47t118.5 130.75 40 195.75q0 112.5-40 196.25t-118.5 130.5-187.5 46.75q-108.5 0-187-46.75t-118.75-130.75-40.25-196q0-170 91.75-271.75t254.25-101.75z" />
<glyph unicode="&#x52;" glyph-name="R" data-tags="R" horiz-adv-x="698" d="M148.5 14q25.5 0 44 15.5t18.5 43.5v257h148.5q37 0 60.25-6.25t37.75-22.5 21.25-38.75 10.75-60.5l14-134q3-26 22.75-40t43.75-14q30.5 0 48 22 10.5 14 11 31.5v2.25t-0.25 2.5-0.25 2.25l-16 141.5q-15.5 139.5-142 166.5v2q79 13 119.25 57t40.25 107q0 182.5-258 182.5h-223q-25.5 0-43.75-18t-18.25-43v-597q0-28 18.25-43.5t43.25-15.5zM211 425.5v207h147q14.5 0 23.25-0.25t22.5-1 22.75-2.5 20.75-5.25 19.25-8.5 15.75-12.5 12.75-17 7.5-22.75 3-29.25q0-29.5-10.75-50.25t-26.25-31.75-41.25-17.25-46.5-7.5-51.25-1.25h-118.5z" />
<glyph unicode="&#x53;" glyph-name="S" data-tags="S" horiz-adv-x="654" d="M324.5 2q84.5 0 147.5 25t97.5 73.25 34.5 114.25q0 33.5-8.5 61t-23.5 48.25-38.75 37.75-51.5 29.75-64.75 24.75l-158 50.5q-39 13-56.75 33.75t-17.75 54.25q0 34.5 22 56.5t55.25 30.5 78.75 8.5q91 0 175-48.5 12.5-7.5 24.5-7.5 19 0 32.5 16t13.5 35.5q0 9-3.25 16.75t-10.25 13.25q-36 30.5-102.25 52t-138.75 21.5q-116.5 0-191.5-53.5t-75-145.5q0-73.5 38-116.25t120-70.25l159-53q54-18 77.25-41t23.25-66.5q0-50.5-43.25-76.25t-112.75-25.75q-109.5 0-201.5 63.5-3 2-6.5 3t-7 1q-9 0-18.75-6.5t-17.25-16.25-12.25-21.25-4.75-21.5q0-12 7.5-18 97-83 258.5-83z" />
<glyph unicode="&#x54;" glyph-name="T" data-tags="T" horiz-adv-x="596" d="M298 12.5q25.5 0 44 16t18.5 44.5v559h174q22.5 0 35.25 15t12.75 34.5-12.75 34.5-35.25 15h-473q-23 0-36-15t-13-34.5 13-34.5 36-15h174.5v-559q0-28.5 18.5-44.5t43.5-16z" />
<glyph unicode="&#x55;" glyph-name="U" data-tags="U" horiz-adv-x="754" d="M377 2q60.5 0 112.5 16.25t92.25 47.75 63.5 82 23.25 114.5v411.5q0 28.5-18.25 44.25t-43.25 15.75q-26 0-44.25-15.75t-18.25-44.25v-408q0-42-14.25-74.5t-38.25-51.75-53.25-29-61.75-9.75q-32 0-61 9.75t-53 29-38.25 51.75-14.25 74.5v408q0 28.5-18.5 44.25t-43.5 15.75q-26 0-44.25-15.75t-18.25-44.25v-411.5q0-64 23-114.5t63.25-82 92.25-47.75 112.5-16.25z" />
<glyph unicode="&#x56;" glyph-name="V" data-tags="V" horiz-adv-x="675" d="M340 6q39.5 0 64.25 19.25t41.75 68.75l198 568.5q3.5 9.5 3.5 19 0 23.5-19.25 38.5t-44.25 15q-7 0-14-1.5t-13.5-4.5-12-7.75-10-11.5-7-14.75l-187.5-557-188 557q-6.5 20-22 30t-34.5 10q-15.5 0-29.75-6.5t-23.75-19-9.5-28q0-4.5 1-9.25t2.5-9.75l198-568.5q17-49.5 41.75-68.75t64.25-19.25z" />
<glyph unicode="&#x57;" glyph-name="W" data-tags="W" horiz-adv-x="1041" d="M858.5 80.5l156 579.5q1 4.5 1.75 8.5t0.75 8q0 16.5-9.25 29t-23.25 18.75-29.5 6.25q-19.5 0-35-10.5t-20.5-30.5l-139-554.5-162.5 537q-10.5 34.5-29.75 46.75t-49.75 12.25q-30 0-49.5-12.75t-29.5-46.25l-163-537-138.5 554.5q-5 20-20.5 30.5t-35 10.5q-24.5 0-43.25-14.75t-18.75-38.75q0-8.5 2.5-17l156-579.5q9-32.5 34-50t56.5-17.5q31 0 56.75 17.25t35.25 48.25l157 511.5 157.5-511.5q9.5-31.5 35-48.5t56.5-17q31.5 0 56.75 17.5t34.25 50z" />
<glyph unicode="&#x58;" glyph-name="X" data-tags="X" horiz-adv-x="656" d="M515 32q17.5-23.5 46.5-23.5 24 0 43.25 16.25t19.25 39.25q0 17-12.5 34l-206.5 276.5 213.5 281q2.5 3 4.5 6.5t3.5 6.75 2.25 6.5 1.25 6.5 0.5 6.25q0 19.5-14.75 33.5t-34.75 14q-13.5 0-27-7t-25-22l-189-245-184 246.5q-19.5 26-47.5 26-24 0-43-18.25t-19-41.25q0-16.5 11-31l203.5-271.5-216.5-276.5q-14-17.5-14-36 0-27 24.5-41.5 14-8 29.5-8.5 29 0 49 26.5l191.5 250z" />
<glyph unicode="&#x59;" glyph-name="Y" data-tags="Y" horiz-adv-x="649" d="M261 73.5q0-28.5 18.5-44.5t43.5-16 43.5 16 18.5 44v237.5l219.5 346.5q4.5 7.5 6.75 14.5t2.25 14q0 10-4.5 18.5t-11.75 14.5-16.75 9.5-19.5 3.5q-30.5 0-47-27l-184.5-301.5-179.5 295q-19.5 31.5-52 31.5-9.5 0-18.75-2.75t-17.25-8-14-12.25-9.5-15.5-3.5-17.5q0-6.5 2-13t6-13l218-341.5v-232.5z" />
<glyph unicode="&#x5a;" glyph-name="Z" data-tags="Z" horiz-adv-x="595" d="M104 13h417q22 0 34.5 15t12.5 34.5-12.5 34.25-34.5 14.75h-330.5l367.5 529.5q13 18.5 13 39 0 22-15 36.5t-40 14.5h-421q-22.5 0-34.75-14.75t-12.25-34.25 12.5-34.75 34.5-15.25h325.5l-366-529q-12.5-19-12.5-37.5 0-22.5 15.75-37.5t46.25-15z" />
<glyph unicode="&#x5b;" glyph-name="bracketleft" data-tags="bracketleft" horiz-adv-x="339" d="M138.5-95.5h108q19 1 29.75 13t10.75 28q0 16.5-10.75 28.25t-29.75 11.75h-55.5v665h55.5q19 0 29.75 12t10.75 28q0 17-10.75 28.75t-29.75 11.75h-108q-22.5 0-37.75-15.5t-15.25-37v-722q0-21.5 15.25-36.75t37.75-15.25z" />
<glyph unicode="&#x5c;" glyph-name="backslash" data-tags="backslash" horiz-adv-x="309" d="M274-33q16.5 0 28.75 10.5t12.25 27.5q0 6-2.5 15l-237.5 715q-10 28.5-40 28.5-16.5 0-29-10.5t-12.5-27.5q0-7 3-16l239-714.5q10-28 38.5-28z" />
<glyph unicode="&#x5d;" glyph-name="bracketright" data-tags="bracketright" horiz-adv-x="339" d="M91.5-95.5h108q22.5 0 37.75 15.25t15.25 36.75v722q0 21.5-15.25 37t-37.75 15.5h-108q-19 0-29.5-11.75t-10.5-28.75q0-16 10.75-28t29.25-12h55.5v-665h-55.5q-19 0-29.5-11.75t-10.5-28.25q0-16 10.5-28t29.5-13z" />
<glyph unicode="&#x5e;" glyph-name="asciicircum" data-tags="asciicircum" horiz-adv-x="660" d="M129.5 268q26.5 0 42 34l161 324.5 160.5-324.5q17-33.5 42-33.5 17.5 0 29.75 10.75t12.25 27.75q0 9-8 27l-179 351q-22.5 43.5-57.5 43.5-35.5 0-57-43.5l-179.5-351q-8.5-17-8.5-27 0-17.5 12.5-28.25t29.5-10.75z" />
<glyph unicode="&#x5f;" glyph-name="underscore" data-tags="underscore" horiz-adv-x="512" d="M29.5-114.5h451.5q14 0 22.25 9.5t8.25 22q0 13-8.25 22.25t-22.25 9.25h-451.5q-14 0-21.75-9.25t-7.75-22.25q0-12.5 7.75-22t21.75-9.5z" />
<glyph unicode="&#x60;" glyph-name="grave" data-tags="grave" horiz-adv-x="285" d="M227.5 610.5q10.5 0 17.25 7.5t6.75 18q0 9-8 20l-119 146q-19 24-38 24-20.5 0-38-16.25t-17.5-35.75q0-16 14-27l155.5-124.5q13-12 27-12z" />
<glyph unicode="&#x61;" glyph-name="a" data-tags="a" horiz-adv-x="531" d="M211 6q101.5 0 145 86v-27q0-34 29.5-47 11.5-5 24-5 22 0 38 13.75t16 38.75v274q0 92.5-54 136.25t-146.5 43.75q-102.5 0-183.5-40.5-18.5-9-18.5-28.5 0-16 11.25-29t27.25-13q2 0 4 0.25t4.25 0.75 4.25 1.5q28 11 41.25 15.75t45.25 12 60 7.25q95 0 95-98v-44q-46 0-78-0.75t-65.5-3.5-55.75-7.5-43.75-12.5-34.25-19-23-27.25-14.5-36.5-4.25-47q0-69 49.5-106.5t127-37.5zM220.5 77.5q-37 0-59.5 18.75t-22.5 58.75q0 14.5 2.25 25.75t7.75 20.25 13.25 15.25 21 11 28.25 7.5 37.75 4.5 46.5 2.25 57.75 0.5v-13q0-66-40-108.75t-92.5-42.75z" />
<glyph unicode="&#x62;" glyph-name="b" data-tags="b" horiz-adv-x="604" d="M346.5 6q51.5 0 93 21.25t68 57.25 40.75 82.75 14.25 98.75q0 113.5-60 183.5t-163 70q-110 0-159.5-82.5v242.5q0 24-16.25 37.5t-38.75 13.5-38.75-13.5-16.25-37.5v-613.5q0-24.5 16.75-38.5t38.75-14q25 0 39.75 13t14.75 39.5v27.5q49-87.5 166.5-87.5zM321.5 80.5q-77 0-109 46.75t-32 137.25q0 35.5 7.75 66.75t23.5 57.5 43.5 41.5 64.25 15.25 63.5-16 41.75-43.25 21.5-57.25 6.75-63.5q0-25.5-3.75-49.75t-13.25-49.25-23.75-43.75-37.75-30.5-53-11.75z" />
<glyph unicode="&#x63;" glyph-name="c" data-tags="c" horiz-adv-x="482" d="M285.5 6q101.5 0 153 44.5 18 15.5 18 34 0 4.5-1 8.75t-3.25 8-5.25 6.75-6.5 5-7.75 3.25-8.75 1.25q-6 0-12.25-2t-12.25-6.5q-39.5-28.5-105.5-28.5-67.5 0-105.75 50.5t-38.25 132.5q0 81.5 39.5 132t107.5 50.5q48.5 0 92.5-24 5.5-3 11.25-4.5t11.25-1.5q6 0 11.5 1.5t9.75 4.5 7.5 7 5 8.75 1.75 10.25-2.25 11-7 11.25-11.75 10.75q-55 38.5-138.5 38.5-55 0-101.75-20.5t-78.5-55.5-49.5-81.75-17.75-98.75q0-71 29.25-129t85.75-93 130-35z" />
<glyph unicode="&#x64;" glyph-name="d" data-tags="d" horiz-adv-x="604" d="M256.5 6q118 0 167 87.5v-27.5q0-52.5 54-52.5 22.5 0 39 14t16.5 38.5v613.5q0 24-16 37.5t-38.5 13.5-38.75-13.5-16.25-37.5v-242.5q-49.5 82.5-159.5 82.5-103 0-163.25-70t-60.25-183.5q0-52 14.25-98.75t40.75-82.75 68-57.25 93-21.25zM281.5 80.5q-29.5 0-53 11.75t-37.75 30.5-23.75 43.75-13.25 49.25-3.75 49.75q0 26 4 50.5t13.75 48.5 24.75 41.75 38.25 28.5 52.75 10.75q37 0 64.75-15.25t43.5-41.5 23.5-57.5 7.75-66.75q0-90.5-32.25-137.25t-109.25-46.75z" />
<glyph unicode="&#x65;" glyph-name="e" data-tags="e" horiz-adv-x="548" d="M295 6q109 0 184 66 16.5 13.5 16.5 32.5 0 15-10.25 26.5t-24.25 11.5q-9.5 0-19-6.5-76.5-54-139-54-67.5 0.5-107.75 38.25t-43.75 117.25h328q17 0 24.75 11.75t7.75 29.75q-1 49.5-15 91.75t-40.75 76-71 53.25-101.75 19.5q-56.5 0-103-20.5t-76.5-55.5-46.25-80.25-16.25-95.75q0-121 69.75-190.75t183.75-70.75zM152.5 303.5q2.5 27 11.75 51.5t25.25 45 41.5 33 57 12.5q61 0 93-40.5t36.5-101.5h-265z" />
<glyph unicode="&#x66;" glyph-name="f" data-tags="f" horiz-adv-x="359" d="M167.5 13q22.5 0 38.75 14.25t16.25 39.75v369.5h75q19 0 28.75 10t9.75 25.5q0 14.5-10 25t-28.5 10.5h-75v44.5q0 33.5 3.5 53.75t12.5 30.25 20 13 30.5 3h42.5q18 0 27.5 12.25t9.5 29.25q0 17.5-9.75 30.5t-27.25 13h-62.5q-72.5 0-114.5-40.75t-42-129.25v-59.5h-57.5q-18.5 0-28.5-10.5t-10-25q0-15 10.25-25t29.25-10.5h56.5v-369.5q0-25.5 16.25-39.75t38.75-14.25z" />
<glyph unicode="&#x67;" glyph-name="g" data-tags="g" horiz-adv-x="599" d="M285.5-205.5q113.5 0 180.75 56.5t67.25 170v439.5q0 24.5-15.5 38.25t-36 13.75q-19 0-33.75-11.25t-17.25-31.25v-33.5q-17 26.5-35.25 43.5t-49.75 28.25-74 11.25q-71 0-124-34t-80.25-92.5-27.25-133.5q0-111.5 63.5-179t171-67.5q108 0 153.5 83.5v-83.5q0-68.5-40.25-106.5t-110.75-38q-22 0-44.25 3.75t-34.25 7.5-33.25 11.75-27.25 10q-2.5 1-5.25 1.75t-5 1-4.75 0.25q-10 0-18-5.25t-12.25-13.5-4.25-17.5 4.75-18 14.25-14.75q27.5-17 75.25-29t102.25-12zM291.5 84.5q-60 1.5-100.75 46.25t-40.75 131.75q0 37.5 8.25 69.5t24.75 58 44.75 40.75 65.25 14.75 63.75-14 42-39.75 22.25-57.75 7-72.5q-0.5-89.5-38-133t-98.5-44z" />
<glyph unicode="&#x68;" glyph-name="h" data-tags="h" horiz-adv-x="589" d="M125 13q22.5 0 38.75 14t16.25 39v228.5q0 67.5 39.5 108.5t94.5 41q44.5 0 72.25-28.75t27.75-84.75v-264.5q0-25 16-39t38-14q22.5 0 39 14t16.5 39v262.5q0 49-14.75 86.5t-40.5 59.75-57.25 33.5-68 11.25q-56 0-98.25-20.25t-64.75-55.75v235.5q0 24-16.25 37.75t-38.25 13.75q-22.5 0-39-13.75t-16.5-37.75v-613q0-25 16.25-39t38.75-14z" />
<glyph unicode="&#x69;" glyph-name="i" data-tags="i" horiz-adv-x="247" d="M126.5 13q22.5 0 39.25 14.75t16.75 39.75v390.5q0 25.5-16.25 40t-38.25 14.5q-22.5 0-39-14.5t-16.5-40v-390.5q0-26 15.75-40.25t38.25-14.25zM127 617q30 0 48.25 17.25t18.25 45.75q0 28-18 45.5t-48 17.5-48.25-17.5-18.25-45.5q0-28.5 18.25-45.75t47.75-17.25z" />
<glyph unicode="&#x6a;" glyph-name="j" data-tags="j" horiz-adv-x="257" d="M8.5-176.5q39.5 0 68.25 4.25t48.5 14.5 31.75 23.5 18.5 35.25 8.75 45.25 2.25 58.25v453.5q0 25.5-16.25 40t-38.75 14.5-38.75-14.5-16.25-40v-468.5q0-31-2-46.5t-10.25-25.5-20.75-12.25-38-2.25q-16.5 0-25.75-11.75t-9.25-27.75 10-28 28-12zM127.5 617q30 0 48.25 17.25t18.25 45.75q0 28-18 45.5t-48 17.5-48.5-17.5-18.5-45.5q0-28.5 18.5-45.75t48-17.25z" />
<glyph unicode="&#x6b;" glyph-name="k" data-tags="k" horiz-adv-x="514" d="M125 13q22.5 0 39 14.75t16.5 40.25v200l229-241q15.5-16.5 36-16.5 13 0 25 6.75t19.25 18.25 7.25 24q0 8-3.25 16t-10.25 15.5l-185.5 194 164.5 154.5q4.5 4 7.5 9t4.25 10 1.25 10.5q0 12-6.75 23.75t-18 19-23.75 7.25q-7.5 0-15-3.25t-14.5-9.75l-217-208v378q0 25-16 39.75t-38 14.75q-22.5 0-39-14.5t-16.5-40v-608q0-26 16-40.5t38-14.5z" />
<glyph unicode="&#x6c;" glyph-name="l" data-tags="l" horiz-adv-x="254" d="M127 13q22.5 0 39.25 14.75t16.75 39.75v608.5q0 25-16.5 39.75t-38.5 14.75q-22.5 0-38.75-14.5t-16.25-40v-608.5q0-26 15.75-40.25t38.25-14.25z" />
<glyph unicode="&#x6d;" glyph-name="m" data-tags="m" horiz-adv-x="930" d="M124.5 13q22.5 0 39.25 13.75t16.75 38.75v230.5q0 69 35.5 109.25t95 40.25q48 0 74.5-29.5t26.5-89v-261q0-25 16-39t38.5-14 38.75 14 16.25 39v220q0 75 36.75 117.25t94.75 42.25q48.5 0 74.75-28.75t26.25-86.25v-265q0-25 16-38.75t38.5-13.75 39 13.75 16.5 38.75v263q0 96-51 143.5t-133.5 47.5q-62 0-107.25-28t-67.75-84q-15.5 50-58.75 81t-106.25 31q-111 0-159-89.5v34.5q0 22.5-16.5 35.25t-38.5 12.75q-22.5 0-39-13.75t-16.5-37.75v-395.5q0-25 16.25-38.75t38.25-13.75z" />
<glyph unicode="&#x6e;" glyph-name="n" data-tags="n" horiz-adv-x="589" d="M125 13q22.5 0 38.75 14t16.25 38.5v227.5q0.5 68.5 39 110.5t92 42q46 0 74.5-30t28.5-86.5v-263.5q0-25 16-38.75t38-13.75q22.5 0 39 13.75t16.5 38.75v262.5q0 49-14.5 86.5t-40 60-57.75 33.75-69.25 11.25q-57 0-99-21.75t-63-63.25v28q0 23.5-16 36.75t-38.5 13.25-39-13.75-16.5-37.75v-395.5q0-25 16.25-38.75t38.75-13.75z" />
<glyph unicode="&#x6f;" glyph-name="o" data-tags="o" horiz-adv-x="593" d="M297 80.5q-69.5 0-108.75 48t-39.25 133.5q0 86.5 39.25 135t108.75 48.5 108.75-48.75 39.25-134.75q0-85.5-39-133.5t-109-48zM297 6q51 0 93.5 14.25t72.25 38.5 50.5 57.25 30.5 69.75 9.75 76.25q0 52-16.5 98t-47.75 82-80.75 56.75-111.5 20.75q-62.5 0-112.5-21.25t-80.75-57.5-47-82-16.25-96.75q0-50 16-95.25t46.75-81.5 80.75-57.75 113-21.5z" />
<glyph unicode="&#x70;" glyph-name="p" data-tags="p" horiz-adv-x="604" d="M125-177.5q22.5 0 38.75 13.5t16.25 37.5v215.5q49.5-83 159.5-83 103 0 163 70t60 183.5q0 52-14.25 98.75t-40.75 82.75-68 57.25-93 21.25q-117.5 0-166.5-87.5v28q0 26.5-14.75 39.5t-39.75 13q-22 0-38.75-14.25t-16.75-38.75v-586q0-24 16.25-37.5t38.75-13.5zM319.5 80.5q-36.5 0-64.25 15.25t-43.5 41.25-23.5 57.25-7.75 66.75q0 90 32 137.25t109 47.25q29.5 0 53-12t37.75-30.75 23.75-43.75 13.25-49.5 3.75-49.5q0-33.5-6.75-63.5t-21.5-57-41.75-43-63.5-16z" />
<glyph unicode="&#x71;" glyph-name="q" data-tags="q" horiz-adv-x="604" d="M478.5-177.5q22.5 0 38.5 13.5t16 37.5v586q0 24.5-16.75 38.75t-38.75 14.25q-25 0-39.5-13t-14.5-39.5v-28q-49 87.5-167 87.5-51.5 0-93-21.25t-68-57.25-40.75-82.75-14.25-98.75q0-113.5 60.25-183.5t163.25-70q110 0 159.5 83v-215.5q0-24 16.25-37.5t38.75-13.5zM283.5 80.5q-36.5 0-63.5 16t-41.75 42.75-21.5 57-6.75 63.75q0 25 3.75 49.5t13.25 49.5 23.75 43.75 37.75 30.75 53 12q77 0 109.25-47.25t32.25-137.25q0-35.5-7.75-66.75t-23.5-57.25-43.5-41.25-64.75-15.25z" />
<glyph unicode="&#x72;" glyph-name="r" data-tags="r" horiz-adv-x="377" d="M125 13q22.5 0 39.25 13.75t16.75 38.25v233q0 36 11 61t31.5 38.25 44.75 18.75 55.75 5.5q16.5 0 26 13t9.5 31q0 9-2.5 17.5t-7.5 15.25-13 10.75-18 4q-48.5 0-87.25-31.5t-51.75-78l1.5 62q0.5 22-15.5 34.5t-38.5 12.5q-14.5 0-27-5.25t-20.75-17-8.25-28.25v-397q0-25 16-38.5t38-13.5z" />
<glyph unicode="&#x73;" glyph-name="s" data-tags="s" horiz-adv-x="502" d="M69 60.5q59-42 144-53 24-3 47.5-3 43 0 79.25 9.5t63.25 28.25 42.25 49 15.25 68.75q0 57.5-35 92t-113.5 54l-81 20q-47 11.5-62.5 23.25t-15.5 38.75q0 21.5 15 35.5t37.5 19.75 51.5 5.75q14 0 28.5-1.75t24.75-3.75 24.25-6 19.5-6 18-6.75 13-4.75q5-1.5 9.25-2.5t8.75-1q10 0 17.75 4.75t11.75 12.25 4 16q0 23.5-24 35-74 37.5-161.5 37.5-110.5 0-163.5-50.5-36-35.5-36-88.5 0-20 3.75-36.25t10-28.5 17.5-22.5 22.75-17.25 29.75-14 34.25-11.75 40.5-11.25l82.5-21q39-10 57-26.25t18-41.25q0-26-16.5-43.75t-41.5-25-56.5-7.25q-29 0-57.5 7.25t-45.5 15.25-37 20q-12.5 7-24.5 7-3 0-6-0.5t-5.75-1.5-5.25-2.25-4.75-3-4.25-3.75-3.5-4.25-2.75-4.75-2-5-1.25-5.25-0.5-5.75q0-18 16.5-30z" />
<glyph unicode="&#x74;" glyph-name="t" data-tags="t" horiz-adv-x="383" d="M245.5 8h19.5q11 0 18.5 0.25t17 0.75 16.5 2 14.25 3.5 12.25 5.5 9 8 6 10.75 2 14.25q0 11-4.75 20.5t-14.5 15.75-23.25 6.25h-3.5l-36.5-2.5h-4.5q-20.5 0-33 11.25t-17.5 31-5 49.75v251.5h87.5q19.5 0 29 9.75t9.5 25.25-9.75 25.75-28.75 10.25h-87.5v142q0 21-11.25 31.25t-29.25 10.25q-22 0-36.75-13.25t-17.25-34.75l-15-135.5h-56.5q-19 0-29-10t-10-25 10.5-25.5 29.5-10.5h55.5v-277.5q0-71.5 36.75-111.25t100.25-39.75z" />
<glyph unicode="&#x75;" glyph-name="u" data-tags="u" horiz-adv-x="589" d="M246.5 6q56.5 0 99.25 22t63.75 63.5v-29q0-23.5 16-36.5t38-13q22.5 0 39 13.5t16.5 38v395.5q0 25-16 38.75t-38.5 13.75-38.75-14-16.25-38.5v-227q-1-69-40-110.75t-92.5-41.75q-46 0-73.75 29.75t-27.75 86.75v263q0 25-16.25 38.75t-38.25 13.75q-22.5 0-38.75-13.75t-16.25-38.75v-262q0-49 14.5-86.5t39.75-60.25 57.25-34 69-11.25z" />
<glyph unicode="&#x76;" glyph-name="v" data-tags="v" horiz-adv-x="531" d="M267 12q34.5 0 55.25 18.75t37.75 61.75l143.5 352.5q4 9.5 4 18.5 0 13.5-8 25t-20.25 18-25.75 6.5q-14.5 0-26.75-8.5t-18.75-25.5l-141-357.5-141 357.5q-6.5 17-18.75 25.5t-26.75 8.5q-20.5 0-37.25-14.5t-16.75-35q0-4.5 1-9.25t3-9.25l143.5-352.5q17-43 37.75-61.75t55.25-18.75z" />
<glyph unicode="&#x77;" glyph-name="w" data-tags="w" horiz-adv-x="851" d="M620.5 13q51 0 71 61l122.5 374q3 9 3 17.5 0 13.5-7.5 24.5t-19.25 16.25-24.75 5.25q-15.5 0-28.25-8.5t-18.25-25.5l-108-351-112 329q-19 57-70.5 57-51 0-70.5-57l-111.5-329-108 351q-2.5 8.5-7.5 15.25t-11.25 10.75-13.25 6-14.5 2q-20.5 0-36.25-12.75t-15.75-33.75q0-2 0.25-4t0.5-4.25 1-4.25 1.25-4.5l123-374q19-61 71-61 56.5 0 79.5 67.5l112 327.5 112.5-327.5q23-67.5 79.5-67.5z" />
<glyph unicode="&#x78;" glyph-name="x" data-tags="x" horiz-adv-x="528" d="M433 13q21.5 0 38.5 15.25t17 34.75q0 15.5-10.5 29l-147.5 179.5 137 168q10 13 10 26.5 0 18.5-14.5 32.5t-34 14q-21 0-38-20.5l-120.5-147.5-120.5 146q-17.5 22-42 22-21.5 0-38.5-15.25t-17-35.75q0-14.5 10.5-29l135-164-149-182q-9.5-11.5-9.5-25.5 0-19 15.25-33.5t35.25-14.5q21 0 37 20.5l131 163 133-161.5q17-22 42-22z" />
<glyph unicode="&#x79;" glyph-name="y" data-tags="y" horiz-adv-x="533" d="M215.5-164.5l298.5 606.5q5.5 11 5.5 22.5 0 20.5-16.25 35t-36.75 14.5q-31.5 0-48-32.5l-142.5-290.5-139.5 284.5q-8 16.5-20.75 24.25t-27.25 7.75q-13.5 0-26-6.25t-20.25-17.75-7.75-25.5q0-11.5 6-23.5l181-354.5-99-201q-2.5-5.5-4-11t-1.5-11q0-21 16.75-36t37.75-15q29.5 0 44 29.5z" />
<glyph unicode="&#x7a;" glyph-name="z" data-tags="z" horiz-adv-x="480" d="M90 13h308q20 0 31 12.25t11 29.25-11 29.25-31 12.25h-227.5l258 335.5q14 19.5 14 38 0 19-14 31t-40.5 12h-299q-20 0-31-12.5t-11-29q0-17 11-29.5t31-12.5h221l-258-334.5q-13.5-16.5-13.5-36t14-32.5 37.5-13z" />
<glyph unicode="&#x7b;" glyph-name="braceleft" data-tags="braceleft" horiz-adv-x="341" d="M225.5-98.5h65.5q19 0 28.75 10.75t10.75 28.25q0 20-10 31.75t-28.5 11.75h-24q-26.5 0-35.5 20.75t-9 65.25v124.5q0 31.5-9.5 57.25t-24 40.75-25.5 22.5-20.5 11q79.5 28 79.5 137v118.5q0 46 9 67t34.5 21h22q19.5 0 30.25 11.5t10.75 30q0 20.5-11.5 31t-29.5 10.5h-63.5q-47.5 0-78.25-34.75t-30.75-83.75v-152.5q0-55.5-14.25-81.75t-53.75-30.25q-21-1-32.25-13.25t-11.25-30.75q0-19.5 12-31t31.5-12.5q40.5-4 54.25-30.25t13.75-80.75v-153q0-52 32.75-84.25t76.25-32.25z" />
<glyph unicode="&#x7c;" glyph-name="bar" data-tags="bar" horiz-adv-x="228" d="M113.5-174q16.5 0 28.75 11t12.25 30v847.5q0 19-12 29.75t-28.5 10.75-28.75-10.75-12.25-29.75v-847.5q0-19 12-30t28.5-11z" />
<glyph unicode="&#x7d;" glyph-name="braceright" data-tags="braceright" horiz-adv-x="341" d="M49-98.5h66q46 0 77.25 34t31.25 84.5v151q0 56 14.75 82t56.25 29.5q19 0 29.75 12.75t10.75 30.25q0 20-12 31.5t-31 12.5q-40.5 4-54.5 30.5t-14 81.5v154.5q0 51.5-32.75 84t-75.75 32.5h-66q-19.5 0-29.5-11.75t-10-29.25q0-19.5 11.5-30.75t30-11.25h22.5q25 0 34-21.5t9-64v-126q0-25 6.75-46.25t18-35.5 21.25-23.75 20.75-17 12.75-9.5q-10.5-4-21.75-12t-25.5-23-23.25-40.25-9-56.25v-129q0-41.5-9.25-61.5t-32.75-20h-25.5q-19.5 0-29.5-12t-10-29.5q0-18.5 10.75-29.75t28.75-11.25z" />
<glyph unicode="&#x7e;" glyph-name="asciitilde" data-tags="asciitilde" horiz-adv-x="660" d="M388 594q70.5 0 89.5 74.5 0.5 3.5 0.5 7 0 8.5-3.75 15.5t-10 10.75-13.75 3.75q-17.5 0-29-19.5-12.5-21.5-31-21.5-13.5 0-58 20.25t-74.5 20.25q-68 0-90-72-1-3-1.25-5.5t-0.25-5q0-11.5 8.25-18.5t19.75-7q17.5 0 27.5 14.5 16.5 24 38 24 15.5 0 59.25-20.75t68.75-20.75z" />
<glyph unicode="&#xa1;" glyph-name="exclamdown" data-tags="exclamdown" horiz-adv-x="394" d="M181 320q1 11 6 18.75t11.75 11.5 14.75 3.75q12.5 0 21.75-8.75t11.25-25.25l33-441q0.5-3 0.5-6 0-26-19.75-40.75t-46.5-14.75-46.5 14.75-19.75 40.75q0 1 0.25 2t0.25 2v2zM215.5 569.5q29 0 47.5-18.5t18.5-43.5q0-26-19-44t-47-18q-29.5 0-48 18.5t-18.5 43.5q0 25.5 19 43.75t47.5 18.25z" />
<glyph unicode="&#xa2;" glyph-name="cent" data-tags="cent" horiz-adv-x="522" d="M285-120q13 0 22.25 8.5t9.25 23.5v134h-64v-134q0-15 9.5-23.5t23-8.5zM252.5 488h64v134.5q0 15-9.25 23.25t-22.25 8.25q-13.5 0-23-8.25t-9.5-23.25v-134.5zM285.5 6q101.5 0 153 44.5 18 15.5 18 34 0 14-9.5 23.5t-23 9.5q-12.5 0-24.5-8.5-39.5-28.5-105.5-28.5-67.5 0-105.75 50.5t-38.25 132.5q0 81.5 39.5 132t107.5 50.5q48.5 0 92.5-24 11.5-6 22.5-6 7.5 0 14 2.5t11.25 6.75 7.5 10.25 2.75 12.5q0 18.5-21 33-55 38.5-138.5 38.5-55 0-101.75-20.5t-78.5-55.5-49.5-81.75-17.75-98.75q0-71 29.25-129t85.75-93 130-35z" />
<glyph unicode="&#xa3;" glyph-name="sterling" data-tags="sterling" horiz-adv-x="688" d="M114.5 12.5h432.5q12.5 0 19.25 14t6.75 32.75-6.75 32.75-19.25 14h-277.5v269h167.5q8.5 0 14.5 5.5t8.75 14 2.75 19q0 16.5-7 29.75t-18 13.25h-168.5v51q0 35 2 56.25t8 40.25 17.75 28.75 30.75 15 47.5 5.25q43 0 126-16 1.5-0.5 3-0.5 12 0 20 18.75t8 38.25q0 19-7.5 21.5-79.5 25.5-160.5 25.5-100.5 0-155-48t-54.5-145.5v-90.5h-58q-4 0-7.25-1.5t-5.75-4-4.5-6.25-3.25-8-1.75-8.75-0.5-9.5q0-17 6.25-30.25t16.75-13.25h58v-270h-41q-11.5 0-18-13.75t-6.5-32.25q0-19 6.75-32.75t18.25-13.75z" />
<glyph unicode="&#xa4;" glyph-name="currency" data-tags="currency" horiz-adv-x="599" d="M110 92q11 0 20 9l43 43.5q52.5-37 129-37 77 0 130 37.5l43.5-44q8.5-9 19.5-9 11.5 0 20.5 8.75t9 20.75q0 11.5-8.5 20l-42.5 41.5q44.5 56.5 44.5 133 0 75-43 130.5l41 40.5q8.5 8.5 8.5 19.5 0 12-8.75 20.75t-20.25 8.75-20.5-9l-41-41q-55 39.5-132 39.5-75.5 0-131.5-39.5l-40.5 41q-9 9-20.5 9t-20-8.75-8.5-20.25q0-12 8.5-20l40.5-40.5q-43.5-56.5-43.5-130.5 0-77 45-132.5l-42-42q-8.5-8.5-8.5-20 0-12 8.75-20.75t20.25-8.75zM302 162.5q-70 0-109.25 45.75t-39.25 107.75q0 39.5 16 73.75t50.5 57.25 82 23q36 0 65-13.25t47-35.25 27.5-49 9.5-56.5q0-39.5-16-73.75t-50.75-57-82.25-22.75z" />
<glyph unicode="&#xa5;" glyph-name="yen" data-tags="yen" horiz-adv-x="621" d="M104.5 160.5h442q15 0 23.25 10t8.25 23.5q0 13-8.5 23.25t-23 10.25h-442q-15 0-23-10t-8-23q0-13.5 8.25-23.75t22.75-10.25zM104.5 282.5h442q15 0 23.25 9.75t8.25 23.25q0 13-8.5 23.25t-23 10.25h-442q-15 0-23-10t-8-22.5q0-13.5 8-23.75t23-10.25zM261 73.5q0-28.5 18.5-44.5t43.5-16 43.5 16 18.5 44v237.5l219.5 346.5q9 14.5 9 28.5 0 10-4.5 18.5t-11.75 14.5-16.75 9.5-19.5 3.5q-30.5 0-47-27l-184.5-301.5-179.5 295q-19.5 31.5-52 31.5-24.5 0-43.75-16.75t-19.25-39.25q0-13.5 8-26l218-341.5v-232.5z" />
<glyph unicode="&#xa6;" glyph-name="brokenbar" data-tags="brokenbar" horiz-adv-x="228" d="M111.5-11q17.5 0 29.25 11.5t11.75 31v281q0 20-11.5 31.25t-29 11.25q-17 0-28.75-10.75t-11.75-29.75v-283q0-20 11.5-31.25t28.5-11.25zM112.5 434.5q17 0 29 11.5t12 31v265.5q0 19.5-11.75 31t-28.75 11.5-29-11-12-30v-267q0-20 11.5-31.25t29-11.25z" />
<glyph unicode="&#xa7;" glyph-name="section" data-tags="section" horiz-adv-x="609" d="M284-3.5q59 0 105 17t74 52.75 28 85.75q0 85-103.5 125.5 48.5 20 79.25 53.75t30.75 77.75q0 28.5-13.75 51.5t-36 37.5-49 26.75-53.25 22.5-48.75 21-36 26-13.75 33.75 9 31.75 24.5 20 31.75 9.75 34.75 3q23 0 90-15.5 1-0.5 2-0.75t2-0.25h2q12.5 0 25.25 11.75t12.75 27.25q0 27.5-28.5 34.5-76 19.5-128 19.5-92 0-146.5-35.25t-54.5-108.25q0-20.5 6.25-37t21.5-32 28-25.25 38.25-27.25q-47-16-79.5-50.75t-32.5-76.25q0-32 14.5-56.5t37.75-39.25 51.25-26.25 56.25-20.75 51.5-19 37.75-24.75 14.5-34.5q0-41.5-33-62.25t-78-20.75q-64 0-111 16.5-5.5 2-11.5 2-15.5 0-26.75-11.75t-11.25-26.75q0-25 28.5-34 73.5-22.5 158-22.5zM310.5 308q-3 1.5-15.75 6.75t-17.75 7.5-16.5 8-16.75 9.5-13.25 10-11.75 12-6.75 13.25-3 15.5q0 14.5 4.75 26t17.5 22.75 20.25 16.5 28 17.75q3.5 2.5 5.5 3.5 9-4 24.5-10.25t25.75-10.5 23-11 20.25-13.5 12.75-16.25 5.25-20.5q0-14-5.75-25.75t-20.25-23.25-23-16.75-30-17.25l-2.25-1.5t-2.25-1.25z" />
<glyph unicode="&#xa8;" glyph-name="dieresis" data-tags="dieresis" horiz-adv-x="285" d="M40 609.5q26 0 43.25 16.75t17.25 40.25-17.25 40.25-43.25 16.75q-26.5 0-43.75-17t-17.25-40q0-23.5 17.5-40.25t43.5-16.75zM245 609.5q26.5 0 43.5 16.75t17 40.25-17.25 40.25-43.25 16.75q-27 0-44-17t-17-40q0-23.5 17.5-40.25t43.5-16.75z" />
<glyph unicode="&#xa9;" glyph-name="copyright" data-tags="copyright" horiz-adv-x="843" d="M430 207.5q23.5 0 52.5 5.5t53.75 19 24.75 31.5q0 10-6.75 17.5t-15.75 7.5q-4 0-10-2.5-48-23.5-88-23.5-57 0-95.75 38t-38.75 106.5q0 69.5 36.25 104t93.75 34.5q46 0 93.5-23 6.5-2.5 10-2.5 11 0 18 8.75t7 19.75q0 16.5-26.5 29.25t-56.25 18-52.25 5.25q-39 0-73.25-12.5t-61.25-36-42.75-61.5-15.75-85q0-47.5 16-86t43.25-62.75 61.5-37 72.75-12.75zM425.5 126.5q-81.5 0-147 35.75t-102.5 99.25-37 142q0 119 81.5 197.75t205 78.75q80.5 0 145.5-35.75t102-99.25 37-141.5q0-119-81-198t-203.5-79zM425.5 65.5q71.5 0 136.75 26.75t112.5 72 75.25 108 28 131.25-28 131.25-75.25 108.25-112.5 72.5-136.75 27q-96 0-177.75-45.5t-129.25-123.75-47.5-169.75 47.5-169.5 129.25-123.25 177.75-45.25z" />
<glyph unicode="&#xaa;" glyph-name="ordfeminine" data-tags="ordfeminine" horiz-adv-x="537" d="M196.5 370.5q40 0 74.75 19.5t49.75 54l0.5-30.5q0-15.5 10.75-24.25t25.25-8.75q15 0 26.25 9.25t11.25 26.25l0.5 217q0 70-40.25 103t-110.75 33q-107.5 0-145.5-52.5-6-6.5-6-15.5 0-10 7-17.25t17.5-7.25q6.5 0 12 3 19.5 10 32 15.25t34 10 45.5 4.75q78.5 0 78.5-70v-28q-24 1-40 1-212.5 0-212.5-128 0-53 36.25-83.5t93.25-30.5zM218.5 422q-33 1-53.75 18t-20.75 49q0 13.5 4 24.5t12.75 18.5 17.75 13 24.5 8.75 26.5 5.25 30 2.75 29.5 1 30.5 0.25v-31.5q-2-52-29.75-80.25t-71.25-29.25z" />
<glyph unicode="&#xab;" glyph-name="guillemotleft" data-tags="guillemotleft" horiz-adv-x="595" d="M238 48.5q18 0 29.5 10.75t11.5 27.75q-2 10-5 17l-82 178 80.5 174q6 13 6 21.5 0 16-11.25 26.75t-27.75 10.75q-27.5 0-45.5-30l-115.5-203 112-197.5q20.5-36 47.5-36zM454 48.5q18 0 29.75 10.75t11.75 27.75q-1.5 9.5-5 17l-82 178 80.5 174q6 14 6 21.5 0 16-11.5 26.75t-28 10.75q-28 0-45.5-30l-115.5-203 112-197.5q20.5-36 47.5-36z" />
<glyph unicode="&#xac;" glyph-name="logicalnot" data-tags="logicalnot" horiz-adv-x="660" d="M546 129.5q16.5 0 28.75 10.5t12.25 29.5v206.5q0 15.5-13 28.5t-29 13h-433.5q-18 0-27.75-12.25t-9.75-28.75q0-17 9.75-29t27.75-12h393.5v-166q0-19 12-29.5t29-10.5z" />
<glyph unicode="&#xad;" glyph-name="uni00AD" data-tags="uni00AD" horiz-adv-x="368" d="M64 238.5h235.5q22.5 0 35.5 10.75t13 28.75q0 19-13 29.75t-35.5 10.75h-231q-22.5 0-36-11t-13.5-29.5q0-18 12.25-28.75t32.75-10.75z" />
<glyph unicode="&#xae;" glyph-name="registered" data-tags="registered" horiz-adv-x="844" d="M324 204.5q13 0 22.75 8t9.75 22v138h67l96-153.5q8-13.5 24-13.5 12.5 0 22.75 8.5t10.25 20.5q0 7.5-4.5 14.5l-85.5 125q53.5 6 82.75 29.5t29.25 73.5q0 55-33.25 80.5t-110.25 25.5h-122.5q-19.5 0-29.75-12t-10.25-31v-305.5q0-14.5 9.25-22.25t22.25-7.75zM356.5 425.5v104.5h91.5q40 0 61.75-10.75t21.75-38.75q0-34-21-44.75t-62-10.75h-11.5t-14.25 0.25-14.75 0.25-15.75 0.25-14.75 0.25h-5.75t-5.5-0.25-5.25-0.25h-4.5zM424 112q-82 0-148 36.25t-103.25 100.5-37.25 143.25 37.25 143 103.25 100.25 148 36.25q123.5 0 205.75-79.75t82.25-199.75q0-59.5-22-111.5t-60-89-91.5-58.25-114.5-21.25zM424 51q72.5 0 138.5 27.25t114 73 76.5 109 28.5 131.75q0 69.5-28.5 133t-76.5 109.5-114 73.5-138.5 27.5q-97 0-179.5-46.25t-130.75-125.5-48.25-171.75q0-91.5 48.25-170.25t130.75-124.75 179.5-46z" />
<glyph unicode="&#xaf;" glyph-name="macron" data-tags="macron" horiz-adv-x="285" d="M10.5 652.5h266q17.5 0 27 11t9.5 26.5-9.5 26.5-27 11h-266q-17.5 0-27.5-11t-10-26.5 9.75-26.5 27.75-11z" />
<glyph unicode="&#xb0;" glyph-name="degree" data-tags="degree" horiz-adv-x="410" d="M205 486.5q-41 0-67.5 25.75t-26.5 65.25q0 38.5 26.5 65t67 26.5q40 0 67.25-26.5t27.25-65q0-39.5-27-65.25t-67-25.75zM205 430.5q62 0 107 43t45 104-45 104-107 43q-63.5 0-107.75-43t-44.25-104 44.5-104 107.5-43z" />
<glyph unicode="&#xb1;" glyph-name="plusminus" data-tags="plusminus" horiz-adv-x="660" d="M329 129.5q17 0 29.25 10.5t12.25 28.5v111.5h175q19 0 29.75 12t10.75 28q0 17-10.5 28.5t-30 11.5h-175v112.5q0 18.5-11.75 28.75t-28.75 10.25q-16.5 0-28.75-10.25t-12.25-28.75v-112.5h-174.5q-19 0-29.5-11.75t-10.5-28.25q0-16 10.5-28t29.5-12h174.5v-111.5q0-18.5 11.75-28.75t28.25-10.25zM114.5 13h431q19 0 29.75 12t10.75 28q0 16.5-10.5 28.25t-30 11.75h-431q-19 0-29.5-11.75t-10.5-28.25 10.5-28.25 29.5-11.75z" />
<glyph unicode="&#xb2;" glyph-name="uni00B2" data-tags="uni00B2" horiz-adv-x="376" d="M81 307.5h219q12.5 0 19.25 7.75t6.75 18.75q0 10.5-7 18.75t-19 8.25h-175.5q197.5 161 197.5 261 0 49-37.25 76.5t-94.25 27.5q-24.5 0-54-7.75t-51.75-21.5-22.25-28.25q0-10 7-17.25t17.5-7.25q9 0 15.5 4 46 23 80 23 29 0 49.5-14.5t20.5-41q0-31.5-36.25-79.5t-86.25-94.5q-15-15.5-41.25-38.75t-36.75-36.25-10.5-27q0-14.5 10-23.25t29.5-8.75z" />
<glyph unicode="&#xb3;" glyph-name="uni00B3" data-tags="uni00B3" horiz-adv-x="406" d="M201.5 343.5q-20.5 0-40 5.25t-33.5 10.25-21.5 5q-10.5 0-17.5-7.75t-7-17.75q0-21 41.25-34.5t78.25-13.5q62 0 102 30.25t40 84.75q0 41.5-21.75 70t-60.75 37.5q73.5 25.5 73.5 94.5 0 55.5-37 85.75t-95 30.25q-25.5 0-53.25-5t-49.25-15.75-21.5-24.75q0-10 7.25-17.75t18.25-7.75l34 10q34 10 61.5 10 31.5 0 53.25-17.75t21.75-48.25q0-33-24.5-51.5t-61-19h-21.5q-11 0-17-7.75t-6-18.75q0-10 6.5-17.75t18-7.75h23q38.5 0 63.75-20.5t25.25-55.5q0-31.5-21.25-48t-58.25-16.5z" />
<glyph unicode="&#xb4;" glyph-name="acute" data-tags="acute" horiz-adv-x="285" d="M52.5 613.5q11 0 23 9.5l155.5 124.5q16 13 16 30 0 20-17.25 36t-37.25 16q-19 0-36.5-22.5l-120.5-148q-8-10-8-20.5 0-11 7.25-18t17.75-7z" />
<glyph unicode="&#xb5;" glyph-name="mu" data-tags="mu" horiz-adv-x="594" d="M124-125.5q22.5 0 39.5 14.5t17 40v103.5q33-19 77.5-19 50 0 93.25 23.25t62.75 65.25v-38q0-24 16-37.5t38-13.5q22.5 0 39 13.75t16.5 38.75v394q0 25-16 38.5t-38.5 13.5-38.75-13.5-16.25-38.5v-255q-4.5-63-41-96.5t-91-33.5q-43.5 0-72.5 29.75t-29 85.25v269.5q0 25-16.5 38.75t-39 13.75-38.5-13.75-16-38.75v-530q0-26 15.75-40.25t37.75-14.25z" />
<glyph unicode="&#xb6;" glyph-name="paragraph" data-tags="paragraph" horiz-adv-x="658" d="M302.5-97.5q17.5 0 30.25 11t12.75 30v717h106.5v-717q0-19.5 12.5-30.25t30-10.75 30 10.75 12.5 30.25l0.5 717.5q0 16.5-1.75 26.5t-7.75 21.25-20 16.75-36.5 5.5h-190q-105.5 0-164.5-50.5t-59-136.5q0-75 58.25-129t143.25-54v-417.5q0-19.5 12.75-30.25t30.25-10.75z" />
<glyph unicode="&#xb7;" glyph-name="periodcentered" data-tags="periodcentered" horiz-adv-x="305" d="M150 209.5q29.5 0 48 18.5t18.5 44.5q0 25.5-18.5 44t-48 18.5-48-18.5-18.5-44q0-26 18.5-44.5t48-18.5z" />
<glyph unicode="&#xb8;" glyph-name="cedilla" data-tags="cedilla" horiz-adv-x="285" d="M143.5-194.5q27.5 0 51 8.25t39.5 26.5 16.5 43.75q0 40-25 57.75t-64.5 18.25q-5 0-21-1l20 56.5h-40l-24.5-65q-2.5-5.5-2.5-12 0-17.5 22-17.5l10.5 1.5q21.5 0 36.75-8.75t15.25-26.75q0-20-11.25-30.25t-37.75-10.25q-28.5 0-79.5 17-4 1.5-5.5 1.5-8 0-12.75-6t-4.75-14.5q0-18 36-28.5t81.5-10.5z" />
<glyph unicode="&#xb9;" glyph-name="uni00B9" data-tags="uni00B9" horiz-adv-x="349" d="M212.5 307.5q13 0 22.5 8t9.5 23v341.5q0 16.5-8.5 25.5t-21 9q-10.5 0-17.5-5l-102.5-63q-12-8-12-20 0-10 7.25-17.75t17.25-7.75q6.5 0 13.5 4l60 38v-304.5q0-15 9-23t22.5-8z" />
<glyph unicode="&#xba;" glyph-name="ordmasculine" data-tags="ordmasculine" horiz-adv-x="542" d="M263.5 437q-28 0-49.75 12t-34.5 32-19.25 43.75-6.5 49.25q0 35.5 10.75 65.5t36.5 51.25 62.75 21.25q28 0 49.75-12t34.5-32 19.25-43.75 6.5-49.25q0-26-6.5-49.75t-19.25-44-34.5-32.25-49.75-12zM263.5 380.5q50 0 89 16t62.5 43.5 35.5 61.75 12 72.75-12 72.75-35.5 62-62.5 43.75-89 16q-49.5 0-88.5-16t-62.5-43.75-35.5-62-12-72.75 12-72.75 35.5-61.75 62.5-43.5 88.5-16z" />
<glyph unicode="&#xbb;" glyph-name="guillemotright" data-tags="guillemotright" horiz-adv-x="595" d="M138.5 48.5q26.5 0 47.5 36l112 197.5-112 197q-21 36-48.5 36-16.5 0-28.25-10.5t-11.75-26.5q0-8.5 6.5-21.5l80.5-174.5-80.5-175q-6.5-14-6.5-22 0-16.5 12-26.5t29-10zM354.5 48.5q27 0 48 36l112 197.5-112 197q-21.5 36-48.5 36-16.5 0-28.5-10.5t-12-26.5q0-7 7-22l80.5-174-80.5-174.5q-6.5-14-6.5-22 0-16.5 12-26.75t28.5-10.25z" />
<glyph unicode="&#xbc;" glyph-name="onequarter" data-tags="onequarter" horiz-adv-x="808" d="M671 13.5q12 0 21 8.25t9 23.25v60h38.5q12 0 18.25 6.5t6.25 15.5-6.5 15.5-18 6.5h-38.5v232.5q0 24.5-11.75 37.5t-31.25 13q-37 0-57.5-37l-153.5-240.5q-6.5-10-6.5-20.5 0-12.5 9.25-20.75t24.75-8.25h166.5v-60q0-15 9-23.25t21-8.25zM200.5 307.5q13 0 22.5 8t9.5 23v341.5q0 16.5-8.5 25.5t-21 9q-10.5 0-17.5-5l-102.5-63q-12-8-12-20 0-10 7.25-17.75t17.25-7.75q6.5 0 13.5 4l60 38v-304.5q0-15 9-23t22.5-8zM272-26q25 0 33.5 24l235 691.5q2.5 9 2.5 14 0 15-11 24t-25.5 9q-25.5 0-33.5-24.5l-234-691.5q-2.5-8.5-2.5-13.5 0-14.5 10.75-23.75t24.75-9.25zM500 148.5l141 226v-226h-141z" />
<glyph unicode="&#xbd;" glyph-name="onehalf" data-tags="onehalf" horiz-adv-x="818" d="M514.5 12.5h219q12.5 0 19.25 8t6.75 18.5q0 11-7 19.25t-19 8.25h-175q197.5 161 197.5 261.5 0 49-37.25 76.25t-94.75 27.25q-39 0-83.5-18t-44.5-40q0-9.5 7-16.5t18-7q8 0 15 3.5 44 23 80.5 23 29 0 49.5-14.25t20.5-40.75q0-31.5-35.75-78.75t-86.75-95.25q-15-16-41.5-39.5t-36.75-36.5-10.25-27 9.75-23 29.25-9zM200.5 307.5q13 0 22.5 8t9.5 23v341.5q0 16.5-8.5 25.5t-21 9q-10.5 0-17.5-5l-102.5-63q-12-8-12-20 0-10 7.25-17.75t17.25-7.75q6.5 0 13.5 4l60 38v-304.5q0-15 9-23t22.5-8zM269.5-26q24.5 0 33 24l235.5 691.5q2 7.5 2 13.5 0 15.5-10.75 24.5t-25.25 9q-25.5 0-34-24.5l-234-691.5q-2.5-8.5-2.5-13 0-15 10.75-24.25t25.25-9.25z" />
<glyph unicode="&#xbe;" glyph-name="threequarters" data-tags="threequarters" horiz-adv-x="849" d="M157.5 346.5q-23.5 0-55.75 9.5t-38.75 9.5q-5.5 0-10.5-2t-8-5.25-4.75-7.5-1.75-9.25q0-21 41.25-34.5t78.25-13.5q62 0 102 30.25t40 84.75q0 41.5-23.5 70t-63.5 37q2.5 11 11.5 20.25t20 16.25 21.5 14.75 17.75 18.75 7.25 25q0 55-39 85.75t-97 30.75q-41.5 0-80.75-13t-39.25-33.5q0-10 7.25-17.5t18.75-7.5q0.5 0 35 8.75t58.5 8.75q32 0 54.25-17t22.25-46.5q0-33-24-51.25t-61-19.25l-20-0.5q-12-0.5-18.25-7.5t-6.25-17.5q0-10 6.25-17t18.25-7h22.5q38 0 63.5-21.75t25.5-56.75q0-31.5-21.25-48t-58.25-16.5zM691.5 13.5q12 0 21 8.25t9 23.25v60h38.5q12 0 18.25 6.5t6.25 15.5-6.25 15.5-18.25 6.5h-38.5v232.5q0 24.5-11.75 37.5t-31.75 13q-36.5 0-57-37l-154-240.5q-6-9-6-20.5 0-12.5 9.25-20.75t25.25-8.25h165.5v-60q0-15 9-23.25t21.5-8.25zM299-26q25 0 33 24l235.5 691.5q2.5 8.5 2.5 13.5 0 15.5-10.75 24.5t-25.25 9q-26 0-34-24.5l-234-691.5q-2.5-8.5-2.5-13.5 0-14.5 10.75-23.75t24.75-9.25zM520 148.5l141 226v-226h-141z" />
<glyph unicode="&#xbf;" glyph-name="questiondown" data-tags="questiondown" horiz-adv-x="522" d="M359.5 339q0 9-3.25 16.5t-8.25 13-11.75 9.25-14.25 5.5-15 1.75q-21 0-36.5-12t-15-33l0.5-41q0-15.5-10.75-31.25t-28.25-30-38.5-29.5-42.25-33.75-38.5-39.25-28.25-49-11-59.75q0-48 17-84.5t47.25-58.25 68.25-32.25 83.5-10.5q75.5 0 149 20.5 19 5.5 29 18.25t10 28.25q0 20.5-12 34t-31 13.5q-10 0-54.75-7.25t-62.75-7.25q-115.5 0-115.5 94.5 0 23 9.5 44t24.75 37.75 33.75 32.75 37.25 31.75 34 31.5 24.75 35.25 9.5 40.5zM306 584.5q-29 0-47.5-18.5t-18.5-44.5q0-25.5 18.75-43.25t47.25-17.75q29.5 0 47.75 18t18.25 43q0 26-18.5 44.5t-47.5 18.5z" />
<glyph unicode="&#xc0;" glyph-name="Agrave" data-tags="Agrave" horiz-adv-x="722" d="M364.5 809.5q10.5 0 17.25 7.5t6.75 18q0 9-8 20l-119 146q-19 24-38 24-20.5 0-38-16.25t-17.5-35.75q0-16 14-27l155.5-124.5q13-12 27-12zM495.5 271.5h-263l131.5 344.5zM581 48.5q7.5-20 22.5-29.75t33-9.75q24.5 0 43.25 15.25t18.75 37.75q0 10-4 20l-231.5 579.5q-13 31.5-29.5 49t-31.75 22-37.75 4.5q-33.5 0-57-15t-41.5-60.5l-231.5-579.5q-4-10-4-20 0-22.5 18.75-37.75t43.25-15.25q18 0 33 9.75t22.5 29.75l51.5 135h330.5z" />
<glyph unicode="&#xc1;" glyph-name="Aacute" data-tags="Aacute" horiz-adv-x="722" d="M354.5 812.5q11 0 23 9.5l155.5 124.5q16 13 16 30 0 20-17.25 36t-37.25 16q-19 0-36.5-22.5l-120.5-148q-8-10-8-20.5 0-11 7.25-18t17.75-7zM495.5 271.5h-263l131.5 344.5zM581 48.5q7.5-20 22.5-29.75t33-9.75q24.5 0 43.25 15.25t18.75 37.75q0 10-4 20l-231.5 579.5q-13 31.5-29.5 49t-31.75 22-37.75 4.5q-33.5 0-57-15t-41.5-60.5l-231.5-579.5q-4-10-4-20 0-22.5 18.75-37.75t43.25-15.25q18 0 33 9.75t22.5 29.75l51.5 135h330.5z" />
<glyph unicode="&#xc2;" glyph-name="Acircumflex" data-tags="Acircumflex" horiz-adv-x="722" d="M233.5 777.5q22 0 39.5 22l82.5 110 81.5-110q16-21.5 38.5-21.5 14.5 0 24 9t9.5 22.5q0 11.5-10 26l-94.5 129q-23 28-49.5 28-27 0-49.5-28l-95-129.5q-10.5-13.5-10.5-25 0-14.5 9.25-23.5t24.25-9zM495.5 271.5h-263l131.5 344.5zM581 48.5q7.5-20 22.5-29.75t33-9.75q24.5 0 43.25 15.25t18.75 37.75q0 10-4 20l-231.5 579.5q-13 31.5-29.5 49t-31.75 22-37.75 4.5q-33.5 0-57-15t-41.5-60.5l-231.5-579.5q-4-10-4-20 0-22.5 18.75-37.75t43.25-15.25q18 0 33 9.75t22.5 29.75l51.5 135h330.5z" />
<glyph unicode="&#xc3;" glyph-name="Atilde" data-tags="Atilde" horiz-adv-x="722" d="M221.5 808.5q20 0 31.5 17.5 17 24.5 37 24.5 16 0 59.75-21t69.25-21q23 0 43.75 10.25t34.25 30.25 13.5 45q0 7-4.25 11.5t-9.75 5.5q-2.5 11.5-14.5 11.5-14-2-30.5-22.5t-29-20.5q-13.5 0-36 10.25t-48.5 20.5-48.5 10.25q-74.5 0-92.5-81-1.5-2.5-1.5-7.5 0-11 7.25-17.25t18.75-6.25zM495.5 271.5h-263l131.5 344.5zM581 48.5q7.5-20 22.5-29.75t33-9.75q24.5 0 43.25 15.25t18.75 37.75q0 10-4 20l-231.5 579.5q-13 31.5-29.5 49t-31.75 22-37.75 4.5q-33.5 0-57-15t-41.5-60.5l-231.5-579.5q-4-10-4-20 0-22.5 18.75-37.75t43.25-15.25q18 0 33 9.75t22.5 29.75l51.5 135h330.5z" />
<glyph unicode="&#xc4;" glyph-name="Adieresis" data-tags="Adieresis" horiz-adv-x="722" d="M256.5 808.5q26 0 43.25 16.75t17.25 40.25-17.25 40.25-43.25 16.75q-26.5 0-43.75-17t-17.25-40q0-23.5 17.5-40.25t43.5-16.75zM461.5 808.5q26.5 0 43.5 16.75t17 40.25-17.25 40.25-43.25 16.75q-27 0-44-17t-17-40q0-23.5 17.5-40.25t43.5-16.75zM495.5 271.5h-263l131.5 344.5zM581 48.5q7.5-20 22.5-29.75t33-9.75q24.5 0 43.25 15.25t18.75 37.75q0 10-4 20l-231.5 579.5q-13 31.5-29.5 49t-31.75 22-37.75 4.5q-33.5 0-57-15t-41.5-60.5l-231.5-579.5q-4-10-4-20 0-22.5 18.75-37.75t43.25-15.25q18 0 33 9.75t22.5 29.75l51.5 135h330.5z" />
<glyph unicode="&#xc5;" glyph-name="Aring" data-tags="Aring" horiz-adv-x="722" d="M360 851.5q-23.5 0-38.25 14.25t-14.75 37.25 14.75 37 38.25 14 38.25-14 14.75-37-14.75-37.25-38.25-14.25zM360 803.5q45 0 73.25 27.75t28.25 71.75q0 43.5-28.25 71t-73.25 27.5-73.5-27.5-28.5-71q0-44 28.5-71.75t73.5-27.75zM495.5 271.5h-263l131.5 344.5zM581 48.5q7.5-20 22.5-29.75t33-9.75q24.5 0 43.25 15.25t18.75 37.75q0 10-4 20l-231.5 579.5q-13 31.5-29.5 49t-31.75 22-37.75 4.5q-33.5 0-57-15t-41.5-60.5l-231.5-579.5q-4-10-4-20 0-22.5 18.75-37.75t43.25-15.25q18 0 33 9.75t22.5 29.75l51.5 135h330.5z" />
<glyph unicode="&#xc6;" glyph-name="AE" data-tags="AE" horiz-adv-x="987" d="M630 13h293q21.5 0.5 32.5 12.75t11 30.25q0 20-13.75 35.25t-37.25 15.25h-234l-36.5 227.5h253q21 0 32.25 12.5t11.25 30.5q0 20-13.5 35.25t-37 15.25h-258.5l-33 209.5h315.5q21 0 32.25 12.5t11.25 30.5q0 20-13.75 35.5t-37.25 15.5l-412-0.5q-40.5 0-69.25-19.5t-58.75-78l-331.5-546.5q-8.5-16-8.5-29 0-20 15-32.25t36-12.25q40.5 0 60 39.5l86.5 139h321.5l23.5-139q2.5-21 19.25-30.25t40.75-9.25zM267 272l213 380h1.5l55-380h-269.5z" />
<glyph unicode="&#xc7;" glyph-name="Ccedilla" data-tags="Ccedilla" horiz-adv-x="687" d="M393-192q27.5 0 51 8.25t39.5 26.5 16.5 43.75q0 40-25 57.75t-64.5 18.25q-5 0-21-1l20 56.5h-40l-24.5-65q-2.5-5.5-2.5-12 0-17.5 22-17.5l10.5 1.5q21.5 0 36.75-8.75t15.25-26.75q0-20-11.25-30.25t-37.75-10.25q-28.5 0-79.5 17-4 1.5-5.5 1.5-8 0-12.75-6t-4.75-14.5q0-18 36-28.5t81.5-10.5zM393 2q120 0 207 55 5.5 3.5 9.75 7.5t7.25 8.5 5 9 3 9.25 1 9.75q0 19-13 34t-31.5 15q-5 0-10.25-1.5t-10.25-4q-26-14-42.5-21.5t-45.25-14.75-58.25-7.25q-111 0-169 73t-58 201q0 127 57.25 201t164.75 74q26.5 0 51.75-5t37.25-9.25 32-13.5 21-9.75q2-1 4-1.5l4-1t4-0.5h4q6.5 0 13 2t11.75 5.25 10 8.25 8 10.5 5 12 1.75 13q0 28-30.5 43.5-85.5 45-182 45-101.5 0-180.75-46.75t-123.25-132.5-44-197.25q0-107.5 41.75-191.75t118.5-131.5 175.75-47.25z" />
<glyph unicode="&#xc8;" glyph-name="Egrave" data-tags="Egrave" horiz-adv-x="620" d="M331 809.5q10.5 0 17.25 7.5t6.75 18q0 9-8 20l-119 146q-19 24-38 24-20.5 0-38-16.25t-17.5-35.75q0-16 14-27l155.5-124.5q13-12 27-12zM148 13h375.5q22 0 34.5 14.75t12.5 33.75q0 20-12.5 35t-34.5 15h-312.5v221h282.5q22 0 34.75 14.75t12.75 33.75q0 19.5-12.25 33.75t-35.25 14.25h-282.5v203h301q22 0 34.5 15t12.5 34.5-12.5 34.5-34.5 15h-366q-24.5 0-41.75-18.25t-17.25-42.25v-597.5q0-24 18.5-42t42.5-18z" />
<glyph unicode="&#xc9;" glyph-name="Eacute" data-tags="Eacute" horiz-adv-x="620" d="M321 812.5q11 0 23 9.5l155.5 124.5q16 13 16 30 0 20-17.25 36t-37.25 16q-19 0-36.5-22.5l-120.5-148q-8-10-8-20.5 0-11 7.25-18t17.75-7zM148 13h375.5q22 0 34.5 14.75t12.5 33.75q0 20-12.5 35t-34.5 15h-312.5v221h282.5q22 0 34.75 14.75t12.75 33.75q0 19.5-12.25 33.75t-35.25 14.25h-282.5v203h301q22 0 34.5 15t12.5 34.5-12.5 34.5-34.5 15h-366q-24.5 0-41.75-18.25t-17.25-42.25v-597.5q0-24 18.5-42t42.5-18z" />
<glyph unicode="&#xca;" glyph-name="Ecircumflex" data-tags="Ecircumflex" horiz-adv-x="620" d="M200 777.5q22 0 39.5 22l82.5 110 81.5-110q16-21.5 38.5-21.5 14.5 0 24 9t9.5 22.5q0 11.5-10 26l-94.5 129q-23 28-49.5 28-27 0-49.5-28l-95-129.5q-10.5-13.5-10.5-25 0-14.5 9.25-23.5t24.25-9zM148 13h375.5q22 0 34.5 14.75t12.5 33.75q0 20-12.5 35t-34.5 15h-312.5v221h282.5q22 0 34.75 14.75t12.75 33.75q0 19.5-12.25 33.75t-35.25 14.25h-282.5v203h301q22 0 34.5 15t12.5 34.5-12.5 34.5-34.5 15h-366q-24.5 0-41.75-18.25t-17.25-42.25v-597.5q0-24 18.5-42t42.5-18z" />
<glyph unicode="&#xcb;" glyph-name="Edieresis" data-tags="Edieresis" horiz-adv-x="620" d="M223 808.5q26 0 43.25 16.75t17.25 40.25-17.25 40.25-43.25 16.75q-26.5 0-43.75-17t-17.25-40q0-23.5 17.5-40.25t43.5-16.75zM428 808.5q26.5 0 43.5 16.75t17 40.25-17.25 40.25-43.25 16.75q-27 0-44-17t-17-40q0-23.5 17.5-40.25t43.5-16.75zM148 13h375.5q22 0 34.5 14.75t12.5 33.75q0 20-12.5 35t-34.5 15h-312.5v221h282.5q22 0 34.75 14.75t12.75 33.75q0 19.5-12.25 33.75t-35.25 14.25h-282.5v203h301q22 0 34.5 15t12.5 34.5-12.5 34.5-34.5 15h-366q-24.5 0-41.75-18.25t-17.25-42.25v-597.5q0-24 18.5-42t42.5-18z" />
<glyph unicode="&#xcc;" glyph-name="Igrave" data-tags="Igrave" horiz-adv-x="316" d="M165 809.5q10.5 0 17.25 7.5t6.75 18q0 9-8 20l-119 146q-19 24-38 24-20.5 0-38-16.25t-17.5-35.75q0-16 14-27l155.5-124.5q13-12 27-12zM157 14q25.5 0 44 15.5t18.5 44v598q0 28.5-18.5 44.25t-43.5 15.75q-25.5 0-44-15.75t-18.5-44.25v-598q0-28 18.25-43.75t43.75-15.75z" />
<glyph unicode="&#xcd;" glyph-name="Iacute" data-tags="Iacute" horiz-adv-x="316" d="M155 812.5q11 0 23 9.5l155.5 124.5q16 13 16 30 0 20-17.25 36t-37.25 16q-19 0-36.5-22.5l-120.5-148q-8-10-8-20.5 0-11 7.25-18t17.75-7zM157 14q25.5 0 44 15.5t18.5 44v598q0 28.5-18.5 44.25t-43.5 15.75q-25.5 0-44-15.75t-18.5-44.25v-598q0-28 18.25-43.75t43.75-15.75z" />
<glyph unicode="&#xce;" glyph-name="Icircumflex" data-tags="Icircumflex" horiz-adv-x="316" d="M34 777.5q22 0 39.5 22l82.5 110 81.5-110q16-21.5 38.5-21.5 14.5 0 24 9t9.5 22.5q0 11.5-10 26l-94.5 129q-23 28-49.5 28-27 0-49.5-28l-95-129.5q-10.5-13.5-10.5-25 0-14.5 9.25-23.5t24.25-9zM157 14q25.5 0 44 15.5t18.5 44v598q0 28.5-18.5 44.25t-43.5 15.75q-25.5 0-44-15.75t-18.5-44.25v-598q0-28 18.25-43.75t43.75-15.75z" />
<glyph unicode="&#xcf;" glyph-name="Idieresis" data-tags="Idieresis" horiz-adv-x="316" d="M57 808.5q26 0 43.25 16.75t17.25 40.25-17.25 40.25-43.25 16.75q-26.5 0-43.75-17t-17.25-40q0-23.5 17.5-40.25t43.5-16.75zM262 808.5q26.5 0 43.5 16.75t17 40.25-17.25 40.25-43.25 16.75q-27 0-44-17t-17-40q0-23.5 17.5-40.25t43.5-16.75zM157 14q25.5 0 44 15.5t18.5 44v598q0 28.5-18.5 44.25t-43.5 15.75q-25.5 0-44-15.75t-18.5-44.25v-598q0-28 18.25-43.75t43.75-15.75z" />
<glyph unicode="&#xd0;" glyph-name="Eth" data-tags="Eth" horiz-adv-x="759" d="M41 334h200q19.5 0 32.75 12.5t13.25 30.5q0 19-13 31.5t-33 12.5h-200q-20 0-32.75-12.5t-12.75-31.5q0-18 13.25-30.5t32.25-12.5zM149 13.5h181q180 0 279.25 92t99.25 264q0 175.5-98.25 268.5t-289.25 93h-172q-25.5 0-43.75-18t-18.25-43v-596q0-25 18.25-42.75t43.75-17.75zM211 112v520.5h111.5q134 0 195.75-59.75t61.75-200.75q0-67.5-12.25-114.75t-40.25-80.5-74.75-49-115.25-15.75h-126.5z" />
<glyph unicode="&#xd1;" glyph-name="Ntilde" data-tags="Ntilde" horiz-adv-x="772" d="M274.5 811.5q20 0 31.5 17.5 17 24.5 37 24.5 16 0 59.75-21t69.25-21q23 0 43.75 10.25t34.25 30.25 13.5 45q0 7-4.25 11.5t-9.75 5.5q-2.5 11.5-14.5 11.5-14-2-30.5-22.5t-29-20.5q-13.5 0-36 10.25t-48.5 20.5-48.5 10.25q-74.5 0-92.5-81-1.5-2.5-1.5-7.5 0-11 7.25-17.25t18.75-6.25zM141.5 13q23 0 40.25 14.25t17.25 38.75v475.5l342.5-487.5q13-18.5 35.25-29.75t41.25-11.25q29 0 49.25 20.5t20.25 55v588.5q0 25.5-16.75 39.75t-39.75 14.25-40-14.5-17-39.5v-479l-345 493.5q-13.5 19-35 29t-41.5 10q-28.5 0-48-20.25t-19.5-55.25v-589q0-25 16.75-39t39.75-14z" />
<glyph unicode="&#xd2;" glyph-name="Ograve" data-tags="Ograve" horiz-adv-x="806" d="M407.5 812.5q10.5 0 17.25 7.5t6.75 18q0 9-8 20l-119 146q-19 24-38 24-20.5 0-38-16.25t-17.5-35.75q0-16 14-27l155.5-124.5q13-12 27-12zM400.5 101q-105 0-159.75 73.75t-54.75 200.75q0 126.5 54.75 200.5t159.75 74q105.5 0 160.25-74t54.75-200.5q0-127-55-200.75t-160-73.75zM400.5 2q109 0 187.5 47t118.5 130.75 40 195.75q0 112.5-40 196.25t-118.5 130.5-187.5 46.75q-108.5 0-187-46.75t-118.75-130.75-40.25-196q0-170 91.75-271.75t254.25-101.75z" />
<glyph unicode="&#xd3;" glyph-name="Oacute" data-tags="Oacute" horiz-adv-x="806" d="M397.5 815.5q11 0 23 9.5l155.5 124.5q16 13 16 30 0 20-17.25 36t-37.25 16q-19 0-36.5-22.5l-120.5-148q-8-10-8-20.5 0-11 7.25-18t17.75-7zM400.5 101q-105 0-159.75 73.75t-54.75 200.75q0 126.5 54.75 200.5t159.75 74q105.5 0 160.25-74t54.75-200.5q0-127-55-200.75t-160-73.75zM400.5 2q109 0 187.5 47t118.5 130.75 40 195.75q0 112.5-40 196.25t-118.5 130.5-187.5 46.75q-108.5 0-187-46.75t-118.75-130.75-40.25-196q0-170 91.75-271.75t254.25-101.75z" />
<glyph unicode="&#xd4;" glyph-name="Ocircumflex" data-tags="Ocircumflex" horiz-adv-x="806" d="M276.5 780.5q22 0 39.5 22l82.5 110 81.5-110q16-21.5 38.5-21.5 14.5 0 24 9t9.5 22.5q0 11.5-10 26l-94.5 129q-23 28-49.5 28-27 0-49.5-28l-95-129.5q-10.5-13.5-10.5-25 0-14.5 9.25-23.5t24.25-9zM400.5 101q-105 0-159.75 73.75t-54.75 200.75q0 126.5 54.75 200.5t159.75 74q105.5 0 160.25-74t54.75-200.5q0-127-55-200.75t-160-73.75zM400.5 2q109 0 187.5 47t118.5 130.75 40 195.75q0 112.5-40 196.25t-118.5 130.5-187.5 46.75q-108.5 0-187-46.75t-118.75-130.75-40.25-196q0-170 91.75-271.75t254.25-101.75z" />
<glyph unicode="&#xd5;" glyph-name="Otilde" data-tags="Otilde" horiz-adv-x="806" d="M264.5 811.5q20 0 31.5 17.5 17 24.5 37 24.5 16 0 59.75-21t69.25-21q23 0 43.75 10.25t34.25 30.25 13.5 45q0 7-4.25 11.5t-9.75 5.5q-2.5 11.5-14.5 11.5-14-2-30.5-22.5t-29-20.5q-13.5 0-36 10.25t-48.5 20.5-48.5 10.25q-74.5 0-92.5-81-1.5-2.5-1.5-7.5 0-11 7.25-17.25t18.75-6.25zM400.5 101q-105 0-159.75 73.75t-54.75 200.75q0 126.5 54.75 200.5t159.75 74q105.5 0 160.25-74t54.75-200.5q0-127-55-200.75t-160-73.75zM400.5 2q109 0 187.5 47t118.5 130.75 40 195.75q0 112.5-40 196.25t-118.5 130.5-187.5 46.75q-108.5 0-187-46.75t-118.75-130.75-40.25-196q0-170 91.75-271.75t254.25-101.75z" />
<glyph unicode="&#xd6;" glyph-name="Odieresis" data-tags="Odieresis" horiz-adv-x="806" d="M299.5 811.5q26 0 43.25 16.75t17.25 40.25-17.25 40.25-43.25 16.75q-26.5 0-43.75-17t-17.25-40q0-23.5 17.5-40.25t43.5-16.75zM504.5 811.5q26.5 0 43.5 16.75t17 40.25-17.25 40.25-43.25 16.75q-27 0-44-17t-17-40q0-23.5 17.5-40.25t43.5-16.75zM400.5 101q-105 0-159.75 73.75t-54.75 200.75q0 126.5 54.75 200.5t159.75 74q105.5 0 160.25-74t54.75-200.5q0-127-55-200.75t-160-73.75zM400.5 2q109 0 187.5 47t118.5 130.75 40 195.75q0 112.5-40 196.25t-118.5 130.5-187.5 46.75q-108.5 0-187-46.75t-118.75-130.75-40.25-196q0-170 91.75-271.75t254.25-101.75z" />
<glyph unicode="&#xd7;" glyph-name="multiply" data-tags="multiply" horiz-adv-x="660" d="M178.5 70q15 0 27.5 12l123.5 124 119.5-119q12.5-12.5 26.5-12 16.5 0 29.75 13.25t13.25 29.75q0 14-11.5 26.5l-119.5 119.5 123.5 123.5q12 12.5 12 28 0 16-12.25 28.5t-28.25 12.5q-15.5 0-28-12.5l-123.5-123.5-119.5 119.5q-12 12-27.5 12-16.5 0-29.5-13.25t-13-29.25q0-15.5 11.5-27l120-120-123.5-123.5q-12.5-12.5-12.5-27.5 0-16 12.75-28.75t28.75-12.75z" />
<glyph unicode="&#xd8;" glyph-name="Oslash" data-tags="Oslash" horiz-adv-x="802" d="M145.5-67.5q18.5 0 36.5 26.5l52.5 78.5q72.5-35.5 166-35.5 109 0 187.5 47t118.5 130.75 40 195.75q0 88.5-25.5 160.25t-74.5 121.25l52.5 78.5q12 19 12 34t-10.5 24.75-25 9.75q-21.5 0-34-20l-54-81.5q-79 46.5-187 46.5-108.5 0-187-46.75t-118.75-130.75-40.25-196q0-96.5 30.75-173.25t89.25-125.75l-54.5-82q-9.5-15-9.5-28.5 0-14.5 10.25-24t24.75-9.5zM576.5 551.5q39-68.5 39-176 0-127-55-200.75t-160-73.75q-61 0-106.5 26.5zM527 610.5l-287-434.5q-54 72-54 199.5 0 126.5 54.75 200.5t159.75 74q75.5 0 126.5-39.5z" />
<glyph unicode="&#xd9;" glyph-name="Ugrave" data-tags="Ugrave" horiz-adv-x="753" d="M385.5 809.5q10.5 0 17.25 7.5t6.75 18q0 9-8 20l-119 146q-19 24-38 24-20.5 0-38-16.25t-17.5-35.75q0-16 14-27l155.5-124.5q13-12 27-12zM377 2q60.5 0 112.5 16.25t92.25 47.75 63.5 82 23.25 114.5v411.5q0 28.5-18.25 44.25t-43.25 15.75q-26 0-44.25-15.75t-18.25-44.25v-408q0-42-14.25-74.5t-38.25-51.75-53.25-29-61.75-9.75q-32 0-61 9.75t-53 29-38.25 51.75-14.25 74.5v408q0 28.5-18.5 44.25t-43.5 15.75q-26 0-44.25-15.75t-18.25-44.25v-411.5q0-64 23-114.5t63.25-82 92.25-47.75 112.5-16.25z" />
<glyph unicode="&#xda;" glyph-name="Uacute" data-tags="Uacute" horiz-adv-x="753" d="M375.5 812.5q11 0 23 9.5l155.5 124.5q16 13 16 30 0 20-17.25 36t-37.25 16q-19 0-36.5-22.5l-120.5-148q-8-10-8-20.5 0-11 7.25-18t17.75-7zM377 2q60.5 0 112.5 16.25t92.25 47.75 63.5 82 23.25 114.5v411.5q0 28.5-18.25 44.25t-43.25 15.75q-26 0-44.25-15.75t-18.25-44.25v-408q0-42-14.25-74.5t-38.25-51.75-53.25-29-61.75-9.75q-32 0-61 9.75t-53 29-38.25 51.75-14.25 74.5v408q0 28.5-18.5 44.25t-43.5 15.75q-26 0-44.25-15.75t-18.25-44.25v-411.5q0-64 23-114.5t63.25-82 92.25-47.75 112.5-16.25z" />
<glyph unicode="&#xdb;" glyph-name="Ucircumflex" data-tags="Ucircumflex" horiz-adv-x="753" d="M254.5 777.5q22 0 39.5 22l82.5 110 81.5-110q16-21.5 38.5-21.5 14.5 0 24 9t9.5 22.5q0 11.5-10 26l-94.5 129q-23 28-49.5 28-27 0-49.5-28l-95-129.5q-10.5-13.5-10.5-25 0-14.5 9.25-23.5t24.25-9zM377 2q60.5 0 112.5 16.25t92.25 47.75 63.5 82 23.25 114.5v411.5q0 28.5-18.25 44.25t-43.25 15.75q-26 0-44.25-15.75t-18.25-44.25v-408q0-42-14.25-74.5t-38.25-51.75-53.25-29-61.75-9.75q-32 0-61 9.75t-53 29-38.25 51.75-14.25 74.5v408q0 28.5-18.5 44.25t-43.5 15.75q-26 0-44.25-15.75t-18.25-44.25v-411.5q0-64 23-114.5t63.25-82 92.25-47.75 112.5-16.25z" />
<glyph unicode="&#xdc;" glyph-name="Udieresis" data-tags="Udieresis" horiz-adv-x="753" d="M277.5 808.5q26 0 43.25 16.75t17.25 40.25-17.25 40.25-43.25 16.75q-26.5 0-43.75-17t-17.25-40q0-23.5 17.5-40.25t43.5-16.75zM482.5 808.5q26.5 0 43.5 16.75t17 40.25-17.25 40.25-43.25 16.75q-27 0-44-17t-17-40q0-23.5 17.5-40.25t43.5-16.75zM377 2q60.5 0 112.5 16.25t92.25 47.75 63.5 82 23.25 114.5v411.5q0 28.5-18.25 44.25t-43.25 15.75q-26 0-44.25-15.75t-18.25-44.25v-408q0-42-14.25-74.5t-38.25-51.75-53.25-29-61.75-9.75q-32 0-61 9.75t-53 29-38.25 51.75-14.25 74.5v408q0 28.5-18.5 44.25t-43.5 15.75q-26 0-44.25-15.75t-18.25-44.25v-411.5q0-64 23-114.5t63.25-82 92.25-47.75 112.5-16.25z" />
<glyph unicode="&#xdd;" glyph-name="Yacute" data-tags="Yacute" horiz-adv-x="649" d="M330 812.5q11 0 23 9.5l155.5 124.5q16 13 16 30 0 20-17.25 36t-37.25 16q-19 0-36.5-22.5l-120.5-148q-8-10-8-20.5 0-11 7.25-18t17.75-7zM261 73.5q0-28.5 18.5-44.5t43.5-16 43.5 16 18.5 44v237.5l219.5 346.5q4.5 7.5 6.75 14.5t2.25 14q0 10-4.5 18.5t-11.75 14.5-16.75 9.5-19.5 3.5q-30.5 0-47-27l-184.5-301.5-179.5 295q-19.5 31.5-52 31.5-9.5 0-18.75-2.75t-17.25-8-14-12.25-9.5-15.5-3.5-17.5q0-6.5 2-13t6-13l218-341.5v-232.5z" />
<glyph unicode="&#xde;" glyph-name="Thorn" data-tags="Thorn" horiz-adv-x="660" d="M152 12.5q25.5 0 44.25 15.75t18.75 44.25v126h125q61 0 111.25 11.25t91.5 35.25 64.5 66.5 23.25 100q0 45.5-15 81.75t-40.75 60-61.75 39.75-76.25 23-86.25 7h-135.5v54q0 28-18.75 43.75t-44.25 15.75-44-15.75-18.5-43.75v-604.5q0-28.5 18.5-44.25t44-15.75zM215 285.5v250h127.5q161.5 0 161.5-124 0-126-165.5-126h-123.5z" />
<glyph unicode="&#xdf;" glyph-name="germandbls" data-tags="germandbls" horiz-adv-x="665" d="M439 0q52 0 95.25 19.5t70.25 59 27 92.5q0 32-11.5 58.25t-30.25 43.5-41 31.75-44.75 26-41.25 22.75-30.25 26-11.5 31.75q0 12.5 12 27.75t29.25 30.75 34.5 32.5 29.25 39.25 12 45.25q0 50-30.5 87t-77.75 55-103.25 18q-127 0-189-63.25t-62-181.25v-436q0-25 16-39t38.5-14 38.75 14 16.25 39v430q0.5 36 7.5 66t21.5 56 40.5 40.75 61.5 14.75q45 0 78-22.25t33-63.25q0-15.5-8.75-30.75t-22.25-27-28.75-26-28.75-27.75-22.25-32.75-8.75-40.25q0-26 12-48t31-37.25 42.25-29.25 46.5-26.75 42.25-26.25 31-31.5 12-39q0-44.5-24.25-67.25t-66.25-22.75q-53 0-86 50.5-11 18-31 18-16.5 0-29.5-12t-13-29q0-10.5 4.5-19 20.5-41.5 62.25-62.75t97.75-21.25z" />
<glyph unicode="&#xe0;" glyph-name="agrave" data-tags="agrave" horiz-adv-x="536" d="M271 588q10.5 0 17.25 7.5t6.75 18q0 9-8 20l-119 146q-19 24-38 24-20.5 0-38-16.25t-17.5-35.75q0-16 14-27l155.5-124.5q13-12 27-12zM211 6q101.5 0 145 86v-27q0-34 29.5-47 11.5-5 24-5 22 0 38 13.75t16 38.75v274q0 92.5-54 136.25t-146.5 43.75q-102.5 0-183.5-40.5-18.5-9-18.5-28.5 0-16 11.25-29t27.25-13q2 0 4 0.25t4.25 0.75 4.25 1.5q28 11 41.25 15.75t45.25 12 60 7.25q95 0 95-98v-44q-46 0-78-0.75t-65.5-3.5-55.75-7.5-43.75-12.5-34.25-19-23-27.25-14.5-36.5-4.25-47q0-69 49.5-106.5t127-37.5zM220.5 77.5q-37 0-59.5 18.75t-22.5 58.75q0 14.5 2.25 25.75t7.75 20.25 13.25 15.25 21 11 28.25 7.5 37.75 4.5 46.5 2.25 57.75 0.5v-13q0-66-40-108.75t-92.5-42.75z" />
<glyph unicode="&#xe1;" glyph-name="aacute" data-tags="aacute" horiz-adv-x="536" d="M261 591q11 0 23 9.5l155.5 124.5q16 13 16 30 0 20-17.25 36t-37.25 16q-19 0-36.5-22.5l-120.5-148q-8-10-8-20.5 0-11 7.25-18t17.75-7zM211 6q101.5 0 145 86v-27q0-34 29.5-47 11.5-5 24-5 22 0 38 13.75t16 38.75v274q0 92.5-54 136.25t-146.5 43.75q-102.5 0-183.5-40.5-18.5-9-18.5-28.5 0-16 11.25-29t27.25-13q2 0 4 0.25t4.25 0.75 4.25 1.5q28 11 41.25 15.75t45.25 12 60 7.25q95 0 95-98v-44q-46 0-78-0.75t-65.5-3.5-55.75-7.5-43.75-12.5-34.25-19-23-27.25-14.5-36.5-4.25-47q0-69 49.5-106.5t127-37.5zM220.5 77.5q-37 0-59.5 18.75t-22.5 58.75q0 14.5 2.25 25.75t7.75 20.25 13.25 15.25 21 11 28.25 7.5 37.75 4.5 46.5 2.25 57.75 0.5v-13q0-66-40-108.75t-92.5-42.75z" />
<glyph unicode="&#xe2;" glyph-name="acircumflex" data-tags="acircumflex" horiz-adv-x="536" d="M140 556q22 0 39.5 22l82.5 110 81.5-110q16-21.5 38.5-21.5 14.5 0 24 9t9.5 22.5q0 11.5-10 26l-94.5 129q-23 28-49.5 28-27 0-49.5-28l-95-129.5q-10.5-13.5-10.5-25 0-14.5 9.25-23.5t24.25-9zM211 6q101.5 0 145 86v-27q0-34 29.5-47 11.5-5 24-5 22 0 38 13.75t16 38.75v274q0 92.5-54 136.25t-146.5 43.75q-102.5 0-183.5-40.5-18.5-9-18.5-28.5 0-16 11.25-29t27.25-13q2 0 4 0.25t4.25 0.75 4.25 1.5q28 11 41.25 15.75t45.25 12 60 7.25q95 0 95-98v-44q-46 0-78-0.75t-65.5-3.5-55.75-7.5-43.75-12.5-34.25-19-23-27.25-14.5-36.5-4.25-47q0-69 49.5-106.5t127-37.5zM220.5 77.5q-37 0-59.5 18.75t-22.5 58.75q0 14.5 2.25 25.75t7.75 20.25 13.25 15.25 21 11 28.25 7.5 37.75 4.5 46.5 2.25 57.75 0.5v-13q0-66-40-108.75t-92.5-42.75z" />
<glyph unicode="&#xe3;" glyph-name="atilde" data-tags="atilde" horiz-adv-x="536" d="M128 587q20 0 31.5 17.5 17 24.5 37 24.5 16 0 59.75-21t69.25-21q23 0 43.75 10.25t34.25 30.25 13.5 45q0 7-4.25 11.5t-9.75 5.5q-2.5 11.5-14.5 11.5-14-2-30.5-22.5t-29-20.5q-13.5 0-36 10.25t-48.5 20.5-48.5 10.25q-74.5 0-92.5-81-1.5-2.5-1.5-7.5 0-11 7.25-17.25t18.75-6.25zM211 6q101.5 0 145 86v-27q0-34 29.5-47 11.5-5 24-5 22 0 38 13.75t16 38.75v274q0 92.5-54 136.25t-146.5 43.75q-102.5 0-183.5-40.5-18.5-9-18.5-28.5 0-16 11.25-29t27.25-13q2 0 4 0.25t4.25 0.75 4.25 1.5q28 11 41.25 15.75t45.25 12 60 7.25q95 0 95-98v-44q-46 0-78-0.75t-65.5-3.5-55.75-7.5-43.75-12.5-34.25-19-23-27.25-14.5-36.5-4.25-47q0-69 49.5-106.5t127-37.5zM220.5 77.5q-37 0-59.5 18.75t-22.5 58.75q0 14.5 2.25 25.75t7.75 20.25 13.25 15.25 21 11 28.25 7.5 37.75 4.5 46.5 2.25 57.75 0.5v-13q0-66-40-108.75t-92.5-42.75z" />
<glyph unicode="&#xe4;" glyph-name="adieresis" data-tags="adieresis" horiz-adv-x="536" d="M163 587q26 0 43.25 16.75t17.25 40.25-17.25 40.25-43.25 16.75q-26.5 0-43.75-17t-17.25-40q0-23.5 17.5-40.25t43.5-16.75zM368 587q26.5 0 43.5 16.75t17 40.25-17.25 40.25-43.25 16.75q-27 0-44-17t-17-40q0-23.5 17.5-40.25t43.5-16.75zM211 6q101.5 0 145 86v-27q0-34 29.5-47 11.5-5 24-5 22 0 38 13.75t16 38.75v274q0 92.5-54 136.25t-146.5 43.75q-102.5 0-183.5-40.5-18.5-9-18.5-28.5 0-16 11.25-29t27.25-13q2 0 4 0.25t4.25 0.75 4.25 1.5q28 11 41.25 15.75t45.25 12 60 7.25q95 0 95-98v-44q-46 0-78-0.75t-65.5-3.5-55.75-7.5-43.75-12.5-34.25-19-23-27.25-14.5-36.5-4.25-47q0-69 49.5-106.5t127-37.5zM220.5 77.5q-37 0-59.5 18.75t-22.5 58.75q0 14.5 2.25 25.75t7.75 20.25 13.25 15.25 21 11 28.25 7.5 37.75 4.5 46.5 2.25 57.75 0.5v-13q0-66-40-108.75t-92.5-42.75z" />
<glyph unicode="&#xe5;" glyph-name="aring" data-tags="aring" horiz-adv-x="536" d="M266.5 630q-23.5 0-38.25 14.25t-14.75 37.25 14.75 37 38.25 14 38.25-14 14.75-37-14.75-37.25-38.25-14.25zM266.5 582q45 0 73.25 27.75t28.25 71.75q0 43.5-28.25 71t-73.25 27.5-73.5-27.5-28.5-71q0-44 28.5-71.75t73.5-27.75zM211 6q101.5 0 145 86v-27q0-34 29.5-47 11.5-5 24-5 22 0 38 13.75t16 38.75v274q0 92.5-54 136.25t-146.5 43.75q-102.5 0-183.5-40.5-18.5-9-18.5-28.5 0-16 11.25-29t27.25-13q2 0 4 0.25t4.25 0.75 4.25 1.5q28 11 41.25 15.75t45.25 12 60 7.25q95 0 95-98v-44q-46 0-78-0.75t-65.5-3.5-55.75-7.5-43.75-12.5-34.25-19-23-27.25-14.5-36.5-4.25-47q0-69 49.5-106.5t127-37.5zM220.5 77.5q-37 0-59.5 18.75t-22.5 58.75q0 14.5 2.25 25.75t7.75 20.25 13.25 15.25 21 11 28.25 7.5 37.75 4.5 46.5 2.25 57.75 0.5v-13q0-66-40-108.75t-92.5-42.75z" />
<glyph unicode="&#xe6;" glyph-name="ae" data-tags="ae" horiz-adv-x="864" d="M212.5 0.5q65 0 118.75 26t80.75 78.5q27.5-49 71.75-76.75t103.75-27.75q50.5 0 98 12.75t77.5 35.25 30 48q0 13-8 22.75t-20.5 9.75q-8 0-18-5.5-77-43.5-135.5-43.5-71.5 0-104.5 43.75t-34 118.25h307q16.5 0 25.5 10.25t9 24.75q-1 54.5-14.75 99.25t-40 78.5-68 52.5-95.75 18.75q-105 0-167.5-84-39 83.5-160 83.5-144 0-194-69.5-7.5-10-7.5-20 0-13.5 9.75-23.5t23.75-10q9 0 15.5 4 37 19 69.25 29t77.75 10q49 0 75.5-21.25t26.5-70.75v-35.5q-7 0-25.75 0.5t-26.25 1q-280.5 0-280.5-169 0-70 49.5-110t131-40zM233.5 70q-43.5 1-70.75 23t-27.25 63.5q0 20 7.5 35.75t19 25.75 30.5 17.25 35.75 10.75 41.5 5.25 41.5 2.25 40.75 0.5h12v-41.5q-2-68-38-104.75t-92.5-37.75zM473 306q4.5 65 36.75 106.5t86.75 41.5q55 0 84.5-39.25t34-108.75h-242z" />
<glyph unicode="&#xe7;" glyph-name="ccedilla" data-tags="ccedilla" horiz-adv-x="496" d="M280.5-192q27.5 0 51 8.25t39.5 26.5 16.5 43.75q0 40-25 57.75t-64.5 18.25q-5 0-21-1l20 56.5h-40l-24.5-65q-2.5-5.5-2.5-12 0-17.5 22-17.5l10.5 1.5q21.5 0 36.75-8.75t15.25-26.75q0-20-11.25-30.25t-37.75-10.25q-28.5 0-79.5 17-4 1.5-5.5 1.5-8 0-12.75-6t-4.75-14.5q0-18 36-28.5t81.5-10.5zM285.5 6q101.5 0 153 44.5 18 15.5 18 34 0 4.5-1 8.75t-3.25 8-5.25 6.75-6.5 5-7.75 3.25-8.75 1.25q-6 0-12.25-2t-12.25-6.5q-39.5-28.5-105.5-28.5-67.5 0-105.75 50.5t-38.25 132.5q0 81.5 39.5 132t107.5 50.5q48.5 0 92.5-24 5.5-3 11.25-4.5t11.25-1.5q6 0 11.5 1.5t9.75 4.5 7.5 7 5 8.75 1.75 10.25-2.25 11-7 11.25-11.75 10.75q-55 38.5-138.5 38.5-55 0-101.75-20.5t-78.5-55.5-49.5-81.75-17.75-98.75q0-71 29.25-129t85.75-93 130-35z" />
<glyph unicode="&#xe8;" glyph-name="egrave" data-tags="egrave" horiz-adv-x="570" d="M302 591q10.5 0 17.25 7.5t6.75 18q0 9-8 20l-119 146q-19 24-38 24-20.5 0-38-16.25t-17.5-35.75q0-16 14-27l155.5-124.5q13-12 27-12zM295 6q109 0 184 66 16.5 13.5 16.5 32.5 0 15-10.25 26.5t-24.25 11.5q-9.5 0-19-6.5-76.5-54-139-54-67.5 0.5-107.75 38.25t-43.75 117.25h328q17 0 24.75 11.75t7.75 29.75q-1 49.5-15 91.75t-40.75 76-71 53.25-101.75 19.5q-56.5 0-103-20.5t-76.5-55.5-46.25-80.25-16.25-95.75q0-121 69.75-190.75t183.75-70.75zM152.5 303.5q2.5 27 11.75 51.5t25.25 45 41.5 33 57 12.5q61 0 93-40.5t36.5-101.5h-265z" />
<glyph unicode="&#xe9;" glyph-name="eacute" data-tags="eacute" horiz-adv-x="570" d="M295 6q109 0 184 66 16.5 13.5 16.5 32.5 0 15-10.25 26.5t-24.25 11.5q-9.5 0-19-6.5-76.5-54-139-54-67.5 0.5-107.75 38.25t-43.75 117.25h328q17 0 24.75 11.75t7.75 29.75q-1 49.5-15 91.75t-40.75 76-71 53.25-101.75 19.5q-56.5 0-103-20.5t-76.5-55.5-46.25-80.25-16.25-95.75q0-121 69.75-190.75t183.75-70.75zM152.5 303.5q2.5 27 11.75 51.5t25.25 45 41.5 33 57 12.5q61 0 93-40.5t36.5-101.5h-265zM292 594q11 0 23 9.5l155.5 124.5q16 13 16 30 0 20-17.25 36t-37.25 16q-19 0-36.5-22.5l-120.5-148q-8-10-8-20.5 0-11 7.25-18t17.75-7z" />
<glyph unicode="&#xea;" glyph-name="ecircumflex" data-tags="ecircumflex" horiz-adv-x="570" d="M295 6q109 0 184 66 16.5 13.5 16.5 32.5 0 15-10.25 26.5t-24.25 11.5q-9.5 0-19-6.5-76.5-54-139-54-67.5 0.5-107.75 38.25t-43.75 117.25h328q17 0 24.75 11.75t7.75 29.75q-1 49.5-15 91.75t-40.75 76-71 53.25-101.75 19.5q-56.5 0-103-20.5t-76.5-55.5-46.25-80.25-16.25-95.75q0-121 69.75-190.75t183.75-70.75zM152.5 303.5q2.5 27 11.75 51.5t25.25 45 41.5 33 57 12.5q61 0 93-40.5t36.5-101.5h-265zM171 559q22 0 39.5 22l82.5 110 81.5-110q16-21.5 38.5-21.5 14.5 0 24 9t9.5 22.5q0 11.5-10 26l-94.5 129q-23 28-49.5 28-27 0-49.5-28l-95-129.5q-10.5-13.5-10.5-25 0-14.5 9.25-23.5t24.25-9z" />
<glyph unicode="&#xeb;" glyph-name="edieresis" data-tags="edieresis" horiz-adv-x="570" d="M295 6q109 0 184 66 16.5 13.5 16.5 32.5 0 15-10.25 26.5t-24.25 11.5q-9.5 0-19-6.5-76.5-54-139-54-67.5 0.5-107.75 38.25t-43.75 117.25h328q17 0 24.75 11.75t7.75 29.75q-1 49.5-15 91.75t-40.75 76-71 53.25-101.75 19.5q-56.5 0-103-20.5t-76.5-55.5-46.25-80.25-16.25-95.75q0-121 69.75-190.75t183.75-70.75zM152.5 303.5q2.5 27 11.75 51.5t25.25 45 41.5 33 57 12.5q61 0 93-40.5t36.5-101.5h-265zM194 590q26 0 43.25 16.75t17.25 40.25-17.25 40.25-43.25 16.75q-26.5 0-43.75-17t-17.25-40q0-23.5 17.5-40.25t43.5-16.75zM399 590q26.5 0 43.5 16.75t17 40.25-17.25 40.25-43.25 16.75q-27 0-44-17t-17-40q0-23.5 17.5-40.25t43.5-16.75z" />
<glyph unicode="&#xec;" glyph-name="igrave" data-tags="igrave" horiz-adv-x="253" d="M131.5 586q10.5 0 17.25 7.5t6.75 18q0 9-8 20l-119 146q-19 24-38 24-20.5 0-38-16.25t-17.5-35.75q0-16 14-27l155.5-124.5q13-12 27-12zM125 13q22.5 0 39.25 14.75t16.75 39.75v390.5q0 25.5-16.5 40.25t-38.5 14.75q-22.5 0-38.75-14.75t-16.25-40.25v-390.5q0-26 15.75-40.25t38.25-14.25z" />
<glyph unicode="&#xed;" glyph-name="iacute" data-tags="iacute" horiz-adv-x="253" d="M125 13q22.5 0 39.25 14.75t16.75 39.75v390.5q0 25.5-16.5 40.25t-38.5 14.75q-22.5 0-38.75-14.75t-16.25-40.25v-390.5q0-26 15.75-40.25t38.25-14.25zM121.5 589q11 0 23 9.5l155.5 124.5q16 13 16 30 0 20-17.25 36t-37.25 16q-19 0-36.5-22.5l-120.5-148q-8-10-8-20.5 0-11 7.25-18t17.75-7z" />
<glyph unicode="&#xee;" glyph-name="icircumflex" data-tags="icircumflex" horiz-adv-x="253" d="M125 13q22.5 0 39.25 14.75t16.75 39.75v390.5q0 25.5-16.5 40.25t-38.5 14.75q-22.5 0-38.75-14.75t-16.25-40.25v-390.5q0-26 15.75-40.25t38.25-14.25zM0.5 554q22 0 39.5 22l82.5 110 81.5-110q16-21.5 38.5-21.5 14.5 0 24 9t9.5 22.5q0 11.5-10 26l-94.5 129q-23 28-49.5 28-27 0-49.5-28l-95-129.5q-10.5-13.5-10.5-25 0-14.5 9.25-23.5t24.25-9z" />
<glyph unicode="&#xef;" glyph-name="idieresis" data-tags="idieresis" horiz-adv-x="253" d="M125 13q22.5 0 39.25 14.75t16.75 39.75v390.5q0 25.5-16.5 40.25t-38.5 14.75q-22.5 0-38.75-14.75t-16.25-40.25v-390.5q0-26 15.75-40.25t38.25-14.25zM23.5 585q26 0 43.25 16.75t17.25 40.25-17.25 40.25-43.25 16.75q-26.5 0-43.75-17t-17.25-40q0-23.5 17.5-40.25t43.5-16.75zM228.5 585q26.5 0 43.5 16.75t17 40.25-17.25 40.25-43.25 16.75q-27 0-44-17t-17-40q0-23.5 17.5-40.25t43.5-16.75z" />
<glyph unicode="&#xf0;" glyph-name="eth" data-tags="eth" horiz-adv-x="609" d="M291.5-4q59.5 0 107 17.5t78.75 47.75 51.75 73 29.5 91 9 104.25q0 106-26.5 212.5h65.5q16.5 0 25.25 9.75t8.75 23.75q0 14.5-8.75 24.25t-25.25 9.75h-88.5q-33 79.5-69.25 128.5t-70.75 49q-21.5 0-36.75-14.25t-15.25-33.75q0-16 10.5-30 47-64 61.5-99.5h-90q-16.5 0-25.5-10t-9-24.5q0-14 9-23.5t25.5-9.5h113.5q7.5-19.5 13.25-47.5t8.25-54.5 2.5-49.5q0-14-1-24-24.5 48.5-71.75 72.75t-106.75 24.25q-102.5 0-163.5-61.75t-61-164.75q0-106.5 67.75-173.75t182.25-67.25zM297 83.5q-65.5 0-101.75 40.25t-36.25 108.25q0 67.5 32.25 110.75t95.75 43.25q69.5 0 108-43.25t38.5-113.75q0-62-38.5-103.75t-98-41.75z" />
<glyph unicode="&#xf1;" glyph-name="ntilde" data-tags="ntilde" d="M174.5 585q20 0 31.5 17.5 17 24.5 37 24.5 16 0 59.75-21t69.25-21q23 0 43.75 10.25t34.25 30.25 13.5 45q0 7-4.25 11.5t-9.75 5.5q-2.5 11.5-14.5 11.5-14-2-30.5-22.5t-29-20.5q-13.5 0-36 10.25t-48.5 20.5-48.5 10.25q-74.5 0-92.5-81-1.5-2.5-1.5-7.5 0-11 7.25-17.25t18.75-6.25zM125 13q22.5 0 38.75 14t16.25 38.5v227.5q0.5 68.5 39 110.5t92 42q46 0 74.5-30t28.5-86.5v-263.5q0-25 16-38.75t38-13.75q22.5 0 39 13.75t16.5 38.75v262.5q0 49-14.5 86.5t-40 60-57.75 33.75-69.25 11.25q-57 0-99-21.75t-63-63.25v28q0 23.5-16 36.75t-38.5 13.25-39-13.75-16.5-37.75v-395.5q0-25 16.25-38.75t38.75-13.75z" />
<glyph unicode="&#xf2;" glyph-name="ograve" data-tags="ograve" horiz-adv-x="596" d="M297 80.5q-69.5 0-108.75 48t-39.25 133.5q0 86.5 39.25 135t108.75 48.5 108.75-48.75 39.25-134.75q0-85.5-39-133.5t-109-48zM297 6q51 0 93.5 14.25t72.25 38.5 50.5 57.25 30.5 69.75 9.75 76.25q0 52-16.5 98t-47.75 82-80.75 56.75-111.5 20.75q-62.5 0-112.5-21.25t-80.75-57.5-47-82-16.25-96.75q0-50 16-95.25t46.75-81.5 80.75-57.75 113-21.5zM302.5 589q10.5 0 17.25 7.5t6.75 18q0 9-8 20l-119 146q-19 24-38 24-20.5 0-38-16.25t-17.5-35.75q0-16 14-27l155.5-124.5q13-12 27-12z" />
<glyph unicode="&#xf3;" glyph-name="oacute" data-tags="oacute" horiz-adv-x="596" d="M297 80.5q-69.5 0-108.75 48t-39.25 133.5q0 86.5 39.25 135t108.75 48.5 108.75-48.75 39.25-134.75q0-85.5-39-133.5t-109-48zM297 6q51 0 93.5 14.25t72.25 38.5 50.5 57.25 30.5 69.75 9.75 76.25q0 52-16.5 98t-47.75 82-80.75 56.75-111.5 20.75q-62.5 0-112.5-21.25t-80.75-57.5-47-82-16.25-96.75q0-50 16-95.25t46.75-81.5 80.75-57.75 113-21.5zM292.5 592q11 0 23 9.5l155.5 124.5q16 13 16 30 0 20-17.25 36t-37.25 16q-19 0-36.5-22.5l-120.5-148q-8-10-8-20.5 0-11 7.25-18t17.75-7z" />
<glyph unicode="&#xf4;" glyph-name="ocircumflex" data-tags="ocircumflex" horiz-adv-x="596" d="M297 80.5q-69.5 0-108.75 48t-39.25 133.5q0 86.5 39.25 135t108.75 48.5 108.75-48.75 39.25-134.75q0-85.5-39-133.5t-109-48zM297 6q51 0 93.5 14.25t72.25 38.5 50.5 57.25 30.5 69.75 9.75 76.25q0 52-16.5 98t-47.75 82-80.75 56.75-111.5 20.75q-62.5 0-112.5-21.25t-80.75-57.5-47-82-16.25-96.75q0-50 16-95.25t46.75-81.5 80.75-57.75 113-21.5zM171.5 557q22 0 39.5 22l82.5 110 81.5-110q16-21.5 38.5-21.5 14.5 0 24 9t9.5 22.5q0 11.5-10 26l-94.5 129q-23 28-49.5 28-27 0-49.5-28l-95-129.5q-10.5-13.5-10.5-25 0-14.5 9.25-23.5t24.25-9z" />
<glyph unicode="&#xf5;" glyph-name="otilde" data-tags="otilde" horiz-adv-x="596" d="M159.5 588q20 0 31.5 17.5 17 24.5 37 24.5 16 0 59.75-21t69.25-21q23 0 43.75 10.25t34.25 30.25 13.5 45q0 7-4.25 11.5t-9.75 5.5q-2.5 11.5-14.5 11.5-14-2-30.5-22.5t-29-20.5q-13.5 0-36 10.25t-48.5 20.5-48.5 10.25q-74.5 0-92.5-81-1.5-2.5-1.5-7.5 0-11 7.25-17.25t18.75-6.25zM297 80.5q-69.5 0-108.75 48t-39.25 133.5q0 86.5 39.25 135t108.75 48.5 108.75-48.75 39.25-134.75q0-85.5-39-133.5t-109-48zM297 6q51 0 93.5 14.25t72.25 38.5 50.5 57.25 30.5 69.75 9.75 76.25q0 52-16.5 98t-47.75 82-80.75 56.75-111.5 20.75q-62.5 0-112.5-21.25t-80.75-57.5-47-82-16.25-96.75q0-50 16-95.25t46.75-81.5 80.75-57.75 113-21.5z" />
<glyph unicode="&#xf6;" glyph-name="odieresis" data-tags="odieresis" horiz-adv-x="596" d="M297 80.5q-69.5 0-108.75 48t-39.25 133.5q0 86.5 39.25 135t108.75 48.5 108.75-48.75 39.25-134.75q0-85.5-39-133.5t-109-48zM297 6q51 0 93.5 14.25t72.25 38.5 50.5 57.25 30.5 69.75 9.75 76.25q0 52-16.5 98t-47.75 82-80.75 56.75-111.5 20.75q-62.5 0-112.5-21.25t-80.75-57.5-47-82-16.25-96.75q0-50 16-95.25t46.75-81.5 80.75-57.75 113-21.5zM194.5 588q26 0 43.25 16.75t17.25 40.25-17.25 40.25-43.25 16.75q-26.5 0-43.75-17t-17.25-40q0-23.5 17.5-40.25t43.5-16.75zM399.5 588q26.5 0 43.5 16.75t17 40.25-17.25 40.25-43.25 16.75q-27 0-44-17t-17-40q0-23.5 17.5-40.25t43.5-16.75z" />
<glyph unicode="&#xf7;" glyph-name="divide" data-tags="divide" horiz-adv-x="660" d="M104.5 230h455.5q18 0 28 11.75t10 28.75-10 29-28 12h-455.5q-18 0-28.25-12t-10.25-29 10.25-28.75 28.25-11.75zM330.5 1q26 0 42.25 16.25t16.25 38.75q0 22-16.25 38t-42.25 16q-26.5 0-42.75-16t-16.25-38q0-23 16.25-39t42.75-16zM330.5 431q26 0 42.25 16.25t16.25 38.75-16.25 38.5-42.25 16q-26.5 0-42.75-16t-16.25-38.5 16.25-38.75 42.75-16.25z" />
<glyph unicode="&#xf8;" glyph-name="oslash" data-tags="oslash" horiz-adv-x="596" d="M345 438.5l-146-322q-50 48-50 145.5 0 86.5 39.25 135t108.75 48.5q26 0 48-7zM402 401q21-24 32-59.25t11-79.75q0-85.5-39-133.5t-109-48q-10 0-19.75 1t-18.75 3.5zM164.5-76q20.5 0 30.5 20.5l31.5 69q8-1.5 16.5-3t17.25-2.5 18-1.5 18.75-0.5q51 0 93.5 14.25t72.25 38.5 50.5 57.25 30.5 69.75 9.75 76.25q0 46-12.5 87.5t-38.5 76.25-63 57.25l28.5 63q9 19 9 27 0 14-10.25 22.75t-24.25 8.75q-22.5 0-32-21l-33.5-74q-18.5 5-38.5 7.5t-41.5 2.5q-62.5 0-112.5-21.25t-80.75-57.5-47-82-16.25-96.75q0-46.5 13.25-88.5t41.25-78 68.5-58l-27-59.5q-6-13-6-22 0-14 10.25-23t23.75-9z" />
<glyph unicode="&#xf9;" glyph-name="ugrave" data-tags="ugrave" d="M246.5 6q56.5 0 99.25 22t63.75 63.5v-29q0-23.5 16-36.5t38-13q22.5 0 39 13.5t16.5 38v395.5q0 25-16 38.75t-38.5 13.75-38.75-14-16.25-38.5v-227q-1-69-40-110.75t-92.5-41.75q-46 0-73.75 29.75t-27.75 86.75v263q0 25-16.25 38.75t-38.25 13.75q-22.5 0-38.75-13.75t-16.25-38.75v-262q0-49 14.5-86.5t39.75-60.25 57.25-34 69-11.25zM296.5 589q10.5 0 17.25 7.5t6.75 18q0 9-8 20l-119 146q-19 24-38 24-20.5 0-38-16.25t-17.5-35.75q0-16 14-27l155.5-124.5q13-12 27-12z" />
<glyph unicode="&#xfa;" glyph-name="uacute" data-tags="uacute" d="M246.5 6q56.5 0 99.25 22t63.75 63.5v-29q0-23.5 16-36.5t38-13q22.5 0 39 13.5t16.5 38v395.5q0 25-16 38.75t-38.5 13.75-38.75-14-16.25-38.5v-227q-1-69-40-110.75t-92.5-41.75q-46 0-73.75 29.75t-27.75 86.75v263q0 25-16.25 38.75t-38.25 13.75q-22.5 0-38.75-13.75t-16.25-38.75v-262q0-49 14.5-86.5t39.75-60.25 57.25-34 69-11.25zM286.5 592q11 0 23 9.5l155.5 124.5q16 13 16 30 0 20-17.25 36t-37.25 16q-19 0-36.5-22.5l-120.5-148q-8-10-8-20.5 0-11 7.25-18t17.75-7z" />
<glyph unicode="&#xfb;" glyph-name="ucircumflex" data-tags="ucircumflex" d="M246.5 6q56.5 0 99.25 22t63.75 63.5v-29q0-23.5 16-36.5t38-13q22.5 0 39 13.5t16.5 38v395.5q0 25-16 38.75t-38.5 13.75-38.75-14-16.25-38.5v-227q-1-69-40-110.75t-92.5-41.75q-46 0-73.75 29.75t-27.75 86.75v263q0 25-16.25 38.75t-38.25 13.75q-22.5 0-38.75-13.75t-16.25-38.75v-262q0-49 14.5-86.5t39.75-60.25 57.25-34 69-11.25zM165.5 557q22 0 39.5 22l82.5 110 81.5-110q16-21.5 38.5-21.5 14.5 0 24 9t9.5 22.5q0 11.5-10 26l-94.5 129q-23 28-49.5 28-27 0-49.5-28l-95-129.5q-10.5-13.5-10.5-25 0-14.5 9.25-23.5t24.25-9z" />
<glyph unicode="&#xfc;" glyph-name="udieresis" data-tags="udieresis" d="M246.5 6q56.5 0 99.25 22t63.75 63.5v-29q0-23.5 16-36.5t38-13q22.5 0 39 13.5t16.5 38v395.5q0 25-16 38.75t-38.5 13.75-38.75-14-16.25-38.5v-227q-1-69-40-110.75t-92.5-41.75q-46 0-73.75 29.75t-27.75 86.75v263q0 25-16.25 38.75t-38.25 13.75q-22.5 0-38.75-13.75t-16.25-38.75v-262q0-49 14.5-86.5t39.75-60.25 57.25-34 69-11.25zM188.5 588q26 0 43.25 16.75t17.25 40.25-17.25 40.25-43.25 16.75q-26.5 0-43.75-17t-17.25-40q0-23.5 17.5-40.25t43.5-16.75zM393.5 588q26.5 0 43.5 16.75t17 40.25-17.25 40.25-43.25 16.75q-27 0-44-17t-17-40q0-23.5 17.5-40.25t43.5-16.75z" />
<glyph unicode="&#xfd;" glyph-name="yacute" data-tags="yacute" horiz-adv-x="531" d="M215.5-164.5l298.5 606.5q5.5 11 5.5 22.5 0 20.5-16.25 35t-36.75 14.5q-31.5 0-48-32.5l-142.5-290.5-139.5 284.5q-8 16.5-20.75 24.25t-27.25 7.75q-13.5 0-26-6.25t-20.25-17.75-7.75-25.5q0-11.5 6-23.5l181-354.5-99-201q-2.5-5.5-4-11t-1.5-11q0-21 16.75-36t37.75-15q29.5 0 44 29.5zM280 600q11 0 23 9.5l155.5 124.5q16 13 16 30 0 20-17.25 36t-37.25 16q-19 0-36.5-22.5l-120.5-148q-8-10-8-20.5 0-11 7.25-18t17.75-7z" />
<glyph unicode="&#xfe;" glyph-name="thorn" data-tags="thorn" horiz-adv-x="599" d="M118.5-158q22 0 37.75 14t15.75 39v209q31.5-51.5 77.5-77.5t101-26q40.5 0 74.75 14.5t58.25 39.5 40.5 59 24.5 72.25 8 79.75q0 74-22.75 131.75t-70.75 93-115 35.25q-53 0-100.5-25.5t-73-72v251q0 24.5-16 38t-38.5 13.5-39-13.75-16.5-37.75v-784q0-25 15.75-39t38.25-14zM318.5 76q-40.5 0-69.25 14.25t-44.75 41.5-23 60.75-7 77.5q0 38 7.5 69.5t23.25 56.5 43 39 63.75 14q36 0 62.25-15.25t40.75-41.75 21.25-57.25 6.75-67.25q0-36-5.5-67t-18.5-60.5-38.75-46.75-61.75-17.25z" />
<glyph unicode="&#xff;" glyph-name="ydieresis" data-tags="ydieresis" horiz-adv-x="531" d="M215.5-164.5l298.5 606.5q5.5 11 5.5 22.5 0 20.5-16.25 35t-36.75 14.5q-31.5 0-48-32.5l-142.5-290.5-139.5 284.5q-8 16.5-20.75 24.25t-27.25 7.75q-13.5 0-26-6.25t-20.25-17.75-7.75-25.5q0-11.5 6-23.5l181-354.5-99-201q-2.5-5.5-4-11t-1.5-11q0-21 16.75-36t37.75-15q29.5 0 44 29.5zM182 596q26 0 43.25 16.75t17.25 40.25-17.25 40.25-43.25 16.75q-26.5 0-43.75-17t-17.25-40q0-23.5 17.5-40.25t43.5-16.75zM387 596q26.5 0 43.5 16.75t17 40.25-17.25 40.25-43.25 16.75q-27 0-44-17t-17-40q0-23.5 17.5-40.25t43.5-16.75z" />
<glyph unicode="&#x100;" glyph-name="Amacron" data-tags="Amacron" horiz-adv-x="722" d="M227 861.5h266q17.5 0 27 11t9.5 26.5-9.5 26.5-27 11h-266q-17.5 0-27.5-11t-10-26.5 9.75-26.5 27.75-11zM495.5 271.5h-263l131.5 344.5zM581 48.5q7.5-20 22.5-29.75t33-9.75q24.5 0 43.25 15.25t18.75 37.75q0 10-4 20l-231.5 579.5q-13 31.5-29.5 49t-31.75 22-37.75 4.5q-33.5 0-57-15t-41.5-60.5l-231.5-579.5q-4-10-4-20 0-22.5 18.75-37.75t43.25-15.25q18 0 33 9.75t22.5 29.75l51.5 135h330.5z" />
<glyph unicode="&#x101;" glyph-name="amacron" data-tags="amacron" horiz-adv-x="536" d="M133.5 640h266q17.5 0 27 11t9.5 26.5-9.5 26.5-27 11h-266q-17.5 0-27.5-11t-10-26.5 9.75-26.5 27.75-11zM211 6q101.5 0 145 86v-27q0-34 29.5-47 11.5-5 24-5 22 0 38 13.75t16 38.75v274q0 92.5-54 136.25t-146.5 43.75q-102.5 0-183.5-40.5-18.5-9-18.5-28.5 0-16 11.25-29t27.25-13q2 0 4 0.25t4.25 0.75 4.25 1.5q28 11 41.25 15.75t45.25 12 60 7.25q95 0 95-98v-44q-46 0-78-0.75t-65.5-3.5-55.75-7.5-43.75-12.5-34.25-19-23-27.25-14.5-36.5-4.25-47q0-69 49.5-106.5t127-37.5zM220.5 77.5q-37 0-59.5 18.75t-22.5 58.75q0 14.5 2.25 25.75t7.75 20.25 13.25 15.25 21 11 28.25 7.5 37.75 4.5 46.5 2.25 57.75 0.5v-13q0-66-40-108.75t-92.5-42.75z" />
<glyph unicode="&#x102;" glyph-name="Abreve" data-tags="Abreve" horiz-adv-x="722" d="M360 823.5q50.5 0 88.25 21.75t55.25 61.25q3 7 4 18 0 13.5-9.5 21.75t-22.5 8.25q-21.5 0-32.5-19-15.5-22.5-33.75-31.25t-49.25-8.75-49.25 8.75-33.75 31.25q-11 19-32.5 19-13 0-22.5-8.25t-9.5-21.75q0-7.5 4-18 17.5-39.5 55.25-61.25t88.25-21.75zM495.5 271.5h-263l131.5 344.5zM581 48.5q7.5-20 22.5-29.75t33-9.75q24.5 0 43.25 15.25t18.75 37.75q0 10-4 20l-231.5 579.5q-13 31.5-29.5 49t-31.75 22-37.75 4.5q-33.5 0-57-15t-41.5-60.5l-231.5-579.5q-4-10-4-20 0-22.5 18.75-37.75t43.25-15.25q18 0 33 9.75t22.5 29.75l51.5 135h330.5z" />
<glyph unicode="&#x103;" glyph-name="abreve" data-tags="abreve" horiz-adv-x="536" d="M266 602q50.5 0 88.25 21.75t55.25 61.25q3 7 4 18 0 13.5-9.5 21.75t-22.5 8.25q-21.5 0-32.5-19-15.5-22.5-33.75-31.25t-49.25-8.75-49.25 8.75-33.75 31.25q-11 19-32.5 19-13 0-22.5-8.25t-9.5-21.75q0-7.5 4-18 17.5-39.5 55.25-61.25t88.25-21.75zM211 6q101.5 0 145 86v-27q0-34 29.5-47 11.5-5 24-5 22 0 38 13.75t16 38.75v274q0 92.5-54 136.25t-146.5 43.75q-102.5 0-183.5-40.5-18.5-9-18.5-28.5 0-16 11.25-29t27.25-13q2 0 4 0.25t4.25 0.75 4.25 1.5q28 11 41.25 15.75t45.25 12 60 7.25q95 0 95-98v-44q-46 0-78-0.75t-65.5-3.5-55.75-7.5-43.75-12.5-34.25-19-23-27.25-14.5-36.5-4.25-47q0-69 49.5-106.5t127-37.5zM220.5 77.5q-37 0-59.5 18.75t-22.5 58.75q0 14.5 2.25 25.75t7.75 20.25 13.25 15.25 21 11 28.25 7.5 37.75 4.5 46.5 2.25 57.75 0.5v-13q0-66-40-108.75t-92.5-42.75z" />
<glyph unicode="&#x104;" glyph-name="Aogonek" data-tags="Aogonek" horiz-adv-x="722" d="M737.5-187v50.5q-18.5 0-34.75 3t-32 10-25 21.75-9.25 35.25q0 36 29 89h-52q-32.5-38-48.25-73.25t-15.75-64.75q0-41 28-65.25t75-24.25q40 0 85 18zM495.5 271.5h-263l131.5 344.5zM581 48.5q7.5-20 22.5-29.75t33-9.75q24.5 0 43.25 15.25t18.75 37.75q0 10-4 20l-231.5 579.5q-13 31.5-29.5 49t-31.75 22-37.75 4.5q-33.5 0-57-15t-41.5-60.5l-231.5-579.5q-4-10-4-20 0-22.5 18.75-37.75t43.25-15.25q18 0 33 9.75t22.5 29.75l51.5 135h330.5z" />
<glyph unicode="&#x105;" glyph-name="aogonek" data-tags="aogonek" horiz-adv-x="536" d="M521.5-187.5v50.5q-18.5 0-34.75 3t-32 10-25 21.75-9.25 35.25q0 36 29 89h-52q-32.5-38-48.25-73.25t-15.75-64.75q0-41 28-65.25t75-24.25q40 0 85 18zM211 6q101.5 0 145 86v-27q0-34 29.5-47 11.5-5 24-5 22 0 38 13.75t16 38.75v274q0 92.5-54 136.25t-146.5 43.75q-102.5 0-183.5-40.5-18.5-9-18.5-28.5 0-16 11.25-29t27.25-13q2 0 4 0.25t4.25 0.75 4.25 1.5q28 11 41.25 15.75t45.25 12 60 7.25q95 0 95-98v-44q-46 0-78-0.75t-65.5-3.5-55.75-7.5-43.75-12.5-34.25-19-23-27.25-14.5-36.5-4.25-47q0-69 49.5-106.5t127-37.5zM220.5 77.5q-37 0-59.5 18.75t-22.5 58.75q0 14.5 2.25 25.75t7.75 20.25 13.25 15.25 21 11 28.25 7.5 37.75 4.5 46.5 2.25 57.75 0.5v-13q0-66-40-108.75t-92.5-42.75z" />
<glyph unicode="&#x106;" glyph-name="Cacute" data-tags="Cacute" horiz-adv-x="687" d="M395.5 812.5q11 0 23 9.5l155.5 124.5q16 13 16 30 0 20-17.25 36t-37.25 16q-19 0-36.5-22.5l-120.5-148q-8-10-8-20.5 0-11 7.25-18t17.75-7zM393 2q120 0 207 55 5.5 3.5 9.75 7.5t7.25 8.5 5 9 3 9.25 1 9.75q0 19-13 34t-31.5 15q-5 0-10.25-1.5t-10.25-4q-26-14-42.5-21.5t-45.25-14.75-58.25-7.25q-111 0-169 73t-58 201q0 127 57.25 201t164.75 74q26.5 0 51.75-5t37.25-9.25 32-13.5 21-9.75q2-1 4-1.5l4-1t4-0.5h4q6.5 0 13 2t11.75 5.25 10 8.25 8 10.5 5 12 1.75 13q0 28-30.5 43.5-85.5 45-182 45-101.5 0-180.75-46.75t-123.25-132.5-44-197.25q0-107.5 41.75-191.75t118.5-131.5 175.75-47.25z" />
<glyph unicode="&#x107;" glyph-name="cacute" data-tags="cacute" horiz-adv-x="496" d="M285.5 6q101.5 0 153 44.5 18 15.5 18 34 0 4.5-1 8.75t-3.25 8-5.25 6.75-6.5 5-7.75 3.25-8.75 1.25q-6 0-12.25-2t-12.25-6.5q-39.5-28.5-105.5-28.5-67.5 0-105.75 50.5t-38.25 132.5q0 81.5 39.5 132t107.5 50.5q48.5 0 92.5-24 5.5-3 11.25-4.5t11.25-1.5q6 0 11.5 1.5t9.75 4.5 7.5 7 5 8.75 1.75 10.25-2.25 11-7 11.25-11.75 10.75q-55 38.5-138.5 38.5-55 0-101.75-20.5t-78.5-55.5-49.5-81.75-17.75-98.75q0-71 29.25-129t85.75-93 130-35zM282.5 599.5q11 0 23 9.5l155.5 124.5q16 13 16 30 0 20-17.25 36t-37.25 16q-19 0-36.5-22.5l-120.5-148q-8-10-8-20.5 0-11 7.25-18t17.75-7z" />
<glyph unicode="&#x108;" glyph-name="Ccircumflex" data-tags="Ccircumflex" horiz-adv-x="687" d="M274.5 777.5q22 0 39.5 22l82.5 110 81.5-110q16-21.5 38.5-21.5 14.5 0 24 9t9.5 22.5q0 11.5-10 26l-94.5 129q-23 28-49.5 28-27 0-49.5-28l-95-129.5q-10.5-13.5-10.5-25 0-14.5 9.25-23.5t24.25-9zM393 2q120 0 207 55 5.5 3.5 9.75 7.5t7.25 8.5 5 9 3 9.25 1 9.75q0 19-13 34t-31.5 15q-5 0-10.25-1.5t-10.25-4q-26-14-42.5-21.5t-45.25-14.75-58.25-7.25q-111 0-169 73t-58 201q0 127 57.25 201t164.75 74q26.5 0 51.75-5t37.25-9.25 32-13.5 21-9.75q2-1 4-1.5l4-1t4-0.5h4q6.5 0 13 2t11.75 5.25 10 8.25 8 10.5 5 12 1.75 13q0 28-30.5 43.5-85.5 45-182 45-101.5 0-180.75-46.75t-123.25-132.5-44-197.25q0-107.5 41.75-191.75t118.5-131.5 175.75-47.25z" />
</font>
</defs>
</svg>
