<?xml version="1.0" encoding="iso-8859-1"?>
<!-- Generator: Adobe Illustrator 16.0.0, SVG Export Plug-In . SVG Version: 6.00 Build 0)  -->
<!DOCTYPE svg PUBLIC "-//W3C//DTD SVG 1.1//EN" "http://www.w3.org/Graphics/SVG/1.1/DTD/svg11.dtd">
<svg version="1.1" xmlns="http://www.w3.org/2000/svg" xmlns:xlink="http://www.w3.org/1999/xlink" x="0px" y="0px"
	 width="29.931px" height="77.168px" viewBox="0 0 29.931 77.168" style="enable-background:new 0 0 29.931 77.168;"
	 xml:space="preserve">
<g id="DroneOnPawnOnPawn">
	<g>
		<path style="fill:#231F20;" d="M28.393,61.286l-12.51-33.072c-0.145-0.381-0.509-0.633-0.917-0.633
			c-0.407,0-0.772,0.252-0.917,0.633L1.538,61.286c-0.114,0.301-0.072,0.637,0.111,0.902c0.183,0.264,0.484,0.424,0.806,0.424h7.479
			L4.668,75.797c-0.123,0.309-0.085,0.657,0.101,0.932c0.187,0.275,0.496,0.439,0.828,0.439h18.737c0.332,0,0.643-0.164,0.828-0.439
			c0.186-0.274,0.225-0.623,0.102-0.932l-5.268-13.185h7.48c0.322,0,0.624-0.16,0.807-0.424
			C28.466,61.923,28.508,61.587,28.393,61.286z M22.857,75.168H7.073l5.015-12.556h5.753L22.857,75.168z M22.895,60.651
			l-7.008-19.323c-0.14-0.389-0.508-0.647-0.921-0.647c-0.412,0-0.781,0.259-0.92,0.647l-3.518,9.698h2.084l2.354-6.491
			l5.849,16.116h-1.602h-2.154h-4.187h-2.154H7.037H3.873l11.092-29.322l11.093,29.322H22.895z"/>
		<path style="fill:#231F20;" d="M9.377,53.323c-0.063-0.123-0.237-0.123-0.301,0c-0.384,0.748-1.379,2.773-1.485,3.879
			c-0.001,0.006-0.001,0.014-0.002,0.021c-0.005,0.055-0.008,0.105-0.008,0.156c0,0.352,0.113,0.676,0.301,0.943
			c0.298,0.424,0.788,0.703,1.345,0.703c0.182,0,0.354-0.037,0.518-0.092c0.654-0.219,1.129-0.828,1.129-1.555
			c0-0.049-0.003-0.1-0.008-0.152c-0.001-0.01-0.002-0.021-0.003-0.033c-0.024-0.238-0.095-0.523-0.187-0.826
			c-0.274-0.904-0.777-1.994-1.114-2.678C9.492,53.548,9.428,53.423,9.377,53.323z"/>
		<path style="fill:#231F20;" d="M13.528,59.007c0.064,0.008,0.128,0.02,0.194,0.02c0.911,0,1.647-0.738,1.647-1.646
			c0-0.049-0.003-0.1-0.008-0.152c-0.002-0.01-0.002-0.021-0.004-0.033c-0.044-0.436-0.23-1.021-0.461-1.615
			c-0.346-0.894-0.794-1.806-1.024-2.256c-0.042-0.084-0.128-0.089-0.204-0.06c-0.036,0.015-0.076,0.021-0.097,0.06
			c-0.384,0.748-1.38,2.773-1.486,3.879c-0.001,0.006-0.001,0.014-0.002,0.021c0,0.003,0,0.005,0,0.008
			c-0.004,0.052-0.007,0.101-0.007,0.148C12.077,58.222,12.712,58.909,13.528,59.007z"/>
		<path style="fill:#231F20;" d="M14.871,73.518c0.906,0,1.641-0.734,1.641-1.642c0-0.048-0.004-0.099-0.008-0.152
			c0-0.011-0.002-0.021-0.002-0.033c-0.111-1.087-1.102-3.112-1.483-3.861c-0.063-0.122-0.236-0.122-0.299,0
			c-0.385,0.747-1.376,2.768-1.483,3.868c-0.001,0.007-0.002,0.015-0.002,0.021c-0.005,0.054-0.008,0.107-0.008,0.157
			C13.228,72.783,13.962,73.518,14.871,73.518z"/>
	</g>
</g>
<g id="Layer_1">
</g>
</svg>
