<?xml version="1.0" encoding="iso-8859-1"?>
<!-- Generator: Adobe Illustrator 16.0.0, SVG Export Plug-In . SVG Version: 6.00 Build 0)  -->
<!DOCTYPE svg PUBLIC "-//W3C//DTD SVG 1.1//EN" "http://www.w3.org/Graphics/SVG/1.1/DTD/svg11.dtd">
<svg version="1.1" xmlns="http://www.w3.org/2000/svg" xmlns:xlink="http://www.w3.org/1999/xlink" x="0px" y="0px"
	 width="37.954px" height="77.169px" viewBox="0 0 37.954 77.169" style="enable-background:new 0 0 37.954 77.169;"
	 xml:space="preserve">
<g id="DroneOnQueen">
	<g>
		<path style="fill:#231F20;" d="M9.706,67.829c-0.063-0.121-0.236-0.121-0.299,0c-0.385,0.748-1.376,2.768-1.482,3.867
			c0,0.008,0,0.016-0.002,0.023c-0.005,0.053-0.008,0.107-0.008,0.156c0,0.908,0.734,1.643,1.643,1.643
			c0.906,0,1.642-0.734,1.642-1.643c0-0.047-0.003-0.1-0.009-0.152c0-0.01-0.002-0.021-0.002-0.033
			C11.078,70.604,10.087,68.579,9.706,67.829z"/>
		<path style="fill:#231F20;" d="M14.041,73.519c0.907,0,1.642-0.734,1.642-1.643c0-0.047-0.002-0.1-0.008-0.152
			c0-0.01-0.002-0.021-0.002-0.033c-0.111-1.086-1.101-3.111-1.482-3.861c-0.063-0.121-0.236-0.121-0.299,0
			c-0.385,0.748-1.377,2.768-1.482,3.867c-0.001,0.008-0.001,0.016-0.002,0.023c-0.005,0.053-0.008,0.107-0.008,0.156
			C12.399,72.784,13.133,73.519,14.041,73.519z"/>
		<path style="fill:#231F20;" d="M18.524,73.519c0.908,0,1.643-0.734,1.643-1.643c0-0.047-0.002-0.1-0.008-0.152
			c-0.002-0.01-0.002-0.021-0.004-0.033c-0.109-1.086-1.1-3.111-1.48-3.861c-0.063-0.121-0.236-0.121-0.299,0
			c-0.385,0.748-1.377,2.768-1.483,3.867c-0.002,0.008-0.002,0.016-0.002,0.023c-0.006,0.053-0.008,0.107-0.008,0.156
			C16.883,72.784,17.618,73.519,18.524,73.519z"/>
		<path style="fill:#231F20;" d="M36.392,75.78l-6.529-15.496h1.584c0.328,0,0.637-0.162,0.822-0.432
			c0.188-0.271,0.23-0.615,0.113-0.922L19.905,25.947c-0.148-0.39-0.52-0.646-0.936-0.646s-0.789,0.257-0.936,0.646L5.557,58.931
			c-0.116,0.307-0.074,0.65,0.113,0.922c0.187,0.27,0.494,0.432,0.822,0.432h1.584L1.547,75.78c-0.13,0.309-0.097,0.662,0.089,0.941
			s0.498,0.447,0.833,0.447h33c0.334,0,0.646-0.168,0.832-0.447S36.521,76.089,36.392,75.78z M7.94,58.284l11.03-29.158
			l11.029,29.158h-0.98h-2.17H11.09H8.919H7.94z M3.976,75.169l6.271-14.885H27.69l6.271,14.885H3.976z"/>
		<g>
			<path style="fill:#231F20;" d="M11.901,54.835c0.001-0.008,0.001-0.016,0.002-0.021c0.105-1.102,1.098-3.122,1.482-3.868
				c0.063-0.123,0.236-0.123,0.299,0c0.382,0.748,1.371,2.774,1.482,3.86c0,0.012,0.002,0.023,0.002,0.033
				c0.006,0.053,0.008,0.105,0.008,0.152c0,0.908-0.734,1.643-1.642,1.643s-1.642-0.734-1.642-1.643
				C11.893,54.942,11.896,54.888,11.901,54.835"/>
			<path style="fill:#231F20;" d="M16.385,54.835c0-0.008,0.001-0.016,0.002-0.021c0.105-1.102,1.098-3.122,1.482-3.868
				c0.062-0.123,0.236-0.123,0.299,0c0.381,0.748,1.372,2.774,1.481,3.86c0.002,0.012,0.004,0.023,0.004,0.033
				c0.004,0.053,0.008,0.105,0.008,0.152c0,0.908-0.734,1.643-1.642,1.643c-0.907,0-1.642-0.734-1.642-1.643
				C16.377,54.942,16.38,54.888,16.385,54.835"/>
		</g>
	</g>
</g>
<g id="Layer_1">
</g>
</svg>
