<?xml version="1.0" encoding="iso-8859-1"?>
<!-- Generator: Adobe Illustrator 16.0.0, SVG Export Plug-In . SVG Version: 6.00 Build 0)  -->
<!DOCTYPE svg PUBLIC "-//W3C//DTD SVG 1.1//EN" "http://www.w3.org/Graphics/SVG/1.1/DTD/svg11.dtd">
<svg version="1.1" xmlns="http://www.w3.org/2000/svg" xmlns:xlink="http://www.w3.org/1999/xlink" x="0px" y="0px"
	 width="40.234px" height="77.168px" viewBox="0 0 40.234 77.168" style="enable-background:new 0 0 40.234 77.168;"
	 xml:space="preserve">
<g id="DronePointingLeft">
	<g>
		<path style="fill:#231F20;" d="M38.571,76.738c-0.187,0.27-0.494,0.432-0.823,0.43L2.485,77.129c-0.417,0-0.788-0.258-0.935-0.646
			l0,0c-0.147-0.391-0.038-0.83,0.274-1.105l26.463-23.309c0.246-0.218,0.582-0.3,0.901-0.219c0.319,0.078,0.579,0.309,0.695,0.617
			l8.801,23.35C38.803,76.123,38.76,76.469,38.571,76.738z M5.129,75.131l31.175,0.035l-7.781-20.641L5.129,75.131z"/>
		<path style="fill:#231F20;" d="M26.691,59.449c-0.006,0.002-0.014,0.004-0.02,0.01c-0.99,0.486-2.533,2.129-3.098,2.75
			c-0.09,0.102-0.029,0.266,0.107,0.279c0.834,0.094,3.08,0.307,4.135,0.023c0.014-0.002,0.023-0.006,0.032-0.008
			c0.054-0.014,0.102-0.029,0.147-0.045c0.849-0.32,1.275-1.268,0.955-2.115c-0.319-0.85-1.266-1.277-2.117-0.959
			C26.789,59.402,26.738,59.426,26.691,59.449"/>
		<path style="fill:#231F20;" d="M28.274,63.645c-0.007,0.004-0.013,0.006-0.021,0.01c-0.992,0.486-2.531,2.129-3.098,2.75
			c-0.091,0.102-0.029,0.266,0.107,0.281c0.835,0.09,3.078,0.305,4.134,0.023c0.013-0.004,0.024-0.006,0.034-0.006
			c0.051-0.016,0.1-0.031,0.146-0.047c0.849-0.322,1.274-1.27,0.955-2.117c-0.318-0.848-1.266-1.277-2.116-0.957
			C28.373,63.6,28.321,63.621,28.274,63.645"/>
	</g>
</g>
<g id="Layer_1">
</g>
</svg>
