<?xml version="1.0" encoding="iso-8859-1"?>
<!-- Generator: Adobe Illustrator 16.0.0, SVG Export Plug-In . SVG Version: 6.00 Build 0)  -->
<!DOCTYPE svg PUBLIC "-//W3C//DTD SVG 1.1//EN" "http://www.w3.org/Graphics/SVG/1.1/DTD/svg11.dtd">
<svg version="1.1" xmlns="http://www.w3.org/2000/svg" xmlns:xlink="http://www.w3.org/1999/xlink" x="0px" y="0px"
	 width="29.931px" height="77.168px" viewBox="0 0 29.931 77.168" style="enable-background:new 0 0 29.931 77.168;"
	 xml:space="preserve">
<g id="DroneOnPawnExpanded">
	<g>
		<path style="fill:#231F20;" d="M27.444,50.021H2.49c-0.328,0-0.636-0.16-0.822-0.432c-0.188-0.27-0.229-0.615-0.113-0.922
			l12.478-32.981c0.147-0.39,0.52-0.646,0.936-0.646l0,0c0.416,0,0.788,0.257,0.936,0.646L28.38,48.667
			c0.116,0.307,0.074,0.652-0.113,0.922C28.08,49.86,27.772,50.021,27.444,50.021z M3.937,48.021h22.06l-11.03-29.155L3.937,48.021z
			"/>
		<path style="fill:#231F20;" d="M7.898,44.572c0.001-0.006,0.001-0.014,0.003-0.021c0.105-1.1,1.098-3.121,1.481-3.867
			c0.063-0.123,0.237-0.123,0.299,0c0.382,0.748,1.372,2.773,1.481,3.861c0.002,0.012,0.002,0.021,0.004,0.033
			c0.005,0.053,0.008,0.104,0.008,0.152c0,0.906-0.735,1.64-1.643,1.64c-0.906,0-1.642-0.733-1.642-1.64
			C7.89,44.68,7.893,44.627,7.898,44.572"/>
		<path style="fill:#231F20;" d="M12.383,44.572c0-0.006,0-0.014,0.002-0.021c0.105-1.1,1.098-3.121,1.481-3.867
			c0.062-0.123,0.237-0.123,0.299,0c0.382,0.748,1.372,2.773,1.481,3.861c0.002,0.012,0.002,0.021,0.004,0.033
			c0.004,0.053,0.008,0.104,0.008,0.152c0,0.906-0.735,1.64-1.643,1.64c-0.906,0-1.642-0.733-1.642-1.64
			C12.375,44.68,12.377,44.627,12.383,44.572"/>
	</g>
	<g>
		<path style="fill:#231F20;" d="M24.335,77.166H5.596c-0.332,0-0.641-0.164-0.828-0.439c-0.186-0.273-0.223-0.623-0.1-0.932
			l9.367-23.451c0.152-0.381,0.52-0.629,0.93-0.629c0.408,0,0.777,0.248,0.928,0.629l9.37,23.451c0.123,0.309,0.086,0.658-0.1,0.932
			C24.976,77.002,24.667,77.166,24.335,77.166z M7.073,75.166h15.786L14.965,55.41L7.073,75.166z"/>
		<path style="fill:#231F20;" d="M13.235,71.717c0-0.006,0.002-0.014,0.002-0.021c0.107-1.1,1.098-3.121,1.482-3.867
			c0.063-0.123,0.236-0.123,0.299,0c0.383,0.748,1.374,2.773,1.483,3.861c0,0.012,0.002,0.021,0.002,0.033
			c0.006,0.053,0.01,0.104,0.01,0.152c0,0.906-0.737,1.641-1.643,1.641c-0.908,0-1.643-0.734-1.643-1.641
			C13.227,71.824,13.231,71.771,13.235,71.717"/>
	</g>
</g>
<g id="Layer_1">
</g>
</svg>
