<?xml version="1.0" encoding="iso-8859-1"?>
<!-- Generator: Adobe Illustrator 16.0.0, SVG Export Plug-In . SVG Version: 6.00 Build 0)  -->
<!DOCTYPE svg PUBLIC "-//W3C//DTD SVG 1.1//EN" "http://www.w3.org/Graphics/SVG/1.1/DTD/svg11.dtd">
<svg version="1.1" xmlns="http://www.w3.org/2000/svg" xmlns:xlink="http://www.w3.org/1999/xlink" x="0px" y="0px"
	 width="40.234px" height="77.168px" viewBox="0 0 40.234 77.168" style="enable-background:new 0 0 40.234 77.168;"
	 xml:space="preserve">
<g id="DronePointingRight">
	<g>
		<path style="fill:#231F20;" d="M1.55,75.816l8.801-23.35c0.116-0.309,0.376-0.539,0.695-0.617
			c0.319-0.081,0.655,0.001,0.901,0.219L38.41,75.377c0.313,0.275,0.422,0.715,0.273,1.105l0,0
			c-0.146,0.389-0.518,0.646-0.934,0.646L2.486,77.168c-0.329,0.002-0.637-0.16-0.823-0.43C1.475,76.469,1.432,76.123,1.55,75.816z
			 M11.712,54.525L3.931,75.166l31.175-0.035L11.712,54.525z"/>
		<path style="fill:#231F20;" d="M13.543,59.449c0.006,0.002,0.014,0.004,0.02,0.01c0.99,0.486,2.533,2.129,3.098,2.75
			c0.09,0.102,0.029,0.266-0.107,0.279c-0.834,0.094-3.08,0.307-4.135,0.023c-0.014-0.002-0.023-0.006-0.032-0.008
			c-0.054-0.014-0.102-0.029-0.147-0.045c-0.849-0.32-1.275-1.268-0.955-2.115c0.319-0.85,1.266-1.277,2.117-0.959
			C13.445,59.402,13.496,59.426,13.543,59.449"/>
		<path style="fill:#231F20;" d="M11.96,63.645c0.007,0.004,0.013,0.006,0.021,0.01c0.992,0.486,2.531,2.129,3.098,2.75
			c0.091,0.102,0.029,0.266-0.107,0.281c-0.835,0.09-3.078,0.305-4.134,0.023c-0.013-0.004-0.024-0.006-0.034-0.006
			c-0.051-0.016-0.1-0.031-0.146-0.047c-0.849-0.322-1.274-1.27-0.955-2.117c0.318-0.848,1.266-1.277,2.116-0.957
			C11.861,63.6,11.913,63.621,11.96,63.645"/>
	</g>
</g>
<g id="Layer_1">
</g>
</svg>
