<?xml version="1.0" encoding="iso-8859-1"?>
<!-- Generator: Adobe Illustrator 16.0.0, SVG Export Plug-In . SVG Version: 6.00 Build 0)  -->
<!DOCTYPE svg PUBLIC "-//W3C//DTD SVG 1.1//EN" "http://www.w3.org/Graphics/SVG/1.1/DTD/svg11.dtd">
<svg version="1.1" xmlns="http://www.w3.org/2000/svg" xmlns:xlink="http://www.w3.org/1999/xlink" x="0px" y="0px"
	 width="37.954px" height="77.169px" viewBox="0 0 37.954 77.169" style="enable-background:new 0 0 37.954 77.169;"
	 xml:space="preserve">
<g id="DroneOnQueenOnQueen">
	<g>
		<path style="fill:#231F20;" d="M32.56,66.685h2.91c0.335,0,0.647-0.168,0.833-0.447s0.219-0.633,0.089-0.941l-6.435-15.272h1.497
			c0.328,0,0.636-0.161,0.822-0.432c0.188-0.271,0.229-0.615,0.113-0.922L19.913,15.687c-0.147-0.39-0.52-0.646-0.936-0.646
			s-0.788,0.257-0.936,0.646L5.564,48.67c-0.116,0.307-0.074,0.651,0.113,0.922c0.187,0.271,0.494,0.432,0.822,0.432h1.483
			L1.548,65.296c-0.13,0.309-0.097,0.662,0.089,0.941s0.498,0.447,0.833,0.447H5.38L1.548,75.78c-0.13,0.31-0.097,0.662,0.089,0.941
			s0.498,0.447,0.833,0.447h33c0.335,0,0.647-0.168,0.833-0.447s0.219-0.632,0.089-0.941L32.56,66.685z M7.947,48.023l11.03-29.157
			l11.029,29.157h-0.893h-2.171h-2.247h-2.171h-7.111h-2.171h-2.247H8.826H7.947z M3.977,64.685l6.177-14.661H12.4h2.171h8.797
			h2.171h2.247l6.177,14.661h-2.246h-2.171H8.394H6.223H3.977z M3.977,75.169l3.575-8.484h22.836l3.575,8.484H3.977z"/>
		<path style="fill:#231F20;" d="M11.188,71.691c-0.11-1.087-1.101-3.113-1.482-3.862c-0.062-0.122-0.237-0.122-0.299,0
			c-0.384,0.747-1.376,2.769-1.481,3.868c-0.002,0.007-0.002,0.016-0.002,0.022c-0.006,0.054-0.008,0.106-0.008,0.156
			c0,0.907,0.734,1.643,1.641,1.643c0.908,0,1.643-0.735,1.643-1.643c0-0.048-0.003-0.099-0.008-0.151
			C11.19,71.714,11.189,71.702,11.188,71.691z"/>
		<path style="fill:#231F20;" d="M15.672,71.691c-0.109-1.087-1.1-3.113-1.481-3.862c-0.062-0.122-0.235-0.122-0.299,0
			c-0.384,0.747-1.376,2.769-1.481,3.868c-0.002,0.007-0.002,0.016-0.002,0.022c-0.006,0.054-0.009,0.106-0.009,0.156
			c0,0.907,0.735,1.643,1.642,1.643c0.907,0,1.643-0.735,1.643-1.643c0-0.048-0.003-0.099-0.008-0.151
			C15.674,71.714,15.674,71.702,15.672,71.691z"/>
		<path style="fill:#231F20;" d="M20.156,71.691c-0.109-1.087-1.1-3.113-1.481-3.862c-0.062-0.122-0.236-0.122-0.3,0
			c-0.383,0.747-1.375,2.769-1.481,3.868c-0.001,0.007-0.001,0.016-0.002,0.022c-0.005,0.054-0.008,0.106-0.008,0.156
			c0,0.907,0.735,1.643,1.642,1.643c0.907,0,1.643-0.735,1.643-1.643c0-0.048-0.004-0.099-0.008-0.151
			C20.158,71.714,20.158,71.702,20.156,71.691z"/>
		<path style="fill:#231F20;" d="M9.557,63.034c0.908,0,1.643-0.736,1.643-1.643c0-0.049-0.003-0.1-0.008-0.152
			c-0.001-0.01-0.002-0.021-0.003-0.033c-0.05-0.49-0.281-1.172-0.553-1.842c-0.33-0.813-0.72-1.609-0.93-2.021
			c-0.062-0.121-0.237-0.121-0.299,0c-0.384,0.747-1.376,2.769-1.481,3.868c-0.002,0.008-0.002,0.016-0.002,0.023
			c-0.006,0.053-0.008,0.105-0.008,0.156c0,0.753,0.51,1.382,1.202,1.575C9.258,63.007,9.403,63.034,9.557,63.034z"/>
		<path style="fill:#231F20;" d="M14.041,63.034c0.907,0,1.643-0.736,1.643-1.643c0-0.049-0.003-0.1-0.008-0.152
			c-0.002-0.01-0.002-0.021-0.004-0.033c-0.109-1.086-1.1-3.113-1.481-3.862c-0.062-0.121-0.235-0.121-0.299,0
			c-0.384,0.747-1.376,2.769-1.481,3.868c-0.002,0.008-0.002,0.016-0.002,0.023c-0.006,0.053-0.009,0.105-0.009,0.156
			C12.399,62.298,13.135,63.034,14.041,63.034z"/>
		<path style="fill:#231F20;" d="M18.525,63.034c0.907,0,1.643-0.736,1.643-1.643c0-0.049-0.004-0.1-0.008-0.152
			c-0.002-0.01-0.002-0.021-0.004-0.033c-0.109-1.086-1.1-3.113-1.481-3.862c-0.062-0.121-0.236-0.121-0.3,0
			c-0.383,0.747-1.375,2.769-1.481,3.868c-0.001,0.008-0.001,0.016-0.002,0.023c-0.005,0.053-0.008,0.105-0.008,0.156
			C16.884,62.298,17.619,63.034,18.525,63.034z"/>
		<path style="fill:#231F20;" d="M13.542,46.373c0.147,0,0.287-0.025,0.423-0.062c0.701-0.188,1.22-0.819,1.22-1.58
			c0-0.048-0.003-0.099-0.008-0.152c-0.002-0.011-0.002-0.021-0.004-0.033c-0.021-0.21-0.082-0.462-0.159-0.726
			c-0.258-0.895-0.759-1.993-1.108-2.704c-0.081-0.166-0.156-0.317-0.215-0.432c-0.062-0.122-0.235-0.122-0.299,0
			c-0.384,0.747-1.376,2.768-1.481,3.868c-0.002,0.007-0.002,0.015-0.003,0.021c-0.005,0.054-0.008,0.107-0.008,0.157
			c0,0.263,0.067,0.507,0.177,0.728C12.346,45.998,12.898,46.373,13.542,46.373z"/>
		<path style="fill:#231F20;" d="M18.026,46.373c0.907,0,1.643-0.734,1.643-1.642c0-0.048-0.004-0.099-0.008-0.152
			c-0.002-0.011-0.002-0.021-0.004-0.033c-0.095-0.944-0.854-2.595-1.302-3.503c-0.067-0.138-0.129-0.26-0.179-0.358
			c-0.062-0.122-0.237-0.122-0.299,0c-0.384,0.747-1.376,2.768-1.481,3.868c-0.002,0.007-0.002,0.015-0.002,0.021
			c-0.006,0.054-0.009,0.107-0.009,0.157c0,0.234,0.051,0.456,0.139,0.657C16.778,45.968,17.354,46.373,18.026,46.373z"/>
	</g>
</g>
<g id="Layer_1">
</g>
</svg>
