<?xml version="1.0" encoding="iso-8859-1"?>
<!-- Generator: Adobe Illustrator 16.0.0, SVG Export Plug-In . SVG Version: 6.00 Build 0)  -->
<!DOCTYPE svg PUBLIC "-//W3C//DTD SVG 1.1//EN" "http://www.w3.org/Graphics/SVG/1.1/DTD/svg11.dtd">
<svg version="1.1" xmlns="http://www.w3.org/2000/svg" xmlns:xlink="http://www.w3.org/1999/xlink" x="0px" y="0px"
	 width="29.931px" height="77.168px" viewBox="0 0 29.931 77.168" style="enable-background:new 0 0 29.931 77.168;"
	 xml:space="preserve">
<g id="DroneOnPawnOnDroneExpanded">
	<g>
		<path style="fill:#231F20;" d="M11.167,44.578c-0.002-0.012-0.002-0.021-0.004-0.033c-0.039-0.386-0.19-0.89-0.384-1.412
			c-0.353-0.951-0.851-1.967-1.098-2.449c-0.062-0.123-0.235-0.123-0.299,0c-0.384,0.746-1.376,2.768-1.481,3.867
			c-0.002,0.008-0.002,0.016-0.003,0.021C7.893,44.627,7.89,44.68,7.89,44.73c0,0.891,0.712,1.611,1.598,1.635
			c0.015,0.001,0.029,0.005,0.044,0.005c0.907,0,1.643-0.733,1.643-1.64C11.174,44.682,11.171,44.631,11.167,44.578z"/>
		<path style="fill:#231F20;" d="M14.678,56.631c0.906,0,1.643-0.734,1.643-1.641c0-0.049-0.004-0.1-0.01-0.152
			c0-0.012-0.002-0.021-0.002-0.033c-0.109-1.088-1.1-3.113-1.483-3.861c-0.063-0.123-0.236-0.123-0.299,0
			c-0.385,0.746-1.375,2.768-1.482,3.867c0,0.008-0.002,0.016-0.002,0.021c-0.004,0.055-0.008,0.107-0.008,0.158
			C13.036,55.896,13.77,56.631,14.678,56.631z"/>
		<path style="fill:#231F20;" d="M22.504,60.281h1.64c0.332,0,0.641-0.164,0.828-0.439c0.186-0.273,0.223-0.623,0.1-0.932
			l-3.552-8.89h5.925c0.328,0,0.636-0.16,0.822-0.432c0.188-0.27,0.229-0.615,0.113-0.922L15.903,15.686
			c-0.147-0.39-0.52-0.646-0.936-0.646s-0.788,0.257-0.936,0.646L1.554,48.667c-0.116,0.307-0.074,0.652,0.113,0.922
			c0.187,0.271,0.494,0.432,0.822,0.432h5.538l-3.551,8.89c-0.123,0.309-0.086,0.658,0.1,0.932c0.188,0.275,0.496,0.439,0.828,0.439
			h2.026L1.554,75.814c-0.116,0.307-0.074,0.652,0.113,0.922c0.187,0.271,0.494,0.432,0.822,0.432h24.955
			c0.328,0,0.636-0.16,0.822-0.432c0.188-0.27,0.229-0.615,0.113-0.922L22.504,60.281z M3.937,48.021l11.03-29.155l11.03,29.155
			h-5.276h-2.152h-0.703h-2.139h-1.518h-2.139H10.98H8.827H3.937z M6.881,58.281l3.3-8.261h1.131h2.139h3.032h2.139h0.745l3.3,8.261
			h-0.92h-2.139h-9.283H8.188H6.881z M3.937,75.168l5.632-14.887h10.796l5.632,14.887H3.937z"/>
		<path style="fill:#231F20;" d="M14.016,46.37c0.343,0,0.661-0.105,0.924-0.284c0.015-0.011,0.027-0.024,0.042-0.034
			c0.408-0.299,0.677-0.777,0.677-1.321c0-0.049-0.004-0.1-0.008-0.152c-0.002-0.012-0.002-0.021-0.004-0.033
			c-0.062-0.617-0.407-1.53-0.764-2.346c-0.272-0.624-0.552-1.191-0.718-1.516c-0.049-0.1-0.161-0.097-0.239-0.037
			c-0.02,0.015-0.047,0.012-0.06,0.037c-0.375,0.729-1.326,2.671-1.467,3.785c-0.003,0.025-0.012,0.057-0.014,0.082
			c-0.002,0.008-0.002,0.016-0.002,0.021c-0.006,0.055-0.009,0.107-0.009,0.158c0,0.459,0.191,0.874,0.496,1.172
			C13.167,46.191,13.57,46.37,14.016,46.37z"/>
		<path style="fill:#231F20;" d="M11.163,71.692c-0.109-1.088-1.1-3.113-1.481-3.861c-0.062-0.123-0.235-0.123-0.299,0
			c-0.384,0.746-1.376,2.768-1.481,3.867c-0.002,0.008-0.002,0.016-0.003,0.021c-0.005,0.055-0.008,0.107-0.008,0.158
			c0,0.906,0.735,1.64,1.642,1.64c0.907,0,1.643-0.733,1.643-1.64c0-0.049-0.003-0.1-0.008-0.152
			C11.165,71.714,11.165,71.704,11.163,71.692z"/>
		<path style="fill:#231F20;" d="M15.647,71.692c-0.109-1.088-1.1-3.113-1.481-3.861c-0.062-0.123-0.237-0.123-0.299,0
			c-0.384,0.746-1.376,2.768-1.481,3.867c-0.002,0.008-0.002,0.016-0.002,0.021c-0.006,0.055-0.009,0.107-0.009,0.158
			c0,0.906,0.735,1.64,1.642,1.64c0.907,0,1.643-0.733,1.643-1.64c0-0.049-0.004-0.1-0.008-0.152
			C15.649,71.714,15.649,71.704,15.647,71.692z"/>
	</g>
</g>
<g id="Layer_1">
</g>
</svg>
