<?xml version="1.0" encoding="iso-8859-1"?>
<!-- Generator: Adobe Illustrator 16.0.0, SVG Export Plug-In . SVG Version: 6.00 Build 0)  -->
<!DOCTYPE svg PUBLIC "-//W3C//DTD SVG 1.1//EN" "http://www.w3.org/Graphics/SVG/1.1/DTD/svg11.dtd">
<svg version="1.1" xmlns="http://www.w3.org/2000/svg" xmlns:xlink="http://www.w3.org/1999/xlink" x="0px" y="0px"
	 width="29.931px" height="77.168px" viewBox="0 0 29.931 77.168" style="enable-background:new 0 0 29.931 77.168;"
	 xml:space="preserve">
<g id="DroneOnDroneOnPawnExpanded">
	<g>
		<path style="fill:#231F20;" d="M9.532,46.37c0.907,0,1.643-0.733,1.643-1.64c0-0.049-0.003-0.1-0.008-0.152
			c-0.002-0.012-0.002-0.021-0.004-0.033c-0.043-0.426-0.222-0.994-0.444-1.574c-0.348-0.902-0.805-1.832-1.037-2.287
			c-0.045-0.09-0.139-0.092-0.217-0.051c-0.029,0.016-0.064,0.017-0.082,0.051c-0.384,0.746-1.376,2.768-1.481,3.867
			c-0.002,0.008-0.002,0.016-0.003,0.021C7.893,44.627,7.89,44.68,7.89,44.73c0,0.017,0.004,0.033,0.005,0.05
			c0.026,0.85,0.697,1.53,1.541,1.58C9.468,46.362,9.499,46.37,9.532,46.37z"/>
		<path style="fill:#231F20;" d="M14.016,46.37c0.907,0,1.643-0.733,1.643-1.64c0-0.049-0.004-0.1-0.008-0.152
			c-0.002-0.012-0.002-0.021-0.004-0.033c-0.109-1.088-1.1-3.113-1.481-3.861c-0.062-0.123-0.237-0.123-0.299,0
			c-0.384,0.746-1.376,2.768-1.481,3.867c-0.002,0.008-0.002,0.016-0.002,0.021c-0.006,0.055-0.009,0.107-0.009,0.158
			C12.375,45.637,13.11,46.37,14.016,46.37z"/>
		<path style="fill:#231F20;" d="M14.408,73.517c0.906,0,1.643-0.734,1.643-1.641c0-0.049-0.004-0.1-0.01-0.152
			c0-0.012-0.002-0.021-0.002-0.033c-0.11-1.088-1.1-3.113-1.483-3.861c-0.063-0.123-0.236-0.123-0.299,0
			c-0.385,0.746-1.375,2.768-1.482,3.867c0,0.008-0.002,0.016-0.002,0.021c-0.004,0.055-0.008,0.107-0.008,0.158
			C12.765,72.782,13.5,73.517,14.408,73.517z"/>
		<path style="fill:#231F20;" d="M24.021,50.021h3.423c0.328,0,0.636-0.16,0.822-0.432c0.188-0.27,0.229-0.615,0.113-0.922
			L15.903,15.686c-0.147-0.39-0.52-0.646-0.936-0.646s-0.788,0.257-0.936,0.646L1.554,48.667c-0.116,0.307-0.074,0.652,0.113,0.922
			c0.187,0.271,0.494,0.432,0.822,0.432h3.423L1.554,61.541c-0.116,0.307-0.074,0.652,0.113,0.922
			c0.187,0.271,0.494,0.432,0.822,0.432h6.87L4.207,75.796c-0.123,0.309-0.086,0.658,0.1,0.932c0.188,0.275,0.496,0.439,0.828,0.439
			h18.739c0.332,0,0.641-0.164,0.828-0.439c0.186-0.273,0.223-0.623,0.1-0.932l-5.154-12.901h7.798c0.328,0,0.636-0.16,0.822-0.432
			c0.188-0.27,0.229-0.615,0.113-0.922L24.021,50.021z M3.937,48.021l11.03-29.155l11.03,29.155h-2.731h-2.139H8.808H6.669H3.937z
			 M22.396,75.167H6.611l4.903-12.272h5.979L22.396,75.167z M18.848,60.895h-2.153h-4.381h-2.154H3.937l4.114-10.874h13.833
			l4.113,10.874H18.848z"/>
		<path style="fill:#231F20;" d="M11.163,57.419c-0.109-1.088-1.1-3.113-1.481-3.861c-0.062-0.123-0.235-0.123-0.299,0
			c-0.384,0.746-1.376,2.768-1.481,3.867c-0.002,0.008-0.002,0.016-0.003,0.021c-0.005,0.055-0.008,0.107-0.008,0.158
			c0,0.906,0.735,1.64,1.642,1.64c0.907,0,1.643-0.733,1.643-1.64c0-0.049-0.003-0.1-0.008-0.152
			C11.165,57.44,11.165,57.431,11.163,57.419z"/>
		<path style="fill:#231F20;" d="M15.647,57.419c-0.109-1.088-1.1-3.113-1.481-3.861c-0.062-0.123-0.237-0.123-0.299,0
			c-0.384,0.746-1.376,2.768-1.481,3.867c-0.002,0.008-0.002,0.016-0.002,0.021c-0.006,0.055-0.009,0.107-0.009,0.158
			c0,0.562,0.283,1.056,0.713,1.351c0.265,0.182,0.584,0.289,0.929,0.289c0.735,0,1.35-0.484,1.56-1.149
			c0.049-0.155,0.083-0.318,0.083-0.49c0-0.049-0.004-0.1-0.008-0.152C15.649,57.44,15.649,57.431,15.647,57.419z"/>
	</g>
</g>
<g id="Layer_1">
</g>
</svg>
