<?xml version="1.0" encoding="iso-8859-1"?>
<!-- Generator: Adobe Illustrator 16.0.0, SVG Export Plug-In . SVG Version: 6.00 Build 0)  -->
<!DOCTYPE svg PUBLIC "-//W3C//DTD SVG 1.1//EN" "http://www.w3.org/Graphics/SVG/1.1/DTD/svg11.dtd">
<svg version="1.1" xmlns="http://www.w3.org/2000/svg" xmlns:xlink="http://www.w3.org/1999/xlink" x="0px" y="0px"
	 width="37.954px" height="77.169px" viewBox="0 0 37.954 77.169" style="enable-background:new 0 0 37.954 77.169;"
	 xml:space="preserve">
<g id="DroneOnDroneOnQueen">
	<g>
		<path style="fill:#231F20;" d="M13.541,56.282c0.907,0,1.643-0.734,1.643-1.642c0-0.048-0.003-0.099-0.008-0.152
			c-0.002-0.011-0.002-0.021-0.004-0.033c-0.084-0.834-0.684-2.215-1.132-3.153c-0.136-0.285-0.26-0.533-0.349-0.708
			c-0.062-0.122-0.235-0.122-0.299,0c-0.384,0.747-1.376,2.768-1.481,3.868c-0.002,0.007-0.002,0.015-0.003,0.021
			c-0.005,0.054-0.008,0.107-0.008,0.157c0,0.365,0.123,0.699,0.324,0.971C12.522,56.017,12.999,56.282,13.541,56.282z"/>
		<path style="fill:#231F20;" d="M18.025,56.282c0.907,0,1.644-0.734,1.644-1.642c0-0.048-0.004-0.099-0.008-0.152
			c-0.002-0.011-0.002-0.021-0.004-0.033c-0.109-1.087-1.101-3.112-1.482-3.861c-0.062-0.122-0.237-0.122-0.299,0
			c-0.384,0.747-1.376,2.768-1.481,3.868c-0.002,0.007-0.002,0.015-0.002,0.021c-0.006,0.054-0.009,0.107-0.009,0.157
			C16.384,55.548,17.119,56.282,18.025,56.282z"/>
		<path style="fill:#231F20;" d="M36.398,75.78l-6.677-15.847h1.732c0.328,0,0.635-0.162,0.822-0.432
			c0.188-0.271,0.229-0.615,0.113-0.922l-3.236-8.557h2.3c0.328,0,0.636-0.161,0.822-0.432c0.188-0.271,0.229-0.615,0.113-0.922
			L19.912,15.687c-0.147-0.39-0.52-0.646-0.935-0.646c-0.416,0-0.788,0.257-0.936,0.646L5.564,48.67
			c-0.116,0.307-0.074,0.651,0.113,0.922c0.187,0.271,0.494,0.432,0.822,0.432H8.8L5.563,58.58c-0.116,0.307-0.074,0.65,0.113,0.922
			c0.187,0.27,0.494,0.432,0.822,0.432h1.732L1.555,75.78c-0.13,0.31-0.097,0.662,0.089,0.941s0.498,0.447,0.833,0.447h33
			c0.335,0,0.647-0.168,0.833-0.447S36.528,76.09,36.398,75.78z M7.947,48.023l11.03-29.157l11.029,29.157h-1.609h-2.138h-1.556
			h-2.171h-7.111H13.25h-1.555H9.557H7.947z M7.946,57.933l2.992-7.909h1.469h2.171h8.797h2.171h1.469l2.992,7.909h-1.129h-2.171
			H11.246H9.075H7.946z M3.983,75.169l6.419-15.235h17.148l6.419,15.235H3.983z"/>
		<path style="fill:#231F20;" d="M11.195,71.691c-0.11-1.087-1.101-3.113-1.482-3.862c-0.062-0.122-0.237-0.122-0.299,0
			c-0.384,0.747-1.376,2.769-1.481,3.868c-0.002,0.007-0.002,0.016-0.002,0.022c-0.006,0.054-0.008,0.106-0.008,0.156
			c0,0.907,0.734,1.643,1.641,1.643c0.908,0,1.643-0.735,1.643-1.643c0-0.048-0.003-0.099-0.008-0.151
			C11.197,71.714,11.196,71.702,11.195,71.691z"/>
		<path style="fill:#231F20;" d="M15.679,71.691c-0.109-1.087-1.1-3.113-1.481-3.862c-0.062-0.122-0.235-0.122-0.299,0
			c-0.384,0.747-1.376,2.769-1.481,3.868c-0.002,0.007-0.002,0.016-0.002,0.022c-0.006,0.054-0.009,0.106-0.009,0.156
			c0,0.907,0.735,1.643,1.642,1.643c0.907,0,1.643-0.735,1.643-1.643c0-0.048-0.003-0.099-0.008-0.151
			C15.681,71.714,15.681,71.702,15.679,71.691z"/>
		<path style="fill:#231F20;" d="M20.163,71.691c-0.109-1.087-1.1-3.113-1.481-3.862c-0.062-0.122-0.236-0.122-0.3,0
			c-0.383,0.747-1.375,2.769-1.481,3.868c-0.001,0.007-0.001,0.016-0.002,0.022c-0.005,0.054-0.008,0.106-0.008,0.156
			c0,0.907,0.735,1.643,1.642,1.643c0.907,0,1.643-0.735,1.643-1.643c0-0.048-0.004-0.099-0.008-0.151
			C20.165,71.714,20.165,71.702,20.163,71.691z"/>
		<path style="fill:#231F20;" d="M13.542,46.373c0.15,0,0.293-0.026,0.431-0.064c0.697-0.189,1.211-0.82,1.211-1.577
			c0-0.048-0.003-0.099-0.008-0.152c-0.002-0.011-0.002-0.021-0.004-0.033c-0.021-0.208-0.081-0.455-0.156-0.716
			c-0.205-0.717-0.567-1.564-0.886-2.244c-0.172-0.367-0.331-0.688-0.439-0.901c-0.062-0.122-0.235-0.122-0.299,0
			c-0.384,0.747-1.376,2.768-1.481,3.868c-0.002,0.007-0.002,0.015-0.003,0.021c-0.005,0.054-0.008,0.107-0.008,0.157
			c0,0.497,0.225,0.937,0.573,1.237C12.761,46.217,13.131,46.373,13.542,46.373z"/>
		<path style="fill:#231F20;" d="M18.026,46.373c0.907,0,1.642-0.734,1.642-1.642c0-0.048-0.004-0.099-0.008-0.152
			c-0.002-0.011-0.002-0.021-0.004-0.033c-0.095-0.941-0.849-2.585-1.298-3.495c-0.069-0.141-0.132-0.266-0.183-0.366
			c-0.062-0.122-0.237-0.122-0.299,0c-0.384,0.747-1.376,2.768-1.481,3.868c-0.002,0.007-0.002,0.015-0.002,0.021
			c-0.006,0.054-0.009,0.107-0.009,0.157c0,0.237,0.053,0.462,0.143,0.665C16.783,45.971,17.357,46.373,18.026,46.373z"/>
	</g>
</g>
<g id="Layer_1">
</g>
</svg>
