<?xml version="1.0" encoding="iso-8859-1"?>
<!-- Generator: Adobe Illustrator 16.0.0, SVG Export Plug-In . SVG Version: 6.00 Build 0)  -->
<!DOCTYPE svg PUBLIC "-//W3C//DTD SVG 1.1//EN" "http://www.w3.org/Graphics/SVG/1.1/DTD/svg11.dtd">
<svg version="1.1" xmlns="http://www.w3.org/2000/svg" xmlns:xlink="http://www.w3.org/1999/xlink" x="0px" y="0px"
	 width="37.954px" height="77.169px" viewBox="0 0 37.954 77.169" style="enable-background:new 0 0 37.954 77.169;"
	 xml:space="preserve">
<g id="DroneOnPawnOnQueenExpanded">
	<g>
		<path style="fill:#231F20;" d="M36.398,75.78L25.351,49.56h2.987c0.332,0,0.642-0.164,0.828-0.439
			c0.186-0.274,0.224-0.623,0.101-0.932l-4.09-10.237h6.27c0.328,0,0.636-0.161,0.822-0.432c0.188-0.271,0.229-0.615,0.113-0.922
			L19.905,3.615c-0.147-0.39-0.52-0.646-0.936-0.646s-0.788,0.257-0.936,0.646L5.557,36.598C5.44,36.905,5.482,37.25,5.67,37.52
			c0.187,0.271,0.494,0.432,0.822,0.432h6.269L8.672,48.188c-0.123,0.309-0.085,0.657,0.101,0.932
			c0.187,0.275,0.496,0.439,0.828,0.439h3.002L1.555,75.78c-0.13,0.311-0.097,0.662,0.089,0.941s0.498,0.447,0.833,0.447h33
			c0.335,0,0.647-0.168,0.833-0.447S36.528,76.091,36.398,75.78z M7.939,35.952L18.97,6.794l11.029,29.157h-5.621h-2.154h-6.51
			H13.56H7.939z M11.077,47.56l3.838-9.608h2.579h2.965h2.564l3.838,9.608h-2.354h-2.171h-6.721h-2.17H11.077z M3.983,75.169
			l10.79-25.609h8.406l10.79,25.609H3.983z"/>
		<path style="fill:#231F20;" d="M11.195,71.692c-0.11-1.088-1.101-3.113-1.482-3.863c-0.062-0.121-0.237-0.121-0.299,0
			c-0.384,0.748-1.376,2.77-1.481,3.869c-0.002,0.006-0.002,0.016-0.002,0.021c-0.006,0.055-0.008,0.107-0.008,0.156
			c0,0.908,0.734,1.643,1.641,1.643c0.908,0,1.643-0.734,1.643-1.643c0-0.047-0.003-0.098-0.008-0.15
			C11.197,71.714,11.196,71.702,11.195,71.692z"/>
		<path style="fill:#231F20;" d="M15.679,71.692c-0.109-1.088-1.1-3.113-1.481-3.863c-0.062-0.121-0.235-0.121-0.299,0
			c-0.384,0.748-1.376,2.77-1.481,3.869c-0.002,0.006-0.002,0.016-0.002,0.021c-0.006,0.055-0.009,0.107-0.009,0.156
			c0,0.908,0.735,1.643,1.642,1.643c0.907,0,1.643-0.734,1.643-1.643c0-0.047-0.003-0.098-0.008-0.15
			C15.681,71.714,15.681,71.702,15.679,71.692z"/>
		<path style="fill:#231F20;" d="M20.163,71.692c-0.109-1.088-1.1-3.113-1.481-3.863c-0.062-0.121-0.236-0.121-0.3,0
			c-0.383,0.748-1.375,2.77-1.481,3.869c-0.001,0.006-0.001,0.016-0.002,0.021c-0.005,0.055-0.008,0.107-0.008,0.156
			c0,0.908,0.735,1.643,1.642,1.643c0.907,0,1.643-0.734,1.643-1.643c0-0.047-0.004-0.098-0.008-0.15
			C20.165,71.714,20.165,71.702,20.163,71.692z"/>
		<path style="fill:#231F20;" d="M18.019,34.301c0.907,0,1.643-0.734,1.643-1.642c0-0.048-0.004-0.099-0.008-0.152
			c-0.002-0.011-0.002-0.021-0.004-0.033c-0.09-0.889-0.764-2.395-1.217-3.328c-0.101-0.208-0.195-0.397-0.264-0.533
			c-0.062-0.122-0.237-0.122-0.299,0c-0.384,0.747-1.376,2.768-1.481,3.868c-0.002,0.007-0.002,0.015-0.002,0.021
			c-0.006,0.054-0.009,0.107-0.009,0.157c0,0.342,0.105,0.659,0.284,0.922C16.956,34.016,17.454,34.301,18.019,34.301z"/>
		<path style="fill:#231F20;" d="M15.165,32.474c-0.011-0.114-0.038-0.243-0.066-0.374c-0.249-1.127-1.073-2.817-1.415-3.487
			c-0.062-0.122-0.235-0.122-0.299,0c-0.384,0.747-1.376,2.768-1.481,3.868c-0.002,0.007-0.002,0.015-0.003,0.021
			c-0.005,0.054-0.008,0.107-0.008,0.157c0,0.907,0.735,1.642,1.642,1.642c0.277,0,0.534-0.075,0.764-0.196
			c0.521-0.275,0.879-0.815,0.879-1.445c0-0.048-0.003-0.099-0.008-0.152C15.167,32.497,15.167,32.486,15.165,32.474z"/>
		<path style="fill:#231F20;" d="M18.874,45.909c0.906,0,1.642-0.734,1.642-1.642c0-0.048-0.004-0.099-0.009-0.152
			c0-0.011-0.002-0.021-0.002-0.033c-0.11-1.087-1.101-3.112-1.482-3.861c-0.063-0.122-0.236-0.122-0.299,0
			c-0.025,0.05-0.06,0.118-0.09,0.179c-0.331,0.653-0.913,1.873-1.212,2.876c-0.089,0.297-0.158,0.578-0.18,0.813
			c-0.001,0.007-0.002,0.015-0.002,0.021c-0.005,0.054-0.008,0.107-0.008,0.157C17.231,45.175,17.966,45.909,18.874,45.909z"/>
	</g>
</g>
<g id="Layer_1">
</g>
</svg>
