<?xml version="1.0" encoding="iso-8859-1"?>
<!-- Generator: Adobe Illustrator 16.0.0, SVG Export Plug-In . SVG Version: 6.00 Build 0)  -->
<!DOCTYPE svg PUBLIC "-//W3C//DTD SVG 1.1//EN" "http://www.w3.org/Graphics/SVG/1.1/DTD/svg11.dtd">
<svg version="1.1" xmlns="http://www.w3.org/2000/svg" xmlns:xlink="http://www.w3.org/1999/xlink" x="0px" y="0px"
	 width="29.931px" height="77.168px" viewBox="0 0 29.931 77.168" style="enable-background:new 0 0 29.931 77.168;"
	 xml:space="preserve">
<g id="Drone">
	<g>
		<path style="fill:#231F20;" d="M27.439,77.168H2.485c-0.328,0-0.636-0.16-0.822-0.432c-0.188-0.27-0.229-0.615-0.113-0.922
			l12.478-32.982c0.147-0.391,0.52-0.646,0.936-0.646l0,0c0.416,0,0.788,0.256,0.936,0.646l12.477,32.982
			c0.116,0.307,0.074,0.652-0.113,0.922C28.075,77.008,27.768,77.168,27.439,77.168z M3.932,75.168h22.06l-11.03-29.156
			L3.932,75.168z"/>
		<path style="fill:#231F20;" d="M7.893,71.719c0.001-0.006,0.001-0.014,0.003-0.021c0.105-1.1,1.098-3.121,1.481-3.867
			c0.063-0.123,0.237-0.123,0.299,0c0.382,0.748,1.372,2.773,1.481,3.861c0.002,0.012,0.002,0.021,0.004,0.033
			c0.005,0.053,0.008,0.104,0.008,0.152c0,0.906-0.735,1.641-1.643,1.641c-0.906,0-1.642-0.734-1.642-1.641
			C7.885,71.826,7.888,71.773,7.893,71.719"/>
		<path style="fill:#231F20;" d="M12.378,71.719c0-0.006,0-0.014,0.002-0.021c0.105-1.1,1.098-3.121,1.481-3.867
			c0.062-0.123,0.237-0.123,0.299,0c0.382,0.748,1.372,2.773,1.481,3.861c0.002,0.012,0.002,0.021,0.004,0.033
			c0.004,0.053,0.008,0.104,0.008,0.152c0,0.906-0.735,1.641-1.643,1.641c-0.906,0-1.642-0.734-1.642-1.641
			C12.37,71.826,12.373,71.773,12.378,71.719"/>
	</g>
</g>
<g id="Layer_1">
</g>
</svg>
