<?xml version="1.0" encoding="iso-8859-1"?>
<!-- Generator: Adobe Illustrator 16.0.0, SVG Export Plug-In . SVG Version: 6.00 Build 0)  -->
<!DOCTYPE svg PUBLIC "-//W3C//DTD SVG 1.1//EN" "http://www.w3.org/Graphics/SVG/1.1/DTD/svg11.dtd">
<svg version="1.1" xmlns="http://www.w3.org/2000/svg" xmlns:xlink="http://www.w3.org/1999/xlink" x="0px" y="0px"
	 width="37.954px" height="77.169px" viewBox="0 0 37.954 77.169" style="enable-background:new 0 0 37.954 77.169;"
	 xml:space="preserve">
<g id="DroneOnQueenOnPawn">
	<g>
		<path style="fill:#231F20;" d="M36.383,75.812l-6.542-15.527h1.613c0.328,0,0.636-0.162,0.822-0.432
			c0.188-0.271,0.229-0.615,0.113-0.922L19.913,25.947c-0.147-0.39-0.52-0.646-0.936-0.646s-0.788,0.257-0.936,0.646L5.564,58.931
			c-0.116,0.307-0.074,0.65,0.113,0.922c0.187,0.27,0.494,0.432,0.822,0.432h1.603L1.56,75.812c-0.127,0.303-0.095,0.646,0.086,0.92
			s0.487,0.438,0.815,0.438h4.025h24.969h4.025c0.328,0,0.634-0.164,0.815-0.438S36.511,76.114,36.383,75.812z M7.947,58.284
			l11.03-29.158l11.029,29.158h-1.009h-2.122h-6.188h-3.316h-6.305H8.945H7.947z M12.283,75.212l0.004-0.01h-2.126l-0.005,0.011
			h-2.19l0.004-0.011H5.845L5.84,75.213H3.934l6.291-14.929h6.295l-2.302,5.401h2.126l2.302-5.401h0.77l6.362,14.928H12.283z
			 M32.103,75.213h-2.125h-2.072l-6.364-14.929h6.178l6.29,14.929H32.103z"/>
		<path style="fill:#231F20;" d="M11.185,71.711c-0.062-0.607-0.397-1.501-0.748-2.308c-0.278-0.64-0.565-1.224-0.735-1.556
			c-0.063-0.124-0.237-0.124-0.3-0.002c-0.383,0.748-1.376,2.771-1.482,3.871c-0.001,0.008-0.001,0.013-0.002,0.021
			c-0.005,0.056-0.008,0.109-0.008,0.159c0,0.62,0.349,1.155,0.856,1.434c0.234,0.128,0.5,0.208,0.787,0.208
			c0.907,0,1.642-0.735,1.642-1.642c0-0.048-0.002-0.1-0.007-0.153C11.187,71.731,11.186,71.723,11.185,71.711z"/>
		<path style="fill:#231F20;" d="M15.672,71.711c-0.066-0.655-0.452-1.648-0.832-2.5c-0.25-0.563-0.499-1.065-0.651-1.363
			c-0.063-0.124-0.236-0.124-0.3-0.002c-0.383,0.748-1.376,2.771-1.482,3.871c-0.001,0.008-0.002,0.013-0.002,0.021
			c-0.005,0.056-0.008,0.109-0.008,0.159c0,0.564,0.285,1.063,0.719,1.357c0.264,0.18,0.581,0.284,0.923,0.284
			c0.907,0,1.643-0.735,1.643-1.642c0-0.048-0.003-0.1-0.008-0.153C15.674,71.731,15.673,71.723,15.672,71.711z"/>
		<path style="fill:#231F20;" d="M18.376,67.846c-0.383,0.748-1.377,2.771-1.482,3.871c-0.001,0.008-0.001,0.013-0.002,0.021
			c-0.005,0.056-0.008,0.109-0.008,0.159c0,0.906,0.735,1.642,1.643,1.642c0.908,0,1.643-0.735,1.643-1.642
			c0-0.048-0.003-0.1-0.009-0.153c-0.001-0.012-0.002-0.021-0.003-0.032c-0.11-1.089-1.1-3.115-1.481-3.863
			C18.614,67.724,18.44,67.724,18.376,67.846z"/>
		<path style="fill:#231F20;" d="M13.542,56.633c0.907,0,1.643-0.734,1.643-1.641c0-0.049-0.003-0.1-0.008-0.152
			c-0.002-0.012-0.002-0.021-0.004-0.033c-0.09-0.896-0.775-2.42-1.228-3.351c-0.097-0.198-0.186-0.38-0.253-0.511
			c-0.062-0.123-0.235-0.123-0.299,0c-0.384,0.746-1.376,2.768-1.481,3.867c-0.002,0.008-0.002,0.016-0.003,0.021
			c-0.005,0.055-0.008,0.107-0.008,0.158c0,0.292,0.083,0.563,0.217,0.801C12.399,56.292,12.928,56.633,13.542,56.633z"/>
		<path style="fill:#231F20;" d="M18.026,56.633c0.018,0,0.034-0.004,0.051-0.005c0.52-0.017,0.976-0.272,1.265-0.663
			c0.202-0.273,0.326-0.607,0.326-0.973c0-0.049-0.004-0.1-0.008-0.152c-0.002-0.012-0.002-0.021-0.004-0.033
			c-0.109-1.088-1.1-3.113-1.481-3.861c-0.062-0.123-0.237-0.123-0.299,0c-0.384,0.746-1.376,2.768-1.481,3.867
			c-0.002,0.008-0.002,0.016-0.002,0.021c-0.006,0.055-0.009,0.107-0.009,0.158C16.385,55.898,17.12,56.633,18.026,56.633z"/>
	</g>
</g>
<g id="Layer_1">
</g>
</svg>
