<?xml version="1.0" encoding="iso-8859-1"?>
<!-- Generator: Adobe Illustrator 16.0.0, SVG Export Plug-In . SVG Version: 6.00 Build 0)  -->
<!DOCTYPE svg PUBLIC "-//W3C//DTD SVG 1.1//EN" "http://www.w3.org/Graphics/SVG/1.1/DTD/svg11.dtd">
<svg version="1.1" xmlns="http://www.w3.org/2000/svg" xmlns:xlink="http://www.w3.org/1999/xlink" x="0px" y="0px"
	 width="29.931px" height="77.168px" viewBox="0 0 29.931 77.168" style="enable-background:new 0 0 29.931 77.168;"
	 xml:space="preserve">
<g id="DroneOnPawnOnPawnExpanded">
	<g>
		<path style="fill:#231F20;" d="M28.38,48.667L15.903,15.686c-0.147-0.39-0.52-0.646-0.936-0.646s-0.788,0.257-0.936,0.646
			L1.554,48.667c-0.116,0.307-0.074,0.652,0.113,0.922c0.187,0.271,0.494,0.432,0.822,0.432h6.889L4.67,61.809
			c-0.123,0.309-0.086,0.658,0.1,0.932c0.188,0.275,0.496,0.439,0.828,0.439H9.71L4.67,75.797c-0.123,0.309-0.086,0.658,0.1,0.932
			c0.188,0.275,0.496,0.439,0.828,0.439h18.739c0.332,0,0.641-0.164,0.828-0.439c0.186-0.273,0.223-0.623,0.1-0.932L20.224,63.18
			h4.113c0.332,0,0.641-0.164,0.828-0.439c0.186-0.273,0.223-0.623,0.1-0.932l-4.71-11.788h6.89c0.328,0,0.636-0.16,0.822-0.432
			C28.454,49.319,28.496,48.974,28.38,48.667z M22.86,75.168H7.075l4.79-11.988h6.207L22.86,75.168z M22.86,61.18h-3.436h-2.153
			h-4.608h-2.154H7.075l4.458-11.159h6.87L22.86,61.18z M19.756,48.021h-2.152h-5.271h-2.154H3.937l11.03-29.155l11.03,29.155
			H19.756z"/>
		<path style="fill:#231F20;" d="M11.163,44.545c-0.109-1.088-1.1-3.113-1.481-3.861c-0.062-0.123-0.235-0.123-0.299,0
			c-0.384,0.746-1.376,2.768-1.481,3.867c-0.002,0.008-0.002,0.016-0.003,0.021C7.893,44.627,7.89,44.68,7.89,44.73
			c0,0.906,0.735,1.64,1.642,1.64c0.907,0,1.643-0.733,1.643-1.64c0-0.049-0.003-0.1-0.008-0.152
			C11.165,44.566,11.165,44.557,11.163,44.545z"/>
		<path style="fill:#231F20;" d="M14.166,40.684c-0.062-0.123-0.237-0.123-0.299,0c-0.384,0.746-1.376,2.768-1.481,3.867
			c-0.002,0.008-0.002,0.016-0.002,0.021c-0.006,0.055-0.009,0.107-0.009,0.158c0,0.567,0.289,1.067,0.728,1.361
			c0.262,0.176,0.576,0.278,0.914,0.278c0.907,0,1.643-0.733,1.643-1.64c0-0.049-0.004-0.1-0.008-0.152
			c-0.002-0.012-0.002-0.021-0.004-0.033c-0.069-0.686-0.486-1.74-0.882-2.615C14.533,41.414,14.307,40.961,14.166,40.684z"/>
		<path style="fill:#231F20;" d="M14.872,59.529c0.605,0,1.129-0.331,1.414-0.818c0.143-0.242,0.229-0.521,0.229-0.822
			c0-0.049-0.004-0.1-0.01-0.152c0-0.012-0.002-0.021-0.002-0.033c-0.109-1.088-1.1-3.113-1.483-3.861
			c-0.063-0.123-0.236-0.123-0.299,0c-0.385,0.746-1.375,2.768-1.482,3.867c0,0.008-0.002,0.016-0.002,0.021
			c-0.004,0.055-0.008,0.107-0.008,0.158c0,0.379,0.133,0.723,0.349,1.001C13.878,59.276,14.343,59.529,14.872,59.529z"/>
		<path style="fill:#231F20;" d="M14.872,73.518c0.906,0,1.643-0.734,1.643-1.641c0-0.049-0.004-0.1-0.01-0.152
			c0-0.012-0.002-0.021-0.002-0.033c-0.109-1.088-1.1-3.113-1.483-3.861c-0.063-0.123-0.236-0.123-0.299,0
			c-0.385,0.746-1.375,2.768-1.482,3.867c0,0.008-0.002,0.016-0.002,0.021c-0.004,0.055-0.008,0.107-0.008,0.158
			C13.229,72.783,13.963,73.518,14.872,73.518z"/>
	</g>
</g>
<g id="Layer_1">
</g>
</svg>
