<?xml version="1.0" encoding="iso-8859-1"?>
<!-- Generator: Adobe Illustrator 16.0.0, SVG Export Plug-In . SVG Version: 6.00 Build 0)  -->
<!DOCTYPE svg PUBLIC "-//W3C//DTD SVG 1.1//EN" "http://www.w3.org/Graphics/SVG/1.1/DTD/svg11.dtd">
<svg version="1.1" xmlns="http://www.w3.org/2000/svg" xmlns:xlink="http://www.w3.org/1999/xlink" x="0px" y="0px"
	 width="29.931px" height="77.168px" viewBox="0 0 29.931 77.168" style="enable-background:new 0 0 29.931 77.168;"
	 xml:space="preserve">
<g id="DroneOnPawnOnDrone">
	<g>
		<path style="fill:#231F20;" d="M10.861,49.124c-0.024-0.236-0.095-0.521-0.187-0.826c-0.274-0.902-0.777-1.994-1.114-2.678
			c-0.069-0.141-0.133-0.268-0.184-0.367c-0.063-0.123-0.237-0.123-0.301,0c-0.384,0.748-1.379,2.775-1.485,3.879
			c-0.001,0.006-0.001,0.014-0.002,0.021C7.583,49.208,7.58,49.261,7.58,49.31c0,0.354,0.113,0.676,0.301,0.943
			c0.298,0.424,0.788,0.703,1.345,0.703c0.182,0,0.354-0.037,0.518-0.092c0.654-0.219,1.129-0.826,1.129-1.555
			c0-0.047-0.003-0.1-0.008-0.152C10.863,49.147,10.862,49.136,10.861,49.124z"/>
		<path style="fill:#231F20;" d="M20.342,54.542h7.135c0.322,0,0.623-0.158,0.807-0.422c0.182-0.266,0.225-0.604,0.109-0.904
			l-12.51-33.072c-0.145-0.381-0.51-0.633-0.918-0.633c-0.406,0-0.771,0.252-0.916,0.633L1.538,53.216
			c-0.114,0.301-0.072,0.639,0.111,0.904c0.183,0.264,0.484,0.422,0.806,0.422H9.59L1.552,75.79
			c-0.116,0.307-0.074,0.652,0.113,0.922c0.187,0.271,0.494,0.432,0.822,0.432h24.956c0.328,0,0.635-0.16,0.822-0.432
			c0.188-0.27,0.229-0.615,0.113-0.922L20.342,54.542z M7.036,52.583H3.873l11.092-29.324l11.094,29.324h-3.164l-7.008-19.325
			c-0.141-0.389-0.508-0.647-0.922-0.647c-0.412,0-0.78,0.259-0.92,0.647l-3.518,9.699h2.084l2.353-6.492l5.85,16.118h-1.214h-2.139
			h-4.991h-2.139H7.036z M3.935,75.144l7.794-20.602h6.474l7.793,20.602H3.935z"/>
		<path style="fill:#231F20;" d="M13.129,50.842c0.185,0.071,0.383,0.114,0.593,0.114c0.91,0,1.646-0.736,1.646-1.646
			c0-0.047-0.002-0.1-0.008-0.152c-0.002-0.01-0.002-0.021-0.004-0.033c-0.06-0.593-0.382-1.463-0.724-2.256
			c-0.286-0.663-0.586-1.274-0.761-1.615c-0.063-0.123-0.237-0.123-0.301,0c-0.384,0.748-1.38,2.775-1.486,3.879
			c-0.001,0.006-0.001,0.014-0.002,0.021c-0.004,0.055-0.007,0.107-0.007,0.156C12.077,50.01,12.515,50.604,13.129,50.842z"/>
		<path style="fill:#231F20;" d="M11.161,71.667c-0.109-1.088-1.1-3.113-1.481-3.861c-0.062-0.123-0.235-0.123-0.299,0
			c-0.384,0.746-1.376,2.768-1.481,3.867c-0.002,0.008-0.002,0.016-0.003,0.021c-0.005,0.055-0.008,0.107-0.008,0.158
			c0,0.906,0.735,1.641,1.642,1.641c0.907,0,1.643-0.734,1.643-1.641c0-0.049-0.003-0.1-0.008-0.152
			C11.163,71.688,11.163,71.679,11.161,71.667z"/>
		<path style="fill:#231F20;" d="M15.646,71.667c-0.109-1.088-1.1-3.113-1.482-3.861c-0.062-0.123-0.237-0.123-0.299,0
			c-0.384,0.746-1.376,2.768-1.481,3.867c-0.002,0.008-0.002,0.016-0.002,0.021c-0.006,0.055-0.009,0.107-0.009,0.158
			c0,0.906,0.735,1.641,1.642,1.641c0.907,0,1.644-0.734,1.644-1.641c0-0.049-0.004-0.1-0.008-0.152
			C15.648,71.688,15.648,71.679,15.646,71.667z"/>
	</g>
</g>
<g id="Layer_1">
</g>
</svg>
