<?xml version="1.0" encoding="iso-8859-1"?>
<!-- Generator: Adobe Illustrator 16.0.0, SVG Export Plug-In . SVG Version: 6.00 Build 0)  -->
<!DOCTYPE svg PUBLIC "-//W3C//DTD SVG 1.1//EN" "http://www.w3.org/Graphics/SVG/1.1/DTD/svg11.dtd">
<svg version="1.1" xmlns="http://www.w3.org/2000/svg" xmlns:xlink="http://www.w3.org/1999/xlink" x="0px" y="0px"
	 width="37.954px" height="77.169px" viewBox="0 0 37.954 77.169" style="enable-background:new 0 0 37.954 77.169;"
	 xml:space="preserve">
<g id="DroneOnQueenOnPawnExpanded">
	<g>
		<path style="fill:#231F20;" d="M36.398,64.932l-6.281-14.908h1.329c0.328,0,0.636-0.161,0.822-0.432
			c0.188-0.271,0.229-0.615,0.113-0.922L19.905,15.687c-0.147-0.39-0.52-0.646-0.936-0.646s-0.788,0.257-0.936,0.646L5.557,48.67
			c-0.116,0.307-0.074,0.651,0.113,0.922c0.187,0.271,0.494,0.432,0.822,0.432h1.344L1.555,64.932
			c-0.13,0.311-0.097,0.662,0.089,0.941s0.498,0.447,0.833,0.447h9.978l-3.782,9.468c-0.123,0.309-0.085,0.657,0.101,0.932
			c0.187,0.275,0.496,0.439,0.828,0.439h18.737c0.332,0,0.642-0.164,0.828-0.439c0.186-0.274,0.224-0.623,0.101-0.932l-3.782-9.468
			h9.992c0.335,0,0.647-0.168,0.833-0.447S36.528,65.242,36.398,64.932z M7.939,48.023l11.03-29.157l11.029,29.157h-0.725h-2.171
			H10.85H8.679H7.939z M26.861,75.159H11.077l3.531-8.839h8.722L26.861,75.159z M24.686,64.32h-2.154h-7.125h-2.154h-9.27
			l6.024-14.297h17.939L33.97,64.32H24.686z"/>
		<path style="fill:#231F20;" d="M11.195,60.844c-0.11-1.088-1.101-3.113-1.482-3.863c-0.062-0.121-0.237-0.121-0.299,0
			c-0.384,0.748-1.376,2.77-1.481,3.869c-0.002,0.006-0.002,0.016-0.002,0.021c-0.006,0.055-0.008,0.107-0.008,0.156
			c0,0.908,0.734,1.643,1.641,1.643c0.908,0,1.643-0.734,1.643-1.643c0-0.047-0.003-0.098-0.008-0.15
			C11.197,60.865,11.196,60.854,11.195,60.844z"/>
		<path style="fill:#231F20;" d="M20.163,60.844c-0.109-1.088-1.1-3.113-1.481-3.863c-0.062-0.121-0.236-0.121-0.3,0
			c-0.059,0.115-0.135,0.267-0.217,0.434c-0.379,0.771-0.945,2.006-1.172,2.936c-0.044,0.18-0.078,0.35-0.092,0.5
			c-0.001,0.006-0.001,0.016-0.002,0.021c-0.005,0.055-0.008,0.107-0.008,0.156c0,0.908,0.735,1.643,1.642,1.643
			c0.907,0,1.643-0.734,1.643-1.643c0-0.047-0.004-0.098-0.008-0.15C20.165,60.865,20.165,60.854,20.163,60.844z"/>
		<path style="fill:#231F20;" d="M13.534,46.373c0.907,0,1.643-0.734,1.643-1.642c0-0.048-0.003-0.099-0.008-0.152
			c-0.002-0.011-0.002-0.021-0.004-0.033c-0.098-0.974-0.9-2.694-1.341-3.581c-0.051-0.104-0.101-0.202-0.141-0.28
			c-0.062-0.122-0.235-0.122-0.299,0c-0.384,0.747-1.376,2.768-1.481,3.868c-0.002,0.007-0.002,0.015-0.003,0.021
			c-0.005,0.054-0.008,0.107-0.008,0.157c0,0.2,0.041,0.389,0.106,0.565C12.23,45.924,12.827,46.373,13.534,46.373z"/>
		<path style="fill:#231F20;" d="M18.019,46.373c0.907,0,1.643-0.734,1.643-1.642c0-0.048-0.004-0.099-0.008-0.152
			c-0.002-0.011-0.002-0.021-0.004-0.033c-0.109-1.087-1.1-3.112-1.481-3.861c-0.062-0.122-0.237-0.122-0.299,0
			c-0.384,0.747-1.376,2.768-1.481,3.868c-0.002,0.007-0.002,0.015-0.002,0.021c-0.006,0.054-0.009,0.107-0.009,0.157
			C16.377,45.639,17.112,46.373,18.019,46.373z"/>
		<path style="fill:#231F20;" d="M15.679,60.844c-0.042-0.414-0.212-0.965-0.427-1.528c-0.349-0.917-0.818-1.87-1.055-2.335
			c-0.062-0.121-0.235-0.121-0.299,0c-0.384,0.748-1.376,2.77-1.481,3.869c-0.002,0.006-0.002,0.016-0.002,0.021
			c-0.006,0.055-0.009,0.107-0.009,0.156c0,0.863,0.667,1.562,1.511,1.63c0.043,0.003,0.085,0.013,0.13,0.013
			c0.907,0,1.643-0.734,1.643-1.643c0-0.047-0.003-0.098-0.008-0.15C15.681,60.865,15.681,60.854,15.679,60.844z"/>
		<path style="fill:#231F20;" d="M18.874,73.509c0.906,0,1.642-0.734,1.642-1.642c0-0.048-0.004-0.099-0.009-0.152
			c0-0.011-0.002-0.021-0.002-0.033c-0.11-1.087-1.101-3.112-1.482-3.861c-0.063-0.122-0.236-0.122-0.299,0
			c-0.385,0.747-1.376,2.768-1.482,3.868c-0.001,0.007-0.002,0.015-0.002,0.021c-0.005,0.054-0.008,0.107-0.008,0.157
			C17.231,72.774,17.966,73.509,18.874,73.509z"/>
	</g>
</g>
<g id="Layer_1">
</g>
</svg>
