<?xml version="1.0" encoding="iso-8859-1"?>
<!-- Generator: Adobe Illustrator 16.0.0, SVG Export Plug-In . SVG Version: 6.00 Build 0)  -->
<!DOCTYPE svg PUBLIC "-//W3C//DTD SVG 1.1//EN" "http://www.w3.org/Graphics/SVG/1.1/DTD/svg11.dtd">
<svg version="1.1" xmlns="http://www.w3.org/2000/svg" xmlns:xlink="http://www.w3.org/1999/xlink" x="0px" y="0px"
	 width="37.954px" height="77.169px" viewBox="0 0 37.954 77.169" style="enable-background:new 0 0 37.954 77.169;"
	 xml:space="preserve">
<g id="DroneOnQueenOnDroneExpanded">
	<g>
		<path style="fill:#231F20;" d="M36.398,65.296l-6.436-15.272h1.491c0.328,0,0.636-0.161,0.822-0.432
			c0.188-0.271,0.229-0.615,0.113-0.922L19.913,15.687c-0.147-0.39-0.52-0.646-0.936-0.646s-0.788,0.257-0.936,0.646L5.564,48.67
			c-0.116,0.307-0.074,0.651,0.113,0.922c0.187,0.271,0.494,0.432,0.822,0.432h1.49L1.555,65.296
			c-0.13,0.311-0.097,0.662,0.089,0.941s0.498,0.447,0.833,0.447h6.531l-3.451,9.121c-0.116,0.307-0.074,0.651,0.113,0.922
			c0.187,0.271,0.494,0.432,0.822,0.432h24.954c0.328,0,0.636-0.161,0.822-0.432c0.188-0.271,0.229-0.615,0.113-0.922l-3.45-9.121
			h6.545c0.335,0,0.647-0.168,0.833-0.447S36.528,65.606,36.398,65.296z M7.947,48.023l11.03-29.157l11.029,29.157H29.12h-2.17
			h-5.077h-2.139h-1.529h-2.139h-5.063H8.833H7.947z M29.999,75.159H7.939l3.206-8.475h15.647L29.999,75.159z M28.175,64.685h-2.138
			H11.902H9.764h-5.78l6.177-14.661h5.149h2.138h3.043h2.138h5.163l6.178,14.661H28.175z"/>
		<path style="fill:#231F20;" d="M15.679,61.208c-0.089-0.884-0.755-2.377-1.208-3.312c-0.104-0.216-0.202-0.411-0.273-0.552
			c-0.062-0.121-0.235-0.121-0.299,0c-0.384,0.748-1.376,2.77-1.481,3.869c-0.002,0.006-0.002,0.016-0.002,0.021
			c-0.006,0.055-0.009,0.107-0.009,0.156c0,0.385,0.137,0.733,0.358,1.013c0.301,0.381,0.761,0.63,1.283,0.63
			c0.907,0,1.643-0.734,1.643-1.643c0-0.047-0.003-0.098-0.008-0.15C15.681,61.229,15.681,61.218,15.679,61.208z"/>
		<path style="fill:#231F20;" d="M20.163,61.208c-0.109-1.088-1.1-3.113-1.481-3.863c-0.062-0.121-0.236-0.121-0.3,0
			c-0.383,0.748-1.375,2.77-1.481,3.869c-0.001,0.006-0.001,0.016-0.002,0.021c-0.005,0.055-0.008,0.107-0.008,0.156
			c0,0.908,0.735,1.643,1.642,1.643c0.907,0,1.643-0.734,1.643-1.643c0-0.047-0.004-0.098-0.008-0.15
			C20.165,61.229,20.165,61.218,20.163,61.208z"/>
		<path style="fill:#231F20;" d="M11.195,61.208c-0.006-0.063-0.025-0.14-0.037-0.209c-0.196-1.121-1.086-2.948-1.445-3.654
			c-0.062-0.121-0.237-0.121-0.299,0c-0.384,0.748-1.376,2.77-1.481,3.869c-0.002,0.006-0.002,0.016-0.002,0.021
			c-0.006,0.055-0.008,0.107-0.008,0.156c0,0.908,0.734,1.643,1.641,1.643c0.349,0,0.67-0.109,0.936-0.295
			c0.426-0.296,0.707-0.788,0.707-1.348c0-0.047-0.003-0.098-0.008-0.15C11.197,61.229,11.196,61.218,11.195,61.208z"/>
		<path style="fill:#231F20;" d="M13.534,73.509c0.907,0,1.643-0.734,1.643-1.642c0-0.048-0.003-0.099-0.008-0.152
			c-0.002-0.011-0.002-0.021-0.004-0.033c-0.109-1.087-1.1-3.112-1.481-3.861c-0.062-0.122-0.235-0.122-0.299,0
			c-0.384,0.747-1.376,2.768-1.481,3.868c-0.002,0.007-0.002,0.015-0.003,0.021c-0.005,0.054-0.008,0.107-0.008,0.157
			C11.893,72.774,12.628,73.509,13.534,73.509z"/>
		<path style="fill:#231F20;" d="M18.019,73.509c0.907,0,1.643-0.734,1.643-1.642c0-0.048-0.004-0.099-0.008-0.152
			c-0.002-0.011-0.002-0.021-0.004-0.033c-0.109-1.087-1.1-3.112-1.481-3.861c-0.062-0.122-0.237-0.122-0.299,0
			c-0.384,0.747-1.376,2.768-1.481,3.868c-0.002,0.007-0.002,0.015-0.002,0.021c-0.006,0.054-0.009,0.107-0.009,0.157
			C16.377,72.774,17.112,73.509,18.019,73.509z"/>
		<path style="fill:#231F20;" d="M13.542,46.373c0.907,0,1.643-0.734,1.643-1.642c0-0.048-0.003-0.099-0.008-0.152
			c-0.002-0.011-0.002-0.021-0.004-0.033c-0.092-0.919-0.811-2.499-1.263-3.422c-0.083-0.169-0.16-0.323-0.219-0.439
			c-0.062-0.122-0.235-0.122-0.299,0c-0.384,0.747-1.376,2.768-1.481,3.868c-0.002,0.007-0.002,0.015-0.003,0.021
			c-0.005,0.054-0.008,0.107-0.008,0.157c0,0.266,0.069,0.513,0.181,0.734C12.352,46.002,12.901,46.373,13.542,46.373z"/>
		<path style="fill:#231F20;" d="M18.026,46.373c0.335,0,0.646-0.102,0.907-0.273c0.02-0.014,0.038-0.029,0.057-0.044
			c0.409-0.298,0.679-0.778,0.679-1.324c0-0.048-0.004-0.099-0.008-0.152c-0.002-0.011-0.002-0.021-0.004-0.033
			c-0.063-0.619-0.411-1.539-0.77-2.357c-0.271-0.619-0.547-1.182-0.712-1.504c-0.062-0.122-0.237-0.122-0.299,0
			c-0.384,0.747-1.376,2.768-1.481,3.868c-0.002,0.007-0.002,0.015-0.002,0.021c-0.006,0.054-0.009,0.107-0.009,0.157
			c0,0.456,0.187,0.868,0.486,1.165C17.168,46.191,17.576,46.373,18.026,46.373z"/>
	</g>
</g>
<g id="Layer_1">
</g>
</svg>
