<?xml version="1.0" encoding="iso-8859-1"?>
<!-- Generator: Adobe Illustrator 16.0.0, SVG Export Plug-In . SVG Version: 6.00 Build 0)  -->
<!DOCTYPE svg PUBLIC "-//W3C//DTD SVG 1.1//EN" "http://www.w3.org/Graphics/SVG/1.1/DTD/svg11.dtd">
<svg version="1.1" xmlns="http://www.w3.org/2000/svg" xmlns:xlink="http://www.w3.org/1999/xlink" x="0px" y="0px"
	 width="37.954px" height="77.169px" viewBox="0 0 37.954 77.169" style="enable-background:new 0 0 37.954 77.169;"
	 xml:space="preserve">
<g id="NestExpanded">
	<g>
		<path style="fill:#231F20;" d="M36.398,54.816l-16.5-39.16c-0.156-0.371-0.519-0.612-0.921-0.612
			c-0.402,0-0.766,0.241-0.922,0.612l-16.5,39.16c-0.13,0.311-0.097,0.662,0.089,0.941s0.498,0.447,0.833,0.447h6.921l-3.39,8.959
			c-0.116,0.307-0.074,0.652,0.113,0.922c0.187,0.271,0.494,0.432,0.822,0.432h5.877l-3.705,9.275
			c-0.123,0.309-0.085,0.657,0.101,0.932c0.187,0.275,0.496,0.439,0.828,0.439h18.737c0.332,0,0.642-0.164,0.828-0.439
			c0.186-0.274,0.224-0.623,0.101-0.932l-3.705-9.275h5.893c0.328,0,0.635-0.16,0.822-0.432c0.188-0.27,0.229-0.615,0.113-0.922
			l-3.389-8.959h6.031c0.336,0,0.648-0.168,0.834-0.447S36.529,55.127,36.398,54.816z M27.306,75.164H11.521l3.454-8.646h8.876
			L27.306,75.164z M30.451,64.518h-5.245h-2.153h-7.279H13.62H8.392l3.145-8.313h5.404h2.154h0.637h2.154h5.421L30.451,64.518z
			 M28.688,54.205H26.55h-5.464H17.74h-5.447h-2.138H3.984L18.977,18.62l14.994,35.585H28.688z"/>
		<path style="fill:#231F20;" d="M11.196,50.729c-0.11-1.088-1.101-3.113-1.482-3.863c-0.062-0.121-0.237-0.121-0.299,0
			c-0.384,0.748-1.376,2.77-1.481,3.869c-0.002,0.006-0.002,0.016-0.002,0.021c-0.006,0.055-0.008,0.107-0.008,0.156
			c0,0.908,0.734,1.643,1.641,1.643c0.908,0,1.643-0.734,1.643-1.643c0-0.047-0.003-0.098-0.008-0.15
			C11.198,50.75,11.197,50.738,11.196,50.729z"/>
		<path style="fill:#231F20;" d="M15.679,50.729c-0.075-0.75-0.567-1.938-0.992-2.854c-0.191-0.413-0.371-0.777-0.49-1.01
			c-0.062-0.121-0.235-0.121-0.299,0c-0.384,0.748-1.376,2.77-1.481,3.869c-0.002,0.006-0.002,0.016-0.002,0.021
			c-0.006,0.055-0.009,0.107-0.009,0.156c0,0.529,0.254,0.994,0.642,1.295c0.278,0.215,0.622,0.348,1,0.348
			c0.907,0,1.643-0.734,1.643-1.643c0-0.047-0.003-0.098-0.008-0.15C15.681,50.75,15.681,50.738,15.679,50.729z"/>
		<path style="fill:#231F20;" d="M18.382,46.865c-0.383,0.748-1.375,2.77-1.481,3.869C16.9,50.74,16.9,50.75,16.899,50.756
			c-0.005,0.055-0.008,0.107-0.008,0.156c0,0.863,0.668,1.563,1.513,1.629c0.043,0.004,0.084,0.014,0.128,0.014
			c0.562,0,1.057-0.283,1.353-0.713c0.183-0.265,0.29-0.584,0.29-0.93c0-0.047-0.004-0.098-0.008-0.15
			c-0.002-0.012-0.002-0.023-0.004-0.033c-0.109-1.088-1.1-3.113-1.482-3.863C18.621,46.744,18.446,46.744,18.382,46.865z"/>
		<path style="fill:#231F20;" d="M20.102,61.041c-0.105-1.05-1.026-2.961-1.434-3.768c-0.015-0.029-0.034-0.068-0.047-0.094
			c-0.062-0.123-0.237-0.123-0.299,0c-0.384,0.746-1.376,2.768-1.481,3.867c-0.002,0.008-0.002,0.016-0.002,0.021
			c-0.006,0.055-0.009,0.107-0.009,0.158c0,0.162,0.031,0.315,0.075,0.463c0.201,0.68,0.823,1.178,1.567,1.178
			c0.907,0,1.643-0.734,1.643-1.641c0-0.049-0.004-0.1-0.008-0.152C20.104,61.063,20.104,61.053,20.102,61.041z"/>
		<path style="fill:#231F20;" d="M15.617,61.041c-0.027-0.272-0.11-0.604-0.225-0.96c-0.343-1.063-0.971-2.341-1.257-2.901
			c-0.062-0.123-0.235-0.123-0.299,0c-0.384,0.746-1.376,2.768-1.481,3.867c-0.002,0.008-0.002,0.016-0.003,0.021
			c-0.005,0.055-0.008,0.107-0.008,0.158c0,0.906,0.735,1.641,1.642,1.641c0.104,0,0.206-0.012,0.306-0.031
			c0.761-0.143,1.337-0.808,1.337-1.609c0-0.049-0.003-0.1-0.008-0.152C15.619,61.063,15.619,61.053,15.617,61.041z"/>
		<path style="fill:#231F20;" d="M19.318,73.514c0.906,0,1.642-0.734,1.642-1.642c0-0.048-0.004-0.099-0.009-0.152
			c0-0.011-0.002-0.021-0.002-0.033c-0.11-1.087-1.101-3.112-1.482-3.861c-0.063-0.122-0.236-0.122-0.299,0
			c-0.385,0.747-1.376,2.768-1.482,3.868c-0.001,0.007-0.002,0.015-0.002,0.021c-0.005,0.054-0.008,0.107-0.008,0.157
			C17.676,72.779,18.41,73.514,19.318,73.514z"/>
	</g>
</g>
<g id="Layer_1">
</g>
</svg>
