<?xml version="1.0" encoding="iso-8859-1"?>
<!-- Generator: Adobe Illustrator 16.0.0, SVG Export Plug-In . SVG Version: 6.00 Build 0)  -->
<!DOCTYPE svg PUBLIC "-//W3C//DTD SVG 1.1//EN" "http://www.w3.org/Graphics/SVG/1.1/DTD/svg11.dtd">
<svg version="1.1" xmlns="http://www.w3.org/2000/svg" xmlns:xlink="http://www.w3.org/1999/xlink" x="0px" y="0px"
	 width="37.954px" height="77.169px" viewBox="0 0 37.954 77.169" style="enable-background:new 0 0 37.954 77.169;"
	 xml:space="preserve">
<g id="Nest">
	<g>
		<path style="fill:#231F20;" d="M36.326,75.813L25.075,49.109l-4.225-10.025l-1.008-2.393c-0.152-0.361-0.507-0.597-0.9-0.597
			c-0.392,0-0.747,0.235-0.899,0.597l-1.008,2.393l-4.224,10.025L1.56,75.813c-0.127,0.301-0.095,0.646,0.086,0.919
			c0.181,0.272,0.486,0.437,0.813,0.437h4.02h24.929h4.018c0.328,0,0.634-0.164,0.814-0.437
			C36.422,76.46,36.454,76.114,36.326,75.813z M32.054,75.217L20.946,49.109l-1.104-2.598c-0.153-0.36-0.507-0.594-0.899-0.594
			c-0.391,0-0.745,0.233-0.898,0.594l-1.105,2.598L9.88,65.702h2.122l6.94-16.313l10.988,25.828h-2.068L19.9,56.537
			c-0.154-0.361-0.508-0.594-0.898-0.594c-0.391,0-0.745,0.232-0.898,0.594l-3.907,9.165h2.123l2.683-6.292l6.736,15.805H12.265
			l0.004-0.01h-2.123l-0.005,0.012H7.955l0.005-0.012H5.838l-0.005,0.012H3.93l11-26.107l4.013-9.524l4.013,9.524l11,26.107H32.054z
			"/>
		<path style="fill:#231F20;" d="M9.39,67.86c-0.382,0.748-1.375,2.767-1.48,3.865c-0.001,0.008-0.001,0.013-0.002,0.021
			C7.903,71.802,7.9,71.855,7.9,71.904c0,0.62,0.348,1.152,0.855,1.431c0.234,0.129,0.499,0.209,0.785,0.209
			c0.906,0,1.64-0.733,1.64-1.64c0-0.048-0.003-0.099-0.007-0.152c-0.001-0.012-0.002-0.021-0.003-0.032
			c-0.062-0.606-0.396-1.501-0.747-2.306c-0.277-0.637-0.564-1.222-0.733-1.552C9.627,67.738,9.453,67.738,9.39,67.86z"/>
		<path style="fill:#231F20;" d="M13.098,73.26c0.263,0.18,0.58,0.284,0.922,0.284c0.905,0,1.64-0.733,1.64-1.64
			c0-0.048-0.003-0.099-0.008-0.152c-0.001-0.012-0.002-0.021-0.003-0.032c-0.066-0.654-0.451-1.646-0.83-2.496
			c-0.25-0.563-0.498-1.063-0.65-1.361c-0.063-0.124-0.236-0.124-0.3-0.002c-0.382,0.748-1.374,2.767-1.479,3.865
			c-0.001,0.008-0.002,0.013-0.002,0.021c-0.005,0.056-0.008,0.109-0.008,0.158C12.379,72.469,12.665,72.965,13.098,73.26z"/>
		<path style="fill:#231F20;" d="M18.499,73.544c0.906,0,1.641-0.733,1.641-1.64c0-0.048-0.003-0.099-0.009-0.152
			c-0.001-0.012-0.002-0.021-0.003-0.032c-0.109-1.087-1.098-3.11-1.479-3.857c-0.063-0.124-0.237-0.124-0.3-0.002
			c-0.383,0.748-1.375,2.767-1.48,3.865c0,0.008,0,0.013-0.001,0.021c-0.005,0.056-0.008,0.109-0.008,0.158
			C16.859,72.811,17.593,73.544,18.499,73.544z"/>
	</g>
</g>
<g id="Layer_1">
</g>
</svg>
