<?xml version="1.0" encoding="iso-8859-1"?>
<!-- Generator: Adobe Illustrator 16.0.0, SVG Export Plug-In . SVG Version: 6.00 Build 0)  -->
<!DOCTYPE svg PUBLIC "-//W3C//DTD SVG 1.1//EN" "http://www.w3.org/Graphics/SVG/1.1/DTD/svg11.dtd">
<svg version="1.1" xmlns="http://www.w3.org/2000/svg" xmlns:xlink="http://www.w3.org/1999/xlink" x="0px" y="0px"
	 width="37.954px" height="77.169px" viewBox="0 0 37.954 77.169" style="enable-background:new 0 0 37.954 77.169;"
	 xml:space="preserve">
<g id="PawnOnQueen">
	<g id="PawnOnQueen_1_">
		<path style="fill:#231F20;" d="M7.874,71.72c0-0.006,0-0.016,0.002-0.021c0.105-1.1,1.098-3.121,1.481-3.869
			c0.062-0.121,0.237-0.121,0.3,0c0.381,0.75,1.371,2.775,1.481,3.863c0.001,0.01,0.002,0.021,0.003,0.033
			c0.005,0.053,0.008,0.104,0.008,0.152c0,0.906-0.734,1.641-1.643,1.641c-0.906,0-1.641-0.734-1.641-1.641
			C7.866,71.827,7.868,71.774,7.874,71.72"/>
		<path style="fill:#231F20;" d="M12.357,71.72c0.001-0.006,0.001-0.016,0.003-0.021c0.105-1.1,1.098-3.121,1.481-3.869
			c0.063-0.121,0.237-0.121,0.299,0c0.382,0.75,1.372,2.775,1.481,3.863c0.002,0.01,0.002,0.021,0.004,0.033
			c0.005,0.053,0.008,0.104,0.008,0.152c0,0.906-0.735,1.641-1.643,1.641c-0.906,0-1.642-0.734-1.642-1.641
			C12.35,71.827,12.353,71.774,12.357,71.72"/>
		<path style="fill:#231F20;" d="M16.842,71.72c0.001-0.006,0.001-0.016,0.002-0.021c0.106-1.1,1.099-3.121,1.481-3.869
			c0.063-0.121,0.238-0.121,0.3,0c0.382,0.75,1.372,2.775,1.481,3.863c0.002,0.01,0.002,0.021,0.004,0.033
			c0.004,0.053,0.008,0.104,0.008,0.152c0,0.906-0.735,1.641-1.643,1.641c-0.906,0-1.642-0.734-1.642-1.641
			C16.834,71.827,16.837,71.774,16.842,71.72"/>
		<g>
			<path style="fill:#231F20;" d="M36.343,75.78l-9.563-22.696h1.51c0.332,0,0.642-0.164,0.828-0.439
				c0.186-0.273,0.224-0.623,0.101-0.932l-9.369-23.452c-0.151-0.38-0.52-0.629-0.929-0.629s-0.777,0.249-0.929,0.629L8.623,51.713
				c-0.123,0.309-0.085,0.658,0.101,0.932c0.187,0.275,0.496,0.439,0.828,0.439h1.511L1.499,75.78
				c-0.13,0.311-0.097,0.662,0.089,0.941s0.498,0.447,0.833,0.447h33c0.335,0,0.647-0.168,0.833-0.447S36.473,76.091,36.343,75.78z
				 M11.028,51.084l7.892-19.756l7.893,19.756h-0.875h-2.171h-9.691h-2.171H11.028z M3.928,75.169l9.305-22.085h11.377l9.305,22.085
				H3.928z"/>
		</g>
		<path style="fill:#231F20;" d="M17.19,47.635c0-0.008,0.001-0.016,0.002-0.021c0.106-1.1,1.098-3.121,1.482-3.869
			c0.063-0.121,0.236-0.121,0.299,0c0.382,0.75,1.372,2.775,1.482,3.863c0,0.01,0.002,0.021,0.002,0.033
			c0.004,0.053,0.009,0.104,0.009,0.15c0,0.908-0.735,1.643-1.642,1.643c-0.908,0-1.643-0.734-1.643-1.643
			C17.183,47.742,17.186,47.689,17.19,47.635"/>
	</g>
</g>
<g id="Layer_1">
</g>
</svg>
