<?xml version="1.0" encoding="iso-8859-1"?>
<!-- Generator: Adobe Illustrator 16.0.0, SVG Export Plug-In . SVG Version: 6.00 Build 0)  -->
<!DOCTYPE svg PUBLIC "-//W3C//DTD SVG 1.1//EN" "http://www.w3.org/Graphics/SVG/1.1/DTD/svg11.dtd">
<svg version="1.1" xmlns="http://www.w3.org/2000/svg" xmlns:xlink="http://www.w3.org/1999/xlink" x="0px" y="0px"
	 width="29.931px" height="77.168px" viewBox="0 0 29.931 77.168" style="enable-background:new 0 0 29.931 77.168;"
	 xml:space="preserve">
<g id="PawnOnDroneOnDrone">
	<g>
		<path style="fill:#231F20;" d="M12.374,61.39c0,0.908,0.734,1.643,1.643,1.643c0.906,0,1.641-0.734,1.641-1.643
			c0-0.024-0.003-0.052-0.004-0.078c0-0.014,0.004-0.026,0.004-0.04c0-0.049-0.004-0.1-0.008-0.152
			c-0.002-0.012-0.002-0.021-0.004-0.033c-0.109-1.088-1.1-3.113-1.481-3.861c-0.062-0.123-0.237-0.123-0.299,0
			c-0.384,0.746-1.376,2.768-1.481,3.867c-0.002,0.008-0.002,0.016-0.002,0.021c-0.006,0.055-0.009,0.107-0.009,0.158
			c0,0.015,0.004,0.028,0.004,0.042C12.376,61.339,12.374,61.366,12.374,61.39z"/>
		<path style="fill:#231F20;" d="M14.871,47.325c0.906,0,1.643-0.735,1.643-1.643c0-0.048-0.004-0.1-0.008-0.152
			c-0.002-0.011-0.002-0.021-0.004-0.033c-0.109-1.086-1.1-3.112-1.483-3.861c-0.061-0.122-0.236-0.122-0.299,0
			c-0.383,0.747-1.375,2.768-1.481,3.868c-0.002,0.007-0.003,0.015-0.003,0.022c-0.005,0.055-0.008,0.106-0.008,0.156
			C13.229,46.59,13.964,47.325,14.871,47.325z"/>
		<path style="fill:#231F20;" d="M28.379,76.086l-3.557-9.403h2.621c0.329,0,0.637-0.16,0.823-0.432
			c0.141-0.203,0.199-0.449,0.17-0.688c0-0.12-0.015-0.239-0.058-0.354l-5.384-14.233h1.341c0.331,0,0.642-0.166,0.828-0.439
			c0.186-0.275,0.223-0.625,0.1-0.932l-9.37-23.453c-0.151-0.38-0.52-0.629-0.928-0.629c-0.409,0-0.777,0.249-0.93,0.629
			L4.668,49.604c-0.123,0.307-0.085,0.656,0.101,0.932c0.186,0.273,0.497,0.439,0.828,0.439h1.341L1.553,65.209
			c-0.058,0.154-0.077,0.317-0.057,0.477c0,0.199,0.054,0.397,0.17,0.565c0.187,0.271,0.494,0.432,0.823,0.432H5.11l-3.557,9.403
			c-0.116,0.307-0.074,0.652,0.113,0.922c0.187,0.271,0.494,0.432,0.822,0.432h24.955c0.328,0,0.636-0.16,0.822-0.432
			C28.453,76.738,28.495,76.393,28.379,76.086z M25.95,64.563H24.02h-2.138H8.05H5.913H3.982l5.14-13.587h11.689L25.95,64.563z
			 M7.073,48.976l7.893-19.757l7.893,19.757h-0.621h-0.045H20.1h-0.045H9.878H9.833H7.74H7.694H7.073z M3.936,75.439l3.313-8.757
			h15.435l3.313,8.757H3.936z"/>
		<path style="fill:#231F20;" d="M7.897,61.113c-0.005,0.055-0.008,0.107-0.008,0.158c0,0.012,0.004,0.021,0.005,0.033
			C7.892,61.333,7.89,61.363,7.89,61.39c0,0.908,0.734,1.643,1.643,1.643c0.906,0,1.642-0.734,1.642-1.643
			c0-0.024-0.003-0.052-0.004-0.078c0-0.014,0.004-0.026,0.004-0.04c0-0.049-0.003-0.1-0.008-0.152
			c-0.002-0.012-0.002-0.021-0.004-0.033c-0.066-0.66-0.459-1.666-0.842-2.523c-0.246-0.553-0.49-1.045-0.64-1.338
			c-0.062-0.123-0.235-0.123-0.299,0c-0.384,0.746-1.376,2.768-1.481,3.867C7.898,61.1,7.898,61.107,7.897,61.113z"/>
		<path style="fill:#231F20;" d="M11.162,71.963c-0.109-1.088-1.1-3.113-1.481-3.861c-0.062-0.123-0.235-0.123-0.299,0
			c-0.384,0.746-1.376,2.768-1.481,3.867c-0.002,0.008-0.002,0.016-0.003,0.021c-0.005,0.055-0.008,0.107-0.008,0.158
			c0,0.906,0.735,1.641,1.642,1.641c0.907,0,1.643-0.734,1.643-1.641c0-0.049-0.003-0.1-0.008-0.152
			C11.164,71.984,11.164,71.975,11.162,71.963z"/>
		<path style="fill:#231F20;" d="M15.646,71.963c-0.109-1.088-1.1-3.113-1.481-3.861c-0.062-0.123-0.237-0.123-0.299,0
			c-0.384,0.746-1.376,2.768-1.481,3.867c-0.002,0.008-0.002,0.016-0.002,0.021c-0.006,0.055-0.009,0.107-0.009,0.158
			c0,0.906,0.735,1.641,1.642,1.641c0.907,0,1.643-0.734,1.643-1.641c0-0.049-0.004-0.1-0.008-0.152
			C15.648,71.984,15.648,71.975,15.646,71.963z"/>
	</g>
</g>
<g id="Layer_1">
</g>
</svg>
