<?xml version="1.0" encoding="iso-8859-1"?>
<!-- Generator: Adobe Illustrator 16.0.0, SVG Export Plug-In . SVG Version: 6.00 Build 0)  -->
<!DOCTYPE svg PUBLIC "-//W3C//DTD SVG 1.1//EN" "http://www.w3.org/Graphics/SVG/1.1/DTD/svg11.dtd">
<svg version="1.1" xmlns="http://www.w3.org/2000/svg" xmlns:xlink="http://www.w3.org/1999/xlink" x="0px" y="0px"
	 width="37.954px" height="77.169px" viewBox="0 0 37.954 77.169" style="enable-background:new 0 0 37.954 77.169;"
	 xml:space="preserve">
<g id="PawnOnQueenOnDroneExpanded">
	<g>
		<path style="fill:#231F20;" d="M13.446,73.509c0.907,0,1.643-0.734,1.643-1.642c0-0.048-0.003-0.099-0.008-0.152
			c-0.002-0.011-0.002-0.021-0.004-0.033c-0.109-1.087-1.1-3.112-1.481-3.861c-0.062-0.122-0.235-0.122-0.299,0
			c-0.384,0.747-1.376,2.768-1.481,3.868c-0.002,0.007-0.002,0.015-0.003,0.021c-0.005,0.054-0.008,0.107-0.008,0.157
			C11.805,72.774,12.54,73.509,13.446,73.509z"/>
		<path style="fill:#231F20;" d="M17.931,73.509c0.907,0,1.643-0.734,1.643-1.642c0-0.048-0.004-0.099-0.008-0.152
			c-0.002-0.011-0.002-0.021-0.004-0.033c-0.109-1.087-1.1-3.112-1.481-3.861c-0.062-0.122-0.237-0.122-0.299,0
			c-0.384,0.747-1.376,2.768-1.481,3.868c-0.002,0.007-0.002,0.015-0.002,0.021c-0.006,0.054-0.009,0.107-0.009,0.157
			C16.289,72.774,17.024,73.509,17.931,73.509z"/>
		<path style="fill:#231F20;" d="M36.398,64.589L26.245,40.492h2.101c0.332,0,0.642-0.164,0.828-0.439
			c0.186-0.274,0.224-0.623,0.101-0.932l-9.369-23.452c-0.151-0.38-0.52-0.629-0.929-0.629s-0.777,0.249-0.929,0.629L8.68,39.121
			c-0.123,0.309-0.085,0.657,0.101,0.932c0.187,0.275,0.496,0.439,0.828,0.439h2.1L1.555,64.589
			c-0.13,0.311-0.097,0.662,0.089,0.941s0.498,0.447,0.833,0.447h6.71l-3.718,9.828c-0.116,0.307-0.074,0.651,0.113,0.922
			c0.187,0.271,0.494,0.432,0.822,0.432h24.954c0.328,0,0.636-0.161,0.822-0.432c0.188-0.271,0.229-0.615,0.113-0.922l-3.718-9.828
			h6.9c0.335,0,0.647-0.168,0.833-0.447S36.528,64.899,36.398,64.589z M11.085,38.492l7.892-19.757l7.893,19.757h-1.467h-2.171
			h-8.51h-2.17H11.085z M29.911,75.159H7.852l3.474-9.182h15.113L29.911,75.159z M27.819,63.978h-2.138h-13.6H9.943h-5.96
			l9.896-23.485h10.195l9.896,23.485H27.819z"/>
		<path style="fill:#231F20;" d="M11.198,60.534c-0.001-0.012-0.002-0.023-0.003-0.033c-0.11-1.088-1.101-3.113-1.482-3.863
			c-0.062-0.121-0.237-0.121-0.299,0c-0.384,0.748-1.376,2.77-1.481,3.869c-0.002,0.006-0.002,0.016-0.002,0.021
			c-0.006,0.055-0.008,0.107-0.008,0.156c0,0.908,0.734,1.643,1.641,1.643c0.479,0,0.906-0.208,1.207-0.535
			c0.269-0.292,0.436-0.679,0.436-1.107c0-0.013-0.001-0.026-0.002-0.04C11.203,60.609,11.202,60.573,11.198,60.534z"/>
		<path style="fill:#231F20;" d="M15.679,60.501c-0.082-0.818-0.663-2.166-1.108-3.104c-0.146-0.31-0.279-0.573-0.374-0.76
			c-0.062-0.121-0.235-0.121-0.299,0c-0.384,0.748-1.376,2.77-1.481,3.869c-0.002,0.006-0.002,0.016-0.002,0.021
			c-0.006,0.055-0.009,0.107-0.009,0.156c0,0.454,0.184,0.865,0.481,1.162c0.297,0.297,0.707,0.48,1.16,0.48
			c0.907,0,1.643-0.734,1.643-1.643c0-0.047-0.003-0.098-0.008-0.15C15.681,60.522,15.681,60.511,15.679,60.501z"/>
		<path style="fill:#231F20;" d="M20.163,60.501c-0.109-1.088-1.1-3.113-1.481-3.863c-0.062-0.121-0.236-0.121-0.3,0
			c-0.383,0.748-1.375,2.77-1.481,3.869c-0.001,0.006-0.001,0.016-0.002,0.021c-0.005,0.055-0.008,0.107-0.008,0.156
			c0,0.908,0.735,1.643,1.642,1.643c0.907,0,1.643-0.734,1.643-1.643c0-0.047-0.004-0.098-0.008-0.15
			C20.165,60.522,20.165,60.511,20.163,60.501z"/>
		<path style="fill:#231F20;" d="M18.882,36.842c0.906,0,1.642-0.734,1.642-1.642c0-0.048-0.004-0.099-0.009-0.152
			c0-0.011-0.002-0.021-0.002-0.033c-0.11-1.087-1.101-3.112-1.482-3.861c-0.063-0.122-0.236-0.122-0.299,0
			c-0.385,0.747-1.376,2.768-1.482,3.868c-0.001,0.007-0.002,0.015-0.002,0.021c-0.005,0.054-0.008,0.107-0.008,0.157
			C17.239,36.107,17.974,36.842,18.882,36.842z"/>
	</g>
</g>
<g id="Layer_1">
</g>
</svg>
