<?xml version="1.0" encoding="iso-8859-1"?>
<!-- Generator: Adobe Illustrator 16.0.0, SVG Export Plug-In . SVG Version: 6.00 Build 0)  -->
<!DOCTYPE svg PUBLIC "-//W3C//DTD SVG 1.1//EN" "http://www.w3.org/Graphics/SVG/1.1/DTD/svg11.dtd">
<svg version="1.1" xmlns="http://www.w3.org/2000/svg" xmlns:xlink="http://www.w3.org/1999/xlink" x="0px" y="0px"
	 width="23.713px" height="77.168px" viewBox="0 0 23.713 77.168" style="enable-background:new 0 0 23.713 77.168;"
	 xml:space="preserve">
<g id="Pawn">
	<g>
		<path style="fill:#231F20;" d="M21.222,77.168H2.484c-0.332,0-0.642-0.164-0.828-0.439c-0.186-0.273-0.224-0.623-0.101-0.932
			l9.368-23.451c0.151-0.381,0.52-0.629,0.929-0.629s0.777,0.248,0.929,0.629l9.37,23.451c0.123,0.309,0.085,0.658-0.101,0.932
			C21.863,77.004,21.554,77.168,21.222,77.168z M3.96,75.168h15.785l-7.893-19.756L3.96,75.168z"/>
		<path style="fill:#231F20;" d="M10.123,71.719c0-0.006,0.001-0.014,0.002-0.021c0.106-1.1,1.098-3.121,1.482-3.867
			c0.063-0.123,0.236-0.123,0.299,0c0.382,0.748,1.373,2.773,1.483,3.861c0,0.012,0.002,0.021,0.002,0.033
			c0.005,0.053,0.009,0.104,0.009,0.152c0,0.906-0.736,1.641-1.642,1.641c-0.908,0-1.643-0.734-1.643-1.641
			C10.115,71.826,10.118,71.773,10.123,71.719"/>
	</g>
</g>
<g id="Layer_1">
</g>
</svg>
