<?xml version="1.0" encoding="iso-8859-1"?>
<!-- Generator: Adobe Illustrator 16.0.0, SVG Export Plug-In . SVG Version: 6.00 Build 0)  -->
<!DOCTYPE svg PUBLIC "-//W3C//DTD SVG 1.1//EN" "http://www.w3.org/Graphics/SVG/1.1/DTD/svg11.dtd">
<svg version="1.1" xmlns="http://www.w3.org/2000/svg" xmlns:xlink="http://www.w3.org/1999/xlink" x="0px" y="0px"
	 width="29.931px" height="77.168px" viewBox="0 0 29.931 77.168" style="enable-background:new 0 0 29.931 77.168;"
	 xml:space="preserve">
<g id="PawnOnPawnOnDrone">
	<g>
		<path style="fill:#231F20;" d="M11.158,71.691c-0.11-1.088-1.101-3.113-1.482-3.863c-0.063-0.121-0.236-0.121-0.299,0
			c-0.385,0.748-1.376,2.77-1.482,3.869c-0.001,0.006-0.001,0.016-0.002,0.021c-0.005,0.055-0.008,0.107-0.008,0.156
			c0,0.908,0.734,1.643,1.643,1.643c0.906,0,1.642-0.734,1.642-1.643c0-0.047-0.003-0.098-0.009-0.15
			C11.16,71.713,11.158,71.701,11.158,71.691z"/>
		<path style="fill:#231F20;" d="M15.641,71.691c-0.109-1.088-1.099-3.113-1.48-3.863c-0.063-0.121-0.236-0.121-0.299,0
			c-0.385,0.748-1.376,2.77-1.483,3.869c0,0.006-0.002,0.016-0.002,0.021c-0.005,0.055-0.008,0.107-0.008,0.156
			c0,0.908,0.734,1.643,1.643,1.643c0.906,0,1.641-0.734,1.641-1.643c0-0.047-0.004-0.098-0.008-0.15
			C15.645,71.713,15.643,71.701,15.641,71.691z"/>
		<path style="fill:#231F20;" d="M28.374,75.814l-5.43-14.354h1.387c0.332,0,0.641-0.164,0.828-0.439
			c0.093-0.137,0.148-0.293,0.165-0.454c0.018-0.16-0.004-0.324-0.065-0.478l-3.633-9.096h2.713c0.332,0,0.641-0.164,0.828-0.439
			c0.186-0.273,0.223-0.623,0.1-0.932l-9.37-23.452c-0.15-0.38-0.52-0.629-0.928-0.629c-0.41,0-0.777,0.249-0.93,0.629L4.672,49.623
			c-0.123,0.309-0.086,0.658,0.1,0.932c0.188,0.275,0.496,0.439,0.828,0.439h2.697L4.664,60.09c-0.092,0.23-0.094,0.484-0.011,0.714
			c0.028,0.075,0.065,0.149,0.111,0.218c0.188,0.275,0.496,0.439,0.828,0.439h1.386l-5.43,14.354
			c-0.116,0.307-0.074,0.652,0.113,0.922c0.187,0.271,0.494,0.432,0.823,0.432h24.954c0.329,0,0.637-0.16,0.823-0.432
			C28.448,76.467,28.491,76.121,28.374,75.814z M10.452,50.994h9.02l3.383,8.467h-0.666H20.05H9.874H7.735H7.069L10.452,50.994z
			 M7.077,48.994l7.893-19.757l7.893,19.757h-2.035h-0.001h-2.153H11.25h0H9.096h0H7.077z M3.932,75.168l5.185-13.707h11.689
			l5.186,13.707H3.932z"/>
		<path style="fill:#231F20;" d="M14.866,57.811c0.906,0,1.643-0.734,1.643-1.641v-0.001c0-0.001,0-0.001,0-0.001
			c0-0.048-0.004-0.1-0.008-0.152c-0.002-0.011-0.002-0.021-0.004-0.033c-0.109-1.086-1.1-3.112-1.483-3.861
			c-0.061-0.122-0.236-0.122-0.299,0c-0.088,0.172-0.21,0.415-0.344,0.694c-0.192,0.4-0.409,0.887-0.606,1.376
			c-0.033,0.082-0.069,0.162-0.101,0.244c-0.218,0.571-0.39,1.131-0.432,1.555c0,0.008-0.002,0.016-0.002,0.021
			c-0.004,0.055-0.008,0.107-0.008,0.158C13.223,57.076,13.958,57.811,14.866,57.811z"/>
		<path style="fill:#231F20;" d="M14.874,47.344c0.906,0,1.643-0.734,1.643-1.641c0-0.049-0.004-0.1-0.01-0.152
			c0-0.012-0.002-0.021-0.002-0.033c-0.109-1.088-1.1-3.113-1.483-3.861c-0.063-0.123-0.236-0.123-0.299,0
			c-0.385,0.746-1.375,2.768-1.482,3.867c0,0.008-0.002,0.016-0.002,0.021c-0.004,0.055-0.008,0.107-0.008,0.158
			C13.231,46.609,13.965,47.344,14.874,47.344z"/>
	</g>
</g>
<g id="Layer_1">
</g>
</svg>
