<?xml version="1.0" encoding="iso-8859-1"?>
<!-- Generator: Adobe Illustrator 16.0.0, SVG Export Plug-In . SVG Version: 6.00 Build 0)  -->
<!DOCTYPE svg PUBLIC "-//W3C//DTD SVG 1.1//EN" "http://www.w3.org/Graphics/SVG/1.1/DTD/svg11.dtd">
<svg version="1.1" xmlns="http://www.w3.org/2000/svg" xmlns:xlink="http://www.w3.org/1999/xlink" x="0px" y="0px"
	 width="29.931px" height="77.168px" viewBox="0 0 29.931 77.168" style="enable-background:new 0 0 29.931 77.168;"
	 xml:space="preserve">
<g id="PawnOnDroneOnPawn">
	<g>
		<path style="fill:#231F20;" d="M28.401,75.842l-5.44-14.382h1.383c0.332,0,0.642-0.164,0.828-0.439
			c0.186-0.273,0.224-0.623,0.101-0.932l-9.37-23.452c-0.151-0.38-0.52-0.629-0.929-0.629s-0.777,0.249-0.929,0.629L4.677,60.089
			c-0.123,0.309-0.085,0.658,0.101,0.932c0.187,0.275,0.496,0.439,0.828,0.439h1.381l-5.44,14.382
			c-0.114,0.301-0.072,0.638,0.111,0.903c0.183,0.264,0.484,0.423,0.806,0.423h25.021c0.322,0,0.624-0.159,0.807-0.423
			C28.475,76.479,28.517,76.143,28.401,75.842z M7.083,59.46l7.892-19.756l7.893,19.756h-0.662H20.11h-2.918h-2.084H14.84h-2.083
			H9.839H7.744H7.083z M7.045,75.208H3.882L9.083,61.46h2.949l-1.495,4.122h2.084l1.495-4.122h1.718l4.99,13.748H7.045z
			 M22.903,75.208L17.918,61.46h2.948l5.201,13.748H22.903z"/>
		<path style="fill:#231F20;" d="M10.871,71.75c-0.024-0.237-0.095-0.522-0.187-0.826c-0.274-0.903-0.777-1.994-1.114-2.678
			c-0.069-0.142-0.133-0.268-0.184-0.367c-0.063-0.123-0.237-0.123-0.301,0c-0.384,0.748-1.379,2.774-1.485,3.879
			c-0.001,0.006-0.001,0.014-0.002,0.021c-0.005,0.055-0.008,0.106-0.008,0.156c0,0.353,0.113,0.676,0.301,0.943
			c0.298,0.424,0.788,0.703,1.345,0.703c0.182,0,0.354-0.037,0.518-0.092c0.654-0.219,1.129-0.827,1.129-1.555
			c0-0.048-0.003-0.1-0.008-0.152C10.873,71.773,10.872,71.762,10.871,71.75z"/>
		<path style="fill:#231F20;" d="M15.367,71.75c-0.109-1.089-1.102-3.121-1.485-3.871c-0.063-0.123-0.237-0.123-0.301,0
			c-0.384,0.748-1.38,2.774-1.486,3.879c-0.001,0.006-0.001,0.014-0.002,0.021c-0.004,0.055-0.007,0.106-0.007,0.156
			c0,0.909,0.737,1.646,1.646,1.646c0.911,0,1.647-0.737,1.647-1.646c0-0.048-0.003-0.1-0.008-0.152
			C15.369,71.773,15.369,71.762,15.367,71.75z"/>
		<path style="fill:#231F20;" d="M14.879,57.81c0.607,0,1.132-0.333,1.416-0.823c0.141-0.241,0.227-0.519,0.227-0.817
			c0-0.049-0.004-0.1-0.009-0.152c0-0.012-0.002-0.021-0.002-0.033c-0.11-1.088-1.101-3.113-1.483-3.861
			c-0.063-0.123-0.236-0.123-0.299,0c-0.385,0.746-1.376,2.768-1.482,3.867c-0.001,0.008-0.002,0.016-0.002,0.021
			c-0.005,0.055-0.008,0.107-0.008,0.158c0,0.379,0.134,0.724,0.35,1.002C13.887,57.557,14.351,57.81,14.879,57.81z"/>
	</g>
</g>
<g id="Layer_1">
</g>
</svg>
