<?xml version="1.0" encoding="iso-8859-1"?>
<!-- Generator: Adobe Illustrator 16.0.0, SVG Export Plug-In . SVG Version: 6.00 Build 0)  -->
<!DOCTYPE svg PUBLIC "-//W3C//DTD SVG 1.1//EN" "http://www.w3.org/Graphics/SVG/1.1/DTD/svg11.dtd">
<svg version="1.1" xmlns="http://www.w3.org/2000/svg" xmlns:xlink="http://www.w3.org/1999/xlink" x="0px" y="0px"
	 width="30.223px" height="77.168px" viewBox="0 0 30.223 77.168" style="enable-background:new 0 0 30.223 77.168;"
	 xml:space="preserve">
<g id="PawnPointingLeft">
	<g>
		<path style="fill:#231F20;" d="M21.707,58.386l6.96,17.397c0.123,0.309,0.086,0.656-0.102,0.932
			c-0.186,0.275-0.494,0.439-0.826,0.439L2.484,77.168c-0.409,0-0.777-0.25-0.929-0.629c-0.152-0.381-0.058-0.814,0.239-1.096
			l18.296-17.41c0.24-0.229,0.578-0.323,0.9-0.253C21.317,57.853,21.584,58.077,21.707,58.386z M26.262,75.154L20.399,60.5
			L4.986,75.166L26.262,75.154z"/>
		<path style="fill:#231F20;" d="M20.771,70.715c-0.008,0.002-0.016,0.004-0.021,0.006c-1.063,0.311-3.306,0.141-4.143,0.061
			c-0.137-0.012-0.2-0.174-0.111-0.277c0.555-0.633,2.066-2.305,3.034-2.811c0.012-0.004,0.021-0.01,0.031-0.014
			c0.049-0.025,0.093-0.049,0.138-0.066c0.842-0.336,1.798,0.074,2.133,0.916c0.338,0.842-0.071,1.799-0.913,2.135
			C20.872,70.684,20.821,70.699,20.771,70.715"/>
	</g>
</g>
<g id="Layer_1">
</g>
</svg>
