<?xml version="1.0" encoding="iso-8859-1"?>
<!-- Generator: Adobe Illustrator 16.0.0, SVG Export Plug-In . SVG Version: 6.00 Build 0)  -->
<!DOCTYPE svg PUBLIC "-//W3C//DTD SVG 1.1//EN" "http://www.w3.org/Graphics/SVG/1.1/DTD/svg11.dtd">
<svg version="1.1" xmlns="http://www.w3.org/2000/svg" xmlns:xlink="http://www.w3.org/1999/xlink" x="0px" y="0px"
	 width="23.713px" height="77.168px" viewBox="0 0 23.713 77.168" style="enable-background:new 0 0 23.713 77.168;"
	 xml:space="preserve">
<g id="PawnOnPawnOnPawn">
	<g>
		<path style="fill:#231F20;" d="M18.542,56.279h2.688c0.332,0,0.642-0.164,0.828-0.439c0.186-0.273,0.224-0.623,0.101-0.932
			l-9.37-23.452c-0.151-0.38-0.52-0.629-0.929-0.629s-0.777,0.249-0.929,0.629L1.563,54.908c-0.123,0.309-0.085,0.658,0.101,0.932
			c0.187,0.275,0.496,0.439,0.828,0.439h2.687L1.563,65.33C1.53,65.412,1.511,65.497,1.5,65.583v0.001
			c-0.014,0.087-0.003,0.174,0.005,0.261c0.015,0.163,0.055,0.322,0.15,0.462c0.187,0.275,0.496,0.439,0.828,0.439H5.17
			l-3.615,9.051c-0.123,0.309-0.085,0.658,0.101,0.932c0.187,0.275,0.496,0.439,0.828,0.439h18.738c0.332,0,0.642-0.164,0.828-0.439
			c0.186-0.273,0.224-0.623,0.101-0.932l-3.616-9.051h2.688c0.332,0,0.642-0.164,0.828-0.439c0.095-0.14,0.15-0.3,0.166-0.463
			v-0.001c0.012-0.083,0.013-0.166,0.005-0.248c0-0.004,0-0.008,0-0.012c-0.009-0.085-0.029-0.17-0.063-0.253L18.542,56.279z
			 M19.728,64.701h-2.01h-2.154H8.141H5.987H3.979l3.364-8.422h9.02L19.728,64.701z M3.968,54.279l7.892-19.756l7.893,19.756h-2.01
			h-0.025H15.59h-0.026H8.141h-0.01H5.987h-0.01H3.968z M19.745,75.168H3.96l3.364-8.422h9.056L19.745,75.168z"/>
		<path style="fill:#231F20;" d="M13.389,71.691c-0.11-1.088-1.101-3.113-1.483-3.861c-0.063-0.123-0.236-0.123-0.299,0
			c-0.385,0.746-1.376,2.768-1.482,3.867c-0.001,0.008-0.002,0.016-0.002,0.021c-0.005,0.055-0.008,0.107-0.008,0.158
			c0,0.906,0.734,1.641,1.643,1.641c0.906,0,1.642-0.734,1.642-1.641c0-0.049-0.004-0.1-0.009-0.152
			C13.391,71.713,13.389,71.703,13.389,71.691z"/>
		<path style="fill:#231F20;" d="M11.757,63.096c0.567,0,1.043-0.305,1.334-0.744c0.018-0.024,0.042-0.042,0.059-0.067
			c0.009-0.015,0.016-0.03,0.024-0.046c0.016-0.025,0.029-0.052,0.043-0.079c0.059-0.12,0.113-0.243,0.142-0.378
			c0.002-0.008,0.007-0.014,0.009-0.021c0-0.001,0.001-0.002,0.001-0.003c0.001-0.004,0-0.007,0.001-0.011
			c0.022-0.109,0.037-0.221,0.037-0.336c0-0.049-0.004-0.1-0.009-0.152c0-0.012-0.002-0.021-0.002-0.033
			c-0.11-1.088-1.101-3.113-1.483-3.861c-0.063-0.123-0.236-0.123-0.299,0c-0.385,0.746-1.376,2.768-1.482,3.867
			c-0.001,0.014-0.006,0.031-0.008,0.045c-0.001,0.008-0.002,0.016-0.002,0.021c-0.005,0.055-0.008,0.107-0.008,0.158
			C10.115,62.361,10.849,63.096,11.757,63.096z"/>
		<path style="fill:#231F20;" d="M11.765,52.629c0.906,0,1.642-0.734,1.642-1.641c0-0.049-0.004-0.1-0.009-0.152
			c0-0.012-0.002-0.021-0.002-0.033c-0.11-1.088-1.101-3.113-1.483-3.861c-0.063-0.123-0.236-0.123-0.299,0
			c-0.385,0.746-1.376,2.768-1.482,3.867c-0.001,0.008-0.002,0.016-0.002,0.021c-0.005,0.055-0.008,0.107-0.008,0.158
			C10.123,51.895,10.857,52.629,11.765,52.629z"/>
	</g>
</g>
<g id="Layer_1">
</g>
</svg>
