<?xml version="1.0" encoding="iso-8859-1"?>
<!-- Generator: Adobe Illustrator 16.0.0, SVG Export Plug-In . SVG Version: 6.00 Build 0)  -->
<!DOCTYPE svg PUBLIC "-//W3C//DTD SVG 1.1//EN" "http://www.w3.org/Graphics/SVG/1.1/DTD/svg11.dtd">
<svg version="1.1" xmlns="http://www.w3.org/2000/svg" xmlns:xlink="http://www.w3.org/1999/xlink" x="0px" y="0px"
	 width="23.713px" height="77.168px" viewBox="0 0 23.713 77.168" style="enable-background:new 0 0 23.713 77.168;"
	 xml:space="preserve">
<g id="PawnOnPawn">
	<g>
		<path style="fill:#231F20;" d="M18.517,66.701h2.713c0.332,0,0.642-0.164,0.828-0.439c0.186-0.273,0.224-0.623,0.101-0.932
			l-9.37-23.451c-0.151-0.381-0.52-0.629-0.929-0.629s-0.777,0.248-0.929,0.629L1.563,65.33c-0.123,0.309-0.085,0.658,0.101,0.932
			c0.187,0.275,0.496,0.439,0.828,0.439h2.697l-3.634,9.096c-0.123,0.309-0.085,0.658,0.101,0.932
			c0.187,0.275,0.496,0.439,0.828,0.439h18.738c0.332,0,0.642-0.164,0.828-0.439c0.186-0.273,0.224-0.623,0.101-0.932L18.517,66.701
			z M3.968,64.701l7.892-19.756l7.893,19.756h-2.035h-2.154H8.141H5.988H3.968z M3.96,75.168l3.382-8.467h9.02l3.383,8.467H3.96z"/>
		<path style="fill:#231F20;" d="M13.389,71.691c-0.11-1.088-1.101-3.113-1.483-3.861c-0.063-0.123-0.236-0.123-0.299,0
			c-0.385,0.746-1.376,2.768-1.482,3.867c-0.001,0.008-0.002,0.016-0.002,0.021c-0.005,0.055-0.008,0.107-0.008,0.158
			c0,0.906,0.734,1.641,1.643,1.641c0.906,0,1.642-0.734,1.642-1.641c0-0.049-0.004-0.1-0.009-0.152
			C13.391,71.713,13.389,71.703,13.389,71.691z"/>
		<path style="fill:#231F20;" d="M11.765,63.051c0.906,0,1.642-0.734,1.642-1.641c0-0.049-0.004-0.1-0.009-0.152
			c0-0.012-0.002-0.021-0.002-0.033c-0.11-1.088-1.101-3.113-1.483-3.861c-0.063-0.123-0.236-0.123-0.299,0
			c-0.385,0.746-1.376,2.768-1.482,3.867c-0.001,0.008-0.002,0.016-0.002,0.021c-0.005,0.055-0.008,0.107-0.008,0.158
			C10.123,62.316,10.857,63.051,11.765,63.051z"/>
	</g>
</g>
<g id="Layer_1">
</g>
</svg>
