<?xml version="1.0" encoding="iso-8859-1"?>
<!-- Generator: Adobe Illustrator 16.0.0, SVG Export Plug-In . SVG Version: 6.00 Build 0)  -->
<!DOCTYPE svg PUBLIC "-//W3C//DTD SVG 1.1//EN" "http://www.w3.org/Graphics/SVG/1.1/DTD/svg11.dtd">
<svg version="1.1" xmlns="http://www.w3.org/2000/svg" xmlns:xlink="http://www.w3.org/1999/xlink" x="0px" y="0px"
	 width="37.954px" height="77.169px" viewBox="0 0 37.954 77.169" style="enable-background:new 0 0 37.954 77.169;"
	 xml:space="preserve">
<g id="PawnOnPawnOnQueen">
	<g>
		<path style="fill:#231F20;" d="M36.398,75.78L25.96,51.007h2.386c0.332,0,0.642-0.164,0.828-0.439
			c0.186-0.274,0.224-0.623,0.101-0.932l-3.652-9.144h2.724c0.332,0,0.642-0.164,0.828-0.439c0.186-0.274,0.224-0.623,0.101-0.932
			l-9.369-23.452c-0.151-0.38-0.52-0.629-0.929-0.629s-0.777,0.249-0.929,0.629L8.68,39.121c-0.123,0.309-0.085,0.657,0.101,0.932
			c0.187,0.275,0.496,0.439,0.828,0.439h2.724L8.68,49.636c-0.123,0.309-0.085,0.657,0.101,0.932
			c0.187,0.275,0.496,0.439,0.828,0.439h2.385L1.555,75.78c-0.13,0.31-0.097,0.662,0.089,0.941s0.498,0.447,0.833,0.447h33
			c0.335,0,0.647-0.168,0.833-0.447S36.528,76.09,36.398,75.78z M11.085,38.492l7.892-19.757l7.893,19.757h-2.047h-2.153h-1.982
			h-3.42h-1.981h-2.154H11.085z M11.085,49.007l3.401-8.515h1.938h2.17h0.766h2.17h1.938l3.401,8.515h-1.752h-2.171h-7.94h-2.17
			H11.085z M3.983,75.169l10.18-24.162h9.625L33.97,75.169H3.983z"/>
		<path style="fill:#231F20;" d="M11.195,71.691c-0.11-1.087-1.101-3.113-1.482-3.862c-0.062-0.122-0.237-0.122-0.299,0
			c-0.384,0.747-1.376,2.769-1.481,3.868c-0.002,0.007-0.002,0.016-0.002,0.022c-0.006,0.054-0.008,0.106-0.008,0.156
			c0,0.907,0.734,1.643,1.641,1.643c0.908,0,1.643-0.735,1.643-1.643c0-0.048-0.003-0.099-0.008-0.151
			C11.197,71.714,11.196,71.702,11.195,71.691z"/>
		<path style="fill:#231F20;" d="M15.679,71.691c-0.109-1.087-1.1-3.113-1.481-3.862c-0.062-0.122-0.235-0.122-0.299,0
			c-0.384,0.747-1.376,2.769-1.481,3.868c-0.002,0.007-0.002,0.016-0.002,0.022c-0.006,0.054-0.009,0.106-0.009,0.156
			c0,0.907,0.735,1.643,1.642,1.643c0.907,0,1.643-0.735,1.643-1.643c0-0.048-0.003-0.099-0.008-0.151
			C15.681,71.714,15.681,71.702,15.679,71.691z"/>
		<path style="fill:#231F20;" d="M20.163,71.691c-0.109-1.087-1.1-3.113-1.481-3.862c-0.062-0.122-0.236-0.122-0.3,0
			c-0.383,0.747-1.375,2.769-1.481,3.868c-0.001,0.007-0.001,0.016-0.002,0.022c-0.005,0.054-0.008,0.106-0.008,0.156
			c0,0.907,0.735,1.643,1.642,1.643c0.907,0,1.643-0.735,1.643-1.643c0-0.048-0.004-0.099-0.008-0.151
			C20.165,71.714,20.165,71.702,20.163,71.691z"/>
		<path style="fill:#231F20;" d="M18.882,47.356c0.906,0,1.642-0.734,1.642-1.642c0-0.048-0.004-0.099-0.009-0.152
			c0-0.011-0.002-0.021-0.002-0.033c-0.11-1.087-1.101-3.112-1.482-3.861c-0.063-0.122-0.236-0.122-0.299,0
			c-0.385,0.747-1.376,2.768-1.482,3.868c-0.001,0.007-0.002,0.015-0.002,0.021c-0.005,0.054-0.008,0.107-0.008,0.157
			C17.239,46.622,17.974,47.356,18.882,47.356z"/>
		<path style="fill:#231F20;" d="M18.059,36.614c0.243,0.141,0.521,0.228,0.823,0.228c0.359,0,0.689-0.119,0.96-0.315
			c0.411-0.298,0.682-0.779,0.682-1.327c0-0.048-0.004-0.099-0.009-0.152c0-0.011-0.002-0.021-0.002-0.033
			c-0.11-1.087-1.101-3.112-1.482-3.861c-0.063-0.122-0.236-0.122-0.299,0c-0.385,0.747-1.376,2.768-1.482,3.868
			c-0.001,0.007-0.002,0.015-0.002,0.021c-0.005,0.054-0.008,0.107-0.008,0.157C17.239,35.806,17.571,36.329,18.059,36.614z"/>
	</g>
</g>
<g id="Layer_1">
</g>
</svg>
