<?xml version="1.0" encoding="iso-8859-1"?>
<!-- Generator: Adobe Illustrator 16.0.0, SVG Export Plug-In . SVG Version: 6.00 Build 0)  -->
<!DOCTYPE svg PUBLIC "-//W3C//DTD SVG 1.1//EN" "http://www.w3.org/Graphics/SVG/1.1/DTD/svg11.dtd">
<svg version="1.1" xmlns="http://www.w3.org/2000/svg" xmlns:xlink="http://www.w3.org/1999/xlink" x="0px" y="0px"
	 width="37.954px" height="77.169px" viewBox="0 0 37.954 77.169" style="enable-background:new 0 0 37.954 77.169;"
	 xml:space="preserve">
<g id="PawnOnQueenOnQueen">
	<g>
		<path style="fill:#231F20;" d="M18.059,36.614c0.243,0.141,0.521,0.228,0.823,0.228c0.359,0,0.689-0.119,0.96-0.315
			c0.411-0.298,0.682-0.779,0.682-1.327c0-0.048-0.004-0.099-0.009-0.152c0-0.011-0.002-0.021-0.002-0.033
			c-0.11-1.087-1.101-3.112-1.482-3.861c-0.063-0.122-0.236-0.122-0.299,0c-0.385,0.747-1.376,2.768-1.482,3.868
			c-0.001,0.007-0.002,0.015-0.002,0.021c-0.005,0.054-0.008,0.107-0.008,0.157C17.239,35.806,17.571,36.329,18.059,36.614z"/>
		<path style="fill:#231F20;" d="M9.563,63.034c0.908,0,1.643-0.735,1.643-1.643c0-0.048-0.003-0.099-0.008-0.151
			c-0.001-0.011-0.002-0.022-0.003-0.033c-0.05-0.491-0.281-1.173-0.553-1.843c-0.33-0.813-0.72-1.608-0.929-2.02
			c-0.062-0.122-0.237-0.122-0.299,0c-0.384,0.747-1.376,2.769-1.481,3.868c-0.002,0.007-0.002,0.016-0.002,0.022
			c-0.006,0.054-0.008,0.106-0.008,0.156c0,0.754,0.51,1.383,1.202,1.575C9.265,63.007,9.41,63.034,9.563,63.034z"/>
		<path style="fill:#231F20;" d="M14.048,63.034c0.907,0,1.643-0.735,1.643-1.643c0-0.048-0.003-0.099-0.008-0.151
			c-0.002-0.011-0.002-0.022-0.004-0.033c-0.109-1.087-1.1-3.113-1.481-3.862c-0.062-0.122-0.235-0.122-0.299,0
			c-0.384,0.747-1.376,2.769-1.481,3.868c-0.002,0.007-0.002,0.016-0.002,0.022c-0.006,0.054-0.009,0.106-0.009,0.156
			C12.406,62.299,13.142,63.034,14.048,63.034z"/>
		<path style="fill:#231F20;" d="M18.532,63.034c0.907,0,1.643-0.735,1.643-1.643c0-0.048-0.004-0.099-0.008-0.151
			c-0.002-0.011-0.002-0.022-0.004-0.033c-0.109-1.087-1.1-3.113-1.481-3.862c-0.062-0.122-0.236-0.122-0.3,0
			c-0.383,0.747-1.375,2.769-1.481,3.868c-0.001,0.007-0.001,0.016-0.002,0.022c-0.005,0.054-0.008,0.106-0.008,0.156
			C16.891,62.299,17.626,63.034,18.532,63.034z"/>
		<path style="fill:#231F20;" d="M32.565,66.685h2.911c0.335,0,0.647-0.168,0.833-0.447s0.219-0.632,0.089-0.941L25.947,40.492
			h2.398c0.332,0,0.642-0.164,0.828-0.439c0.186-0.274,0.224-0.623,0.101-0.932l-9.369-23.452c-0.151-0.38-0.52-0.629-0.929-0.629
			s-0.777,0.249-0.929,0.629L8.68,39.121c-0.123,0.309-0.085,0.657,0.101,0.932c0.187,0.275,0.496,0.439,0.828,0.439h2.397
			L1.555,65.296c-0.13,0.31-0.097,0.662,0.089,0.941s0.498,0.447,0.833,0.447h2.911L1.555,75.78c-0.13,0.31-0.097,0.662,0.089,0.941
			s0.498,0.447,0.833,0.447h33c0.335,0,0.647-0.168,0.833-0.447s0.219-0.632,0.089-0.941L32.565,66.685z M11.085,38.492
			l7.892-19.757l7.893,19.757h-1.765h-2.171h-2.247h-3.42h-2.247h-2.17H11.085z M3.983,64.685l10.193-24.192h2.247h2.17h0.766h2.17
			h2.247L33.97,64.685h-2.246h-2.171H8.401H6.23H3.983z M3.983,75.169l3.575-8.484h22.836l3.575,8.484H3.983z"/>
		<path style="fill:#231F20;" d="M11.195,71.691c-0.11-1.087-1.101-3.113-1.482-3.862c-0.062-0.122-0.237-0.122-0.299,0
			c-0.384,0.747-1.376,2.769-1.481,3.868c-0.002,0.007-0.002,0.016-0.002,0.022c-0.006,0.054-0.008,0.106-0.008,0.156
			c0,0.907,0.734,1.643,1.641,1.643c0.908,0,1.643-0.735,1.643-1.643c0-0.048-0.003-0.099-0.008-0.151
			C11.197,71.714,11.196,71.702,11.195,71.691z"/>
		<path style="fill:#231F20;" d="M15.679,71.691c-0.109-1.087-1.1-3.113-1.481-3.862c-0.062-0.122-0.235-0.122-0.299,0
			c-0.384,0.747-1.376,2.769-1.481,3.868c-0.002,0.007-0.002,0.016-0.002,0.022c-0.006,0.054-0.009,0.106-0.009,0.156
			c0,0.907,0.735,1.643,1.642,1.643c0.907,0,1.643-0.735,1.643-1.643c0-0.048-0.003-0.099-0.008-0.151
			C15.681,71.714,15.681,71.702,15.679,71.691z"/>
		<path style="fill:#231F20;" d="M20.163,71.691c-0.109-1.087-1.1-3.113-1.481-3.862c-0.062-0.122-0.236-0.122-0.3,0
			c-0.383,0.747-1.375,2.769-1.481,3.868c-0.001,0.007-0.001,0.016-0.002,0.022c-0.005,0.054-0.008,0.106-0.008,0.156
			c0,0.907,0.735,1.643,1.642,1.643c0.907,0,1.643-0.735,1.643-1.643c0-0.048-0.004-0.099-0.008-0.151
			C20.165,71.714,20.165,71.702,20.163,71.691z"/>
	</g>
</g>
<g id="Layer_1">
</g>
</svg>
