<?xml version="1.0" encoding="iso-8859-1"?>
<!-- Generator: Adobe Illustrator 16.0.0, SVG Export Plug-In . SVG Version: 6.00 Build 0)  -->
<!DOCTYPE svg PUBLIC "-//W3C//DTD SVG 1.1//EN" "http://www.w3.org/Graphics/SVG/1.1/DTD/svg11.dtd">
<svg version="1.1" xmlns="http://www.w3.org/2000/svg" xmlns:xlink="http://www.w3.org/1999/xlink" x="0px" y="0px"
	 width="29.931px" height="77.168px" viewBox="0 0 29.931 77.168" style="enable-background:new 0 0 29.931 77.168;"
	 xml:space="preserve">
<g id="PawnOnDroneOnPawnExpanded">
	<g>
		<path style="fill:#231F20;" d="M28.381,59.617L21.146,40.49h3.191c0.332,0,0.641-0.164,0.828-0.439
			c0.186-0.273,0.223-0.623,0.1-0.932l-9.37-23.451c-0.15-0.381-0.52-0.629-0.928-0.629c-0.41,0-0.777,0.248-0.93,0.629L4.67,39.119
			c-0.123,0.309-0.086,0.658,0.1,0.932c0.188,0.275,0.496,0.439,0.828,0.439h3.193L1.555,59.617
			c-0.116,0.307-0.074,0.652,0.113,0.922c0.187,0.271,0.494,0.432,0.822,0.432h8.099L4.668,75.795
			c-0.123,0.309-0.086,0.658,0.1,0.932c0.188,0.275,0.496,0.439,0.828,0.439h18.739c0.332,0,0.641-0.164,0.828-0.439
			c0.186-0.273,0.223-0.623,0.1-0.932L19.34,60.971h8.105c0.328,0,0.636-0.16,0.822-0.432C28.455,60.27,28.497,59.924,28.381,59.617
			z M7.075,38.49l7.893-19.756L22.86,38.49h-2.472H18.25h-6.563H9.548H7.075z M22.858,75.166H7.073l5.671-14.195h4.444
			L22.858,75.166z M18.541,58.971h-2.152h-2.846h-2.154H3.938l6.992-18.48h8.077l6.991,18.48H18.541z"/>
		<path style="fill:#231F20;" d="M11.164,55.494c-0.109-1.088-1.1-3.113-1.481-3.861c-0.062-0.123-0.235-0.123-0.299,0
			C9,52.379,8.007,54.4,7.902,55.5C7.9,55.508,7.9,55.516,7.899,55.521c-0.005,0.055-0.008,0.107-0.008,0.158
			c0,0.906,0.735,1.641,1.642,1.641c0.907,0,1.643-0.734,1.643-1.641c0-0.049-0.003-0.1-0.008-0.152
			C11.166,55.516,11.166,55.506,11.164,55.494z"/>
		<path style="fill:#231F20;" d="M15.648,55.494c-0.097-0.957-0.874-2.639-1.319-3.539c-0.061-0.122-0.116-0.232-0.162-0.322
			c-0.062-0.123-0.237-0.123-0.299,0c-0.384,0.746-1.376,2.768-1.481,3.867c-0.002,0.008-0.002,0.016-0.002,0.021
			c-0.006,0.055-0.009,0.107-0.009,0.158c0,0.197,0.041,0.384,0.104,0.559c0.229,0.63,0.828,1.082,1.537,1.082
			c0.066,0,0.129-0.012,0.193-0.02c0.51-0.061,0.948-0.35,1.204-0.768c0.153-0.249,0.246-0.54,0.246-0.854
			c0-0.049-0.004-0.1-0.008-0.152C15.65,55.516,15.65,55.506,15.648,55.494z"/>
		<path style="fill:#231F20;" d="M14.87,73.516c0.906,0,1.643-0.734,1.643-1.641c0-0.049-0.004-0.1-0.01-0.152
			c0-0.012-0.002-0.021-0.002-0.033c-0.109-1.088-1.1-3.113-1.483-3.861c-0.063-0.123-0.236-0.123-0.299,0
			c-0.385,0.746-1.375,2.768-1.482,3.867c0,0.008-0.002,0.016-0.002,0.021c-0.004,0.055-0.008,0.107-0.008,0.158
			C13.227,72.781,13.961,73.516,14.87,73.516z"/>
		<path style="fill:#231F20;" d="M14.872,36.84c0.906,0,1.643-0.734,1.643-1.641c0-0.049-0.004-0.1-0.01-0.152
			c0-0.012-0.002-0.021-0.002-0.033c-0.109-1.088-1.1-3.113-1.483-3.861c-0.063-0.123-0.236-0.123-0.299,0
			c-0.385,0.746-1.375,2.768-1.482,3.867c0,0.008-0.002,0.016-0.002,0.021c-0.004,0.055-0.008,0.107-0.008,0.158
			C13.229,36.105,13.963,36.84,14.872,36.84z"/>
	</g>
</g>
<g id="Layer_1">
</g>
</svg>
