<?xml version="1.0" encoding="iso-8859-1"?>
<!-- Generator: Adobe Illustrator 16.0.0, SVG Export Plug-In . SVG Version: 6.00 Build 0)  -->
<!DOCTYPE svg PUBLIC "-//W3C//DTD SVG 1.1//EN" "http://www.w3.org/Graphics/SVG/1.1/DTD/svg11.dtd">
<svg version="1.1" xmlns="http://www.w3.org/2000/svg" xmlns:xlink="http://www.w3.org/1999/xlink" x="0px" y="0px"
	 width="30.223px" height="77.168px" viewBox="0 0 30.223 77.168" style="enable-background:new 0 0 30.223 77.168;"
	 xml:space="preserve">
<g id="PawnPointingRight">
	<g>
		<path style="fill:#231F20;" d="M9.232,57.78c0.322-0.07,0.66,0.023,0.9,0.253l18.296,17.41c0.296,0.281,0.391,0.715,0.238,1.096
			c-0.152,0.379-0.521,0.629-0.93,0.629L2.483,77.154c-0.332,0-0.641-0.164-0.826-0.439c-0.188-0.275-0.225-0.623-0.102-0.932
			l6.96-17.397C8.638,58.077,8.905,57.853,9.232,57.78z M25.235,75.166L9.823,60.5L3.96,75.154L25.235,75.166z"/>
		<path style="fill:#231F20;" d="M9.451,70.715c0.008,0.002,0.016,0.004,0.021,0.006c1.063,0.311,3.306,0.141,4.143,0.061
			c0.137-0.012,0.2-0.174,0.111-0.277c-0.555-0.633-2.066-2.305-3.034-2.811c-0.012-0.004-0.021-0.01-0.031-0.014
			c-0.049-0.025-0.093-0.049-0.138-0.066c-0.842-0.336-1.798,0.074-2.133,0.916c-0.338,0.842,0.071,1.799,0.913,2.135
			C9.35,70.684,9.401,70.699,9.451,70.715"/>
	</g>
</g>
<g id="Layer_1">
</g>
</svg>
