<?xml version="1.0" encoding="iso-8859-1"?>
<!-- Generator: Adobe Illustrator 16.0.0, SVG Export Plug-In . SVG Version: 6.00 Build 0)  -->
<!DOCTYPE svg PUBLIC "-//W3C//DTD SVG 1.1//EN" "http://www.w3.org/Graphics/SVG/1.1/DTD/svg11.dtd">
<svg version="1.1" xmlns="http://www.w3.org/2000/svg" xmlns:xlink="http://www.w3.org/1999/xlink" x="0px" y="0px"
	 width="29.931px" height="77.168px" viewBox="0 0 29.931 77.168" style="enable-background:new 0 0 29.931 77.168;"
	 xml:space="preserve">
<g id="PawnOnDrone">
	<g>
		<path style="fill:none;" d="M9.117,61.461L3.932,75.168h22.06l-5.186-13.707H9.117z M9.527,73.518
			c-0.908,0-1.643-0.734-1.643-1.643c0-0.049,0.003-0.102,0.008-0.156c0.001-0.006,0.001-0.016,0.002-0.021
			c0.106-1.1,1.098-3.121,1.482-3.869c0.063-0.121,0.236-0.121,0.299,0c0.382,0.75,1.372,2.775,1.482,3.863
			c0,0.01,0.002,0.021,0.002,0.033c0.006,0.053,0.009,0.104,0.009,0.15C11.169,72.783,10.434,73.518,9.527,73.518z M14.012,73.518
			c-0.909,0-1.643-0.734-1.643-1.643c0-0.049,0.003-0.102,0.008-0.156c0-0.006,0.002-0.016,0.002-0.021
			c0.106-1.1,1.098-3.121,1.483-3.869c0.063-0.121,0.236-0.121,0.299,0c0.382,0.75,1.371,2.775,1.48,3.863
			c0.002,0.01,0.004,0.021,0.004,0.033c0.004,0.053,0.008,0.104,0.008,0.15C15.653,72.783,14.918,73.518,14.012,73.518z"/>
		<path style="fill:none;" d="M9.874,59.461H20.05h2.139h0.666l-7.893-19.757L7.068,59.461h0.667H9.874z M13.231,56.012
			c0-0.008,0.001-0.016,0.003-0.022c0.105-1.101,1.098-3.121,1.481-3.868c0.063-0.122,0.238-0.122,0.299,0
			c0.383,0.749,1.374,2.775,1.483,3.861c0.002,0.012,0.002,0.022,0.004,0.033c0.004,0.053,0.008,0.104,0.008,0.152
			c0,0.907-0.737,1.643-1.643,1.643s-1.642-0.735-1.642-1.643C13.224,56.118,13.227,56.066,13.231,56.012z"/>
		<path style="fill:#231F20;" d="M11.158,71.691c-0.11-1.088-1.101-3.113-1.482-3.863c-0.063-0.121-0.236-0.121-0.299,0
			c-0.385,0.748-1.376,2.77-1.482,3.869c-0.001,0.006-0.001,0.016-0.002,0.021c-0.005,0.055-0.008,0.107-0.008,0.156
			c0,0.908,0.734,1.643,1.643,1.643c0.906,0,1.642-0.734,1.642-1.643c0-0.047-0.003-0.098-0.009-0.15
			C11.16,71.713,11.158,71.701,11.158,71.691z"/>
		<path style="fill:#231F20;" d="M15.641,71.691c-0.109-1.088-1.099-3.113-1.48-3.863c-0.063-0.121-0.236-0.121-0.299,0
			c-0.385,0.748-1.376,2.77-1.483,3.869c0,0.006-0.002,0.016-0.002,0.021c-0.005,0.055-0.008,0.107-0.008,0.156
			c0,0.908,0.734,1.643,1.643,1.643c0.906,0,1.641-0.734,1.641-1.643c0-0.047-0.004-0.098-0.008-0.15
			C15.645,71.713,15.643,71.701,15.641,71.691z"/>
		<path style="fill:#231F20;" d="M28.374,75.814l-5.43-14.354h1.387c0.331,0,0.642-0.166,0.828-0.439
			c0.186-0.275,0.223-0.625,0.1-0.932l-9.37-23.453c-0.151-0.38-0.52-0.629-0.928-0.629c-0.409,0-0.777,0.249-0.93,0.629
			L4.664,60.09c-0.123,0.307-0.085,0.656,0.101,0.932c0.186,0.273,0.497,0.439,0.828,0.439h1.386l-5.43,14.354
			c-0.116,0.307-0.074,0.652,0.113,0.922c0.187,0.271,0.494,0.432,0.823,0.432h24.954c0.329,0,0.637-0.16,0.823-0.432
			C28.448,76.467,28.491,76.121,28.374,75.814z M14.961,39.704l7.893,19.757h-0.666H20.05H9.874H7.735H7.068L14.961,39.704z
			 M3.932,75.168l5.185-13.707h11.689l5.186,13.707H3.932z"/>
		<path style="fill:#231F20;" d="M14.866,57.811c0.906,0,1.643-0.735,1.643-1.643c0-0.048-0.004-0.1-0.008-0.152
			c-0.002-0.011-0.002-0.021-0.004-0.033c-0.109-1.086-1.1-3.112-1.483-3.861c-0.061-0.122-0.236-0.122-0.299,0
			c-0.383,0.747-1.375,2.768-1.481,3.868c-0.002,0.007-0.003,0.015-0.003,0.022c-0.005,0.055-0.008,0.106-0.008,0.156
			C13.224,57.075,13.959,57.811,14.866,57.811z"/>
	</g>
</g>
<g id="Layer_1">
</g>
</svg>
