<?xml version="1.0" encoding="iso-8859-1"?>
<!-- Generator: Adobe Illustrator 16.0.0, SVG Export Plug-In . SVG Version: 6.00 Build 0)  -->
<!DOCTYPE svg PUBLIC "-//W3C//DTD SVG 1.1//EN" "http://www.w3.org/Graphics/SVG/1.1/DTD/svg11.dtd">
<svg version="1.1" xmlns="http://www.w3.org/2000/svg" xmlns:xlink="http://www.w3.org/1999/xlink" x="0px" y="0px"
	 width="37.954px" height="77.169px" viewBox="0 0 37.954 77.169" style="enable-background:new 0 0 37.954 77.169;"
	 xml:space="preserve">
<g id="PawnOnQueenOnDrone">
	<g>
		<path style="fill:#231F20;" d="M36.269,75.815l-9.577-22.731h1.592c0.332,0,0.642-0.164,0.828-0.439
			c0.186-0.273,0.224-0.623,0.101-0.932l-9.369-23.452c-0.151-0.38-0.52-0.629-0.929-0.629s-0.777,0.249-0.929,0.629L8.617,51.713
			c-0.123,0.309-0.085,0.658,0.101,0.932c0.187,0.275,0.496,0.439,0.828,0.439h1.592L1.56,75.815
			c-0.127,0.303-0.095,0.646,0.086,0.918c0.181,0.271,0.485,0.436,0.812,0.436h4.013h24.888h4.013c0.325,0,0.631-0.164,0.811-0.436
			C36.362,76.461,36.396,76.118,36.269,75.815z M11.022,51.084l7.892-19.756l7.893,19.756h-0.958h-2.115h-1.997h-2.119h-1.404
			h-2.119h-1.998h-2.115H11.022z M27.818,75.22H10.127H7.944l0.005-0.012H5.831L5.826,75.22H3.926l9.327-22.136h1.99L9.867,65.723
			h2.119l5.377-12.639h3.105l9.417,22.136H27.818z M32.004,75.22l-9.417-22.136h1.988l9.327,22.136H32.004z"/>
		<path style="fill:#231F20;" d="M11.153,71.729c-0.062-0.605-0.396-1.496-0.745-2.3c-0.277-0.637-0.563-1.22-0.732-1.551
			c-0.063-0.124-0.236-0.124-0.299-0.002c-0.382,0.746-1.372,2.762-1.477,3.858c-0.001,0.008-0.001,0.014-0.002,0.021
			c-0.005,0.056-0.008,0.109-0.008,0.158c0,0.619,0.348,1.151,0.854,1.43c0.233,0.128,0.498,0.208,0.784,0.208
			c0.904,0,1.637-0.733,1.637-1.638c0-0.048-0.003-0.099-0.008-0.152C11.155,71.75,11.154,71.74,11.153,71.729z"/>
		<path style="fill:#231F20;" d="M15.625,71.729c-0.066-0.652-0.451-1.643-0.829-2.491c-0.25-0.562-0.497-1.063-0.649-1.359
			c-0.062-0.124-0.235-0.124-0.299-0.002c-0.381,0.746-1.372,2.762-1.477,3.858c-0.001,0.008-0.002,0.014-0.002,0.021
			c-0.005,0.056-0.008,0.109-0.008,0.158c0,0.563,0.284,1.061,0.717,1.354c0.263,0.179,0.579,0.284,0.92,0.284
			c0.904,0,1.637-0.733,1.637-1.638c0-0.048-0.003-0.099-0.008-0.152C15.627,71.75,15.626,71.74,15.625,71.729z"/>
		<path style="fill:#231F20;" d="M20.098,71.729c-0.11-1.085-1.096-3.104-1.477-3.851c-0.063-0.124-0.236-0.124-0.299-0.002
			c-0.382,0.746-1.373,2.762-1.478,3.858c0,0.008,0,0.014-0.001,0.021c-0.005,0.056-0.008,0.109-0.008,0.158
			c0,0.904,0.733,1.638,1.637,1.638c0.905,0,1.637-0.733,1.637-1.638c0-0.048-0.003-0.099-0.008-0.152
			C20.1,71.75,20.099,71.74,20.098,71.729z"/>
		<path style="fill:#231F20;" d="M18.819,49.434c0.824,0,1.501-0.609,1.617-1.402c0.012-0.078,0.024-0.156,0.024-0.238
			c0-0.049-0.004-0.1-0.009-0.152c0-0.012-0.002-0.021-0.002-0.033c-0.11-1.088-1.101-3.113-1.482-3.861
			c-0.063-0.123-0.236-0.123-0.299,0c-0.385,0.746-1.376,2.768-1.482,3.867c-0.001,0.008-0.002,0.016-0.002,0.021
			c-0.005,0.055-0.008,0.107-0.008,0.158c0,0.185,0.038,0.359,0.094,0.525C17.491,48.966,18.097,49.434,18.819,49.434z"/>
	</g>
</g>
<g id="Layer_1">
</g>
</svg>
