<?xml version="1.0" encoding="iso-8859-1"?>
<!-- Generator: Adobe Illustrator 16.0.0, SVG Export Plug-In . SVG Version: 6.00 Build 0)  -->
<!DOCTYPE svg PUBLIC "-//W3C//DTD SVG 1.1//EN" "http://www.w3.org/Graphics/SVG/1.1/DTD/svg11.dtd">
<svg version="1.1" xmlns="http://www.w3.org/2000/svg" xmlns:xlink="http://www.w3.org/1999/xlink" x="0px" y="0px"
	 width="37.954px" height="77.169px" viewBox="0 0 37.954 77.169" style="enable-background:new 0 0 37.954 77.169;"
	 xml:space="preserve">
<g id="QueenOnPawnOnDroneExpanded">
	<g>
		<path style="fill:#231F20;" d="M36.398,42.739L19.898,3.58c-0.156-0.371-0.52-0.612-0.922-0.612s-0.766,0.241-0.922,0.612
			l-16.5,39.159c-0.13,0.311-0.097,0.662,0.089,0.941s0.498,0.447,0.833,0.447h10.178l-3.982,9.969
			c-0.123,0.309-0.085,0.658,0.101,0.932c0.187,0.275,0.496,0.439,0.828,0.439h3.65L5.557,75.806
			c-0.116,0.307-0.074,0.651,0.113,0.922c0.187,0.271,0.494,0.432,0.822,0.432h24.954c0.328,0,0.636-0.161,0.822-0.432
			c0.188-0.271,0.229-0.615,0.113-0.922l-7.693-20.338h3.649c0.332,0,0.642-0.164,0.828-0.439c0.186-0.273,0.224-0.623,0.101-0.932
			l-3.982-9.969h10.192c0.335,0,0.647-0.168,0.833-0.447S36.528,43.05,36.398,42.739z M29.999,75.159H7.939l7.449-19.691h7.162
			L29.999,75.159z M26.861,53.469h-2.929h-2.139h-5.649h-2.138h-2.93l3.731-9.341h2.732h2.859h2.73L26.861,53.469z M24.485,42.128
			h-2.154h-6.724h-2.154h-9.47L18.977,6.543L33.97,42.128H24.485z"/>
		<path style="fill:#231F20;" d="M11.195,38.651c-0.11-1.088-1.101-3.113-1.482-3.863c-0.062-0.121-0.237-0.121-0.299,0
			c-0.384,0.748-1.376,2.77-1.481,3.869c-0.002,0.006-0.002,0.016-0.002,0.021c-0.006,0.055-0.008,0.107-0.008,0.156
			c0,0.908,0.734,1.643,1.641,1.643c0.908,0,1.643-0.734,1.643-1.643c0-0.047-0.003-0.098-0.008-0.15
			C11.197,38.673,11.196,38.661,11.195,38.651z"/>
		<path style="fill:#231F20;" d="M18.566,34.718c-0.071-0.017-0.146-0.004-0.185,0.07c-0.383,0.748-1.375,2.77-1.481,3.869
			c-0.001,0.006-0.001,0.016-0.002,0.021c-0.005,0.055-0.008,0.107-0.008,0.156c0,0.021,0.005,0.042,0.006,0.063
			c0.034,0.878,0.75,1.58,1.635,1.58c0.907,0,1.643-0.734,1.643-1.643c0-0.047-0.004-0.098-0.008-0.15
			c-0.002-0.012-0.002-0.023-0.004-0.033c-0.109-1.088-1.1-3.113-1.481-3.863C18.658,34.741,18.611,34.729,18.566,34.718z"/>
		<path style="fill:#231F20;" d="M15.165,71.682c-0.109-1.087-1.1-3.112-1.481-3.861c-0.062-0.122-0.235-0.122-0.299,0
			c-0.384,0.747-1.376,2.768-1.481,3.868c-0.002,0.007-0.002,0.015-0.003,0.021c-0.005,0.054-0.008,0.107-0.008,0.157
			c0,0.907,0.735,1.642,1.642,1.642c0.907,0,1.643-0.734,1.643-1.642c0-0.048-0.003-0.099-0.008-0.152
			C15.167,71.704,15.167,71.693,15.165,71.682z"/>
		<path style="fill:#231F20;" d="M19.649,71.682c-0.109-1.087-1.1-3.112-1.481-3.861c-0.062-0.122-0.237-0.122-0.299,0
			c-0.384,0.747-1.376,2.768-1.481,3.868c-0.002,0.007-0.002,0.015-0.002,0.021c-0.006,0.054-0.009,0.107-0.009,0.157
			c0,0.907,0.735,1.642,1.642,1.642c0.907,0,1.643-0.734,1.643-1.642c0-0.048-0.004-0.099-0.008-0.152
			C19.651,71.704,19.651,71.693,19.649,71.682z"/>
		<path style="fill:#231F20;" d="M15.679,38.651c-0.035-0.349-0.165-0.796-0.332-1.264c-0.354-0.993-0.89-2.089-1.149-2.599
			c-0.062-0.121-0.235-0.121-0.299,0c-0.384,0.748-1.376,2.77-1.481,3.869c-0.002,0.006-0.002,0.016-0.002,0.021
			c-0.006,0.055-0.009,0.107-0.009,0.156c0,0.908,0.735,1.643,1.642,1.643c0.023,0,0.044-0.006,0.067-0.007
			c0.875-0.036,1.575-0.75,1.575-1.636c0-0.047-0.003-0.098-0.008-0.15C15.681,38.673,15.681,38.661,15.679,38.651z"/>
		<path style="fill:#231F20;" d="M20.507,50.023c0-0.01-0.002-0.021-0.002-0.033c-0.11-1.086-1.101-3.111-1.482-3.861
			c-0.001-0.002-0.004-0.001-0.006-0.003c-0.017-0.03-0.049-0.032-0.076-0.047c-0.078-0.04-0.171-0.038-0.217,0.05
			c-0.385,0.748-1.376,2.768-1.482,3.869c-0.001,0.006-0.002,0.014-0.002,0.021c-0.005,0.053-0.008,0.107-0.008,0.156
			c0,0.114,0.012,0.225,0.034,0.332c0.153,0.748,0.814,1.311,1.609,1.311c0.906,0,1.642-0.734,1.642-1.643
			c0-0.032-0.003-0.068-0.006-0.104C20.509,50.057,20.509,50.041,20.507,50.023z"/>
	</g>
</g>
<g id="Layer_1">
</g>
</svg>
