<?xml version="1.0" encoding="iso-8859-1"?>
<!-- Generator: Adobe Illustrator 16.0.0, SVG Export Plug-In . SVG Version: 6.00 Build 0)  -->
<!DOCTYPE svg PUBLIC "-//W3C//DTD SVG 1.1//EN" "http://www.w3.org/Graphics/SVG/1.1/DTD/svg11.dtd">
<svg version="1.1" xmlns="http://www.w3.org/2000/svg" xmlns:xlink="http://www.w3.org/1999/xlink" x="0px" y="0px"
	 width="37.954px" height="77.169px" viewBox="0 0 37.954 77.169" style="enable-background:new 0 0 37.954 77.169;"
	 xml:space="preserve">
<g id="Queen">
	<g>
		<path style="fill:#231F20;" d="M35.477,77.179h-33c-0.335,0-0.647-0.168-0.833-0.447s-0.219-0.631-0.089-0.941l16.5-39.159
			c0.156-0.371,0.52-0.612,0.922-0.612s0.766,0.241,0.922,0.612l16.5,39.159c0.13,0.311,0.097,0.662-0.089,0.941
			S35.812,77.179,35.477,77.179z M3.983,75.179H33.97L18.977,39.594L3.983,75.179z"/>
		<path style="fill:#231F20;" d="M7.931,71.729c0-0.006,0-0.016,0.002-0.021c0.105-1.1,1.098-3.121,1.481-3.869
			c0.062-0.121,0.237-0.121,0.299,0c0.382,0.75,1.372,2.775,1.482,3.863c0.001,0.01,0.002,0.021,0.003,0.033
			c0.005,0.053,0.008,0.104,0.008,0.15c0,0.908-0.734,1.643-1.643,1.643c-0.906,0-1.641-0.734-1.641-1.643
			C7.923,71.837,7.925,71.784,7.931,71.729"/>
		<path style="fill:#231F20;" d="M12.415,71.729c0-0.006,0-0.016,0.002-0.021c0.105-1.1,1.098-3.121,1.481-3.869
			c0.063-0.121,0.237-0.121,0.299,0c0.382,0.75,1.372,2.775,1.481,3.863c0.002,0.01,0.002,0.021,0.004,0.033
			c0.005,0.053,0.008,0.104,0.008,0.15c0,0.908-0.735,1.643-1.643,1.643c-0.906,0-1.642-0.734-1.642-1.643
			C12.406,71.837,12.409,71.784,12.415,71.729"/>
		<path style="fill:#231F20;" d="M16.898,71.729c0.001-0.006,0.001-0.016,0.002-0.021c0.106-1.1,1.099-3.121,1.481-3.869
			c0.063-0.121,0.238-0.121,0.3,0c0.382,0.75,1.372,2.775,1.481,3.863c0.002,0.01,0.002,0.021,0.004,0.033
			c0.004,0.053,0.008,0.104,0.008,0.15c0,0.908-0.735,1.643-1.643,1.643c-0.906,0-1.642-0.734-1.642-1.643
			C16.891,71.837,16.894,71.784,16.898,71.729"/>
	</g>
</g>
<g id="Layer_1">
</g>
</svg>
