<?xml version="1.0" encoding="iso-8859-1"?>
<!-- Generator: Adobe Illustrator 16.0.0, SVG Export Plug-In . SVG Version: 6.00 Build 0)  -->
<!DOCTYPE svg PUBLIC "-//W3C//DTD SVG 1.1//EN" "http://www.w3.org/Graphics/SVG/1.1/DTD/svg11.dtd">
<svg version="1.1" xmlns="http://www.w3.org/2000/svg" xmlns:xlink="http://www.w3.org/1999/xlink" x="0px" y="0px"
	 width="37.954px" height="77.169px" viewBox="0 0 37.954 77.169" style="enable-background:new 0 0 37.954 77.169;"
	 xml:space="preserve">
<g id="QueenOnDroneExpanded">
	<g>
		<path style="fill:#231F20;" d="M36.398,54.811l-16.5-39.159c-0.156-0.371-0.52-0.612-0.922-0.612s-0.766,0.241-0.922,0.612
			l-16.5,39.159c-0.13,0.311-0.097,0.662,0.089,0.941s0.498,0.447,0.833,0.447h10.497L5.557,75.806
			c-0.116,0.307-0.074,0.651,0.113,0.922c0.187,0.271,0.494,0.432,0.822,0.432h24.954c0.328,0,0.636-0.161,0.822-0.432
			c0.188-0.271,0.229-0.615,0.113-0.922l-7.416-19.606h10.511c0.335,0,0.647-0.168,0.833-0.447S36.528,55.121,36.398,54.811z
			 M29.999,75.159H7.939l7.172-18.96h7.715L29.999,75.159z M24.209,54.199H22.07h-6.202H13.73H3.983l14.993-35.584L33.97,54.199
			H24.209z"/>
		<path style="fill:#231F20;" d="M11.195,50.723c-0.11-1.088-1.101-3.113-1.482-3.863c-0.062-0.121-0.237-0.121-0.299,0
			c-0.384,0.748-1.376,2.77-1.481,3.869c-0.002,0.006-0.002,0.016-0.002,0.021c-0.006,0.055-0.008,0.107-0.008,0.156
			c0,0.908,0.734,1.643,1.641,1.643c0.908,0,1.643-0.734,1.643-1.643c0-0.047-0.003-0.098-0.008-0.15
			C11.197,50.744,11.196,50.732,11.195,50.723z"/>
		<path style="fill:#231F20;" d="M18.652,46.842c-0.074-0.088-0.213-0.091-0.27,0.018c-0.383,0.748-1.375,2.77-1.481,3.869
			c-0.001,0.006-0.001,0.016-0.002,0.021c-0.005,0.055-0.008,0.107-0.008,0.156c0,0.148,0.026,0.289,0.063,0.426
			c0.188,0.7,0.821,1.217,1.579,1.217c0.907,0,1.643-0.734,1.643-1.643c0-0.047-0.004-0.098-0.008-0.15
			c-0.002-0.012-0.002-0.023-0.004-0.033c-0.109-1.088-1.1-3.113-1.481-3.863C18.676,46.848,18.66,46.852,18.652,46.842z"/>
		<path style="fill:#231F20;" d="M15.679,50.723c-0.029-0.287-0.122-0.643-0.247-1.021c-0.347-1.051-0.954-2.29-1.235-2.842
			c-0.062-0.121-0.235-0.121-0.299,0c-0.384,0.748-1.376,2.77-1.481,3.869c-0.002,0.006-0.002,0.016-0.002,0.021
			c-0.006,0.055-0.009,0.107-0.009,0.156c0,0.908,0.735,1.643,1.642,1.643c0.109,0,0.215-0.012,0.319-0.031
			c0.754-0.148,1.324-0.813,1.324-1.611c0-0.047-0.003-0.098-0.008-0.15C15.681,50.744,15.681,50.732,15.679,50.723z"/>
		<path style="fill:#231F20;" d="M13.385,67.82c-0.384,0.747-1.376,2.768-1.481,3.868c-0.002,0.007-0.002,0.015-0.003,0.021
			c-0.005,0.054-0.008,0.107-0.008,0.157c0,0.907,0.735,1.642,1.642,1.642c0.907,0,1.643-0.734,1.643-1.642
			c0-0.048-0.003-0.099-0.008-0.152c-0.002-0.011-0.002-0.021-0.004-0.033c-0.109-1.087-1.1-3.112-1.481-3.861
			C13.622,67.698,13.448,67.698,13.385,67.82z"/>
		<path style="fill:#231F20;" d="M18.019,73.509c0.907,0,1.643-0.734,1.643-1.642c0-0.048-0.004-0.099-0.008-0.152
			c-0.002-0.011-0.002-0.021-0.004-0.033c-0.109-1.087-1.1-3.112-1.481-3.861c-0.062-0.122-0.237-0.122-0.299,0
			c-0.384,0.747-1.376,2.768-1.481,3.868c-0.002,0.007-0.002,0.015-0.002,0.021c-0.006,0.054-0.009,0.107-0.009,0.157
			C16.377,72.774,17.112,73.509,18.019,73.509z"/>
	</g>
</g>
<g id="Layer_1">
</g>
</svg>
