<?xml version="1.0" encoding="iso-8859-1"?>
<!-- Generator: Adobe Illustrator 16.0.0, SVG Export Plug-In . SVG Version: 6.00 Build 0)  -->
<!DOCTYPE svg PUBLIC "-//W3C//DTD SVG 1.1//EN" "http://www.w3.org/Graphics/SVG/1.1/DTD/svg11.dtd">
<svg version="1.1" xmlns="http://www.w3.org/2000/svg" xmlns:xlink="http://www.w3.org/1999/xlink" x="0px" y="0px"
	 width="37.954px" height="77.169px" viewBox="0 0 37.954 77.169" style="enable-background:new 0 0 37.954 77.169;"
	 xml:space="preserve">
<g id="QueenOnPawnOnDrone">
	<g>
		<path style="fill:#231F20;" d="M11.19,50.722c-0.062-0.607-0.397-1.501-0.748-2.308c-0.278-0.64-0.565-1.224-0.735-1.556
			c-0.063-0.124-0.237-0.124-0.3-0.002c-0.383,0.748-1.376,2.771-1.482,3.871c-0.001,0.008-0.001,0.013-0.002,0.021
			c-0.005,0.056-0.008,0.109-0.008,0.159c0,0.62,0.349,1.155,0.856,1.434c0.234,0.128,0.5,0.208,0.787,0.208
			c0.907,0,1.642-0.735,1.642-1.642c0-0.048-0.002-0.1-0.007-0.153C11.192,50.742,11.191,50.733,11.19,50.722z"/>
		<g>
			<path style="fill:#231F20;" d="M36.388,54.822l-11.27-26.746l-4.231-10.042l-1.009-2.396c-0.153-0.362-0.509-0.598-0.902-0.598
				s-0.748,0.236-0.9,0.598l-1.01,2.396l-4.231,10.042L1.565,54.822c-0.127,0.303-0.095,0.646,0.086,0.92s0.487,0.438,0.815,0.438
				h4.025h6.501L5.564,75.815c-0.116,0.307-0.074,0.651,0.113,0.922c0.187,0.271,0.494,0.432,0.822,0.432h24.954
				c0.328,0,0.636-0.161,0.822-0.432c0.188-0.271,0.229-0.615,0.113-0.922L24.962,56.18h6.499h4.025
				c0.328,0,0.634-0.164,0.815-0.438S36.516,55.125,36.388,54.822z M30.007,75.169H7.947l7.184-18.989h7.693L30.007,75.169z
				 M32.107,54.224h-2.125H27.91l-7.976-18.709c-0.153-0.359-0.508-0.594-0.899-0.594s-0.746,0.235-0.899,0.594l-3.914,9.182h2.126
				l2.687-6.305l6.747,15.831h-1.561h-2.139h-6.212h-2.138h-1.445l0.004-0.01h-2.126l-0.005,0.011h-2.19l0.004-0.011H5.85
				l-0.005,0.011H3.939l11.018-26.147l4.019-9.541l4.02,9.541l11.018,26.147H32.107z"/>
			<path style="fill:#231F20;" d="M13.894,46.856c-0.383,0.748-1.376,2.771-1.482,3.871c-0.001,0.008-0.002,0.013-0.002,0.021
				c-0.005,0.056-0.008,0.109-0.008,0.159c0,0.564,0.285,1.063,0.719,1.357c0.264,0.18,0.581,0.284,0.923,0.284
				c0.115,0,0.226-0.012,0.334-0.034c0.747-0.155,1.309-0.815,1.309-1.607c0-0.048-0.003-0.1-0.008-0.153
				c-0.001-0.012-0.002-0.021-0.003-0.032c-0.028-0.28-0.123-0.629-0.243-0.995c-0.16-0.49-0.372-1.018-0.589-1.505
				c-0.25-0.563-0.499-1.065-0.651-1.363C14.132,46.734,13.958,46.734,13.894,46.856z"/>
			<path style="fill:#231F20;" d="M18.532,52.549c0.908,0,1.643-0.735,1.643-1.642c0-0.048-0.003-0.1-0.009-0.153
				c-0.001-0.012-0.002-0.021-0.003-0.032c-0.11-1.089-1.1-3.115-1.481-3.863c-0.004-0.009-0.015-0.005-0.02-0.013
				c-0.071-0.1-0.222-0.104-0.281,0.011c-0.383,0.748-1.377,2.771-1.482,3.871c-0.001,0.008-0.001,0.013-0.002,0.021
				c-0.005,0.056-0.008,0.109-0.008,0.159c0,0.155,0.028,0.302,0.068,0.444C17.152,52.041,17.779,52.549,18.532,52.549z"/>
		</g>
		<path style="fill:#231F20;" d="M13.691,67.83c-0.062-0.122-0.235-0.122-0.299,0c-0.384,0.747-1.376,2.768-1.481,3.868
			c-0.002,0.007-0.002,0.015-0.003,0.021c-0.005,0.054-0.008,0.107-0.008,0.157c0,0.907,0.735,1.642,1.642,1.642
			c0.907,0,1.643-0.734,1.643-1.642c0-0.048-0.003-0.099-0.008-0.152c-0.002-0.011-0.002-0.021-0.004-0.033
			C15.063,70.604,14.073,68.579,13.691,67.83z"/>
		<path style="fill:#231F20;" d="M18.026,73.519c0.907,0,1.643-0.734,1.643-1.642c0-0.048-0.004-0.099-0.008-0.152
			c-0.002-0.011-0.002-0.021-0.004-0.033c-0.109-1.087-1.1-3.112-1.481-3.861c-0.062-0.122-0.237-0.122-0.299,0
			c-0.384,0.747-1.376,2.768-1.481,3.868c-0.002,0.007-0.002,0.015-0.002,0.021c-0.006,0.054-0.009,0.107-0.009,0.157
			C16.385,72.784,17.12,73.519,18.026,73.519z"/>
	</g>
</g>
<g id="Layer_1">
</g>
</svg>
