<?xml version="1.0" encoding="iso-8859-1"?>
<!-- Generator: Adobe Illustrator 16.0.0, SVG Export Plug-In . SVG Version: 6.00 Build 0)  -->
<!DOCTYPE svg PUBLIC "-//W3C//DTD SVG 1.1//EN" "http://www.w3.org/Graphics/SVG/1.1/DTD/svg11.dtd">
<svg version="1.1" xmlns="http://www.w3.org/2000/svg" xmlns:xlink="http://www.w3.org/1999/xlink" x="0px" y="0px"
	 width="37.954px" height="77.169px" viewBox="0 0 37.954 77.169" style="enable-background:new 0 0 37.954 77.169;"
	 xml:space="preserve">
<g id="QueenOnQueenOnQueen">
	<g>
		<path style="fill:#231F20;" d="M9.549,52.436c0.908,0,1.643-0.736,1.643-1.643c0-0.048-0.003-0.099-0.008-0.151
			c-0.001-0.011-0.002-0.022-0.003-0.033c-0.048-0.472-0.265-1.121-0.522-1.767c-0.336-0.84-0.744-1.672-0.96-2.096
			c-0.062-0.122-0.237-0.122-0.299,0c-0.049,0.096-0.109,0.214-0.175,0.347c-0.326,0.657-0.817,1.71-1.098,2.605
			c-0.105,0.337-0.183,0.653-0.208,0.916c-0.002,0.007-0.002,0.016-0.002,0.022c-0.006,0.054-0.008,0.106-0.008,0.156
			c0,0.773,0.537,1.42,1.257,1.594C9.289,52.416,9.416,52.436,9.549,52.436z"/>
		<path style="fill:#231F20;" d="M18.518,52.436c0.907,0,1.643-0.736,1.643-1.643c0-0.048-0.004-0.099-0.008-0.151
			c-0.002-0.011-0.002-0.022-0.004-0.033c-0.109-1.087-1.1-3.113-1.481-3.862c-0.062-0.122-0.236-0.122-0.3,0
			c-0.383,0.747-1.375,2.769-1.481,3.868c-0.001,0.007-0.001,0.016-0.002,0.022c-0.005,0.054-0.008,0.106-0.008,0.156
			C16.876,51.699,17.611,52.436,18.518,52.436z"/>
		<path style="fill:#231F20;" d="M9.563,63.034c0.908,0,1.643-0.736,1.643-1.643c0-0.049-0.003-0.1-0.008-0.152
			c-0.001-0.01-0.002-0.021-0.003-0.033c-0.05-0.494-0.285-1.185-0.56-1.859c-0.329-0.808-0.714-1.595-0.922-2.002
			c-0.062-0.123-0.237-0.123-0.299,0c-0.384,0.746-1.376,2.768-1.481,3.867c-0.002,0.008-0.002,0.016-0.002,0.023
			c-0.006,0.053-0.008,0.105-0.008,0.156c0,0.748,0.504,1.374,1.188,1.571C9.256,63.005,9.406,63.034,9.563,63.034z"/>
		<path style="fill:#231F20;" d="M14.048,63.034c0.907,0,1.643-0.736,1.643-1.643c0-0.049-0.003-0.1-0.008-0.152
			c-0.002-0.01-0.002-0.021-0.004-0.033c-0.109-1.086-1.1-3.113-1.481-3.861c-0.062-0.123-0.235-0.123-0.299,0
			c-0.384,0.746-1.376,2.768-1.481,3.867c-0.002,0.008-0.002,0.016-0.002,0.023c-0.006,0.053-0.009,0.105-0.009,0.156
			C12.406,62.298,13.142,63.034,14.048,63.034z"/>
		<path style="fill:#231F20;" d="M18.532,63.034c0.907,0,1.643-0.736,1.643-1.643c0-0.049-0.004-0.1-0.008-0.152
			c-0.002-0.01-0.002-0.021-0.004-0.033c-0.109-1.086-1.1-3.113-1.481-3.861c-0.062-0.123-0.236-0.123-0.3,0
			c-0.383,0.746-1.375,2.768-1.481,3.867c-0.001,0.008-0.001,0.016-0.002,0.023c-0.005,0.053-0.008,0.105-0.008,0.156
			C16.891,62.298,17.626,63.034,18.532,63.034z"/>
		<path style="fill:#231F20;" d="M32.552,66.685h2.925c0.335,0,0.647-0.168,0.833-0.447s0.219-0.633,0.089-0.941l-3.88-9.21h2.943
			c0.335,0,0.647-0.168,0.833-0.447s0.219-0.633,0.089-0.941l-16.5-39.16c-0.156-0.371-0.52-0.612-0.922-0.612
			s-0.766,0.241-0.922,0.612l-16.5,39.16c-0.13,0.309-0.097,0.662,0.089,0.941s0.498,0.447,0.833,0.447h2.973l-3.88,9.21
			c-0.13,0.309-0.097,0.662,0.089,0.941s0.498,0.447,0.833,0.447h2.896L1.54,75.78c-0.13,0.309-0.097,0.662,0.089,0.941
			s0.498,0.447,0.833,0.447h33c0.335,0,0.647-0.168,0.833-0.447s0.219-0.633,0.089-0.941L32.552,66.685z M3.969,54.086
			l14.993-35.585l14.993,35.585h-2.279h-2.171h-2.262h-2.171H12.852h-2.171H8.449H6.278H3.969z M3.983,64.685l3.623-8.599h2.232
			h2.171h13.906h2.171h2.261l3.623,8.599h-2.261h-2.171H8.386H6.215H3.983z M3.969,75.169l3.575-8.484H30.38l3.575,8.484H3.969z"/>
		<path style="fill:#231F20;" d="M13.577,52.363c0.146,0.043,0.297,0.072,0.456,0.072c0.907,0,1.643-0.736,1.643-1.643
			c0-0.048-0.003-0.099-0.008-0.151c-0.002-0.011-0.002-0.022-0.004-0.033c-0.05-0.496-0.286-1.188-0.562-1.865
			c-0.328-0.806-0.712-1.59-0.92-1.997c-0.062-0.122-0.235-0.122-0.299,0c-0.384,0.747-1.376,2.769-1.481,3.868
			C12.4,50.621,12.4,50.63,12.4,50.637c-0.006,0.054-0.009,0.106-0.009,0.156C12.392,51.54,12.894,52.164,13.577,52.363z"/>
		<path style="fill:#231F20;" d="M11.181,71.69c-0.11-1.086-1.101-3.113-1.482-3.861c-0.062-0.123-0.237-0.123-0.299,0
			c-0.384,0.746-1.376,2.768-1.481,3.867c-0.002,0.008-0.002,0.016-0.002,0.023c-0.006,0.053-0.008,0.105-0.008,0.156
			c0,0.906,0.734,1.643,1.641,1.643c0.908,0,1.643-0.736,1.643-1.643c0-0.049-0.003-0.1-0.008-0.152
			C11.183,71.714,11.182,71.702,11.181,71.69z"/>
		<path style="fill:#231F20;" d="M15.664,71.69c-0.109-1.086-1.1-3.113-1.481-3.861c-0.062-0.123-0.235-0.123-0.299,0
			c-0.384,0.746-1.376,2.768-1.481,3.867C12.4,71.704,12.4,71.712,12.4,71.72c-0.006,0.053-0.009,0.105-0.009,0.156
			c0,0.906,0.735,1.643,1.642,1.643c0.907,0,1.643-0.736,1.643-1.643c0-0.049-0.003-0.1-0.008-0.152
			C15.666,71.714,15.666,71.702,15.664,71.69z"/>
		<path style="fill:#231F20;" d="M20.148,71.69c-0.109-1.086-1.1-3.113-1.481-3.861c-0.062-0.123-0.236-0.123-0.3,0
			c-0.383,0.746-1.375,2.768-1.481,3.867c-0.001,0.008-0.001,0.016-0.002,0.023c-0.005,0.053-0.008,0.105-0.008,0.156
			c0,0.906,0.735,1.643,1.642,1.643c0.907,0,1.643-0.736,1.643-1.643c0-0.049-0.004-0.1-0.008-0.152
			C20.15,71.714,20.15,71.702,20.148,71.69z"/>
	</g>
</g>
<g id="Layer_1">
</g>
</svg>
