<?xml version="1.0" encoding="iso-8859-1"?>
<!-- Generator: Adobe Illustrator 16.0.0, SVG Export Plug-In . SVG Version: 6.00 Build 0)  -->
<!DOCTYPE svg PUBLIC "-//W3C//DTD SVG 1.1//EN" "http://www.w3.org/Graphics/SVG/1.1/DTD/svg11.dtd">
<svg version="1.1" xmlns="http://www.w3.org/2000/svg" xmlns:xlink="http://www.w3.org/1999/xlink" x="0px" y="0px"
	 width="37.954px" height="77.169px" viewBox="0 0 37.954 77.169" style="enable-background:new 0 0 37.954 77.169;"
	 xml:space="preserve">
<g id="QueenOnQueenOnPawnExpanded">
	<g>
		<path style="fill:#231F20;" d="M32.565,56.199h2.911c0.335,0,0.647-0.168,0.833-0.447s0.219-0.631,0.089-0.941l-16.5-39.159
			c-0.156-0.371-0.52-0.612-0.922-0.612s-0.766,0.241-0.922,0.612l-16.5,39.159c-0.13,0.311-0.097,0.662,0.089,0.941
			s0.498,0.447,0.833,0.447h2.911l-3.833,9.097c-0.13,0.311-0.097,0.662,0.089,0.941s0.498,0.447,0.833,0.447h9.832l-3.637,9.104
			c-0.123,0.309-0.085,0.657,0.101,0.932c0.187,0.275,0.496,0.439,0.828,0.439h18.737c0.332,0,0.642-0.164,0.828-0.439
			c0.186-0.274,0.224-0.623,0.101-0.932l-3.637-9.104h9.847c0.335,0,0.647-0.168,0.833-0.447s0.219-0.631,0.089-0.941L32.565,56.199
			z M3.983,54.199l14.993-35.584L33.97,54.199h-2.247h-2.171h-8.91h-3.346H8.401H6.23H3.983z M26.861,75.159H11.077l3.385-8.475
			h9.013L26.861,75.159z M24.831,64.685h-2.154h-7.416h-2.154H3.983l3.575-8.485h8.938h2.153h0.637h2.153h8.954l3.575,8.485H24.831z
			"/>
		<path style="fill:#231F20;" d="M11.195,61.208c-0.11-1.088-1.101-3.113-1.482-3.863c-0.062-0.121-0.237-0.121-0.299,0
			c-0.384,0.748-1.376,2.77-1.481,3.869c-0.002,0.006-0.002,0.016-0.002,0.021c-0.006,0.055-0.008,0.107-0.008,0.156
			c0,0.908,0.734,1.643,1.641,1.643c0.908,0,1.643-0.734,1.643-1.643c0-0.047-0.003-0.098-0.008-0.15
			C11.197,61.229,11.196,61.218,11.195,61.208z"/>
		<path style="fill:#231F20;" d="M20.163,61.208c-0.109-1.088-1.1-3.113-1.481-3.863c-0.062-0.121-0.236-0.121-0.3,0
			c-0.383,0.748-1.375,2.77-1.481,3.869c-0.001,0.006-0.001,0.016-0.002,0.021c-0.005,0.055-0.008,0.107-0.008,0.156
			c0,0.908,0.735,1.643,1.642,1.643c0.907,0,1.643-0.734,1.643-1.643c0-0.047-0.004-0.098-0.008-0.15
			C20.165,61.229,20.165,61.218,20.163,61.208z"/>
		<path style="fill:#231F20;" d="M15.679,61.208c-0.046-0.459-0.251-1.084-0.5-1.711c-0.339-0.858-0.761-1.719-0.982-2.152
			c-0.062-0.121-0.235-0.121-0.299,0c-0.384,0.748-1.376,2.77-1.481,3.869c-0.002,0.006-0.002,0.016-0.002,0.021
			c-0.006,0.055-0.009,0.107-0.009,0.156c0,0.815,0.594,1.486,1.371,1.615c0.088,0.015,0.178,0.027,0.271,0.027
			c0.907,0,1.643-0.734,1.643-1.643c0-0.047-0.003-0.098-0.008-0.15C15.681,61.229,15.681,61.218,15.679,61.208z"/>
		<path style="fill:#231F20;" d="M18.874,73.509c0.906,0,1.642-0.734,1.642-1.642c0-0.048-0.004-0.099-0.009-0.152
			c0-0.011-0.002-0.021-0.002-0.033c-0.11-1.087-1.101-3.112-1.482-3.861c-0.063-0.122-0.236-0.122-0.299,0
			c-0.385,0.747-1.376,2.768-1.482,3.868c-0.001,0.007-0.002,0.015-0.002,0.021c-0.005,0.054-0.008,0.107-0.008,0.157
			C17.231,72.774,17.966,73.509,18.874,73.509z"/>
		<path style="fill:#231F20;" d="M9.563,52.549c0.908,0,1.643-0.734,1.643-1.643c0-0.047-0.003-0.098-0.008-0.15
			c-0.001-0.012-0.002-0.023-0.003-0.033c-0.05-0.491-0.281-1.173-0.553-1.842c-0.33-0.814-0.72-1.609-0.93-2.021
			c-0.062-0.121-0.237-0.121-0.299,0c-0.384,0.748-1.376,2.77-1.481,3.869c-0.002,0.006-0.002,0.016-0.002,0.021
			c-0.006,0.055-0.008,0.107-0.008,0.156c0,0.755,0.51,1.383,1.202,1.576C9.265,52.521,9.411,52.549,9.563,52.549z"/>
		<path style="fill:#231F20;" d="M14.048,52.549c0.907,0,1.643-0.734,1.643-1.643c0-0.047-0.003-0.098-0.008-0.15
			c-0.002-0.012-0.002-0.023-0.004-0.033c-0.109-1.088-1.1-3.113-1.481-3.863c-0.062-0.121-0.235-0.121-0.299,0
			c-0.384,0.748-1.376,2.77-1.481,3.869c-0.002,0.006-0.002,0.016-0.002,0.021c-0.006,0.055-0.009,0.107-0.009,0.156
			C12.406,51.814,13.142,52.549,14.048,52.549z"/>
		<path style="fill:#231F20;" d="M17.994,52.451c0.169,0.059,0.349,0.098,0.538,0.098c0.464,0,0.881-0.193,1.18-0.503
			c0.285-0.295,0.463-0.696,0.463-1.14c0-0.047-0.004-0.098-0.008-0.15c-0.002-0.012-0.002-0.023-0.004-0.033
			c-0.109-1.088-1.1-3.113-1.481-3.863c-0.062-0.121-0.236-0.121-0.3,0c-0.383,0.748-1.375,2.77-1.481,3.869
			c-0.001,0.006-0.001,0.016-0.002,0.021c-0.005,0.055-0.008,0.107-0.008,0.156C16.891,51.625,17.354,52.228,17.994,52.451z"/>
	</g>
</g>
<g id="Layer_1">
</g>
</svg>
