<?xml version="1.0" encoding="iso-8859-1"?>
<!-- Generator: Adobe Illustrator 16.0.0, SVG Export Plug-In . SVG Version: 6.00 Build 0)  -->
<!DOCTYPE svg PUBLIC "-//W3C//DTD SVG 1.1//EN" "http://www.w3.org/Graphics/SVG/1.1/DTD/svg11.dtd">
<svg version="1.1" xmlns="http://www.w3.org/2000/svg" xmlns:xlink="http://www.w3.org/1999/xlink" x="0px" y="0px"
	 width="37.954px" height="77.169px" viewBox="0 0 37.954 77.169" style="enable-background:new 0 0 37.954 77.169;"
	 xml:space="preserve">
<g id="QueenOnDroneOnQueen">
	<g>
		<path style="fill:#231F20;" d="M11.216,50.605c-0.062-0.605-0.396-1.496-0.745-2.301c-0.277-0.637-0.563-1.219-0.732-1.551
			c-0.063-0.123-0.236-0.123-0.299-0.002c-0.382,0.746-1.372,2.762-1.477,3.859c-0.001,0.008-0.001,0.014-0.002,0.02
			c-0.005,0.057-0.008,0.109-0.008,0.158c0,0.619,0.348,1.152,0.854,1.43c0.233,0.129,0.498,0.209,0.784,0.209
			c0.904,0,1.637-0.734,1.637-1.639c0-0.047-0.003-0.098-0.008-0.152C11.218,50.627,11.217,50.617,11.216,50.605z"/>
		<path style="fill:#231F20;" d="M18.534,52.428c0.904,0,1.637-0.734,1.637-1.639c0-0.047-0.002-0.098-0.008-0.152
			c0-0.01-0.002-0.02-0.002-0.031c-0.111-1.086-1.097-3.105-1.478-3.852c-0.063-0.123-0.236-0.123-0.3-0.002
			c-0.382,0.746-1.372,2.762-1.478,3.859c0,0.008,0,0.014-0.001,0.02c-0.005,0.057-0.008,0.109-0.008,0.158
			C16.897,51.693,17.63,52.428,18.534,52.428z"/>
		<path style="fill:#231F20;" d="M36.398,75.78l-8.315-19.735h3.338h4.014c0.324,0,0.631-0.164,0.811-0.436s0.213-0.615,0.086-0.918
			l-11.23-26.658l-4.219-10.009l-1.006-2.389c-0.152-0.361-0.506-0.596-0.898-0.596s-0.746,0.235-0.898,0.596l-1.006,2.389
			l-4.217,10.009L1.623,54.691c-0.127,0.303-0.095,0.646,0.086,0.918s0.485,0.436,0.812,0.436h4.013h3.329H9.87L1.555,75.78
			c-0.13,0.31-0.097,0.662,0.089,0.941s0.498,0.447,0.833,0.447h32.992h0.008c0.335,0,0.647-0.168,0.833-0.447
			S36.528,76.09,36.398,75.78z M10.684,54.096H10.19H8.007l0.005-0.012H5.894l-0.005,0.012H3.989l10.982-26.062l4.006-9.509
			l4.006,9.509l10.982,26.062h-1.898L20.979,28.034l-1.105-2.594c-0.152-0.36-0.506-0.593-0.896-0.593s-0.744,0.233-0.897,0.593
			l-1.104,2.594L9.93,44.6h2.119l6.929-16.288l10.971,25.784h-2.066h-0.62h-0.008h-2.163h-0.008H12.862h-0.008h-2.163H10.684z
			 M33.962,75.169H3.983l8.058-19.124h13.863h0.008l8.058,19.124H33.962z"/>
		<path style="fill:#231F20;" d="M13.588,52.354c0.002,0.001,0.005,0.001,0.007,0.001c0.148,0.045,0.304,0.072,0.467,0.072
			c0.904,0,1.637-0.734,1.637-1.639c0-0.047-0.003-0.098-0.008-0.152c-0.001-0.01-0.002-0.02-0.003-0.031
			c-0.051-0.5-0.288-1.195-0.565-1.875c-0.001-0.003-0.003-0.006-0.004-0.01c-0.084-0.205-0.172-0.41-0.259-0.607
			c-0.25-0.561-0.497-1.063-0.649-1.359c-0.062-0.123-0.235-0.123-0.299-0.002c-0.381,0.746-1.372,2.762-1.477,3.859
			c-0.001,0.008-0.002,0.014-0.002,0.02c-0.005,0.057-0.008,0.109-0.008,0.158c0,0.564,0.284,1.061,0.717,1.354
			C13.277,52.235,13.428,52.306,13.588,52.354z"/>
		<path style="fill:#231F20;" d="M11.195,71.691c-0.11-1.087-1.101-3.113-1.482-3.862c-0.032-0.063-0.092-0.091-0.153-0.089
			c-0.058,0.001-0.116,0.029-0.146,0.089c-0.384,0.747-1.376,2.769-1.481,3.868c-0.002,0.007-0.002,0.016-0.002,0.022
			c-0.006,0.054-0.008,0.106-0.008,0.156c0,0.906,0.732,1.64,1.637,1.643c0.001,0,0.002,0,0.004,0c0.908,0,1.643-0.735,1.643-1.643
			c0-0.048-0.003-0.099-0.008-0.151C11.197,71.714,11.196,71.702,11.195,71.691z"/>
		<path style="fill:#231F20;" d="M15.679,71.691c-0.109-1.087-1.1-3.113-1.481-3.862c-0.032-0.063-0.092-0.091-0.152-0.089
			c-0.058,0.001-0.116,0.029-0.146,0.089c-0.384,0.747-1.376,2.769-1.481,3.868c-0.002,0.007-0.002,0.016-0.002,0.022
			c-0.006,0.054-0.009,0.106-0.009,0.156c0,0.906,0.733,1.64,1.638,1.643c0.001,0,0.002,0,0.004,0c0.907,0,1.643-0.735,1.643-1.643
			c0-0.048-0.003-0.099-0.008-0.151C15.681,71.714,15.681,71.702,15.679,71.691z"/>
		<path style="fill:#231F20;" d="M20.163,71.691c-0.109-1.087-1.1-3.113-1.481-3.862c-0.032-0.063-0.092-0.091-0.153-0.089
			c-0.058,0.001-0.116,0.029-0.146,0.089c-0.383,0.747-1.375,2.769-1.481,3.868c-0.001,0.007-0.001,0.016-0.002,0.022
			c-0.005,0.054-0.008,0.106-0.008,0.156c0,0.906,0.733,1.64,1.638,1.643c0.001,0,0.002,0,0.004,0c0.907,0,1.643-0.735,1.643-1.643
			c0-0.048-0.004-0.099-0.008-0.151C20.165,71.714,20.165,71.702,20.163,71.691z"/>
	</g>
</g>
<g id="Layer_1">
</g>
</svg>
