<?xml version="1.0" encoding="iso-8859-1"?>
<!-- Generator: Adobe Illustrator 16.0.0, SVG Export Plug-In . SVG Version: 6.00 Build 0)  -->
<!DOCTYPE svg PUBLIC "-//W3C//DTD SVG 1.1//EN" "http://www.w3.org/Graphics/SVG/1.1/DTD/svg11.dtd">
<svg version="1.1" xmlns="http://www.w3.org/2000/svg" xmlns:xlink="http://www.w3.org/1999/xlink" x="0px" y="0px"
	 width="37.954px" height="77.169px" viewBox="0 0 37.954 77.169" style="enable-background:new 0 0 37.954 77.169;"
	 xml:space="preserve">
<g id="QueenOnDroneOnQueenExpanded">
	<g>
		<path style="fill:#231F20;" d="M27.837,55.463h3.173c0.328,0,0.636-0.162,0.822-0.432c0.188-0.271,0.229-0.615,0.113-0.922
			l-3.775-9.981h7.307c0.335,0,0.647-0.168,0.833-0.447s0.219-0.631,0.089-0.941L19.898,3.58c-0.156-0.371-0.52-0.612-0.922-0.612
			s-0.766,0.241-0.922,0.612l-16.5,39.159c-0.13,0.311-0.097,0.662,0.089,0.941s0.498,0.447,0.833,0.447h6.419L5.12,54.109
			c-0.116,0.307-0.074,0.65,0.113,0.922c0.187,0.27,0.494,0.432,0.822,0.432h4.06L1.555,75.78c-0.13,0.311-0.097,0.662,0.089,0.941
			s0.498,0.447,0.833,0.447h33c0.335,0,0.647-0.168,0.833-0.447s0.219-0.631,0.089-0.941L27.837,55.463z M3.983,42.128L18.977,6.543
			L33.97,42.128h-6.557h-2.138h-3.057h-2.171h-2.143h-2.17h-3.943H9.652H3.983z M7.503,53.463l3.531-9.335h3.857h2.17h3.829h2.171
			h2.97l3.531,9.335h-2.567h-2.171H13.129h-2.171H7.503z M3.983,75.169l8.303-19.706h13.38l8.303,19.706H3.983z"/>
		<path style="fill:#231F20;" d="M11.195,71.692c-0.11-1.088-1.101-3.113-1.482-3.863c-0.062-0.121-0.237-0.121-0.299,0
			c-0.384,0.748-1.376,2.77-1.481,3.869c-0.002,0.006-0.002,0.016-0.002,0.021c-0.006,0.055-0.008,0.107-0.008,0.156
			c0,0.908,0.734,1.643,1.641,1.643c0.908,0,1.643-0.734,1.643-1.643c0-0.047-0.003-0.098-0.008-0.15
			C11.197,71.714,11.196,71.702,11.195,71.692z"/>
		<path style="fill:#231F20;" d="M15.679,71.692c-0.109-1.088-1.1-3.113-1.481-3.863c-0.062-0.121-0.235-0.121-0.299,0
			c-0.384,0.748-1.376,2.77-1.481,3.869c-0.002,0.006-0.002,0.016-0.002,0.021c-0.006,0.055-0.009,0.107-0.009,0.156
			c0,0.908,0.735,1.643,1.642,1.643c0.907,0,1.643-0.734,1.643-1.643c0-0.047-0.003-0.098-0.008-0.15
			C15.681,71.714,15.681,71.702,15.679,71.692z"/>
		<path style="fill:#231F20;" d="M20.163,71.692c-0.109-1.088-1.1-3.113-1.481-3.863c-0.062-0.121-0.236-0.121-0.3,0
			c-0.383,0.748-1.375,2.77-1.481,3.869c-0.001,0.006-0.001,0.016-0.002,0.021c-0.005,0.055-0.008,0.107-0.008,0.156
			c0,0.908,0.735,1.643,1.642,1.643c0.907,0,1.643-0.734,1.643-1.643c0-0.047-0.004-0.098-0.008-0.15
			C20.165,71.714,20.165,71.702,20.163,71.692z"/>
		<path style="fill:#231F20;" d="M14.74,50.17c0-0.047-0.003-0.098-0.008-0.152c-0.002-0.01-0.002-0.021-0.004-0.033
			c-0.007-0.067-0.026-0.148-0.04-0.223c-0.141-0.787-0.612-1.906-1.01-2.755c-0.169-0.36-0.325-0.674-0.432-0.884
			c-0.062-0.121-0.235-0.121-0.299,0c-0.384,0.748-1.376,2.768-1.481,3.869c-0.002,0.006-0.002,0.014-0.003,0.021
			c-0.005,0.053-0.008,0.107-0.008,0.156c0,0.424,0.165,0.806,0.428,1.097c0.3,0.333,0.73,0.546,1.214,0.546
			c0.302,0,0.581-0.088,0.823-0.229C14.409,51.299,14.74,50.775,14.74,50.17z"/>
		<path style="fill:#231F20;" d="M17.582,51.813c0.907,0,1.643-0.734,1.643-1.643c0-0.047-0.004-0.098-0.008-0.152
			c-0.002-0.01-0.002-0.021-0.004-0.033c-0.109-1.086-1.1-3.111-1.481-3.861c-0.062-0.121-0.237-0.121-0.299,0
			c-0.384,0.748-1.376,2.768-1.481,3.869c-0.002,0.006-0.002,0.014-0.002,0.021c-0.006,0.053-0.009,0.107-0.009,0.156
			C15.94,51.078,16.676,51.813,17.582,51.813z"/>
		<path style="fill:#231F20;" d="M11.195,38.651c-0.013-0.125-0.04-0.264-0.073-0.409c-0.259-1.128-1.071-2.79-1.41-3.454
			c-0.062-0.121-0.237-0.121-0.299,0c-0.384,0.748-1.376,2.77-1.481,3.869c-0.002,0.006-0.002,0.016-0.002,0.021
			c-0.006,0.055-0.008,0.107-0.008,0.156c0,0.908,0.734,1.643,1.641,1.643c0.29,0,0.558-0.081,0.794-0.212
			c0.504-0.281,0.849-0.812,0.849-1.431c0-0.047-0.003-0.098-0.008-0.15C11.197,38.673,11.196,38.661,11.195,38.651z"/>
		<path style="fill:#231F20;" d="M14.048,40.478c0.907,0,1.643-0.734,1.643-1.643c0-0.047-0.003-0.098-0.008-0.15
			c-0.002-0.012-0.002-0.023-0.004-0.033c-0.093-0.925-0.82-2.521-1.271-3.441c-0.08-0.162-0.153-0.31-0.21-0.422
			c-0.062-0.121-0.235-0.121-0.299,0c-0.384,0.748-1.376,2.77-1.481,3.869c-0.002,0.006-0.002,0.016-0.002,0.021
			c-0.006,0.055-0.009,0.107-0.009,0.156c0,0.341,0.104,0.658,0.282,0.921C12.983,40.191,13.482,40.478,14.048,40.478z"/>
		<path style="fill:#231F20;" d="M18.532,40.478c0.024,0,0.047-0.006,0.071-0.007c0.242-0.011,0.468-0.074,0.671-0.178
			c0.532-0.271,0.9-0.819,0.9-1.458c0-0.047-0.004-0.098-0.008-0.15c-0.002-0.012-0.002-0.023-0.004-0.033
			c-0.068-0.677-0.478-1.716-0.868-2.586c-0.238-0.528-0.469-0.994-0.613-1.277c-0.062-0.121-0.236-0.121-0.3,0
			c-0.383,0.748-1.375,2.77-1.481,3.869c-0.001,0.006-0.001,0.016-0.002,0.021c-0.005,0.055-0.008,0.107-0.008,0.156
			c0,0.143,0.024,0.279,0.058,0.411C17.132,39.954,17.769,40.478,18.532,40.478z"/>
	</g>
</g>
<g id="Layer_1">
</g>
</svg>
