<?xml version="1.0" encoding="iso-8859-1"?>
<!-- Generator: Adobe Illustrator 16.0.0, SVG Export Plug-In . SVG Version: 6.00 Build 0)  -->
<!DOCTYPE svg PUBLIC "-//W3C//DTD SVG 1.1//EN" "http://www.w3.org/Graphics/SVG/1.1/DTD/svg11.dtd">
<svg version="1.1" xmlns="http://www.w3.org/2000/svg" xmlns:xlink="http://www.w3.org/1999/xlink" x="0px" y="0px"
	 width="37.954px" height="77.169px" viewBox="0 0 37.954 77.169" style="enable-background:new 0 0 37.954 77.169;"
	 xml:space="preserve">
<g id="QueenOnPawn">
	<g>
		<path style="fill:#231F20;" d="M36.383,75.812l-11.27-26.746l-4.231-10.042l-1.009-2.396c-0.153-0.362-0.509-0.598-0.902-0.598
			s-0.748,0.236-0.9,0.598l-1.01,2.396L12.83,49.065L1.56,75.812c-0.127,0.303-0.095,0.646,0.086,0.92s0.487,0.438,0.815,0.438
			h4.025h24.969h4.025c0.328,0,0.634-0.164,0.815-0.438S36.511,76.114,36.383,75.812z M32.103,75.213h-2.125h-2.072L19.93,56.504
			c-0.153-0.359-0.508-0.595-0.899-0.595s-0.746,0.235-0.899,0.595l-3.914,9.182h2.126l2.687-6.305l6.747,15.831H12.283l0.004-0.01
			h-2.126l-0.005,0.011h-2.19l0.004-0.011H5.845L5.84,75.213H3.934l11.018-26.147l4.019-9.541l4.02,9.541l11.018,26.147H32.103z"/>
		<path style="fill:#231F20;" d="M11.185,71.711c-0.062-0.607-0.397-1.501-0.748-2.308c-0.278-0.64-0.565-1.224-0.735-1.556
			c-0.063-0.124-0.237-0.124-0.3-0.002c-0.383,0.748-1.376,2.771-1.482,3.871c-0.001,0.008-0.001,0.013-0.002,0.021
			c-0.005,0.056-0.008,0.109-0.008,0.159c0,0.62,0.349,1.155,0.856,1.434c0.234,0.128,0.5,0.208,0.787,0.208
			c0.907,0,1.642-0.735,1.642-1.642c0-0.048-0.002-0.1-0.007-0.153C11.187,71.731,11.186,71.723,11.185,71.711z"/>
		<path style="fill:#231F20;" d="M13.889,67.846c-0.383,0.748-1.376,2.771-1.482,3.871c-0.001,0.008-0.002,0.013-0.002,0.021
			c-0.005,0.056-0.008,0.109-0.008,0.159c0,0.564,0.285,1.063,0.719,1.357c0.264,0.18,0.581,0.284,0.923,0.284
			c0.907,0,1.643-0.735,1.643-1.642c0-0.048-0.003-0.1-0.008-0.153c-0.001-0.012-0.002-0.021-0.003-0.032
			c-0.066-0.655-0.452-1.648-0.832-2.5c-0.25-0.563-0.499-1.065-0.651-1.363C14.127,67.724,13.953,67.724,13.889,67.846z"/>
		<path style="fill:#231F20;" d="M18.527,73.538c0.908,0,1.643-0.735,1.643-1.642c0-0.048-0.003-0.1-0.009-0.153
			c-0.001-0.012-0.002-0.021-0.003-0.032c-0.11-1.089-1.1-3.115-1.481-3.863c-0.063-0.124-0.237-0.124-0.3-0.002
			c-0.383,0.748-1.377,2.771-1.482,3.871c-0.001,0.008-0.001,0.013-0.002,0.021c-0.005,0.056-0.008,0.109-0.008,0.159
			C16.884,72.803,17.62,73.538,18.527,73.538z"/>
	</g>
</g>
<g id="Layer_1">
</g>
</svg>
