<?xml version="1.0" encoding="iso-8859-1"?>
<!-- Generator: Adobe Illustrator 16.0.0, SVG Export Plug-In . SVG Version: 6.00 Build 0)  -->
<!DOCTYPE svg PUBLIC "-//W3C//DTD SVG 1.1//EN" "http://www.w3.org/Graphics/SVG/1.1/DTD/svg11.dtd">
<svg version="1.1" xmlns="http://www.w3.org/2000/svg" xmlns:xlink="http://www.w3.org/1999/xlink" x="0px" y="0px"
	 width="37.954px" height="77.169px" viewBox="0 0 37.954 77.169" style="enable-background:new 0 0 37.954 77.169;"
	 xml:space="preserve">
<g id="QueenOnDrone">
	<g>
		<path style="fill:#231F20;" d="M36.396,75.811L25.123,49.055L20.89,39.01l-1.011-2.398c-0.152-0.362-0.507-0.598-0.9-0.598
			c-0.394,0-0.749,0.236-0.902,0.598l-1.01,2.398l-4.233,10.045L1.561,75.811c-0.127,0.304-0.095,0.647,0.086,0.921
			c0.182,0.272,0.487,0.438,0.815,0.438h4.027h24.978h4.027c0.327,0,0.634-0.165,0.813-0.438
			C36.489,76.458,36.522,76.114,36.396,75.811z M32.115,75.213L20.986,49.055l-1.108-2.603c-0.153-0.361-0.508-0.595-0.899-0.595
			c-0.393,0-0.747,0.233-0.901,0.595l-1.107,2.603L9.897,65.681h2.126l6.955-16.347l11.01,25.879h-2.074H10.159H7.968l0.005-0.012
			H5.846l-0.005,0.012H3.935l11.022-26.158l4.021-9.543l4.021,9.543l11.021,26.158H32.115z"/>
		<path style="fill:#231F20;" d="M9.405,67.842c-0.383,0.749-1.377,2.772-1.482,3.873c-0.001,0.008-0.001,0.014-0.002,0.021
			c-0.005,0.056-0.008,0.109-0.008,0.158c0,0.622,0.349,1.156,0.857,1.436c0.234,0.128,0.5,0.208,0.787,0.208
			c0.908,0,1.643-0.735,1.643-1.644c0-0.048-0.003-0.099-0.008-0.152c-0.001-0.011-0.002-0.021-0.003-0.032
			c-0.062-0.608-0.397-1.502-0.748-2.309c-0.278-0.639-0.566-1.225-0.735-1.557C9.643,67.72,9.468,67.72,9.405,67.842z"/>
		<path style="fill:#231F20;" d="M13.121,73.252c0.264,0.18,0.582,0.285,0.924,0.285c0.908,0,1.644-0.735,1.644-1.644
			c0-0.048-0.003-0.099-0.008-0.152c-0.001-0.011-0.002-0.021-0.003-0.032c-0.066-0.655-0.452-1.648-0.832-2.501
			c-0.251-0.563-0.499-1.066-0.651-1.364c-0.062-0.124-0.236-0.124-0.3-0.002c-0.383,0.749-1.377,2.772-1.482,3.873
			c-0.001,0.008-0.002,0.014-0.002,0.021c-0.005,0.056-0.008,0.109-0.008,0.158C12.401,72.459,12.687,72.958,13.121,73.252z"/>
		<path style="fill:#231F20;" d="M18.533,73.537c0.908,0,1.643-0.735,1.643-1.644c0-0.048-0.003-0.099-0.008-0.152
			c-0.001-0.011-0.002-0.021-0.003-0.032c-0.11-1.089-1.1-3.116-1.482-3.865c-0.063-0.124-0.237-0.124-0.3-0.002
			c-0.384,0.749-1.378,2.772-1.483,3.873c0,0.008,0,0.014-0.001,0.021c-0.005,0.056-0.008,0.109-0.008,0.158
			C16.89,72.802,17.625,73.537,18.533,73.537z"/>
	</g>
</g>
<g id="Layer_1">
</g>
</svg>
