<?xml version="1.0" encoding="iso-8859-1"?>
<!-- Generator: Adobe Illustrator 16.0.0, SVG Export Plug-In . SVG Version: 6.00 Build 0)  -->
<!DOCTYPE svg PUBLIC "-//W3C//DTD SVG 1.1//EN" "http://www.w3.org/Graphics/SVG/1.1/DTD/svg11.dtd">
<svg version="1.1" xmlns="http://www.w3.org/2000/svg" xmlns:xlink="http://www.w3.org/1999/xlink" x="0px" y="0px"
	 width="37.954px" height="77.169px" viewBox="0 0 37.954 77.169" style="enable-background:new 0 0 37.954 77.169;"
	 xml:space="preserve">
<g id="QueenOnQueenOnPawn">
	<g>
		<path style="fill:#231F20;" d="M30.096,60.867h5.395c0.336,0,0.648-0.168,0.834-0.447s0.219-0.633,0.088-0.941l-16.5-39.16
			c-0.156-0.371-0.519-0.612-0.921-0.612c-0.402,0-0.766,0.241-0.922,0.612l-16.5,39.16c-0.13,0.309-0.097,0.662,0.089,0.941
			s0.498,0.447,0.833,0.447h5.394L1.587,75.812c-0.127,0.304-0.095,0.647,0.086,0.92c0.181,0.273,0.487,0.438,0.814,0.438h4.023
			h24.957h4.023c0.328,0,0.634-0.164,0.814-0.438c0.182-0.272,0.214-0.616,0.086-0.92L30.096,60.867z M3.998,58.867l14.993-35.585
			l14.994,35.585h-4.731h-2.121H20.95h-3.804h-6.298H8.727H3.998z M12.305,75.212l0.004-0.009h-2.125l-0.005,0.011H7.99l0.005-0.011
			H5.87l-0.004,0.011H3.96l6.045-14.347h6.288l-2.056,4.823h2.125l2.056-4.823h1.26l6.114,14.345H12.305z M32.115,75.214H29.99
			h-2.07l-6.116-14.347h6.172l6.045,14.347H32.115z"/>
		<path style="fill:#231F20;" d="M11.208,71.713c-0.062-0.606-0.397-1.5-0.747-2.305c-0.278-0.64-0.565-1.225-0.735-1.557
			c-0.063-0.124-0.236-0.124-0.3-0.002c-0.383,0.749-1.376,2.77-1.481,3.869c-0.001,0.008-0.001,0.014-0.002,0.021
			c-0.005,0.055-0.008,0.108-0.008,0.158c0,0.62,0.349,1.155,0.856,1.434c0.234,0.127,0.5,0.208,0.786,0.208
			c0.907,0,1.642-0.734,1.642-1.642c0-0.048-0.003-0.1-0.008-0.152C11.209,71.734,11.208,71.725,11.208,71.713z"/>
		<path style="fill:#231F20;" d="M15.692,71.713c-0.067-0.654-0.452-1.646-0.832-2.499c-0.25-0.562-0.498-1.064-0.65-1.362
			c-0.063-0.124-0.236-0.124-0.3-0.002c-0.383,0.749-1.375,2.77-1.481,3.869c-0.001,0.008-0.002,0.014-0.002,0.021
			c-0.005,0.055-0.008,0.108-0.008,0.158c0,0.565,0.286,1.063,0.719,1.357c0.264,0.179,0.581,0.284,0.923,0.284
			c0.906,0,1.642-0.734,1.642-1.642c0-0.048-0.003-0.1-0.008-0.152C15.694,71.734,15.693,71.725,15.692,71.713z"/>
		<path style="fill:#231F20;" d="M18.395,67.85c-0.383,0.749-1.376,2.77-1.481,3.869c-0.001,0.008-0.001,0.014-0.002,0.021
			c-0.005,0.055-0.008,0.108-0.008,0.158c0,0.907,0.735,1.642,1.642,1.642c0.908,0,1.642-0.734,1.642-1.642
			c0-0.048-0.003-0.1-0.008-0.152c-0.001-0.012-0.002-0.021-0.003-0.033c-0.11-1.088-1.1-3.112-1.481-3.861
			C18.633,67.728,18.459,67.728,18.395,67.85z"/>
		<path style="fill:#231F20;" d="M11.212,55.422c-0.001-0.01-0.002-0.021-0.003-0.033c-0.041-0.396-0.199-0.92-0.402-1.459
			c-0.352-0.938-0.838-1.928-1.081-2.402c-0.062-0.123-0.237-0.123-0.299,0c-0.384,0.746-1.376,2.768-1.481,3.867
			c-0.002,0.008-0.002,0.016-0.002,0.023c-0.006,0.053-0.008,0.105-0.008,0.156c0,0.855,0.656,1.551,1.492,1.627
			c0.05,0.005,0.098,0.016,0.149,0.016c0.908,0,1.643-0.736,1.643-1.643C11.22,55.525,11.217,55.475,11.212,55.422z"/>
		<path style="fill:#231F20;" d="M14.062,57.217c0.907,0,1.643-0.736,1.643-1.643c0-0.049-0.003-0.1-0.008-0.152
			c-0.002-0.01-0.002-0.021-0.004-0.033c-0.109-1.086-1.1-3.113-1.481-3.861c-0.054-0.107-0.184-0.104-0.26-0.023
			c-0.011,0.012-0.03,0.008-0.039,0.023c-0.331,0.643-1.11,2.23-1.388,3.361c-0.044,0.182-0.079,0.354-0.093,0.506
			c-0.002,0.008-0.002,0.016-0.002,0.023c-0.006,0.053-0.009,0.105-0.009,0.156C12.42,56.48,13.156,57.217,14.062,57.217z"/>
		<path style="fill:#231F20;" d="M17.906,57.086c0.197,0.084,0.413,0.131,0.641,0.131c0.576,0,1.082-0.298,1.375-0.746
			c0.169-0.258,0.269-0.565,0.269-0.896c0-0.049-0.004-0.1-0.008-0.152c-0.002-0.01-0.002-0.021-0.004-0.033
			c-0.109-1.086-1.1-3.113-1.482-3.861c-0.062-0.123-0.236-0.123-0.3,0c-0.383,0.746-1.375,2.768-1.481,3.867
			c-0.001,0.008-0.001,0.016-0.002,0.023c-0.005,0.053-0.008,0.105-0.008,0.156C16.905,56.253,17.317,56.836,17.906,57.086z"/>
	</g>
</g>
<g id="Layer_1">
</g>
</svg>
