<?xml version="1.0" encoding="iso-8859-1"?>
<!-- Generator: Adobe Illustrator 16.0.0, SVG Export Plug-In . SVG Version: 6.00 Build 0)  -->
<!DOCTYPE svg PUBLIC "-//W3C//DTD SVG 1.1//EN" "http://www.w3.org/Graphics/SVG/1.1/DTD/svg11.dtd">
<svg version="1.1" xmlns="http://www.w3.org/2000/svg" xmlns:xlink="http://www.w3.org/1999/xlink" x="0px" y="0px"
	 width="37.954px" height="77.169px" viewBox="0 0 37.954 77.169" style="enable-background:new 0 0 37.954 77.169;"
	 xml:space="preserve">
<g id="QueenOnQueen">
	<g>
		<path style="fill:#231F20;" d="M9.564,62.642c0.908,0,1.643-0.736,1.643-1.643c0-0.049-0.003-0.1-0.008-0.152
			c-0.001-0.01-0.002-0.021-0.003-0.033c-0.044-0.437-0.232-1.024-0.464-1.62c-0.345-0.888-0.79-1.793-1.018-2.241
			c-0.036-0.073-0.107-0.089-0.177-0.075c-0.048,0.009-0.097,0.025-0.122,0.075c-0.359,0.698-1.241,2.504-1.441,3.635
			c-0.014,0.078-0.033,0.162-0.04,0.232c-0.002,0.008-0.002,0.016-0.002,0.023c-0.006,0.053-0.008,0.105-0.008,0.156
			c0,0.813,0.592,1.483,1.367,1.615C9.38,62.629,9.471,62.642,9.564,62.642z"/>
		<path style="fill:#231F20;" d="M14.049,62.642c0.907,0,1.643-0.736,1.643-1.643c0-0.049-0.003-0.1-0.008-0.152
			c-0.002-0.01-0.002-0.021-0.004-0.033c-0.109-1.086-1.1-3.113-1.481-3.861c-0.062-0.123-0.235-0.123-0.299,0
			c-0.384,0.746-1.376,2.768-1.481,3.867c-0.002,0.008-0.002,0.016-0.002,0.023c-0.006,0.053-0.009,0.105-0.009,0.156
			C12.407,61.905,13.143,62.642,14.049,62.642z"/>
		<path style="fill:#231F20;" d="M18.533,62.642c0.907,0,1.643-0.736,1.643-1.643c0-0.049-0.004-0.1-0.008-0.152
			c-0.002-0.01-0.002-0.021-0.004-0.033c-0.109-1.086-1.1-3.113-1.481-3.861c-0.062-0.123-0.236-0.123-0.3,0
			c-0.383,0.746-1.375,2.768-1.481,3.867c-0.001,0.008-0.001,0.016-0.002,0.023c-0.005,0.053-0.008,0.105-0.008,0.156
			C16.892,61.905,17.627,62.642,18.533,62.642z"/>
		<path style="fill:#231F20;" d="M32.385,66.292h3.093c0.335,0,0.647-0.168,0.833-0.447s0.219-0.633,0.089-0.941l-16.5-39.16
			c-0.156-0.371-0.52-0.612-0.922-0.612s-0.766,0.241-0.922,0.612l-16.5,39.16c-0.13,0.309-0.097,0.662,0.089,0.941
			s0.498,0.447,0.833,0.447H5.57l-4.014,9.527c-0.13,0.31-0.097,0.662,0.089,0.941s0.498,0.447,0.833,0.447h33
			c0.335,0,0.647-0.168,0.833-0.447s0.219-0.632,0.089-0.941L32.385,66.292z M3.984,64.292l14.993-35.585l14.993,35.585h-2.429
			h-2.171H8.583H6.413H3.984z M3.984,75.208l3.757-8.916h22.473l3.757,8.916H3.984z"/>
		<path style="fill:#231F20;" d="M11.196,71.73c-0.11-1.087-1.101-3.113-1.482-3.862c-0.062-0.122-0.237-0.122-0.299,0
			c-0.384,0.747-1.376,2.769-1.481,3.868c-0.002,0.007-0.002,0.016-0.002,0.022c-0.006,0.054-0.008,0.106-0.008,0.156
			c0,0.907,0.734,1.643,1.641,1.643c0.908,0,1.643-0.735,1.643-1.643c0-0.048-0.003-0.099-0.008-0.151
			C11.198,71.753,11.197,71.741,11.196,71.73z"/>
		<path style="fill:#231F20;" d="M15.68,71.73c-0.109-1.087-1.1-3.113-1.481-3.862c-0.062-0.122-0.235-0.122-0.299,0
			c-0.384,0.747-1.376,2.769-1.481,3.868c-0.002,0.007-0.002,0.016-0.002,0.022c-0.006,0.054-0.009,0.106-0.009,0.156
			c0,0.907,0.735,1.643,1.642,1.643c0.907,0,1.643-0.735,1.643-1.643c0-0.048-0.003-0.099-0.008-0.151
			C15.682,71.753,15.682,71.741,15.68,71.73z"/>
		<path style="fill:#231F20;" d="M20.164,71.73c-0.109-1.087-1.1-3.113-1.481-3.862c-0.062-0.122-0.236-0.122-0.3,0
			c-0.383,0.747-1.375,2.769-1.481,3.868c-0.001,0.007-0.001,0.016-0.002,0.022c-0.005,0.054-0.008,0.106-0.008,0.156
			c0,0.907,0.735,1.643,1.642,1.643c0.907,0,1.643-0.735,1.643-1.643c0-0.048-0.004-0.099-0.008-0.151
			C20.166,71.753,20.166,71.741,20.164,71.73z"/>
	</g>
</g>
<g id="Layer_1">
</g>
</svg>
