<?xml version="1.0" encoding="iso-8859-1"?>
<!-- Generator: Adobe Illustrator 16.0.0, SVG Export Plug-In . SVG Version: 6.00 Build 0)  -->
<!DOCTYPE svg PUBLIC "-//W3C//DTD SVG 1.1//EN" "http://www.w3.org/Graphics/SVG/1.1/DTD/svg11.dtd">
<svg version="1.1" xmlns="http://www.w3.org/2000/svg" xmlns:xlink="http://www.w3.org/1999/xlink" x="0px" y="0px"
	 width="37.954px" height="77.169px" viewBox="0 0 37.954 77.169" style="enable-background:new 0 0 37.954 77.169;"
	 xml:space="preserve">
<g id="QueenOnPawnExpanded">
	<g>
		<path style="fill:#231F20;" d="M36.398,54.811l-16.5-39.159c-0.156-0.371-0.52-0.612-0.922-0.612s-0.766,0.241-0.922,0.612
			l-16.5,39.159c-0.13,0.311-0.097,0.662,0.089,0.941s0.498,0.447,0.833,0.447h14.02L8.672,75.788
			c-0.123,0.309-0.085,0.657,0.101,0.932c0.187,0.275,0.496,0.439,0.828,0.439h18.737c0.332,0,0.642-0.164,0.828-0.439
			c0.186-0.274,0.224-0.623,0.101-0.932l-7.825-19.589h14.035c0.335,0,0.647-0.168,0.833-0.447S36.528,55.121,36.398,54.811z
			 M26.861,75.159H11.077l7.573-18.96h0.637L26.861,75.159z M20.642,54.199h-3.346H3.983l14.993-35.584L33.97,54.199H20.642z"/>
		<path style="fill:#231F20;" d="M11.195,50.723c-0.11-1.088-1.101-3.113-1.482-3.863c-0.062-0.121-0.237-0.121-0.299,0
			c-0.384,0.748-1.376,2.77-1.481,3.869c-0.002,0.006-0.002,0.016-0.002,0.021c-0.006,0.055-0.008,0.107-0.008,0.156
			c0,0.908,0.734,1.643,1.641,1.643c0.908,0,1.643-0.734,1.643-1.643c0-0.047-0.003-0.098-0.008-0.15
			C11.197,50.744,11.196,50.732,11.195,50.723z"/>
		<path style="fill:#231F20;" d="M15.679,50.723c-0.109-1.088-1.1-3.113-1.481-3.863c-0.062-0.121-0.235-0.121-0.299,0
			c-0.384,0.748-1.376,2.77-1.481,3.869c-0.002,0.006-0.002,0.016-0.002,0.021c-0.006,0.055-0.009,0.107-0.009,0.156
			c0,0.908,0.735,1.643,1.642,1.643c0.907,0,1.643-0.734,1.643-1.643c0-0.047-0.003-0.098-0.008-0.15
			C15.681,50.744,15.681,50.732,15.679,50.723z"/>
		<path style="fill:#231F20;" d="M18.382,46.859c-0.383,0.748-1.375,2.77-1.481,3.869c-0.001,0.006-0.001,0.016-0.002,0.021
			c-0.005,0.055-0.008,0.107-0.008,0.156c0,0.719,0.463,1.322,1.103,1.545c0.169,0.06,0.349,0.098,0.539,0.098
			c0.464,0,0.881-0.193,1.18-0.502c0.285-0.296,0.463-0.696,0.463-1.141c0-0.047-0.004-0.098-0.008-0.15
			c-0.002-0.012-0.002-0.023-0.004-0.033c-0.109-1.088-1.1-3.113-1.481-3.863C18.62,46.738,18.445,46.738,18.382,46.859z"/>
		<path style="fill:#231F20;" d="M17.239,71.71c-0.005,0.054-0.008,0.107-0.008,0.157c0,0.907,0.734,1.642,1.643,1.642
			c0.906,0,1.642-0.734,1.642-1.642c0-0.048-0.004-0.099-0.009-0.152c0-0.011-0.002-0.021-0.002-0.033
			c-0.11-1.087-1.101-3.112-1.482-3.861c-0.063-0.122-0.236-0.122-0.299,0c-0.385,0.747-1.376,2.768-1.482,3.868
			C17.24,71.695,17.239,71.703,17.239,71.71z"/>
	</g>
</g>
<g id="Layer_1">
</g>
</svg>
