<?xml version="1.0" encoding="iso-8859-1"?>
<!-- Generator: Adobe Illustrator 16.0.0, SVG Export Plug-In . SVG Version: 6.00 Build 0)  -->
<!DOCTYPE svg PUBLIC "-//W3C//DTD SVG 1.1//EN" "http://www.w3.org/Graphics/SVG/1.1/DTD/svg11.dtd">
<svg version="1.1" xmlns="http://www.w3.org/2000/svg" xmlns:xlink="http://www.w3.org/1999/xlink" x="0px" y="0px"
	 width="37.954px" height="77.169px" viewBox="0 0 37.954 77.169" style="enable-background:new 0 0 37.954 77.169;"
	 xml:space="preserve">
<g id="QueenOnPawnOnQueen">
	<g>
		<path style="fill:#231F20;" d="M36.398,75.78L28.14,56.18h3.321h4.025c0.328,0,0.634-0.164,0.815-0.438s0.214-0.617,0.086-0.92
			l-11.27-26.746l-4.231-10.042l-1.009-2.396c-0.153-0.362-0.509-0.598-0.902-0.598s-0.748,0.236-0.9,0.598l-1.01,2.396
			l-4.231,10.042L1.565,54.822c-0.127,0.303-0.095,0.646,0.086,0.92s0.487,0.438,0.815,0.438h4.025h3.322L1.555,75.78
			c-0.065,0.155-0.089,0.321-0.074,0.483c0.014,0.165,0.068,0.326,0.163,0.469c0.186,0.279,0.498,0.447,0.833,0.447h33
			c0.335,0,0.647-0.168,0.833-0.447c0.095-0.143,0.148-0.304,0.162-0.469C36.487,76.102,36.464,75.936,36.398,75.78z M33.965,75.169
			H3.988l8.001-18.989h13.975L33.965,75.169z M10.166,54.213l-0.005,0.011h-2.19l0.004-0.011H5.85l-0.005,0.011H3.939l11.018-26.147
			l4.019-9.541l4.02,9.541l11.018,26.147h-1.906h-2.125H27.91l-0.005-0.011h-0.595l-0.919-2.181l-6.493-15.412
			c-0.156-0.371-0.52-0.612-0.922-0.612s-0.766,0.241-0.922,0.612l-3.403,8.076h0.004h1.692l2.687-6.305l5.813,13.641l0.93,2.181
			l0.004,0.01h-0.638l-0.004-0.01h-0.005l0.004,0.01H12.813h-0.005h-0.521l0.004-0.01h-1.646h-0.004H10.166z"/>
		<path style="fill:#231F20;" d="M11.198,71.725c-0.001-0.011-0.002-0.022-0.003-0.033c-0.11-1.087-1.101-3.113-1.482-3.862
			c-0.062-0.122-0.237-0.122-0.299,0c-0.384,0.747-1.376,2.769-1.481,3.868c-0.002,0.007-0.002,0.016-0.002,0.022
			c-0.006,0.054-0.008,0.106-0.008,0.156c0,0.001,0,0.002,0,0.004s0,0.005,0,0.007c0,0.907,0.734,1.643,1.641,1.643
			c0.908,0,1.643-0.735,1.643-1.643c0-0.002,0-0.005,0-0.007s0-0.003,0-0.004C11.206,71.828,11.203,71.777,11.198,71.725z"/>
		<path style="fill:#231F20;" d="M11.2,50.907c0-0.048-0.002-0.1-0.007-0.153c-0.001-0.012-0.002-0.021-0.003-0.032
			c-0.062-0.607-0.397-1.501-0.748-2.308c-0.278-0.64-0.565-1.224-0.735-1.556c-0.063-0.124-0.237-0.124-0.3-0.002
			c-0.383,0.748-1.376,2.771-1.482,3.871c-0.001,0.008-0.001,0.013-0.002,0.021c-0.005,0.056-0.008,0.109-0.008,0.159
			c0,0.62,0.349,1.155,0.856,1.434c0.234,0.128,0.5,0.208,0.787,0.208C10.465,52.549,11.2,51.813,11.2,50.907z"/>
		<path style="fill:#231F20;" d="M18.532,52.549c0.908,0,1.643-0.735,1.643-1.642c0-0.048-0.003-0.1-0.009-0.153
			c-0.001-0.012-0.002-0.021-0.003-0.032c-0.11-1.089-1.1-3.115-1.481-3.863c-0.063-0.124-0.237-0.124-0.3-0.002
			c-0.383,0.748-1.377,2.771-1.482,3.871c-0.001,0.008-0.001,0.013-0.002,0.021c-0.005,0.056-0.008,0.109-0.008,0.159
			C16.889,51.813,17.625,52.549,18.532,52.549z"/>
		<path style="fill:#231F20;" d="M13.122,52.265c0.13,0.089,0.273,0.157,0.425,0.206c0.001,0,0.002,0.002,0.004,0.002
			c0.156,0.049,0.322,0.076,0.494,0.076c0.907,0,1.643-0.735,1.643-1.642c0-0.048-0.003-0.1-0.008-0.153
			c-0.001-0.012-0.002-0.021-0.003-0.032c-0.052-0.509-0.297-1.222-0.582-1.915c-0.001-0.001-0.001-0.003-0.002-0.005
			c-0.081-0.196-0.164-0.392-0.248-0.58c-0.25-0.563-0.499-1.065-0.651-1.363c-0.063-0.124-0.236-0.124-0.3-0.002
			c-0.383,0.748-1.376,2.771-1.482,3.871c-0.001,0.008-0.002,0.013-0.002,0.021c-0.005,0.056-0.008,0.109-0.008,0.159
			C12.402,51.472,12.688,51.971,13.122,52.265z"/>
		<path style="fill:#231F20;" d="M14.048,73.529c0.907,0,1.643-0.735,1.643-1.643c0-0.002,0-0.005,0-0.007s0-0.003,0-0.004
			c0-0.048-0.003-0.099-0.008-0.151c-0.002-0.011-0.002-0.022-0.004-0.033c-0.109-1.087-1.1-3.113-1.481-3.862
			c-0.062-0.122-0.235-0.122-0.299,0c-0.384,0.747-1.376,2.769-1.481,3.868c-0.002,0.007-0.002,0.016-0.002,0.022
			c-0.006,0.054-0.009,0.106-0.009,0.156c0,0.001,0,0.003,0,0.004c0,0.002,0,0.005,0,0.007
			C12.406,72.794,13.142,73.529,14.048,73.529z"/>
		<path style="fill:#231F20;" d="M18.532,73.529c0.907,0,1.643-0.735,1.643-1.643c0-0.002,0-0.005,0-0.007s0-0.003,0-0.004
			c0-0.048-0.004-0.099-0.008-0.151c-0.002-0.011-0.002-0.022-0.004-0.033c-0.109-1.087-1.1-3.113-1.481-3.862
			c-0.062-0.122-0.236-0.122-0.3,0c-0.383,0.747-1.375,2.769-1.481,3.868c-0.001,0.007-0.001,0.016-0.002,0.022
			c-0.005,0.054-0.008,0.106-0.008,0.156c0,0.001,0,0.002,0,0.004s0,0.005,0,0.007C16.891,72.794,17.626,73.529,18.532,73.529z"/>
	</g>
</g>
<g id="Layer_1">
</g>
</svg>
