<?xml version="1.0" encoding="iso-8859-1"?>
<!-- Generator: Adobe Illustrator 16.0.0, SVG Export Plug-In . SVG Version: 6.00 Build 0)  -->
<!DOCTYPE svg PUBLIC "-//W3C//DTD SVG 1.1//EN" "http://www.w3.org/Graphics/SVG/1.1/DTD/svg11.dtd">
<svg version="1.1" xmlns="http://www.w3.org/2000/svg" xmlns:xlink="http://www.w3.org/1999/xlink" x="0px" y="0px"
	 width="47.463px" height="77.168px" viewBox="0 0 47.463 77.168" style="enable-background:new 0 0 47.463 77.168;"
	 xml:space="preserve">
<g id="QueenPointingLeft">
	<g>
		<path style="fill:#231F20;" d="M45.812,76.717c-0.186,0.279-0.496,0.445-0.832,0.447L2.485,77.168
			c-0.402,0-0.766-0.24-0.922-0.611s-0.075-0.801,0.205-1.088l29.678-30.413c0.234-0.24,0.572-0.347,0.902-0.284
			c0.328,0.063,0.605,0.285,0.734,0.594l12.818,30.41C46.03,76.084,45.997,76.438,45.812,76.717z M4.858,75.168l38.613-0.006
			L31.827,47.531L4.858,75.168z"/>
		<path style="fill:#231F20;" d="M30.181,52.508c-0.006,0.003-0.014,0.006-0.02,0.011c-0.973,0.524-2.449,2.224-2.99,2.868
			c-0.088,0.104-0.02,0.266,0.117,0.275c0.838,0.061,3.09,0.186,4.135-0.135c0.01-0.003,0.021-0.007,0.031-0.01
			c0.051-0.016,0.1-0.033,0.143-0.052c0.836-0.353,1.229-1.315,0.875-2.151c-0.352-0.836-1.314-1.227-2.15-0.874
			C30.276,52.459,30.228,52.482,30.181,52.508"/>
		<path style="fill:#231F20;" d="M31.923,56.641c-0.006,0.002-0.016,0.006-0.02,0.01c-0.973,0.525-2.451,2.225-2.99,2.867
			c-0.088,0.107-0.02,0.268,0.117,0.275c0.838,0.063,3.09,0.188,4.133-0.135c0.012-0.002,0.021-0.006,0.033-0.01
			c0.051-0.016,0.098-0.031,0.143-0.051c0.836-0.352,1.229-1.316,0.875-2.151c-0.352-0.835-1.314-1.228-2.15-0.874
			C32.017,56.591,31.97,56.614,31.923,56.641"/>
		<path style="fill:#231F20;" d="M33.663,60.771c-0.006,0.004-0.014,0.008-0.02,0.01c-0.971,0.525-2.449,2.225-2.988,2.869
			c-0.088,0.105-0.021,0.266,0.115,0.275c0.84,0.061,3.092,0.188,4.135-0.135c0.012-0.002,0.021-0.008,0.033-0.01
			c0.049-0.016,0.098-0.033,0.143-0.051c0.836-0.354,1.227-1.316,0.875-2.152c-0.352-0.834-1.314-1.227-2.15-0.875
			C33.759,60.723,33.712,60.746,33.663,60.771"/>
	</g>
</g>
<g id="Layer_1">
</g>
</svg>
