<?xml version="1.0" encoding="iso-8859-1"?>
<!-- Generator: Adobe Illustrator 16.0.0, SVG Export Plug-In . SVG Version: 6.00 Build 0)  -->
<!DOCTYPE svg PUBLIC "-//W3C//DTD SVG 1.1//EN" "http://www.w3.org/Graphics/SVG/1.1/DTD/svg11.dtd">
<svg version="1.1" xmlns="http://www.w3.org/2000/svg" xmlns:xlink="http://www.w3.org/1999/xlink" x="0px" y="0px"
	 width="37.954px" height="77.169px" viewBox="0 0 37.954 77.169" style="enable-background:new 0 0 37.954 77.169;"
	 xml:space="preserve">
<g id="QueenOnPawnOnPawnExpanded">
	<g>
		<path style="fill:#231F20;" d="M36.398,54.811l-16.5-39.159c-0.156-0.371-0.52-0.612-0.922-0.612s-0.766,0.241-0.922,0.612
			l-16.5,39.159c-0.13,0.311-0.097,0.662,0.089,0.941s0.498,0.447,0.833,0.447h9.849L8.68,65.327
			c-0.123,0.309-0.085,0.658,0.101,0.932c0.187,0.275,0.496,0.439,0.828,0.439h2.694l-3.631,9.09
			c-0.123,0.309-0.085,0.657,0.101,0.932c0.187,0.275,0.496,0.439,0.828,0.439h18.737c0.332,0,0.642-0.164,0.828-0.439
			c0.186-0.274,0.224-0.623,0.101-0.932l-3.632-9.09h2.711c0.332,0,0.642-0.164,0.828-0.439c0.186-0.273,0.224-0.623,0.101-0.932
			l-3.646-9.128h9.849c0.335,0,0.647-0.168,0.833-0.447S36.528,55.121,36.398,54.811z M26.861,75.159H11.077l3.379-8.461h9.025
			L26.861,75.159z M26.869,64.698h-2.033h-2.153h-7.427h-2.154h-2.017l3.395-8.499h2.017h2.154h0.637h2.154h2.032L26.869,64.698z
			 M24.829,54.199h-2.154h-2.033h-3.346h-2.017h-2.154H3.983l14.993-35.584L33.97,54.199H24.829z"/>
		<path style="fill:#231F20;" d="M11.195,50.723c-0.11-1.088-1.101-3.113-1.482-3.863c-0.062-0.121-0.237-0.121-0.299,0
			c-0.384,0.748-1.376,2.77-1.481,3.869c-0.002,0.006-0.002,0.016-0.002,0.021c-0.006,0.055-0.008,0.107-0.008,0.156
			c0,0.908,0.734,1.643,1.641,1.643c0.908,0,1.643-0.734,1.643-1.643c0-0.047-0.003-0.098-0.008-0.15
			C11.197,50.744,11.196,50.732,11.195,50.723z"/>
		<path style="fill:#231F20;" d="M18.382,46.859c-0.383,0.748-1.375,2.77-1.481,3.869c-0.001,0.006-0.001,0.016-0.002,0.021
			c-0.005,0.055-0.008,0.107-0.008,0.156c0,0.719,0.463,1.322,1.103,1.545c0.169,0.06,0.349,0.098,0.539,0.098
			c0.464,0,0.881-0.193,1.18-0.502c0.285-0.296,0.463-0.696,0.463-1.141c0-0.047-0.004-0.098-0.008-0.15
			c-0.002-0.012-0.002-0.023-0.004-0.033c-0.109-1.088-1.1-3.113-1.481-3.863C18.62,46.738,18.445,46.738,18.382,46.859z"/>
		<path style="fill:#231F20;" d="M18.874,73.509c0.906,0,1.642-0.734,1.642-1.642c0-0.048-0.004-0.099-0.009-0.152
			c0-0.011-0.002-0.021-0.002-0.033c-0.11-1.087-1.101-3.112-1.482-3.861c-0.063-0.122-0.236-0.122-0.299,0
			c-0.385,0.747-1.376,2.768-1.482,3.868c-0.001,0.007-0.002,0.015-0.002,0.021c-0.005,0.054-0.008,0.107-0.008,0.157
			C17.231,72.774,17.966,73.509,18.874,73.509z"/>
		<path style="fill:#231F20;" d="M15.679,50.723c-0.045-0.453-0.247-1.069-0.491-1.688c-0.341-0.867-0.768-1.738-0.991-2.176
			c-0.062-0.121-0.235-0.121-0.299,0c-0.384,0.748-1.376,2.77-1.481,3.869c-0.002,0.006-0.002,0.016-0.002,0.021
			c-0.006,0.055-0.009,0.107-0.009,0.156c0,0.822,0.603,1.495,1.388,1.617c0.083,0.014,0.167,0.025,0.253,0.025
			c0.907,0,1.643-0.734,1.643-1.643c0-0.047-0.003-0.098-0.008-0.15C15.681,50.744,15.681,50.732,15.679,50.723z"/>
		<path style="fill:#231F20;" d="M20.513,61.222c-0.11-1.088-1.101-3.113-1.482-3.86c-0.063-0.123-0.236-0.123-0.299,0
			c-0.385,0.745-1.376,2.767-1.482,3.866c-0.001,0.008-0.002,0.016-0.002,0.021c-0.005,0.055-0.008,0.107-0.008,0.158
			c0,0.906,0.734,1.641,1.643,1.641c0.906,0,1.642-0.734,1.642-1.641c0-0.049-0.004-0.1-0.009-0.152
			C20.515,61.243,20.513,61.233,20.513,61.222z"/>
	</g>
</g>
<g id="Layer_1">
</g>
</svg>
