<?xml version="1.0" encoding="iso-8859-1"?>
<!-- Generator: Adobe Illustrator 16.0.0, SVG Export Plug-In . SVG Version: 6.00 Build 0)  -->
<!DOCTYPE svg PUBLIC "-//W3C//DTD SVG 1.1//EN" "http://www.w3.org/Graphics/SVG/1.1/DTD/svg11.dtd">
<svg version="1.1" xmlns="http://www.w3.org/2000/svg" xmlns:xlink="http://www.w3.org/1999/xlink" x="0px" y="0px"
	 width="37.954px" height="77.169px" viewBox="0 0 37.954 77.169" style="enable-background:new 0 0 37.954 77.169;"
	 xml:space="preserve">
<g id="QueenOnQueenOnDroneExpanded">
	<g>
		<path style="fill:#231F20;" d="M13.534,73.509c0.907,0,1.643-0.734,1.643-1.642c0-0.048-0.003-0.099-0.008-0.152
			c-0.002-0.011-0.002-0.021-0.004-0.033c-0.109-1.087-1.1-3.112-1.481-3.861c-0.062-0.122-0.235-0.122-0.299,0
			c-0.384,0.747-1.376,2.768-1.481,3.868c-0.002,0.007-0.002,0.015-0.003,0.021c-0.005,0.054-0.008,0.107-0.008,0.157
			C11.893,72.774,12.628,73.509,13.534,73.509z"/>
		<path style="fill:#231F20;" d="M18.019,73.509c0.907,0,1.643-0.734,1.643-1.642c0-0.048-0.004-0.099-0.008-0.152
			c-0.002-0.011-0.002-0.021-0.004-0.033c-0.109-1.087-1.1-3.112-1.481-3.861c-0.062-0.122-0.237-0.122-0.299,0
			c-0.384,0.747-1.376,2.768-1.481,3.868c-0.002,0.007-0.002,0.015-0.002,0.021c-0.006,0.054-0.009,0.107-0.009,0.157
			C16.377,72.774,17.112,73.509,18.019,73.509z"/>
		<path style="fill:#231F20;" d="M32.565,56.2h2.911c0.335,0,0.647-0.168,0.833-0.447s0.219-0.631,0.089-0.941l-16.5-39.16
			c-0.156-0.371-0.52-0.612-0.922-0.612s-0.766,0.241-0.922,0.612l-16.5,39.16c-0.13,0.311-0.097,0.662,0.089,0.941
			S2.142,56.2,2.477,56.2h2.911l-3.833,9.096c-0.13,0.311-0.097,0.662,0.089,0.941s0.498,0.447,0.833,0.447h6.531l-3.451,9.121
			c-0.116,0.307-0.074,0.651,0.113,0.922c0.187,0.271,0.494,0.432,0.822,0.432h24.954c0.328,0,0.636-0.161,0.822-0.432
			c0.188-0.271,0.229-0.615,0.113-0.922l-3.45-9.121h6.545c0.335,0,0.647-0.168,0.833-0.447s0.219-0.631,0.089-0.941L32.565,56.2z
			 M3.983,54.2l14.993-35.585L33.97,54.2h-2.246h-2.172h-5.343h-2.138h-6.203H13.73H8.401H6.23H3.983z M29.999,75.159H7.939
			l3.206-8.475h15.647L29.999,75.159z M28.175,64.685h-2.138H11.902H9.764h-5.78L7.558,56.2h5.415h2.139h7.715h2.139h5.429
			l3.575,8.484H28.175z"/>
		<path style="fill:#231F20;" d="M15.679,61.208c-0.089-0.884-0.755-2.377-1.208-3.312c-0.104-0.216-0.202-0.411-0.273-0.552
			c-0.062-0.121-0.235-0.121-0.299,0c-0.384,0.748-1.376,2.77-1.481,3.869c-0.002,0.006-0.002,0.016-0.002,0.021
			c-0.006,0.055-0.009,0.107-0.009,0.156c0,0.385,0.137,0.733,0.358,1.013c0.301,0.381,0.761,0.63,1.283,0.63
			c0.907,0,1.643-0.734,1.643-1.643c0-0.047-0.003-0.098-0.008-0.15C15.681,61.229,15.681,61.218,15.679,61.208z"/>
		<path style="fill:#231F20;" d="M20.163,61.208c-0.109-1.088-1.1-3.113-1.481-3.863c-0.062-0.121-0.236-0.121-0.3,0
			c-0.383,0.748-1.375,2.77-1.481,3.869c-0.001,0.006-0.001,0.016-0.002,0.021c-0.005,0.055-0.008,0.107-0.008,0.156
			c0,0.908,0.735,1.643,1.642,1.643c0.907,0,1.643-0.734,1.643-1.643c0-0.047-0.004-0.098-0.008-0.15
			C20.165,61.229,20.165,61.218,20.163,61.208z"/>
		<path style="fill:#231F20;" d="M11.195,61.208c-0.006-0.063-0.025-0.14-0.037-0.209c-0.196-1.121-1.086-2.948-1.445-3.654
			c-0.062-0.121-0.237-0.121-0.299,0c-0.384,0.748-1.376,2.77-1.481,3.869c-0.002,0.006-0.002,0.016-0.002,0.021
			c-0.006,0.055-0.008,0.107-0.008,0.156c0,0.908,0.734,1.643,1.641,1.643c0.349,0,0.67-0.109,0.936-0.295
			c0.426-0.296,0.707-0.788,0.707-1.348c0-0.047-0.003-0.098-0.008-0.15C11.197,61.229,11.196,61.218,11.195,61.208z"/>
		<path style="fill:#231F20;" d="M9.125,52.482c0.141,0.039,0.286,0.067,0.439,0.067c0.908,0,1.643-0.734,1.643-1.643
			c0-0.047-0.003-0.098-0.008-0.15c-0.001-0.012-0.002-0.023-0.003-0.033c-0.05-0.491-0.281-1.173-0.553-1.843
			c-0.33-0.813-0.72-1.609-0.929-2.021c-0.062-0.121-0.237-0.121-0.299,0c-0.384,0.748-1.376,2.77-1.481,3.869
			c-0.002,0.006-0.002,0.016-0.002,0.021c-0.006,0.055-0.008,0.107-0.008,0.156C7.923,51.662,8.433,52.29,9.125,52.482z"/>
		<path style="fill:#231F20;" d="M14.048,52.55c0.109,0,0.215-0.012,0.318-0.032c0.755-0.148,1.324-0.812,1.324-1.61
			c0-0.047-0.003-0.098-0.008-0.15c-0.002-0.012-0.002-0.023-0.004-0.033c-0.029-0.288-0.122-0.644-0.247-1.022
			c-0.346-1.051-0.954-2.289-1.234-2.841c-0.062-0.121-0.235-0.121-0.299,0c-0.384,0.748-1.376,2.77-1.481,3.869
			c-0.002,0.006-0.002,0.016-0.002,0.021c-0.006,0.055-0.009,0.107-0.009,0.156C12.406,51.815,13.142,52.55,14.048,52.55z"/>
		<path style="fill:#231F20;" d="M18.532,52.55c0.907,0,1.643-0.734,1.643-1.643c0-0.047-0.004-0.098-0.008-0.15
			c-0.002-0.012-0.002-0.023-0.004-0.033c-0.109-1.088-1.1-3.113-1.481-3.863c-0.006-0.013-0.021-0.009-0.03-0.019
			c-0.074-0.087-0.213-0.09-0.27,0.019c-0.383,0.748-1.375,2.77-1.481,3.869c-0.001,0.006-0.001,0.016-0.002,0.021
			c-0.005,0.055-0.008,0.107-0.008,0.156c0,0.147,0.026,0.289,0.063,0.425C17.142,52.033,17.774,52.55,18.532,52.55z"/>
	</g>
</g>
<g id="Layer_1">
</g>
</svg>
