<?xml version="1.0" encoding="iso-8859-1"?>
<!-- Generator: Adobe Illustrator 16.0.0, SVG Export Plug-In . SVG Version: 6.00 Build 0)  -->
<!DOCTYPE svg PUBLIC "-//W3C//DTD SVG 1.1//EN" "http://www.w3.org/Graphics/SVG/1.1/DTD/svg11.dtd">
<svg version="1.1" xmlns="http://www.w3.org/2000/svg" xmlns:xlink="http://www.w3.org/1999/xlink" x="0px" y="0px"
	 width="37.954px" height="77.169px" viewBox="0 0 37.954 77.169" style="enable-background:new 0 0 37.954 77.169;"
	 xml:space="preserve">
<g id="QueenOnQueenOnDrone">
	<g>
		<path style="fill:#231F20;" d="M29.971,60.866h5.521c0.335,0,0.647-0.168,0.833-0.447s0.219-0.631,0.089-0.941l-16.5-39.159
			c-0.156-0.371-0.52-0.612-0.922-0.612s-0.766,0.241-0.922,0.612l-16.5,39.159c-0.13,0.311-0.097,0.662,0.089,0.941
			s0.498,0.447,0.833,0.447h5.368L1.56,75.815c-0.127,0.303-0.095,0.646,0.086,0.918c0.181,0.271,0.485,0.436,0.812,0.436h4.013
			h24.888h4.013c0.325,0,0.631-0.164,0.811-0.436c0.181-0.272,0.214-0.615,0.087-0.918L29.971,60.866z M3.998,58.866l14.993-35.584
			l14.993,35.584h-4.856h-2.116h-1.965h-2.119h-8.025h-2.119h-1.966H8.702H3.998z M27.818,75.22H10.127H7.944l0.005-0.012H5.831
			L5.826,75.22H3.926l6.048-14.354h1.958l-2.066,4.856h2.119l2.066-4.856h9.727l6.106,14.354H27.818z M32.004,75.22l-6.106-14.354
			h1.957l6.048,14.354H32.004z"/>
		<path style="fill:#231F20;" d="M11.153,71.729c-0.062-0.605-0.396-1.496-0.745-2.3c-0.277-0.637-0.563-1.22-0.732-1.551
			c-0.063-0.124-0.236-0.124-0.299-0.002c-0.382,0.746-1.372,2.762-1.477,3.858c-0.001,0.008-0.001,0.014-0.002,0.021
			c-0.005,0.056-0.008,0.109-0.008,0.158c0,0.619,0.348,1.151,0.854,1.43c0.233,0.128,0.498,0.208,0.784,0.208
			c0.904,0,1.637-0.733,1.637-1.638c0-0.048-0.003-0.099-0.008-0.152C11.155,71.75,11.154,71.74,11.153,71.729z"/>
		<path style="fill:#231F20;" d="M15.625,71.729c-0.066-0.652-0.451-1.643-0.829-2.491c-0.25-0.562-0.497-1.063-0.649-1.359
			c-0.062-0.124-0.235-0.124-0.299-0.002c-0.381,0.746-1.372,2.762-1.477,3.858c-0.001,0.008-0.002,0.014-0.002,0.021
			c-0.005,0.056-0.008,0.109-0.008,0.158c0,0.563,0.284,1.061,0.717,1.354c0.263,0.179,0.579,0.284,0.92,0.284
			c0.904,0,1.637-0.733,1.637-1.638c0-0.048-0.003-0.099-0.008-0.152C15.627,71.75,15.626,71.74,15.625,71.729z"/>
		<path style="fill:#231F20;" d="M20.098,71.729c-0.11-1.085-1.096-3.104-1.477-3.851c-0.063-0.124-0.236-0.124-0.299-0.002
			c-0.382,0.746-1.373,2.762-1.478,3.858c0,0.008,0,0.014-0.001,0.021c-0.005,0.056-0.008,0.109-0.008,0.158
			c0,0.904,0.733,1.638,1.637,1.638c0.905,0,1.637-0.733,1.637-1.638c0-0.048-0.003-0.099-0.008-0.152
			C20.1,71.75,20.099,71.74,20.098,71.729z"/>
		<path style="fill:#231F20;" d="M11.213,55.422c-0.001-0.01-0.002-0.021-0.003-0.033c-0.041-0.404-0.205-0.941-0.414-1.492
			c-0.351-0.928-0.83-1.9-1.069-2.369c-0.062-0.123-0.237-0.123-0.299,0c-0.384,0.746-1.376,2.768-1.481,3.867
			c-0.002,0.008-0.002,0.016-0.002,0.023c-0.006,0.053-0.008,0.105-0.008,0.156c0,0.848,0.644,1.537,1.467,1.625
			c0.058,0.006,0.114,0.018,0.174,0.018c0.908,0,1.643-0.736,1.643-1.643C11.221,55.525,11.218,55.475,11.213,55.422z"/>
		<path style="fill:#231F20;" d="M13.527,57.119c0.168,0.059,0.347,0.098,0.536,0.098c0.907,0,1.643-0.736,1.643-1.643
			c0-0.049-0.003-0.1-0.008-0.152c-0.002-0.01-0.002-0.021-0.004-0.033c-0.052-0.518-0.307-1.25-0.598-1.956
			c-0.319-0.773-0.684-1.515-0.883-1.905c-0.062-0.123-0.235-0.123-0.299,0c-0.006,0.011-0.014,0.027-0.021,0.04
			c-0.317,0.62-0.992,2.005-1.303,3.093c-0.076,0.268-0.137,0.521-0.158,0.734c-0.002,0.008-0.002,0.016-0.002,0.023
			c-0.006,0.053-0.009,0.105-0.009,0.156C12.421,56.292,12.885,56.896,13.527,57.119z"/>
		<path style="fill:#231F20;" d="M18.547,57.217c0.907,0,1.643-0.736,1.643-1.643c0-0.049-0.004-0.1-0.008-0.152
			c-0.002-0.01-0.002-0.021-0.004-0.033c-0.109-1.086-1.1-3.113-1.481-3.861c-0.062-0.123-0.236-0.123-0.3,0
			c-0.383,0.746-1.375,2.768-1.481,3.867c-0.001,0.008-0.001,0.016-0.002,0.023c-0.005,0.053-0.008,0.105-0.008,0.156
			C16.905,56.48,17.641,57.217,18.547,57.217z"/>
	</g>
</g>
<g id="Layer_1">
</g>
</svg>
