<?xml version="1.0" encoding="iso-8859-1"?>
<!-- Generator: Adobe Illustrator 16.0.0, SVG Export Plug-In . SVG Version: 6.00 Build 0)  -->
<!DOCTYPE svg PUBLIC "-//W3C//DTD SVG 1.1//EN" "http://www.w3.org/Graphics/SVG/1.1/DTD/svg11.dtd">
<svg version="1.1" xmlns="http://www.w3.org/2000/svg" xmlns:xlink="http://www.w3.org/1999/xlink" x="0px" y="0px"
	 width="37.954px" height="77.169px" viewBox="0 0 37.954 77.169" style="enable-background:new 0 0 37.954 77.169;"
	 xml:space="preserve">
<g id="QueenOnDroneOnDrone">
	<g>
		<path style="fill:#231F20;" d="M36.431,62.412L25.146,35.629l-4.237-10.056l-1.012-2.4c-0.152-0.363-0.507-0.599-0.901-0.599
			s-0.75,0.236-0.902,0.599l-1.011,2.4l-4.237,10.056L1.561,62.412c-0.127,0.304-0.095,0.647,0.086,0.922
			c0.181,0.273,0.487,0.438,0.815,0.438h4.032h3.58L5.52,75.809c-0.117,0.309-0.074,0.655,0.114,0.927
			c0.188,0.271,0.497,0.434,0.826,0.434h25.07c0.329,0,0.64-0.162,0.825-0.434c0.188-0.271,0.232-0.618,0.114-0.927l-4.554-12.037
			h3.581h4.031c0.327,0,0.635-0.164,0.814-0.438C36.524,63.06,36.558,62.716,36.431,62.412z M30.076,75.159H7.914l4.308-11.388
			h13.546L30.076,75.159z M32.146,61.813L21.007,35.629l-1.11-2.606c-0.153-0.361-0.508-0.596-0.9-0.596
			c-0.393,0-0.748,0.234-0.901,0.596l-1.109,2.606l-7.08,16.642h2.128l6.962-16.363l11.021,25.905H27.94h-0.765h-2.148H12.963
			h-2.148h-0.647H7.975l0.005-0.012H5.851l-0.005,0.012H3.938l11.033-26.184l4.025-9.554l4.024,9.554l11.033,26.184H32.146z"/>
		<path style="fill:#231F20;" d="M9.413,54.436c-0.383,0.749-1.378,2.774-1.484,3.877c-0.001,0.008-0.001,0.014-0.002,0.02
			c-0.005,0.057-0.008,0.109-0.008,0.158c0,0.622,0.349,1.158,0.858,1.437c0.234,0.13,0.5,0.21,0.788,0.21
			c0.908,0,1.645-0.737,1.645-1.646c0-0.047-0.003-0.098-0.008-0.152c-0.001-0.01-0.002-0.02-0.003-0.031
			c-0.062-0.609-0.398-1.504-0.749-2.312c-0.278-0.64-0.566-1.226-0.736-1.558C9.651,54.313,9.477,54.313,9.413,54.436z"/>
		<path style="fill:#231F20;" d="M18.55,60.137c0.909,0,1.645-0.737,1.645-1.646c0-0.047-0.003-0.098-0.008-0.152
			c-0.001-0.01-0.002-0.02-0.003-0.031c-0.111-1.091-1.102-3.12-1.484-3.869c-0.063-0.125-0.237-0.125-0.301-0.002
			c-0.384,0.749-1.379,2.774-1.485,3.877c0,0.008,0,0.014-0.001,0.02c-0.005,0.057-0.008,0.109-0.008,0.158
			C16.905,59.399,17.642,60.137,18.55,60.137z"/>
		<path style="fill:#231F20;" d="M13.133,59.851c0.147,0.101,0.313,0.171,0.489,0.22c0.139,0.038,0.284,0.066,0.435,0.066
			c0.909,0,1.645-0.737,1.645-1.646c0-0.047-0.003-0.098-0.008-0.152c-0.001-0.01-0.002-0.02-0.003-0.031
			c-0.055-0.54-0.327-1.305-0.632-2.034c-0.066-0.159-0.132-0.317-0.2-0.47c-0.251-0.564-0.5-1.067-0.652-1.365
			c-0.063-0.125-0.237-0.125-0.301-0.002c-0.383,0.749-1.378,2.774-1.484,3.877c-0.001,0.008-0.002,0.014-0.002,0.02
			c-0.005,0.057-0.008,0.109-0.008,0.158C12.413,59.058,12.698,59.556,13.133,59.851z"/>
		<path style="fill:#231F20;" d="M11.894,71.694c-0.005,0.054-0.008,0.108-0.008,0.158c0,0.911,0.739,1.649,1.649,1.649
			c0.912,0,1.65-0.738,1.65-1.649c0-0.048-0.003-0.1-0.008-0.153c-0.002-0.011-0.002-0.021-0.004-0.033
			c-0.11-1.092-1.105-3.127-1.488-3.88c-0.062-0.122-0.237-0.122-0.3,0c-0.386,0.751-1.382,2.781-1.488,3.887
			C11.895,71.68,11.895,71.688,11.894,71.694z"/>
		<path style="fill:#231F20;" d="M18.04,73.502c0.912,0,1.649-0.738,1.649-1.649c0-0.048-0.004-0.1-0.008-0.153
			c-0.002-0.011-0.002-0.021-0.004-0.033c-0.109-1.092-1.104-3.127-1.487-3.88c-0.062-0.122-0.239-0.122-0.3,0
			c-0.386,0.751-1.382,2.781-1.488,3.887c-0.002,0.007-0.002,0.015-0.002,0.021c-0.006,0.054-0.009,0.108-0.009,0.158
			C16.391,72.764,17.129,73.502,18.04,73.502z"/>
	</g>
</g>
<g id="Layer_1">
</g>
</svg>
