<?xml version="1.0" encoding="iso-8859-1"?>
<!-- Generator: Adobe Illustrator 16.0.0, SVG Export Plug-In . SVG Version: 6.00 Build 0)  -->
<!DOCTYPE svg PUBLIC "-//W3C//DTD SVG 1.1//EN" "http://www.w3.org/Graphics/SVG/1.1/DTD/svg11.dtd">
<svg version="1.1" xmlns="http://www.w3.org/2000/svg" xmlns:xlink="http://www.w3.org/1999/xlink" x="0px" y="0px"
	 width="37.954px" height="77.169px" viewBox="0 0 37.954 77.169" style="enable-background:new 0 0 37.954 77.169;"
	 xml:space="preserve">
<g id="QueenOnPawnOnQueenExpanded">
	<g>
		<g>
			<path style="fill:#231F20;" d="M11.106,38.651c-0.11-1.088-1.101-3.113-1.482-3.863c-0.062-0.121-0.237-0.121-0.299,0
				c-0.384,0.748-1.376,2.77-1.481,3.869c-0.002,0.006-0.002,0.016-0.002,0.021c-0.006,0.055-0.008,0.107-0.008,0.156
				c0,0.908,0.734,1.643,1.641,1.643c0.908,0,1.643-0.734,1.643-1.643c0-0.047-0.003-0.098-0.008-0.15
				C11.108,38.673,11.107,38.661,11.106,38.651z"/>
			<path style="fill:#231F20;" d="M15.602,38.835c0-0.047-0.003-0.098-0.008-0.15c-0.002-0.012-0.002-0.023-0.004-0.033
				c-0.049-0.489-0.279-1.168-0.549-1.835c-0.331-0.816-0.722-1.615-0.932-2.028c-0.062-0.121-0.235-0.121-0.299,0
				c-0.384,0.748-1.376,2.77-1.481,3.869c-0.002,0.006-0.002,0.016-0.002,0.021c-0.006,0.055-0.009,0.107-0.009,0.156
				c0,0.783,0.547,1.433,1.278,1.599c0.118,0.027,0.238,0.044,0.364,0.044C14.866,40.478,15.602,39.743,15.602,38.835z"/>
			<path style="fill:#231F20;" d="M18.888,50.445c0.906,0,1.642-0.734,1.642-1.643c0-0.047-0.004-0.098-0.01-0.152
				c0-0.01-0.002-0.021-0.002-0.033c-0.109-1.086-1.1-3.111-1.482-3.861c-0.063-0.121-0.236-0.121-0.299,0
				c-0.385,0.748-1.376,2.768-1.482,3.869c-0.001,0.006-0.002,0.014-0.002,0.021c-0.005,0.053-0.008,0.107-0.008,0.156
				C17.246,49.711,17.98,50.445,18.888,50.445z"/>
			<path style="fill:#231F20;" d="M36.405,75.78l-9.137-21.685h1.084c0.332,0,0.641-0.164,0.828-0.439
				c0.186-0.275,0.223-0.623,0.1-0.932l-3.434-8.597h9.541c0.335,0,0.647-0.168,0.833-0.447s0.219-0.631,0.089-0.941L19.81,3.58
				c-0.156-0.371-0.52-0.612-0.922-0.612s-0.766,0.241-0.922,0.612l-16.5,39.159c-0.13,0.311-0.097,0.662,0.089,0.941
				s0.498,0.447,0.833,0.447h9.732l-3.434,8.597c-0.123,0.309-0.085,0.656,0.101,0.932c0.187,0.275,0.496,0.439,0.828,0.439h1.084
				L1.562,75.78c-0.13,0.311-0.097,0.662,0.089,0.941s0.498,0.447,0.833,0.447h33c0.335,0,0.647-0.168,0.833-0.447
				S36.535,76.091,36.405,75.78z M3.895,42.128L18.888,6.543l14.993,35.584h-8.834h-2.153h-0.668h-2.17h-2.144h-2.17h-0.669h-2.153
				H3.895z M11.091,52.096l3.182-7.968h0.625h2.17h3.829h2.171h0.625l3.183,7.968h-0.45h-2.171H13.712h-2.171H11.091z M3.99,75.169
				l8.879-21.073h12.229l8.879,21.073H3.99z"/>
			<path style="fill:#231F20;" d="M18.443,40.478c0.059,0,0.114-0.011,0.171-0.017c0.235-0.025,0.455-0.098,0.65-0.211
				c0.489-0.284,0.822-0.808,0.822-1.415c0-0.047-0.004-0.098-0.008-0.15c-0.002-0.012-0.002-0.023-0.004-0.033
				c-0.068-0.684-0.485-1.736-0.88-2.611c-0.233-0.518-0.459-0.973-0.602-1.252c-0.062-0.121-0.236-0.121-0.3,0
				c-0.383,0.748-1.375,2.77-1.481,3.869c-0.001,0.006-0.001,0.016-0.002,0.021c-0.005,0.055-0.008,0.107-0.008,0.156
				c0,0.191,0.039,0.371,0.099,0.542C17.125,40.017,17.728,40.478,18.443,40.478z"/>
		</g>
		<path style="fill:#231F20;" d="M11.202,71.692c-0.11-1.088-1.101-3.114-1.482-3.864c-0.062-0.121-0.237-0.121-0.299,0
			c-0.384,0.748-1.376,2.771-1.481,3.87c-0.002,0.006-0.002,0.016-0.002,0.021c-0.006,0.055-0.008,0.107-0.008,0.156
			c0,0.908,0.734,1.643,1.641,1.643c0.908,0,1.643-0.734,1.643-1.643c0-0.047-0.003-0.098-0.008-0.15
			C11.204,71.714,11.203,71.702,11.202,71.692z"/>
		<path style="fill:#231F20;" d="M12.424,71.698c-0.002,0.006-0.002,0.016-0.002,0.021c-0.006,0.055-0.009,0.107-0.009,0.156
			c0,0.908,0.735,1.643,1.642,1.643c0.907,0,1.643-0.734,1.643-1.643c0-0.047-0.003-0.098-0.008-0.15
			c-0.002-0.012-0.002-0.023-0.004-0.033c-0.109-1.088-1.1-3.114-1.481-3.864c-0.062-0.121-0.235-0.121-0.299,0
			C13.521,68.576,12.529,70.599,12.424,71.698z"/>
		<path style="fill:#231F20;" d="M18.539,73.519c0.907,0,1.643-0.734,1.643-1.643c0-0.047-0.004-0.098-0.008-0.15
			c-0.002-0.012-0.002-0.023-0.004-0.033c-0.109-1.088-1.1-3.114-1.481-3.864c-0.062-0.121-0.236-0.121-0.3,0
			c-0.383,0.748-1.375,2.771-1.481,3.87c-0.001,0.006-0.001,0.016-0.002,0.021c-0.005,0.055-0.008,0.107-0.008,0.156
			C16.897,72.784,17.633,73.519,18.539,73.519z"/>
	</g>
</g>
<g id="Layer_1">
</g>
</svg>
