<?xml version="1.0" encoding="iso-8859-1"?>
<!-- Generator: Adobe Illustrator 16.0.0, SVG Export Plug-In . SVG Version: 6.00 Build 0)  -->
<!DOCTYPE svg PUBLIC "-//W3C//DTD SVG 1.1//EN" "http://www.w3.org/Graphics/SVG/1.1/DTD/svg11.dtd">
<svg version="1.1" xmlns="http://www.w3.org/2000/svg" xmlns:xlink="http://www.w3.org/1999/xlink" x="0px" y="0px"
	 width="47.463px" height="77.168px" viewBox="0 0 47.463 77.168" style="enable-background:new 0 0 47.463 77.168;"
	 xml:space="preserve">
<g id="QueenPointingRight">
	<g>
		<path style="fill:#231F20;" d="M1.563,75.775l12.818-30.41c0.129-0.309,0.406-0.531,0.734-0.594
			c0.33-0.063,0.668,0.044,0.902,0.284l29.678,30.413c0.28,0.287,0.361,0.717,0.205,1.088s-0.52,0.611-0.922,0.611L2.485,77.164
			c-0.336-0.002-0.646-0.168-0.832-0.447S1.435,76.084,1.563,75.775z M15.638,47.531L3.993,75.162l38.613,0.006L15.638,47.531z"/>
		<path style="fill:#231F20;" d="M17.284,52.508c0.006,0.003,0.014,0.006,0.02,0.011c0.973,0.524,2.449,2.224,2.99,2.868
			c0.088,0.104,0.02,0.266-0.117,0.275c-0.838,0.061-3.09,0.186-4.135-0.135c-0.01-0.003-0.021-0.007-0.031-0.01
			c-0.051-0.016-0.1-0.033-0.143-0.052c-0.836-0.353-1.229-1.315-0.875-2.151c0.352-0.836,1.314-1.227,2.15-0.874
			C17.188,52.459,17.237,52.482,17.284,52.508"/>
		<path style="fill:#231F20;" d="M15.542,56.641c0.006,0.002,0.016,0.006,0.02,0.01c0.973,0.525,2.451,2.225,2.99,2.867
			c0.088,0.107,0.02,0.268-0.117,0.275c-0.838,0.063-3.09,0.188-4.133-0.135c-0.012-0.002-0.021-0.006-0.033-0.01
			c-0.051-0.016-0.098-0.031-0.143-0.051c-0.836-0.352-1.229-1.316-0.875-2.151c0.352-0.835,1.314-1.228,2.15-0.874
			C15.448,56.591,15.495,56.614,15.542,56.641"/>
		<path style="fill:#231F20;" d="M13.802,60.771c0.006,0.004,0.014,0.008,0.02,0.01c0.971,0.525,2.449,2.225,2.988,2.869
			c0.088,0.105,0.021,0.266-0.115,0.275c-0.84,0.061-3.092,0.188-4.135-0.135c-0.012-0.002-0.021-0.008-0.033-0.01
			c-0.049-0.016-0.098-0.033-0.143-0.051c-0.836-0.354-1.227-1.316-0.875-2.152c0.352-0.834,1.314-1.227,2.15-0.875
			C13.706,60.723,13.753,60.746,13.802,60.771"/>
	</g>
</g>
<g id="Layer_1">
</g>
</svg>
