<?xml version="1.0" encoding="iso-8859-1"?>
<!-- Generator: Adobe Illustrator 16.0.0, SVG Export Plug-In . SVG Version: 6.00 Build 0)  -->
<!DOCTYPE svg PUBLIC "-//W3C//DTD SVG 1.1//EN" "http://www.w3.org/Graphics/SVG/1.1/DTD/svg11.dtd">
<svg version="1.1" xmlns="http://www.w3.org/2000/svg" xmlns:xlink="http://www.w3.org/1999/xlink" x="0px" y="0px"
	 width="37.954px" height="77.169px" viewBox="0 0 37.954 77.169" style="enable-background:new 0 0 37.954 77.169;"
	 xml:space="preserve">
<g id="QueenOnPawnOnPawn">
	<g>
		<path style="fill:#231F20;" d="M36.388,63.087l-11.27-26.745L20.888,26.3l-1.01-2.396c-0.152-0.362-0.508-0.598-0.902-0.598
			c-0.393,0-0.748,0.236-0.9,0.598l-1.01,2.396l-4.231,10.042L1.565,63.087c-0.127,0.303-0.095,0.646,0.086,0.92
			s0.487,0.438,0.815,0.438h4.025h6.723L8.68,75.798c-0.123,0.309-0.085,0.658,0.101,0.932c0.187,0.275,0.496,0.439,0.828,0.439
			h18.737c0.332,0,0.642-0.164,0.828-0.439c0.186-0.273,0.224-0.623,0.101-0.932l-4.536-11.354h6.724h4.025
			c0.328,0,0.633-0.164,0.814-0.438S36.517,63.39,36.388,63.087z M26.869,75.169H11.085l4.284-10.725h7.216L26.869,75.169z
			 M32.108,62.489h-2.125h-2.072l-7.977-18.71c-0.152-0.359-0.508-0.594-0.899-0.594s-0.746,0.234-0.899,0.594l-3.914,9.183h2.126
			l2.687-6.305l6.747,15.83h-1.825h-2.154H16.15h-2.153h-1.709l0.004-0.01h-2.126l-0.005,0.012h-2.19l0.004-0.012H5.85l-0.005,0.012
			H3.939l11.018-26.147l4.019-9.541l4.021,9.541l11.018,26.147H32.108z"/>
		<path style="fill:#231F20;" d="M11.19,58.987c-0.062-0.606-0.397-1.501-0.748-2.308c-0.278-0.639-0.565-1.223-0.735-1.556
			C9.645,55,9.471,55,9.407,55.122c-0.383,0.749-1.376,2.771-1.482,3.871c-0.001,0.008-0.001,0.012-0.002,0.02
			c-0.005,0.057-0.008,0.109-0.008,0.16c0,0.619,0.349,1.154,0.856,1.434c0.234,0.127,0.5,0.207,0.787,0.207
			c0.907,0,1.642-0.734,1.642-1.641c0-0.049-0.002-0.1-0.007-0.154C11.192,59.007,11.191,58.999,11.19,58.987z"/>
		<path style="fill:#231F20;" d="M13.894,55.122c-0.383,0.749-1.376,2.771-1.482,3.871c-0.001,0.008-0.002,0.012-0.002,0.02
			c-0.005,0.057-0.008,0.109-0.008,0.16c0,0.564,0.285,1.063,0.719,1.357c0.264,0.18,0.581,0.283,0.923,0.283
			c0.244,0,0.473-0.057,0.681-0.151c0.566-0.259,0.961-0.826,0.961-1.489c0-0.049-0.003-0.1-0.008-0.154
			c-0.001-0.012-0.002-0.02-0.003-0.031c-0.015-0.143-0.05-0.308-0.091-0.478c-0.148-0.609-0.443-1.355-0.74-2.021
			c-0.25-0.564-0.499-1.066-0.651-1.364C14.132,55,13.958,55,13.894,55.122z"/>
		<path style="fill:#231F20;" d="M18.532,60.813c0.909,0,1.643-0.734,1.643-1.641c0-0.049-0.002-0.1-0.008-0.154
			c-0.002-0.012-0.002-0.02-0.004-0.031c-0.092-0.915-0.802-2.481-1.254-3.405c-0.086-0.177-0.167-0.338-0.228-0.458
			C18.619,55,18.445,55,18.381,55.122c-0.383,0.749-1.377,2.771-1.482,3.871c-0.001,0.008-0.001,0.012-0.002,0.02
			c-0.005,0.057-0.008,0.109-0.008,0.16c0,0.313,0.093,0.604,0.245,0.852C17.423,60.496,17.938,60.813,18.532,60.813z"/>
		<path style="fill:#231F20;" d="M18.882,73.519c0.906,0,1.642-0.734,1.642-1.641c0-0.049-0.004-0.1-0.009-0.152
			c0-0.012-0.002-0.021-0.002-0.033c-0.11-1.088-1.101-3.113-1.482-3.861c-0.063-0.123-0.236-0.123-0.299,0
			c-0.385,0.746-1.376,2.768-1.482,3.867c-0.001,0.008-0.002,0.016-0.002,0.021c-0.005,0.055-0.008,0.107-0.008,0.158
			C17.239,72.784,17.974,73.519,18.882,73.519z"/>
	</g>
</g>
<g id="Layer_1">
</g>
</svg>
