<?xml version="1.0" encoding="iso-8859-1"?>
<!-- Generator: Adobe Illustrator 16.0.0, SVG Export Plug-In . SVG Version: 6.00 Build 0)  -->
<!DOCTYPE svg PUBLIC "-//W3C//DTD SVG 1.1//EN" "http://www.w3.org/Graphics/SVG/1.1/DTD/svg11.dtd">
<svg version="1.1" xmlns="http://www.w3.org/2000/svg" xmlns:xlink="http://www.w3.org/1999/xlink" x="0px" y="0px"
	 width="37.954px" height="77.168px" viewBox="0 0 37.954 77.168" style="enable-background:new 0 0 37.954 77.168;"
	 xml:space="preserve">
<g id="QueenOnQueenOnPawnExpanded">
	<path style="fill:#231F20;" d="M32.565,56.188h2.911c0.335,0,0.647-0.168,0.833-0.447s0.219-0.631,0.089-0.941l-16.5-39.158
		c-0.156-0.371-0.52-0.612-0.922-0.612s-0.766,0.241-0.922,0.612l-16.5,39.158c-0.13,0.311-0.097,0.662,0.089,0.941
		s0.498,0.447,0.833,0.447h2.911l-3.833,9.098c-0.13,0.311-0.097,0.662,0.089,0.941s0.498,0.447,0.833,0.447h9.832l-3.637,9.104
		c-0.123,0.309-0.085,0.656,0.101,0.932c0.187,0.275,0.496,0.439,0.828,0.439h18.737c0.332,0,0.642-0.164,0.828-0.439
		c0.186-0.275,0.224-0.623,0.101-0.932l-3.637-9.104h9.847c0.335,0,0.647-0.168,0.833-0.447s0.219-0.631,0.089-0.941L32.565,56.188z
		 M20.516,71.855c0,0.908-0.735,1.643-1.642,1.643c-0.908,0-1.643-0.734-1.643-1.643c0-0.049,0.003-0.104,0.008-0.156
		c0-0.008,0.001-0.016,0.002-0.021c0.106-1.102,1.098-3.121,1.482-3.869c0.063-0.121,0.236-0.121,0.299,0
		c0.382,0.75,1.372,2.775,1.482,3.861c0,0.012,0.002,0.023,0.002,0.033C20.512,71.758,20.516,71.809,20.516,71.855z M11.206,61.381
		c0,0.908-0.734,1.643-1.643,1.643c-0.906,0-1.641-0.734-1.641-1.643c0-0.049,0.002-0.102,0.008-0.156c0-0.006,0-0.016,0.002-0.021
		c0.105-1.1,1.098-3.121,1.481-3.869c0.062-0.121,0.237-0.121,0.299,0c0.382,0.75,1.372,2.775,1.482,3.863
		c0.001,0.01,0.002,0.021,0.003,0.033C11.203,61.283,11.206,61.334,11.206,61.381z M12.406,50.895c0-0.049,0.003-0.102,0.009-0.156
		c0-0.006,0-0.016,0.002-0.021c0.105-1.1,1.098-3.121,1.481-3.869c0.063-0.121,0.237-0.121,0.299,0
		c0.382,0.75,1.372,2.775,1.481,3.863c0.002,0.01,0.002,0.021,0.004,0.033c0.005,0.053,0.008,0.104,0.008,0.15
		c0,0.908-0.735,1.643-1.643,1.643C13.142,52.537,12.406,51.803,12.406,50.895z M18.532,63.023c-0.906,0-1.642-0.734-1.642-1.643
		c0-0.049,0.003-0.102,0.008-0.156c0.001-0.006,0.001-0.016,0.002-0.021c0.106-1.1,1.099-3.121,1.481-3.869
		c0.063-0.121,0.238-0.121,0.3,0c0.382,0.75,1.372,2.775,1.481,3.863c0.002,0.01,0.002,0.021,0.004,0.033
		c0.004,0.053,0.008,0.104,0.008,0.15C20.175,62.289,19.439,63.023,18.532,63.023z M9.563,52.537c-0.153,0-0.298-0.027-0.438-0.066
		c-0.692-0.193-1.202-0.82-1.202-1.576c0-0.049,0.002-0.102,0.008-0.156c0-0.006,0-0.016,0.002-0.021
		c0.105-1.1,1.098-3.121,1.481-3.869c0.062-0.121,0.237-0.121,0.299,0c0.209,0.412,0.6,1.207,0.93,2.021
		c0.271,0.67,0.503,1.352,0.553,1.842c0.001,0.01,0.002,0.021,0.003,0.033c0.005,0.053,0.008,0.104,0.008,0.15
		C11.206,51.803,10.472,52.537,9.563,52.537z M12.415,61.225c0-0.006,0-0.016,0.002-0.021c0.105-1.1,1.098-3.121,1.481-3.869
		c0.063-0.121,0.237-0.121,0.299,0c0.221,0.434,0.643,1.293,0.982,2.152c0.248,0.627,0.454,1.252,0.5,1.711
		c0.002,0.01,0.002,0.021,0.004,0.033c0.005,0.053,0.008,0.104,0.008,0.15c0,0.908-0.735,1.643-1.643,1.643
		c-0.093,0-0.182-0.014-0.271-0.027c-0.777-0.129-1.371-0.801-1.371-1.615C12.406,61.332,12.409,61.279,12.415,61.225z
		 M20.167,50.744c0.004,0.053,0.008,0.104,0.008,0.15c0,0.444-0.178,0.846-0.463,1.141c-0.299,0.309-0.716,0.502-1.18,0.502
		c-0.189,0-0.369-0.038-0.538-0.098c-0.641-0.223-1.104-0.826-1.104-1.545c0-0.049,0.003-0.102,0.008-0.156
		c0.001-0.006,0.001-0.016,0.002-0.021c0.106-1.1,1.099-3.121,1.481-3.869c0.063-0.121,0.238-0.121,0.3,0
		c0.382,0.75,1.372,2.775,1.481,3.863C20.165,50.721,20.165,50.732,20.167,50.744z"/>
</g>
<g id="Layer_1">
</g>
</svg>
