<?xml version="1.0" encoding="iso-8859-1"?>
<!-- Generator: Adobe Illustrator 16.0.0, SVG Export Plug-In . SVG Version: 6.00 Build 0)  -->
<!DOCTYPE svg PUBLIC "-//W3C//DTD SVG 1.1//EN" "http://www.w3.org/Graphics/SVG/1.1/DTD/svg11.dtd">
<svg version="1.1" xmlns="http://www.w3.org/2000/svg" xmlns:xlink="http://www.w3.org/1999/xlink" x="0px" y="0px"
	 width="29.931px" height="77.168px" viewBox="0 0 29.931 77.168" style="enable-background:new 0 0 29.931 77.168;"
	 xml:space="preserve">
<g id="DroneOnPawnOnPawn">
	<path style="fill:#231F20;" d="M28.393,61.286l-5.498-14.535l-3.945-10.43l-3.067-8.107c-0.145-0.381-0.509-0.633-0.917-0.633
		c-0.407,0-0.772,0.252-0.917,0.633l-3.067,8.107L3.584,55.877l-2.046,5.409c-0.114,0.301-0.072,0.637,0.111,0.902
		c0.183,0.264,0.484,0.424,0.806,0.424h7.479L4.668,75.797c-0.123,0.309-0.085,0.657,0.101,0.932
		c0.187,0.275,0.496,0.439,0.828,0.439h18.737c0.332,0,0.643-0.164,0.828-0.439c0.186-0.274,0.225-0.623,0.102-0.932l-5.268-13.185
		h7.48c0.322,0,0.624-0.16,0.807-0.424C28.466,61.923,28.508,61.587,28.393,61.286z M16.512,71.876c0,0.907-0.735,1.642-1.641,1.642
		c-0.909,0-1.643-0.734-1.643-1.642c0-0.05,0.003-0.104,0.008-0.157c0-0.007,0.001-0.015,0.002-0.021
		c0.106-1.101,1.098-3.121,1.483-3.868c0.063-0.122,0.236-0.122,0.299,0c0.381,0.749,1.372,2.774,1.483,3.861
		c0,0.012,0.002,0.022,0.002,0.033C16.508,71.777,16.512,71.828,16.512,71.876z M13.723,59.026c-0.066,0-0.13-0.012-0.194-0.02
		c-0.816-0.098-1.451-0.785-1.451-1.627c0-0.048,0.003-0.097,0.007-0.148c0-0.003,0-0.005,0-0.008
		c0.001-0.008,0.001-0.016,0.002-0.021c0.106-1.105,1.102-3.131,1.486-3.879c0.021-0.039,0.061-0.045,0.097-0.06
		c0.076-0.029,0.162-0.024,0.204,0.06c0.23,0.45,0.678,1.362,1.024,2.256c0.23,0.594,0.417,1.18,0.461,1.615
		c0.002,0.012,0.002,0.023,0.004,0.033c0.005,0.053,0.008,0.104,0.008,0.152C15.37,58.288,14.633,59.026,13.723,59.026z
		 M9.744,58.935c-0.164,0.055-0.336,0.092-0.518,0.092c-0.557,0-1.047-0.279-1.345-0.703c-0.188-0.268-0.301-0.592-0.301-0.943
		c0-0.051,0.003-0.102,0.008-0.156c0.001-0.008,0.001-0.016,0.002-0.021c0.106-1.105,1.102-3.131,1.485-3.879
		c0.064-0.123,0.238-0.123,0.301,0c0.051,0.1,0.115,0.225,0.184,0.367c0.337,0.684,0.839,1.773,1.114,2.678
		c0.092,0.303,0.163,0.588,0.187,0.826c0.001,0.012,0.002,0.023,0.003,0.033c0.005,0.053,0.008,0.104,0.008,0.152
		C10.873,58.106,10.398,58.716,9.744,58.935z M20.814,60.651l-5.849-16.116l-2.354,6.491h-2.084l3.518-9.698
		c0.14-0.389,0.508-0.647,0.92-0.647c0.413,0,0.781,0.259,0.921,0.647l7.008,19.323H20.814z"/>
</g>
<g id="Layer_1">
</g>
</svg>
