<?xml version="1.0" encoding="iso-8859-1"?>
<!-- Generator: Adobe Illustrator 16.0.0, SVG Export Plug-In . SVG Version: 6.00 Build 0)  -->
<!DOCTYPE svg PUBLIC "-//W3C//DTD SVG 1.1//EN" "http://www.w3.org/Graphics/SVG/1.1/DTD/svg11.dtd">
<svg version="1.1" xmlns="http://www.w3.org/2000/svg" xmlns:xlink="http://www.w3.org/1999/xlink" x="0px" y="0px"
	 width="37.954px" height="77.168px" viewBox="0 0 37.954 77.168" style="enable-background:new 0 0 37.954 77.168;"
	 xml:space="preserve">
<g id="QueenOnDrone">
	<path style="fill:#231F20;" d="M36.269,75.814l-3.39-8.046l-7.842-18.612l-1.72-4.082l-2.498-5.927l-1.007-2.389
		c-0.152-0.361-0.505-0.596-0.897-0.596s-0.746,0.235-0.898,0.596l-1.006,2.389l-2.498,5.927l-1.72,4.082L6.456,64.195L1.56,75.814
		c-0.127,0.303-0.095,0.646,0.086,0.918c0.181,0.271,0.485,0.436,0.812,0.436h4.013h24.888h4.013c0.325,0,0.631-0.164,0.811-0.436
		C36.362,76.46,36.396,76.117,36.269,75.814z M12.362,71.912c0-0.049,0.002-0.103,0.008-0.158c0-0.007,0.001-0.013,0.002-0.021
		c0.105-1.097,1.096-3.112,1.477-3.858c0.064-0.122,0.237-0.122,0.299,0.002c0.152,0.297,0.399,0.798,0.649,1.359
		c0.378,0.849,0.762,1.839,0.829,2.491c0.001,0.012,0.002,0.021,0.003,0.032c0.005,0.054,0.008,0.104,0.008,0.152
		c0,0.904-0.733,1.638-1.637,1.638c-0.341,0-0.658-0.105-0.92-0.284C12.646,72.973,12.362,72.476,12.362,71.912z M16.834,71.912
		c0-0.049,0.003-0.103,0.008-0.158c0.001-0.007,0.001-0.013,0.001-0.021c0.105-1.097,1.096-3.112,1.478-3.858
		c0.063-0.122,0.237-0.122,0.299,0.002c0.381,0.746,1.367,2.766,1.477,3.851c0.001,0.012,0.002,0.021,0.003,0.032
		c0.005,0.054,0.008,0.104,0.008,0.152c0,0.904-0.732,1.638-1.637,1.638C17.567,73.55,16.834,72.816,16.834,71.912z M9.527,73.55
		c-0.286,0-0.55-0.08-0.784-0.208c-0.506-0.278-0.854-0.811-0.854-1.43c0-0.049,0.003-0.103,0.008-0.158
		c0.001-0.007,0.001-0.013,0.002-0.021c0.105-1.097,1.095-3.112,1.477-3.858c0.063-0.122,0.237-0.122,0.299,0.002
		c0.169,0.331,0.456,0.914,0.732,1.551c0.349,0.804,0.684,1.694,0.745,2.3c0.001,0.012,0.002,0.021,0.003,0.032
		c0.005,0.054,0.008,0.104,0.008,0.152C11.164,72.816,10.431,73.55,9.527,73.55z M29.885,75.219l-10.97-25.785l-6.93,16.288H9.867
		l7.047-16.565l1.104-2.594c0.153-0.359,0.506-0.593,0.897-0.593c0.391,0,0.743,0.233,0.896,0.593l1.104,2.594l11.088,26.063H29.885
		z"/>
</g>
<g id="Layer_1">
</g>
</svg>
