<?xml version="1.0" encoding="iso-8859-1"?>
<!-- Generator: Adobe Illustrator 16.0.0, SVG Export Plug-In . SVG Version: 6.00 Build 0)  -->
<!DOCTYPE svg PUBLIC "-//W3C//DTD SVG 1.1//EN" "http://www.w3.org/Graphics/SVG/1.1/DTD/svg11.dtd">
<svg version="1.1" xmlns="http://www.w3.org/2000/svg" xmlns:xlink="http://www.w3.org/1999/xlink" x="0px" y="0px"
	 width="37.954px" height="77.168px" viewBox="0 0 37.954 77.168" style="enable-background:new 0 0 37.954 77.168;"
	 xml:space="preserve">
<g id="QueenOnPawnOnDrone">
	<path style="fill:#231F20;" d="M36.388,54.821l-8.478-20.12l-0.289-0.687l-2.503-5.939l-4.231-10.042l-1.009-2.396
		c-0.153-0.362-0.509-0.598-0.902-0.598s-0.748,0.236-0.9,0.598l-1.01,2.396l-4.231,10.042L1.565,54.821
		c-0.127,0.303-0.095,0.646,0.086,0.92s0.487,0.438,0.815,0.438h4.025h6.501L5.564,75.814c-0.116,0.307-0.074,0.651,0.113,0.922
		c0.187,0.271,0.494,0.432,0.822,0.432h24.954c0.328,0,0.636-0.161,0.822-0.432c0.188-0.271,0.229-0.615,0.113-0.922l-7.428-19.636
		h6.499h4.025c0.328,0,0.634-0.164,0.815-0.438S36.516,55.124,36.388,54.821z M11.9,71.876c0-0.05,0.003-0.104,0.008-0.157
		c0.001-0.007,0.001-0.015,0.003-0.021c0.105-1.101,1.098-3.121,1.481-3.868c0.063-0.122,0.237-0.122,0.299,0
		c0.382,0.749,1.372,2.774,1.481,3.861c0.002,0.012,0.002,0.022,0.004,0.033c0.005,0.054,0.008,0.104,0.008,0.152
		c0,0.907-0.735,1.642-1.643,1.642C12.636,73.518,11.9,72.783,11.9,71.876z M16.385,71.876c0-0.05,0.003-0.104,0.009-0.157
		c0-0.007,0-0.015,0.002-0.021c0.105-1.101,1.098-3.121,1.481-3.868c0.062-0.122,0.237-0.122,0.299,0
		c0.382,0.749,1.372,2.774,1.481,3.861c0.002,0.012,0.002,0.022,0.004,0.033c0.004,0.054,0.008,0.104,0.008,0.152
		c0,0.907-0.735,1.642-1.643,1.642C17.12,73.518,16.385,72.783,16.385,71.876z M8.771,52.34c-0.508-0.278-0.856-0.813-0.856-1.434
		c0-0.05,0.003-0.104,0.008-0.159c0.001-0.008,0.001-0.013,0.002-0.021c0.105-1.101,1.099-3.123,1.482-3.871
		c0.063-0.122,0.238-0.122,0.3,0.002c0.169,0.332,0.457,0.916,0.735,1.556c0.35,0.807,0.686,1.7,0.748,2.308
		c0.001,0.012,0.002,0.021,0.003,0.032c0.005,0.054,0.007,0.105,0.007,0.153c0,0.906-0.735,1.642-1.642,1.642
		C9.271,52.548,9.006,52.468,8.771,52.34z M13.122,52.264c-0.434-0.294-0.719-0.793-0.719-1.357c0-0.05,0.003-0.104,0.008-0.159
		c0-0.008,0.001-0.013,0.002-0.021c0.105-1.101,1.099-3.123,1.482-3.871c0.032-0.061,0.091-0.092,0.151-0.092
		c0.059,0.001,0.118,0.031,0.149,0.094c0.152,0.298,0.4,0.8,0.651,1.363c0.217,0.486,0.429,1.015,0.589,1.504
		c0.12,0.367,0.214,0.715,0.243,0.996c0.001,0.012,0.002,0.021,0.003,0.032c0.005,0.054,0.008,0.105,0.008,0.153
		c0,0.792-0.562,1.453-1.309,1.607c-0.108,0.021-0.219,0.034-0.334,0.034C13.703,52.548,13.385,52.443,13.122,52.264z
		 M25.782,54.222l-6.747-15.831l-2.687,6.305h-2.126l3.914-9.182c0.154-0.359,0.508-0.594,0.899-0.594s0.746,0.235,0.899,0.594
		l7.976,18.709L25.782,54.222z M16.889,50.906c0-0.05,0.003-0.104,0.008-0.159c0.001-0.008,0.001-0.013,0.002-0.021
		c0.105-1.101,1.099-3.123,1.482-3.871c0.059-0.114,0.209-0.111,0.281-0.01c0.005,0.006,0.016,0.004,0.02,0.012
		c0.381,0.748,1.371,2.774,1.481,3.863c0.001,0.012,0.002,0.021,0.003,0.032c0.006,0.054,0.009,0.105,0.009,0.153
		c0,0.906-0.735,1.642-1.643,1.642c-0.752,0-1.379-0.509-1.574-1.198C16.917,51.208,16.889,51.061,16.889,50.906z"/>
</g>
<g id="Layer_1">
</g>
</svg>
