<?xml version="1.0" encoding="iso-8859-1"?>
<!-- Generator: Adobe Illustrator 16.0.0, SVG Export Plug-In . SVG Version: 6.00 Build 0)  -->
<!DOCTYPE svg PUBLIC "-//W3C//DTD SVG 1.1//EN" "http://www.w3.org/Graphics/SVG/1.1/DTD/svg11.dtd">
<svg version="1.1" xmlns="http://www.w3.org/2000/svg" xmlns:xlink="http://www.w3.org/1999/xlink" x="0px" y="0px"
	 width="37.954px" height="77.168px" viewBox="0 0 37.954 77.168" style="enable-background:new 0 0 37.954 77.168;"
	 xml:space="preserve">
<g id="Nest">
	<path style="fill:#231F20;" d="M36.326,75.813l-4.272-10.141l-6.979-16.563l-1.892-4.488l-2.333-5.538l-1.008-2.393
		c-0.152-0.361-0.507-0.597-0.9-0.597c-0.392,0-0.747,0.235-0.899,0.597l-1.008,2.393l-2.333,5.538l-1.891,4.488L5.496,66.471
		L1.56,75.813c-0.127,0.301-0.095,0.646,0.086,0.919c0.181,0.272,0.486,0.437,0.813,0.437h4.02h24.929h4.018
		c0.328,0,0.634-0.164,0.814-0.437C36.422,76.459,36.454,76.113,36.326,75.813z M8.755,73.334C8.248,73.056,7.9,72.523,7.9,71.903
		c0-0.049,0.003-0.103,0.008-0.158c0.001-0.008,0.001-0.013,0.002-0.021c0.105-1.099,1.098-3.117,1.48-3.865
		c0.063-0.122,0.237-0.122,0.3,0.002c0.169,0.33,0.456,0.915,0.733,1.552c0.35,0.805,0.685,1.699,0.747,2.306
		c0.001,0.012,0.002,0.021,0.003,0.032c0.004,0.054,0.007,0.104,0.007,0.152c0,0.906-0.734,1.64-1.64,1.64
		C9.254,73.543,8.989,73.463,8.755,73.334z M25.738,75.214l-6.736-15.805l-2.683,6.292h-2.123l3.907-9.166
		c0.153-0.359,0.507-0.592,0.898-0.592c0.391,0,0.744,0.232,0.898,0.592l7.962,18.681L25.738,75.214z M12.379,71.903
		c0-0.049,0.003-0.103,0.008-0.158c0-0.008,0.001-0.013,0.002-0.021c0.105-1.099,1.097-3.117,1.479-3.865
		c0.064-0.122,0.237-0.122,0.3,0.002c0.152,0.298,0.399,0.799,0.65,1.361c0.379,0.851,0.764,1.842,0.83,2.496
		c0.001,0.012,0.002,0.021,0.003,0.032c0.005,0.054,0.008,0.104,0.008,0.152c0,0.906-0.734,1.64-1.64,1.64
		c-0.342,0-0.659-0.104-0.922-0.284C12.665,72.964,12.379,72.468,12.379,71.903z M16.859,71.903c0-0.049,0.003-0.103,0.008-0.158
		c0.001-0.008,0.001-0.013,0.001-0.021c0.105-1.099,1.098-3.117,1.48-3.865c0.063-0.122,0.237-0.122,0.3,0.002
		c0.381,0.747,1.37,2.771,1.479,3.857c0.001,0.012,0.002,0.021,0.003,0.032c0.006,0.054,0.009,0.104,0.009,0.152
		c0,0.906-0.734,1.64-1.641,1.64C17.593,73.543,16.859,72.81,16.859,71.903z M29.931,75.216L18.943,49.387l-6.94,16.314H9.88
		l7.059-16.592l1.105-2.599c0.153-0.36,0.507-0.594,0.898-0.594c0.392,0,0.746,0.233,0.899,0.594l1.104,2.599l11.107,26.106H29.931z
		"/>
</g>
<g id="Layer_1">
</g>
</svg>
