<?xml version="1.0" encoding="iso-8859-1"?>
<!-- Generator: Adobe Illustrator 16.0.0, SVG Export Plug-In . SVG Version: 6.00 Build 0)  -->
<!DOCTYPE svg PUBLIC "-//W3C//DTD SVG 1.1//EN" "http://www.w3.org/Graphics/SVG/1.1/DTD/svg11.dtd">
<svg version="1.1" xmlns="http://www.w3.org/2000/svg" xmlns:xlink="http://www.w3.org/1999/xlink" x="0px" y="0px"
	 width="29.931px" height="77.168px" viewBox="0 0 29.931 77.168" style="enable-background:new 0 0 29.931 77.168;"
	 xml:space="preserve">
<g id="Drone">
	<path style="fill:#231F20;" d="M28.375,75.814L15.898,42.832c-0.147-0.391-0.52-0.646-0.936-0.646s-0.788,0.256-0.936,0.646
		L1.549,75.814c-0.116,0.307-0.074,0.652,0.113,0.922c0.187,0.271,0.494,0.432,0.822,0.432h24.955c0.328,0,0.636-0.16,0.822-0.432
		C28.449,76.467,28.491,76.121,28.375,75.814z M7.893,71.719c0.001-0.006,0.001-0.014,0.003-0.021
		c0.105-1.1,1.098-3.121,1.481-3.867c0.063-0.123,0.237-0.123,0.299,0c0.382,0.748,1.372,2.773,1.481,3.861
		c0.002,0.012,0.002,0.021,0.004,0.033c0.005,0.053,0.008,0.104,0.008,0.152c0,0.906-0.735,1.641-1.643,1.641
		c-0.906,0-1.642-0.734-1.642-1.641C7.885,71.826,7.888,71.773,7.893,71.719z M14.011,73.518c-0.906,0-1.642-0.734-1.642-1.641
		c0-0.051,0.003-0.104,0.009-0.158c0-0.006,0-0.014,0.002-0.021c0.105-1.1,1.098-3.121,1.481-3.867c0.062-0.123,0.237-0.123,0.299,0
		c0.382,0.748,1.372,2.773,1.481,3.861c0.002,0.012,0.002,0.021,0.004,0.033c0.004,0.053,0.008,0.104,0.008,0.152
		C15.654,72.783,14.918,73.518,14.011,73.518z"/>
</g>
<g id="Layer_1">
</g>
</svg>
