<?xml version="1.0" encoding="iso-8859-1"?>
<!-- Generator: Adobe Illustrator 16.0.0, SVG Export Plug-In . SVG Version: 6.00 Build 0)  -->
<!DOCTYPE svg PUBLIC "-//W3C//DTD SVG 1.1//EN" "http://www.w3.org/Graphics/SVG/1.1/DTD/svg11.dtd">
<svg version="1.1" xmlns="http://www.w3.org/2000/svg" xmlns:xlink="http://www.w3.org/1999/xlink" x="0px" y="0px"
	 width="37.954px" height="77.168px" viewBox="0 0 37.954 77.168" style="enable-background:new 0 0 37.954 77.168;"
	 xml:space="preserve">
<g id="DroneOnDroneOnQueen">
	<path style="fill:#231F20;" d="M36.398,75.779l-6.677-15.847h1.732c0.328,0,0.635-0.162,0.822-0.432
		c0.188-0.271,0.229-0.615,0.113-0.922l-3.236-8.557h2.3c0.328,0,0.636-0.161,0.822-0.432c0.188-0.271,0.229-0.615,0.113-0.922
		L19.912,15.686c-0.147-0.39-0.52-0.646-0.935-0.646c-0.416,0-0.788,0.257-0.936,0.646L5.564,48.669
		c-0.116,0.307-0.074,0.651,0.113,0.922c0.187,0.271,0.494,0.432,0.822,0.432H8.8l-3.237,8.557c-0.116,0.307-0.074,0.65,0.113,0.922
		c0.187,0.27,0.494,0.432,0.822,0.432h1.732L1.555,75.779c-0.13,0.31-0.097,0.662,0.089,0.941s0.498,0.447,0.833,0.447h33
		c0.335,0,0.647-0.168,0.833-0.447S36.528,76.089,36.398,75.779z M20.175,71.875c0,0.907-0.735,1.643-1.643,1.643
		c-0.906,0-1.642-0.735-1.642-1.643c0-0.05,0.003-0.103,0.008-0.156c0.001-0.007,0.001-0.016,0.002-0.022
		c0.106-1.1,1.099-3.121,1.481-3.868c0.063-0.122,0.238-0.122,0.3,0c0.382,0.749,1.372,2.775,1.481,3.862
		c0.002,0.011,0.002,0.022,0.004,0.033C20.171,71.776,20.175,71.827,20.175,71.875z M15.69,71.875c0,0.907-0.735,1.643-1.643,1.643
		c-0.906,0-1.642-0.735-1.642-1.643c0-0.05,0.003-0.103,0.009-0.156c0-0.007,0-0.016,0.002-0.022c0.105-1.1,1.098-3.121,1.481-3.868
		c0.063-0.122,0.237-0.122,0.299,0c0.382,0.749,1.372,2.775,1.481,3.862c0.002,0.011,0.002,0.022,0.004,0.033
		C15.688,71.776,15.69,71.827,15.69,71.875z M19.669,54.64c0,0.907-0.737,1.642-1.644,1.642c-0.906,0-1.642-0.734-1.642-1.642
		c0-0.05,0.003-0.104,0.009-0.157c0-0.007,0-0.015,0.002-0.021c0.105-1.101,1.098-3.121,1.481-3.868
		c0.062-0.122,0.237-0.122,0.299,0c0.382,0.749,1.373,2.774,1.482,3.861c0.002,0.012,0.002,0.022,0.004,0.033
		C19.665,54.541,19.669,54.592,19.669,54.64z M13.69,50.593c0.089,0.175,0.213,0.423,0.349,0.708
		c0.448,0.938,1.048,2.32,1.132,3.153c0.002,0.012,0.002,0.022,0.004,0.033c0.005,0.054,0.008,0.104,0.008,0.152
		c0,0.907-0.735,1.642-1.643,1.642c-0.542,0-1.019-0.266-1.317-0.67c-0.201-0.273-0.324-0.607-0.324-0.972
		c0-0.05,0.003-0.104,0.008-0.157c0.001-0.007,0.001-0.015,0.003-0.021c0.105-1.101,1.098-3.121,1.481-3.868
		C13.455,50.471,13.629,50.471,13.69,50.593z M13.973,46.308c-0.138,0.038-0.281,0.064-0.431,0.064c-0.41,0-0.781-0.155-1.069-0.405
		c-0.348-0.301-0.573-0.74-0.573-1.236c0-0.05,0.003-0.104,0.008-0.157c0.001-0.007,0.001-0.015,0.003-0.021
		c0.105-1.101,1.098-3.121,1.481-3.868c0.063-0.122,0.237-0.122,0.299,0c0.108,0.213,0.267,0.533,0.439,0.901
		c0.319,0.681,0.681,1.528,0.886,2.245c0.075,0.26,0.135,0.508,0.156,0.715c0.002,0.012,0.002,0.022,0.004,0.033
		c0.005,0.054,0.008,0.104,0.008,0.152C15.184,45.487,14.669,46.117,13.973,46.308z M19.66,44.578
		c0.004,0.054,0.008,0.104,0.008,0.152c0,0.907-0.735,1.642-1.642,1.642c-0.669,0-1.243-0.401-1.499-0.977
		c-0.09-0.204-0.143-0.428-0.143-0.665c0-0.05,0.003-0.104,0.009-0.157c0-0.007,0-0.015,0.002-0.021
		c0.105-1.101,1.098-3.121,1.481-3.868c0.062-0.122,0.237-0.122,0.299,0c0.051,0.1,0.114,0.226,0.183,0.366
		c0.449,0.91,1.203,2.554,1.298,3.495C19.658,44.557,19.658,44.567,19.66,44.578z M7.931,71.719c0-0.007,0-0.016,0.002-0.022
		c0.105-1.1,1.098-3.121,1.481-3.868c0.062-0.122,0.237-0.122,0.299,0c0.382,0.749,1.372,2.775,1.482,3.862
		c0.001,0.011,0.002,0.022,0.003,0.033c0.005,0.053,0.008,0.104,0.008,0.151c0,0.907-0.734,1.643-1.643,1.643
		c-0.906,0-1.641-0.735-1.641-1.643C7.923,71.825,7.925,71.772,7.931,71.719z"/>
</g>
<g id="Layer_1">
</g>
</svg>
