<?xml version="1.0" encoding="iso-8859-1"?>
<!-- Generator: Adobe Illustrator 16.0.0, SVG Export Plug-In . SVG Version: 6.00 Build 0)  -->
<!DOCTYPE svg PUBLIC "-//W3C//DTD SVG 1.1//EN" "http://www.w3.org/Graphics/SVG/1.1/DTD/svg11.dtd">
<svg version="1.1" xmlns="http://www.w3.org/2000/svg" xmlns:xlink="http://www.w3.org/1999/xlink" x="0px" y="0px"
	 width="37.954px" height="77.168px" viewBox="0 0 37.954 77.168" style="enable-background:new 0 0 37.954 77.168;"
	 xml:space="preserve">
<g id="QueenOnPawn">
	<path style="fill:#231F20;" d="M36.383,75.811l-8.478-20.119l-0.833-1.978l-1.959-4.649l-4.231-10.042l-1.009-2.396
		c-0.153-0.362-0.509-0.598-0.902-0.598s-0.748,0.236-0.9,0.598l-1.01,2.396L12.83,49.064L1.56,75.811
		c-0.127,0.303-0.095,0.646,0.086,0.92s0.487,0.438,0.815,0.438h4.025h24.969h4.025c0.328,0,0.634-0.164,0.815-0.438
		S36.511,76.113,36.383,75.811z M8.767,73.329c-0.508-0.278-0.856-0.813-0.856-1.434c0-0.05,0.003-0.104,0.008-0.159
		c0.001-0.008,0.001-0.013,0.002-0.021c0.105-1.101,1.099-3.123,1.482-3.871c0.063-0.122,0.238-0.122,0.3,0.002
		c0.169,0.332,0.457,0.916,0.735,1.556c0.35,0.807,0.686,1.7,0.748,2.308c0.001,0.012,0.002,0.021,0.003,0.032
		c0.005,0.054,0.007,0.105,0.007,0.153c0,0.906-0.735,1.642-1.642,1.642C9.267,73.537,9.001,73.457,8.767,73.329z M12.397,71.896
		c0-0.05,0.003-0.104,0.008-0.159c0-0.008,0.001-0.013,0.002-0.021c0.105-1.101,1.099-3.123,1.482-3.871
		c0.032-0.062,0.091-0.092,0.151-0.091c0.059,0,0.118,0.031,0.149,0.093c0.152,0.298,0.4,0.8,0.651,1.363
		c0.379,0.852,0.765,1.845,0.832,2.5c0.001,0.012,0.002,0.021,0.003,0.032c0.005,0.054,0.008,0.105,0.008,0.153
		c0,0.906-0.735,1.642-1.643,1.642c-0.342,0-0.66-0.104-0.923-0.284C12.683,72.959,12.397,72.46,12.397,71.896z M25.777,75.211
		L19.03,59.38l-2.687,6.305h-2.126l3.914-9.183c0.154-0.359,0.508-0.594,0.899-0.594s0.746,0.234,0.899,0.594l7.976,18.71
		L25.777,75.211z M16.884,71.896c0-0.05,0.003-0.104,0.008-0.159c0.001-0.008,0.001-0.013,0.002-0.021
		c0.105-1.101,1.099-3.123,1.482-3.871c0.063-0.122,0.238-0.122,0.3,0.002c0.381,0.748,1.371,2.774,1.481,3.863
		c0.001,0.012,0.002,0.021,0.003,0.032c0.006,0.054,0.009,0.105,0.009,0.153c0,0.906-0.735,1.642-1.643,1.642
		C17.62,73.537,16.884,72.802,16.884,71.896z"/>
</g>
<g id="Layer_1">
</g>
</svg>
