<?xml version="1.0" encoding="iso-8859-1"?>
<!-- Generator: Adobe Illustrator 16.0.0, SVG Export Plug-In . SVG Version: 6.00 Build 0)  -->
<!DOCTYPE svg PUBLIC "-//W3C//DTD SVG 1.1//EN" "http://www.w3.org/Graphics/SVG/1.1/DTD/svg11.dtd">
<svg version="1.1" xmlns="http://www.w3.org/2000/svg" xmlns:xlink="http://www.w3.org/1999/xlink" x="0px" y="0px"
	 width="37.954px" height="77.168px" viewBox="0 0 37.954 77.168" style="enable-background:new 0 0 37.954 77.168;"
	 xml:space="preserve">
<g id="QueenOnDroneOnDrone">
	<path style="fill:#231F20;" d="M36.269,62.479l-3.288-7.805l-7.943-18.854l-1.551-3.68l-2.667-6.329l-1.007-2.389
		c-0.152-0.361-0.505-0.596-0.897-0.596s-0.746,0.235-0.898,0.596l-1.006,2.389l-2.667,6.329l-1.55,3.68L8.527,45.944L1.56,62.479
		c-0.127,0.303-0.095,0.645,0.086,0.918c0.181,0.271,0.485,0.436,0.812,0.436h4.013h3.563L5.501,75.814
		c-0.116,0.307-0.074,0.651,0.113,0.922c0.187,0.271,0.494,0.432,0.822,0.432h24.954c0.328,0,0.637-0.161,0.822-0.432
		c0.188-0.271,0.23-0.615,0.113-0.922l-4.532-11.981h3.564h4.013c0.325,0,0.631-0.164,0.811-0.436
		C36.362,63.124,36.396,62.782,36.269,62.479z M16.834,58.576c0-0.049,0.003-0.102,0.008-0.158c0.001-0.006,0.001-0.012,0.001-0.02
		c0.105-1.098,1.096-3.113,1.478-3.859c0.063-0.121,0.237-0.121,0.299,0.002c0.381,0.746,1.367,2.766,1.477,3.852
		c0.001,0.012,0.002,0.021,0.003,0.031c0.005,0.055,0.008,0.105,0.008,0.152c0,0.904-0.732,1.639-1.637,1.639
		C17.567,60.215,16.834,59.48,16.834,58.576z M19.605,71.876c0,0.907-0.734,1.642-1.642,1.642c-0.906,0-1.642-0.734-1.642-1.642
		c0-0.05,0.003-0.104,0.009-0.157c0-0.007,0-0.015,0.002-0.021c0.105-1.101,1.098-3.121,1.481-3.868
		c0.062-0.122,0.237-0.122,0.299,0c0.381,0.749,1.371,2.774,1.48,3.861c0.002,0.012,0.002,0.022,0.004,0.033
		C19.602,71.777,19.605,71.828,19.605,71.876z M11.845,71.719c0.001-0.007,0.001-0.015,0.003-0.021
		c0.105-1.101,1.098-3.121,1.481-3.868c0.063-0.122,0.237-0.122,0.299,0C14.01,68.578,15,70.604,15.11,71.69
		c0.002,0.012,0.002,0.022,0.004,0.033c0.005,0.054,0.008,0.104,0.008,0.152c0,0.907-0.735,1.642-1.643,1.642
		c-0.906,0-1.642-0.734-1.642-1.642C11.837,71.826,11.84,71.772,11.845,71.719z M13.999,60.215c-0.151,0-0.294-0.028-0.433-0.066
		c-0.175-0.049-0.341-0.118-0.487-0.219c-0.433-0.293-0.717-0.789-0.717-1.354c0-0.049,0.002-0.102,0.008-0.158
		c0-0.006,0.001-0.012,0.002-0.02c0.105-1.098,1.096-3.113,1.477-3.859c0.064-0.121,0.237-0.121,0.299,0.002
		c0.152,0.297,0.399,0.799,0.649,1.359c0.067,0.152,0.133,0.311,0.199,0.468c0.304,0.726,0.575,1.487,0.629,2.024
		c0.001,0.012,0.002,0.021,0.003,0.031c0.005,0.055,0.008,0.105,0.008,0.152C15.636,59.48,14.903,60.215,13.999,60.215z
		 M9.527,60.215c-0.286,0-0.55-0.08-0.784-0.209c-0.079-0.043-0.146-0.103-0.216-0.157c-0.382-0.298-0.638-0.75-0.638-1.272
		c0-0.049,0.003-0.102,0.008-0.158c0.001-0.006,0.001-0.012,0.002-0.02c0.052-0.545,0.322-1.314,0.628-2.044
		c0.31-0.741,0.657-1.438,0.849-1.815c0.063-0.121,0.237-0.121,0.299,0.002c0.169,0.332,0.456,0.914,0.732,1.551
		c0.349,0.805,0.684,1.695,0.745,2.301c0.001,0.012,0.002,0.021,0.003,0.031c0.005,0.055,0.008,0.105,0.008,0.152
		C11.164,59.48,10.431,60.215,9.527,60.215z M29.885,61.884l-10.97-25.785l-6.93,16.288H9.867l7.047-16.566l1.104-2.594
		c0.153-0.36,0.506-0.593,0.897-0.593c0.391,0,0.743,0.233,0.896,0.593l1.104,2.594l11.088,26.063H29.885z"/>
</g>
<g id="Layer_1">
</g>
</svg>
