<?xml version="1.0" encoding="iso-8859-1"?>
<!-- Generator: Adobe Illustrator 16.0.0, SVG Export Plug-In . SVG Version: 6.00 Build 0)  -->
<!DOCTYPE svg PUBLIC "-//W3C//DTD SVG 1.1//EN" "http://www.w3.org/Graphics/SVG/1.1/DTD/svg11.dtd">
<svg version="1.1" xmlns="http://www.w3.org/2000/svg" xmlns:xlink="http://www.w3.org/1999/xlink" x="0px" y="0px"
	 width="37.954px" height="77.168px" viewBox="0 0 37.954 77.168" style="enable-background:new 0 0 37.954 77.168;"
	 xml:space="preserve">
<g id="DroneOnQueenOnDrone">
	<path style="fill:#231F20;" d="M36.269,75.814l-3.743-8.884l-2.801-6.647h1.729c0.328,0,0.636-0.162,0.822-0.432
		c0.188-0.271,0.229-0.615,0.113-0.922L19.913,25.946c-0.147-0.39-0.52-0.646-0.936-0.646s-0.788,0.257-0.936,0.646L5.564,58.93
		c-0.116,0.307-0.074,0.65,0.113,0.922c0.187,0.27,0.494,0.432,0.822,0.432h0.411h1.194l-1.194,2.833L1.56,75.814
		c-0.127,0.303-0.095,0.646,0.086,0.918c0.181,0.271,0.485,0.436,0.812,0.436h4.013h24.888h4.013c0.325,0,0.631-0.164,0.811-0.436
		C36.362,76.46,36.396,76.117,36.269,75.814z M8.743,73.342c-0.506-0.278-0.854-0.811-0.854-1.43c0-0.049,0.003-0.103,0.008-0.158
		c0.001-0.007,0.001-0.013,0.002-0.021c0.105-1.097,1.095-3.112,1.477-3.858c0.063-0.122,0.237-0.122,0.299,0.002
		c0.169,0.331,0.456,0.914,0.732,1.551c0.349,0.804,0.684,1.694,0.745,2.3c0.001,0.012,0.002,0.021,0.003,0.032
		c0.005,0.054,0.008,0.104,0.008,0.152c0,0.904-0.733,1.638-1.637,1.638C9.241,73.55,8.977,73.47,8.743,73.342z M12.362,71.912
		c0-0.049,0.002-0.103,0.008-0.158c0-0.007,0.001-0.013,0.002-0.021c0.105-1.097,1.096-3.112,1.477-3.858
		c0.064-0.122,0.237-0.122,0.299,0.002c0.152,0.297,0.399,0.798,0.649,1.359c0.378,0.849,0.762,1.839,0.829,2.491
		c0.001,0.012,0.002,0.021,0.003,0.032c0.005,0.054,0.008,0.104,0.008,0.152c0,0.904-0.733,1.638-1.637,1.638
		c-0.341,0-0.658-0.105-0.92-0.284C12.646,72.973,12.362,72.476,12.362,71.912z M18.471,73.55c-0.904,0-1.637-0.733-1.637-1.638
		c0-0.049,0.003-0.103,0.008-0.158c0.001-0.007,0.001-0.013,0.001-0.021c0.105-1.097,1.096-3.112,1.478-3.858
		c0.063-0.122,0.237-0.122,0.299,0.002c0.381,0.746,1.367,2.766,1.477,3.851c0.001,0.012,0.002,0.021,0.003,0.032
		c0.005,0.054,0.008,0.104,0.008,0.152C20.108,72.816,19.376,73.55,18.471,73.55z M11.985,65.722H9.867l2.313-5.438h2.119
		L11.985,65.722z M19.661,54.838c0.004,0.055,0.008,0.105,0.008,0.152c0,0.908-0.735,1.643-1.643,1.643
		c-0.798,0-1.462-0.57-1.61-1.326c-0.02-0.103-0.032-0.208-0.032-0.316c0-0.049,0.003-0.104,0.009-0.156
		c0-0.008,0-0.016,0.002-0.021c0.105-1.102,1.098-3.121,1.481-3.869c0.062-0.121,0.237-0.121,0.299,0
		c0.015,0.029,0.036,0.072,0.052,0.105c0.411,0.812,1.324,2.712,1.429,3.756C19.659,54.816,19.659,54.828,19.661,54.838z
		 M11.9,54.99c0-0.049,0.003-0.104,0.008-0.156c0.001-0.008,0.001-0.016,0.003-0.021c0.105-1.102,1.098-3.121,1.481-3.869
		c0.063-0.121,0.237-0.121,0.299,0c0.066,0.131,0.155,0.31,0.25,0.506c0.311,0.639,0.729,1.552,0.993,2.359
		c0.121,0.369,0.21,0.715,0.238,0.996c0.002,0.012,0.002,0.023,0.004,0.033c0.005,0.055,0.008,0.105,0.008,0.152
		c0,0.84-0.631,1.522-1.442,1.622c-0.066,0.008-0.132,0.021-0.2,0.021c-0.616,0-1.147-0.344-1.428-0.846
		C11.982,55.55,11.9,55.281,11.9,54.99z M29.885,75.219L23.53,60.283h2.119l6.354,14.936H29.885z"/>
</g>
<g id="Layer_1">
</g>
</svg>
