<?xml version="1.0" encoding="iso-8859-1"?>
<!-- Generator: Adobe Illustrator 16.0.0, SVG Export Plug-In . SVG Version: 6.00 Build 0)  -->
<!DOCTYPE svg PUBLIC "-//W3C//DTD SVG 1.1//EN" "http://www.w3.org/Graphics/SVG/1.1/DTD/svg11.dtd">
<svg version="1.1" xmlns="http://www.w3.org/2000/svg" xmlns:xlink="http://www.w3.org/1999/xlink" x="0px" y="0px"
	 width="29.931px" height="77.168px" viewBox="0 0 29.931 77.168" style="enable-background:new 0 0 29.931 77.168;"
	 xml:space="preserve">
<g id="DroneOnDrone">
	<g style="display:none;">
		<path style="display:inline;fill:#231F20;" d="M11.158,63.557c-0.11-1.088-1.101-3.113-1.482-3.863
			c-0.063-0.121-0.236-0.121-0.299,0c-0.385,0.748-1.376,2.77-1.482,3.869c-0.001,0.006-0.001,0.016-0.002,0.021
			c-0.005,0.055-0.008,0.107-0.008,0.156c0,0.908,0.734,1.643,1.643,1.643c0.906,0,1.642-0.734,1.642-1.643
			c0-0.047-0.003-0.098-0.009-0.15C11.16,63.578,11.158,63.566,11.158,63.557z"/>
		<path style="display:inline;fill:#231F20;" d="M15.641,63.557c-0.109-1.088-1.099-3.113-1.481-3.863
			c-0.063-0.121-0.236-0.121-0.299,0c-0.385,0.748-1.376,2.77-1.482,3.869c0,0.006-0.002,0.016-0.002,0.021
			c-0.005,0.055-0.008,0.107-0.008,0.156c0,0.908,0.734,1.643,1.643,1.643c0.907,0,1.641-0.734,1.641-1.643
			c0-0.047-0.004-0.098-0.008-0.15C15.645,63.578,15.643,63.566,15.641,63.557z"/>
		<path style="display:inline;fill:#231F20;" d="M28.374,67.68l-5.43-14.354h1.387c0.331,0,0.642-0.166,0.828-0.439
			c0.186-0.275,0.223-0.625,0.1-0.932l-9.37-23.453c-0.151-0.38-0.52-0.629-0.928-0.629c-0.409,0-0.777,0.249-0.929,0.629
			L4.664,51.955c-0.123,0.307-0.085,0.656,0.101,0.932c0.186,0.273,0.497,0.439,0.828,0.439h1.386L1.549,67.68
			c-0.116,0.307-0.074,0.652,0.113,0.922c0.187,0.271,0.494,0.432,0.823,0.432h24.954c0.329,0,0.637-0.16,0.823-0.432
			C28.448,68.332,28.491,67.986,28.374,67.68z M14.961,31.569l7.893,19.757h-0.666H20.05H9.874H7.735H7.068L14.961,31.569z
			 M3.932,67.033l5.185-13.707h11.689l5.186,13.707H3.932z"/>
		<path style="display:inline;fill:#231F20;" d="M14.866,49.676c0.906,0,1.643-0.735,1.643-1.643c0-0.048-0.004-0.1-0.008-0.152
			c-0.002-0.011-0.002-0.021-0.004-0.033c-0.109-1.086-1.1-3.112-1.483-3.861c-0.061-0.122-0.236-0.122-0.299,0
			c-0.383,0.747-1.375,2.768-1.481,3.868c-0.002,0.007-0.003,0.015-0.003,0.022c-0.005,0.055-0.008,0.106-0.008,0.156
			C13.224,48.94,13.959,49.676,14.866,49.676z"/>
	</g>
	<path style="fill:#231F20;" d="M24.78,66.291h2.667c0.328,0,0.636-0.16,0.822-0.432c0.188-0.27,0.229-0.615,0.113-0.922
		L15.906,31.955c-0.147-0.39-0.52-0.646-0.936-0.646s-0.788,0.257-0.936,0.646L1.557,64.938c-0.116,0.307-0.074,0.652,0.113,0.922
		c0.187,0.271,0.494,0.432,0.822,0.432H5.16l-3.603,9.523c-0.116,0.307-0.074,0.652,0.113,0.922
		c0.187,0.271,0.494,0.432,0.822,0.432h24.955c0.328,0,0.636-0.16,0.822-0.432c0.188-0.27,0.229-0.615,0.113-0.922L24.78,66.291z
		 M15.654,60.848c0.004,0.053,0.008,0.104,0.008,0.152c0,0.906-0.735,1.641-1.643,1.641c-0.906,0-1.642-0.734-1.642-1.641
		c0-0.051,0.003-0.104,0.009-0.158c0-0.006,0-0.014,0.002-0.021c0.105-1.1,1.098-3.121,1.481-3.867c0.062-0.123,0.237-0.123,0.299,0
		c0.382,0.748,1.372,2.773,1.481,3.861C15.652,60.826,15.652,60.836,15.654,60.848z M7.901,60.842
		c0.001-0.006,0.001-0.014,0.003-0.021c0.105-1.1,1.098-3.121,1.481-3.867c0.063-0.123,0.237-0.123,0.299,0
		c0.15,0.293,0.393,0.785,0.64,1.338c0.383,0.857,0.775,1.863,0.841,2.523c0.002,0.012,0.002,0.021,0.004,0.033
		c0.005,0.053,0.008,0.104,0.008,0.152c0,0.906-0.735,1.641-1.643,1.641c-0.283,0-0.545-0.078-0.778-0.203
		C8.245,62.158,7.893,61.623,7.893,61C7.893,60.949,7.896,60.896,7.901,60.842z M15.662,71.877c0,0.906-0.735,1.641-1.643,1.641
		c-0.906,0-1.642-0.734-1.642-1.641c0-0.051,0.003-0.104,0.009-0.158c0-0.006,0-0.014,0.002-0.021
		c0.105-1.1,1.098-3.121,1.481-3.867c0.062-0.123,0.237-0.123,0.299,0c0.382,0.748,1.372,2.773,1.481,3.861
		c0.002,0.012,0.002,0.021,0.004,0.033C15.658,71.777,15.662,71.828,15.662,71.877z M7.901,71.719
		c0.001-0.006,0.001-0.014,0.003-0.021c0.105-1.1,1.098-3.121,1.481-3.867c0.063-0.123,0.237-0.123,0.299,0
		c0.382,0.748,1.372,2.773,1.481,3.861c0.002,0.012,0.002,0.021,0.004,0.033c0.005,0.053,0.008,0.104,0.008,0.152
		c0,0.906-0.735,1.641-1.643,1.641c-0.906,0-1.642-0.734-1.642-1.641C7.893,71.826,7.896,71.773,7.901,71.719z"/>
</g>
<g id="Layer_1">
</g>
</svg>
