<?xml version="1.0" encoding="iso-8859-1"?>
<!-- Generator: Adobe Illustrator 16.0.0, SVG Export Plug-In . SVG Version: 6.00 Build 0)  -->
<!DOCTYPE svg PUBLIC "-//W3C//DTD SVG 1.1//EN" "http://www.w3.org/Graphics/SVG/1.1/DTD/svg11.dtd">
<svg version="1.1" xmlns="http://www.w3.org/2000/svg" xmlns:xlink="http://www.w3.org/1999/xlink" x="0px" y="0px"
	 width="37.954px" height="77.168px" viewBox="0 0 37.954 77.168" style="enable-background:new 0 0 37.954 77.168;"
	 xml:space="preserve">
<g id="PawnOnQueenOnQueen">
	<path style="fill:#231F20;" d="M32.565,66.684h2.911c0.335,0,0.647-0.168,0.833-0.447s0.219-0.632,0.089-0.941L25.947,40.491h2.398
		c0.332,0,0.642-0.164,0.828-0.439c0.186-0.274,0.224-0.623,0.101-0.932l-9.369-23.452c-0.151-0.38-0.52-0.629-0.929-0.629
		s-0.777,0.249-0.929,0.629L8.68,39.12c-0.123,0.309-0.085,0.657,0.101,0.932c0.187,0.275,0.496,0.439,0.828,0.439h2.397
		L1.555,65.295c-0.13,0.31-0.097,0.662,0.089,0.941s0.498,0.447,0.833,0.447h2.911l-3.833,9.096c-0.13,0.31-0.097,0.662,0.089,0.941
		s0.498,0.447,0.833,0.447h33c0.335,0,0.647-0.168,0.833-0.447s0.219-0.632,0.089-0.941L32.565,66.684z M20.175,71.875
		c0,0.907-0.735,1.643-1.643,1.643c-0.906,0-1.642-0.735-1.642-1.643c0-0.05,0.003-0.103,0.008-0.156
		c0.001-0.007,0.001-0.016,0.002-0.022c0.106-1.1,1.099-3.121,1.481-3.868c0.063-0.122,0.238-0.122,0.3,0
		c0.382,0.749,1.372,2.775,1.481,3.862c0.002,0.011,0.002,0.022,0.004,0.033C20.171,71.776,20.175,71.827,20.175,71.875z
		 M15.69,71.875c0,0.907-0.735,1.643-1.643,1.643c-0.906,0-1.642-0.735-1.642-1.643c0-0.05,0.003-0.103,0.009-0.156
		c0-0.007,0-0.016,0.002-0.022c0.105-1.1,1.098-3.121,1.481-3.868c0.063-0.122,0.237-0.122,0.299,0
		c0.382,0.749,1.372,2.775,1.481,3.862c0.002,0.011,0.002,0.022,0.004,0.033C15.688,71.776,15.69,71.827,15.69,71.875z
		 M11.206,71.875c0,0.907-0.734,1.643-1.643,1.643c-0.906,0-1.641-0.735-1.641-1.643c0-0.05,0.002-0.103,0.008-0.156
		c0-0.007,0-0.016,0.002-0.022c0.105-1.1,1.098-3.121,1.481-3.868c0.062-0.122,0.237-0.122,0.299,0
		c0.382,0.749,1.372,2.775,1.482,3.862c0.001,0.011,0.002,0.022,0.003,0.033C11.203,71.776,11.206,71.827,11.206,71.875z
		 M16.898,61.234c0.001-0.007,0.001-0.016,0.002-0.022c0.106-1.1,1.099-3.121,1.481-3.868c0.063-0.122,0.238-0.122,0.3,0
		c0.382,0.749,1.372,2.775,1.481,3.862c0.002,0.011,0.002,0.022,0.004,0.033c0.004,0.053,0.008,0.104,0.008,0.151
		c0,0.907-0.735,1.643-1.643,1.643c-0.906,0-1.642-0.735-1.642-1.643C16.891,61.341,16.894,61.288,16.898,61.234z M15.679,61.206
		c0.002,0.011,0.002,0.022,0.004,0.033c0.005,0.053,0.008,0.104,0.008,0.151c0,0.907-0.735,1.643-1.643,1.643
		c-0.906,0-1.642-0.735-1.642-1.643c0-0.05,0.003-0.103,0.009-0.156c0-0.007,0-0.016,0.002-0.022c0.105-1.1,1.098-3.121,1.481-3.868
		c0.063-0.122,0.237-0.122,0.299,0C14.579,58.093,15.569,60.119,15.679,61.206z M9.563,63.033c-0.153,0-0.298-0.027-0.439-0.067
		c-0.691-0.192-1.202-0.821-1.202-1.575c0-0.05,0.002-0.103,0.008-0.156c0-0.007,0-0.016,0.002-0.022
		c0.105-1.1,1.098-3.121,1.481-3.868c0.062-0.122,0.237-0.122,0.299,0c0.209,0.41,0.6,1.206,0.929,2.02
		c0.272,0.67,0.503,1.352,0.553,1.843c0.001,0.011,0.002,0.022,0.003,0.033c0.005,0.053,0.008,0.104,0.008,0.151
		C11.206,62.298,10.472,63.033,9.563,63.033z M20.513,35.014c0,0.012,0.002,0.022,0.002,0.033c0.005,0.054,0.009,0.104,0.009,0.152
		c0,0.547-0.271,1.028-0.682,1.327c-0.271,0.196-0.601,0.315-0.96,0.315c-0.302,0-0.58-0.087-0.823-0.228
		c-0.488-0.285-0.82-0.808-0.82-1.414c0-0.05,0.003-0.104,0.008-0.157c0-0.007,0.001-0.015,0.002-0.021
		c0.106-1.101,1.098-3.121,1.482-3.868c0.063-0.122,0.236-0.122,0.299,0C19.412,31.901,20.402,33.927,20.513,35.014z"/>
</g>
<g id="Layer_1">
</g>
</svg>
