<?xml version="1.0" encoding="iso-8859-1"?>
<!-- Generator: Adobe Illustrator 16.0.0, SVG Export Plug-In . SVG Version: 6.00 Build 0)  -->
<!DOCTYPE svg PUBLIC "-//W3C//DTD SVG 1.1//EN" "http://www.w3.org/Graphics/SVG/1.1/DTD/svg11.dtd">
<svg version="1.1" xmlns="http://www.w3.org/2000/svg" xmlns:xlink="http://www.w3.org/1999/xlink" x="0px" y="0px"
	 width="37.954px" height="77.168px" viewBox="0 0 37.954 77.168" style="enable-background:new 0 0 37.954 77.168;"
	 xml:space="preserve">
<g id="QueenOnDroneOnQueenExpanded">
	<path style="fill:#231F20;" d="M27.879,55.461h3.173c0.328,0,0.636-0.161,0.822-0.432c0.188-0.271,0.229-0.615,0.113-0.922
		l-3.775-9.98h7.307c0.335,0,0.647-0.168,0.833-0.447s0.219-0.631,0.089-0.941l-16.5-39.16c-0.156-0.371-0.52-0.612-0.922-0.612
		s-0.766,0.241-0.922,0.612l-16.5,39.16C1.467,43.049,1.5,43.4,1.686,43.68s0.498,0.447,0.833,0.447h6.419l-3.776,9.98
		c-0.116,0.307-0.074,0.651,0.113,0.922c0.187,0.271,0.494,0.432,0.822,0.432h4.06L1.597,75.779
		c-0.13,0.311-0.097,0.662,0.089,0.941s0.498,0.447,0.833,0.447h33c0.335,0,0.647-0.168,0.833-0.447s0.219-0.631,0.089-0.941
		L27.879,55.461z M20.217,71.875c0,0.908-0.735,1.643-1.643,1.643c-0.906,0-1.642-0.734-1.642-1.643
		c0-0.049,0.003-0.102,0.008-0.156c0.001-0.006,0.001-0.016,0.002-0.021c0.106-1.1,1.099-3.121,1.481-3.869
		c0.063-0.121,0.238-0.121,0.3,0c0.382,0.75,1.372,2.775,1.481,3.863c0.002,0.01,0.002,0.021,0.004,0.033
		C20.213,71.777,20.217,71.828,20.217,71.875z M15.732,71.875c0,0.908-0.735,1.643-1.643,1.643c-0.906,0-1.642-0.734-1.642-1.643
		c0-0.049,0.003-0.102,0.009-0.156c0-0.006,0-0.016,0.002-0.021c0.105-1.1,1.098-3.121,1.481-3.869c0.063-0.121,0.237-0.121,0.299,0
		c0.382,0.75,1.372,2.775,1.481,3.863c0.002,0.01,0.002,0.021,0.004,0.033C15.729,71.777,15.732,71.828,15.732,71.875z
		 M12.448,38.833c0-0.049,0.003-0.102,0.009-0.156c0-0.006,0-0.016,0.002-0.021c0.105-1.1,1.098-3.121,1.481-3.869
		c0.063-0.121,0.237-0.121,0.299,0c0.057,0.112,0.131,0.26,0.21,0.422c0.451,0.92,1.178,2.516,1.271,3.441
		c0.002,0.01,0.002,0.021,0.004,0.033c0.005,0.053,0.008,0.104,0.008,0.15c0,0.908-0.735,1.643-1.643,1.643
		c-0.565,0-1.064-0.287-1.359-0.722C12.552,39.492,12.448,39.175,12.448,38.833z M15.991,50.012c0-0.007,0-0.015,0.002-0.021
		c0.105-1.101,1.098-3.121,1.481-3.868c0.062-0.122,0.237-0.122,0.299,0c0.382,0.749,1.372,2.774,1.481,3.861
		c0.002,0.012,0.002,0.022,0.004,0.033c0.004,0.054,0.008,0.104,0.008,0.152c0,0.907-0.735,1.642-1.643,1.642
		c-0.906,0-1.642-0.734-1.642-1.642C15.982,50.119,15.985,50.065,15.991,50.012z M11.506,50.012
		c0.001-0.007,0.001-0.015,0.003-0.021c0.105-1.101,1.098-3.121,1.481-3.868c0.063-0.122,0.237-0.122,0.299,0
		c0.106,0.21,0.262,0.523,0.432,0.884c0.398,0.848,0.869,1.967,1.01,2.754c0.013,0.074,0.033,0.156,0.04,0.224
		c0.002,0.012,0.002,0.022,0.004,0.033c0.005,0.054,0.008,0.104,0.008,0.152c0,0.605-0.332,1.128-0.819,1.413
		c-0.243,0.142-0.521,0.229-0.823,0.229c-0.483,0-0.914-0.213-1.214-0.545c-0.263-0.291-0.428-0.674-0.428-1.097
		C11.498,50.119,11.501,50.065,11.506,50.012z M20.205,38.65c0.002,0.01,0.002,0.021,0.004,0.033
		c0.004,0.053,0.008,0.104,0.008,0.15c0,0.639-0.368,1.186-0.9,1.458c-0.203,0.104-0.429,0.168-0.671,0.178
		c-0.024,0.002-0.047,0.008-0.071,0.008c-0.764,0-1.4-0.524-1.583-1.232c-0.034-0.132-0.058-0.269-0.058-0.411
		c0-0.049,0.003-0.102,0.008-0.156c0.001-0.006,0.001-0.016,0.002-0.021c0.106-1.1,1.099-3.121,1.481-3.869
		c0.063-0.121,0.238-0.121,0.3,0c0.144,0.283,0.375,0.749,0.613,1.277C19.728,36.934,20.137,37.973,20.205,38.65z M7.973,38.677
		c0-0.006,0-0.016,0.002-0.021c0.105-1.1,1.098-3.121,1.481-3.869c0.062-0.121,0.237-0.121,0.299,0
		c0.338,0.664,1.151,2.326,1.41,3.454c0.033,0.146,0.06,0.285,0.073,0.409c0.001,0.01,0.002,0.021,0.003,0.033
		c0.005,0.053,0.008,0.104,0.008,0.15c0,0.619-0.345,1.15-0.849,1.43c-0.236,0.131-0.504,0.213-0.794,0.213
		c-0.906,0-1.641-0.735-1.641-1.643C7.965,38.785,7.967,38.732,7.973,38.677z M7.973,71.719c0-0.006,0-0.016,0.002-0.021
		c0.105-1.1,1.098-3.121,1.481-3.869c0.062-0.121,0.237-0.121,0.299,0c0.382,0.75,1.372,2.775,1.482,3.863
		c0.001,0.01,0.002,0.021,0.003,0.033c0.005,0.053,0.008,0.104,0.008,0.15c0,0.908-0.734,1.643-1.643,1.643
		c-0.906,0-1.641-0.734-1.641-1.643C7.965,71.826,7.967,71.773,7.973,71.719z"/>
</g>
<g id="Layer_1">
</g>
</svg>
