<?xml version="1.0" encoding="iso-8859-1"?>
<!-- Generator: Adobe Illustrator 16.0.0, SVG Export Plug-In . SVG Version: 6.00 Build 0)  -->
<!DOCTYPE svg PUBLIC "-//W3C//DTD SVG 1.1//EN" "http://www.w3.org/Graphics/SVG/1.1/DTD/svg11.dtd">
<svg version="1.1" xmlns="http://www.w3.org/2000/svg" xmlns:xlink="http://www.w3.org/1999/xlink" x="0px" y="0px"
	 width="37.954px" height="77.168px" viewBox="0 0 37.954 77.168" style="enable-background:new 0 0 37.954 77.168;"
	 xml:space="preserve">
<g id="DroneOnQueenOnDroneExpanded">
	<path style="fill:#231F20;" d="M36.439,65.305l-6.436-15.273h1.491c0.328,0,0.636-0.16,0.822-0.432
		c0.188-0.27,0.229-0.615,0.113-0.922L19.954,15.695c-0.147-0.39-0.52-0.646-0.936-0.646s-0.788,0.257-0.936,0.646L5.605,48.678
		C5.489,48.984,5.531,49.33,5.719,49.6c0.187,0.271,0.494,0.432,0.822,0.432h1.49L1.596,65.305c-0.13,0.311-0.097,0.662,0.089,0.941
		s0.498,0.447,0.833,0.447h6.531l-3.451,9.121c-0.116,0.307-0.074,0.65,0.113,0.922c0.187,0.27,0.494,0.432,0.822,0.432h24.954
		c0.328,0,0.636-0.162,0.822-0.432c0.188-0.271,0.229-0.615,0.113-0.922l-3.45-9.121h6.545c0.335,0,0.647-0.168,0.833-0.447
		S36.569,65.615,36.439,65.305z M19.702,71.875c0,0.908-0.735,1.643-1.643,1.643c-0.906,0-1.642-0.734-1.642-1.643
		c0-0.049,0.003-0.104,0.009-0.156c0-0.008,0-0.016,0.002-0.021c0.105-1.102,1.098-3.121,1.481-3.869
		c0.062-0.121,0.237-0.121,0.299,0c0.382,0.75,1.372,2.775,1.481,3.861c0.002,0.012,0.002,0.023,0.004,0.033
		C19.698,71.777,19.702,71.828,19.702,71.875z M15.218,71.875c0,0.908-0.735,1.643-1.643,1.643c-0.906,0-1.642-0.734-1.642-1.643
		c0-0.049,0.003-0.104,0.008-0.156c0.001-0.008,0.001-0.016,0.003-0.021c0.105-1.102,1.098-3.121,1.481-3.869
		c0.063-0.121,0.237-0.121,0.299,0c0.382,0.75,1.372,2.775,1.481,3.861c0.002,0.012,0.002,0.023,0.004,0.033
		C15.215,71.777,15.218,71.828,15.218,71.875z M11.941,44.74c0-0.051,0.003-0.104,0.008-0.158c0.001-0.006,0.001-0.014,0.003-0.021
		c0.105-1.1,1.098-3.121,1.481-3.867c0.063-0.123,0.237-0.123,0.299,0c0.059,0.115,0.136,0.27,0.219,0.439
		c0.452,0.922,1.17,2.503,1.263,3.422c0.002,0.012,0.002,0.021,0.004,0.033c0.005,0.053,0.008,0.104,0.008,0.152
		c0,0.906-0.735,1.641-1.643,1.641c-0.641,0-1.19-0.371-1.461-0.906C12.01,45.252,11.941,45.006,11.941,44.74z M20.216,61.4
		c0,0.908-0.735,1.643-1.643,1.643c-0.906,0-1.642-0.734-1.642-1.643c0-0.049,0.003-0.102,0.008-0.156
		c0.001-0.006,0.001-0.016,0.002-0.021c0.106-1.1,1.099-3.121,1.481-3.869c0.063-0.121,0.238-0.121,0.3,0
		c0.382,0.75,1.372,2.775,1.481,3.863c0.002,0.01,0.002,0.021,0.004,0.033C20.212,61.303,20.216,61.354,20.216,61.4z M15.724,61.25
		c0.005,0.053,0.008,0.104,0.008,0.15c0,0.908-0.735,1.643-1.643,1.643c-0.522,0-0.982-0.25-1.283-0.631
		c-0.221-0.279-0.358-0.627-0.358-1.012c0-0.049,0.003-0.102,0.009-0.156c0-0.006,0-0.016,0.002-0.021
		c0.105-1.1,1.098-3.121,1.481-3.869c0.063-0.121,0.237-0.121,0.299,0c0.071,0.141,0.168,0.336,0.273,0.551
		c0.453,0.936,1.12,2.428,1.208,3.313C15.722,61.227,15.722,61.238,15.724,61.25z M19.702,44.588
		c0.004,0.053,0.008,0.104,0.008,0.152c0,0.545-0.27,1.025-0.679,1.324c-0.02,0.014-0.037,0.029-0.057,0.043
		c-0.26,0.172-0.571,0.273-0.907,0.273c-0.451,0-0.858-0.182-1.155-0.476c-0.3-0.298-0.486-0.71-0.486-1.165
		c0-0.051,0.003-0.104,0.009-0.158c0-0.006,0-0.014,0.002-0.021c0.105-1.1,1.098-3.121,1.481-3.867c0.062-0.123,0.237-0.123,0.299,0
		c0.165,0.322,0.441,0.885,0.712,1.504c0.359,0.818,0.707,1.738,0.77,2.357C19.7,44.566,19.7,44.576,19.702,44.588z M7.972,61.244
		c0-0.006,0-0.016,0.002-0.021c0.105-1.1,1.098-3.121,1.481-3.869c0.062-0.121,0.237-0.121,0.299,0
		c0.359,0.705,1.249,2.533,1.445,3.654c0.012,0.068,0.031,0.145,0.037,0.209c0.001,0.01,0.002,0.021,0.003,0.033
		c0.005,0.053,0.008,0.104,0.008,0.15c0,0.559-0.28,1.051-0.707,1.348c-0.266,0.186-0.587,0.295-0.936,0.295
		c-0.906,0-1.641-0.734-1.641-1.643C7.964,61.352,7.966,61.299,7.972,61.244z"/>
</g>
<g id="Layer_1">
</g>
</svg>
