<?xml version="1.0" encoding="iso-8859-1"?>
<!-- Generator: Adobe Illustrator 16.0.0, SVG Export Plug-In . SVG Version: 6.00 Build 0)  -->
<!DOCTYPE svg PUBLIC "-//W3C//DTD SVG 1.1//EN" "http://www.w3.org/Graphics/SVG/1.1/DTD/svg11.dtd">
<svg version="1.1" xmlns="http://www.w3.org/2000/svg" xmlns:xlink="http://www.w3.org/1999/xlink" x="0px" y="0px"
	 width="29.931px" height="77.168px" viewBox="0 0 29.931 77.168" style="enable-background:new 0 0 29.931 77.168;"
	 xml:space="preserve">
<g id="PawnOnDroneOnPawn">
	<path style="fill:#231F20;" d="M28.401,75.842l-5.44-14.382h1.383c0.332,0,0.642-0.164,0.828-0.439
		c0.186-0.273,0.224-0.623,0.101-0.932l-9.37-23.452c-0.151-0.38-0.52-0.629-0.929-0.629s-0.777,0.249-0.929,0.629L4.677,60.089
		c-0.123,0.309-0.085,0.658,0.101,0.932c0.187,0.275,0.496,0.439,0.828,0.439h0.765h0.617l-0.617,1.63L1.547,75.842
		c-0.114,0.301-0.072,0.638,0.111,0.903c0.183,0.264,0.484,0.423,0.806,0.423h25.021c0.322,0,0.624-0.159,0.807-0.423
		C28.475,76.479,28.517,76.143,28.401,75.842z M7.597,71.779c0.001-0.008,0.001-0.016,0.002-0.021
		c0.106-1.104,1.102-3.131,1.485-3.879c0.064-0.123,0.238-0.123,0.301,0c0.051,0.1,0.115,0.226,0.184,0.367
		c0.337,0.684,0.839,1.774,1.114,2.678c0.092,0.304,0.163,0.589,0.187,0.826c0.001,0.012,0.002,0.023,0.003,0.033
		c0.005,0.053,0.008,0.104,0.008,0.152c0,0.728-0.475,1.336-1.129,1.555c-0.164,0.055-0.336,0.092-0.518,0.092
		c-0.557,0-1.047-0.279-1.345-0.703c-0.188-0.268-0.301-0.591-0.301-0.943C7.589,71.886,7.592,71.834,7.597,71.779z M16.511,55.983
		c0,0.012,0.002,0.021,0.002,0.033c0.005,0.053,0.009,0.104,0.009,0.152c0,0.299-0.086,0.576-0.227,0.817
		c-0.283,0.49-0.808,0.823-1.416,0.823c-0.528,0-0.992-0.253-1.292-0.639c-0.216-0.278-0.35-0.623-0.35-1.002
		c0-0.051,0.003-0.104,0.008-0.158c0-0.006,0.001-0.014,0.002-0.021c0.106-1.1,1.098-3.121,1.482-3.867
		c0.063-0.123,0.236-0.123,0.299,0C15.41,52.87,16.4,54.896,16.511,55.983z M13.731,73.582c-0.909,0-1.646-0.737-1.646-1.646
		c0-0.05,0.003-0.102,0.007-0.156c0.001-0.008,0.001-0.016,0.002-0.021c0.106-1.104,1.102-3.131,1.486-3.879
		c0.063-0.123,0.238-0.123,0.301,0c0.383,0.75,1.375,2.782,1.485,3.871c0.002,0.012,0.002,0.023,0.004,0.033
		c0.005,0.053,0.008,0.104,0.008,0.152C15.378,72.845,14.642,73.582,13.731,73.582z M12.621,65.582h-2.084l1.495-4.122h2.084
		L12.621,65.582z M20.823,75.208l-4.99-13.748h2.084l4.985,13.748H20.823z"/>
</g>
<g id="Layer_1">
</g>
</svg>
