<?xml version="1.0" encoding="iso-8859-1"?>
<!-- Generator: Adobe Illustrator 16.0.0, SVG Export Plug-In . SVG Version: 6.00 Build 0)  -->
<!DOCTYPE svg PUBLIC "-//W3C//DTD SVG 1.1//EN" "http://www.w3.org/Graphics/SVG/1.1/DTD/svg11.dtd">
<svg version="1.1" xmlns="http://www.w3.org/2000/svg" xmlns:xlink="http://www.w3.org/1999/xlink" x="0px" y="0px"
	 width="37.954px" height="77.168px" viewBox="0 0 37.954 77.168" style="enable-background:new 0 0 37.954 77.168;"
	 xml:space="preserve">
<g id="PawnOnQueenOnPawnExpanded">
	<path style="fill:#231F20;" d="M36.414,64.729L26.232,40.563h2.129c0.332,0,0.642-0.164,0.828-0.439
		c0.186-0.274,0.224-0.623,0.101-0.931L19.921,15.74c-0.151-0.38-0.52-0.629-0.929-0.629s-0.777,0.249-0.929,0.629L8.695,39.192
		C8.572,39.5,8.61,39.849,8.796,40.123c0.187,0.275,0.496,0.439,0.828,0.439h2.128L1.57,64.729c-0.13,0.311-0.097,0.662,0.089,0.941
		s0.498,0.447,0.833,0.447h10.087l-3.892,9.742c-0.123,0.309-0.085,0.656,0.101,0.932c0.187,0.275,0.496,0.439,0.828,0.439h18.737
		c0.332,0,0.642-0.164,0.828-0.439c0.186-0.275,0.224-0.623,0.101-0.932l-3.892-9.742h10.102c0.335,0,0.647-0.168,0.833-0.447
		S36.544,65.039,36.414,64.729z M20.531,71.938c0,0.908-0.735,1.643-1.642,1.643c-0.908,0-1.643-0.734-1.643-1.643
		c0-0.049,0.003-0.104,0.008-0.156c0-0.008,0.001-0.016,0.002-0.021c0.106-1.102,1.098-3.121,1.482-3.869
		c0.063-0.121,0.236-0.121,0.299,0c0.382,0.75,1.372,2.775,1.482,3.861c0,0.012,0.002,0.023,0.002,0.033
		C20.527,71.84,20.531,71.891,20.531,71.938z M16.906,60.824c0-0.049,0.003-0.102,0.008-0.156c0-0.004,0.001-0.01,0.001-0.016
		c0-0.002,0-0.004,0-0.006c0.106-1.1,1.099-3.122,1.481-3.87c0.019-0.035,0.056-0.038,0.087-0.053
		c0.078-0.036,0.168-0.033,0.212,0.053c0.382,0.75,1.372,2.776,1.481,3.864c0.002,0.01,0.002,0.021,0.004,0.033
		c0.004,0.053,0.008,0.104,0.008,0.15c0,0.908-0.735,1.643-1.643,1.643C17.642,62.467,16.906,61.732,16.906,60.824z M14.038,62.463
		c-0.894-0.014-1.616-0.74-1.616-1.639c0-0.049,0.003-0.102,0.009-0.156c0-0.006,0-0.016,0.002-0.021
		c0.105-1.1,1.098-3.122,1.481-3.87c0.063-0.121,0.237-0.121,0.299,0c0.249,0.489,0.753,1.519,1.107,2.479
		c0.188,0.512,0.336,1.006,0.375,1.385c0.002,0.01,0.002,0.021,0.004,0.033c0.005,0.053,0.008,0.104,0.008,0.15
		c0,0.908-0.735,1.643-1.643,1.643C14.055,62.467,14.047,62.465,14.038,62.463z M20.528,35.085c0,0.012,0.002,0.022,0.002,0.033
		c0.005,0.054,0.009,0.104,0.009,0.152c0,0.907-0.735,1.642-1.642,1.642c-0.908,0-1.643-0.734-1.643-1.642
		c0-0.05,0.003-0.104,0.008-0.157c0-0.007,0.001-0.015,0.002-0.021c0.106-1.101,1.098-3.121,1.482-3.868
		c0.063-0.122,0.236-0.122,0.299,0C19.428,31.973,20.418,33.999,20.528,35.085z M7.946,60.668c0-0.006,0-0.016,0.002-0.021
		c0.105-1.1,1.098-3.122,1.481-3.87c0.062-0.121,0.237-0.121,0.299,0c0.382,0.75,1.372,2.776,1.482,3.864
		c0.001,0.01,0.002,0.021,0.003,0.033c0.005,0.053,0.008,0.104,0.008,0.15c0,0.908-0.734,1.643-1.643,1.643
		c-0.906,0-1.641-0.734-1.641-1.643C7.938,60.775,7.94,60.723,7.946,60.668z"/>
</g>
<g id="Layer_1">
</g>
</svg>
