<?xml version="1.0" encoding="iso-8859-1"?>
<!-- Generator: Adobe Illustrator 16.0.0, SVG Export Plug-In . SVG Version: 6.00 Build 0)  -->
<!DOCTYPE svg PUBLIC "-//W3C//DTD SVG 1.1//EN" "http://www.w3.org/Graphics/SVG/1.1/DTD/svg11.dtd">
<svg version="1.1" xmlns="http://www.w3.org/2000/svg" xmlns:xlink="http://www.w3.org/1999/xlink" x="0px" y="0px"
	 width="37.954px" height="77.168px" viewBox="0 0 37.954 77.168" style="enable-background:new 0 0 37.954 77.168;"
	 xml:space="preserve">
<g id="QueenOnQueenOnDroneExpanded">
	<path style="fill:#231F20;" d="M32.606,56.209h2.911c0.335,0,0.647-0.168,0.833-0.447s0.219-0.631,0.089-0.941l-16.5-39.16
		c-0.156-0.371-0.52-0.612-0.922-0.612s-0.766,0.241-0.922,0.612l-16.5,39.16c-0.13,0.311-0.097,0.662,0.089,0.941
		s0.498,0.447,0.833,0.447h2.911l-3.833,9.096c-0.13,0.311-0.097,0.662,0.089,0.941s0.498,0.447,0.833,0.447h6.531l-3.451,9.121
		c-0.116,0.307-0.074,0.65,0.113,0.922c0.187,0.27,0.494,0.432,0.822,0.432h24.954c0.328,0,0.636-0.162,0.822-0.432
		c0.188-0.271,0.229-0.615,0.113-0.922l-3.45-9.121h6.545c0.335,0,0.647-0.168,0.833-0.447s0.219-0.631,0.089-0.941L32.606,56.209z
		 M19.702,71.875c0,0.908-0.735,1.643-1.643,1.643c-0.906,0-1.642-0.734-1.642-1.643c0-0.049,0.003-0.104,0.009-0.156
		c0-0.008,0-0.016,0.002-0.021c0.105-1.102,1.098-3.121,1.481-3.869c0.062-0.121,0.237-0.121,0.299,0
		c0.382,0.75,1.372,2.775,1.481,3.861c0.002,0.012,0.002,0.023,0.004,0.033C19.698,71.777,19.702,71.828,19.702,71.875z
		 M15.218,71.875c0,0.908-0.735,1.643-1.643,1.643c-0.906,0-1.642-0.734-1.642-1.643c0-0.049,0.003-0.104,0.008-0.156
		c0.001-0.008,0.001-0.016,0.003-0.021c0.105-1.102,1.098-3.121,1.481-3.869c0.063-0.121,0.237-0.121,0.299,0
		c0.382,0.75,1.372,2.775,1.481,3.861c0.002,0.012,0.002,0.023,0.004,0.033C15.215,71.777,15.218,71.828,15.218,71.875z
		 M20.216,61.4c0,0.908-0.735,1.643-1.643,1.643c-0.906,0-1.642-0.734-1.642-1.643c0-0.049,0.003-0.102,0.008-0.156
		c0.001-0.006,0.001-0.016,0.002-0.021c0.106-1.1,1.099-3.121,1.481-3.869c0.063-0.121,0.238-0.121,0.3,0
		c0.382,0.75,1.372,2.775,1.481,3.863c0.002,0.01,0.002,0.021,0.004,0.033C20.212,61.303,20.216,61.354,20.216,61.4z M14.238,57.354
		c0.071,0.141,0.168,0.336,0.273,0.551c0.453,0.936,1.12,2.428,1.208,3.313c0.002,0.01,0.002,0.021,0.004,0.033
		c0.005,0.053,0.008,0.104,0.008,0.15c0,0.908-0.735,1.643-1.643,1.643c-0.522,0-0.982-0.25-1.283-0.631
		c-0.221-0.279-0.358-0.627-0.358-1.012c0-0.049,0.003-0.102,0.009-0.156c0-0.006,0-0.016,0.002-0.021
		c0.105-1.1,1.098-3.121,1.481-3.869C14.003,57.232,14.177,57.232,14.238,57.354z M14.407,52.525
		c-0.103,0.021-0.209,0.033-0.318,0.033c-0.906,0-1.642-0.734-1.642-1.643c0-0.049,0.003-0.102,0.009-0.156
		c0-0.006,0-0.016,0.002-0.021c0.105-1.1,1.098-3.121,1.481-3.869c0.063-0.121,0.237-0.121,0.299,0
		c0.281,0.551,0.888,1.79,1.234,2.84c0.125,0.379,0.218,0.734,0.247,1.023c0.002,0.01,0.002,0.021,0.004,0.033
		c0.005,0.053,0.008,0.104,0.008,0.15C15.731,51.715,15.162,52.378,14.407,52.525z M9.604,52.559c-0.153,0-0.298-0.028-0.439-0.067
		c-0.691-0.192-1.202-0.821-1.202-1.575c0-0.049,0.002-0.102,0.008-0.156c0-0.006,0-0.016,0.002-0.021
		c0.105-1.1,1.098-3.121,1.481-3.869c0.062-0.121,0.237-0.121,0.299,0c0.209,0.41,0.6,1.207,0.929,2.02
		c0.272,0.67,0.503,1.352,0.553,1.844c0.001,0.01,0.002,0.021,0.003,0.033c0.005,0.053,0.008,0.104,0.008,0.15
		C11.247,51.824,10.513,52.559,9.604,52.559z M7.972,61.244c0-0.006,0-0.016,0.002-0.021c0.105-1.1,1.098-3.121,1.481-3.869
		c0.062-0.121,0.237-0.121,0.299,0c0.359,0.705,1.249,2.533,1.445,3.654c0.012,0.068,0.031,0.145,0.037,0.209
		c0.001,0.01,0.002,0.021,0.003,0.033c0.005,0.053,0.008,0.104,0.008,0.15c0,0.559-0.28,1.051-0.707,1.348
		c-0.266,0.186-0.587,0.295-0.936,0.295c-0.906,0-1.641-0.734-1.641-1.643C7.964,61.352,7.966,61.299,7.972,61.244z M20.208,50.766
		c0.004,0.053,0.008,0.104,0.008,0.15c0,0.908-0.735,1.643-1.643,1.643c-0.758,0-1.391-0.518-1.579-1.218
		c-0.037-0.136-0.063-0.277-0.063-0.425c0-0.049,0.003-0.102,0.008-0.156c0.001-0.006,0.001-0.016,0.002-0.021
		c0.106-1.1,1.099-3.121,1.481-3.869c0.057-0.109,0.196-0.105,0.27-0.019c0.008,0.01,0.023,0.006,0.03,0.019
		c0.382,0.75,1.372,2.775,1.481,3.863C20.206,50.742,20.206,50.754,20.208,50.766z"/>
</g>
<g id="Layer_1">
</g>
</svg>
