<?xml version="1.0" encoding="iso-8859-1"?>
<!-- Generator: Adobe Illustrator 16.0.0, SVG Export Plug-In . SVG Version: 6.00 Build 0)  -->
<!DOCTYPE svg PUBLIC "-//W3C//DTD SVG 1.1//EN" "http://www.w3.org/Graphics/SVG/1.1/DTD/svg11.dtd">
<svg version="1.1" xmlns="http://www.w3.org/2000/svg" xmlns:xlink="http://www.w3.org/1999/xlink" x="0px" y="0px"
	 width="29.931px" height="77.168px" viewBox="0 0 29.931 77.168" style="enable-background:new 0 0 29.931 77.168;"
	 xml:space="preserve">
<g id="PawnOnDrone">
	<path style="fill:#231F20;" d="M28.374,75.814l-5.43-14.354h1.387c0.331,0,0.642-0.166,0.828-0.439
		c0.186-0.275,0.223-0.625,0.1-0.932l-9.37-23.453c-0.151-0.38-0.52-0.629-0.928-0.629c-0.409,0-0.777,0.249-0.93,0.629L4.664,60.09
		c-0.123,0.307-0.085,0.656,0.101,0.932c0.186,0.273,0.497,0.439,0.828,0.439h1.386l-5.43,14.354
		c-0.116,0.307-0.074,0.652,0.113,0.922c0.187,0.271,0.494,0.432,0.823,0.432h24.954c0.329,0,0.637-0.16,0.823-0.432
		C28.448,76.467,28.491,76.121,28.374,75.814z M15.653,71.875c0,0.908-0.734,1.643-1.641,1.643c-0.909,0-1.643-0.734-1.643-1.643
		c0-0.049,0.003-0.102,0.008-0.156c0-0.006,0.002-0.016,0.002-0.021c0.106-1.1,1.098-3.121,1.483-3.869
		c0.063-0.121,0.236-0.121,0.299,0c0.382,0.75,1.371,2.775,1.48,3.863c0.002,0.01,0.004,0.021,0.004,0.033
		C15.649,71.777,15.653,71.828,15.653,71.875z M16.497,55.982c0.002,0.012,0.002,0.022,0.004,0.033
		c0.004,0.053,0.008,0.104,0.008,0.152c0,0.907-0.737,1.643-1.643,1.643s-1.642-0.735-1.642-1.643c0-0.05,0.003-0.102,0.008-0.156
		c0-0.008,0.001-0.016,0.003-0.022c0.105-1.101,1.098-3.121,1.481-3.868c0.063-0.122,0.238-0.122,0.299,0
		C15.397,52.87,16.388,54.896,16.497,55.982z M7.893,71.719c0.001-0.006,0.001-0.016,0.002-0.021c0.106-1.1,1.098-3.121,1.482-3.869
		c0.063-0.121,0.236-0.121,0.299,0c0.382,0.75,1.372,2.775,1.482,3.863c0,0.01,0.002,0.021,0.002,0.033
		c0.006,0.053,0.009,0.104,0.009,0.15c0,0.908-0.735,1.643-1.642,1.643c-0.908,0-1.643-0.734-1.643-1.643
		C7.885,71.826,7.888,71.773,7.893,71.719z"/>
</g>
<g id="Layer_1">
</g>
</svg>
