<?xml version="1.0" encoding="iso-8859-1"?>
<!-- Generator: Adobe Illustrator 16.0.0, SVG Export Plug-In . SVG Version: 6.00 Build 0)  -->
<!DOCTYPE svg PUBLIC "-//W3C//DTD SVG 1.1//EN" "http://www.w3.org/Graphics/SVG/1.1/DTD/svg11.dtd">
<svg version="1.1" xmlns="http://www.w3.org/2000/svg" xmlns:xlink="http://www.w3.org/1999/xlink" x="0px" y="0px"
	 width="29.931px" height="77.168px" viewBox="0 0 29.931 77.168" style="enable-background:new 0 0 29.931 77.168;"
	 xml:space="preserve">
<g id="PawnOnDroneOnPawnExpanded">
	<path style="fill:#231F20;" d="M28.381,59.617L21.146,40.49h3.191c0.332,0,0.641-0.164,0.828-0.439
		c0.186-0.273,0.223-0.623,0.1-0.932l-9.37-23.451c-0.15-0.381-0.52-0.629-0.928-0.629c-0.41,0-0.777,0.248-0.93,0.629L4.67,39.119
		c-0.123,0.309-0.086,0.658,0.1,0.932c0.188,0.275,0.496,0.439,0.828,0.439h3.193L1.555,59.617
		c-0.116,0.307-0.074,0.652,0.113,0.922c0.187,0.271,0.494,0.432,0.822,0.432h8.099L4.668,75.795
		c-0.123,0.309-0.086,0.658,0.1,0.932c0.188,0.275,0.496,0.439,0.828,0.439h18.739c0.332,0,0.641-0.164,0.828-0.439
		c0.186-0.273,0.223-0.623,0.1-0.932L19.34,60.971h8.105c0.328,0,0.636-0.16,0.822-0.432C28.455,60.27,28.497,59.924,28.381,59.617z
		 M16.513,71.875c0,0.906-0.737,1.641-1.643,1.641c-0.908,0-1.643-0.734-1.643-1.641c0-0.051,0.004-0.104,0.008-0.158
		c0-0.006,0.002-0.014,0.002-0.021c0.107-1.1,1.098-3.121,1.482-3.867c0.063-0.123,0.236-0.123,0.299,0
		c0.383,0.748,1.374,2.773,1.483,3.861c0,0.012,0.002,0.021,0.002,0.033C16.509,71.775,16.513,71.826,16.513,71.875z M15.414,56.533
		c-0.256,0.418-0.693,0.707-1.204,0.768c-0.064,0.008-0.127,0.02-0.193,0.02c-0.709,0-1.308-0.452-1.537-1.082
		c-0.064-0.175-0.104-0.361-0.104-0.559c0-0.051,0.003-0.104,0.009-0.158c0-0.006,0-0.014,0.002-0.021
		c0.105-1.1,1.098-3.121,1.481-3.867c0.062-0.123,0.237-0.123,0.299,0c0.046,0.09,0.101,0.2,0.162,0.322
		c0.445,0.9,1.223,2.582,1.319,3.539c0.002,0.012,0.002,0.021,0.004,0.033c0.004,0.053,0.008,0.104,0.008,0.152
		C15.66,55.993,15.567,56.284,15.414,56.533z M16.503,35.014c0,0.012,0.002,0.021,0.002,0.033c0.006,0.053,0.01,0.104,0.01,0.152
		c0,0.906-0.737,1.641-1.643,1.641c-0.908,0-1.643-0.734-1.643-1.641c0-0.051,0.004-0.104,0.008-0.158
		c0-0.006,0.002-0.014,0.002-0.021c0.107-1.1,1.098-3.121,1.482-3.867c0.063-0.123,0.236-0.123,0.299,0
		C15.403,31.9,16.394,33.926,16.503,35.014z M7.899,55.521C7.9,55.516,7.9,55.508,7.902,55.5C8.007,54.4,9,52.379,9.383,51.633
		c0.063-0.123,0.237-0.123,0.299,0c0.382,0.748,1.372,2.773,1.481,3.861c0.002,0.012,0.002,0.021,0.004,0.033
		c0.005,0.053,0.008,0.104,0.008,0.152c0,0.906-0.735,1.641-1.643,1.641c-0.906,0-1.642-0.734-1.642-1.641
		C7.891,55.629,7.894,55.576,7.899,55.521z"/>
</g>
<g id="Layer_1">
</g>
</svg>
