<?xml version="1.0" encoding="iso-8859-1"?>
<!-- Generator: Adobe Illustrator 16.0.0, SVG Export Plug-In . SVG Version: 6.00 Build 0)  -->
<!DOCTYPE svg PUBLIC "-//W3C//DTD SVG 1.1//EN" "http://www.w3.org/Graphics/SVG/1.1/DTD/svg11.dtd">
<svg version="1.1" xmlns="http://www.w3.org/2000/svg" xmlns:xlink="http://www.w3.org/1999/xlink" x="0px" y="0px"
	 width="37.954px" height="77.168px" viewBox="0 0 37.954 77.168" style="enable-background:new 0 0 37.954 77.168;"
	 xml:space="preserve">
<g id="DroneOnQueen">
	<path style="fill:#231F20;" d="M36.392,75.779l-6.529-15.496h1.584c0.328,0,0.637-0.162,0.822-0.432
		c0.188-0.271,0.23-0.615,0.113-0.922L19.905,25.946c-0.148-0.39-0.52-0.646-0.936-0.646s-0.789,0.257-0.936,0.646L5.557,58.93
		c-0.116,0.307-0.074,0.65,0.113,0.922c0.187,0.27,0.494,0.432,0.822,0.432h1.584L1.547,75.779c-0.13,0.309-0.097,0.662,0.089,0.941
		s0.498,0.447,0.833,0.447h33c0.334,0,0.646-0.168,0.832-0.447S36.521,76.088,36.392,75.779z M20.167,71.875
		c0,0.908-0.734,1.643-1.643,1.643c-0.907,0-1.641-0.734-1.641-1.643c0-0.049,0.002-0.104,0.008-0.156c0-0.008,0-0.016,0.002-0.023
		c0.105-1.1,1.098-3.119,1.483-3.867c0.063-0.121,0.236-0.121,0.299,0c0.381,0.75,1.371,2.775,1.48,3.861
		c0.002,0.012,0.002,0.023,0.004,0.033C20.165,71.775,20.167,71.828,20.167,71.875z M15.682,71.875c0,0.908-0.734,1.643-1.642,1.643
		s-1.642-0.734-1.642-1.643c0-0.049,0.003-0.104,0.008-0.156c0.001-0.008,0.001-0.016,0.002-0.023
		c0.105-1.1,1.098-3.119,1.482-3.867c0.063-0.121,0.236-0.121,0.299,0c0.382,0.75,1.371,2.775,1.482,3.861
		c0,0.012,0.002,0.023,0.002,0.033C15.68,71.775,15.682,71.828,15.682,71.875z M11.893,54.99c0-0.049,0.003-0.104,0.008-0.156
		c0.001-0.008,0.001-0.016,0.002-0.021c0.105-1.102,1.098-3.121,1.482-3.869c0.063-0.121,0.236-0.121,0.299,0
		c0.382,0.75,1.371,2.775,1.482,3.861c0,0.012,0.002,0.023,0.002,0.033c0.006,0.053,0.008,0.105,0.008,0.152
		c0,0.908-0.734,1.643-1.642,1.643S11.893,55.898,11.893,54.99z M19.653,54.838c0.004,0.053,0.008,0.105,0.008,0.152
		c0,0.908-0.734,1.643-1.642,1.643c-0.907,0-1.642-0.734-1.642-1.643c0-0.049,0.003-0.104,0.008-0.156
		c0-0.008,0.001-0.016,0.002-0.021c0.105-1.102,1.098-3.121,1.482-3.869c0.062-0.121,0.236-0.121,0.299,0
		c0.381,0.75,1.372,2.775,1.481,3.861C19.651,54.816,19.653,54.828,19.653,54.838z M7.922,71.719
		c0.002-0.008,0.002-0.016,0.002-0.023c0.106-1.1,1.098-3.119,1.482-3.867c0.063-0.121,0.236-0.121,0.299,0
		c0.382,0.75,1.372,2.775,1.482,3.861c0,0.012,0.002,0.023,0.002,0.033c0.006,0.053,0.009,0.105,0.009,0.152
		c0,0.908-0.735,1.643-1.642,1.643c-0.908,0-1.643-0.734-1.643-1.643C7.915,71.826,7.917,71.771,7.922,71.719z"/>
</g>
<g id="Layer_1">
</g>
</svg>
