<?xml version="1.0" encoding="iso-8859-1"?>
<!-- Generator: Adobe Illustrator 16.0.0, SVG Export Plug-In . SVG Version: 6.00 Build 0)  -->
<!DOCTYPE svg PUBLIC "-//W3C//DTD SVG 1.1//EN" "http://www.w3.org/Graphics/SVG/1.1/DTD/svg11.dtd">
<svg version="1.1" xmlns="http://www.w3.org/2000/svg" xmlns:xlink="http://www.w3.org/1999/xlink" x="0px" y="0px"
	 width="37.954px" height="77.168px" viewBox="0 0 37.954 77.168" style="enable-background:new 0 0 37.954 77.168;"
	 xml:space="preserve">
<g id="QueenOnPawnOnPawnExpanded">
	<path style="fill:#231F20;" d="M36.377,54.81l-16.5-39.159c-0.156-0.371-0.52-0.612-0.922-0.612s-0.766,0.241-0.922,0.612
		L1.533,54.81c-0.13,0.311-0.097,0.662,0.089,0.941s0.498,0.447,0.833,0.447h9.849l-3.646,9.128
		c-0.123,0.309-0.085,0.658,0.101,0.932c0.187,0.275,0.496,0.439,0.828,0.439h2.694l-3.631,9.09
		c-0.123,0.309-0.085,0.656,0.101,0.932c0.187,0.275,0.496,0.439,0.828,0.439h18.737c0.332,0,0.642-0.164,0.828-0.439
		c0.186-0.275,0.224-0.623,0.101-0.932l-3.632-9.09h2.711c0.332,0,0.642-0.164,0.828-0.439c0.186-0.273,0.224-0.623,0.101-0.932
		l-3.646-9.128h9.849c0.335,0,0.647-0.168,0.833-0.447S36.507,55.12,36.377,54.81z M20.494,71.865c0,0.908-0.735,1.643-1.642,1.643
		c-0.908,0-1.643-0.734-1.643-1.643c0-0.049,0.003-0.104,0.008-0.156c0-0.008,0.001-0.016,0.002-0.021
		c0.106-1.102,1.098-3.121,1.482-3.869c0.063-0.121,0.236-0.121,0.299,0c0.382,0.75,1.372,2.775,1.482,3.861
		c0,0.012,0.002,0.023,0.002,0.033C20.49,71.768,20.494,71.818,20.494,71.865z M13.773,52.522c-0.785-0.122-1.388-0.796-1.388-1.617
		c0-0.049,0.003-0.102,0.009-0.156c0-0.006,0-0.016,0.002-0.021c0.105-1.1,1.098-3.121,1.481-3.869c0.063-0.121,0.237-0.121,0.299,0
		c0.223,0.438,0.65,1.309,0.991,2.175c0.244,0.619,0.445,1.234,0.491,1.688c0.002,0.01,0.002,0.021,0.004,0.033
		c0.005,0.053,0.008,0.104,0.008,0.15c0,0.908-0.735,1.643-1.643,1.643C13.939,52.548,13.856,52.535,13.773,52.522z M18.86,63.047
		c-0.908,0-1.643-0.734-1.643-1.641c0-0.051,0.003-0.104,0.008-0.158c0-0.006,0.001-0.014,0.002-0.021
		c0.106-1.1,1.098-3.121,1.482-3.867c0.063-0.123,0.236-0.123,0.299,0c0.382,0.748,1.372,2.773,1.482,3.861
		c0,0.012,0.002,0.021,0.002,0.033c0.005,0.053,0.009,0.104,0.009,0.152C20.502,62.313,19.767,63.047,18.86,63.047z M19.69,52.045
		c-0.299,0.309-0.716,0.503-1.18,0.503c-0.189,0-0.369-0.038-0.539-0.098c-0.64-0.224-1.103-0.827-1.103-1.545
		c0-0.049,0.003-0.102,0.008-0.156c0.001-0.006,0.001-0.016,0.002-0.021c0.106-1.1,1.099-3.121,1.481-3.869
		c0.063-0.121,0.238-0.121,0.3,0c0.382,0.75,1.372,2.775,1.481,3.863c0.002,0.01,0.002,0.021,0.004,0.033
		c0.004,0.053,0.008,0.104,0.008,0.15C20.153,51.35,19.976,51.75,19.69,52.045z M7.909,50.749c0-0.006,0-0.016,0.002-0.021
		c0.105-1.1,1.098-3.121,1.481-3.869c0.062-0.121,0.237-0.121,0.299,0c0.382,0.75,1.372,2.775,1.482,3.863
		c0.001,0.01,0.002,0.021,0.003,0.033c0.005,0.053,0.008,0.104,0.008,0.15c0,0.908-0.734,1.643-1.643,1.643
		c-0.906,0-1.641-0.734-1.641-1.643C7.901,50.856,7.903,50.804,7.909,50.749z"/>
</g>
<g id="Layer_1">
</g>
</svg>
