<?xml version="1.0" encoding="iso-8859-1"?>
<!-- Generator: Adobe Illustrator 16.0.0, SVG Export Plug-In . SVG Version: 6.00 Build 0)  -->
<!DOCTYPE svg PUBLIC "-//W3C//DTD SVG 1.1//EN" "http://www.w3.org/Graphics/SVG/1.1/DTD/svg11.dtd">
<svg version="1.1" xmlns="http://www.w3.org/2000/svg" xmlns:xlink="http://www.w3.org/1999/xlink" x="0px" y="0px"
	 width="37.954px" height="77.168px" viewBox="0 0 37.954 77.168" style="enable-background:new 0 0 37.954 77.168;"
	 xml:space="preserve">
<g id="PawnOnQueenOnDroneExpanded">
	<path style="fill:#231F20;" d="M36.439,64.598L26.286,40.5h2.101c0.332,0,0.642-0.164,0.828-0.439
		c0.186-0.274,0.224-0.623,0.101-0.931l-9.369-23.452c-0.151-0.38-0.52-0.629-0.929-0.629s-0.777,0.249-0.929,0.629L8.721,39.129
		c-0.123,0.309-0.085,0.657,0.101,0.931C9.008,40.336,9.317,40.5,9.649,40.5h2.1L1.596,64.598c-0.13,0.311-0.097,0.662,0.089,0.941
		s0.498,0.447,0.833,0.447h6.71L5.51,75.814c-0.116,0.307-0.074,0.65,0.113,0.922c0.187,0.27,0.494,0.432,0.822,0.432h24.954
		c0.328,0,0.636-0.162,0.822-0.432c0.188-0.271,0.229-0.615,0.113-0.922l-3.718-9.828h6.9c0.335,0,0.647-0.168,0.833-0.447
		S36.569,64.908,36.439,64.598z M19.614,71.875c0,0.908-0.735,1.643-1.643,1.643c-0.906,0-1.642-0.734-1.642-1.643
		c0-0.049,0.003-0.104,0.009-0.156c0-0.008,0-0.016,0.002-0.021c0.105-1.102,1.098-3.121,1.481-3.869
		c0.062-0.121,0.237-0.121,0.299,0c0.382,0.75,1.372,2.775,1.481,3.861c0.002,0.012,0.002,0.023,0.004,0.033
		C19.61,71.777,19.614,71.828,19.614,71.875z M15.13,71.875c0,0.908-0.735,1.643-1.643,1.643c-0.906,0-1.642-0.734-1.642-1.643
		c0-0.049,0.003-0.104,0.008-0.156c0.001-0.008,0.001-0.016,0.003-0.021c0.105-1.102,1.098-3.121,1.481-3.869
		c0.063-0.121,0.237-0.121,0.299,0c0.382,0.75,1.372,2.775,1.481,3.861c0.002,0.012,0.002,0.023,0.004,0.033
		C15.127,71.777,15.13,71.828,15.13,71.875z M12.447,60.693c0-0.049,0.003-0.102,0.009-0.156c0-0.006,0-0.016,0.002-0.021
		c0.105-1.1,1.098-3.121,1.481-3.869c0.063-0.121,0.237-0.121,0.299,0c0.095,0.186,0.227,0.45,0.374,0.76
		c0.445,0.938,1.026,2.285,1.108,3.104c0.002,0.01,0.002,0.021,0.004,0.033c0.005,0.053,0.008,0.104,0.008,0.15
		c0,0.908-0.735,1.643-1.643,1.643c-0.453,0-0.863-0.184-1.16-0.48C12.631,61.559,12.447,61.146,12.447,60.693z M18.573,62.336
		c-0.906,0-1.642-0.734-1.642-1.643c0-0.049,0.003-0.102,0.008-0.156c0.001-0.006,0.001-0.016,0.002-0.021
		c0.106-1.1,1.099-3.121,1.481-3.869c0.063-0.121,0.238-0.121,0.3,0c0.382,0.75,1.372,2.775,1.481,3.863
		c0.002,0.01,0.002,0.021,0.004,0.033c0.004,0.053,0.008,0.104,0.008,0.15C20.216,61.602,19.48,62.336,18.573,62.336z
		 M20.554,35.023c0,0.012,0.002,0.022,0.002,0.033c0.005,0.054,0.009,0.104,0.009,0.152c0,0.907-0.735,1.642-1.642,1.642
		c-0.908,0-1.643-0.734-1.643-1.642c0-0.05,0.003-0.104,0.008-0.157c0-0.007,0.001-0.015,0.002-0.021
		c0.106-1.101,1.098-3.121,1.482-3.868c0.063-0.122,0.236-0.122,0.299,0C19.453,31.911,20.443,33.936,20.554,35.023z M7.972,60.537
		c0-0.006,0-0.016,0.002-0.021c0.105-1.1,1.098-3.121,1.481-3.869c0.062-0.121,0.237-0.121,0.299,0
		c0.382,0.75,1.372,2.775,1.482,3.863c0.001,0.01,0.002,0.021,0.003,0.033c0.003,0.039,0.005,0.074,0.006,0.109
		c0,0.014,0.002,0.027,0.002,0.041c0,0.428-0.167,0.814-0.436,1.107c-0.3,0.326-0.727,0.535-1.207,0.535
		c-0.906,0-1.641-0.734-1.641-1.643C7.964,60.645,7.966,60.592,7.972,60.537z"/>
</g>
<g id="Layer_1">
</g>
</svg>
