<?xml version="1.0" encoding="iso-8859-1"?>
<!-- Generator: Adobe Illustrator 16.0.0, SVG Export Plug-In . SVG Version: 6.00 Build 0)  -->
<!DOCTYPE svg PUBLIC "-//W3C//DTD SVG 1.1//EN" "http://www.w3.org/Graphics/SVG/1.1/DTD/svg11.dtd">
<svg version="1.1" xmlns="http://www.w3.org/2000/svg" xmlns:xlink="http://www.w3.org/1999/xlink" x="0px" y="0px"
	 width="29.931px" height="77.168px" viewBox="0 0 29.931 77.168" style="enable-background:new 0 0 29.931 77.168;"
	 xml:space="preserve">
<g id="PawnOnDroneOnDrone">
	<path style="fill:#231F20;" d="M28.379,76.086l-3.557-9.403h2.621c0.329,0,0.637-0.16,0.823-0.432
		c0.141-0.203,0.199-0.449,0.17-0.688c0-0.12-0.015-0.239-0.058-0.354l-5.384-14.233h1.341c0.331,0,0.642-0.166,0.828-0.439
		c0.186-0.275,0.223-0.625,0.1-0.932l-9.37-23.453c-0.151-0.38-0.52-0.629-0.928-0.629c-0.409,0-0.777,0.249-0.93,0.629
		L4.668,49.604c-0.123,0.307-0.085,0.656,0.101,0.932c0.186,0.273,0.497,0.439,0.828,0.439h1.341L1.553,65.209
		c-0.058,0.154-0.077,0.317-0.057,0.477c0,0.199,0.054,0.397,0.17,0.565c0.187,0.271,0.494,0.432,0.823,0.432H5.11l-3.557,9.403
		c-0.116,0.307-0.074,0.652,0.113,0.922c0.187,0.271,0.494,0.432,0.822,0.432h24.955c0.328,0,0.636-0.16,0.822-0.432
		C28.453,76.738,28.495,76.393,28.379,76.086z M15.658,72.148c0,0.906-0.735,1.641-1.643,1.641c-0.906,0-1.642-0.734-1.642-1.641
		c0-0.051,0.003-0.104,0.009-0.158c0-0.006,0-0.014,0.002-0.021c0.105-1.1,1.098-3.121,1.481-3.867c0.062-0.123,0.237-0.123,0.299,0
		c0.382,0.748,1.372,2.773,1.481,3.861c0.002,0.012,0.002,0.021,0.004,0.033C15.654,72.049,15.658,72.1,15.658,72.148z
		 M11.173,72.148c0,0.906-0.735,1.641-1.643,1.641c-0.906,0-1.642-0.734-1.642-1.641c0-0.051,0.003-0.104,0.008-0.158
		c0.001-0.006,0.001-0.014,0.003-0.021c0.105-1.1,1.098-3.121,1.481-3.867c0.063-0.123,0.237-0.123,0.299,0
		c0.382,0.748,1.372,2.773,1.481,3.861c0.002,0.012,0.002,0.021,0.004,0.033C11.17,72.049,11.173,72.1,11.173,72.148z M15.658,61.39
		c0,0.908-0.734,1.643-1.641,1.643c-0.909,0-1.643-0.734-1.643-1.643c0-0.023,0.002-0.051,0.004-0.076
		c0-0.014-0.004-0.027-0.004-0.042c0-0.051,0.003-0.104,0.009-0.158c0-0.006,0-0.014,0.002-0.021c0.105-1.1,1.098-3.121,1.481-3.867
		c0.062-0.123,0.237-0.123,0.299,0c0.382,0.748,1.372,2.773,1.481,3.861c0.002,0.012,0.002,0.021,0.004,0.033
		c0.004,0.053,0.008,0.104,0.008,0.152c0,0.014-0.004,0.026-0.004,0.04C15.655,61.338,15.658,61.365,15.658,61.39z M9.68,57.225
		c0.149,0.293,0.394,0.785,0.64,1.338c0.383,0.857,0.775,1.863,0.842,2.523c0.002,0.012,0.002,0.021,0.004,0.033
		c0.005,0.053,0.008,0.104,0.008,0.152c0,0.014-0.004,0.026-0.004,0.04c0.001,0.026,0.004,0.054,0.004,0.078
		c0,0.908-0.735,1.643-1.642,1.643c-0.908,0-1.643-0.734-1.643-1.643c0-0.026,0.002-0.057,0.004-0.085
		c0-0.012-0.005-0.021-0.005-0.033c0-0.051,0.003-0.104,0.008-0.158C7.898,61.107,7.898,61.1,7.9,61.092
		c0.105-1.1,1.098-3.121,1.481-3.867C9.445,57.102,9.619,57.102,9.68,57.225z M16.502,45.497c0.002,0.012,0.002,0.022,0.004,0.033
		c0.004,0.053,0.008,0.104,0.008,0.152c0,0.907-0.737,1.643-1.643,1.643s-1.642-0.735-1.642-1.643c0-0.05,0.003-0.102,0.008-0.156
		c0-0.008,0.001-0.016,0.003-0.022c0.105-1.101,1.098-3.121,1.481-3.868c0.063-0.122,0.238-0.122,0.299,0
		C15.402,42.385,16.393,44.411,16.502,45.497z"/>
</g>
<g id="Layer_1">
</g>
</svg>
