<?xml version="1.0" encoding="iso-8859-1"?>
<!-- Generator: Adobe Illustrator 16.0.0, SVG Export Plug-In . SVG Version: 6.00 Build 0)  -->
<!DOCTYPE svg PUBLIC "-//W3C//DTD SVG 1.1//EN" "http://www.w3.org/Graphics/SVG/1.1/DTD/svg11.dtd">
<svg version="1.1" xmlns="http://www.w3.org/2000/svg" xmlns:xlink="http://www.w3.org/1999/xlink" x="0px" y="0px"
	 width="30.223px" height="77.168px" viewBox="0 0 30.223 77.168" style="enable-background:new 0 0 30.223 77.168;"
	 xml:space="preserve">
<g id="SolidPawnPointingLeft">
	<path style="fill:#231F20;" d="M28.667,75.783l-6.96-17.397c-0.123-0.309-0.39-0.533-0.717-0.605c-0.322-0.07-0.66,0.023-0.9,0.253
		L1.794,75.443c-0.296,0.281-0.391,0.715-0.239,1.096c0.152,0.379,0.521,0.629,0.929,0.629l25.255-0.014
		c0.332,0,0.641-0.164,0.826-0.439C28.753,76.439,28.79,76.092,28.667,75.783z M20.919,70.664c-0.047,0.02-0.098,0.035-0.147,0.051
		c-0.008,0.002-0.016,0.004-0.021,0.006c-1.063,0.311-3.306,0.141-4.143,0.061c-0.137-0.012-0.2-0.174-0.111-0.277
		c0.555-0.633,2.066-2.305,3.034-2.811c0.012-0.004,0.021-0.01,0.031-0.014c0.049-0.025,0.093-0.049,0.138-0.066
		c0.842-0.336,1.798,0.074,2.133,0.916C22.17,69.371,21.761,70.328,20.919,70.664z"/>
</g>
<g id="Layer_1">
</g>
</svg>
