<?xml version="1.0" encoding="iso-8859-1"?>
<!-- Generator: Adobe Illustrator 16.0.0, SVG Export Plug-In . SVG Version: 6.00 Build 0)  -->
<!DOCTYPE svg PUBLIC "-//W3C//DTD SVG 1.1//EN" "http://www.w3.org/Graphics/SVG/1.1/DTD/svg11.dtd">
<svg version="1.1" xmlns="http://www.w3.org/2000/svg" xmlns:xlink="http://www.w3.org/1999/xlink" x="0px" y="0px"
	 width="40.234px" height="77.168px" viewBox="0 0 40.234 77.168" style="enable-background:new 0 0 40.234 77.168;"
	 xml:space="preserve">
<g id="SolidDronePointingRight">
	<path style="fill:#231F20;" d="M38.41,75.377L11.947,52.068c-0.246-0.218-0.582-0.3-0.901-0.219
		c-0.319,0.078-0.579,0.309-0.695,0.617L1.55,75.816c-0.118,0.307-0.075,0.652,0.113,0.922c0.187,0.27,0.494,0.432,0.823,0.43
		l35.264-0.039c0.416,0,0.787-0.258,0.934-0.646C38.832,76.092,38.723,75.652,38.41,75.377z M9.702,64.539
		c0.318-0.848,1.266-1.277,2.116-0.957c0.043,0.018,0.095,0.039,0.142,0.063c0.007,0.004,0.013,0.006,0.021,0.01
		c0.992,0.486,2.531,2.129,3.098,2.75c0.091,0.102,0.029,0.266-0.107,0.281c-0.835,0.09-3.078,0.305-4.134,0.023
		c-0.013-0.004-0.024-0.006-0.034-0.006c-0.051-0.016-0.1-0.031-0.146-0.047C9.809,66.334,9.383,65.387,9.702,64.539z
		 M16.553,62.488c-0.834,0.094-3.08,0.307-4.135,0.023c-0.014-0.002-0.023-0.006-0.032-0.008c-0.054-0.014-0.102-0.029-0.147-0.045
		c-0.849-0.32-1.275-1.268-0.955-2.115c0.319-0.85,1.266-1.277,2.117-0.959c0.045,0.018,0.096,0.041,0.143,0.064
		c0.006,0.002,0.014,0.004,0.02,0.01c0.99,0.486,2.533,2.129,3.098,2.75C16.75,62.311,16.689,62.475,16.553,62.488z"/>
</g>
<g id="Layer_1">
</g>
</svg>
