<?xml version="1.0" encoding="iso-8859-1"?>
<!-- Generator: Adobe Illustrator 16.0.0, SVG Export Plug-In . SVG Version: 6.00 Build 0)  -->
<!DOCTYPE svg PUBLIC "-//W3C//DTD SVG 1.1//EN" "http://www.w3.org/Graphics/SVG/1.1/DTD/svg11.dtd">
<svg version="1.1" xmlns="http://www.w3.org/2000/svg" xmlns:xlink="http://www.w3.org/1999/xlink" x="0px" y="0px"
	 width="37.954px" height="77.168px" viewBox="0 0 37.954 77.168" style="enable-background:new 0 0 37.954 77.168;"
	 xml:space="preserve">
<g id="PawnOnQueenOnDrone">
	<path style="fill:#231F20;" d="M36.269,75.814l-3.44-8.166l-6.137-14.564h1.592c0.332,0,0.642-0.164,0.828-0.439
		c0.186-0.275,0.224-0.623,0.101-0.932L19.843,28.26c-0.151-0.38-0.52-0.629-0.929-0.629s-0.777,0.249-0.929,0.629L8.617,51.713
		c-0.123,0.309-0.085,0.656,0.101,0.932c0.187,0.275,0.496,0.439,0.828,0.439h1.592l-1.592,3.778L1.56,75.814
		c-0.127,0.303-0.095,0.646,0.086,0.918c0.181,0.271,0.485,0.436,0.812,0.436h4.013h24.888h4.013c0.325,0,0.631-0.164,0.811-0.436
		C36.362,76.46,36.396,76.117,36.269,75.814z M8.743,73.342c-0.506-0.278-0.854-0.811-0.854-1.43c0-0.049,0.003-0.103,0.008-0.158
		c0.001-0.007,0.001-0.013,0.002-0.021c0.105-1.097,1.095-3.112,1.477-3.858c0.036-0.069,0.103-0.089,0.169-0.079
		c0.051,0.007,0.103,0.027,0.13,0.081c0.169,0.331,0.456,0.914,0.732,1.551c0.349,0.804,0.684,1.694,0.745,2.3
		c0.001,0.012,0.002,0.021,0.003,0.032c0.005,0.054,0.008,0.104,0.008,0.152c0,0.897-0.723,1.625-1.618,1.636
		c-0.006,0-0.013,0.002-0.019,0.002C9.241,73.55,8.977,73.47,8.743,73.342z M12.362,71.912c0-0.049,0.002-0.103,0.008-0.158
		c0-0.007,0.001-0.013,0.002-0.021c0.105-1.097,1.096-3.112,1.477-3.858c0.064-0.122,0.237-0.122,0.299,0.002
		c0.152,0.297,0.399,0.798,0.649,1.359c0.378,0.849,0.762,1.839,0.829,2.491c0.001,0.012,0.002,0.021,0.003,0.032
		c0.005,0.054,0.008,0.104,0.008,0.152c0,0.904-0.733,1.638-1.637,1.638c-0.341,0-0.658-0.105-0.92-0.284
		C12.646,72.973,12.362,72.476,12.362,71.912z M18.471,73.55c-0.904,0-1.637-0.733-1.637-1.638c0-0.049,0.003-0.103,0.008-0.158
		c0.001-0.007,0.001-0.013,0.001-0.021c0.105-1.097,1.096-3.112,1.478-3.858c0.063-0.122,0.237-0.122,0.299,0.002
		c0.381,0.746,1.367,2.766,1.477,3.851c0.001,0.012,0.002,0.021,0.003,0.032c0.005,0.054,0.008,0.104,0.008,0.152
		C20.108,72.816,19.376,73.55,18.471,73.55z M11.985,65.722H9.867l5.376-12.638h2.119L11.985,65.722z M20.45,47.605
		c0,0.012,0.002,0.023,0.002,0.033c0.005,0.055,0.009,0.105,0.009,0.152c0,0.082-0.013,0.161-0.024,0.24
		c-0.116,0.792-0.793,1.402-1.617,1.402c-0.723,0-1.329-0.469-1.549-1.115c-0.056-0.166-0.094-0.342-0.094-0.527
		c0-0.049,0.003-0.104,0.008-0.156c0-0.008,0.001-0.016,0.002-0.021c0.106-1.102,1.098-3.121,1.482-3.869
		c0.063-0.121,0.236-0.121,0.299,0C19.35,44.494,20.34,46.52,20.45,47.605z M29.885,75.219l-9.417-22.135h2.119l9.417,22.135H29.885
		z"/>
</g>
<g id="Layer_1">
</g>
</svg>
