<?xml version="1.0" encoding="iso-8859-1"?>
<!-- Generator: Adobe Illustrator 16.0.0, SVG Export Plug-In . SVG Version: 6.00 Build 0)  -->
<!DOCTYPE svg PUBLIC "-//W3C//DTD SVG 1.1//EN" "http://www.w3.org/Graphics/SVG/1.1/DTD/svg11.dtd">
<svg version="1.1" xmlns="http://www.w3.org/2000/svg" xmlns:xlink="http://www.w3.org/1999/xlink" x="0px" y="0px"
	 width="37.954px" height="77.168px" viewBox="0 0 37.954 77.168" style="enable-background:new 0 0 37.954 77.168;"
	 xml:space="preserve">
<g id="DroneOnQueenOnPawnExpanded">
	<path style="fill:#231F20;" d="M36.398,64.92l-6.281-14.908h1.329c0.328,0,0.636-0.16,0.822-0.432
		c0.188-0.27,0.229-0.615,0.113-0.922L19.905,15.675c-0.147-0.39-0.52-0.646-0.936-0.646s-0.788,0.257-0.936,0.646L5.557,48.658
		C5.44,48.965,5.482,49.311,5.67,49.58c0.187,0.271,0.494,0.432,0.822,0.432h1.344L1.555,64.92c-0.13,0.311-0.097,0.662,0.089,0.941
		s0.498,0.447,0.833,0.447h9.978l-3.782,9.469c-0.123,0.309-0.085,0.656,0.101,0.932c0.187,0.275,0.496,0.439,0.828,0.439h18.737
		c0.332,0,0.642-0.164,0.828-0.439c0.186-0.275,0.224-0.623,0.101-0.932l-3.782-9.469h9.992c0.335,0,0.647-0.168,0.833-0.447
		S36.528,65.23,36.398,64.92z M20.516,71.855c0,0.908-0.735,1.643-1.642,1.643c-0.908,0-1.643-0.734-1.643-1.643
		c0-0.049,0.003-0.104,0.008-0.156c0-0.008,0.001-0.016,0.002-0.021c0.106-1.102,1.098-3.121,1.482-3.869
		c0.063-0.121,0.236-0.121,0.299,0c0.382,0.75,1.372,2.775,1.482,3.861c0,0.012,0.002,0.023,0.002,0.033
		C20.512,71.758,20.516,71.809,20.516,71.855z M16.891,61.016c0-0.049,0.003-0.102,0.008-0.156c0.001-0.006,0.001-0.016,0.002-0.021
		c0.015-0.15,0.048-0.32,0.092-0.5c0.228-0.93,0.793-2.164,1.172-2.936c0.082-0.166,0.158-0.318,0.217-0.434
		c0.063-0.121,0.238-0.121,0.3,0c0.382,0.75,1.372,2.775,1.481,3.863c0.002,0.01,0.002,0.021,0.004,0.033
		c0.004,0.053,0.008,0.104,0.008,0.15c0,0.908-0.735,1.643-1.643,1.643C17.626,62.658,16.891,61.924,16.891,61.016z M13.917,62.646
		c-0.844-0.068-1.511-0.768-1.511-1.631c0-0.049,0.003-0.102,0.009-0.156c0-0.006,0-0.016,0.002-0.021
		c0.105-1.1,1.098-3.121,1.481-3.869c0.063-0.121,0.237-0.121,0.299,0c0.236,0.465,0.706,1.418,1.055,2.336
		c0.215,0.563,0.385,1.113,0.427,1.527c0.002,0.01,0.002,0.021,0.004,0.033c0.005,0.053,0.008,0.104,0.008,0.15
		c0,0.908-0.735,1.643-1.643,1.643C14.003,62.658,13.961,62.648,13.917,62.646z M11.893,44.721c0-0.051,0.003-0.104,0.008-0.158
		c0.001-0.006,0.001-0.014,0.003-0.021c0.105-1.1,1.098-3.121,1.481-3.867c0.063-0.123,0.237-0.123,0.299,0
		c0.04,0.078,0.089,0.176,0.141,0.279c0.441,0.888,1.243,2.607,1.341,3.582c0.002,0.012,0.002,0.021,0.004,0.033
		c0.005,0.053,0.008,0.104,0.008,0.152c0,0.906-0.735,1.641-1.643,1.641c-0.707,0-1.304-0.449-1.536-1.076
		C11.934,45.109,11.893,44.92,11.893,44.721z M19.653,44.568c0.004,0.053,0.008,0.104,0.008,0.152c0,0.906-0.735,1.641-1.643,1.641
		c-0.906,0-1.642-0.734-1.642-1.641c0-0.051,0.003-0.104,0.009-0.158c0-0.006,0-0.014,0.002-0.021
		c0.105-1.1,1.098-3.121,1.481-3.867c0.062-0.123,0.237-0.123,0.299,0c0.382,0.748,1.372,2.773,1.481,3.861
		C19.651,44.547,19.651,44.557,19.653,44.568z M7.931,60.859c0-0.006,0-0.016,0.002-0.021c0.105-1.1,1.098-3.121,1.481-3.869
		c0.062-0.121,0.237-0.121,0.299,0c0.382,0.75,1.372,2.775,1.482,3.863c0.001,0.01,0.002,0.021,0.003,0.033
		c0.005,0.053,0.008,0.104,0.008,0.15c0,0.908-0.734,1.643-1.643,1.643c-0.906,0-1.641-0.734-1.641-1.643
		C7.923,60.967,7.925,60.914,7.931,60.859z"/>
</g>
<g id="Layer_1">
</g>
</svg>
