<?xml version="1.0" encoding="iso-8859-1"?>
<!-- Generator: Adobe Illustrator 16.0.0, SVG Export Plug-In . SVG Version: 6.00 Build 0)  -->
<!DOCTYPE svg PUBLIC "-//W3C//DTD SVG 1.1//EN" "http://www.w3.org/Graphics/SVG/1.1/DTD/svg11.dtd">
<svg version="1.1" xmlns="http://www.w3.org/2000/svg" xmlns:xlink="http://www.w3.org/1999/xlink" x="0px" y="0px"
	 width="37.954px" height="77.168px" viewBox="0 0 37.954 77.168" style="enable-background:new 0 0 37.954 77.168;"
	 xml:space="preserve">
<g id="NestExpanded">
	<path style="fill:#231F20;" d="M36.439,54.82l-16.5-39.159c-0.156-0.371-0.519-0.612-0.921-0.612c-0.402,0-0.766,0.241-0.922,0.612
		L1.596,54.82c-0.13,0.311-0.097,0.662,0.089,0.941s0.498,0.447,0.833,0.447h6.921l-3.39,8.959
		c-0.116,0.307-0.074,0.652,0.113,0.922c0.187,0.271,0.494,0.432,0.822,0.432h5.877l-3.705,9.275
		c-0.123,0.309-0.085,0.658,0.101,0.932c0.187,0.275,0.496,0.439,0.828,0.439h18.737c0.332,0,0.642-0.164,0.828-0.439
		c0.186-0.273,0.224-0.623,0.101-0.932l-3.705-9.275h5.893c0.328,0,0.635-0.16,0.822-0.432c0.188-0.27,0.229-0.615,0.113-0.922
		l-3.389-8.959h6.031c0.336,0,0.648-0.168,0.834-0.447S36.57,55.131,36.439,54.82z M21.001,71.877c0,0.906-0.735,1.641-1.642,1.641
		c-0.908,0-1.643-0.734-1.643-1.641c0-0.051,0.003-0.104,0.008-0.158c0-0.006,0.001-0.014,0.002-0.021
		c0.106-1.1,1.098-3.121,1.482-3.867c0.063-0.123,0.236-0.123,0.299,0c0.382,0.748,1.372,2.773,1.482,3.861
		c0,0.012,0.002,0.021,0.002,0.033C20.997,71.777,21.001,71.828,21.001,71.877z M12.448,50.916c0-0.049,0.003-0.102,0.009-0.156
		c0-0.006,0-0.016,0.002-0.021c0.105-1.1,1.098-3.121,1.481-3.869c0.063-0.121,0.237-0.121,0.299,0
		c0.119,0.233,0.298,0.598,0.49,1.01c0.425,0.916,0.917,2.104,0.992,2.854c0.002,0.01,0.002,0.021,0.004,0.033
		c0.005,0.053,0.008,0.104,0.008,0.15c0,0.908-0.735,1.643-1.643,1.643c-0.378,0-0.722-0.133-1-0.348
		C12.702,51.91,12.448,51.445,12.448,50.916z M18.512,62.871c-0.744,0-1.366-0.498-1.567-1.178
		c-0.044-0.146-0.075-0.301-0.075-0.463c0-0.051,0.003-0.104,0.009-0.158c0-0.006,0-0.014,0.002-0.021
		c0.105-1.1,1.098-3.12,1.481-3.867c0.062-0.122,0.237-0.122,0.299,0c0.014,0.026,0.033,0.064,0.047,0.094
		c0.408,0.807,1.329,2.719,1.434,3.768c0.002,0.012,0.002,0.021,0.004,0.033c0.004,0.053,0.008,0.104,0.008,0.152
		C20.154,62.137,19.419,62.871,18.512,62.871z M12.394,61.072c0.001-0.006,0.001-0.014,0.003-0.021
		c0.105-1.1,1.098-3.12,1.481-3.867c0.063-0.122,0.237-0.122,0.299,0c0.286,0.562,0.914,1.84,1.257,2.902
		c0.114,0.355,0.197,0.688,0.225,0.959c0.002,0.012,0.002,0.021,0.004,0.033c0.005,0.053,0.008,0.104,0.008,0.152
		c0,0.803-0.576,1.467-1.337,1.609c-0.1,0.02-0.201,0.031-0.306,0.031c-0.906,0-1.642-0.734-1.642-1.641
		C12.386,61.18,12.389,61.127,12.394,61.072z M19.927,51.846c-0.296,0.43-0.791,0.713-1.353,0.713c-0.044,0-0.085-0.01-0.128-0.014
		c-0.845-0.066-1.513-0.765-1.513-1.629c0-0.049,0.003-0.102,0.008-0.156c0.001-0.006,0.001-0.016,0.002-0.021
		c0.106-1.1,1.099-3.121,1.481-3.869c0.063-0.121,0.238-0.121,0.3,0c0.382,0.75,1.373,2.775,1.482,3.863
		c0.002,0.01,0.002,0.021,0.004,0.033c0.004,0.053,0.008,0.104,0.008,0.15C20.217,51.262,20.109,51.582,19.927,51.846z M7.972,50.76
		c0-0.006,0-0.016,0.002-0.021c0.105-1.1,1.098-3.121,1.481-3.869c0.062-0.121,0.237-0.121,0.299,0
		c0.382,0.75,1.372,2.775,1.482,3.863c0.001,0.01,0.002,0.021,0.003,0.033c0.005,0.053,0.008,0.104,0.008,0.15
		c0,0.908-0.734,1.643-1.643,1.643c-0.906,0-1.641-0.734-1.641-1.643C7.964,50.867,7.966,50.814,7.972,50.76z"/>
</g>
<g id="Layer_1">
</g>
</svg>
