<?xml version="1.0" encoding="iso-8859-1"?>
<!-- Generator: Adobe Illustrator 16.0.0, SVG Export Plug-In . SVG Version: 6.00 Build 0)  -->
<!DOCTYPE svg PUBLIC "-//W3C//DTD SVG 1.1//EN" "http://www.w3.org/Graphics/SVG/1.1/DTD/svg11.dtd">
<svg version="1.1" xmlns="http://www.w3.org/2000/svg" xmlns:xlink="http://www.w3.org/1999/xlink" x="0px" y="0px"
	 width="37.954px" height="77.168px" viewBox="0 0 37.954 77.168" style="enable-background:new 0 0 37.954 77.168;"
	 xml:space="preserve">
<g id="QueenOnQueen">
	<path style="fill:#231F20;" d="M32.385,66.291h3.093c0.335,0,0.647-0.168,0.833-0.447s0.219-0.633,0.089-0.941l-16.5-39.16
		c-0.156-0.371-0.52-0.612-0.922-0.612s-0.766,0.241-0.922,0.612l-16.5,39.16c-0.13,0.309-0.097,0.662,0.089,0.941
		s0.498,0.447,0.833,0.447H5.57l-4.014,9.527c-0.13,0.31-0.097,0.662,0.089,0.941s0.498,0.447,0.833,0.447h33
		c0.335,0,0.647-0.168,0.833-0.447s0.219-0.632,0.089-0.941L32.385,66.291z M20.176,71.914c0,0.907-0.735,1.643-1.643,1.643
		c-0.906,0-1.642-0.735-1.642-1.643c0-0.05,0.003-0.103,0.008-0.156c0.001-0.007,0.001-0.016,0.002-0.022
		c0.106-1.1,1.099-3.121,1.481-3.868c0.063-0.122,0.238-0.122,0.3,0c0.382,0.749,1.372,2.775,1.481,3.862
		c0.002,0.011,0.002,0.022,0.004,0.033C20.172,71.815,20.176,71.866,20.176,71.914z M15.691,71.914c0,0.907-0.735,1.643-1.643,1.643
		c-0.906,0-1.642-0.735-1.642-1.643c0-0.05,0.003-0.103,0.009-0.156c0-0.007,0-0.016,0.002-0.022c0.105-1.1,1.098-3.121,1.481-3.868
		c0.063-0.122,0.237-0.122,0.299,0c0.382,0.749,1.372,2.775,1.481,3.862c0.002,0.011,0.002,0.022,0.004,0.033
		C15.688,71.815,15.691,71.866,15.691,71.914z M11.207,71.914c0,0.907-0.734,1.643-1.643,1.643c-0.906,0-1.641-0.735-1.641-1.643
		c0-0.05,0.002-0.103,0.008-0.156c0-0.007,0-0.016,0.002-0.022c0.105-1.1,1.098-3.121,1.481-3.868c0.062-0.122,0.237-0.122,0.299,0
		c0.382,0.749,1.372,2.775,1.482,3.862c0.001,0.011,0.002,0.022,0.003,0.033C11.204,71.815,11.207,71.866,11.207,71.914z
		 M12.407,60.998c0-0.051,0.003-0.104,0.009-0.156c0-0.008,0-0.016,0.002-0.023c0.105-1.1,1.098-3.121,1.481-3.867
		c0.063-0.123,0.237-0.123,0.299,0c0.382,0.748,1.372,2.775,1.481,3.861c0.002,0.012,0.002,0.023,0.004,0.033
		c0.005,0.053,0.008,0.104,0.008,0.152c0,0.906-0.735,1.643-1.643,1.643C13.143,62.641,12.407,61.904,12.407,60.998z M9.564,62.641
		c-0.094,0-0.185-0.013-0.274-0.027c-0.775-0.132-1.367-0.803-1.367-1.615c0-0.051,0.002-0.104,0.008-0.156
		c0-0.008,0-0.016,0.002-0.023c0.007-0.07,0.026-0.154,0.04-0.232c0.2-1.131,1.083-2.937,1.441-3.635
		c0.025-0.051,0.074-0.066,0.122-0.075c0.069-0.014,0.141,0.003,0.177,0.075c0.229,0.447,0.673,1.354,1.018,2.241
		c0.232,0.596,0.42,1.184,0.464,1.62c0.001,0.012,0.002,0.023,0.003,0.033c0.005,0.053,0.008,0.104,0.008,0.152
		C11.207,61.904,10.473,62.641,9.564,62.641z M20.168,60.846c0.004,0.053,0.008,0.104,0.008,0.152c0,0.906-0.735,1.643-1.643,1.643
		c-0.906,0-1.642-0.736-1.642-1.643c0-0.051,0.003-0.104,0.008-0.156c0.001-0.008,0.001-0.016,0.002-0.023
		c0.106-1.1,1.099-3.121,1.481-3.867c0.063-0.123,0.238-0.123,0.3,0c0.382,0.748,1.372,2.775,1.481,3.861
		C20.166,60.824,20.166,60.836,20.168,60.846z"/>
</g>
<g id="Layer_1">
</g>
</svg>
