<?xml version="1.0" encoding="iso-8859-1"?>
<!-- Generator: Adobe Illustrator 16.0.0, SVG Export Plug-In . SVG Version: 6.00 Build 0)  -->
<!DOCTYPE svg PUBLIC "-//W3C//DTD SVG 1.1//EN" "http://www.w3.org/Graphics/SVG/1.1/DTD/svg11.dtd">
<svg version="1.1" xmlns="http://www.w3.org/2000/svg" xmlns:xlink="http://www.w3.org/1999/xlink" x="0px" y="0px"
	 width="37.954px" height="77.168px" viewBox="0 0 37.954 77.168" style="enable-background:new 0 0 37.954 77.168;"
	 xml:space="preserve">
<g id="PawnOnQueen">
	<path style="fill:#231F20;" d="M36.343,75.779l-9.563-22.695h1.51c0.332,0,0.642-0.164,0.828-0.439
		c0.186-0.275,0.224-0.623,0.101-0.932L19.849,28.26c-0.151-0.38-0.52-0.629-0.929-0.629s-0.777,0.249-0.929,0.629L8.623,51.713
		c-0.123,0.309-0.085,0.656,0.101,0.932c0.187,0.275,0.496,0.439,0.828,0.439h1.511L1.499,75.779
		c-0.13,0.311-0.097,0.662,0.089,0.941s0.498,0.447,0.833,0.447h33c0.335,0,0.647-0.168,0.833-0.447S36.473,76.09,36.343,75.779z
		 M20.118,71.877c0,0.906-0.735,1.641-1.643,1.641c-0.906,0-1.642-0.734-1.642-1.641c0-0.051,0.003-0.104,0.008-0.158
		c0.001-0.006,0.001-0.016,0.002-0.021c0.106-1.1,1.099-3.121,1.481-3.869c0.063-0.121,0.238-0.121,0.3,0
		c0.382,0.75,1.372,2.775,1.481,3.863c0.002,0.01,0.002,0.021,0.004,0.033C20.114,71.777,20.118,71.828,20.118,71.877z
		 M15.634,71.877c0,0.906-0.735,1.641-1.643,1.641c-0.906,0-1.642-0.734-1.642-1.641c0-0.051,0.003-0.104,0.008-0.158
		c0.001-0.006,0.001-0.016,0.003-0.021c0.105-1.1,1.098-3.121,1.481-3.869c0.063-0.121,0.237-0.121,0.299,0
		c0.382,0.75,1.372,2.775,1.481,3.863c0.002,0.01,0.002,0.021,0.004,0.033C15.631,71.777,15.634,71.828,15.634,71.877z
		 M20.456,47.605c0,0.012,0.002,0.023,0.002,0.033c0.004,0.053,0.009,0.104,0.009,0.152c0,0.906-0.735,1.643-1.642,1.643
		c-0.908,0-1.643-0.736-1.643-1.643c0-0.051,0.003-0.104,0.008-0.156c0-0.008,0.001-0.016,0.002-0.023
		c0.106-1.1,1.098-3.121,1.482-3.867c0.063-0.123,0.236-0.123,0.299,0C19.355,44.492,20.346,46.52,20.456,47.605z M7.874,71.719
		c0-0.006,0-0.016,0.002-0.021c0.105-1.1,1.098-3.121,1.481-3.869c0.062-0.121,0.237-0.121,0.3,0
		c0.381,0.75,1.371,2.775,1.481,3.863c0.001,0.01,0.002,0.021,0.003,0.033c0.005,0.053,0.008,0.104,0.008,0.152
		c0,0.906-0.734,1.641-1.643,1.641c-0.906,0-1.641-0.734-1.641-1.641C7.866,71.826,7.868,71.773,7.874,71.719z"/>
</g>
<g id="Layer_1">
</g>
</svg>
