<?xml version="1.0" encoding="iso-8859-1"?>
<!-- Generator: Adobe Illustrator 16.0.0, SVG Export Plug-In . SVG Version: 6.00 Build 0)  -->
<!DOCTYPE svg PUBLIC "-//W3C//DTD SVG 1.1//EN" "http://www.w3.org/Graphics/SVG/1.1/DTD/svg11.dtd">
<svg version="1.1" xmlns="http://www.w3.org/2000/svg" xmlns:xlink="http://www.w3.org/1999/xlink" x="0px" y="0px"
	 width="37.954px" height="77.168px" viewBox="0 0 37.954 77.168" style="enable-background:new 0 0 37.954 77.168;"
	 xml:space="preserve">
<g id="QueenOnDroneOnQueen">
	<path style="fill:#231F20;" d="M36.398,75.779l-8.315-19.734h3.338h4.014c0.324,0,0.631-0.164,0.811-0.436
		c0.18-0.273,0.213-0.615,0.086-0.918l-3.553-8.434l-7.678-18.225l-1.697-4.026l-2.521-5.983l-1.006-2.389
		c-0.152-0.361-0.506-0.596-0.898-0.596s-0.746,0.235-0.898,0.596l-1.006,2.389l-2.521,5.983l-1.696,4.026L8.628,38.065
		L1.623,54.691c-0.127,0.303-0.095,0.645,0.086,0.918c0.181,0.271,0.485,0.436,0.812,0.436h4.013h3.329H9.87L1.555,75.779
		c-0.13,0.31-0.097,0.662,0.089,0.941s0.498,0.447,0.833,0.447h32.992h0.008c0.335,0,0.647-0.168,0.833-0.447
		S36.528,76.089,36.398,75.779z M7.952,50.789c0-0.049,0.003-0.104,0.008-0.158c0.001-0.008,0.001-0.014,0.002-0.021
		c0.054-0.566,0.345-1.377,0.666-2.132c0.3-0.707,0.626-1.365,0.811-1.726c0.063-0.123,0.237-0.123,0.299,0.002
		c0.169,0.33,0.456,0.914,0.732,1.551c0.349,0.803,0.684,1.693,0.745,2.299c0.001,0.012,0.002,0.021,0.003,0.033
		c0.005,0.053,0.008,0.104,0.008,0.152c0,0.904-0.733,1.637-1.637,1.637c-0.286,0-0.55-0.08-0.784-0.207
		c-0.065-0.036-0.119-0.087-0.178-0.131C8.225,51.791,7.952,51.328,7.952,50.789z M16.897,50.789c0-0.049,0.003-0.104,0.008-0.158
		c0.001-0.008,0.001-0.014,0.001-0.021c0.105-1.096,1.096-3.111,1.478-3.857c0.063-0.123,0.237-0.123,0.3,0.002
		c0.381,0.746,1.366,2.766,1.478,3.85c0,0.012,0.002,0.021,0.002,0.033c0.006,0.053,0.008,0.104,0.008,0.152
		c0,0.904-0.732,1.637-1.637,1.637S16.897,51.693,16.897,50.789z M20.175,71.875c0,0.907-0.735,1.643-1.643,1.643
		c-0.001,0-0.002,0-0.004,0c-0.904-0.003-1.638-0.736-1.638-1.643c0-0.05,0.003-0.103,0.008-0.156
		c0.001-0.007,0.001-0.016,0.002-0.022c0.106-1.1,1.099-3.121,1.481-3.868c0.031-0.06,0.089-0.088,0.146-0.089
		c0.061-0.002,0.122,0.026,0.153,0.089c0.382,0.749,1.372,2.775,1.481,3.862c0.002,0.011,0.002,0.022,0.004,0.033
		C20.171,71.776,20.175,71.827,20.175,71.875z M15.69,71.875c0,0.907-0.735,1.643-1.643,1.643c-0.001,0-0.002,0-0.004,0
		c-0.904-0.003-1.638-0.736-1.638-1.643c0-0.05,0.003-0.103,0.009-0.156c0-0.007,0-0.016,0.002-0.022
		c0.105-1.1,1.098-3.121,1.481-3.868c0.031-0.06,0.089-0.088,0.146-0.089c0.061-0.002,0.121,0.026,0.152,0.089
		c0.382,0.749,1.372,2.775,1.481,3.862c0.002,0.011,0.002,0.022,0.004,0.033C15.688,71.776,15.69,71.827,15.69,71.875z
		 M14.062,52.426c-0.163,0-0.318-0.026-0.467-0.071c-0.002-0.001-0.005,0-0.007-0.001c-0.16-0.049-0.311-0.119-0.446-0.211
		c-0.433-0.293-0.717-0.791-0.717-1.354c0-0.049,0.002-0.104,0.008-0.158c0-0.008,0.001-0.014,0.002-0.021
		c0.105-1.096,1.096-3.111,1.477-3.857c0.064-0.123,0.237-0.123,0.299,0.002c0.152,0.297,0.399,0.797,0.649,1.359
		c0.087,0.196,0.175,0.401,0.259,0.607c0.001,0.002,0.002,0.006,0.004,0.009c0.277,0.68,0.515,1.376,0.565,1.874
		c0.001,0.012,0.002,0.021,0.003,0.033c0.005,0.053,0.008,0.104,0.008,0.152C15.699,51.693,14.966,52.426,14.062,52.426z
		 M7.931,71.719c0-0.007,0-0.016,0.002-0.022c0.105-1.1,1.098-3.121,1.481-3.868c0.03-0.06,0.088-0.088,0.146-0.089
		c0.061-0.002,0.122,0.026,0.153,0.089c0.382,0.749,1.372,2.775,1.482,3.862c0.001,0.011,0.002,0.022,0.003,0.033
		c0.005,0.053,0.008,0.104,0.008,0.151c0,0.907-0.734,1.643-1.643,1.643c-0.001,0-0.002,0-0.004,0
		c-0.904-0.003-1.637-0.736-1.637-1.643C7.923,71.825,7.925,71.772,7.931,71.719z M29.948,54.096L18.978,28.311l-6.929,16.287H9.93
		l7.047-16.565l1.104-2.594c0.153-0.36,0.506-0.593,0.897-0.593s0.744,0.233,0.896,0.593l1.105,2.594l11.088,26.063H29.948z"/>
</g>
<g id="Layer_1">
</g>
</svg>
