<?xml version="1.0" encoding="iso-8859-1"?>
<!-- Generator: Adobe Illustrator 16.0.0, SVG Export Plug-In . SVG Version: 6.00 Build 0)  -->
<!DOCTYPE svg PUBLIC "-//W3C//DTD SVG 1.1//EN" "http://www.w3.org/Graphics/SVG/1.1/DTD/svg11.dtd">
<svg version="1.1" xmlns="http://www.w3.org/2000/svg" xmlns:xlink="http://www.w3.org/1999/xlink" x="0px" y="0px"
	 width="37.954px" height="77.168px" viewBox="0 0 37.954 77.168" style="enable-background:new 0 0 37.954 77.168;"
	 xml:space="preserve">
<g id="Queen">
	<path style="fill:#231F20;" d="M36.398,75.789l-16.5-39.159c-0.156-0.371-0.52-0.612-0.922-0.612s-0.766,0.241-0.922,0.612
		l-16.5,39.159c-0.13,0.311-0.097,0.662,0.089,0.941s0.498,0.447,0.833,0.447h33c0.335,0,0.647-0.168,0.833-0.447
		S36.528,76.1,36.398,75.789z M15.69,71.885c0,0.908-0.735,1.643-1.643,1.643c-0.906,0-1.642-0.734-1.642-1.643
		c0-0.049,0.003-0.102,0.009-0.156c0-0.006,0-0.016,0.002-0.021c0.105-1.1,1.098-3.121,1.481-3.869c0.063-0.121,0.237-0.121,0.299,0
		c0.382,0.75,1.372,2.775,1.481,3.863c0.002,0.01,0.002,0.021,0.004,0.033C15.688,71.787,15.69,71.838,15.69,71.885z M7.931,71.729
		c0-0.006,0-0.016,0.002-0.021c0.105-1.1,1.098-3.121,1.481-3.869c0.062-0.121,0.237-0.121,0.299,0
		c0.382,0.75,1.372,2.775,1.482,3.863c0.001,0.01,0.002,0.021,0.003,0.033c0.005,0.053,0.008,0.104,0.008,0.15
		c0,0.908-0.734,1.643-1.643,1.643c-0.906,0-1.641-0.734-1.641-1.643C7.923,71.836,7.925,71.783,7.931,71.729z M18.532,73.527
		c-0.906,0-1.642-0.734-1.642-1.643c0-0.049,0.003-0.102,0.008-0.156c0.001-0.006,0.001-0.016,0.002-0.021
		c0.106-1.1,1.099-3.121,1.481-3.869c0.063-0.121,0.238-0.121,0.3,0c0.382,0.75,1.372,2.775,1.481,3.863
		c0.002,0.01,0.002,0.021,0.004,0.033c0.004,0.053,0.008,0.104,0.008,0.15C20.175,72.793,19.439,73.527,18.532,73.527z"/>
</g>
<g id="Layer_1">
</g>
</svg>
