<?xml version="1.0" encoding="iso-8859-1"?>
<!-- Generator: Adobe Illustrator 16.0.0, SVG Export Plug-In . SVG Version: 6.00 Build 0)  -->
<!DOCTYPE svg PUBLIC "-//W3C//DTD SVG 1.1//EN" "http://www.w3.org/Graphics/SVG/1.1/DTD/svg11.dtd">
<svg version="1.1" xmlns="http://www.w3.org/2000/svg" xmlns:xlink="http://www.w3.org/1999/xlink" x="0px" y="0px"
	 width="29.931px" height="77.168px" viewBox="0 0 29.931 77.168" style="enable-background:new 0 0 29.931 77.168;"
	 xml:space="preserve">
<g id="DroneOnPawnExpanded">
	<g>
		<path style="fill:#231F20;" d="M28.38,48.667L15.903,15.686c-0.147-0.39-0.52-0.646-0.936-0.646s-0.788,0.257-0.936,0.646
			L1.554,48.667c-0.116,0.307-0.074,0.652,0.113,0.922c0.187,0.271,0.494,0.432,0.822,0.432h24.955c0.328,0,0.636-0.16,0.822-0.432
			C28.454,49.319,28.496,48.974,28.38,48.667z M7.898,44.572c0.001-0.006,0.001-0.014,0.003-0.021
			c0.105-1.1,1.098-3.121,1.481-3.867c0.063-0.123,0.237-0.123,0.299,0c0.382,0.748,1.372,2.773,1.481,3.861
			c0.002,0.012,0.002,0.021,0.004,0.033c0.005,0.053,0.008,0.104,0.008,0.152c0,0.906-0.735,1.64-1.643,1.64
			c-0.906,0-1.642-0.733-1.642-1.64C7.89,44.68,7.893,44.627,7.898,44.572z M14.016,46.37c-0.906,0-1.642-0.733-1.642-1.64
			c0-0.051,0.003-0.104,0.009-0.158c0-0.006,0-0.014,0.002-0.021c0.105-1.1,1.098-3.121,1.481-3.867
			c0.062-0.123,0.237-0.123,0.299,0c0.382,0.748,1.372,2.773,1.481,3.861c0.002,0.012,0.002,0.021,0.004,0.033
			c0.004,0.053,0.008,0.104,0.008,0.152C15.659,45.637,14.923,46.37,14.016,46.37z"/>
		<path style="fill:#231F20;" d="M15.893,52.344c-0.15-0.381-0.52-0.629-0.928-0.629c-0.41,0-0.777,0.248-0.93,0.629L4.668,75.795
			c-0.123,0.309-0.086,0.658,0.1,0.932c0.188,0.275,0.496,0.439,0.828,0.439h18.739c0.332,0,0.641-0.164,0.828-0.439
			c0.186-0.273,0.223-0.623,0.1-0.932L15.893,52.344z M14.87,73.516c-0.908,0-1.643-0.734-1.643-1.641
			c0-0.051,0.004-0.104,0.008-0.158c0-0.006,0.002-0.014,0.002-0.021c0.107-1.1,1.098-3.121,1.482-3.867
			c0.063-0.123,0.236-0.123,0.299,0c0.383,0.748,1.374,2.773,1.483,3.861c0,0.012,0.002,0.021,0.002,0.033
			c0.006,0.053,0.01,0.104,0.01,0.152C16.513,72.781,15.776,73.516,14.87,73.516z"/>
	</g>
</g>
<g id="Layer_1">
</g>
</svg>
