<?xml version="1.0" encoding="iso-8859-1"?>
<!-- Generator: Adobe Illustrator 16.0.0, SVG Export Plug-In . SVG Version: 6.00 Build 0)  -->
<!DOCTYPE svg PUBLIC "-//W3C//DTD SVG 1.1//EN" "http://www.w3.org/Graphics/SVG/1.1/DTD/svg11.dtd">
<svg version="1.1" xmlns="http://www.w3.org/2000/svg" xmlns:xlink="http://www.w3.org/1999/xlink" x="0px" y="0px"
	 width="29.931px" height="77.168px" viewBox="0 0 29.931 77.168" style="enable-background:new 0 0 29.931 77.168;"
	 xml:space="preserve">
<g id="DroneOnPawn">
	<path style="fill:#231F20;" d="M28.401,75.842l-5.498-14.535l-4.497-11.89l-2.515-6.647c-0.145-0.381-0.509-0.633-0.917-0.633
		c-0.407,0-0.772,0.252-0.917,0.633l-2.515,6.647L5.925,64.269L1.547,75.842c-0.114,0.301-0.072,0.638,0.111,0.903
		c0.183,0.264,0.484,0.423,0.806,0.423h25.021c0.322,0,0.624-0.159,0.807-0.423C28.475,76.479,28.517,76.143,28.401,75.842z
		 M12.086,71.936c0-0.05,0.003-0.102,0.007-0.156c0.001-0.008,0.001-0.016,0.002-0.021c0.106-1.104,1.102-3.131,1.486-3.879
		c0.063-0.123,0.238-0.123,0.301,0c0.383,0.75,1.375,2.782,1.485,3.871c0.002,0.012,0.002,0.023,0.004,0.033
		c0.005,0.053,0.008,0.104,0.008,0.152c0,0.909-0.736,1.646-1.647,1.646C12.823,73.582,12.086,72.845,12.086,71.936z M9.753,73.49
		c-0.164,0.055-0.336,0.092-0.518,0.092c-0.557,0-1.047-0.279-1.345-0.703c-0.188-0.268-0.301-0.591-0.301-0.943
		c0-0.05,0.003-0.102,0.008-0.156c0.001-0.008,0.001-0.016,0.002-0.021c0.106-1.104,1.102-3.131,1.485-3.879
		c0.064-0.123,0.238-0.123,0.301,0c0.051,0.1,0.115,0.226,0.184,0.367c0.337,0.684,0.839,1.774,1.114,2.678
		c0.092,0.304,0.163,0.589,0.187,0.826c0.001,0.012,0.002,0.023,0.003,0.033c0.005,0.053,0.008,0.104,0.008,0.152
		C10.882,72.663,10.407,73.271,9.753,73.49z M20.823,75.208l-5.849-16.117l-2.354,6.491h-2.084l3.518-9.698
		c0.14-0.389,0.508-0.647,0.92-0.647c0.413,0,0.781,0.259,0.921,0.647l7.008,19.324H20.823z"/>
</g>
<g id="Layer_1">
</g>
</svg>
