<?xml version="1.0" encoding="iso-8859-1"?>
<!-- Generator: Adobe Illustrator 16.0.0, SVG Export Plug-In . SVG Version: 6.00 Build 0)  -->
<!DOCTYPE svg PUBLIC "-//W3C//DTD SVG 1.1//EN" "http://www.w3.org/Graphics/SVG/1.1/DTD/svg11.dtd">
<svg version="1.1" xmlns="http://www.w3.org/2000/svg" xmlns:xlink="http://www.w3.org/1999/xlink" x="0px" y="0px"
	 width="30.223px" height="77.168px" viewBox="0 0 30.223 77.168" style="enable-background:new 0 0 30.223 77.168;"
	 xml:space="preserve">
<g id="SolidPawnPointingRight">
	<path style="fill:#231F20;" d="M28.429,75.443l-18.296-17.41c-0.24-0.229-0.578-0.323-0.9-0.253
		c-0.327,0.072-0.594,0.297-0.717,0.605l-6.96,17.397c-0.123,0.309-0.086,0.656,0.102,0.932c0.186,0.275,0.494,0.439,0.826,0.439
		l25.254,0.014c0.409,0,0.777-0.25,0.93-0.629C28.819,76.158,28.725,75.725,28.429,75.443z M13.615,70.781
		c-0.837,0.08-3.08,0.25-4.143-0.061c-0.006-0.002-0.014-0.004-0.021-0.006c-0.05-0.016-0.101-0.031-0.147-0.051
		c-0.842-0.336-1.251-1.293-0.913-2.135c0.335-0.842,1.291-1.252,2.133-0.916c0.045,0.018,0.089,0.041,0.138,0.066
		c0.01,0.004,0.02,0.01,0.031,0.014c0.968,0.506,2.479,2.178,3.034,2.811C13.815,70.607,13.751,70.77,13.615,70.781z"/>
</g>
<g id="Layer_1">
</g>
</svg>
