<?xml version="1.0" encoding="iso-8859-1"?>
<!-- Generator: Adobe Illustrator 16.0.0, SVG Export Plug-In . SVG Version: 6.00 Build 0)  -->
<!DOCTYPE svg PUBLIC "-//W3C//DTD SVG 1.1//EN" "http://www.w3.org/Graphics/SVG/1.1/DTD/svg11.dtd">
<svg version="1.1" xmlns="http://www.w3.org/2000/svg" xmlns:xlink="http://www.w3.org/1999/xlink" x="0px" y="0px"
	 width="40.234px" height="77.168px" viewBox="0 0 40.234 77.168" style="enable-background:new 0 0 40.234 77.168;"
	 xml:space="preserve">
<g id="SolidDronePointingLeft">
	<path style="fill:#231F20;" d="M38.685,75.816l-8.801-23.35c-0.116-0.309-0.376-0.539-0.695-0.617
		c-0.319-0.081-0.655,0.001-0.901,0.219L1.824,75.377c-0.312,0.275-0.421,0.715-0.274,1.105c0.147,0.389,0.518,0.646,0.935,0.646
		l35.263,0.039c0.329,0.002,0.637-0.16,0.823-0.43C38.76,76.469,38.803,76.123,38.685,75.816z M23.574,62.209
		c0.564-0.621,2.107-2.264,3.098-2.75c0.006-0.006,0.014-0.008,0.02-0.01c0.047-0.023,0.098-0.047,0.143-0.064
		c0.852-0.318,1.798,0.109,2.117,0.959c0.32,0.848-0.106,1.795-0.955,2.115c-0.046,0.016-0.094,0.031-0.147,0.045
		c-0.009,0.002-0.019,0.006-0.032,0.008c-1.055,0.283-3.301,0.07-4.135-0.023C23.545,62.475,23.484,62.311,23.574,62.209z
		 M29.577,66.656c-0.046,0.016-0.095,0.031-0.146,0.047c-0.01,0-0.021,0.002-0.034,0.006c-1.056,0.281-3.299,0.066-4.134-0.023
		c-0.137-0.016-0.198-0.18-0.107-0.281c0.566-0.621,2.105-2.264,3.098-2.75c0.008-0.004,0.014-0.006,0.021-0.01
		c0.047-0.023,0.099-0.045,0.142-0.063c0.851-0.32,1.798,0.109,2.116,0.957C30.852,65.387,30.426,66.334,29.577,66.656z"/>
</g>
<g id="Layer_1">
</g>
</svg>
