<?xml version="1.0" encoding="iso-8859-1"?>
<!-- Generator: Adobe Illustrator 16.0.0, SVG Export Plug-In . SVG Version: 6.00 Build 0)  -->
<!DOCTYPE svg PUBLIC "-//W3C//DTD SVG 1.1//EN" "http://www.w3.org/Graphics/SVG/1.1/DTD/svg11.dtd">
<svg version="1.1" xmlns="http://www.w3.org/2000/svg" xmlns:xlink="http://www.w3.org/1999/xlink" x="0px" y="0px"
	 width="29.931px" height="77.168px" viewBox="0 0 29.931 77.168" style="enable-background:new 0 0 29.931 77.168;"
	 xml:space="preserve">
<g id="DroneOnDroneOnPawn">
	<path style="fill:#231F20;" d="M28.401,75.842l-5.498-14.536v-0.867h4.54c0.328,0,0.636-0.16,0.822-0.432
		c0.188-0.27,0.229-0.615,0.113-0.922L15.902,26.102c-0.147-0.39-0.52-0.646-0.936-0.646s-0.788,0.257-0.936,0.646L1.553,59.085
		c-0.116,0.307-0.074,0.652,0.113,0.922c0.187,0.271,0.494,0.432,0.822,0.432h0.539h4.346L3.027,71.928l-1.48,3.914
		c-0.114,0.301-0.072,0.638,0.111,0.903c0.183,0.264,0.484,0.423,0.806,0.423h25.021c0.322,0,0.624-0.159,0.807-0.423
		C28.475,76.479,28.517,76.143,28.401,75.842z M7.597,71.779c0.001-0.008,0.001-0.016,0.002-0.021
		c0.106-1.104,1.102-3.131,1.485-3.879c0.064-0.123,0.238-0.123,0.301,0c0.051,0.1,0.115,0.226,0.184,0.367
		c0.337,0.684,0.839,1.774,1.114,2.678c0.092,0.304,0.163,0.589,0.187,0.826c0.001,0.012,0.002,0.023,0.003,0.033
		c0.005,0.053,0.008,0.104,0.008,0.152c0,0.728-0.475,1.336-1.129,1.555c-0.164,0.055-0.336,0.092-0.518,0.092
		c-0.557,0-1.047-0.279-1.345-0.703c-0.188-0.268-0.301-0.591-0.301-0.943C7.589,71.886,7.592,71.834,7.597,71.779z M15.65,54.995
		c0.004,0.053,0.008,0.104,0.008,0.152c0,0.119-0.014,0.234-0.038,0.346c-0.159,0.74-0.816,1.295-1.604,1.295
		c-0.096,0-0.188-0.013-0.279-0.028c-0.772-0.133-1.362-0.802-1.362-1.612c0-0.051,0.003-0.104,0.009-0.158
		c0-0.006,0-0.014,0.002-0.021c0.105-1.1,1.098-3.121,1.481-3.867c0.062-0.123,0.237-0.123,0.299,0
		c0.382,0.748,1.372,2.773,1.481,3.861C15.648,54.974,15.648,54.983,15.65,54.995z M7.897,54.989
		c0.001-0.006,0.001-0.014,0.003-0.021c0.105-1.1,1.098-3.121,1.481-3.867c0.063-0.123,0.237-0.123,0.299,0
		c0.158,0.311,0.421,0.844,0.683,1.436c0.369,0.835,0.735,1.789,0.799,2.426c0.002,0.012,0.002,0.021,0.004,0.033
		c0.005,0.053,0.008,0.104,0.008,0.152c0,0.906-0.735,1.641-1.643,1.641c-0.256,0-0.496-0.063-0.712-0.169
		c-0.548-0.266-0.929-0.822-0.929-1.472C7.889,55.097,7.892,55.044,7.897,54.989z M13.731,73.582c-0.909,0-1.646-0.737-1.646-1.646
		c0-0.05,0.003-0.102,0.007-0.156c0.001-0.008,0.001-0.016,0.002-0.021c0.106-1.104,1.102-3.131,1.486-3.879
		c0.063-0.123,0.238-0.123,0.301,0c0.383,0.75,1.375,2.782,1.485,3.871c0.002,0.012,0.002,0.023,0.004,0.033
		c0.005,0.053,0.008,0.104,0.008,0.152C15.378,72.845,14.642,73.582,13.731,73.582z M12.621,65.582h-2.084l1.866-5.144h2.084
		L12.621,65.582z M20.823,75.208l-5.36-14.77h2.083l5.356,14.77H20.823z"/>
</g>
<g id="Layer_1">
</g>
</svg>
