<?xml version="1.0" encoding="iso-8859-1"?>
<!-- Generator: Adobe Illustrator 16.0.0, SVG Export Plug-In . SVG Version: 6.00 Build 0)  -->
<!DOCTYPE svg PUBLIC "-//W3C//DTD SVG 1.1//EN" "http://www.w3.org/Graphics/SVG/1.1/DTD/svg11.dtd">
<svg version="1.1" xmlns="http://www.w3.org/2000/svg" xmlns:xlink="http://www.w3.org/1999/xlink" x="0px" y="0px"
	 width="37.954px" height="77.168px" viewBox="0 0 37.954 77.168" style="enable-background:new 0 0 37.954 77.168;"
	 xml:space="preserve">
<g id="QueenOnQueenOnQueen">
	<path style="fill:#231F20;" d="M32.552,66.684h2.925c0.335,0,0.647-0.168,0.833-0.447s0.219-0.633,0.089-0.941l-3.88-9.209h2.943
		c0.335,0,0.647-0.168,0.833-0.447s0.219-0.633,0.089-0.941l-16.5-39.161c-0.156-0.371-0.52-0.612-0.922-0.612
		s-0.766,0.241-0.922,0.612L1.54,54.697c-0.13,0.309-0.097,0.662,0.089,0.941s0.498,0.447,0.833,0.447h2.973l-3.88,9.209
		c-0.13,0.309-0.097,0.662,0.089,0.941s0.498,0.447,0.833,0.447h2.896L1.54,75.779c-0.13,0.309-0.097,0.662,0.089,0.941
		s0.498,0.447,0.833,0.447h33c0.335,0,0.647-0.168,0.833-0.447s0.219-0.633,0.089-0.941L32.552,66.684z M20.16,71.875
		c0,0.906-0.735,1.643-1.643,1.643c-0.906,0-1.642-0.736-1.642-1.643c0-0.051,0.003-0.104,0.008-0.156
		c0.001-0.008,0.001-0.016,0.002-0.023c0.106-1.1,1.099-3.121,1.481-3.867c0.063-0.123,0.238-0.123,0.3,0
		c0.382,0.748,1.372,2.775,1.481,3.861c0.002,0.012,0.002,0.023,0.004,0.033C20.156,71.775,20.16,71.826,20.16,71.875z
		 M15.676,71.875c0,0.906-0.735,1.643-1.643,1.643c-0.906,0-1.642-0.736-1.642-1.643c0-0.051,0.003-0.104,0.009-0.156
		c0-0.008,0-0.016,0.002-0.023c0.105-1.1,1.098-3.121,1.481-3.867c0.063-0.123,0.237-0.123,0.299,0
		c0.382,0.748,1.372,2.775,1.481,3.861c0.002,0.012,0.002,0.023,0.004,0.033C15.673,71.775,15.676,71.826,15.676,71.875z
		 M11.191,71.875c0,0.906-0.734,1.643-1.643,1.643c-0.906,0-1.641-0.736-1.641-1.643c0-0.051,0.002-0.104,0.008-0.156
		c0-0.008,0-0.016,0.002-0.023c0.105-1.1,1.098-3.121,1.481-3.867c0.062-0.123,0.237-0.123,0.299,0
		c0.382,0.748,1.372,2.775,1.482,3.861c0.001,0.012,0.002,0.023,0.003,0.033C11.188,71.775,11.191,71.826,11.191,71.875z
		 M20.175,61.391c0,0.906-0.735,1.643-1.643,1.643c-0.906,0-1.642-0.736-1.642-1.643c0-0.051,0.003-0.104,0.008-0.156
		c0.001-0.008,0.001-0.016,0.002-0.023c0.106-1.1,1.099-3.121,1.481-3.867c0.063-0.123,0.238-0.123,0.3,0
		c0.382,0.748,1.372,2.775,1.481,3.861c0.002,0.012,0.002,0.023,0.004,0.033C20.171,61.291,20.175,61.342,20.175,61.391z
		 M15.69,61.391c0,0.906-0.735,1.643-1.643,1.643c-0.906,0-1.642-0.736-1.642-1.643c0-0.051,0.003-0.104,0.009-0.156
		c0-0.008,0-0.016,0.002-0.023c0.105-1.1,1.098-3.121,1.481-3.867c0.063-0.123,0.237-0.123,0.299,0
		c0.382,0.748,1.372,2.775,1.481,3.861c0.002,0.012,0.002,0.023,0.004,0.033C15.688,61.291,15.69,61.342,15.69,61.391z
		 M14.033,52.436c-0.159,0-0.31-0.03-0.456-0.072c-0.683-0.199-1.186-0.824-1.186-1.571c0-0.05,0.003-0.103,0.009-0.156
		c0-0.007,0-0.016,0.002-0.022c0.105-1.1,1.098-3.121,1.481-3.868c0.063-0.122,0.237-0.122,0.299,0
		c0.208,0.407,0.592,1.191,0.92,1.997c0.275,0.678,0.512,1.369,0.562,1.865c0.002,0.011,0.002,0.022,0.004,0.033
		c0.005,0.053,0.008,0.104,0.008,0.151C15.676,51.699,14.94,52.436,14.033,52.436z M9.549,52.436c-0.133,0-0.26-0.021-0.384-0.051
		c-0.72-0.174-1.257-0.818-1.257-1.593c0-0.05,0.002-0.103,0.008-0.156c0-0.007,0-0.016,0.002-0.022
		c0.025-0.262,0.103-0.578,0.208-0.916c0.281-0.896,0.772-1.948,1.098-2.605c0.066-0.133,0.125-0.251,0.175-0.347
		c0.062-0.122,0.237-0.122,0.299,0c0.216,0.424,0.624,1.257,0.96,2.097c0.258,0.645,0.475,1.293,0.522,1.766
		c0.001,0.011,0.002,0.022,0.003,0.033c0.005,0.053,0.008,0.104,0.008,0.151C11.191,51.699,10.457,52.436,9.549,52.436z
		 M7.931,61.234c0-0.008,0-0.016,0.002-0.023c0.105-1.1,1.098-3.121,1.481-3.867c0.062-0.123,0.237-0.123,0.299,0
		c0.208,0.407,0.594,1.194,0.922,2.002c0.275,0.675,0.51,1.365,0.56,1.859c0.001,0.012,0.002,0.023,0.003,0.033
		c0.005,0.053,0.008,0.104,0.008,0.152c0,0.906-0.734,1.643-1.643,1.643c-0.158,0-0.308-0.029-0.452-0.071
		c-0.685-0.197-1.188-0.823-1.188-1.571C7.923,61.34,7.925,61.287,7.931,61.234z M20.152,50.641
		c0.004,0.053,0.008,0.104,0.008,0.151c0,0.907-0.735,1.644-1.643,1.644c-0.906,0-1.642-0.736-1.642-1.644
		c0-0.05,0.003-0.103,0.008-0.156c0.001-0.007,0.001-0.016,0.002-0.022c0.106-1.1,1.099-3.121,1.481-3.868
		c0.063-0.122,0.238-0.122,0.3,0c0.382,0.749,1.372,2.775,1.481,3.862C20.15,50.618,20.15,50.63,20.152,50.641z"/>
</g>
<g id="Layer_1">
</g>
</svg>
