<?xml version="1.0" encoding="iso-8859-1"?>
<!-- Generator: Adobe Illustrator 16.0.0, SVG Export Plug-In . SVG Version: 6.00 Build 0)  -->
<!DOCTYPE svg PUBLIC "-//W3C//DTD SVG 1.1//EN" "http://www.w3.org/Graphics/SVG/1.1/DTD/svg11.dtd">
<svg version="1.1" xmlns="http://www.w3.org/2000/svg" xmlns:xlink="http://www.w3.org/1999/xlink" x="0px" y="0px"
	 width="47.463px" height="77.168px" viewBox="0 0 47.463 77.168" style="enable-background:new 0 0 47.463 77.168;"
	 xml:space="preserve">
<g id="SolidQueenPointingRight">
	<path style="fill:#231F20;" d="M45.696,75.469L16.019,45.056c-0.234-0.24-0.572-0.347-0.902-0.284
		c-0.328,0.063-0.605,0.285-0.734,0.594L1.563,75.775c-0.129,0.309-0.096,0.662,0.09,0.941s0.496,0.445,0.832,0.447l42.494,0.004
		c0.402,0,0.766-0.24,0.922-0.611S45.977,75.756,45.696,75.469z M15.401,56.572c0.047,0.019,0.094,0.042,0.141,0.068
		c0.006,0.002,0.016,0.006,0.02,0.01c0.973,0.525,2.451,2.225,2.99,2.867c0.088,0.107,0.02,0.268-0.117,0.275
		c-0.838,0.063-3.09,0.188-4.133-0.135c-0.012-0.002-0.021-0.006-0.033-0.01c-0.051-0.016-0.098-0.031-0.143-0.051
		c-0.836-0.352-1.229-1.316-0.875-2.151C13.603,56.611,14.565,56.219,15.401,56.572z M11.509,61.578
		c0.352-0.834,1.314-1.227,2.15-0.875c0.047,0.02,0.094,0.043,0.143,0.068c0.006,0.004,0.014,0.008,0.02,0.01
		c0.971,0.525,2.449,2.225,2.988,2.869c0.088,0.105,0.021,0.266-0.115,0.275c-0.84,0.061-3.092,0.188-4.135-0.135
		c-0.012-0.002-0.021-0.008-0.033-0.01c-0.049-0.016-0.098-0.033-0.143-0.051C11.548,63.377,11.157,62.414,11.509,61.578z
		 M20.177,55.662c-0.838,0.061-3.09,0.186-4.135-0.135c-0.01-0.003-0.021-0.007-0.031-0.01c-0.051-0.016-0.1-0.033-0.143-0.052
		c-0.836-0.353-1.229-1.315-0.875-2.151c0.352-0.836,1.314-1.227,2.15-0.874c0.045,0.019,0.094,0.042,0.141,0.067
		c0.006,0.003,0.014,0.006,0.02,0.011c0.973,0.524,2.449,2.224,2.99,2.868C20.382,55.49,20.313,55.652,20.177,55.662z"/>
</g>
<g id="Layer_1">
</g>
</svg>
