<?xml version="1.0" encoding="iso-8859-1"?>
<!-- Generator: Adobe Illustrator 16.0.0, SVG Export Plug-In . SVG Version: 6.00 Build 0)  -->
<!DOCTYPE svg PUBLIC "-//W3C//DTD SVG 1.1//EN" "http://www.w3.org/Graphics/SVG/1.1/DTD/svg11.dtd">
<svg version="1.1" xmlns="http://www.w3.org/2000/svg" xmlns:xlink="http://www.w3.org/1999/xlink" x="0px" y="0px"
	 width="29.931px" height="77.168px" viewBox="0 0 29.931 77.168" style="enable-background:new 0 0 29.931 77.168;"
	 xml:space="preserve">
<g id="DroneOnDroneOnDrone">
	<g style="display:none;">
		<path style="display:inline;fill:#231F20;" d="M11.158,63.557c-0.11-1.088-1.101-3.113-1.482-3.863
			c-0.063-0.121-0.236-0.121-0.299,0c-0.385,0.748-1.376,2.77-1.482,3.869c-0.001,0.006-0.001,0.016-0.002,0.021
			c-0.005,0.055-0.008,0.107-0.008,0.156c0,0.908,0.734,1.643,1.643,1.643c0.906,0,1.642-0.734,1.642-1.643
			c0-0.047-0.003-0.098-0.009-0.15C11.16,63.578,11.158,63.566,11.158,63.557z"/>
		<path style="display:inline;fill:#231F20;" d="M15.641,63.557c-0.109-1.088-1.099-3.113-1.481-3.863
			c-0.063-0.121-0.236-0.121-0.299,0c-0.385,0.748-1.376,2.77-1.482,3.869c0,0.006-0.002,0.016-0.002,0.021
			c-0.005,0.055-0.008,0.107-0.008,0.156c0,0.908,0.734,1.643,1.643,1.643c0.907,0,1.641-0.734,1.641-1.643
			c0-0.047-0.004-0.098-0.008-0.15C15.645,63.578,15.643,63.566,15.641,63.557z"/>
		<path style="display:inline;fill:#231F20;" d="M28.374,67.68l-5.43-14.354h1.387c0.331,0,0.642-0.166,0.828-0.439
			c0.186-0.275,0.223-0.625,0.1-0.932l-9.37-23.453c-0.151-0.38-0.52-0.629-0.928-0.629c-0.409,0-0.777,0.249-0.929,0.629
			L4.664,51.955c-0.123,0.307-0.085,0.656,0.101,0.932c0.186,0.273,0.497,0.439,0.828,0.439h1.386L1.549,67.68
			c-0.116,0.307-0.074,0.652,0.113,0.922c0.187,0.271,0.494,0.432,0.823,0.432h24.954c0.329,0,0.637-0.16,0.823-0.432
			C28.448,68.332,28.491,67.986,28.374,67.68z M14.961,31.569l7.893,19.757h-0.666H20.05H9.874H7.735H7.068L14.961,31.569z
			 M3.932,67.033l5.185-13.707h11.689l5.186,13.707H3.932z"/>
		<path style="display:inline;fill:#231F20;" d="M14.866,49.676c0.906,0,1.643-0.735,1.643-1.643c0-0.048-0.004-0.1-0.008-0.152
			c-0.002-0.011-0.002-0.021-0.004-0.033c-0.109-1.086-1.1-3.112-1.483-3.861c-0.061-0.122-0.236-0.122-0.299,0
			c-0.383,0.747-1.375,2.768-1.481,3.868c-0.002,0.007-0.003,0.015-0.003,0.022c-0.005,0.055-0.008,0.106-0.008,0.156
			C13.224,48.94,13.959,49.676,14.866,49.676z"/>
	</g>
	<path style="fill:#231F20;" d="M27.448,66.291c0.328,0,0.636-0.16,0.822-0.432c0.188-0.27,0.229-0.615,0.113-0.922l-3.603-9.523
		h2.667c0.328,0,0.636-0.16,0.822-0.432c0.188-0.27,0.229-0.615,0.113-0.922L15.907,21.078c-0.147-0.39-0.52-0.646-0.936-0.646
		s-0.788,0.257-0.936,0.646L1.558,54.061c-0.116,0.307-0.074,0.652,0.113,0.922c0.187,0.271,0.494,0.432,0.822,0.432H5.16
		l-3.603,9.523c-0.116,0.307-0.074,0.652,0.113,0.922c0.187,0.271,0.494,0.432,0.822,0.432h0.001H5.16l-3.603,9.523
		c-0.116,0.307-0.074,0.652,0.113,0.922c0.187,0.271,0.494,0.432,0.822,0.432h24.955c0.328,0,0.636-0.16,0.822-0.432
		c0.188-0.27,0.229-0.615,0.113-0.922l-3.603-9.523H27.448L27.448,66.291z M15.662,71.877c0,0.906-0.735,1.641-1.643,1.641
		c-0.906,0-1.642-0.734-1.642-1.641c0-0.051,0.003-0.104,0.009-0.158c0-0.006,0-0.014,0.002-0.021
		c0.105-1.1,1.098-3.121,1.481-3.867c0.062-0.123,0.237-0.123,0.299,0c0.382,0.748,1.372,2.773,1.481,3.861
		c0.002,0.012,0.002,0.021,0.004,0.033C15.658,71.777,15.662,71.828,15.662,71.877z M11.177,71.877c0,0.906-0.735,1.641-1.643,1.641
		c-0.906,0-1.642-0.734-1.642-1.641c0-0.051,0.003-0.104,0.008-0.158c0.001-0.006,0.001-0.014,0.003-0.021
		c0.105-1.1,1.098-3.121,1.481-3.867c0.063-0.123,0.237-0.123,0.299,0c0.382,0.748,1.372,2.773,1.481,3.861
		c0.002,0.012,0.002,0.021,0.004,0.033C11.174,71.777,11.177,71.828,11.177,71.877z M12.377,61c0-0.051,0.003-0.104,0.009-0.158
		c0-0.006,0-0.014,0.002-0.021c0.105-1.1,1.098-3.121,1.481-3.867c0.031-0.062,0.09-0.092,0.15-0.092s0.119,0.03,0.15,0.092
		c0.382,0.748,1.372,2.773,1.481,3.861c0.002,0.012,0.002,0.021,0.004,0.033c0.004,0.053,0.008,0.104,0.008,0.152
		c0,0.906-0.735,1.641-1.643,1.641h0h0C13.113,62.641,12.377,61.906,12.377,61z M9.536,62.641L9.536,62.641L9.536,62.641
		c-0.002,0-0.003,0-0.004,0c-0.135-0.001-0.264-0.021-0.389-0.053c-0.017-0.004-0.032-0.01-0.049-0.015
		c-0.113-0.033-0.222-0.076-0.324-0.13c-0.004-0.003-0.01-0.004-0.014-0.006c-0.004-0.002-0.007-0.006-0.011-0.008
		C8.5,62.294,8.292,62.1,8.144,61.861c-0.01-0.017-0.018-0.034-0.028-0.052c-0.055-0.095-0.098-0.196-0.133-0.301
		c-0.012-0.036-0.024-0.07-0.033-0.107c-0.031-0.121-0.051-0.246-0.053-0.377c0-0.008-0.003-0.016-0.003-0.024
		c0-0.051,0.003-0.104,0.008-0.158c0.001-0.006,0.001-0.014,0.003-0.021c0.105-1.1,1.098-3.121,1.481-3.867
		c0.032-0.062,0.091-0.092,0.15-0.092c0.06,0,0.119,0.03,0.149,0.092c0.032,0.063,0.075,0.15,0.116,0.231
		c0.006,0.012,0.011,0.021,0.017,0.033c0.034,0.068,0.068,0.14,0.107,0.218c0.034,0.07,0.069,0.143,0.105,0.22
		c0.029,0.063,0.057,0.12,0.088,0.187c0.067,0.144,0.136,0.293,0.206,0.449c0.003,0.008,0.007,0.017,0.011,0.025
		c0.088,0.198,0.177,0.404,0.262,0.612c0.008,0.02,0.016,0.04,0.024,0.061c0.076,0.187,0.146,0.373,0.212,0.558
		c0.016,0.044,0.031,0.088,0.046,0.131c0.058,0.168,0.107,0.33,0.15,0.487c0.011,0.041,0.025,0.084,0.035,0.124
		c0.048,0.189,0.086,0.368,0.102,0.525c0.002,0.012,0.002,0.021,0.004,0.033c0.005,0.053,0.008,0.104,0.008,0.152
		C11.178,61.906,10.443,62.641,9.536,62.641z M9.536,51.764c-0.283,0-0.545-0.078-0.778-0.203L8.756,51.56
		c-0.511-0.279-0.862-0.813-0.862-1.437c0-0.051,0.003-0.104,0.008-0.158c0.001-0.006,0.001-0.014,0.003-0.021
		c0.105-1.1,1.098-3.121,1.481-3.867c0.063-0.123,0.237-0.123,0.299,0c0.149,0.293,0.394,0.785,0.64,1.338
		c0.383,0.857,0.775,1.863,0.842,2.523c0.002,0.012,0.002,0.021,0.004,0.033c0.005,0.053,0.008,0.104,0.008,0.152
		C11.178,51.029,10.443,51.764,9.536,51.764z M15.655,49.971c0.004,0.053,0.008,0.104,0.008,0.152c0,0.906-0.735,1.641-1.643,1.641
		c-0.906,0-1.642-0.734-1.642-1.641c0-0.051,0.003-0.104,0.009-0.158c0-0.006,0-0.014,0.002-0.021
		c0.105-1.1,1.098-3.121,1.481-3.867c0.062-0.123,0.237-0.123,0.299,0c0.382,0.748,1.372,2.773,1.481,3.861
		C15.653,49.949,15.653,49.959,15.655,49.971z"/>
</g>
<g id="Layer_1">
</g>
</svg>
