<?xml version="1.0" encoding="iso-8859-1"?>
<!-- Generator: Adobe Illustrator 16.0.0, SVG Export Plug-In . SVG Version: 6.00 Build 0)  -->
<!DOCTYPE svg PUBLIC "-//W3C//DTD SVG 1.1//EN" "http://www.w3.org/Graphics/SVG/1.1/DTD/svg11.dtd">
<svg version="1.1" xmlns="http://www.w3.org/2000/svg" xmlns:xlink="http://www.w3.org/1999/xlink" x="0px" y="0px"
	 width="37.954px" height="77.168px" viewBox="0 0 37.954 77.168" style="enable-background:new 0 0 37.954 77.168;"
	 xml:space="preserve">
<g id="QueenOnPawnOnQueen">
	<path style="fill:#231F20;" d="M36.398,75.779L28.14,56.179h3.321h4.025c0.328,0,0.634-0.164,0.815-0.438s0.214-0.617,0.086-0.92
		l-8.035-19.07l-0.557-1.321l-2.678-6.355l-4.231-10.042l-1.009-2.396c-0.153-0.362-0.509-0.598-0.902-0.598s-0.748,0.236-0.9,0.598
		l-1.01,2.396l-4.231,10.042L1.565,54.821c-0.127,0.303-0.095,0.646,0.086,0.92s0.487,0.438,0.815,0.438h4.025h3.322L1.555,75.779
		c-0.065,0.155-0.089,0.321-0.074,0.483c0.014,0.165,0.068,0.326,0.163,0.469c0.186,0.279,0.498,0.447,0.833,0.447h33
		c0.335,0,0.647-0.168,0.833-0.447c0.095-0.143,0.148-0.304,0.162-0.469C36.487,76.101,36.464,75.935,36.398,75.779z M9.558,52.548
		c-0.287,0-0.552-0.08-0.787-0.208c-0.508-0.278-0.856-0.813-0.856-1.434c0-0.05,0.003-0.104,0.008-0.159
		c0.001-0.008,0.001-0.013,0.002-0.021c0.105-1.101,1.099-3.123,1.482-3.871c0.063-0.122,0.238-0.122,0.3,0.002
		c0.169,0.332,0.457,0.916,0.735,1.556c0.35,0.807,0.686,1.7,0.748,2.308c0.001,0.012,0.002,0.021,0.003,0.032
		c0.005,0.054,0.007,0.105,0.007,0.153C11.2,51.813,10.465,52.548,9.558,52.548z M11.206,71.886c0,0.907-0.734,1.643-1.643,1.643
		c-0.906,0-1.641-0.735-1.641-1.643c0-0.002,0-0.005,0-0.007s0-0.003,0-0.004c0-0.05,0.002-0.103,0.008-0.156
		c0-0.007,0-0.016,0.002-0.022c0.105-1.1,1.098-3.121,1.481-3.868c0.062-0.122,0.237-0.122,0.299,0
		c0.382,0.749,1.372,2.775,1.482,3.862c0.001,0.011,0.002,0.022,0.003,0.033c0.005,0.053,0.008,0.104,0.008,0.151
		c0,0.001,0,0.002,0,0.004S11.206,71.884,11.206,71.886z M12.41,50.747c0-0.008,0.001-0.013,0.002-0.021
		c0.074-0.77,0.579-1.98,1.009-2.9c0.185-0.397,0.358-0.745,0.473-0.971c0.064-0.122,0.238-0.122,0.3,0.002
		c0.152,0.298,0.4,0.8,0.651,1.363c0.083,0.188,0.167,0.384,0.248,0.58c0.001,0.002,0.001,0.004,0.002,0.006
		c0.285,0.692,0.53,1.404,0.582,1.914c0.001,0.012,0.002,0.021,0.003,0.032c0.005,0.054,0.008,0.105,0.008,0.153
		c0,0.906-0.735,1.642-1.643,1.642c-0.172,0-0.338-0.026-0.494-0.076c-0.001-0.001-0.002-0.001-0.004-0.002
		c-0.045-0.015-0.083-0.043-0.126-0.062c-0.103-0.042-0.208-0.082-0.299-0.145c-0.434-0.294-0.719-0.793-0.719-1.357
		C12.402,50.856,12.405,50.803,12.41,50.747z M15.69,71.886c0,0.907-0.735,1.643-1.643,1.643c-0.906,0-1.642-0.735-1.642-1.643
		c0-0.002,0-0.005,0-0.007c0-0.001,0-0.003,0-0.004c0-0.05,0.003-0.103,0.009-0.156c0-0.007,0-0.016,0.002-0.022
		c0.105-1.1,1.098-3.121,1.481-3.868c0.063-0.122,0.237-0.122,0.299,0c0.382,0.749,1.372,2.775,1.481,3.862
		c0.002,0.011,0.002,0.022,0.004,0.033c0.005,0.053,0.008,0.104,0.008,0.151c0,0.001,0,0.002,0,0.004S15.69,71.884,15.69,71.886z
		 M20.175,71.879c0,0.002,0,0.005,0,0.007c0,0.907-0.735,1.643-1.643,1.643c-0.906,0-1.642-0.735-1.642-1.643
		c0-0.002,0-0.005,0-0.007s0-0.003,0-0.004c0-0.05,0.003-0.103,0.008-0.156c0.001-0.007,0.001-0.016,0.002-0.022
		c0.106-1.1,1.099-3.121,1.481-3.868c0.063-0.122,0.238-0.122,0.3,0c0.382,0.749,1.372,2.775,1.481,3.862
		c0.002,0.011,0.002,0.022,0.004,0.033c0.004,0.053,0.008,0.104,0.008,0.151C20.175,71.876,20.175,71.877,20.175,71.879z
		 M18.532,52.548c-0.907,0-1.643-0.735-1.643-1.642c0-0.05,0.003-0.104,0.008-0.159c0.001-0.008,0.001-0.013,0.002-0.021
		c0.105-1.101,1.099-3.123,1.482-3.871c0.063-0.122,0.238-0.122,0.3,0.002c0.381,0.748,1.371,2.774,1.481,3.863
		c0.001,0.012,0.002,0.021,0.003,0.032c0.006,0.054,0.009,0.105,0.009,0.153C20.175,51.813,19.439,52.548,18.532,52.548z
		 M25.778,54.212l-0.93-2.181l-5.813-13.641l-2.687,6.305h-1.692h-0.004l3.403-8.076c0.156-0.371,0.52-0.612,0.922-0.612
		s0.766,0.241,0.922,0.612l6.493,15.412l0.919,2.181H25.778z"/>
</g>
<g id="Layer_1">
</g>
</svg>
