<?xml version="1.0" encoding="iso-8859-1"?>
<!-- Generator: Adobe Illustrator 16.0.0, SVG Export Plug-In . SVG Version: 6.00 Build 0)  -->
<!DOCTYPE svg PUBLIC "-//W3C//DTD SVG 1.1//EN" "http://www.w3.org/Graphics/SVG/1.1/DTD/svg11.dtd">
<svg version="1.1" xmlns="http://www.w3.org/2000/svg" xmlns:xlink="http://www.w3.org/1999/xlink" x="0px" y="0px"
	 width="23.713px" height="77.168px" viewBox="0 0 23.713 77.168" style="enable-background:new 0 0 23.713 77.168;"
	 xml:space="preserve">
<g id="PawnOnPawnOnPawn">
	<path style="fill:#231F20;" d="M18.542,56.279h2.688c0.332,0,0.642-0.164,0.828-0.439c0.186-0.273,0.224-0.623,0.101-0.932
		l-9.37-23.452c-0.151-0.38-0.52-0.629-0.929-0.629s-0.777,0.249-0.929,0.629L1.563,54.908c-0.123,0.309-0.085,0.658,0.101,0.932
		c0.187,0.275,0.496,0.439,0.828,0.439h2.687L1.563,65.33C1.53,65.412,1.511,65.497,1.5,65.583v0.001
		c-0.014,0.087-0.003,0.174,0.005,0.261c0.015,0.163,0.055,0.322,0.15,0.462c0.187,0.275,0.496,0.439,0.828,0.439H5.17l-3.615,9.051
		c-0.123,0.309-0.085,0.658,0.101,0.932c0.187,0.275,0.496,0.439,0.828,0.439h18.738c0.332,0,0.642-0.164,0.828-0.439
		c0.186-0.273,0.224-0.623,0.101-0.932l-3.616-9.051h2.688c0.332,0,0.642-0.164,0.828-0.439c0.095-0.14,0.15-0.3,0.166-0.463v-0.001
		c0.012-0.083,0.013-0.166,0.005-0.248c0-0.004,0-0.008,0-0.012c-0.009-0.085-0.029-0.17-0.063-0.253L18.542,56.279z M13.399,71.877
		c0,0.906-0.736,1.641-1.642,1.641c-0.908,0-1.643-0.734-1.643-1.641c0-0.051,0.003-0.104,0.008-0.158
		c0-0.006,0.001-0.014,0.002-0.021c0.106-1.1,1.098-3.121,1.482-3.867c0.063-0.123,0.236-0.123,0.299,0
		c0.382,0.748,1.373,2.773,1.483,3.861c0,0.012,0.002,0.021,0.002,0.033C13.396,71.777,13.399,71.828,13.399,71.877z M10.115,61.455
		c0-0.051,0.003-0.104,0.008-0.158c0-0.006,0.001-0.014,0.002-0.021c0.001-0.014,0.006-0.031,0.008-0.045
		c0.106-1.1,1.098-3.121,1.482-3.867c0.063-0.123,0.236-0.123,0.299,0c0.382,0.748,1.373,2.773,1.483,3.861
		c0,0.012,0.002,0.021,0.002,0.033c0.005,0.053,0.009,0.104,0.009,0.152c0,0.115-0.015,0.227-0.037,0.336
		c-0.001,0.004,0,0.007-0.001,0.011c0,0.001-0.001,0.002-0.001,0.003c-0.002,0.008-0.007,0.014-0.009,0.021
		c-0.028,0.135-0.083,0.258-0.142,0.378c-0.014,0.027-0.027,0.054-0.043,0.079c-0.009,0.016-0.016,0.031-0.024,0.046
		c-0.017,0.025-0.041,0.043-0.059,0.067c-0.292,0.439-0.767,0.744-1.334,0.744C10.849,63.096,10.115,62.361,10.115,61.455z
		 M13.396,50.803c0,0.012,0.002,0.021,0.002,0.033c0.005,0.053,0.009,0.104,0.009,0.152c0,0.906-0.736,1.641-1.642,1.641
		c-0.908,0-1.643-0.734-1.643-1.641c0-0.051,0.003-0.104,0.008-0.158c0-0.006,0.001-0.014,0.002-0.021
		c0.106-1.1,1.098-3.121,1.482-3.867c0.063-0.123,0.236-0.123,0.299,0C12.295,47.689,13.286,49.715,13.396,50.803z"/>
</g>
<g id="Layer_1">
</g>
</svg>
