<?xml version="1.0" encoding="iso-8859-1"?>
<!-- Generator: Adobe Illustrator 16.0.0, SVG Export Plug-In . SVG Version: 6.00 Build 0)  -->
<!DOCTYPE svg PUBLIC "-//W3C//DTD SVG 1.1//EN" "http://www.w3.org/Graphics/SVG/1.1/DTD/svg11.dtd">
<svg version="1.1" xmlns="http://www.w3.org/2000/svg" xmlns:xlink="http://www.w3.org/1999/xlink" x="0px" y="0px"
	 width="37.954px" height="77.168px" viewBox="0 0 37.954 77.168" style="enable-background:new 0 0 37.954 77.168;"
	 xml:space="preserve">
<g id="QueenOnQueenOnPawn">
	<path style="fill:#231F20;" d="M30.096,60.866h5.395c0.336,0,0.648-0.168,0.834-0.447s0.219-0.633,0.088-0.941l-16.5-39.16
		c-0.156-0.371-0.519-0.612-0.921-0.612c-0.402,0-0.766,0.241-0.922,0.612l-16.5,39.16c-0.13,0.309-0.097,0.662,0.089,0.941
		s0.498,0.447,0.833,0.447h5.394L1.587,75.811c-0.127,0.304-0.095,0.647,0.086,0.92c0.181,0.273,0.487,0.438,0.814,0.438h4.023
		h24.957h4.023c0.328,0,0.634-0.164,0.814-0.438c0.182-0.272,0.214-0.616,0.086-0.92L30.096,60.866z M16.913,55.417
		c0.001-0.008,0.001-0.016,0.002-0.023c0.106-1.1,1.099-3.121,1.481-3.868c0.063-0.121,0.238-0.121,0.3,0
		c0.382,0.749,1.373,2.776,1.482,3.862c0.002,0.012,0.002,0.023,0.004,0.033c0.004,0.053,0.008,0.104,0.008,0.152
		c0,0.331-0.1,0.638-0.269,0.896c-0.293,0.448-0.798,0.746-1.375,0.746c-0.228,0-0.444-0.046-0.641-0.13
		c-0.588-0.25-1.001-0.834-1.001-1.513C16.905,55.522,16.908,55.47,16.913,55.417z M12.429,55.417c0-0.008,0-0.016,0.002-0.023
		c0.015-0.151,0.049-0.324,0.093-0.505c0.278-1.132,1.058-2.719,1.388-3.363c0.008-0.016,0.027-0.012,0.039-0.023
		c0.077-0.078,0.207-0.082,0.26,0.023c0.382,0.749,1.372,2.776,1.481,3.862c0.002,0.012,0.002,0.023,0.004,0.033
		c0.005,0.053,0.008,0.104,0.008,0.152c0,0.906-0.735,1.643-1.643,1.643c-0.906,0-1.642-0.736-1.642-1.643
		C12.42,55.522,12.423,55.47,12.429,55.417z M9.577,73.539c-0.287,0-0.552-0.081-0.786-0.208c-0.508-0.278-0.856-0.813-0.856-1.434
		c0-0.05,0.003-0.104,0.008-0.158c0.001-0.008,0.001-0.014,0.002-0.021c0.105-1.1,1.099-3.12,1.481-3.869
		c0.063-0.122,0.237-0.122,0.3,0.002c0.169,0.332,0.457,0.917,0.735,1.557c0.35,0.805,0.686,1.698,0.747,2.305
		c0.001,0.012,0.002,0.021,0.003,0.033c0.005,0.053,0.008,0.104,0.008,0.152C11.218,72.805,10.483,73.539,9.577,73.539z
		 M9.578,57.216c-0.051,0-0.099-0.011-0.149-0.015c-0.835-0.077-1.492-0.772-1.492-1.628c0-0.051,0.002-0.104,0.008-0.156
		c0-0.008,0-0.016,0.002-0.023c0.105-1.1,1.098-3.121,1.481-3.868c0.062-0.121,0.237-0.121,0.299,0
		c0.242,0.476,0.729,1.465,1.081,2.402c0.203,0.54,0.361,1.063,0.402,1.46c0.001,0.012,0.002,0.023,0.003,0.033
		c0.005,0.053,0.008,0.104,0.008,0.152C11.22,56.479,10.486,57.216,9.578,57.216z M14.562,73.453
		c-0.159,0.051-0.324,0.086-0.5,0.086c-0.342,0-0.66-0.105-0.923-0.284c-0.434-0.294-0.719-0.792-0.719-1.357
		c0-0.05,0.003-0.104,0.008-0.158c0-0.008,0.001-0.014,0.002-0.021c0.105-1.1,1.098-3.12,1.481-3.869
		c0.064-0.122,0.238-0.122,0.3,0.002c0.09,0.176,0.214,0.427,0.351,0.715c0.096,0.2,0.196,0.417,0.299,0.647
		c0.379,0.853,0.765,1.845,0.832,2.499c0.001,0.012,0.002,0.021,0.003,0.033c0.005,0.053,0.008,0.104,0.008,0.152
		C15.703,72.629,15.222,73.241,14.562,73.453z M14.562,65.689h-0.323l0.323-0.759l1.732-4.064h2.125l-2.056,4.823H14.562z
		 M18.545,73.539c-0.907,0-1.642-0.734-1.642-1.642c0-0.05,0.003-0.104,0.008-0.158c0.001-0.008,0.001-0.014,0.002-0.021
		c0.105-1.1,1.098-3.12,1.481-3.869c0.064-0.122,0.238-0.122,0.3,0.002c0.381,0.749,1.371,2.773,1.481,3.861
		c0.001,0.012,0.002,0.021,0.003,0.033c0.005,0.053,0.008,0.104,0.008,0.152C20.188,72.805,19.453,73.539,18.545,73.539z
		 M25.793,75.211l-6.114-14.345h2.125l6.116,14.347L25.793,75.211z"/>
</g>
<g id="Layer_1">
</g>
</svg>
