<?xml version="1.0" encoding="iso-8859-1"?>
<!-- Generator: Adobe Illustrator 16.0.0, SVG Export Plug-In . SVG Version: 6.00 Build 0)  -->
<!DOCTYPE svg PUBLIC "-//W3C//DTD SVG 1.1//EN" "http://www.w3.org/Graphics/SVG/1.1/DTD/svg11.dtd">
<svg version="1.1" xmlns="http://www.w3.org/2000/svg" xmlns:xlink="http://www.w3.org/1999/xlink" x="0px" y="0px"
	 width="29.931px" height="77.168px" viewBox="0 0 29.931 77.168" style="enable-background:new 0 0 29.931 77.168;"
	 xml:space="preserve">
<g id="DroneOnPawnOnDrone">
	<path style="fill:#231F20;" d="M20.342,54.542h7.135c0.322,0,0.623-0.158,0.807-0.422c0.182-0.266,0.225-0.604,0.109-0.904
		l-5.498-14.535l-4.328-11.443l-2.684-7.094c-0.145-0.381-0.51-0.633-0.918-0.633c-0.406,0-0.771,0.252-0.916,0.633l-2.684,7.094
		L5.702,42.207L1.538,53.216c-0.114,0.301-0.072,0.639,0.111,0.904c0.183,0.264,0.484,0.422,0.806,0.422H9.59L1.552,75.79
		c-0.116,0.307-0.074,0.652,0.113,0.922c0.187,0.271,0.494,0.432,0.822,0.432h24.956c0.328,0,0.635-0.16,0.822-0.432
		c0.188-0.27,0.229-0.615,0.113-0.922L20.342,54.542z M7.588,49.153c0.001-0.008,0.001-0.016,0.002-0.021
		c0.106-1.104,1.102-3.131,1.485-3.879c0.064-0.123,0.238-0.123,0.301,0c0.051,0.1,0.115,0.227,0.184,0.367
		c0.337,0.684,0.839,1.775,1.114,2.678c0.092,0.305,0.163,0.59,0.187,0.826c0.001,0.012,0.002,0.023,0.003,0.033
		c0.005,0.053,0.008,0.105,0.008,0.152c0,0.729-0.475,1.336-1.129,1.555c-0.164,0.055-0.336,0.092-0.518,0.092
		c-0.557,0-1.047-0.279-1.345-0.703c-0.188-0.268-0.301-0.59-0.301-0.943C7.58,49.261,7.583,49.208,7.588,49.153z M15.658,71.853
		c0,0.906-0.736,1.641-1.644,1.641c-0.906,0-1.642-0.734-1.642-1.641c0-0.051,0.003-0.104,0.009-0.158c0-0.006,0-0.014,0.002-0.021
		c0.105-1.1,1.098-3.121,1.481-3.867c0.062-0.123,0.237-0.123,0.299,0c0.383,0.748,1.373,2.773,1.482,3.861
		c0.002,0.012,0.002,0.021,0.004,0.033C15.654,71.753,15.658,71.804,15.658,71.853z M13.722,50.956
		c-0.209,0-0.408-0.043-0.593-0.114c-0.615-0.238-1.053-0.832-1.053-1.532c0-0.049,0.003-0.102,0.007-0.156
		c0.001-0.008,0.001-0.016,0.002-0.021c0.106-1.104,1.102-3.131,1.486-3.879c0.063-0.123,0.238-0.123,0.301,0
		c0.174,0.341,0.475,0.952,0.761,1.615c0.342,0.793,0.664,1.663,0.724,2.256c0.002,0.012,0.002,0.023,0.004,0.033
		c0.006,0.053,0.008,0.105,0.008,0.152C15.369,50.22,14.632,50.956,13.722,50.956z M7.896,71.694
		c0.001-0.006,0.001-0.014,0.003-0.021c0.105-1.1,1.098-3.121,1.481-3.867c0.063-0.123,0.237-0.123,0.299,0
		c0.382,0.748,1.372,2.773,1.481,3.861c0.002,0.012,0.002,0.021,0.004,0.033c0.005,0.053,0.008,0.104,0.008,0.152
		c0,0.906-0.735,1.641-1.643,1.641c-0.906,0-1.642-0.734-1.642-1.641C7.888,71.802,7.891,71.749,7.896,71.694z M20.814,52.583
		l-5.85-16.118l-2.353,6.492h-2.084l3.518-9.699c0.14-0.389,0.508-0.647,0.92-0.647c0.414,0,0.781,0.259,0.922,0.647l7.008,19.325
		H20.814z"/>
</g>
<g id="Layer_1">
</g>
</svg>
