<?xml version="1.0" encoding="iso-8859-1"?>
<!-- Generator: Adobe Illustrator 16.0.0, SVG Export Plug-In . SVG Version: 6.00 Build 0)  -->
<!DOCTYPE svg PUBLIC "-//W3C//DTD SVG 1.1//EN" "http://www.w3.org/Graphics/SVG/1.1/DTD/svg11.dtd">
<svg version="1.1" xmlns="http://www.w3.org/2000/svg" xmlns:xlink="http://www.w3.org/1999/xlink" x="0px" y="0px"
	 width="29.931px" height="77.168px" viewBox="0 0 29.931 77.168" style="enable-background:new 0 0 29.931 77.168;"
	 xml:space="preserve">
<g id="PawnOnPawnOnDrone">
	<path style="fill:#231F20;" d="M28.374,75.814l-5.43-14.354h1.387c0.332,0,0.641-0.164,0.828-0.439
		c0.093-0.137,0.148-0.293,0.165-0.454c0.018-0.16-0.004-0.324-0.065-0.478l-3.633-9.096h2.713c0.332,0,0.641-0.164,0.828-0.439
		c0.186-0.273,0.223-0.623,0.1-0.932l-9.37-23.452c-0.15-0.38-0.52-0.629-0.928-0.629c-0.41,0-0.777,0.249-0.93,0.629L4.672,49.623
		c-0.123,0.309-0.086,0.658,0.1,0.932c0.188,0.275,0.496,0.439,0.828,0.439h2.697L4.664,60.09c-0.092,0.23-0.094,0.484-0.011,0.714
		c0.028,0.075,0.065,0.149,0.111,0.218c0.188,0.275,0.496,0.439,0.828,0.439h1.386l-5.43,14.354
		c-0.116,0.307-0.074,0.652,0.113,0.922c0.187,0.271,0.494,0.432,0.823,0.432h24.954c0.329,0,0.637-0.16,0.823-0.432
		C28.448,76.467,28.491,76.121,28.374,75.814z M15.653,71.875c0,0.908-0.734,1.643-1.641,1.643c-0.909,0-1.643-0.734-1.643-1.643
		c0-0.049,0.003-0.102,0.008-0.156c0-0.006,0.002-0.016,0.002-0.021c0.106-1.1,1.098-3.121,1.483-3.869
		c0.063-0.121,0.236-0.121,0.299,0c0.382,0.75,1.371,2.775,1.48,3.863c0.002,0.01,0.004,0.021,0.004,0.033
		C15.649,71.777,15.653,71.828,15.653,71.875z M13.231,56.012c0-0.006,0.002-0.014,0.002-0.021c0.042-0.424,0.214-0.983,0.432-1.555
		c0.032-0.082,0.068-0.162,0.101-0.244c0.197-0.489,0.414-0.976,0.606-1.376c0.134-0.279,0.256-0.522,0.344-0.694
		c0.063-0.122,0.238-0.122,0.299,0c0.383,0.749,1.374,2.775,1.483,3.861c0.002,0.012,0.002,0.022,0.004,0.033
		c0.004,0.053,0.008,0.104,0.008,0.152c0,0,0,0,0,0.001v0.001c0,0.906-0.737,1.641-1.643,1.641c-0.908,0-1.643-0.734-1.643-1.641
		C13.223,56.119,13.227,56.066,13.231,56.012z M16.505,45.518c0,0.012,0.002,0.021,0.002,0.033c0.006,0.053,0.01,0.104,0.01,0.152
		c0,0.906-0.737,1.641-1.643,1.641c-0.908,0-1.643-0.734-1.643-1.641c0-0.051,0.004-0.104,0.008-0.158
		c0-0.006,0.002-0.014,0.002-0.021c0.107-1.1,1.098-3.121,1.482-3.867c0.063-0.123,0.236-0.123,0.299,0
		C15.405,42.404,16.396,44.43,16.505,45.518z M7.893,71.719c0.001-0.006,0.001-0.016,0.002-0.021c0.106-1.1,1.098-3.121,1.482-3.869
		c0.063-0.121,0.236-0.121,0.299,0c0.382,0.75,1.372,2.775,1.482,3.863c0,0.01,0.002,0.021,0.002,0.033
		c0.006,0.053,0.009,0.104,0.009,0.15c0,0.908-0.735,1.643-1.642,1.643c-0.908,0-1.643-0.734-1.643-1.643
		C7.885,71.826,7.888,71.773,7.893,71.719z"/>
</g>
<g id="Layer_1">
</g>
</svg>
