<?xml version="1.0" encoding="iso-8859-1"?>
<!-- Generator: Adobe Illustrator 16.0.0, SVG Export Plug-In . SVG Version: 6.00 Build 0)  -->
<!DOCTYPE svg PUBLIC "-//W3C//DTD SVG 1.1//EN" "http://www.w3.org/Graphics/SVG/1.1/DTD/svg11.dtd">
<svg version="1.1" xmlns="http://www.w3.org/2000/svg" xmlns:xlink="http://www.w3.org/1999/xlink" x="0px" y="0px"
	 width="23.713px" height="77.168px" viewBox="0 0 23.713 77.168" style="enable-background:new 0 0 23.713 77.168;"
	 xml:space="preserve">
<g id="PawnOnPawn">
	<path style="fill:#231F20;" d="M18.517,66.701h2.713c0.332,0,0.642-0.164,0.828-0.439c0.186-0.273,0.224-0.623,0.101-0.932
		l-9.37-23.451c-0.151-0.381-0.52-0.629-0.929-0.629s-0.777,0.248-0.929,0.629L1.563,65.33c-0.123,0.309-0.085,0.658,0.101,0.932
		c0.187,0.275,0.496,0.439,0.828,0.439h2.697l-3.634,9.096c-0.123,0.309-0.085,0.658,0.101,0.932
		c0.187,0.275,0.496,0.439,0.828,0.439h18.738c0.332,0,0.642-0.164,0.828-0.439c0.186-0.273,0.224-0.623,0.101-0.932L18.517,66.701z
		 M13.399,71.877c0,0.906-0.736,1.641-1.642,1.641c-0.908,0-1.643-0.734-1.643-1.641c0-0.051,0.003-0.104,0.008-0.158
		c0-0.006,0.001-0.014,0.002-0.021c0.106-1.1,1.098-3.121,1.482-3.867c0.063-0.123,0.236-0.123,0.299,0
		c0.382,0.748,1.373,2.773,1.483,3.861c0,0.012,0.002,0.021,0.002,0.033C13.396,71.777,13.399,71.828,13.399,71.877z M13.396,61.225
		c0,0.012,0.002,0.021,0.002,0.033c0.005,0.053,0.009,0.104,0.009,0.152c0,0.906-0.736,1.641-1.642,1.641
		c-0.908,0-1.643-0.734-1.643-1.641c0-0.051,0.003-0.104,0.008-0.158c0-0.006,0.001-0.014,0.002-0.021
		c0.106-1.1,1.098-3.121,1.482-3.867c0.063-0.123,0.236-0.123,0.299,0C12.295,58.111,13.286,60.137,13.396,61.225z"/>
</g>
<g id="Layer_1">
</g>
</svg>
