<?xml version="1.0" encoding="iso-8859-1"?>
<!-- Generator: Adobe Illustrator 16.0.0, SVG Export Plug-In . SVG Version: 6.00 Build 0)  -->
<!DOCTYPE svg PUBLIC "-//W3C//DTD SVG 1.1//EN" "http://www.w3.org/Graphics/SVG/1.1/DTD/svg11.dtd">
<svg version="1.1" xmlns="http://www.w3.org/2000/svg" xmlns:xlink="http://www.w3.org/1999/xlink" x="0px" y="0px"
	 width="37.954px" height="77.168px" viewBox="0 0 37.954 77.168" style="enable-background:new 0 0 37.954 77.168;"
	 xml:space="preserve">
<g id="DroneOnPawnOnQueen">
	<path style="fill:#231F20;" d="M36.398,75.789L25.562,50.07h5.926c0.322,0,0.625-0.158,0.807-0.422
		c0.184-0.266,0.225-0.604,0.109-0.904L28.407,38.18l-7.38-19.511l-1.134-2.997c-0.145-0.381-0.508-0.633-0.917-0.633
		c-0.407,0-0.772,0.252-0.917,0.633l-1.134,2.997L5.79,48.111l-0.24,0.633c-0.114,0.301-0.072,0.639,0.111,0.904
		c0.183,0.264,0.484,0.422,0.806,0.422h5.924L1.555,75.789c-0.13,0.311-0.097,0.662,0.089,0.941s0.498,0.447,0.833,0.447h33
		c0.335,0,0.647-0.168,0.833-0.447S36.528,76.1,36.398,75.789z M11.6,44.682c0.001-0.008,0.001-0.016,0.002-0.021
		c0.106-1.104,1.102-3.131,1.485-3.879c0.064-0.123,0.238-0.123,0.301,0c0.051,0.1,0.115,0.227,0.184,0.367
		c0.337,0.684,0.839,1.775,1.114,2.678c0.052,0.174,0.094,0.337,0.128,0.492c0.026,0.117,0.048,0.232,0.059,0.334
		c0.001,0.012,0.002,0.023,0.003,0.033c0.005,0.053,0.008,0.105,0.008,0.152c0,0.633-0.369,1.159-0.893,1.434
		c-0.079,0.041-0.151,0.093-0.236,0.121c-0.164,0.055-0.336,0.092-0.518,0.092c-0.557,0-1.047-0.279-1.345-0.703
		c-0.188-0.268-0.301-0.59-0.301-0.943C11.592,44.789,11.595,44.736,11.6,44.682z M16.089,44.838c0-0.049,0.003-0.102,0.007-0.156
		c0.001-0.008,0.001-0.016,0.002-0.021c0.106-1.104,1.102-3.131,1.486-3.879c0.063-0.123,0.238-0.123,0.301,0
		c0.082,0.162,0.195,0.39,0.319,0.646c0.452,0.94,1.081,2.37,1.167,3.225c0.002,0.012,0.002,0.023,0.004,0.033
		c0.004,0.053,0.008,0.105,0.008,0.152c0,0.91-0.737,1.646-1.647,1.646c-0.564,0-1.063-0.285-1.358-0.719
		C16.195,45.502,16.089,45.183,16.089,44.838z M20.175,71.885c0,0.908-0.735,1.643-1.643,1.643c-0.906,0-1.642-0.734-1.642-1.643
		c0-0.049,0.003-0.102,0.008-0.156c0.001-0.006,0.001-0.016,0.002-0.021c0.106-1.1,1.099-3.121,1.481-3.869
		c0.063-0.121,0.238-0.121,0.3,0c0.382,0.75,1.372,2.775,1.481,3.863c0.002,0.01,0.002,0.021,0.004,0.033
		C20.171,71.787,20.175,71.838,20.175,71.885z M15.69,71.885c0,0.908-0.735,1.643-1.643,1.643c-0.906,0-1.642-0.734-1.642-1.643
		c0-0.049,0.003-0.102,0.009-0.156c0-0.006,0-0.016,0.002-0.021c0.105-1.1,1.098-3.121,1.481-3.869c0.063-0.121,0.237-0.121,0.299,0
		c0.382,0.75,1.372,2.775,1.481,3.863c0.002,0.01,0.002,0.021,0.004,0.033C15.688,71.787,15.69,71.838,15.69,71.885z M7.931,71.729
		c0-0.006,0-0.016,0.002-0.021c0.105-1.1,1.098-3.121,1.481-3.869c0.062-0.121,0.237-0.121,0.299,0
		c0.382,0.75,1.372,2.775,1.482,3.863c0.001,0.01,0.002,0.021,0.003,0.033c0.005,0.053,0.008,0.104,0.008,0.15
		c0,0.908-0.734,1.643-1.643,1.643c-0.906,0-1.641-0.734-1.641-1.643C7.923,71.836,7.925,71.783,7.931,71.729z M24.825,48.111
		l-5.848-16.118l-2.354,6.491h-2.084l3.518-9.698c0.14-0.389,0.508-0.647,0.92-0.647c0.413,0,0.782,0.259,0.92,0.647l7.008,19.325
		H24.825z"/>
</g>
<g id="Layer_1">
</g>
</svg>
