<?xml version="1.0" encoding="iso-8859-1"?>
<!-- Generator: Adobe Illustrator 16.0.0, SVG Export Plug-In . SVG Version: 6.00 Build 0)  -->
<!DOCTYPE svg PUBLIC "-//W3C//DTD SVG 1.1//EN" "http://www.w3.org/Graphics/SVG/1.1/DTD/svg11.dtd">
<svg version="1.1" xmlns="http://www.w3.org/2000/svg" xmlns:xlink="http://www.w3.org/1999/xlink" x="0px" y="0px"
	 width="37.954px" height="77.168px" viewBox="0 0 37.954 77.168" style="enable-background:new 0 0 37.954 77.168;"
	 xml:space="preserve">
<g id="PawnOnQueenOnPawn">
	<path style="fill:#231F20;" d="M36.383,75.811l-7.961-18.894l-1.018-2.415l-0.598-1.418h1.482c0.332,0,0.642-0.164,0.828-0.439
		c0.186-0.275,0.224-0.623,0.101-0.932L19.849,28.26c-0.151-0.38-0.52-0.629-0.929-0.629s-0.777,0.249-0.929,0.629L8.623,51.713
		c-0.123,0.309-0.085,0.656,0.101,0.932c0.187,0.275,0.496,0.439,0.828,0.439h1.585L1.56,75.811
		c-0.127,0.303-0.095,0.646,0.086,0.92s0.487,0.438,0.815,0.438h4.025h24.969h4.025c0.328,0,0.634-0.164,0.815-0.438
		S36.511,76.113,36.383,75.811z M17.19,47.635c0-0.008,0.001-0.016,0.002-0.021c0.106-1.102,1.098-3.121,1.482-3.869
		c0.063-0.121,0.236-0.121,0.299,0c0.382,0.75,1.372,2.775,1.482,3.861c0,0.012,0.002,0.023,0.002,0.033
		c0.005,0.055,0.009,0.105,0.009,0.152c0,0.908-0.735,1.643-1.642,1.643c-0.908,0-1.643-0.734-1.643-1.643
		C17.183,47.742,17.186,47.688,17.19,47.635z M9.553,73.537c-0.287,0-0.552-0.08-0.787-0.208c-0.508-0.278-0.856-0.813-0.856-1.434
		c0-0.05,0.003-0.104,0.008-0.159c0.001-0.008,0.001-0.013,0.002-0.021c0.105-1.101,1.099-3.123,1.482-3.871
		c0.063-0.122,0.238-0.122,0.3,0.002c0.169,0.332,0.457,0.916,0.735,1.556c0.35,0.807,0.686,1.7,0.748,2.308
		c0.001,0.012,0.002,0.021,0.003,0.032c0.005,0.054,0.007,0.105,0.007,0.153C11.195,72.802,10.46,73.537,9.553,73.537z
		 M14.04,73.537c-0.342,0-0.66-0.104-0.923-0.284c-0.434-0.294-0.719-0.793-0.719-1.357c0-0.05,0.003-0.104,0.008-0.159
		c0-0.008,0.001-0.013,0.002-0.021c0.105-1.101,1.099-3.123,1.482-3.871c0.032-0.062,0.091-0.092,0.151-0.091
		c0.059,0,0.118,0.031,0.149,0.093c0.152,0.298,0.4,0.8,0.651,1.363c0.379,0.852,0.765,1.845,0.832,2.5
		c0.001,0.012,0.002,0.021,0.003,0.032c0.005,0.054,0.008,0.105,0.008,0.153C15.683,72.802,14.947,73.537,14.04,73.537z
		 M18.527,73.537c-0.907,0-1.643-0.735-1.643-1.642c0-0.05,0.003-0.104,0.008-0.159c0.001-0.008,0.001-0.013,0.002-0.021
		c0.105-1.101,1.099-3.123,1.482-3.871c0.063-0.122,0.238-0.122,0.3,0.002c0.381,0.748,1.371,2.774,1.481,3.863
		c0.001,0.012,0.002,0.021,0.003,0.032c0.006,0.054,0.009,0.105,0.009,0.153C20.17,72.802,19.435,73.537,18.527,73.537z
		 M25.777,75.211L19.03,59.38l-2.687,6.305h-2.126l3.914-9.183c0.154-0.359,0.508-0.594,0.899-0.594s0.746,0.234,0.899,0.594
		l7.976,18.71L25.777,75.211z"/>
</g>
<g id="Layer_1">
</g>
</svg>
