<?xml version="1.0" encoding="iso-8859-1"?>
<!-- Generator: Adobe Illustrator 16.0.0, SVG Export Plug-In . SVG Version: 6.00 Build 0)  -->
<!DOCTYPE svg PUBLIC "-//W3C//DTD SVG 1.1//EN" "http://www.w3.org/Graphics/SVG/1.1/DTD/svg11.dtd">
<svg version="1.1" xmlns="http://www.w3.org/2000/svg" xmlns:xlink="http://www.w3.org/1999/xlink" x="0px" y="0px"
	 width="37.954px" height="77.168px" viewBox="0 0 37.954 77.168" style="enable-background:new 0 0 37.954 77.168;"
	 xml:space="preserve">
<g id="QueenOnDroneExpanded">
	<path style="fill:#231F20;" d="M36.398,54.819l-16.5-39.159c-0.156-0.371-0.52-0.612-0.922-0.612s-0.766,0.241-0.922,0.612
		l-16.5,39.159c-0.13,0.311-0.097,0.662,0.089,0.941s0.498,0.447,0.833,0.447h10.497L5.557,75.814
		c-0.116,0.307-0.074,0.65,0.113,0.922c0.187,0.27,0.494,0.432,0.822,0.432h24.954c0.328,0,0.636-0.162,0.822-0.432
		c0.188-0.271,0.229-0.615,0.113-0.922l-7.416-19.606h10.511c0.335,0,0.647-0.168,0.833-0.447S36.528,55.13,36.398,54.819z
		 M19.661,71.875c0,0.908-0.735,1.643-1.643,1.643c-0.906,0-1.642-0.734-1.642-1.643c0-0.049,0.003-0.104,0.009-0.156
		c0-0.008,0-0.016,0.002-0.021c0.105-1.102,1.098-3.121,1.481-3.869c0.062-0.121,0.237-0.121,0.299,0
		c0.382,0.75,1.372,2.775,1.481,3.861c0.002,0.012,0.002,0.023,0.004,0.033C19.657,71.777,19.661,71.828,19.661,71.875z
		 M14.048,52.558c-0.906,0-1.642-0.734-1.642-1.643c0-0.049,0.003-0.102,0.009-0.156c0-0.006,0-0.016,0.002-0.021
		c0.105-1.1,1.098-3.121,1.481-3.869c0.063-0.121,0.237-0.121,0.299,0c0.281,0.552,0.888,1.79,1.235,2.841
		c0.125,0.379,0.218,0.734,0.247,1.022c0.002,0.01,0.002,0.021,0.004,0.033c0.005,0.053,0.008,0.104,0.008,0.15
		c0,0.799-0.569,1.462-1.324,1.61C14.263,52.546,14.157,52.558,14.048,52.558z M18.532,52.558c-0.758,0-1.391-0.517-1.579-1.218
		c-0.037-0.136-0.063-0.277-0.063-0.425c0-0.049,0.003-0.102,0.008-0.156c0.001-0.006,0.001-0.016,0.002-0.021
		c0.106-1.1,1.099-3.121,1.481-3.869c0.057-0.108,0.196-0.105,0.27-0.019c0.008,0.01,0.024,0.006,0.03,0.019
		c0.382,0.75,1.372,2.775,1.481,3.863c0.002,0.01,0.002,0.021,0.004,0.033c0.004,0.053,0.008,0.104,0.008,0.15
		C20.175,51.823,19.439,52.558,18.532,52.558z M7.931,50.759c0-0.006,0-0.016,0.002-0.021c0.105-1.1,1.098-3.121,1.481-3.869
		c0.062-0.121,0.237-0.121,0.299,0c0.382,0.75,1.372,2.775,1.482,3.863c0.001,0.01,0.002,0.021,0.003,0.033
		c0.005,0.053,0.008,0.104,0.008,0.15c0,0.908-0.734,1.643-1.643,1.643c-0.906,0-1.641-0.734-1.641-1.643
		C7.923,50.866,7.925,50.813,7.931,50.759z M11.9,71.719c0.001-0.008,0.001-0.016,0.003-0.021c0.105-1.102,1.098-3.121,1.481-3.869
		c0.063-0.121,0.237-0.121,0.299,0c0.382,0.75,1.372,2.775,1.481,3.861c0.002,0.012,0.002,0.023,0.004,0.033
		c0.005,0.055,0.008,0.105,0.008,0.152c0,0.908-0.735,1.643-1.643,1.643c-0.906,0-1.642-0.734-1.642-1.643
		C11.893,71.826,11.896,71.771,11.9,71.719z"/>
</g>
<g id="Layer_1">
</g>
</svg>
