<?xml version="1.0" encoding="iso-8859-1"?>
<!-- Generator: Adobe Illustrator 16.0.0, SVG Export Plug-In . SVG Version: 6.00 Build 0)  -->
<!DOCTYPE svg PUBLIC "-//W3C//DTD SVG 1.1//EN" "http://www.w3.org/Graphics/SVG/1.1/DTD/svg11.dtd">
<svg version="1.1" xmlns="http://www.w3.org/2000/svg" xmlns:xlink="http://www.w3.org/1999/xlink" x="0px" y="0px"
	 width="29.931px" height="77.168px" viewBox="0 0 29.931 77.168" style="enable-background:new 0 0 29.931 77.168;"
	 xml:space="preserve">
<g id="DroneOnPawnOnDroneExpanded">
	<path style="fill:#231F20;" d="M22.504,60.281h1.64c0.332,0,0.641-0.164,0.828-0.439c0.186-0.273,0.223-0.623,0.1-0.932
		l-3.552-8.89h5.925c0.328,0,0.636-0.16,0.822-0.432c0.188-0.27,0.229-0.615,0.113-0.922L15.903,15.686
		c-0.147-0.39-0.52-0.646-0.936-0.646s-0.788,0.257-0.936,0.646L1.554,48.667c-0.116,0.307-0.074,0.652,0.113,0.922
		c0.187,0.271,0.494,0.432,0.822,0.432h5.538l-3.551,8.89c-0.123,0.309-0.086,0.658,0.1,0.932c0.188,0.275,0.496,0.439,0.828,0.439
		h2.026L1.554,75.814c-0.116,0.307-0.074,0.652,0.113,0.922c0.187,0.271,0.494,0.432,0.822,0.432h24.955
		c0.328,0,0.636-0.16,0.822-0.432c0.188-0.27,0.229-0.615,0.113-0.922L22.504,60.281z M15.659,71.878c0,0.906-0.735,1.64-1.643,1.64
		c-0.906,0-1.642-0.733-1.642-1.64c0-0.051,0.003-0.104,0.009-0.158c0-0.006,0-0.014,0.002-0.021c0.105-1.1,1.098-3.121,1.481-3.867
		c0.062-0.123,0.237-0.123,0.299,0c0.382,0.748,1.372,2.773,1.481,3.861c0.002,0.012,0.002,0.021,0.004,0.033
		C15.655,71.778,15.659,71.829,15.659,71.878z M13.043,54.832c0-0.006,0.002-0.014,0.002-0.021c0.107-1.1,1.098-3.121,1.482-3.867
		c0.063-0.123,0.236-0.123,0.299,0c0.383,0.748,1.374,2.773,1.483,3.861c0,0.012,0.002,0.021,0.002,0.033
		c0.006,0.053,0.01,0.104,0.01,0.152c0,0.906-0.737,1.641-1.643,1.641c-0.908,0-1.643-0.734-1.643-1.641
		C13.036,54.939,13.04,54.887,13.043,54.832z M15.651,44.578c0.004,0.053,0.008,0.104,0.008,0.152c0,0.544-0.269,1.022-0.677,1.321
		c-0.015,0.01-0.027,0.023-0.042,0.034c-0.263,0.179-0.581,0.284-0.924,0.284c-0.446,0-0.85-0.179-1.146-0.468
		c-0.305-0.298-0.496-0.713-0.496-1.172c0-0.051,0.003-0.104,0.009-0.158c0-0.006,0-0.014,0.002-0.021
		c0.002-0.025,0.011-0.057,0.014-0.082c0.142-1.114,1.092-3.057,1.467-3.785c0.012-0.025,0.04-0.022,0.06-0.037
		c0.079-0.06,0.19-0.063,0.239,0.037c0.166,0.324,0.445,0.892,0.718,1.516c0.356,0.815,0.702,1.729,0.764,2.346
		C15.649,44.557,15.649,44.566,15.651,44.578z M7.898,44.572c0.001-0.006,0.001-0.014,0.003-0.021
		c0.105-1.1,1.098-3.121,1.481-3.867c0.063-0.123,0.237-0.123,0.299,0c0.247,0.482,0.745,1.498,1.098,2.449
		c0.193,0.522,0.345,1.026,0.384,1.412c0.002,0.012,0.002,0.021,0.004,0.033c0.005,0.053,0.008,0.104,0.008,0.152
		c0,0.906-0.735,1.64-1.643,1.64c-0.015,0-0.029-0.004-0.044-0.005C8.602,46.342,7.89,45.621,7.89,44.73
		C7.89,44.68,7.893,44.627,7.898,44.572z M7.898,71.72c0.001-0.006,0.001-0.014,0.003-0.021c0.105-1.1,1.098-3.121,1.481-3.867
		c0.063-0.123,0.237-0.123,0.299,0c0.382,0.748,1.372,2.773,1.481,3.861c0.002,0.012,0.002,0.021,0.004,0.033
		c0.005,0.053,0.008,0.104,0.008,0.152c0,0.906-0.735,1.64-1.643,1.64c-0.906,0-1.642-0.733-1.642-1.64
		C7.89,71.827,7.893,71.774,7.898,71.72z"/>
</g>
<g id="Layer_1">
</g>
</svg>
