<?xml version="1.0" encoding="iso-8859-1"?>
<!-- Generator: Adobe Illustrator 16.0.0, SVG Export Plug-In . SVG Version: 6.00 Build 0)  -->
<!DOCTYPE svg PUBLIC "-//W3C//DTD SVG 1.1//EN" "http://www.w3.org/Graphics/SVG/1.1/DTD/svg11.dtd">
<svg version="1.1" xmlns="http://www.w3.org/2000/svg" xmlns:xlink="http://www.w3.org/1999/xlink" x="0px" y="0px"
	 width="37.954px" height="77.168px" viewBox="0 0 37.954 77.168" style="enable-background:new 0 0 37.954 77.168;"
	 xml:space="preserve">
<g id="DroneOnQueenOnQueen">
	<path style="fill:#231F20;" d="M32.56,66.684h2.91c0.335,0,0.647-0.168,0.833-0.447s0.219-0.633,0.089-0.941l-6.435-15.272h1.497
		c0.328,0,0.636-0.161,0.822-0.432c0.188-0.271,0.229-0.615,0.113-0.922L19.913,15.686c-0.147-0.39-0.52-0.646-0.936-0.646
		s-0.788,0.257-0.936,0.646L5.564,48.669c-0.116,0.307-0.074,0.651,0.113,0.922c0.187,0.271,0.494,0.432,0.822,0.432h1.483
		L1.548,65.295c-0.13,0.309-0.097,0.662,0.089,0.941s0.498,0.447,0.833,0.447H5.38l-3.833,9.096c-0.13,0.31-0.097,0.662,0.089,0.941
		s0.498,0.447,0.833,0.447h33c0.335,0,0.647-0.168,0.833-0.447s0.219-0.632,0.089-0.941L32.56,66.684z M20.168,71.875
		c0,0.907-0.735,1.643-1.643,1.643c-0.906,0-1.642-0.735-1.642-1.643c0-0.05,0.003-0.103,0.008-0.156
		c0.001-0.007,0.001-0.016,0.002-0.022c0.106-1.1,1.099-3.121,1.481-3.868c0.063-0.122,0.238-0.122,0.3,0
		c0.382,0.749,1.372,2.775,1.481,3.862c0.002,0.011,0.002,0.022,0.004,0.033C20.164,71.776,20.168,71.827,20.168,71.875z
		 M15.684,71.875c0,0.907-0.735,1.643-1.643,1.643c-0.906,0-1.642-0.735-1.642-1.643c0-0.05,0.003-0.103,0.009-0.156
		c0-0.007,0-0.016,0.002-0.022c0.105-1.1,1.098-3.121,1.481-3.868c0.063-0.122,0.237-0.122,0.299,0
		c0.382,0.749,1.372,2.775,1.481,3.862c0.002,0.011,0.002,0.022,0.004,0.033C15.681,71.776,15.684,71.827,15.684,71.875z
		 M11.199,71.875c0,0.907-0.734,1.643-1.643,1.643c-0.906,0-1.641-0.735-1.641-1.643c0-0.05,0.002-0.103,0.008-0.156
		c0-0.007,0-0.016,0.002-0.022c0.105-1.1,1.098-3.121,1.481-3.868c0.062-0.122,0.237-0.122,0.299,0
		c0.382,0.749,1.372,2.775,1.482,3.862c0.001,0.011,0.002,0.022,0.003,0.033C11.196,71.776,11.199,71.827,11.199,71.875z
		 M20.168,61.391c0,0.906-0.735,1.643-1.643,1.643c-0.906,0-1.642-0.736-1.642-1.643c0-0.051,0.003-0.104,0.008-0.156
		c0.001-0.008,0.001-0.016,0.002-0.023c0.106-1.1,1.099-3.121,1.481-3.867c0.063-0.123,0.238-0.123,0.3,0
		c0.382,0.748,1.372,2.775,1.481,3.861c0.002,0.012,0.002,0.023,0.004,0.033C20.164,61.291,20.168,61.342,20.168,61.391z
		 M12.41,61.211c0.105-1.1,1.098-3.121,1.481-3.867c0.063-0.123,0.237-0.123,0.299,0c0.382,0.748,1.372,2.775,1.481,3.861
		c0.002,0.012,0.002,0.023,0.004,0.033c0.005,0.053,0.008,0.104,0.008,0.152c0,0.906-0.735,1.643-1.643,1.643
		c-0.906,0-1.642-0.736-1.642-1.643c0-0.051,0.003-0.104,0.009-0.156C12.408,61.227,12.408,61.219,12.41,61.211z M13.965,46.311
		c-0.136,0.036-0.276,0.062-0.423,0.062c-0.644,0-1.196-0.374-1.465-0.915c-0.109-0.22-0.177-0.464-0.177-0.727
		c0-0.05,0.003-0.104,0.008-0.157c0.001-0.007,0.001-0.015,0.003-0.021c0.105-1.101,1.098-3.121,1.481-3.868
		c0.063-0.122,0.237-0.122,0.299,0c0.059,0.114,0.134,0.266,0.215,0.432c0.349,0.711,0.85,1.811,1.108,2.703
		c0.077,0.266,0.138,0.517,0.159,0.727c0.002,0.012,0.002,0.022,0.004,0.033c0.005,0.054,0.008,0.104,0.008,0.152
		C15.185,45.49,14.666,46.123,13.965,46.311z M11.188,61.205c0.001,0.012,0.002,0.023,0.003,0.033
		c0.005,0.053,0.008,0.104,0.008,0.152c0,0.906-0.734,1.643-1.643,1.643c-0.153,0-0.298-0.027-0.439-0.067
		c-0.691-0.193-1.202-0.822-1.202-1.575c0-0.051,0.002-0.104,0.008-0.156c0-0.008,0-0.016,0.002-0.023
		c0.105-1.1,1.098-3.121,1.481-3.867c0.062-0.123,0.237-0.123,0.299,0c0.209,0.41,0.6,1.206,0.93,2.02
		C10.907,60.033,11.139,60.715,11.188,61.205z M19.661,44.578c0.004,0.054,0.008,0.104,0.008,0.152c0,0.907-0.735,1.642-1.643,1.642
		c-0.672,0-1.249-0.405-1.502-0.983c-0.088-0.202-0.139-0.424-0.139-0.658c0-0.05,0.003-0.104,0.009-0.157
		c0-0.007,0-0.015,0.002-0.021c0.105-1.101,1.098-3.121,1.481-3.868c0.062-0.122,0.237-0.122,0.299,0
		c0.05,0.099,0.112,0.221,0.179,0.357c0.448,0.909,1.208,2.56,1.302,3.504C19.659,44.557,19.659,44.567,19.661,44.578z"/>
</g>
<g id="Layer_1">
</g>
</svg>
