<?xml version="1.0" encoding="iso-8859-1"?>
<!-- Generator: Adobe Illustrator 16.0.0, SVG Export Plug-In . SVG Version: 6.00 Build 0)  -->
<!DOCTYPE svg PUBLIC "-//W3C//DTD SVG 1.1//EN" "http://www.w3.org/Graphics/SVG/1.1/DTD/svg11.dtd">
<svg version="1.1" xmlns="http://www.w3.org/2000/svg" xmlns:xlink="http://www.w3.org/1999/xlink" x="0px" y="0px"
	 width="37.954px" height="77.168px" viewBox="0 0 37.954 77.168" style="enable-background:new 0 0 37.954 77.168;"
	 xml:space="preserve">
<g id="QueenOnPawnOnQueenExpanded">
	<path style="fill:#231F20;" d="M36.51,75.779l-9.137-21.686h1.084c0.332,0,0.641-0.164,0.828-0.439
		c0.186-0.275,0.223-0.623,0.1-0.932l-3.434-8.596h9.541c0.335,0,0.647-0.168,0.833-0.447s0.219-0.631,0.089-0.941l-16.5-39.16
		c-0.156-0.371-0.52-0.612-0.922-0.612s-0.766,0.241-0.922,0.612l-16.5,39.16C1.44,43.049,1.474,43.4,1.659,43.68
		s0.498,0.447,0.833,0.447h9.732l-3.434,8.596c-0.123,0.309-0.085,0.656,0.101,0.932c0.187,0.275,0.496,0.439,0.828,0.439h1.084
		L1.666,75.779c-0.13,0.311-0.097,0.662,0.089,0.941s0.498,0.447,0.833,0.447h33c0.335,0,0.647-0.168,0.833-0.447
		S36.64,76.09,36.51,75.779z M20.286,71.875c0,0.908-0.735,1.643-1.643,1.643c-0.906,0-1.642-0.734-1.642-1.643
		c0-0.049,0.003-0.102,0.008-0.156c0.001-0.006,0.001-0.016,0.002-0.021c0.106-1.1,1.099-3.123,1.481-3.871
		c0.063-0.121,0.238-0.121,0.3,0c0.382,0.75,1.372,2.777,1.481,3.865c0.002,0.01,0.002,0.021,0.004,0.033
		C20.282,71.777,20.286,71.828,20.286,71.875z M15.802,71.875c0,0.908-0.735,1.643-1.643,1.643c-0.906,0-1.642-0.734-1.642-1.643
		c0-0.049,0.003-0.102,0.009-0.156c0-0.006,0-0.016,0.002-0.021c0.105-1.1,1.098-3.123,1.481-3.871c0.063-0.121,0.237-0.121,0.299,0
		c0.382,0.75,1.372,2.777,1.481,3.865c0.002,0.01,0.002,0.021,0.004,0.033C15.799,71.777,15.802,71.828,15.802,71.875z
		 M20.635,48.801c0,0.908-0.736,1.643-1.642,1.643c-0.908,0-1.643-0.734-1.643-1.643c0-0.049,0.003-0.104,0.008-0.156
		c0-0.008,0.001-0.016,0.002-0.021c0.106-1.102,1.098-3.121,1.482-3.869c0.063-0.121,0.236-0.121,0.299,0
		c0.382,0.75,1.372,2.775,1.481,3.861c0,0.012,0.002,0.023,0.002,0.033C20.631,48.703,20.635,48.754,20.635,48.801z M14.063,40.477
		c-0.125,0-0.246-0.018-0.364-0.044c-0.73-0.166-1.278-0.816-1.278-1.599c0-0.049,0.003-0.102,0.009-0.156
		c0-0.006,0-0.016,0.002-0.021c0.105-1.1,1.098-3.121,1.481-3.869c0.063-0.121,0.237-0.121,0.299,0
		c0.21,0.413,0.602,1.212,0.932,2.028c0.27,0.667,0.5,1.346,0.549,1.835c0.002,0.01,0.002,0.021,0.004,0.033
		c0.005,0.053,0.008,0.104,0.008,0.15C15.706,39.742,14.971,40.477,14.063,40.477z M20.179,38.65
		c0.002,0.01,0.002,0.021,0.004,0.033c0.004,0.053,0.008,0.104,0.008,0.15c0,0.607-0.333,1.131-0.821,1.415
		c-0.196,0.114-0.415,0.186-0.65,0.211c-0.057,0.006-0.112,0.018-0.171,0.018c-0.716,0-1.318-0.461-1.543-1.102
		c-0.06-0.17-0.099-0.351-0.099-0.542c0-0.049,0.003-0.102,0.008-0.156c0.001-0.006,0.001-0.016,0.002-0.021
		c0.106-1.1,1.099-3.121,1.481-3.869c0.063-0.121,0.238-0.121,0.3,0c0.142,0.279,0.368,0.734,0.602,1.252
		C19.693,36.914,20.11,37.966,20.179,38.65z M7.946,38.677c0-0.006,0-0.016,0.002-0.021c0.105-1.1,1.098-3.121,1.481-3.869
		c0.062-0.121,0.237-0.121,0.299,0c0.382,0.75,1.372,2.775,1.482,3.863c0.001,0.01,0.002,0.021,0.003,0.033
		c0.005,0.053,0.008,0.104,0.008,0.15c0,0.908-0.734,1.643-1.643,1.643c-0.906,0-1.641-0.735-1.641-1.643
		C7.938,38.785,7.94,38.732,7.946,38.677z M8.042,71.719c0-0.006,0-0.016,0.002-0.021c0.105-1.1,1.098-3.123,1.481-3.871
		c0.062-0.121,0.237-0.121,0.299,0c0.382,0.75,1.372,2.777,1.482,3.865c0.001,0.01,0.002,0.021,0.003,0.033
		c0.005,0.053,0.008,0.104,0.008,0.15c0,0.908-0.734,1.643-1.643,1.643c-0.906,0-1.641-0.734-1.641-1.643
		C8.034,71.826,8.036,71.773,8.042,71.719z"/>
</g>
<g id="Layer_1">
</g>
</svg>
