<?xml version="1.0" encoding="iso-8859-1"?>
<!-- Generator: Adobe Illustrator 16.0.0, SVG Export Plug-In . SVG Version: 6.00 Build 0)  -->
<!DOCTYPE svg PUBLIC "-//W3C//DTD SVG 1.1//EN" "http://www.w3.org/Graphics/SVG/1.1/DTD/svg11.dtd">
<svg version="1.1" xmlns="http://www.w3.org/2000/svg" xmlns:xlink="http://www.w3.org/1999/xlink" x="0px" y="0px"
	 width="29.931px" height="77.168px" viewBox="0 0 29.931 77.168" style="enable-background:new 0 0 29.931 77.168;"
	 xml:space="preserve">
<g id="DroneOnDroneOnPawnExpanded">
	<path style="fill:#231F20;" d="M24.021,50.021h3.423c0.328,0,0.636-0.16,0.822-0.432c0.188-0.27,0.229-0.615,0.113-0.922
		L15.903,15.686c-0.147-0.39-0.52-0.646-0.936-0.646s-0.788,0.257-0.936,0.646L1.554,48.667c-0.116,0.307-0.074,0.652,0.113,0.922
		c0.187,0.271,0.494,0.432,0.822,0.432h3.423L1.554,61.541c-0.116,0.307-0.074,0.652,0.113,0.922
		c0.187,0.271,0.494,0.432,0.822,0.432h6.87L4.207,75.796c-0.123,0.309-0.086,0.658,0.1,0.932c0.188,0.275,0.496,0.439,0.828,0.439
		h18.739c0.332,0,0.641-0.164,0.828-0.439c0.186-0.273,0.223-0.623,0.1-0.932l-5.154-12.901h7.798c0.328,0,0.636-0.16,0.822-0.432
		c0.188-0.27,0.229-0.615,0.113-0.922L24.021,50.021z M16.051,71.876c0,0.906-0.737,1.641-1.643,1.641
		c-0.908,0-1.643-0.734-1.643-1.641c0-0.051,0.004-0.104,0.008-0.158c0-0.006,0.002-0.014,0.002-0.021
		c0.107-1.1,1.098-3.121,1.482-3.867c0.063-0.123,0.236-0.123,0.299,0c0.383,0.748,1.373,2.773,1.483,3.861
		c0,0.012,0.002,0.021,0.002,0.033C16.047,71.776,16.051,71.827,16.051,71.876z M12.375,57.604c0-0.051,0.003-0.104,0.009-0.158
		c0-0.006,0-0.014,0.002-0.021c0.105-1.1,1.098-3.121,1.481-3.867c0.062-0.123,0.237-0.123,0.299,0
		c0.382,0.748,1.372,2.773,1.481,3.861c0.002,0.012,0.002,0.021,0.004,0.033c0.004,0.053,0.008,0.104,0.008,0.152
		c0,0.172-0.034,0.335-0.083,0.49c-0.21,0.665-0.824,1.149-1.56,1.149c-0.345,0-0.664-0.107-0.929-0.289
		C12.658,58.66,12.375,58.166,12.375,57.604z M9.532,46.37c-0.033,0-0.063-0.008-0.096-0.01c-0.844-0.05-1.515-0.73-1.541-1.58
		c0-0.017-0.005-0.033-0.005-0.05c0-0.051,0.003-0.104,0.008-0.158c0.001-0.006,0.001-0.014,0.003-0.021
		c0.105-1.1,1.098-3.121,1.481-3.867c0.018-0.034,0.053-0.035,0.082-0.051c0.078-0.041,0.172-0.039,0.217,0.051
		c0.232,0.455,0.689,1.385,1.037,2.287c0.223,0.58,0.401,1.148,0.444,1.574c0.002,0.012,0.002,0.021,0.004,0.033
		c0.005,0.053,0.008,0.104,0.008,0.152C11.174,45.637,10.439,46.37,9.532,46.37z M15.651,44.578
		c0.004,0.053,0.008,0.104,0.008,0.152c0,0.906-0.735,1.64-1.643,1.64c-0.906,0-1.642-0.733-1.642-1.64
		c0-0.051,0.003-0.104,0.009-0.158c0-0.006,0-0.014,0.002-0.021c0.105-1.1,1.098-3.121,1.481-3.867c0.062-0.123,0.237-0.123,0.299,0
		c0.382,0.748,1.372,2.773,1.481,3.861C15.649,44.557,15.649,44.566,15.651,44.578z M7.898,57.446
		c0.001-0.006,0.001-0.014,0.003-0.021c0.105-1.1,1.098-3.121,1.481-3.867c0.063-0.123,0.237-0.123,0.299,0
		c0.382,0.748,1.372,2.773,1.481,3.861c0.002,0.012,0.002,0.021,0.004,0.033c0.005,0.053,0.008,0.104,0.008,0.152
		c0,0.906-0.735,1.64-1.643,1.64c-0.906,0-1.642-0.733-1.642-1.64C7.89,57.554,7.893,57.501,7.898,57.446z"/>
</g>
<g id="Layer_1">
</g>
</svg>
