<?xml version="1.0" encoding="iso-8859-1"?>
<!-- Generator: Adobe Illustrator 16.0.0, SVG Export Plug-In . SVG Version: 6.00 Build 0)  -->
<!DOCTYPE svg PUBLIC "-//W3C//DTD SVG 1.1//EN" "http://www.w3.org/Graphics/SVG/1.1/DTD/svg11.dtd">
<svg version="1.1" xmlns="http://www.w3.org/2000/svg" xmlns:xlink="http://www.w3.org/1999/xlink" x="0px" y="0px"
	 width="37.954px" height="77.168px" viewBox="0 0 37.954 77.168" style="enable-background:new 0 0 37.954 77.168;"
	 xml:space="preserve">
<g id="DroneOnQueenOnPawn">
	<path style="fill:#231F20;" d="M36.383,75.811l-6.542-15.527h1.613c0.328,0,0.636-0.162,0.822-0.432
		c0.188-0.271,0.229-0.615,0.113-0.922L19.913,25.946c-0.147-0.39-0.52-0.646-0.936-0.646s-0.788,0.257-0.936,0.646L5.564,58.93
		c-0.116,0.307-0.074,0.65,0.113,0.922c0.187,0.27,0.494,0.432,0.822,0.432h1.603L1.56,75.811c-0.127,0.303-0.095,0.646,0.086,0.92
		s0.487,0.438,0.815,0.438h4.025h24.969h4.025c0.328,0,0.634-0.164,0.815-0.438S36.511,76.113,36.383,75.811z M16.394,54.834
		c0-0.008,0-0.016,0.002-0.021c0.105-1.102,1.098-3.121,1.481-3.869c0.062-0.121,0.237-0.121,0.299,0
		c0.382,0.75,1.372,2.775,1.481,3.861c0.002,0.012,0.002,0.023,0.004,0.033c0.004,0.055,0.008,0.105,0.008,0.152
		c0,0.366-0.124,0.701-0.326,0.974c-0.29,0.391-0.745,0.647-1.265,0.663c-0.018,0.001-0.034,0.006-0.051,0.006
		c-0.906,0-1.642-0.734-1.642-1.643C16.385,54.941,16.388,54.887,16.394,54.834z M9.553,73.537c-0.287,0-0.552-0.08-0.787-0.208
		c-0.508-0.278-0.856-0.813-0.856-1.434c0-0.05,0.003-0.104,0.008-0.159c0.001-0.008,0.001-0.013,0.002-0.021
		c0.105-1.101,1.099-3.123,1.482-3.871c0.063-0.122,0.238-0.122,0.3,0.002c0.169,0.332,0.457,0.916,0.735,1.556
		c0.35,0.807,0.686,1.7,0.748,2.308c0.001,0.012,0.002,0.021,0.003,0.032c0.005,0.054,0.007,0.105,0.007,0.153
		C11.195,72.802,10.46,73.537,9.553,73.537z M12.117,55.792c-0.134-0.237-0.217-0.509-0.217-0.802c0-0.049,0.003-0.104,0.008-0.156
		c0.001-0.008,0.001-0.016,0.003-0.021c0.105-1.102,1.098-3.121,1.481-3.869c0.063-0.121,0.237-0.121,0.299,0
		c0.067,0.133,0.157,0.313,0.253,0.512c0.453,0.931,1.138,2.454,1.228,3.35c0.002,0.012,0.002,0.023,0.004,0.033
		c0.005,0.055,0.008,0.105,0.008,0.152c0,0.908-0.735,1.643-1.643,1.643C12.928,56.633,12.399,56.291,12.117,55.792z M14.04,73.537
		c-0.342,0-0.66-0.104-0.923-0.284c-0.434-0.294-0.719-0.793-0.719-1.357c0-0.05,0.003-0.104,0.008-0.159
		c0-0.008,0.001-0.013,0.002-0.021c0.105-1.101,1.099-3.123,1.482-3.871c0.064-0.122,0.238-0.122,0.3,0.002
		c0.152,0.298,0.4,0.8,0.651,1.363c0.379,0.852,0.765,1.845,0.832,2.5c0.001,0.012,0.002,0.021,0.003,0.032
		c0.005,0.054,0.008,0.105,0.008,0.153C15.683,72.802,14.947,73.537,14.04,73.537z M14.217,65.685l2.302-5.401h2.126l-2.302,5.401
		H14.217z M18.527,73.537c-0.907,0-1.643-0.735-1.643-1.642c0-0.05,0.003-0.104,0.008-0.159c0.001-0.008,0.001-0.013,0.002-0.021
		c0.105-1.101,1.099-3.123,1.482-3.871c0.063-0.122,0.238-0.122,0.3,0.002c0.381,0.748,1.371,2.774,1.481,3.863
		c0.001,0.012,0.002,0.021,0.003,0.032c0.006,0.054,0.009,0.105,0.009,0.153C20.17,72.802,19.435,73.537,18.527,73.537z
		 M25.777,75.211l-6.362-14.928h2.126l6.364,14.929L25.777,75.211z"/>
</g>
<g id="Layer_1">
</g>
</svg>
