<?xml version="1.0" encoding="iso-8859-1"?>
<!-- Generator: Adobe Illustrator 16.0.0, SVG Export Plug-In . SVG Version: 6.00 Build 0)  -->
<!DOCTYPE svg PUBLIC "-//W3C//DTD SVG 1.1//EN" "http://www.w3.org/Graphics/SVG/1.1/DTD/svg11.dtd">
<svg version="1.1" xmlns="http://www.w3.org/2000/svg" xmlns:xlink="http://www.w3.org/1999/xlink" x="0px" y="0px"
	 width="37.954px" height="77.168px" viewBox="0 0 37.954 77.168" style="enable-background:new 0 0 37.954 77.168;"
	 xml:space="preserve">
<g id="DroneOnPawnOnQueenExpanded">
	<path style="fill:#231F20;" d="M36.398,75.779L25.351,49.559h2.987c0.332,0,0.642-0.164,0.828-0.439
		c0.186-0.275,0.224-0.623,0.101-0.932l-4.09-10.237h6.27c0.328,0,0.636-0.161,0.822-0.432c0.188-0.271,0.229-0.615,0.113-0.922
		L19.905,3.613c-0.147-0.39-0.52-0.646-0.936-0.646s-0.788,0.257-0.936,0.646L5.557,36.597c-0.116,0.307-0.074,0.651,0.113,0.922
		c0.187,0.271,0.494,0.432,0.822,0.432h6.269L8.672,48.188c-0.123,0.309-0.085,0.656,0.101,0.932
		c0.187,0.275,0.496,0.439,0.828,0.439h3.002L1.555,75.779c-0.13,0.311-0.097,0.662,0.089,0.941s0.498,0.447,0.833,0.447h33
		c0.335,0,0.647-0.168,0.833-0.447S36.528,76.09,36.398,75.779z M20.175,71.875c0,0.908-0.735,1.643-1.643,1.643
		c-0.906,0-1.642-0.734-1.642-1.643c0-0.049,0.003-0.102,0.008-0.156c0.001-0.006,0.001-0.016,0.002-0.021
		c0.106-1.1,1.099-3.121,1.481-3.869c0.063-0.121,0.238-0.121,0.3,0c0.382,0.75,1.372,2.775,1.481,3.863
		c0.002,0.01,0.002,0.021,0.004,0.033C20.171,71.777,20.175,71.828,20.175,71.875z M15.69,71.875c0,0.908-0.735,1.643-1.643,1.643
		c-0.906,0-1.642-0.734-1.642-1.643c0-0.049,0.003-0.102,0.009-0.156c0-0.006,0-0.016,0.002-0.021
		c0.105-1.1,1.098-3.121,1.481-3.869c0.063-0.121,0.237-0.121,0.299,0c0.382,0.75,1.372,2.775,1.481,3.863
		c0.002,0.01,0.002,0.021,0.004,0.033C15.688,71.777,15.69,71.828,15.69,71.875z M18.874,45.908c-0.908,0-1.643-0.734-1.643-1.643
		c0-0.049,0.003-0.104,0.008-0.156c0-0.008,0.001-0.016,0.002-0.021c0.022-0.235,0.091-0.517,0.18-0.814
		c0.299-1.002,0.881-2.223,1.212-2.875c0.03-0.061,0.065-0.129,0.09-0.18c0.063-0.121,0.236-0.121,0.299,0
		c0.382,0.75,1.372,2.775,1.482,3.861c0,0.012,0.002,0.023,0.002,0.033c0.005,0.055,0.009,0.105,0.009,0.152
		C20.516,45.174,19.78,45.908,18.874,45.908z M19.653,32.506c0.004,0.054,0.008,0.104,0.008,0.152c0,0.907-0.735,1.642-1.643,1.642
		c-0.564,0-1.063-0.286-1.358-0.72c-0.179-0.263-0.284-0.58-0.284-0.922c0-0.05,0.003-0.104,0.009-0.157
		c0-0.007,0-0.015,0.002-0.021c0.105-1.101,1.098-3.121,1.481-3.868c0.062-0.122,0.237-0.122,0.299,0
		c0.069,0.136,0.163,0.326,0.264,0.533c0.453,0.933,1.127,2.439,1.217,3.328C19.651,32.484,19.651,32.495,19.653,32.506z
		 M11.9,32.501c0.001-0.007,0.001-0.015,0.003-0.021c0.105-1.101,1.098-3.121,1.481-3.868c0.063-0.122,0.237-0.122,0.299,0
		c0.342,0.67,1.167,2.36,1.415,3.487c0.029,0.131,0.055,0.26,0.066,0.374c0.002,0.012,0.002,0.022,0.004,0.033
		c0.005,0.054,0.008,0.104,0.008,0.152c0,0.63-0.358,1.17-0.879,1.445c-0.229,0.121-0.486,0.196-0.764,0.196
		c-0.906,0-1.642-0.734-1.642-1.642C11.893,32.608,11.896,32.555,11.9,32.501z M7.931,71.719c0-0.006,0-0.016,0.002-0.021
		c0.105-1.1,1.098-3.121,1.481-3.869c0.062-0.121,0.237-0.121,0.299,0c0.382,0.75,1.372,2.775,1.482,3.863
		c0.001,0.01,0.002,0.021,0.003,0.033c0.005,0.053,0.008,0.104,0.008,0.15c0,0.908-0.734,1.643-1.643,1.643
		c-0.906,0-1.641-0.734-1.641-1.643C7.923,71.826,7.925,71.773,7.931,71.719z"/>
</g>
<g id="Layer_1">
</g>
</svg>
