<?xml version="1.0" encoding="iso-8859-1"?>
<!-- Generator: Adobe Illustrator 16.0.0, SVG Export Plug-In . SVG Version: 6.00 Build 0)  -->
<!DOCTYPE svg PUBLIC "-//W3C//DTD SVG 1.1//EN" "http://www.w3.org/Graphics/SVG/1.1/DTD/svg11.dtd">
<svg version="1.1" xmlns="http://www.w3.org/2000/svg" xmlns:xlink="http://www.w3.org/1999/xlink" x="0px" y="0px"
	 width="37.954px" height="77.168px" viewBox="0 0 37.954 77.168" style="enable-background:new 0 0 37.954 77.168;"
	 xml:space="preserve">
<g id="QueenOnQueenOnDrone">
	<path style="fill:#231F20;" d="M31.928,65.511l-1.957-4.646h1.957h3.563c0.335,0,0.647-0.168,0.833-0.447s0.219-0.631,0.089-0.941
		l-16.5-39.159c-0.156-0.371-0.52-0.612-0.922-0.612s-0.766,0.241-0.922,0.612l-16.5,39.159c-0.13,0.311-0.097,0.662,0.089,0.941
		s0.498,0.447,0.833,0.447h5.368L1.56,75.814c-0.127,0.303-0.095,0.646,0.086,0.918c0.181,0.271,0.485,0.436,0.812,0.436h4.013
		h24.888h4.013c0.325,0,0.631-0.164,0.811-0.436c0.181-0.272,0.214-0.615,0.087-0.918L31.928,65.511z M8.743,73.342
		c-0.506-0.278-0.854-0.811-0.854-1.43c0-0.049,0.003-0.103,0.008-0.158c0.001-0.007,0.001-0.013,0.002-0.021
		c0.105-1.097,1.095-3.112,1.477-3.858c0.042-0.083,0.127-0.088,0.203-0.059c0.036,0.015,0.077,0.021,0.097,0.061
		c0.169,0.331,0.456,0.914,0.732,1.551c0.349,0.804,0.684,1.694,0.745,2.3c0.001,0.012,0.002,0.021,0.003,0.032
		c0.005,0.054,0.008,0.104,0.008,0.152c0,0.887-0.706,1.604-1.585,1.633c-0.018,0-0.034,0.005-0.052,0.005
		C9.241,73.55,8.977,73.47,8.743,73.342z M20.182,55.422c0.004,0.053,0.008,0.104,0.008,0.15c0,0.908-0.735,1.643-1.643,1.643
		c-0.906,0-1.642-0.734-1.642-1.643c0-0.049,0.003-0.102,0.008-0.156c0.001-0.006,0.001-0.016,0.002-0.021
		c0.106-1.1,1.099-3.121,1.481-3.869c0.063-0.121,0.238-0.121,0.3,0c0.382,0.75,1.372,2.775,1.481,3.863
		C20.18,55.398,20.18,55.41,20.182,55.422z M12.421,55.572c0-0.049,0.003-0.102,0.009-0.156c0-0.006,0-0.016,0.002-0.021
		c0.021-0.214,0.082-0.469,0.158-0.735c0.312-1.087,0.986-2.473,1.303-3.093c0.006-0.012,0.015-0.029,0.021-0.041
		c0.063-0.121,0.237-0.121,0.299,0c0.2,0.393,0.564,1.133,0.883,1.906c0.292,0.705,0.546,1.438,0.598,1.957
		c0.002,0.01,0.002,0.021,0.004,0.033c0.005,0.053,0.008,0.104,0.008,0.15c0,0.908-0.735,1.643-1.643,1.643
		c-0.188,0-0.367-0.038-0.536-0.097C12.885,56.895,12.421,56.291,12.421,55.572z M7.945,55.416c0-0.006,0-0.016,0.002-0.021
		c0.105-1.1,1.098-3.121,1.481-3.869c0.062-0.121,0.237-0.121,0.299,0c0.239,0.471,0.718,1.441,1.069,2.369
		c0.208,0.553,0.373,1.088,0.414,1.494c0.001,0.01,0.002,0.021,0.003,0.033c0.005,0.053,0.008,0.104,0.008,0.15
		c0,0.908-0.734,1.643-1.643,1.643c-0.06,0-0.116-0.011-0.174-0.018c-0.823-0.088-1.467-0.777-1.467-1.625
		C7.938,55.523,7.939,55.471,7.945,55.416z M12.362,71.912c0-0.049,0.002-0.103,0.008-0.158c0-0.007,0.001-0.013,0.002-0.021
		c0.105-1.097,1.096-3.112,1.477-3.858c0.064-0.122,0.237-0.122,0.299,0.002c0.152,0.297,0.399,0.798,0.649,1.359
		c0.378,0.849,0.762,1.839,0.829,2.491c0.001,0.012,0.002,0.021,0.003,0.032c0.005,0.054,0.008,0.104,0.008,0.152
		c0,0.904-0.733,1.638-1.637,1.638c-0.341,0-0.658-0.105-0.92-0.284C12.646,72.973,12.362,72.476,12.362,71.912z M18.471,73.55
		c-0.904,0-1.637-0.733-1.637-1.638c0-0.049,0.003-0.103,0.008-0.158c0.001-0.007,0.001-0.013,0.001-0.021
		c0.105-1.097,1.096-3.112,1.478-3.858c0.063-0.122,0.237-0.122,0.299,0.002c0.381,0.746,1.367,2.766,1.477,3.851
		c0.001,0.012,0.002,0.021,0.003,0.032c0.005,0.054,0.008,0.104,0.008,0.152C20.108,72.816,19.376,73.55,18.471,73.55z
		 M11.985,65.722H9.867l2.066-4.856h2.119L11.985,65.722z M31.928,75.219h-2.043l-6.106-14.354h2.119l6.03,14.175V75.219z"/>
</g>
<g id="Layer_1">
</g>
</svg>
