<?xml version="1.0" encoding="iso-8859-1"?>
<!-- Generator: Adobe Illustrator 16.0.0, SVG Export Plug-In . SVG Version: 6.00 Build 0)  -->
<!DOCTYPE svg PUBLIC "-//W3C//DTD SVG 1.1//EN" "http://www.w3.org/Graphics/SVG/1.1/DTD/svg11.dtd">
<svg version="1.1" xmlns="http://www.w3.org/2000/svg" xmlns:xlink="http://www.w3.org/1999/xlink" x="0px" y="0px"
	 width="37.954px" height="77.168px" viewBox="0 0 37.954 77.168" style="enable-background:new 0 0 37.954 77.168;"
	 xml:space="preserve">
<g id="QueenOnPawnOnPawn">
	<path style="fill:#231F20;" d="M36.388,63.086l-8.477-20.117l-0.209-0.496l-2.584-6.132l-4.23-10.042l-1.01-2.396
		c-0.152-0.362-0.508-0.598-0.902-0.598c-0.393,0-0.748,0.236-0.9,0.598l-1.01,2.396l-4.231,10.042L1.565,63.086
		c-0.127,0.303-0.095,0.646,0.086,0.92s0.487,0.438,0.815,0.438h4.025h6.723L8.68,75.797c-0.123,0.309-0.085,0.658,0.101,0.932
		c0.187,0.275,0.496,0.439,0.828,0.439h18.737c0.332,0,0.642-0.164,0.828-0.439c0.186-0.273,0.224-0.623,0.101-0.932l-4.536-11.354
		h6.724h4.025c0.328,0,0.633-0.164,0.814-0.438S36.517,63.389,36.388,63.086z M8.771,60.605c-0.508-0.279-0.856-0.814-0.856-1.434
		c0-0.051,0.003-0.104,0.008-0.16c0.001-0.008,0.001-0.012,0.002-0.02c0.105-1.102,1.099-3.123,1.482-3.871
		c0.063-0.122,0.238-0.122,0.3,0.002c0.169,0.332,0.457,0.916,0.735,1.555c0.35,0.807,0.686,1.702,0.748,2.309
		c0.001,0.012,0.002,0.02,0.003,0.031c0.005,0.055,0.007,0.105,0.007,0.154c0,0.906-0.735,1.641-1.642,1.641
		C9.271,60.813,9.006,60.732,8.771,60.605z M12.402,59.172c0-0.051,0.003-0.104,0.008-0.16c0-0.008,0.001-0.012,0.002-0.02
		c0.09-0.94,0.826-2.548,1.278-3.465c0.077-0.156,0.148-0.297,0.204-0.406c0.064-0.122,0.238-0.122,0.3,0.002
		c0.152,0.297,0.4,0.799,0.651,1.363c0.297,0.666,0.592,1.413,0.74,2.022c0.042,0.17,0.077,0.335,0.091,0.478
		c0.001,0.012,0.002,0.02,0.003,0.031c0.005,0.055,0.008,0.105,0.008,0.154c0,0.663-0.396,1.23-0.961,1.489
		c-0.208,0.095-0.438,0.151-0.681,0.151c-0.124,0-0.239-0.028-0.354-0.054c-0.205-0.045-0.4-0.114-0.569-0.229
		C12.688,60.234,12.402,59.736,12.402,59.172z M17.239,71.877c0-0.051,0.003-0.104,0.008-0.158c0-0.006,0.001-0.014,0.002-0.021
		c0.106-1.1,1.098-3.121,1.482-3.867c0.063-0.123,0.236-0.123,0.299,0c0.382,0.748,1.372,2.773,1.482,3.861
		c0,0.012,0.002,0.021,0.002,0.033c0.005,0.053,0.009,0.104,0.009,0.152c0,0.906-0.735,1.641-1.642,1.641
		C17.974,73.518,17.239,72.783,17.239,71.877z M25.782,62.486l-6.747-15.83l-2.687,6.305h-2.126l3.914-9.182
		c0.154-0.359,0.508-0.595,0.899-0.595s0.747,0.235,0.899,0.595l7.977,18.709L25.782,62.486z M16.889,59.172
		c0-0.051,0.003-0.104,0.008-0.16c0.001-0.008,0.001-0.012,0.002-0.02c0.105-1.102,1.099-3.123,1.482-3.871
		c0.063-0.122,0.238-0.122,0.3,0.002c0.061,0.12,0.141,0.281,0.228,0.457c0.452,0.925,1.162,2.491,1.254,3.406
		c0.002,0.012,0.002,0.02,0.004,0.031c0.006,0.055,0.008,0.105,0.008,0.154c0,0.906-0.734,1.641-1.643,1.641
		c-0.594,0-1.109-0.317-1.397-0.789C16.982,59.775,16.889,59.485,16.889,59.172z"/>
</g>
<g id="Layer_1">
</g>
</svg>
