<?xml version="1.0" encoding="iso-8859-1"?>
<!-- Generator: Adobe Illustrator 16.0.0, SVG Export Plug-In . SVG Version: 6.00 Build 0)  -->
<!DOCTYPE svg PUBLIC "-//W3C//DTD SVG 1.1//EN" "http://www.w3.org/Graphics/SVG/1.1/DTD/svg11.dtd">
<svg version="1.1" xmlns="http://www.w3.org/2000/svg" xmlns:xlink="http://www.w3.org/1999/xlink" x="0px" y="0px"
	 width="37.954px" height="77.168px" viewBox="0 0 37.954 77.168" style="enable-background:new 0 0 37.954 77.168;"
	 xml:space="preserve">
<g id="QueenOnPawnOnDroneExpanded">
	<path style="fill:#231F20;" d="M36.377,42.738l-16.5-39.16c-0.156-0.371-0.52-0.612-0.922-0.612s-0.766,0.241-0.922,0.612
		l-16.5,39.16c-0.13,0.311-0.097,0.662,0.089,0.941s0.498,0.447,0.833,0.447h10.178L8.65,54.096
		c-0.123,0.309-0.085,0.658,0.101,0.932c0.187,0.275,0.496,0.439,0.828,0.439h3.65L5.535,75.805
		c-0.116,0.307-0.074,0.65,0.113,0.922c0.187,0.27,0.494,0.432,0.822,0.432h24.954c0.328,0,0.636-0.162,0.822-0.432
		c0.188-0.271,0.229-0.615,0.113-0.922l-7.693-20.338h3.649c0.332,0,0.642-0.164,0.828-0.439c0.186-0.273,0.224-0.623,0.101-0.932
		l-3.982-9.969h10.192c0.335,0,0.647-0.168,0.833-0.447S36.507,43.049,36.377,42.738z M19.64,71.865
		c0,0.908-0.735,1.643-1.643,1.643c-0.906,0-1.642-0.734-1.642-1.643c0-0.049,0.003-0.104,0.009-0.156c0-0.008,0-0.016,0.002-0.021
		c0.105-1.102,1.098-3.121,1.481-3.869c0.062-0.121,0.237-0.121,0.299,0c0.382,0.75,1.372,2.775,1.481,3.861
		c0.002,0.012,0.002,0.023,0.004,0.033C19.636,71.768,19.64,71.818,19.64,71.865z M18.853,51.816c-0.794,0-1.456-0.563-1.609-1.31
		c-0.022-0.107-0.034-0.218-0.034-0.332c0-0.05,0.003-0.104,0.008-0.157c0-0.007,0.001-0.015,0.002-0.021
		c0.106-1.101,1.098-3.121,1.482-3.868c0.045-0.089,0.139-0.091,0.217-0.05c0.027,0.014,0.059,0.016,0.076,0.047
		c0.001,0.002,0.005,0,0.006,0.003c0.382,0.749,1.372,2.774,1.482,3.861c0,0.012,0.002,0.022,0.002,0.033
		c0.002,0.017,0.002,0.032,0.003,0.049c0.003,0.035,0.006,0.071,0.006,0.104C20.494,51.082,19.759,51.816,18.853,51.816z
		 M14.026,40.477c-0.906,0-1.642-0.735-1.642-1.643c0-0.049,0.003-0.102,0.009-0.156c0-0.006,0-0.016,0.002-0.021
		c0.105-1.1,1.098-3.121,1.481-3.869c0.063-0.121,0.237-0.121,0.299,0c0.26,0.51,0.795,1.606,1.149,2.599
		c0.167,0.468,0.297,0.916,0.332,1.264c0.002,0.01,0.002,0.021,0.004,0.033c0.005,0.053,0.008,0.104,0.008,0.15
		c0,0.885-0.7,1.6-1.575,1.635C14.071,40.471,14.049,40.477,14.026,40.477z M18.511,40.477c-0.885,0-1.602-0.702-1.635-1.58
		c-0.001-0.021-0.006-0.042-0.006-0.063c0-0.049,0.003-0.102,0.008-0.156c0.001-0.006,0.001-0.016,0.002-0.021
		c0.106-1.1,1.099-3.121,1.481-3.869c0.039-0.074,0.114-0.087,0.185-0.07c0.045,0.01,0.092,0.023,0.115,0.07
		c0.382,0.75,1.372,2.775,1.481,3.863c0.002,0.01,0.002,0.021,0.004,0.033c0.004,0.053,0.008,0.104,0.008,0.15
		C20.153,39.742,19.418,40.477,18.511,40.477z M7.909,38.677c0-0.006,0-0.016,0.002-0.021c0.105-1.1,1.098-3.121,1.481-3.869
		c0.062-0.121,0.237-0.121,0.299,0c0.382,0.75,1.372,2.775,1.482,3.863c0.001,0.01,0.002,0.021,0.003,0.033
		c0.005,0.053,0.008,0.104,0.008,0.15c0,0.908-0.734,1.643-1.643,1.643c-0.906,0-1.641-0.735-1.641-1.643
		C7.901,38.785,7.903,38.732,7.909,38.677z M11.879,71.709c0.001-0.008,0.001-0.016,0.003-0.021
		c0.105-1.102,1.098-3.121,1.481-3.869c0.063-0.121,0.237-0.121,0.299,0c0.382,0.75,1.372,2.775,1.481,3.861
		c0.002,0.012,0.002,0.023,0.004,0.033c0.005,0.055,0.008,0.105,0.008,0.152c0,0.908-0.735,1.643-1.643,1.643
		c-0.906,0-1.642-0.734-1.642-1.643C11.871,71.816,11.874,71.762,11.879,71.709z"/>
</g>
<g id="Layer_1">
</g>
</svg>
