<?xml version="1.0" encoding="iso-8859-1"?>
<!-- Generator: Adobe Illustrator 16.0.0, SVG Export Plug-In . SVG Version: 6.00 Build 0)  -->
<!DOCTYPE svg PUBLIC "-//W3C//DTD SVG 1.1//EN" "http://www.w3.org/Graphics/SVG/1.1/DTD/svg11.dtd">
<svg version="1.1" xmlns="http://www.w3.org/2000/svg" xmlns:xlink="http://www.w3.org/1999/xlink" x="0px" y="0px"
	 width="23.713px" height="77.168px" viewBox="0 0 23.713 77.168" style="enable-background:new 0 0 23.713 77.168;"
	 xml:space="preserve">
<g id="Pawn">
	<path style="fill:#231F20;" d="M22.15,75.797l-9.37-23.451c-0.151-0.381-0.52-0.629-0.929-0.629s-0.777,0.248-0.929,0.629
		L1.555,75.797c-0.123,0.309-0.085,0.658,0.101,0.932c0.187,0.275,0.496,0.439,0.828,0.439h18.738c0.332,0,0.642-0.164,0.828-0.439
		C22.235,76.455,22.273,76.105,22.15,75.797z M11.757,73.518c-0.908,0-1.643-0.734-1.643-1.641c0-0.051,0.003-0.104,0.008-0.158
		c0-0.006,0.001-0.014,0.002-0.021c0.106-1.1,1.098-3.121,1.482-3.867c0.063-0.123,0.236-0.123,0.299,0
		c0.382,0.748,1.373,2.773,1.483,3.861c0,0.012,0.002,0.021,0.002,0.033c0.005,0.053,0.009,0.104,0.009,0.152
		C13.399,72.783,12.664,73.518,11.757,73.518z"/>
</g>
<g id="Layer_1">
</g>
</svg>
