<?xml version="1.0" encoding="iso-8859-1"?>
<!-- Generator: Adobe Illustrator 16.0.0, SVG Export Plug-In . SVG Version: 6.00 Build 0)  -->
<!DOCTYPE svg PUBLIC "-//W3C//DTD SVG 1.1//EN" "http://www.w3.org/Graphics/SVG/1.1/DTD/svg11.dtd">
<svg version="1.1" xmlns="http://www.w3.org/2000/svg" xmlns:xlink="http://www.w3.org/1999/xlink" x="0px" y="0px"
	 width="37.954px" height="77.169px" viewBox="0 0 37.954 77.169" style="enable-background:new 0 0 37.954 77.169;"
	 xml:space="preserve">
<g id="Tree">
	<g>
		<path style="fill:#231F20;" d="M36.389,75.731l-7.234-17.169h2.268c0.34,0,0.659-0.166,0.852-0.446
			c0.195-0.28,0.237-0.638,0.116-0.955l-6.299-16.657h2.231c0.345,0,0.663-0.171,0.857-0.456c0.191-0.284,0.231-0.646,0.104-0.964
			L19.94,15.692c-0.157-0.394-0.538-0.652-0.962-0.652s-0.805,0.258-0.962,0.652L8.67,39.083c-0.128,0.319-0.088,0.681,0.104,0.964
			c0.193,0.285,0.513,0.456,0.857,0.456h2.233L5.563,57.161c-0.12,0.317-0.077,0.675,0.116,0.955
			c0.195,0.28,0.513,0.446,0.854,0.446h2.266L1.565,75.731c-0.134,0.319-0.1,0.684,0.092,0.974c0.192,0.291,0.516,0.464,0.864,0.464
			h32.913c0.349,0,0.671-0.173,0.864-0.464C36.489,76.415,36.523,76.051,36.389,75.731z M11.162,38.432l7.816-19.563l7.815,19.563
			h-1.486h-2.216h-2.417h-3.393h-2.416h-2.217H11.162z M8.033,56.49l6.048-15.986h2.327h2.248h0.643h2.249h2.326l6.049,15.986
			h-1.641h-2.25H11.921H9.672H8.033z M4.082,75.097l6.966-16.534h15.859l6.966,16.534H4.082z"/>
		<path style="fill:#231F20;" d="M11.216,71.668c-0.11-1.084-1.098-3.105-1.478-3.853c-0.061-0.122-0.236-0.122-0.299,0
			c-0.383,0.745-1.372,2.763-1.478,3.857c0,0.007-0.002,0.015-0.002,0.022c-0.004,0.055-0.008,0.106-0.008,0.157
			c0,0.905,0.733,1.637,1.639,1.637c0.903,0,1.636-0.731,1.636-1.637c0-0.049-0.003-0.099-0.008-0.152
			C11.218,71.689,11.217,71.678,11.216,71.668z"/>
		<path style="fill:#231F20;" d="M15.688,71.668c-0.109-1.084-1.097-3.105-1.477-3.853c-0.063-0.122-0.237-0.122-0.3,0
			c-0.383,0.745-1.373,2.763-1.477,3.857c-0.002,0.007-0.002,0.015-0.002,0.022c-0.007,0.055-0.009,0.106-0.009,0.157
			c0,0.905,0.733,1.637,1.637,1.637s1.638-0.731,1.638-1.637c0-0.049-0.003-0.099-0.008-0.152
			C15.69,71.689,15.689,71.678,15.688,71.668z"/>
		<path style="fill:#231F20;" d="M20.16,71.668c-0.11-1.084-1.098-3.105-1.476-3.853c-0.062-0.122-0.235-0.122-0.3,0
			c-0.383,0.745-1.371,2.763-1.478,3.857c0,0.007-0.002,0.015-0.002,0.022c-0.004,0.055-0.007,0.106-0.007,0.157
			c0,0.905,0.734,1.637,1.639,1.637c0.904,0,1.637-0.731,1.637-1.637c0-0.049-0.003-0.099-0.01-0.152
			C20.163,71.689,20.161,71.678,20.16,71.668z"/>
		<path style="fill:#231F20;" d="M12.702,54.638c0.251,0.153,0.541,0.247,0.856,0.247c0.904,0,1.636-0.734,1.636-1.639
			c0-0.047-0.003-0.098-0.009-0.152c0-0.01-0.001-0.021-0.003-0.031c-0.063-0.636-0.43-1.589-0.796-2.423
			c-0.262-0.589-0.522-1.121-0.68-1.431c-0.061-0.121-0.235-0.121-0.299,0c-0.382,0.746-1.372,2.762-1.477,3.859
			c-0.001,0.006-0.001,0.014-0.003,0.021c-0.004,0.054-0.008,0.108-0.008,0.157C11.919,53.836,12.233,54.349,12.702,54.638z"/>
		<path style="fill:#231F20;" d="M18.029,54.885c0.904,0,1.64-0.734,1.64-1.639c0-0.047-0.004-0.098-0.009-0.152
			c0-0.01-0.003-0.021-0.004-0.031c-0.109-1.086-1.096-3.105-1.478-3.854c-0.063-0.121-0.237-0.121-0.299,0
			c-0.382,0.746-1.372,2.762-1.477,3.859c-0.001,0.006-0.001,0.014-0.002,0.021c-0.004,0.054-0.009,0.108-0.009,0.157
			C16.392,54.15,17.124,54.885,18.029,54.885z"/>
		<path style="fill:#231F20;" d="M18.067,36.6c0.24,0.139,0.518,0.226,0.815,0.226c0.358,0,0.686-0.118,0.954-0.312
			c0.413-0.298,0.684-0.78,0.684-1.327c0-0.047-0.003-0.098-0.008-0.152c-0.002-0.01-0.002-0.02-0.004-0.032
			c-0.11-1.085-1.097-3.104-1.477-3.853c-0.062-0.122-0.236-0.122-0.299,0c-0.382,0.746-1.372,2.761-1.478,3.86
			c-0.001,0.007-0.001,0.014-0.001,0.021c-0.005,0.053-0.008,0.107-0.008,0.156C17.245,35.792,17.577,36.316,18.067,36.6z"/>
	</g>
</g>
<g id="Layer_1">
</g>
</svg>
