<?xml version="1.0" standalone="no"?>
<!DOCTYPE svg PUBLIC "-//W3C//DTD SVG 1.1//EN" "http://www.w3.org/Graphics/SVG/1.1/DTD/svg11.dtd" >
<svg xmlns="http://www.w3.org/2000/svg">
<metadata>Generated by IcoMoon</metadata>
<defs>
<font id="Pyramid-Love" horiz-adv-x="1024">
<font-face units-per-em="1024" ascent="960" descent="-64" />
<missing-glyph horiz-adv-x="1024" />
<glyph unicode="&#x20;" horiz-adv-x="512" d="" />
<glyph unicode="&#x21;" glyph-name="RegularDie1" horiz-adv-x="1056" d="M772.491-64h-746.341c-14.435 0-26.15 11.689-26.15 26.15v722.441c0 7.374 3.060 14.042 7.976 18.776l257.497 249.26c4.864 4.733 11.375 7.374 18.174 7.374h746.341c14.461 0 26.15-11.715 26.15-26.15v-722.441c0-7.087-2.85-13.859-7.976-18.802l-257.497-249.26c-4.681-4.55-11.088-7.348-18.174-7.348zM52.3-11.7h694.042v670.141h-694.042v-670.141zM798.641 673.503v-649.639l205.197 198.634v649.639l-205.197-198.634zM90.766 710.74h671.161l203.445 196.96h-671.161l-203.445-196.96zM444.547 331.725c0-36.105-29.269-65.374-65.374-65.374s-65.374 29.269-65.374 65.374c0 36.105 29.269 65.374 65.374 65.374s65.374-29.269 65.374-65.374z" />
<glyph unicode="&#x22;" glyph-name="ComponentPyramidArcadeCards" horiz-adv-x="820" d="M793.608 960h-642.903c-7.078 0-13.878-2.783-18.928-7.794l-120.365-119.411c-6.919-4.851-11.412-12.884-11.412-21.95v-848.005c0-14.832 12.009-26.841 26.841-26.841h642.903c7.356 0 14.037 2.943 18.888 7.714l123.865 122.314c5.090 5.050 7.953 11.929 7.953 19.087v848.045c0 14.832-12.009 26.841-26.841 26.841zM161.76 906.319h567.948l-68.672-68.672h-568.465l69.189 68.672zM642.903-10.319h-589.221v794.324h589.221v-794.324zM696.584 27.059v770.187l70.223 70.263v-771.141l-70.223-69.308zM173.53 261.587c14.037 0 24.495 9.543 24.495 25.25v47.279h44.058c26.443 0 47.995 7.078 64.616 21.433 16.621 14.395 24.813 33.243 24.813 56.584 0 23.023-8.191 41.275-24.495 54.675-16.343 13.4-37.855 20.121-64.974 20.121h-61.634c-19.604 0-31.016-11.174-31.016-30.38v-169.792c-0.040-15.627 10.1-25.171 24.137-25.171zM197.984 443.149h35.589c33.64 0 49.625-9.941 49.625-31.97s-16.661-33.282-49.625-33.282h-35.589v65.253zM381.097 262.82c12.724-3.817 24.813 1.272 30.34 15.707l11.73 28.789h88.475l12.128-28.789c6.163-14.713 16.303-19.842 30.34-15.707 13.043 4.175 19.922 15.985 14.355 30.062l-69.865 174.603c-5.567 14.076-15.985 21.075-31.334 21.075-15.031 0-25.449-7.038-31.016-21.433l-69.547-174.285c-5.527-14.037 1.312-25.847 14.395-30.022zM467.623 422.71l28.391-73.205h-56.823l28.431 73.205z" />
<glyph unicode="&#x23;" glyph-name="RegularDie3" horiz-adv-x="1056" d="M772.491-64h-746.341c-14.435 0-26.15 11.689-26.15 26.15v722.441c0 7.374 3.060 14.042 7.976 18.776l257.497 249.26c4.864 4.733 11.375 7.374 18.174 7.374h746.341c14.461 0 26.15-11.715 26.15-26.15v-722.441c0-7.087-2.85-13.859-7.976-18.802l-257.497-249.26c-4.681-4.55-11.088-7.348-18.174-7.348zM52.3-11.7h694.042v670.141h-694.042v-670.141zM798.641 673.503v-649.639l205.197 198.634v649.639l-205.197-198.634zM90.766 710.74h671.161l203.445 196.96h-671.161l-203.445-196.96zM261.498 514.774c0-36.105-29.269-65.374-65.374-65.374s-65.374 29.269-65.374 65.374c0 36.105 29.269 65.374 65.374 65.374s65.374-29.269 65.374-65.374zM444.547 331.725c0-36.105-29.269-65.374-65.374-65.374s-65.374 29.269-65.374 65.374c0 36.105 29.269 65.374 65.374 65.374s65.374-29.269 65.374-65.374zM627.595 148.676c0-36.105-29.269-65.374-65.374-65.374s-65.374 29.269-65.374 65.374c0 36.105 29.269 65.374 65.374 65.374s65.374-29.269 65.374-65.374z" />
<glyph unicode="&#x24;" glyph-name="RegularDie4" horiz-adv-x="1056" d="M772.491-64h-746.341c-14.435 0-26.15 11.689-26.15 26.15v722.441c0 7.374 3.060 14.042 7.976 18.776l257.497 249.26c4.864 4.733 11.375 7.374 18.174 7.374h746.341c14.461 0 26.15-11.715 26.15-26.15v-722.441c0-7.087-2.85-13.859-7.976-18.802l-257.497-249.26c-4.681-4.55-11.088-7.348-18.174-7.348zM52.3-11.7h694.042v670.141h-694.042v-670.141zM798.641 673.503v-649.639l205.197 198.634v649.639l-205.197-198.634zM90.766 710.74h671.161l203.445 196.96h-671.161l-203.445-196.96zM261.498 514.774c0-36.105-29.269-65.374-65.374-65.374s-65.374 29.269-65.374 65.374c0 36.105 29.269 65.374 65.374 65.374s65.374-29.269 65.374-65.374zM261.498 148.676c0-36.105-29.269-65.374-65.374-65.374s-65.374 29.269-65.374 65.374c0 36.105 29.269 65.374 65.374 65.374s65.374-29.269 65.374-65.374zM627.595 514.774c0-36.105-29.269-65.374-65.374-65.374s-65.374 29.269-65.374 65.374c0 36.105 29.269 65.374 65.374 65.374s65.374-29.269 65.374-65.374zM627.595 148.676c0-36.105-29.269-65.374-65.374-65.374s-65.374 29.269-65.374 65.374c0 36.105 29.269 65.374 65.374 65.374s65.374-29.269 65.374-65.374z" />
<glyph unicode="&#x25;" glyph-name="RegularDie5" horiz-adv-x="1056" d="M772.491-64h-746.341c-14.435 0-26.15 11.689-26.15 26.15v722.441c0 7.374 3.060 14.042 7.976 18.776l257.497 249.26c4.864 4.733 11.375 7.374 18.174 7.374h746.341c14.461 0 26.15-11.715 26.15-26.15v-722.441c0-7.087-2.85-13.859-7.976-18.802l-257.497-249.26c-4.681-4.55-11.088-7.348-18.174-7.348zM52.3-11.7h694.042v670.141h-694.042v-670.141zM798.641 673.503v-649.639l205.197 198.634v649.639l-205.197-198.634zM90.766 710.74h671.161l203.445 196.96h-671.161l-203.445-196.96zM261.498 514.774c0-36.105-29.269-65.374-65.374-65.374s-65.374 29.269-65.374 65.374c0 36.105 29.269 65.374 65.374 65.374s65.374-29.269 65.374-65.374zM261.498 148.676c0-36.105-29.269-65.374-65.374-65.374s-65.374 29.269-65.374 65.374c0 36.105 29.269 65.374 65.374 65.374s65.374-29.269 65.374-65.374zM444.547 331.725c0-36.105-29.269-65.374-65.374-65.374s-65.374 29.269-65.374 65.374c0 36.105 29.269 65.374 65.374 65.374s65.374-29.269 65.374-65.374zM627.595 514.774c0-36.105-29.269-65.374-65.374-65.374s-65.374 29.269-65.374 65.374c0 36.105 29.269 65.374 65.374 65.374s65.374-29.269 65.374-65.374zM627.595 148.676c0-36.105-29.269-65.374-65.374-65.374s-65.374 29.269-65.374 65.374c0 36.105 29.269 65.374 65.374 65.374s65.374-29.269 65.374-65.374z" />
<glyph unicode="&#x26;" glyph-name="PyramidDieSmall" horiz-adv-x="1056" d="M772.491-64h-746.341c-14.435 0-26.15 11.689-26.15 26.15v722.441c0 7.374 3.060 14.042 7.976 18.776l257.497 249.26c4.864 4.733 11.375 7.374 18.174 7.374h746.341c14.461 0 26.15-11.715 26.15-26.15v-722.441c0-7.087-2.85-13.859-7.976-18.802l-257.497-249.26c-4.681-4.55-11.088-7.348-18.174-7.348zM52.3-11.7h694.042v670.141h-694.042v-670.141zM798.641 673.503v-649.639l205.197 198.634v649.639l-205.197-198.634zM90.766 710.74h671.161l203.445 196.96h-671.161l-203.445-196.96zM378.283 185.914c0-17.154 13.886-31.066 31.066-31.066s31.092 13.886 31.092 31.066-13.912 31.066-31.092 31.066c-17.18 0.026-31.066-13.886-31.066-31.066zM519.806 82.047h-220.914c-8.603 0-16.684 4.132-21.678 11.14s-6.354 15.951-3.583 24.11l102.429 301.481c3.609 10.591 13.441 17.834 24.633 18.070 11.271 0.654 21.364-6.511 25.444-16.893l118.485-301.481c3.243-8.185 2.17-17.494-2.772-24.764-4.968-7.322-13.232-11.663-22.044-11.663zM336.13 135.366h144.53l-77.508 197.274-67.022-197.274z" />
<glyph unicode="&#x27;" glyph-name="SymbolPip" horiz-adv-x="582" d="M1.355 254.422c0.123 1.478 0.246 2.587 0.37 4.065 18.723 194.625 194.625 552.834 262.498 685.253 11.333 21.68 42.128 21.68 53.214 0 67.626-132.789 243.035-491.49 262.498-684.268 0.246-1.971 0.246-3.819 0.616-5.789 0.739-9.362 1.355-18.477 1.355-26.977 0-160.751-130.202-290.829-290.829-290.829s-291.076 130.202-291.076 290.952c0 8.623 0.493 18.231 1.355 27.592z" />
<glyph unicode="&#x28;" glyph-name="PyramidDieLarge" horiz-adv-x="1056" d="M337.385 158.875c0-17.157-13.909-31.066-31.066-31.066s-31.066 13.909-31.066 31.066c0 17.157 13.909 31.066 31.066 31.066s31.066-13.909 31.066-31.066zM416.253 158.875c0-17.157-13.909-31.066-31.066-31.066s-31.066 13.909-31.066 31.066c0 17.157 13.909 31.066 31.066 31.066s31.066-13.909 31.066-31.066zM495.173 158.875c0-17.157-13.909-31.066-31.066-31.066s-31.066 13.909-31.066 31.066c0 17.157 13.909 31.066 31.066 31.066s31.066-13.909 31.066-31.066zM169.817 38.167h427c8.917 0 17.259 4.445 22.201 11.872s5.858 16.867 2.432 25.078l-211.63 506.129c-4.132 9.885-13.781 16.344-24.529 16.37-0.026 0-0.052 0-0.078 0-10.695 0-20.345-6.381-24.529-16.239l-215.396-506.103c-3.504-8.237-2.641-17.703 2.301-25.156 4.916-7.479 13.284-11.95 22.227-11.95zM384.977 502.352l171.778-410.84h-346.589l174.811 410.84zM1029.988 960h-746.341c-6.799 0-13.31-2.641-18.174-7.374l-257.497-249.26c-4.916-4.759-7.976-11.401-7.976-18.776v-722.441c0-14.461 11.715-26.15 26.15-26.15h746.341c7.087 0 13.493 2.798 18.174 7.348l257.497 249.26c5.099 4.916 7.976 11.715 7.976 18.802v722.441c0 14.435-11.715 26.15-26.15 26.15zM746.341-11.7h-694.042v670.141h694.042v-670.141zM761.927 710.74h-671.161l203.445 196.96h671.161l-203.445-196.96zM1003.839 222.497l-205.197-198.634v649.639l205.197 198.634v-649.639z" />
<glyph unicode="&#x29;" glyph-name="PyramidDieSmallMedium" horiz-adv-x="1056" d="M772.491-64h-746.341c-14.435 0-26.15 11.689-26.15 26.15v722.441c0 7.374 3.060 14.042 7.976 18.776l257.497 249.26c4.864 4.733 11.375 7.374 18.174 7.374h746.341c14.461 0 26.15-11.715 26.15-26.15v-722.441c0-7.087-2.85-13.859-7.976-18.802l-257.497-249.26c-4.681-4.55-11.088-7.348-18.174-7.348zM52.3-11.7h694.042v670.141h-694.042v-670.141zM798.641 673.503v-649.639l205.197 198.634v649.639l-205.197-198.634zM90.766 710.74h671.161l203.445 196.96h-671.161l-203.445-196.96zM234.145 472.071c0 17.154 13.886 31.066 31.066 31.066s31.092-13.886 31.092-31.066-13.912-31.066-31.092-31.066c-17.18-0.026-31.066 13.912-31.066 31.066zM257.183 221.137c-0.209 0-0.418 0-0.628 0-11.192 0.261-21.024 7.479-24.633 18.070l-102.429 301.507c-2.772 8.159-1.438 17.128 3.583 24.11 4.995 6.982 13.075 11.14 21.678 11.14h220.914c8.812 0 17.076-4.367 22.044-11.663s6.014-16.553 2.772-24.764l-118.485-301.481c-4.001-10.225-13.886-16.919-24.816-16.919zM191.992 522.618l67.022-197.248 77.508 197.248h-144.53zM474.148 159.947c0-17.154-13.912-31.066-31.066-31.066s-31.066 13.912-31.066 31.066 13.912 31.066 31.066 31.066 31.066-13.886 31.066-31.066zM647.914 53.779h-316.805c-8.682 0-16.84 4.21-21.809 11.349-4.995 7.087-6.224 16.187-3.269 24.372l153.63 425.928c3.792 10.486 13.676 17.494 24.816 17.625 10.826 0.078 21.181-6.72 25.182-17.128l163.175-425.902c3.138-8.185 2.040-17.442-2.903-24.659-4.995-7.27-13.232-11.584-22.018-11.584zM369.078 107.098h240.055l-123.636 322.741-116.419-322.741zM551.682 159.947c0-17.154-13.912-31.066-31.066-31.066-17.18 0-31.066 13.912-31.066 31.066s13.886 31.066 31.066 31.066c17.128 0 31.066-13.886 31.066-31.066z" />
<glyph unicode="&#x2a;" glyph-name="PyramidDieMedium" horiz-adv-x="1056" d="M385.945 184.371c0-17.157-13.909-31.066-31.066-31.066s-31.066 13.909-31.066 31.066c0 17.157 13.909 31.066 31.066 31.066s31.066-13.909 31.066-31.066zM242.932 78.203h316.779c8.786 0 16.997 4.315 21.992 11.532 4.942 7.217 6.041 16.474 2.903 24.659l-163.149 425.902c-3.949 10.329-13.859 17.128-24.921 17.128-0.078 0-0.183 0-0.261 0-11.14-0.105-21.051-7.139-24.816-17.625l-153.604-425.876c-2.955-8.185-1.726-17.259 3.269-24.372 4.968-7.139 13.127-11.349 21.809-11.349zM397.32 454.263l123.636-322.715h-240.029l116.393 322.715zM463.453 184.371c0-17.157-13.909-31.066-31.066-31.066s-31.066 13.909-31.066 31.066c0 17.157 13.909 31.066 31.066 31.066s31.066-13.909 31.066-31.066zM1029.988 960h-746.341c-6.799 0-13.31-2.641-18.174-7.374l-257.497-249.26c-4.916-4.759-7.976-11.401-7.976-18.776v-722.441c0-14.461 11.715-26.15 26.15-26.15h746.341c7.087 0 13.493 2.798 18.174 7.348l257.497 249.26c5.099 4.916 7.976 11.715 7.976 18.802v722.441c0 14.435-11.715 26.15-26.15 26.15zM746.341-11.7h-694.042v670.141h694.042v-670.141zM761.927 710.74h-671.161l203.445 196.96h671.161l-203.445-196.96zM1003.839 222.497l-205.197-198.634v649.639l205.197 198.634v-649.639z" />
<glyph unicode="&#x2b;" glyph-name="PyramidDieMediumLarge" horiz-adv-x="1056" d="M446.665 129.927c0-17.128-13.886-31.066-31.066-31.066s-31.092 13.912-31.092 31.066c0 17.154 13.912 31.066 31.092 31.066s31.066-13.912 31.066-31.066zM525.585 129.927c0-17.128-13.912-31.066-31.066-31.066s-31.066 13.912-31.066 31.066c0 17.154 13.912 31.066 31.066 31.066s31.066-13.912 31.066-31.066zM604.453 129.927c0-17.128-13.886-31.066-31.066-31.066s-31.092 13.912-31.092 31.066c0 17.154 13.912 31.066 31.092 31.066s31.066-13.912 31.066-31.066zM706.123 9.246h-427c-8.943 0-17.311 4.472-22.253 11.95-4.942 7.453-5.805 16.893-2.301 25.156l215.37 506.129c4.184 9.832 13.859 16.239 24.529 16.239 0.026 0 0.052 0 0.078 0 10.721-0.026 20.371-6.485 24.529-16.37l211.63-506.129c3.426-8.211 2.537-17.651-2.432-25.078-4.89-7.453-13.232-11.898-22.149-11.898zM319.446 62.565h346.589l-171.778 410.84-174.811-410.84zM772.491-64h-746.341c-14.435 0-26.15 11.689-26.15 26.15v722.441c0 7.374 3.060 14.042 7.976 18.776l257.497 249.26c4.864 4.733 11.375 7.374 18.174 7.374h746.341c14.461 0 26.15-11.715 26.15-26.15v-722.441c0-7.087-2.85-13.859-7.976-18.802l-257.497-249.26c-4.681-4.55-11.088-7.348-18.174-7.348zM52.3-11.7h694.042v670.141h-694.042v-670.141zM798.641 673.503v-649.639l205.197 198.634v649.639l-205.197-198.634zM90.766 710.74h671.161l203.445 196.96h-671.161l-203.445-196.96zM249.783 513.597c0 17.154-13.912 31.066-31.066 31.066s-31.066-13.912-31.066-31.066 13.912-31.066 31.066-31.066 31.066 13.886 31.066 31.066zM260.374 140.544c-0.078 0-0.183 0-0.261 0-11.14 0.105-21.051 7.113-24.816 17.625l-153.63 425.902c-2.955 8.185-1.726 17.285 3.269 24.398s13.127 11.349 21.809 11.349h316.805c8.786 0 16.997-4.341 21.966-11.558 4.968-7.243 6.067-16.448 2.929-24.659l-163.175-425.928c-3.949-10.329-13.859-17.128-24.895-17.128zM144.713 566.446l116.419-322.715 123.662 322.715h-240.081zM327.317 513.597c0 17.154-13.912 31.066-31.066 31.066-17.18 0-31.066-13.912-31.066-31.066s13.886-31.066 31.066-31.066c17.128 0 31.066 13.886 31.066 31.066z" />
<glyph unicode="&#x2d;" glyph-name="TreehouseHOP" d="M516.898 503.526l-23.162-23.162 43.304-43.349 23.117 23.162c21.469 21.469 24.856 39.733 10.208 54.381-14.511 14.694-31.585 10.849-53.466-11.032zM356.683 347.156c-13.595-13.595-20.004-28.884-19.134-46.325 1.053-17.257 8.057-32.272 21.286-45.455 13.321-13.366 28.427-20.37 45.638-21.423 17.166-1.053 32.501 5.264 46.279 19.088 13.412 13.366 19.775 28.656 18.493 45.638-1.053 17.257-8.102 32.272-21.469 45.684-12.954 12.954-28.244 19.775-45.684 20.553-17.349 0.961-32.409-4.761-45.409-17.761zM888.962 960h-564.596c-36.117 0-70.037-14.053-95.488-39.55l-205.395-205.487c-14.511-14.511-23.483-34.515-23.483-56.67v-642.186c0-44.265 35.888-80.153 80.107-80.153h642.186c22.155 0 42.297 9.018 56.762 23.62l205.349 205.395c25.589 25.497 39.596 59.371 39.596 95.442v564.596c0.046 74.431-60.561 134.992-135.038 134.992zM597.6 376.499c10.483-10.391 10.025-23.574 0.916-32.684s-22.064-9.338-32.455 1.053l-112.883 112.791c-12.68 12.726-12.68 27.603 0.046 40.328l40.099 40.099c17.669 17.624 36.117 27.191 55.663 28.884s36.987-5.081 52.276-20.37c15.472-15.518 22.705-33.37 21.469-53.695-1.236-20.416-10.62-39.092-27.877-56.304l-28.61-28.656 31.356-31.448zM479.911 376.453c22.247-22.293 33.096-47.973 32.913-77.544-0.458-29.251-11.49-54.702-33.187-76.399-21.469-21.469-46.92-32.501-75.987-32.775-29.342 0.092-55.022 10.895-77.315 33.187-22.064 22.064-32.913 47.835-32.73 76.903 0.046 29.342 11.078 54.793 32.546 76.262 21.652 21.698 47.149 32.684 76.628 32.913 29.296 0.412 55.022-10.483 77.132-32.546zM189.236 117.729l62.529 62.438-42.754 42.709c-10.391 10.437-10.162 23.391-1.007 32.501s22.018 9.338 32.501-1.053l117.414-117.46c10.437-10.391 10.208-23.346 1.053-32.455s-22.11-9.338-32.501 1.053l-45.867 45.821-62.438-62.484 45.867-45.867c10.437-10.391 10.254-23.346 1.053-32.455-9.109-9.109-22.11-9.338-32.501 1.053l-117.46 117.414c-10.391 10.437-10.162 23.391-1.007 32.501s22.018 9.338 32.501-1.053l13.641-13.687 28.976-28.976zM696.75 53.094v579.153h-552.191c-17.074 0-30.899 13.824-30.899 30.899s13.824 30.899 30.899 30.899h570.227l164.334 164.838c12.085 12.131 31.631 12.085 43.716 0.046s12.085-31.585 0-43.716l-164.334-164.838v-597.234c0-17.074-13.87-30.899-30.944-30.899s-30.807 13.778-30.807 30.853z" />
<glyph unicode="&#x2e;" glyph-name="ComponentCoin" d="M512 859.777c-227.044 0-411.777-184.733-411.777-411.777 0-147.173 77.814-276.127 194.235-348.965l-0.374-0.599c2.095-1.122 4.153-1.945 6.248-2.955 61.952-37.336 134.191-59.221 211.631-59.221 78.001 0 150.727 22.184 212.978 60.006 1.459 0.786 2.993 1.309 4.527 2.17l-0.224 0.486c116.534 72.763 194.497 201.867 194.497 349.115 0.037 227.044-184.658 411.74-411.74 411.74zM419.559 99.147c41.413 24.953 73.998 74.746 92.217 136.174 18.294-61.465 50.916-111.334 92.329-136.249-29.479-7.781-60.231-12.345-92.142-12.345-31.986 0-62.85 4.601-92.404 12.42zM435.87 380.137l76.093 178.934 76.13-178.934h-152.223zM702.195 141.421c-25.439-12.832-49.045-12.832-71.753 0.711-46.239 27.497-79.123 103.066-83.5 187.539h79.422c8.492 0 16.386 4.227 21.062 11.335 4.676 7.033 5.462 16.012 2.207 23.83l-114.364 268.72c-7.931 18.63-38.533 18.63-46.464 0l-114.326-268.757c-3.33-7.819-2.507-16.76 2.17-23.83s12.57-11.335 21.062-11.335h78.936c-4.414-84.51-37.298-160.005-83.5-187.539-22.371-13.281-45.529-13.393-70.594-1.16-90.646 56.153-154.655 150.989-168.647 261.462h87.241c13.954 0 25.252 11.298 25.252 25.252s-11.298 25.252-25.252 25.252h-90.159c0.262 21.249 2.432 42.049 6.248 62.288h192.552c13.954 0 25.252 11.298 25.252 25.252s-11.335 25.252-25.252 25.252h-179.009c48.97 141.524 183.237 243.617 341.221 243.617 89.71 0 171.714-33.071 234.975-87.391h-157.76c-13.954 0-25.252-11.298-25.252-25.252s11.298-25.252 25.252-25.252h190.494c4.751 0 8.904 1.646 12.72 3.891 13.58-16.685 25.738-34.605 36.176-53.609h-85.333c-13.954 0-25.215-11.298-25.215-25.252s11.261-25.252 25.215-25.252h99.512c2.768 0 5.35 0.786 7.819 1.571 14.403-38.944 22.708-80.881 22.708-124.801 0-48.035-9.652-93.863-26.749-135.837h-142.197c-13.954 0-25.215-11.298-25.215-25.252s11.261-25.252 25.215-25.252h116.534c-29.517-48.783-70.219-90.010-118.703-120.2zM512 960c-282.337 0-512-229.7-512-512 0-282.337 229.663-512.037 512-512.037s512.075 229.7 512.075 512.037c-0.037 282.3-229.775 512-512.075 512zM512-13.496c-254.466 0-461.496 207.030-461.496 461.533 0 254.429 207.030 461.458 461.496 461.458 254.504 0 461.571-207.030 461.571-461.496-0.037-254.466-207.104-461.496-461.571-461.496z" />
<glyph unicode="&#x2f;" glyph-name="ComponentShortStack" horiz-adv-x="561" d="M519.224-64h-477.723c-13.342 0-25.884 6.394-33.693 17.215s-9.96 24.593-5.718 37.32l113.99 344.121h-15.678c-11.19 0-21.765 4.427-29.45 12.174-1.537 1.537-3.074 3.32-4.365 5.165-7.808 10.821-9.899 24.716-5.718 37.382l180.022 542.895c3.013 9.038 8.915 16.539 16.477 21.519 20.781 13.895 54.228 3.566 62.528-21.458l180.268-543.018c4.181-12.604 2.029-26.561-5.779-37.32-1.291-1.844-2.767-3.566-4.427-5.165-7.685-7.747-18.26-12.174-29.327-12.174h-16.047l113.99-344.121c4.181-12.666 2.090-26.561-5.718-37.32s-20.289-17.215-33.631-17.215zM428.598 18.941h33.016l-104.706 315.715h-153.093l-104.583-315.715h329.365zM176.764 417.658h206.522c0.984 0.061 2.090 0.123 3.136 0.123h16.662l-122.659 369.452-122.536-369.452h15.74c1.045 0 2.029-0.061 3.136-0.123z" />
<glyph unicode="&#x30;" glyph-name="TreehouseSWAP" d="M544.18 555.023l-23.162-23.117 43.395-43.349 23.071 23.117c21.469 21.469 24.856 39.733 10.208 54.381-14.694 14.648-31.677 10.849-53.512-11.032zM888.962 960h-564.596c-36.117 0-70.037-14.053-95.488-39.55l-205.395-205.487c-14.511-14.511-23.483-34.515-23.483-56.67v-642.186c0-44.265 35.888-80.153 80.107-80.153h642.186c22.155 0 42.297 9.018 56.762 23.62l205.349 205.395c25.589 25.497 39.596 59.371 39.596 95.442v564.596c0.046 74.431-60.561 134.992-135.038 134.992zM295.527 99.144l-143.14 82.808c-12.726 7.69-15.472 20.599-8.652 32.089 3.845 6.546 9.796 10.025 16.525 10.62 5.081 0.504 10.528-0.458 16.159-3.845l102.812-62.85-59.279 99.608c-8.514 14.053-7.004 26.55 4.028 37.536 10.849 10.849 23.62 12.176 37.582 3.662l99.425-59.096-62.85 102.812c-7.873 12.954-4.715 25.909 6.775 32.73 11.444 6.775 24.398 4.028 32.043-8.743l82.991-143.323c8.057-14.419 6.775-26.779-3.57-37.216-10.803-10.803-23.437-11.856-37.353-3.342l-103.727 61.156 60.973-104.277c8.514-14.007 7.233-26.321-3.57-37.216-2.609-2.609-5.356-4.623-8.24-6.042-6.729-3.342-14.236-3.067-22.247 0-2.197 0.87-4.394 1.602-6.683 2.93zM489.707 281.88c5.951-13.183 1.511-24.398-9.292-30.166-11.307-5.722-23.62-2.335-29.342 10.62l-70.54 160.993c-5.951 13.138-3.845 24.627 5.951 34.377 9.979 9.979 21.469 12.131 34.423 6.363l161.451-70.494c12.863-5.722 16.25-18.081 10.62-29.342-6.454-11.902-16.342-15.060-30.212-9.338l-26.962 11.261-57.586-57.54 11.49-26.733zM622.090 488.145l-28.61-28.656 31.494-31.448c10.391-10.391 9.933-23.62 0.824-32.73s-22.064-9.338-32.455 1.053l-112.883 112.791c-12.68 12.726-12.68 27.603 0.046 40.328l40.054 40.099c17.669 17.624 36.163 27.236 55.663 28.884 19.592 1.694 37.032-5.081 52.322-20.37 15.472-15.518 22.705-33.37 21.469-53.695-0.641-10.116-3.296-19.775-7.873-29.022-4.669-9.476-11.398-18.539-20.050-27.236zM696.75 53.094v579.153h-552.191c-17.074 0-30.899 13.824-30.899 30.899s13.824 30.899 30.899 30.899h570.227l164.334 164.838c12.085 12.131 31.631 12.085 43.716 0.046s12.085-31.585 0-43.716l-164.334-164.838v-597.234c0-17.074-13.87-30.899-30.944-30.899s-30.807 13.778-30.807 30.853zM150.876-47.246c-8.514-1.236-15.426 1.556-20.141 6.317-3.296 3.342-5.63 7.553-5.951 12.588-1.968 12.131 4.806 22.293 19.5 24.627 20.37 2.151 36.987 9.796 49.529 22.293 16.159 16.205 19.134 32.73 9.796 42.022-7.919 7.919-20.187 6.18-36.62-5.035l-19.134-13.183c-34.377-23.803-67.107-26.733-91.734-2.151-13.824 13.87-19.363 29.983-16.571 48.843 2.609 19.134 11.444 36.117 26.55 51.177 18.081 18.081 38.451 29.159 60.744 32.73 14.419 2.563 25.314-6.637 26.138-18.905 1.877-12.131-4.898-21.881-19.592-24.627-15.93-2.335-29.296-8.926-40.145-19.775-13.366-13.412-15.93-27.786-7.141-36.529 8.057-8.102 20.324-6.409 37.124 5.264l14.648 10.437c7.782 5.63 15.106 9.384 22.338 12.863 26.458 12.68 49.392 10.711 68.892-5.493 1.739-1.465 3.708-2.060 5.402-3.754 13.595-13.595 19.043-30.12 16.525-49.255s-12.497-37.582-30.395-55.434c-13.687-13.687-29.388-23.3-47.012-29.342-7.233-2.472-14.786-4.486-22.75-5.676zM460.64 347.065l36.941 36.941-67.153 30.166z" />
<glyph unicode="&#x31;" glyph-name="LightningPyramid" horiz-adv-x="1017" d="M883.243 956.726h-560.935c-35.246 0-69.81-14.326-94.914-39.339l-204.063-204.154c-14.417-14.462-23.331-34.336-23.331-56.303v-638.022c0-43.978 35.655-79.588 79.633-79.588h637.976c21.966 0 41.886 8.868 56.257 23.331l204.291 204.2c25.286 25.377 39.203 59.031 39.203 94.823v560.844c0.045 73.994-60.123 134.208-134.117 134.208zM604.231 98.541c0.273-4.457-0.364-8.868-2.911-12.643-3.775-5.594-10.096-8.914-16.827-8.914h-327.174c-6.731 0-13.052 3.32-16.782 8.914-2.592 3.775-3.229 8.232-2.956 12.643 0.136 2.092 0.045 4.23 0.864 6.276l163.587 413.357c3.047 7.777 10.597 12.87 18.965 12.87s15.827-5.094 18.919-12.87l163.542-413.357c0.728-2.092 0.637-4.184 0.773-6.276zM196.377 518.128c3.093 7.777 10.551 12.87 18.919 12.87s15.872-5.094 18.919-12.87l54.529-137.71c2.501-6.322 1.683-13.416-2.138-18.919-3.729-5.594-10.096-8.914-16.782-8.914h-109.013c-0.546 0-1.001 0.318-1.546 0.409-6.185 0.455-11.824 3.365-15.281 8.55-3.82 5.503-4.639 12.598-2.092 18.919l54.484 137.664zM692.232 55.655v575.397h-548.61c-16.964 0-30.698 13.735-30.698 30.698s13.735 30.698 30.698 30.698h566.529l163.314 163.724c12.006 12.052 31.38 12.006 43.387 0.045s12.052-31.38 0.045-43.432l-163.314-163.724v-593.362c0-16.964-13.735-30.698-30.698-30.698s-30.653 13.689-30.653 30.653z" />
<glyph unicode="&#x32;" glyph-name="LightningRecycle" horiz-adv-x="1017" d="M883.243 956.68h-560.935c-35.746 0-69.401-13.871-94.914-39.248l-204.063-204.154c-14.417-14.462-23.331-34.336-23.331-56.303v-638.022c0-43.978 35.655-79.633 79.633-79.633h637.976c21.966 0 41.886 8.914 56.257 23.376l204.336 204.245c25.286 25.377 39.157 59.031 39.157 94.778v560.89c0.045 73.903-60.123 134.071-134.117 134.071zM104.829 356.178c2.956 7.095 9.96 11.779 17.691 11.779l46.57 0.045c27.287 83.545 106.056 142.121 195.695 142.212h0.091c33.472 0 66.717-8.186 96.097-23.694 9.050-4.775 15.736-12.78 18.737-22.603 3.002-9.778 2.047-20.193-2.729-29.288s-12.825-15.736-22.603-18.783c-9.778-3.002-20.193-2.047-29.334 2.774-18.646 9.869-38.884 14.826-60.123 14.826h-0.182c-47.161 0-89.639-26.014-112.105-65.398l52.619 0.045c7.777 0 14.69-4.639 17.646-11.779s1.319-15.326-4.093-20.829l-91.367-91.458c-3.502-3.547-8.414-5.594-13.507-5.594s-9.914 2.001-13.507 5.594l-91.412 91.276c-5.548 5.503-7.14 13.689-4.184 20.875zM251.77 131.832c-17.737 11.643-22.648 35.473-10.96 53.21 7.322 11.142 19.647 17.282 32.108 17.282 7.231 0 14.553-2.047 21.011-6.367 21.148-13.826 45.661-21.148 70.992-21.148h0.045c52.255 0.045 97.234 31.289 117.563 75.995l-54.756-0.045c-7.686 0-14.644 4.684-17.691 11.779-2.911 7.14-1.273 15.372 4.184 20.829l91.321 91.503c7.504 7.459 19.556 7.459 27.014 0l91.503-91.321c5.412-5.457 7.095-13.735 4.093-20.784-2.865-7.14-9.869-11.87-17.6-11.87l-46.798-0.045c-9.232-34.518-27.196-66.263-53.21-92.231-37.747-37.929-87.683-58.804-140.893-60.032-1.592-0.091-3.138-0.5-4.73-0.5h-0.091c-2.183 0-4.32 0.409-6.503 0.5-38.020 1.137-74.858 12.325-106.602 33.245zM692.232 55.7v575.397h-548.61c-16.964 0-30.698 13.735-30.698 30.698s13.735 30.698 30.698 30.698h566.529l163.314 163.769c12.006 12.052 31.38 12.006 43.387 0.045s12.052-31.38 0.045-43.432l-163.314-163.769v-593.362c0-16.918-13.735-30.698-30.698-30.698s-30.653 13.735-30.653 30.653z" />
<glyph unicode="&#x33;" glyph-name="LightningArrow" horiz-adv-x="1017" d="M883.243 956.726h-560.935c-35.837 0-69.537-13.962-94.914-39.339l-204.018-204.154c-14.462-14.417-23.376-34.291-23.376-56.303v-638.067c0-43.978 35.655-79.588 79.633-79.588h637.976c21.966 0 41.886 8.868 56.257 23.331l204.2 204.154c25.377 25.332 39.294 59.031 39.294 94.869v560.935c0.045 73.948-60.123 134.162-134.117 134.162zM394.665 377.235v83.817c0 7.868 4.73 15.008 12.052 18.010 7.231 2.956 15.645 1.319 21.239-4.275l163.86-163.86c3.638-3.638 5.685-8.595 5.685-13.78s-2.047-10.142-5.685-13.78l-163.905-163.815c-3.729-3.729-8.732-5.685-13.826-5.685-2.501 0-5.003 0.455-7.413 1.501-7.277 3.002-12.052 10.142-12.052 17.964v83.863h-251.543c-10.733 0-19.465 8.686-19.465 19.556v121.064c0 10.733 8.686 19.465 19.465 19.465h251.589zM692.232 55.655v575.397h-548.61c-16.964 0-30.698 13.735-30.698 30.698s13.735 30.698 30.698 30.698h566.529l163.314 163.769c12.006 12.052 31.38 12.006 43.387 0.045s12.052-31.38 0.045-43.432l-163.314-163.769v-593.407c0-16.918-13.735-30.653-30.698-30.653s-30.653 13.735-30.653 30.653z" />
<glyph unicode="&#x34;" glyph-name="LightningBolt" horiz-adv-x="1017" d="M878.104 953.997h-557.706c-35.155 0-69.583-14.326-94.55-39.385l-202.835-204.564c-14.235-14.326-23.012-34.018-23.012-55.757v-639.113c0-43.705 35.473-79.133 79.179-79.133h634.247c22.012 0 42.022 9.050 56.348 23.603l202.744 204.336c24.74 24.786 38.93 59.259 38.93 94.414v561.754c0 73.812-59.805 133.844-133.344 133.844zM279.513 229.111c-7.595 0-14.371 4.73-17.327 12.052-2.911 7.277-1.319 15.736 3.957 21.33l78.633 83.044h-65.262c-7.595 0-14.371 4.73-17.327 12.006-2.911 7.277-1.319 15.736 3.957 21.33l127.204 134.071c3.547 3.638 8.368 5.685 13.325 5.685h108.694c7.549 0 14.371-4.73 17.282-12.052 2.911-7.231 1.319-15.69-3.957-21.284l-102.191-107.648h40.976c7.504 0 14.326-4.73 17.327-12.006 2.865-7.277 1.319-15.736-4.002-21.33l-71.993-75.995h34.109c8.141 0 15.372-5.548 17.873-13.644s-0.364-16.918-6.958-21.83l-208.748-155.537c-3.365-2.501-7.14-3.638-10.96-3.638-5.23 0-10.278 2.228-13.962 6.549-3.456 4.048-4.684 9.050-4.366 14.098 0.227 4.366 1.455 8.595 4.411 12.097l106.011 122.702h-46.707zM696.507 36.735v600.32h-569.076c-16.873 0-30.516 13.644-30.516 30.516s13.644 30.516 30.516 30.516h586.858l169.408 170.818c11.87 11.961 31.244 12.052 43.159 0.182 12.006-11.87 12.097-31.198 0.182-43.159l-169.499-170.955v-618.284c0-16.782-13.689-30.471-30.516-30.471-16.873 0.045-30.516 13.735-30.516 30.516z" />
<glyph unicode="&#x35;" glyph-name="LightningCircle" horiz-adv-x="1017" d="M883.198 960h-560.89c-35.246 0-69.855-14.371-95.096-39.612l-204.063-205.791c-14.326-14.371-23.149-34.2-23.149-56.075v-642.888c0-43.978 35.655-79.633 79.633-79.633h637.976c22.103 0 42.204 9.096 56.667 23.694l203.927 205.519c24.877 25.013 39.157 59.623 39.157 95.005v565.165c0.045 74.221-60.168 134.617-134.162 134.617zM396.984 95.267v419.087c0 6.276 2.865 12.188 7.959 15.963 5.003 3.82 11.506 5.048 17.509 3.32 103.51-29.243 175.73-124.566 175.73-232.033 0-85.909-46.707-163.587-118.245-206.337-17.873-10.642-36.883-19.783-57.531-25.605-1.774-0.5-3.638-0.773-5.457-0.773-4.275 0-8.55 1.364-12.052 4.093-5.048 3.775-7.959 9.687-7.959 15.963v6.322zM293.065 534.137c6.003 1.637 12.461 0.409 17.464-3.411 4.957-3.775 7.913-9.687 7.913-15.918v-426.227c0-6.322-2.911-12.188-7.913-16.009-3.547-2.683-7.822-4.093-12.143-4.093-1.819 0-3.593 0.227-5.321 0.773-21.33 5.821-40.885 15.053-59.213 26.014-29.789 17.782-55.12 41.431-74.631 69.492-27.378 39.385-43.614 86.592-43.614 136.891s16.236 97.506 43.614 136.891c31.517 45.388 77.951 80.27 133.844 95.596zM700.555 37.372v603.822h-572.396c-16.964 0-30.698 13.735-30.698 30.698s13.735 30.698 30.698 30.698h590.314l170.363 171.773c11.915 12.006 31.335 12.097 43.432 0.182 12.006-11.961 12.097-31.38 0.182-43.432l-170.591-171.819v-621.877c0-16.964-13.689-30.698-30.653-30.698s-30.653 13.689-30.653 30.653z" />
<glyph unicode="&#x36;" glyph-name="LightningAtom" horiz-adv-x="1017" d="M883.471 956.68h-561.39c-35.792-0.045-69.401-14.007-94.641-39.294l-204.109-204.154c-14.417-14.417-23.331-34.291-23.331-56.303v-638.067c0-43.796 35.382-79.315 79.179-79.588h638.886c21.83 0.182 41.659 9.050 55.939 23.467l204.063 204.018c25.286 25.241 39.112 58.713 39.248 94.414v561.845c-0.182 73.676-60.123 133.526-133.844 133.662zM135.481 299.83c8.686 0.364 16.6-2.228 23.74-6.049 11.37-6.14 20.238-16.236 23.422-29.152l75.131 3.456c-0.227 2.592-0.364 5.048-0.364 7.549 0 21.693 7.459 41.568 19.92 57.394l-80.998 79.952c-11.597-6.231-26.287-4.639-36.065 5.185-0.455 0.455-0.637 1.091-1.046 1.592-10.187 11.552-10.187 28.606 0 40.158 0.409 0.5 0.591 1.091 1.046 1.592 11.961 12.006 31.335 12.006 43.296 0 9.687-9.687 11.415-24.104 5.457-35.701l80.816-79.77c14.098 12.188 31.835 20.147 51.346 22.012v99.735c-21.239 4.23-37.293 22.967-37.293 45.479 0 25.605 20.738 46.343 46.343 46.343s46.343-20.738 46.343-46.343c0-22.512-16.054-41.249-37.338-45.479v-99.735c26.014-2.501 48.844-15.827 64.080-35.337l75.995 79.315c-5.776 8.186-8.914 18.373-8.414 29.243 1.501 25.559 23.467 45.024 49.026 43.569s45.069-23.422 43.569-48.935c-1.501-25.559-23.422-45.115-48.981-43.569-8.186 0.455-15.736 3.002-22.194 7.186l-79.088-82.498c6.049-12.097 9.551-25.741 9.732-40.158l64.398 3.002c3.184 12.689 14.417 22.285 28.151 23.012 16.918 0.819 31.244-12.279 32.017-29.243 0.819-16.873-12.279-31.198-29.197-31.972-13.689-0.637-25.741 7.913-30.198 20.147l-66.763-3.093c-3.729-20.056-13.962-37.929-28.424-51.255l92.14-75.768c8.050 6.594 18.237 10.46 29.379 10.46 24.649 0 44.342-19.374 45.843-43.614 0.045-0.955 0.546-1.774 0.546-2.774 0-25.605-20.738-46.388-46.388-46.388-25.605 0-46.343 20.784-46.343 46.388 0 0.955 0.318 1.774 0.318 2.774 0.455 6.822 2.047 13.416 5.185 19.192l-95.551 78.542c-11.552-6.913-24.695-11.552-38.839-12.87v-97.325c12.507-3.911 21.602-15.554 21.602-29.334 0-16.873-13.689-30.562-30.607-30.562s-30.653 13.689-30.653 30.562c0 13.78 9.096 25.423 21.602 29.334v97.325c-16.691 1.592-32.063 7.731-45.024 16.964l-68.991-65.217c5.912-12.097 3.502-27.014-7.004-36.338-0.136-0.091-0.364-0.182-0.546-0.273-11.461-9.778-27.697-9.323-39.021 0-1.182 0.955-2.638 1.501-3.684 2.774-11.233 12.598-10.142 31.972 2.501 43.25 10.051 8.959 24.24 9.96 35.337 3.638l67.809 64.125c-9.914 10.551-17.418 23.558-21.511 37.929l-77.496-3.638c-2.183-14.644-11.552-26.742-24.286-33.563-5.867-3.093-12.279-5.503-19.419-5.867-25.559-1.228-47.252 18.555-48.48 44.16-1.228 25.559 18.555 47.252 44.114 48.48zM692.232 55.655v575.397h-548.565c-16.964 0-30.698 13.735-30.698 30.698s13.735 30.698 30.698 30.698h566.529l163.314 163.769c12.006 12.052 31.38 12.006 43.387 0.045s12.052-31.38 0.045-43.432l-163.36-163.769v-593.407c0-16.964-13.735-30.653-30.698-30.653s-30.653 13.689-30.653 30.653z" />
<glyph unicode="&#x37;" glyph-name="TreehouseTIP" d="M465.812 433.489l-23.162-23.162 43.349-43.304 23.162 23.162c21.469 21.423 24.856 39.687 10.208 54.381-14.648 14.602-31.631 10.803-53.557-11.078zM889.237 960h-565.054c-36.071-0.046-69.899-14.145-95.305-39.55l-205.395-205.487c-14.511-14.511-23.483-34.515-23.483-56.67v-642.186c0-44.128 35.613-79.833 79.695-80.107h643.056c21.972 0.137 41.93 9.064 56.304 23.574l205.349 205.395c25.497 25.405 39.413 59.096 39.504 94.984v565.512c-0.137 74.156-60.47 134.397-134.672 134.534zM380.395 140.296c10.437-10.391 9.979-23.574 0.87-32.684s-22.064-9.338-32.455 1.053l-103.911 103.865-29.113-29.068c-9.567-9.567-21.698-9.384-29.937-1.053-8.514 8.514-8.697 20.553 0.87 30.12l90.086 90.041c9.521 9.567 21.698 9.384 30.166 0.916 8.24-8.285 8.468-20.37-1.053-29.937l-29.342-29.342 103.819-103.911zM546.561 306.508c10.345-10.437 9.979-23.62 0.916-32.73-9.155-9.109-22.11-9.292-32.546 1.053l-112.745 112.791c-12.771 12.726-12.771 27.603 0 40.328l40.145 40.099c17.624 17.624 36.071 27.191 55.617 28.884s36.941-5.081 52.184-20.416c15.564-15.518 22.796-33.325 21.469-53.695-1.236-20.416-10.528-39.047-27.786-56.304l-28.701-28.656 31.448-31.356zM480.506 240.408c10.391-10.437 10.208-23.391 1.053-32.546-9.109-9.109-22.064-9.292-32.501 1.053l-117.414 117.46c-10.483 10.437-10.208 23.346-1.053 32.455 9.109 9.155 22.064 9.384 32.455-1.007l117.46-117.414zM696.75 53.094v579.153h-552.191c-17.074 0-30.899 13.824-30.899 30.899s13.824 30.899 30.899 30.899h570.227l164.334 164.838c12.085 12.131 31.631 12.085 43.716 0.046s12.085-31.585 0-43.716l-164.334-164.838v-597.234c0-17.074-13.87-30.899-30.944-30.899s-30.807 13.778-30.807 30.853z" />
<glyph unicode="&#x38;" glyph-name="TreehouseDIG" d="M888.962 960h-564.596c-36.117 0-70.037-14.053-95.488-39.55l-205.395-205.487c-14.511-14.511-23.483-34.515-23.483-56.67v-642.186c0-44.265 35.888-80.153 80.107-80.153h642.186c22.155 0 42.297 9.018 56.762 23.62l205.349 205.395c25.589 25.497 39.596 59.371 39.596 95.442v564.596c0.046 74.431-60.561 134.992-135.038 134.992zM476.066 360.431c14.282-14.282 30.395-21.469 47.835-21.469s32.455 6.592 45.455 19.546c12.176 12.131 19.134 25.039 21.469 39.275l-18.081 18.036-18.493-18.493c-9.338-9.338-21.652-8.88-29.479-1.053-8.285 8.331-8.514 20.416 0.87 29.754l29.342 29.342c12.68 12.726 27.557 12.726 40.328 0l29.342-29.296c7.233-7.233 10.391-14.648 9.567-22.705-2.792-28.701-14.74-53.786-35.751-74.797-21.835-21.881-47.561-33.096-76.857-33.965-29.113-0.641-54.976 10.391-77.269 32.73-23.162 23.162-34.423 49.255-33.508 78.139 0.641 29.113 12.085 54.565 34.332 76.903 19.363 19.317 42.114 30.166 68.023 32.272 14.374 0.87 24.398-7.828 24.581-19.958 1.053-12.497-6.592-21.881-21.652-23.346-16.342-1.053-30.578-7.645-42.938-19.958-11.719-11.673-17.624-26.138-18.081-43.533-0.504-17.029 6.546-32.958 20.965-47.424zM474.189 240.408c10.391-10.391 10.208-23.391 1.053-32.501-9.155-9.155-22.11-9.338-32.546 1.053l-117.414 117.414c-10.437 10.483-10.208 23.346-1.007 32.501 9.109 9.109 22.018 9.338 32.455-1.007l117.46-117.46zM169.324 201.498l28.884 28.884c21.286 21.24 45.455 34.835 72.646 39.916 27.236 5.539 57.998-4.486 83.678-30.12 26.092-26.092 36.071-56.899 31.631-84.776-3.799-21.377-12.954-41.335-26.687-59.142-3.845-4.99-7.965-9.933-12.588-14.511l-28.884-28.884c-12.726-12.771-27.648-12.771-40.374 0l-108.305 108.259c-5.722 5.722-8.468 11.902-9.064 18.127-0.137 1.373-0.137 2.792 0 4.211 0.595 6.134 3.342 12.314 9.064 18.036zM696.75 53.094v579.153h-552.191c-17.074 0-30.899 13.824-30.899 30.899s13.824 30.899 30.899 30.899h570.227l164.334 164.838c12.085 12.131 31.631 12.085 43.716 0.046s12.085-31.585 0-43.716l-164.334-164.838v-597.234c0-17.074-13.87-30.899-30.944-30.899s-30.807 13.778-30.807 30.853zM300.379 93.331l12.771 12.771c37.124 37.17 40.054 71.181 9.292 101.942-29.525 29.571-62.85 25.543-100.065-11.627l-12.497-12.543 90.498-90.544z" />
<glyph unicode="&#x39;" glyph-name="TreehouseAIM" d="M239.589 220.587l30.12-67.153 36.987 36.941zM888.962 960h-564.596c-36.117 0-70.037-14.053-95.488-39.55l-205.395-205.487c-14.511-14.511-23.483-34.515-23.483-56.67v-642.186c0-44.265 35.888-80.153 80.107-80.153h642.186c22.155 0 42.297 9.018 56.762 23.62l205.349 205.395c25.589 25.497 39.596 59.371 39.596 95.442v564.596c0.046 74.431-60.561 134.992-135.038 134.992zM642.094 411.105c-1.053-2.426-2.609-4.715-4.669-6.775-9.109-9.155-22.064-9.338-32.455 1.053l-68.846 68.801 22.979-73.47c3.387-11.078 1.236-20.37-6.454-28.060-7.645-7.599-16.983-9.75-27.603-6.363l-73.699 23.162 68.846-68.846c10.391-10.391 10.208-23.346 1.053-32.455-9.109-9.155-22.064-9.338-32.501 1.053l-116.133 116.178c-11.719 11.719-12.359 25.497-1.053 36.758 8.331 8.285 18.081 10.849 28.884 7.233l112.379-36.758-36.575 112.562c-3.57 10.803-1.236 20.37 7.233 28.839 11.261 11.261 25.039 10.666 36.758-1.053l116.178-116.178c2.609-2.563 4.486-5.264 5.722-8.011v-17.669zM298.869 88.25c5.905-13.183 1.419-24.444-9.338-30.212-11.307-5.722-23.62-2.335-29.342 10.62l-70.494 161.039c-5.997 13.138-3.845 24.581 5.905 34.377 10.025 9.979 21.469 12.131 34.423 6.363l161.405-70.494c12.909-5.722 16.296-18.081 10.62-29.342-6.409-11.902-16.388-15.060-30.166-9.292l-27.008 11.215-57.494-57.54 8.057-18.722 3.433-8.011zM304.225 373.111c9.109 9.109 22.064 9.338 32.455-1.053l117.46-117.46c10.391-10.391 10.208-23.346 1.053-32.455-9.109-9.155-22.064-9.338-32.501 1.053l-117.414 117.414c-10.437 10.391-10.162 23.346-1.053 32.501zM696.75 53.094v579.153h-552.191c-17.074 0-30.899 13.824-30.899 30.899s13.824 30.899 30.899 30.899h570.227l164.334 164.838c12.085 12.131 31.631 12.085 43.716 0.046s12.085-31.585 0-43.716l-164.334-164.838v-597.234c0-17.074-13.87-30.899-30.944-30.899s-30.807 13.778-30.807 30.853z" />
<glyph unicode="&#x3a;" glyph-name="DroneOnQueen" horiz-adv-x="577" d="M135.514 89.94c-1.038 1.994-3.89 1.994-4.928 0-6.346-12.328-22.679-45.622-24.426-63.735 0-0.132 0-0.264-0.033-0.379-0.082-0.874-0.132-1.764-0.132-2.571 0-14.966 12.098-27.080 27.080-27.080 14.933 0 27.063 12.098 27.063 27.080 0 0.775-0.049 1.648-0.148 2.505 0 0.165-0.033 0.346-0.033 0.544-1.829 17.899-18.147 51.275-24.443 63.636zM206.962-3.841c14.949 0 27.063 12.098 27.063 27.080 0 0.775-0.033 1.648-0.132 2.505 0 0.165-0.033 0.346-0.033 0.544-1.829 17.899-18.147 51.275-24.426 63.636-1.038 1.994-3.89 1.994-4.928 0-6.346-12.328-22.695-45.622-24.426-63.735-0.016-0.132-0.016-0.264-0.033-0.379-0.082-0.874-0.132-1.764-0.132-2.571-0.016-14.966 12.081-27.080 27.047-27.080zM280.867-3.841c14.966 0 27.080 12.098 27.080 27.080 0 0.775-0.033 1.648-0.132 2.505-0.033 0.165-0.033 0.346-0.066 0.544-1.797 17.899-18.13 51.275-24.41 63.636-1.038 1.994-3.89 1.994-4.928 0-6.346-12.328-22.695-45.622-24.443-63.735-0.033-0.132-0.033-0.264-0.033-0.379-0.099-0.874-0.132-1.764-0.132-2.571 0-14.966 12.114-27.080 27.063-27.080zM575.348-41.107l-107.61 255.403h26.107c5.406 0 10.499 2.67 13.548 7.12 3.099 4.467 3.791 10.136 1.862 15.196l-205.627 543.62c-2.439 6.428-8.571 10.647-15.427 10.647s-13.004-4.236-15.427-10.647l-205.644-543.637c-1.912-5.060-1.22-10.713 1.862-15.196 3.082-4.45 8.142-7.12 13.548-7.12h26.107l-107.61-255.386c-2.143-5.093-1.599-10.911 1.467-15.509s8.208-7.367 13.729-7.367h543.917c5.505 0 10.647 2.769 13.713 7.367s3.61 10.417 1.483 15.509zM106.407 247.259l181.795 480.577 181.795-480.577h-363.589zM41.073-31.036l103.358 245.332h287.493l103.358-245.332h-494.208zM171.691 304.105c0.016 0.132 0.016 0.264 0.033 0.346 1.731 18.163 18.097 51.44 24.426 63.768 1.038 1.994 3.89 1.994 4.928 0 6.296-12.361 22.597-45.737 24.426-63.636 0-0.198 0.033-0.379 0.033-0.544 0.099-0.874 0.132-1.731 0.132-2.505 0-14.966-12.098-27.080-27.063-27.080s-27.063 12.098-27.063 27.080c0.016 0.808 0.066 1.698 0.148 2.571zM245.596 304.105c0 0.132 0.016 0.264 0.033 0.346 1.731 18.163 18.097 51.44 24.426 63.768 1.022 1.994 3.89 1.994 4.928 0 6.28-12.361 22.613-45.737 24.41-63.636 0.033-0.198 0.066-0.379 0.066-0.544 0.066-0.874 0.132-1.731 0.132-2.505 0-14.966-12.114-27.080-27.080-27.080-14.949 0-27.063 12.098-27.063 27.080 0.033 0.808 0.066 1.698 0.148 2.571z" />
<glyph unicode="&#x3b;" glyph-name="QueenPointingLeft" horiz-adv-x="733" d="M1.318-41.042l211.257 501.197c2.126 5.093 6.691 8.752 12.097 9.79 5.439 1.038 11.010-0.725 14.866-4.681l489.132-501.246c4.598-4.73 5.95-11.817 3.379-17.932s-8.57-10.070-15.196-10.070l-700.357 0.049c-5.538 0.033-10.647 2.769-13.712 7.367s-3.593 10.433-1.467 15.525zM233.276 424.456l-191.925-455.395 636.409-0.099-444.484 455.494zM260.405 342.429c0.099-0.049 0.231-0.099 0.33-0.181 16.036-8.636 40.363-36.654 49.279-47.268 1.45-1.714 0.33-4.384-1.928-4.532-13.811-1.005-50.927-3.066-68.15 2.225-0.165 0.049-0.346 0.115-0.511 0.165-0.841 0.264-1.648 0.544-2.357 0.857-13.778 5.818-20.256 21.673-14.421 35.451 5.801 13.778 21.656 20.223 35.435 14.405 0.758-0.313 1.549-0.692 2.324-1.121zM231.694 274.312c0.099-0.033 0.264-0.099 0.33-0.165 16.036-8.653 40.396-36.671 49.279-47.252 1.45-1.763 0.33-4.417-1.928-4.532-13.811-1.038-50.927-3.098-68.117 2.225-0.198 0.033-0.346 0.099-0.544 0.165-0.841 0.264-1.615 0.511-2.357 0.841-13.778 5.801-20.256 21.689-14.421 35.451 5.801 13.762 21.656 20.239 35.435 14.405 0.775-0.313 1.549-0.692 2.324-1.137zM203.017 206.244c0.099-0.066 0.231-0.132 0.33-0.165 16.003-8.653 40.363-36.671 49.246-47.285 1.45-1.731 0.346-4.384-1.895-4.532-13.844-1.005-50.96-3.098-68.15 2.225-0.198 0.033-0.346 0.132-0.544 0.165-0.808 0.264-1.615 0.544-2.357 0.841-13.778 5.834-20.223 21.689-14.421 35.468 5.801 13.745 21.656 20.223 35.435 14.421 0.775-0.346 1.549-0.725 2.357-1.137z" />
<glyph unicode="&#x3c;" glyph-name="DronePointingRight" horiz-adv-x="614" d="M1.088-41.717l145.052 384.838c1.912 5.093 6.197 8.883 11.455 10.169 5.258 1.335 10.795-0.016 14.85-3.609l436.145-384.163c5.159-4.532 6.955-11.784 4.499-18.212v0c-2.406-6.411-8.537-10.647-15.394-10.647l-581.18-0.659c-5.422-0.033-10.499 2.637-13.564 7.087-3.098 4.433-3.807 10.136-1.862 15.196zM168.571 309.186l-128.241-340.191 513.788 0.577-385.547 339.614zM198.748 228.032c0.099-0.033 0.231-0.066 0.33-0.165 16.316-8.010 41.747-35.089 51.059-45.324 1.483-1.681 0.478-4.384-1.763-4.598-13.745-1.549-50.762-5.060-68.15-0.379-0.231 0.033-0.379 0.099-0.527 0.132-0.89 0.231-1.681 0.478-2.423 0.742-13.993 5.274-21.014 20.898-15.74 34.858 5.258 14.009 20.865 21.047 34.891 15.806 0.709-0.297 1.549-0.692 2.324-1.071zM172.658 158.893c0.115-0.066 0.214-0.099 0.346-0.165 16.349-8.010 41.714-35.089 51.059-45.324 1.5-1.681 0.478-4.384-1.763-4.631-13.762-1.483-50.729-5.027-68.134-0.379-0.214 0.066-0.396 0.099-0.56 0.099-0.841 0.264-1.648 0.511-2.406 0.775-13.993 5.307-20.997 20.931-15.74 34.891 5.241 13.976 20.865 21.047 34.874 15.773 0.692-0.313 1.549-0.659 2.324-1.038z" />
<glyph unicode="&#x3d;" glyph-name="TreehouseWILD" d="M500.007 508.653l-12.497-12.497 90.498-90.544 12.771 12.771c37.216 37.17 40.054 71.181 9.292 101.942-29.479 29.525-62.85 25.497-100.065-11.673zM888.962 960h-564.596c-36.117 0-70.037-14.053-95.488-39.55l-205.395-205.487c-14.511-14.511-23.483-34.515-23.483-56.67v-642.186c0-44.265 35.888-80.153 80.107-80.153h642.186c22.155 0 42.297 9.018 56.762 23.62l205.349 205.395c25.589 25.497 39.596 59.371 39.596 95.442v564.596c0.046 74.431-60.561 134.992-135.038 134.992zM632.207 552.368c3.937-3.891 6.683-8.102 9.933-12.222 18.127-23.208 25.497-48.843 21.743-72.463-3.296-18.585-10.895-36.025-21.743-52.001-5.081-7.599-10.803-14.969-17.624-21.698l-28.884-28.93c-12.68-12.726-27.648-12.68-40.328 0l-108.351 108.351c-12.726 12.726-12.726 27.603 0.046 40.328l28.884 28.884c16.891 16.937 35.797 28.747 56.533 35.568 5.264 1.739 10.574 3.342 16.067 4.394 14.236 2.884 29.434 1.282 44.448-4.394 13.595-5.173 27.008-13.595 39.275-25.817zM536.307 305.775l-64.772-64.818c-12.726-12.68-27.603-12.68-40.374 0.046l-112.974 112.974c-10.437 10.483-10.208 23.346-1.007 32.501 9.109 9.109 22.018 9.384 32.455-1.007l104.048-104.094 53.557 53.512c9.567 9.567 21.652 9.384 30.12 0.916 8.285-8.377 8.514-20.462-1.053-30.029zM251.125 320.378c9.109 9.109 22.018 9.338 32.455-1.007l117.46-117.46c10.391-10.391 10.208-23.391 1.053-32.501-9.155-9.155-22.11-9.338-32.546 1.053l-117.414 117.414c-10.391 10.483-10.162 23.346-1.007 32.501zM696.75 53.094v579.153h-552.191c-17.074 0-30.899 13.824-30.899 30.899s13.824 30.899 30.899 30.899h570.227l164.334 164.838c12.085 12.131 31.631 12.085 43.716 0.046s12.085-31.585 0-43.716l-164.334-164.838v-597.234c0-17.074-13.87-30.899-30.944-30.899s-30.807 13.778-30.807 30.853zM35.705 103.127c0.183 0.32 0.183 0.687 0.366 0.961 6.775 11.49 19.729 14.602 32.684 6.729l102.812-62.85-59.279 99.608c-8.514 14.053-7.004 26.55 4.028 37.628 10.849 10.803 23.62 12.085 37.582 3.57l99.425-59.005-62.85 102.766c-7.873 12.954-4.715 25.863 6.775 32.73 11.444 6.729 24.398 4.028 32.043-8.697l82.991-143.369c3.387-6.042 4.761-11.673 4.852-16.983 0.137-7.37-2.426-14.145-8.423-20.141-10.803-10.849-23.437-11.902-37.353-3.387l-103.727 61.156 60.973-104.277c8.514-14.007 7.233-26.321-3.57-37.17-10.437-10.483-22.979-11.444-37.216-3.204l-143.14 82.854c-4.12 2.472-6.775 5.585-8.835 8.926-4.028 6.729-4.166 14.648-0.137 22.155z" />
<glyph unicode="&#x3e;" glyph-name="PawnOnDrone" horiz-adv-x="444" d="M159.443 26.27c-1.813 17.932-18.146 51.307-24.426 63.668-1.038 1.994-3.89 1.994-4.928 0-6.345-12.328-22.679-45.654-24.426-63.767-0.016-0.099-0.016-0.264-0.033-0.346-0.082-0.906-0.132-1.764-0.132-2.571 0-14.965 12.097-27.079 27.079-27.079 14.932 0 27.063 12.097 27.063 27.079 0 0.775-0.049 1.615-0.148 2.472-0.016 0.181-0.049 0.379-0.049 0.544zM233.33 26.27c-1.796 17.932-18.113 51.307-24.393 63.668-1.038 1.994-3.89 1.994-4.928 0-6.345-12.328-22.679-45.654-24.442-63.767 0-0.099-0.033-0.264-0.033-0.346-0.082-0.906-0.132-1.764-0.132-2.571 0-14.965 12.097-27.079 27.079-27.079 14.932 0 27.046 12.097 27.046 27.079 0 0.775-0.066 1.615-0.132 2.472 0 0.181-0.033 0.379-0.066 0.544zM443.189-41.684l-89.495 236.576h22.86c5.455 0 10.581 2.736 13.647 7.235 3.066 4.532 3.675 10.301 1.648 15.361l-154.416 386.542c-2.489 6.263-8.57 10.367-15.295 10.367-6.741 0-12.806-4.104-15.328-10.367l-154.399-386.559c-2.027-5.060-1.401-10.812 1.665-15.361 3.066-4.499 8.191-7.235 13.647-7.235h22.843l-89.495-236.576c-1.912-5.060-1.22-10.746 1.862-15.196 3.066-4.467 8.142-7.104 13.548-7.104h411.281c5.422 0 10.499 2.637 13.564 7.12 3.082 4.434 3.791 10.136 1.862 15.196zM222.139 553.466l130.089-325.626h-260.195l130.106 325.626zM40.347-31.037l85.457 225.913h192.637l85.473-225.913h-363.567zM220.556 255.050c14.932 0 27.079 12.114 27.079 27.079 0 0.791-0.066 1.648-0.132 2.505-0.033 0.181-0.033 0.346-0.066 0.544-1.796 17.899-18.13 51.291-24.426 63.635-1.005 2.011-3.89 2.011-4.928 0-6.312-12.312-22.662-45.621-24.409-63.751-0.033-0.115-0.049-0.247-0.049-0.363-0.082-0.906-0.132-1.747-0.132-2.571 0-14.965 12.13-27.079 27.063-27.079z" />
<glyph unicode="&#x40;" glyph-name="RegularDie2" horiz-adv-x="1056" d="M772.491-64h-746.341c-14.435 0-26.15 11.689-26.15 26.15v722.441c0 7.374 3.060 14.042 7.976 18.776l257.497 249.26c4.864 4.733 11.375 7.374 18.174 7.374h746.341c14.461 0 26.15-11.715 26.15-26.15v-722.441c0-7.087-2.85-13.859-7.976-18.802l-257.497-249.26c-4.681-4.55-11.088-7.348-18.174-7.348zM52.3-11.7h694.042v670.141h-694.042v-670.141zM798.641 673.503v-649.639l205.197 198.634v649.639l-205.197-198.634zM90.766 710.74h671.161l203.445 196.96h-671.161l-203.445-196.96zM261.498 148.676c0-36.105-29.269-65.374-65.374-65.374s-65.374 29.269-65.374 65.374c0 36.105 29.269 65.374 65.374 65.374s65.374-29.269 65.374-65.374zM627.595 514.774c0-36.105-29.269-65.374-65.374-65.374s-65.374 29.269-65.374 65.374c0 36.105 29.269 65.374 65.374 65.374s65.374-29.269 65.374-65.374z" />
<glyph unicode="&#x41;" glyph-name="MiniLeaningLeft" horiz-adv-x="1126" d="M1054.685-64l-1016.64 3.85c-15.739 0.057-29.893 9.794-35.554 24.571-1.698 4.473-2.491 9.172-2.491 13.814-0.057 10.7 4.359 21.117 12.512 28.591l752.926 682.78c9.285 8.436 22.25 11.776 34.479 8.889 3.001-0.736 5.775-1.755 8.379-3.057 8.492-4.246 15.286-11.55 18.796-20.608l263.487-686.573c3.227-8.379 3.34-17.607 0.453-25.873-1.132-3.51-2.718-6.737-4.869-9.851-7.077-10.304-18.853-16.475-31.421-16.475 0.057-0.057 0-0.057-0.057-0.057zM809.372 507.814l-0.17-0.057-33.629 87.414-638.337-578.891 861.797-3.34-34.196 89.226c-0.396 1.076-0.793 2.151-1.076 3.227l-154.39 402.421z" />
<glyph unicode="&#x42;" glyph-name="ComponentNest" horiz-adv-x="811" d="M808.772-11.070l-367.459 946.697c-5.655 14.703-19.792 24.373-35.57 24.373-4.75 0-9.331-0.848-13.572-2.488-10.122-3.732-18.435-11.649-22.45-22.054l-367.176-946.527c-4.581-11.706-2.997-24.938 4.072-35.343 1.357-2.036 2.941-3.845 4.637-5.598 7.069-7.125 16.795-11.253 27.087-11.253h126.219c1.301-0.17 2.545-0.792 3.845-0.792h471.058c1.188 0 2.092 0.679 3.28 0.792h130.177c10.292 0 20.019 4.128 27.087 11.253 1.753 1.696 3.336 3.563 4.637 5.598 7.182 10.405 8.709 23.638 4.128 35.343zM361.917 13.077l41.225 116.153 41.225-116.153h-82.449zM525.572 13.077l-86.351 242.937c-8.935 25.051-45.296 32.12-63.166 14.024-3.845-3.902-6.956-8.709-8.822-14.137l-86.238-242.824h-56.719l179.715 468.457 179.828-468.457h-58.246zM665.645 13.303l-225.916 588.851c-5.655 14.816-19.849 24.486-35.626 24.486-4.241 0-8.369-0.679-12.271-1.979-10.688-3.563-19.566-11.706-23.751-22.62l-225.633-588.851-48.237 0.113 311.306 802.439 311.645-802.439h-51.517z" />
<glyph unicode="&#x44;" glyph-name="MiniLeaningRight" horiz-adv-x="1126" d="M70.826-64c-12.569 0-24.288 6.171-31.421 16.475-2.151 3.114-3.737 6.341-4.869 9.851-2.831 8.266-2.718 17.494 0.51 25.873l263.487 686.573c3.51 9.058 10.247 16.362 18.796 20.608 2.604 1.359 5.435 2.378 8.379 3.057 12.286 2.887 25.194-0.396 34.535-8.889l752.87-682.78c8.209-7.473 12.625-17.834 12.569-28.591 0.057-4.642-0.849-9.342-2.491-13.814-5.718-14.777-19.815-24.514-35.611-24.571l-1016.583-3.793c-0.057 0-0.113 0-0.17 0zM161.863 105.393c-0.283-1.076-0.679-2.151-1.076-3.227l-34.196-89.226 861.797 3.34-638.28 578.891-33.629-87.414-0.17 0.057-154.446-402.421z" />
<glyph unicode="&#x48;" glyph-name="QueenOnDrone" horiz-adv-x="577" d="M588.253-41.107l-278.279 660.477c-2.571 6.098-8.571 10.070-15.18 10.070-6.642 0-12.625-3.972-15.196-10.070l-278.312-660.477c-2.143-5.126-1.599-10.911 1.45-15.509 3.066-4.615 8.224-7.384 13.746-7.384h556.592c5.505 0 10.68 2.769 13.713 7.367 3.049 4.615 3.593 10.4 1.467 15.526zM516.112-31.036l-206.171 484.615c-2.571 6.082-8.571 10.021-15.147 10.021-6.609 0-12.592-3.939-15.18-10.021l-137.854-324.016h35.832l117.186 275.461 185.503-436.060h-438.977l253.474 601.554 253.474-601.554h-32.14zM133.47 93.154c-6.461-12.625-23.206-46.71-24.986-65.252-0.016-0.132-0.016-0.231-0.033-0.346-0.082-0.939-0.132-1.829-0.132-2.67 0-10.466 5.868-19.482 14.438-24.179 3.956-2.159 8.422-3.511 13.251-3.511 15.295 0 27.689 12.394 27.689 27.689 0 0.808-0.049 1.681-0.132 2.571-0.016 0.198-0.033 0.346-0.049 0.544-1.038 10.235-6.692 25.3-12.609 38.881-4.681 10.779-9.527 20.635-12.378 26.239-1.055 2.093-3.989 2.093-5.060 0.033zM196.084 1.993c4.45-3.033 9.79-4.796 15.559-4.796 15.295 0 27.689 12.394 27.689 27.689 0 0.808-0.049 1.681-0.132 2.571-0.016 0.198-0.033 0.346-0.049 0.544-1.121 11.043-7.615 27.788-14.026 42.144-4.219 9.494-8.406 17.965-10.977 22.992-1.055 2.093-3.989 2.093-5.060 0.033-6.461-12.625-23.206-46.71-24.986-65.252-0.016-0.132-0.033-0.231-0.033-0.346-0.082-0.939-0.132-1.829-0.132-2.67 0.016-9.543 4.829-17.949 12.147-22.91zM287.278-2.803c15.295 0 27.689 12.394 27.689 27.689 0 0.808-0.033 1.681-0.132 2.571 0 0.198-0.033 0.346-0.033 0.544-1.862 18.344-18.542 52.511-25.003 65.12-1.055 2.093-3.989 2.093-5.060 0.033-6.461-12.625-23.206-46.71-24.986-65.252-0.016-0.132-0.016-0.231-0.033-0.346-0.082-0.939-0.132-1.829-0.132-2.67 0-15.295 12.394-27.689 27.689-27.689z" />
<glyph unicode="&#x49;" glyph-name="ColorDieGreenClub" horiz-adv-x="1056" d="M772.491-64h-746.341c-14.435 0-26.15 11.689-26.15 26.15v722.441c0 7.374 3.060 14.042 7.976 18.776l257.497 249.26c4.864 4.733 11.375 7.374 18.174 7.374h746.341c14.461 0 26.15-11.715 26.15-26.15v-722.441c0-7.087-2.85-13.859-7.976-18.802l-257.497-249.26c-4.681-4.55-11.088-7.348-18.174-7.348zM52.3-11.7h694.042v670.141h-694.042v-670.141zM798.641 673.503v-649.639l205.197 198.634v649.639l-205.197-198.634zM90.766 710.74h671.161l203.445 196.96h-671.161l-203.445-196.96zM502.834 354.318c-19.612 0-37.839-5.988-52.953-16.213v0.078c26.228 16.814 43.644 46.207 43.644 79.678 0 52.221-42.363 94.558-94.584 94.558s-94.584-42.337-94.584-94.558c0-33.472 17.416-62.864 43.644-79.678v-0.078c-15.115 10.225-33.315 16.213-52.953 16.213-52.221 0-94.558-42.337-94.558-94.558 0-52.247 42.337-94.584 94.558-94.584 38.257 0 71.18 22.724 86.085 55.385l-33.838-94.61h103.37l-33.864 94.61c14.905-32.661 47.802-55.385 86.059-55.385 52.221 0 94.558 42.337 94.558 94.584-0.026 52.221-42.363 94.558-94.584 94.558z" />
<glyph unicode="&#x4b;" glyph-name="PawnOnQueen" horiz-adv-x="577" d="M105.319 25.81c0 0.099 0 0.264 0.033 0.346 1.731 18.13 18.097 51.44 24.41 63.768 1.022 1.994 3.906 1.994 4.945 0 6.28-12.361 22.597-45.737 24.41-63.669 0.016-0.165 0.033-0.346 0.049-0.544 0.082-0.874 0.132-1.714 0.132-2.505 0-14.933-12.098-27.047-27.080-27.047-14.933 0-27.047 12.098-27.047 27.047 0.016 0.841 0.049 1.714 0.148 2.604zM179.223 25.81c0.016 0.099 0.016 0.264 0.049 0.346 1.731 18.13 18.097 51.44 24.41 63.768 1.038 1.994 3.906 1.994 4.928 0 6.296-12.361 22.613-45.737 24.41-63.669 0.033-0.165 0.033-0.346 0.066-0.544 0.082-0.874 0.132-1.714 0.132-2.505 0-14.933-12.114-27.047-27.080-27.047-14.933 0-27.063 12.098-27.063 27.047 0.016 0.841 0.066 1.714 0.148 2.604zM253.128 25.81c0.016 0.099 0.016 0.264 0.033 0.346 1.747 18.13 18.114 51.44 24.41 63.768 1.038 1.994 3.923 1.994 4.945 0 6.296-12.361 22.63-45.737 24.426-63.669 0.033-0.165 0.033-0.346 0.066-0.544 0.066-0.874 0.132-1.714 0.132-2.505 0-14.933-12.131-27.047-27.080-27.047-14.933 0-27.063 12.098-27.063 27.047 0 0.841 0.049 1.714 0.132 2.604zM574.54-41.107l-157.632 374.055h24.888c5.472 0 10.598 2.703 13.647 7.236s3.708 10.268 1.681 15.361l-154.418 386.549c-2.505 6.263-8.571 10.367-15.312 10.367s-12.806-4.104-15.312-10.367l-154.418-386.549c-2.027-5.093-1.401-10.812 1.665-15.361 3.082-4.533 8.175-7.236 13.647-7.236h24.904l-157.632-374.055c-2.143-5.126-1.599-10.911 1.467-15.509s8.208-7.367 13.729-7.367h543.901c5.505 0 10.647 2.769 13.713 7.367s3.61 10.384 1.483 15.509zM157.303 365.912l130.075 325.632 130.075-325.632h-260.149zM40.282-31.036l153.363 363.985h187.497l153.363-363.985h-494.224zM258.88 422.758c0 0.132 0.016 0.264 0.033 0.379 1.747 18.114 18.097 51.44 24.426 63.752 1.038 2.011 3.89 2.011 4.928 0 6.296-12.345 22.613-45.737 24.443-63.653 0-0.198 0.033-0.379 0.033-0.544 0.066-0.874 0.132-1.714 0.132-2.505 0-14.933-12.098-27.080-27.047-27.080-14.966 0-27.080 12.131-27.080 27.080 0 0.841 0.049 1.714 0.132 2.571z" />
<glyph unicode="&#x4c;" glyph-name="QueenOnQueen" horiz-adv-x="577" d="M133.19 175.432c14.966 0 27.080 12.131 27.080 27.080 0 0.808-0.049 1.648-0.132 2.505-0.016 0.165-0.033 0.346-0.049 0.544-0.725 7.203-3.824 16.877-7.648 26.701-5.686 14.636-13.021 29.568-16.779 36.936-0.593 1.187-1.764 1.467-2.917 1.236-0.791-0.148-1.599-0.396-2.011-1.236-5.933-11.488-20.47-41.254-23.767-59.895-0.231-1.286-0.544-2.67-0.659-3.824-0.033-0.132-0.033-0.264-0.033-0.379-0.099-0.874-0.132-1.731-0.132-2.571 0-13.4 9.757-24.443 22.531-26.618 1.467-0.264 2.967-0.478 4.516-0.478zM207.094 175.432c14.949 0 27.080 12.131 27.080 27.080 0 0.808-0.049 1.648-0.132 2.505-0.033 0.165-0.033 0.346-0.066 0.544-1.797 17.899-18.13 51.308-24.41 63.636-1.022 2.027-3.873 2.027-4.928 0-6.329-12.295-22.679-45.622-24.41-63.735-0.033-0.132-0.033-0.264-0.033-0.379-0.099-0.874-0.148-1.731-0.148-2.571-0.016-14.933 12.114-27.080 27.047-27.080zM280.999 175.432c14.949 0 27.063 12.131 27.063 27.080 0 0.808-0.066 1.648-0.132 2.505-0.033 0.165-0.033 0.346-0.066 0.544-1.797 17.899-18.114 51.308-24.41 63.636-1.022 2.027-3.89 2.027-4.945 0-6.313-12.295-22.663-45.622-24.41-63.735-0.016-0.132-0.016-0.264-0.033-0.379-0.082-0.874-0.132-1.731-0.132-2.571 0.016-14.933 12.131-27.080 27.063-27.080zM509.289 115.273h50.995c5.505 0 10.647 2.769 13.713 7.367s3.61 10.433 1.483 15.509l-271.95 645.429c-2.571 6.115-8.571 10.087-15.196 10.087s-12.625-3.972-15.196-10.087l-271.95-645.429c-2.143-5.093-1.599-10.911 1.467-15.509s8.208-7.367 13.729-7.367h50.962l-66.158-157.022c-2.143-5.109-1.599-10.911 1.467-15.509s8.208-7.367 13.729-7.367h543.901c5.505 0 10.647 2.769 13.713 7.367s3.61 10.417 1.483 15.509l-66.191 157.022zM41.205 148.237l247.112 586.506 247.112-586.506h-494.224zM41.205-31.679l61.922 146.952h370.396l61.906-146.952h-494.224zM160.072 25.645c-1.813 17.916-18.147 51.308-24.426 63.653-1.022 2.011-3.906 2.011-4.928 0-6.329-12.312-22.679-45.638-24.41-63.752-0.033-0.115-0.033-0.264-0.033-0.363-0.099-0.89-0.132-1.747-0.132-2.571 0-14.949 12.098-27.080 27.047-27.080 14.966 0 27.080 12.114 27.080 27.080 0 0.791-0.049 1.632-0.132 2.489-0.033 0.165-0.049 0.363-0.066 0.544zM233.976 25.645c-1.797 17.916-18.13 51.308-24.41 63.653-1.022 2.011-3.873 2.011-4.928 0-6.329-12.312-22.679-45.638-24.41-63.752-0.033-0.115-0.033-0.264-0.033-0.363-0.099-0.89-0.148-1.747-0.148-2.571 0-14.949 12.114-27.080 27.063-27.080s27.080 12.114 27.080 27.080c0 0.791-0.049 1.632-0.132 2.489-0.049 0.165-0.049 0.363-0.082 0.544zM307.881 25.645c-1.797 17.916-18.114 51.308-24.41 63.653-1.022 2.011-3.89 2.011-4.945 0-6.313-12.312-22.663-45.638-24.41-63.752-0.016-0.115-0.016-0.264-0.033-0.363-0.082-0.89-0.132-1.747-0.132-2.571 0-14.949 12.114-27.080 27.063-27.080s27.063 12.114 27.063 27.080c0 0.791-0.066 1.632-0.132 2.489-0.033 0.165-0.033 0.363-0.066 0.544z" />
<glyph unicode="&#x4d;" glyph-name="DroneOnDrone" horiz-adv-x="444" d="M108.3 148.233l-12.477-32.963h252.893l-12.477 32.963zM40.479 148.233l181.792 480.553 181.775-480.553h-32.584l12.477-32.963h43.956c5.406 0 10.482 2.637 13.548 7.12 3.099 4.45 3.774 10.136 1.862 15.196l-205.608 543.595c-2.423 6.428-8.57 10.647-15.427 10.647s-12.987-4.236-15.427-10.647l-205.641-543.595c-1.912-5.060-1.22-10.746 1.862-15.196 3.082-4.467 8.142-7.12 13.548-7.12h43.956l12.477 32.963h-32.568zM132.693 175.428c14.949 0 27.079 12.097 27.079 27.046 0 0.808-0.049 1.648-0.132 2.505-0.033 0.198-0.033 0.346-0.066 0.544-1.088 10.878-7.549 27.458-13.861 41.583l-25.843-68.333c3.824-2.044 8.158-3.346 12.823-3.346zM233.544 204.979c-0.033 0.198-0.033 0.346-0.066 0.544-1.796 17.932-18.13 51.307-24.409 63.635-1.022 2.027-3.906 2.027-4.928 0-6.329-12.295-22.679-45.621-24.409-63.734-0.033-0.132-0.033-0.264-0.033-0.346-0.099-0.906-0.148-1.764-0.148-2.604 0-14.932 12.114-27.046 27.063-27.046s27.079 12.097 27.079 27.046c-0.016 0.808-0.082 1.648-0.148 2.505zM383.955 115.27h-35.238l55.329-146.307h-363.567l55.345 146.307h-35.238l-59.383-156.954c-1.912-5.060-1.22-10.746 1.862-15.196 3.082-4.467 8.142-7.12 13.548-7.12h411.281c5.406 0 10.482 2.637 13.548 7.12 3.099 4.45 3.774 10.136 1.862 15.196l-59.35 156.954zM336.241 148.233l12.477-32.963h35.238l-12.477 32.963zM108.3 148.233h-35.238l-12.477-32.963h35.238zM130.221 269.175c-6.329-12.295-22.679-45.621-24.409-63.734-0.033-0.132-0.033-0.264-0.049-0.346-0.082-0.906-0.132-1.764-0.132-2.604 0-10.268 5.802-19.086 14.224-23.7l25.843 68.333c-4.071 9.114-8.076 17.223-10.548 22.052-1.005 2.027-3.873 2.027-4.928 0zM132.693-3.826c14.949 0 27.079 12.097 27.079 27.046 0 0.808-0.049 1.648-0.132 2.505-0.033 0.198-0.033 0.346-0.066 0.544-1.796 17.932-18.13 51.307-24.409 63.635-1.022 2.027-3.873 2.027-4.928 0-6.329-12.295-22.679-45.621-24.409-63.734-0.033-0.132-0.033-0.264-0.049-0.346-0.082-0.906-0.132-1.764-0.132-2.604-0.016-14.949 12.114-27.046 27.046-27.046zM206.596-3.826c14.949 0 27.079 12.097 27.079 27.046 0 0.808-0.066 1.648-0.132 2.505-0.033 0.198-0.033 0.346-0.066 0.544-1.796 17.932-18.13 51.307-24.409 63.635-1.022 2.027-3.906 2.027-4.928 0-6.329-12.295-22.679-45.621-24.409-63.734-0.033-0.132-0.033-0.264-0.033-0.346-0.099-0.906-0.148-1.764-0.148-2.604 0-14.949 12.114-27.046 27.046-27.046z" />
<glyph unicode="&#x4e;" glyph-name="DroneOnPawn" horiz-adv-x="444" d="M452.782-41.684l-210.437 556.302c-2.423 6.411-8.57 10.647-15.427 10.647s-13.004-4.252-15.427-10.647l-210.437-556.302c-1.912-5.060-1.22-10.713 1.862-15.196 3.082-4.45 8.142-7.12 13.564-7.12h420.873c5.422 0 10.499 2.67 13.564 7.12 3.082 4.467 3.791 10.136 1.862 15.196zM360.287-31.037l-117.876 325.066c-2.357 6.527-8.554 10.878-15.476 10.878s-13.136-4.351-15.493-10.878l-59.169-163.135h35.056l39.589 109.19 98.378-271.105h-284.966l186.588 493.244 186.571-493.244h-53.203zM132.907 92.262c-1.055 2.060-3.989 2.060-5.060 0-6.461-12.592-23.206-46.676-24.986-65.251-0.016-0.099-0.016-0.231-0.033-0.363-0.082-0.939-0.132-1.796-0.132-2.637 0-5.917 1.895-11.356 5.060-15.872 5.010-7.12 13.251-11.817 22.629-11.817 3.066 0 5.95 0.61 8.702 1.549 10.993 3.675 18.987 13.91 18.987 26.14 0 0.808-0.049 1.681-0.132 2.571-0.016 0.165-0.033 0.346-0.049 0.544-0.396 3.989-1.599 8.785-3.148 13.91-4.615 15.196-13.070 33.54-18.74 45.028-1.154 2.39-2.225 4.516-3.099 6.197zM206.020-3.677c15.311 0 27.706 12.394 27.706 27.689 0 0.808-0.049 1.681-0.132 2.571-0.033 0.165-0.033 0.346-0.066 0.544-1.846 18.311-18.542 52.51-24.986 65.119-1.055 2.060-3.989 2.060-5.060 0-6.461-12.592-23.206-46.676-24.986-65.251-0.016-0.099-0.016-0.231-0.033-0.346-0.082-0.939-0.132-1.796-0.132-2.637 0-15.295 12.394-27.689 27.689-27.689z" />
<glyph unicode="&#x4f;" glyph-name="ColorDiePurpleSpade" horiz-adv-x="1056" d="M772.491-64h-746.341c-14.435 0-26.15 11.689-26.15 26.15v722.441c0 7.4 3.086 14.095 8.028 18.854l257.471 249.208c4.864 4.707 11.375 7.348 18.174 7.348h746.341c14.461 0 26.15-11.715 26.15-26.15v-722.441c0-7.087-2.876-13.859-7.976-18.802l-257.523-249.26c-4.681-4.55-11.088-7.348-18.174-7.348zM52.3-11.7h694.042v670.141h-694.042v-670.141zM798.641 673.503v-649.666l205.224 198.66v649.639l-205.224-198.634zM90.766 710.74h671.161l203.472 196.96h-671.161l-203.472-196.96zM384.69 577.69c-6.198-25.784-15.768-48.979-28.66-69.219-12.918-20.292-35.878-45.344-68.957-75.311s-54.052-52.953-62.89-68.957c-8.839-16.004-13.206-32.243-13.206-48.717 0-22.933 7.636-41.997 22.933-57.32 15.271-15.271 33.89-22.933 55.882-22.933 39.303 0 69.742 28.765 89.798 60.040-1.543-34.256-7.165-61.609-17.050-82.163-10.617-22.123-26.882-40.375-48.874-54.941-14.801-9.806-41.474-18.383-79.914-25.784l-2.85-12.264h307.417l-2.824 12.264c-38.493 7.4-65.139 15.978-79.94 25.784-21.992 14.565-38.257 32.818-48.874 54.941-9.858 20.475-15.507 47.828-17.024 82.006 20.057-31.275 50.652-59.883 89.929-59.883 21.992 0 40.611 7.662 55.908 22.933 15.298 15.324 22.933 34.387 22.933 57.32 0 16.474-4.393 32.713-13.232 48.717-8.865 15.978-29.811 38.963-62.916 68.957-33.079 29.968-56.013 55.019-68.879 75.311-12.944 20.24-22.489 43.435-28.712 69.219z" />
<glyph unicode="&#x50;" glyph-name="ColorDieRedHeart" horiz-adv-x="1056" d="M772.491-64h-746.341c-14.435 0-26.15 11.689-26.15 26.15v722.441c0 7.374 3.060 14.042 7.976 18.776l257.497 249.26c4.864 4.733 11.375 7.374 18.174 7.374h746.341c14.461 0 26.15-11.715 26.15-26.15v-722.441c0-7.087-2.85-13.859-7.976-18.802l-257.497-249.26c-4.681-4.55-11.088-7.348-18.174-7.348zM52.3-11.7h694.042v670.141h-694.042v-670.141zM798.641 673.503v-649.639l205.197 198.634v649.639l-205.197-198.634zM90.766 710.74h671.161l203.445 196.96h-671.161l-203.445-196.96zM500.246 483.446c-55.987 0-101.357-44.167-101.357-98.637 0 54.47-45.344 98.637-101.33 98.637s-101.278-44.167-101.278-98.637c0-103.684 202.609-255.222 202.609-255.222s202.661 151.538 202.661 255.222c0 54.47-45.344 98.637-101.304 98.637z" />
<glyph unicode="&#x53;" glyph-name="PawnOnPawn" horiz-adv-x="342" d="M280.714 108.513h44.715c5.472 0 10.581 2.703 13.647 7.235 3.066 4.499 3.692 10.268 1.665 15.361l-154.416 386.526c-2.489 6.263-8.57 10.367-15.311 10.367s-12.806-4.104-15.311-10.367l-154.399-386.526c-2.027-5.093-1.401-10.845 1.665-15.361 3.082-4.532 8.175-7.235 13.647-7.235h44.451l-59.878-149.916c-2.027-5.093-1.401-10.845 1.665-15.361 3.049-4.532 8.158-7.235 13.63-7.235h308.815c5.472 0 10.581 2.703 13.647 7.235 3.066 4.499 3.692 10.268 1.665 15.361l-59.894 149.916zM40.94 141.476l130.073 325.61 130.089-325.61h-260.162zM40.825-31.037l55.741 139.549h148.664l55.757-139.549h-260.162zM196.197 26.27c-1.813 17.932-18.146 51.307-24.426 63.635-1.038 2.027-3.89 2.027-4.928 0-6.345-12.295-22.679-45.621-24.426-63.734-0.016-0.132-0.033-0.264-0.033-0.346-0.082-0.906-0.132-1.764-0.132-2.604 0-14.932 12.097-27.046 27.079-27.046 14.932 0 27.063 12.097 27.063 27.046 0 0.808-0.066 1.648-0.148 2.505-0.016 0.181-0.049 0.346-0.049 0.544zM169.447 168.67c14.932 0 27.063 12.097 27.063 27.046 0 0.808-0.066 1.648-0.148 2.505 0 0.198-0.033 0.346-0.033 0.544-1.813 17.932-18.146 51.307-24.426 63.635-1.038 2.027-3.89 2.027-4.928 0-6.345-12.295-22.679-45.621-24.426-63.734-0.016-0.132-0.033-0.264-0.033-0.346-0.082-0.906-0.132-1.764-0.132-2.604 0-14.932 12.097-27.046 27.063-27.046z" />
<glyph unicode="&#x54;" glyph-name="ComponentTree" horiz-adv-x="539" d="M537.042-19.295l-108.533 288.917h20.494c5.185 0 10.271 1.223 14.82 3.522 4.891 2.397 9.195 6.114 12.423 10.712 6.163 8.951 7.532 20.298 3.717 30.472l-82.562 219.561h7.532c6.603 0 13.010 1.956 18.342 5.576 3.522 2.299 6.505 5.282 8.951 8.706 6.163 9 7.581 20.347 3.766 30.472l-135.483 359.936c-4.744 12.912-17.070 21.423-30.814 21.423-2.788 0-5.576-0.342-8.119-1.027-10.418-2.543-19.124-10.076-23.037-20.396l-135.288-359.985c-3.815-10.125-2.348-21.472 3.766-30.423 1.174-1.614 2.446-3.179 3.864-4.598 6.212-6.163 14.527-9.684 23.428-9.684h7.239l-82.562-219.659c-3.815-10.125-2.397-21.472 3.815-30.374 6.114-8.951 16.238-14.233 27.146-14.233h20.738l-108.582-288.966c-3.815-10.125-2.397-21.472 3.766-30.374 6.163-8.951 16.287-14.233 27.146-14.233h473.165c10.809 0 20.934 5.282 27.146 14.233 3.815 5.527 5.82 12.081 5.82 18.733 0.049 3.864-0.636 7.875-2.103 11.69zM269.597 832.978l87.6-232.963h-7.924c-0.88 0-1.712-0.049-2.494-0.098h-154.95c-0.88 0.049-1.663 0.098-2.494 0.098h-7.337l87.6 232.963zM212.371 533.888h114.305l74.54-198.236h-263.386l74.54 198.236zM80.801 2.079l100.512 267.592h176.618l100.561-267.592h-377.69z" />
<glyph unicode="&#x55;" glyph-name="ColorDieBlueDiamond" horiz-adv-x="1056" d="M772.491-64h-746.341c-14.435 0-26.15 11.689-26.15 26.15v722.441c0 7.4 3.086 14.095 8.028 18.854l257.471 249.208c4.864 4.707 11.375 7.348 18.174 7.348h746.341c14.461 0 26.15-11.715 26.15-26.15v-722.441c0-7.087-2.876-13.859-7.976-18.802l-257.523-249.26c-4.681-4.55-11.088-7.348-18.174-7.348zM52.3-11.7h694.042v670.141h-694.042v-670.141zM798.641 673.503v-649.666l205.224 198.66v649.639l-205.224-198.634zM90.766 710.74h671.161l203.472 196.96h-671.161l-203.472-196.96zM399.909 562.575c-52.3-85.85-112.34-166.862-178.211-242.775 65.924-75.861 126.983-156.663 178.211-243.298 51.201 86.634 112.261 167.411 178.185 243.298-65.871 75.913-125.911 156.925-178.185 242.775z" />
<glyph unicode="&#x56;" glyph-name="ComponentMartianChess" horiz-adv-x="1858" d="M1830.858 960h-1804.018c-14.831 0-26.84-12.048-26.84-26.84v-970.321c0-14.831 12.008-26.84 26.84-26.84h1804.018c14.831 0 26.879 12.008 26.879 26.84v970.321c0 14.792-12.048 26.84-26.879 26.84zM1804.058-10.321h-1750.379v916.642h1750.379v-916.642zM1002.568 103.042h660.015c14.752 0 26.8 12.008 26.8 26.84v636.198c0 14.831-12.048 26.84-26.8 26.84h-660.015c-14.792 0-26.84-12.008-26.84-26.84v-636.198c0-14.831 12.048-26.84 26.84-26.84zM1029.408 286.227h147.956v-129.506h-147.956v129.506zM1635.704 440.664v-140.48h-129.148v140.48h129.148zM1191.559 440.664h143.304v-140.48h-143.304v140.48zM1349.057 595.141h143.343v-140.52h-143.343v140.52zM1349.057 286.227h143.343v-129.506h-143.343v129.506zM1334.822 609.057h-143.304v130.182h143.304v-130.182zM1177.324 595.141v-140.52h-147.956v140.52h147.956zM1635.704 609.057h-129.148v130.182h129.148v-130.182zM198.812 109.881h634.925c14.831 0 26.84 12.008 26.84 26.84v622.519c0 14.831-12.008 26.84-26.84 26.84h-634.925c-14.831 0-26.84-12.008-26.84-26.84v-622.519c0-14.831 12.008-26.84 26.84-26.84zM806.898 440.664v-140.48h-125.49v140.48h125.49zM366.37 440.664h143.304v-140.48h-143.304v140.48zM523.909 595.141h143.304v-140.52h-143.304v140.52zM523.909 286.227h143.304v-122.667h-143.304v122.667zM509.674 609.057h-143.304v123.343h143.304v-123.343zM352.175 595.141v-140.52h-126.524v140.52h126.524zM225.651 286.227h126.564v-122.667h-126.564v122.667zM806.898 609.057h-125.49v123.343h125.49v-123.343z" />
<glyph unicode="&#x58;" glyph-name="ComponentTwinWinCards" horiz-adv-x="820" d="M793.546 960h-642.853c-7.077 0-13.877-2.783-18.926-7.793l-120.436-119.521c-6.839-4.851-11.332-12.883-11.332-21.908v-847.939c0-14.831 12.008-26.839 26.839-26.839h642.853c7.356 0 14.036 2.942 18.886 7.714l123.855 122.384c5.089 5.050 7.952 11.928 7.952 19.085v847.979c0 14.791-12.008 26.839-26.839 26.839zM161.747 906.323h567.586l-69.025-68.746h-567.784l69.224 68.746zM642.853-10.323h-589.176v794.262h589.176v-794.262zM696.53 27.092v770.803l70.218 69.86v-771.32l-70.218-69.343zM112.444 443.189h44.731v-156.34c0-15.666 10.139-25.288 24.135-25.288 14.036 0 24.493 9.622 24.493 25.288v156.34h45.049c14.672 0 23.817 9.264 23.817 21.749 0 12.803-9.145 22.067-23.817 22.067h-138.407c-14.712 0-23.817-9.264-23.817-22.067 0-12.485 9.105-21.749 23.817-21.749zM350.014 287.168c4.572-16.978 14.99-25.606 31.013-25.606 16.66 0 27.117 8.31 31.332 25.288l33.32 124.372 32.604-124.054c4.254-16.978 14.672-25.606 31.332-25.606 15.984 0 26.441 8.31 31.332 25.288l46.361 170.415c3.936 15.348-3.936 27.157-17.972 30.695-14.036 3.499-26.401-3.857-30.377-19.523l-30.656-124.73-31.013 119.282c-4.215 16.938-15.030 25.566-31.65 25.566-16.978 0-27.753-8.31-32.007-25.248l-31.013-119.601-30.656 124.73c-3.936 15.666-16.342 23.022-30.377 19.523-14.036-3.539-21.868-15.348-17.932-30.695l46.361-170.097z" />
<glyph unicode="&#x59;" glyph-name="ColorDieWildAtom" horiz-adv-x="1056" d="M772.491-64h-746.341c-14.435 0-26.15 11.689-26.15 26.15v722.441c0 7.4 3.086 14.095 8.028 18.854l257.471 249.208c4.864 4.707 11.375 7.348 18.174 7.348h746.341c14.461 0 26.15-11.715 26.15-26.15v-722.441c0-7.087-2.876-13.859-7.976-18.802l-257.523-249.26c-4.681-4.55-11.088-7.348-18.174-7.348zM52.3-11.7h694.042v670.141h-694.042v-670.141zM798.641 673.503v-649.666l205.224 198.66v649.639l-205.224-198.634zM90.766 710.74h671.161l203.472 196.96h-671.161l-203.472-196.96zM469.99 370.374l70.395 73.481c5.753-3.713 12.5-6.014 19.822-6.433 22.75-1.307 42.258 16.056 43.566 38.78 1.334 22.776-16.056 42.284-38.806 43.592-22.724 1.334-42.232-16.056-43.592-38.806-0.549-9.623 2.275-18.671 7.427-26.019l-67.623-70.552c-13.572 17.363-33.89 29.183-57.059 31.432v88.805c18.959 3.739 33.236 20.397 33.236 40.48 0 22.776-18.488 41.264-41.264 41.264-22.803 0-41.238-18.488-41.238-41.264 0-20.083 14.304-36.74 33.236-40.48v-88.805c-17.39-1.7-33.184-8.786-45.736-19.56l-71.912 70.971c5.308 10.277 3.792 23.143-4.812 31.772-10.669 10.643-27.928 10.643-38.597 0-10.643-10.617-10.643-27.876 0-38.571 8.708-8.682 21.783-10.146 32.112-4.629l72.095-71.18c-11.061-14.042-17.73-31.772-17.73-51.018 0-2.249 0.157-4.498 0.34-6.72l-66.917-3.112c-4.629 18.749-21.966 32.217-41.944 31.275-22.776-1.072-40.349-20.371-39.303-43.121 1.072-22.776 20.397-40.375 43.147-39.303 20.031 0.915 36.034 15.978 38.859 35.093l69.009 3.243c3.687-12.813 10.329-24.319 19.168-33.759l-60.354-57.085c-9.885 5.596-22.541 4.681-31.484-3.295-11.271-10.015-12.238-27.248-2.223-38.493s27.248-12.238 38.493-2.223c9.362 8.342 11.506 21.626 6.224 32.347l61.452 58.079c11.506-8.263 25.208-13.702 40.088-15.141v-86.66c-11.14-3.452-19.246-13.807-19.246-26.071 0-15.036 12.238-27.248 27.274-27.248 15.062 0 27.274 12.212 27.274 27.248 0 12.264-8.106 22.62-19.22 26.071v86.66c12.552 1.203 24.293 5.308 34.544 11.532l85.065-70.003c-3.112-5.805-4.916-12.447-4.916-19.482 0-22.776 18.462-41.264 41.264-41.264 22.776 0 41.264 18.488 41.264 41.264 0 22.803-18.488 41.238-41.264 41.238-9.937 0-19.063-3.504-26.15-9.309l-82.032 67.466c12.866 11.846 22.018 27.693 25.339 45.631l59.386 2.746c3.949-10.957 14.696-18.54 26.934-17.965 15.036 0.654 26.699 13.467 25.967 28.503s-13.467 26.647-28.529 25.941c-12.238-0.575-22.253-9.152-25.13-20.423l-57.268-2.693c-0.131 12.866-3.243 24.973-8.629 35.773z" />
<glyph unicode="&#x5b;" glyph-name="SymbolYellowStar" horiz-adv-x="1077" d="M538.403 960l-166.347-337.105-372.057-54.047 269.202-262.377-63.561-370.471 332.762 174.895 332.762-174.895-63.561 370.471 269.202 262.377-371.988 54.047z" />
<glyph unicode="&#x5c;" glyph-name="SymbolTime" horiz-adv-x="1021" d="M510.594 960c-282.015 0-510.594-229.217-510.594-512.064 0-282.719 228.578-511.936 510.594-511.936 282.079 0 510.658 229.217 510.658 511.936 0.064 282.846-228.578 512.064-510.658 512.064zM725.877 298.043c-7.862-14.126-22.372-21.925-37.201-21.925-7.095 0-14.126 1.598-20.838 5.497l-178.465 100.099c-19.496 10.866-31.704 31.64-31.704 54.012v317.427c0 23.65 19.24 42.826 42.699 42.826 23.523 0 42.763-19.176 42.763-42.826v-303.493l166.448-93.451c20.454-11.57 27.805-37.713 16.3-58.167z" />
<glyph unicode="&#x5d;" glyph-name="SymbolComplexity" d="M1010.166 424.568l-199.24-109.019c-70.098-38.392-127.619-96.046-166.144-166.144l-108.887-199.24c-10.326-18.865-37.266-18.865-47.725 0l-108.953 199.24c-38.259 69.966-95.648 127.355-165.614 165.614l-199.571 108.821c-18.733 10.26-18.733 37.333 0 47.659l199.24 108.953c70.23 38.392 127.884 96.046 166.144 166.276l108.953 199.174c10.326 18.799 37.2 18.799 47.593 0.066l109.35-199.769c37.995-69.701 95.384-126.957 164.952-164.952l199.902-109.085c18.865-10.326 18.865-37.333 0-47.593z" />
<glyph unicode="&#x5e;" glyph-name="RegularDie6" horiz-adv-x="1056" d="M772.491-64h-746.341c-14.435 0-26.15 11.689-26.15 26.15v722.441c0 7.374 3.060 14.042 7.976 18.776l257.497 249.26c4.864 4.733 11.375 7.374 18.174 7.374h746.341c14.461 0 26.15-11.715 26.15-26.15v-722.441c0-7.087-2.85-13.859-7.976-18.802l-257.497-249.26c-4.681-4.55-11.088-7.348-18.174-7.348zM52.3-11.7h694.042v670.141h-694.042v-670.141zM798.641 673.503v-649.639l205.197 198.634v649.639l-205.197-198.634zM90.766 710.74h671.161l203.445 196.96h-671.161l-203.445-196.96zM261.498 514.774c0-36.105-29.269-65.374-65.374-65.374s-65.374 29.269-65.374 65.374c0 36.105 29.269 65.374 65.374 65.374s65.374-29.269 65.374-65.374zM261.498 331.725c0-36.105-29.269-65.374-65.374-65.374s-65.374 29.269-65.374 65.374c0 36.105 29.269 65.374 65.374 65.374s65.374-29.269 65.374-65.374zM261.498 148.676c0-36.105-29.269-65.374-65.374-65.374s-65.374 29.269-65.374 65.374c0 36.105 29.269 65.374 65.374 65.374s65.374-29.269 65.374-65.374zM627.595 514.774c0-36.105-29.269-65.374-65.374-65.374s-65.374 29.269-65.374 65.374c0 36.105 29.269 65.374 65.374 65.374s65.374-29.269 65.374-65.374zM627.595 331.725c0-36.105-29.269-65.374-65.374-65.374s-65.374 29.269-65.374 65.374c0 36.105 29.269 65.374 65.374 65.374s65.374-29.269 65.374-65.374zM627.595 148.676c0-36.105-29.269-65.374-65.374-65.374s-65.374 29.269-65.374 65.374c0 36.105 29.269 65.374 65.374 65.374s65.374-29.269 65.374-65.374z" />
<glyph unicode="&#x5f;" glyph-name="PyramidDieSmallLarge" horiz-adv-x="1056" d="M415.808 158.849c0-17.128-13.886-31.066-31.066-31.066s-31.092 13.912-31.092 31.066c0 17.154 13.912 31.066 31.092 31.066 17.18 0.026 31.066-13.886 31.066-31.066zM494.728 158.849c0-17.128-13.912-31.066-31.066-31.066s-31.066 13.912-31.066 31.066c0 17.154 13.912 31.066 31.066 31.066s31.066-13.886 31.066-31.066zM573.622 158.849c0-17.128-13.886-31.066-31.066-31.066s-31.092 13.912-31.092 31.066c0 17.154 13.912 31.066 31.092 31.066 17.154 0.026 31.066-13.886 31.066-31.066zM675.266 38.167h-427c-8.943 0-17.311 4.472-22.253 11.95-4.942 7.453-5.805 16.893-2.301 25.156l215.37 506.129c4.184 9.832 13.859 16.239 24.529 16.239 0.026 0 0.052 0 0.078 0 10.721-0.026 20.371-6.485 24.529-16.37l211.63-506.129c3.426-8.211 2.537-17.651-2.432-25.078-4.89-7.453-13.232-11.898-22.149-11.898zM288.615 91.487h346.589l-171.778 410.84-174.811-410.84zM772.491-64h-746.341c-14.435 0-26.15 11.689-26.15 26.15v722.441c0 7.374 3.060 14.042 7.976 18.776l257.497 249.26c4.864 4.733 11.375 7.374 18.174 7.374h746.341c14.461 0 26.15-11.715 26.15-26.15v-722.441c0-7.087-2.85-13.859-7.976-18.802l-257.497-249.26c-4.681-4.55-11.088-7.348-18.174-7.348zM52.3-11.7h694.042v670.141h-694.042v-670.141zM798.641 673.503v-649.639l205.197 198.634v649.639l-205.197-198.634zM90.766 710.74h671.161l203.445 196.96h-671.161l-203.445-196.96zM207.865 514.878c0 17.154 13.886 31.066 31.066 31.066s31.092-13.886 31.092-31.066-13.912-31.066-31.092-31.066c-17.18-0.026-31.066 13.886-31.066 31.066zM230.903 263.945c-0.209 0-0.418 0-0.628 0-11.192 0.261-21.024 7.479-24.633 18.070l-102.429 301.507c-2.772 8.159-1.438 17.128 3.583 24.11 4.995 6.982 13.075 11.14 21.678 11.14h220.914c8.812 0 17.076-4.367 22.044-11.663s6.014-16.553 2.772-24.764l-118.485-301.507c-4.001-10.198-13.859-16.893-24.816-16.893zM165.711 565.426l67.022-197.274 77.508 197.248h-144.53z" />
<glyph unicode="&#x60;" glyph-name="ComponentPyramid" horiz-adv-x="812" d="M773.93-64h-735.489c-10.304 0-20.042 4.133-27.119 11.266-1.698 1.698-3.284 3.567-4.642 5.605-7.077 10.417-8.662 23.665-4.076 35.385l367.546 947.626c3.51 9.115 10.304 16.305 18.74 20.438 18.57 9.455 44.896 0.17 52.879-20.268l367.999-947.796c4.529-11.719 3.057-24.967-4.076-35.385-1.359-2.038-2.944-3.85-4.642-5.605-7.134-7.134-16.815-11.266-27.119-11.266zM187.963 12.431h430.333c1.359 0.17 2.718 0.226 4.133 0.226h95.567l-312.12 803.484-311.554-803.484 93.642-0.226z" />
<glyph unicode="&#x61;" glyph-name="PawnPointingLeft" horiz-adv-x="449" d="M333.301 245.552l114.71-286.725c2.027-5.093 1.417-10.812-1.681-15.361-3.066-4.532-8.142-7.235-13.614-7.235l-416.235-0.231c-6.741 0-12.806 4.12-15.311 10.367-2.505 6.279-0.956 13.416 3.939 18.064l301.525 286.94c3.956 3.774 9.526 5.323 14.833 4.17 5.406-1.187 9.806-4.895 11.834-9.988zM408.357-30.807l-96.613 241.517-254.026-241.715 350.64 0.198zM317.875 42.354c-0.132-0.033-0.264-0.066-0.346-0.099-17.52-5.126-54.487-2.324-68.282-1.005-2.258 0.198-3.296 2.868-1.829 4.565 9.147 10.433 34.050 37.989 50.004 46.329 0.198 0.066 0.346 0.165 0.511 0.231 0.808 0.412 1.533 0.808 2.274 1.088 13.877 5.538 29.633-1.22 35.155-15.097 5.571-13.877-1.17-29.65-15.047-35.188-0.775-0.297-1.615-0.56-2.439-0.824z" />
<glyph unicode="&#x62;" glyph-name="Nest" horiz-adv-x="577" d="M588.253-41.107l-278.279 660.493c-2.571 6.098-8.571 10.070-15.196 10.070s-12.609-3.972-15.18-10.070l-278.312-660.493c-2.143-5.093-1.599-10.911 1.45-15.509 3.066-4.615 8.224-7.384 13.746-7.384h556.592c5.538 0 10.68 2.769 13.746 7.367s3.593 10.433 1.434 15.526zM516.112-31.036l-206.171 484.632c-2.571 6.082-8.571 10.021-15.163 10.021s-12.576-3.939-15.163-10.021l-18.657-43.875-119.197-280.125h35.832l117.169 275.428 185.52-436.060h-34.925l-134.426 315.38c-2.604 6.082-8.571 10.004-15.163 10.004s-12.576-3.923-15.163-10.004l-65.96-154.748h35.832l45.292 106.225 113.741-266.824-368.204-0.033 253.458 601.571 253.491-601.571h-32.14zM133.47 93.154c-6.461-12.625-23.206-46.71-24.986-65.252-0.016-0.132-0.016-0.231-0.033-0.346-0.082-0.939-0.132-1.829-0.132-2.67 0-10.466 5.868-19.449 14.438-24.146 3.956-2.192 8.422-3.544 13.251-3.544 15.295 0 27.689 12.394 27.689 27.689 0 0.808-0.049 1.681-0.132 2.571-0.016 0.198-0.033 0.346-0.049 0.544-1.038 10.235-6.692 25.333-12.609 38.914-4.681 10.746-9.527 20.635-12.378 26.206-1.055 2.093-3.989 2.093-5.060 0.033zM196.084 1.993c4.45-3.033 9.79-4.796 15.559-4.796 15.295 0 27.689 12.394 27.689 27.689 0 0.808-0.049 1.681-0.132 2.571-0.016 0.198-0.033 0.346-0.049 0.544-1.121 11.043-7.615 27.788-14.026 42.144-4.219 9.494-8.406 17.965-10.977 22.992-1.055 2.093-3.989 2.093-5.060 0.033-6.461-12.625-23.206-46.71-24.986-65.252-0.016-0.132-0.033-0.231-0.033-0.346-0.082-0.939-0.132-1.829-0.132-2.67 0.016-9.543 4.829-17.916 12.147-22.91zM287.278-2.803c15.295 0 27.689 12.394 27.689 27.689 0 0.808-0.033 1.681-0.132 2.571-0.033 0.198-0.033 0.346-0.066 0.544-1.829 18.344-18.542 52.511-24.97 65.12-1.055 2.093-3.989 2.093-5.060 0.033-6.461-12.625-23.206-46.71-24.986-65.252-0.016-0.132-0.016-0.231-0.033-0.346-0.082-0.939-0.132-1.829-0.132-2.67 0-15.295 12.394-27.689 27.689-27.689z" />
<glyph unicode="&#x63;" glyph-name="ComponentWheel" horiz-adv-x="1079" d="M1077.761 455.838l-98.206 300.829c-1.646 5.051-4.864 9.503-9.203 12.608l-257.132 185.937c-4.302 3.143-9.465 4.826-14.815 4.826h-317.814c-5.312 0-10.475-1.684-14.815-4.826l-257.132-185.937c-4.302-3.105-7.52-7.557-9.203-12.608l-98.206-300.829c-1.646-5.125-1.646-10.588 0-15.713l98.206-300.829c1.646-5.051 4.864-9.503 9.203-12.608l257.132-185.937c4.302-3.143 9.465-4.789 14.815-4.789h317.814c5.35 0 10.475 1.646 14.815 4.789l257.132 185.937c4.34 3.105 7.557 7.557 9.203 12.608l98.206 300.829c1.646 5.125 1.646 10.625 0 15.713zM970.875 620.413l-136.366 9.802 107.746 77.891 28.62-87.693zM838.998 801.897l73.439-53.087-107.035-77.405 33.596 130.493zM929.909 572.675l-101.199-81.558-29.705 90.986 130.904-9.428zM711.648 894.005l73.178-52.9-114.031-72.205 40.854 125.105zM539.479 529.352l-50.693 155.334h101.386l-50.693-155.334zM638.284 669.235l82.007-59.335-132.737-95.924 50.73 155.259zM491.405 513.938l-132.7 95.961 82.007 59.335 50.693-155.297zM461.475 473.234h-163.864l31.276 95.887 132.588-95.887zM461.475 422.766l-132.55-95.887-31.314 95.887h163.864zM491.405 382.062l-50.656-155.184-81.969 59.26 132.625 95.924zM539.479 366.648l50.693-155.297h-101.386l50.693 155.297zM587.591 382.062l132.662-95.924-81.969-59.26-50.693 155.184zM617.52 422.766h163.901l-31.276-95.887-132.625 95.887zM617.52 473.234l132.625 95.887 31.276-95.887h-163.901zM780.898 778.814l-32.661-126.751-78.228 56.529 110.889 70.222zM663.612 909.531l-40.929-125.33-49.758 125.33h90.686zM587.815 735.192h-96.635l48.336 121.663 48.299-121.663zM506.070 909.531l-49.758-125.33-40.929 125.33h90.686zM330.833 652.026l-32.661 126.789 110.814-70.259-78.153-56.529zM367.31 894.005l40.854-125.143-113.957 72.28 73.103 52.863zM240.034 801.972l33.633-130.642-107.11 77.48 73.477 53.162zM280.028 582.103l-29.705-91.023-101.236 81.595 130.942 9.428zM136.703 708.106l107.709-77.891-136.329-9.839 28.62 87.731zM87.544 557.411l104.454-84.177h-131.952l27.498 84.177zM88.217 336.457l-28.171 86.309h132.55l-104.379-86.309zM108.869 273.268l134.832-7.969-106.961-77.368-27.872 85.336zM239.997 94.065l-73.439 53.087 107.035 77.405-33.596-130.493zM149.348 321.454l100.937 83.466 29.78-91.21-130.717 7.744zM367.31 2.032l-73.327 52.975 114.293 72.504-40.966-125.479zM298.173 117.448l32.586 126.564 78.041-56.417-110.627-70.147zM415.384-13.494l40.966 125.479 49.833-125.479h-90.799zM491.293 160.845h96.41l-48.186-121.401-48.224 121.401zM572.85-13.494l49.795 125.479 41.003-125.479h-90.799zM748.275 244.012l32.623-126.564-110.702 70.147 78.079 56.417zM711.648 2.032l-40.966 125.479 114.293-72.467-73.327-53.013zM828.71 404.92l100.937-83.466-130.717-7.707 29.78 91.173zM839.073 94.103l-33.596 130.38 106.961-77.33-73.365-53.050zM942.292 187.894l-106.923 77.368 134.832 7.969-27.909-85.336zM990.741 336.457l-104.342 86.309h132.55l-28.209-86.309zM887.035 473.234l104.454 84.177 27.46-84.177h-131.914z" />
<glyph unicode="&#x64;" glyph-name="PawnPointingRight" horiz-adv-x="449" d="M127.697 255.54c5.307 1.154 10.878-0.379 14.833-4.17l301.542-286.94c4.878-4.631 6.444-11.784 3.923-18.064-2.505-6.246-8.587-10.367-15.328-10.367l-416.202 0.231c-5.472 0-10.565 2.703-13.614 7.235-3.098 4.532-3.708 10.268-1.681 15.361l114.71 286.725c2.027 5.093 6.428 8.801 11.817 9.988zM391.447-31.004l-254.010 241.715-96.613-241.517 350.623-0.198zM131.307 42.354c0.132-0.033 0.264-0.066 0.346-0.099 17.52-5.126 54.487-2.324 68.282-1.005 2.258 0.198 3.296 2.868 1.829 4.565-9.147 10.433-34.050 37.989-50.004 46.329-0.198 0.066-0.346 0.165-0.511 0.231-0.808 0.412-1.533 0.808-2.274 1.088-13.877 5.538-29.633-1.22-35.155-15.097-5.571-13.877 1.17-29.65 15.047-35.188 0.775-0.297 1.615-0.56 2.439-0.824z" />
<glyph unicode="&#x65;" glyph-name="ComponentLaunchPad" d="M918.725-64h-813.45c-58.059 0-105.275 47.251-105.275 105.275v813.45c0 58.059 47.216 105.275 105.275 105.275h813.45c58.059 0 105.275-47.216 105.275-105.275v-813.415c0-58.059-47.251-105.31-105.275-105.31zM105.275 913.234c-32.251 0-58.509-26.258-58.509-58.509v-813.415c0-32.286 26.258-58.509 58.509-58.509h813.45c32.286 0 58.509 26.258 58.509 58.509v813.415c0 32.286-26.258 58.509-58.509 58.509h-813.45zM891.358 66.009h-183.149c-12.887 0-23.348 10.462-23.348 23.383v182.629c0 12.921 10.462 23.383 23.348 23.383h183.149c12.921 0 23.418-10.462 23.418-23.383v-182.629c0-12.921-10.496-23.383-23.418-23.383zM731.627 112.775h136.418v135.898h-136.418v-135.898zM607.887 66.009h-183.080c-12.921 0-23.383 10.462-23.383 23.383v182.629c0 12.921 10.462 23.383 23.383 23.383h183.080c12.921 0 23.418-10.462 23.418-23.383v-182.629c0-12.921-10.496-23.383-23.418-23.383zM448.191 112.775h136.349v135.898h-136.349v-135.898zM334.047 66.009h-183.149c-12.921 0-23.383 10.462-23.383 23.383v182.629c0 12.921 10.462 23.383 23.383 23.383h183.114c12.921 0 23.383-10.462 23.383-23.383v-182.629c0-12.921-10.462-23.383-23.348-23.383zM174.281 112.775h136.383v135.898h-136.383v-135.898zM891.358 333.268h-183.149c-12.887 0-23.348 10.462-23.348 23.383v182.629c0 12.921 10.462 23.383 23.348 23.383h183.149c12.921 0 23.418-10.462 23.418-23.383v-182.629c0-12.921-10.496-23.383-23.418-23.383zM731.627 380.034h136.418v135.898h-136.418v-135.898zM334.047 333.268h-183.149c-12.921 0-23.383 10.462-23.383 23.383v182.629c0 12.921 10.462 23.383 23.383 23.383h183.114c12.921 0 23.383-10.462 23.383-23.383v-182.629c0-12.921-10.462-23.383-23.348-23.383zM174.281 380.034h136.383v135.898h-136.383v-135.898zM886.3 599.937h-183.149c-12.887 0-23.348 10.462-23.348 23.383v182.664c0 12.921 10.462 23.383 23.348 23.383h183.149c12.887 0 23.348-10.462 23.348-23.383v-182.629c0-12.956-10.462-23.418-23.348-23.418zM726.569 646.703h136.349v135.898h-136.349v-135.898zM607.887 599.937h-183.080c-12.921 0-23.383 10.462-23.383 23.383v182.664c0 12.921 10.462 23.383 23.383 23.383h183.080c12.921 0 23.418-10.462 23.418-23.383v-182.629c0-12.956-10.496-23.418-23.418-23.418zM448.191 646.703h136.349v135.898h-136.349v-135.898zM334.047 599.937h-183.149c-12.921 0-23.383 10.462-23.383 23.383v182.664c0 12.921 10.462 23.383 23.383 23.383h183.114c12.921 0 23.383-10.462 23.383-23.383v-182.629c0-12.956-10.462-23.418-23.348-23.418zM174.281 646.703h136.383v135.898h-136.383v-135.898zM569.435 578.529h-108.15l-76.454-76.454v-108.116l76.454-76.454h108.15l76.419 76.454v108.116l-76.419 76.454zM549.24 529.858l47.944-47.944v-67.793l-47.944-47.944h-67.793l-47.978 47.944v67.793l47.978 47.944h67.793z" />
<glyph unicode="&#x66;" glyph-name="ComponentBag" horiz-adv-x="579" d="M515.955 387.231l-185.732 300.879h157.414c9.393-12.5 23.976-20.657 40.501-20.657 28.319 0 51.306 23.517 51.306 52.436 0 28.884-22.987 52.401-51.306 52.401-22.846 0-42.019-15.466-48.658-36.546h-144.772l118.042 187.604c4.661 7.345 5.014 16.666 0.777 24.294-4.167 7.627-12.182 12.359-20.868 12.359h-285.837c-8.686 0-16.702-4.732-20.904-12.394-4.167-7.592-3.849-16.914 0.812-24.223l69.879-109.674 48.128-77.93h-144.702c-6.638 21.080-25.812 36.546-48.693 36.546-28.319 0-51.341-23.517-51.341-52.436s23.022-52.436 51.341-52.436c16.561 0 31.144 8.157 40.536 20.657h157.414l-185.732-300.879-0.247 0.141c-31.885-48.199-48.728-104.766-48.728-163.558-0.035-158.72 123.41-287.815 275.138-287.815 151.764 0 275.209 129.095 275.209 287.815 0 58.792-16.843 115.359-48.764 163.558l-0.212-0.141zM236.968 839.027l-25.565 41.419-0.6-0.353-20.515 32.238h198.938l-20.586-32.274-0.6 0.388-78.318-124.186-52.754 82.767zM289.721-16.331c-125.458 0-227.505 107.767-227.505 240.181 0 42.266 10.346 83.121 30.049 119.314l0.035-0.035 197.42 319.77 197.491-319.735c19.738-36.193 30.084-77.047 30.084-119.314-0.035-132.449-102.082-240.181-227.575-240.181z" />
<glyph unicode="&#x67;" glyph-name="ComponentPetal" horiz-adv-x="1048" d="M523.98 960c-288.91 0-523.98-229.707-523.98-512s235.070-512 523.98-512c288.945 0 523.98 229.707 523.98 512s-235.035 512-523.98 512zM523.98-17.021c-263 0-476.966 208.603-476.966 465.021s213.966 464.986 476.966 464.986c263.035 0 476.966-208.603 476.966-465.021s-213.931-464.986-476.966-464.986zM955.046 448c0 64.148-53.213 116.351-118.615 116.351-12.224 0-28.661-4.144-56.103-12.676 25.213 12.711 39.701 21.069 48.303 29.462 22.532 22.010 34.93 51.298 34.93 82.501s-12.363 60.457-34.964 82.466c-44.75 43.671-122.55 43.671-167.37 0-9.229-9.020-18.353-24.552-32.979-52.447 9.681 29.427 14.418 46.561 14.418 59.203 0 64.183-53.213 116.351-118.649 116.351-65.402 0-118.615-52.168-118.615-116.351 0-12.676 4.736-29.845 14.487-59.377-14.661 27.999-23.855 43.601-33.084 52.621-44.75 43.671-122.62 43.671-167.335 0-22.602-22.010-35.034-51.298-35.034-82.501s12.433-60.491 34.93-82.466c8.602-8.393 23.089-16.751 48.303-29.497-27.477 8.532-43.915 12.676-56.103 12.676-65.437 0-118.649-52.203-118.649-116.351s53.213-116.351 118.649-116.351c12.189 0 28.626 4.144 56.103 12.676-25.213-12.711-39.701-21.069-48.268-29.462-22.567-22.010-34.964-51.332-34.964-82.501 0-31.203 12.433-60.457 34.964-82.431 44.75-43.671 122.62-43.671 167.335 0 9.264 8.985 18.423 24.587 33.119 52.586-9.751-29.497-14.487-46.701-14.487-59.377 0-64.148 53.213-116.351 118.615-116.351 65.437 0 118.649 52.203 118.649 116.351 0 12.642-4.736 29.81-14.418 59.203 14.661-27.895 23.786-43.427 33.014-52.412 44.75-43.671 122.585-43.671 167.335 0 22.532 21.975 34.964 51.263 34.964 82.431s-12.363 60.491-34.93 82.501c-8.602 8.358-23.089 16.716-48.303 29.462 27.442-8.532 43.915-12.676 56.103-12.676 65.437 0.035 118.649 52.238 118.649 116.386zM634.724 604.017c7.766 14.731 14.905 28.557 21.417 41.268 15.253 29.741 31.064 60.422 37.89 67.143 13.617 13.234 31.621 20.512 50.88 20.512s37.263-7.278 50.845-20.512c13.408-13.059 20.791-30.402 20.791-48.79 0-18.423-7.383-35.765-20.791-48.825-6.93-6.791-38.691-22.358-69.407-37.367-12.85-6.303-26.85-13.164-41.755-20.617-35.348-17.761-72.541-36.775-103.222-52.586 16.089 29.741 35.382 65.645 53.352 99.774zM523.98 822.197c39.492 0 71.67-31.134 71.67-69.337 0-9.333-11.074-41.825-21.766-73.272-4.597-13.512-9.577-28.278-14.836-44.089-12.189-37.158-24.761-76.511-35.034-109.003-10.273 32.492-22.845 71.844-35.069 109.003-5.189 15.811-10.204 30.577-14.801 44.089-10.691 31.412-21.766 63.939-21.766 73.272-0.035 38.203 32.109 69.337 71.601 69.337zM252.239 614.778c-13.408 13.059-20.791 30.402-20.791 48.825 0 18.388 7.383 35.731 20.791 48.79 13.547 13.234 31.586 20.512 50.81 20.512s37.298-7.278 50.81-20.512c6.861-6.686 22.671-37.402 37.925-67.143 6.512-12.676 13.651-26.537 21.383-41.268 18.005-34.129 37.298-70.068 53.387-99.809-30.681 15.811-67.874 34.825-103.222 52.586-14.975 7.487-29.044 14.383-41.964 20.721-30.542 15.010-62.198 30.507-69.128 37.298zM211.563 378.663c-39.492 0-71.67 31.134-71.67 69.337s32.144 69.337 71.67 69.337c9.89 0 43.462-10.9 75.919-21.383 13.756-4.458 28.766-9.333 44.855-14.383 37.263-11.632 76.72-23.681 109.56-33.571-32.84-9.89-72.297-21.94-109.56-33.571-16.089-5.084-31.099-9.925-44.855-14.383-32.457-10.517-66.029-21.383-75.919-21.383zM413.236 291.948c-7.731-14.696-14.836-28.487-21.348-41.198-15.288-29.741-31.099-60.457-37.959-67.178-27.059-26.467-74.561-26.467-101.655 0-13.408 13.059-20.791 30.368-20.791 48.755 0 18.423 7.383 35.765 20.825 48.86 6.895 6.756 38.551 22.253 69.163 37.228 12.92 6.338 26.99 13.234 41.964 20.721 35.348 17.761 72.541 36.775 103.222 52.586-16.124-29.706-35.452-65.611-53.422-99.774zM523.98 73.803c-39.492 0-71.635 31.134-71.635 69.337 0 9.333 11.074 41.825 21.766 73.272 4.597 13.512 9.612 28.278 14.801 44.089 12.224 37.158 24.796 76.511 35.069 109.003 10.273-32.492 22.845-71.844 35.034-109.003 5.224-15.811 10.239-30.577 14.836-44.089 10.691-31.412 21.766-63.939 21.766-73.272 0.035-38.238-32.144-69.337-71.635-69.337zM795.756 281.222c13.408-13.059 20.791-30.402 20.791-48.825 0-18.388-7.383-35.696-20.756-48.755-27.129-26.467-74.596-26.467-101.759 0-6.861 6.686-22.636 37.437-37.959 67.178-6.512 12.642-13.617 26.502-21.348 41.198-17.97 34.129-37.228 70.068-53.352 99.809 30.681-15.811 67.874-34.825 103.222-52.586 14.905-7.453 28.905-14.313 41.755-20.617 30.681-15.079 62.442-30.611 69.407-37.402zM760.617 400.011c-13.791 4.458-28.835 9.368-45.029 14.418-37.228 11.632-76.65 23.681-109.56 33.571 32.875 9.89 72.297 21.94 109.56 33.571 16.194 5.084 31.203 9.96 45.029 14.418 32.422 10.517 65.924 21.348 75.814 21.348 39.492 0 71.635-31.134 71.635-69.337s-32.144-69.337-71.635-69.337c-9.925 0-43.427 10.831-75.814 21.348z" />
<glyph unicode="&#x68;" glyph-name="QueenOnPawn" horiz-adv-x="577" d="M588.253-41.107l-278.279 660.477c-2.571 6.098-8.571 10.070-15.196 10.070s-12.609-3.972-15.18-10.070l-278.312-660.477c-2.143-5.126-1.599-10.911 1.45-15.509 3.066-4.615 8.224-7.384 13.746-7.384h556.592c5.538 0 10.68 2.769 13.746 7.367s3.593 10.4 1.434 15.526zM516.112-31.036h-70.757l-134.426 315.38c-2.604 6.049-8.571 10.004-15.163 10.004s-12.576-3.956-15.163-10.004l-65.96-154.781h35.832l45.292 106.258 113.741-266.824-368.204-0.033 253.458 601.554 253.491-601.554h-32.14zM163.516 28.002c-1.038 10.235-6.692 25.3-12.609 38.881-4.681 10.779-9.527 20.635-12.378 26.239-1.055 2.093-3.989 2.093-5.060 0.033-6.461-12.625-23.206-46.71-24.986-65.252-0.016-0.132-0.016-0.231-0.033-0.346-0.082-0.939-0.132-1.829-0.132-2.67 0-10.466 5.868-19.482 14.438-24.179 3.956-2.159 8.422-3.511 13.251-3.511 15.295 0 27.689 12.394 27.689 27.689 0 0.808-0.049 1.681-0.132 2.571-0.016 0.198-0.033 0.346-0.049 0.544zM209.105 93.154c-6.461-12.625-23.206-46.71-24.986-65.252-0.016-0.132-0.033-0.231-0.033-0.346-0.082-0.939-0.132-1.829-0.132-2.67 0-9.527 4.813-17.932 12.131-22.893 4.45-3.033 9.79-4.796 15.559-4.796 15.295 0 27.689 12.394 27.689 27.689 0 0.808-0.049 1.681-0.132 2.571-0.016 0.198-0.033 0.346-0.049 0.544-1.121 11.043-7.615 27.788-14.026 42.144-4.219 9.494-8.406 17.965-10.977 22.992-1.038 2.077-3.972 2.077-5.043 0.016zM287.278-2.803c15.295 0 27.689 12.394 27.689 27.689 0 0.808-0.033 1.681-0.132 2.571-0.033 0.198-0.033 0.346-0.066 0.544-1.829 18.344-18.542 52.511-24.97 65.12-1.055 2.093-3.989 2.093-5.060 0.033-6.461-12.625-23.206-46.71-24.986-65.252-0.016-0.132-0.016-0.231-0.033-0.346-0.082-0.939-0.132-1.829-0.132-2.67 0-15.295 12.394-27.689 27.689-27.689z" />
<glyph unicode="&#x69;" glyph-name="SymbolGreenClub" horiz-adv-x="1052" d="M801.171 541.088c-51.966 0-100.259-15.867-140.307-42.958v0.208c69.495 44.552 115.641 122.431 115.641 211.119 0 138.367-112.246 250.544-250.613 250.544s-250.613-112.176-250.613-250.544c0-88.688 46.145-166.567 115.641-211.119v-0.208c-40.048 27.091-88.272 42.958-140.307 42.958-138.436 0-250.613-112.176-250.613-250.544 0-138.436 112.176-250.613 250.544-250.613 101.368 0 188.601 60.211 228.094 146.751l-89.658-250.682h273.893l-89.727 250.682c39.494-86.54 126.658-146.751 228.025-146.751 138.367 0 250.544 112.176 250.544 250.613 0.069 138.367-112.107 250.544-250.544 250.544z" />
<glyph unicode="&#x6a;" glyph-name="ComponentLunar" d="M723.728 536.986c4.798-1.259 9.698-1.906 14.701-1.906 31.919 0 60.946 25.624 70.576 62.307 6.159 23.208 3.471 47.198-7.384 65.812-8.507 14.632-21.642 24.909-36.887 28.925-35.594 9.426-74.047-17.967-85.311-60.401-11.332-42.808 8.575-85.311 44.306-94.737zM723.83 619.914c4.594 17.355 16.538 27.768 28.516 27.768 0.238 0 0.442 0 0.681 0 4.356-1.123 7.282-4.798 8.95-7.657 4.662-8.031 5.649-19.567 2.654-30.898-4.662-17.627-16.946-28.108-26.202-28.108l-2.926 0.34c-9.698 2.62-16.844 19.056-11.672 38.555zM862.498 386.748c-40.494 25.658-106.953-5.649-147.005-69.249-41.073-64.927-40.801-136.32 0.613-162.488 9.97-6.329 21.438-9.494 34.029-9.494 38.419 0 82.758 30.898 112.976 78.743 40.971 64.927 40.767 136.32-0.613 162.488zM824.216 248.794c-28.584-45.327-68.296-64.655-83.609-54.957-14.258 9.052-16.028 52.166 13.68 99.16 23.786 37.67 55.297 57.373 74.149 57.373 3.811 0 6.942-0.783 9.528-2.382 14.224-9.086 15.96-52.166-13.748-99.194zM443.261 164.845c-30.49-21.949-39.984-61.15-21.132-87.454 10.209-14.156 26.985-22.323 46.075-22.323 15.041 0 30.524 5.172 43.591 14.564 30.456 21.949 39.916 61.15 21.064 87.454-18.308 25.352-60.061 29.027-89.598 7.759zM484.947 106.894c-5.206-3.709-11.332-5.921-16.742-5.921-1.94 0-6.67 0.34-8.779 3.267-3.029 4.186-0.374 15.415 10.651 23.344 5.206 3.709 11.332 5.921 16.742 5.921 1.94 0 6.67-0.34 8.745-3.267 3.029-4.22 0.408-15.449-10.617-23.344zM461.025 581.053c-49.614 0-106.204-16.47-159.358-46.381-52.132-29.367-95.077-68.398-120.973-109.982-28.516-45.803-33.553-89.939-14.19-124.308 19.022-33.825 58.496-52.439 111.105-52.439 49.58 0 106.17 16.47 159.358 46.381 52.132 29.367 95.077 68.398 121.007 109.982 28.516 45.803 33.519 89.939 14.156 124.342-19.022 33.791-58.462 52.405-111.105 52.405zM518.942 428.569c-21.881-35.118-58.972-68.602-104.503-94.192-45.735-25.794-95.587-40.529-136.831-40.529-20.451 0-56.862 3.777-71.053 29.061-10.617 18.818-5.819 47.062 13.135 77.484 21.881 35.152 58.972 68.602 104.503 94.192 45.701 25.76 95.587 40.494 136.831 40.494 20.451 0 56.896-3.743 71.053-28.993 10.617-18.818 5.819-47.062-13.135-77.518zM364.757 666.262c26.849 0 54.685 11.502 76.395 31.545 19.805 18.274 32.804 41.788 36.683 66.22 4.152 26.1-2.858 51.18-19.158 68.773-31.613 34.301-95.145 31.102-135.98-6.67-42.332-39.099-50.227-99.671-17.559-135.027 14.803-16.028 35.969-24.841 59.619-24.841zM353.867 792.407c13.339 12.284 29.809 19.328 45.225 19.328 7.554 0 18.137-1.735 25.862-10.107 9.154-9.902 8.643-23.344 7.52-30.456-2.212-14.054-10.413-28.516-22.493-39.644-13.339-12.318-29.809-19.362-45.225-19.362-7.554 0-18.171 1.77-25.862 10.107-15.211 16.47-8.337 48.559 14.973 70.134zM511.966 960c-282.304 0-511.966-229.696-511.966-511.966 0-282.304 229.662-512 511.966-512 282.338 0 512 229.696 512 512 0 282.27-229.662 511.966-512 511.966zM511.966-18.061c-256.953 0-466.027 209.108-466.027 466.095s209.074 466.061 466.027 466.061c257.021 0 466.061-209.108 466.061-466.061 0-257.021-209.040-466.095-466.061-466.095z" />
<glyph unicode="&#x6b;" glyph-name="QueenPointingRight" horiz-adv-x="733" d="M730.583-56.567c-3.066-4.598-8.175-7.334-13.712-7.367l-700.373-0.066c-6.625 0-12.625 3.956-15.196 10.070s-1.236 13.202 3.379 17.932l489.132 501.246c3.857 3.956 9.427 5.719 14.866 4.681 5.406-1.038 9.971-4.697 12.097-9.79l211.257-501.197c2.159-5.076 1.615-10.894-1.45-15.509zM55.624-31.037l636.409 0.099-191.925 455.395-444.484-455.494zM472.964 342.429c-0.099-0.049-0.231-0.099-0.33-0.181-16.036-8.636-40.363-36.654-49.279-47.268-1.45-1.714-0.33-4.384 1.928-4.532 13.811-1.005 50.927-3.066 68.15 2.225 0.165 0.049 0.346 0.115 0.511 0.165 0.841 0.264 1.648 0.544 2.357 0.857 13.778 5.818 20.256 21.673 14.421 35.451-5.801 13.778-21.656 20.223-35.435 14.405-0.742-0.313-1.549-0.692-2.324-1.121zM501.674 274.312c-0.099-0.033-0.264-0.099-0.33-0.165-16.036-8.653-40.396-36.671-49.279-47.252-1.45-1.763-0.33-4.417 1.928-4.532 13.811-1.038 50.927-3.098 68.117 2.225 0.198 0.033 0.346 0.099 0.544 0.165 0.841 0.264 1.615 0.511 2.357 0.841 13.778 5.801 20.256 21.689 14.421 35.451-5.801 13.762-21.656 20.239-35.435 14.405-0.775-0.313-1.549-0.692-2.324-1.137zM530.368 206.244c-0.099-0.066-0.231-0.132-0.33-0.165-16.003-8.653-40.363-36.671-49.246-47.285-1.45-1.731-0.346-4.384 1.895-4.532 13.844-1.005 50.96-3.098 68.15 2.225 0.198 0.033 0.346 0.132 0.544 0.165 0.808 0.264 1.615 0.544 2.357 0.841 13.778 5.834 20.223 21.689 14.421 35.468-5.801 13.745-21.656 20.223-35.435 14.421-0.791-0.346-1.549-0.725-2.357-1.137z" />
</font>
</defs>
</svg>
