<?xml version="1.0" encoding="iso-8859-1"?>
<!-- Generator: Adobe Illustrator 16.0.0, SVG Export Plug-In . SVG Version: 6.00 Build 0)  -->
<!DOCTYPE svg PUBLIC "-//W3C//DTD SVG 1.1//EN" "http://www.w3.org/Graphics/SVG/1.1/DTD/svg11.dtd">
<svg version="1.1" xmlns="http://www.w3.org/2000/svg" xmlns:xlink="http://www.w3.org/1999/xlink" x="0px" y="0px"
	 width="23.271px" height="23.416px" viewBox="0 0 23.271 23.416" style="enable-background:new 0 0 23.271 23.416;"
	 xml:space="preserve">
<g id="LightningBolt">
	<path style="fill:#231F20;" d="M19.758,1.033H7.496c-0.773,0-1.53,0.315-2.079,0.866L0.955,6.396l0.001,0.001
		C0.644,6.711,0.45,7.144,0.45,7.623v14.053c0,0.961,0.78,1.74,1.741,1.74h13.946c0.484,0,0.924-0.199,1.239-0.519l4.458-4.493
		c0.544-0.545,0.856-1.303,0.856-2.076V3.975C22.69,2.353,21.375,1.033,19.758,1.033z M6.596,16.972
		c-0.167,0-0.316-0.104-0.381-0.265c-0.064-0.16-0.029-0.346,0.087-0.469l1.729-1.826H6.596c-0.167,0-0.316-0.104-0.381-0.264
		c-0.064-0.16-0.029-0.346,0.087-0.469L9.1,10.732c0.078-0.082,0.184-0.127,0.293-0.127h2.39c0.166,0,0.316,0.104,0.38,0.265
		c0.064,0.159,0.029,0.345-0.087,0.468l-2.247,2.367h0.901c0.165,0,0.315,0.104,0.381,0.264c0.063,0.16,0.029,0.346-0.088,0.469
		l-1.583,1.671h0.75c0.179,0,0.338,0.122,0.393,0.3s-0.008,0.372-0.153,0.48l-4.089,3.047l-0.501,0.373
		c-0.074,0.055-0.157,0.08-0.241,0.08c-0.115,0-0.226-0.049-0.307-0.144c-0.076-0.089-0.103-0.199-0.096-0.31
		C5.2,19.84,5.227,19.746,5.292,19.67l2.331-2.698H6.596z M15.766,21.201v-13.2H3.252c-0.371,0-0.671-0.3-0.671-0.671
		s0.3-0.671,0.671-0.671h12.904l0.641-0.646l1.487-1.5l1.597-1.61c0.261-0.263,0.687-0.265,0.949-0.004
		c0.264,0.261,0.266,0.686,0.004,0.949l-1.625,1.639l-1.463,1.475l-0.639,0.645v13.595c0,0.369-0.301,0.67-0.671,0.67
		C16.065,21.871,15.766,21.57,15.766,21.201z"/>
</g>
<g id="Layer_1">
</g>
</svg>
