<?xml version="1.0" encoding="iso-8859-1"?>
<!-- Generator: Adobe Illustrator 16.0.0, SVG Export Plug-In . SVG Version: 6.00 Build 0)  -->
<!DOCTYPE svg PUBLIC "-//W3C//DTD SVG 1.1//EN" "http://www.w3.org/Graphics/SVG/1.1/DTD/svg11.dtd">
<svg version="1.1" xmlns="http://www.w3.org/2000/svg" xmlns:xlink="http://www.w3.org/1999/xlink" x="0px" y="0px"
	 width="23.271px" height="23.416px" viewBox="0 0 23.271 23.416" style="enable-background:new 0 0 23.271 23.416;"
	 xml:space="preserve">
<g id="LightningPyramid">
	<path style="fill:#231F20;" d="M19.871,0.973H7.537c-0.775,0-1.535,0.314-2.087,0.865L0.962,6.327l0.001,0
		C0.646,6.644,0.45,7.082,0.45,7.564v14.029c0,0.967,0.784,1.75,1.751,1.75h14.028c0.483,0,0.921-0.195,1.237-0.513l4.492-4.49
		c0.556-0.558,0.862-1.298,0.862-2.085V3.923C22.821,2.296,21.498,0.973,19.871,0.973z M13.736,19.843
		c0.006,0.098-0.008,0.195-0.064,0.278c-0.083,0.123-0.222,0.196-0.37,0.196H6.108c-0.148,0-0.287-0.073-0.369-0.196
		c-0.057-0.083-0.071-0.181-0.065-0.278c0.003-0.046,0.001-0.093,0.019-0.138l3.597-9.089c0.067-0.171,0.233-0.283,0.417-0.283
		s0.348,0.112,0.416,0.283l3.596,9.089C13.735,19.75,13.733,19.797,13.736,19.843z M4.769,10.617
		c0.068-0.171,0.232-0.283,0.416-0.283s0.349,0.112,0.416,0.283L6.8,13.645c0.055,0.139,0.037,0.295-0.047,0.416
		c-0.082,0.123-0.222,0.196-0.369,0.196H3.986c-0.012,0-0.022-0.007-0.034-0.009c-0.136-0.01-0.26-0.074-0.336-0.188
		c-0.084-0.121-0.102-0.277-0.046-0.416l0.382-0.965L4.769,10.617z M15.671,20.785V8.134H3.608c-0.373,0-0.675-0.302-0.675-0.675
		s0.302-0.675,0.675-0.675h12.457l0.834-0.836l1.471-1.474l1.286-1.29c0.264-0.265,0.69-0.264,0.954-0.001
		c0.264,0.263,0.265,0.69,0.001,0.955l-1.292,1.295l-1.47,1.474l-0.829,0.832v13.047c0,0.373-0.302,0.675-0.675,0.675
		S15.671,21.158,15.671,20.785z"/>
</g>
<g id="Layer_1">
</g>
</svg>
