<?xml version="1.0" encoding="iso-8859-1"?>
<!-- Generator: Adobe Illustrator 16.0.0, SVG Export Plug-In . SVG Version: 6.00 Build 0)  -->
<!DOCTYPE svg PUBLIC "-//W3C//DTD SVG 1.1//EN" "http://www.w3.org/Graphics/SVG/1.1/DTD/svg11.dtd">
<svg version="1.1" xmlns="http://www.w3.org/2000/svg" xmlns:xlink="http://www.w3.org/1999/xlink" x="0px" y="0px"
	 width="23.271px" height="23.416px" viewBox="0 0 23.271 23.416" style="enable-background:new 0 0 23.271 23.416;"
	 xml:space="preserve">
<g id="LightningRecycle">
	<path style="fill:#231F20;" d="M19.871,0.973H7.537c-0.786,0-1.526,0.306-2.087,0.863L0.962,6.326l0.001,0
		C0.646,6.643,0.45,7.081,0.45,7.563v14.029c0,0.967,0.784,1.751,1.751,1.751h14.028c0.483,0,0.921-0.196,1.237-0.514l4.493-4.491
		c0.556-0.558,0.861-1.298,0.861-2.084V3.922C22.821,2.296,21.498,0.973,19.871,0.973z M2.755,14.178
		c0.065-0.156,0.219-0.259,0.389-0.259l0.809-0.001h0.215c0.6-1.837,2.332-3.125,4.303-3.127h0.002c0.736,0,1.467,0.18,2.113,0.521
		c0.199,0.105,0.346,0.281,0.412,0.497c0.066,0.215,0.045,0.444-0.06,0.644s-0.282,0.346-0.497,0.413
		c-0.215,0.066-0.444,0.045-0.645-0.061c-0.41-0.217-0.855-0.326-1.322-0.326H8.47c-1.037,0-1.971,0.572-2.465,1.438l1.157-0.001
		c0.171,0,0.323,0.102,0.388,0.259c0.065,0.157,0.029,0.337-0.09,0.458l-2.009,2.011c-0.077,0.078-0.185,0.123-0.297,0.123
		s-0.218-0.044-0.297-0.123L3.952,15.74l-1.105-1.104C2.726,14.516,2.69,14.335,2.755,14.178z M5.986,19.11
		c-0.39-0.256-0.498-0.78-0.241-1.17c0.161-0.245,0.432-0.38,0.706-0.38c0.159,0,0.32,0.045,0.462,0.14
		c0.465,0.304,1.004,0.465,1.561,0.465h0.001c1.149-0.001,2.138-0.688,2.585-1.671l-1.202,0.001H9.856
		c-0.169,0-0.322-0.103-0.389-0.259c-0.064-0.157-0.028-0.338,0.092-0.458l2.008-2.012c0.165-0.164,0.43-0.164,0.594,0l2.012,2.008
		c0.119,0.12,0.156,0.302,0.09,0.457c-0.063,0.157-0.217,0.261-0.387,0.261l-1.029,0.001c-0.203,0.759-0.598,1.457-1.17,2.028
		c-0.83,0.834-1.928,1.293-3.098,1.32c-0.035,0.002-0.069,0.011-0.104,0.011H8.474c-0.048,0-0.095-0.009-0.143-0.011
		C7.494,19.816,6.685,19.57,5.986,19.11z M15.671,20.784V8.133H3.608c-0.373,0-0.675-0.302-0.675-0.675s0.302-0.675,0.675-0.675
		h12.457l0.834-0.836l1.469-1.473l1.288-1.292c0.264-0.265,0.69-0.264,0.954-0.001c0.264,0.263,0.265,0.69,0.001,0.955l-1.292,1.296
		l-1.47,1.474l-0.829,0.832v13.047c0,0.372-0.302,0.675-0.675,0.675S15.671,21.156,15.671,20.784z"/>
</g>
<g id="Layer_1">
</g>
</svg>
