<?xml version="1.0" encoding="iso-8859-1"?>
<!-- Generator: Adobe Illustrator 16.0.0, SVG Export Plug-In . SVG Version: 6.00 Build 0)  -->
<!DOCTYPE svg PUBLIC "-//W3C//DTD SVG 1.1//EN" "http://www.w3.org/Graphics/SVG/1.1/DTD/svg11.dtd">
<svg version="1.1" xmlns="http://www.w3.org/2000/svg" xmlns:xlink="http://www.w3.org/1999/xlink" x="0px" y="0px"
	 width="23.271px" height="23.416px" viewBox="0 0 23.271 23.416" style="enable-background:new 0 0 23.271 23.416;"
	 xml:space="preserve">
<g id="LightningArrow">
	<path style="fill:#231F20;" d="M19.871,0.973H7.537c-0.788,0-1.529,0.307-2.087,0.864L0.962,6.325l0.002,0.001
		C0.646,6.643,0.45,7.081,0.45,7.564v14.03c0,0.967,0.784,1.75,1.751,1.75h14.028c0.483,0,0.921-0.195,1.237-0.513l4.49-4.489
		c0.558-0.557,0.864-1.298,0.864-2.086V3.922C22.821,2.296,21.498,0.973,19.871,0.973z M9.128,13.715v-1.843
		c0-0.173,0.104-0.33,0.265-0.396c0.159-0.065,0.344-0.029,0.467,0.094l3.603,3.603c0.08,0.08,0.125,0.189,0.125,0.303
		s-0.045,0.223-0.125,0.303l-3.603,3.604c-0.082,0.082-0.192,0.125-0.304,0.125c-0.055,0-0.11-0.01-0.163-0.033
		c-0.16-0.066-0.265-0.223-0.265-0.395v-1.844H3.952H3.597c-0.236,0-0.428-0.191-0.428-0.43v-2.662c0-0.236,0.191-0.428,0.428-0.428
		h0.355H9.128z M15.671,20.785V8.133H3.608c-0.373,0-0.675-0.302-0.675-0.675s0.302-0.675,0.675-0.675h12.457l0.834-0.836
		l1.47-1.474l1.287-1.291c0.264-0.265,0.69-0.264,0.954-0.001c0.264,0.263,0.265,0.69,0.001,0.955l-1.292,1.296l-1.47,1.474
		l-0.829,0.832v13.048c0,0.372-0.302,0.674-0.675,0.674S15.671,21.157,15.671,20.785z"/>
</g>
<g id="Layer_1">
</g>
</svg>
