<?xml version="1.0" encoding="iso-8859-1"?>
<!-- Generator: Adobe Illustrator 16.0.0, SVG Export Plug-In . SVG Version: 6.00 Build 0)  -->
<!DOCTYPE svg PUBLIC "-//W3C//DTD SVG 1.1//EN" "http://www.w3.org/Graphics/SVG/1.1/DTD/svg11.dtd">
<svg version="1.1" xmlns="http://www.w3.org/2000/svg" xmlns:xlink="http://www.w3.org/1999/xlink" x="0px" y="0px"
	 width="23.271px" height="23.416px" viewBox="0 0 23.271 23.416" style="enable-background:new 0 0 23.271 23.416;"
	 xml:space="preserve">
<g id="LightningAtom">
	<path style="fill:#231F20;" d="M19.876,0.973H7.532C6.745,0.975,6.006,1.282,5.451,1.837L0.962,6.325l0.001,0.001
		C0.646,6.643,0.451,7.081,0.451,7.564v14.03c0,0.963,0.778,1.744,1.741,1.75h14.048c0.48-0.004,0.916-0.199,1.23-0.516l4.487-4.486
		c0.556-0.555,0.86-1.291,0.863-2.076V3.913C22.815,2.292,21.497,0.976,19.876,0.973z M3.43,15.416
		c0.191-0.008,0.365,0.049,0.522,0.133c0.25,0.135,0.445,0.357,0.515,0.641l1.652-0.076c-0.005-0.057-0.008-0.111-0.008-0.166
		c0-0.477,0.164-0.914,0.438-1.262l-1.781-1.757c-0.255,0.136-0.578,0.101-0.793-0.114c-0.01-0.01-0.014-0.024-0.023-0.035
		c-0.224-0.254-0.224-0.629,0-0.883c0.009-0.011,0.013-0.024,0.023-0.035c0.263-0.264,0.689-0.264,0.952,0
		c0.213,0.213,0.251,0.53,0.12,0.785L6.823,14.4c0.31-0.268,0.7-0.443,1.129-0.484v-2.193c-0.467-0.093-0.82-0.505-0.82-1
		c0-0.563,0.456-1.019,1.019-1.019s1.019,0.456,1.019,1.019c0,0.495-0.353,0.907-0.821,1v2.193c0.572,0.055,1.074,0.348,1.409,0.777
		l1.671-1.744c-0.127-0.181-0.196-0.404-0.185-0.644c0.033-0.562,0.516-0.99,1.078-0.958c0.562,0.032,0.991,0.515,0.958,1.076
		c-0.033,0.563-0.515,0.992-1.077,0.958c-0.18-0.01-0.346-0.066-0.488-0.158l-1.739,1.814c0.133,0.266,0.21,0.566,0.214,0.883
		l1.416-0.066c0.07-0.279,0.317-0.49,0.619-0.506c0.372-0.018,0.687,0.27,0.704,0.643c0.018,0.371-0.27,0.686-0.642,0.703
		c-0.301,0.014-0.566-0.174-0.664-0.443l-1.468,0.068c-0.082,0.441-0.307,0.834-0.625,1.127l2.026,1.666
		c0.177-0.145,0.401-0.23,0.646-0.23c0.542,0,0.975,0.426,1.008,0.959c0.001,0.021,0.012,0.039,0.012,0.061
		c0,0.563-0.456,1.02-1.02,1.02c-0.563,0-1.019-0.457-1.019-1.02c0-0.021,0.007-0.039,0.007-0.061
		c0.01-0.15,0.045-0.295,0.114-0.422l-2.101-1.727c-0.254,0.152-0.543,0.254-0.854,0.283v1.865v0.275
		c0.275,0.086,0.475,0.342,0.475,0.645c0,0.371-0.301,0.672-0.673,0.672s-0.674-0.301-0.674-0.672c0-0.303,0.2-0.559,0.475-0.645
		v-0.275v-1.865c-0.367-0.035-0.705-0.17-0.99-0.373l-1.517,1.434c0.13,0.266,0.077,0.594-0.154,0.799
		c-0.003,0.002-0.008,0.004-0.012,0.006c-0.252,0.215-0.609,0.205-0.858,0c-0.026-0.021-0.058-0.033-0.081-0.061
		c-0.247-0.277-0.223-0.703,0.055-0.951c0.221-0.197,0.533-0.219,0.777-0.08l1.491-1.41c-0.218-0.232-0.383-0.518-0.473-0.834
		l-1.704,0.08c-0.048,0.322-0.254,0.588-0.534,0.738c-0.129,0.068-0.27,0.121-0.427,0.129c-0.562,0.027-1.039-0.408-1.066-0.971
		C2.433,15.92,2.868,15.443,3.43,15.416z M15.671,20.785V8.133H3.609c-0.373,0-0.675-0.302-0.675-0.675s0.302-0.675,0.675-0.675
		h12.457l0.834-0.836l1.47-1.474l1.287-1.291c0.264-0.265,0.69-0.264,0.954-0.001c0.264,0.263,0.265,0.69,0.001,0.955l-1.292,1.296
		l-1.47,1.474l-0.829,0.832v13.048c0,0.373-0.302,0.674-0.675,0.674S15.671,21.158,15.671,20.785z"/>
</g>
<g id="Layer_1">
</g>
</svg>
