<?xml version="1.0" encoding="iso-8859-1"?>
<!-- Generator: Adobe Illustrator 16.0.0, SVG Export Plug-In . SVG Version: 6.00 Build 0)  -->
<!DOCTYPE svg PUBLIC "-//W3C//DTD SVG 1.1//EN" "http://www.w3.org/Graphics/SVG/1.1/DTD/svg11.dtd">
<svg version="1.1" xmlns="http://www.w3.org/2000/svg" xmlns:xlink="http://www.w3.org/1999/xlink" x="0px" y="0px"
	 width="41.954px" height="40.726px" viewBox="0 0 41.954 40.726" style="enable-background:new 0 0 41.954 40.726;"
	 xml:space="preserve">
<g id="Blank">
	<path style="fill:#231F20;" d="M40.171,1.566H11.63c-0.26,0-0.509,0.101-0.695,0.282L1.088,11.38
		c-0.188,0.182-0.305,0.437-0.305,0.718v27.627c0,0.553,0.448,1,1,1h28.541c0.271,0,0.516-0.107,0.695-0.281l9.847-9.532
		c0.195-0.188,0.305-0.448,0.305-0.719V2.566C41.171,2.014,40.724,1.566,40.171,1.566z M29.324,38.726H2.783V13.099h26.541V38.726z
		 M29.92,11.099H4.254l7.781-7.532H37.7L29.92,11.099z M39.171,29.77l-7.847,7.596V12.522l7.847-7.596V29.77z"/>
</g>
<g id="Layer_1">
</g>
</svg>
