<?xml version="1.0" encoding="iso-8859-1"?>
<!-- Generator: Adobe Illustrator 16.0.0, SVG Export Plug-In . SVG Version: 6.00 Build 0)  -->
<!DOCTYPE svg PUBLIC "-//W3C//DTD SVG 1.1//EN" "http://www.w3.org/Graphics/SVG/1.1/DTD/svg11.dtd">
<svg version="1.1" xmlns="http://www.w3.org/2000/svg" xmlns:xlink="http://www.w3.org/1999/xlink" x="0px" y="0px"
	 width="41.954px" height="40.726px" viewBox="0 0 41.954 40.726" style="enable-background:new 0 0 41.954 40.726;"
	 xml:space="preserve">
<g id="Plus">
	<g>
		<path d="M40.171,1.566H11.63c-0.26,0-0.509,0.101-0.695,0.282L1.088,11.38c-0.188,0.182-0.305,0.437-0.305,0.718v27.627
			c0,0.553,0.448,1,1,1h28.541c0.271,0,0.516-0.107,0.695-0.281l9.847-9.532c0.195-0.188,0.305-0.448,0.305-0.719V2.566
			C41.171,2.014,40.724,1.566,40.171,1.566z M29.324,38.726H2.783V13.099h26.541V38.726z M29.92,11.099H4.254l7.781-7.532H37.7
			L29.92,11.099z M39.171,29.77l-7.847,7.596V12.522l7.847-7.596V29.77z"/>
		<path d="M7.767,27.214h6.479v6.407c0,0.936,0.432,1.403,1.26,1.403c0.864,0,1.295-0.468,1.295-1.403v-6.407h6.587
			c0.9,0,1.369-0.432,1.369-1.26c0-0.792-0.469-1.188-1.369-1.188h-6.587v-6.335c0-0.936-0.432-1.403-1.295-1.403
			c-0.828,0-1.26,0.468-1.26,1.403v6.335H7.767c-0.9,0-1.368,0.396-1.368,1.188C6.399,26.782,6.867,27.214,7.767,27.214z"/>
	</g>
</g>
<g id="Layer_1">
</g>
</svg>
