<?xml version="1.0" encoding="iso-8859-1"?>
<!-- Generator: Adobe Illustrator 16.0.0, SVG Export Plug-In . SVG Version: 6.00 Build 0)  -->
<!DOCTYPE svg PUBLIC "-//W3C//DTD SVG 1.1//EN" "http://www.w3.org/Graphics/SVG/1.1/DTD/svg11.dtd">
<svg version="1.1" xmlns="http://www.w3.org/2000/svg" xmlns:xlink="http://www.w3.org/1999/xlink" x="0px" y="0px"
	 width="43.219px" height="43.217px" viewBox="0 0 43.219 43.217" style="enable-background:new 0 0 43.219 43.217;"
	 xml:space="preserve">
<g id="ZendoPyramid">
	<g id="Isolation_Mode">
		<g>
			<path style="fill:#231F20;" d="M38.112,4.942H5.11c-0.552,0-1,0.447-1,1v33c0,0.553,0.448,1,1,1h33.002c0.553,0,1-0.447,1-1v-33
				C39.112,5.39,38.665,4.942,38.112,4.942z M20.175,22.42L6.11,36.485V8.355L20.175,22.42z M7.526,6.942h28.127L21.589,21.006
				L7.526,6.942z M21.589,23.834l14.109,14.108H7.482L21.589,23.834z M23.004,22.42L37.112,8.312v28.217L23.004,22.42z"/>
		</g>
	</g>
</g>
<g id="Layer_1">
</g>
</svg>
