<?xml version="1.0" encoding="iso-8859-1"?>
<!-- Generator: Adobe Illustrator 16.0.0, SVG Export Plug-In . SVG Version: 6.00 Build 0)  -->
<!DOCTYPE svg PUBLIC "-//W3C//DTD SVG 1.1//EN" "http://www.w3.org/Graphics/SVG/1.1/DTD/svg11.dtd">
<svg version="1.1" xmlns="http://www.w3.org/2000/svg" xmlns:xlink="http://www.w3.org/1999/xlink" x="0px" y="0px"
	 width="37.454px" height="43.757px" viewBox="0 0 37.454 43.757" style="enable-background:new 0 0 37.454 43.757;"
	 xml:space="preserve">
<g id="Large">
	<polygon style="fill:#EDE5D4;" points="1.841,42.757 18.726,2.683 35.613,42.757 	"/>
	<polygon style="fill:none;stroke:#1D3160;stroke-width:2;stroke-linejoin:round;stroke-miterlimit:10;" points="1.841,42.757 
		18.726,2.683 35.613,42.757 	"/>
	<g>
		<path style="fill:#1D3160;" d="M7.423,38.204c0-0.008,0-0.016,0.002-0.021c0.107-1.127,1.123-3.195,1.516-3.959
			c0.064-0.125,0.242-0.125,0.307,0c0.391,0.766,1.402,2.84,1.516,3.951c0.002,0.012,0.002,0.023,0.004,0.033
			c0.004,0.055,0.008,0.107,0.008,0.156c0,0.928-0.752,1.68-1.68,1.68s-1.68-0.752-1.68-1.68
			C7.416,38.313,7.417,38.259,7.423,38.204"/>
		<path style="fill:#1D3160;" d="M12.011,38.204c0-0.008,0.002-0.016,0.002-0.021c0.107-1.127,1.125-3.195,1.516-3.959
			c0.066-0.125,0.244-0.125,0.309,0c0.391,0.766,1.402,2.84,1.516,3.951c0,0.012,0.002,0.023,0.002,0.033
			c0.006,0.055,0.008,0.107,0.008,0.156c0,0.928-0.752,1.68-1.68,1.68s-1.68-0.752-1.68-1.68
			C12.003,38.313,12.007,38.259,12.011,38.204"/>
		<path style="fill:#1D3160;" d="M16.599,38.204c0.002-0.008,0.002-0.016,0.004-0.021c0.107-1.127,1.123-3.195,1.516-3.959
			c0.064-0.125,0.242-0.125,0.307,0c0.391,0.766,1.402,2.84,1.516,3.951c0.002,0.012,0.002,0.023,0.004,0.033
			c0.004,0.055,0.008,0.107,0.008,0.156c0,0.928-0.752,1.68-1.68,1.68c-0.93,0-1.682-0.752-1.682-1.68
			C16.591,38.313,16.595,38.259,16.599,38.204"/>
	</g>
</g>
<g id="Layer_1">
</g>
</svg>
