<?xml version="1.0" encoding="iso-8859-1"?>
<!-- Generator: Adobe Illustrator 16.0.0, SVG Export Plug-In . SVG Version: 6.00 Build 0)  -->
<!DOCTYPE svg PUBLIC "-//W3C//DTD SVG 1.1//EN" "http://www.w3.org/Graphics/SVG/1.1/DTD/svg11.dtd">
<svg version="1.1" xmlns="http://www.w3.org/2000/svg" xmlns:xlink="http://www.w3.org/1999/xlink" x="0px" y="0px"
	 width="28.967px" height="37.183px" viewBox="0 0 28.967 37.183" style="enable-background:new 0 0 28.967 37.183;"
	 xml:space="preserve">
<g id="Medium">
	<g>
		<polygon style="fill:#EDE5D4;" points="1.715,36.183 14.483,2.43 27.252,36.183 		"/>
		<polygon style="fill:none;stroke:#1D3160;stroke-width:2;stroke-linejoin:round;stroke-miterlimit:10;" points="1.715,36.183 
			14.483,2.43 27.252,36.183 		"/>
		<g>
			<path style="fill:#1D3160;" d="M6.955,31.683c0-0.008,0-0.016,0.002-0.021c0.107-1.127,1.123-3.195,1.516-3.959
				c0.064-0.125,0.242-0.125,0.307,0c0.391,0.766,1.403,2.84,1.516,3.951c0.002,0.012,0.002,0.023,0.004,0.033
				c0.005,0.055,0.008,0.107,0.008,0.156c0,0.928-0.752,1.68-1.68,1.68s-1.68-0.752-1.68-1.68
				C6.947,31.792,6.949,31.739,6.955,31.683"/>
			<path style="fill:#1D3160;" d="M11.543,31.683c0.002-0.008,0.002-0.016,0.002-0.021c0.108-1.127,1.125-3.195,1.517-3.959
				c0.065-0.125,0.243-0.125,0.308,0c0.391,0.766,1.402,2.84,1.516,3.951c0,0.012,0.002,0.023,0.003,0.033
				c0.005,0.055,0.008,0.107,0.008,0.156c0,0.928-0.752,1.68-1.681,1.68c-0.928,0-1.68-0.752-1.68-1.68
				C11.535,31.792,11.539,31.739,11.543,31.683"/>
		</g>
	</g>
</g>
<g id="Layer_1">
</g>
</svg>
