<?xml version="1.0" encoding="iso-8859-1"?>
<!-- Generator: Adobe Illustrator 16.0.0, SVG Export Plug-In . SVG Version: 6.00 Build 0)  -->
<!DOCTYPE svg PUBLIC "-//W3C//DTD SVG 1.1//EN" "http://www.w3.org/Graphics/SVG/1.1/DTD/svg11.dtd">
<svg version="1.1" xmlns="http://www.w3.org/2000/svg" xmlns:xlink="http://www.w3.org/1999/xlink" x="0px" y="0px"
	 width="29.333px" height="29.298px" viewBox="0 0 29.333 29.298" style="enable-background:new 0 0 29.333 29.298;"
	 xml:space="preserve">
<g id="MediumPointingUp">
	<rect x="1.671" y="2.127" style="fill:#EDE5D4;" width="25.917" height="25.917"/>
	<g>
		<path style="fill:#1D3160;" d="M26.771,3.126v24.1H2.669v-24.1H26.771 M27.968,1.126H1.472c-0.443,0-0.803,0.359-0.803,0.803
			v26.495c0,0.443,0.359,0.803,0.803,0.803h26.496c0.443,0,0.803-0.359,0.803-0.803V1.929C28.771,1.485,28.411,1.126,27.968,1.126
			L27.968,1.126z"/>
	</g>
	<line style="fill:none;stroke:#1D3160;stroke-width:2;stroke-miterlimit:10;" x1="1.671" y1="2.127" x2="27.588" y2="28.044"/>
	<line style="fill:#231F20;stroke:#1D3160;stroke-width:2;stroke-miterlimit:10;" x1="1.271" y1="28.591" x2="27.466" y2="2.395"/>
	<g>
		<path style="fill:#1D3160;" d="M11.648,24.821c0-0.005,0-0.013,0.002-0.017c0.083-0.871,0.869-2.475,1.172-3.066
			c0.051-0.096,0.19-0.096,0.238,0c0.303,0.595,1.088,2.199,1.176,3.062c0.002,0.007,0.002,0.017,0.003,0.026
			c0.003,0.041,0.005,0.082,0.005,0.119c0,0.719-0.58,1.301-1.302,1.301c-0.718,0-1.3-0.582-1.3-1.301
			C11.643,24.906,11.643,24.864,11.648,24.821"/>
		<path style="fill:#1D3160;" d="M15.203,24.821c0-0.005,0-0.013,0.002-0.017c0.082-0.871,0.869-2.475,1.172-3.066
			c0.053-0.096,0.189-0.096,0.237,0c0.304,0.595,1.087,2.199,1.173,3.062c0.002,0.007,0.002,0.017,0.004,0.026
			c0.002,0.041,0.006,0.082,0.006,0.119c0,0.719-0.582,1.301-1.3,1.301s-1.302-0.582-1.302-1.301
			C15.195,24.906,15.199,24.864,15.203,24.821"/>
	</g>
</g>
<g id="Layer_1">
</g>
</svg>
