<?xml version="1.0" encoding="iso-8859-1"?>
<!-- Generator: Adobe Illustrator 16.0.0, SVG Export Plug-In . SVG Version: 6.00 Build 0)  -->
<!DOCTYPE svg PUBLIC "-//W3C//DTD SVG 1.1//EN" "http://www.w3.org/Graphics/SVG/1.1/DTD/svg11.dtd">
<svg version="1.1" xmlns="http://www.w3.org/2000/svg" xmlns:xlink="http://www.w3.org/1999/xlink" x="0px" y="0px"
	 width="22.215px" height="27.04px" viewBox="0 0 22.215 27.04" style="enable-background:new 0 0 22.215 27.04;"
	 xml:space="preserve">
<g id="Small">
	<polygon style="fill:#EDE5D4;" points="1.52,26.04 11.108,2.04 20.694,26.04 	"/>
	<polygon style="fill:none;stroke:#1D3160;stroke-width:2;stroke-linejoin:round;stroke-miterlimit:10;" points="1.52,26.04 
		11.108,2.04 20.694,26.04 	"/>
	<g>
		<path style="fill:#1D3160;" d="M9.337,21.487c0.001-0.008,0.001-0.016,0.002-0.021c0.108-1.127,1.124-3.195,1.517-3.959
			c0.064-0.125,0.242-0.125,0.307,0c0.391,0.766,1.402,2.84,1.515,3.951c0.001,0.012,0.002,0.023,0.004,0.035
			c0.004,0.053,0.008,0.105,0.008,0.154c0,0.93-0.751,1.682-1.68,1.682c-0.928,0-1.68-0.752-1.68-1.682
			C9.33,21.597,9.333,21.544,9.337,21.487"/>
	</g>
</g>
<g id="Layer_1">
</g>
</svg>
