<?xml version="1.0" encoding="iso-8859-1"?>
<!-- Generator: Adobe Illustrator 16.0.0, SVG Export Plug-In . SVG Version: 6.00 Build 0)  -->
<!DOCTYPE svg PUBLIC "-//W3C//DTD SVG 1.1//EN" "http://www.w3.org/Graphics/SVG/1.1/DTD/svg11.dtd">
<svg version="1.1" xmlns="http://www.w3.org/2000/svg" xmlns:xlink="http://www.w3.org/1999/xlink" x="0px" y="0px" width="295.3px"
	 height="281.964px" viewBox="0 0 295.3 281.964" style="enable-background:new 0 0 295.3 281.964;" xml:space="preserve">
<g id="WheelBoard">
	<g>
		<polygon style="fill:none;stroke:#1D3160;stroke-width:2;stroke-linejoin:round;stroke-miterlimit:10;" points="192.044,280.474 
			104.76,280.964 33.858,230.056 6.422,147.194 32.93,64.032 103.256,12.333 190.54,11.845 261.441,62.753 288.877,145.614 
			262.369,228.774 		"/>
		<polygon style="fill:none;stroke:#1D3160;stroke-width:2;stroke-linejoin:round;stroke-miterlimit:10;" points="123.665,74.585 
			170.458,74.203 208.54,101.397 223.366,145.784 209.271,190.407 171.636,218.221 124.843,218.604 86.759,191.41 71.933,147.022 
			86.03,102.4 		"/>
		
			<line style="fill:none;stroke:#1D3160;stroke-width:2;stroke-linejoin:round;stroke-miterlimit:10;" x1="103.256" y1="12.333" x2="192.044" y2="280.474"/>
		
			<line style="fill:none;stroke:#1D3160;stroke-width:2;stroke-linejoin:round;stroke-miterlimit:10;" x1="190.54" y1="11.845" x2="104.76" y2="280.964"/>
		
			<line style="fill:none;stroke:#1D3160;stroke-width:2;stroke-linejoin:round;stroke-miterlimit:10;" x1="33.858" y1="230.056" x2="262.639" y2="61.858"/>
		
			<line style="fill:none;stroke:#1D3160;stroke-width:2;stroke-linejoin:round;stroke-miterlimit:10;" x1="288.877" y1="145.614" x2="6.422" y2="147.194"/>
		
			<line style="fill:none;stroke:#1D3160;stroke-width:2;stroke-linejoin:round;stroke-miterlimit:10;" x1="262.369" y1="228.774" x2="32.93" y2="64.032"/>
		<polygon style="fill:none;stroke:#1D3160;stroke-width:2;stroke-linejoin:round;stroke-miterlimit:10;" points="86.03,102.4 
			68.483,38.823 123.743,74.203 146.487,12.333 170.798,73.778 225.163,36.751 208.604,101.585 274.461,102.751 223.31,145.614 
			275.551,185.125 209.526,189.596 228.017,252.406 171.431,218.223 150.013,278.896 124.674,218.485 71.334,254.477 
			86.194,189.712 22.037,188.476 71.933,147.194 20.948,106.104 		"/>
	</g>
</g>
<g id="Layer_1">
</g>
</svg>
