<?xml version="1.0" encoding="iso-8859-1"?>
<!-- Generator: Adobe Illustrator 16.0.0, SVG Export Plug-In . SVG Version: 6.00 Build 0)  -->
<!DOCTYPE svg PUBLIC "-//W3C//DTD SVG 1.1//EN" "http://www.w3.org/Graphics/SVG/1.1/DTD/svg11.dtd">
<svg version="1.1" xmlns="http://www.w3.org/2000/svg" xmlns:xlink="http://www.w3.org/1999/xlink" x="0px" y="0px"
	 width="701.058px" height="701.14px" viewBox="0 0 701.058 701.14" style="enable-background:new 0 0 701.058 701.14;"
	 xml:space="preserve">
<g id="ChessGrid">
	<rect x="69.686" y="26.967" style="fill:#FF74BF;" width="56.12" height="56.119"/>
	<rect x="182.088" y="26.967" style="fill:#FF74BF;" width="56.12" height="56.119"/>
	<rect x="294.329" y="26.967" style="fill:#FF74BF;" width="56.281" height="56.119"/>
	<rect x="406.729" y="26.967" style="fill:#FF74BF;" width="56.121" height="56.119"/>
	<rect x="125.806" y="83.086" style="fill:#FF74BF;" width="56.283" height="56.284"/>
	<rect x="238.208" y="83.086" style="fill:#FF74BF;" width="56.12" height="56.284"/>
	<rect x="350.61" y="83.086" style="fill:#FF74BF;" width="56.12" height="56.284"/>
	<rect x="13.483" y="83.086" style="fill:#FF74BF;" width="56.202" height="56.367"/>
	<rect x="69.686" y="139.453" style="fill:#FF74BF;" width="56.201" height="56.119"/>
	<rect x="182.088" y="139.37" style="fill:#FF74BF;" width="56.038" height="56.202"/>
	<rect x="294.329" y="139.37" style="fill:#FF74BF;" width="56.281" height="56.202"/>
	<rect x="406.729" y="139.37" style="fill:#FF74BF;" width="56.203" height="56.202"/>
	<rect x="350.61" y="195.572" style="fill:#FF74BF;" width="56.12" height="56.12"/>
	<rect x="238.126" y="195.572" style="fill:#FF74BF;" width="56.282" height="56.12"/>
	<rect x="125.886" y="195.572" style="fill:#FF74BF;" width="56.202" height="56.12"/>
	<rect x="13.483" y="195.572" style="fill:#FF74BF;" width="56.119" height="56.12"/>
	<rect x="69.603" y="251.691" style="fill:#FF74BF;" width="56.284" height="56.284"/>
	<rect x="182.088" y="251.691" style="fill:#FF74BF;" width="56.12" height="56.284"/>
	<rect x="294.408" y="251.691" style="fill:#FF74BF;" width="56.202" height="56.284"/>
	<rect x="406.729" y="251.691" style="fill:#FF74BF;" width="56.121" height="56.284"/>
	<rect x="13.483" y="307.976" style="fill:#FF74BF;" width="56.202" height="56.118"/>
	<rect x="125.886" y="307.976" style="fill:#FF74BF;" width="56.202" height="56.118"/>
	<rect x="238.208" y="307.976" style="fill:#FF74BF;" width="56.199" height="56.118"/>
	<rect x="350.61" y="307.976" style="fill:#FF74BF;" width="56.12" height="56.118"/>
	<rect x="406.729" y="364.094" style="fill:#FF74BF;" width="56.121" height="56.12"/>
	<rect x="350.529" y="420.214" style="fill:#FF74BF;" width="56.201" height="56.284"/>
	<rect x="294.408" y="364.094" style="fill:#FF74BF;" width="56.202" height="56.12"/>
	<rect x="238.126" y="420.214" style="fill:#FF74BF;" width="56.282" height="56.284"/>
	<rect x="182.007" y="364.094" style="fill:#FF74BF;" width="56.202" height="56.12"/>
	<rect x="125.886" y="420.214" style="fill:#FF74BF;" width="56.121" height="56.284"/>
	<rect x="13.483" y="420.214" style="fill:#FF74BF;" width="56.119" height="56.284"/>
	<rect x="69.686" y="364.094" style="fill:#FF74BF;" width="56.201" height="56.12"/>
	<rect x="462.851" y="83.086" style="fill:#FF74BF;" width="56.203" height="56.284"/>
	<rect x="519.054" y="27.05" style="fill:#FF74BF;" width="56.115" height="56.036"/>
	<rect x="575.169" y="83.086" style="fill:#FF74BF;" width="56.285" height="56.367"/>
	<rect x="631.454" y="27.05" style="fill:#FF74BF;" width="56.12" height="56.119"/>
	<rect x="631.454" y="139.453" style="fill:#FF74BF;" width="56.12" height="56.119"/>
	<rect x="519.054" y="139.453" style="fill:#FF74BF;" width="56.115" height="56.119"/>
	<rect x="462.851" y="195.572" style="fill:#FF74BF;" width="56.203" height="56.12"/>
	<rect x="575.169" y="195.572" style="fill:#FF74BF;" width="56.285" height="56.12"/>
	<rect x="519.054" y="251.691" style="fill:#FF74BF;" width="56.115" height="56.284"/>
	<rect x="631.454" y="251.691" style="fill:#FF74BF;" width="56.12" height="56.284"/>
	<rect x="575.169" y="307.976" style="fill:#FF74BF;" width="56.285" height="56.118"/>
	<rect x="462.851" y="307.976" style="fill:#FF74BF;" width="56.203" height="56.118"/>
	<rect x="519.054" y="364.094" style="fill:#FF74BF;" width="56.115" height="56.12"/>
	<rect x="631.454" y="364.094" style="fill:#FF74BF;" width="56.12" height="56.12"/>
	<rect x="462.851" y="420.214" style="fill:#FF74BF;" width="56.203" height="56.284"/>
	<rect x="575.169" y="420.214" style="fill:#FF74BF;" width="56.285" height="56.284"/>
	<rect x="69.603" y="476.334" style="fill:#FF74BF;" width="56.284" height="56.281"/>
	<rect x="182.088" y="476.334" style="fill:#FF74BF;" width="56.12" height="56.281"/>
	<rect x="294.408" y="476.334" style="fill:#FF74BF;" width="56.202" height="56.281"/>
	<rect x="406.729" y="476.334" style="fill:#FF74BF;" width="56.121" height="56.281"/>
	<rect x="13.483" y="532.615" style="fill:#FF74BF;" width="56.202" height="56.12"/>
	<rect x="125.886" y="532.615" style="fill:#FF74BF;" width="56.202" height="56.12"/>
	<rect x="238.208" y="532.615" style="fill:#FF74BF;" width="56.199" height="56.12"/>
	<rect x="350.61" y="532.615" style="fill:#FF74BF;" width="56.12" height="56.12"/>
	<rect x="406.729" y="588.735" style="fill:#FF74BF;" width="56.121" height="56.119"/>
	<rect x="350.529" y="644.854" style="fill:#FF74BF;" width="56.201" height="56.285"/>
	<rect x="294.408" y="588.735" style="fill:#FF74BF;" width="56.202" height="56.119"/>
	<rect x="238.126" y="644.854" style="fill:#FF74BF;" width="56.282" height="56.285"/>
	<rect x="182.007" y="588.735" style="fill:#FF74BF;" width="56.202" height="56.119"/>
	<rect x="125.886" y="644.854" style="fill:#FF74BF;" width="56.121" height="56.285"/>
	<rect x="13.483" y="644.854" style="fill:#FF74BF;" width="56.119" height="56.285"/>
	<rect x="69.686" y="588.735" style="fill:#FF74BF;" width="56.201" height="56.119"/>
	<rect x="519.054" y="476.334" style="fill:#FF74BF;" width="56.115" height="56.281"/>
	<rect x="631.454" y="476.334" style="fill:#FF74BF;" width="56.12" height="56.281"/>
	<rect x="575.169" y="532.615" style="fill:#FF74BF;" width="56.285" height="56.12"/>
	<rect x="462.851" y="532.615" style="fill:#FF74BF;" width="56.203" height="56.12"/>
	<rect x="519.054" y="588.735" style="fill:#FF74BF;" width="56.115" height="56.119"/>
	<rect x="631.454" y="588.735" style="fill:#FF74BF;" width="56.12" height="56.119"/>
	<rect x="462.851" y="644.854" style="fill:#FF74BF;" width="56.203" height="56.285"/>
	<rect x="575.169" y="644.854" style="fill:#FF74BF;" width="56.285" height="56.285"/>
</g>
<g id="Layer_1">
</g>
</svg>
